<svg xmlns="http://www.w3.org/2000/svg" viewBox="0 0 108 97.2"><defs>
	<filter id="dropshadow" height="130%">
		<feGaussianBlur in="SourceAlpha" stdDeviation="1.25"/>
		<feOffset dx="0" dy="0" result="offsetblur"/>
		<feMerge>
			<feMergeNode/>
			<feMergeNode in="SourceGraphic"/>
		</feMerge>
	</filter>
	<style>.a{fill:#fff; }</style>
</defs><title>heartOverlay</title><path class="a" d="M93.54,58.17c-8.36,12.24-19.48,21.51-32,29.2-1.84,1.13-3.72,2.17-5.6,3.22a3.85,3.85,0,0,1-4-.08C39.45,83.63,28.2,75.18,19,64.13c-5.17-6.22-9.38-13-11.37-21C4.15,29.41,11.51,13.38,24.07,8.08c9.06-3.82,17.42-1.85,25.24,3.55a23.61,23.61,0,0,1,3.38,2.75c1,1,1.75.87,2.75-.05A30.9,30.9,0,0,1,67.68,7.22c10.1-2.91,20,.39,26.62,8.8a31.36,31.36,0,0,1,6.93,18.6C101.22,44.34,98.08,51.5,93.54,58.17Z"/></svg>
