<svg xmlns="http://www.w3.org/2000/svg" viewBox="0 0 43.7 39.28"><defs><style>.heart-fill{opacity:0;}</style></defs><title>heartControl</title><path d="M40.46,4.58A11.25,11.25,0,0,0,28.16.52,14.28,14.28,0,0,0,22.48,3.8c-.46.42-.79.51-1.27,0a10.9,10.9,0,0,0-1.56-1.27C16,.07,12.18-.85,8,.92,2.19,3.37-1.21,10.77.4,17.13a24.58,24.58,0,0,0,5.27,9.69A51.8,51.8,0,0,0,20.88,39a1.78,1.78,0,0,0,1.84,0c.87-.48,1.74-1,2.59-1.49A47.24,47.24,0,0,0,40.09,24.06a18.46,18.46,0,0,0,3.55-10.89A14.49,14.49,0,0,0,40.46,4.58Zm-1.1,14.89A30.34,30.34,0,0,1,31.91,29a49.72,49.72,0,0,1-9.4,6.79,1.39,1.39,0,0,1-1.15.07A45,45,0,0,1,6.2,22.7a15,15,0,0,1-3.14-8.82A11.21,11.21,0,0,1,6.16,5.65,8.27,8.27,0,0,1,17,4.35,25.62,25.62,0,0,1,20.37,7c1.11,1,1.86,1.05,2.91,0A12.93,12.93,0,0,1,29.5,3.18a8.46,8.46,0,0,1,9.28,4A12.44,12.44,0,0,1,39.36,19.47Z"/><path className="heart-fill" d="M40.15,24.06A47.24,47.24,0,0,1,25.36,37.56c-.85.52-1.72,1-2.59,1.49a1.78,1.78,0,0,1-1.84,0A51.79,51.79,0,0,1,5.73,26.82,24.58,24.58,0,0,1,.45,17.13C-1.15,10.78,2.24,3.37,8,.92,12.23-.85,16.1.07,19.71,2.56a10.91,10.91,0,0,1,1.56,1.27c.48.48.8.4,1.27,0A14.28,14.28,0,0,1,28.21.52a11.25,11.25,0,0,1,12.3,4.06,14.49,14.49,0,0,1,3.19,8.6A18.46,18.46,0,0,1,40.15,24.06Z"/></svg>
