<svg xmlns="http://www.w3.org/2000/svg" viewBox="0 0 159.31 67.53"><defs><style>.a{fill:none;stroke:#000;stroke-miterlimit:10;stroke-width:13px;}</style></defs><title>noImageFace</title><polygon points="52.6 9.29 50 15.42 43.88 18.61 37.4 15.76 34.55 9.29 37.74 3.15 43.88 0.11 50.01 3.16 52.6 9.29"/><polygon points="123.48 9.29 120.57 15.32 114.53 18 108.14 15.69 105.52 9.29 108.3 3.06 114.53 0 120.91 2.91 123.48 9.29"/><polyline class="a" points="6.27 59.39 6.4 59.88 13.57 58.32 20.6 56.18 27.84 54.95 34.99 53.21 42.26 52.19 49.63 52.04 56.87 50.73 64.2 50.33 71.53 49.69 78.88 49.82 86.21 50.08 93.52 50.76 100.84 51.19 108.15 51.75 115.44 52.53 122.77 53.15 129.91 54.97 137.19 55.99 144.33 57.7 151.36 59.84 151.25 60.24"/></svg>