<svg xmlns="http://www.w3.org/2000/svg" viewBox="0 0 135 141.97"><defs><style>.a{fill:#fff;}</style></defs><title>thumbsUp</title><path d="M126.6,114v-.5l-12.1,0h-6.58a.71.71,0,0,0-.78.81c0,2.46,0,4.72,0,7.72H118.6v8.12H114c-.84,0-1.68,0-2.52,0-.67,0-1,0-.91.77.06,1,0,2.13,0,3.13H60.88c0,3,0,6.05,0,8h49.7c0-1,0-1.92,0-2.95,0-.66.2-.8.85-.79,1.77,0,3.55,0,5.32,0,2,0,2,0,2-2s0-4,0-6.15h1.12c2.05,0,4.11,0,6.16,0,.63,0,.88.07.88-.6,0-5.28,0-10.59,0-15.59Z"/><path d="M39.43,126c0-2,0-3.25,0-4.83,0-1.21,0-1.19-1.23-1.19H27.48c-.21,0,.12,0-.88,0V116.2c0-10.59.09-21.17.09-31.76q0-7.24,0-14.48c0-1.94-.26-1.7,1.69-1.71,3.3,0,6.61,0,9.91,0,.84,0,1.2-.22,1.11-1.1-.07-.68,0-1.37,0-2.05s.16-1,.93-1c1.87.05,3.74,0,5.6,0,.66,0,.85-.21.84-.86,0-2.61,0-5.23,0-7.85,0-.85.28-1.14,1.14-1.11,1.77.06,3.73,0,5.5,0,.3,0,.2,0,1.2-.05V50c0-1.34-.14-2.68-.19-4,0-.75.09-1.05.9-1,2.08,0,4.13,0,6.21,0,.69,0,1-.21,1-.91,0-2.49.09-5,.09-7.47V35H63.9c1.74,0,3.49.21,5.23.26.74,0,.88-.16.88-.81,0-3.86,0-7.66,0-11.52,0-.92.3-1.15,1.19-1.1,1.42.07,2.44,0,4.44,0V8H87C87,6,87.08,3,87.1.5c0-.61-.44-.49-.85-.49-4.95,0-9.9,0-14.85,0-.78,0-.94.31-.93,1,0,2.12,0,4.24,0,6.36,0,.26,0,.53-.07.82-.76,0-1.41,0-2.06,0s-1,.27-1,1c0,3,0,6,0,9,0,1.17,0,2.73,0,3.73H61.6v1.14c0,3.8.1,7.6.13,11.39,0,.75-.17,1-.9.94-1.55,0-2.9,0-4.45,0-2,0-1.77,0-1.77,2V42h-9v1.23c0,3.24.22,6.48.26,9.71,0,.72-.07,1-.82,1-1.87,0-3.67,0-5.54,0-.67,0-.92.22-.9.92,0,1.28,0,2.55,0,3.83,0,1.49,0,1.5-1.44,1.49-2.89,0-5.79,0-8.68,0-2.08,0-1.74-.16-1.77,1.72,0,1.49,0,2.86,0,4.36,0,.61,0,1.8,0,1.8H25.56c-8.09,0-16.19.14-24.28.15C0,68.13,0,68.19,0,69.39,0,74,0,78.64,0,83.24q0,12.61,0,25.23,0,9.34,0,18.69c0,.64.13,1,.87,1,8.43,0,16.87.07,25.3.09,4.14,0,8.28,0,12.42-.09.69,0,.85.24.84.86,0,1.49,0,3,0,4.48,0,.56.06.76.63.76,6.9,0,13.58,0,20.58,0V126Z"/><path d="M87.09,13.77q0,10.23,0,20.45c0,1.21,0,1.22-1.26,1.23s-2.74,0-4.11,0c-.79,0-1,.27-1,1,.05,1.46,0,2.93,0,4.39,0,.86-.22,1.22-1.15,1.18-1.46-.07-2.93,0-4.39,0-.63,0-.88.15-.88.82q0,9.43,0,18.86c0,.76.33.86,1,.86,4.64,0,9.28.22,13.91.22,12.08,0,24.16.23,36.23.23h1.14V74c3,0,5,0,7.44,0,.72,0,.62-.43.62-.92,0-3-.06-6-.06-9.06V62h-8V60.43c0-1.68.1-3.36.14-5,0-.74-.12-1.06-.93-1-1.34.06-2.65,0-4,0q-19.19,0-38.37,0c-.71,0-1-.15-1-.93,0-3.55,0-7.1,0-10.65,0-.24,0-.48.08-.82,1.82,0,3.58,0,5.35,0,.75,0,1-.24,1-1,0-1.52,0-3.05,0-4.58,0-.85.28-1.07,1.08-1,1.4.06,2.8,0,4.2.05.86,0,1.13-.25,1.12-1.11,0-4.42,0-8.84,0-13.26q0-5.93,0-11.86c0-.49.1-1-.7-1-2.51,0-5,0-7.53.07C87.06,10.12,87.09,11.94,87.09,13.77Z"/><path d="M87,8.26v0h0v0Z"/><path d="M134.22,80.8c-1.59,0-3.17.18-4.76.18H126.6V74.06c-6,0-12.38,0-18.63,0-.69,0-.87.22-.86.91,0,2.15.06,4.29,0,6.44,0,.69.29.83.9.83,5.88,0,11.77,0,17.65,0,.88,0,1.18.18,1.17,1.12-.06,3.26,0,6.52,0,9.78,2.45,0,4.89-.05,7.34-.06.49,0,.83,0,.82-.67q0-5.5,0-11C135,80.77,134.76,80.79,134.22,80.8Z"/><path d="M126.81,93.09v0h0v0Z"/><path d="M127.65,101c-.72,0-.91-.2-.9-1,0-2.33,0-4.65,0-7-.64,0-1.26-.11-1.9-.11H108.1c-.27,0-.55,0-.93.06,0,1.48,0,2.9,0,4.32,0,1,0,2,0,3,0,.63.22.79.81.79,2.89,0,5.67,0,8.56,0H126.6V113h8V101C132.6,101,130,101,127.65,101Z"/><path class="a" d="M126.84,93.12c-.65,0-1.3-.11-1.94-.11H108.1c-.27,0-.55,0-.93.06,0,1.48,0,2.9,0,4.32,0,1,0,2,0,3,0,.63.22.79.81.79,2.89,0,5.79,0,8.68,0h10.18v12.32l-12.23,0H108c-.43,0-.81,0-.81.6,0,2.46,0,4.91,0,7.51h11.45v8.54H114c-.84,0-1.68,0-2.52,0-.68,0-1,.17-.92.89.06,1,0,2,0,3.25H60.86v-8.15H39.43c0-1.72,0-3.3,0-4.88,0-1.21,0-1.21-1.23-1.21H27.55c-.21,0-.43,0-.81-.06,0-1.25,0-2.48,0-3.71q0-15.88,0-31.76c0-4.83,0-9.65,0-14.48,0-1.94-.28-1.7,1.67-1.71,3.3,0,6.6,0,9.9,0,.84,0,1.19-.22,1.11-1.1-.07-.68,0-1.37,0-2.05s.16-1,.93-1c1.87.05,3.74,0,5.6,0,.66,0,.85-.21.84-.86,0-2.61,0-5.23,0-7.85,0-.85.28-1.14,1.14-1.11,1.77.06,3.55,0,5.32,0,.3,0,.6,0,1-.05,0-1.51,0-2.94,0-4.36s0-2.68,0-4c0-.75.18-1.05,1-1,2.08,0,4.17,0,6.26,0,.69,0,.92-.21.91-.91,0-2.49,0-5,0-7.47,0-.31,0-.62,0-1.07H63.9c1.74,0,3.49,0,5.23,0,.74,0,.88-.28.88-.94,0-3.86,0-7.72,0-11.58,0-.92.27-1.18,1.16-1.13,1.42.07,2.85,0,4.41,0V8.26H87c0,1.83,0,3.67.05,5.5q0,10.23,0,20.45c0,1.21,0,1.22-1.26,1.23s-2.74,0-4.11,0c-.79,0-1,.27-1,1,.05,1.46,0,2.93,0,4.39,0,.86-.22,1.22-1.15,1.18-1.46-.07-2.93,0-4.39,0-.63,0-.88.15-.88.82q0,9.43,0,18.86c0,.76.33.86,1,.86,4.64,0,9.28,0,13.91,0h37.61V74.06c-6.25,0-12.51,0-18.76,0-.69,0-.93.22-.92.91q0,3.22,0,6.44c0,.69.28.83.89.83,5.88,0,11.76,0,17.64,0,.88,0,1.18.18,1.16,1.12C126.79,86.58,126.83,89.85,126.84,93.12Z"/></svg>