<svg xmlns="http://www.w3.org/2000/svg" viewBox="0 0 207 269.51"><title>identity</title><path d="M11.65,235.4l0,.25,0,.39,0,.24,0,.22-.08.2-.11.11-.17,0-.25,0-.85,0H10l-.83.06H8.91l-.22,0-.09-.13,0-.22-.06-1,0-.25,0-1v-.25l0-1v-.22l-.06-.13-.17-.06H7.87l-.63,0-.25,0-1.25,0-.85,0-.2,0-.14,0-.08.14,0,.22,0,1v.25l0,1,0,.25.06.67v.36l-.06.22-.14.13-.2,0-.23,0-.24,0L3,236.83l-.25,0-.74,0-.25,0H1.63l-.17,0-.13-.06-.06-.08,0-.17,0-.14v-.25l0-.47v-1.32l0-.83v-.25l0-.83v-.25l0-.83v-.25l0-.83v-1.08l0-.25,0-.83,0-.25,0-.83,0-.25-.08-.53v-.33l.06-.19.14-.11.2,0,.23,0h.24l.66,0H3l.63,0h.25l.24,0,.2,0,.13.13.06.2,0,.11v.23l0,.71,0,.25,0,1v1.28l0,.19,0,.13.08.06.16,0,.22,0h.22l.59-.09.23,0,1,0,.92.06h.24l.11,0,.17-.09.06-.13,0-.17.06-1v-.25l0-1V227l0-1,0-.25.13-.14.19,0h.25l.85,0h.25l.7,0,.25,0h.14l.2,0,.13.13.06.22v.24l0,.63,0,.25,0,.83v.25l0,.83v.25l.06.83v.25l-.06.83v.25l0,.83v.25l0,.83v.25l0,.83Z"/><path d="M12.9,268.71l0,.22-.11.17-.17.08-.2,0h-.22l-.36,0-.23,0h-.71l-1,.06-.2-.06L9.67,269l-.08-.17-.48-1.32L9,267.39l-.14,0-.19,0-.94-.06H7.48l-1.17,0-.94,0H5.13l-.23,0H4.18l-.2,0-.13.08-.09.19-.36,1.06-.09.25-.17.2-.23.09-.25,0-.91,0H1.49l-1,.06-.2,0-.19-.09L0,268.91l0-.2,0-.12.09-.25.22-.48.09-.24.39-.88.09-.22.41-.88.09-.24.36-.85.09-.23.42-.88.09-.22L3,261.95l.44-.94.11-.25.34-.7L4,259.8l.3-.72.09-.23.28-.64.08-.17.16-.09.23,0,.72,0H7.06l.72,0,.27,0,.17.13.08.2.22.61.09.24.39.74.09.22.34.77.09.22.28.8.09.22.34.75.09.22.35.77.09.22.31.78.09.22.48,1,.38.74.11.22.42,1Zm-5.23-4.41-.06-.2L7.26,263l-.08-.23-.31-.92-.08-.2-.16-.11-.2,0-.17,0-.16.16-.42,1.06-.09.23-.41,1,0,.23,0,.19.17.08.22,0h1l.74,0,.2-.06.13-.13Z"/><path d="M37.26,231.06l0,.25,0,.36,0,.23-.09.47,0,.36,0,.23,0,.25-.06.23-.16.33-.11.22-.42.7-.14.2-.16.2-.16.17-.25.27-.17.16-.2.16L35,236l-.28.19-.2.13-.23.13-.22.09-.31.12-.24.06-.5.16-.27.08-.25.06-.27.06-.27,0-.27,0h-.85l-.53,0-.52-.06-.22,0-.23-.06-.85-.28-.25-.08-.27-.11-.5-.22-.24-.13L27,236l-.2-.16-.2-.17-.19-.2-.17-.2-.42-.42-.16-.19-.16-.2-.13-.2-.12-.31-.24-.7-.09-.33,0-.24,0-.25,0-.24,0-.34,0-.24,0-.26v-.27l0-.27,0-.28,0-.27,0-.27.06-.27.08-.27.08-.23.09-.25.11-.36.11-.25.06-.14.13-.24.22-.34.16-.22.08-.13.19-.19.27-.22.2-.16.2-.14.47-.31.2-.13.22-.13.22-.11.33-.14.22-.08.24-.08.23-.06.59-.11.24,0,.78-.09.5,0,.47,0,.38,0,.27,0,.27,0,.27.06.27,0,.25.06.24.06.23.08.33.13.22.09.52.3.2.14.2.16.27.25.17.16.17.17.14.19.22.3.13.2.11.2.13.2.17.31.13.2.11.24.08.22.08.36.09.47,0,.27,0,.27Zm-3.82,2,.14-.22.16-.34.09-.24.08-.36,0-.24,0-.37v-.27l0-.27,0-.25-.09-.47-.06-.22-.17-.34-.13-.2-.22-.28-.16-.17-.24-.25-.17-.14-.41-.24-.22-.09-.25-.08-.25,0-.5,0-.23,0-.34,0-.24,0-.41.11-.25.09-.36.19-.22.14-.25.22-.17.19-.17.23-.13.2,0,.09-.14.33-.08.24,0,.11,0,.22,0,.22,0,.22,0,.24v.24l0,.25,0,.25,0,.14.06.24,0,.11.08.22.06.12.13.22.08.13.17.22.09.11.19.19.31.27.22.14.25.13.23.09.33.11.24,0,.39,0,.27,0,.39,0,.25,0,.34-.08.22-.09.35-.22.19-.14.25-.25.16-.17Z"/><path d="M36.38,263.86l0,.27,0,.37,0,.25-.11.36-.08.25-.09.24-.09.25-.09.27-.09.23-.17.34-.13.2-.22.25-.16.17-.27.25-.34.35-.2.17-.3.24-.2.13-.31.17-.2.09-.34.13-.23.08-.25.06-.25,0-1,.14-.24,0-.34,0h-.25l-.5,0-.41,0h-.25l-.5,0-.39,0-.27,0-.24,0h-1.1l-.24,0-.67-.06-.13-.06-.08-.08,0-.17,0-.25,0-.12,0-.47v-.22l0-.36v-.24l0-.25v-.25l0-.83v-.25l0-.83,0-.23,0-.34,0-.24,0-.27v-.25l0-.41,0-.27v-.14l0-.27.06-.83v-.25l0-.83v-.25l0-.83v-.61l0-.25,0-.23,0-.17.06-.09.17,0,.27,0,.24,0,.25,0,1.38,0h.25l.75,0,.13,0h.28l.66,0,.23,0h.25l.39,0,.5,0,.25,0,.41.06.25,0,.24.06.56.2.23.11.24.13.22.13.52.36.2.17.19.16.34.33.16.16.14.17.11.2.17.34.09.24.08.25.09.25.08.25.06.25.06.34,0,.25,0,.27,0,.25,0,.38,0,.25Zm-3.57,1.35.11-.24.09-.27.06-.23.06-.34,0-.22,0-.36V263l0-.25,0-.36L33,262.2l0-.09-.13-.24-.23-.33-.08-.08-.16-.17-.17-.17-.19-.14-.35-.2-.22-.09-.22,0-.25,0-.39,0-.27,0H30l-.34,0-.23,0-.34,0-.17,0-.08.08,0,.19,0,.14,0,.23,0,.47,0,.25,0,.34,0,.25,0,.25v.25l0,.34v.75l0,.27,0,.25,0,.34v.22l0,.36,0,.23,0,.38.06.17.09.08.19,0,1.46-.09.36,0,.25,0,.27-.08.25-.09.23-.11.2-.14.28-.25.16-.19Z"/><path d="M61.7,235.37l0,.25.06.49,0,.23,0,.13,0,.17-.08.13-.09.08-.17,0-.24,0h-.25l-.63,0-.27,0h-.39l-.28,0-.58-.08-.11,0-.06-.08,0-.16,0-.22,0-.24,0-.53V234l0-1v-.25l.06-1v-1.22l0-.19-.09-.06H58.4l-.11.14-.16.22-.66.75-1,1.14-.63.78-.14.13-.11,0h-.13l-.17,0-.19,0-.17-.13-.78-.94-.58-.77-.16-.19-.81-.91-.2-.2-.09,0,0,.17,0,1v.25l.06,1V233l0,1v.25l0,1v.24l0,.47,0,.25,0,.27,0,.2-.06.09-.11,0-.41,0-.25,0-.61,0-.25,0-.75.06h-.36l-.19,0-.09-.09,0-.11,0-.16v-.36l0-.49v-2.41l0-.83v-.25l0-.83,0-.25,0-.85V230l0-.83,0-.25-.06-.83,0-.25.06-.83v-.25l-.06-.58v-.25l0-.2.06-.11.09-.08.13,0,.2,0,.27,0,.34.08h.25l.49,0,.27,0,.23,0,.59,0h.2l.17.08.16.17.55.61.16.2.45.64.16.2.52.61.16.22.48.61.16.17.14.08h.16l.14-.08.14-.16.47-.63.16-.22.5-.61.16-.2.55-.61.16-.2.41-.5.13-.17.13-.13.16-.08.2,0,.83,0,.74,0h.25l.47,0,.27,0,.19,0,.11,0,.09.08,0,.13,0,.19-.06.7,0,.25,0,.83V228l0,.83v.25l0,.83v.25l.06.85v.25l-.06.83v.25l0,.83v.25l-.06.83v.25Z"/><path d="M61.57,258.14l0,.2,0,.14-.09.25-.22.42-.11.24-.28.88-.11.23-.41.83-.11.23-.28.86-.09.25-.33.84-.09.25-.35.85-.11.23-.42.83-.11.23-.34.85-.09.25-.37.81-.09.25-.36.84-.06.17-.09.06-.19,0-1.14,0-.25,0-.88.08-.27,0-.2,0-.11-.11-.09-.19-.35-.83-.09-.23L53,267l-.09-.24-.34-.83-.09-.25-.28-.86-.09-.25-.37-.83-.09-.24-.41-.86-.09-.23-.31-.85-.11-.25-.37-.82-.09-.25-.28-.88-.09-.24-.28-.45-.09-.23,0-.14,0-.2,0-.14.11-.09.17,0,.09,0H50l.7,0,.75,0,1,.06.2,0,.13,0,.09.13.06.16.06.22.16.52.08.25.38.81.09.25.31.83.09.25.31,1,.09.25.34,1,.39,1.25.08.17.11.06.14-.06.09-.17.38-1,.08-.25.25-1,.08-.25.44-.94.08-.25.27-.86.08-.23.39-.83.08-.23.16-.58.09-.27.13-.2.11-.06.19,0h.11l.25,0,.39,0h1l.72,0,.28,0,.19,0,.09.09Z"/><path d="M84.52,235.39l0,.25-.06.84,0,.16-.06.11-.08.06-2,.06H82l-.83-.06-.25,0-.81.06-.25,0H78.76l-.81-.06H77.7l-1.35.08-.53,0-.19,0-.11-.08,0-.11,0-.17,0-.36,0-.25,0-.23v-.24l.06-.83v-.25l0-.83,0-.25,0-.83,0-.25,0-.85V230l.06-.83,0-.25,0-.83,0-.25v-.38l0-.47v-.23l0-.81,0-.22,0-.13.08-.06.13,0,.2,0,1,.06,1,0h.25l.94.06h.25l.94-.06h.25l2.13,0,.27,0,.53,0h.39l.22,0,.09.08,0,.11,0,.2v.42l0,.39V227l0,.39,0,.23,0,.24,0,.19-.06.11-.08.06-.19,0h-.13l-.25,0-1.47,0H81.8l-.8,0h-.25l-.82,0-.7,0H79l-.13,0-.16,0-.08.08,0,.09,0,.17,0,.38v.25l0,.27,0,.17,0,.11.06.08.17,0,.5,0,.5,0h1.49l1.75-.09.48,0,.17,0,.09.08,0,.09,0,.17,0,.27,0,.27v.52l0,.36,0,.47,0,.19-.06.11-.11.08-.16,0h-.31l-.71-.08-.25,0-1.25.08-1,0h-.25l-.63,0-.27,0-.19,0-.08,0,0,.11,0,.24,0,.39,0,.25v.35l0,.16,0,.11.06.06.17,0,.86,0H80l.84-.06,1.11.06h.25l1.11-.06h.24l.23,0,.56.06.09,0,.06.09,0,.17Z"/><path d="M86.39,268.71l0,.22-.11.17-.17.08-.2,0h-.22l-.36,0-.23,0h-.71l-1,.06-.2-.06-.09-.13-.08-.17-.48-1.32-.11-.16-.14,0-.19,0-.94-.06H81l-1.17,0-.94,0h-.24l-.23,0h-.72l-.2,0-.13.08-.09.19-.36,1.06-.09.25-.17.2-.23.09-.25,0-.91,0H75l-1,.06-.2,0-.19-.09-.13-.17,0-.2,0-.12.09-.25.22-.48.09-.24.39-.88.09-.22.41-.88.09-.24.36-.85.09-.23.42-.88.09-.22.56-1.28.44-.94.11-.25.34-.7.11-.25.3-.72.09-.23.28-.64.08-.17.16-.09.23,0,.72,0h1.22l.72,0,.27,0,.17.13.08.2.22.61.09.24.39.74.09.22.34.77L83,261l.28.8.09.22.34.75.09.22.35.77.09.22.31.78.09.22.48,1,.38.74.11.22.42,1Zm-5.23-4.41-.06-.2L80.75,263l-.08-.23-.31-.92-.08-.2-.16-.11-.2,0-.17,0-.16.16-.42,1.06-.09.23-.41,1,0,.23,0,.19.17.08.22,0h1l.74,0,.2-.06.13-.13Z"/><path d="M109.36,226.74l0,.24,0,.47,0,.25,0,.12,0,.19,0,.11-.09.08-.19,0h-.25l-.47,0-.25,0-.72,0H107l-.39,0h-.24l-.11,0-.16,0-.06.09,0,.2-.06.92v.25l.06.94,0,.25-.06.94,0,.25,0,.92v1.44l0,.92,0,.23.08.71,0,.25,0,.19-.08.08-.2,0-.3,0-.39,0-.27,0-.71,0h-.25l-.71,0-.19,0-.09,0,0-.17v-.27l0-.66,0-.25v-1.17l0-.94V233l0-.92v-.25l-.06-.94,0-.25v-1.19l0-.92v-.22l0-.13-.16,0h-.23l-.5,0h-.28l-.42,0-.27,0-.27,0-.36,0H100l-.13,0-.17,0-.09-.06-.06-.09,0-.16v-.11l0-.25,0-.47v-.23l0-.59,0-.25,0-.2.06-.11.09,0,.16,0h.36l.58,0h.25l.91-.06h.25l.92.08h.25l1.16-.08.91,0h.25l1.17,0h1.16l.52,0,.27,0,.13,0,.19,0,.11.06.08.11,0,.19V226l0,.24Z"/><path d="M109.71,260.34l0,.25v2.32l0,.91v.25l0,2.07v.27l0,.13,0,.27,0,.75,0,.91,0,.22-.06.19-.13.17-.16.11-.14,0-.22,0-.8,0-.25,0-.39,0h-.25l-.2,0-.19-.08-.19-.14-.14-.2-.24-.45-.14-.2-.61-.77-.16-.19-.61-.75-.14-.2-.55-.81-.14-.19-.61-.75-.16-.19-.58-.77-.14-.13-.11,0,0,.19,0,.78v.25l0,.78v.25l0,.88v.25l0,.88,0,.25.09.63,0,.25,0,.2-.11.11-.11,0-.19,0-.13,0-.27,0-.72,0h-.25l-.64,0h-.25l-.23,0-.17,0-.13-.08-.06-.11,0-.16,0-.11v-.23l0-.52,0-.25,0-.83v-.25l0-1.91,0-.25,0-.83,0-.25v-1.08l-.06-.83v-.25l.06-.83,0-.25-.06-.84,0-.25v-.36l0-.23,0-.24,0-.17,0-.11.09,0,.17,0,.47,0,.47,0h1.17l.19,0,.08.06.09.14.66.71.16.19.58.75.16.19.58.77.16.19.56.78.14.19.59.75.16.19.56.78.13.11.13,0,.11-.08v-.17l-.11-.66,0-.25,0-.67v-.25l-.06-1v-.25l.06-1,0-.25,0-.58v-.39l0-.2.06-.13.11-.06.19,0H107l.27,0,.7,0h.25l.53,0,.23,0,.36,0,.17,0,.11,0,.09.11,0,.22,0,.14,0,.27,0,.48,0,.25Z"/><path d="M135.24,231l0,.25,0,.36,0,.23-.09.47,0,.36,0,.23,0,.25-.06.23-.16.33-.11.22-.42.7-.14.2-.16.2-.16.17-.25.27-.17.16-.2.16-.19.14-.28.19-.2.13-.23.13-.22.09-.31.12-.24.06-.5.16-.27.08-.25.06-.27.06-.27,0-.27,0h-.85l-.53,0-.52-.06-.22,0-.23-.06-.85-.28-.25-.08-.27-.11-.5-.22-.24-.13L125,236l-.2-.16-.2-.17-.19-.2-.17-.2-.42-.42-.16-.19-.16-.2-.13-.2-.12-.31-.24-.7-.09-.33,0-.24,0-.25,0-.24,0-.34,0-.24,0-.26V231l0-.27,0-.28,0-.27,0-.27.06-.27.08-.27.08-.23.09-.25.11-.36.11-.25.06-.14.13-.24.22-.34.16-.22.08-.13.19-.19.27-.22.2-.16.2-.14.47-.31.2-.13.22-.13.22-.11.33-.14.22-.08.24-.08.23-.06.59-.11.24,0,.78-.09.5,0,.47,0,.38,0,.27,0,.27,0,.27.06.27,0,.25.06.24.06.23.08.33.13.22.09.52.3.2.14.2.16.27.25.17.16.17.17.14.19.22.3.13.2.11.2.13.2.17.31.13.2.11.24.08.22.08.36.09.47,0,.27,0,.27Zm-3.82,2,.14-.22.16-.34.09-.24.08-.36,0-.24,0-.37V231l0-.27,0-.25-.09-.47-.06-.22-.17-.34-.13-.2-.22-.28-.16-.17-.24-.25-.17-.14-.41-.24-.22-.09-.25-.08-.25,0-.5,0-.23,0-.34,0-.24,0-.41.11-.25.09-.36.19-.22.14-.25.22-.17.19-.17.23-.13.2,0,.09-.14.33L126,230l0,.11,0,.22,0,.22,0,.22,0,.24v.24l0,.25,0,.25,0,.14.06.24,0,.11.08.22.06.12.13.22.08.13.17.22.09.11.19.19.31.27.22.14.25.13.23.09.33.11.24,0,.39,0,.27,0,.39,0,.25,0,.34-.08.22-.09.35-.22.19-.14.25-.25.16-.17Z"/><path d="M133.86,259.11l0,.24,0,.47,0,.25,0,.12,0,.19,0,.11-.09.08-.19,0h-.25l-.47,0-.25,0-.72,0h-.25l-.39,0h-.24l-.11,0-.16,0-.06.09,0,.2-.06.92v.25l.06.94,0,.25-.06.94,0,.25,0,.92v1.44l0,.92,0,.23.08.71,0,.25,0,.19-.08.08-.2,0-.3,0-.39,0-.27,0-.71,0h-.25l-.71,0-.19,0-.09,0,0-.17v-.27l0-.66,0-.25v-1.17l0-.94v-.25l0-.92v-.25l-.06-.94,0-.25v-1.19l0-.92v-.22l0-.13-.16,0h-.23l-.5,0h-.28l-.42,0-.27,0-.27,0-.36,0h-.23l-.13,0-.17,0-.09-.06-.06-.09,0-.16v-.11l0-.25,0-.47v-.23l0-.59,0-.25,0-.2.06-.11.09,0,.16,0h.36l.58,0h.25l.91-.06h.25l.92.08h.25l1.16-.08.91,0h.25l1.17,0h1.16l.52,0,.27,0,.13,0,.19,0,.11.06.08.11,0,.19v.11l0,.24Z"/><path d="M162.13,225.75l-.75,2-.09.24-.27.88-.09.23-.38.88-.08.24-.25.88-.09.25-.39.81-.09.25-.25.89-.08.24-.41.86-.08.24-.28.88-.08.25-.27.88-.06.16-.08.08-.11,0-1,0-1.22-.08-.16,0-.08-.13-.39-.77-.08-.22-.28-.81-.06-.22-.28-.8-.08-.22-.31-.8-.09-.22-.28-.78-.08-.14h0l-.06.14-.28.8-.08.22-.37.75-.08.22-.25.83-.08.22-.27.8-.09.22-.3.78-.08.17-.17.08-1-.08h-.25l-1,.08-.14-.08-.06-.19-.44-.84-.08-.24-.22-.89-.08-.24-.39-.88-.09-.23-.33-.85-.08-.25-.27-.89-.08-.23-.78-2-.09-.24-.28-.88-.11-.25-.39-.82-.11-.23-.36-.89,0-.19.09-.11.17,0h.24l.61,0h.25l1.08,0H148l.2,0,.06.06,0,.16.36,1,.08.24.31,1,.08.23.41.94.08.24.31,1,0,.25.19,1,.06.14.09,0,.09-.13.27-.8.08-.22.2-.83.06-.24.23-.77.06-.24.27-.81.06-.22.25-.82.08-.22.24-.67.06-.17.08-.08.17,0,.78-.06.24,0,.34,0h.23l.24,0,.16.06.09.16,0,.13.09.22.17.44.08.22.24.82.06.22.25.81.06.22.19.83.08.22.37.77.06.22,0,.36,0,.25.06.23.09.13.09,0,.08-.17.19-.91.06-.24.13-.33.08-.23.13-.34.08-.25.16-.74.08-.25.27-.7.09-.24.3-.7.08-.24.16-.59.06-.19.09-.11.19,0,.83.06H160l.84,0h.25l.83.06h.17l.06,0Z"/><path d="M159.87,268.71l0,.22-.11.17-.17.08-.2,0h-.22l-.36,0-.23,0h-.71l-1,.06-.2-.06-.09-.13-.08-.17-.48-1.32-.11-.16-.14,0-.19,0-.94-.06h-.25l-1.17,0-.94,0h-.24l-.23,0h-.72l-.2,0-.13.08-.09.19-.36,1.06-.09.25-.17.2-.23.09-.25,0-.91,0h-.25l-1,.06-.2,0-.19-.09-.13-.17,0-.2,0-.12.09-.25.22-.48.09-.24.39-.88.09-.22.41-.88.09-.24.36-.85.09-.23.42-.88.09-.22.56-1.28.44-.94.11-.25.34-.7.11-.25.3-.72.09-.23.28-.64.08-.17.16-.09.23,0,.72,0H154l.72,0,.27,0,.17.13.08.2.22.61.09.24.39.74.09.22.34.77.09.22.28.8.09.22.34.75.09.22.35.77.09.22.31.78.09.22.48,1,.38.74.11.22.42,1Zm-5.23-4.41-.06-.2-.34-1.06-.08-.23-.31-.92-.08-.2-.16-.11-.2,0-.17,0-.16.16-.42,1.06-.09.23-.41,1,0,.23,0,.19.17.08.22,0h1l.74,0,.2-.06.13-.13Z"/><path d="M183.2,228l0,.25v2.32l0,.91v.25l0,2.07v.27l0,.13,0,.27,0,.75,0,.91,0,.22-.06.19-.13.17-.16.11-.14,0-.22,0-.8,0-.25,0-.39,0h-.25l-.2,0-.19-.08-.19-.14-.14-.2-.24-.45-.14-.2-.61-.77-.16-.19-.61-.75-.14-.2-.55-.81-.14-.19-.61-.75-.16-.19-.58-.77-.14-.13-.11,0,0,.19,0,.78v.25l0,.78v.25l0,.88v.25l0,.88,0,.25.09.63,0,.25,0,.2-.11.11-.11,0-.19,0-.13,0-.27,0-.72,0h-.25l-.64,0h-.25l-.23,0-.17,0-.13-.08-.06-.11,0-.16,0-.11v-.23l0-.52,0-.25,0-.83v-.25l0-1.91,0-.25,0-.83,0-.25V230l-.06-.83v-.25l.06-.83,0-.25-.06-.84,0-.25v-.36l0-.23,0-.24,0-.17,0-.11.09,0,.17,0,.47,0,.47,0h1.17l.19,0,.08.06.09.14.66.71.16.19.58.75.16.19.58.77.16.19.56.78.14.19.59.75.16.19.56.78.13.11.13,0,.11-.08v-.17l-.11-.66,0-.25,0-.67v-.25l-.06-1v-.25l.06-1,0-.25,0-.58v-.39l0-.2.06-.13.11-.06.19,0h.14l.27,0,.7,0h.25l.53,0,.23,0,.36,0,.17,0,.11,0,.09.11,0,.22,0,.14,0,.27,0,.48,0,.25Z"/><path d="M183.5,262.76l0,.27-.06,1v1.47l0,.66v.92l0,.17-.09.16-.12.2-.14.2-.27.27-.19.17-.09.09-.2.14-.11.06-.2.13-.31.16-.24.09-.22.08-.36.11-.24.06-.25,0-.23,0-.36,0-.22,0-.23,0-.63.08-.23,0-.49,0-.36,0-.25,0-.25,0-.24-.06-.55-.16-.24-.06-.23-.08-.31-.11-.2-.11-.31-.17-.19-.14-.2-.14-.19-.16-.19-.14-.17-.16-.25-.25-.16-.19-.17-.24-.14-.22-.39-.7-.11-.25-.11-.24-.08-.25-.08-.27,0-.25,0-.27,0-.25-.06-.34,0-.25,0-.23v-.24l0-.7,0-.13,0-.27.06-.27.08-.25.08-.27.08-.25.08-.23.11-.25.11-.27.11-.22.2-.28.14-.19.17-.2.17-.19.19-.17.41-.34.2-.16.19-.14.19-.13.52-.3.23-.14.27-.11.27-.08.25-.06.58-.09.45-.06.24,0,.23,0,.36,0,.25,0,.34,0,.23,0,.36,0,.22,0,.34.06.24.06.34.11.23.08.56.28.23.14.2.14.08,0,.17.11.17.13.08.08.17.13.09.08.09.11v.11l0,.11-.09.14-.14.2-.16.17-.44.44-.28.25-.19.16-.17.13-.13.09-.09.06-.13,0-.17-.11-.2-.14-.2-.13-.22-.13-.25-.11-.25-.09-.27-.06-.27,0-.74,0h-.11l-.25,0-.41,0-.25.06-.47.22-.2.14-.2.16-.17.17-.16.2-.14.2-.13.22-.09.24-.08.25-.06.24-.09.47,0,.25,0,.27v.27l0,.37,0,.25.08.36.08.25.16.38.11.22.19.28.16.19.28.27.2.16.31.17.24.09.47.11.27,0,.27,0h.25l.25,0,.24,0,.84-.2.25-.09.24-.11.16-.11,0-.09V266l0-.14v-.24l0-.47v-.27l-.06-.09-.17,0h-.38l-.25,0-.36,0-.25,0h-.36l-.25,0-.53-.09-.09,0-.06-.08,0-.19,0-.13,0-.25,0-.39,0-.47,0-.24v-.33l0-.17.08-.08.19,0,.39,0,.27,0h.72l1,0,1.25.08H182l.64-.08.25,0,.13,0,.23,0,.11.06,0,.09,0,.22Z"/><path d="M202.31,234.94l-.1.3-.36,1.06-.09.25-.17.2-.23.08h-.25l-.91,0h-.25l-1,.06-.2,0-.19-.09-.13-.17,0-.2,0-.13.09-.25.22-.49.09-.23.39-.88.09-.22.41-.88.09-.23.36-.85.09-.23.42-.88.09-.22.56-1.28.44-.94.11-.25.34-.7.11-.25.3-.72.09-.23.28-.64.08-.17.16-.09.23,0,.72,0h1.22l.4,0,.27,0,.17.13.08.2"/><path d="M207,267.72l0,.25-.06.84,0,.16-.06.11-.08.06-2,.06h-.25l-.83-.06-.25,0-.81.06-.25,0h-1.08l-.81-.06h-.25l-1.35.08-.53,0-.19,0-.11-.08,0-.11,0-.17,0-.36,0-.25,0-.23v-.24l.06-.83v-.25l0-.83,0-.25,0-.83,0-.25,0-.85v-1.33l.06-.83,0-.25,0-.83,0-.25v-.38l0-.47v-.23l0-.81,0-.22,0-.13.08-.06.13,0,.2,0,1,.06,1,0h.25l.94.06h.25l.94-.06h.25l2.13,0,.27,0,.53,0h.39l.22,0,.09.08,0,.11,0,.2v.42l0,.39v.27l0,.39,0,.23,0,.24,0,.19-.06.11-.08.06-.19,0h-.13l-.25,0-1.47,0h-.25l-.8,0h-.25l-.82,0-.7,0h-.24l-.13,0-.16,0-.08.08,0,.09,0,.17,0,.38v.25l0,.27,0,.17,0,.11.06.08.17,0,.5,0,.5,0h1.49l1.75-.09.48,0,.17,0,.09.08,0,.09,0,.17,0,.27,0,.27v.52l0,.36,0,.47,0,.19-.06.11-.11.08-.16,0h-.31l-.71-.08-.25,0-1.25.08-1,0h-.25l-.63,0-.27,0-.19,0-.08,0,0,.11,0,.24,0,.39,0,.25v.35l0,.16,0,.11.06.06.17,0,.86,0h.25l.84-.06,1.11.06h.25l1.11-.06H206l.23,0,.56.06.09,0,.06.09,0,.17Z"/><polygon points="69.5 65.26 61.5 73.32 61.5 128.26 28.5 95.26 28.5 35 20.5 35 20.5 157 28.5 157 28.5 106.58 61.5 139.57 61.5 198 69.5 198 69.5 65.26"/><polygon points="130.5 3.9 73.5 61.24 73.5 72.61 99.5 46.51 99.5 154 107.5 154 107.5 38.51 130.5 15.24 130.5 3.9"/><path d="M134.5,0V128h8V75.68l33,33V169h8V49m-8,48.37-33-33V19.09l33,33Z"/></svg>