<svg xmlns="http://www.w3.org/2000/svg" viewBox="0 0 300 100"><title>stream-footer-image</title><polygon points="29.79 30.24 22.32 29.99 21.45 29.04 21.61 22.3 22.32 21.52 29.79 21.2 30.41 22.3 30.46 29.04 29.79 30.24"/><polygon points="58.68 30.49 51.21 29.76 50.58 29.04 49.95 22.3 51.21 21.45 58.68 20.97 59.23 22.3 59.8 29.04 58.68 30.49"/><polygon points="148.52 57.15 154.05 54.63 160.54 52.26 167.08 49.95 173.97 49.1 180.8 47.85 187.73 47.96 194.62 48.37 201.48 49.13 208.32 50.17 214.85 52.46 221.32 54.85 227.14 56.76 232.26 59.63 239.08 62.28 246.21 63.87 253.4 65.06 260.69 65.82 267.98 65.19 275.14 63.79 282.22 62.04 289.1 59.6 294.08 57.5 297.67 66.34 292.69 68.78 285.79 71.2 278.9 73.73 271.6 74.54 264.35 75.66 257.01 75.64 249.74 74.72 242.62 73.11 235.41 71.71 228.85 68.39 223.2 66.52 217.43 64.27 211.08 61.9 204.56 60.04 197.9 58.66 191.14 57.85 184.32 57.93 177.6 59.09 170.81 59.69 164.16 61.22 158.07 64.38 152.28 66.52 146.79 68.69 139.86 70.97 132.96 73.39 125.72 74.36 118.49 75.56 111.19 75.02 103.92 74.47 96.65 73.59 89.68 71.33 82.89 68.62 77.55 66.04 71.81 63.69 65.35 61.52 58.64 60.33 52.01 58.96 45.25 58.53 38.45 57.66 31.72 58.85 25.07 60.19 18.32 61.27 12.11 64.13 6.57 66.06 3.02 57.08 8.06 54.3 14.63 52.08 21.32 50.33 28.09 48.91 34.94 47.82 41.87 48.09 48.78 48.09 55.63 49.04 62.35 50.63 69.07 52.24 75.61 54.48 81.23 56.87 86.28 59.9 93.24 62.21 100.33 63.98 107.53 65.27 114.83 65.49 122.06 64.55 129.24 63.56 136.32 61.93 143.29 59.73 148.52 57.15"/><polygon points="103.34 38.66 95.88 38.63 94.6 37.7 94.71 30.96 95.88 29.53 103.34 30.18 104.14 30.96 104.42 37.7 103.34 38.66"/><polygon points="132.23 38.6 124.77 38.31 123.82 37.7 124.16 30.96 124.77 29.63 132.23 30.14 133.01 30.96 133.59 37.7 132.23 38.6"/><polygon points="178.01 29.66 170.55 29.97 169.31 29.04 170.08 22.3 170.55 21.22 178.01 21.32 179.14 22.3 178.8 29.04 178.01 29.66"/><polygon points="206.9 29.95 199.44 30.1 198.71 29.04 198.92 22.3 199.44 21.24 206.9 20.98 207.91 22.3 208.13 29.04 206.9 29.95"/><polygon points="251.56 38.82 244.1 38.87 243.11 37.7 242.79 30.96 244.1 30.07 251.56 30.12 252.72 30.96 252.68 37.7 251.56 38.82"/><polygon points="280.45 38.79 272.99 38.52 271.63 37.7 272.5 30.96 272.99 30.24 280.45 30.41 280.94 30.96 281.44 37.7 280.45 38.79"/></svg>