<?xml version="1.0" encoding="utf-8"?>
<!-- Generator: Adobe Illustrator 20.0.0, SVG Export Plug-In . SVG Version: 6.00 Build 0)  -->
<svg version="1.1" id="Layer_1" xmlns="http://www.w3.org/2000/svg" xmlns:xlink="http://www.w3.org/1999/xlink" x="0px" y="0px"
	 viewBox="0 0 207 44.3" style="enable-background:new 0 0 207 44.3;" xml:space="preserve">
<title>identity</title>
<path d="M11.6,10.1v0.3v0.4V11v0.2l-0.1,0.2l-0.1,0.1h-0.2H11h-0.9H10l-0.8,0.1H8.9H8.7l-0.1-0.1v-0.2l-0.1-1V10V9V8.8v-1V7.5
	L8.5,7.4L8.3,7.4H7.9H7.2H7H5.7H4.9H4.7H4.6L4.5,7.5v0.2v1V9v1v0.3l0.1,0.7v0.4l-0.1,0.2l-0.1,0.1H4.1H3.9H3.7l-0.7,0H2.8H2H1.8H1.6
	H1.5l-0.1-0.1l-0.1-0.1v-0.2v-0.1v-0.3v-0.5V9.1V8.3V8V7.2V6.9V6.1V5.8V5V3.9V3.7V2.9V2.6V1.8V1.5L1.2,1V0.7l0.1-0.2l0.1-0.1h0.2
	h0.2h0.2h0.7H3h0.6h0.3h0.2h0.2l0.1,0.1l0.1,0.2v0.1V1v0.7V2v1v1.3v0.2v0.1l0.1,0.1h0.2H5h0.2l0.6-0.1H6h1l0.9,0.1h0.2h0.1l0.2-0.1
	l0.1-0.1V4.2l0.1-1V3V2V1.7v-1V0.5l0.1-0.1h0.2h0.3H10h0.3h0.7h0.3h0.1h0.2l0.1,0.1l0.1,0.2v0.2v0.6v0.3v0.8v0.3v0.8V4l0.1,0.8v0.3
	l-0.1,0.8v0.3V7v0.3v0.8v0.3v0.8L11.6,10.1z"/>
<path d="M12.9,43.5v0.2l-0.1,0.2l-0.2,0.1h-0.2h-0.2h-0.4h-0.2h-0.7l-1,0.1l-0.2-0.1l0-0.2l-0.1-0.2l-0.5-1.3L9,42.1H8.9H8.7
	l-0.9-0.1H7.5H6.3H5.4H5.1H4.9H4.2H4l-0.1,0.1l-0.1,0.2l-0.4,1.1l-0.1,0.3l-0.2,0.2l-0.2,0.1H2.7H1.8H1.5l-1,0.1H0.3l-0.2-0.1
	L0,43.7v-0.2v-0.1l0.1-0.3l0.2-0.5l0.1-0.2l0.4-0.9l0.1-0.2l0.4-0.9l0.1-0.2l0.4-0.9l0.1-0.2l0.4-0.9L2.3,38L3,36.7l0.4-0.9l0.1-0.3
	l0.3-0.7L4,34.5l0.3-0.7l0.1-0.2l0.3-0.6l0.1-0.2l0.2-0.1h0.2h0.7h1.2h0.7h0.3l0.2,0.1L8.3,33l0.2,0.6l0.1,0.2L9,34.6l0.1,0.2
	l0.3,0.8l0.1,0.2l0.3,0.8l0.1,0.2l0.3,0.8l0.1,0.2l0.4,0.8l0.1,0.2l0.3,0.8l0.1,0.2l0.5,1l0.4,0.7l0.1,0.2l0.4,1L12.9,43.5z M7.7,39
	l-0.1-0.2l-0.3-1.1l-0.1-0.2l-0.3-0.9l-0.1-0.2l-0.2-0.1H6.4H6.3l-0.2,0.2l-0.4,1.1l-0.1,0.2l-0.4,1V39v0.2l0.2,0.1h0.2h1h0.7
	l0.2-0.1L7.7,39L7.7,39z"/>
<path d="M37.3,5.8v0.3v0.4v0.2l-0.1,0.5v0.4v0.2V8l-0.1,0.2l-0.2,0.3l-0.1,0.2l-0.4,0.7l-0.1,0.2l-0.2,0.2L36,10l-0.3,0.3l-0.2,0.2
	l-0.2,0.2L35,10.7l-0.3,0.2l-0.2,0.1l-0.2,0.1l-0.2,0.1l-0.3,0.1l-0.2,0.1L33,11.6l-0.3,0.1l-0.3,0.1l-0.3,0.1H32h-0.3h-0.9h-0.5
	l-0.5-0.1h-0.2l-0.2-0.1l-0.9-0.3l-0.3-0.1L28,11.2L27.5,11l-0.2-0.1L27,10.7l-0.2-0.2l-0.2-0.2l-0.2-0.2L26.2,10l-0.4-0.4l-0.2-0.2
	l-0.2-0.2L25.4,9l-0.1-0.3L25,8l-0.1-0.3V7.4V7.2V6.9V6.6V6.4V6.1V5.8V5.6V5.3V5V4.7L25,4.5l0.1-0.3L25.1,4l0.1-0.3l0.1-0.4l0.1-0.3
	L25.5,3l0.1-0.2l0.2-0.3L26,2.2L26.1,2l0.2-0.2l0.3-0.2l0.2-0.2L27,1.3L27.4,1l0.2-0.1l0.2-0.1l0.2-0.1l0.3-0.1l0.2-0.1l0.2-0.1
	l0.2-0.1l0.6-0.1h0.2l0.8-0.1h0.5h0.5H32h0.3h0.3l0.3,0.1h0.3l0.3,0.1l0.2,0.1l0.2,0.1l0.3,0.1l0.2,0.1l0.5,0.3L35.1,1l0.2,0.2
	l0.3,0.3l0.2,0.2l0.2,0.2l0.1,0.2l0.2,0.3l0.1,0.2l0.1,0.2l0.1,0.2l0.2,0.3L37,3.3l0.1,0.2l0.1,0.2l0.1,0.4l0.1,0.5v0.3v0.3
	L37.3,5.8z M33.4,7.8l0.1-0.2l0.2-0.3L33.8,7l0.1-0.4V6.4V6V5.8V5.5V5.2l-0.1-0.5l-0.1-0.2l-0.2-0.3L33.5,4l-0.2-0.3l-0.2-0.2
	l-0.2-0.3l-0.2-0.1l-0.4-0.2L32,2.8l-0.3-0.1h-0.3H31h-0.2h-0.3h-0.2l-0.4,0.1L29.6,3l-0.4,0.2L29,3.3l-0.3,0.2l-0.2,0.2l-0.2,0.2
	l-0.1,0.2v0.1l-0.1,0.3L28,4.8v0.1v0.2v0.2v0.2v0.2V6v0.3v0.3v0.1l0.1,0.2V7l0.1,0.2l0.1,0.1l0.1,0.2l0.1,0.1l0.2,0.2l0.1,0.1
	l0.2,0.2l0.3,0.3l0.2,0.1l0.3,0.1l0.2,0.1L30.2,9h0.2h0.4h0.3h0.4h0.3l0.3-0.1l0.2-0.1l0.3-0.2l0.2-0.1l0.3-0.3L33.3,8L33.4,7.8z"/>
<path d="M36.4,38.6v0.3v0.4v0.3l-0.1,0.4l-0.1,0.3l-0.1,0.2L36,40.6l-0.1,0.3l-0.1,0.2l-0.2,0.3l-0.1,0.2l-0.2,0.3l-0.2,0.2
	l-0.3,0.3l-0.3,0.4l-0.2,0.2L34,43.1l-0.2,0.1l-0.3,0.2l-0.2,0.1L33,43.6l-0.2,0.1l-0.3,0.1h-0.3l-1,0.1H31h-0.3h-0.3h-0.5h-0.4
	h-0.3h-0.5h-0.4h-0.3h-0.2h-1.1h-0.2l-0.7-0.1l-0.1-0.1l-0.1-0.1v-0.2v-0.3v-0.1v-0.5v-0.2v-0.4v-0.2v-0.3v-0.3v-0.8v-0.3v-0.8v-0.2
	v-0.3v-0.2v-0.3v-0.3v-0.4v-0.3v-0.1V37l0.1-0.8v-0.3v-0.8v-0.3V34v-0.6v-0.3v-0.2v-0.2l0.1-0.1h0.2h0.3h0.2h0.3h1.4h0.3h0.8h0.1
	h0.3h0.7h0.2h0.3H31h0.5h0.3l0.4,0.1h0.3l0.2,0.1l0.6,0.2l0.2,0.1l0.2,0.1l0.2,0.1l0.5,0.4l0.2,0.2l0.2,0.2l0.3,0.3l0.2,0.2l0.1,0.2
	l0.1,0.2l0.2,0.3l0.1,0.2l0.1,0.3L36,36l0.1,0.3l0.1,0.3l0.1,0.3v0.3v0.3v0.3V38v0.3L36.4,38.6z M32.8,40l0.1-0.2l0.1-0.3l0.1-0.2
	l0.1-0.3v-0.2v-0.4v-0.6v-0.3v-0.4L33,36.9v-0.1l-0.1-0.2l-0.2-0.3l-0.1-0.1L32.4,36l-0.2-0.2L32,35.7l-0.4-0.2l-0.2-0.1h-0.2H31
	h-0.4h-0.3H30h-0.3h-0.2h-0.3h-0.2l-0.1,0.1v0.2v0.1v0.2v0.5v0.3v0.3v0.3v0.3v0.3v0.3V39v0.3v0.3v0.3v0.2v0.4v0.2V41l0.1,0.2
	l0.1,0.1h0.2l1.5-0.1H31h0.3l0.3-0.1l0.3-0.1l0.2-0.1l0.2-0.1l0.3-0.3l0.2-0.2L32.8,40z"/>
<path d="M61.7,10.1v0.3l0.1,0.5v0.2v0.1v0.2l-0.1,0.1l-0.1,0.1h-0.2h-0.2h-0.3h-0.6H60h-0.4h-0.3l-0.6-0.1h-0.1l-0.1-0.1v-0.2v-0.2
	v-0.2v-0.5V8.7v-1V7.5l0.1-1V5.3V5.1L58.6,5h-0.2l-0.1,0.1l-0.2,0.2l-0.7,0.8l-1,1.1l-0.6,0.8l-0.1,0.1h-0.1h-0.1h-0.2h-0.2
	l-0.2-0.1l-0.8-0.9l-0.6-0.8l-0.2-0.2l-0.8-0.9L52.4,5h-0.1v0.2v1v0.3l0.1,1v0.3v1V9v1v0.2v0.5V11v0.3v0.2l-0.1,0.1h-0.1h-0.4h-0.3
	h-0.6h-0.3l-0.8,0.1h-0.4h-0.2l-0.1-0.1v-0.1v-0.2v-0.4v-0.5V8V7.1V6.9V6V5.8V4.9V4.7V3.9V3.7l-0.1-0.8V2.6l0.1-0.8V1.5l-0.1-0.6
	V0.7V0.5l0.1-0.1l0.1-0.1h0.1h0.2H50l0.3,0.1h0.3h0.5h0.3h0.2h0.6h0.2l0.2,0.1l0.2,0.2l0.5,0.6l0.2,0.2l0.5,0.6L54,2.3l0.5,0.6
	l0.2,0.2l0.5,0.6l0.2,0.2L55.5,4h0.2l0.1-0.1l0.1-0.2l0.5-0.6l0.2-0.2L57,2.3l0.2-0.2l0.5-0.6l0.2-0.2l0.4-0.5l0.1-0.2l0.1-0.1
	l0.2-0.1h0.2h0.8h0.7h0.3h0.5h0.3h0.2h0.1l0.1,0.1v0.1v0.2l-0.1,0.7v0.3v0.8v0.2v0.8v0.3v0.8v0.3l0.1,0.9V6l-0.1,0.8v0.3v0.8v0.3
	L61.8,9v0.3L61.7,10.1z"/>
<path d="M61.6,32.9v0.2v0.1l-0.1,0.3l-0.2,0.4l-0.1,0.2L60.9,35l-0.1,0.2l-0.4,0.8l-0.1,0.2L60,37.2l-0.1,0.3l-0.3,0.8l-0.1,0.3
	l-0.3,0.9L59,39.6l-0.4,0.8l-0.1,0.2l-0.3,0.9L58,41.7l-0.4,0.8l-0.1,0.3l-0.4,0.8l-0.1,0.2l-0.1,0.1h-0.2h-1.1h-0.3L54.6,44h-0.3
	h-0.2L54,43.8l-0.1-0.2l-0.3-0.8l-0.1-0.2L53,41.7l-0.1-0.2l-0.3-0.8l-0.1-0.3l-0.3-0.9l-0.1-0.3l-0.4-0.8l-0.1-0.2l-0.4-0.9
	l-0.1-0.2l-0.3-0.9l-0.1-0.3l-0.4-0.8L50.3,35L50,34.1l-0.1-0.2l-0.3-0.5l-0.1-0.2V33v-0.2v-0.1l0.1-0.1h0.2h0.1H50h0.7h0.8l1,0.1
	h0.2h0.1l0.1,0.1l0.1,0.2l0.1,0.2l0.2,0.5l0.1,0.3l0.4,0.8l0.1,0.3l0.3,0.8l0.1,0.3l0.3,1l0.1,0.3l0.3,1l0.4,1.3l0.1,0.2l0.1,0.1
	l0.1-0.1l0.1-0.2l0.4-1l0.1-0.3l0.3-1l0.1-0.3l0.4-0.9l0.1-0.3l0.3-0.9l0.1-0.2l0.4-0.8l0.1-0.2l0.2-0.6l0.1-0.3l0.1-0.2l0.1-0.1
	h0.2h0.1h0.3h0.4h1h0.7h0.3h0.2l0.1,0.1L61.6,32.9z"/>
<path d="M84.5,10.1v0.3l-0.1,0.8v0.2l-0.1,0.1l-0.1,0.1l-2,0.1H82l-0.8-0.1h-0.3l-0.8,0.1h-0.3h-1.1L78,11.6h-0.3l-1.3,0.1h-0.5
	h-0.2l-0.1-0.1v-0.1v-0.2v-0.4v-0.3v-0.2v-0.2l0.1-0.8V9.1V8.3V8V7.2V7V6.1V4.7l0.1-0.8V3.7V2.8V2.6V2.2V1.7V1.5V0.7V0.5V0.3
	l0.1-0.1h0.1H76l1,0.1h1h0.3l0.9,0.1h0.3l0.9-0.1h0.3h2.1h0.3h0.5H84h0.2l0.1,0.1v0.1v0.2v0.4v0.4v0.2v0.4v0.2v0.2v0.2l-0.1,0.1
	L84.2,3H84h-0.1h-0.3h-1.5h-0.3H81h-0.3h-0.8h-0.7H79h-0.1h-0.2L78.6,3v0.1v0.2v0.4v0.3v0.3v0.2v0.1l0.1,0.1h0.2h0.5h0.5h1.5
	l1.8-0.1h0.5h0.2l0.1,0.1v0.1v0.2v0.3v0.3v0.5v0.4v0.5v0.2L83.8,7l-0.1,0.1h-0.2h-0.3L82.5,7h-0.3L81,7.1h-1h-0.3h-0.6h-0.3h-0.2
	h-0.1v0.1v0.2v0.4v0.3v0.4v0.2v0.1l0.1,0.1h0.2h0.9H80l0.8-0.1l1.1,0.1h0.3l1.1-0.1h0.2h0.2l0.6,0.1h0.1l0.1,0.1V9L84.5,10.1z"/>
<path d="M86.4,43.5v0.2l-0.1,0.2l-0.2,0.1h-0.2h-0.2h-0.4h-0.2h-0.7l-1,0.1l-0.2-0.1l-0.1-0.1L83,43.6l-0.5-1.3l-0.1-0.2h-0.1h-0.2
	l-0.9-0.1H81h-1.2h-0.9h-0.2h-0.2h-0.7h-0.2l-0.1,0.1l-0.1,0.2l-0.4,1.1l-0.1,0.3l-0.2,0.2l-0.2,0.1h-0.3h-0.9H75L74,44h-0.2
	l-0.2-0.1l-0.1-0.2v-0.2v-0.1l0.1-0.3l0.2-0.5l0.1-0.2l0.4-0.9l0.1-0.2l0.4-0.9l0.1-0.2l0.4-0.9l0.1-0.2l0.4-0.9l0.1-0.2l0.6-1.3
	l0.4-0.9l0.1-0.3l0.3-0.7l0.1-0.3l0.3-0.7l0.1-0.2L78,33l0.1-0.2l0.2-0.1h0.2h0.7h1.2h0.7h0.3l0.2,0.1l0.1,0.2l0.2,0.6L82,34
	l0.4,0.7l0.1,0.2l0.3,0.8l0.2,0l0.3,0.8l0.1,0.2l0.3,0.8l0.1,0.2l0.3,0.8l0.1,0.2l0.3,0.8l0.1,0.2l0.5,1l0.4,0.7l0.1,0.2l0.4,1
	L86.4,43.5z M81.2,39l-0.1-0.2l-0.3-1.1l-0.1-0.2l-0.3-0.9l-0.1-0.2l-0.2-0.1h-0.2h-0.2l-0.2,0.2l-0.4,1.1l-0.1,0.2l-0.4,1V39v0.2
	l0.2,0.1h0.2h1h0.7l0.2-0.1L81.2,39L81.2,39z"/>
<path d="M109.4,1.5v0.2v0.5v0.3v0.1v0.2v0.1l-0.1,0.1h-0.2h-0.3h-0.5h-0.3h-0.7H107h-0.4h-0.2h-0.1h-0.2L106,3v0.2L106,4.2v0.3
	l0.1,0.9v0.3L106,6.5v0.3v0.9v1.4v0.9v0.2l0.1,0.7v0.3v0.2l-0.1,0.1h-0.2h-0.3h-0.4h-0.3h-0.7h-0.3h-0.7H103h-0.1v-0.2v-0.3v-0.7
	v-0.3V9V8.1V7.7V6.8V6.6l-0.1-0.9V5.4V4.2V3.3V3.1V2.9h-0.2h-0.2h-0.5h-0.3h-0.4H101h-0.3h-0.4H100h-0.1h-0.2l-0.1-0.1l-0.1-0.1V2.6
	V2.5V2.3V1.8V1.6V1V0.7V0.5l0.1-0.1h0.1h0.2h0.4h0.6h0.3l0.9-0.1h0.3l0.9,0.1h0.3l1.2-0.1h0.9h0.3h1.2h1.2h0.5h0.3h0.1h0.2l0.1,0.1
	l0.1,0.1v0.2v0V1L109.4,1.5z"/>
<path d="M109.7,35.1v0.3v2.3v0.9v0.3v2.1v0.3v0.1v0.3v0.8v0.9v0.2l-0.1,0.2l-0.1,0.2l-0.2,0.1h-0.1H109h-0.8h-0.3h-0.4h-0.3h-0.2
	l-0.2-0.1l-0.2-0.1l-0.1-0.2l-0.2-0.5l-0.1-0.2l-0.6-0.8l-0.2-0.2l-0.6-0.8l-0.1-0.2l-0.6-0.8l-0.1-0.2l-0.6-0.8l-0.2-0.2l-0.6-0.8
	l-0.1-0.1h-0.1v0.2v0.8v0.3v0.8v0.3v0.9v0.3v0.9v0.3l0.1,0.6v0.3v0.2l-0.1,0.1h-0.1h-0.2h-0.1h-0.3H101h-0.3h-0.6h-0.3h-0.2h-0.2
	l-0.1-0.1l-0.1-0.1v-0.2v-0.1v-0.2v-0.5v-0.3v-0.8v-0.3v-1.9v-0.3v-0.8V38v-1.1l-0.1-0.8v-0.3l0.1-0.8v-0.3l-0.1-0.8v-0.3v-0.4v-0.2
	v-0.2v-0.2v-0.1h0.1h0.2h0.5h0.5h1.2h0.2l0.1,0.1l0.1,0.1l0.7,0.7l0.2,0.2l0.6,0.8l0.2,0.2l0.6,0.8l0.2,0.2l0.6,0.8l0.1,0.2l0.6,0.8
	l0.2,0.2l0.6,0.8l0.1,0.1h0.1l0.1-0.1v-0.2l-0.1-0.7v-0.3v-0.7v-0.3l-0.1-1V35l0.1-1v-0.3v-0.6v-0.4v-0.2l0.1-0.1l0.1-0.1h0.2h0.2
	h0.3h0.7h0.3h0.5h0.2h0.4h0.2h0.1l0.1,0.1v0.2v0.1v0.3v0.5v0.3L109.7,35.1z"/>
<path d="M135.2,5.7V6v0.4v0.2l-0.1,0.5v0.4v0.2v0.3l-0.1,0.2l-0.2,0.3l-0.1,0.2l-0.4,0.7l-0.1,0.2l-0.2,0.2l-0.2,0.2l-0.3,0.3
	l-0.2,0.2l-0.2,0.2l-0.2,0.1l-0.3,0.2l-0.2,0.1l-0.2,0.1l-0.2,0.1l-0.3,0.1l-0.2,0.1l-0.5,0.2l-0.3,0.1l-0.3,0.1l-0.3,0.1h-0.3h-0.3
	H129h-0.5l-0.5-0.1h-0.2l-0.2-0.1l-0.8-0.3l-0.3-0.1l-0.3-0.1l-0.5-0.2l-0.2-0.1l-0.4-0.1l-0.2-0.2l-0.2-0.2l-0.2-0.2l-0.2-0.2
	l-0.4-0.4l-0.2-0.2l-0.2-0.2L123.4,9l-0.1-0.3L123,8l-0.1-0.3V7.4V7.2V6.9V6.6V6.4V6.1V5.7V5.5V5.2V4.9V4.7l0.1-0.3l0.1-0.3l0.1-0.2
	l0.1-0.3l0.1-0.4l0.1-0.3l0.1-0.1l0.1-0.2l0.2-0.3l0.2-0.2l0.1-0.1l0.2-0.2l0.3-0.2l0.2-0.2l0.2-0.1l0.5-0.3l0.2-0.1l0.2-0.1
	l0.2-0.1l0.3-0.1l0.2-0.1l0.2-0.1l0.2-0.1l0.6-0.1h0.2l0.8-0.1h0.5h0.5h0.4h0.3h0.3l0.3,0.1h0.3l0.3,0.1l0.2,0.1l0.2,0.1l0.3,0.1
	l0.2,0.1l0.5,0.3l0.2,0.1l0.2,0.2l0.3,0.3l0.2,0.2l0.2,0.2l0.1,0.2l0.2,0.3l0.1,0.2l0.1,0.2l0.1,0.2l0.2,0.3l0.1,0.2l0.1,0.2
	l0.1,0.2l0.1,0.4l0.1,0.5v0.3v0.3L135.2,5.7z M131.4,7.7l0.1-0.2l0.2-0.3l0.1-0.2l0.1-0.4V6.3V6V5.7V5.5V5.2l-0.1-0.5l-0.1-0.2
	l-0.2-0.3L131.4,4l-0.2-0.3l-0.2-0.2l-0.2-0.3l-0.2-0.1l-0.4-0.2L130,2.8l-0.3-0.1h-0.3H129h-0.2h-0.3h-0.2l-0.4,0.1l-0.3,0.1
	l-0.4,0.2L127,3.3l-0.3,0.2l-0.2,0.2l-0.2,0.2l-0.1,0.2v0.1l-0.1,0.3L126,4.7v0.1v0.2v0.2v0.2v0.2V6v0.3v0.3v0.1l0.1,0.2V7l0.1,0.2
	l0.1,0.1l0.1,0.2l0.1,0.1l0.2,0.2l0.1,0.1l0.2,0.2l0.3,0.3l0.2,0.1l0.3,0.1l0.2,0.1l0.3,0.1h0.2h0.4h0.3h0.4h0.3l0.3-0.1l0.2-0.1
	l0.4-0.2l0.2-0.1l0.3-0.3l0.2-0.2L131.4,7.7z"/>
<path d="M133.9,33.9v0.2v0.5v0.3v0.1v0.2v0.1l-0.1,0.1h-0.2h-0.3h-0.5h-0.3h-0.7h-0.3h-0.4H131h-0.1h-0.2l-0.1,0.1v0.2l-0.1,0.9v0.3
	l0.1,0.9V38l-0.1,0.9v0.3v0.9v1.4v0.9v0.2l0.1,0.7v0.3v0.2l-0.1,0.1h-0.2h-0.3h-0.4h-0.3h-0.7h-0.3h-0.7h-0.2h-0.1v-0.2v-0.3v-0.7
	v-0.3v-1.2v-0.9v-0.3v-0.9V39l-0.1-0.9v-0.3v-1.2v-0.9v-0.2v-0.1h-0.2h-0.2h-0.5h-0.3h-0.4h-0.3h-0.3H125h-0.2h-0.1h-0.2l-0.1-0.1
	l-0.1-0.1V35v-0.1v-0.3v-0.5V34v-0.6v-0.3v-0.2l0.1-0.1h0.1h0.2h0.4h0.6h0.3l0.9-0.1h0.3l0.9,0.1h0.3l1.2-0.1h0.9h0.3h1.2h1.2h0.5
	h0.3h0.1h0.2l0.1,0.1l0.1,0.1v0.2v0.1v0.2L133.9,33.9z"/>
<path d="M162.1,0.5l-0.8,2l-0.1,0.2L161,3.6l-0.1,0.2l-0.4,0.9L160.5,5l-0.3,0.9l-0.1,0.3l-0.4,0.8l-0.1,0.3L159.4,8l-0.1,0.2
	l-0.4,0.9l-0.1,0.2l-0.3,0.9l-0.1,0.3l-0.3,0.9l-0.1,0.2l-0.1,0.1h-0.1h-1l-1.2-0.1h-0.2l-0.1-0.1l-0.4-0.8l-0.1-0.2l-0.3-0.8
	l-0.1-0.2l-0.3-0.8l-0.1-0.2L154,7.6l-0.1-0.2l-0.3-0.8l-0.1-0.1l0,0l-0.1,0.1l-0.3,0.8l-0.1,0.2l-0.4,0.8l-0.1,0.2l-0.3,0.8
	l-0.1,0.2l-0.3,0.8l-0.1,0.2l-0.3,0.8l-0.1,0.2l-0.2,0.1l-1-0.1h-0.3l-1,0.1l-0.1-0.1l-0.1-0.2l-0.4-0.8l-0.1-0.2l-0.2-0.9l-0.1-0.2
	l-0.4-0.9l-0.1-0.2l-0.3-0.9L147.3,7L147,6.1l-0.1-0.2l-0.8-2l-0.1-0.2l-0.3-0.9l-0.1-0.3l-0.4-0.8l-0.1-0.2l-0.4-0.9V0.4l0.1-0.1
	h0.2h0.2h0.6h0.3h1.1h0.7h0.2l0.1,0.1v0.2l0.4,1l0.1,0.2l0.3,1l0.1,0.2l0.4,0.9l0.1,0.2l0.3,1v0.3l0.2,1l0.1,0.1h0.1l0.1-0.1
	l0.3-0.8l0.1-0.2l0.2-0.8l0.1-0.2l0.2-0.8l0.1-0.2l0.3-0.8l0.1-0.2l0.3-0.8l0.1-0.2l0.2-0.7l0.1-0.2l0.1-0.1h0.2l0.8-0.1h0.2h0.3
	h0.2h0.2l0.2,0.1l0.1,0.2v0.1l0.1,0.2l0.2,0.4l0.1,0.2l0.2,0.8l0.1,0.2l0.3,0.8l0.1,0.2l0.2,0.8l0.1,0.2l0.4,0.8l0.1,0.2v0.4v0.3
	l0.1,0.2l0.1,0.1h0.1l0.1-0.2l0.2-0.9l0.1-0.2l0.1-0.3l0.1-0.2l0.1-0.3l0.1-0.3l0.2-0.7l0.1-0.3l0.3-0.7l0.1-0.2l0.3-0.7l0.1-0.2
	l0.2-0.6l0.1-0.2l0.1-0.1h0.2l0.8,0.1h0.5h0.8h0.3l0.8,0.1L162.1,0.5L162.1,0.5L162.1,0.5z"/>
<path d="M159.9,43.5v0.2l-0.1,0.2l-0.2,0.1h-0.2h-0.2h-0.4h-0.2h-0.7l-1,0.1l-0.2-0.1l-0.1-0.1l-0.1-0.2l-0.5-1.3l-0.1-0.2h-0.1
	h-0.2l-0.9-0.1h-0.3h-1.2h-0.9H152h-0.2h-0.7h-0.2l-0.1,0.1l-0.1,0.2l-0.4,1.1l-0.1,0.3l-0.2,0.2l-0.2,0.1h-0.3h-0.9h-0.3l-1,0.1
	h-0.2l-0.2-0.1l-0.1-0.2v-0.2v-0.1l0.1-0.3l0.2-0.5l0.1-0.2l0.4-0.9l0.1-0.2l0.4-0.9l0.1-0.2l0.4-0.9l0.1-0.2l0.4-0.9l0.1-0.2
	l0.6-1.3l0.4-0.9l0.1-0.3l0.3-0.7l0.1-0.3l0.3-0.7l0.1-0.2l0.3-0.6l0.1-0.2l0.2-0.1h0.2h0.7h1.4h0.7h0.3l0.2,0.1l0.1,0.2l0.2,0.6
	l0.1,0.2l0.4,0.7l0.1,0.2l0.3,0.8l0.1,0.2l0.3,0.8l0.1,0.2l0.3,0.8l0.1,0.2l0.4,0.8l0.1,0.2l0.3,0.8l0.1,0.2l0.5,1l0.4,0.7l0.1,0.2
	l0.4,1L159.9,43.5z M154.6,39l-0.1-0.2l-0.3-1.1l-0.1-0.2l-0.3-0.9l-0.1-0.2l-0.2-0.1h-0.2h-0.2l-0.2,0.2l-0.4,1.1l-0.1,0.2l-0.4,1
	V39v0.2l0.2,0.1h0.2h1h0.7l0.2-0.1L154.6,39L154.6,39z"/>
<path d="M183.2,2.7V3v2.3v0.9v0.3v2.1v0.3v0.1v0.3V10v0.9v0.2l-0.1,0.2l-0.1,0.2l-0.2,0.1h-0.1h-0.2h-0.8h-0.3H181h-0.3h-0.2
	l-0.2-0.1l-0.2-0.1l-0.1-0.2l-0.2-0.4l-0.1-0.2l-0.6-0.8l-0.2-0.2l-0.6-0.8l-0.1-0.2l-0.6-0.8l-0.1-0.2l-0.6-0.8l-0.2-0.2l-0.6-0.8
	L176,5.7h-0.1v0.2v0.8V7v0.8V8v0.9v0.3V10v0.3l0.1,0.6v0.3v0.2l-0.1,0.1h-0.1h-0.2h-0.1h-0.3h-0.7h-0.3h-0.6h-0.3h-0.2h-0.2
	l-0.1-0.1l-0.1-0.1v-0.2V11v-0.2v-0.5V10V9.2V8.9V7V6.7V5.9V5.7V4.7l-0.1-0.8V3.7l0.1-0.8V2.6l-0.1-0.8V1.5V1.1V0.9V0.7V0.5V0.4h0.1
	h0.2h0.5h0.5h1.2h0.2l0.1,0.1l0.1,0.1l0.7,0.7l0.2,0.2l0.6,0.8l0.2,0.2l0.6,0.8l0.2,0.2l0.6,0.8l0.1,0.2l0.6,0.8l0.2,0.2l0.6,0.8
	l0.1,0.1h0.1l0.1-0.1V5.9L180,5.3V5V4.4V4.1l-0.1-1V2.9l0.1-1V1.6V1V0.6V0.4l0.1-0.1l0.1-0.1h0.2h0.1h0.3h0.7h0.3h0.5h0.2h0.4h0.2
	h0.1l0.1,0.1v0.2v0.1V1v0.5v0.3L183.2,2.7z"/>
<path d="M183.5,37.5v0.3l-0.1,1v1.5v0.7v0.9V42l-0.1,0.2l-0.1,0.2l-0.1,0.2l-0.3,0.3l-0.2,0.2l-0.1,0.1l-0.2,0.1l-0.1,0.1l-0.2,0.1
	l-0.3,0.2l-0.2,0.1l-0.2,0.1l-0.4,0.1l-0.2,0.1h-0.3h-0.2h-0.4h-0.2h-0.2l-0.6,0.1h-0.2H178h-0.4h-0.3h-0.3l-0.2-0.1l-0.6-0.2
	l-0.2-0.1l-0.2-0.1l-0.3-0.1l-0.2-0.1l-0.3-0.2l-0.2-0.1l-0.2-0.1l-0.2-0.2l-0.2-0.1l-0.2-0.2l-0.3-0.3l-0.2-0.2l-0.2-0.2l-0.1-0.2
	l-0.4-0.7l-0.1-0.3l-0.1-0.2l-0.1-0.3l-0.1-0.3v-0.3v-0.3v-0.3l-0.1-0.3v-0.3v-0.2v-0.2v-0.7v-0.1V37l0.1-0.3l0.1-0.3l0.1-0.3
	l0.1-0.3l0.1-0.2l0.1-0.3l0.1-0.3l0.1-0.2l0.2-0.3l0.1-0.2l0.2-0.2l0.2-0.2l0.2-0.2l0.4-0.3l0.2-0.2l0.2-0.1l0.2-0.1l0.5-0.3
	l0.2-0.1l0.3-0.1l0.3-0.1l0.3-0.1l0.6-0.1l0.4-0.1h0.2h0.2h0.4h0.3h0.3h0.2h0.4h0.2l0.3,0.1l0.2,0.1l0.3,0.1l0.2,0.1l0.6,0.3
	l0.2,0.1l0.2,0.1h0.1l0.2,0.1l0.2,0.1l0.1,0.1l0.2,0.1l0.1,0.1l0.1,0.1v0.1V34l-0.1,0.1l-0.1,0.2l-0.2,0.2l-0.4,0.4l-0.3,0.3
	l-0.2,0.2l-0.2,0.1l-0.1,0.1l-0.1,0.1h-0.1l-0.2-0.1l-0.2-0.1l-0.2-0.1l-0.2-0.1l-0.3-0.1l-0.3-0.1l-0.3-0.1h-0.3h-0.7h-0.1h-0.3
	h-0.4l-0.3,0.1l-0.5,0.2l-0.2,0.1l-0.2,0.2l-0.2,0.2l-0.2,0.2l-0.1,0.2l-0.1,0.2l-0.1,0.2l-0.1,0.3l-0.1,0.2l-0.1,0.5v0.3V38v0.3
	v0.4v0.3l0.1,0.4l0.1,0.3l0.2,0.4l0.1,0.2l0.2,0.3l0.2,0.2l0.3,0.3L177,41l0.3,0.2l0.2,0.1l0.5,0.1h0.3h0.3h0.3h0.3h0.2l0.8-0.2
	l0.3-0.1l0.2-0.1l0.2-0.1v-0.1v0v-0.1v-0.2v-0.5v-0.3l-0.1-0.1h-0.2h-0.4h-0.3h-0.4h-0.3H179h-0.3l-0.5-0.1h-0.1l-0.1-0.1v-0.2V39
	v-0.3v-0.4v-0.5v-0.2v-0.3v-0.2l0.1-0.1h0.2h0.4h0.3h0.7h1l1.3,0.1h0.1l0.6-0.1h0.3h0.1h0.2l0.1,0.1v0.1v0.2L183.5,37.5z"/>
<path d="M202.3,9.7l-0.1,0.3l-0.4,1.1l-0.1,0.3l-0.2,0.2l-0.2,0.1h-0.3h-0.9h-0.3l-1,0.1h-0.2l-0.2-0.1l-0.1-0.2v-0.2V11l0.1-0.3
	l0.2-0.5l0.1-0.2l0.4-0.9l0.1-0.2l0.4-0.9l0.1-0.2l0.4-0.9l0.1-0.2l0.4-0.9l0.1-0.2l0.6-1.3l0.4-0.9l0.1-0.3l0.3-0.7l0.1-0.3
	l0.3-0.7l0.1-0.2l0.3-0.6l0.1-0.2l0.2-0.1h0.2h0.7h1.2h0.4h0.3l0.2,0.1l0.1,0.2"/>
<path d="M207,42.5v0.3l-0.1,0.8v0.2l-0.1,0.1l-0.1,0.1l-2,0.1h-0.3l-0.8-0.1h-0.3l-0.8,0.1h-0.3h-1.1l-0.8-0.1h-0.3l-1.4,0.1h-0.5
	h-0.2l-0.1-0.1v-0.1v-0.2v-0.4V43v-0.2v-0.2l0.1-0.8v-0.3v-0.8v-0.3v-0.8v-0.3v-0.9v-1.3l0.1-0.8V36v-0.8v-0.3v-0.4v-0.5v-0.2v-0.8
	v-0.2v-0.1l0.1-0.1h0.1h0.2l1,0.1h1h0.3l0.9,0.1h0.3l0.9-0.1h0.3h2.1h0.3h0.5h0.4h0.2l0.1,0.1v0.1v0.2v0.4v0.4v0.3v0.4v0.2V35v0.2
	l-0.1,0.1l-0.1,0.1h-0.2h-0.1h-0.3h-1.5h-0.3h-0.8h-0.3h-0.8h-0.7h-0.2h-0.1h-0.2l-0.1,0.1v0.1v0.2v0.4v0.3v0.3v0.2v0.1l0.1,0.1h0.2
	h0.5h0.5h1.5l1.8-0.1h0.5h0.2l0.1,0.1v0.1v0.2v0.3v0.3v0.5v0.4v0.5v0.2l-0.1,0.1l-0.1,0.1h-0.2h-0.3l-0.7-0.1h-0.3l-1.3,0.1h-1h-0.3
	h-0.6h-0.3h-0.2h-0.1v0.1v0.2v0.4v0.3v0.4V41v0.1l0.1,0.1h0.2h0.9h0.3l0.8-0.1l1.1,0.1h0.3l1.1-0.1h0.1h0.2l0.6,0.1h0.1l0.1,0.1v0.2
	L207,42.5z"/>
</svg>
