<svg xmlns="http://www.w3.org/2000/svg" xmlns:xlink="http://www.w3.org/1999/xlink" viewBox="0 0 800 800"><defs><style>.a,.e,.f,.h,.k{fill:none;}.b,.j{fill:#fff;}.c{fill:#231f20;}.d{fill:url(#a);}.e,.f{stroke:#fff;}.e,.f,.h,.j,.k{stroke-miterlimit:10;}.e{stroke-width:6px;}.f{stroke-width:4px;}.g{fill:url(#b);}.h,.j,.k{stroke:#000;}.h{stroke-width:16px;}.i{fill:url(#c);}.j{stroke-width:9px;}.k{stroke-width:3px;}</style><pattern id="a" width="124.34" height="125.33" patternTransform="translate(1267.21 125.33)" patternUnits="userSpaceOnUse" viewBox="0 0 124.34 125.33"><rect class="a" width="124.34" height="125.33"/><path class="b" d="M124.34,109.67H62.17V141h62.17Zm-59.19,3h56.2V138H65.15Z"/><polygon class="b" points="72.47 128.03 72.47 119.33 101.17 119.33 104.15 116.35 69.49 116.35 69.49 131.02 72.47 128.03"/><path class="b" d="M62.17,109.67H0V141H62.17ZM3,112.65h56.2V138H3Z"/><polygon class="b" points="10.45 128.03 10.45 119.33 39.15 119.33 42.13 116.35 7.46 116.35 7.46 131.02 10.45 128.03"/><path class="b" d="M93.25,78.33H31.08v31.33H93.25Zm-59.19,3h56.2v25.36H34.07Z"/><path class="b" d="M155.42,78.33H93.25v31.33h62.17Zm-59.19,3h56.2v25.36H96.24Z"/><polygon class="b" points="41.39 96.7 41.39 88 70.08 88 73.07 85.02 38.4 85.02 38.4 99.68 41.39 96.7"/><polygon class="b" points="103.7 96.7 103.7 88 132.4 88 135.39 85.02 100.72 85.02 100.72 99.68 103.7 96.7"/><path class="b" d="M31.08,78.33H-31.08v31.33H31.08Zm-59.19,3H28.1v25.36H-28.1Z"/><polygon class="b" points="-20.64 96.7 -20.64 88 8.06 88 11.05 85.02 -23.62 85.02 -23.62 99.68 -20.64 96.7"/><path class="b" d="M62.17,47H0V78.33H62.17ZM3,50h56.2V75.35H3Z"/><path class="b" d="M124.34,47H62.17V78.33h62.17ZM65.15,50h56.2V75.35H65.15Z"/><polygon class="b" points="10.3 65.36 10.3 56.67 39 56.67 41.98 53.68 7.32 53.68 7.32 68.35 10.3 65.36"/><polygon class="b" points="72.62 65.36 72.62 56.67 101.32 56.67 104.3 53.68 69.64 53.68 69.64 68.35 72.62 65.36"/><path class="b" d="M155.42,15.67H93.25V47h62.17Zm-59.19,3h56.2V44H96.24Z"/><polygon class="b" points="103.56 34.03 103.56 25.33 132.25 25.33 135.24 22.35 100.57 22.35 100.57 37.02 103.56 34.03"/><path class="b" d="M31.08,15.67H-31.08V47H31.08Zm-59.19,3H28.1V44H-28.1Z"/><path class="b" d="M93.25,15.67H31.08V47H93.25Zm-59.19,3h56.2V44H34.07Z"/><polygon class="b" points="-20.78 34.03 -20.78 25.33 7.92 25.33 10.9 22.35 -23.77 22.35 -23.77 37.02 -20.78 34.03"/><polygon class="b" points="41.53 34.03 41.53 25.33 70.23 25.33 73.22 22.35 38.55 22.35 38.55 37.02 41.53 34.03"/><path class="b" d="M124.34-15.67H62.17V15.67h62.17Zm-59.19,3h56.2V12.68H65.15Z"/><polygon class="b" points="72.47 2.7 72.47 -6 101.17 -6 104.15 -8.98 69.49 -8.98 69.49 5.68 72.47 2.7"/><path class="b" d="M62.17-15.67H0V15.67H62.17ZM3-12.68h56.2V12.68H3Z"/><polygon class="b" points="10.45 2.7 10.45 -6 39.15 -6 42.13 -8.98 7.46 -8.98 7.46 5.68 10.45 2.7"/></pattern><pattern id="b" width="36.31" height="36.6" patternTransform="translate(290.48 36.6)" patternUnits="userSpaceOnUse" viewBox="0 0 36.31 36.6"><rect class="a" width="36.31" height="36.6"/><path class="b" d="M36.31,32H18.15v9.15H36.31ZM19,32.9H35.44V40.3H19Z"/><polygon class="b" points="21.16 37.39 21.16 34.85 29.54 34.85 30.41 33.98 20.29 33.98 20.29 38.26 21.16 37.39"/><path class="b" d="M18.15,32H0v9.15H18.15ZM.87,32.9H17.28V40.3H.87Z"/><polygon class="b" points="3.05 37.39 3.05 34.85 11.43 34.85 12.3 33.98 2.18 33.98 2.18 38.26 3.05 37.39"/><path class="b" d="M27.23,22.88H9.08V32H27.23Zm-17.28.87H26.36v7.41H9.95Z"/><path class="b" d="M45.39,22.88H27.23V32H45.39Zm-17.28.87H44.52v7.41H28.1Z"/><polygon class="b" points="12.09 28.24 12.09 25.7 20.47 25.7 21.34 24.83 11.21 24.83 11.21 29.11 12.09 28.24"/><polygon class="b" points="30.28 28.24 30.28 25.7 38.66 25.7 39.54 24.83 29.41 24.83 29.41 29.11 30.28 28.24"/><path class="b" d="M9.08,22.88H-9.08V32H9.08Zm-17.28.87H8.21v7.41H-8.21Z"/><polygon class="b" points="-6.03 28.24 -6.03 25.7 2.35 25.7 3.23 24.83 -6.9 24.83 -6.9 29.11 -6.03 28.24"/><path class="b" d="M18.15,13.73H0v9.15H18.15ZM.87,14.6H17.28V22H.87Z"/><path class="b" d="M36.31,13.73H18.15v9.15H36.31ZM19,14.6H35.44V22H19Z"/><polygon class="b" points="3.01 19.09 3.01 16.55 11.39 16.55 12.26 15.68 2.14 15.68 2.14 19.96 3.01 19.09"/><polygon class="b" points="21.21 19.09 21.21 16.55 29.59 16.55 30.46 15.68 20.33 15.68 20.33 19.96 21.21 19.09"/><path class="b" d="M45.39,4.58H27.23v9.15H45.39ZM28.1,5.45H44.52v7.41H28.1Z"/><polygon class="b" points="30.24 9.94 30.24 7.4 38.62 7.4 39.49 6.53 29.37 6.53 29.37 10.81 30.24 9.94"/><path class="b" d="M9.08,4.58H-9.08v9.15H9.08Zm-17.28.87H8.21v7.41H-8.21Z"/><path class="b" d="M27.23,4.58H9.08v9.15H27.23ZM9.95,5.45H26.36v7.41H9.95Z"/><polygon class="b" points="-6.07 9.94 -6.07 7.4 2.31 7.4 3.18 6.53 -6.94 6.53 -6.94 10.81 -6.07 9.94"/><polygon class="b" points="12.13 9.94 12.13 7.4 20.51 7.4 21.38 6.53 11.26 6.53 11.26 10.81 12.13 9.94"/><path class="b" d="M36.31-4.57H18.15V4.58H36.31ZM19-3.7H35.44V3.7H19Z"/><polygon class="b" points="21.16 0.79 21.16 -1.75 29.54 -1.75 30.41 -2.62 20.29 -2.62 20.29 1.66 21.16 0.79"/><path class="b" d="M18.15-4.57H0V4.58H18.15ZM.87-3.7H17.28V3.7H.87Z"/><polygon class="b" points="3.05 0.79 3.05 -1.75 11.43 -1.75 12.3 -2.62 2.18 -2.62 2.18 1.66 3.05 0.79"/></pattern><pattern id="c" width="62.17" height="62.67" patternTransform="translate(-469.79 -565.03) scale(1.07)" patternUnits="userSpaceOnUse" viewBox="0 0 62.17 62.67"><rect class="a" width="62.17" height="62.67"/><path class="b" d="M62.17,54.83H31.09V70.5H62.17ZM32.58,56.33h28.1V69H32.58Z"/><polygon class="b" points="36.24 64.02 36.24 59.67 50.59 59.67 52.08 58.17 34.74 58.17 34.74 65.51 36.24 64.02"/><path class="b" d="M31.09,54.83H0V70.5H31.09ZM1.49,56.33h28.1V69H1.49Z"/><polygon class="b" points="5.22 64.02 5.22 59.67 19.57 59.67 21.07 58.17 3.73 58.17 3.73 65.51 5.22 64.02"/><path class="b" d="M46.63,39.17H15.54V54.83H46.63ZM17,40.66h28.1V53.34H17Z"/><path class="b" d="M77.71,39.17H46.63V54.83H77.71ZM48.12,40.66h28.1V53.34H48.12Z"/><polygon class="b" points="20.69 48.35 20.69 44 35.04 44 36.53 42.51 19.2 42.51 19.2 49.84 20.69 48.35"/><polygon class="b" points="51.85 48.35 51.85 44 66.2 44 67.69 42.51 50.36 42.51 50.36 49.84 51.85 48.35"/><path class="b" d="M15.54,39.17H-15.54V54.83H15.54ZM-14,40.66H14V53.34H-14Z"/><polygon class="b" points="-10.32 48.35 -10.32 44 4.03 44 5.52 42.51 -11.81 42.51 -11.81 49.84 -10.32 48.35"/><path class="b" d="M31.09,23.5H0V39.17H31.09ZM1.49,25h28.1V37.68H1.49Z"/><path class="b" d="M62.17,23.5H31.09V39.17H62.17ZM32.58,25h28.1V37.68H32.58Z"/><polygon class="b" points="5.15 32.68 5.15 28.33 19.5 28.33 20.99 26.84 3.66 26.84 3.66 34.17 5.15 32.68"/><polygon class="b" points="36.31 32.68 36.31 28.33 50.66 28.33 52.15 26.84 34.82 26.84 34.82 34.17 36.31 32.68"/><path class="b" d="M77.71,7.83H46.63V23.5H77.71ZM48.12,9.33h28.1V22H48.12Z"/><polygon class="b" points="51.78 17.02 51.78 12.67 66.13 12.67 67.62 11.17 50.29 11.17 50.29 18.51 51.78 17.02"/><path class="b" d="M15.54,7.83H-15.54V23.5H15.54ZM-14,9.33H14V22H-14Z"/><path class="b" d="M46.63,7.83H15.54V23.5H46.63ZM17,9.33h28.1V22H17Z"/><polygon class="b" points="-10.39 17.02 -10.39 12.67 3.96 12.67 5.45 11.17 -11.88 11.17 -11.88 18.51 -10.39 17.02"/><polygon class="b" points="20.77 17.02 20.77 12.67 35.12 12.67 36.61 11.17 19.27 11.17 19.27 18.51 20.77 17.02"/><path class="b" d="M62.17-7.83H31.09V7.83H62.17ZM32.58-6.34h28.1V6.34H32.58Z"/><polygon class="b" points="36.24 1.35 36.24 -3 50.59 -3 52.08 -4.49 34.74 -4.49 34.74 2.84 36.24 1.35"/><path class="b" d="M31.09-7.83H0V7.83H31.09ZM1.49-6.34h28.1V6.34H1.49Z"/><polygon class="b" points="5.22 1.35 5.22 -3 19.57 -3 21.07 -4.49 3.73 -4.49 3.73 2.84 5.22 1.35"/></pattern></defs><title>alley-4</title><rect class="c" x="0.37" y="-0.48" width="800" height="800"/><rect class="d" x="0.37" y="546.52" width="800" height="253"/><line class="e" x1="0.37" y1="535.52" x2="800.37" y2="535.52"/><line class="f" x1="400" y1="550.02" x2="400" y2="535.52"/><line class="f" x1="383.25" y1="550" x2="384.47" y2="535.52"/><line class="f" x1="366.49" y1="549.99" x2="368.94" y2="535.52"/><line class="f" x1="349.74" y1="549.97" x2="353.41" y2="535.52"/><line class="f" x1="332.98" y1="549.96" x2="337.88" y2="535.52"/><line class="f" x1="316.23" y1="549.94" x2="322.35" y2="535.52"/><line class="f" x1="299.47" y1="549.92" x2="306.83" y2="535.52"/><line class="f" x1="282.72" y1="549.91" x2="291.3" y2="535.52"/><line class="f" x1="265.96" y1="549.89" x2="275.77" y2="535.52"/><line class="f" x1="249.21" y1="549.88" x2="260.24" y2="535.52"/><line class="f" x1="232.45" y1="549.86" x2="244.71" y2="535.52"/><line class="f" x1="215.7" y1="549.84" x2="229.18" y2="535.52"/><line class="f" x1="198.95" y1="549.83" x2="213.65" y2="535.52"/><line class="f" x1="182.19" y1="549.81" x2="198.12" y2="535.52"/><line class="f" x1="165.44" y1="549.8" x2="182.59" y2="535.52"/><line class="f" x1="148.68" y1="549.78" x2="167.06" y2="535.52"/><line class="f" x1="131.93" y1="549.76" x2="151.53" y2="535.52"/><line class="f" x1="115.17" y1="549.75" x2="136.01" y2="535.52"/><line class="f" x1="98.42" y1="549.73" x2="120.48" y2="535.52"/><line class="f" x1="81.66" y1="549.72" x2="104.95" y2="535.52"/><line class="f" x1="64.91" y1="549.7" x2="89.42" y2="535.52"/><line class="f" x1="48.15" y1="549.68" x2="73.89" y2="535.52"/><line class="f" x1="31.4" y1="549.67" x2="58.36" y2="535.52"/><line class="f" x1="14.65" y1="549.65" x2="42.83" y2="535.52"/><line class="f" x1="-2.11" y1="549.64" x2="27.3" y2="535.52"/><line class="f" x1="-18.86" y1="549.62" x2="11.77" y2="535.52"/><line class="f" x1="400" y1="550.02" x2="400" y2="535.52"/><line class="f" x1="416.75" y1="550" x2="415.53" y2="535.52"/><line class="f" x1="433.51" y1="549.99" x2="431.06" y2="535.52"/><line class="f" x1="450.26" y1="549.97" x2="446.59" y2="535.52"/><line class="f" x1="467.02" y1="549.96" x2="462.12" y2="535.52"/><line class="f" x1="483.77" y1="549.94" x2="477.65" y2="535.52"/><line class="f" x1="500.53" y1="549.92" x2="493.17" y2="535.52"/><line class="f" x1="517.28" y1="549.91" x2="508.7" y2="535.52"/><line class="f" x1="534.04" y1="549.89" x2="524.23" y2="535.52"/><line class="f" x1="550.79" y1="549.88" x2="539.76" y2="535.52"/><line class="f" x1="567.55" y1="549.86" x2="555.29" y2="535.52"/><line class="f" x1="584.3" y1="549.84" x2="570.82" y2="535.52"/><line class="f" x1="601.05" y1="549.83" x2="586.35" y2="535.52"/><line class="f" x1="617.81" y1="549.81" x2="601.88" y2="535.52"/><line class="f" x1="634.56" y1="549.8" x2="617.41" y2="535.52"/><line class="f" x1="651.32" y1="549.78" x2="632.94" y2="535.52"/><line class="f" x1="668.07" y1="549.76" x2="648.46" y2="535.52"/><line class="f" x1="684.83" y1="549.75" x2="663.99" y2="535.52"/><line class="f" x1="701.58" y1="549.73" x2="679.52" y2="535.52"/><line class="f" x1="718.34" y1="549.72" x2="695.05" y2="535.52"/><line class="f" x1="735.09" y1="549.7" x2="710.58" y2="535.52"/><line class="f" x1="751.85" y1="549.68" x2="726.11" y2="535.52"/><line class="f" x1="768.6" y1="549.67" x2="741.64" y2="535.52"/><line class="f" x1="785.35" y1="549.65" x2="757.17" y2="535.52"/><line class="f" x1="802.11" y1="549.64" x2="772.7" y2="535.52"/><line class="f" x1="818.86" y1="549.62" x2="788.23" y2="535.52"/><polygon class="g" points="106.37 273.7 106.37 148.31 153.37 101.6 153.37 179.01 189.86 142.26 215.92 168.44 273.19 111.17 314.37 152.36 314.37 18.18 380.58 84.45 447.43 84.8 526.37 8.52 583.21 8.52 636.25 61.41 630.21 115.53 426.23 269.75 170.79 306.45 106.37 273.7"/><path class="b" d="M582,11.52l51.14,51-5.73,51.41L425,266.89,171.3,303.34l-61.93-31.48V149.55l41-40.71v77.41l39.49-39.75,26.06,26.18,57.27-57.27,44.18,44.19V25.42l62,62,69.31.35,78.94-76.28h54.79m2.08-6h-59.3l-1.75,1.55L446.19,81.72l-64.42-.23L321.55,21.2,311.37,10.94V145.12l-34-33.95-4.27-4.24-4.26,4.24-53,53-21.94-21.94L189.62,138l-4,4.24-29.25,29.5V94.35L145.88,104.6l-40.73,40.71-1.79,1.76V275.54l3.19,1.67,62,31.46,1.67.86,1.87-.27L425.9,272.8l1.53-.22,1.23-.93L631,118.63l2.06-1.56.28-2.56L639.07,63l.32-2.87-2-2-51.14-51-1.76-1.62Z"/><polygon class="c" points="77.37 409.52 77.37 226.26 92.44 210.52 154.81 210.52 202.6 258.56 242.58 218.7 271.35 247.31 346.97 171.52 390.37 171.52 390.37 113.35 459.18 44.71 553.37 138.73 553.37 39.36 593.18 79.39 662.21 10.23 687.14 35.08 725.37 -3.05 725.37 409.52 77.37 409.52"/><path class="b" d="M69.51,237.6l3.87-9.41V411.52h-4v-173m-6-.67V411.52h17V228.19l-17,9.66Z"/><path class="b" d="M99.18,157.56l4.55-4.15-.16,60.14L99.37,212V158.52m-7,3.86v50.5L109.1,212l1.2-72.71L92.37,156.93Z"/><polyline class="h" points="737.91 -13.62 687.15 37.04 662.25 12.18 593.25 81.32 553.37 41.28 553.37 140.66 459.18 46.64 390.37 115.28 390.37 173.52 347.08 173.52 271.46 249.33 242.69 220.65 202.98 260.47 154.92 212.52 92.37 212.52"/><path class="b" d="M726.37-25.48h4v437h-4v-437m-6-3v440h16v-440Z"/><polyline class="e" points="737.64 -13.71 687.02 37 662.18 12.15 593.22 81.31 553.37 41.28 553.37 140.66 459.18 46.64 390.37 115.28 390.37 173.52 347.08 173.52 271.46 249.33 242.69 220.65 202.98 260.47 154.92 212.52 92.05 212.52 66.37 237.85 66.37 252.52"/><polygon class="i" points="77.37 412.52 77.37 229.31 92.55 213.52 154.92 213.52 202.74 261.57 242.69 221.73 271.46 250.33 347.08 174.52 390.37 174.52 390.37 116.4 459.18 47.76 553.37 141.78 553.37 42.4 593.23 82.43 662.3 13.28 687.21 38.13 725.37 0 725.37 412.52 77.37 412.52"/><path class="j" d="M640.68,360.9c-1.5-3.59-7.47-15.7-5.77-24.16l1.37-.34c24-5.38,48.33-21.89,48.33-41.39,0-23.86-24.43-43.26-54.43-43.26-15.84,0-30.1,5.4-40.05,14-7.34-7.54-16-12.35-24.85-13.67a31.7,31.7,0,0,0-4.93-.37c-8,0-15.65,2.79-22.64,7.72a40.44,40.44,0,0,0-17.47-7.35,32.21,32.21,0,0,0-4.92-.37,37.82,37.82,0,0,0-19.28,5.54,17.47,17.47,0,0,0-12.32-6.64c-7.33-.67-15.6,5.1-19.29,8.06a17.66,17.66,0,0,0-13.36-8.06c-7.32-.67-15.6,5.11-19.32,8.06a17.61,17.61,0,0,0-13.37-8.06c-8-.75-17.12,6.21-20.21,8.8a53.47,53.47,0,0,0-26.52-6.84h-.79v-.07c-25,.21-46.14,17.4-46.14,38.51,0,9.61,4.31,18.38,11.36,25.14-9.28,7.9-14.54,18.55-14.54,29.62,0,23.43,23.08,42.51,51.48,42.51a58.09,58.09,0,0,0,33.26-10.1c5,2.08,15.47,6.47,21,7.56a149.9,149.9,0,0,0,25.82,2.51c12.73,0,24.68-2.27,33.52-6.76a34.16,34.16,0,0,0,13.65,5.24,35.72,35.72,0,0,0,5.18.37c7.79,0,16.12-2.52,24-7.15a34.64,34.64,0,0,0,15.84,6.79,35.71,35.71,0,0,0,5.18.37c7.84,0,16.26-2.57,24.2-7.25,6.18,5.69,16,7.64,27.16,7.64,9.09,0,19.09-1.29,28.83-2.88,8.31-1.38,13-3.78,14.76-7.56,2.07-4.46-.67-9-2.86-12.69A34.31,34.31,0,0,1,640.68,360.9Z"/><path class="j" d="M652.45,343.54a1.35,1.35,0,0,0-.47-.27l-.14,0a1,1,0,0,0-.19-.05h-.31a1.67,1.67,0,0,0-.51.1l-.11,0a2.33,2.33,0,0,0-.45.31,1.62,1.62,0,0,0-.12,2.17c11.56,14.22,8,31.06,7.92,31.31a11.8,11.8,0,1,0,23.29,3.79,11.69,11.69,0,0,0-1.94-8.61C671.4,360.05,653.23,344.22,652.45,343.54Z"/><path class="j" d="M711.33,358.91c-11.93-13-36.63-28.33-37.69-29a2.17,2.17,0,0,0-.44-.2l-.11,0c-.13,0-.3.13-.43.13s0,.18,0,.18h0c-.13,0-.28-.17-.4-.14s-.07-.07-.11-.06a2,2,0,0,0-.28.06l-.12,0a2.42,2.42,0,0,0-.25.15l-.1.07c-.1.1-.19.19-.3.31a1.94,1.94,0,0,0,.28,2.61c16.51,14.68,15.53,35.42,15.52,35.73a14.23,14.23,0,1,0,28.46,0A14.07,14.07,0,0,0,711.33,358.91Z"/><path class="c" d="M681.84,295.25c0-22.19-23-40.19-51.35-40.19s-51.35,18-51.35,40.19c0,14.57,9.92,27.33,24.78,34.37l-7.85,21.81-20.86,23.38,4.79,5.31,10.11,3.25,45.14-2.15,7.54-5.38-1.36-7.7-7.17-15.69L632,334.34C654.73,330.16,681.84,314.25,681.84,295.25Z"/><path class="c" d="M341,316.45c-7.69-6.47-12.44-15.33-12.44-25.12,0-19.8,19.44-35.87,43.45-35.87s43.42,16.06,43.42,35.87c0,9.26-4.25,17.7-11.22,24.07,10.64,7.31,17.41,18.32,17.41,30.63,0,22-21.63,39.85-48.27,39.85S325.1,368,325.1,346C325.1,334.3,331.24,323.75,341,316.45Z"/><path class="c" d="M606.3,327.13c-5.25,35.43-36.12,60.25-60.18,56.68s-39.29-35.18-34-70.61,29-61.26,53.07-57.7S611.58,291.7,606.3,327.13Z"/><path class="b" d="M550.82,387.36a35.71,35.71,0,0,1-5.18-.37c-25.78-3.83-42.26-37.14-36.74-74.27C514,278.08,536.29,252,560.69,252a33.82,33.82,0,0,1,4.92.37c12.85,1.91,25.18,11.14,33.86,25.37a75.1,75.1,0,0,1,10,49.92C604.18,363.35,574.88,387.36,550.82,387.36Zm9.87-129c-20.89,0-40.84,24.27-45.44,55.27-5,33.62,9.07,63.66,31.34,67a28.93,28.93,0,0,0,4.24.31c20.92,0,47.56-22.3,52.3-54.28A68.54,68.54,0,0,0,594,281c-7.57-12.41-18.51-20.76-29.3-22.37A27,27,0,0,0,560.69,258.39Z"/><path class="c" d="M561.26,327.13c-5.25,35.43-36.15,60.25-60.18,56.68s-39.29-35.18-34-70.61,29-61.26,53.07-57.7S566.51,291.7,561.26,327.13Z"/><path class="b" d="M505.76,387.36a35.7,35.7,0,0,1-5.18-.37c-25.75-3.83-42.23-37.14-36.74-74.27C469,278.08,491.26,252,515.63,252a34.22,34.22,0,0,1,5,.37c12.82,1.91,25.17,11.14,33.83,25.37a74.94,74.94,0,0,1,10,49.92C559.14,363.35,529.82,387.36,505.76,387.36Zm9.87-129c-20.86,0-40.81,24.27-45.42,55.27-5,33.62,9.07,63.66,31.34,67a28.52,28.52,0,0,0,4.21.31c20.95,0,47.58-22.3,52.33-54.28A68.44,68.44,0,0,0,548.91,281c-7.54-12.41-18.48-20.76-29.27-22.37A27.36,27.36,0,0,0,515.63,258.39Z"/><polygon class="c" points="398.79 263.32 411.91 255.47 419.16 254.2 431.75 263.32 443.54 255.47 454.55 254.2 463.94 263.35 475.98 255.52 489.42 255.52 497.37 266 497.37 285.04 492.73 306.76 494.68 323.38 503.43 348.05 499.31 365.48 480.82 380.5 453.21 384.79 424.84 382.64 402.52 377.28 415.39 366.29 420.5 341.89 416.48 331.42 404.94 314.8 414.87 297.91 414.34 283.96 409.24 273.51 398.79 263.32"/><path class="b" d="M408.73,315.14a34.44,34.44,0,0,0,10-23.8c0-21.24-20.89-38.52-46.6-38.52h-.71v-.07c-26,.21-46.23,17.4-46.23,38.51,0,9.61,4.26,18.38,11.32,25.15-9.28,7.9-14.59,18.55-14.59,29.62,0,23.43,23.1,42.51,51.5,42.51s51.47-19.08,51.47-42.51C424.85,334.26,419,323.15,408.73,315.14Zm-35.35,68.08h0c-25,0-45.07-16.68-45.07-37.19,0-9.66,4.6-18.94,12.69-25.85a52.31,52.31,0,0,0,30,9.6l.27,0a2.69,2.69,0,1,0,0-5.28h0a44.45,44.45,0,0,1-26.16-8.38l-1.81-1.54c-7.42-6.25-11.52-14.51-11.52-23.26,0-18.3,18-33.2,40.24-33.2s40.21,14.9,40.21,33.2a29.7,29.7,0,0,1-8.62,20.54,59.5,59.5,0,0,0-30.26-8.35v0h-.19a2.69,2.69,0,1,0,0,5.29l.19,0v0c25,.14,44.7,16.76,44.7,37.19S398.37,383.08,373.37,383.21Z"/><path class="b" d="M494.67,316c-1.78-6.53,2.5-15.07,4.43-23.32,1.71-7.28,3.39-14.15,2.77-20.3-1.33-12.58-8-20.65-17.83-21.57-7.33-.67-15.59,5.11-19.31,8.06a17.59,17.59,0,0,0-13.36-8.06c-7.29-.67-15.59,5.11-19.29,8.06a17.69,17.69,0,0,0-13.36-8.06c-9.58-.88-20.8,9.3-21.3,9.73a3.79,3.79,0,0,0-.54,4.5,2.28,2.28,0,0,0,3.63.68c2.78-2.57,11.43-9.09,17.83-8.49,10.44,1,12.64,11.49,13.1,16,.5,4.82-1,11.06-2.52,17.66-2.16,9.21-4.4,18.73-2.07,27.2a2.67,2.67,0,0,0,2.42,2.19,2.26,2.26,0,0,0,.83-.18,3.47,3.47,0,0,0,1.62-4.08c-1.78-6.53.21-15.07,2.16-23.32,1.71-7.28,3.33-14.15,2.68-20.3a34.65,34.65,0,0,0-1.77-8c3.72-3,10.78-7.64,16.23-7.12,10.44,1,12.64,11.49,13.1,16,.49,4.82-1,11.06-2.52,17.66-2.16,9.21-4.4,18.73-2.1,27.2a2.69,2.69,0,0,0,2.45,2.19,2.29,2.29,0,0,0,.83-.18A3.47,3.47,0,0,0,464.4,316c-1.81-6.53.21-15.07,2.16-23.32,1.71-7.28,3.3-14.15,2.68-20.3a34.65,34.65,0,0,0-1.77-8c3.16-2.54,10.37-7.68,16.2-7.13,10.44,1,12.67,11.49,13.13,16,.5,4.82-1,11.06-2.52,17.66-2.16,9.21-6.54,18.73-4.26,27.12,2.11,8.42,10.57,21.88,10.68,28.74,0,.3,0-.41,0,0,0,4.08,0,14.91-7.86,23.39-10.53,11.4-30.37,14.87-62.94,9.74-6.45-1-20.83-8.17-21.83-8.35-1.39-.25-2.71,1-2.92,2.73s-2.67,2.81-1.27,3.06c.78.14,16.52,7.22,23.72,8.65a150,150,0,0,0,25.85,2.51c18,0,34.24-4.51,42.53-13.49,9.62-10.39,9.4-22.74,9.4-27.16v-1.07C505.37,338,495.29,318.45,494.67,316Z"/><path class="b" d="M602.18,387.75c-13.63,0-25.17-2.88-30.67-11.92l5.26-3.2c7.38,12.16,33.93,9.33,53.23,6.17,8.11-1.33,9.83-3.31,10.19-4.08.7-1.5-1.12-4.52-2.56-6.93a34.18,34.18,0,0,1-2.29-4.26c-2.41-5.65-8.91-19.39-6.63-26.68.72-2.25,7-1.61,7-1.61-3.06,8.44,3.68,22.05,5.3,25.89a29.9,29.9,0,0,0,1.9,3.49c2.19,3.67,4.94,8.23,2.87,12.69-1.75,3.78-6.45,6.2-14.76,7.56C621.28,386.47,611.27,387.75,602.18,387.75Z"/><path class="b" d="M630.49,252c-17.92,0-33.86,6.93-43.78,17.61l4.14,4.54c8.72-9.66,23.23-16,39.65-16,26.63,0,48.28,16.64,48.28,37.1,0,17.33-25.83,31.91-46.77,36a1.69,1.69,0,0,0-.57.38,13.28,13.28,0,0,0-3,6.45c26.31-3,56.51-21.07,56.51-42.79C684.95,271.39,660.52,252,630.49,252Z"/><path class="b" d="M545.18,338.37a3.53,3.53,0,0,1-1-.15,3.21,3.21,0,0,1-2-4.07c5.15-15.54,0-31.32,0-31.48a3.22,3.22,0,1,1,6.11-2c.22.72,5.8,18,0,35.51A3.22,3.22,0,0,1,545.18,338.37Z"/><path class="b" d="M590.59,338.37a3.2,3.2,0,0,1-3.05-4.22c5.15-15.54,0-31.32,0-31.48a3.21,3.21,0,1,1,6.11-2c.25.72,5.82,18,0,35.51A3.22,3.22,0,0,1,590.59,338.37Z"/><path class="b" d="M620.15,339.91a3.22,3.22,0,0,1-.44-6.41c7.61-1,17.45-3.48,17.54-3.51a3.15,3.15,0,1,1,1.4,6.13,181.5,181.5,0,0,1-18.08,3.75A3,3,0,0,1,620.15,339.91Z"/><path class="b" d="M652.39,300.83l-8.22-8.37,5.67-5.69a3.21,3.21,0,0,0-4.54-4.55l-5.63,5.63-5.51-5.61a3.22,3.22,0,0,0-4.6,4.51l5.55,5.66-6.24,6.25a3.22,3.22,0,1,0,4.53,4.56l6.22-6.21,8.19,8.33a3.17,3.17,0,0,0,2.29,1,3.22,3.22,0,0,0,2.29-5.48Z"/><path class="c" d="M679.76,372.51c-8-12.22-26.2-28.06-27-28.72a1.6,1.6,0,0,0-2.29,2.23c11.54,14.22,8,31.06,7.92,31.32a11.8,11.8,0,1,0,23.29,3.79A11.68,11.68,0,0,0,679.76,372.51Z"/><path class="b" d="M661.37,357.7c5.26,5.25,11.15,11.63,14.78,17.17l0,0,0,0a7.3,7.3,0,0,1,1.24,5.46,7.5,7.5,0,0,1-14.82-2.35,45.84,45.84,0,0,0-1.26-20.39M652,343.41a1.56,1.56,0,0,0-1.37.43,1.59,1.59,0,0,0-.12,2.17c11.54,14.22,8,31.06,7.92,31.32a11.8,11.8,0,1,0,23.29,3.79,11.68,11.68,0,0,0-1.94-8.61c-8-12.22-26.2-28.06-27-28.72a1.57,1.57,0,0,0-.8-.37Z"/><path class="c" d="M711.63,359.14c-11.9-13-36.6-28.33-37.66-29a1.94,1.94,0,0,0-2.3,3.11C688.18,348,687.21,368.7,687.19,369a14.23,14.23,0,1,0,28.46,0A14.1,14.1,0,0,0,711.63,359.14Z"/><path class="b" d="M686.9,345.07c7.29,5.24,15.53,11.68,20.94,17.57l0,.05,0,.05a8.91,8.91,0,0,1,2.54,6.27,9.06,9.06,0,0,1-18.11.09,55.19,55.19,0,0,0-5.47-24M673,329.89a1.92,1.92,0,0,0-1.57.79,1.94,1.94,0,0,0,.28,2.61C688.18,348,687.21,368.7,687.19,369a14.23,14.23,0,1,0,28.46,0,14.1,14.1,0,0,0-4-9.87c-11.9-13-36.6-28.33-37.66-29a2,2,0,0,0-1-.29Z"/><path class="b" d="M462.59,365c-.45.25-.91.53-1.39.82l-3.46-19.07a1.49,1.49,0,0,0-1.56-1.19h0a1.49,1.49,0,0,0-1.57,1.21c-.31,1.79-1.56,5.58-3.52,6.16a1.59,1.59,0,1,0,.92,3,6.73,6.73,0,0,0,3.63-3l2,11.25c-2.07-.5-4.76-.79-6.42.54-.81.64-1.69,1.9-1.3,4.24a4.11,4.11,0,0,0,2.25,3.35c2.67,1.21,6.36-1.06,9.91-3.27l2.12-1.28c.61-.33,1-.34,1.07-.27a1.07,1.07,0,0,1,.07,1c-.25.63-.89,1-1.91.94a1.56,1.56,0,0,0-1.62,1.58,1.59,1.59,0,0,0,1.56,1.63h.17a4.86,4.86,0,0,0,4.81-3,4.15,4.15,0,0,0-1-4.57C466.75,364.53,465.11,363.51,462.59,365Zm-9.1,4.4c-.16-.07-.3-.44-.41-.94,0-.3-.12-1,.15-1.2a2,2,0,0,1,1.22-.27,13,13,0,0,1,3.68.7C456.3,368.7,454.26,369.71,453.49,369.35Z"/><path class="b" d="M481.42,363.8c-.37-1.42-1.12-4.36-3.22-4.36h-.13c-.64,0-2,.08-3.17,4a71.23,71.23,0,0,1-1.64-10.23,9.14,9.14,0,0,1,4.62.38,1.61,1.61,0,1,0,1.09-3,12.2,12.2,0,0,0-6-.58c-.27-3.69-.4-6.91-.46-9a1.45,1.45,0,0,0-1.59-1.41h0a1.48,1.48,0,0,0-1.6,1.47c0,1,.09,5,.49,9.85a18.92,18.92,0,0,0-2.21.88,12,12,0,0,0-.35-4.39,1.59,1.59,0,0,0-2-1.09,1.62,1.62,0,0,0-1.11,2c0,.18,1.16,4.14-1.34,6.52-.29.23-.44.38-.48.42a1.6,1.6,0,0,0-.17,2.22,1.62,1.62,0,0,0,1.24.58,1.66,1.66,0,0,0,1-.33c.17-.14.33-.29.51-.43a21.58,21.58,0,0,1,5.2-3.11c.64,6.24,1.85,12.87,4,15.59a1.63,1.63,0,0,0,1.26.61,1.73,1.73,0,0,0,.41,0,1.63,1.63,0,0,0,1.19-1.3,32.62,32.62,0,0,1,1.13-5,4.24,4.24,0,0,1,.19.64,1.58,1.58,0,0,0,1.94,1.16A1.6,1.6,0,0,0,481.42,363.8Z"/><rect class="b" x="1.37" y="410.52" width="800" height="45"/><rect class="b" x="1.37" y="455.52" width="800" height="20"/><line class="k" x1="1.37" y1="456.02" x2="801.37" y2="456.02"/><line class="k" x1="401" y1="455.64" x2="401" y2="410.13"/><line class="k" x1="520.24" y1="455.74" x2="498.06" y2="410.13"/><line class="k" x1="639.49" y1="455.85" x2="595.11" y2="410.13"/><line class="k" x1="758.73" y1="455.95" x2="692.17" y2="410.13"/><line class="k" x1="877.97" y1="456.05" x2="789.23" y2="410.13"/><line class="k" x1="401" y1="455.64" x2="401" y2="410.13"/><line class="k" x1="281.76" y1="455.74" x2="303.94" y2="410.13"/><line class="k" x1="162.51" y1="455.85" x2="206.89" y2="410.13"/><line class="k" x1="43.27" y1="455.95" x2="109.83" y2="410.13"/><line class="k" x1="-75.97" y1="456.05" x2="12.77" y2="410.13"/><path class="c" d="M489.33,417.52l14.66,30H412.37v-30h77m1.85-3H409.37v36h99.37l-17.52-36Z"/><path class="c" d="M590.2,417.52l28.87,30H527.45l-14.66-30h77.58m1.13-3H508l17.52,36H626l-34.5-36Z"/><path class="c" d="M689,417.52l43.3,30H643.76l-28.87-30h74.48m.63-3H608l34.5,36h99.29l-51.75-36Z"/><path class="c" d="M788.48,417.52l57.75,30H759.89l-43.3-30h71.78m.85-3h-82l51.75,36h99.31l-69-36Z"/><path class="c" d="M389.37,417.52v30H298.14l14.66-30h76.58m3-3H310.9l-17.52,36h99v-36Z"/><path class="c" d="M289.33,417.52l-14.66,30H183.05l28.87-30h77.46m4.71-3H210.62l-34.5,36H276.56l17.52-36Z"/><path class="c" d="M187.23,417.52l-28.87,30H69.78l43.3-30h74.3m6.79-3h-82l-51.75,36h99.29l34.5-36Z"/><path class="c" d="M85.53,417.52l-43.3,30H-44.11l57.75-30H85.37m9.56-3h-82l-69,36H43.18l51.75-36Z"/><line class="k" x1="44.87" y1="455.52" x2="44.87" y2="475.52"/><line class="k" x1="162.87" y1="456.52" x2="162.87" y2="475.52"/><line class="k" x1="281.87" y1="455.52" x2="281.87" y2="475.52"/><line class="k" x1="400.87" y1="455.52" x2="400.87" y2="475.52"/><line class="k" x1="519.87" y1="455.52" x2="519.87" y2="475.52"/><line class="k" x1="638.87" y1="455.52" x2="638.87" y2="475.52"/><line class="k" x1="757.87" y1="455.52" x2="757.87" y2="475.52"/><path class="c" d="M272.37,462.52v16h-100v-16h100m3-3h-106v22h106v-22Z"/><line class="k" x1="171.25" y1="460.61" x2="171.25" y2="480.08"/><line class="k" x1="179.77" y1="460.61" x2="179.77" y2="480.08"/><line class="k" x1="188.29" y1="460.61" x2="188.29" y2="480.08"/><line class="k" x1="196.81" y1="460.61" x2="196.81" y2="480.08"/><line class="k" x1="205.33" y1="460.61" x2="205.33" y2="480.08"/><line class="k" x1="213.85" y1="460.61" x2="213.85" y2="480.08"/><line class="k" x1="222.38" y1="460.61" x2="222.38" y2="480.08"/><line class="k" x1="230.9" y1="460.61" x2="230.9" y2="480.08"/><line class="k" x1="239.42" y1="460.61" x2="239.42" y2="480.08"/><line class="k" x1="247.94" y1="460.61" x2="247.94" y2="480.08"/><line class="k" x1="256.46" y1="460.61" x2="256.46" y2="480.08"/><line class="k" x1="264.98" y1="460.61" x2="264.98" y2="480.08"/><line class="k" x1="273.5" y1="460.61" x2="273.5" y2="480.08"/><path class="c" d="M629.37,462.52v16h-100v-16h100m3-3h-106v22h106v-22Z"/><line class="k" x1="527.92" y1="460.61" x2="527.92" y2="480.08"/><line class="k" x1="536.44" y1="460.61" x2="536.44" y2="480.08"/><line class="k" x1="544.96" y1="460.61" x2="544.96" y2="480.08"/><line class="k" x1="553.48" y1="460.61" x2="553.48" y2="480.08"/><line class="k" x1="562" y1="460.61" x2="562" y2="480.08"/><line class="k" x1="570.52" y1="460.61" x2="570.52" y2="480.08"/><line class="k" x1="579.04" y1="460.61" x2="579.04" y2="480.08"/><line class="k" x1="587.56" y1="460.61" x2="587.56" y2="480.08"/><line class="k" x1="596.08" y1="460.61" x2="596.08" y2="480.08"/><line class="k" x1="604.6" y1="460.61" x2="604.6" y2="480.08"/><line class="k" x1="613.12" y1="460.61" x2="613.12" y2="480.08"/><line class="k" x1="621.65" y1="460.61" x2="621.65" y2="480.08"/><line class="k" x1="630.17" y1="460.61" x2="630.17" y2="480.08"/><line class="k" x1="811.37" y1="410.02" x2="-4.63" y2="410.02"/><path class="b" d="M443.86,442.64s4-2,4.27-4.1L446.85,435l-1.28-3.52c-1.6-1.42-5.91-.4-5.91-.4"/><path class="c" d="M444.09,443.1l-.46-.92c1-.51,3.63-2.12,4-3.61l-2.47-6.78c-1.22-.91-4.26-.46-5.36-.21l-.24-1c.47-.11,4.62-1,6.37.51l.1.09,2.65,7.29,0,.13C448.29,440.92,444.52,442.89,444.09,443.1Z"/><path class="b" d="M438.41,430.11l-24.78,9,5.13,14.1,24.78-9c.76-.28.23-3.66-1.19-7.55S439.17,429.83,438.41,430.11Z"/><path class="c" d="M443.71,444.68l-25.26,9.19L413,438.82l25.26-9.19c1.77-.64,4.14,5.59,4.6,6.85S445.48,444,443.71,444.68Zm-24.65,7.88,24.24-8.82c.22-.45,0-2.91-1.43-6.92s-2.89-6-3.35-6.22l-24.24,8.82Z"/><ellipse class="b" cx="416.2" cy="446.17" rx="1.46" ry="7.5" transform="translate(-127.54 169.32) rotate(-20.01)"/><path class="c" d="M418.93,453.7c-1.77.64-4.14-5.59-4.59-6.85s-2.65-7.56-.88-8.2,4.14,5.6,4.6,6.85S420.7,453.06,418.93,453.7Zm-5.1-14c-.16.64.09,3,1.46,6.82s2.72,5.78,3.26,6.17c.16-.64-.09-3-1.47-6.82S414.37,440.07,413.84,439.68Z"/><circle class="c" cx="444.81" cy="435.76" r="0.87" transform="translate(-122.02 177.99) rotate(-19.96)"/><path class="c" d="M445.22,436.9a1.21,1.21,0,1,1,.72-1.55A1.22,1.22,0,0,1,445.22,436.9Zm-.59-1.64a.53.53,0,1,0,.68.32A.53.53,0,0,0,444.63,435.26Z"/><path class="c" d="M413.46,438.64l.38,1c.53.39,1.88,2.38,3.25,6.16s1.63,6.18,1.47,6.82l.38,1c1.77-.64-.42-6.95-.88-8.2S415.23,438,413.46,438.64Z"/><path class="c" d="M418.38,436.85l.38,1c.53.39,1.88,2.38,3.26,6.16s1.62,6.18,1.46,6.82l.38,1c1.77-.64-.42-6.95-.88-8.21S420.15,436.21,418.38,436.85Z"/><path class="c" d="M423.31,435.06l.38,1c.53.39,1.88,2.39,3.26,6.17s1.62,6.18,1.46,6.82l.38,1c1.76-.64-.42-6.94-.88-8.2S425.08,434.42,423.31,435.06Z"/><path class="c" d="M428.24,433.27l.38,1c.54.39,1.88,2.39,3.26,6.17s1.63,6.17,1.46,6.82l.38,1c1.76-.64-.42-6.94-.88-8.21S430,432.62,428.24,433.27Z"/><path class="c" d="M433.17,431.47l.38,1c.54.39,1.89,2.39,3.26,6.17s1.63,6.17,1.46,6.81l.38,1c1.77-.64-.43-7-.88-8.2S434.94,430.83,433.17,431.47Z"/><path class="c" d="M438.09,429.68l.38,1c.54.39,1.89,2.38,3.26,6.16s1.63,6.18,1.47,6.82l.38,1c1.77-.64-.42-7-.88-8.21S439.86,429,438.09,429.68Z"/><path class="b" d="M454.56,420.76s-1.44-3.22-3.22-3.53l-3.1.94-3.09.93c-1.31,1.25-.73,4.72-.73,4.72"/><path class="c" d="M455,420.59l-.81.34c-.37-.82-1.57-3-2.82-3.28l-6,1.8c-.86,1-.68,3.4-.53,4.29l-.86.16c-.06-.38-.58-3.73.86-5.09l.08-.08,6.4-1.94.11,0C453.38,417.17,454.81,420.24,455,420.59Z"/><path class="b" d="M443.5,424.81l6.07,20.08,12.38-3.74-6.08-20.08c-.18-.62-3.1-.28-6.52.75S443.31,424.19,443.5,424.81Z"/><path class="c" d="M456.29,420.94l6.19,20.47-13.21,4-6.19-20.47c-.43-1.43,5-3.17,6.15-3.5S455.86,419.51,456.29,420.94Zm5.11,19.95-5.94-19.65c-.37-.18-2.48-.1-6,1s-5.32,2.16-5.53,2.52l5.94,19.64Z"/><path class="b" d="M455.42,441.9c3.42-1,6.34-1.37,6.53-.75s-2.44,2-5.85,3-6.34,1.37-6.53.76S452,442.93,455.42,441.9Z"/><path class="c" d="M462.36,441c.44,1.43-5,3.17-6.15,3.5s-6.63,1.93-7.06.49,5-3.17,6.15-3.51S461.93,439.59,462.36,441Zm-12.3,3.72c.53.14,2.6,0,5.92-1s5.11-2,5.48-2.45c-.54-.15-2.6,0-5.92,1S450.42,444.33,450.06,444.74Z"/><path class="c" d="M448.54,419.17a.7.7,0,1,1-.52.88A.72.72,0,0,1,448.54,419.17Z"/><path class="c" d="M449.74,419.53a1,1,0,1,1-1.28-.62A1,1,0,0,1,449.74,419.53Zm-1.44.44a.46.46,0,1,0,.32-.54A.44.44,0,0,0,448.3,420Z"/><path class="c" d="M449.15,445l.91-.28c.37-.42,2.16-1.45,5.48-2.45s5.38-1.14,5.92-1l.91-.27c-.43-1.44-6,.16-7.06.49S448.72,443.58,449.15,445Z"/><path class="c" d="M447.94,441l.91-.28c.37-.42,2.16-1.45,5.48-2.45s5.38-1.14,5.92-1l.91-.27c-.44-1.44-6,.16-7.07.49S447.51,439.59,447.94,441Z"/><path class="c" d="M446.73,437l.91-.28c.37-.42,2.16-1.45,5.48-2.45s5.38-1.14,5.92-1L460,433c-.44-1.44-6,.16-7.07.49S446.3,435.6,446.73,437Z"/><path class="c" d="M445.52,433l.91-.28c.37-.42,2.16-1.45,5.48-2.45s5.38-1.14,5.92-1l.91-.27c-.43-1.44-6,.16-7.06.49S445.09,431.6,445.52,433Z"/><path class="c" d="M444.32,429l.91-.28c.37-.42,2.16-1.45,5.48-2.45s5.38-1.14,5.92-1l.91-.28c-.43-1.43-6,.16-7.06.49S443.88,427.61,444.32,429Z"/><path class="c" d="M443.11,425.05l.91-.27c.37-.42,2.16-1.45,5.48-2.45s5.38-1.14,5.92-1l.91-.28c-.43-1.43-6,.16-7.06.49S442.68,423.61,443.11,425.05Z"/><path class="b" d="M496.54,485s4.83-1,5.78-3.2l-.37-4.17-.38-4.17c-1.32-2-6.26-2.12-6.26-2.12"/><path class="c" d="M496.65,485.54l-.23-1.12c1.23-.26,4.52-1.25,5.32-2.75l-.72-8c-1.05-1.34-4.46-1.72-5.73-1.76l0-1.14c.53,0,5.28.21,6.72,2.38l.08.12.78,8.63-.06.13C501.81,484.39,497.18,485.42,496.65,485.54Z"/><path class="b" d="M494.24,469.89l-29.31,2.63,1.49,16.68,29.32-2.63c.9-.08,1.29-3.88.88-8.48S495.14,469.81,494.24,469.89Z"/><path class="c" d="M495.79,487.13l-29.88,2.68L464.31,472l29.88-2.68c2.09-.19,2.86,7.22,3,8.71S497.88,486.94,495.79,487.13Zm-28.85,1.45L495.61,486c.37-.42.86-3.13.44-7.87s-1.4-7.32-1.83-7.66L465.55,473Z"/><ellipse class="b" cx="465.68" cy="480.86" rx="1.64" ry="8.37" transform="translate(-41.16 43.6) rotate(-5.13)"/><path class="c" d="M466.48,489.76c-2.09.19-2.86-7.22-3-8.71s-.7-8.91,1.4-9.1,2.87,7.22,3,8.71S468.57,489.58,466.48,489.76ZM465,473.18c-.36.65-.77,3.3-.37,7.77s1.29,7,1.75,7.58c.36-.65.77-3.3.37-7.78S465.45,473.75,465,473.18Z"/><circle class="c" cx="499.52" cy="477.82" r="0.97" transform="translate(-40.49 46.29) rotate(-5.1)"/><path class="c" d="M499.64,479.17a1.35,1.35,0,1,1,1.23-1.47A1.35,1.35,0,0,1,499.64,479.17Zm-.17-1.94a.59.59,0,0,0,.1,1.18.59.59,0,0,0-.1-1.18Z"/><path class="c" d="M464.88,472l.11,1.23c.47.57,1.35,3.11,1.75,7.58s0,7.13-.37,7.78l.11,1.22c2.09-.19,1.53-7.62,1.4-9.1S467,471.76,464.88,472Z"/><path class="c" d="M470.71,471.43l.11,1.23c.47.57,1.35,3.11,1.75,7.59s0,7.13-.38,7.78l.11,1.22c2.09-.19,1.53-7.62,1.4-9.1S472.8,471.24,470.71,471.43Z"/><path class="c" d="M476.54,470.91l.11,1.23c.46.57,1.35,3.12,1.75,7.58s0,7.13-.37,7.77l.11,1.23c2.09-.19,1.53-7.62,1.4-9.1S478.63,470.72,476.54,470.91Z"/><path class="c" d="M482.37,470.38l.11,1.23c.46.57,1.35,3.11,1.75,7.58s0,7.13-.37,7.78l.11,1.22c2.09-.19,1.54-7.62,1.4-9.1S484.46,470.19,482.37,470.38Z"/><path class="c" d="M488.2,469.86l.11,1.22c.47.57,1.35,3.12,1.75,7.59s0,7.13-.37,7.77l.11,1.23c2.09-.19,1.53-7.62,1.4-9.1S490.29,469.67,488.2,469.86Z"/><path class="c" d="M494,469.34l.11,1.23c.47.57,1.35,3.12,1.75,7.58s0,7.13-.37,7.78l.11,1.23c2.09-.19,1.54-7.62,1.4-9.11S496.12,469.15,494,469.34Z"/></svg>