<svg xmlns="http://www.w3.org/2000/svg" xmlns:xlink="http://www.w3.org/1999/xlink" viewBox="0 0 800 800"><defs><style>.a,.e,.f,.g,.i,.j,.k,.o,.p{fill:none;}.b{fill:#fff;}.c,.l,.m,.n{fill:#231f20;}.d{fill:url(#a);}.e,.f,.i,.j,.k,.l,.m,.n,.o,.p{stroke:#fff;}.e,.f,.g,.i,.j,.k,.l,.m,.n,.p{stroke-miterlimit:10;}.e,.j,.n{stroke-width:6px;}.f{stroke-width:4px;}.g{stroke:#000;}.g,.k,.m,.o,.p{stroke-width:3px;}.h{fill:url(#b);}.i,.j,.o,.p{stroke-linecap:round;}.i{stroke-width:5px;}.l{stroke-width:2px;}.o{stroke-linejoin:round;}</style><pattern id="a" width="124.34" height="125.33" patternTransform="translate(1371.78 125.33)" patternUnits="userSpaceOnUse" viewBox="0 0 124.34 125.33"><rect class="a" width="124.34" height="125.33"/><path class="b" d="M124.34,109.67H62.17V141h62.17Zm-59.19,3h56.2V138H65.15Z"/><polygon class="b" points="72.47 128.03 72.47 119.33 101.17 119.33 104.15 116.35 69.49 116.35 69.49 131.02 72.47 128.03"/><path class="b" d="M62.17,109.67H0V141H62.17ZM3,112.65h56.2V138H3Z"/><polygon class="b" points="10.45 128.03 10.45 119.33 39.15 119.33 42.13 116.35 7.46 116.35 7.46 131.02 10.45 128.03"/><path class="b" d="M93.25,78.33H31.08v31.33H93.25Zm-59.19,3h56.2v25.36H34.07Z"/><path class="b" d="M155.42,78.33H93.25v31.33h62.17Zm-59.19,3h56.2v25.36H96.24Z"/><polygon class="b" points="41.39 96.7 41.39 88 70.08 88 73.07 85.02 38.4 85.02 38.4 99.68 41.39 96.7"/><polygon class="b" points="103.7 96.7 103.7 88 132.4 88 135.39 85.02 100.72 85.02 100.72 99.68 103.7 96.7"/><path class="b" d="M31.08,78.33H-31.08v31.33H31.08Zm-59.19,3H28.1v25.36H-28.1Z"/><polygon class="b" points="-20.64 96.7 -20.64 88 8.06 88 11.05 85.02 -23.62 85.02 -23.62 99.68 -20.64 96.7"/><path class="b" d="M62.17,47H0V78.33H62.17ZM3,50h56.2V75.35H3Z"/><path class="b" d="M124.34,47H62.17V78.33h62.17ZM65.15,50h56.2V75.35H65.15Z"/><polygon class="b" points="10.3 65.36 10.3 56.67 39 56.67 41.98 53.68 7.32 53.68 7.32 68.35 10.3 65.36"/><polygon class="b" points="72.62 65.36 72.62 56.67 101.32 56.67 104.3 53.68 69.64 53.68 69.64 68.35 72.62 65.36"/><path class="b" d="M155.42,15.67H93.25V47h62.17Zm-59.19,3h56.2V44H96.24Z"/><polygon class="b" points="103.56 34.03 103.56 25.33 132.25 25.33 135.24 22.35 100.57 22.35 100.57 37.02 103.56 34.03"/><path class="b" d="M31.08,15.67H-31.08V47H31.08Zm-59.19,3H28.1V44H-28.1Z"/><path class="b" d="M93.25,15.67H31.08V47H93.25Zm-59.19,3h56.2V44H34.07Z"/><polygon class="b" points="-20.78 34.03 -20.78 25.33 7.92 25.33 10.9 22.35 -23.77 22.35 -23.77 37.02 -20.78 34.03"/><polygon class="b" points="41.53 34.03 41.53 25.33 70.23 25.33 73.22 22.35 38.55 22.35 38.55 37.02 41.53 34.03"/><path class="b" d="M124.34-15.67H62.17V15.67h62.17Zm-59.19,3h56.2V12.68H65.15Z"/><polygon class="b" points="72.47 2.7 72.47 -6 101.17 -6 104.15 -8.98 69.49 -8.98 69.49 5.68 72.47 2.7"/><path class="b" d="M62.17-15.67H0V15.67H62.17ZM3-12.68h56.2V12.68H3Z"/><polygon class="b" points="10.45 2.7 10.45 -6 39.15 -6 42.13 -8.98 7.46 -8.98 7.46 5.68 10.45 2.7"/></pattern><pattern id="b" width="62.17" height="62.67" patternUnits="userSpaceOnUse" viewBox="0 0 62.17 62.67"><rect class="a" width="62.17" height="62.67"/><path class="b" d="M62.17,54.83H31.09V70.5H62.17ZM32.58,56.33h28.1V69H32.58Z"/><polygon class="b" points="36.24 64.02 36.24 59.67 50.59 59.67 52.08 58.17 34.74 58.17 34.74 65.51 36.24 64.02"/><path class="b" d="M31.09,54.83H0V70.5H31.09ZM1.49,56.33h28.1V69H1.49Z"/><polygon class="b" points="5.22 64.02 5.22 59.67 19.57 59.67 21.07 58.17 3.73 58.17 3.73 65.51 5.22 64.02"/><path class="b" d="M46.63,39.17H15.54V54.83H46.63ZM17,40.66h28.1V53.34H17Z"/><path class="b" d="M77.71,39.17H46.63V54.83H77.71ZM48.12,40.66h28.1V53.34H48.12Z"/><polygon class="b" points="20.69 48.35 20.69 44 35.04 44 36.53 42.51 19.2 42.51 19.2 49.84 20.69 48.35"/><polygon class="b" points="51.85 48.35 51.85 44 66.2 44 67.69 42.51 50.36 42.51 50.36 49.84 51.85 48.35"/><path class="b" d="M15.54,39.17H-15.54V54.83H15.54ZM-14,40.66H14V53.34H-14Z"/><polygon class="b" points="-10.32 48.35 -10.32 44 4.03 44 5.52 42.51 -11.81 42.51 -11.81 49.84 -10.32 48.35"/><path class="b" d="M31.09,23.5H0V39.17H31.09ZM1.49,25h28.1V37.68H1.49Z"/><path class="b" d="M62.17,23.5H31.09V39.17H62.17ZM32.58,25h28.1V37.68H32.58Z"/><polygon class="b" points="5.15 32.68 5.15 28.33 19.5 28.33 20.99 26.84 3.66 26.84 3.66 34.17 5.15 32.68"/><polygon class="b" points="36.31 32.68 36.31 28.33 50.66 28.33 52.15 26.84 34.82 26.84 34.82 34.17 36.31 32.68"/><path class="b" d="M77.71,7.83H46.63V23.5H77.71ZM48.12,9.33h28.1V22H48.12Z"/><polygon class="b" points="51.78 17.02 51.78 12.67 66.13 12.67 67.62 11.17 50.29 11.17 50.29 18.51 51.78 17.02"/><path class="b" d="M15.54,7.83H-15.54V23.5H15.54ZM-14,9.33H14V22H-14Z"/><path class="b" d="M46.63,7.83H15.54V23.5H46.63ZM17,9.33h28.1V22H17Z"/><polygon class="b" points="-10.39 17.02 -10.39 12.67 3.96 12.67 5.45 11.17 -11.88 11.17 -11.88 18.51 -10.39 17.02"/><polygon class="b" points="20.77 17.02 20.77 12.67 35.12 12.67 36.61 11.17 19.27 11.17 19.27 18.51 20.77 17.02"/><path class="b" d="M62.17-7.83H31.09V7.83H62.17ZM32.58-6.34h28.1V6.34H32.58Z"/><polygon class="b" points="36.24 1.35 36.24 -3 50.59 -3 52.08 -4.49 34.74 -4.49 34.74 2.84 36.24 1.35"/><path class="b" d="M31.09-7.83H0V7.83H31.09ZM1.49-6.34h28.1V6.34H1.49Z"/><polygon class="b" points="5.22 1.35 5.22 -3 19.57 -3 21.07 -4.49 3.73 -4.49 3.73 2.84 5.22 1.35"/></pattern></defs><title>alley-5</title><rect class="c" width="800" height="800"/><rect class="d" x="0.42" y="546.52" width="800" height="253"/><line class="e" x1="0.42" y1="535.52" x2="800.42" y2="535.52"/><line class="f" x1="400" y1="550.02" x2="400" y2="535.52"/><line class="f" x1="383.25" y1="550" x2="384.47" y2="535.52"/><line class="f" x1="366.49" y1="549.99" x2="368.94" y2="535.52"/><line class="f" x1="349.74" y1="549.97" x2="353.41" y2="535.52"/><line class="f" x1="332.98" y1="549.96" x2="337.88" y2="535.52"/><line class="f" x1="316.23" y1="549.94" x2="322.35" y2="535.52"/><line class="f" x1="299.47" y1="549.92" x2="306.83" y2="535.52"/><line class="f" x1="282.72" y1="549.91" x2="291.3" y2="535.52"/><line class="f" x1="265.96" y1="549.89" x2="275.77" y2="535.52"/><line class="f" x1="249.21" y1="549.88" x2="260.24" y2="535.52"/><line class="f" x1="232.45" y1="549.86" x2="244.71" y2="535.52"/><line class="f" x1="215.7" y1="549.84" x2="229.18" y2="535.52"/><line class="f" x1="198.95" y1="549.83" x2="213.65" y2="535.52"/><line class="f" x1="182.19" y1="549.81" x2="198.12" y2="535.52"/><line class="f" x1="165.44" y1="549.8" x2="182.59" y2="535.52"/><line class="f" x1="148.68" y1="549.78" x2="167.06" y2="535.52"/><line class="f" x1="131.93" y1="549.76" x2="151.54" y2="535.52"/><line class="f" x1="115.17" y1="549.75" x2="136.01" y2="535.52"/><line class="f" x1="98.42" y1="549.73" x2="120.48" y2="535.52"/><line class="f" x1="81.66" y1="549.72" x2="104.95" y2="535.52"/><line class="f" x1="64.91" y1="549.7" x2="89.42" y2="535.52"/><line class="f" x1="48.15" y1="549.68" x2="73.89" y2="535.52"/><line class="f" x1="31.4" y1="549.67" x2="58.36" y2="535.52"/><line class="f" x1="14.65" y1="549.65" x2="42.83" y2="535.52"/><line class="f" x1="-2.11" y1="549.64" x2="27.3" y2="535.52"/><line class="f" x1="-18.86" y1="549.62" x2="11.77" y2="535.52"/><line class="f" x1="400" y1="550.02" x2="400" y2="535.52"/><line class="f" x1="416.75" y1="550" x2="415.53" y2="535.52"/><line class="f" x1="433.51" y1="549.99" x2="431.06" y2="535.52"/><line class="f" x1="450.26" y1="549.97" x2="446.59" y2="535.52"/><line class="f" x1="467.02" y1="549.96" x2="462.12" y2="535.52"/><line class="f" x1="483.77" y1="549.94" x2="477.65" y2="535.52"/><line class="f" x1="500.53" y1="549.92" x2="493.17" y2="535.52"/><line class="f" x1="517.28" y1="549.91" x2="508.7" y2="535.52"/><line class="f" x1="534.04" y1="549.89" x2="524.23" y2="535.52"/><line class="f" x1="550.79" y1="549.88" x2="539.76" y2="535.52"/><line class="f" x1="567.55" y1="549.86" x2="555.29" y2="535.52"/><line class="f" x1="584.3" y1="549.84" x2="570.82" y2="535.52"/><line class="f" x1="601.05" y1="549.83" x2="586.35" y2="535.52"/><line class="f" x1="617.81" y1="549.81" x2="601.88" y2="535.52"/><line class="f" x1="634.56" y1="549.8" x2="617.41" y2="535.52"/><line class="f" x1="651.32" y1="549.78" x2="632.94" y2="535.52"/><line class="f" x1="668.07" y1="549.76" x2="648.47" y2="535.52"/><line class="f" x1="684.83" y1="549.75" x2="663.99" y2="535.52"/><line class="f" x1="701.58" y1="549.73" x2="679.52" y2="535.52"/><line class="f" x1="718.34" y1="549.72" x2="695.05" y2="535.52"/><line class="f" x1="735.09" y1="549.7" x2="710.58" y2="535.52"/><line class="f" x1="751.85" y1="549.68" x2="726.11" y2="535.52"/><line class="f" x1="768.6" y1="549.67" x2="741.64" y2="535.52"/><line class="f" x1="785.35" y1="549.65" x2="757.17" y2="535.52"/><line class="f" x1="802.11" y1="549.64" x2="772.7" y2="535.52"/><line class="f" x1="818.86" y1="549.62" x2="788.23" y2="535.52"/><rect class="b" x="1.42" y="410.52" width="800" height="45"/><rect class="b" x="1.42" y="455.52" width="800" height="20"/><line class="g" x1="1.42" y1="456.02" x2="801.42" y2="456.02"/><line class="g" x1="401" y1="455.64" x2="401" y2="410.13"/><line class="g" x1="520.24" y1="455.74" x2="498.06" y2="410.13"/><line class="g" x1="639.49" y1="455.85" x2="595.11" y2="410.13"/><line class="g" x1="758.73" y1="455.95" x2="692.17" y2="410.13"/><line class="g" x1="877.97" y1="456.05" x2="789.23" y2="410.13"/><line class="g" x1="401" y1="455.64" x2="401" y2="410.13"/><line class="g" x1="281.76" y1="455.74" x2="303.94" y2="410.13"/><line class="g" x1="162.51" y1="455.85" x2="206.89" y2="410.13"/><line class="g" x1="43.27" y1="455.95" x2="109.83" y2="410.13"/><line class="g" x1="-75.97" y1="456.05" x2="12.77" y2="410.13"/><path class="c" d="M489.33,417.52l14.66,30H412.42v-30h77m1.8-3h-81.8v36h99.32l-17.52-36Z"/><path class="c" d="M590.2,417.52l28.87,30H527.45l-14.66-30h77.63m1.08-3H508l17.52,36H626l-34.5-36Z"/><path class="c" d="M689,417.52l43.3,30H643.76l-28.87-30h74.53m.58-3H608l34.5,36h99.29l-51.75-36Z"/><path class="c" d="M788.48,417.52l57.75,30H759.89l-43.3-30h71.83m.8-3h-82l51.75,36h99.31l-69-36Z"/><path class="c" d="M389.42,417.52v30H298.14l14.66-30h76.63m3-3H310.9l-17.52,36h99v-36Z"/><path class="c" d="M289.33,417.52l-14.66,30H183.05l28.87-30h77.5m4.66-3H210.62l-34.5,36H276.56l17.52-36Z"/><path class="c" d="M187.23,417.52l-28.87,30H69.78l43.3-30h74.35m6.74-3h-82l-51.75,36h99.29l34.5-36Z"/><path class="c" d="M85.53,417.52l-43.3,30H-44.11l57.75-30H85.42m9.51-3h-82l-69,36H43.18l51.75-36Z"/><line class="g" x1="44.92" y1="455.52" x2="44.92" y2="475.52"/><line class="g" x1="162.92" y1="456.52" x2="162.92" y2="475.52"/><line class="g" x1="281.92" y1="455.52" x2="281.92" y2="475.52"/><line class="g" x1="400.92" y1="455.52" x2="400.92" y2="475.52"/><line class="g" x1="519.92" y1="455.52" x2="519.92" y2="475.52"/><line class="g" x1="638.92" y1="455.52" x2="638.92" y2="475.52"/><line class="g" x1="757.92" y1="455.52" x2="757.92" y2="475.52"/><path class="c" d="M272.42,462.52v16h-100v-16h100m3-3h-106v22h106v-22Z"/><line class="g" x1="171.25" y1="460.61" x2="171.25" y2="480.08"/><line class="g" x1="179.77" y1="460.61" x2="179.77" y2="480.08"/><line class="g" x1="188.29" y1="460.61" x2="188.29" y2="480.08"/><line class="g" x1="196.81" y1="460.61" x2="196.81" y2="480.08"/><line class="g" x1="205.33" y1="460.61" x2="205.33" y2="480.08"/><line class="g" x1="213.85" y1="460.61" x2="213.85" y2="480.08"/><line class="g" x1="222.38" y1="460.61" x2="222.38" y2="480.08"/><line class="g" x1="230.9" y1="460.61" x2="230.9" y2="480.08"/><line class="g" x1="239.42" y1="460.61" x2="239.42" y2="480.08"/><line class="g" x1="247.94" y1="460.61" x2="247.94" y2="480.08"/><line class="g" x1="256.46" y1="460.61" x2="256.46" y2="480.08"/><line class="g" x1="264.98" y1="460.61" x2="264.98" y2="480.08"/><line class="g" x1="273.5" y1="460.61" x2="273.5" y2="480.08"/><path class="c" d="M628.42,462.52v16h-99v-16h99m3-3h-105v22h105v-22Z"/><line class="g" x1="527.92" y1="460.61" x2="527.92" y2="480.08"/><line class="g" x1="536.44" y1="460.61" x2="536.44" y2="480.08"/><line class="g" x1="544.96" y1="460.61" x2="544.96" y2="480.08"/><line class="g" x1="553.48" y1="460.61" x2="553.48" y2="480.08"/><line class="g" x1="562" y1="460.61" x2="562" y2="480.08"/><line class="g" x1="570.52" y1="460.61" x2="570.52" y2="480.08"/><line class="g" x1="579.04" y1="460.61" x2="579.04" y2="480.08"/><line class="g" x1="587.56" y1="460.61" x2="587.56" y2="480.08"/><line class="g" x1="596.08" y1="460.61" x2="596.08" y2="480.08"/><line class="g" x1="604.6" y1="460.61" x2="604.6" y2="480.08"/><line class="g" x1="613.12" y1="460.61" x2="613.12" y2="480.08"/><line class="g" x1="621.65" y1="460.61" x2="621.65" y2="480.08"/><line class="g" x1="630.17" y1="460.61" x2="630.17" y2="480.08"/><rect class="h" x="0.42" y="-0.48" width="801" height="411"/><rect class="c" x="184.42" y="24.52" width="587" height="283"/><path class="b" d="M774.42,309.52h-592v-288h592Zm-587-5h582v-278h-582Z"/><rect class="c" x="206.42" y="45.52" width="544" height="240"/><path class="b" d="M753.42,288.52h-550v-245h550Zm-545-5h540v-236h-540Z"/><path class="b" d="M198.51,29.94a5.48,5.48,0,0,0-7.57,7.57Z"/><path class="b" d="M192.6,39.17a5.48,5.48,0,0,0,7.57-7.57Z"/><path class="b" d="M225.41,30a5.48,5.48,0,0,0-7.57,7.57Z"/><path class="b" d="M219.51,39.19a5.48,5.48,0,0,0,7.57-7.57Z"/><path class="b" d="M252.32,30a5.48,5.48,0,0,0-7.57,7.57Z"/><path class="b" d="M246.42,39.21A5.48,5.48,0,0,0,254,31.64Z"/><path class="b" d="M279.23,30a5.48,5.48,0,0,0-7.57,7.57Z"/><path class="b" d="M273.33,39.23a5.48,5.48,0,0,0,7.57-7.57Z"/><path class="b" d="M306.14,30a5.48,5.48,0,0,0-7.57,7.57Z"/><path class="b" d="M300.23,39.26a5.48,5.48,0,0,0,7.57-7.57Z"/><path class="b" d="M333.05,30a5.48,5.48,0,0,0-7.57,7.57Z"/><path class="b" d="M327.14,39.28a5.48,5.48,0,0,0,7.57-7.57Z"/><path class="b" d="M360,30.07a5.48,5.48,0,0,0-7.57,7.57Z"/><path class="b" d="M354.05,39.3a5.48,5.48,0,0,0,7.57-7.57Z"/><path class="b" d="M386.87,30.09a5.48,5.48,0,0,0-7.57,7.57Z"/><path class="b" d="M381,39.32a5.48,5.48,0,0,0,7.57-7.57Z"/><path class="b" d="M413.78,30.11a5.48,5.48,0,0,0-7.57,7.57Z"/><path class="b" d="M407.87,39.35a5.48,5.48,0,0,0,7.57-7.57Z"/><path class="b" d="M440.69,30.14a5.48,5.48,0,0,0-7.57,7.57Z"/><path class="b" d="M434.78,39.37a5.48,5.48,0,0,0,7.57-7.57Z"/><path class="b" d="M467.6,30.16A5.48,5.48,0,0,0,460,37.73Z"/><path class="b" d="M461.69,39.39a5.48,5.48,0,0,0,7.57-7.57Z"/><path class="b" d="M494.51,30.18a5.48,5.48,0,0,0-7.57,7.57Z"/><path class="b" d="M488.6,39.41a5.48,5.48,0,0,0,7.57-7.57Z"/><path class="b" d="M521.42,30.2a5.48,5.48,0,0,0-7.57,7.57Z"/><path class="b" d="M515.51,39.43a5.48,5.48,0,0,0,7.57-7.57Z"/><path class="b" d="M548.32,30.23a5.48,5.48,0,0,0-7.57,7.57Z"/><path class="b" d="M542.42,39.46A5.48,5.48,0,0,0,550,31.89Z"/><path class="b" d="M575.23,30.25a5.48,5.48,0,0,0-7.57,7.57Z"/><path class="b" d="M569.33,39.48a5.48,5.48,0,0,0,7.57-7.57Z"/><path class="b" d="M602.14,30.27a5.48,5.48,0,0,0-7.57,7.57Z"/><path class="b" d="M596.24,39.5a5.48,5.48,0,0,0,7.57-7.57Z"/><path class="b" d="M629.05,30.29a5.48,5.48,0,0,0-7.57,7.57Z"/><path class="b" d="M623.14,39.52A5.48,5.48,0,0,0,630.71,32Z"/><path class="b" d="M656,30.31a5.48,5.48,0,0,0-7.57,7.57Z"/><path class="b" d="M650.05,39.54A5.48,5.48,0,0,0,657.62,32Z"/><path class="b" d="M682.87,30.34a5.48,5.48,0,0,0-7.57,7.57Z"/><path class="b" d="M677,39.57A5.48,5.48,0,0,0,684.53,32Z"/><path class="b" d="M709.78,30.36a5.48,5.48,0,0,0-7.57,7.57Z"/><path class="b" d="M703.87,39.59A5.48,5.48,0,0,0,711.44,32Z"/><path class="b" d="M736.69,30.38a5.48,5.48,0,0,0-7.57,7.57Z"/><path class="b" d="M730.78,39.61A5.48,5.48,0,0,0,738.35,32Z"/><path class="b" d="M763.6,30.4A5.48,5.48,0,0,0,756,38Z"/><path class="b" d="M757.69,39.63a5.48,5.48,0,0,0,7.57-7.57Z"/><path class="b" d="M198.78,291a5.48,5.48,0,0,0-7.57,7.57Z"/><path class="b" d="M192.87,300.23a5.48,5.48,0,0,0,7.57-7.57Z"/><path class="b" d="M225.69,291a5.48,5.48,0,0,0-7.57,7.57Z"/><path class="b" d="M219.78,300.25a5.48,5.48,0,0,0,7.57-7.57Z"/><path class="b" d="M252.6,291a5.48,5.48,0,0,0-7.57,7.57Z"/><path class="b" d="M246.69,300.27a5.48,5.48,0,0,0,7.57-7.57Z"/><path class="b" d="M279.51,291.06a5.48,5.48,0,0,0-7.57,7.57Z"/><path class="b" d="M273.6,300.29a5.48,5.48,0,0,0,7.57-7.57Z"/><path class="b" d="M306.42,291.08a5.48,5.48,0,0,0-7.57,7.57Z"/><path class="b" d="M300.51,300.32a5.48,5.48,0,0,0,7.57-7.57Z"/><path class="b" d="M333.33,291.11a5.48,5.48,0,0,0-7.57,7.57Z"/><path class="b" d="M327.42,300.34a5.48,5.48,0,0,0,7.57-7.57Z"/><path class="b" d="M360.23,291.13a5.48,5.48,0,0,0-7.57,7.57Z"/><path class="b" d="M354.33,300.36a5.48,5.48,0,0,0,7.57-7.57Z"/><path class="b" d="M387.14,291.15a5.48,5.48,0,0,0-7.57,7.57Z"/><path class="b" d="M381.23,300.38a5.48,5.48,0,0,0,7.57-7.57Z"/><path class="b" d="M414.05,291.17a5.48,5.48,0,0,0-7.57,7.57Z"/><path class="b" d="M408.14,300.4a5.48,5.48,0,0,0,7.57-7.57Z"/><path class="b" d="M441,291.2a5.48,5.48,0,0,0-7.57,7.57Z"/><path class="b" d="M435.05,300.43a5.48,5.48,0,0,0,7.57-7.57Z"/><path class="b" d="M467.87,291.22a5.48,5.48,0,0,0-7.57,7.57Z"/><path class="b" d="M462,300.45a5.48,5.48,0,0,0,7.57-7.57Z"/><path class="b" d="M494.78,291.24a5.48,5.48,0,0,0-7.57,7.57Z"/><path class="b" d="M488.87,300.47a5.48,5.48,0,0,0,7.57-7.57Z"/><path class="b" d="M521.69,291.26a5.48,5.48,0,0,0-7.57,7.57Z"/><path class="b" d="M515.78,300.49a5.48,5.48,0,0,0,7.57-7.57Z"/><path class="b" d="M548.6,291.28a5.48,5.48,0,0,0-7.57,7.57Z"/><path class="b" d="M542.69,300.51a5.48,5.48,0,0,0,7.57-7.57Z"/><path class="b" d="M575.51,291.31a5.48,5.48,0,0,0-7.57,7.57Z"/><path class="b" d="M569.6,300.54a5.48,5.48,0,0,0,7.57-7.57Z"/><path class="b" d="M602.42,291.33a5.48,5.48,0,0,0-7.57,7.57Z"/><path class="b" d="M596.51,300.56a5.48,5.48,0,0,0,7.57-7.57Z"/><path class="b" d="M629.33,291.35a5.48,5.48,0,0,0-7.57,7.57Z"/><path class="b" d="M623.42,300.58A5.48,5.48,0,0,0,631,293Z"/><path class="b" d="M656.24,291.37a5.48,5.48,0,0,0-7.57,7.57Z"/><path class="b" d="M650.33,300.6A5.48,5.48,0,0,0,657.9,293Z"/><path class="b" d="M683.14,291.39a5.48,5.48,0,0,0-7.57,7.57Z"/><path class="b" d="M677.24,300.63a5.48,5.48,0,0,0,7.57-7.57Z"/><path class="b" d="M710.05,291.42a5.48,5.48,0,0,0-7.57,7.57Z"/><path class="b" d="M704.14,300.65a5.48,5.48,0,0,0,7.57-7.57Z"/><path class="b" d="M737,291.44a5.48,5.48,0,0,0-7.57,7.57Z"/><path class="b" d="M731.05,300.67a5.48,5.48,0,0,0,7.57-7.57Z"/><path class="b" d="M763.87,291.46A5.48,5.48,0,0,0,756.3,299Z"/><path class="b" d="M758,300.69a5.48,5.48,0,0,0,7.57-7.57Z"/><path class="b" d="M195.92,274.85a1.52,1.52,0,0,1-1.5-1.6V56.19a1.5,1.5,0,1,1,3,0V273.25A1.52,1.52,0,0,1,195.92,274.85Z"/><path class="b" d="M760.92,275.79a1.52,1.52,0,0,1-1.5-1.6V57.12a1.5,1.5,0,1,1,3,0V274.18A1.52,1.52,0,0,1,760.92,275.79Z"/><polygon class="b" points="335.6 245.52 334.75 249.38 329.73 258.46 324.02 261.69 312.38 261.34 298.83 260.63 287.24 262.46 273.5 265.81 271.99 258.41 303.42 251.41 303.42 248.29 297.76 245.12 272.84 237.95 266.54 232.67 263.51 223.79 263.99 199.52 267.91 199.52 270.92 203.51 272.92 211.38 277.76 214.74 277.96 220.33 283.11 224.97 306.8 231.53 325.32 237.35 334.48 241.75 335.6 245.52"/><path class="i" d="M620.48,92c-3,1.74-22.66,9.67-32.17,4.91S533.17,78.4,525.09,76.65s-38.35-6.5-46-9.51A34.77,34.77,0,0,0,460,64.77c-6.5.79-21.39,9.83-42.63,18.54s-94.76,19.49-97.93,19.81-16.8-2.22-33.59.63-27.57.47-27.57.47.79-2.06-4.28-3.17-9.67-8.4-11.73-11.89-7.13.16-7.13.16,4.6,28.68,6.5,36.76,10.46,6.65,18.54,7a49.76,49.76,0,0,1,15.05,3.17c-2.38,2.22-27,5.76-27,5.76l1.27,7.82c7.29-3.33,29.74-8,34.17-8.19s11.09,4.91,20.92.79,8.72-14.26,8.72-14.26c4.12-2.85,7.29-4.75,42.78-.63s69.41-9.51,84.94-15.34,22.82-3.36,34.54-1.46,76.38,33.91,113.78,47.22,59.26-28.52,64.65-36.76a121.23,121.23,0,0,1,11.42-14.68c2.23-23.24-38.14-42.68-38.14-42.68s-22.57,15-34.42,19.23-18,5.37-21.29,5.92l-3.34.54"/><path class="i" d="M503.85,121.71S457.53,150,452.67,153.83s-5.28,2.65-8,6.71-37.19,19.7-43.53,22.65-38.66,21.55-58.74,26.62-25.78,11.62-59.58,9.72a4.39,4.39,0,0,1-1.9-2.32l-.63-1.69s-7-1.69-8-5.71a61.13,61.13,0,0,1-1.48-7.82s-1.27-4.44-6.76-3c0,0-1.69,20.07,0,27.89a16.37,16.37,0,0,0,13.73,12.47c4.86.42,25.78,6.34,26.41,9.93s-5.28,5.07-32.12,9.08l1.48,7.39s24.51-7.18,35.5-5.07,17.75,2.32,21.76-3.59,4.86-9.72,5.07-14.37c0,0,7.61-6.34,25.57-11.2s51.34-12.89,62.33-18.59,34.61-21.76,37.91-23.45,85.5-33.38,103.87-40.88"/><path class="j" d="M258.24,104.23s-5.44-1.74-5.23,2.69,1.06,13.73,8.24,15.64,24.09,1.9,30,3.17,10.35,4.44,22,2.43"/><path class="j" d="M335.83,242.78c-6.55-5.71-29.16-11.2-36.55-13.31s-18.17-3.59-20.7-7.82a4,4,0,0,1,1.69-6.13"/><path class="i" d="M555.52,85.47a62.36,62.36,0,0,1-18,51.15L524.78,131s21.93-20.27,15.59-50.09Z"/><path class="k" d="M548.68,83.39s4.5,28.52-17.44,50.43"/><polygon class="b" points="256.56 101.92 253 106.08 253.94 113.82 258.26 121.12 272 124.03 291.25 125.72 304.35 128.8 314.62 127.24 312.7 133.21 306.8 141.08 299.56 143.52 292.94 143.52 285.89 141.74 277.76 142.36 263.24 145.52 249.42 149.79 248.15 141.99 275.19 136.23 265.05 133.56 248.15 132.4 243.93 130.34 241.08 123.71 235.1 89.33 239.49 87.67 243.45 91.17 250.62 99.48 256.56 101.92"/><path class="l" d="M729.06,240.31l-.83.95c-15.37,18.91-26,22.81-24.36,11.7l2-13.47,28.61-33h-9.1L707.78,227l1.18-7.33c1.54-9.69.12-13.89-5.32-13.89-4.61,0-8.75,5.34-11.35,9.35-5.32,7.09-13.48,17.43-20,25.43h0l-.83.84c-15.37,18.91-26,22.76-24.35,11.65l2-13.49,28.61-33h-9.1L651,227l1.18-7.33c1.54-9.69.12-13.89-5.32-13.89-4.61,0-8.75,5.23-11.35,9.25-5.32,7.09-13.47,17.63-20,25.31h0l-.83,1c-15.37,18.91-26,22.82-24.35,11.7l2-13.47,28.61-33h-9.1L594.28,227l1.18-7.33c1.54-9.69.12-13.89-5.32-13.89-4.61,0-8.75,5.23-11.35,9.25-5.32,7.09-13.48,17.63-20,25.31a17.82,17.82,0,0,0,4.61,4.26c6.85-7.8,16.19-20.33,20.69-26.24l-2.72,19.28L556,265.52h8.28l15.16-16.22v.47c-1,10.4.75,17.5,10.68,17.5,9.57,0,19.82-10.88,30-22.7h0s16.23-20.32,20.72-26.23l-2.71,19.28-25.41,27.91H621l15.42-16.22v.47c-1,10.4.62,17.5,10.56,17.5,9.57,0,19.76-10.88,29.92-22.7h0s16.21-20.32,20.7-26.23l-2.72,19.28-25.41,27.91h8.28l15.67-16.22v.47c-2,10.4.5,17.5,10.43,17.5,9.57,0,19.69-10.88,29.86-22.7A10.82,10.82,0,0,0,729.06,240.31Z"/><rect class="c" x="29.42" y="230.52" width="120" height="181"/><path class="b" d="M152.42,409.52h-126v-182h126Zm-120-1h114v-175h-114Z"/><rect class="m" x="41.92" y="243.02" width="95" height="167"/><rect class="n" x="29.42" y="165.52" width="120" height="44"/><polyline class="o" points="66.42 200.02 52.92 200.02 52.92 188 52.92 176.02 66.42 176.02"/><line class="o" x1="60.42" y1="188.02" x2="53.42" y2="188.02"/><line class="o" x1="72.64" y1="176" x2="87.04" y2="200"/><line class="o" x1="87.04" y1="176" x2="72.64" y2="200"/><line class="o" x1="99.92" y1="199.52" x2="99.92" y2="175.52"/><line class="o" x1="93.42" y1="176.02" x2="106.42" y2="176.02"/><line class="o" x1="93.42" y1="200.02" x2="106.42" y2="200.02"/><line class="o" x1="119.92" y1="199.52" x2="119.92" y2="175.52"/><line class="o" x1="113.42" y1="176.02" x2="126.42" y2="176.02"/><line class="p" x1="36.42" y1="188.02" x2="45.42" y2="188.02"/><line class="p" x1="132.42" y1="188.02" x2="141.42" y2="188.02"/><circle class="b" cx="122.59" cy="325.93" r="5.5"/><line class="g" x1="811.42" y1="410.02" x2="-4.58" y2="410.02"/></svg>