<svg xmlns="http://www.w3.org/2000/svg" xmlns:xlink="http://www.w3.org/1999/xlink" viewBox="0 0 800 800"><defs><style>.a,.e,.f,.g,.h,.i,.j,.n{fill:none;}.b{fill:#fff;}.c,.m{fill:#231f20;}.d{fill:url(#a);}.e,.f,.i,.j,.m,.n{stroke:#fff;}.e,.f,.g,.h,.i,.j,.m{stroke-miterlimit:10;}.e{stroke-width:6px;}.f,.n{stroke-width:4px;}.g,.h{stroke:#000;}.g,.i,.m{stroke-width:3px;}.h,.j{stroke-width:2px;}.k{fill:url(#b);}.l{fill:url(#c);}.n{stroke-linecap:round;stroke-linejoin:round;}</style><pattern id="a" width="124.34" height="125.33" patternTransform="translate(106.16 0.25)" patternUnits="userSpaceOnUse" viewBox="0 0 124.34 125.33"><rect class="a" width="124.34" height="125.33"/><path class="b" d="M124.34,109.67H62.17V141h62.17Zm-59.19,3h56.2V138H65.15Z"/><polygon class="b" points="72.47 128.03 72.47 119.33 101.17 119.33 104.15 116.35 69.49 116.35 69.49 131.02 72.47 128.03"/><path class="b" d="M62.17,109.67H0V141H62.17ZM3,112.65h56.2V138H3Z"/><polygon class="b" points="10.45 128.03 10.45 119.33 39.15 119.33 42.13 116.35 7.46 116.35 7.46 131.02 10.45 128.03"/><path class="b" d="M93.25,78.33H31.08v31.33H93.25Zm-59.19,3h56.2v25.36H34.07Z"/><path class="b" d="M155.42,78.33H93.25v31.33h62.17Zm-59.19,3h56.2v25.36H96.24Z"/><polygon class="b" points="41.39 96.7 41.39 88 70.08 88 73.07 85.02 38.4 85.02 38.4 99.68 41.39 96.7"/><polygon class="b" points="103.7 96.7 103.7 88 132.4 88 135.39 85.02 100.72 85.02 100.72 99.68 103.7 96.7"/><path class="b" d="M31.08,78.33H-31.08v31.33H31.08Zm-59.19,3H28.1v25.36H-28.1Z"/><polygon class="b" points="-20.64 96.7 -20.64 88 8.06 88 11.05 85.02 -23.62 85.02 -23.62 99.68 -20.64 96.7"/><path class="b" d="M62.17,47H0V78.33H62.17ZM3,50h56.2V75.35H3Z"/><path class="b" d="M124.34,47H62.17V78.33h62.17ZM65.15,50h56.2V75.35H65.15Z"/><polygon class="b" points="10.3 65.36 10.3 56.67 39 56.67 41.98 53.68 7.32 53.68 7.32 68.35 10.3 65.36"/><polygon class="b" points="72.62 65.36 72.62 56.67 101.32 56.67 104.3 53.68 69.64 53.68 69.64 68.35 72.62 65.36"/><path class="b" d="M155.42,15.67H93.25V47h62.17Zm-59.19,3h56.2V44H96.24Z"/><polygon class="b" points="103.56 34.03 103.56 25.33 132.25 25.33 135.24 22.35 100.57 22.35 100.57 37.02 103.56 34.03"/><path class="b" d="M31.08,15.67H-31.08V47H31.08Zm-59.19,3H28.1V44H-28.1Z"/><path class="b" d="M93.25,15.67H31.08V47H93.25Zm-59.19,3h56.2V44H34.07Z"/><polygon class="b" points="-20.78 34.03 -20.78 25.33 7.92 25.33 10.9 22.35 -23.77 22.35 -23.77 37.02 -20.78 34.03"/><polygon class="b" points="41.53 34.03 41.53 25.33 70.23 25.33 73.22 22.35 38.55 22.35 38.55 37.02 41.53 34.03"/><path class="b" d="M124.34-15.67H62.17V15.67h62.17Zm-59.19,3h56.2V12.68H65.15Z"/><polygon class="b" points="72.47 2.7 72.47 -6 101.17 -6 104.15 -8.98 69.49 -8.98 69.49 5.68 72.47 2.7"/><path class="b" d="M62.17-15.67H0V15.67H62.17ZM3-12.68h56.2V12.68H3Z"/><polygon class="b" points="10.45 2.7 10.45 -6 39.15 -6 42.13 -8.98 7.46 -8.98 7.46 5.68 10.45 2.7"/></pattern><pattern id="b" width="62.17" height="62.67" patternTransform="translate(1 -51.38) scale(1 1.01)" patternUnits="userSpaceOnUse" viewBox="0 0 62.17 62.67"><rect class="a" width="62.17" height="62.67"/><path class="b" d="M62.17,54.83H31.09V70.5H62.17ZM32.58,56.33h28.1V69H32.58Z"/><polygon class="b" points="36.24 64.02 36.24 59.67 50.59 59.67 52.08 58.17 34.74 58.17 34.74 65.51 36.24 64.02"/><path class="b" d="M31.09,54.83H0V70.5H31.09ZM1.49,56.33h28.1V69H1.49Z"/><polygon class="b" points="5.22 64.02 5.22 59.67 19.57 59.67 21.07 58.17 3.73 58.17 3.73 65.51 5.22 64.02"/><path class="b" d="M46.63,39.17H15.54V54.83H46.63ZM17,40.66h28.1V53.34H17Z"/><path class="b" d="M77.71,39.17H46.63V54.83H77.71ZM48.12,40.66h28.1V53.34H48.12Z"/><polygon class="b" points="20.69 48.35 20.69 44 35.04 44 36.53 42.51 19.2 42.51 19.2 49.84 20.69 48.35"/><polygon class="b" points="51.85 48.35 51.85 44 66.2 44 67.69 42.51 50.36 42.51 50.36 49.84 51.85 48.35"/><path class="b" d="M15.54,39.17H-15.54V54.83H15.54ZM-14,40.66H14V53.34H-14Z"/><polygon class="b" points="-10.32 48.35 -10.32 44 4.03 44 5.52 42.51 -11.81 42.51 -11.81 49.84 -10.32 48.35"/><path class="b" d="M31.09,23.5H0V39.17H31.09ZM1.49,25h28.1V37.68H1.49Z"/><path class="b" d="M62.17,23.5H31.09V39.17H62.17ZM32.58,25h28.1V37.68H32.58Z"/><polygon class="b" points="5.15 32.68 5.15 28.33 19.5 28.33 20.99 26.84 3.66 26.84 3.66 34.17 5.15 32.68"/><polygon class="b" points="36.31 32.68 36.31 28.33 50.66 28.33 52.15 26.84 34.82 26.84 34.82 34.17 36.31 32.68"/><path class="b" d="M77.71,7.83H46.63V23.5H77.71ZM48.12,9.33h28.1V22H48.12Z"/><polygon class="b" points="51.78 17.02 51.78 12.67 66.13 12.67 67.62 11.17 50.29 11.17 50.29 18.51 51.78 17.02"/><path class="b" d="M15.54,7.83H-15.54V23.5H15.54ZM-14,9.33H14V22H-14Z"/><path class="b" d="M46.63,7.83H15.54V23.5H46.63ZM17,9.33h28.1V22H17Z"/><polygon class="b" points="-10.39 17.02 -10.39 12.67 3.96 12.67 5.45 11.17 -11.88 11.17 -11.88 18.51 -10.39 17.02"/><polygon class="b" points="20.77 17.02 20.77 12.67 35.12 12.67 36.61 11.17 19.27 11.17 19.27 18.51 20.77 17.02"/><path class="b" d="M62.17-7.83H31.09V7.83H62.17ZM32.58-6.34h28.1V6.34H32.58Z"/><polygon class="b" points="36.24 1.35 36.24 -3 50.59 -3 52.08 -4.49 34.74 -4.49 34.74 2.84 36.24 1.35"/><path class="b" d="M31.09-7.83H0V7.83H31.09ZM1.49-6.34h28.1V6.34H1.49Z"/><polygon class="b" points="5.22 1.35 5.22 -3 19.57 -3 21.07 -4.49 3.73 -4.49 3.73 2.84 5.22 1.35"/></pattern><pattern id="c" width="62.17" height="62.67" patternTransform="translate(1 -99.41) scale(1 1.01)" patternUnits="userSpaceOnUse" viewBox="0 0 62.17 62.67"><rect class="a" width="62.17" height="62.67"/><path class="b" d="M62.17,54.83H31.09V70.5H62.17ZM32.58,56.33h28.1V69H32.58Z"/><polygon class="b" points="36.24 64.02 36.24 59.67 50.59 59.67 52.08 58.17 34.74 58.17 34.74 65.51 36.24 64.02"/><path class="b" d="M31.09,54.83H0V70.5H31.09ZM1.49,56.33h28.1V69H1.49Z"/><polygon class="b" points="5.22 64.02 5.22 59.67 19.57 59.67 21.07 58.17 3.73 58.17 3.73 65.51 5.22 64.02"/><path class="b" d="M46.63,39.17H15.54V54.83H46.63ZM17,40.66h28.1V53.34H17Z"/><path class="b" d="M77.71,39.17H46.63V54.83H77.71ZM48.12,40.66h28.1V53.34H48.12Z"/><polygon class="b" points="20.69 48.35 20.69 44 35.04 44 36.53 42.51 19.2 42.51 19.2 49.84 20.69 48.35"/><polygon class="b" points="51.85 48.35 51.85 44 66.2 44 67.69 42.51 50.36 42.51 50.36 49.84 51.85 48.35"/><path class="b" d="M15.54,39.17H-15.54V54.83H15.54ZM-14,40.66H14V53.34H-14Z"/><polygon class="b" points="-10.32 48.35 -10.32 44 4.03 44 5.52 42.51 -11.81 42.51 -11.81 49.84 -10.32 48.35"/><path class="b" d="M31.09,23.5H0V39.17H31.09ZM1.49,25h28.1V37.68H1.49Z"/><path class="b" d="M62.17,23.5H31.09V39.17H62.17ZM32.58,25h28.1V37.68H32.58Z"/><polygon class="b" points="5.15 32.68 5.15 28.33 19.5 28.33 20.99 26.84 3.66 26.84 3.66 34.17 5.15 32.68"/><polygon class="b" points="36.31 32.68 36.31 28.33 50.66 28.33 52.15 26.84 34.82 26.84 34.82 34.17 36.31 32.68"/><path class="b" d="M77.71,7.83H46.63V23.5H77.71ZM48.12,9.33h28.1V22H48.12Z"/><polygon class="b" points="51.78 17.02 51.78 12.67 66.13 12.67 67.62 11.17 50.29 11.17 50.29 18.51 51.78 17.02"/><path class="b" d="M15.54,7.83H-15.54V23.5H15.54ZM-14,9.33H14V22H-14Z"/><path class="b" d="M46.63,7.83H15.54V23.5H46.63ZM17,9.33h28.1V22H17Z"/><polygon class="b" points="-10.39 17.02 -10.39 12.67 3.96 12.67 5.45 11.17 -11.88 11.17 -11.88 18.51 -10.39 17.02"/><polygon class="b" points="20.77 17.02 20.77 12.67 35.12 12.67 36.61 11.17 19.27 11.17 19.27 18.51 20.77 17.02"/><path class="b" d="M62.17-7.83H31.09V7.83H62.17ZM32.58-6.34h28.1V6.34H32.58Z"/><polygon class="b" points="36.24 1.35 36.24 -3 50.59 -3 52.08 -4.49 34.74 -4.49 34.74 2.84 36.24 1.35"/><path class="b" d="M31.09-7.83H0V7.83H31.09ZM1.49-6.34h28.1V6.34H1.49Z"/><polygon class="b" points="5.22 1.35 5.22 -3 19.57 -3 21.07 -4.49 3.73 -4.49 3.73 2.84 5.22 1.35"/></pattern></defs><title>alley-2</title><rect class="c" width="800" height="801.22"/><rect class="b" x="151.46" y="114.52" width="234" height="261"/><path class="c" d="M382.46,117.52v255h-228v-255h228m6-6h-240v267h240v-267Z"/><rect class="d" x="0.46" y="546.52" width="800" height="253"/><line class="e" x1="0.46" y1="535.52" x2="800.46" y2="535.52"/><line class="f" x1="400" y1="550.27" x2="400" y2="535.77"/><line class="f" x1="383.25" y1="550.25" x2="384.47" y2="535.77"/><line class="f" x1="366.49" y1="550.24" x2="368.94" y2="535.77"/><line class="f" x1="349.74" y1="550.22" x2="353.41" y2="535.77"/><line class="f" x1="332.98" y1="550.21" x2="337.88" y2="535.77"/><line class="f" x1="316.23" y1="550.19" x2="322.35" y2="535.77"/><line class="f" x1="299.47" y1="550.17" x2="306.83" y2="535.77"/><line class="f" x1="282.72" y1="550.16" x2="291.3" y2="535.77"/><line class="f" x1="265.96" y1="550.14" x2="275.77" y2="535.77"/><line class="f" x1="249.21" y1="550.13" x2="260.24" y2="535.77"/><line class="f" x1="232.45" y1="550.11" x2="244.71" y2="535.77"/><line class="f" x1="215.7" y1="550.09" x2="229.18" y2="535.77"/><line class="f" x1="198.95" y1="550.08" x2="213.65" y2="535.77"/><line class="f" x1="182.19" y1="550.06" x2="198.12" y2="535.77"/><line class="f" x1="165.44" y1="550.05" x2="182.59" y2="535.77"/><line class="f" x1="148.68" y1="550.03" x2="167.06" y2="535.77"/><line class="f" x1="131.93" y1="550.02" x2="151.53" y2="535.77"/><line class="f" x1="115.17" y1="550" x2="136.01" y2="535.77"/><line class="f" x1="98.42" y1="549.98" x2="120.48" y2="535.77"/><line class="f" x1="81.66" y1="549.97" x2="104.95" y2="535.77"/><line class="f" x1="64.91" y1="549.95" x2="89.42" y2="535.77"/><line class="f" x1="48.15" y1="549.94" x2="73.89" y2="535.77"/><line class="f" x1="31.4" y1="549.92" x2="58.36" y2="535.77"/><line class="f" x1="14.65" y1="549.9" x2="42.83" y2="535.77"/><line class="f" x1="-2.11" y1="549.89" x2="27.3" y2="535.77"/><line class="f" x1="-18.86" y1="549.87" x2="11.77" y2="535.77"/><line class="f" x1="400" y1="550.27" x2="400" y2="535.77"/><line class="f" x1="416.75" y1="550.25" x2="415.53" y2="535.77"/><line class="f" x1="433.51" y1="550.24" x2="431.06" y2="535.77"/><line class="f" x1="450.26" y1="550.22" x2="446.59" y2="535.77"/><line class="f" x1="467.02" y1="550.21" x2="462.12" y2="535.77"/><line class="f" x1="483.77" y1="550.19" x2="477.65" y2="535.77"/><line class="f" x1="500.53" y1="550.17" x2="493.17" y2="535.77"/><line class="f" x1="517.28" y1="550.16" x2="508.7" y2="535.77"/><line class="f" x1="534.04" y1="550.14" x2="524.23" y2="535.77"/><line class="f" x1="550.79" y1="550.13" x2="539.76" y2="535.77"/><line class="f" x1="567.55" y1="550.11" x2="555.29" y2="535.77"/><line class="f" x1="584.3" y1="550.09" x2="570.82" y2="535.77"/><line class="f" x1="601.05" y1="550.08" x2="586.35" y2="535.77"/><line class="f" x1="617.81" y1="550.06" x2="601.88" y2="535.77"/><line class="f" x1="634.56" y1="550.05" x2="617.41" y2="535.77"/><line class="f" x1="651.32" y1="550.03" x2="632.94" y2="535.77"/><line class="f" x1="668.07" y1="550.02" x2="648.46" y2="535.77"/><line class="f" x1="684.83" y1="550" x2="663.99" y2="535.77"/><line class="f" x1="701.58" y1="549.98" x2="679.52" y2="535.77"/><line class="f" x1="718.34" y1="549.97" x2="695.05" y2="535.77"/><line class="f" x1="735.09" y1="549.95" x2="710.58" y2="535.77"/><line class="f" x1="751.85" y1="549.94" x2="726.11" y2="535.77"/><line class="f" x1="768.6" y1="549.92" x2="741.64" y2="535.77"/><line class="f" x1="785.35" y1="549.9" x2="757.17" y2="535.77"/><line class="f" x1="802.11" y1="549.89" x2="772.7" y2="535.77"/><line class="f" x1="818.86" y1="549.87" x2="788.23" y2="535.77"/><rect class="b" x="0.46" y="376.52" width="800" height="46"/><rect class="b" x="0.46" y="422.52" width="800" height="19"/><line class="g" x1="0.46" y1="422.02" x2="800.46" y2="422.02"/><line class="g" x1="400" y1="422.03" x2="400" y2="376.52"/><line class="g" x1="519.24" y1="422.14" x2="497.06" y2="376.52"/><line class="g" x1="638.49" y1="422.24" x2="594.11" y2="376.52"/><line class="g" x1="757.73" y1="422.35" x2="691.17" y2="376.52"/><line class="g" x1="876.97" y1="422.45" x2="788.23" y2="376.52"/><line class="g" x1="400" y1="422.03" x2="400" y2="376.52"/><line class="g" x1="280.76" y1="422.14" x2="302.94" y2="376.52"/><line class="g" x1="161.51" y1="422.24" x2="205.89" y2="376.52"/><line class="g" x1="42.27" y1="422.35" x2="108.83" y2="376.52"/><line class="g" x1="-76.97" y1="422.45" x2="11.77" y2="376.52"/><path class="c" d="M488.33,383.52l14.66,31H411.46v-31h77m1.76-3H408.46v37h99.28l-17.52-37Z"/><path class="c" d="M589.2,383.52l28.87,31H526.45l-14.66-31h77.67m1-3H507l17.52,37H625l-34.5-37Z"/><path class="c" d="M688,383.52l43.3,31H642.76l-28.87-31h74.57m.54-3H607l34.5,37h99.29l-51.75-37Z"/><path class="c" d="M787.48,383.52l57.75,31H758.89l-43.3-31h71.87m.77-3h-82l51.75,37h99.31l-69-37Z"/><path class="c" d="M388.46,383.52v31H297.14l14.66-31h76.67m3-3H309.9l-17.52,37h99.08v-37Z"/><path class="c" d="M288.33,383.52l-14.66,31H182.05l28.87-31h77.54m4.62-3H209.62l-34.5,37H275.56l17.52-37Z"/><path class="c" d="M186.23,383.52l-28.87,31H68.78l43.3-31h74.38m6.7-3h-82l-51.75,37h99.29l34.5-37Z"/><path class="c" d="M84.53,383.52l-43.3,31H-45.11l57.75-31H84.46m9.47-3h-82l-69,37H42.18l51.75-37Z"/><line class="g" x1="43.96" y1="421.52" x2="43.96" y2="441.52"/><line class="g" x1="161.96" y1="422.52" x2="161.96" y2="441.52"/><line class="g" x1="280.96" y1="422.52" x2="280.96" y2="441.52"/><line class="g" x1="399.96" y1="422.52" x2="399.96" y2="442.52"/><line class="g" x1="518.96" y1="422.52" x2="518.96" y2="441.52"/><line class="g" x1="637.96" y1="422.52" x2="637.96" y2="441.52"/><line class="g" x1="756.96" y1="422.52" x2="756.96" y2="442.52"/><path class="c" d="M271.46,428.52v16h-100v-16h100m3-3h-106v22h106v-22Z"/><line class="g" x1="170.25" y1="427" x2="170.25" y2="446.48"/><line class="g" x1="178.77" y1="427" x2="178.77" y2="446.48"/><line class="g" x1="187.29" y1="427" x2="187.29" y2="446.48"/><line class="g" x1="195.81" y1="427" x2="195.81" y2="446.48"/><line class="g" x1="204.33" y1="427" x2="204.33" y2="446.48"/><line class="g" x1="212.85" y1="427" x2="212.85" y2="446.48"/><line class="g" x1="221.38" y1="427" x2="221.38" y2="446.48"/><line class="g" x1="229.9" y1="427" x2="229.9" y2="446.48"/><line class="g" x1="238.42" y1="427" x2="238.42" y2="446.48"/><line class="g" x1="246.94" y1="427" x2="246.94" y2="446.48"/><line class="g" x1="255.46" y1="427" x2="255.46" y2="446.48"/><line class="g" x1="263.98" y1="427" x2="263.98" y2="446.48"/><line class="g" x1="272.5" y1="427" x2="272.5" y2="446.48"/><path class="c" d="M627.46,428.52v14h-99v-14h99m3-3h-105v20h105v-20Z"/><line class="g" x1="526.92" y1="427" x2="526.92" y2="446.48"/><line class="g" x1="535.44" y1="427" x2="535.44" y2="446.48"/><line class="g" x1="543.96" y1="427" x2="543.96" y2="446.48"/><line class="g" x1="552.48" y1="427" x2="552.48" y2="446.48"/><line class="g" x1="561" y1="427" x2="561" y2="446.48"/><line class="g" x1="569.52" y1="427" x2="569.52" y2="446.48"/><line class="g" x1="578.04" y1="427" x2="578.04" y2="446.48"/><line class="g" x1="586.56" y1="427" x2="586.56" y2="446.48"/><line class="g" x1="595.08" y1="427" x2="595.08" y2="446.48"/><line class="g" x1="603.6" y1="427" x2="603.6" y2="446.48"/><line class="g" x1="612.12" y1="427" x2="612.12" y2="446.48"/><line class="g" x1="620.65" y1="427" x2="620.65" y2="446.48"/><line class="g" x1="629.17" y1="427" x2="629.17" y2="446.48"/><line class="g" x1="800.46" y1="377.02" x2="-5.54" y2="377.02"/><polygon class="c" points="62.41 80.52 205.4 -20.64 602.82 -15.75 737.76 80.52 62.41 80.52"/><path class="b" d="M206.34-17.63l395.5,4.87L728.4,77.52H71.84l134.5-95.15m-1.88-6L53,83.52H747.13L603.79-18.73,204.46-23.65Z"/><line class="h" x1="53.46" y1="83.52" x2="747.46" y2="83.52"/><line class="i" x1="211.4" y1="-23.48" x2="64.73" y2="80.52"/><line class="i" x1="232.36" y1="-23.21" x2="101.99" y2="80.52"/><line class="i" x1="253.32" y1="-22.94" x2="139.25" y2="80.52"/><line class="i" x1="274.29" y1="-22.66" x2="176.51" y2="80.52"/><line class="i" x1="295.25" y1="-22.39" x2="213.77" y2="80.52"/><line class="i" x1="316.21" y1="-22.12" x2="251.02" y2="80.52"/><line class="i" x1="337.17" y1="-21.85" x2="288.28" y2="80.52"/><line class="i" x1="358.14" y1="-21.58" x2="325.54" y2="80.52"/><line class="i" x1="379.1" y1="-21.3" x2="362.8" y2="80.52"/><line class="i" x1="400.06" y1="-21.03" x2="400.06" y2="80.52"/><line class="i" x1="588.72" y1="-23.48" x2="735.39" y2="80.52"/><line class="i" x1="567.76" y1="-23.21" x2="698.13" y2="80.52"/><line class="i" x1="546.8" y1="-22.94" x2="660.87" y2="80.52"/><line class="i" x1="525.84" y1="-22.66" x2="623.61" y2="80.52"/><line class="i" x1="504.87" y1="-22.39" x2="586.36" y2="80.52"/><line class="i" x1="483.91" y1="-22.12" x2="549.1" y2="80.52"/><line class="i" x1="462.95" y1="-21.85" x2="511.84" y2="80.52"/><line class="i" x1="441.99" y1="-21.58" x2="474.58" y2="80.52"/><line class="i" x1="421.02" y1="-21.3" x2="437.32" y2="80.52"/><line class="i" x1="400.06" y1="-21.03" x2="400.06" y2="80.52"/><line class="g" x1="150.44" y1="120.93" x2="386.31" y2="120.93"/><line class="g" x1="150.45" y1="126.09" x2="386.32" y2="126.09"/><line class="g" x1="150.45" y1="131.24" x2="386.32" y2="131.24"/><line class="g" x1="150.45" y1="136.39" x2="386.32" y2="136.39"/><line class="g" x1="150.46" y1="141.55" x2="386.33" y2="141.55"/><line class="g" x1="150.46" y1="146.7" x2="386.33" y2="146.7"/><line class="g" x1="150.46" y1="151.86" x2="386.33" y2="151.86"/><line class="g" x1="150.47" y1="157.01" x2="386.34" y2="157.01"/><line class="g" x1="150.47" y1="162.16" x2="386.34" y2="162.16"/><line class="g" x1="150.47" y1="167.32" x2="386.34" y2="167.32"/><line class="g" x1="150.48" y1="172.47" x2="386.35" y2="172.47"/><line class="g" x1="150.48" y1="177.63" x2="386.35" y2="177.63"/><line class="g" x1="150.48" y1="182.78" x2="386.35" y2="182.78"/><line class="g" x1="150.49" y1="187.93" x2="386.36" y2="187.93"/><line class="g" x1="150.49" y1="193.09" x2="386.36" y2="193.09"/><line class="g" x1="150.5" y1="198.24" x2="386.36" y2="198.24"/><line class="g" x1="150.5" y1="203.4" x2="386.37" y2="203.4"/><line class="g" x1="150.5" y1="208.55" x2="386.37" y2="208.55"/><line class="g" x1="150.51" y1="213.7" x2="386.37" y2="213.7"/><line class="g" x1="150.51" y1="218.86" x2="386.38" y2="218.86"/><line class="g" x1="150.51" y1="224.01" x2="386.38" y2="224.01"/><line class="g" x1="150.52" y1="229.16" x2="386.39" y2="229.16"/><line class="g" x1="150.52" y1="234.32" x2="386.39" y2="234.32"/><line class="g" x1="150.52" y1="239.47" x2="386.39" y2="239.47"/><line class="g" x1="150.53" y1="244.63" x2="386.4" y2="244.63"/><line class="g" x1="150.53" y1="249.78" x2="386.4" y2="249.78"/><line class="g" x1="150.53" y1="254.93" x2="386.4" y2="254.93"/><line class="g" x1="150.54" y1="260.09" x2="386.41" y2="260.09"/><line class="g" x1="150.54" y1="265.24" x2="386.41" y2="265.24"/><line class="g" x1="150.54" y1="270.4" x2="386.41" y2="270.4"/><line class="g" x1="150.55" y1="275.55" x2="386.42" y2="275.55"/><line class="g" x1="150.55" y1="280.7" x2="386.42" y2="280.7"/><line class="g" x1="150.55" y1="285.86" x2="386.42" y2="285.86"/><line class="g" x1="150.56" y1="291.01" x2="386.43" y2="291.01"/><line class="g" x1="150.56" y1="296.16" x2="386.43" y2="296.16"/><line class="g" x1="150.56" y1="301.32" x2="386.43" y2="301.32"/><line class="g" x1="150.57" y1="306.47" x2="386.44" y2="306.47"/><line class="g" x1="150.57" y1="311.63" x2="386.44" y2="311.63"/><line class="g" x1="150.57" y1="316.78" x2="386.44" y2="316.78"/><line class="g" x1="150.58" y1="321.93" x2="386.45" y2="321.93"/><line class="g" x1="150.58" y1="327.09" x2="386.45" y2="327.09"/><line class="g" x1="150.59" y1="332.24" x2="386.45" y2="332.24"/><line class="g" x1="150.59" y1="337.4" x2="386.46" y2="337.4"/><line class="g" x1="150.59" y1="342.55" x2="386.46" y2="342.55"/><line class="g" x1="150.6" y1="347.7" x2="386.46" y2="347.7"/><line class="g" x1="150.6" y1="352.86" x2="386.47" y2="352.86"/><line class="g" x1="150.6" y1="358.01" x2="386.47" y2="358.01"/><line class="g" x1="150.61" y1="363.16" x2="386.48" y2="363.16"/><line class="g" x1="150.61" y1="368.32" x2="386.48" y2="368.32"/><line class="j" x1="154.46" y1="117.52" x2="154.46" y2="372.52"/><line class="j" x1="382.46" y1="117.52" x2="382.46" y2="372.52"/><rect class="j" x="150.46" y="113.52" width="236" height="262"/><path class="b" d="M85.46,112.52v264h-4v-264h4m6-3h-16v267h16v-267Z"/><line class="i" x1="89.46" y1="114.02" x2="106.46" y2="114.02"/><rect class="k" x="89.46" y="109.52" width="61" height="267"/><path class="b" d="M713.46,112.52h4v264h-4v-264m-6-3v267h16v-267Z"/><rect class="l" x="386.46" y="106.52" width="323" height="270"/><rect class="c" x="56.46" y="87.52" width="688" height="26"/><path class="b" d="M741.46,90.52v20h-682v-20h682m6-6h-694v32h694v-32Z"/><line class="i" x1="697.96" y1="88.52" x2="697.96" y2="112.52"/><line class="i" x1="661.96" y1="88.52" x2="661.96" y2="112.52"/><line class="i" x1="622.96" y1="88.52" x2="622.96" y2="112.52"/><line class="i" x1="585.96" y1="88.52" x2="585.96" y2="112.52"/><line class="i" x1="548.96" y1="88.52" x2="548.96" y2="112.52"/><line class="i" x1="511.96" y1="88.52" x2="511.96" y2="112.52"/><line class="i" x1="474.96" y1="88.52" x2="474.96" y2="112.52"/><line class="i" x1="437.96" y1="88.52" x2="437.96" y2="112.52"/><line class="i" x1="399.96" y1="88.52" x2="399.96" y2="112.52"/><line class="i" x1="101.96" y1="88.52" x2="101.96" y2="112.52"/><line class="i" x1="137.96" y1="88.52" x2="137.96" y2="112.52"/><line class="i" x1="176.96" y1="88.52" x2="176.96" y2="112.52"/><line class="i" x1="213.96" y1="88.52" x2="213.96" y2="112.52"/><line class="i" x1="250.96" y1="88.52" x2="250.96" y2="112.52"/><line class="i" x1="287.96" y1="88.52" x2="287.96" y2="112.52"/><line class="i" x1="324.96" y1="88.52" x2="324.96" y2="112.52"/><line class="i" x1="361.96" y1="88.52" x2="361.96" y2="112.52"/><rect class="m" x="422.96" y="130.02" width="264" height="158"/><rect class="m" x="422.96" y="288.02" width="264" height="16"/><line class="j" x1="423.46" y1="293.52" x2="687.46" y2="293.52"/><line class="j" x1="423.46" y1="298.52" x2="687.46" y2="298.52"/><path class="b" d="M493.21,272.69a2.92,2.92,0,0,1-2.06-5L613.67,145.19a2.92,2.92,0,1,1,4.13,4.13L495.28,271.83A2.9,2.9,0,0,1,493.21,272.69Z"/><path class="b" d="M551.55,272a2.92,2.92,0,0,1-2.06-5L672,144.54a2.92,2.92,0,0,1,4.13,4.13L553.62,271.18A2.91,2.91,0,0,1,551.55,272Z"/><path class="b" d="M435.68,272a2.92,2.92,0,0,1-2.06-5L556.14,144.54a2.92,2.92,0,0,1,4.13,4.13L437.75,271.18A2.91,2.91,0,0,1,435.68,272Z"/><path class="b" d="M491.33,243.94a1.46,1.46,0,0,1-1-2.49l66.87-66.87a1.46,1.46,0,0,1,2.06,2.06l-66.87,66.87A1.45,1.45,0,0,1,491.33,243.94Z"/><path class="b" d="M549.67,243.94a1.46,1.46,0,0,1-1-2.49l66.87-66.87a1.46,1.46,0,1,1,2.06,2.06L550.7,243.51A1.45,1.45,0,0,1,549.67,243.94Z"/><path class="b" d="M608,243.94a1.46,1.46,0,0,1-1-2.49l66.87-66.87a1.46,1.46,0,0,1,2.06,2.06L609,243.51A1.45,1.45,0,0,1,608,243.94Z"/><path class="b" d="M434.93,241.94a1.46,1.46,0,0,1-1-2.49l66.87-66.87a1.46,1.46,0,0,1,2.06,2.06L436,241.51A1.46,1.46,0,0,1,434.93,241.94Z"/><path class="b" d="M608,271.23a1.46,1.46,0,0,1-1-2.49l66.87-66.87a1.46,1.46,0,1,1,2.06,2.06L609,270.8A1.46,1.46,0,0,1,608,271.23Z"/><path class="b" d="M434.93,214.93a1.46,1.46,0,0,1-1-2.49l66.87-66.87a1.46,1.46,0,0,1,2.06,2.06L436,214.5A1.46,1.46,0,0,1,434.93,214.93Z"/><rect class="c" x="454.46" y="133.52" width="5" height="148"/><rect class="c" x="494.46" y="133.52" width="5" height="148"/><rect class="c" x="534.46" y="133.52" width="5" height="148"/><rect class="c" x="574.46" y="133.52" width="5" height="148"/><rect class="c" x="614.46" y="133.52" width="5" height="148"/><rect class="c" x="654.46" y="133.52" width="5" height="148"/><rect class="c" x="448.46" y="134.52" width="5" height="149"/><rect class="c" x="488.46" y="134.52" width="5" height="149"/><rect class="c" x="528.46" y="134.52" width="5" height="149"/><rect class="c" x="568.46" y="134.52" width="5" height="149"/><rect class="c" x="608.46" y="134.52" width="5" height="149"/><rect class="c" x="648.46" y="134.52" width="5" height="149"/><rect class="b" x="452.46" y="129.52" width="5" height="159"/><rect class="b" x="492.46" y="129.52" width="5" height="159"/><rect class="b" x="532.46" y="129.52" width="5" height="159"/><rect class="b" x="572.46" y="129.52" width="5" height="159"/><rect class="b" x="612.46" y="129.52" width="5" height="159"/><rect class="b" x="652.46" y="129.52" width="5" height="159"/><rect class="c" x="426.46" y="162.52" width="258" height="5"/><rect class="c" x="426.46" y="202.52" width="258" height="5"/><rect class="c" x="426.46" y="242.52" width="258" height="5"/><rect class="c" x="426.46" y="168.52" width="258" height="5"/><rect class="c" x="426.46" y="208.52" width="258" height="5"/><rect class="c" x="426.46" y="248.52" width="258" height="5"/><rect class="b" x="423.46" y="165.52" width="264" height="5"/><rect class="b" x="423.46" y="205.52" width="264" height="5"/><rect class="b" x="423.46" y="245.52" width="264" height="5"/><rect class="m" x="422.96" y="320.02" width="265" height="48"/><circle class="b" cx="679.29" cy="329.1" r="4"/><line class="h" x1="675.29" y1="333.1" x2="683.29" y2="325.1"/><circle class="b" cx="679.29" cy="359.27" r="4"/><line class="h" x1="675.29" y1="363.27" x2="683.29" y2="355.27"/><circle class="b" cx="431.96" cy="329.1" r="4"/><line class="h" x1="427.96" y1="333.1" x2="435.96" y2="325.1"/><circle class="b" cx="431.96" cy="359.27" r="4"/><line class="h" x1="427.96" y1="363.27" x2="435.96" y2="355.27"/><polyline class="n" points="559.46 327.52 559.46 357.52 585.46 357.52"/><polyline class="n" points="456.46 327.52 456.46 357.52 482.46 357.52"/><polyline class="n" points="490.46 357.52 503.52 357.52 516.46 357.52"/><line class="n" x1="503.46" y1="327.52" x2="503.46" y2="357.52"/><line class="n" x1="490.46" y1="327.52" x2="516.46" y2="327.52"/><rect class="n" x="524.46" y="327.52" width="26" height="30"/><line class="n" x1="540.48" y1="348.56" x2="554.51" y2="360.13"/><polyline class="n" points="585.46 327.52 585.46 357.52 559.46 357.52"/><rect class="n" x="595.46" y="327.52" width="26" height="30"/><polyline class="n" points="629.46 357.52 629.46 327.52 655.46 327.52 655.46 342.52 629.4 342.52 655.43 357.41"/></svg>