<svg xmlns="http://www.w3.org/2000/svg" xmlns:xlink="http://www.w3.org/1999/xlink" viewBox="0 0 800 800"><defs><style>.a,.f,.g,.h{fill:none;}.b{fill:#fff;}.c{fill:#231f20;}.d{fill:url(#a);}.e{fill:url(#b);}.f,.g{stroke:#fff;}.f,.g,.h{stroke-miterlimit:10;}.f{stroke-width:6px;}.g{stroke-width:4px;}.h{stroke:#000;stroke-width:3px;}</style><pattern id="a" width="124.34" height="125.33" patternUnits="userSpaceOnUse" viewBox="0 0 124.34 125.33"><rect class="a" width="124.34" height="125.33"/><path class="b" d="M124.34,109.67H62.17V141h62.17Zm-59.19,3h56.2V138H65.15Z"/><polygon class="b" points="72.47 128.03 72.47 119.33 101.17 119.33 104.15 116.35 69.49 116.35 69.49 131.02 72.47 128.03"/><path class="b" d="M62.17,109.67H0V141H62.17ZM3,112.65h56.2V138H3Z"/><polygon class="b" points="10.45 128.03 10.45 119.33 39.15 119.33 42.13 116.35 7.46 116.35 7.46 131.02 10.45 128.03"/><path class="b" d="M93.25,78.33H31.08v31.33H93.25Zm-59.19,3h56.2v25.36H34.07Z"/><path class="b" d="M155.42,78.33H93.25v31.33h62.17Zm-59.19,3h56.2v25.36H96.24Z"/><polygon class="b" points="41.39 96.7 41.39 88 70.08 88 73.07 85.02 38.4 85.02 38.4 99.68 41.39 96.7"/><polygon class="b" points="103.7 96.7 103.7 88 132.4 88 135.39 85.02 100.72 85.02 100.72 99.68 103.7 96.7"/><path class="b" d="M31.08,78.33H-31.08v31.33H31.08Zm-59.19,3H28.1v25.36H-28.1Z"/><polygon class="b" points="-20.64 96.7 -20.64 88 8.06 88 11.05 85.02 -23.62 85.02 -23.62 99.68 -20.64 96.7"/><path class="b" d="M62.17,47H0V78.33H62.17ZM3,50h56.2V75.35H3Z"/><path class="b" d="M124.34,47H62.17V78.33h62.17ZM65.15,50h56.2V75.35H65.15Z"/><polygon class="b" points="10.3 65.36 10.3 56.67 39 56.67 41.98 53.68 7.32 53.68 7.32 68.35 10.3 65.36"/><polygon class="b" points="72.62 65.36 72.62 56.67 101.32 56.67 104.3 53.68 69.64 53.68 69.64 68.35 72.62 65.36"/><path class="b" d="M155.42,15.67H93.25V47h62.17Zm-59.19,3h56.2V44H96.24Z"/><polygon class="b" points="103.56 34.03 103.56 25.33 132.25 25.33 135.24 22.35 100.57 22.35 100.57 37.02 103.56 34.03"/><path class="b" d="M31.08,15.67H-31.08V47H31.08Zm-59.19,3H28.1V44H-28.1Z"/><path class="b" d="M93.25,15.67H31.08V47H93.25Zm-59.19,3h56.2V44H34.07Z"/><polygon class="b" points="-20.78 34.03 -20.78 25.33 7.92 25.33 10.9 22.35 -23.77 22.35 -23.77 37.02 -20.78 34.03"/><polygon class="b" points="41.53 34.03 41.53 25.33 70.23 25.33 73.22 22.35 38.55 22.35 38.55 37.02 41.53 34.03"/><path class="b" d="M124.34-15.67H62.17V15.67h62.17Zm-59.19,3h56.2V12.68H65.15Z"/><polygon class="b" points="72.47 2.7 72.47 -6 101.17 -6 104.15 -8.98 69.49 -8.98 69.49 5.68 72.47 2.7"/><path class="b" d="M62.17-15.67H0V15.67H62.17ZM3-12.68h56.2V12.68H3Z"/><polygon class="b" points="10.45 2.7 10.45 -6 39.15 -6 42.13 -8.98 7.46 -8.98 7.46 5.68 10.45 2.7"/></pattern><pattern id="b" width="62.17" height="62.67" patternTransform="translate(-4 124.27) scale(1 1.04)" patternUnits="userSpaceOnUse" viewBox="0 0 62.17 62.67"><rect class="a" width="62.17" height="62.67"/><path class="b" d="M62.17,54.83H31.09V70.5H62.17ZM32.58,56.33h28.1V69H32.58Z"/><polygon class="b" points="36.24 64.02 36.24 59.67 50.59 59.67 52.08 58.17 34.74 58.17 34.74 65.51 36.24 64.02"/><path class="b" d="M31.09,54.83H0V70.5H31.09ZM1.49,56.33h28.1V69H1.49Z"/><polygon class="b" points="5.22 64.02 5.22 59.67 19.57 59.67 21.07 58.17 3.73 58.17 3.73 65.51 5.22 64.02"/><path class="b" d="M46.63,39.17H15.54V54.83H46.63ZM17,40.66h28.1V53.34H17Z"/><path class="b" d="M77.71,39.17H46.63V54.83H77.71ZM48.12,40.66h28.1V53.34H48.12Z"/><polygon class="b" points="20.69 48.35 20.69 44 35.04 44 36.53 42.51 19.2 42.51 19.2 49.84 20.69 48.35"/><polygon class="b" points="51.85 48.35 51.85 44 66.2 44 67.69 42.51 50.36 42.51 50.36 49.84 51.85 48.35"/><path class="b" d="M15.54,39.17H-15.54V54.83H15.54ZM-14,40.66H14V53.34H-14Z"/><polygon class="b" points="-10.32 48.35 -10.32 44 4.03 44 5.52 42.51 -11.81 42.51 -11.81 49.84 -10.32 48.35"/><path class="b" d="M31.09,23.5H0V39.17H31.09ZM1.49,25h28.1V37.68H1.49Z"/><path class="b" d="M62.17,23.5H31.09V39.17H62.17ZM32.58,25h28.1V37.68H32.58Z"/><polygon class="b" points="5.15 32.68 5.15 28.33 19.5 28.33 20.99 26.84 3.66 26.84 3.66 34.17 5.15 32.68"/><polygon class="b" points="36.31 32.68 36.31 28.33 50.66 28.33 52.15 26.84 34.82 26.84 34.82 34.17 36.31 32.68"/><path class="b" d="M77.71,7.83H46.63V23.5H77.71ZM48.12,9.33h28.1V22H48.12Z"/><polygon class="b" points="51.78 17.02 51.78 12.67 66.13 12.67 67.62 11.17 50.29 11.17 50.29 18.51 51.78 17.02"/><path class="b" d="M15.54,7.83H-15.54V23.5H15.54ZM-14,9.33H14V22H-14Z"/><path class="b" d="M46.63,7.83H15.54V23.5H46.63ZM17,9.33h28.1V22H17Z"/><polygon class="b" points="-10.39 17.02 -10.39 12.67 3.96 12.67 5.45 11.17 -11.88 11.17 -11.88 18.51 -10.39 17.02"/><polygon class="b" points="20.77 17.02 20.77 12.67 35.12 12.67 36.61 11.17 19.27 11.17 19.27 18.51 20.77 17.02"/><path class="b" d="M62.17-7.83H31.09V7.83H62.17ZM32.58-6.34h28.1V6.34H32.58Z"/><polygon class="b" points="36.24 1.35 36.24 -3 50.59 -3 52.08 -4.49 34.74 -4.49 34.74 2.84 36.24 1.35"/><path class="b" d="M31.09-7.83H0V7.83H31.09ZM1.49-6.34h28.1V6.34H1.49Z"/><polygon class="b" points="5.22 1.35 5.22 -3 19.57 -3 21.07 -4.49 3.73 -4.49 3.73 2.84 5.22 1.35"/></pattern></defs><title>alley-1</title><rect class="c" width="800" height="800"/><rect class="c" x="52" y="603" width="410" height="7"/><rect class="d" y="547" width="800" height="253"/><rect class="e" x="-17" y="-53" width="936" height="389"/><line class="f" y1="536" x2="800" y2="536"/><line class="g" x1="400" y1="550.5" x2="400" y2="536"/><line class="g" x1="383.25" y1="550.48" x2="384.47" y2="536"/><line class="g" x1="366.49" y1="550.47" x2="368.94" y2="536"/><line class="g" x1="349.74" y1="550.45" x2="353.41" y2="536"/><line class="g" x1="332.98" y1="550.44" x2="337.88" y2="536"/><line class="g" x1="316.23" y1="550.42" x2="322.35" y2="536"/><line class="g" x1="299.47" y1="550.4" x2="306.83" y2="536"/><line class="g" x1="282.72" y1="550.39" x2="291.3" y2="536"/><line class="g" x1="265.96" y1="550.37" x2="275.77" y2="536"/><line class="g" x1="249.21" y1="550.36" x2="260.24" y2="536"/><line class="g" x1="232.45" y1="550.34" x2="244.71" y2="536"/><line class="g" x1="215.7" y1="550.33" x2="229.18" y2="536"/><line class="g" x1="198.95" y1="550.31" x2="213.65" y2="536"/><line class="g" x1="182.19" y1="550.29" x2="198.12" y2="536"/><line class="g" x1="165.44" y1="550.28" x2="182.59" y2="536"/><line class="g" x1="148.68" y1="550.26" x2="167.06" y2="536"/><line class="g" x1="131.93" y1="550.25" x2="151.53" y2="536"/><line class="g" x1="115.17" y1="550.23" x2="136.01" y2="536"/><line class="g" x1="98.42" y1="550.21" x2="120.48" y2="536"/><line class="g" x1="81.66" y1="550.2" x2="104.95" y2="536"/><line class="g" x1="64.91" y1="550.18" x2="89.42" y2="536"/><line class="g" x1="48.15" y1="550.17" x2="73.89" y2="536"/><line class="g" x1="31.4" y1="550.15" x2="58.36" y2="536"/><line class="g" x1="14.65" y1="550.13" x2="42.83" y2="536"/><line class="g" x1="-2.11" y1="550.12" x2="27.3" y2="536"/><line class="g" x1="-18.86" y1="550.1" x2="11.77" y2="536"/><line class="g" x1="400" y1="550.5" x2="400" y2="536"/><line class="g" x1="416.75" y1="550.48" x2="415.53" y2="536"/><line class="g" x1="433.51" y1="550.47" x2="431.06" y2="536"/><line class="g" x1="450.26" y1="550.45" x2="446.59" y2="536"/><line class="g" x1="467.02" y1="550.44" x2="462.12" y2="536"/><line class="g" x1="483.77" y1="550.42" x2="477.65" y2="536"/><line class="g" x1="500.53" y1="550.4" x2="493.17" y2="536"/><line class="g" x1="517.28" y1="550.39" x2="508.7" y2="536"/><line class="g" x1="534.04" y1="550.37" x2="524.23" y2="536"/><line class="g" x1="550.79" y1="550.36" x2="539.76" y2="536"/><line class="g" x1="567.55" y1="550.34" x2="555.29" y2="536"/><line class="g" x1="584.3" y1="550.33" x2="570.82" y2="536"/><line class="g" x1="601.05" y1="550.31" x2="586.35" y2="536"/><line class="g" x1="617.81" y1="550.29" x2="601.88" y2="536"/><line class="g" x1="634.56" y1="550.28" x2="617.41" y2="536"/><line class="g" x1="651.32" y1="550.26" x2="632.94" y2="536"/><line class="g" x1="668.07" y1="550.25" x2="648.47" y2="536"/><line class="g" x1="684.83" y1="550.23" x2="663.99" y2="536"/><line class="g" x1="701.58" y1="550.21" x2="679.52" y2="536"/><line class="g" x1="718.34" y1="550.2" x2="695.05" y2="536"/><line class="g" x1="735.09" y1="550.18" x2="710.58" y2="536"/><line class="g" x1="751.85" y1="550.17" x2="726.11" y2="536"/><line class="g" x1="768.6" y1="550.15" x2="741.64" y2="536"/><line class="g" x1="785.35" y1="550.13" x2="757.17" y2="536"/><line class="g" x1="802.11" y1="550.12" x2="772.7" y2="536"/><line class="g" x1="818.86" y1="550.1" x2="788.23" y2="536"/><rect class="b" y="310" width="800" height="47"/><rect class="b" y="357" width="800" height="22"/><line class="h" y1="357.5" x2="800" y2="357.5"/><line class="h" x1="400" y1="356.99" x2="400" y2="309.77"/><line class="h" x1="519.24" y1="357.1" x2="497.06" y2="309.77"/><line class="h" x1="638.49" y1="357.21" x2="594.11" y2="309.77"/><line class="h" x1="757.73" y1="357.31" x2="691.17" y2="309.77"/><line class="h" x1="876.97" y1="357.42" x2="788.23" y2="309.77"/><line class="h" x1="400" y1="356.99" x2="400" y2="309.77"/><line class="h" x1="280.76" y1="357.1" x2="302.94" y2="309.77"/><line class="h" x1="161.51" y1="357.21" x2="205.89" y2="309.77"/><line class="h" x1="42.27" y1="357.31" x2="108.83" y2="309.77"/><line class="h" x1="-76.97" y1="357.42" x2="11.77" y2="309.77"/><line class="h" y1="309.5" x2="800" y2="309.5"/><path class="c" d="M488.3,317l14.76,32H411V317h77m2.22-3H408v38h99.74l-17.52-38Z"/><path class="c" d="M589.17,317l29.07,32H526.48l-14.76-32H589m1.5-3H507l17.52,38H625l-34.5-38Z"/><path class="c" d="M688,317l43.6,32H642.79l-29.07-32H688m1-3H607l34.5,38h99.29L689,314Z"/><path class="c" d="M787.45,317l58.16,32H758.92l-43.6-32H787m1.23-3h-82l51.75,38h99.31l-69-38Z"/><path class="c" d="M389,317v32H297.06l14.76-32H389m3-3H309.9l-17.52,38H392V314Z"/><path class="c" d="M288.4,317l-14.76,32H181.88L211,317h77m5.08-3H209.62l-34.5,38H275.56l17.52-38Z"/><path class="c" d="M186.4,317l-29.07,32H68.5l43.6-32H186m7.16-3h-82L59.37,352h99.29l34.5-38Z"/><path class="c" d="M84.8,317,41.2,349H-45.49l58.16-32H85m8.94-3h-82l-69,38H42.19l51.75-38Z"/><line class="h" x1="43.5" y1="357" x2="43.5" y2="379"/><line class="h" x1="161.5" y1="357" x2="161.5" y2="379"/><line class="h" x1="280.5" y1="357" x2="280.5" y2="379"/><line class="h" x1="399.5" y1="357" x2="399.5" y2="380"/><line class="h" x1="518.5" y1="357" x2="518.5" y2="379"/><line class="h" x1="637.5" y1="357" x2="637.5" y2="379"/><line class="h" x1="756.5" y1="357" x2="756.5" y2="380"/><path class="c" d="M271,364v18H172V364h99m3-3H169v24H274V361Z"/><line class="h" x1="170.25" y1="362.15" x2="170.25" y2="384.13"/><line class="h" x1="178.77" y1="362.15" x2="178.77" y2="384.13"/><line class="h" x1="187.29" y1="362.15" x2="187.29" y2="384.13"/><line class="h" x1="195.81" y1="362.15" x2="195.81" y2="384.13"/><line class="h" x1="204.33" y1="362.15" x2="204.33" y2="384.13"/><line class="h" x1="212.85" y1="362.15" x2="212.85" y2="384.13"/><line class="h" x1="221.38" y1="362.15" x2="221.38" y2="384.13"/><line class="h" x1="229.9" y1="362.15" x2="229.9" y2="384.13"/><line class="h" x1="238.42" y1="362.15" x2="238.42" y2="384.13"/><line class="h" x1="246.94" y1="362.15" x2="246.94" y2="384.13"/><line class="h" x1="255.46" y1="362.15" x2="255.46" y2="384.13"/><line class="h" x1="263.98" y1="362.15" x2="263.98" y2="384.13"/><line class="h" x1="272.5" y1="362.15" x2="272.5" y2="384.13"/><path class="c" d="M628,364v18H528V364H628m3-3H525v24H631V361Z"/><line class="h" x1="526.92" y1="362.15" x2="526.92" y2="384.13"/><line class="h" x1="535.44" y1="362.15" x2="535.44" y2="384.13"/><line class="h" x1="543.96" y1="362.15" x2="543.96" y2="384.13"/><line class="h" x1="552.48" y1="362.15" x2="552.48" y2="384.13"/><line class="h" x1="561" y1="362.15" x2="561" y2="384.13"/><line class="h" x1="569.52" y1="362.15" x2="569.52" y2="384.13"/><line class="h" x1="578.04" y1="362.15" x2="578.04" y2="384.13"/><line class="h" x1="586.56" y1="362.15" x2="586.56" y2="384.13"/><line class="h" x1="595.08" y1="362.15" x2="595.08" y2="384.13"/><line class="h" x1="603.6" y1="362.15" x2="603.6" y2="384.13"/><line class="h" x1="612.12" y1="362.15" x2="612.12" y2="384.13"/><line class="h" x1="620.65" y1="362.15" x2="620.65" y2="384.13"/><line class="h" x1="629.17" y1="362.15" x2="629.17" y2="384.13"/><path class="b" d="M197.6,421h54.56c5.79,0,13.63-2.26,17.52-5s2.35-5-3.44-5H231.07c-4,0-5-1.62-2.35-3.5a24.38,24.38,0,0,1,12-3.5h32.12a14,14,0,0,0,7-2c1.67-1.18,1-2-1.48-2H229.26c-1.53,0-1.93-.78-.91-1.5A9.49,9.49,0,0,1,233,397h41.34a10.58,10.58,0,0,0,5.2-1.5c1.15-.81.7-1.5-1-1.5H246.58c-2.16,0-2.74-.48-1.29-1.5s4.38-1.5,6.55-1.5h20.87a19.34,19.34,0,0,0,9.44-3c2.1-1.48,1.27-3-1.85-3H244.1c-1.25,0-1.59-.41-.75-1a7.7,7.7,0,0,1,3.8-1h17.38a14.17,14.17,0,0,0,7-2c1.55-1.09.93-2-1.37-2H171.86c-2.23,1-3.33.91-4.88,2s-.94,2,1.37,2h31.11c1.17,0,1.49.44.7,1a7.22,7.22,0,0,1-3.56,1H127.07a15.22,15.22,0,0,0-7.53,2c-1.67,1.18-1,2,1.48,2h52.41c2.44,0,3.09,1.34,1.45,2.5a15.23,15.23,0,0,1-7.39,2.5H135.66c-3.12,0-7.35,1-9.44,2.5S125,399,128.07,399h32.09c1.26,0,1.59.4.75,1a7.7,7.7,0,0,1-3.81,1H102.53c-5.79,0-13.63,2.26-17.52,5s-2.35,5,3.44,5h35.17c4,0,5,1.62,2.36,3.5a24.39,24.39,0,0,1-12,3.5H81.87a14,14,0,0,0-7,2c-1.67,1.18-1,2,1.48,2h49.11c1.53,0,1.94.78.91,1.5a9.48,9.48,0,0,1-4.62,1.5H80.37a10.57,10.57,0,0,0-5.2,1.5c-1.15.81-.7,1.5,1,1.5h31.92c2.16,0,2.74.48,1.29,1.5S105,431,102.85,431H82a19.34,19.34,0,0,0-9.44,3c-2.1,1.48-1.27,3,1.85,3h36.2c1.25,0,1.59.4.75,1a7.69,7.69,0,0,1-3.8,1H90.16a14.16,14.16,0,0,0-7,2c-1.55,1.09-.34,2.09,2.2,3.36a335.87,335.87,0,0,0,47.81,3.36c26.86,0,.67,0,1,0,0,0-30.53,0,0,0s47.6-3.76,47.6-3.76a18.06,18.06,0,0,0,5.91-3c1.55-1.09.94-2-1.37-2H169.23c-1.17,0-1.49-.44-.7-1a7.22,7.22,0,0,1,3.56-1h55.53a15.23,15.23,0,0,0,7.53-2c1.67-1.18,1-2-1.48-2H181.25c-2.44,0-3.09-.84-1.45-2a15,15,0,0,1,7.39-2H219a19.32,19.32,0,0,0,9.44-3c2.1-1.48,1.27-3-1.85-3H194.54c-1.26,0-1.59-.4-.75-1A7.7,7.7,0,0,1,197.6,421Z"/><path class="b" d="M601.72,421H547.16c-5.79,0-13.63-2.26-17.52-5s-2.35-5,3.44-5h35.17c4,0,5-1.62,2.35-3.5a24.38,24.38,0,0,0-12-3.5H526.49a14,14,0,0,1-7-2c-1.67-1.18-1-2,1.48-2h49.11c1.53,0,1.93-.78.91-1.5a9.49,9.49,0,0,0-4.63-1.5H525a10.58,10.58,0,0,1-5.2-1.5c-1.15-.81-.7-1.5,1-1.5h31.92c2.16,0,2.74-.48,1.29-1.5s-4.38-1.5-6.55-1.5H526.61a19.34,19.34,0,0,1-9.44-3c-2.1-1.48-1.27-3,1.85-3h36.2c1.25,0,1.59-.41.75-1a7.7,7.7,0,0,0-3.8-1H534.78a14.17,14.17,0,0,1-7-2c-1.55-1.09-.93-2,1.37-2h98.28c2.23,1,3.33.91,4.88,2s.94,2-1.37,2H599.85c-1.17,0-1.49.44-.7,1a7.22,7.22,0,0,0,3.56,1h69.53a15.22,15.22,0,0,1,7.53,2c1.67,1.18,1,2-1.48,2H625.88c-2.44,0-3.09,1.34-1.45,2.5a15.23,15.23,0,0,0,7.39,2.5h31.84c3.12,0,7.35,1,9.44,2.5s1.27,2.5-1.85,2.5H639.16c-1.26,0-1.59.4-.75,1a7.7,7.7,0,0,0,3.81,1h54.56c5.79,0,13.63,2.26,17.52,5s2.35,5-3.44,5H675.69c-4,0-5,1.62-2.36,3.5a24.39,24.39,0,0,0,12,3.5h32.12a14,14,0,0,1,7,2c1.67,1.18,1,2-1.48,2H673.88c-1.53,0-1.94.78-.91,1.5a9.48,9.48,0,0,0,4.62,1.5h41.34a10.57,10.57,0,0,1,5.2,1.5c1.15.81.7,1.5-1,1.5H691.2c-2.16,0-2.74.48-1.29,1.5s4.38,1.5,6.55,1.5h20.87a19.34,19.34,0,0,1,9.44,3c2.1,1.48,1.27,3-1.85,3h-36.2c-1.25,0-1.59.4-.75,1a7.69,7.69,0,0,0,3.8,1h17.38a14.16,14.16,0,0,1,7,2c1.55,1.09.34,2.09-2.2,3.36a335.87,335.87,0,0,1-47.81,3.36c-26.86,0-.67,0-1,0,0,0,30.53,0,0,0s-47.6-3.76-47.6-3.76a18.06,18.06,0,0,1-5.91-3c-1.55-1.09-.94-2,1.37-2h17.11c1.17,0,1.49-.44.7-1a7.22,7.22,0,0,0-3.56-1H571.7a15.23,15.23,0,0,1-7.53-2c-1.67-1.18-1-2,1.48-2h52.41c2.44,0,3.09-.84,1.45-2a15,15,0,0,0-7.39-2H580.28a19.32,19.32,0,0,1-9.44-3c-2.1-1.48-1.27-3,1.85-3h32.09c1.26,0,1.59-.4.75-1A7.7,7.7,0,0,0,601.72,421Z"/></svg>