<svg xmlns="http://www.w3.org/2000/svg" xmlns:xlink="http://www.w3.org/1999/xlink" viewBox="0 0 800 800"><defs><style>.a,.e,.f,.g,.k,.l{fill:none;}.b,.j{fill:#fff;}.c,.h{fill:#231f20;}.d{fill:url(#a);}.e,.f,.h,.k,.l{stroke:#fff;}.e,.f,.g,.h,.j,.k,.l{stroke-miterlimit:10;}.e{stroke-width:6px;}.f{stroke-width:4px;}.g,.j{stroke:#000;}.g,.h,.l{stroke-width:3px;}.i{fill:url(#b);}.j,.k{stroke-width:2px;}</style><pattern id="a" width="124.34" height="125.33" patternTransform="translate(649.59 125.33)" patternUnits="userSpaceOnUse" viewBox="0 0 124.34 125.33"><rect class="a" width="124.34" height="125.33"/><path class="b" d="M124.34,109.67H62.17V141h62.17Zm-59.19,3h56.2V138H65.15Z"/><polygon class="b" points="72.47 128.03 72.47 119.33 101.17 119.33 104.15 116.35 69.49 116.35 69.49 131.02 72.47 128.03"/><path class="b" d="M62.17,109.67H0V141H62.17ZM3,112.65h56.2V138H3Z"/><polygon class="b" points="10.45 128.03 10.45 119.33 39.15 119.33 42.13 116.35 7.46 116.35 7.46 131.02 10.45 128.03"/><path class="b" d="M93.25,78.33H31.08v31.33H93.25Zm-59.19,3h56.2v25.36H34.07Z"/><path class="b" d="M155.42,78.33H93.25v31.33h62.17Zm-59.19,3h56.2v25.36H96.24Z"/><polygon class="b" points="41.39 96.7 41.39 88 70.08 88 73.07 85.02 38.4 85.02 38.4 99.68 41.39 96.7"/><polygon class="b" points="103.7 96.7 103.7 88 132.4 88 135.39 85.02 100.72 85.02 100.72 99.68 103.7 96.7"/><path class="b" d="M31.08,78.33H-31.08v31.33H31.08Zm-59.19,3H28.1v25.36H-28.1Z"/><polygon class="b" points="-20.64 96.7 -20.64 88 8.06 88 11.05 85.02 -23.62 85.02 -23.62 99.68 -20.64 96.7"/><path class="b" d="M62.17,47H0V78.33H62.17ZM3,50h56.2V75.35H3Z"/><path class="b" d="M124.34,47H62.17V78.33h62.17ZM65.15,50h56.2V75.35H65.15Z"/><polygon class="b" points="10.3 65.36 10.3 56.67 39 56.67 41.98 53.68 7.32 53.68 7.32 68.35 10.3 65.36"/><polygon class="b" points="72.62 65.36 72.62 56.67 101.32 56.67 104.3 53.68 69.64 53.68 69.64 68.35 72.62 65.36"/><path class="b" d="M155.42,15.67H93.25V47h62.17Zm-59.19,3h56.2V44H96.24Z"/><polygon class="b" points="103.56 34.03 103.56 25.33 132.25 25.33 135.24 22.35 100.57 22.35 100.57 37.02 103.56 34.03"/><path class="b" d="M31.08,15.67H-31.08V47H31.08Zm-59.19,3H28.1V44H-28.1Z"/><path class="b" d="M93.25,15.67H31.08V47H93.25Zm-59.19,3h56.2V44H34.07Z"/><polygon class="b" points="-20.78 34.03 -20.78 25.33 7.92 25.33 10.9 22.35 -23.77 22.35 -23.77 37.02 -20.78 34.03"/><polygon class="b" points="41.53 34.03 41.53 25.33 70.23 25.33 73.22 22.35 38.55 22.35 38.55 37.02 41.53 34.03"/><path class="b" d="M124.34-15.67H62.17V15.67h62.17Zm-59.19,3h56.2V12.68H65.15Z"/><polygon class="b" points="72.47 2.7 72.47 -6 101.17 -6 104.15 -8.98 69.49 -8.98 69.49 5.68 72.47 2.7"/><path class="b" d="M62.17-15.67H0V15.67H62.17ZM3-12.68h56.2V12.68H3Z"/><polygon class="b" points="10.45 2.7 10.45 -6 39.15 -6 42.13 -8.98 7.46 -8.98 7.46 5.68 10.45 2.7"/></pattern><pattern id="b" width="62.17" height="62.67" patternTransform="translate(186.51 1)" patternUnits="userSpaceOnUse" viewBox="0 0 62.17 62.67"><rect class="a" width="62.17" height="62.67"/><path class="b" d="M62.17,54.83H31.09V70.5H62.17ZM32.58,56.33h28.1V69H32.58Z"/><polygon class="b" points="36.24 64.02 36.24 59.67 50.59 59.67 52.08 58.17 34.74 58.17 34.74 65.51 36.24 64.02"/><path class="b" d="M31.09,54.83H0V70.5H31.09ZM1.49,56.33h28.1V69H1.49Z"/><polygon class="b" points="5.22 64.02 5.22 59.67 19.57 59.67 21.07 58.17 3.73 58.17 3.73 65.51 5.22 64.02"/><path class="b" d="M46.63,39.17H15.54V54.83H46.63ZM17,40.66h28.1V53.34H17Z"/><path class="b" d="M77.71,39.17H46.63V54.83H77.71ZM48.12,40.66h28.1V53.34H48.12Z"/><polygon class="b" points="20.69 48.35 20.69 44 35.04 44 36.53 42.51 19.2 42.51 19.2 49.84 20.69 48.35"/><polygon class="b" points="51.85 48.35 51.85 44 66.2 44 67.69 42.51 50.36 42.51 50.36 49.84 51.85 48.35"/><path class="b" d="M15.54,39.17H-15.54V54.83H15.54ZM-14,40.66H14V53.34H-14Z"/><polygon class="b" points="-10.32 48.35 -10.32 44 4.03 44 5.52 42.51 -11.81 42.51 -11.81 49.84 -10.32 48.35"/><path class="b" d="M31.09,23.5H0V39.17H31.09ZM1.49,25h28.1V37.68H1.49Z"/><path class="b" d="M62.17,23.5H31.09V39.17H62.17ZM32.58,25h28.1V37.68H32.58Z"/><polygon class="b" points="5.15 32.68 5.15 28.33 19.5 28.33 20.99 26.84 3.66 26.84 3.66 34.17 5.15 32.68"/><polygon class="b" points="36.31 32.68 36.31 28.33 50.66 28.33 52.15 26.84 34.82 26.84 34.82 34.17 36.31 32.68"/><path class="b" d="M77.71,7.83H46.63V23.5H77.71ZM48.12,9.33h28.1V22H48.12Z"/><polygon class="b" points="51.78 17.02 51.78 12.67 66.13 12.67 67.62 11.17 50.29 11.17 50.29 18.51 51.78 17.02"/><path class="b" d="M15.54,7.83H-15.54V23.5H15.54ZM-14,9.33H14V22H-14Z"/><path class="b" d="M46.63,7.83H15.54V23.5H46.63ZM17,9.33h28.1V22H17Z"/><polygon class="b" points="-10.39 17.02 -10.39 12.67 3.96 12.67 5.45 11.17 -11.88 11.17 -11.88 18.51 -10.39 17.02"/><polygon class="b" points="20.77 17.02 20.77 12.67 35.12 12.67 36.61 11.17 19.27 11.17 19.27 18.51 20.77 17.02"/><path class="b" d="M62.17-7.83H31.09V7.83H62.17ZM32.58-6.34h28.1V6.34H32.58Z"/><polygon class="b" points="36.24 1.35 36.24 -3 50.59 -3 52.08 -4.49 34.74 -4.49 34.74 2.84 36.24 1.35"/><path class="b" d="M31.09-7.83H0V7.83H31.09ZM1.49-6.34h28.1V6.34H1.49Z"/><polygon class="b" points="5.22 1.35 5.22 -3 19.57 -3 21.07 -4.49 3.73 -4.49 3.73 2.84 5.22 1.35"/></pattern></defs><title>alley-3</title><rect class="c" x="0.01" y="-0.48" width="800" height="800"/><rect class="d" x="0.01" y="546.52" width="800" height="253"/><line class="e" x1="0.01" y1="535.52" x2="800.01" y2="535.52"/><line class="f" x1="400" y1="550.02" x2="400" y2="535.52"/><line class="f" x1="383.25" y1="550" x2="384.47" y2="535.52"/><line class="f" x1="366.49" y1="549.99" x2="368.94" y2="535.52"/><line class="f" x1="349.74" y1="549.97" x2="353.41" y2="535.52"/><line class="f" x1="332.98" y1="549.96" x2="337.88" y2="535.52"/><line class="f" x1="316.23" y1="549.94" x2="322.35" y2="535.52"/><line class="f" x1="299.47" y1="549.92" x2="306.83" y2="535.52"/><line class="f" x1="282.72" y1="549.91" x2="291.3" y2="535.52"/><line class="f" x1="265.96" y1="549.89" x2="275.77" y2="535.52"/><line class="f" x1="249.21" y1="549.88" x2="260.24" y2="535.52"/><line class="f" x1="232.45" y1="549.86" x2="244.71" y2="535.52"/><line class="f" x1="215.7" y1="549.84" x2="229.18" y2="535.52"/><line class="f" x1="198.95" y1="549.83" x2="213.65" y2="535.52"/><line class="f" x1="182.19" y1="549.81" x2="198.12" y2="535.52"/><line class="f" x1="165.44" y1="549.8" x2="182.59" y2="535.52"/><line class="f" x1="148.68" y1="549.78" x2="167.06" y2="535.52"/><line class="f" x1="131.93" y1="549.76" x2="151.54" y2="535.52"/><line class="f" x1="115.17" y1="549.75" x2="136.01" y2="535.52"/><line class="f" x1="98.42" y1="549.73" x2="120.48" y2="535.52"/><line class="f" x1="81.66" y1="549.72" x2="104.95" y2="535.52"/><line class="f" x1="64.91" y1="549.7" x2="89.42" y2="535.52"/><line class="f" x1="48.15" y1="549.68" x2="73.89" y2="535.52"/><line class="f" x1="31.4" y1="549.67" x2="58.36" y2="535.52"/><line class="f" x1="14.65" y1="549.65" x2="42.83" y2="535.52"/><line class="f" x1="-2.11" y1="549.64" x2="27.3" y2="535.52"/><line class="f" x1="-18.86" y1="549.62" x2="11.77" y2="535.52"/><line class="f" x1="400" y1="550.02" x2="400" y2="535.52"/><line class="f" x1="416.75" y1="550" x2="415.53" y2="535.52"/><line class="f" x1="433.51" y1="549.99" x2="431.06" y2="535.52"/><line class="f" x1="450.26" y1="549.97" x2="446.59" y2="535.52"/><line class="f" x1="467.02" y1="549.96" x2="462.12" y2="535.52"/><line class="f" x1="483.77" y1="549.94" x2="477.65" y2="535.52"/><line class="f" x1="500.53" y1="549.92" x2="493.17" y2="535.52"/><line class="f" x1="517.28" y1="549.91" x2="508.7" y2="535.52"/><line class="f" x1="534.04" y1="549.89" x2="524.23" y2="535.52"/><line class="f" x1="550.79" y1="549.88" x2="539.76" y2="535.52"/><line class="f" x1="567.55" y1="549.86" x2="555.29" y2="535.52"/><line class="f" x1="584.3" y1="549.84" x2="570.82" y2="535.52"/><line class="f" x1="601.05" y1="549.83" x2="586.35" y2="535.52"/><line class="f" x1="617.81" y1="549.81" x2="601.88" y2="535.52"/><line class="f" x1="634.56" y1="549.8" x2="617.41" y2="535.52"/><line class="f" x1="651.32" y1="549.78" x2="632.94" y2="535.52"/><line class="f" x1="668.07" y1="549.76" x2="648.47" y2="535.52"/><line class="f" x1="684.83" y1="549.75" x2="663.99" y2="535.52"/><line class="f" x1="701.58" y1="549.73" x2="679.52" y2="535.52"/><line class="f" x1="718.34" y1="549.72" x2="695.05" y2="535.52"/><line class="f" x1="735.09" y1="549.7" x2="710.58" y2="535.52"/><line class="f" x1="751.85" y1="549.68" x2="726.11" y2="535.52"/><line class="f" x1="768.6" y1="549.67" x2="741.64" y2="535.52"/><line class="f" x1="785.35" y1="549.65" x2="757.17" y2="535.52"/><line class="f" x1="802.11" y1="549.64" x2="772.7" y2="535.52"/><line class="f" x1="818.86" y1="549.62" x2="788.23" y2="535.52"/><rect class="b" x="0.01" y="415.52" width="800" height="45"/><rect class="b" x="0.01" y="460.52" width="800" height="20"/><line class="g" x1="0.01" y1="461.02" x2="800.01" y2="461.02"/><line class="g" x1="400" y1="460.64" x2="400" y2="415.13"/><line class="g" x1="519.24" y1="460.74" x2="497.06" y2="415.13"/><line class="g" x1="638.49" y1="460.85" x2="594.11" y2="415.13"/><line class="g" x1="757.73" y1="460.95" x2="691.17" y2="415.13"/><line class="g" x1="876.97" y1="461.05" x2="788.23" y2="415.13"/><rect class="h" x="127.51" y="259.02" width="119" height="156"/><line class="g" x1="400" y1="460.64" x2="400" y2="415.13"/><line class="g" x1="280.76" y1="460.74" x2="302.94" y2="415.13"/><line class="g" x1="161.51" y1="460.85" x2="205.89" y2="415.13"/><line class="g" x1="42.27" y1="460.95" x2="108.83" y2="415.13"/><line class="g" x1="-76.97" y1="461.05" x2="11.77" y2="415.13"/><path class="c" d="M488.33,422.52l14.66,30H411v-30h77m2.21-3H408v36h99.73l-17.52-36Z"/><path class="c" d="M589.2,422.52l28.87,30H526.45l-14.66-30H589m1.49-3H507l17.52,36H625l-34.5-36Z"/><path class="c" d="M688,422.52l43.3,30H642.76l-28.87-30H688m1-3H607l34.5,36h99.29l-51.75-36Z"/><path class="c" d="M787.48,422.52l57.75,30H758.89l-43.3-30H787m1.22-3h-82l51.75,36h99.31l-69-36Z"/><path class="c" d="M389,422.52v30H297.14l14.66-30H389m3-3H309.9l-17.52,36H392v-36Z"/><path class="c" d="M288.33,422.52l-14.66,30H182.05l28.87-30H288m5.07-3H209.62l-34.5,36H275.56l17.52-36Z"/><path class="c" d="M186.23,422.52l-28.87,30H68.78l43.3-30H186m7.15-3h-82l-51.75,36h99.29l34.5-36Z"/><path class="c" d="M84.53,422.52l-43.3,30H-45.11l57.75-30H85m8.92-3h-82l-69,36H42.18l51.75-36Z"/><line class="g" x1="43.51" y1="460.52" x2="43.51" y2="480.52"/><line class="g" x1="161.51" y1="461.52" x2="161.51" y2="480.52"/><line class="g" x1="280.51" y1="460.52" x2="280.51" y2="480.52"/><line class="g" x1="399.51" y1="460.52" x2="399.51" y2="480.52"/><line class="g" x1="518.51" y1="460.52" x2="518.51" y2="480.52"/><line class="g" x1="637.51" y1="460.52" x2="637.51" y2="480.52"/><line class="g" x1="756.51" y1="460.52" x2="756.51" y2="480.52"/><path class="c" d="M271,467.52v16H172v-16h99m3-3H169v22H274v-22Z"/><line class="g" x1="170.25" y1="465.61" x2="170.25" y2="485.08"/><line class="g" x1="178.77" y1="465.61" x2="178.77" y2="485.08"/><line class="g" x1="187.29" y1="465.61" x2="187.29" y2="485.08"/><line class="g" x1="195.81" y1="465.61" x2="195.81" y2="485.08"/><line class="g" x1="204.33" y1="465.61" x2="204.33" y2="485.08"/><line class="g" x1="212.85" y1="465.61" x2="212.85" y2="485.08"/><line class="g" x1="221.38" y1="465.61" x2="221.38" y2="485.08"/><line class="g" x1="229.9" y1="465.61" x2="229.9" y2="485.08"/><line class="g" x1="238.42" y1="465.61" x2="238.42" y2="485.08"/><line class="g" x1="246.94" y1="465.61" x2="246.94" y2="485.08"/><line class="g" x1="255.46" y1="465.61" x2="255.46" y2="485.08"/><line class="g" x1="263.98" y1="465.61" x2="263.98" y2="485.08"/><line class="g" x1="272.5" y1="465.61" x2="272.5" y2="485.08"/><path class="c" d="M628,467.52v16H528v-16H628m3-3H525v22H631v-22Z"/><line class="g" x1="526.92" y1="465.61" x2="526.92" y2="485.08"/><line class="g" x1="535.44" y1="465.61" x2="535.44" y2="485.08"/><line class="g" x1="543.96" y1="465.61" x2="543.96" y2="485.08"/><line class="g" x1="552.48" y1="465.61" x2="552.48" y2="485.08"/><line class="g" x1="561" y1="465.61" x2="561" y2="485.08"/><line class="g" x1="569.52" y1="465.61" x2="569.52" y2="485.08"/><line class="g" x1="578.04" y1="465.61" x2="578.04" y2="485.08"/><line class="g" x1="586.56" y1="465.61" x2="586.56" y2="485.08"/><line class="g" x1="595.08" y1="465.61" x2="595.08" y2="485.08"/><line class="g" x1="603.6" y1="465.61" x2="603.6" y2="485.08"/><line class="g" x1="612.12" y1="465.61" x2="612.12" y2="485.08"/><line class="g" x1="620.65" y1="465.61" x2="620.65" y2="485.08"/><line class="g" x1="629.17" y1="465.61" x2="629.17" y2="485.08"/><path class="b" d="M42-27.48h3v444H42v-444m-6-3v447H51v-447Z"/><path class="b" d="M755-28.48h3v444h-3v-444m-6-3v447h15v-447Z"/><rect class="i" x="51.01" y="-29.48" width="698" height="446"/><rect class="c" x="110.01" y="240.52" width="154" height="179"/><path class="b" d="M258,246.52v169H116v-169H258m6-6H110v179H264v-179Z"/><rect class="h" x="340.51" y="7.02" width="119" height="157"/><polygon class="j" points="126.97 382.72 246.68 373.17 247.05 387.82 127.3 397.23 126.97 382.72"/><rect class="j" x="127.34" y="359.4" width="119.33" height="14.34" transform="translate(-21.97 12.07) rotate(-3.49)"/><polygon class="j" points="127 326.05 246.06 317.97 247.03 332.27 126.33 340.36 127 326.05"/><rect class="j" x="179.84" y="232.09" width="14.34" height="119.33" transform="translate(-112.26 466.5) rotate(-87.62)"/><polygon class="j" points="127.26 262.08 246.34 269.86 247.37 284.7 126.33 276.39 127.26 262.08"/><rect class="h" x="340.51" y="164.02" width="119" height="15"/><line class="k" x1="340.01" y1="168.52" x2="460.01" y2="168.52"/><line class="k" x1="340.01" y1="173.52" x2="460.01" y2="173.52"/><rect class="h" x="340.51" y="212.02" width="119" height="156"/><rect class="h" x="340.51" y="368.02" width="119" height="15"/><line class="k" x1="340.01" y1="373.52" x2="460.01" y2="373.52"/><line class="k" x1="340.01" y1="377.52" x2="460.01" y2="377.52"/><rect class="h" x="547.51" y="7.02" width="119" height="157"/><rect class="h" x="547.51" y="164.02" width="119" height="15"/><line class="k" x1="547.01" y1="168.52" x2="667.01" y2="168.52"/><line class="k" x1="547.01" y1="173.52" x2="667.01" y2="173.52"/><rect class="h" x="547.51" y="212.02" width="119" height="156"/><rect class="h" x="547.51" y="368.02" width="119" height="15"/><rect class="h" x="127.51" y="8.02" width="119" height="156"/><rect class="h" x="127.51" y="164.02" width="119" height="16"/><line class="k" x1="127.01" y1="169.52" x2="247.01" y2="169.52"/><line class="k" x1="127.01" y1="173.52" x2="247.01" y2="173.52"/><line class="k" x1="547.01" y1="373.52" x2="667.01" y2="373.52"/><line class="k" x1="547.01" y1="378.52" x2="667.01" y2="378.52"/><polygon class="j" points="245.77 32.93 126.87 22.74 127.27 7.69 246.99 18.64 245.77 32.93"/><rect class="j" x="127.27" y="32.22" width="119.33" height="14.34" transform="translate(-2.26 12.89) rotate(-3.93)"/><polygon class="j" points="247.01 78.17 127.11 89.8 126.85 75.42 247.01 63.9 247.01 78.17"/><rect class="j" x="127.27" y="88.33" width="119.33" height="14.34" transform="translate(-2.3 4.64) rotate(-1.41)"/><polygon class="j" points="247.01 127.05 127.01 113.59 127.01 99.35 247.01 112.8 247.01 127.05"/><rect class="j" x="127.01" y="125.52" width="120" height="15"/><polygon class="j" points="247.01 146.98 126.84 158.49 126.85 144.22 247.03 132.71 247.01 146.98"/><rect class="l" x="127.51" y="7.02" width="119" height="157"/><polygon class="j" points="460.03 20.36 339.95 35.02 339.84 19.55 459.67 7.13 460.03 20.36"/><polygon class="j" points="459.92 42.29 340.79 49.33 339.95 35.02 460.16 26.38 459.92 42.29"/><polygon class="j" points="459.99 59.55 341.07 69.45 339.88 55.16 459.89 43.66 459.99 59.55"/><polygon class="j" points="459.26 93.02 339.86 74.5 340.5 58.09 460.01 77.62 459.26 93.02"/><rect class="j" x="340.27" y="87.59" width="119.33" height="14.34" transform="translate(-2.44 10.95) rotate(-1.56)"/><polygon class="j" points="459.96 116.42 340.92 124.8 339.91 110.5 460.16 102.12 459.96 116.42"/><polygon class="j" points="460.16 161.42 339.95 154.62 340.77 140.3 459.91 147.11 460.16 161.42"/><rect class="l" x="340.51" y="7.02" width="119" height="157"/><rect class="j" x="599.79" y="-40.26" width="14.34" height="119.33" transform="translate(548.46 623.85) rotate(-86.3)"/><rect class="j" x="599.79" y="-21.56" width="14.34" height="119.33" transform="matrix(0.02, -1, 1, 0.02, 556.81, 644.19)"/><rect class="j" x="599.79" y="-2.86" width="14.34" height="119.33" transform="translate(518.37 659.94) rotate(-86.99)"/><rect class="j" x="547.29" y="68.34" width="119.33" height="14.34" transform="translate(-3.51 37.76) rotate(-3.55)"/><rect class="j" x="599.79" y="53.24" width="14.34" height="119.33" transform="translate(474.71 715.95) rotate(-88.17)"/><polygon class="j" points="667.04 130.46 547 147.62 546.87 132.76 666.55 116.26 667.04 130.46"/><rect class="j" x="547.29" y="143.14" width="119.33" height="14.34" transform="translate(-8.36 39.04) rotate(-3.66)"/><polygon class="j" points="666.96 225.28 547.25 234.82 546.87 220.18 666.63 210.77 666.96 225.28"/><rect class="j" x="547.25" y="234.26" width="119.33" height="14.34" transform="translate(-13.58 37.4) rotate(-3.49)"/><polygon class="j" points="666.91 275.29 546.83 259.08 547.29 243.96 667 261.19 666.91 275.29"/><rect class="j" x="599.75" y="219.17" width="14.34" height="119.33" transform="translate(291.84 867.75) rotate(-86.53)"/><polygon class="j" points="666.96 299.98 548 309.39 546.87 295.09 666.63 285.02 666.96 299.98"/><rect class="j" x="599.75" y="256.57" width="14.34" height="119.33" transform="translate(265.76 909.51) rotate(-87.62)"/><polygon class="j" points="665.18 350.03 547.01 334.06 547.01 319.19 667.14 335.82 665.18 350.03"/><polygon class="j" points="459.83 238.69 340.08 225.31 340.5 210.77 460.26 223.58 459.83 238.69"/><rect class="j" x="393" y="183.48" width="14.34" height="119.33" transform="translate(149.32 638.53) rotate(-88.89)"/><polygon class="j" points="458.81 274.96 340.08 263 340.37 249.16 460.25 260.7 458.81 274.96"/><rect class="j" x="340.5" y="273.38" width="119.33" height="14.34" transform="translate(-16.2 24.66) rotate(-3.46)"/><polygon class="j" points="458.19 333.6 340.09 316.5 340.5 301.52 460.25 319.41 458.19 333.6"/><rect class="j" x="340.5" y="329.48" width="119.33" height="14.34" transform="translate(-18.07 22.74) rotate(-3.18)"/><polygon class="j" points="459.05 367.37 340.12 357.63 340.18 343.35 460.22 353.08 459.05 367.37"/><polygon class="c" points="18.4 96.55 59.06 140.23 48.71 150.58 73.06 178.27 39.01 177.62 39.01 199.56 21.77 216.75 18.4 96.55"/><polyline class="e" points="39.01 96.52 39.01 120.08 59.11 140.23 48.73 150.53 71.74 177.52 39.01 177.52 39.01 202.52"/><rect class="l" x="547.51" y="7.02" width="119" height="157"/><polygon class="c" points="760.01 287.52 760.01 271.52 744.01 271.52 744.01 252.96 724.38 225.98 738.92 211.32 726.18 198.77 760.51 164.52 774.01 164.52 774.01 287.52 760.01 287.52"/><polyline class="e" points="761.01 287.52 761.01 271.52 744.01 271.52 744.01 252.96 724.38 225.98 738.92 211.32 725.93 198.63 761.01 164.05 761.01 136.52"/><polygon class="c" points="186.68 262.08 163.51 280.55 174.96 298.44 168.01 319.96 168.01 333.6 159.46 342.2 169.86 352.57 158.95 363.49 150.91 371.54 157.41 378.05 150.39 411.4 211.51 412.14 193.16 392.52 213.68 373.64 200.95 360.91 220.43 341.43 207.01 336.85 194.18 324.02 208.91 309.29 198.34 292.18 227.01 264.52 186.68 262.08"/><rect class="l" x="340.51" y="211.02" width="119" height="156"/><rect class="l" x="547.51" y="211.02" width="119" height="156"/><polygon class="j" points="128.1 388.46 248.01 397.61 248.01 412.14 126.26 402.84 128.1 388.46"/><polygon class="j" points="126.97 308.02 245.93 298.61 247.06 312.9 127.3 322.98 126.97 308.02"/><polygon class="j" points="127.02 332.7 247.1 348.92 246.63 364.04 126.92 346.81 127.02 332.7"/><rect class="l" x="127.51" y="258.02" width="119" height="157"/><line class="g" x1="811.01" y1="415.02" x2="-4.99" y2="415.02"/></svg>