<svg xmlns="http://www.w3.org/2000/svg" viewBox="0 0 800 800"><title>my-pistol</title><path d="M70.18,57h4.18V77.49q.9-12.8,1.82-18.21t2.22-5.41q1.4,0,2.21,5.94t1.33,17.69Q83,63.76,83.87,58.81T86,53.86q1.88,0,2.93,13.4T90,109.16v88H85.5V117.34q0-9.5-.31-14.12Q84.75,96,84.08,96t-1.27,6.86q-.48,6.86-.48,22v72.32H77.84V120q0-9.24-.09-12.54-.14-5.28-.5-8.51t-.83-3.23q-.77,0-1.27,7t-.5,23v71.53H70.18Z"/><path d="M93.63,57h4.72l2.41,93.31L103,57h4.41l-4.63,149.76q-.79,25.62-1.62,34.6Q100,254.07,97.6,254.07q-1,0-3-3.17l-.35-37.48q1,3.69,2.15,3.7.79,0,1.28-4.36t.83-15.59Z"/><path d="M79.93,536.4V342.92h4.19v20.72Q85,350.58,85.71,346q1-6.2,2.17-6.2,2.34,0,3.62,21.51t1.28,53.19q0,35-1.4,53.39t-3.53,18.41q-1,0-1.89-4.22a115.74,115.74,0,0,1-1.52-12.54V536.4Zm4.49-123q0,16.63.58,24.68t1.47,8.05q.78,0,1.31-7.72t.53-26.2q0-17-.55-25t-1.34-8q-.86,0-1.43,8.05T84.42,413.4Z"/><path d="M97.34,289.6h4.47v36.56H97.34Zm0,53.32h4.47V483.08H97.34Z"/><path d="M106.13,444.15l4.44-5q.27,9.5.77,13.59t1.32,4.09q.9,0,1.4-4.61a79.09,79.09,0,0,0,.38-8.56,60.49,60.49,0,0,0-.51-9,21.67,21.67,0,0,0-1.92-5.54,41.93,41.93,0,0,1-3.24-9,105.78,105.78,0,0,1-1.53-14q-.62-9.89-.62-22.55,0-13.85.67-23.87a98.57,98.57,0,0,1,1.85-15q1.18-4.94,3.16-4.95t3.08,3.83A76.76,76.76,0,0,1,117,355.46q.67,8.05,1.1,21.78l-4.24,5q-.16-6.73-.55-9.9-.53-4.22-1.27-4.22T111,371.36a75.26,75.26,0,0,0-.35,7.84,51,51,0,0,0,.44,7.77,11.47,11.47,0,0,0,1.91,4.75,21.31,21.31,0,0,1,3.32,8.44A117.54,117.54,0,0,1,118,415.58q.58,10,.58,22t-.61,23.6A139.83,139.83,0,0,1,116,479.46q-1.31,6.79-3.58,6.79-3.2,0-4.56-11T106.13,444.15Z"/><path d="M128.32,289.6v53.32h2.46v39.33h-2.46v49.66q0,9,.14,11.85.22,4.48.77,4.48t1.38-3.42L131,481.9q-1.66,4.35-3.1,4.36-1.67,0-2.46-5.14a147.27,147.27,0,0,1-1.17-15.62q-.38-10.48-.38-33.94v-49.3h-1.65V342.92h1.65V317.19Z"/><path d="M134.62,413.4q0-32.07,1.8-52.86t4.87-20.79q3.51,0,5.3,24.42Q148,383.84,148,412.61q0,32.34-1.79,53t-4.94,20.66q-2.81,0-4.55-17.16Q134.62,447.85,134.62,413.4Zm4.48-.13q0,18.74.63,27.72t1.59,9q1,0,1.59-8.84t.62-28.37q0-18.21-.63-27.12t-1.55-8.91q-1,0-1.62,9T139.1,413.27Z"/><path d="M152.59,289.6h4.49V483.08h-4.49Z"/><path d="M438.2,52.32h4.18l-13.8,20.46q9.54-12.8,14.11-18.21t5.87-5.41q1.4,0-1.79,5.94t-10.6,17.69q10.31-13.72,14.52-18.68t5.48-4.95q1.88,0-6.11,13.4t-27.21,41.9l-59.38,88H359l53.86-79.85q6.41-9.5,9.22-14.12,4.44-7.26,3.78-7.26t-5.9,6.86q-5.11,6.86-15.35,22L355.8,192.49h-4.48l52.08-77.21q6.23-9.24,8.37-12.54,3.42-5.28,5.25-8.51T418.36,91q-.77,0-6,7t-16,23l-48.25,71.53h-4.48Z"/><path d="M461.64,52.32h4.72l-60.53,93.31L471,52.32h4.41L369.77,202.09q-18.07,25.62-25,34.6-9.72,12.68-12.1,12.68-1,0-.85-3.17l24.93-37.48q-1.52,3.69-.34,3.7.79,0,4.22-4.36T372,192.46Z"/><path d="M124.61,531.7,255.11,338.22h4.19l-14,20.72q9.68-13.07,13.52-17.69,5.16-6.2,6.35-6.2,2.34,0-10.89,21.51t-34.59,53.19q-23.59,35-37.41,53.39t-15.95,18.41q-1,0,1-4.22t6.94-12.54L129.12,531.7Zm87.45-123Q200.84,425.32,196,433.37t-4,8.05q.78,0,6.52-7.72t18.2-26.2q11.48-17,16.32-25t4-8q-.86,0-6.86,8.05T212.06,408.69Z"/><path d="M272.52,338.22H277L182.45,478.38H178Zm36-53.32H313L288.3,321.46h-4.47Z"/><path d="M213,439.44l7.83-5q-6.13,9.5-8.4,13.59T211,452.12q.9,0,4.51-4.61,2.69-3.42,6.16-8.57a97.13,97.13,0,0,0,5.54-9,21.49,21.49,0,0,0,1.81-5.54,40.53,40.53,0,0,1,2.86-9,156.06,156.06,0,0,1,7.94-14q6-9.89,14.59-22.55Q263.75,365,271.18,355t11.94-15q4.51-4.94,6.49-4.95t.5,3.83a107.62,107.62,0,0,1-6.35,11.88q-4.77,8.05-13.58,21.78l-7.63,5q4.38-6.73,6.13-9.9,2.32-4.22,1.57-4.22T267,366.65q-2.52,3.23-5.63,7.84a82.11,82.11,0,0,0-4.8,7.77,10.13,10.13,0,0,0-1.29,4.75q.19,3-2.37,8.44a174.38,174.38,0,0,1-8.74,15.43q-6.18,10-14.27,22t-16.53,23.6Q205,468,199.09,474.76t-8.16,6.79q-3.2,0,2.83-11T213,439.44Z"/><path d="M339.47,284.9l-36,53.32H306l-26.53,39.33H277L243.48,427.2q-6,9-7.85,11.85-2.8,4.48-2.25,4.48t3.7-3.42l-24.68,37.08q-4.6,4.35-6,4.36-1.67,0,1-5.14t9.37-15.62q6.69-10.48,22.51-33.94l33.25-49.3h-1.65l26.53-39.33H299l17.36-25.74Z"/><path d="M262.26,408.69q21.63-32.07,37.46-52.86T318.61,335q3.51,0-11.17,24.42-11.83,19.67-31.23,48.44-21.81,32.34-37.53,53T219.8,481.55q-2.82,0,7-17.16Q239,443.14,262.26,408.69Zm4.57-.13q-12.64,18.74-18.06,27.72t-4.46,9q1,0,7.55-8.84T271.62,408q12.29-18.21,17.67-27.12t4.46-8.91q-1,0-7.71,9T266.83,408.56Z"/><path d="M363.73,284.9h4.48L237.71,478.38h-4.48Z"/></svg>