<svg xmlns="http://www.w3.org/2000/svg" viewBox="0 0 800 800"><title>give</title><path d="M80.79,348.52l29.92-.09,11,14.53.59.68q1.1,1.45-1.25,2.77a23.46,23.46,0,0,1-7.27,2.15,116,116,0,0,1-13.17,1.22q-8.25.39-19.24.42-25.13.08-35.57-1.28t-12.21-3.69a3.88,3.88,0,0,1-.44-.78l31.52.56a15.13,15.13,0,0,0,4.45,1.09,81.16,81.16,0,0,0,9.21.42,48.6,48.6,0,0,0,9.81-.71q2.9-.69,1.62-2.39L88,361.08a56.2,56.2,0,0,1-8.29,1.52,146.82,146.82,0,0,1-15.39.77,137.15,137.15,0,0,1-29.06-2.61q-8.75-1.89-11.14-5-2.72-3.59,5.27-5.5t23.23-2q9.74,0,16.52.56a110.77,110.77,0,0,1,13.35,2Zm-24.42,7.55q1.26,1.67,5.72,2.46a61.4,61.4,0,0,0,10.74.77,41.39,41.39,0,0,0,9.38-.86q3.41-.85,2.14-2.53t-6.19-2.56a62.11,62.11,0,0,0-11-.86,37.8,37.8,0,0,0-9.16.85Q54.93,354.18,56.37,356.08Z"/><path d="M239.36,342.17l32-.1,3,4-32,.1ZM243.8,348l32-.1,11.67,15.38-32,.1Z"/><path d="M399.35,347.54l33.26-.1,23.57,9.7,9.4-9.8,32.26-.1-23.78,15.49-28.35.09Z"/><path d="M715,355.73l-64.09.2a14.08,14.08,0,0,0,5.77,2.1,71.29,71.29,0,0,0,12.85,1,78.28,78.28,0,0,0,8.62-.46,30.7,30.7,0,0,0,4.84-1l31.9.44q-5.47,2.34-14.91,3.38t-28.53,1.1q-16.57.05-26.73-.78A117,117,0,0,1,626.89,359q-7.67-1.86-9.59-4.39-2.74-3.61,8.1-5.88t32.9-2.34q17.91-.06,29,.91a104.46,104.46,0,0,1,18,2.85q6.86,1.88,9.17,4.92ZM680.34,353a15.34,15.34,0,0,0-6.84-2.43,72,72,0,0,0-11.2-.71q-7.62,0-11.33,1.15-2.38.7-2.12,2.08Z"/></svg>