<svg xmlns="http://www.w3.org/2000/svg" viewBox="0 0 800 800"><title>to</title><path d="M154.9,291.55q-6.69-11.07-4.09-18.56t13.65-14.2q11.05-6.72,46.62-22.53,21.63-9.55,28.28-14.12,9.58-6.59,9.93-12.93.21-4.31-5.83-9.38-10.17-8.54-33.9-14.5a195.94,195.94,0,0,0-47.91-6q-24,0-34.65,6t-2.45,19.4l-43.78-2.2q-13.6-16.48,4.25-26t61.33-9.51a383.86,383.86,0,0,1,57.9,4.4q28.84,4.4,50.17,12.34t31.4,16.4q14.71,12.34,4.13,23.75-6.42,7.1-54.08,28Q215.38,261,207,266.7t-10,10.82H349.53l8.59,14Z"/><path d="M595.51,411.48l-6.39-1.09q-1.16-5.3.49-8.12t5.65-2.82a12.16,12.16,0,0,1,7.9,2.88,16.35,16.35,0,0,1,5.11,7.33,14.17,14.17,0,0,1,.85,4.53,13.78,13.78,0,0,1-.82,4.77,41.83,41.83,0,0,1-2.34,5q-1.71,3.24-2.22,4.42a21.22,21.22,0,0,0-.89,2.51H613.7L615,437.7h-19a17.55,17.55,0,0,1-.55-5.34,16.46,16.46,0,0,1,1-4.72,74.41,74.41,0,0,1,3.28-7q1.85-3.69,2.28-4.81a10.69,10.69,0,0,0,.8-3.51,7.5,7.5,0,0,0-.4-2.68,7.35,7.35,0,0,0-2-3.12,4.2,4.2,0,0,0-2.79-1.2,2.11,2.11,0,0,0-2.06,1.34Q594.82,408,595.51,411.48Z"/><path d="M254.3,501.09l6.09-15.63,19.36,4.83,4.84-12.48,45.5-4.6-10.65,27,24.2,6-6.08,15.63-24.34-6.07-12.86,32.62q-3.46,8.88-3.46,10.25,0,2.66,2.91,4.87t10.51,4.11q2.63.65,13.14,2.71l-6.22,15.6a188.46,188.46,0,0,1-21-4q-21-5.24-30.57-12.33t-9.54-15.46q0-3.94,5.12-16.92l12.31-31.31Z"/><path d="M372.8,563.49q0-23.75,23-32.14t60.51,1q32.5,8.1,50.76,23.08T525.36,588q0,20.77-22.82,30.22t-61.13-.1a152.57,152.57,0,0,1-36.79-14q-16-8.83-23.93-19.65T372.8,563.49Zm113.14,11.7q0-8.21-8.23-15.22t-21.23-10.25q-12.86-3.21-22.82-1.06a25.13,25.13,0,0,0-15.49,9.58q-5.53,7.44-5.53,14.84,0,9.18,8.58,16.71t21.58,10.77q16.32,4.07,27.39-1.3Q485.94,591.7,485.94,575.19Z"/></svg>