<svg xmlns="http://www.w3.org/2000/svg" viewBox="0 0 800 800"><title>my-son</title><path d="M363.83,308.29l9.39-242.54h7.66l-1.57,40q4.27-25.8,7.63-35.63t7.3-9.82q4.19,0,7,12t3.7,33.46q3.43-22.83,7.21-34.14t8-11.3q5.63,0,8.44,14.39t2.81,40.42q0,11.19-1,37l-6,156.21h-7.66L422.88,148q.8-19.64.8-28.09a98.41,98.41,0,0,0-1.4-18.73q-1.4-6.85-3.93-6.85-3.43,0-7,11.19t-5.52,29.35q-2,18.16-3.45,55.84l-4.57,117.61h-7.66l6.34-163.75q.68-16.67.68-23.75a107.78,107.78,0,0,0-1.37-19.18q-1.37-7.31-3.57-7.31-3.26,0-6.83,11.19t-5.82,31.17q-2.24,20-3.68,57l-4.44,114.65Z"/><path d="M441.83,401.92l.46-38.82q2.37,3.65,4.61,3.65t3.76-5.71q1.86-7.54,4.06-28.32L457.18,309,449.69,65.75h7.53l3.38,122.64q1,36.31,1.73,72.62L482.43,65.75h8L461.79,340.49q-4.15,40.19-7.36,53.21t-7.4,13Q444.36,406.72,441.83,401.92Z"/><path d="M497.4,225.38l7.66-2.51q0,17.81,1,30.37t3.74,20.55q2.73,8,6.37,8,5.08,0,7.61-11A115.47,115.47,0,0,0,526.33,245a129.59,129.59,0,0,0-1.52-20.33q-1.56-9.59-7.63-23.64a208.68,208.68,0,0,1-7.76-19.75,125.61,125.61,0,0,1-4.27-22,261.08,261.08,0,0,1-1.44-29.12q0-28.78,4.23-49.33t11.84-20.55q8.46,0,12.88,21.13T537.24,137l-7.49,2.74q-.17-21.92-2.88-34.71t-7.66-12.79q-4,0-6.18,9.82a97.09,97.09,0,0,0-2.2,21.24,94.46,94.46,0,0,0,1.9,20.1q1.27,5.94,6.56,18.27,8.8,20.55,11.08,32.43,3.64,19,3.64,46.13a301.19,301.19,0,0,1-2.05,35.4q-2.05,17.36-6.26,27.75t-9.92,10.39q-7.78,0-13.24-20.78T497.4,225.38Z"/><path d="M550,216.25q0-71,7.74-117.61,6.39-38.37,16.75-38.37,8.12,0,13.09,27.41t5,74q0,41.79-3.13,77.76t-8.9,55.15q-5.77,19.18-12.16,19.18-5.25,0-9.54-12.1t-6.56-34.26A509.41,509.41,0,0,1,550,216.25Zm7.66-4.11q0,34.26,3,52t7.74,17.7q2.45,0,4.86-5.37t4.48-16.33q2.07-11,3.53-25t2.35-30.26Q585,182.22,585,161.44q0-32.89-3.07-51t-7.72-18.16q-3.59,0-6.56,9.25t-5.35,27.06q-2.39,17.81-3.51,41.45T557.67,212.14Z"/><path d="M605.5,308.29l9.39-242.54h6.94L620.18,108q4.53-24.89,8.46-36.31t8-11.42q5.46,0,8.57,16T648.35,119q0,13.48-1.1,42.48l-5.71,146.85h-7.66l6-153.7q.89-22.38.89-33.11a101.25,101.25,0,0,0-1.54-19.64q-1.54-7.54-4.46-7.54-5.88,0-10.47,22.84t-6.75,78.33l-4.36,112.82Z"/><path d="M471.75,323.44h12.06v1.82a23.63,23.63,0,0,1,5.26-1.62,36.43,36.43,0,0,1,6.4-.48,30.42,30.42,0,0,1,6.39.53,10.79,10.79,0,0,1,3.84,1.58,28.18,28.18,0,0,1,5.54-1.66,36.43,36.43,0,0,1,6.18-.44,23.91,23.91,0,0,1,8.46,1.19q3,1.19,3,3.73v7.84H516v-7.11a1.33,1.33,0,0,0-.88-1.26,7.2,7.2,0,0,0-3.22-.65,9.24,9.24,0,0,0-3.67.61,2,2,0,0,0-1.39,2v6.44H493.87V329a1.77,1.77,0,0,0-.25-1.12,3,3,0,0,0-1.43-.76,8.83,8.83,0,0,0-2.39-.29,9.25,9.25,0,0,0-3.66.62,2.11,2.11,0,0,0-1.43,2v6.37H471.75Z"/><path d="M539.42,323.44H553l6.95,8.31,6.45-8.31h12.72L565.8,336.77a12.23,12.23,0,0,1-4.66,3.08Q557.78,341,550.9,341q-2.79,0-8.62-.28l-1-3.34a53.39,53.39,0,0,0,6.21.33,14.33,14.33,0,0,0,3.69-.39,5.24,5.24,0,0,0,2.39-1.39Z"/><path d="M615.19,332.45,628,332a4.47,4.47,0,0,0,2.22,1.21,15.94,15.94,0,0,0,3.81.36,15.31,15.31,0,0,0,4-.41q1.11-.3,1.11-.76t-1.46-.8q-1-.2-5.55-.49-6.73-.43-9.34-.8a14.68,14.68,0,0,1-4.41-1.25q-1.79-.88-1.79-2t1.93-2.13a18.87,18.87,0,0,1,5.33-1.33,74.2,74.2,0,0,1,9.1-.44,83.4,83.4,0,0,1,8.9.34,21,21,0,0,1,4.79,1.06,9.14,9.14,0,0,1,3.19,1.94l-12.25.45a2.85,2.85,0,0,0-1.59-.88,15.57,15.57,0,0,0-3.68-.38,12.64,12.64,0,0,0-3.19.29q-1,.29-1,.7t1.27.69a51.88,51.88,0,0,0,5.52.42,95.62,95.62,0,0,1,9.58.75,15.45,15.45,0,0,1,4.81,1.37q1.67.89,1.67,2t-1.76,2.1a16.93,16.93,0,0,1-5.55,1.63,69,69,0,0,1-10.33.6q-9.23,0-13.15-1T615.19,332.45Z"/><path d="M662.08,329.71q0-2.86,5.2-4.71t14.05-1.85q10.12,0,15.29,2.17,4.15,1.75,4.16,4.31,0,2.88-5.16,4.72t-14.26,1.84a46.22,46.22,0,0,1-13.13-1.53Q662.08,332.78,662.08,329.71Zm12.94,0a2.61,2.61,0,0,0,1.82,2.47,13.64,13.64,0,0,0,9.17,0,2.63,2.63,0,0,0,1.79-2.53,2.58,2.58,0,0,0-1.81-2.42,11.14,11.14,0,0,0-4.47-.79,11.69,11.69,0,0,0-4.66.8A2.61,2.61,0,0,0,675,329.7Z"/><path d="M713.5,323.44h12v2a23.79,23.79,0,0,1,5.46-1.78,36,36,0,0,1,6.73-.53,23.84,23.84,0,0,1,8.39,1.18q3,1.18,3,3.65v7.93h-13v-6.86a1.7,1.7,0,0,0-1.17-1.66,8.89,8.89,0,0,0-3.3-.49,9.34,9.34,0,0,0-3.81.66,2.38,2.38,0,0,0-1.46,2.36v6H713.5Z"/><path d="M26.38,767.45,39.19,767a4.47,4.47,0,0,0,2.22,1.21,16,16,0,0,0,3.81.36,15.33,15.33,0,0,0,4-.41q1.11-.3,1.11-.76t-1.46-.8q-1-.2-5.55-.49-6.73-.44-9.34-.8a14.69,14.69,0,0,1-4.41-1.25q-1.79-.88-1.79-2t1.93-2.12a18.86,18.86,0,0,1,5.33-1.33,74.07,74.07,0,0,1,9.1-.44,83.21,83.21,0,0,1,8.9.34,20.94,20.94,0,0,1,4.79,1.06,9.12,9.12,0,0,1,3.19,1.94l-12.25.45a2.85,2.85,0,0,0-1.59-.88,15.54,15.54,0,0,0-3.68-.38,12.61,12.61,0,0,0-3.19.29q-1,.29-1,.7t1.27.69a51.83,51.83,0,0,0,5.52.42,95.18,95.18,0,0,1,9.58.75,15.44,15.44,0,0,1,4.81,1.37q1.67.89,1.67,2T60.43,769a16.92,16.92,0,0,1-5.55,1.63,69,69,0,0,1-10.33.6q-9.23,0-13.15-1T26.38,767.45Z"/><path d="M73.26,764.71q0-2.86,5.2-4.71t14.05-1.85q10.12,0,15.29,2.18,4.15,1.75,4.16,4.31,0,2.88-5.16,4.72T92.55,771.2a46.21,46.21,0,0,1-13.13-1.53Q73.26,767.78,73.26,764.71Zm12.94,0A2.61,2.61,0,0,0,88,767.17a13.63,13.63,0,0,0,9.17,0A2.63,2.63,0,0,0,99,764.65a2.58,2.58,0,0,0-1.81-2.42,11.15,11.15,0,0,0-4.47-.79,11.7,11.7,0,0,0-4.66.8A2.61,2.61,0,0,0,86.2,764.7Z"/><path d="M124.68,758.44h12v2a23.82,23.82,0,0,1,5.46-1.78,36,36,0,0,1,6.73-.54,23.84,23.84,0,0,1,8.39,1.18q3,1.18,3,3.65v7.93h-13v-6.86a1.7,1.7,0,0,0-1.17-1.66,8.88,8.88,0,0,0-3.3-.49,9.34,9.34,0,0,0-3.81.66,2.38,2.38,0,0,0-1.46,2.36v6H124.68Z"/></svg>