<svg xmlns="http://www.w3.org/2000/svg" viewBox="0 0 800 800"><title>i-die</title><path d="M199.2,95V92.45h5.72V95Zm0,15.51V97.42h5.72v13.09Z"/><path d="M253.65,110.51v-1.65q-3.21,1.95-9.45,1.95a30.06,30.06,0,0,1-7.43-.86,13.28,13.28,0,0,1-5.25-2.41,4.54,4.54,0,0,1-1.86-3.56,4.81,4.81,0,0,1,1.69-3.56A11.29,11.29,0,0,1,236.41,98a30.85,30.85,0,0,1,7.54-.85,26.69,26.69,0,0,1,5.44.5,14.67,14.67,0,0,1,3.88,1.3V92.45H259v18.07ZM235.55,104a4,4,0,0,0,2.74,3.76,17.53,17.53,0,0,0,12.83.06,3.85,3.85,0,0,0,2.62-3.63,4.14,4.14,0,0,0-2.67-3.94A15.41,15.41,0,0,0,244.49,99a14.92,14.92,0,0,0-6.38,1.21A4,4,0,0,0,235.55,104Z"/><path d="M268,95V92.45h5.72V95Zm0,15.51V97.42h5.72v13.09Z"/><path d="M305.56,106.3l5.92.28q-1.4,2-5.18,3.12a35.11,35.11,0,0,1-9.67,1.11q-7.41,0-11.75-1.77t-4.34-5q0-3.3,4.39-5.13a30,30,0,0,1,11.39-1.82,29.11,29.11,0,0,1,11.07,1.79q4.29,1.79,4.29,5c0,.13,0,.33,0,.59H286.44q.32,2.16,3.15,3.3a18.92,18.92,0,0,0,7.06,1.15,19.63,19.63,0,0,0,5.38-.64A7.53,7.53,0,0,0,305.56,106.3Zm-18.8-3.59h18.86a3.58,3.58,0,0,0-2.16-2.48A16.82,16.82,0,0,0,296.37,99a18.76,18.76,0,0,0-6.63,1Q287,101,286.76,102.71Z"/><path d="M333.05,108.57v-1.91h4.29v1.91Zm0,11.64V110.4h4.29v9.81Z"/><path d="M373.89,120.21V119q-2.41,1.46-7.08,1.46a22.56,22.56,0,0,1-5.57-.65A10,10,0,0,1,357.3,118a3.41,3.41,0,0,1-1.4-2.67,3.6,3.6,0,0,1,1.26-2.67,8.46,8.46,0,0,1,3.79-1.83,23.15,23.15,0,0,1,5.65-.64,20,20,0,0,1,4.08.37,11,11,0,0,1,2.91,1v-4.86h4.27v13.55Zm-13.57-4.9a3,3,0,0,0,2.05,2.82,13.14,13.14,0,0,0,9.63,0,2.89,2.89,0,0,0,2-2.72,3.1,3.1,0,0,0-2-3,11.56,11.56,0,0,0-4.94-.94,11.2,11.2,0,0,0-4.78.91A3,3,0,0,0,360.32,115.31Z"/><path d="M384.65,108.57v-1.91h4.29v1.91Zm0,11.64V110.4h4.29v9.81Z"/><path d="M412.82,117l4.44.21a6.94,6.94,0,0,1-3.89,2.34,26.36,26.36,0,0,1-7.25.83,23.9,23.9,0,0,1-8.81-1.33q-3.25-1.33-3.26-3.72t3.29-3.84a22.51,22.51,0,0,1,8.54-1.37,21.83,21.83,0,0,1,8.3,1.34q3.22,1.34,3.22,3.77c0,.1,0,.25,0,.44H398.49a3.31,3.31,0,0,0,2.36,2.48,14.19,14.19,0,0,0,5.3.86,14.73,14.73,0,0,0,4-.48A5.65,5.65,0,0,0,412.82,117Zm-14.1-2.69h14.15a2.68,2.68,0,0,0-1.62-1.86,12.61,12.61,0,0,0-5.32-1,14.05,14.05,0,0,0-5,.77Q398.94,113.07,398.73,114.36Z"/><path d="M463.45,121.6v-1.43h3.22v1.43Zm0,8.73V123h3.22v7.36Z"/><path d="M494.07,130.33v-.93a10.4,10.4,0,0,1-5.31,1.1,16.93,16.93,0,0,1-4.18-.49,7.48,7.48,0,0,1-3-1.35,2.56,2.56,0,0,1-1-2,2.71,2.71,0,0,1,.95-2,6.35,6.35,0,0,1,2.84-1.38,17.36,17.36,0,0,1,4.24-.48,15,15,0,0,1,3.06.28,8.24,8.24,0,0,1,2.18.73v-3.65h3.2v10.16Zm-10.18-3.67a2.26,2.26,0,0,0,1.54,2.11,9.86,9.86,0,0,0,7.22,0,2.17,2.17,0,0,0,1.48-2,2.33,2.33,0,0,0-1.5-2.22,8.67,8.67,0,0,0-3.7-.71,8.39,8.39,0,0,0-3.59.68A2.24,2.24,0,0,0,483.89,126.65Z"/><path d="M502.14,121.6v-1.43h3.22v1.43Zm0,8.73V123h3.22v7.36Z"/><path d="M523.27,128l3.33.16a5.21,5.21,0,0,1-2.92,1.75,19.76,19.76,0,0,1-5.44.62,17.93,17.93,0,0,1-6.61-1q-2.44-1-2.44-2.79t2.47-2.88a16.9,16.9,0,0,1,6.41-1,16.38,16.38,0,0,1,6.23,1q2.41,1,2.42,2.83,0,.11,0,.33H512.52a2.48,2.48,0,0,0,1.77,1.86,10.63,10.63,0,0,0,4,.65,11,11,0,0,0,3-.36A4.23,4.23,0,0,0,523.27,128Zm-10.57-2h10.61a2,2,0,0,0-1.22-1.39,9.45,9.45,0,0,0-4-.72,10.55,10.55,0,0,0-3.73.58Q512.86,125,512.7,125.94Z"/><path d="M591.24,134.22v-1.08h2.42v1.08Zm0,6.55v-5.52h2.42v5.52Z"/><path d="M614.21,140.76v-.7a7.79,7.79,0,0,1-4,.82,12.68,12.68,0,0,1-3.13-.36,5.6,5.6,0,0,1-2.21-1,1.92,1.92,0,0,1-.79-1.5,2,2,0,0,1,.71-1.5,4.76,4.76,0,0,1,2.13-1,13,13,0,0,1,3.18-.36,11.25,11.25,0,0,1,2.29.21,6.17,6.17,0,0,1,1.64.55v-2.73h2.4v7.62ZM606.58,138a1.69,1.69,0,0,0,1.15,1.59,7.39,7.39,0,0,0,5.42,0,1.63,1.63,0,0,0,1.11-1.53,1.74,1.74,0,0,0-1.13-1.66,6.5,6.5,0,0,0-2.78-.53,6.3,6.3,0,0,0-2.69.51A1.68,1.68,0,0,0,606.58,138Z"/><path d="M620.26,134.22v-1.08h2.42v1.08Zm0,6.55v-5.52h2.42v5.52Z"/><path d="M636.11,139l2.5.12a3.9,3.9,0,0,1-2.19,1.31,14.81,14.81,0,0,1-4.08.47,13.45,13.45,0,0,1-5-.75q-1.83-.75-1.83-2.09t1.85-2.16a12.67,12.67,0,0,1,4.8-.77,12.28,12.28,0,0,1,4.67.75q1.81.75,1.81,2.12c0,.06,0,.14,0,.25H628a1.86,1.86,0,0,0,1.33,1.39,8,8,0,0,0,3,.48,8.28,8.28,0,0,0,2.27-.27A3.18,3.18,0,0,0,636.11,139Zm-7.93-1.51h8a1.51,1.51,0,0,0-.91-1,7.09,7.09,0,0,0-3-.54,7.91,7.91,0,0,0-2.8.43Q628.3,136.75,628.18,137.47Z"/><path d="M717.08,146.53v-.81h1.81v.81Zm0,4.91v-4.14h1.81v4.14Z"/><path d="M734.31,151.43v-.52a5.85,5.85,0,0,1-3,.62,9.52,9.52,0,0,1-2.35-.27,4.21,4.21,0,0,1-1.66-.76,1.44,1.44,0,0,1-.59-1.12,1.52,1.52,0,0,1,.53-1.12,3.57,3.57,0,0,1,1.6-.77,9.77,9.77,0,0,1,2.38-.27,8.48,8.48,0,0,1,1.72.16,4.65,4.65,0,0,1,1.23.41v-2.05H736v5.72Zm-5.73-2.07a1.27,1.27,0,0,0,.87,1.19,5.54,5.54,0,0,0,4.06,0,1.22,1.22,0,0,0,.83-1.15,1.31,1.31,0,0,0-.84-1.25,4.88,4.88,0,0,0-2.08-.4,4.73,4.73,0,0,0-2,.38A1.26,1.26,0,0,0,728.59,149.37Z"/><path d="M738.85,146.53v-.81h1.81v.81Zm0,4.91v-4.14h1.81v4.14Z"/><path d="M750.74,150.1l1.87.09a2.93,2.93,0,0,1-1.64,1,11.12,11.12,0,0,1-3.06.35,10.08,10.08,0,0,1-3.72-.56q-1.37-.56-1.37-1.57t1.39-1.62a9.5,9.5,0,0,1,3.6-.58,9.21,9.21,0,0,1,3.5.57q1.36.57,1.36,1.59s0,.1,0,.19h-8a1.39,1.39,0,0,0,1,1,6,6,0,0,0,2.23.36,6.22,6.22,0,0,0,1.7-.2A2.39,2.39,0,0,0,750.74,150.1ZM744.79,149h6a1.13,1.13,0,0,0-.68-.78,5.32,5.32,0,0,0-2.24-.41,5.94,5.94,0,0,0-2.1.32Q744.88,148.42,744.79,149Z"/><path d="M510.56,437.69v-13h2.07v13Zm0,79.31V450.1h2.07V517Z"/><path d="M530.2,517v-8.44q-1.16,10-3.41,10-1.46,0-2.68-4.41a71,71,0,0,1-1.89-12.32q-.67-7.9-.67-18.17,0-10,.61-18.17a68,68,0,0,1,1.82-12.5q1.22-4.35,2.72-4.35,1.1,0,2,2.55a36.17,36.17,0,0,1,1.4,6.65V424.65h2.05V517Zm-6.53-33.39a136.76,136.76,0,0,0,1,19.21q1,6.36,2.33,6.36t2.3-6.08a132,132,0,0,0,.95-18.55,150.62,150.62,0,0,0-1-20.16q-1-6.43-2.38-6.43t-2.3,6.17A145.84,145.84,0,0,0,523.67,483.61Z"/><path d="M535.38,437.69v-13h2.07v13Zm0,79.31V450.1h2.07V517Z"/><path d="M548.93,495.46l2.13,1.45a91,91,0,0,1-1.87,15.94q-1.37,5.67-3.49,5.67-2.67,0-4.24-9t-1.57-25.36q0-16.88,1.58-26.21t4.11-9.32q2.44,0,4,9.13t1.55,25.7q0,1,0,3H542a111.85,111.85,0,0,0,1.14,16.88q1,5.86,2.55,5.86,1.14,0,1.94-3.28A67.1,67.1,0,0,0,548.93,495.46Zm-6.78-18.33H549a102.58,102.58,0,0,0-.78-12.66q-1-6.55-2.56-6.55-1.42,0-2.39,5.23A85.54,85.54,0,0,0,542.15,477.12Z"/><path d="M558.85,507.09v-9.78h1.55v9.78Zm0,59.48V516.4h1.55v50.18Z"/><path d="M573.58,566.58v-6.33q-.87,7.47-2.56,7.46-1.09,0-2-3.31a53.32,53.32,0,0,1-1.42-9.24q-.5-5.93-.5-13.63,0-7.51.46-13.63a51,51,0,0,1,1.37-9.38q.91-3.26,2-3.26.83,0,1.47,1.91a27.06,27.06,0,0,1,1,5V497.31H575v69.26Zm-4.9-25a102.5,102.5,0,0,0,.74,14.41q.74,4.77,1.75,4.77t1.72-4.56a98.91,98.91,0,0,0,.71-13.91,112.74,112.74,0,0,0-.72-15.12q-.72-4.82-1.78-4.82t-1.73,4.63A109.46,109.46,0,0,0,568.68,541.54Z"/><path d="M577.46,507.09v-9.78H579v9.78Zm0,59.48V516.4H579v50.18Z"/><path d="M587.62,550.42l1.6,1.09a68.28,68.28,0,0,1-1.4,12q-1,4.25-2.62,4.25-2,0-3.18-6.78a118.07,118.07,0,0,1-1.17-19A124.53,124.53,0,0,1,582,522.26q1.19-7,3.08-7t3,6.85a122.42,122.42,0,0,1,1.16,19.28q0,.76,0,2.27h-6.82a84,84,0,0,0,.85,12.66q.77,4.39,1.91,4.39.85,0,1.46-2.46A50.26,50.26,0,0,0,587.62,550.42Zm-5.09-13.75h5.1a76.89,76.89,0,0,0-.58-9.5q-.74-4.91-1.92-4.91t-1.79,3.92A64.17,64.17,0,0,0,582.54,536.67Z"/><path d="M605.88,573.69v-7.33H607v7.33Zm0,44.61V580.67H607V618.3Z"/><path d="M616.93,618.3v-4.75q-.65,5.6-1.92,5.6-.82,0-1.51-2.48a39.87,39.87,0,0,1-1.07-6.93q-.38-4.45-.38-10.22t.34-10.22a38.21,38.21,0,0,1,1-7q.68-2.44,1.53-2.44.62,0,1.1,1.43a20.29,20.29,0,0,1,.79,3.74V566.36H618V618.3Zm-3.67-18.78a76.83,76.83,0,0,0,.56,10.81q.55,3.58,1.31,3.58t1.29-3.42a74.11,74.11,0,0,0,.53-10.44,84.61,84.61,0,0,0-.54-11.34q-.54-3.61-1.34-3.61t-1.29,3.47A82.21,82.21,0,0,0,613.26,599.52Z"/><path d="M619.84,573.69v-7.33H621v7.33Zm0,44.61V580.67H621V618.3Z"/><path d="M627.47,606.19l1.2.82a51.22,51.22,0,0,1-1.05,9q-.77,3.19-2,3.19-1.5,0-2.38-5.08a88.51,88.51,0,0,1-.88-14.26,93.43,93.43,0,0,1,.89-14.74q.89-5.24,2.31-5.24t2.25,5.14a91.91,91.91,0,0,1,.87,14.46q0,.57,0,1.7h-5.11a63,63,0,0,0,.64,9.5q.57,3.3,1.43,3.3.64,0,1.09-1.84A37.63,37.63,0,0,0,627.47,606.19Zm-3.81-10.31h3.83a57.92,57.92,0,0,0-.44-7.12q-.56-3.69-1.44-3.69T624.25,588A48.23,48.23,0,0,0,623.65,595.87Z"/><path d="M652,638.19v-5.5h.87v5.5Zm0,33.46V643.42h.87v28.22Z"/><path d="M660.27,671.65v-3.56q-.49,4.2-1.44,4.2-.62,0-1.13-1.86a29.91,29.91,0,0,1-.8-5.2q-.28-3.34-.28-7.67t.26-7.67a28.62,28.62,0,0,1,.77-5.28q.51-1.83,1.15-1.83.47,0,.83,1.08a15.29,15.29,0,0,1,.59,2.8v-14h.87v39Zm-2.75-14.09a57.69,57.69,0,0,0,.42,8.11q.42,2.68,1,2.68t1-2.56a55.59,55.59,0,0,0,.4-7.83,63.58,63.58,0,0,0-.41-8.5q-.41-2.71-1-2.71t-1,2.6A61.57,61.57,0,0,0,657.52,657.56Z"/><path d="M662.45,638.19v-5.5h.87v5.5Zm0,33.46V643.42h.87v28.22Z"/><path d="M668.17,662.56l.9.61a38.46,38.46,0,0,1-.79,6.72q-.58,2.39-1.47,2.39-1.13,0-1.79-3.81a66.45,66.45,0,0,1-.66-10.7,70.07,70.07,0,0,1,.67-11.06q.67-3.93,1.73-3.93t1.68,3.85a68.87,68.87,0,0,1,.65,10.84q0,.42,0,1.28h-3.83a47.26,47.26,0,0,0,.48,7.12q.43,2.47,1.08,2.47.48,0,.82-1.38A28.19,28.19,0,0,0,668.17,662.56Zm-2.86-7.73h2.87a43.15,43.15,0,0,0-.33-5.34q-.42-2.76-1.08-2.76t-1,2.21A36.05,36.05,0,0,0,665.31,654.83Z"/><path d="M697.38,701.11V697H698v4.13Zm0,25.09V705H698V726.2Z"/><path d="M703.6,726.2v-2.67q-.37,3.15-1.08,3.15-.46,0-.85-1.4a22.45,22.45,0,0,1-.6-3.9q-.21-2.5-.21-5.75t.19-5.75a21.64,21.64,0,0,1,.58-4q.39-1.38.86-1.37t.62.81a11.46,11.46,0,0,1,.44,2.1V697h.65V726.2Zm-2.07-10.56a43.11,43.11,0,0,0,.31,6.08q.31,2,.74,2t.73-1.92a41.84,41.84,0,0,0,.3-5.87,47.63,47.63,0,0,0-.3-6.38q-.3-2-.75-2t-.73,2A46.27,46.27,0,0,0,701.53,715.64Z"/><path d="M705.23,701.11V697h.65v4.13Zm0,25.09V705h.65V726.2Z"/><path d="M709.52,719.39l.68.46a28.78,28.78,0,0,1-.59,5q-.43,1.79-1.1,1.79-.85,0-1.34-2.86a49.87,49.87,0,0,1-.5-8,52.56,52.56,0,0,1,.5-8.29q.5-3,1.3-3t1.26,2.89a51.6,51.6,0,0,1,.49,8.13c0,.21,0,.53,0,1h-2.88a35.55,35.55,0,0,0,.36,5.34q.32,1.85.81,1.85t.61-1A21.2,21.2,0,0,0,709.52,719.39Zm-2.15-5.8h2.15a32.49,32.49,0,0,0-.25-4q-.31-2.07-.81-2.07t-.76,1.65A27.2,27.2,0,0,0,707.37,713.59Z"/></svg>