<svg id="Layer_1" data-name="Layer 1" xmlns="http://www.w3.org/2000/svg" xmlns:xlink="http://www.w3.org/1999/xlink" viewBox="0 0 1100 900"><defs><style>.cls-1,.cls-4{fill:none;}.cls-2{fill:#fff;}.cls-2,.cls-3,.cls-4{stroke:#000;stroke-linejoin:bevel;stroke-width:8px;}.cls-5{clip-path:url(#clip-path);}</style><clipPath id="clip-path"><polygon class="cls-1" points="2054.5 316 1935.5 237 1459.5 393 1490.5 534 2054.5 316"/></clipPath></defs><title>blvk-lodge-5</title><polygon class="cls-2" points="172 654.5 165 232.5 406 364.5 676 373.5 928 494.5 935 775.5 406 767.5 172 654.5"/><polyline class="cls-2" points="406 364.5 406 530.88 406 767.5"/><polygon class="cls-3" points="207.53 255.5 406 227.5 514 251.5 626 236.5 724 251.5 832 236.5 832 207.5 724 222.5 626 207.5 514 222.5 406 198.5 165 232.5 406 198.5 514 222.5 626 207.5 724 222.5 832 207.5 832 346.5 928 494.5 676 373.5 406 364.5 207.53 255.5"/><polygon class="cls-2" points="719 166.5 835 166.5 835 449.5 719 394.5 719 166.5"/><polygon class="cls-2" points="835 449.5 835 166.5 869 124.5 869 466.5 835 449.5"/><polygon class="cls-2" points="868 124.5 752 124.5 719 166.5 835 166.5 868 124.5"/><polygon class="cls-3" points="838.5 137.12 759.09 137.12 745.5 153.5 824.91 153.5 838.5 137.12"/><polygon class="cls-3" points="238.15 442.5 185 412.89 185 278.5 238.15 308.11 238.15 442.5"/><polygon class="cls-2" points="199 406.89 199 286.3 185 278.5 185 412.89 238.15 442.5 238.15 428.7 199 406.89"/><line class="cls-3" x1="185" y1="412.5" x2="199" y2="404.5"/><polygon class="cls-3" points="311.15 482.5 258 452.89 258 318.5 311.15 348.11 311.15 482.5"/><polygon class="cls-2" points="272 446.89 272 326.3 258 318.5 258 452.89 311.15 482.5 311.15 468.7 272 446.89"/><line class="cls-3" x1="258" y1="452.5" x2="272" y2="444.5"/><polygon class="cls-3" points="384.15 519.5 331 489.89 331 355.5 384.15 385.11 384.15 519.5"/><polygon class="cls-2" points="345 483.89 345 363.3 331 355.5 331 489.89 384.15 519.5 384.15 505.7 345 483.89"/><line class="cls-3" x1="331" y1="489.5" x2="345" y2="481.5"/><path d="M313,602.17c0-19.88-16.12-50.19-36-50.19a36,36,0,0,0-36,36c0,.11,0,.22,0,.34h0v96.22l72,33.64V602.41C313,602.3,313,602.28,313,602.17Z"/><path class="cls-4" d="M323,605.42c0-24.85-20.15-62.73-45-62.73a45,45,0,0,0-45,45c0,.14,0,.28,0,.42h0V685L323,727V605.71C323,605.57,323,605.56,323,605.42Z"/><rect class="cls-2" x="484.41" y="558.5" width="261.59" height="23"/><polygon class="cls-3" points="746 559.5 484.41 559.5 434 536.5 695.59 536.5 746 559.5"/><line class="cls-2" x1="484.41" y1="559.5" x2="412" y2="364.5"/><line class="cls-2" x1="746" y1="559.5" x2="675" y2="373.5"/><polygon class="cls-2" points="643 397.5 505 393.5 505 516.5 643 516.5 643 397.5"/><polygon class="cls-3" points="627 397.5 505 393.5 505 502.24 627 502.24 627 397.5"/><line class="cls-2" x1="643" y1="516.5" x2="627" y2="502.5"/><line class="cls-2" x1="835" y1="188.5" x2="868" y2="146.5"/><line class="cls-2" x1="835" y1="210.5" x2="868" y2="168.5"/><line class="cls-2" x1="835" y1="232.5" x2="868" y2="190.5"/><line class="cls-2" x1="835" y1="254.5" x2="868" y2="212.5"/><line class="cls-2" x1="835" y1="276.5" x2="868" y2="234.5"/><line class="cls-2" x1="835" y1="298.5" x2="868" y2="256.5"/><line class="cls-2" x1="835" y1="320.5" x2="868" y2="278.5"/><line class="cls-2" x1="835" y1="342.5" x2="868" y2="300.5"/><line class="cls-2" x1="835" y1="364.5" x2="868" y2="322.5"/><line class="cls-2" x1="835" y1="386.5" x2="868" y2="344.5"/><line class="cls-2" x1="835" y1="408.5" x2="868" y2="366.5"/><line class="cls-2" x1="835" y1="430.5" x2="868" y2="388.5"/><line class="cls-2" x1="835" y1="452.5" x2="868" y2="410.5"/><line class="cls-2" x1="849" y1="456.5" x2="868" y2="432.5"/><line class="cls-2" x1="406" y1="227.5" x2="406" y2="198.5"/><line class="cls-2" x1="514" y1="222.5" x2="514" y2="251.5"/><line class="cls-2" x1="626" y1="207.5" x2="626" y2="236.5"/><polygon class="cls-2" points="498 581.5 491 606.5 498 616.5 505 606.5 498 581.5"/><polygon class="cls-2" points="527.25 581.5 520.25 606.5 527.25 616.5 534.25 606.5 527.25 581.5"/><polygon class="cls-2" points="556.5 581.5 549.5 606.5 556.5 616.5 563.5 606.5 556.5 581.5"/><polygon class="cls-2" points="585.75 581.5 578.75 606.5 585.75 616.5 592.75 606.5 585.75 581.5"/><polygon class="cls-2" points="615 581.5 608 606.5 615 616.5 622 606.5 615 581.5"/><polygon class="cls-2" points="644.25 581.5 637.25 606.5 644.25 616.5 651.25 606.5 644.25 581.5"/><polygon class="cls-2" points="673.5 581.5 666.5 606.5 673.5 616.5 680.5 606.5 673.5 581.5"/><polygon class="cls-2" points="702.75 581.5 695.75 606.5 702.75 616.5 709.75 606.5 702.75 581.5"/><polygon class="cls-2" points="732 581.5 725 606.5 732 616.5 739 606.5 732 581.5"/><path class="cls-4" d="M932.22,654.52A117,117,0,0,0,817,771.5c0,.67,0,1.33,0,2H934Z"/><path class="cls-4" d="M930.61,613.5c-85.79,1.28-154,71.21-154,157.31,0,.9,0,.79,0,1.69l157.31,2Z"/><path class="cls-4" d="M930.61,613.5c-85.79,1.28-154,71.21-154,157.31,0,.9,0,.79,0,1.69l157.31,2Z"/><polyline class="cls-4" points="779.38 747.36 808.95 752.55 844.9 758.86 934 774.5 850.12 732.76 820 717.77 791.53 703.61"/><polyline class="cls-4" points="862 630.5 876.45 659.4 892.25 691 934 774.5 866.4 708.09 842.95 685.05 820 662.5"/><polyline class="cls-4" points="901 616.5 915.03 683.69 934 774.5"/><path class="cls-3" d="M408,767.5l522-179,1,20-76,20s-35.76,28.9-48.38,49.45S775,716.5,777,770.5Z"/><line class="cls-4" x1="835" y1="334.17" x2="803.33" y2="432.5"/><line class="cls-4" x1="835" y1="378.17" x2="815.62" y2="440.31"/><line class="cls-4" x1="835" y1="422.83" x2="827.31" y2="445.19"/><line class="cls-4" x1="835" y1="290" x2="789.33" y2="430.5"/><g class="cls-5"><path class="cls-2" d="M1148.87,627.83c.32,11.45-11.93,24.88-27.36,30s-28.2,0-28.52-11.48"/><path class="cls-2" d="M1120.39,617.57c.32,11.45-11.93,24.88-27.36,30s-28.2,0-28.52-11.48"/><path class="cls-2" d="M1091.94,608.53c.32,11.45-11.93,24.88-27.36,30s-28.2,0-28.52-11.48"/><path class="cls-2" d="M1147.81,590c.32,11.45-11.93,24.88-27.36,30s-28.2,0-28.52-11.48"/><path class="cls-2" d="M1063.46,598.26c.32,11.45-11.93,24.88-27.36,30s-28.2,0-28.52-11.48"/><path class="cls-2" d="M1119.33,579.76c.32,11.45-11.93,24.88-27.36,30s-28.2,0-28.52-11.48"/><path class="cls-2" d="M1035,589.22c.32,11.45-11.93,24.88-27.36,30s-28.2,0-28.52-11.48"/><path class="cls-2" d="M1090.89,570.72c.32,11.45-11.93,24.88-27.36,30s-28.2,0-28.52-11.48"/><path class="cls-2" d="M1146.76,552.21c.32,11.45-11.93,24.88-27.36,30s-28.2,0-28.52-11.48"/><path class="cls-2" d="M1062.44,561.67c.32,11.45-11.93,24.88-27.36,30s-28.2,0-28.52-11.48"/><path class="cls-2" d="M1118.31,543.17c.32,11.45-11.93,24.88-27.36,30s-28.2,0-28.52-11.48"/><path class="cls-2" d="M1034,551.41c.32,11.45-11.93,24.88-27.36,30s-28.2,0-28.52-11.48"/><path class="cls-2" d="M1089.83,532.91c.32,11.45-11.93,24.88-27.36,30s-28.2,0-28.52-11.48"/><path class="cls-2" d="M1145.71,514.4c.32,11.45-11.93,24.88-27.36,30s-28.2,0-28.52-11.48"/><path class="cls-2" d="M1005.51,542.37c.32,11.45-11.93,24.88-27.36,30s-28.2,0-28.52-11.48"/><path class="cls-2" d="M1061.38,523.86c.32,11.45-11.93,24.88-27.36,30s-28.2,0-28.52-11.48"/><path class="cls-2" d="M1117.26,505.36c.32,11.45-11.93,24.88-27.36,30s-28.2,0-28.52-11.48"/></g></svg>