<svg xmlns="http://www.w3.org/2000/svg" viewBox="0 0 907.45 784.46"><defs><style>.a,.c{fill:#fff;}.b,.d,.e{fill:none;}.b,.c,.d{stroke:#000;}.b,.c,.d,.e{stroke-miterlimit:10;}.b,.c,.e{stroke-width:3px;}.d{stroke-width:4px;}.e{stroke:#fff;}</style></defs><title>black-lodge-2</title><rect class="a" width="907.45" height="784.46"/><polyline class="b" points="360.35 436.21 360.35 579.59 340.21 570.73 340.21 432.18 452.17 461.99 452.17 597.31 428.01 588.45"/><line class="b" x1="429.76" y1="589.1" x2="429.76" y2="456.02"/><polygon class="b" points="325.71 426.55 489.23 472.46 434.45 344.38 401.43 340.36 325.71 426.55"/><polyline class="b" points="452.17 597.31 468.28 589.1 468.28 466.58"/><polyline class="b" points="360.35 576.37 374.04 565.9 374.04 440.12"/><polyline class="b" points="489.23 472.46 556.09 443.46 511.78 333.11 452.17 321.83 401.43 340.36"/><line class="b" x1="434.45" y1="344.38" x2="511.78" y2="333.11"/><polyline class="b" points="340.21 538.51 306.38 581.2 468.28 628.73 556.09 553.01 556.09 589.1 468.28 661.75 306.38 615.84"/><line class="b" x1="306.38" y1="615.84" x2="306.38" y2="581.2"/><line class="b" x1="468.28" y1="628.73" x2="468.28" y2="661.75"/><line class="b" x1="556.09" y1="553.01" x2="556.09" y2="443.46"/><polyline class="b" points="556.09 589.1 682.55 636.78 682.55 355.66 736.52 277.53 825.13 235.64 859.76 278.33 859.76 576.37"/><line class="b" x1="682.55" y1="636.78" x2="859.76" y2="576.37"/><polyline class="b" points="682.55 355.66 556.09 205.84 440.9 178.45 417.17 312.22 320.07 280.75 320.07 226.31 285.5 269.4 169.44 225.97 51.93 294.52 260.94 369.43 289.94 338.75 370.71 375.31"/><polyline class="b" points="825.13 235.64 736.52 149.54 599.24 114.5 482.65 141.08 628.24 178.45 736.52 277.53"/><line class="b" x1="440.9" y1="178.45" x2="482.65" y2="141.08"/><polyline class="b" points="556.09 205.84 628.24 178.45 736.52 149.54"/><polyline class="b" points="51.93 294.52 44.68 531.95 230.74 606.58 260.94 369.43"/><polyline class="b" points="230.74 606.58 300.82 522.56 289.94 338.75"/><line class="b" x1="300.82" y1="522.56" x2="340.21" y2="538.51"/><polyline class="b" points="61.04 538.51 70.05 357.35 241.61 412.93 214.67 600.13"/><line class="b" x1="68.61" y1="386.27" x2="237.7" y2="440.12"/><line class="b" x1="66.75" y1="423.76" x2="233.02" y2="472.66"/><line class="b" x1="64.62" y1="466.58" x2="227.9" y2="508.24"/><line class="b" x1="61.04" y1="498.24" x2="221.46" y2="553.01"/><line class="b" x1="61.04" y1="525.62" x2="216.26" y2="589.1"/><polyline class="c" points="123.21 284.86 187.25 178.45 320.51 223.24 260.94 321.83 320.51 294.52"/><line class="b" x1="320.51" y1="294.52" x2="320.51" y2="223.24"/><line class="b" x1="123.21" y1="284.86" x2="260.95" y2="321.83"/><polygon points="152.81 276.88 192.08 205.84 233.02 219.53 196.02 284.86 152.81 276.88"/><polygon points="220.65 291.22 256.44 223.24 291.07 231.61 254.82 303.34 220.65 291.22"/><line class="b" x1="429.76" y1="522.56" x2="374.04" y2="508.24"/><line class="b" x1="407.47" y1="516.83" x2="409.2" y2="450.55"/><polyline class="b" points="556.09 553.01 468.28 530.53 468.28 466.58 482.65 470.61 478.76 531.95"/><polygon points="469.34 530.8 478.76 533.22 482.65 470.61 469.34 466.88 469.34 530.8"/><polygon points="407.47 516.83 429.76 522.56 429.76 456.02 409.2 450.55 407.47 516.83"/><polygon class="d" points="694.22 397.14 736.52 386.27 740.46 500.05 700.18 509.8 694.22 397.14"/><polygon class="d" points="820.26 478.74 848.13 472.46 848.13 369.47 811.31 375.31 820.26 478.74"/><polygon points="736.8 394.3 811.31 382.24 819.72 472.46 740.19 492.19 736.8 394.3"/><line class="b" x1="695.09" y1="413.65" x2="737.09" y2="402.66"/><line class="b" x1="696.11" y1="432.98" x2="737.83" y2="424.11"/><line class="b" x1="737.83" y1="446.28" x2="697.27" y2="454.75"/><line class="b" x1="698.29" y1="474.11" x2="738.53" y2="463.6"/><line class="b" x1="699.25" y1="492.19" x2="740.46" y2="482.13"/><line class="b" x1="811.99" y1="389.51" x2="848.13" y2="384.66"/><line class="b" x1="813.68" y1="402.66" x2="848.13" y2="400.37"/><line class="b" x1="815.46" y1="418.49" x2="848.13" y2="413.65"/><line class="b" x1="816.58" y1="436.21" x2="848.13" y2="430.98"/><line class="b" x1="817.82" y1="450.51" x2="848.13" y2="443.46"/><line class="b" x1="819.17" y1="466.58" x2="848.13" y2="457.15"/><line class="e" x1="783.24" y1="508.24" x2="774.11" y2="357.54"/><polygon class="b" points="536.75 141.08 624.28 162.61 684.97 144.35 601.19 125.55 536.75 141.08"/><polygon points="551.79 144.08 603.34 134.15 671.77 148.32 624.28 162.61 551.79 144.08"/><line class="b" x1="603.34" y1="134.14" x2="601.19" y2="125.55"/><polygon class="b" points="659.73 187.84 740.46 257.12 802.03 231.34 730.88 165.29 659.73 187.84"/><polygon points="671.77 198.18 730.88 178.45 791.77 235.64 740.46 257.12 671.77 198.18"/><line class="b" x1="730.88" y1="178.45" x2="730.88" y2="165.29"/><polygon points="355.78 418.49 460.23 448.21 426.13 365.6 401.9 361.3 355.78 418.49"/><polyline class="e" points="401.9 436.21 416.46 357.35 396.19 354.86 374.04 384.66 452.17 404.75"/><polygon class="b" points="355.78 418.49 460.23 448.21 426.13 365.6 401.9 361.3 355.78 418.49"/><polyline class="b" points="616.6 277.53 579.71 286.12 571.66 306.52 532.99 310.28"/><polyline class="b" points="606.61 279.85 595.29 296.86 606.61 321.83 600.95 333.11"/><polyline class="b" points="630.42 293.9 611.78 293.9 606.61 299.54"/><polyline class="b" points="616.05 276.88 582.94 269.47 577.03 257.12"/><line class="b" x1="556.09" y1="308.04" x2="545.88" y2="321.83"/><polyline class="b" points="574.8 293.9 550.98 290.95 545.88 284.51"/><polyline class="b" points="600.95 309.34 577.03 318.34 574.8 333.11"/><polyline class="b" points="620.53 293.9 618.51 302.23 625.9 310.28"/><line class="b" x1="587.87" y1="284.51" x2="570.58" y2="276.88"/><polyline class="b" points="648.17 314.93 625.9 321.83 634.49 333.11 625.9 351.1"/><line class="b" x1="630.42" y1="327.77" x2="611.78" y2="333.11"/><polyline class="b" points="653.48 321.23 641.47 324.78 643.62 333.01"/><polyline class="b" points="426.63 258.88 450.3 245.34 478.76 252.11 489.23 228.66 511.78 217.78 497.36 191.87"/><polyline class="b" points="430.75 235.64 452.17 217.78 469.34 230.81 476 211.21 492.72 205.84 478.76 187.45"/><polyline class="b" points="436.04 205.84 450.3 196.01 460.23 205.84 473.12 196.01 464.4 184.03"/><polyline class="b" points="438.52 191.87 452.17 184.03 460.23 183.04"/><polyline class="b" points="511.78 217.78 492.72 205.84 473.12 196.01 454.58 181.7 450.3 196.01 452.17 217.78 450.3 245.34"/><polyline class="b" points="478.76 252.11 469.34 230.81 460.23 205.84 454.58 181.7"/><polygon class="b" points="595.29 432.98 587.87 566.7 648.17 589.1 653.89 423.75 595.29 402.66 595.29 432.98"/><polygon points="605.71 406.41 605.71 430.98 596.54 559.86 648.48 580.36 653.89 423.75 605.71 406.41"/><line class="b" x1="596.54" y1="559.86" x2="587.87" y2="566.7"/><polygon class="b" points="585.08 389.51 581.86 397.14 664.43 426.14 664.43 410.03 587.87 386.27 585.08 389.51"/><polygon class="b" points="574.8 563.28 660 593.29 656.77 606.58 573 572.34 574.8 563.28"/><polyline points="61.04 354.86 244.62 413.65 244.62 395.53 61.04 333.11 61.04 357.35"/><polygon class="a" points="548.33 448.21 564.34 440.84 561.02 553.01 546.32 548.98 548.33 448.21"/><polygon class="b" points="489.23 482.13 487.62 503.07 498.09 507.9 501.31 483.69 489.23 482.13"/><polyline class="b" points="300.82 303.55 309.6 321.23 325.71 314.93 330.54 324.78"/><polyline class="b" points="300.82 303.55 295.64 314.17 287.04 317.26 291.07 321.83"/><polyline class="b" points="300.82 303.55 320.51 306.48 330.54 303.34 342.36 304.91"/><polyline class="b" points="315.68 318.85 315.68 333.01 325.71 333.11"/><line class="b" x1="330.54" y1="303.34" x2="340.21" y2="318.85"/></svg>