<svg id="Layer_1" data-name="Layer 1" xmlns="http://www.w3.org/2000/svg" viewBox="0 0 1100 900"><defs><style>.cls-1{fill:#fff;}.cls-1,.cls-2,.cls-3{stroke:#000;stroke-linejoin:bevel;stroke-width:8px;}.cls-3{fill:none;}</style></defs><title>blvk-lodge-4</title><polygon class="cls-1" points="935.5 295.25 722.5 249.25 155.5 454.25 382.5 554.25 935.5 295.25"/><polygon class="cls-1" points="944.5 295.25 725.5 180.25 484.5 511.25 766.5 381.25 944.5 295.25"/><polyline class="cls-1" points="944.5 549.75 382.5 812.75 382.5 557.75"/><polygon class="cls-1" points="725.5 691.25 622.5 738.25 622.5 236.25 725.5 180.25 725.5 691.25"/><polygon class="cls-1" points="622.5 738.25 567.99 727.11 382.5 812.25 382.5 552.25 622.5 443.41 622.5 738.25"/><polygon class="cls-1" points="622.5 236.25 567.86 249.25 382.5 552.25 382.5 812.25 567.5 727.25 622.5 738.25 622.5 236.25"/><line class="cls-1" x1="567.5" y1="727.25" x2="567.5" y2="249.25"/><polygon class="cls-1" points="155.5 454.25 382.5 554.25 382.5 812.25 155.5 712.25 155.5 454.25"/><polygon class="cls-1" points="725.5 652.24 944.5 549.25 944.5 295.25 725.5 180.25 725.5 652.24"/><polygon class="cls-1" points="323.5 375.25 323.5 130.25 381.5 153.25 459.5 123.25 459.5 414.25 378.5 459.25 323.5 431.25 323.5 375.25"/><polyline class="cls-1" points="323.5 130.25 409.5 101.25 459.5 123.25"/><line class="cls-1" x1="381.5" y1="153.25" x2="381.5" y2="459.25"/><polygon class="cls-1" points="502.5 356.09 382.5 401.25 268.5 345.25 155.5 454.25 382.5 554.25 502.5 356.09"/><line class="cls-1" x1="268.5" y1="345.25" x2="323.5" y2="328.25"/><line class="cls-1" x1="459.5" y1="306.25" x2="545.5" y2="285.8"/><polygon points="343.52 138.19 408.5 115.25 441.3 130.25 380.62 150.94 343.52 138.19"/><line class="cls-1" x1="408.5" y1="119.25" x2="408.5" y2="101.25"/><polygon class="cls-1" points="725.5 180.25 592.5 123.25 472.5 153.25 622.5 236.25 725.5 180.25"/><polyline class="cls-1" points="567.5 249.25 459.5 180.25 459.5 158.25 472.5 153.25"/><polygon class="cls-1" points="323.5 266.25 277.5 345.75 382.5 401.25 502.5 356.25 516.75 332.79 459.5 260.25 381.5 296.02 323.5 266.25"/><line class="cls-1" x1="381.5" y1="296.25" x2="382.5" y2="401.25"/><polygon class="cls-2" points="400.67 524.25 392.5 502.25 351.5 511.25 323.5 480.25 282.5 488.25 253.5 454.25 208.5 454.25 183 427.73 200.3 411.04 219.5 430.25 263.5 430.25 287.5 467.25 328.5 459.25 356.5 488.25 400.5 482.25 414.13 502.02 400.67 524.25"/><polygon class="cls-2" points="218.65 393.33 229.5 411.25 275.01 411.04 298.5 443.25 340.5 437.25 365.5 459.25 414.5 459.25 426.5 480.25 445.78 449.75 418.93 436.79 372.5 443.25 343.5 416.25 307.5 424.25 283.5 389.25 241.5 394.25 234.42 378.13 218.65 393.33"/><polygon class="cls-2" points="255.27 358.01 261.5 378.25 298.5 372.25 318.5 401.25 358.5 401.25 376.5 421.25 425.5 416.25 457.78 429.19 468.88 411.04 435.5 393.25 392.41 401.75 362.08 390.45 328.5 385.25 308.5 365.25 294.48 358.01 277.5 358.25 264.87 348.75 255.27 358.01"/><polygon class="cls-2" points="475.83 398.25 456.5 384.25 432.25 382.59 473.42 367.15 483.5 382.25 475.83 398.25"/><polygon class="cls-2" points="167.89 442.3 198.96 473.39 243.5 473.25 265.39 502.66 316.5 502.25 337.59 534.47 377.5 528.25 391.5 539.39 382.5 554.25 155.5 454.25 167.89 442.3"/><polyline class="cls-3" points="323.5 148.25 381.5 172.75 459.5 143.75"/><line class="cls-3" x1="336" y1="153.25" x2="336" y2="243.25"/><line class="cls-3" x1="351.98" y1="161.12" x2="351.98" y2="253.25"/><line class="cls-3" x1="367.86" y1="167.41" x2="367.86" y2="263.25"/><polygon class="cls-1" points="642.5 528.12 708.79 497.88 708.79 312.88 642.5 343.12 642.5 528.12"/><polygon class="cls-2" points="692.08 505.75 692.08 340.25 642.5 358.17 642.5 528.25 692.08 505.75"/><line class="cls-3" x1="692.5" y1="340.25" x2="708.5" y2="313.25"/><line class="cls-3" x1="382.5" y1="378.13" x2="479.5" y2="337.25"/><line class="cls-3" x1="381.17" y1="351.58" x2="465.5" y2="314.25"/><line class="cls-3" x1="382.5" y1="321.25" x2="451.5" y2="291.25"/><polyline class="cls-3" points="545.5 550.25 638.5 564.25 749.5 524.25 725.5 495.25"/><polyline class="cls-3" points="545.5 580.25 638.5 594.25 749.5 554.25 725.5 525.25"/><polyline class="cls-3" points="545.5 610.25 638.5 624.25 749.5 584.25 725.5 555.25"/><polyline class="cls-3" points="725.5 459.25 749.5 508.25 749.5 598.25 749.5 611.25 637.5 648.25 545.5 639.25 545.5 478.33 637.5 550.25 637.5 649.25"/><line class="cls-3" x1="637.5" y1="550.25" x2="749.5" y2="508.25"/><polyline class="cls-3" points="792.3 215.33 792.3 123.25 708.5 87.25 860.5 153.25"/><line class="cls-3" x1="708.5" y1="110.25" x2="816.5" y2="110.25"/><line class="cls-3" x1="762.5" y1="133.25" x2="864.5" y2="133.25"/><line class="cls-3" x1="472.5" y1="207.25" x2="472.5" y2="224.25"/><line class="cls-3" x1="483.5" y1="221.25" x2="483.5" y2="236.25"/><line class="cls-3" x1="472.5" y1="243.25" x2="472.5" y2="256.25"/><line class="cls-3" x1="484.5" y1="256.25" x2="484.5" y2="269.25"/><line class="cls-3" x1="495.5" y1="236.25" x2="495.5" y2="249.25"/><line class="cls-3" x1="499.5" y1="260.25" x2="499.5" y2="275.25"/><line class="cls-3" x1="495.5" y1="207.25" x2="495.5" y2="224.25"/><line class="cls-3" x1="506.5" y1="224.25" x2="506.5" y2="236.25"/><line class="cls-3" x1="510.5" y1="249.25" x2="510.5" y2="260.25"/><line class="cls-3" x1="510.5" y1="280.25" x2="510.5" y2="294.12"/><line class="cls-3" x1="490.5" y1="280.25" x2="490.5" y2="291.25"/><line class="cls-3" x1="519.5" y1="230.25" x2="519.5" y2="242.25"/><line class="cls-3" x1="519.5" y1="267.25" x2="519.5" y2="280.25"/><line class="cls-3" x1="525.5" y1="249.25" x2="525.5" y2="260.25"/><line class="cls-3" x1="540.5" y1="242.25" x2="540.5" y2="260.25"/><line class="cls-3" x1="533.5" y1="269.25" x2="533.5" y2="280.25"/><line class="cls-3" x1="551.5" y1="256.25" x2="551.5" y2="273.75"/><line class="cls-3" x1="483.5" y1="198.25" x2="483.5" y2="207.25"/><line class="cls-3" x1="533.5" y1="227.53" x2="533.5" y2="236.25"/><line class="cls-3" x1="556.54" y1="242.25" x2="556.54" y2="254.25"/><line class="cls-3" x1="472.5" y1="280.25" x2="472.5" y2="269.25"/><line class="cls-3" x1="465.5" y1="236.25" x2="465.5" y2="227.25"/><line class="cls-3" x1="468.5" y1="198.25" x2="468.5" y2="186"/><polygon class="cls-2" points="492.07 298.5 540.5 288.25 522.22 323.85 510.5 321.25 492.07 298.5"/><polyline class="cls-2" points="479.5 767.36 479.5 583.25 445.78 783.14 445.78 608.25 414.13 797.72 414.13 633.25 383 812"/><line class="cls-2" x1="516.29" y1="750.14" x2="516.29" y2="411.25"/><polygon class="cls-2" points="816.5 228.75 816.5 454.25 766.07 633.25 944.5 549.25 944.5 296.25 816.5 228.75"/><line class="cls-2" x1="741.5" y1="192.13" x2="741.5" y2="273.25"/><line class="cls-2" x1="755.5" y1="198.25" x2="755.5" y2="296.25"/><line class="cls-2" x1="771.63" y1="205" x2="771.63" y2="321.25"/><line class="cls-2" x1="803.58" y1="221.25" x2="803.58" y2="351.25"/><line class="cls-2" x1="787.5" y1="247.25" x2="787.5" y2="408.25"/><polygon class="cls-3" points="516.5 158.25 591.5 143.25 683.5 180.25 622.5 215.25 516.5 158.25"/><polygon class="cls-2" points="533.53 167.41 590.5 158.25 661.5 186.25 622.5 215.25 533.53 167.41"/><line class="cls-3" x1="590.5" y1="158.25" x2="590.5" y2="143.25"/><polygon class="cls-1" points="357 575.24 178 496.24 178 721 357 800 357 575.24"/><line class="cls-1" x1="357" y1="604.24" x2="178" y2="525.24"/><line class="cls-1" x1="356.93" y1="617.3" x2="177.93" y2="538.3"/><line class="cls-1" x1="356.87" y1="630.37" x2="177.87" y2="551.37"/><line class="cls-1" x1="356.8" y1="643.44" x2="177.8" y2="564.44"/><line class="cls-1" x1="356.73" y1="656.5" x2="177.73" y2="577.5"/><line class="cls-1" x1="356.67" y1="669.57" x2="177.67" y2="590.57"/><line class="cls-1" x1="356.6" y1="682.64" x2="177.6" y2="603.64"/><line class="cls-1" x1="356.53" y1="695.7" x2="177.53" y2="616.7"/><line class="cls-1" x1="356.47" y1="708.77" x2="177.47" y2="629.77"/><line class="cls-1" x1="356.4" y1="721.84" x2="177.4" y2="642.84"/><line class="cls-1" x1="356.33" y1="734.9" x2="177.33" y2="655.9"/><line class="cls-1" x1="356.27" y1="747.97" x2="177.27" y2="668.97"/><line class="cls-1" x1="356.2" y1="761.04" x2="177.2" y2="682.04"/><line class="cls-1" x1="356.13" y1="774.1" x2="177.13" y2="695.1"/><line class="cls-1" x1="356.07" y1="787.17" x2="177.07" y2="708.17"/><line class="cls-1" x1="356" y1="800.24" x2="177" y2="721.24"/><polyline class="cls-3" points="195.1 503.78 178 511.25 178 518.5 216.13 513.07 191 529.75 235.5 524.25 211.86 540.18 255.84 530.59 235.88 550.78 273.5 538.39 256.2 559.75 291.1 546.15 273.5 567.39 311.71 555.25 290.36 574.83 329 564.74 312.5 583.25 346.41 570.57 332 590 357 583.25"/></svg>