<svg xmlns="http://www.w3.org/2000/svg" viewBox="0 0 907.45 784.46"><defs><style>.a{fill:#fff;}.b{fill:none;stroke:#000;stroke-miterlimit:10;stroke-width:3px;}</style></defs><title>black-lodge-3</title><rect class="a" width="907.45" height="784.46"/><polyline class="b" points="179.55 666.63 170.89 350.61 247.94 298.77 390.32 342.38 412.94 396.74 412.94 708.23"/><polygon class="b" points="247.11 562.5 247.11 556.63 247.11 470.82 341.95 497.89 338.4 578.41 247.11 562.5"/><polyline class="b" points="338.4 578.41 325 599.35 325 627.82 309.92 646.25 309.92 673.05 294.85 698.17 294.85 722.46 188.48 708.23 188.48 681.42 208.58 654.62 208.58 627.82 227.84 608.56 227.84 578.41 247.11 562.5"/><line class="b" x1="227.84" y1="578.41" x2="325" y2="599.35"/><line class="b" x1="227.84" y1="608.56" x2="325" y2="627.82"/><line class="b" x1="208.58" y1="627.82" x2="309.92" y2="649.6"/><line class="b" x1="208.58" y1="654.62" x2="309.92" y2="673.05"/><line class="b" x1="189.29" y1="680.35" x2="294.85" y2="698.18"/><polyline class="b" points="338.4 578.41 342.59 689.26 294.85 722.46"/><line class="b" x1="412.94" y1="708.23" x2="338.4" y2="692.18"/><line class="b" x1="179.55" y1="666.63" x2="197.43" y2="669.5"/><polygon class="b" points="214.44 461.44 361.01 503.5 361.01 464.51 294.85 417.61 223.66 425.98 214.44 461.44"/><polyline class="b" points="294.85 417.61 338.4 417.61 383.62 453.9 383.62 490.47 361.01 503.5"/><line class="b" x1="361.01" y1="464.51" x2="383.62" y2="453.9"/><polygon class="b" points="227.84 380.01 227.84 342.63 255.7 327.12 338.4 352.71 351.08 375.2 351.08 407.77 227.84 380.01"/><polyline class="b" points="247.11 331.9 247.11 367.45 351.08 393.81"/><line class="b" x1="227.84" y1="380.01" x2="247.11" y2="367.45"/><polyline class="b" points="247.94 298.77 383.62 266.63 493.77 310.84"/><polyline class="b" points="412.94 396.74 511.58 359.91 500.75 642.48"/><polyline class="b" points="511.58 359.91 493.77 310.84 390.32 342.38"/><polyline class="b" points="177.13 578.41 139.38 568.3 135.5 153.41 222.35 167.37 222.35 201.49 303.78 217 303.78 184.43 412.94 203.82 412.94 234.84 499.2 250.35 499.2 213.9 627.47 234.84 623.28 669.5 500.75 642.48 412.94 708.23"/><polyline class="b" points="627.47 234.84 681.44 190.63 681.44 222.43 733.4 190.63 733.4 161.17 774.5 130.15 765.97 599.35 623.28 669.5"/><polyline class="b" points="135.5 153.41 202.19 110.76 232 114.1 202.19 133.75 188.48 142.79 205.69 145.86 230.49 150.29 231.29 131.05 263.44 112.44 263.44 88.27 303 62.68 376.24 74.08 376.24 107.43 435.67 117.94 435.67 97.95 435.67 97.95 456.89 89.13 548.39 102.5 548.39 133.51 619.64 142.5 619.64 122.81 626.55 118.29 634.47 113.35 774.5 130.15"/><polyline class="b" points="222.35 167.37 247.94 153.41 247.11 182.34 303.78 193.97"/><polyline class="b" points="303.78 184.43 331.26 165.28 437.5 184.43 437.5 214.91 499.2 226.54"/><polyline class="b" points="499.2 213.9 531.33 195.91 619.74 209.48 648.52 183.92 681.44 190.63"/><polyline class="b" points="247.94 153.41 188.48 142.79 232 114.1 202.19 110.76"/><polyline class="b" points="232 114.1 230.49 150.29 234.21 150.96 287.01 116.24 287.01 92.79 314.23 75.42 356.52 82.74 355.69 114.86 435.67 129.57 435.67 97.19 456.89 89.13"/><polyline class="b" points="263.57 88.19 287.01 92.79 287.01 116.24 263.07 111.64"/><line class="b" x1="356.52" y1="82.74" x2="376.24" y2="74.08"/><line class="b" x1="531.15" y1="112.82" x2="548.39" y2="102.5"/><line class="b" x1="619.3" y1="122.81" x2="634.47" y2="113.35"/><path class="b" d="M619.64,155.09"/><line class="b" x1="531.15" y1="140.74" x2="548.39" y2="133.51"/><line class="b" x1="355.69" y1="114.86" x2="376.24" y2="107.43"/><line class="b" x1="412.94" y1="203.82" x2="437.5" y2="184.43"/><polyline class="b" points="681.44 195.91 702.28 181.5 733.4 190.63"/><polyline class="b" points="733.4 161.17 701.16 155.09 702.28 181.5"/><polyline class="b" points="701.16 155.09 732.71 137.95 619.64 123.15 619.64 155.09 531.15 141.86 531.15 112.83 435.67 97.19"/><polygon class="b" points="155.94 321.93 159.29 213.9 244.16 232.59 244.16 272.79 155.94 321.93"/><polygon class="b" points="520.54 272.23 602.62 288.73 597.59 393.81 517.19 314.11 520.54 272.23"/><polyline class="b" points="174.01 217.14 170.89 304.64 244.16 266.37"/><line class="b" x1="155.94" y1="321.93" x2="170.89" y2="304.64"/><polyline class="b" points="534.6 275.06 531.15 305.73 598.55 373.73"/><line class="b" x1="517.19" y1="314.11" x2="531.15" y2="305.73"/><line class="b" x1="289.46" y1="569.88" x2="291.92" y2="483.61"/><polygon class="b" points="306.69 508.97 306.69 533.74 325 538.76 325 516.23 306.69 508.97"/><polygon class="b" points="259.25 497.25 259.25 520.34 276.42 525.92 276.42 501.19 259.25 497.25"/><polygon class="b" points="648.4 335.37 693.63 350.96 753.61 310.84 740.53 283.12 648.4 335.37"/><polyline class="b" points="648.4 335.37 644.75 545.6 687.46 555.13 749.95 508.68 753.61 310.84"/><line class="b" x1="693.63" y1="353.47" x2="687.46" y2="555.13"/><polygon class="b" points="707.42 368.83 741.37 345.94 737.71 492.83 703.77 515.32 707.42 368.83"/><polyline class="b" points="730.19 353.47 726.54 481.69 703.77 497.86"/><line class="b" x1="726.54" y1="481.69" x2="737.71" y2="492.83"/><polygon class="b" points="444.74 443.09 437.5 623.16 484.25 593.84 489.27 417.61 444.74 443.09"/><polyline class="b" points="473 426.92 468.33 578.41 438.46 599.35"/><line class="b" x1="468.33" y1="578.41" x2="484.25" y2="593.84"/><polygon points="247.11 367.45 247.11 331.9 255.7 327.12 338.4 352.71 351.08 375.2 351.08 393.81 247.11 367.45"/><polygon points="170.89 304.64 174.01 217.14 244.16 232.59 244.16 266.37 170.89 304.64"/><polygon points="534.6 275.06 531.15 305.73 598.55 373.73 602.62 288.73 534.6 275.06"/><polygon points="438.55 597.15 468.33 578.41 473 426.92 444.74 443.09 438.55 597.15"/><polygon points="306.69 533.74 325 538.76 325 516.23 306.69 508.97 306.69 533.74"/><polygon points="259.25 520.34 276.42 525.92 276.42 501.19 259.25 497.25 259.25 520.34"/><polygon points="703.77 497.86 726.54 481.69 730.19 353.47 707.42 368.83 703.77 497.86"/><line class="b" x1="412.94" y1="234.84" x2="437.5" y2="214.91"/><polygon points="310.72 177.74 310.52 177.73 312.71 76.39 287.01 92.79 287.01 116.24 234.21 150.96 247.94 153.41 247.11 182.34 303.78 193.97 303.78 184.43 312.07 178.66 310.7 178.63 310.72 177.74"/><polygon points="732.71 137.95 619.64 123.15 619.64 155.09 531.15 140.74 531.15 112.83 435.67 97.95 435.67 129.57 355.69 114.86 356.52 82.74 315.72 75.67 313.52 177.64 331.26 165.28 437.5 184.43 437.5 214.91 499.2 226.54 499.2 213.9 531.33 195.91 619.74 209.48 648.52 183.92 681.44 190.63 681.44 195.91 702.28 181.5 701.16 155.09 732.71 137.95"/></svg>