<svg id="Layer_1" data-name="Layer 1" xmlns="http://www.w3.org/2000/svg" xmlns:xlink="http://www.w3.org/1999/xlink" viewBox="0 0 1100 900"><defs><style>.cls-1,.cls-5,.cls-8{fill:none;}.cls-2,.cls-3,.cls-5{stroke:#000;}.cls-2,.cls-3,.cls-5,.cls-7,.cls-8{stroke-linejoin:bevel;stroke-width:8px;}.cls-3{fill:#fff;}.cls-4{clip-path:url(#clip-path);}.cls-6{clip-path:url(#clip-path-2);}.cls-7,.cls-8{stroke:#fff;}</style><clipPath id="clip-path"><polygon class="cls-1" points="934.5 316 815.5 237 339.5 393 370.5 534 934.5 316"/></clipPath><clipPath id="clip-path-2"><polygon class="cls-1" points="114.5 454 242.5 362 339.5 393 370.5 534 114.5 454"/></clipPath></defs><title>blvk-lodge-6</title><polygon class="cls-2" points="114.5 454.27 370.5 534.27 370.5 801 114.5 721 114.5 454.27"/><polygon class="cls-3" points="934.5 316.27 370.5 534.27 370.5 801 934.5 583 934.5 316.27"/><polygon class="cls-2" points="114.5 454 242.5 362 339.5 393 370.5 534 114.5 454"/><polygon class="cls-3" points="934.5 316 815.5 237 339.5 393 370.5 534 934.5 316"/><polygon class="cls-3" points="334.5 396 334.5 251 381.5 158 433.5 139 485.5 185 485.5 345 334.5 396"/><polygon class="cls-3" points="355.5 364.3 355.5 253.97 391.26 183.2 430.83 168.75 470.4 203.75 470.4 325.5 355.5 364.3"/><polygon class="cls-2" points="389.95 189.68 355.5 257.84 355.5 348 452.69 315.18 452.69 197.91 427.76 175.86 389.95 189.68"/><polygon class="cls-3" points="336.5 249 247.5 219 292.5 128 381.5 158 336.5 249"/><polygon class="cls-3" points="329.67 228 270.9 208.19 300.62 148.1 359.38 167.91 329.67 228"/><polygon class="cls-2" points="287.9 201.19 335.06 217.09 359.38 167.91 312.22 152.01 287.9 201.19"/><polygon class="cls-3" points="435.5 141 346.5 111 292.5 128 381.5 158 435.5 141"/><polygon class="cls-3" points="247.5 219 247.5 362 334.5 394 334.5 249 247.5 219"/><line class="cls-2" x1="470.5" y1="325" x2="438.5" y2="310"/><line class="cls-2" x1="270.5" y1="208" x2="298.5" y2="199"/><g class="cls-4"><path class="cls-3" d="M28.87,627.83c.32,11.45-11.93,24.88-27.36,30s-28.2,0-28.52-11.48"/><path class="cls-3" d="M84.74,609.33c.32,11.45-11.93,24.88-27.36,30s-28.2,0-28.52-11.48"/><path class="cls-3" d="M140.62,590.82c.32,11.45-11.93,24.88-27.36,30s-28.2,0-28.52-11.48"/><path class="cls-3" d="M196.49,572.32c.32,11.45-11.93,24.88-27.36,30s-28.2,0-28.52-11.48"/><path class="cls-3" d="M252.36,553.81c.32,11.45-11.93,24.88-27.36,30s-28.2,0-28.52-11.48"/><path class="cls-3" d="M308.24,535.31c.32,11.45-11.93,24.88-27.36,30s-28.2,0-28.52-11.48"/><path class="cls-3" d="M364.11,516.8c.32,11.45-11.93,24.88-27.36,30s-28.2,0-28.52-11.48"/><path class="cls-3" d="M420,498.3c.32,11.45-11.93,24.88-27.36,30s-28.2,0-28.52-11.48"/><path class="cls-3" d="M475.86,479.79c.32,11.45-11.93,24.88-27.36,30s-28.2,0-28.52-11.48"/><path class="cls-3" d="M531.73,461.29c.32,11.45-11.93,24.88-27.36,30s-28.2,0-28.52-11.48"/><path class="cls-3" d="M587.61,442.79c.32,11.45-11.93,24.88-27.36,30s-28.2,0-28.52-11.48"/><path class="cls-3" d="M643.48,424.28c.32,11.45-11.93,24.88-27.36,30s-28.2,0-28.52-11.48"/><path class="cls-3" d="M699.35,405.78c.32,11.45-11.93,24.88-27.36,30s-28.2,0-28.52-11.48"/><path class="cls-3" d="M755.23,387.27c.32,11.45-11.93,24.88-27.36,30s-28.2,0-28.52-11.48"/><path class="cls-3" d="M811.1,368.77c.32,11.45-11.93,24.88-27.36,30s-28.2,0-28.52-11.48"/><path class="cls-3" d="M867,350.26c.32,11.45-11.93,24.88-27.36,30s-28.2,0-28.52-11.48"/><path class="cls-3" d="M922.85,331.76c.32,11.45-11.93,24.88-27.36,30s-28.2,0-28.52-11.48"/><path class="cls-3" d="M978.72,313.25c.32,11.45-11.93,24.88-27.36,30s-28.2,0-28.52-11.48"/><path class="cls-3" d="M1034.6,294.75c.32,11.45-11.93,24.88-27.36,30s-28.2,0-28.52-11.48"/><path class="cls-3" d="M.39,617.57C.71,629-11.54,642.44-27,647.55s-28.2,0-28.52-11.48"/><path class="cls-3" d="M56.26,599.06c.32,11.45-11.93,24.88-27.36,30S.71,629,.39,617.57"/><path class="cls-3" d="M112.14,580.56c.32,11.45-11.93,24.88-27.36,30s-28.2,0-28.52-11.48"/><path class="cls-3" d="M168,562.05c.32,11.45-11.93,24.88-27.36,30s-28.2,0-28.52-11.48"/><path class="cls-3" d="M223.88,543.55c.32,11.45-11.93,24.88-27.36,30s-28.2,0-28.52-11.48"/><path class="cls-3" d="M279.76,525c.32,11.45-11.93,24.88-27.36,30s-28.2,0-28.52-11.48"/><path class="cls-3" d="M335.63,506.54c.32,11.45-11.93,24.88-27.36,30s-28.2,0-28.52-11.48"/><path class="cls-3" d="M391.5,488c.32,11.45-11.93,24.88-27.36,30s-28.2,0-28.52-11.48"/><path class="cls-3" d="M447.38,469.53c.32,11.45-11.93,24.88-27.36,30s-28.2,0-28.52-11.48"/><path class="cls-3" d="M503.25,451c.32,11.45-11.93,24.88-27.36,30s-28.2,0-28.52-11.48"/><path class="cls-3" d="M559.13,432.52c.32,11.45-11.93,24.88-27.36,30s-28.2,0-28.52-11.48"/><path class="cls-3" d="M615,414c.32,11.45-11.93,24.88-27.36,30s-28.2,0-28.52-11.48"/><path class="cls-3" d="M670.87,395.51c.32,11.45-11.93,24.88-27.36,30s-28.2,0-28.52-11.48"/><path class="cls-3" d="M726.75,377c.32,11.45-11.93,24.88-27.36,30s-28.2,0-28.52-11.48"/><path class="cls-3" d="M782.62,358.51c.32,11.45-11.93,24.88-27.36,30s-28.2,0-28.52-11.48"/><path class="cls-3" d="M838.49,340c.32,11.45-11.93,24.88-27.36,30s-28.2,0-28.52-11.48"/><path class="cls-3" d="M894.37,321.5c.32,11.45-11.93,24.88-27.36,30s-28.2,0-28.52-11.48"/><path class="cls-3" d="M950.24,303c.32,11.45-11.93,24.88-27.36,30s-28.2,0-28.52-11.48"/><path class="cls-3" d="M1006.12,284.49c.32,11.45-11.93,24.88-27.36,30s-28.2,0-28.52-11.48"/><path class="cls-3" d="M27.81,590c.32,11.45-11.93,24.88-27.36,30s-28.2,0-28.52-11.48"/><path class="cls-3" d="M83.69,571.52c.32,11.45-11.93,24.88-27.36,30s-28.2,0-28.52-11.48"/><path class="cls-3" d="M139.56,553c.32,11.45-11.93,24.88-27.36,30S84,583,83.69,571.52"/><path class="cls-3" d="M195.44,534.51c.32,11.45-11.93,24.88-27.36,30s-28.2,0-28.52-11.48"/><path class="cls-3" d="M251.31,516c.32,11.45-11.93,24.88-27.36,30s-28.2,0-28.52-11.48"/><path class="cls-3" d="M307.18,497.5c.32,11.45-11.93,24.88-27.36,30s-28.2,0-28.52-11.48"/><path class="cls-3" d="M363.06,479c.32,11.45-11.93,24.88-27.36,30s-28.2,0-28.52-11.48"/><path class="cls-3" d="M418.93,460.49c.32,11.45-11.93,24.88-27.36,30s-28.2,0-28.52-11.48"/><path class="cls-3" d="M474.8,442c.32,11.45-11.93,24.88-27.36,30s-28.2,0-28.52-11.48"/><path class="cls-3" d="M530.68,423.48c.32,11.45-11.93,24.88-27.36,30s-28.2,0-28.52-11.48"/><path class="cls-3" d="M586.55,405c.32,11.45-11.93,24.88-27.36,30s-28.2,0-28.52-11.48"/><path class="cls-3" d="M642.43,386.47c.32,11.45-11.93,24.88-27.36,30s-28.2,0-28.52-11.48"/><path class="cls-3" d="M698.3,368c.32,11.45-11.93,24.88-27.36,30s-28.2,0-28.52-11.48"/><path class="cls-3" d="M754.17,349.46c.32,11.45-11.93,24.88-27.36,30s-28.2,0-28.52-11.48"/><path class="cls-3" d="M810,331c.32,11.45-11.93,24.88-27.36,30s-28.2,0-28.52-11.48"/><path class="cls-3" d="M865.92,312.45c.32,11.45-11.93,24.88-27.36,30s-28.2,0-28.52-11.48"/><path class="cls-3" d="M921.79,293.95c.32,11.45-11.93,24.88-27.36,30s-28.2,0-28.52-11.48"/><path class="cls-3" d="M977.67,275.45c.32,11.45-11.93,24.88-27.36,30s-28.2,0-28.52-11.48"/><path class="cls-3" d="M-.67,579.76c.32,11.45-11.93,24.88-27.36,30s-28.2,0-28.52-11.48"/><path class="cls-3" d="M55.21,561.25c.32,11.45-11.93,24.88-27.36,30s-28.2,0-28.52-11.48"/><path class="cls-3" d="M111.08,542.75c.32,11.45-11.93,24.88-27.36,30s-28.2,0-28.52-11.48"/><path class="cls-3" d="M167,524.25c.32,11.45-11.93,24.88-27.36,30s-28.2,0-28.52-11.48"/><path class="cls-3" d="M222.83,505.74c.32,11.45-11.93,24.88-27.36,30s-28.2,0-28.52-11.48"/><path class="cls-3" d="M278.7,487.24c.32,11.45-11.93,24.88-27.36,30s-28.2,0-28.52-11.48"/><path class="cls-3" d="M334.58,468.73c.32,11.45-11.93,24.88-27.36,30s-28.2,0-28.52-11.48"/><path class="cls-3" d="M390.45,450.23c.32,11.45-11.93,24.88-27.36,30s-28.2,0-28.52-11.48"/><path class="cls-3" d="M446.32,431.72c.32,11.45-11.93,24.88-27.36,30s-28.2,0-28.52-11.48"/><path class="cls-3" d="M502.2,413.22c.32,11.45-11.93,24.88-27.36,30s-28.2,0-28.52-11.48"/><path class="cls-3" d="M558.07,394.71c.32,11.45-11.93,24.88-27.36,30s-28.2,0-28.52-11.48"/><path class="cls-3" d="M613.94,376.21c.32,11.45-11.93,24.88-27.36,30s-28.2,0-28.52-11.48"/><path class="cls-3" d="M669.82,357.71c.32,11.45-11.93,24.88-27.36,30s-28.2,0-28.52-11.48"/><path class="cls-3" d="M725.69,339.2c.32,11.45-11.93,24.88-27.36,30s-28.2,0-28.52-11.48"/><path class="cls-3" d="M781.57,320.7c.32,11.45-11.93,24.88-27.36,30s-28.2,0-28.52-11.48"/><path class="cls-3" d="M837.44,302.19c.32,11.45-11.93,24.88-27.36,30s-28.2,0-28.52-11.48"/><path class="cls-3" d="M893.31,283.69c.32,11.45-11.93,24.88-27.36,30s-28.2,0-28.52-11.48"/><path class="cls-3" d="M949.19,265.18c.32,11.45-11.93,24.88-27.36,30s-28.2,0-28.52-11.48"/><path class="cls-3" d="M26.76,552.21c.32,11.45-11.93,24.88-27.36,30s-28.2,0-28.52-11.48"/><path class="cls-3" d="M82.63,533.71c.32,11.45-11.93,24.88-27.36,30s-28.2,0-28.52-11.48"/><path class="cls-3" d="M138.51,515.2c.32,11.45-11.93,24.88-27.36,30s-28.2,0-28.52-11.48"/><path class="cls-3" d="M194.38,496.7c.32,11.45-11.93,24.88-27.36,30s-28.2,0-28.52-11.48"/><path class="cls-3" d="M250.26,478.19c.32,11.45-11.93,24.88-27.36,30s-28.2,0-28.52-11.48"/><path class="cls-3" d="M306.13,459.69c.32,11.45-11.93,24.88-27.36,30s-28.2,0-28.52-11.48"/><path class="cls-3" d="M362,441.18c.32,11.45-11.93,24.88-27.36,30s-28.2,0-28.52-11.48"/><path class="cls-3" d="M417.88,422.68c.32,11.45-11.93,24.88-27.36,30s-28.2,0-28.52-11.48"/><path class="cls-3" d="M473.75,404.18c.32,11.45-11.93,24.88-27.36,30s-28.2,0-28.52-11.48"/><path class="cls-3" d="M529.62,385.67c.32,11.45-11.93,24.88-27.36,30s-28.2,0-28.52-11.48"/><path class="cls-3" d="M585.5,367.17c.32,11.45-11.93,24.88-27.36,30s-28.2,0-28.52-11.48"/><path class="cls-3" d="M641.37,348.66c.32,11.45-11.93,24.88-27.36,30s-28.2,0-28.52-11.48"/><path class="cls-3" d="M697.25,330.16c.32,11.45-11.93,24.88-27.36,30s-28.2,0-28.52-11.48"/><path class="cls-3" d="M753.12,311.65c.32,11.45-11.93,24.88-27.36,30s-28.2,0-28.52-11.48"/><path class="cls-3" d="M809,293.15c.32,11.45-11.93,24.88-27.36,30s-28.2,0-28.52-11.48"/><path class="cls-3" d="M864.87,274.64c.32,11.45-11.93,24.88-27.36,30s-28.2,0-28.52-11.48"/><path class="cls-3" d="M920.74,256.14c.32,11.45-11.93,24.88-27.36,30s-28.2,0-28.52-11.48"/><path class="cls-3" d="M-1.69,543.17c.32,11.45-11.93,24.88-27.36,30s-28.2,0-28.52-11.48"/><path class="cls-3" d="M54.19,524.66c.32,11.45-11.93,24.88-27.36,30s-28.2,0-28.52-11.48"/><path class="cls-3" d="M110.06,506.16c.32,11.45-11.93,24.88-27.36,30s-28.2,0-28.52-11.48"/><path class="cls-3" d="M165.93,487.66c.32,11.45-11.93,24.88-27.36,30s-28.2,0-28.52-11.48"/><path class="cls-3" d="M221.81,469.15c.32,11.45-11.93,24.88-27.36,30s-28.2,0-28.52-11.48"/><path class="cls-3" d="M277.68,450.65c.32,11.45-11.93,24.88-27.36,30s-28.2,0-28.52-11.48"/><path class="cls-3" d="M333.56,432.14c.32,11.45-11.93,24.88-27.36,30s-28.2,0-28.52-11.48"/><path class="cls-3" d="M389.43,413.64c.32,11.45-11.93,24.88-27.36,30s-28.2,0-28.52-11.48"/><path class="cls-3" d="M445.3,395.13c.32,11.45-11.93,24.88-27.36,30s-28.2,0-28.52-11.48"/><path class="cls-3" d="M501.18,376.63c.32,11.45-11.93,24.88-27.36,30s-28.2,0-28.52-11.48"/><path class="cls-3" d="M557.05,358.12c.32,11.45-11.93,24.88-27.36,30s-28.2,0-28.52-11.48"/><path class="cls-3" d="M612.92,339.62c.32,11.45-11.93,24.88-27.36,30s-28.2,0-28.52-11.48"/><path class="cls-3" d="M668.8,321.12c.32,11.45-11.93,24.88-27.36,30s-28.2,0-28.52-11.48"/><path class="cls-3" d="M724.67,302.61c.32,11.45-11.93,24.88-27.36,30s-28.2,0-28.52-11.48"/><path class="cls-3" d="M780.55,284.11c.32,11.45-11.93,24.88-27.36,30s-28.2,0-28.52-11.48"/><path class="cls-3" d="M836.42,265.6c.32,11.45-11.93,24.88-27.36,30s-28.2,0-28.52-11.48"/><path class="cls-3" d="M892.29,247.1c.32,11.45-11.93,24.88-27.36,30s-28.2,0-28.52-11.48"/><path class="cls-3" d="M948.17,228.59c.32,11.45-11.93,24.88-27.36,30s-28.2,0-28.52-11.48"/><path class="cls-3" d="M25.71,514.4c.32,11.45-11.93,24.88-27.36,30s-28.2,0-28.52-11.48"/><path class="cls-3" d="M81.58,495.9c.32,11.45-11.93,24.88-27.36,30s-28.2,0-28.52-11.48"/><path class="cls-3" d="M137.45,477.39c.32,11.45-11.93,24.88-27.36,30s-28.2,0-28.52-11.48"/><path class="cls-3" d="M193.33,458.89c.32,11.45-11.93,24.88-27.36,30s-28.2,0-28.52-11.48"/><path class="cls-3" d="M249.2,440.38c.32,11.45-11.93,24.88-27.36,30s-28.2,0-28.52-11.48"/><path class="cls-3" d="M305.07,421.88c.32,11.45-11.93,24.88-27.36,30s-28.2,0-28.52-11.48"/><path class="cls-3" d="M360.95,403.38c.32,11.45-11.93,24.88-27.36,30s-28.2,0-28.52-11.48"/><path class="cls-3" d="M416.82,384.87c.32,11.45-11.93,24.88-27.36,30s-28.2,0-28.52-11.48"/><path class="cls-3" d="M472.7,366.37c.32,11.45-11.93,24.88-27.36,30s-28.2,0-28.52-11.48"/><path class="cls-3" d="M528.57,347.86c.32,11.45-11.93,24.88-27.36,30s-28.2,0-28.52-11.48"/><path class="cls-3" d="M584.44,329.36c.32,11.45-11.93,24.88-27.36,30s-28.2,0-28.52-11.48"/><path class="cls-3" d="M640.32,310.85c.32,11.45-11.93,24.88-27.36,30s-28.2,0-28.52-11.48"/><path class="cls-3" d="M696.19,292.35c.32,11.45-11.93,24.88-27.36,30s-28.2,0-28.52-11.48"/><path class="cls-3" d="M752.06,273.84c.32,11.45-11.93,24.88-27.36,30s-28.2,0-28.52-11.48"/><path class="cls-3" d="M807.94,255.34c.32,11.45-11.93,24.88-27.36,30s-28.2,0-28.52-11.48"/><path class="cls-3" d="M863.81,236.84c.32,11.45-11.93,24.88-27.36,30s-28.2,0-28.52-11.48"/><path class="cls-3" d="M919.69,218.33c.32,11.45-11.93,24.88-27.36,30s-28.2,0-28.52-11.48"/><path class="cls-3" d="M-2.74,505.36c.32,11.45-11.93,24.88-27.36,30s-28.2,0-28.52-11.48"/><path class="cls-3" d="M53.13,486.85c.32,11.45-11.93,24.88-27.36,30s-28.2,0-28.52-11.48"/><path class="cls-3" d="M109,468.35c.32,11.45-11.93,24.88-27.36,30s-28.2,0-28.52-11.48"/><path class="cls-3" d="M164.88,449.85c.32,11.45-11.93,24.88-27.36,30s-28.2,0-28.52-11.48"/><path class="cls-3" d="M220.75,431.34c.32,11.45-11.93,24.88-27.36,30s-28.2,0-28.52-11.48"/><path class="cls-3" d="M276.63,412.84c.32,11.45-11.93,24.88-27.36,30s-28.2,0-28.52-11.48"/><path class="cls-3" d="M332.5,394.33c.32,11.45-11.93,24.88-27.36,30s-28.2,0-28.52-11.48"/><path class="cls-3" d="M388.38,375.83c.32,11.45-11.93,24.88-27.36,30s-28.2,0-28.52-11.48"/><path class="cls-3" d="M444.25,357.32c.32,11.45-11.93,24.88-27.36,30s-28.2,0-28.52-11.48"/><path class="cls-3" d="M500.12,338.82c.32,11.45-11.93,24.88-27.36,30s-28.2,0-28.52-11.48"/><path class="cls-3" d="M556,320.31c.32,11.45-11.93,24.88-27.36,30s-28.2,0-28.52-11.48"/><path class="cls-3" d="M611.87,301.81c.32,11.45-11.93,24.88-27.36,30s-28.2,0-28.52-11.48"/><path class="cls-3" d="M667.74,283.31c.32,11.45-11.93,24.88-27.36,30s-28.2,0-28.52-11.48"/><path class="cls-3" d="M723.62,264.8c.32,11.45-11.93,24.88-27.36,30s-28.2,0-28.52-11.48"/><path class="cls-3" d="M779.49,246.3c.32,11.45-11.93,24.88-27.36,30s-28.2,0-28.52-11.48"/><path class="cls-3" d="M835.37,227.79c.32,11.45-11.93,24.88-27.36,30s-28.2,0-28.52-11.48"/><path class="cls-3" d="M891.24,209.29c.32,11.45-11.93,24.88-27.36,30s-28.2,0-28.52-11.48"/></g><polygon class="cls-5" points="934.5 316 815.5 237 339.5 393 370.5 534 934.5 316"/><g class="cls-6"><path class="cls-7" d="M328.51,522.29c-.32,11.45,11.93,24.88,27.36,30s28.2,0,28.52-11.48"/><path class="cls-7" d="M272.63,503.79c-.32,11.45,11.93,24.88,27.36,30s28.2,0,28.52-11.48"/><path class="cls-7" d="M216.76,485.28c-.32,11.45,11.93,24.88,27.36,30s28.2,0,28.52-11.48"/><path class="cls-7" d="M160.89,466.78c-.32,11.45,11.93,24.88,27.36,30s28.2,0,28.52-11.48"/><path class="cls-7" d="M105,448.27c-.32,11.45,11.93,24.88,27.36,30s28.2,0,28.52-11.48"/><path class="cls-7" d="M357,512c-.32,11.45,11.93,24.88,27.36,30"/><path class="cls-7" d="M301.11,493.52c-.32,11.45,11.93,24.88,27.36,30s28.2,0,28.52-11.48"/><path class="cls-7" d="M245.24,475c-.32,11.45,11.93,24.88,27.36,30s28.2,0,28.52-11.48"/><path class="cls-7" d="M189.37,456.51c-.32,11.45,11.93,24.88,27.36,30s28.2,0,28.52-11.48"/><path class="cls-7" d="M133.49,438c-.32,11.45,11.93,24.88,27.36,30s28.2,0,28.52-11.48"/><path class="cls-7" d="M105,449.49c15.43,5.11,28.2,0,28.52-11.48"/><path class="cls-7" d="M329.56,484.48c-.32,11.45,11.93,24.88,27.36,30s28.2,0,28.52-11.48"/><path class="cls-7" d="M273.69,466c-.32,11.45,11.93,24.88,27.36,30s28.2,0,28.52-11.48"/><path class="cls-7" d="M217.81,447.47c-.32,11.45,11.93,24.88,27.36,30s28.2,0,28.52-11.48"/><path class="cls-7" d="M161.94,429c-.32,11.45,11.93,24.88,27.36,30s28.2,0,28.52-11.48"/><path class="cls-7" d="M106.07,410.46c-.32,11.45,11.93,24.88,27.36,30s28.2,0,28.52-11.48"/><path class="cls-7" d="M358,474.22c-.32,11.45,11.93,24.88,27.36,30"/><path class="cls-7" d="M302.17,455.71c-.32,11.45,11.93,24.88,27.36,30s28.2,0,28.52-11.48"/><path class="cls-7" d="M246.3,437.21c-.32,11.45,11.93,24.88,27.36,30s28.2,0,28.52-11.48"/><path class="cls-7" d="M190.42,418.71c-.32,11.45,11.93,24.88,27.36,30s28.2,0,28.52-11.48"/><path class="cls-7" d="M134.55,400.2c-.32,11.45,11.93,24.88,27.36,30s28.2,0,28.52-11.48"/><path class="cls-7" d="M106,411.68c15.43,5.11,28.2,0,28.52-11.48"/><path class="cls-7" d="M330.62,446.67c-.32,11.45,11.93,24.88,27.36,30s28.2,0,28.52-11.48"/><path class="cls-7" d="M274.74,428.17c-.32,11.45,11.93,24.88,27.36,30s28.2,0,28.52-11.48"/><path class="cls-7" d="M218.87,409.66c-.32,11.45,11.93,24.88,27.36,30s28.2,0,28.52-11.48"/><path class="cls-7" d="M163,391.16c-.32,11.45,11.93,24.88,27.36,30s28.2,0,28.52-11.48"/><path class="cls-7" d="M107.12,372.65c-.32,11.45,11.93,24.88,27.36,30s28.2,0,28.52-11.48"/><path class="cls-7" d="M359.06,437.63c-.32,11.45,11.93,24.88,27.36,30"/><path class="cls-7" d="M303.19,419.12c-.32,11.45,11.93,24.88,27.36,30s28.2,0,28.52-11.48"/><path class="cls-7" d="M247.32,400.62c-.32,11.45,11.93,24.88,27.36,30s28.2,0,28.52-11.48"/><path class="cls-7" d="M191.44,382.12c-.32,11.45,11.93,24.88,27.36,30s28.2,0,28.52-11.48"/><path class="cls-7" d="M135.57,363.61c-.32,11.45,11.93,24.88,27.36,30s28.2,0,28.52-11.48"/><path class="cls-7" d="M107.05,375.09c15.43,5.11,28.2,0,28.52-11.48"/><path class="cls-7" d="M331.67,408.86c-.32,11.45,11.93,24.88,27.36,30s28.2,0,28.52-11.48"/><path class="cls-7" d="M275.8,390.36c-.32,11.45,11.93,24.88,27.36,30s28.2,0,28.52-11.48"/><path class="cls-7" d="M219.92,371.85c-.32,11.45,11.93,24.88,27.36,30s28.2,0,28.52-11.48"/><path class="cls-7" d="M164,353.35c-.32,11.45,11.93,24.88,27.36,30s28.2,0,28.52-11.48"/><path class="cls-7" d="M108.18,334.84c-.32,11.45,11.93,24.88,27.36,30s28.2,0,28.52-11.48"/><path class="cls-7" d="M360.12,399.82c-.32,11.45,11.93,24.88,27.36,30"/><path class="cls-7" d="M304.24,381.31c-.32,11.45,11.93,24.88,27.36,30s28.2,0,28.52-11.48"/><path class="cls-7" d="M248.37,362.81c-.32,11.45,11.93,24.88,27.36,30s28.2,0,28.52-11.48"/><path class="cls-7" d="M192.5,344.31c-.32,11.45,11.93,24.88,27.36,30s28.2,0,28.52-11.48"/><path class="cls-7" d="M136.62,325.8c-.32,11.45,11.93,24.88,27.36,30s28.2,0,28.52-11.48"/><path class="cls-7" d="M108.11,337.28c15.43,5.11,28.2,0,28.52-11.48"/></g><polygon class="cls-5" points="114.5 454 242.5 362 339.5 393 370.5 534 114.5 454"/><polyline class="cls-3" points="815.5 139 592.83 278 485.5 345 485.5 237 700.5 99 815.5 139 815.5 237"/><polygon class="cls-2" points="773.58 142.17 557.5 278 496.5 252 704.42 119 773.5 142 773.58 142.17"/><line class="cls-7" x1="520.48" y1="272.5" x2="744.5" y2="125"/><line class="cls-7" x1="548.09" y1="219" x2="612.63" y2="241"/><line class="cls-7" x1="658.09" y1="149" x2="722.63" y2="171"/><polygon class="cls-5" points="773.58 142.17 557.5 278 496.5 252 704.42 119 773.5 142 773.58 142.17"/><polygon class="cls-2" points="613.5 511 496.5 752.3 840.5 619 928.5 467 613.5 511"/><line class="cls-5" x1="799.48" y1="149" x2="799.48" y2="222"/><line class="cls-3" x1="775.15" y1="164.11" x2="775.15" y2="230.67"/><line class="cls-3" x1="750.82" y1="179.22" x2="750.82" y2="239.33"/><line class="cls-3" x1="726.49" y1="194.33" x2="726.49" y2="248"/><line class="cls-3" x1="702.16" y1="209.44" x2="702.16" y2="256.67"/><line class="cls-3" x1="677.82" y1="224.56" x2="677.82" y2="265.33"/><line class="cls-3" x1="653.49" y1="239.67" x2="653.49" y2="274"/><line class="cls-3" x1="629.16" y1="254.78" x2="629.16" y2="282.67"/><line class="cls-3" x1="604.83" y1="269.89" x2="604.83" y2="291.33"/><line class="cls-3" x1="580.5" y1="285" x2="580.5" y2="300"/><line class="cls-5" x1="247.5" y1="235" x2="320.5" y2="259"/><line class="cls-5" x1="247.5" y1="251.14" x2="314.21" y2="273.14"/><line class="cls-5" x1="247.5" y1="267.29" x2="307.93" y2="287.29"/><line class="cls-5" x1="247.5" y1="283.43" x2="301.64" y2="301.43"/><line class="cls-5" x1="247.5" y1="299.57" x2="295.36" y2="315.57"/><line class="cls-5" x1="247.5" y1="315.71" x2="289.07" y2="329.71"/><line class="cls-5" x1="247.5" y1="331.86" x2="282.79" y2="343.86"/><line class="cls-5" x1="247.5" y1="348" x2="276.5" y2="358"/><polygon class="cls-3" points="888.62 389.83 985.5 433.02 712.66 539.45 613.84 496.26 888.62 389.83"/><polygon class="cls-3" points="984.69 432.89 713.11 539.12 713.11 551.76 984.69 445.53 984.69 432.89"/><polygon class="cls-3" points="613.5 496.32 713.11 539.12 713.11 551.76 613.5 508.96 613.5 496.32"/><polygon class="cls-3" points="978 448.72 978 616 960.5 625 960.5 455.13 978 448.72"/><polygon class="cls-2" points="960.5 625 949.5 620 949.5 463 960.5 455 960.5 625"/><polygon class="cls-3" points="731 544.72 731 712 713.5 721 713.5 551.13 731 544.72"/><polygon class="cls-2" points="713.5 721 702.5 716 702.5 548 713.5 551 713.5 721"/><polyline class="cls-5" points="618.5 459 713.5 496 984.5 390 896.5 352"/><line class="cls-5" x1="726.19" y1="534" x2="726.19" y2="473"/><line class="cls-5" x1="745.72" y1="526.42" x2="745.72" y2="465.42"/><line class="cls-5" x1="765.24" y1="518.83" x2="765.24" y2="457.83"/><line class="cls-5" x1="784.77" y1="511.25" x2="784.77" y2="450.25"/><line class="cls-5" x1="804.29" y1="503.67" x2="804.29" y2="442.67"/><line class="cls-5" x1="823.82" y1="496.08" x2="823.82" y2="435.08"/><line class="cls-5" x1="843.35" y1="488.5" x2="843.35" y2="427.5"/><line class="cls-5" x1="862.87" y1="480.92" x2="862.87" y2="419.92"/><line class="cls-5" x1="882.4" y1="473.33" x2="882.4" y2="412.33"/><line class="cls-5" x1="901.92" y1="465.75" x2="901.92" y2="404.75"/><line class="cls-5" x1="921.45" y1="458.17" x2="921.45" y2="397.17"/><line class="cls-5" x1="940.97" y1="450.58" x2="940.97" y2="389.58"/><line class="cls-5" x1="960.5" y1="443" x2="960.5" y2="382"/><line class="cls-5" x1="618.5" y1="473" x2="618.5" y2="448"/><line class="cls-5" x1="896.5" y1="364" x2="896.5" y2="342"/><line class="cls-8" x1="151.5" y1="732" x2="151.5" y2="464.19"/><line class="cls-8" x1="201.5" y1="747" x2="201.5" y2="480.33"/><line class="cls-8" x1="142.18" y1="703.02" x2="209.3" y2="724"/><line class="cls-8" x1="142.18" y1="672.6" x2="209.3" y2="693.57"/><line class="cls-8" x1="142.18" y1="642.17" x2="209.3" y2="663.14"/><line class="cls-8" x1="142.18" y1="611.74" x2="209.3" y2="632.71"/><line class="cls-8" x1="142.18" y1="581.31" x2="209.3" y2="602.29"/><line class="cls-8" x1="142.18" y1="550.88" x2="209.3" y2="571.86"/><line class="cls-8" x1="142.18" y1="520.45" x2="209.3" y2="541.43"/><line class="cls-8" x1="142.18" y1="490.02" x2="209.3" y2="511"/><polygon class="cls-5" points="401.5 555.93 419.05 563.61 465.11 548.26 469.5 534 401.5 555.93"/><polygon class="cls-3" points="401.5 555.93 401.5 629.42 417.95 637.1 417.95 563.61 401.5 555.93"/><polygon class="cls-3" points="417.95 563.61 417.95 637.1 465.11 621.74 465.11 548.26 417.95 563.61"/><polygon class="cls-3" points="465.11 619.55 469.5 609.68 469.5 536.19 465.11 548.26 465.11 619.55"/><polygon class="cls-5" points="114.5 454.27 370.5 534.27 370.5 801 114.5 721 114.5 454.27"/><line class="cls-3" x1="465.11" y1="600.5" x2="447.01" y2="627.64"/><line class="cls-3" x1="464.5" y1="571" x2="423.5" y2="633"/><line class="cls-3" x1="458.5" y1="552" x2="417.5" y2="614"/><line class="cls-3" x1="438.11" y1="557.5" x2="417.5" y2="588"/></svg>