<svg xmlns="http://www.w3.org/2000/svg" viewBox="0 0 907.45 784.46"><defs><style>.a{fill:#fff;}.b{fill:none;stroke:#000;stroke-miterlimit:10;stroke-width:3px;}</style></defs><title>black-lodge-1</title><rect class="a" width="907.45" height="784.46"/><polygon class="b" points="151.89 397.89 301.39 277.39 437.39 456.89 151.89 397.89"/><line class="b" x1="169.37" y1="401.5" x2="310.09" y2="288.86"/><polyline class="b" points="151.89 402.89 151.89 552.39 162.89 556.39 164.89 405.5"/><polyline class="b" points="162.89 556.39 171.89 545.89 176.09 406.89"/><polyline class="b" points="151.89 397.89 151.89 402.89 440.39 463.89 437.39 456.89"/><polyline class="b" points="443.39 463.89 440.39 585.39 425.39 596.89 414.39 588.39 420.13 459.61"/><line class="b" x1="432.89" y1="463.89" x2="425.39" y2="596.89"/><polyline class="b" points="440.39 463.89 624.39 349.89 488.39 217.89 301.39 277.39"/><polygon class="b" points="310.08 315.89 250.89 362.89 286.39 414.89 343.39 380.39 310.08 315.89"/><polyline class="b" points="314.26 323.97 260.39 362.89 295.39 409.89"/><line class="b" x1="250.89" y1="362.89" x2="263.39" y2="362.89"/><polyline class="b" points="151.89 519.39 109.89 562.89 437.39 628.89 479.39 548.39 440.39 538.39"/><line class="b" x1="414.39" y1="532.89" x2="173.64" y2="487.87"/><polyline class="b" points="451.69 456.89 448.96 540.58 621.89 421.89 624.39 349.89"/><polyline class="b" points="210.63 583.19 189.89 602.89 189.89 628.89 169.37 643.89 169.49 664.39 274.89 703.89 274.89 679.89 297.14 668.89 297.14 635.39 320.5 605.33"/><line class="b" x1="189.89" y1="602.89" x2="297.14" y2="635.39"/><line class="b" x1="189.89" y1="628.89" x2="297.14" y2="668.89"/><line class="b" x1="169.37" y1="643.89" x2="274.89" y2="679.89"/><polyline class="b" points="349.24 611.12 355.39 668.89 274.89 707.89"/><polyline class="b" points="109.89 562.89 105.89 596.89 189.89 613.89"/><polyline class="b" points="352.19 638.86 437.39 655.89 482.39 577.89 479.39 548.39"/><line class="b" x1="437.39" y1="628.89" x2="437.39" y2="655.89"/><polyline class="b" points="177.48 377.26 169.49 151.89 185.39 140.89 204.89 150.89 224.89 140.89 253.39 152.39 253.39 315.89"/><polyline class="b" points="189.58 143.04 203.89 137.39 214.89 145.89 224.89 140.89 237.28 145.89 246.89 140.89 253.39 152.39"/><path class="b" d="M170,165.92s36.9,22.47,83.4,6.47"/><path class="b" d="M171.25,201.41s38.65,21,82.15,5.48"/><path class="b" d="M172.41,234.37s30,23.52,81,11"/><path class="b" d="M173.64,268.9s40.25,22,79.75,4.49"/><path class="b" d="M174.77,300.89s39.62,15,78.62,3"/><path class="b" d="M175.82,330.41s31,12.06,52,6.27"/><path class="b" d="M175.82,362.89s3.46,4.85,20.52-.83"/><polyline class="b" points="253.39 217.89 477.39 140.89 513.39 170.89"/><polyline class="b" points="253.39 266.39 513.39 180.39 513.39 170.89 253.39 256.89"/><polyline class="b" points="267.49 304.72 267.49 277.39 322.89 256.89 322.89 268.9"/><polyline class="b" points="363.39 256.89 360.89 246.39 443.39 219.39 443.39 232.21"/><line class="b" x1="505.44" y1="183.02" x2="501.89" y2="231.37"/><polyline class="b" points="464.72 225.42 462.89 213.69 504.17 201.41"/><path class="b" d="M477.39,140.89"/><polyline class="b" points="437.39 154.64 440.39 75.39 708.56 122.89 701.89 402.89 622.31 409.89"/><polyline class="b" points="708.56 122.89 797.89 207.19 797.89 377.26"/><line class="b" x1="701.89" y1="402.89" x2="797.89" y2="377.26"/><polyline class="b" points="260.39 504.09 260.39 437.22 320.5 451.89 322.89 515.78"/><line class="b" x1="271.23" y1="439.87" x2="271.23" y2="506.12"/><polygon class="b" points="474.56 459.61 603.89 377.26 603.89 418.43 466.56 515.78 474.56 459.61"/><path class="b" d="M551.22,234.37s-8.67-96.81,56.67-97,53.33,119.5,53.33,119.5Z"/><path class="b" d="M624.39,140.34s-59.59,26.7-50.74,97.8"/><line class="b" x1="580.61" y1="144.89" x2="606.47" y2="152.39"/><line class="b" x1="560.02" y1="170.89" x2="584.53" y2="178.14"/><line class="b" x1="552.21" y1="201.41" x2="573.65" y2="210.52"/><line class="b" x1="550.86" y1="225.42" x2="573.65" y2="238.14"/><polygon class="b" points="532.56 231.37 687.23 263.22 687.23 284.56 532.56 253.22 532.56 231.37"/><line class="b" x1="532.56" y1="231.37" x2="550.84" y2="217.89"/><polyline class="b" points="662.09 241.71 697.23 249.05 697.23 280.8 687.23 284.56"/><line class="b" x1="687.22" y1="263.22" x2="697.22" y2="249.05"/><polyline class="b" points="720.62 397.89 720.62 249.05 786.56 300.89 782.59 381.35"/><line class="b" x1="720.62" y1="280.8" x2="786.56" y2="315.89"/><polyline class="b" points="437.39 122.89 491.89 109.89 537.21 157.89 515.56 243.71 529.23 165.92 485.89 122.89 437.39 137.39"/><polyline class="b" points="651.18 407.35 662.09 377.26 637.23 340.89 646.56 315.89"/><polyline class="b" points="654.61 397.89 637.23 385.22 642.56 373.89"/><polyline class="b" points="655.17 367.14 679.66 352.56 667.41 345.18 687.23 327.22"/><polyline class="b" points="671.2 405.59 679.66 390.07 658.96 385.89"/><line class="b" x1="639.67" y1="334.33" x2="628.56" y2="323.97"/><line class="b" x1="645.92" y1="357.22" x2="654.61" y2="345.18"/><line class="b" x1="645.92" y1="357.22" x2="639.67" y2="357.22"/><polyline class="b" points="669.31 387.98 679.66 373.89 674.48 367.14"/><polygon class="b" points="355.89 288.86 448.96 422.56 479.39 401.5 383.39 274.52 355.89 288.86"/><polyline class="b" points="374.56 277.39 466.56 401.5 440.39 414.89"/><line class="b" x1="479.39" y1="401.5" x2="466.56" y2="401.5"/><polygon class="b" points="437.29 253.13 468.96 240.07 561.7 359.89 529.23 377.98 437.29 253.13"/><polyline class="b" points="460.39 243.61 545.89 357.14 524.17 367.56"/><line class="b" x1="561.7" y1="359.89" x2="545.89" y2="357.14"/><polygon points="271.23 506.12 271.23 439.87 320.5 451.89 322.89 515.78 271.23 506.12"/><polygon points="295.39 409.89 343.39 380.39 314.26 323.97 260.39 362.89 295.39 409.89"/><polygon points="437.29 253.13 524.17 367.56 545.89 357.14 460.39 243.61 437.29 253.13"/><polygon points="189.58 143.04 204.89 150.89 214.89 145.89 203.89 137.39 189.58 143.04"/><polygon points="237.28 145.89 246.89 140.89 253.39 152.39 237.28 145.89"/><polygon points="443.39 413.35 355.89 288.86 374.56 277.39 466.56 401.5 443.39 413.35"/><polygon points="720.62 395.74 720.62 280.8 786.56 315.89 782.59 381.35 720.62 395.74"/><path d="M573.65,238.14s-11.43-70.68,50.74-97.8c0,0,44.17,8.17,36.83,116.55Z"/><polygon points="267.49 302.89 301.39 277.39 322.89 270.55 322.89 256.89 267.49 277.39 267.49 302.89"/><polygon points="363.39 256.89 360.89 246.39 443.39 219.39 443.39 231.37 363.39 256.89"/><polygon points="464.72 225.42 462.89 213.69 504.17 201.41 501.89 231.37 487.3 219.39 464.72 225.42"/><polygon points="569.24 425.73 514.89 460.93 514.89 479.68 571.99 439.21 569.24 425.73"/><polygon points="568.59 422.57 564.47 402.36 513.39 434.88 514.89 434.88 514.89 457.35 568.59 422.57"/><polygon points="567.29 401.2 571.3 420.82 603.08 400.24 603.89 401.5 603.89 377.26 565.82 401.5 567.29 401.2"/><polygon points="511.89 459.29 511.89 435.84 474.56 459.61 470.81 485.9 511.89 459.29"/><polygon points="571.94 423.98 575.32 440.52 527.8 474.21 603.89 422.56 603.89 403.29 571.94 423.98"/><polygon points="511.89 462.87 471.35 489.13 470.53 487.87 466.56 515.78 511.89 485 511.89 462.87"/></svg>