<svg id="Layer_1" data-name="Layer 1" xmlns="http://www.w3.org/2000/svg" viewBox="0 0 800 800"><defs><style>.cls-1{fill:#fff;}.cls-2{fill:none;stroke:#000;stroke-linejoin:bevel;stroke-width:13px;}</style></defs><title>canvas (82)</title><polyline class="cls-1" points="99.44 307.59 99.88 314.66 99.31 321.75 100.31 328.82 99.94 335.91 99.45 342.99 99.72 350.08 99.41 357.16 99.88 364.25 99.24 371.32 99.05 378.4 98.94 385.48 98.83 392.56 98.97 399.66 98.6 406.74 98.22 413.81 98.17 420.91 98.04 428 97.46 435.07 96.75 442.13 95.57 449.13 95.54 456.26 93.97 463.19 92.8 470.16 91.15 477.04 88.4 483.47 87.4 490.57 88.73 497.83 93.19 503.77 97.96 509.38 102.85 514.93 108.32 519.91 114.41 524.13 119.94 529.04 126.04 533.21 132.21 537.25 138.07 541.76 144.39 545.57 150.61 549.77 152.75 542.86 155.15 536.17 156.19 529.14 158.17 522.32 158.89 515.26 159.84 508.25 160.97 501.27 162.62 494.36 163.08 487.28 164.08 480.28 165 473.26 166.32 466.3 166.8 459.22 167.75 452.21 168.85 445.2 169.91 438.19 169.97 431.07 171.21 424.08 172.04 417.05 172.76 410.01 172.86 402.9 173.54 395.85 174.93 388.87 175.06 381.77 176.29 374.77 175.99 367.64 176.59 360.6 177.63 353.47 177.39 360.88 177.84 368.17 178.23 375.47 177.83 382.77 178.42 390.06 178.72 397.35 178.67 404.65 178.64 411.96 179.64 419.23 179.94 426.51 180.08 433.81 180.29 441.11 180.62 448.4 181 455.69 181.15 463 181.54 470.3 182.96 477.52 183.57 484.79 183.98 492.09 185.07 499.31 184.95 506.68 186.6 513.83 187.21 521.12 188.48 528.32 189.91 535.47 191.15 542.68 193.56 549.66 200.75 549.74 207.91 549.81 215.08 549.75 222.24 549.99 229.41 549.78 236.57 549.52 243.74 549.74 250.91 549.39 258.07 549.1 265.24 549.77 272.41 549.59 279.57 549.42 286.74 549.22 293.91 549.61 301.07 549.99 308.24 549.69 315.41 549.52 322.57 549.69 329.74 549.63 336.91 549.82 344.08 549.72 351.25 549.26 358.41 549.44 365.58 549.34 372.75 549.66 379.92 549.29 387.08 549.59 394.25 549.76 401.42 549.59 408.59 549.95 415.76 550.02 422.93 549.92 430.1 549.44 437.26 550.08 444.44 549.93 451.6 550.08 458.77 549.27 465.94 549.97 473.11 549.93 480.28 549.67 487.45 549.42 494.62 549.1 501.79 549.29 508.95 549.19 516.12 549.44 523.29 549.1 530.45 549.18 537.62 549.27 544.79 549.53 551.96 549.57 559.13 549.11 566.29 549.29 573.46 549.37 580.63 549.16 587.8 549.49 594.98 549.55 602.15 549.17 609.32 549.35 616.49 549.73 623.66 549.49 630.84 549.77 638.01 549.47 645.18 549.51 652.35 549.94 659.52 549.68 666.69 549.36 673.87 549.84 681.04 549.75 688.21 549.9 695.4 549.15 702.54 549.49 701.38 542.39 699.31 535.36 698.58 528.09 697.01 520.96 696.36 513.68 694.88 506.52 694.11 499.27 693.31 492.02 692.67 484.75 692.69 477.43 691.24 470.23 691.01 462.94 690.62 455.66 690.88 448.35 690.51 441.07 690 433.79 689.56 426.5 689.9 419.2 689.44 411.91 689.3 404.61 690.08 397.33 689.58 390.02 689.85 382.73 690.12 375.44 691.04 368.18 690.74 360.85 691.87 353.6"/><polyline class="cls-2" points="99.44 307.59 99.88 314.66 99.31 321.75 100.31 328.82 99.94 335.91 99.45 342.99 99.72 350.08 99.41 357.16 99.88 364.25 99.24 371.32 99.05 378.4 98.94 385.48 98.83 392.56 98.97 399.66 98.6 406.74 98.22 413.81 98.17 420.91 98.04 428 97.46 435.07 96.75 442.13 95.57 449.13 95.54 456.26 93.97 463.19 92.8 470.16 91.15 477.04 88.4 483.47 87.4 490.57 88.73 497.83 93.19 503.77 97.96 509.38 102.85 514.93 108.32 519.91 114.41 524.13 119.94 529.04 126.04 533.21 132.21 537.25 138.07 541.76 144.39 545.57 150.61 549.77 152.75 542.86 155.15 536.17 156.19 529.14 158.17 522.32 158.89 515.26 159.84 508.25 160.97 501.27 162.62 494.36 163.08 487.28 164.08 480.28 165 473.26 166.32 466.3 166.8 459.22 167.75 452.21 168.85 445.2 169.91 438.19 169.97 431.07 171.21 424.08 172.04 417.05 172.76 410.01 172.86 402.9 173.54 395.85 174.93 388.87 175.06 381.77 176.29 374.77 175.99 367.64 176.59 360.6 177.63 353.47 177.39 360.88 177.84 368.17 178.23 375.47 177.83 382.77 178.42 390.06 178.72 397.35 178.67 404.65 178.64 411.96 179.64 419.23 179.94 426.51 180.08 433.81 180.29 441.11 180.62 448.4 181 455.69 181.15 463 181.54 470.3 182.96 477.52 183.57 484.79 183.98 492.09 185.07 499.31 184.95 506.68 186.6 513.83 187.21 521.12 188.48 528.32 189.91 535.47 191.15 542.68 193.56 549.66 200.75 549.74 207.91 549.81 215.08 549.75 222.24 549.99 229.41 549.78 236.57 549.52 243.74 549.74 250.91 549.39 258.07 549.1 265.24 549.77 272.41 549.59 279.57 549.42 286.74 549.22 293.91 549.61 301.07 549.99 308.24 549.69 315.41 549.52 322.57 549.69 329.74 549.63 336.91 549.82 344.08 549.72 351.25 549.26 358.41 549.44 365.58 549.34 372.75 549.66 379.92 549.29 387.08 549.59 394.25 549.76 401.42 549.59 408.59 549.95 415.76 550.02 422.93 549.92 430.1 549.44 437.26 550.08 444.44 549.93 451.6 550.08 458.77 549.27 465.94 549.97 473.11 549.93 480.28 549.67 487.45 549.42 494.62 549.1 501.79 549.29 508.95 549.19 516.12 549.44 523.29 549.1 530.45 549.18 537.62 549.27 544.79 549.53 551.96 549.57 559.13 549.11 566.29 549.29 573.46 549.37 580.63 549.16 587.8 549.49 594.98 549.55 602.15 549.17 609.32 549.35 616.49 549.73 623.66 549.49 630.84 549.77 638.01 549.47 645.18 549.51 652.35 549.94 659.52 549.68 666.69 549.36 673.87 549.84 681.04 549.75 688.21 549.9 695.4 549.15 702.54 549.49 701.38 542.39 699.31 535.36 698.58 528.09 697.01 520.96 696.36 513.68 694.88 506.52 694.11 499.27 693.31 492.02 692.67 484.75 692.69 477.43 691.24 470.23 691.01 462.94 690.62 455.66 690.88 448.35 690.51 441.07 690 433.79 689.56 426.5 689.9 419.2 689.44 411.91 689.3 404.61 690.08 397.33 689.58 390.02 689.85 382.73 690.12 375.44 691.04 368.18 690.74 360.85 691.87 353.6"/><polygon class="cls-1" points="691.91 353.2 684.34 353.01 677.1 353.3 669.86 353.43 662.63 353.02 655.39 352.93 648.16 353.13 640.92 353.53 633.68 353.57 626.45 353.58 619.21 353.42 611.97 353.32 604.74 352.64 597.5 352.83 590.26 353.57 583.02 352.68 575.79 352.91 568.55 353 561.31 353.07 554.07 353.52 546.84 353.16 539.6 353.55 532.36 353.11 525.12 353.06 517.88 352.73 510.64 352.96 503.41 353.53 496.17 352.64 488.93 352.6 481.69 352.74 474.45 353.35 467.21 353.49 459.97 352.81 452.73 353.25 445.5 352.94 438.25 353.16 431.02 353.23 423.78 353.15 416.54 353.02 409.3 352.87 402.06 353.53 394.82 353.28 387.58 352.67 380.34 352.64 373.11 353.36 365.87 352.72 358.63 353.55 351.39 353.43 344.16 353.49 336.92 352.77 329.68 353.26 322.44 353.02 315.2 352.92 307.96 352.8 300.72 353.4 293.48 353.1 286.24 352.85 278.99 353.49 271.75 353.01 264.51 353.06 257.27 353.47 250.02 353.52 242.78 352.95 235.54 353.04 228.3 353.25 221.06 353.23 213.81 353.16 206.57 352.89 199.32 353.04 192.08 353.25 184.83 352.98 177.53 353.26 171.44 349.83 165.74 345.81 159.75 342.31 153.75 338.81 147.43 335.87 141.54 332.18 135.71 328.38 129.45 325.33 123.61 321.55 117.6 318.09 111.58 314.61 105.73 310.84 99.5 307.56 106.82 307.58 114.05 307.44 121.29 307.26 128.53 307.52 135.76 308.06 143 307.85 150.23 307.7 157.47 307.41 164.71 307.56 171.94 307.1 179.18 307.7 186.42 307.68 193.65 308 200.89 307.1 208.13 307.54 215.37 307.4 222.6 307.87 229.84 307.64 237.08 307.45 244.32 307.34 251.56 307.66 258.79 307.28 266.03 307.41 273.27 307.39 280.51 307.48 287.75 307.48 294.99 307.49 302.23 307.56 309.46 307.26 316.7 308.02 323.94 307.92 331.18 307.35 338.42 307.69 345.66 307.38 352.9 307.53 360.14 307.97 367.38 307.13 374.62 308.06 381.86 307.84 389.1 307.13 396.34 307.72 403.58 307.55 410.81 307.55 418.05 307.79 425.29 307.85 432.52 308 439.76 307.52 447 307.75 454.24 307.28 461.48 307.11 468.72 307.15 475.96 307.33 483.2 307.17 490.44 307.49 497.68 307.18 504.92 308.07 512.16 307.98 519.4 307.95 526.64 307.8 533.89 307.78 541.13 307.91 548.37 307.81 555.61 307.12 562.86 307.74 570.1 307.57 577.34 307.98 584.59 307.95 591.83 307.43 599.08 307.63 606.33 307.71 613.53 307.78 619.55 311.12 625.8 314.18 631.5 318.2 637.33 321.99 643.75 324.76 649.75 328.26 655.47 332.24 661.53 335.63 667.57 339.06 673.33 342.97 679.72 345.81 685.65 349.44 691.91 353.2"/><polygon class="cls-2" points="691.91 353.2 684.34 353.01 677.1 353.3 669.86 353.43 662.63 353.02 655.39 352.93 648.16 353.13 640.92 353.53 633.68 353.57 626.45 353.58 619.21 353.42 611.97 353.32 604.74 352.64 597.5 352.83 590.26 353.57 583.02 352.68 575.79 352.91 568.55 353 561.31 353.07 554.07 353.52 546.84 353.16 539.6 353.55 532.36 353.11 525.12 353.06 517.88 352.73 510.64 352.96 503.41 353.53 496.17 352.64 488.93 352.6 481.69 352.74 474.45 353.35 467.21 353.49 459.97 352.81 452.73 353.25 445.5 352.94 438.25 353.16 431.02 353.23 423.78 353.15 416.54 353.02 409.3 352.87 402.06 353.53 394.82 353.28 387.58 352.67 380.34 352.64 373.11 353.36 365.87 352.72 358.63 353.55 351.39 353.43 344.16 353.49 336.92 352.77 329.68 353.26 322.44 353.02 315.2 352.92 307.96 352.8 300.72 353.4 293.48 353.1 286.24 352.85 278.99 353.49 271.75 353.01 264.51 353.06 257.27 353.47 250.02 353.52 242.78 352.95 235.54 353.04 228.3 353.25 221.06 353.23 213.81 353.16 206.57 352.89 199.32 353.04 192.08 353.25 184.83 352.98 177.53 353.26 171.44 349.83 165.74 345.81 159.75 342.31 153.75 338.81 147.43 335.87 141.54 332.18 135.71 328.38 129.45 325.33 123.61 321.55 117.6 318.09 111.58 314.61 105.73 310.84 99.5 307.56 106.82 307.58 114.05 307.44 121.29 307.26 128.53 307.52 135.76 308.06 143 307.85 150.23 307.7 157.47 307.41 164.71 307.56 171.94 307.1 179.18 307.7 186.42 307.68 193.65 308 200.89 307.1 208.13 307.54 215.37 307.4 222.6 307.87 229.84 307.64 237.08 307.45 244.32 307.34 251.56 307.66 258.79 307.28 266.03 307.41 273.27 307.39 280.51 307.48 287.75 307.48 294.99 307.49 302.23 307.56 309.46 307.26 316.7 308.02 323.94 307.92 331.18 307.35 338.42 307.69 345.66 307.38 352.9 307.53 360.14 307.97 367.38 307.13 374.62 308.06 381.86 307.84 389.1 307.13 396.34 307.72 403.58 307.55 410.81 307.55 418.05 307.79 425.29 307.85 432.52 308 439.76 307.52 447 307.75 454.24 307.28 461.48 307.11 468.72 307.15 475.96 307.33 483.2 307.17 490.44 307.49 497.68 307.18 504.92 308.07 512.16 307.98 519.4 307.95 526.64 307.8 533.89 307.78 541.13 307.91 548.37 307.81 555.61 307.12 562.86 307.74 570.1 307.57 577.34 307.98 584.59 307.95 591.83 307.43 599.08 307.63 606.33 307.71 613.53 307.78 619.55 311.12 625.8 314.18 631.5 318.2 637.33 321.99 643.75 324.76 649.75 328.26 655.47 332.24 661.53 335.63 667.57 339.06 673.33 342.97 679.72 345.81 685.65 349.44 691.91 353.2"/><polygon points="691.24 662.97 684.34 663.56 677.1 662.6 669.86 662.81 662.63 662.6 655.39 663.08 648.16 663.02 640.92 663.25 633.68 663.13 626.45 663.3 619.21 662.98 611.97 662.75 604.74 662.95 597.5 662.63 590.26 663.26 583.02 663.53 575.79 663.02 568.55 663.03 561.31 663.3 554.07 663.29 546.84 662.59 539.6 663.29 532.36 663.5 525.12 662.77 517.88 663.58 510.64 662.66 503.41 663.12 496.17 663.54 488.93 663.51 481.69 662.83 474.45 663.34 467.21 663.42 459.97 662.78 452.73 662.85 445.5 663.27 438.25 663.3 431.02 663.14 423.78 662.95 416.54 663.36 409.3 663.52 402.06 663.38 394.82 662.9 387.58 663.11 380.34 662.72 373.11 663.1 365.87 662.76 358.63 663.56 351.39 663.38 344.16 663.42 336.92 662.78 329.68 663.29 322.44 662.89 315.2 662.61 307.96 663.32 300.72 663.56 293.48 663.31 286.24 663.45 278.99 663.32 271.75 663.26 264.51 662.73 257.27 663.42 250.02 663.46 242.78 663.34 235.54 663.49 228.3 663.29 221.06 663.45 213.81 663.33 206.57 662.91 199.32 663.46 192.08 663.53 184.83 662.65 177.59 663.01 171.38 659.92 165.8 655.7 159.43 652.84 153.69 648.92 147.6 645.57 141.42 642.39 135.63 638.54 129.65 634.99 123.5 631.76 117.42 628.4 111.55 624.67 105.56 621.13 99.81 617.67 106.82 617.97 114.05 617.27 121.29 617.94 128.53 617.23 135.76 617.57 143 617.31 150.23 617.22 157.47 617.53 164.71 617.96 171.94 617.22 179.18 617.36 186.42 617.25 193.65 617.25 200.89 617.66 208.13 617.27 215.37 617.47 222.6 617.59 229.84 617.27 237.08 617.79 244.32 617.32 251.56 618.07 258.79 617.81 266.03 617.83 273.27 617.79 280.51 617.62 287.75 618.05 294.99 617.28 302.23 617.11 309.46 617.37 316.7 617.56 323.94 617.98 331.18 617.69 338.42 617.49 345.66 617.96 352.9 617.34 360.14 617.88 367.38 617.85 374.62 617.76 381.86 617.99 389.1 617.38 396.34 617.66 403.58 617.35 410.81 618.06 418.05 617.72 425.29 617.34 432.52 617.25 439.76 617.35 447 617.52 454.24 617.77 461.48 617.18 468.72 617.12 475.96 618.08 483.2 617.32 490.44 617.13 497.68 617.7 504.92 617.93 512.16 617.6 519.4 617.94 526.64 617.65 533.89 617.77 541.13 617.45 548.37 617.47 555.61 617.66 562.86 617.76 570.1 618.06 577.34 618.07 584.59 617.97 591.83 617.25 599.08 617.85 606.33 617.3 613.6 617.49 619.35 621.46 625.42 624.84 631.55 628.12 637.74 631.28 643.7 634.85 649.67 638.39 655.33 642.48 661.53 645.62 667.65 648.93 673.68 652.36 679.64 655.94 685.4 659.86 691.24 662.97"/><polygon class="cls-2" points="691.24 662.97 684.34 663.56 677.1 662.6 669.86 662.81 662.63 662.6 655.39 663.08 648.16 663.02 640.92 663.25 633.68 663.13 626.45 663.3 619.21 662.98 611.97 662.75 604.74 662.95 597.5 662.63 590.26 663.26 583.02 663.53 575.79 663.02 568.55 663.03 561.31 663.3 554.07 663.29 546.84 662.59 539.6 663.29 532.36 663.5 525.12 662.77 517.88 663.58 510.64 662.66 503.41 663.12 496.17 663.54 488.93 663.51 481.69 662.83 474.45 663.34 467.21 663.42 459.97 662.78 452.73 662.85 445.5 663.27 438.25 663.3 431.02 663.14 423.78 662.95 416.54 663.36 409.3 663.52 402.06 663.38 394.82 662.9 387.58 663.11 380.34 662.72 373.11 663.1 365.87 662.76 358.63 663.56 351.39 663.38 344.16 663.42 336.92 662.78 329.68 663.29 322.44 662.89 315.2 662.61 307.96 663.32 300.72 663.56 293.48 663.31 286.24 663.45 278.99 663.32 271.75 663.26 264.51 662.73 257.27 663.42 250.02 663.46 242.78 663.34 235.54 663.49 228.3 663.29 221.06 663.45 213.81 663.33 206.57 662.91 199.32 663.46 192.08 663.53 184.83 662.65 177.59 663.01 171.38 659.92 165.8 655.7 159.43 652.84 153.69 648.92 147.6 645.57 141.42 642.39 135.63 638.54 129.65 634.99 123.5 631.76 117.42 628.4 111.55 624.67 105.56 621.13 99.81 617.67 106.82 617.97 114.05 617.27 121.29 617.94 128.53 617.23 135.76 617.57 143 617.31 150.23 617.22 157.47 617.53 164.71 617.96 171.94 617.22 179.18 617.36 186.42 617.25 193.65 617.25 200.89 617.66 208.13 617.27 215.37 617.47 222.6 617.59 229.84 617.27 237.08 617.79 244.32 617.32 251.56 618.07 258.79 617.81 266.03 617.83 273.27 617.79 280.51 617.62 287.75 618.05 294.99 617.28 302.23 617.11 309.46 617.37 316.7 617.56 323.94 617.98 331.18 617.69 338.42 617.49 345.66 617.96 352.9 617.34 360.14 617.88 367.38 617.85 374.62 617.76 381.86 617.99 389.1 617.38 396.34 617.66 403.58 617.35 410.81 618.06 418.05 617.72 425.29 617.34 432.52 617.25 439.76 617.35 447 617.52 454.24 617.77 461.48 617.18 468.72 617.12 475.96 618.08 483.2 617.32 490.44 617.13 497.68 617.7 504.92 617.93 512.16 617.6 519.4 617.94 526.64 617.65 533.89 617.77 541.13 617.45 548.37 617.47 555.61 617.66 562.86 617.76 570.1 618.06 577.34 618.07 584.59 617.97 591.83 617.25 599.08 617.85 606.33 617.3 613.6 617.49 619.35 621.46 625.42 624.84 631.55 628.12 637.74 631.28 643.7 634.85 649.67 638.39 655.33 642.48 661.53 645.62 667.65 648.93 673.68 652.36 679.64 655.94 685.4 659.86 691.24 662.97"/><polyline class="cls-1" points="227.11 375.54 226.84 382.72 226.18 389.87 225.9 397.05 225.84 404.23 225.65 411.4 224.55 418.54 224.9 425.73 224.3 432.89 223.95 440.06 224 447.25 224.23 454.43 223.9 461.6 223.75 468.78 223.35 475.96 223.72 483.14 224.25 490.31 224 497.51 224.04 504.7 225.35 511.82 225.59 518.99 225.89 526.18 226.6 533.32 227.13 540.5 228.4 547.58 230.17 554.55 231.61 561.55 238.45 563.53 245.37 565.38 252.52 565.95 259.58 567.01 266.69 567.89 273.84 568.13 281 568.48 288.12 567.42 295.29 567.36 302.4 566.46 309.48 565.41 316.58 564.39 323.49 562.46 330.45 560.77 337.21 558.39 344.04 556.25 351.03 554.54 357.41 551.15 364.34 548.8 371.27 546.44 378.35 544.6 385.57 543.42 392.67 541.67 399.94 540.94 407.18 540 414.35 538.38 421.65 537.81 428.99 538.26 436.27 537.44 443.58 537.88 450.9 537.47 458.2 537.97 465.47 538.78 472.76 539.24 480.05 539.73 487.32 540.44 494.52 541.74 501.81 542.32 508.92 544.1 516.16 545.08 523.42 546.01 530.51 547.79 537.46 550.01"/><polyline class="cls-2" points="227.11 375.54 226.84 382.72 226.18 389.87 225.9 397.05 225.84 404.23 225.65 411.4 224.55 418.54 224.9 425.73 224.3 432.89 223.95 440.06 224 447.25 224.23 454.43 223.9 461.6 223.75 468.78 223.35 475.96 223.72 483.14 224.25 490.31 224 497.51 224.04 504.7 225.35 511.82 225.59 518.99 225.89 526.18 226.6 533.32 227.13 540.5 228.4 547.58 230.17 554.55 231.61 561.55 238.45 563.53 245.37 565.38 252.52 565.95 259.58 567.01 266.69 567.89 273.84 568.13 281 568.48 288.12 567.42 295.29 567.36 302.4 566.46 309.48 565.41 316.58 564.39 323.49 562.46 330.45 560.77 337.21 558.39 344.04 556.25 351.03 554.54 357.41 551.15 364.34 548.8 371.27 546.44 378.35 544.6 385.57 543.42 392.67 541.67 399.94 540.94 407.18 540 414.35 538.38 421.65 537.81 428.99 538.26 436.27 537.44 443.58 537.88 450.9 537.47 458.2 537.97 465.47 538.78 472.76 539.24 480.05 539.73 487.32 540.44 494.52 541.74 501.81 542.32 508.92 544.1 516.16 545.08 523.42 546.01 530.51 547.79 537.46 550.01"/><polyline class="cls-1" points="411.8 401.58 411.23 408.92 411.24 416.25 411.38 423.58 411.18 430.91 412.07 438.24 411.94 445.58 411.89 452.9 411.95 460.24 411.71 467.57 411.97 474.9 411.21 482.24 411.47 489.57 411.77 496.9 411.65 504.24 411.51 511.6 418.16 514.65 425.11 516.77 431.92 519.25 438.82 521.48 445.46 524.43 452.23 527.01 459.07 529.4 465.99 531.58 472.9 533.77 479.7 536.29 486.51 538.79 493.72 540.05 500.56 542.46 507.6 544.22 514.51 546.4 521.54 548.2 528.55 550.04 535.49 552.2 542.55 553.87 549.74 554.91 556.88 556.17 563.95 557.89 571.18 558.49 578.37 559.49 585.62 559.49 592.85 560.14 599.99 559.49 601.72 552.4 603.45 545.21 604.24 537.86 604.68 530.49 604.99 523.13 605.65 515.77 605.9 508.39 605.15 501.03 605.45 493.64 604.53 486.31 604.4 478.92 603.82 471.56 602.7 464.49 602.69 457.32 601.85 450.21 601.81 443.06 601.87 435.92 601.05 428.77 601.99 421.64 601.88 414.49 601.65 407.33 602.07 400.19 602.9 393.08 603.71 385.98 604.04 378.84 605.13 371.77 605.88 364.68 606.57 357.58"/><polyline class="cls-2" points="411.8 401.58 411.23 408.92 411.24 416.25 411.38 423.58 411.18 430.91 412.07 438.24 411.94 445.58 411.89 452.9 411.95 460.24 411.71 467.57 411.97 474.9 411.21 482.24 411.47 489.57 411.77 496.9 411.65 504.24 411.51 511.6 418.16 514.65 425.11 516.77 431.92 519.25 438.82 521.48 445.46 524.43 452.23 527.01 459.07 529.4 465.99 531.58 472.9 533.77 479.7 536.29 486.51 538.79 493.72 540.05 500.56 542.46 507.6 544.22 514.51 546.4 521.54 548.2 528.55 550.04 535.49 552.2 542.55 553.87 549.74 554.91 556.88 556.17 563.95 557.89 571.18 558.49 578.37 559.49 585.62 559.49 592.85 560.14 599.99 559.49 601.72 552.4 603.45 545.21 604.24 537.86 604.68 530.49 604.99 523.13 605.65 515.77 605.9 508.39 605.15 501.03 605.45 493.64 604.53 486.31 604.4 478.92 603.82 471.56 602.7 464.49 602.69 457.32 601.85 450.21 601.81 443.06 601.87 435.92 601.05 428.77 601.99 421.64 601.88 414.49 601.65 407.33 602.07 400.19 602.9 393.08 603.71 385.98 604.04 378.84 605.13 371.77 605.88 364.68 606.57 357.58"/><polyline class="cls-1" points="152.97 380.62 152.16 387.93 150.55 395.14 150.26 402.5 149.43 409.8 148.01 417.03 147.16 424.33 145.85 431.57 145.18 438.89 143.73 446.1 142.93 453.42 142.33 460.77 140.94 468 139.07 475.13 138.36 482.48 136.31 489.57 135.29 496.88 133.33 503.98 131.24 511.04 128.24 517.76 125.82 524.72 122.4 529.93 117.27 533.43 111.55 535.32 104.59 533.67 99.09 528.85 94.02 523.65 89.15 518.21 86.99 511.86 90.84 506.14 93.62 499.81 96.85 493.71 98.38 486.98 100.2 480.33 100.43 473.42 99.77 466.55"/><polyline class="cls-2" points="152.97 380.62 152.16 387.93 150.55 395.14 150.26 402.5 149.43 409.8 148.01 417.03 147.16 424.33 145.85 431.57 145.18 438.89 143.73 446.1 142.93 453.42 142.33 460.77 140.94 468 139.07 475.13 138.36 482.48 136.31 489.57 135.29 496.88 133.33 503.98 131.24 511.04 128.24 517.76 125.82 524.72 122.4 529.93 117.27 533.43 111.55 535.32 104.59 533.67 99.09 528.85 94.02 523.65 89.15 518.21 86.99 511.86 90.84 506.14 93.62 499.81 96.85 493.71 98.38 486.98 100.2 480.33 100.43 473.42 99.77 466.55"/><polyline points="154.02 538.73 160.46 534.69 165.14 528.43 168.05 521.17 171.49 514.13 174.03 506.71 175.17 499.54 177.17 492.59 178.17 485.44 179.11 478.29 180.45 471.16 180.39 463.91 179.9 456.52 175.83 462.73 173.72 469.61 171.59 476.46 170.03 483.45 168.31 490.43 167.34 497.55"/><polyline class="cls-2" points="154.02 538.73 160.46 534.69 165.14 528.43 168.05 521.17 171.49 514.13 174.03 506.71 175.17 499.54 177.17 492.59 178.17 485.44 179.11 478.29 180.45 471.16 180.39 463.91 179.9 456.52 175.83 462.73 173.72 469.61 171.59 476.46 170.03 483.45 168.31 490.43 167.34 497.55"/><polygon points="190.02 538.79 183.93 537.89 177.32 537.3 171.45 534.2 167.59 529.05 168.33 522.8 170.92 516.39 173.68 510.02 177.37 504.12 180.13 498.26 181.77 504.66 183.79 511.43 184.9 518.41 187.19 525.11 188.41 532.08 190.02 538.79"/><polygon class="cls-2" points="190.02 538.79 183.93 537.89 177.32 537.3 171.45 534.2 167.59 529.05 168.33 522.8 170.92 516.39 173.68 510.02 177.37 504.12 180.13 498.26 181.77 504.66 183.79 511.43 184.9 518.41 187.19 525.11 188.41 532.08 190.02 538.79"/><polyline class="cls-1" points="691.47 353.58 691.35 360.87 691.41 368.17 690.79 375.45 690.84 382.74 690.58 390.04 691.13 397.32 691.81 404.6 691.23 411.93 692.26 419.17 692.52 426.47 693.45 433.71 694.56 440.93 695.41 448.17 695.98 455.46 697.75 462.56 699.23 469.7 699.79 477.04 701.91 484.05 704.09 491.02 705.73 498.14 708.18 505.03 710.71 511.87 713.7 518.67 706.15 519.97 698.62 520.51 691.09 520.81 683.58 521.72 676.04 521.6 668.57 520.73 661.37 518.76 658.69 511.98 657.5 504.81 656.84 497.57 656.96 490.31 657.05 483.06 656.69 475.82 656.29 468.61"/><polyline class="cls-2" points="691.47 353.58 691.35 360.87 691.41 368.17 690.79 375.45 690.84 382.74 690.58 390.04 691.13 397.32 691.81 404.6 691.23 411.93 692.26 419.17 692.52 426.47 693.45 433.71 694.56 440.93 695.41 448.17 695.98 455.46 697.75 462.56 699.23 469.7 699.79 477.04 701.91 484.05 704.09 491.02 705.73 498.14 708.18 505.03 710.71 511.87 713.7 518.67 706.15 519.97 698.62 520.51 691.09 520.81 683.58 521.72 676.04 521.6 668.57 520.73 661.37 518.76 658.69 511.98 657.5 504.81 656.84 497.57 656.96 490.31 657.05 483.06 656.69 475.82 656.29 468.61"/><polygon class="cls-1" points="221.59 143.59 228 147.22 234.83 150.21 228.73 145.74 221.59 143.59"/><polygon class="cls-2" points="221.59 143.59 228 147.22 234.83 150.21 228.73 145.74 221.59 143.59"/><polygon class="cls-1" points="296.87 150.19 303.64 147.22 310.16 143.53 302.83 145.56 296.87 150.19"/><polygon class="cls-2" points="296.87 150.19 303.64 147.22 310.16 143.53 302.83 145.56 296.87 150.19"/><polygon class="cls-1" points="286.64 190.58 287.31 183.53 287.36 176.45 288.95 169.55 290.42 162.66 292.77 155.99 296.59 150.46 289.24 152.18 281.47 153.24 273.67 154.16 265.83 154.57 257.97 154.29 250.11 153.82 242.43 152.1 234.67 150.06 238.63 156.11 241.3 162.64 243.25 169.45 243.88 176.5 244.54 183.52 244.67 190.58 244.29 197.53 243.16 204.37 241.56 211.1 239.34 217.69 235.28 223.34 231.17 228.99 225.64 233.27 220.97 238.43 216.39 243.57 212.57 249.32 210.51 255.9 209.26 262.68 208.9 269.58 208.57 277.07 209.47 284.5 211.38 291.74 213.17 298.97 215.68 306.01 219.42 312.48 223.49 318.7 227.68 324.94 233.66 329.46 233.66 329.12 240.73 330.49 247.83 331.75 255 332.69 262.23 332.14 269.43 332.31 276.61 331.88 283.86 332.07 290.97 330.81 298.11 329.77 297.91 329.34 303.47 324.46 308.57 319 312.06 312.38 316.03 306.04 318.52 298.99 320.54 291.81 321.69 284.43 323.23 277.08 323.51 269.58 322.34 262.68 321.56 255.79 318.74 249.47 315.58 243.32 310.98 238.11 305.77 233.51 300.8 228.65 295.93 223.65 292.72 217.47 289.81 211.18 288.03 204.45 287.54 197.51 286.64 190.58"/><polygon class="cls-2" points="286.64 190.58 287.31 183.53 287.36 176.45 288.95 169.55 290.42 162.66 292.77 155.99 296.59 150.46 289.24 152.18 281.47 153.24 273.67 154.16 265.83 154.57 257.97 154.29 250.11 153.82 242.43 152.1 234.67 150.06 238.63 156.11 241.3 162.64 243.25 169.45 243.88 176.5 244.54 183.52 244.67 190.58 244.29 197.53 243.16 204.37 241.56 211.1 239.34 217.69 235.28 223.34 231.17 228.99 225.64 233.27 220.97 238.43 216.39 243.57 212.57 249.32 210.51 255.9 209.26 262.68 208.9 269.58 208.57 277.07 209.47 284.5 211.38 291.74 213.17 298.97 215.68 306.01 219.42 312.48 223.49 318.7 227.68 324.94 233.66 329.46 233.66 329.12 240.73 330.49 247.83 331.75 255 332.69 262.23 332.14 269.43 332.31 276.61 331.88 283.86 332.07 290.97 330.81 298.11 329.77 297.91 329.34 303.47 324.46 308.57 319 312.06 312.38 316.03 306.04 318.52 298.99 320.54 291.81 321.69 284.43 323.23 277.08 323.51 269.58 322.34 262.68 321.56 255.79 318.74 249.47 315.58 243.32 310.98 238.11 305.77 233.51 300.8 228.65 295.93 223.65 292.72 217.47 289.81 211.18 288.03 204.45 287.54 197.51 286.64 190.58"/><polyline class="cls-1" points="221.45 143.24 228.66 141.24 235.94 139.66 243.28 138.3 250.72 137.79 258.16 137.57 265.58 136.99 273.03 136.93 280.42 137.89 287.78 138.93 295.11 140.12 302.52 141.15 309.65 143.37"/><polyline class="cls-2" points="221.45 143.24 228.66 141.24 235.94 139.66 243.28 138.3 250.72 137.79 258.16 137.57 265.58 136.99 273.03 136.93 280.42 137.89 287.78 138.93 295.11 140.12 302.52 141.15 309.65 143.37"/><polygon points="292.76 218.53 288.16 223.59 284.26 229.47 280.35 235.39 278.04 242.11 275.51 248.7 272.98 255.32 270.88 262.1 269.74 269.11 268.66 276.11 267.36 283.08 267.18 290.18 266.37 297.21 265.5 304.25 265.77 311.35 265.36 318.42 264.99 325.5 265.23 332.8 265.92 325.52 264.86 318.52 264.66 311.5 264.27 304.49 263.56 297.51 263.5 290.46 262.33 283.52 261.77 276.49 260.35 269.6 258.85 262.72 256.77 256 254.52 249.35 252.58 242.6 249.44 236.3 246.37 230.03 243.41 223.62 238.6 218.18 234.86 225.41 230.55 232.2 225.71 238.67 221.42 245.49 218.49 251.67 215.34 257.72 211.61 263.46 208.57 269.58 211.49 276.87 213.66 284.42 216.65 291.68 219.34 299.05 221.45 306.65 225.92 312.57 230.53 318.37 234.69 324.42 242.59 327.04 250.58 329.54 257.63 329.86 264.68 329 271.73 329.4 278.79 329.78 285.85 328.97 292.96 329.47 297.92 324.49 303.13 319.86 308.42 315.3 313.37 310.49 314.95 303.75 316.25 296.87 318.32 290.16 319.24 283.19 321.48 276.51 322.18 269.66 318.92 262.4 314.77 255.49 310.75 248.49 306.74 241.49 302.94 235.91 299.51 230.11 296.49 224.06 292.76 218.53"/><polygon class="cls-2" points="292.76 218.53 288.16 223.59 284.26 229.47 280.35 235.39 278.04 242.11 275.51 248.7 272.98 255.32 270.88 262.1 269.74 269.11 268.66 276.11 267.36 283.08 267.18 290.18 266.37 297.21 265.5 304.25 265.77 311.35 265.36 318.42 264.99 325.5 265.23 332.8 265.92 325.52 264.86 318.52 264.66 311.5 264.27 304.49 263.56 297.51 263.5 290.46 262.33 283.52 261.77 276.49 260.35 269.6 258.85 262.72 256.77 256 254.52 249.35 252.58 242.6 249.44 236.3 246.37 230.03 243.41 223.62 238.6 218.18 234.86 225.41 230.55 232.2 225.71 238.67 221.42 245.49 218.49 251.67 215.34 257.72 211.61 263.46 208.57 269.58 211.49 276.87 213.66 284.42 216.65 291.68 219.34 299.05 221.45 306.65 225.92 312.57 230.53 318.37 234.69 324.42 242.59 327.04 250.58 329.54 257.63 329.86 264.68 329 271.73 329.4 278.79 329.78 285.85 328.97 292.96 329.47 297.92 324.49 303.13 319.86 308.42 315.3 313.37 310.49 314.95 303.75 316.25 296.87 318.32 290.16 319.24 283.19 321.48 276.51 322.18 269.66 318.92 262.4 314.77 255.49 310.75 248.49 306.74 241.49 302.94 235.91 299.51 230.11 296.49 224.06 292.76 218.53"/><polyline points="289.75 169.98 282.51 171.85 275.25 173.65 268.19 176.08 260.95 177.95 253.76 180 246.7 182.51"/><polyline class="cls-2" points="289.75 169.98 282.51 171.85 275.25 173.65 268.19 176.08 260.95 177.95 253.76 180 246.7 182.51"/><polyline points="287.68 195.74 280.5 197.83 273.17 199.34 266.05 201.62 258.87 203.68 251.8 206.15 244.55 207.98"/><polyline class="cls-2" points="287.68 195.74 280.5 197.83 273.17 199.34 266.05 201.62 258.87 203.68 251.8 206.15 244.55 207.98"/><polygon class="cls-1" points="587.99 269.58 587.82 269.62 587.87 269.08 582.43 265.32 575.49 263.8 568.51 262.41 561.42 261.81 554.4 260.46 547.31 259.7 540.16 259.87 533.05 259.56 525.93 259.42 518.82 259.12 511.71 258.31 504.58 258.26 497.45 258.87 490.33 259.14 483.21 259.18 476.09 259.28 468.98 259.71 461.87 260.17 454.74 260.44 447.65 261.12 440.67 262.66 433.6 263.49 426.75 265.41 421.57 269.08 421.07 269.25 421.04 269.68 421.07 276.71 422.79 283.67 425.68 290.21 428.84 296.6 432.93 302.42 437.08 308.23 442.3 313.11 448.01 317.38 454.32 320.67 460.51 324.17 466.99 327.2 473.94 328.89 480.94 330.21 487.9 331.84 495.02 332.5 502.14 332.93 502.1 332.39 504.33 332.08 506.61 332.97 506.5 332.78 513.63 332.48 520.74 331.79 527.7 330.17 534.61 328.5 541.43 326.53 548.28 324.49 554.73 321.38 560.82 317.62 566.19 312.91 571.36 308.02 575.99 302.61 579.47 296.39 582.58 290.04 585.34 283.5 586.85 276.57 587.99 269.58"/><polygon class="cls-2" points="587.99 269.58 587.82 269.62 587.87 269.08 582.43 265.32 575.49 263.8 568.51 262.41 561.42 261.81 554.4 260.46 547.31 259.7 540.16 259.87 533.05 259.56 525.93 259.42 518.82 259.12 511.71 258.31 504.58 258.26 497.45 258.87 490.33 259.14 483.21 259.18 476.09 259.28 468.98 259.71 461.87 260.17 454.74 260.44 447.65 261.12 440.67 262.66 433.6 263.49 426.75 265.41 421.57 269.08 421.07 269.25 421.04 269.68 421.07 276.71 422.79 283.67 425.68 290.21 428.84 296.6 432.93 302.42 437.08 308.23 442.3 313.11 448.01 317.38 454.32 320.67 460.51 324.17 466.99 327.2 473.94 328.89 480.94 330.21 487.9 331.84 495.02 332.5 502.14 332.93 502.1 332.39 504.33 332.08 506.61 332.97 506.5 332.78 513.63 332.48 520.74 331.79 527.7 330.17 534.61 328.5 541.43 326.53 548.28 324.49 554.73 321.38 560.82 317.62 566.19 312.91 571.36 308.02 575.99 302.61 579.47 296.39 582.58 290.04 585.34 283.5 586.85 276.57 587.99 269.58"/><polygon class="cls-2" points="588.42 269.08 582.3 265.71 575.6 263.23 568.49 262.57 561.47 261.4 554.37 260.83 547.29 260.05 540.15 260.06 533.09 258.81 525.97 258.48 518.83 258.69 511.71 258.51 504.58 258.72 497.45 258.44 490.32 258.55 483.2 258.79 476.07 258.87 468.97 259.52 461.84 259.8 454.73 260.24 447.73 261.78 440.65 262.56 433.53 263.15 426.74 265.37 421.17 269.08 426.56 273.34 433.61 274.67 440.69 275.46 447.64 277.18 454.75 277.72 461.88 277.98 468.97 278.58 476.1 278.62 483.19 279.61 490.32 279.8 497.45 279.08 504.58 279.91 511.7 279.18 518.84 279.78 525.95 279.31 533.07 279.12 540.15 278.11 547.29 278.18 554.43 277.94 561.46 276.69 568.54 275.88 575.57 274.7 582.46 272.92 588.42 269.08"/><polygon class="cls-2" points="455.58 277.75 462.58 277.24 469.55 276.55 476.56 276.48 483.56 276.25 490.56 276.16 497.57 275.85 504.58 275.24 511.59 275.3 518.6 275.62 525.61 275.82 532.62 275.93 539.59 276.82 546.59 277.14 553.58 277.73 560.85 277.12 568.11 276.34 575.27 274.9 582.35 273.13 587.97 269.08 582.56 264.91 575.48 263.86 568.52 262.37 561.45 261.56 554.43 260.17 547.27 260.22 540.15 260.06 533.05 259.69 525.95 259.11 518.82 259.17 511.71 258.35 504.58 259.03 497.45 258.47 490.32 258.63 483.21 259.18 476.1 259.52 468.95 259.18 461.87 260.1 454.76 260.65 447.63 260.92 440.63 262.38 433.69 263.99 426.76 265.46 420.98 269.08 426.85 272.98 433.99 274.4 441.1 276 448.33 276.8 455.58 277.75"/><polyline class="cls-1" points="445.12 277.44 446.44 284.39 449.72 290.68 453.47 296.67 458.07 302.03 462.49 307.52 467.42 312.61 473.05 316.92 479 320.73 485.26 323.99 491.44 327.4 497.92 330.21 504.46 332.92"/><polyline class="cls-2" points="445.12 277.44 446.44 284.39 449.72 290.68 453.47 296.67 458.07 302.03 462.49 307.52 467.42 312.61 473.05 316.92 479 320.73 485.26 323.99 491.44 327.4 497.92 330.21 504.46 332.92"/><polyline class="cls-1" points="504.32 332.68 510.91 330.15 517.51 327.6 523.73 324.24 529.78 320.61 535.44 316.4 541.32 312.46 546.22 307.37 551.34 302.48 555.67 296.86 558.75 290.46 561.93 284.19 564.26 277.53"/><polyline class="cls-2" points="504.32 332.68 510.91 330.15 517.51 327.6 523.73 324.24 529.78 320.61 535.44 316.4 541.32 312.46 546.22 307.37 551.34 302.48 555.67 296.86 558.75 290.46 561.93 284.19 564.26 277.53"/><polyline class="cls-1" points="482.13 279.52 483.56 286.68 484.44 294 486.77 300.97 489.09 307.94 491.74 314.8 495.51 321.13 499.53 327.27 504.42 332.76"/><polyline class="cls-2" points="482.13 279.52 483.56 286.68 484.44 294 486.77 300.97 489.09 307.94 491.74 314.8 495.51 321.13 499.53 327.27 504.42 332.76"/><polyline class="cls-1" points="527.72 279.63 526.44 286.87 524.53 293.96 522.59 301.05 519.89 307.88 517.24 314.74 513.59 321.12 509.73 327.38 504.44 332.46"/><polyline class="cls-2" points="527.72 279.63 526.44 286.87 524.53 293.96 522.59 301.05 519.89 307.88 517.24 314.74 513.59 321.12 509.73 327.38 504.44 332.46"/><polygon class="cls-2" points="450.18 318.71 457.18 316.55 464.44 315.39 471.62 313.96 478.74 312.08 486.11 311.92 493.36 310.68 500.7 310.71 508.03 310.35 515.38 310.22 522.69 311.01 530.01 311.63 537.14 313.54 544.35 314.82 551.53 316.38 558.57 319.19 551.27 318.85 544.05 318.77 536.83 318.91 529.61 318.5 522.39 318.3 515.17 318.33 507.95 319.06 500.73 318.31 493.51 318.35 486.29 318.88 479.07 318.69 471.86 318.89 464.63 318.81 457.4 318.82 450.18 318.71"/></svg>