<svg id="Layer_1" data-name="Layer 1" xmlns="http://www.w3.org/2000/svg" viewBox="0 0 800 800"><defs><style>.cls-1{fill:#fff;}.cls-2{fill:none;stroke:#000;stroke-linejoin:bevel;stroke-width:13px;}</style></defs><title>canvas (68)</title><polygon class="cls-1" points="355.36 619.39 348.22 617.64 341.31 615.97 334.46 614.05 327.58 612.21 320.69 610.48 313.82 608.65 306.81 607.37 300.01 605.26 292.97 604.12 286.04 602.54 279.13 600.84 272.35 598.63 265.51 596.65 258.56 595.12 251.47 594.17 244.67 592.07 237.68 590.7 230.91 588.41 224 586.74 217.14 584.83 210.16 583.43 203.28 581.6 196.24 580.45 189.32 578.78 182.62 576.25 175.59 575.05 168.61 573.6 161.8 571.51 154.75 570.39 148.01 567.99 140.98 566.79 134.15 564.72 127.47 562.91 127.09 555.88 127.51 548.65 127.1 541.42 127.33 534.19 127.63 526.96 127.13 519.72 127.34 512.49 127.61 505.26 127.47 498.03 126.87 490.79 126.89 483.56 126.91 476.34 127.13 469.11 127.63 461.87 127.47 454.64 126.93 447.42 127.2 440.18 126.89 432.95 127.47 425.72 127.1 418.49 127.56 411.25 127.43 404.02 127.24 396.79 127.59 389.55 127.44 382.32 126.99 375.08 127.33 367.85 127.57 360.61 126.93 353.38 127.3 346.14 126.75 338.91 126.94 331.67 127.6 324.44 127.49 317.2 126.95 309.97 127.18 302.73 126.71 295.49 127.41 288.25 127.41 281.25 134.01 283.13 141.14 283.93 147.82 286.54 154.81 287.89 161.8 289.24 168.56 291.5 175.6 292.67 182.54 294.22 189.25 296.7 196.25 298.03 203.25 299.32 210.14 301.11 217.03 302.84 223.93 304.59 230.9 306.02 237.66 308.32 244.68 309.57 251.51 311.58 258.41 313.32 265.32 315 272.27 316.56 279.15 318.38 286.06 320.07 292.96 321.8 299.89 323.4 306.68 325.6 313.77 326.56 320.59 328.6 327.42 330.66 334.41 332 341.38 333.47 348.19 335.63 355.02 337.18 354.81 344.28 355.31 351.52 355.64 358.75 355.64 365.98 355.01 373.21 355.52 380.44 355.59 387.68 354.94 394.91 355.23 402.14 355.42 409.38 354.74 416.6 355.47 423.83 354.96 431.06 354.78 438.29 354.76 445.52 355.32 452.75 354.95 459.99 355.31 467.22 355.43 474.45 355.25 481.68 354.69 488.91 355.38 496.15 355.5 503.38 355.08 510.61 355.09 517.85 354.92 525.08 355.39 532.32 355.33 539.55 355.29 546.79 354.88 554.03 355.63 561.26 354.92 568.49 355.51 575.73 355.47 582.96 355.45 590.2 355.42 597.44 354.68 604.68 355.58 611.92 355.36 619.39"/><polygon class="cls-2" points="355.36 619.39 348.22 617.64 341.31 615.97 334.46 614.05 327.58 612.21 320.69 610.48 313.82 608.65 306.81 607.37 300.01 605.26 292.97 604.12 286.04 602.54 279.13 600.84 272.35 598.63 265.51 596.65 258.56 595.12 251.47 594.17 244.67 592.07 237.68 590.7 230.91 588.41 224 586.74 217.14 584.83 210.16 583.43 203.28 581.6 196.24 580.45 189.32 578.78 182.62 576.25 175.59 575.05 168.61 573.6 161.8 571.51 154.75 570.39 148.01 567.99 140.98 566.79 134.15 564.72 127.47 562.91 127.09 555.88 127.51 548.65 127.1 541.42 127.33 534.19 127.63 526.96 127.13 519.72 127.34 512.49 127.61 505.26 127.47 498.03 126.87 490.79 126.89 483.56 126.91 476.34 127.13 469.11 127.63 461.87 127.47 454.64 126.93 447.42 127.2 440.18 126.89 432.95 127.47 425.72 127.1 418.49 127.56 411.25 127.43 404.02 127.24 396.79 127.59 389.55 127.44 382.32 126.99 375.08 127.33 367.85 127.57 360.61 126.93 353.38 127.3 346.14 126.75 338.91 126.94 331.67 127.6 324.44 127.49 317.2 126.95 309.97 127.18 302.73 126.71 295.49 127.41 288.25 127.41 281.25 134.01 283.13 141.14 283.93 147.82 286.54 154.81 287.89 161.8 289.24 168.56 291.5 175.6 292.67 182.54 294.22 189.25 296.7 196.25 298.03 203.25 299.32 210.14 301.11 217.03 302.84 223.93 304.59 230.9 306.02 237.66 308.32 244.68 309.57 251.51 311.58 258.41 313.32 265.32 315 272.27 316.56 279.15 318.38 286.06 320.07 292.96 321.8 299.89 323.4 306.68 325.6 313.77 326.56 320.59 328.6 327.42 330.66 334.41 332 341.38 333.47 348.19 335.63 355.02 337.18 354.81 344.28 355.31 351.52 355.64 358.75 355.64 365.98 355.01 373.21 355.52 380.44 355.59 387.68 354.94 394.91 355.23 402.14 355.42 409.38 354.74 416.6 355.47 423.83 354.96 431.06 354.78 438.29 354.76 445.52 355.32 452.75 354.95 459.99 355.31 467.22 355.43 474.45 355.25 481.68 354.69 488.91 355.38 496.15 355.5 503.38 355.08 510.61 355.09 517.85 354.92 525.08 355.39 532.32 355.33 539.55 355.29 546.79 354.88 554.03 355.63 561.26 354.92 568.49 355.51 575.73 355.47 582.96 355.45 590.2 355.42 597.44 354.68 604.68 355.58 611.92 355.36 619.39"/><polygon points="354.94 619.55 361.65 616 367.69 612.07 374.1 608.77 380.35 605.22 386.32 601.17 392.82 598.05 398.99 594.34 405.1 590.53 411.3 586.88 417.61 583.43 423.94 580 430.2 576.46 436.23 572.51 442.54 569.07 448.77 565.48 454.89 561.68 461.52 558.79 467.6 554.94 473.75 551.21 480.04 547.7 486.5 544.51 492.74 540.94 498.9 537.22 505.14 533.64 511.49 530.24 517.45 526.18 523.76 522.71 530.29 519.63 536.44 515.89 542.71 512.36 548.94 508.76 554.98 504.8 561.45 501.62 567.67 498 573.87 494.35 580.21 490.95 586.17 486.87 592.71 483.81 598.97 480.24 604.96 476.21 611.29 472.78 617.47 469.09 623.82 465.69 630.02 462.01 636.11 458.37 636.52 451.26 636.61 444.03 636.51 436.8 635.98 429.56 636.25 422.33 636.27 415.1 636.47 407.87 636.37 400.63 635.84 393.4 636.75 386.17 636.58 378.94 636.2 371.71 636.79 364.48 636.4 357.25 636.76 350.02 636.35 342.79 636.01 335.56 636.24 328.33 636.54 321.1 636.71 313.86 636.49 306.63 636.75 299.4 636.4 292.16 636.8 284.93 636.51 277.7 636.41 270.46 636.5 263.23 636.05 255.99 636.33 248.75 635.84 241.52 636.25 234.29 636.52 227.05 636.62 219.81 635.98 212.58 635.92 205.34 636.2 198.1 636.48 190.87 636.42 183.62 636.08 176.77 629.83 179.53 623.74 183.37 617.65 187.22 611.3 190.6 605.27 194.55 598.75 197.65 592.77 201.68 586.52 205.25 579.85 208.08 573.72 211.85 567.47 215.4 561.13 218.82 555.17 222.89 549.03 226.62 542.75 230.13 536.39 233.51 530.37 237.47 523.8 240.46 517.7 244.27 511.64 248.19 505.21 251.42 498.72 254.56 492.45 258.09 486.64 262.43 480.12 265.52 473.98 269.28 467.84 273.03 461.57 276.56 455.04 279.64 448.71 283.06 442.55 286.79 436.32 290.4 430.18 294.17 423.82 297.55 417.63 301.22 411.62 305.2 405.18 308.44 398.82 311.82 392.47 315.21 386.57 319.4 380.14 322.66 373.96 326.36 367.78 330.06 361.66 333.87 355.05 336.98 354.68 344.28 355.57 351.52 355.2 358.75 355.05 365.98 355.2 373.21 355.41 380.44 354.72 387.68 355.67 394.91 355.39 402.14 355.51 409.38 355.4 416.6 354.9 423.83 355.09 431.06 355.63 438.29 355.58 445.52 354.82 452.75 354.7 459.99 354.69 467.22 355.18 474.45 355.44 481.68 355.12 488.91 354.72 496.15 355 503.38 355.45 510.61 355.26 517.85 354.82 525.08 355.14 532.32 355.16 539.55 355.1 546.79 354.7 554.03 355.64 561.26 355.44 568.49 355.05 575.73 354.73 582.96 355.54 590.2 354.94 597.44 355.63 604.68 355.11 611.92 354.94 619.55"/><polygon class="cls-2" points="354.94 619.55 361.65 616 367.69 612.07 374.1 608.77 380.35 605.22 386.32 601.17 392.82 598.05 398.99 594.34 405.1 590.53 411.3 586.88 417.61 583.43 423.94 580 430.2 576.46 436.23 572.51 442.54 569.07 448.77 565.48 454.89 561.68 461.52 558.79 467.6 554.94 473.75 551.21 480.04 547.7 486.5 544.51 492.74 540.94 498.9 537.22 505.14 533.64 511.49 530.24 517.45 526.18 523.76 522.71 530.29 519.63 536.44 515.89 542.71 512.36 548.94 508.76 554.98 504.8 561.45 501.62 567.67 498 573.87 494.35 580.21 490.95 586.17 486.87 592.71 483.81 598.97 480.24 604.96 476.21 611.29 472.78 617.47 469.09 623.82 465.69 630.02 462.01 636.11 458.37 636.52 451.26 636.61 444.03 636.51 436.8 635.98 429.56 636.25 422.33 636.27 415.1 636.47 407.87 636.37 400.63 635.84 393.4 636.75 386.17 636.58 378.94 636.2 371.71 636.79 364.48 636.4 357.25 636.76 350.02 636.35 342.79 636.01 335.56 636.24 328.33 636.54 321.1 636.71 313.86 636.49 306.63 636.75 299.4 636.4 292.16 636.8 284.93 636.51 277.7 636.41 270.46 636.5 263.23 636.05 255.99 636.33 248.75 635.84 241.52 636.25 234.29 636.52 227.05 636.62 219.81 635.98 212.58 635.92 205.34 636.2 198.1 636.48 190.87 636.42 183.62 636.08 176.77 629.83 179.53 623.74 183.37 617.65 187.22 611.3 190.6 605.27 194.55 598.75 197.65 592.77 201.68 586.52 205.25 579.85 208.08 573.72 211.85 567.47 215.4 561.13 218.82 555.17 222.89 549.03 226.62 542.75 230.13 536.39 233.51 530.37 237.47 523.8 240.46 517.7 244.27 511.64 248.19 505.21 251.42 498.72 254.56 492.45 258.09 486.64 262.43 480.12 265.52 473.98 269.28 467.84 273.03 461.57 276.56 455.04 279.64 448.71 283.06 442.55 286.79 436.32 290.4 430.18 294.17 423.82 297.55 417.63 301.22 411.62 305.2 405.18 308.44 398.82 311.82 392.47 315.21 386.57 319.4 380.14 322.66 373.96 326.36 367.78 330.06 361.66 333.87 355.05 336.98 354.68 344.28 355.57 351.52 355.2 358.75 355.05 365.98 355.2 373.21 355.41 380.44 354.72 387.68 355.67 394.91 355.39 402.14 355.51 409.38 355.4 416.6 354.9 423.83 355.09 431.06 355.63 438.29 355.58 445.52 354.82 452.75 354.7 459.99 354.69 467.22 355.18 474.45 355.44 481.68 355.12 488.91 354.72 496.15 355 503.38 355.45 510.61 355.26 517.85 354.82 525.08 355.14 532.32 355.16 539.55 355.1 546.79 354.7 554.03 355.64 561.26 355.44 568.49 355.05 575.73 354.73 582.96 355.54 590.2 354.94 597.44 355.63 604.68 355.11 611.92 354.94 619.55"/><polygon class="cls-1" points="126.84 281.05 133.5 277.31 139.93 273.96 146.5 270.87 152.73 267.13 159.33 264.08 165.35 259.97 172.1 257.2 178.57 253.91 184.89 250.34 191.19 246.74 197.58 243.3 203.92 239.77 210.33 236.38 216.5 232.55 222.97 229.26 229.56 226.21 236.02 222.91 242.12 218.93 248.67 215.8 255.02 212.29 261.26 208.58 267.98 205.75 273.95 201.55 280.45 198.32 287.08 195.33 293.42 191.79 299.92 188.55 306.16 184.84 312.37 181.07 318.8 177.7 325.29 174.44 331.59 170.83 338.02 167.46 344.57 164.31 350.91 160.79 357.19 157.14 363.6 153.74 370.13 150.56 376.52 147.12 382.58 143.05 389.1 139.84 395.37 136.16 401.97 133.09 408.45 130.16 415.44 131.45 422.66 132.44 429.67 134.42 436.92 135.24 443.9 137.39 451.03 138.77 458.14 140.3 465.43 140.89 472.4 143.1 479.62 144.09 486.7 145.75 493.79 147.35 500.95 148.61 508.13 149.79 515.12 151.87 522.31 153.04 529.36 154.84 536.47 156.37 543.77 156.93 550.89 158.46 557.87 160.61 565.08 161.65 572.21 163.1 579.26 164.9 586.37 166.4 593.51 167.78 600.66 169.12 607.85 170.26 615 171.6 621.95 173.93 629.23 174.66 636.27 176.39 630.04 179.9 623.68 183.28 617.78 187.46 611.36 190.71 605.09 194.23 599.03 198.14 592.57 201.34 586.4 205.04 579.91 208.18 573.9 212.16 567.69 215.8 561.25 219.03 555.1 222.76 549.12 226.77 542.6 229.86 536.54 233.77 530.1 236.99 523.74 240.35 517.68 244.25 511.2 247.41 505.18 251.36 499.05 255.14 492.65 258.44 486.19 261.64 480.08 265.45 474.09 269.47 467.62 272.64 461.43 276.32 455.17 279.86 448.73 283.11 442.89 287.39 436.32 290.4 429.95 293.77 423.87 297.63 417.6 301.17 411.36 304.75 404.95 308.03 398.86 311.88 392.54 315.33 386.32 318.97 380.19 322.75 373.74 325.97 367.78 330.06 361.35 333.34 355.23 337.41 348.33 335.12 341.35 333.7 334.36 332.37 327.44 330.7 320.75 328.14 313.73 326.94 306.9 324.93 299.84 323.88 293.04 321.78 286.05 320.43 279.29 318.14 272.28 316.85 265.37 315.18 258.44 313.56 251.56 311.77 244.7 309.88 237.77 308.29 230.87 306.55 224.1 304.32 217 303.38 210.22 301.17 203.18 299.99 196.34 298.01 189.38 296.51 182.47 294.83 175.58 293.06 168.62 291.59 161.85 289.31 154.81 288.17 147.88 286.55 140.97 284.83 134.25 282.35 126.84 281.05"/><polygon class="cls-2" points="126.84 281.05 133.5 277.31 139.93 273.96 146.5 270.87 152.73 267.13 159.33 264.08 165.35 259.97 172.1 257.2 178.57 253.91 184.89 250.34 191.19 246.74 197.58 243.3 203.92 239.77 210.33 236.38 216.5 232.55 222.97 229.26 229.56 226.21 236.02 222.91 242.12 218.93 248.67 215.8 255.02 212.29 261.26 208.58 267.98 205.75 273.95 201.55 280.45 198.32 287.08 195.33 293.42 191.79 299.92 188.55 306.16 184.84 312.37 181.07 318.8 177.7 325.29 174.44 331.59 170.83 338.02 167.46 344.57 164.31 350.91 160.79 357.19 157.14 363.6 153.74 370.13 150.56 376.52 147.12 382.58 143.05 389.1 139.84 395.37 136.16 401.97 133.09 408.45 130.16 415.44 131.45 422.66 132.44 429.67 134.42 436.92 135.24 443.9 137.39 451.03 138.77 458.14 140.3 465.43 140.89 472.4 143.1 479.62 144.09 486.7 145.75 493.79 147.35 500.95 148.61 508.13 149.79 515.12 151.87 522.31 153.04 529.36 154.84 536.47 156.37 543.77 156.93 550.89 158.46 557.87 160.61 565.08 161.65 572.21 163.1 579.26 164.9 586.37 166.4 593.51 167.78 600.66 169.12 607.85 170.26 615 171.6 621.95 173.93 629.23 174.66 636.27 176.39 630.04 179.9 623.68 183.28 617.78 187.46 611.36 190.71 605.09 194.23 599.03 198.14 592.57 201.34 586.4 205.04 579.91 208.18 573.9 212.16 567.69 215.8 561.25 219.03 555.1 222.76 549.12 226.77 542.6 229.86 536.54 233.77 530.1 236.99 523.74 240.35 517.68 244.25 511.2 247.41 505.18 251.36 499.05 255.14 492.65 258.44 486.19 261.64 480.08 265.45 474.09 269.47 467.62 272.64 461.43 276.32 455.17 279.86 448.73 283.11 442.89 287.39 436.32 290.4 429.95 293.77 423.87 297.63 417.6 301.17 411.36 304.75 404.95 308.03 398.86 311.88 392.54 315.33 386.32 318.97 380.19 322.75 373.74 325.97 367.78 330.06 361.35 333.34 355.23 337.41 348.33 335.12 341.35 333.7 334.36 332.37 327.44 330.7 320.75 328.14 313.73 326.94 306.9 324.93 299.84 323.88 293.04 321.78 286.05 320.43 279.29 318.14 272.28 316.85 265.37 315.18 258.44 313.56 251.56 311.77 244.7 309.88 237.77 308.29 230.87 306.55 224.1 304.32 217 303.38 210.22 301.17 203.18 299.99 196.34 298.01 189.38 296.51 182.47 294.83 175.58 293.06 168.62 291.59 161.85 289.31 154.81 288.17 147.88 286.55 140.97 284.83 134.25 282.35 126.84 281.05"/><polygon class="cls-1" points="227.55 199.24 234.04 196.19 240.31 192.53 246.5 188.72 252.91 185.34 259.23 181.76 265.94 178.94 271.95 174.79 278.51 171.68 285.18 168.75 291.1 164.44 297.5 161.03 304.1 157.97 310.27 154.15 316.72 150.81 323.13 147.41 329.58 144.09 336.29 141.24 342.42 137.31 348.62 133.53 355.26 130.54 361.6 126.99 367.95 123.11 375.19 124.8 382.19 126.89 389.32 128.29 396.48 129.55 403.62 130.92 410.71 132.57 417.91 133.65 425.04 135.05 432.05 137.02 439.16 138.54 446.38 139.56 453.51 140.95 460.61 142.54 467.73 144.01 474.84 145.59 482.16 146.92 475.47 150.36 469.25 154.29 462.81 157.86 456.26 161.22 450.11 165.29 443.86 169.19 437.29 172.51 431.11 176.52 424.26 179.38 418.02 183.29 411.63 186.94 405.24 190.59 398.74 194.04 392.68 198.26 386.08 201.55 379.84 205.46 373.24 208.75 367.02 212.7 360.52 216.16 354.18 219.91 347.91 223.78 341.48 227.67 334.31 225.51 327.28 223.38 320.07 221.96 312.97 220.13 305.73 218.86 298.6 217.14 291.65 214.67 284.51 213.02 277.43 211.1 270.14 210.06 263.17 207.67 256.05 205.91 248.73 204.96 241.73 202.69 234.48 201.43 227.55 199.24"/><polygon class="cls-2" points="227.55 199.24 234.04 196.19 240.31 192.53 246.5 188.72 252.91 185.34 259.23 181.76 265.94 178.94 271.95 174.79 278.51 171.68 285.18 168.75 291.1 164.44 297.5 161.03 304.1 157.97 310.27 154.15 316.72 150.81 323.13 147.41 329.58 144.09 336.29 141.24 342.42 137.31 348.62 133.53 355.26 130.54 361.6 126.99 367.95 123.11 375.19 124.8 382.19 126.89 389.32 128.29 396.48 129.55 403.62 130.92 410.71 132.57 417.91 133.65 425.04 135.05 432.05 137.02 439.16 138.54 446.38 139.56 453.51 140.95 460.61 142.54 467.73 144.01 474.84 145.59 482.16 146.92 475.47 150.36 469.25 154.29 462.81 157.86 456.26 161.22 450.11 165.29 443.86 169.19 437.29 172.51 431.11 176.52 424.26 179.38 418.02 183.29 411.63 186.94 405.24 190.59 398.74 194.04 392.68 198.26 386.08 201.55 379.84 205.46 373.24 208.75 367.02 212.7 360.52 216.16 354.18 219.91 347.91 223.78 341.48 227.67 334.31 225.51 327.28 223.38 320.07 221.96 312.97 220.13 305.73 218.86 298.6 217.14 291.65 214.67 284.51 213.02 277.43 211.1 270.14 210.06 263.17 207.67 256.05 205.91 248.73 204.96 241.73 202.69 234.48 201.43 227.55 199.24"/><polygon class="cls-2" points="355.26 336.95 355.37 344.22 356.44 351.33 356.29 358.51 356.76 365.67 357.56 372.8 357.21 379.99 358.29 387.11 358.45 394.27 358.62 401.44 359.2 408.58 359.57 415.74 360.06 422.89 360.52 430.04 360.85 437.2 361.14 444.36 361.21 451.52 361.98 458.65 362.7 465.79 363.23 472.93 362.76 480.13 363.82 487.25 363.93 494.42 364.46 501.56 364.58 508.73 365.1 515.88 365.83 523.01 366.46 530.16 366.28 537.35 367.16 544.47 367.37 551.64 367.22 558.83 367.89 565.97 368.86 573.09 368.87 580.27 368.79 587.46 369.16 594.61 369.86 601.75 370.7 608.88 370.49 616.08 371.35 623.21 371.54 630.37 372.26 637.52 372.27 644.71 373.07 652.08 365.81 650.09 358.68 648.59 351.58 646.92 344.51 645.15 337.6 642.77 330.39 641.53 323.47 639.16 316.41 637.37 309.12 636.48 302.25 633.91 295.17 632.17 288.03 630.68 280.98 628.85 273.96 626.91 266.79 625.51 259.61 624.23 252.54 622.47 245.54 620.38 238.45 618.7 231.31 617.23 224.41 614.77 217.26 613.34 210.23 611.38 203.18 609.53 196.14 607.62 188.89 606.57 181.97 604.18 174.72 603.12 167.68 601.24 160.72 598.98 153.67 597.11 146.43 596.04 139.29 594.53 132.41 591.99 125.28 590.44 118.27 588.41 110.99 587.5 103.91 585.73 96.86 583.81 90.03 581.67 91.06 574.68 91.38 567.45 92.27 560.29 92.98 553.11 94.17 545.98 95.56 538.89 96.25 531.7 97.01 524.52 97.44 517.3 98.87 510.21 99.48 503.02 100.98 495.93 101.77 488.76 101.94 481.51 102.94 474.37 103.87 467.22 105.13 460.1 105.71 452.91 107.22 445.82 107.77 438.62 108.98 431.5 109.86 424.34 110.24 417.12 111.15 409.96 111.86 402.77 112.83 395.62 114.08 388.51 114.54 381.29 115.51 374.13 116.9 367.03 117.47 359.83 118.06 352.63 118.98 345.47 119.73 338.29 120.53 331.12 121.71 323.99 122.81 316.85 124.01 309.73 124.26 302.48 125.05 295.3 125.88 288.12 127.32 281.16 134.22 282.28 141.02 284.4 147.86 286.35 154.9 287.53 161.75 289.4 168.68 291.01 175.5 293.03 182.49 294.39 189.3 296.46 196.22 298.11 203.18 299.57 210.12 301.13 216.93 303.23 223.96 304.4 230.71 306.75 237.73 307.95 244.68 309.51 251.47 311.65 258.36 313.45 265.21 315.36 272.12 317.04 279.21 318.01 286.07 319.9 292.96 321.71 299.77 323.76 306.68 325.47 313.57 327.24 320.61 328.42 327.51 330.15 334.42 331.83 341.4 333.24 348.18 335.51 355.26 336.95"/><polygon class="cls-1" points="372.9 651.73 374.89 644.88 377.25 638.01 379.8 631.21 381.67 624.19 383.4 617.13 385.88 610.3 388.39 603.48 389.93 596.36 392.2 589.46 394.54 582.59 396.33 575.54 398.55 568.64 400.53 561.65 403.33 554.92 405.56 548.01 407.09 540.89 409.62 534.07 411.54 527.07 414.25 520.31 415.62 513.13 418.32 506.37 420.72 499.51 422.35 492.42 425.04 485.65 426.55 478.52 429.37 471.8 431.45 464.84 433.37 457.83 435.6 450.93 437.84 444.03 439.33 436.89 441.41 429.94 443.73 423.06 446.03 416.18 448.34 409.29 450.35 402.32 452.99 395.53 454.77 388.49 457.38 381.69 458.88 374.56 461.54 367.78 463.09 360.66 465.29 353.74 468.14 347.02 470.19 340.06 472.1 333.04 474.53 326.19 476.43 319.18 478.12 312.1 480.3 305.18 482.76 298.33 485.2 291.49 486.95 284.42 489.48 277.61 491.35 270.58 493.51 263.64 495.91 256.51 489.17 260.03 482.81 263.74 476.36 267.28 469.99 270.96 463.76 274.89 457.53 278.83 451.13 282.45 444.48 285.66 438.47 289.97 431.63 292.84 425.32 296.64 418.9 300.23 412.82 304.43 406.3 307.84 399.69 311.11 393.57 315.24 386.99 318.56 380.85 322.66 374.41 326.22 367.89 329.65 361.46 333.26 354.86 336.9 355.43 344.21 356.2 351.35 356.25 358.52 356.66 365.67 356.98 372.83 357.62 379.97 358.34 387.1 358.13 394.29 359.22 401.4 359.39 408.57 359.28 415.75 359.63 422.91 360.66 430.03 360.59 437.21 361.33 444.35 361.7 451.5 362.01 458.65 362.17 465.82 362.39 472.98 363.46 480.09 363.4 487.27 364.38 494.39 364.42 501.56 364.84 508.72 365.48 515.86 365.73 523.02 365.75 530.2 366.26 537.35 366.96 544.48 366.78 551.67 367.85 558.79 367.6 565.98 368.29 573.12 368.61 580.29 368.76 587.46 369.3 594.6 370.01 601.74 370.07 608.92 370.73 616.06 371.19 623.22 371.77 630.36 371.81 637.54 372.41 644.7 372.9 651.73"/><polygon class="cls-2" points="372.9 651.73 374.89 644.88 377.25 638.01 379.8 631.21 381.67 624.19 383.4 617.13 385.88 610.3 388.39 603.48 389.93 596.36 392.2 589.46 394.54 582.59 396.33 575.54 398.55 568.64 400.53 561.65 403.33 554.92 405.56 548.01 407.09 540.89 409.62 534.07 411.54 527.07 414.25 520.31 415.62 513.13 418.32 506.37 420.72 499.51 422.35 492.42 425.04 485.65 426.55 478.52 429.37 471.8 431.45 464.84 433.37 457.83 435.6 450.93 437.84 444.03 439.33 436.89 441.41 429.94 443.73 423.06 446.03 416.18 448.34 409.29 450.35 402.32 452.99 395.53 454.77 388.49 457.38 381.69 458.88 374.56 461.54 367.78 463.09 360.66 465.29 353.74 468.14 347.02 470.19 340.06 472.1 333.04 474.53 326.19 476.43 319.18 478.12 312.1 480.3 305.18 482.76 298.33 485.2 291.49 486.95 284.42 489.48 277.61 491.35 270.58 493.51 263.64 495.91 256.51 489.17 260.03 482.81 263.74 476.36 267.28 469.99 270.96 463.76 274.89 457.53 278.83 451.13 282.45 444.48 285.66 438.47 289.97 431.63 292.84 425.32 296.64 418.9 300.23 412.82 304.43 406.3 307.84 399.69 311.11 393.57 315.24 386.99 318.56 380.85 322.66 374.41 326.22 367.89 329.65 361.46 333.26 354.86 336.9 355.43 344.21 356.2 351.35 356.25 358.52 356.66 365.67 356.98 372.83 357.62 379.97 358.34 387.1 358.13 394.29 359.22 401.4 359.39 408.57 359.28 415.75 359.63 422.91 360.66 430.03 360.59 437.21 361.33 444.35 361.7 451.5 362.01 458.65 362.17 465.82 362.39 472.98 363.46 480.09 363.4 487.27 364.38 494.39 364.42 501.56 364.84 508.72 365.48 515.86 365.73 523.02 365.75 530.2 366.26 537.35 366.96 544.48 366.78 551.67 367.85 558.79 367.6 565.98 368.29 573.12 368.61 580.29 368.76 587.46 369.3 594.6 370.01 601.74 370.07 608.92 370.73 616.06 371.19 623.22 371.77 630.36 371.81 637.54 372.41 644.7 372.9 651.73"/><polygon class="cls-1" points="686.17 485.88 681.74 480.23 676.75 474.94 672.12 469.34 667.81 463.49 663.19 457.88 658.44 452.4 653.73 446.87 649.15 441.24 644.18 435.93 640.02 429.96 635.04 424.66 630.77 418.77 625.85 413.42 621.52 407.58 616.98 401.92 612.27 396.38 607.49 390.92 603.16 385.08 598.01 379.91 593.28 374.41 588.76 368.72 584.66 362.69 579.91 357.19 574.75 352.04 570.5 346.13 565.54 340.8 561.36 334.83 556.49 329.43 552.18 323.57 547.27 318.21 542.33 312.86 538.08 306.96 533.55 301.28 529 295.61 523.69 290.58 519.76 284.39 514.62 279.22 510.1 273.54 505.68 267.75 500.63 262.49 496.01 256.68 502.36 252.72 508.98 249.51 515.13 245.48 521.55 241.92 527.86 238.18 534.53 235.06 540.7 231.06 547.14 227.54 553.62 224.08 559.91 220.29 566.41 216.87 572.36 212.48 579.01 209.33 585.41 205.74 591.48 201.56 598.19 198.5 604.25 194.31 610.58 190.59 617.19 187.36 623.77 184.07 629.98 180.12 636.51 175.94 637 183.49 638.96 190.39 639.5 197.52 640.73 204.54 641.71 211.6 642.68 218.66 644.07 225.65 645.62 232.62 646.99 239.61 647.89 246.69 648.94 253.74 649.47 260.87 650.83 267.87 652.6 274.8 653.6 281.86 654.59 288.91 655.5 295.98 656.28 303.07 657.47 310.09 659.47 316.98 660.56 324.02 661.27 331.13 662.06 338.22 663.91 345.14 664.59 352.24 665.92 359.25 667.37 366.23 668.45 373.28 669.5 380.32 670.01 387.46 671.44 394.45 672.4 401.52 673.84 408.51 674.69 415.59 675.57 422.67 677.47 429.58 678.64 436.62 679.84 443.64 680.37 450.78 681.41 457.83 682.37 464.89 683.48 471.94 685.07 478.92 686.17 485.88"/><polygon class="cls-2" points="686.17 485.88 681.74 480.23 676.75 474.94 672.12 469.34 667.81 463.49 663.19 457.88 658.44 452.4 653.73 446.87 649.15 441.24 644.18 435.93 640.02 429.96 635.04 424.66 630.77 418.77 625.85 413.42 621.52 407.58 616.98 401.92 612.27 396.38 607.49 390.92 603.16 385.08 598.01 379.91 593.28 374.41 588.76 368.72 584.66 362.69 579.91 357.19 574.75 352.04 570.5 346.13 565.54 340.8 561.36 334.83 556.49 329.43 552.18 323.57 547.27 318.21 542.33 312.86 538.08 306.96 533.55 301.28 529 295.61 523.69 290.58 519.76 284.39 514.62 279.22 510.1 273.54 505.68 267.75 500.63 262.49 496.01 256.68 502.36 252.72 508.98 249.51 515.13 245.48 521.55 241.92 527.86 238.18 534.53 235.06 540.7 231.06 547.14 227.54 553.62 224.08 559.91 220.29 566.41 216.87 572.36 212.48 579.01 209.33 585.41 205.74 591.48 201.56 598.19 198.5 604.25 194.31 610.58 190.59 617.19 187.36 623.77 184.07 629.98 180.12 636.51 175.94 637 183.49 638.96 190.39 639.5 197.52 640.73 204.54 641.71 211.6 642.68 218.66 644.07 225.65 645.62 232.62 646.99 239.61 647.89 246.69 648.94 253.74 649.47 260.87 650.83 267.87 652.6 274.8 653.6 281.86 654.59 288.91 655.5 295.98 656.28 303.07 657.47 310.09 659.47 316.98 660.56 324.02 661.27 331.13 662.06 338.22 663.91 345.14 664.59 352.24 665.92 359.25 667.37 366.23 668.45 373.28 669.5 380.32 670.01 387.46 671.44 394.45 672.4 401.52 673.84 408.51 674.69 415.59 675.57 422.67 677.47 429.58 678.64 436.62 679.84 443.64 680.37 450.78 681.41 457.83 682.37 464.89 683.48 471.94 685.07 478.92 686.17 485.88"/><polyline class="cls-1" points="685.66 485.9 679.5 482.69 673.34 479.5 667.06 476.52 661.05 473.02 654.81 469.99 648.92 466.24 642.66 463.21 636.52 459.96"/><polyline class="cls-2" points="685.66 485.9 679.5 482.69 673.34 479.5 667.06 476.52 661.05 473.02 654.81 469.99 648.92 466.24 642.66 463.21 636.52 459.96"/><polygon class="cls-1" points="355.17 336.98 354.62 329.65 353.31 322.35 352.61 314.98 351.24 307.69 350.46 300.32 349.53 292.97 348.46 285.64 347.74 278.27 347 270.9 345.68 263.6 344.57 256.27 343.53 248.93 343.41 241.48 342.38 234.14 341.08 226.8 347.61 223.41 353.72 219.3 360.41 216.24 366.66 212.39 373.33 209.29 379.53 205.34 386.06 202 392.61 198.69 398.75 194.62 405.45 191.58 411.45 187.26 418.04 184.02 424.33 180.25 430.68 176.58 437.07 172.97 443.58 169.57 450.31 166.57 456.5 162.62 462.99 159.18 469.44 155.69 475.94 152.25 482.19 148.41 489.21 149.48 496.13 151.21 503.27 151.73 510.12 153.85 517.17 154.87 524.16 156.22 531.22 157.18 538.15 158.88 545.18 160.02 552.22 161.08 559.14 162.84 566.24 163.61 573.27 164.78 580.31 165.81 587.23 167.58 594.27 168.63 601.22 170.25 608.29 171.14 615.35 172.13 622.26 173.96 629.36 174.78 636.51 176.35 630.11 180.02 624.01 183.85 617.35 186.7 611.09 190.25 605.07 194.22 598.9 197.92 592.58 201.36 586.42 205.08 580.12 208.57 573.79 211.98 567.46 215.42 561.27 219.08 555.03 222.65 549.01 226.61 542.38 229.5 536.27 233.32 529.91 236.68 524.02 240.86 517.4 243.78 511.28 247.58 505.11 251.27 498.96 255.02 492.88 258.88 486.26 261.79 480.34 265.94 474.14 269.6 467.69 272.81 461.48 276.45 455.37 280.26 448.9 283.45 442.5 286.76 436.43 290.64 430.01 293.92 423.9 297.73 417.77 301.53 411.31 304.71 405.39 308.86 398.89 312 392.63 315.55 386.49 319.31 380.2 322.83 373.93 326.35 367.76 330.08 361.38 333.45 355.17 336.98"/><polygon class="cls-2" points="355.17 336.98 354.62 329.65 353.31 322.35 352.61 314.98 351.24 307.69 350.46 300.32 349.53 292.97 348.46 285.64 347.74 278.27 347 270.9 345.68 263.6 344.57 256.27 343.53 248.93 343.41 241.48 342.38 234.14 341.08 226.8 347.61 223.41 353.72 219.3 360.41 216.24 366.66 212.39 373.33 209.29 379.53 205.34 386.06 202 392.61 198.69 398.75 194.62 405.45 191.58 411.45 187.26 418.04 184.02 424.33 180.25 430.68 176.58 437.07 172.97 443.58 169.57 450.31 166.57 456.5 162.62 462.99 159.18 469.44 155.69 475.94 152.25 482.19 148.41 489.21 149.48 496.13 151.21 503.27 151.73 510.12 153.85 517.17 154.87 524.16 156.22 531.22 157.18 538.15 158.88 545.18 160.02 552.22 161.08 559.14 162.84 566.24 163.61 573.27 164.78 580.31 165.81 587.23 167.58 594.27 168.63 601.22 170.25 608.29 171.14 615.35 172.13 622.26 173.96 629.36 174.78 636.51 176.35 630.11 180.02 624.01 183.85 617.35 186.7 611.09 190.25 605.07 194.22 598.9 197.92 592.58 201.36 586.42 205.08 580.12 208.57 573.79 211.98 567.46 215.42 561.27 219.08 555.03 222.65 549.01 226.61 542.38 229.5 536.27 233.32 529.91 236.68 524.02 240.86 517.4 243.78 511.28 247.58 505.11 251.27 498.96 255.02 492.88 258.88 486.26 261.79 480.34 265.94 474.14 269.6 467.69 272.81 461.48 276.45 455.37 280.26 448.9 283.45 442.5 286.76 436.43 290.64 430.01 293.92 423.9 297.73 417.77 301.53 411.31 304.71 405.39 308.86 398.89 312 392.63 315.55 386.49 319.31 380.2 322.83 373.93 326.35 367.76 330.08 361.38 333.45 355.17 336.98"/><polygon class="cls-1" points="227.18 198.91 221.51 203.25 216.27 208.19 210.19 212.11 204.91 217.01 199.34 221.55 193.6 225.89 188.37 230.84 182.97 235.6 177.03 239.68 171.51 244.28 166.38 249.36 160.67 253.74 155.06 258.24 149.62 262.95 143.77 267.15 138.03 271.49 132.52 276.13 126.98 281.05 134.13 282.65 140.93 284.76 147.93 286.07 154.87 287.63 161.77 289.33 168.61 291.29 175.64 292.45 182.54 294.2 189.37 296.19 196.28 297.84 203.27 299.22 210.06 301.36 216.92 303.23 223.77 305.18 230.69 306.8 237.61 308.44 244.5 310.22 251.51 311.5 258.33 313.57 265.39 314.63 272.16 316.9 279.08 318.56 286.08 319.89 292.89 321.99 299.9 323.25 306.8 325.01 313.65 326.9 320.52 328.78 327.56 329.95 334.32 332.22 341.42 333.19 348.25 335.21 355.09 337 353.9 329.75 353.06 322.39 352.38 315.01 351.77 307.62 350.5 300.31 349.69 292.95 348.21 285.67 348.13 278.22 346.9 270.91 345.94 263.56 344.69 256.26 343.88 248.89 343.28 241.5 342.38 234.14 341.28 226.69 334.12 224.6 326.79 223.7 319.85 221.21 312.74 219.41 305.6 217.75 298.29 216.74 291.27 214.59 284.17 212.78 277 211.22 270.02 208.88 262.87 207.25 255.68 205.75 248.54 204.11 241.36 202.57 234.26 200.67 227.18 198.91"/><polygon class="cls-2" points="227.18 198.91 221.51 203.25 216.27 208.19 210.19 212.11 204.91 217.01 199.34 221.55 193.6 225.89 188.37 230.84 182.97 235.6 177.03 239.68 171.51 244.28 166.38 249.36 160.67 253.74 155.06 258.24 149.62 262.95 143.77 267.15 138.03 271.49 132.52 276.13 126.98 281.05 134.13 282.65 140.93 284.76 147.93 286.07 154.87 287.63 161.77 289.33 168.61 291.29 175.64 292.45 182.54 294.2 189.37 296.19 196.28 297.84 203.27 299.22 210.06 301.36 216.92 303.23 223.77 305.18 230.69 306.8 237.61 308.44 244.5 310.22 251.51 311.5 258.33 313.57 265.39 314.63 272.16 316.9 279.08 318.56 286.08 319.89 292.89 321.99 299.9 323.25 306.8 325.01 313.65 326.9 320.52 328.78 327.56 329.95 334.32 332.22 341.42 333.19 348.25 335.21 355.09 337 353.9 329.75 353.06 322.39 352.38 315.01 351.77 307.62 350.5 300.31 349.69 292.95 348.21 285.67 348.13 278.22 346.9 270.91 345.94 263.56 344.69 256.26 343.88 248.89 343.28 241.5 342.38 234.14 341.28 226.69 334.12 224.6 326.79 223.7 319.85 221.21 312.74 219.41 305.6 217.75 298.29 216.74 291.27 214.59 284.17 212.78 277 211.22 270.02 208.88 262.87 207.25 255.68 205.75 248.54 204.11 241.36 202.57 234.26 200.67 227.18 198.91"/><polyline class="cls-2" points="211.96 212.93 218.83 214.93 225.82 216.48 232.77 218.15 239.67 220.07 246.63 221.71 253.43 224.03 260.48 225.33 267.41 227.11 274.36 228.81 281.11 231.32 288.05 233.07 295.03 234.66 302.13 235.76 309.04 237.65 315.92 239.63 322.77 241.69 329.79 243.16 336.64 245.29 343.61 246.42 350.09 243.25 356.32 239.36 362.99 236.28 369.04 232.07 375.78 229.11 382.08 225.35 388.24 221.35 394.82 218.09 401.21 214.5 407.55 210.82 414.18 207.63 420.44 203.81 426.91 200.35 432.99 196.2 439.42 192.67 445.72 188.91 452.38 185.8 458.85 182.34 465.24 178.75 471.69 175.24 477.97 171.46 484.42 167.95 490.77 164.28 497.27 160.87 503.32 156.65 510.16 153.82"/><polyline class="cls-2" points="192.49 228.39 199.6 229.72 206.61 231.42 213.56 233.37 220.59 235.04 227.53 237.02 234.38 239.4 241.36 241.21 248.43 242.72 255.4 244.59 262.54 245.85 269.41 248.11 276.34 250.14 283.42 251.61 290.32 253.76 297.33 255.52 304.32 257.32 311.28 259.25 318.37 260.68 325.45 262.11 332.34 264.34 339.4 265.91 346.31 267.6 352.77 264.75 358.64 260.59 364.97 257.26 371.27 253.88 377.68 250.67 383.61 246.62 389.96 243.32 396.06 239.59 402.61 236.62 408.5 232.51 415 229.45 420.92 225.4 427.47 222.43 433.41 218.4 439.67 214.94 446.24 212.01 452.44 208.44 458.63 204.84 464.89 201.38 471.07 197.76 477.42 194.43 483.16 190.05 489.68 187.05 495.63 183.03 502.21 180.13 508.4 176.52 514.65 173.02 520.74 169.26 526.91 165.62 533.28 162.31 539.72 159.13"/><polyline class="cls-2" points="173.87 244.21 180.72 246.67 187.79 248.32 194.71 250.53 201.71 252.44 208.77 254.14 215.98 255.25 222.99 257.14 230 258.99 236.84 261.5 243.87 263.34 250.86 265.28 258.05 266.51 264.93 268.86 271.97 270.63 279.06 272.22 285.98 274.46 292.98 276.35 300.17 277.56 307.08 279.83 314.02 281.97 321.18 283.3 328.05 285.71 335.25 286.9 342.22 288.97 349.27 290.93 355.25 286.93 361.65 283.8 367.8 280.21 374.25 277.18 380.38 273.58 386.42 269.81 392.57 266.22 398.91 262.98 404.95 259.23 411.18 255.79 417.2 251.97 423.6 248.84 429.73 245.24 436.1 242.04 442.04 238.08 448.12 234.39 454.36 230.96 460.9 228.06 466.84 224.12 473.29 221.05 479.5 217.59 485.66 214.02 491.8 210.41 497.76 206.48 504.18 203.38 510.25 199.65 516.57 196.38 522.89 193.1 529.03 189.5 535.31 186.13 541.32 182.29 547.49 178.74 553.92 175.65 560.1 172.1 566.12 168.28 572.4 164.9"/><polyline class="cls-2" points="151.85 262.03 158.91 263.19 165.84 264.92 172.61 267.23 179.61 268.68 186.47 270.63 193.44 272.18 200.18 274.63 207.02 276.68 214.06 277.96 220.97 279.76 227.87 281.56 234.85 283.1 241.56 285.64 248.52 287.25 255.43 289.04 262.36 290.78 269.28 292.55 276.25 294.1 283.14 295.98 290.11 297.58 296.91 299.75 303.87 301.36 310.63 303.76 317.54 305.56 324.47 307.28 331.58 308.29 338.27 310.95 345.39 311.99 352.19 313.89 358.41 310.27 365.04 307.2 371.25 303.38 377.36 299.38 384.06 296.43 390.32 292.71 396.46 288.76 403.01 285.55 409.2 281.71 415.45 277.98 422.1 274.93 428.38 271.24 434.57 267.39 440.94 263.87 447.37 260.44 453.91 257.2 460.1 253.36 466.36 249.63 472.72 246.08 479.22 242.77 485.65 239.34 491.62 235.11 498.03 231.64 504.38 228.07 510.57 224.2 517.33 221.35 523.55 217.55 529.93 214.02 536.05 210.05 542.42 206.51 548.74 202.89 555.26 199.62 561.78 196.34 567.84 192.25 574.47 189.16 580.62 185.23 587.17 182.02 593.52 178.43 599.7 174.53 606.05 170.93"/><polyline class="cls-2" points="355.32 337.06 355.09 344.24 355.17 351.44 354.6 358.61 354.44 365.8 353.39 372.94 353.58 380.14 353.14 387.31 352.57 394.48 352.51 401.68 351.54 408.82 350.88 415.98 350.36 423.14 350.48 430.36 349.78 437.52 349.44 444.69 348.61 451.83 347.71 458.97 346.8 466.1 346.83 473.32 345.77 480.43 345.49 487.63 344.37 494.74 343.61 501.89 342.97 509.05 341.76 516.14 341.12 523.3 340.59 530.49 339.29 537.57 337.84 544.63 337.11 551.78 335.94 558.88 335.36 566.07 334.09 573.15 332.81 580.22 331.86 587.36 330.04 594.34 329 601.47 327.37 608.48 325.82 615.5 324.25 622.52 322.81 629.58 320.59 636.43 319.23 643.5 317.66 650.54 315.07 657.27 313.37 664.28 310.8 671 308.33 677.76 305.24 684.26 302.41 690.86 299.33 697.35 295.72 703.55 292.37 709.92 287.71 715.4 283.35 721.12"/><polyline class="cls-2" points="126.8 280.92 125.63 288.08 124.38 295.22 122.42 302.21 121.53 309.42 120.12 316.53 118.03 323.49 116.56 330.59 114.81 337.62 113.64 344.78 112.22 351.89 110.5 358.93 108.3 365.86 107.24 373.05 105.5 380.08 103.75 387.12 101.49 394.02 100.12 401.15 98.75 408.27 96.9 415.28 95.14 422.32 92.91 429.23 91.63 436.38 89.99 443.44 88.2 450.47 86.58 457.54 83.98 464.35 82.83 471.56 80.95 478.56 78.94 485.53 76.77 492.46 74.56 499.37 72.67 506.37 70.07 513.15 68.6 520.28 66.15 527.11 64.17 534.1 61.76 540.94 58.67 547.52 56.23 554.35 53.49 561.05 50.62 567.71 46.84 573.9 42.31 579.49"/><polyline class="cls-2" points="635.85 176.49 637.58 183.46 639.52 190.38 641.44 197.31 642.94 204.32 644.85 211.25 646.4 218.26 648.36 225.17 649.48 232.29 651.34 239.23 653.3 246.14 654.95 253.13 657.24 259.95 659.11 266.88 660.9 273.83 662.65 280.8 664.52 287.73 666.98 294.5 669.16 301.34 671.2 308.23 672.4 315.36 674.88 322.12 676.86 329.02 679.08 335.86 681.68 342.57 683.31 349.58 685.35 356.48 687.43 363.35 690.53 369.89 692.19 376.92 695.15 383.49 697.07 390.44 699.19 397.31 702.24 403.84 704.21 410.78 707.21 417.32 710.1 423.9 712.4 430.72 715.47 437.22 718.03 443.94 720.94 450.52 724.17 456.94 727.52 463.3 731.03 469.57 734.73 475.73 738.89 481.59 742.77 487.63 747.38 493.14"/><polyline class="cls-2" points="227.21 199.07 234.22 197.27 241.32 195.97 248.49 195 255.55 193.5 262.6 191.94 269.68 190.52 276.68 188.72 283.88 187.93 290.98 186.63 297.98 184.82 305.05 183.35 312.16 182.1 319.29 180.95 326.21 178.75 333.39 177.86 340.4 176.05 347.55 175.01 354.71 174.02 361.63 171.77 368.74 170.48 375.88 169.4 383 168.18 390.05 166.58 397.05 164.75 404.29 164.1 411.34 162.55 418.39 160.96 425.54 159.88 432.48 157.75 439.61 156.58 446.78 155.63 453.91 154.42 460.81 152.11 467.96 151.02 475.14 150.06 482.37 148.35 475.05 146.3 467.8 144.79 460.39 143.98 453.32 141.62 446.06 140.19 438.69 139.19 431.5 137.39 424.37 135.31 416.97 134.48 409.83 132.46 402.49 131.37 395.22 129.91 388.01 128.16 380.83 126.32 373.65 124.45 366.13 122.78 364.78 130.07 362.94 136.95 361.05 143.81 359.52 150.75 357.96 157.7 356.69 164.71 354.25 171.43 352.56 178.34 351.38 185.38 349.78 192.31 347.37 199.04 346.31 206.1 344.28 212.93 342.58 219.85 340.83 226.75"/><polyline class="cls-2" points="80.6 601.95 87.55 604.07 94.56 605.95 101.71 607.27 108.68 609.29 115.8 610.74 122.7 613.08 129.7 615 136.75 616.7 143.81 618.39 150.87 620.08 157.99 621.55 164.91 623.79 172.15 624.74 179.22 626.39 186.08 628.93 193.26 630.11 200.32 631.78 207.31 633.79 214.26 635.92 221.48 636.98 228.33 639.5 235.39 641.19 242.47 642.86 249.53 644.57"/><polyline class="cls-2" points="283.08 693.89 283.28 701.05 283.44 708.21 283.49 715.37 283.27 722.53 283.36 729.7 283.29 736.87"/><polyline class="cls-2" points="747.46 465.96 747.92 472.77 747.55 479.57 747.91 486.38 747.57 493.18 747.93 499.98 747.54 506.79 747.49 513.61"/><polyline class="cls-2" points="42.27 551.63 42.97 558.43 42.05 565.24 42.65 572.04 42.48 578.84 42.38 585.65 42.77 592.46 42.87 599.27"/></svg>