<svg xmlns="http://www.w3.org/2000/svg" viewBox="0 0 800 800"><defs><style>.a{fill:#fff;}.b{fill:none;stroke:#000;stroke-linejoin:bevel;stroke-width:13px;}</style></defs><title>canvas (65)</title><polygon class="a" points="479.17 692.11 471.98 692.26 464.83 691.6 457.69 691.63 450.55 691.79 443.41 691.85 436.26 691.74 429.12 692.42 421.98 691.98 414.83 691.75 407.69 691.56 400.54 692.46 393.4 692.21 386.25 692.16 379.11 692.3 371.96 691.65 364.81 692.08 357.67 692.14 350.52 692.01 343.38 691.82 336.23 692.2 329.08 691.62 321.94 691.97 314.79 692.01 307.63 692.28 300.47 692.06 298.46 685.19 296.01 678.49 293.82 671.7 291.22 665.05 288.3 658.51 286.58 651.56 283.98 644.91 282.05 638.03 279.02 631.53 276.93 624.7 274.91 617.85 272.34 611.19 269.66 604.57 267.65 597.72 264.81 591.16 262.44 584.43 260.73 577.47 257.77 570.96 255.44 564.21 253.13 557.46 250.72 550.75 248.84 543.85 246.7 537.04 244 530.42 241.18 523.85 238.9 517.09 236.72 510.3 234.09 503.65 232.32 496.71 229.65 490.08 227.03 483.44 225.11 476.55 222.61 469.86 220.15 463.17 217.91 456.39 215.44 449.69 213.24 442.9 211.26 436.03 208.44 429.45 206.31 422.64 203.52 416.04 201.78 409.41 208.72 408.75 215.96 408.97 223.2 408.98 230.44 409.4 237.68 409.39 244.92 408.7 252.16 408.95 259.4 409.44 266.65 409.36 273.89 409.46 281.13 409.39 288.37 408.76 295.62 409.57 302.86 409.58 310.1 409.58 317.34 408.75 324.58 409.56 331.82 408.81 339.07 409.6 346.31 408.72 353.55 409.6 360.79 409.08 368.04 409.42 375.28 409.66 382.51 409.15 389.75 409.05 397 408.94 404.23 409.48 411.48 409.2 418.72 409.39 425.96 409.2 433.2 408.95 440.44 409.39 447.69 408.78 454.93 409.63 462.17 409.37 469.42 408.88 476.66 409.56 483.91 408.72 491.15 409.5 498.4 409.67 505.64 409.02 512.89 408.9 520.13 408.7 527.38 409.24 534.62 409.3 541.87 409.08 549.11 409.63 556.36 409.52 563.61 408.88 570.86 409.5 577.75 409.45 576.21 416.07 573.04 422.52 570.79 429.3 568.6 436.09 566.39 442.87 564.06 449.61 561.25 456.19 559.66 463.19 556.45 469.62 554.66 476.56 552.26 483.28 549.89 490 547.66 496.78 544.84 503.35 542.98 510.25 539.97 516.75 538.32 523.74 535.28 530.23 533.61 537.2 530.64 543.72 528.6 550.56 526.17 557.27 524.29 564.17 521.48 570.75 518.91 577.4 516.59 584.15 514.59 591.01 511.86 597.62 509.98 604.52 507.33 611.16 504.74 617.81 502.67 624.65 500.51 631.45 497.92 638.11 495.37 644.78 493.39 651.65 490.67 658.25 488.86 665.18 486.06 671.76 484.09 678.64 481.52 685.31 479.17 692.11"/><polygon class="b" points="479.17 692.11 471.98 692.26 464.83 691.6 457.69 691.63 450.55 691.79 443.41 691.85 436.26 691.74 429.12 692.42 421.98 691.98 414.83 691.75 407.69 691.56 400.54 692.46 393.4 692.21 386.25 692.16 379.11 692.3 371.96 691.65 364.81 692.08 357.67 692.14 350.52 692.01 343.38 691.82 336.23 692.2 329.08 691.62 321.94 691.97 314.79 692.01 307.63 692.28 300.47 692.06 298.46 685.19 296.01 678.49 293.82 671.7 291.22 665.05 288.3 658.51 286.58 651.56 283.98 644.91 282.05 638.03 279.02 631.53 276.93 624.7 274.91 617.85 272.34 611.19 269.66 604.57 267.65 597.72 264.81 591.16 262.44 584.43 260.73 577.47 257.77 570.96 255.44 564.21 253.13 557.46 250.72 550.75 248.84 543.85 246.7 537.04 244 530.42 241.18 523.85 238.9 517.09 236.72 510.3 234.09 503.65 232.32 496.71 229.65 490.08 227.03 483.44 225.11 476.55 222.61 469.86 220.15 463.17 217.91 456.39 215.44 449.69 213.24 442.9 211.26 436.03 208.44 429.45 206.31 422.64 203.52 416.04 201.78 409.41 208.72 408.75 215.96 408.97 223.2 408.98 230.44 409.4 237.68 409.39 244.92 408.7 252.16 408.95 259.4 409.44 266.65 409.36 273.89 409.46 281.13 409.39 288.37 408.76 295.62 409.57 302.86 409.58 310.1 409.58 317.34 408.75 324.58 409.56 331.82 408.81 339.07 409.6 346.31 408.72 353.55 409.6 360.79 409.08 368.04 409.42 375.28 409.66 382.51 409.15 389.75 409.05 397 408.94 404.23 409.48 411.48 409.2 418.72 409.39 425.96 409.2 433.2 408.95 440.44 409.39 447.69 408.78 454.93 409.63 462.17 409.37 469.42 408.88 476.66 409.56 483.91 408.72 491.15 409.5 498.4 409.67 505.64 409.02 512.89 408.9 520.13 408.7 527.38 409.24 534.62 409.3 541.87 409.08 549.11 409.63 556.36 409.52 563.61 408.88 570.86 409.5 577.75 409.45 576.21 416.07 573.04 422.52 570.79 429.3 568.6 436.09 566.39 442.87 564.06 449.61 561.25 456.19 559.66 463.19 556.45 469.62 554.66 476.56 552.26 483.28 549.89 490 547.66 496.78 544.84 503.35 542.98 510.25 539.97 516.75 538.32 523.74 535.28 530.23 533.61 537.2 530.64 543.72 528.6 550.56 526.17 557.27 524.29 564.17 521.48 570.75 518.91 577.4 516.59 584.15 514.59 591.01 511.86 597.62 509.98 604.52 507.33 611.16 504.74 617.81 502.67 624.65 500.51 631.45 497.92 638.11 495.37 644.78 493.39 651.65 490.67 658.25 488.86 665.18 486.06 671.76 484.09 678.64 481.52 685.31 479.17 692.11"/><polygon class="a" points="578.25 408.03 572.29 411.57 565.13 413.2 557.88 414.33 550.67 415.68 543.38 416.4 536.1 417.25 528.83 418.12 521.59 419.4 514.24 419.51 506.98 420.59 499.64 420.69 492.36 421.64 485.06 422.17 477.75 422.75 470.4 422.8 463.09 423.35 455.76 423.46 448.44 423.72 441.13 424.37 433.79 424.29 426.46 424.48 419.13 424.24 411.8 424.72 404.47 424.52 397.13 425.09 389.8 424.64 382.47 424.54 375.13 425.08 367.8 425.2 360.47 424.72 353.14 424.71 345.82 424.15 338.48 424.36 331.18 423.39 323.84 423.46 316.54 422.74 309.19 422.93 301.89 422.13 294.56 421.98 287.26 421.25 279.96 420.62 272.67 419.94 265.3 420.03 258.06 418.82 250.81 417.74 243.51 417.07 236.22 416.39 228.9 415.76 221.66 414.58 214.56 412.69 207.37 411.3 201.14 408.03 207.61 405.58 214.65 403.44 221.96 402.99 229.25 402.49 236.52 401.93 243.74 400.59 251.06 400.55 258.36 400.2 265.62 399.28 272.94 399.38 280.23 399.13 287.52 398.69 294.84 398.95 302.12 398.02 309.43 398.12 316.74 398.23 324.04 397.96 331.33 397.17 338.64 397.65 345.94 397.11 353.25 397.67 360.56 397.56 367.86 396.87 375.17 397.01 382.48 396.73 389.8 397.03 397.11 397.17 404.41 397.1 411.72 396.8 419.03 397.02 426.33 397.64 433.63 397.69 440.94 397.91 448.25 397.22 455.55 397.78 462.85 398.17 470.15 398.37 477.47 397.92 484.76 398.74 492.04 399.31 499.35 399.4 506.64 399.72 513.97 399.36 521.23 400.39 528.56 400.17 535.82 401.13 543.13 401.25 550.35 402.55 557.68 402.7 564.89 403.96 572 405.56 578.25 408.03"/><polygon class="b" points="578.25 408.03 572.29 411.57 565.13 413.2 557.88 414.33 550.67 415.68 543.38 416.4 536.1 417.25 528.83 418.12 521.59 419.4 514.24 419.51 506.98 420.59 499.64 420.69 492.36 421.64 485.06 422.17 477.75 422.75 470.4 422.8 463.09 423.35 455.76 423.46 448.44 423.72 441.13 424.37 433.79 424.29 426.46 424.48 419.13 424.24 411.8 424.72 404.47 424.52 397.13 425.09 389.8 424.64 382.47 424.54 375.13 425.08 367.8 425.2 360.47 424.72 353.14 424.71 345.82 424.15 338.48 424.36 331.18 423.39 323.84 423.46 316.54 422.74 309.19 422.93 301.89 422.13 294.56 421.98 287.26 421.25 279.96 420.62 272.67 419.94 265.3 420.03 258.06 418.82 250.81 417.74 243.51 417.07 236.22 416.39 228.9 415.76 221.66 414.58 214.56 412.69 207.37 411.3 201.14 408.03 207.61 405.58 214.65 403.44 221.96 402.99 229.25 402.49 236.52 401.93 243.74 400.59 251.06 400.55 258.36 400.2 265.62 399.28 272.94 399.38 280.23 399.13 287.52 398.69 294.84 398.95 302.12 398.02 309.43 398.12 316.74 398.23 324.04 397.96 331.33 397.17 338.64 397.65 345.94 397.11 353.25 397.67 360.56 397.56 367.86 396.87 375.17 397.01 382.48 396.73 389.8 397.03 397.11 397.17 404.41 397.1 411.72 396.8 419.03 397.02 426.33 397.64 433.63 397.69 440.94 397.91 448.25 397.22 455.55 397.78 462.85 398.17 470.15 398.37 477.47 397.92 484.76 398.74 492.04 399.31 499.35 399.4 506.64 399.72 513.97 399.36 521.23 400.39 528.56 400.17 535.82 401.13 543.13 401.25 550.35 402.55 557.68 402.7 564.89 403.96 572 405.56 578.25 408.03"/><polygon points="509.89 597.13 502.8 597.75 495.48 596.33 488.46 593.9 481.75 590.79 474.83 588.03 468.58 584.01 462.35 579.98 456.33 575.61 451.18 570.21 445.64 566.06 440.06 561.94 433.82 558.88 427.24 556.72 420.4 555.85 413.52 554.99 406.67 556.21 400.38 559.12 394.53 562.68 388.83 566.47 388.94 566.64 384.21 572.25 378.98 577.43 372.29 580.5 365.25 582.54 357.92 583.07 350.56 582.5 343.68 579.79 336.5 578.04 330.08 574.41 323.84 570.57 317.79 566.43 311.75 562.26 306.59 557.02 301.17 552.09 295.99 546.94 289.85 543 283.48 539.52 276.63 537.13 269.45 536.28 262.23 536 254.96 536.82 248.5 539.63 246.48 532.96 243.91 526.36 242.66 519.38 240.8 512.56 238.65 505.85 244.42 502.14 250.71 499.27 257.08 496.36 264.06 495.86 271.07 495.55 277.88 497.22 284.31 499.93 290.5 503.13 296.23 507.14 300.9 512.34 306.01 517.64 311.91 522.06 317.53 526.8 323.52 531.06 330.19 534.21 336.74 537.49 343.42 540.59 350.65 542.06 357.94 542.76 365.27 542.62 372.46 540.93 378.65 536.95 384.28 532.31 389.24 526.8 388.96 526.8 394.51 522.64 400.4 519.15 406.72 516.4 413.54 515.22 420.47 515.25 427.08 517.27 433.69 519.17 439.77 522.42 445.62 526.09 450.97 530.46 456.27 535.28 461.84 539.8 467.96 543.57 473.88 547.61 480.27 550.87 486.99 553.31 493.55 556.3 500.7 557.05 507.85 557.75 514.95 556.54 521.54 553.71 528.14 550.17 525.2 556.87 522.78 563.65 519.96 570.27 517.37 576.98 515.1 583.82 512.32 590.45 509.89 597.13"/><polygon class="b" points="509.89 597.13 502.8 597.75 495.48 596.33 488.46 593.9 481.75 590.79 474.83 588.03 468.58 584.01 462.35 579.98 456.33 575.61 451.18 570.21 445.64 566.06 440.06 561.94 433.82 558.88 427.24 556.72 420.4 555.85 413.52 554.99 406.67 556.21 400.38 559.12 394.53 562.68 388.83 566.47 388.94 566.64 384.21 572.25 378.98 577.43 372.29 580.5 365.25 582.54 357.92 583.07 350.56 582.5 343.68 579.79 336.5 578.04 330.08 574.41 323.84 570.57 317.79 566.43 311.75 562.26 306.59 557.02 301.17 552.09 295.99 546.94 289.85 543 283.48 539.52 276.63 537.13 269.45 536.28 262.23 536 254.96 536.82 248.5 539.63 246.48 532.96 243.91 526.36 242.66 519.38 240.8 512.56 238.65 505.85 244.42 502.14 250.71 499.27 257.08 496.36 264.06 495.86 271.07 495.55 277.88 497.22 284.31 499.93 290.5 503.13 296.23 507.14 300.9 512.34 306.01 517.64 311.91 522.06 317.53 526.8 323.52 531.06 330.19 534.21 336.74 537.49 343.42 540.59 350.65 542.06 357.94 542.76 365.27 542.62 372.46 540.93 378.65 536.95 384.28 532.31 389.24 526.8 388.96 526.8 394.51 522.64 400.4 519.15 406.72 516.4 413.54 515.22 420.47 515.25 427.08 517.27 433.69 519.17 439.77 522.42 445.62 526.09 450.97 530.46 456.27 535.28 461.84 539.8 467.96 543.57 473.88 547.61 480.27 550.87 486.99 553.31 493.55 556.3 500.7 557.05 507.85 557.75 514.95 556.54 521.54 553.71 528.14 550.17 525.2 556.87 522.78 563.65 519.96 570.27 517.37 576.98 515.1 583.82 512.32 590.45 509.89 597.13"/><polyline points="238.38 375.16 236.57 382.76 234.76 390.37 232.94 397.96 230.9 405.51 229.67 413.21 236.61 413.56 243.73 413.01 250.83 413.13 257.93 413.54 265.05 413.32 272.15 413.51 279.25 414.35 286.37 413.72 293.47 414.67 300.57 414.65 307.69 414.32 314.8 414.04 321.9 414.25 329.02 414.47 336.13 414.11 343.24 414.9 350.35 414.16 357.46 414.69 364.57 414.55 371.69 414.84 378.8 414.03 385.91 414.63 393.02 414.72 400.24 413.85 407.48 413.62 414.73 413.87 421.95 413.1 429.2 413.36 436.45 413.24 443.66 412.36 450.92 412.67 458.16 412.31 465.42 412.38 472.65 411.92 479.88 411.35 487.12 410.95 494.37 410.79 501.6 410.21 508.85 410.13 516.1 410.12 523.33 409.66 530.53 408.63 537.76 408.26 544.58 408.16 543.9 401.7 543.62 395.04 542.47 388.48 541.6 381.88 541.23 375.21"/><polyline class="b" points="238.38 375.16 236.57 382.76 234.76 390.37 232.94 397.96 230.9 405.51 229.67 413.21 236.61 413.56 243.73 413.01 250.83 413.13 257.93 413.54 265.05 413.32 272.15 413.51 279.25 414.35 286.37 413.72 293.47 414.67 300.57 414.65 307.69 414.32 314.8 414.04 321.9 414.25 329.02 414.47 336.13 414.11 343.24 414.9 350.35 414.16 357.46 414.69 364.57 414.55 371.69 414.84 378.8 414.03 385.91 414.63 393.02 414.72 400.24 413.85 407.48 413.62 414.73 413.87 421.95 413.1 429.2 413.36 436.45 413.24 443.66 412.36 450.92 412.67 458.16 412.31 465.42 412.38 472.65 411.92 479.88 411.35 487.12 410.95 494.37 410.79 501.6 410.21 508.85 410.13 516.1 410.12 523.33 409.66 530.53 408.63 537.76 408.26 544.58 408.16 543.9 401.7 543.62 395.04 542.47 388.48 541.6 381.88 541.23 375.21"/><polygon class="a" points="541.26 372.74 535.23 376.95 528.33 379.34 521.33 381.65 514.09 382.86 506.81 383.8 499.56 384.91 492.26 385.65 485.02 386.83 477.67 387.03 470.43 388.44 463.07 388.35 455.79 389.37 448.44 389.47 441.11 389.71 433.79 390.07 426.48 390.66 419.15 391.04 411.82 391.35 404.48 391.05 397.14 391.38 389.8 391.05 382.46 391.29 375.13 391.32 367.8 390.82 360.47 390.65 353.14 390.26 345.8 390.25 338.48 389.75 331.11 390.17 323.84 388.91 316.49 388.98 309.18 388.3 301.88 387.49 294.54 387.16 287.36 385.41 280.02 385.04 272.7 384.32 265.47 383.02 258.31 381.38 251.11 379.9 244.39 376.87 238.36 372.74 244.35 368.49 251.13 365.63 258.33 364.14 265.63 363.29 272.77 361.61 279.99 360.25 287.31 359.65 294.59 358.8 301.91 358.32 309.17 357.07 316.49 356.65 323.82 356.27 331.12 355.51 338.46 355.44 345.79 355.04 353.11 354.74 360.44 354.54 367.78 354.12 375.11 353.99 382.45 353.95 389.8 354.56 397.13 354.38 404.46 354.42 411.8 354.31 419.12 354.94 426.49 354.26 433.78 355.4 441.14 355.15 448.44 356.04 455.78 356.1 463.05 357.24 470.38 357.63 477.74 357.66 485.04 358.44 492.33 359.25 499.6 360.28 506.87 361.29 514.01 363.05 521.25 364.25 528.48 365.61 535.3 368.36 541.26 372.74"/><polygon class="b" points="541.26 372.74 535.23 376.95 528.33 379.34 521.33 381.65 514.09 382.86 506.81 383.8 499.56 384.91 492.26 385.65 485.02 386.83 477.67 387.03 470.43 388.44 463.07 388.35 455.79 389.37 448.44 389.47 441.11 389.71 433.79 390.07 426.48 390.66 419.15 391.04 411.82 391.35 404.48 391.05 397.14 391.38 389.8 391.05 382.46 391.29 375.13 391.32 367.8 390.82 360.47 390.65 353.14 390.26 345.8 390.25 338.48 389.75 331.11 390.17 323.84 388.91 316.49 388.98 309.18 388.3 301.88 387.49 294.54 387.16 287.36 385.41 280.02 385.04 272.7 384.32 265.47 383.02 258.31 381.38 251.11 379.9 244.39 376.87 238.36 372.74 244.35 368.49 251.13 365.63 258.33 364.14 265.63 363.29 272.77 361.61 279.99 360.25 287.31 359.65 294.59 358.8 301.91 358.32 309.17 357.07 316.49 356.65 323.82 356.27 331.12 355.51 338.46 355.44 345.79 355.04 353.11 354.74 360.44 354.54 367.78 354.12 375.11 353.99 382.45 353.95 389.8 354.56 397.13 354.38 404.46 354.42 411.8 354.31 419.12 354.94 426.49 354.26 433.78 355.4 441.14 355.15 448.44 356.04 455.78 356.1 463.05 357.24 470.38 357.63 477.74 357.66 485.04 358.44 492.33 359.25 499.6 360.28 506.87 361.29 514.01 363.05 521.25 364.25 528.48 365.61 535.3 368.36 541.26 372.74"/><polyline class="b" points="315.54 692.27 313.5 685.38 312.26 678.29 310.77 671.27 309.01 664.3 306.69 657.48 305.61 650.35 303.71 643.42 301.99 636.45 300.41 629.44 297.96 622.64 296.94 615.5 294.81 608.62 293.43 601.57 291.53 594.63 290.1 587.59 288.29 580.63 286.84 573.59 285.04 566.64 282.73 559.81 281.26 552.77 279.51 545.8 277.87 538.81 276.33 531.78 274.11 524.91"/><polyline class="b" points="339.98 692.36 339.29 685.22 337.61 678.26 336.83 671.13 335.32 664.14 334.02 657.11 332.82 650.06 331.84 642.97 330.21 635.99 329.2 628.91 327.78 621.89 327.15 614.74 325.46 607.78 324.32 600.71 323.07 593.67 321.92 586.61 320.93 579.52 319.37 572.53 318.13 565.49 317.02 558.42 315.52 551.42 314.42 544.34 312.67 537.38"/><polyline class="b" points="364.88 692.33 364.17 685.22 364.27 678.02 363.27 670.93 362.21 663.84 362.18 656.66 360.66 649.61 360.72 642.42 359.49 635.35 358.62 628.24 358.63 621.05 357.64 613.95 356.79 606.85 356.75 599.66 355.2 592.62 354.6 585.49 353.88 578.37 353.9 571.18 352.78 564.09 352.24 556.95 351.88 549.78"/><polyline class="b" points="390.91 692.8 391.14 685.58 390.57 678.36 391 671.14 390.86 663.92 390.55 656.7 391 649.48 390.92 642.25 390.89 635.03 390.91 627.81 390.98 620.59 391.04 613.37 391.14 606.15 390.46 598.93 390.33 591.71 390.93 584.49 390.56 577.26 391.2 570.03 390.45 562.8"/><polyline class="b" points="463.89 692.21 466.2 685.35 467.17 678.16 469.56 671.32 471.44 664.36 473.06 657.33 474.84 650.34 476.08 643.21 477.65 636.17 480.12 629.35 481.18 622.18 483.43 615.31 484.47 608.13 486.58 601.23 487.94 594.13 489.48 587.08 492.1 580.29 493.4 573.18 495.36 566.23 496.84 559.15"/><polyline class="b" points="439.51 692.32 440.6 685.16 441.63 677.99 442.71 670.83 444.19 663.74 445.94 656.69 446.65 649.46 448.38 642.42 449.01 635.17 450.9 628.15 451.64 620.93 453.06 613.83 454.1 606.66 456.08 599.65 456.96 592.45 458.03 585.29 459.06 578.12 461.22 571.14 462.08 563.93 463.68 556.85"/><polyline class="b" points="414.8 692.33 415.53 685.22 415.76 678.05 416.57 670.94 417.44 663.84 417.89 656.69 418.3 649.54 419.03 642.42 420.2 635.35 420.51 628.19 421.84 621.12 421.75 613.92 422.86 606.84 423.25 599.69 423.88 592.56 424.86 585.47 425.21 578.31 426.33 571.23 426.87 564.09 427.18 556.92 428.32 549.83"/><polyline class="b" points="570.01 409.84 563.28 412.58 556.83 415.81 550.41 419.12 543.99 422.45 537.26 425.12 530.66 428.07 523.94 430.74 517.22 433.42 510.4 435.83 503.47 437.9 496.61 440.16 489.94 443.02 482.89 444.69 476 446.9 469.04 448.87 461.99 450.48 454.93 452.05 447.79 453.23 440.76 455 433.56 455.79 426.44 457.15 419.23 457.71 412.04 458.53 404.81 458.95 397.58 459.11 390.35 458.88 390.01 459.15 382.79 459.05 375.57 458.77 368.34 458.49 361.17 457.58 354.04 456.41 346.83 455.79 339.67 454.81 332.62 453.17 325.5 451.91 318.36 450.7 311.31 449.08 304.48 446.58 297.5 444.72 290.55 442.74 283.69 440.44 276.92 437.91 270.08 435.59 263.27 433.17 256.6 430.4 249.68 428.24 243.15 425.12 236.6 422.06 229.8 419.54 223.28 416.43 216.95 412.93 210.6 409.52"/><polyline class="b" points="420.08 394.73 423.07 388.16 426.53 381.77 428.59 374.81 431.86 368.32 434.08 361.43 436.39 354.58 438.45 347.64 441.27 340.96 443.13 333.97 445.32 327.08 447.98 320.34 450.29 313.48 451.73 306.37 453.45 299.34 455.54 292.42 457.68 285.51 459.22 278.44 461.11 271.46 462.64 264.39 464.5 257.41 466.24 250.4 467.58 243.29 469.43 236.29 471.4 229.32 472.44 222.15 473.76 215.04 475.25 207.96 476.2 200.79 477.42 193.66 478.68 186.55 480.16 179.47 481.2 172.31 482.32 165.16 483.73 158.06 484.12 150.81 484.69 143.6 485.59 136.42 486.84 129.28 487.18 122.05 488.51 114.91 488.97 107.68"/><polyline class="b" points="440.09 390.29 441.65 383.23 443.43 376.19 444.6 369.03 445.96 361.91 446.35 354.64 447.51 347.49 449.05 340.38 450.04 333.19 450.29 325.93 451.4 318.74 451.62 311.48 452.01 304.24 452.51 297.01 452.31 289.74 453.35 282.52 453.48 275.26 452.91 268 452.53 260.76 452.54 253.51 452.93 246.24 452.28 239.01 451.88 231.76 451.44 224.51 450.18 217.35 449.46 210.13 448.44 202.95 447.57 195.73 445.63 188.71 444.14 181.62 443.17 174.4 441.2 167.41"/><polyline class="b" points="428.4 395.1 430.72 388.21 434.18 381.84 436.8 375.09 439.93 368.56 442.8 361.92 446.27 355.55 449.18 348.93 452.44 342.46 455.8 336.05 458.61 329.38 461.68 322.83 464.62 316.21 467.68 309.65 470.98 303.21 474.63 296.94 477.45 290.27 480.95 283.93 484.31 277.52 487.14 270.85 490.69 264.53 493.56 257.87 497.37 251.69 500.23 245.01 503.94 238.78 507.4 232.42 510.4 225.82 513.92 219.5 517.47 213.19 521.03 206.89 524.49 200.53 528.45 194.45 531.47 187.84 535.13 181.59 538.75 175.31 543.18 169.55 547.05 163.43 550.57 157.07 555.41 151.63 559.54 145.7 563.73 139.78"/><polyline class="b" points="328.46 390.02 327.87 382.82 327.2 375.61 325.81 368.51 324.67 361.38 324.06 354.15 322.03 347.17 320.65 340.07 319.24 332.99 318.22 325.81 316.58 318.76 315.09 311.67 313.23 304.68 311.09 297.76 308.35 291.04 306.33 284.09 304.15 277.19 301.8 270.34 298.82 263.74 295.6 257.26 292.5 250.73 289.04 244.38 285.42 238.12 281.07 232.34 276.5 226.77 271.64 221.47 266.7 216.15 260.57 212.29 254.18 208.94 247.25 206.98 240.15 206.03 232.9 205.34 225.74 206.7 219.06 209.55 212.3 212.11 205.89 215.5 199.92 219.59 194.08 223.88 188.6 228.6 183.33 233.57 178.49 238.95 172.86 243.54 168.6 249.39 163.36 254.37 159.11 260.2 154.41 265.67 150.23 271.53 146.44 277.67 142.36 283.59 138.23 289.5 134.81 295.85 131.13 302.06 128.29 308.69 125.72 315.41 122.96 322.05 120.32 328.75 118.3 335.65 116.21 342.54 114.86 349.61 113.42 356.65 112.31 363.76 111.35 370.89 110.96 378.08 111.1 385.27 110.4 392.48 111.41 399.63 112.3 406.77 113.3 413.87 114.21 421.01 116.04 427.96 117.22 435.08 119.15 442.03 121.65 448.79 124.31 455.49 127.44 461.97 130.51 468.47 134.25 474.6"/><polygon class="b" points="171.35 497.03 167.64 490.85 163.82 484.79 159.28 479.21 153.73 474.61 147.22 471.63 140.42 469.38 133.34 470.7 127.99 475.17 123.71 480.67 120.02 486.73 118.25 493.6 116.54 500.44 115.17 507.38 114.62 514.46 114.92 521.56 117.14 528.3 121.95 533.77 129.11 531.41 135.13 527.06 141.01 522.56 147 518.22 153.56 514.8 160.93 512.55 168.19 509.94 172.73 504.65 171.35 497.03"/><polyline class="b" points="153.18 474.77 148.09 479.42 144.8 485.48 142.24 491.91 143.61 498.78"/><polyline class="b" points="253.16 208.29 257.54 213.42 260.5 219.48 263.67 225.39 266.82 231.38 267.94 238.07 269.76 244.56 269.33 251.02 262.25 249.62 255.65 246.15 250.01 241.19 246.57 234.52 244.24 227.47 243.11 220.12 242.53 212.66 243.09 205.18"/><polyline class="b" points="154.1 267.38 156.73 273.86 159.27 280.33 161.84 286.85 163.08 293.74 163.71 300.69 163.71 307.65 163.86 314.63 162.92 321.55 161.22 328.49 155.61 324 151.04 318.63 147.21 312.75 143.76 306.6 141.6 299.87 141.49 292.81 141.25 285.8"/><polyline class="b" points="315.98 319.79 314.43 313.19 313.73 306.44 313.19 299.67 314.37 292.96 314.62 286.15 316.78 279.7 318.69 273.16 322.2 266.91 326.12 273.49 330.15 279.63 332.59 286.55 335.1 293.46 336.04 300.78 335.42 308.11 333.59 315.18 331.19 322.1 327.48 328.46 322.83 334.2"/><polyline points="479.06 692.03 486.06 690.52 493.2 689.64 500.09 687.58 507.09 686.03 514.1 684.52 521.22 683.59 528.12 681.6 535.09 679.92 542.26 679.17 549.13 677.03 556.25 676.03 563.21 674.34 570.16 672.59 577.31 671.71 584.21 669.68 591.32 668.64 598.3 666.99 605.17 664.84 612.24 663.6 619.34 662.49 626.22 660.35 633.31 659.22 640.41 658.12 647.38 656.42 654.37 654.81 661.24 652.7 668.32 651.48 675.24 649.57 682.37 648.61 689.42 646.86 687.24 639.9 685.26 632.91 681.38 626.78 678.06 620.33 673.33 614.82 668.32 609.63 663.48 604.26 657.59 600.06 652.16 595.27 646.02 591.46 639.79 587.83 633.58 584.09 626.75 581.64 620.15 578.67 613.27 576.47 606.43 574.11 599.25 573.05 592.38 570.72 585.25 569.53 578.05 568.77 570.96 567.4 563.75 566.96 556.61 565.68 549.36 565.88 542.18 564.96 534.96 564.57 527.72 565.2"/><polyline class="b" points="479.06 692.03 486.06 690.52 493.2 689.64 500.09 687.58 507.09 686.03 514.1 684.52 521.22 683.59 528.12 681.6 535.09 679.92 542.26 679.17 549.13 677.03 556.25 676.03 563.21 674.34 570.16 672.59 577.31 671.71 584.21 669.68 591.32 668.64 598.3 666.99 605.17 664.84 612.24 663.6 619.34 662.49 626.22 660.35 633.31 659.22 640.41 658.12 647.38 656.42 654.37 654.81 661.24 652.7 668.32 651.48 675.24 649.57 682.37 648.61 689.42 646.86 687.24 639.9 685.26 632.91 681.38 626.78 678.06 620.33 673.33 614.82 668.32 609.63 663.48 604.26 657.59 600.06 652.16 595.27 646.02 591.46 639.79 587.83 633.58 584.09 626.75 581.64 620.15 578.67 613.27 576.47 606.43 574.11 599.25 573.05 592.38 570.72 585.25 569.53 578.05 568.77 570.96 567.4 563.75 566.96 556.61 565.68 549.36 565.88 542.18 564.96 534.96 564.57 527.72 565.2"/><polygon points="522.79 657.37 529.46 655.89 536.37 654.01 543.19 651.72 550.36 650.88 557.21 648.73 564.26 647.42 571.06 645.06 577.95 643.05 585.09 642.09 592.02 640.23 598.83 637.93 605.84 636.39 612.72 634.34 619.82 633.18 626.71 631.16 633.74 629.71 640.64 627.77 647.56 625.86 654.6 624.44 661.61 622.93 668.51 620.95 675.35 618.75 682.22 616.68 688.93 615.1 687.24 608.36 684.4 601.75 680.38 595.78 675.94 590.14 670.82 585.11 665.23 580.6 659.32 576.52 653.07 572.98 646.79 569.41 639.97 567.07 633.27 564.35 626.21 562.84 619.29 560.71 612.04 560.3 605.03 558.42 597.85 557.76 590.67 556.98 583.45 556.73 576.23 557.23 569.02 557 561.92 557.19 559.52 563.92 556.88 570.6 553.96 577.17 551.73 584 549.02 590.65 545.86 597.13 543.24 603.81 540.58 610.47 537.75 617.08 535.59 623.94 533.26 630.74 530.03 637.18 527.99 644.1 524.96 650.64 522.79 657.37"/><polygon class="b" points="522.79 657.37 529.46 655.89 536.37 654.01 543.19 651.72 550.36 650.88 557.21 648.73 564.26 647.42 571.06 645.06 577.95 643.05 585.09 642.09 592.02 640.23 598.83 637.93 605.84 636.39 612.72 634.34 619.82 633.18 626.71 631.16 633.74 629.71 640.64 627.77 647.56 625.86 654.6 624.44 661.61 622.93 668.51 620.95 675.35 618.75 682.22 616.68 688.93 615.1 687.24 608.36 684.4 601.75 680.38 595.78 675.94 590.14 670.82 585.11 665.23 580.6 659.32 576.52 653.07 572.98 646.79 569.41 639.97 567.07 633.27 564.35 626.21 562.84 619.29 560.71 612.04 560.3 605.03 558.42 597.85 557.76 590.67 556.98 583.45 556.73 576.23 557.23 569.02 557 561.92 557.19 559.52 563.92 556.88 570.6 553.96 577.17 551.73 584 549.02 590.65 545.86 597.13 543.24 603.81 540.58 610.47 537.75 617.08 535.59 623.94 533.26 630.74 530.03 637.18 527.99 644.1 524.96 650.64 522.79 657.37"/></svg>