<?xml version="1.0" encoding="utf-8"?>
<!-- Generator: Adobe Illustrator 20.0.0, SVG Export Plug-In . SVG Version: 6.00 Build 0)  -->
<svg version="1.1" id="Layer_1" xmlns="http://www.w3.org/2000/svg" xmlns:xlink="http://www.w3.org/1999/xlink" x="0px" y="0px"
	 viewBox="0 0 801 800" style="enable-background:new 0 0 801 800;" xml:space="preserve">
<style type="text/css">
	.st0{fill:#FFFFFF;}
	.st1{fill:none;stroke:#000000;stroke-width:13;stroke-miterlimit:10;}
	.st2{fill:none;stroke:#000000;stroke-width:13;stroke-linejoin:bevel;}
</style>
<title>canvas-$</title>
<rect class="st0" width="800" height="800"/>
<path d="M99.5,65.8H98C74,65,57.4,46.7,56.8,45.9l9.7-8.6c0.1,0.2,13.7,15,32.1,15.5c11.5,0.3,22.7-5,33.5-15.8l9.2,9.2
	C128.2,59.2,114.2,65.8,99.5,65.8z"/>
<path d="M165.5,65.8H164c-24-0.8-40.6-19.1-41.3-19.9l9.7-8.6c0.1,0.2,13.6,15,32.1,15.5c11.5,0.3,22.7-5,33.5-15.8l9.2,9.2
	C194.2,59.2,180.2,65.8,165.5,65.8z"/>
<path d="M231.5,65.8H230c-24-0.8-40.6-19.1-41.3-19.9l9.7-8.6c0.1,0.2,13.6,15,32.1,15.5c11.5,0.3,22.7-5,33.5-15.8l9.2,9.2
	C260.2,59.2,246.2,65.8,231.5,65.8z"/>
<path d="M297.5,65.8H296c-24-0.8-40.6-19.1-41.3-19.9l9.7-8.6c0.1,0.2,13.6,15,32.1,15.5c11.5,0.3,22.7-5,33.5-15.8l9.2,9.2
	C326.2,59.2,312.2,65.8,297.5,65.8z"/>
<path d="M363.5,65.8H362c-24-0.8-40.6-19.1-41.3-19.9l9.7-8.6c0.1,0.2,13.6,15,32.1,15.5c11.5,0.3,22.7-5,33.5-15.8l9.2,9.2
	C392.2,59.2,378.2,65.8,363.5,65.8z"/>
<path d="M429.5,65.8H428c-24-0.8-40.6-19.1-41.3-19.9l9.7-8.6c0.1,0.2,13.6,15,32.1,15.5c11.4,0.3,22.7-5,33.5-15.8l9.2,9.2
	C458.2,59.2,444.2,65.8,429.5,65.8z"/>
<path d="M99.5,131.8H98c-24-0.8-40.6-19.1-41.3-19.8l9.7-8.6c0.1,0.2,13.7,15,32.1,15.5c11.5,0.3,22.7-5,33.5-15.8l9.2,9.2
	C128.2,125.2,114.2,131.8,99.5,131.8z"/>
<path d="M165.5,131.8H164c-24.1-0.7-40.6-19.1-41.3-19.8l9.7-8.6c0.1,0.2,13.6,15,32.1,15.5c11.5,0.3,22.7-5,33.5-15.8l9.2,9.2
	C194.2,125.2,180.2,131.8,165.5,131.8z"/>
<path d="M231.5,131.8H230c-24.1-0.7-40.6-19.1-41.3-19.8l9.7-8.6c0.1,0.2,13.6,15,32.1,15.5c11.5,0.3,22.7-5,33.5-15.8l9.2,9.2
	C260.2,125.2,246.2,131.8,231.5,131.8z"/>
<path d="M297.5,131.8H296c-24.1-0.7-40.6-19.1-41.3-19.8l9.7-8.6c0.1,0.2,13.6,15,32.1,15.5c11.5,0.3,22.7-5,33.5-15.8l9.2,9.2
	C326.2,125.2,312.2,131.8,297.5,131.8z"/>
<path d="M363.5,131.8H362c-24.1-0.7-40.6-19.1-41.3-19.8l9.7-8.6c0.1,0.2,13.6,15,32.1,15.5c11.5,0.3,22.7-5,33.5-15.8l9.2,9.2
	C392.2,125.2,378.2,131.8,363.5,131.8z"/>
<path d="M429.5,131.8H428c-24.1-0.7-40.6-19.1-41.3-19.8l9.7-8.6c0.1,0.2,13.6,15,32.1,15.5c11.4,0.3,22.7-5,33.5-15.8l9.2,9.2
	C458.2,125.2,444.2,131.8,429.5,131.8z"/>
<path d="M495.5,131.8H494c-24.1-0.7-40.6-19.1-41.3-19.8l9.7-8.6c0.1,0.2,13.6,15,32.1,15.5c11.4,0.3,22.7-5,33.5-15.8l9.2,9.2
	C524.2,125.2,510.2,131.8,495.5,131.8z"/>
<polyline class="st1" points="61.9,173.3 66.9,178.3 72.6,182.5 78.6,186.3 85.1,189.3 92.1,190.7 99.1,190.9 106.2,190.8 
	113,188.8 119.4,185.9 125.6,182.5 131.1,178 136.9,173.8 "/>
<polyline class="st1" points="127.6,173.6 133.1,178.1 138.7,182.4 144.5,186.5 151.1,189.2 158,191 165.1,190.8 172.3,191.1 
	179.1,189 185.7,186.5 191.8,182.8 197.6,178.7 202.8,173.8 "/>
<polyline class="st1" points="193.5,173.7 198.8,178.4 204.2,183 210.8,185.8 217.3,188.5 224,190.9 231.1,191.5 238.3,191.1 
	245.1,189.2 251.8,186.6 257.9,182.9 263.6,178.7 268.8,173.8 "/>
<polyline class="st1" points="259.3,173.9 264.7,178.6 270.4,182.8 276.6,186.3 283.3,188.5 290.1,190.6 297.1,190.9 304.2,190.6 
	311.2,189.3 317.6,186.2 323.8,182.7 329.5,178.5 334.8,173.7 "/>
<polyline class="st1" points="325.9,173.3 330.9,178.3 336.6,182.4 342.6,186.2 349.4,188.4 356,191.1 363.1,191.3 370.2,191 
	377,188.6 383.5,185.9 389.9,182.9 395.3,178.3 400.8,173.8 "/>
<polyline class="st1" points="391.5,173.7 396.6,178.6 402.3,182.9 408.8,185.8 415.1,189.2 422,190.8 429.1,190.8 436.3,191.2 
	442.9,188.6 449.4,185.9 455.6,182.4 461.5,178.5 466.7,173.7 "/>
<polyline class="st1" points="457.7,173.5 462.9,178.3 468.7,182.4 474.6,186.2 481.1,189.2 488.1,190.4 495.1,190.9 502.3,191.1 
	509,188.7 515.7,186.5 521.6,182.5 527.5,178.5 532.4,173.4 "/>
<polyline class="st1" points="523.4,173.8 528.8,178.4 534.6,182.5 540.5,186.4 547.1,189.3 554,190.8 561.1,191.5 568.3,191.1 
	575.2,189.3 581.8,186.6 588,183 593.2,178.2 598.5,173.5 "/>
<polyline class="st1" points="127.5,239.7 132.6,244.7 138.6,248.6 144.7,252 151.3,254.5 158.1,256.3 165.1,257.3 172.3,257.2 
	179,254.8 185.6,252.3 191.9,248.9 197.3,244.3 202.5,239.5 "/>
<polyline class="st1" points="193.8,239.4 198.5,244.8 204.8,248.2 210.8,251.8 217.1,255.1 224.1,256.6 231.1,257.7 238.3,257 
	245,254.8 251.6,252.3 257.6,248.5 263.3,244.3 268.5,239.5 "/>
<polyline class="st1" points="259.5,239.7 264.8,244.4 270.8,248.2 276.7,252.1 283.1,255.1 290.1,256.2 297.1,257.2 304.3,257.1 
	311,254.9 317.8,252.6 323.7,248.6 329.3,244.3 334.3,239.3 "/>
<polyline class="st1" points="325.3,239.9 331,244.2 336.6,248.5 342.5,252.4 349.2,254.9 356.2,256.1 363.1,257.6 370.2,256.9 
	376.9,254.6 383.8,252.6 389.6,248.5 395.3,244.3 400.3,239.3 "/>
<polyline class="st1" points="391.4,239.8 396.9,244.3 402.3,248.9 408.5,252.5 415.4,254.4 422.1,256.2 429.1,257.2 436.2,256.8 
	442.9,254.6 449.7,252.5 455.9,249 461.6,244.7 466.3,239.3 "/>
<polyline class="st1" points="457.3,239.9 462.7,244.5 468.6,248.5 474.4,252.6 481.1,255 488.1,256.3 495.1,256.9 502.2,256.8 
	509,254.7 515.6,252.3 521.8,248.8 527.5,244.5 532.9,239.9 "/>
<polyline class="st1" points="524,239.3 528.8,244.4 534.3,248.9 540.7,252.1 547.1,255.3 554,256.7 561.1,257.5 568.1,256.4 
	575,254.7 581.8,252.7 587.9,248.9 593.6,244.7 598.4,239.4 "/>
<polyline class="st1" points="589.3,239.9 594.7,244.5 600.3,248.9 606.5,252.5 613.2,255 620.2,256.1 627.1,257.1 634.1,256.3 
	641,254.7 647.5,252.1 653.6,248.5 659.5,244.6 664.3,239.3 "/>
<polyline class="st1" points="193.5,305.7 198.6,310.7 204.6,314.5 210.6,318.2 217.3,320.5 224,323 231.1,323.5 238.2,322.8 
	245.1,320.9 251.4,317.9 257.6,314.4 263.5,310.6 268.7,305.6 "/>
<polyline class="st1" points="259.3,305.9 264.6,310.6 270.6,314.5 276.7,318 283.1,321.2 290.1,322.2 297.1,323.5 304.2,323 
	311.2,321.3 317.6,318.3 323.9,314.9 329.2,310.2 334.4,305.4 "/>
<polyline class="st1" points="325.8,305.4 331,310.1 336.6,314.4 342.6,318.3 349.3,320.5 356.2,322.1 363.1,323.1 370.3,323.1 
	377.1,321.2 383.5,318 389.5,314.4 395.3,310.3 400.7,305.7 "/>
<polyline class="st1" points="391.9,305.3 396.6,310.6 402.4,314.8 408.7,318.1 415.3,320.7 422,323.1 429.1,323.2 436.1,322.4 
	443.1,321.1 449.6,318.4 455.9,314.9 461.2,310.2 466.9,305.9 "/>
<polyline class="st1" points="457.8,305.4 462.6,310.6 468.5,314.6 474.8,317.9 481.4,320.4 488.1,322.3 495.1,323 502.2,322.7 
	509,320.8 515.8,318.5 521.6,314.5 527.1,310 532.9,305.9 "/>
<polyline class="st1" points="523.3,305.9 529,310.1 534.4,314.8 540.6,318.2 547.2,321 554.1,322.4 561.1,323.1 568.3,323 
	574.9,320.6 581.7,318.4 587.8,314.7 593.4,310.4 598.4,305.4 "/>
<polyline class="st1" points="589.3,305.8 595.1,310.1 600.5,314.7 606.7,318 613.3,320.5 620,323 627.1,323.4 634.2,322.7 
	641,320.9 647.6,318.2 653.9,314.9 659.4,310.4 664.3,305.3 "/>
<polyline class="st1" points="655.5,305.7 661,310.2 666.6,314.4 672.6,318.2 679.3,320.6 686.2,322.2 693.1,323.1 700.2,322.8 
	707.2,321.3 713.4,317.9 720,315.1 725.3,310.4 730.4,305.4 "/>
<polyline class="st1" points="259.5,371.6 264.5,376.8 270.3,380.9 276.6,384.2 283.3,386.7 290,388.9 297.1,389.7 304.1,388.2 
	311.1,387 317.8,384.6 323.7,380.6 329.1,376.1 334.6,371.6 "/>
<polyline class="st1" points="325.6,371.6 330.5,376.8 336.4,380.8 342.7,384.1 349.3,386.5 356,388.8 363.1,389.4 370.2,388.5 
	377.1,387.3 383.8,384.7 389.9,380.9 395.2,376.2 400.5,371.5 "/>
<polyline class="st1" points="391.4,371.8 396.7,376.6 402.3,380.9 408.9,383.7 415.4,386.4 422.1,388.7 429.1,389.4 436.3,389.2 
	443.1,387.1 449.6,384.3 455.6,380.5 461.7,376.7 466.8,371.8 "/>
<polyline class="st1" points="457.7,371.5 462.6,376.6 468.7,380.3 474.8,383.8 481.4,386.4 488,389 495.1,389.7 502.3,389 
	509.1,387.3 515.7,384.4 521.4,380.3 527.7,376.8 532.8,371.8 "/>
<polyline class="st1" points="523.5,371.7 528.6,376.6 534.8,380.2 540.8,383.9 547.3,386.7 554.1,388.3 561.1,389.3 568.1,388.3 
	575.1,387 581.7,384.5 587.9,381 593.7,376.7 598.5,371.5 "/>
<polyline class="st1" points="589.3,371.9 594.8,376.5 600.4,380.8 606.7,384 613.2,386.9 620.1,388.4 627.1,389.5 634.1,388.4 
	641.1,387.2 647.8,384.7 653.9,381 659.4,376.5 664.7,371.7 "/>
<polyline class="st1" points="655.6,371.6 660.7,376.5 666.7,380.3 672.7,384.1 679.3,386.6 686,388.8 693.1,389.1 700.2,389 
	707,387 713.8,384.5 719.9,381 725.6,376.7 730.7,371.7 "/>
<polyline class="st1" points="721.9,371.4 726.9,376.3 732.5,380.6 738.9,383.7 745.2,386.8 752.1,388.4 759.1,388.9 766.1,388.4 
	773,386.8 779.8,384.6 785.7,380.7 791.4,376.5 796.3,371.3 "/>
<polygon points="799.7,373.9 792.3,367.1 787.6,371.6 782.4,375.6 788.1,380.7 793.8,385.2 800,389 799.7,381.4 "/>
<path d="M800,38c-10.5,10.1-21.4,15-32.5,14.8c-18.4-0.5-31.9-15.3-32.1-15.5l-9.7,8.6C726.4,46.7,743,65,767,65.7h1.5
	c10.9,0,21.5-3.6,31.5-10.8L800,38z"/>
<polygon class="st2" points="470.6,745.7 463,745.3 455.8,745.9 448.5,745.6 441.3,745.5 434,746 426.7,745.5 419.5,745.4 
	412.2,746 405,745.8 397.7,745.6 390.4,745.2 383.2,745.8 375.9,746 368.7,745.8 361.4,745.4 354.1,745.6 346.9,745.6 339.6,745.6 
	333.4,741.7 327.2,737.8 321,733.9 315.3,729.3 309.2,725.2 303,721.4 296.9,717.3 290.8,713.3 284.6,709.4 278.3,705.6 
	272.5,701.1 266.6,696.8 260,693.5 253.9,689.5 248.1,684.9 241.8,681.1 235.7,677.2 229.5,673.2 223.7,668.8 217.3,665.2 
	211.4,660.8 205.2,656.9 199.2,652.7 192.7,649.3 187,644.6 181,641 187.9,641.1 195.2,640.5 202.5,640.5 209.7,641.1 217,640.7 
	224.2,641.2 231.5,640.6 238.8,640.9 246,640.8 253.3,640.7 260.5,640.5 267.8,641.2 275.1,641 282.3,641.2 289.6,641.4 
	296.9,640.5 304.1,641.1 311.3,641.3 317.8,644.5 323.4,649.3 329.5,653.3 335.6,657.3 341.9,661.1 348.1,664.8 354,669.3 
	360.1,673.3 366.3,677.2 372.7,680.8 378.6,685 384.5,689.5 391,693 397.2,696.8 403,701.3 408.9,705.6 415.4,709.1 421.6,712.9 
	427.7,717 433.5,721.5 439.6,725.5 445.7,729.7 451.9,733.5 457.8,737.8 464.3,741.3 "/>
<polygon class="st2" points="312,641 304.5,640.4 297.2,641.3 290,640.8 282.7,640.8 275.5,641.3 268.2,640.9 261,640.5 
	253.7,640.7 246.4,641 239.2,640.7 231.9,640.7 224.6,640.6 217.4,641.1 210.1,640.8 202.9,640.6 195.6,640.9 188.3,641 
	180.9,641.1 177.8,634.6 174.1,628.5 171.5,621.9 167.9,615.7 164.6,609.5 161.1,603.3 158.1,596.8 154.9,590.5 151.9,584 
	148.1,578 144.9,571.7 141.9,565.2 138.6,558.9 135.4,552.6 131.9,546.4 128.6,540.1 125.9,533.5 122.5,527.3 119.3,521 
	116.1,514.6 112.7,508.4 109.3,502.1 106.6,495.5 103.3,489.2 100.1,482.9 96.5,476.8 103.7,476.8 110.9,476.5 118.2,476.6 
	125.4,476.3 132.7,476.3 140,477.2 147.2,477 154.5,476.6 161.8,476.9 169,476.5 176.3,476.9 183.5,477.1 190.8,477.1 198.1,477 
	205.3,477.2 212.6,476.6 219.8,477.2 226.9,477.1 230.6,483 233.5,489.4 237,495.6 240.3,502 243.1,508.5 246.4,514.8 249.8,521 
	252.9,527.4 256.5,533.5 259.5,540 262.7,546.3 266.1,552.5 269.5,558.8 272.7,565.1 276,571.4 279.1,577.8 282.8,583.9 
	285.5,590.5 288.6,596.8 292,603.1 295.7,609.2 298.9,615.5 302.1,621.8 305.2,628.3 308.8,634.4 "/>
<polyline points="478.4,723.5 475.3,730.7 473.2,738.2 470.4,745.6 463,745.2 455.8,745.7 448.6,745 441.3,745.5 434.1,745.8 
	426.8,745.1 419.6,745.3 412.3,745.7 405.1,745.8 397.9,745.5 390.6,745.8 383.4,745.3 376.1,745.3 368.9,745.2 361.6,745.2 
	354.4,745 347.1,745.3 339.8,745.9 333.6,741.8 327.6,737.5 321.3,733.8 315.4,729.5 309.4,725.3 303.2,721.5 297,717.6 291.2,713 
	285,709.1 279,705.1 272.6,701.5 266.4,697.6 260.3,693.5 254.5,689 248.4,685 242.3,681 236.3,676.8 230,673 223.8,669.2 
	217.8,665 211.9,660.6 205.4,657.2 199.4,653 193.2,649.1 187.1,645 180.8,641.1 177.9,634.3 174.8,627.7 171.3,621.3 167.4,615.1 
	164.1,608.6 160.7,602.1 157.4,595.7 154.5,588.9 151.2,582.4 147.4,576.2 143.9,569.8 140.9,563.1 137.9,556.5 133.9,550.3 
	131,543.6 127.7,537.1 124.3,530.6 121.3,524 117.7,517.6 113.8,511.4 110.4,504.9 107.5,498.3 104.4,491.6 100.8,485.2 97.2,478.8 
	99.3,471.6 101.7,464.6 103.9,457.6 107.4,463.9 110.9,470.3 113.8,477 117,483.5 120.6,489.9 124.2,496.2 127.4,502.7 130.9,509.1 
	134.2,515.6 137.9,521.9 140.8,528.6 144.5,534.8 147.6,541.5 150.8,548 154.6,554.2 158.3,560.5 161.1,567.3 164.6,573.6 
	167.7,580.2 171.6,586.4 175.4,592.7 178.3,599.4 181.9,605.7 185.4,612.1 188.1,619 194.4,623 200.5,627 206.9,630.5 212.8,635 
	219.1,638.7 225.1,642.8 231.4,646.5 237.4,650.6 243.4,655 249.7,658.7 255.4,663.3 261.6,667 268,670.8 274.1,674.7 280.2,678.8 
	286.3,682.8 291.9,687.6 298.4,690.9 304.3,695.2 310.6,699 316.6,703.1 322.4,707.7 329,711 334.8,715.5 341.1,719.2 346.9,723.8 
	354.3,724 361.6,723 368.8,723.4 376.1,723.8 383.4,723.6 390.7,723.2 397.9,723.7 405.2,723.8 412.5,723.8 419.8,723.3 427,723.3 
	434.3,723.4 441.6,723 448.9,723.3 456.2,723.7 463.4,723 470.7,723.6 478,723.3 "/>
<polyline class="st2" points="478.4,723.5 475.3,730.7 473.2,738.2 470.4,745.6 463,745.2 455.8,745.7 448.6,745 441.3,745.5 
	434.1,745.8 426.8,745.1 419.6,745.3 412.3,745.7 405.1,745.8 397.9,745.5 390.6,745.8 383.4,745.3 376.1,745.3 368.9,745.2 
	361.6,745.2 354.4,745 347.1,745.3 339.8,745.9 333.6,741.8 327.6,737.5 321.3,733.8 315.4,729.5 309.4,725.3 303.2,721.5 
	297,717.6 291.2,713 285,709.1 279,705.1 272.6,701.5 266.4,697.6 260.3,693.5 254.5,689 248.4,685 242.3,681 236.3,676.8 230,673 
	223.8,669.2 217.8,665 211.9,660.6 205.4,657.2 199.4,653 193.2,649.1 187.1,645 180.8,641.1 177.9,634.3 174.8,627.7 171.3,621.3 
	167.4,615.1 164.1,608.6 160.7,602.1 157.4,595.7 154.5,588.9 151.2,582.4 147.4,576.2 143.9,569.8 140.9,563.1 137.9,556.5 
	133.9,550.3 131,543.6 127.7,537.1 124.3,530.6 121.3,524 117.7,517.6 113.8,511.4 110.4,504.9 107.5,498.3 104.4,491.6 
	100.8,485.2 97.2,478.8 99.3,471.6 101.7,464.6 103.9,457.6 107.4,463.9 110.9,470.3 113.8,477 117,483.5 120.6,489.9 124.2,496.2 
	127.4,502.7 130.9,509.1 134.2,515.6 137.9,521.9 140.8,528.6 144.5,534.8 147.6,541.5 150.8,548 154.6,554.2 158.3,560.5 
	161.1,567.3 164.6,573.6 167.7,580.2 171.6,586.4 175.4,592.7 178.3,599.4 181.9,605.7 185.4,612.1 188.1,619 194.4,623 200.5,627 
	206.9,630.5 212.8,635 219.1,638.7 225.1,642.8 231.4,646.5 237.4,650.6 243.4,655 249.7,658.7 255.4,663.3 261.6,667 268,670.8 
	274.1,674.7 280.2,678.8 286.3,682.8 291.9,687.6 298.4,690.9 304.3,695.2 310.6,699 316.6,703.1 322.4,707.7 329,711 334.8,715.5 
	341.1,719.2 346.9,723.8 354.3,724 361.6,723 368.8,723.4 376.1,723.8 383.4,723.6 390.7,723.2 397.9,723.7 405.2,723.8 
	412.5,723.8 419.8,723.3 427,723.3 434.3,723.4 441.6,723 448.9,723.3 456.2,723.7 463.4,723 470.7,723.6 478,723.3 "/>
<polygon class="st0" points="477.4,723.2 470.5,723.1 463.2,723.8 455.9,723 448.7,722.9 441.4,723.2 434.2,723 426.9,722.9 
	419.6,723.1 412.4,723.2 405.1,723.6 397.9,722.9 390.6,723.7 383.3,723.8 376.1,723.6 368.8,723.5 361.6,723 354.3,723.1 
	347,723.2 341,719.1 335,714.9 328.8,711.1 322.5,707.3 316.5,703.1 310.2,699.4 304.3,695 297.9,691.5 292.3,686.7 286.1,682.8 
	279.8,679 273.8,674.8 267.5,671.2 261.5,666.9 255.6,662.6 249.3,658.8 243.1,655 237.1,650.7 230.9,646.8 224.6,643 218.8,638.7 
	212.3,635.1 206.3,631 200.3,626.7 194.4,622.4 187.7,618.5 195.4,619.1 202.6,618.8 209.9,618.8 217.1,619 224.4,618.3 
	231.7,618.6 238.9,618.4 246.2,618.7 253.4,618.5 260.7,618.4 268,618.6 275.2,618.3 282.5,618.7 289.8,619 297,618.7 304.3,618.2 
	311.5,618.2 318.7,619 325.1,622.4 330.9,626.9 337.1,630.7 343,635.1 349.4,638.7 355.4,642.8 361.7,646.5 367.5,651 374,654.5 
	379.7,659.2 386.1,662.7 392.1,667 398.1,671.2 404.3,675 410.5,678.8 416.5,683.2 422.9,686.6 428.5,691.5 434.8,695.2 
	440.9,699.3 447.1,703.1 453.1,707.4 459.3,711.3 465.2,715.6 471.5,719.3 "/>
<polygon class="st2" points="477.4,723.2 470.5,723.1 463.2,723.8 455.9,723 448.7,722.9 441.4,723.2 434.2,723 426.9,722.9 
	419.6,723.1 412.4,723.2 405.1,723.6 397.9,722.9 390.6,723.7 383.3,723.8 376.1,723.6 368.8,723.5 361.6,723 354.3,723.1 
	347,723.2 341,719.1 335,714.9 328.8,711.1 322.5,707.3 316.5,703.1 310.2,699.4 304.3,695 297.9,691.5 292.3,686.7 286.1,682.8 
	279.8,679 273.8,674.8 267.5,671.2 261.5,666.9 255.6,662.6 249.3,658.8 243.1,655 237.1,650.7 230.9,646.8 224.6,643 218.8,638.7 
	212.3,635.1 206.3,631 200.3,626.7 194.4,622.4 187.7,618.5 195.4,619.1 202.6,618.8 209.9,618.8 217.1,619 224.4,618.3 
	231.7,618.6 238.9,618.4 246.2,618.7 253.4,618.5 260.7,618.4 268,618.6 275.2,618.3 282.5,618.7 289.8,619 297,618.7 304.3,618.2 
	311.5,618.2 318.7,619 325.1,622.4 330.9,626.9 337.1,630.7 343,635.1 349.4,638.7 355.4,642.8 361.7,646.5 367.5,651 374,654.5 
	379.7,659.2 386.1,662.7 392.1,667 398.1,671.2 404.3,675 410.5,678.8 416.5,683.2 422.9,686.6 428.5,691.5 434.8,695.2 
	440.9,699.3 447.1,703.1 453.1,707.4 459.3,711.3 465.2,715.6 471.5,719.3 "/>
<polygon class="st0" points="319.4,618.7 311.9,618.7 304.7,618.7 297.4,618.1 290.1,618.9 282.9,618.3 275.6,618.8 268.4,618.4 
	261.1,618.8 253.9,618.5 246.6,618.3 239.3,618.8 232.1,618.7 224.8,618.9 217.6,618.5 210.3,618.7 203,618.3 195.8,618.3 
	188.5,618.6 185.5,612.1 182.4,605.8 178.3,599.9 175.6,593.3 172.3,587 169.4,580.5 165.3,574.7 162.3,568.2 159.4,561.7 
	155.9,555.5 152.4,549.4 149.3,542.9 145.8,536.8 143.3,530.1 139.5,524 136.6,517.5 133.3,511.3 129.8,505.1 126.5,498.8 
	123.5,492.3 119.7,486.3 117,479.7 114,473.3 109.9,467.4 106.8,461 103.9,454.5 111.1,454.8 118.4,454.9 125.6,454 132.9,454 
	140.1,454.9 147.4,454.6 154.6,454.7 161.9,454.6 169.2,454.9 176.4,454.3 183.7,455 190.9,454.7 198.2,454.3 205.5,454.9 
	212.7,454.6 220,454.9 227.3,454.2 234.4,454.8 237.9,460.8 240.6,467.3 244.7,473.2 248,479.5 250.9,486 254.1,492.4 257.5,498.5 
	260.2,505.1 264.2,511.1 267.3,517.5 270.6,523.8 273.2,530.4 277,536.5 280.2,542.8 283.7,549 286.2,555.7 290,561.7 293.2,568.1 
	296.5,574.3 299.7,580.7 303.3,586.8 306.5,593.1 309.8,599.4 312.9,605.8 315.8,612.3 "/>
<polygon class="st2" points="319.4,618.7 311.9,618.7 304.7,618.7 297.4,618.1 290.1,618.9 282.9,618.3 275.6,618.8 268.4,618.4 
	261.1,618.8 253.9,618.5 246.6,618.3 239.3,618.8 232.1,618.7 224.8,618.9 217.6,618.5 210.3,618.7 203,618.3 195.8,618.3 
	188.5,618.6 185.5,612.1 182.4,605.8 178.3,599.9 175.6,593.3 172.3,587 169.4,580.5 165.3,574.7 162.3,568.2 159.4,561.7 
	155.9,555.5 152.4,549.4 149.3,542.9 145.8,536.8 143.3,530.1 139.5,524 136.6,517.5 133.3,511.3 129.8,505.1 126.5,498.8 
	123.5,492.3 119.7,486.3 117,479.7 114,473.3 109.9,467.4 106.8,461 103.9,454.5 111.1,454.8 118.4,454.9 125.6,454 132.9,454 
	140.1,454.9 147.4,454.6 154.6,454.7 161.9,454.6 169.2,454.9 176.4,454.3 183.7,455 190.9,454.7 198.2,454.3 205.5,454.9 
	212.7,454.6 220,454.9 227.3,454.2 234.4,454.8 237.9,460.8 240.6,467.3 244.7,473.2 248,479.5 250.9,486 254.1,492.4 257.5,498.5 
	260.2,505.1 264.2,511.1 267.3,517.5 270.6,523.8 273.2,530.4 277,536.5 280.2,542.8 283.7,549 286.2,555.7 290,561.7 293.2,568.1 
	296.5,574.3 299.7,580.7 303.3,586.8 306.5,593.1 309.8,599.4 312.9,605.8 315.8,612.3 "/>
<polygon points="284.8,602.4 277,601.9 269.5,602.5 262,602.5 254.5,602.5 246.9,601.8 239.4,602.5 231.9,602.2 224.4,601.8 
	216.9,602.5 209.3,602 201.9,602 198.3,596.1 195.1,589.8 192.2,583.4 188.6,577.4 185.7,570.9 182,564.9 179.6,558.3 175.7,552.4 
	173,545.8 169.2,539.9 166.4,533.4 163.3,527.1 159.6,521.1 156.9,514.6 153.5,508.4 150.1,502.3 147.2,495.9 143.6,489.8 
	140.9,483.2 137.8,477 133.9,470.8 141.6,471.4 149.1,471.3 156.6,471.4 164.2,471 171.7,471.3 179.2,470.9 186.7,470.7 
	194.2,471.2 201.8,470.6 209.3,471.1 216.7,471.2 220.3,477 222.9,483.6 226,489.9 229.5,496 233.2,502 235.9,508.5 239.3,514.7 
	242.8,520.8 246,527.1 249,533.4 252.6,539.5 255.6,545.8 259.1,552 261.7,558.5 265.4,564.5 268.6,570.8 271.5,577.2 275.3,583.2 
	277.9,589.8 281.2,596 "/>
<polyline class="st0" points="339.5,745.4 341.9,738 344.3,730.6 346.6,723.2 "/>
<polyline class="st2" points="339.5,745.4 341.9,738 344.3,730.6 346.6,723.2 "/>
<polyline class="st0" points="180.8,640.8 183.6,633.5 185.6,625.9 188.3,618.5 "/>
<polyline class="st2" points="180.8,640.8 183.6,633.5 185.6,625.9 188.3,618.5 "/>
<polyline class="st2" points="118.2,454.3 114.6,448.1 110.8,442 107.4,435.7 103.4,429.8 100.5,423.1 96.6,417.1 93.4,410.7 
	89.3,404.7 86.3,398.2 82.8,391.9 79.1,385.8 74.9,379.9 71.8,373.4 68.2,367.1 59.1,371.5 65.5,368.2 72.1,365.2 78.5,362 "/>
<polyline class="st0" points="437.7,697.4 430.5,697.3 423.2,697.2 415.9,697.4 408.7,697.2 401.4,697.5 394.2,697.2 386.9,697 
	379.6,697.1 372.4,697.8 365.1,697.4 357.9,697.3 350.6,697.6 343.3,697.8 336.1,697.3 328.8,697.1 321.6,697.1 314.3,697.7 
	307,698 "/>
<polyline class="st2" points="437.7,697.4 430.5,697.3 423.2,697.2 415.9,697.4 408.7,697.2 401.4,697.5 394.2,697.2 386.9,697 
	379.6,697.1 372.4,697.8 365.1,697.4 357.9,697.3 350.6,697.6 343.3,697.8 336.1,697.3 328.8,697.1 321.6,697.1 314.3,697.7 
	307,698 "/>
<polyline class="st0" points="397,671.2 389.7,671.2 382.4,670.6 375.2,671.4 367.9,671.5 360.7,671.1 353.4,671 346.1,671.3 
	338.9,671.1 331.6,671.2 324.4,671.4 317.1,671.1 309.8,671.1 302.6,671.4 295.3,671.3 288.1,671.1 280.8,671 273.5,671 266.3,671 
	"/>
<polyline class="st2" points="397,671.2 389.7,671.2 382.4,670.6 375.2,671.4 367.9,671.5 360.7,671.1 353.4,671 346.1,671.3 
	338.9,671.1 331.6,671.2 324.4,671.4 317.1,671.1 309.8,671.1 302.6,671.4 295.3,671.3 288.1,671.1 280.8,671 273.5,671 266.3,671 
	"/>
<polyline class="st0" points="362.5,646.1 355.2,646.3 347.9,645.4 340.7,645.8 333.4,645.9 326.2,646.3 318.9,646.2 311.6,646.3 
	304.4,645.5 297.1,646 289.9,645.4 282.6,645.4 275.3,646 268.1,646.1 260.8,645.9 253.6,645.6 246.3,646.3 239,646.3 231.8,645.6 
	"/>
<polyline class="st2" points="362.5,646.1 355.2,646.3 347.9,645.4 340.7,645.8 333.4,645.9 326.2,646.3 318.9,646.2 311.6,646.3 
	304.4,645.5 297.1,646 289.9,645.4 282.6,645.4 275.3,646 268.1,646.1 260.8,645.9 253.6,645.6 246.3,646.3 239,646.3 231.8,645.6 
	"/>
<polyline class="st0" points="414.2,723.3 407.8,719.7 402,715.1 395.5,711.8 389.7,707.2 383.6,703.2 377.5,699.2 371.5,695 
	365.4,690.9 359.3,687 352.9,683.3 346.9,679.1 341,674.8 334.4,671.4 328.3,667.4 322.4,663 316.5,658.8 310.2,655 304,651.1 
	298.2,646.6 292,642.6 285.5,639.3 279.8,634.5 273.5,630.8 267.5,626.6 261.3,622.8 255,619 "/>
<polyline class="st2" points="414.2,723.3 407.8,719.7 402,715.1 395.5,711.8 389.7,707.2 383.6,703.2 377.5,699.2 371.5,695 
	365.4,690.9 359.3,687 352.9,683.3 346.9,679.1 341,674.8 334.4,671.4 328.3,667.4 322.4,663 316.5,658.8 310.2,655 304,651.1 
	298.2,646.6 292,642.6 285.5,639.3 279.8,634.5 273.5,630.8 267.5,626.6 261.3,622.8 255,619 "/>
<polyline class="st0" points="721.2,530 721.9,536.7 721.9,543.3 721.7,550 721.2,556.7 721.6,563.3 721.6,570 "/>
<polyline class="st2" points="721.2,530 721.9,536.7 721.9,543.3 721.7,550 721.2,556.7 721.6,563.3 721.6,570 "/>
<polyline class="st0" points="685.3,656.7 690.3,651.6 695.4,646.6 701.2,642.5 706.9,638.3 712.8,634.2 718.9,630.7 725,627 
	731.2,623.7 737.6,620.5 744.3,618.2 751.2,616.3 757.8,613.6 764.6,611.7 771.7,610.4 778.8,610 785.8,609.2 792.9,608.6 
	800,608.4 "/>
<polyline class="st2" points="685.3,656.7 690.3,651.6 695.4,646.6 701.2,642.5 706.9,638.3 712.8,634.2 718.9,630.7 725,627 
	731.2,623.7 737.6,620.5 744.3,618.2 751.2,616.3 757.8,613.6 764.6,611.7 771.7,610.4 778.8,610 785.8,609.2 792.9,608.6 
	800,608.4 "/>
<path d="M66,37C55.3,47.8,44,53.1,32.5,52.8c-18.4-0.5-32-15.3-32.1-15.5L0,37.7V54c7.3,5.3,18.5,11.3,32,11.7h1.5
	c14.7,0,28.7-6.6,41.7-19.6L66,37z"/>
<path d="M66,103c-10.8,10.8-22,16.1-33.5,15.8c-18.4-0.5-31.9-15.3-32.1-15.5L0,103.7V120c7.3,5.3,18.5,11.3,32,11.7h1.5
	c14.7,0,28.7-6.6,41.7-19.6L66,103z"/>
</svg>
