<svg id="Layer_1" data-name="Layer 1" xmlns="http://www.w3.org/2000/svg" viewBox="0 0 800 800"><defs><style>.cls-1,.cls-3{fill:none;stroke:#000;stroke-linejoin:bevel;}.cls-1{stroke-width:13px;}.cls-2{fill:#fff;}.cls-3{stroke-width:7px;}</style></defs><title>canvas (70)</title><polygon class="cls-1" points="729.22 560.18 722.1 560.45 714.91 560.29 707.73 559.54 700.55 559.99 693.37 559.98 686.18 559.88 678.85 560.36 673.55 554.69 667.86 549.67 661.58 545.31 655.88 540.29 650.64 534.75 644.5 530.25 638.66 525.38 633.52 519.72 627.21 515.39 624.67 513.97 617.47 513.88 610.27 514.32 603.08 513.65 595.88 513.58 588.69 513.68 581.49 514.44 574.3 513.64 567.1 513.83 559.91 514.35 552.71 514.45 545.51 513.91 538.32 513.81 531.12 514.13 523.93 513.95 516.73 513.6 509.53 513.69 502.34 514.48 495.14 514.37 487.95 514.14 480.75 513.54 473.55 514.15 466.36 514.41 459.16 514.44 451.96 514.31 444.76 514.3 437.57 514.5 430.37 514.46 423.17 513.9 415.97 514.05 408.78 514.37 401.58 513.71 394.38 513.58 387.18 513.96 379.99 514.36 372.79 514.42 365.59 514.47 358.39 513.64 351.19 514.37 343.99 513.86 336.8 514.47 329.6 514.16 322.4 513.99 315.2 513.76 308 514.35 300.81 514.46 293.61 513.98 286.42 514.17 279.22 514.22 272.02 514.22 264.82 514.44 257.63 513.7 250.43 514.37 243.23 513.68 236.03 513.86 228.83 514.49 221.63 513.52 214.43 513.72 207.23 514.47 200.03 513.93 192.83 514.41 185.63 513.58 178.43 514.01 171.22 514.43 164.03 513.97 156.82 513.83 149.62 514.34 142.42 514.16 135.22 513.82 128.02 513.65 120.81 514.08 113.6 514.28 106.22 514.47 100.68 509.51 95.48 504.41 89.47 500.28 84.13 495.33 78.35 490.92 73.07 485.92 67.71 481.01 61.8 476.73 56.39 471.67 54.01 478.62 52.89 485.52 52.85 492.51 53.15 499.45 53.33 506.4 54.65 513.24 56.62 519.81 57.36 520.84 57.61 521.89 63.64 526.2 68.85 531.46 74.48 536.23 80.38 540.7 85.69 545.85 91.16 550.81 97.16 555.16 102.59 560.17 107.77 565.45 113.62 569.98 118.9 575.16 124.87 579.55 129.9 585.02 135.98 589.29 141.57 594.11 147.25 598.84 152.73 603.8 158.11 608.89 160.89 609.89 161.28 610.47 168.5 610.17 175.72 610.42 182.94 610.4 190.16 610.13 197.38 609.61 204.6 610 211.82 609.76 219.05 610.03 226.27 609.88 233.49 609.55 240.72 609.55 247.94 609.53 255.16 610.46 262.38 610.48 269.6 610.26 276.83 609.78 284.05 609.98 291.27 609.94 298.49 610.47 305.72 610.31 312.94 610.25 320.17 610.32 327.39 610.1 334.61 610.15 341.83 610.49 349.06 609.51 356.28 610.12 363.51 609.95 370.73 609.63 377.95 610.34 385.18 609.62 392.4 610.16 399.63 609.55 406.85 609.67 414.08 610.47 421.3 609.68 428.52 610.03 435.75 609.63 442.98 610.46 450.2 609.83 457.42 610.32 464.65 609.53 471.87 610.36 479.1 610.39 486.32 610.18 493.55 609.69 500.78 609.53 508 610.39 515.23 610.16 522.45 610.03 529.67 609.69 536.89 610.3 544.12 610.06 551.34 610.47 558.56 610.43 565.79 609.51 573.01 610.29 580.24 609.96 587.47 610.01 594.69 609.58 601.92 610.16 609.14 610.34 616.37 610.18 623.6 610.27 630.83 609.7 638.05 609.78 645.28 610.42 652.51 609.78 659.74 610.15 666.97 609.9 674.2 610.38 681.42 610.11 688.65 609.59 695.88 610.45 703.12 609.95 710.35 610.2 717.58 609.97 724.82 609.63 729.16 609.75 730.76 602.9 732.49 595.85 733.09 588.61 733.47 581.35 732.75 574.1 731.53 566.92 729.22 560.18"/><polygon class="cls-2" points="627.51 465.04 632.76 470.25 638.57 474.82 644.44 479.32 650.03 484.14 655.52 489.08 660.99 494.04 666.19 499.31 672.2 503.66 677.24 509.1 683.1 513.62 688.39 518.78 694.32 523.23 699.9 528.05 705.1 533.34 711 537.8 716.38 542.88 722.23 547.42 727.52 552.6 724.82 559.85 717.59 559.95 710.36 559.89 703.14 560.3 695.91 559.6 688.69 559.83 681.46 559.64 674.24 560.22 667.01 559.83 659.78 560.02 652.55 559.53 645.32 559.99 638.1 559.63 630.87 560.25 623.64 559.57 616.41 560.29 609.19 560.14 601.96 559.96 594.73 559.91 587.51 559.75 580.28 560.02 573.05 560.45 565.82 559.51 558.59 559.83 551.36 560 544.14 560.14 536.91 559.54 529.68 560.27 522.45 560.02 515.22 559.68 507.99 560.37 500.76 560.34 493.53 559.98 486.3 560.43 479.07 560.39 471.84 559.65 464.62 559.67 457.39 560.18 450.16 560.41 442.93 559.57 435.7 559.85 428.47 559.56 421.24 559.98 414.01 559.85 406.77 560.13 399.55 559.91 392.31 560.35 385.08 559.83 377.85 559.52 370.62 560.21 363.39 560.45 356.17 559.67 348.94 560.29 341.71 559.84 334.49 559.53 327.26 559.84 320.02 560.17 312.8 559.58 305.56 559.85 298.34 559.52 291.11 560.36 283.87 559.9 276.64 560.21 269.41 560.16 262.18 560.45 254.94 559.71 247.71 560.49 240.48 559.64 233.24 559.72 226.01 559.64 218.78 560.08 211.55 560.4 204.31 559.86 197.08 560.33 189.84 560.48 182.61 560.07 175.37 559.77 168.13 560.34 160.89 559.75 158.16 558.83 152.38 554.23 146.65 549.56 141.18 544.61 135.69 539.66 130.24 534.68 124.76 529.74 118.8 525.33 113.6 520.07 107.94 515.33 102.19 510.69 97.12 505.27 91.4 500.59 85.62 495.98 80 491.18 74.61 486.13 68.94 481.4 63.53 476.34 58.1 471.32 60.74 463.81 67.97 463.67 75.19 464.42 82.42 464.42 89.64 463.55 96.87 464.25 104.09 463.57 111.32 463.54 118.55 464.3 125.78 464.49 133 463.62 140.23 464.24 147.46 463.6 154.68 464.19 161.91 464.17 169.14 463.75 176.37 463.9 183.6 463.84 190.82 463.71 198.05 464.03 205.28 463.9 212.51 463.71 219.74 464.12 226.96 464.08 234.19 464.27 241.42 463.54 248.65 463.88 255.88 463.53 263.11 464.21 270.33 463.59 277.56 463.89 284.79 464.22 292.02 464.25 299.25 463.59 306.48 464.38 313.71 463.72 320.94 463.88 328.17 464.17 335.4 463.87 342.63 464.49 349.86 464.38 357.09 464.34 364.32 463.65 371.55 463.68 378.78 464.3 386.01 463.7 393.24 463.83 400.47 464.31 407.7 464.25 414.93 463.87 422.16 464.25 429.38 463.72 436.61 464.16 443.84 463.88 451.07 464.4 458.3 464.07 465.53 463.77 472.76 463.86 479.99 463.72 487.22 463.92 494.45 463.65 501.68 463.95 508.91 464.27 516.14 464.36 523.38 464.27 530.61 463.74 537.85 464.28 545.08 464.07 552.31 463.56 559.55 464.03 566.78 464.41 574.01 463.55 581.24 463.51 588.48 464.33 595.71 464.44 602.95 463.95 610.18 464.16 617.43 463.9 624.67 464.06 627.51 465.04"/><polygon class="cls-1" points="627.51 465.04 632.76 470.25 638.57 474.82 644.44 479.32 650.03 484.14 655.52 489.08 660.99 494.04 666.19 499.31 672.2 503.66 677.24 509.1 683.1 513.62 688.39 518.78 694.32 523.23 699.9 528.05 705.1 533.34 711 537.8 716.38 542.88 722.23 547.42 727.52 552.6 724.82 559.85 717.59 559.95 710.36 559.89 703.14 560.3 695.91 559.6 688.69 559.83 681.46 559.64 674.24 560.22 667.01 559.83 659.78 560.02 652.55 559.53 645.32 559.99 638.1 559.63 630.87 560.25 623.64 559.57 616.41 560.29 609.19 560.14 601.96 559.96 594.73 559.91 587.51 559.75 580.28 560.02 573.05 560.45 565.82 559.51 558.59 559.83 551.36 560 544.14 560.14 536.91 559.54 529.68 560.27 522.45 560.02 515.22 559.68 507.99 560.37 500.76 560.34 493.53 559.98 486.3 560.43 479.07 560.39 471.84 559.65 464.62 559.67 457.39 560.18 450.16 560.41 442.93 559.57 435.7 559.85 428.47 559.56 421.24 559.98 414.01 559.85 406.77 560.13 399.55 559.91 392.31 560.35 385.08 559.83 377.85 559.52 370.62 560.21 363.39 560.45 356.17 559.67 348.94 560.29 341.71 559.84 334.49 559.53 327.26 559.84 320.02 560.17 312.8 559.58 305.56 559.85 298.34 559.52 291.11 560.36 283.87 559.9 276.64 560.21 269.41 560.16 262.18 560.45 254.94 559.71 247.71 560.49 240.48 559.64 233.24 559.72 226.01 559.64 218.78 560.08 211.55 560.4 204.31 559.86 197.08 560.33 189.84 560.48 182.61 560.07 175.37 559.77 168.13 560.34 160.89 559.75 158.16 558.83 152.38 554.23 146.65 549.56 141.18 544.61 135.69 539.66 130.24 534.68 124.76 529.74 118.8 525.33 113.6 520.07 107.94 515.33 102.19 510.69 97.12 505.27 91.4 500.59 85.62 495.98 80 491.18 74.61 486.13 68.94 481.4 63.53 476.34 58.1 471.32 60.74 463.81 67.97 463.67 75.19 464.42 82.42 464.42 89.64 463.55 96.87 464.25 104.09 463.57 111.32 463.54 118.55 464.3 125.78 464.49 133 463.62 140.23 464.24 147.46 463.6 154.68 464.19 161.91 464.17 169.14 463.75 176.37 463.9 183.6 463.84 190.82 463.71 198.05 464.03 205.28 463.9 212.51 463.71 219.74 464.12 226.96 464.08 234.19 464.27 241.42 463.54 248.65 463.88 255.88 463.53 263.11 464.21 270.33 463.59 277.56 463.89 284.79 464.22 292.02 464.25 299.25 463.59 306.48 464.38 313.71 463.72 320.94 463.88 328.17 464.17 335.4 463.87 342.63 464.49 349.86 464.38 357.09 464.34 364.32 463.65 371.55 463.68 378.78 464.3 386.01 463.7 393.24 463.83 400.47 464.31 407.7 464.25 414.93 463.87 422.16 464.25 429.38 463.72 436.61 464.16 443.84 463.88 451.07 464.4 458.3 464.07 465.53 463.77 472.76 463.86 479.99 463.72 487.22 463.92 494.45 463.65 501.68 463.95 508.91 464.27 516.14 464.36 523.38 464.27 530.61 463.74 537.85 464.28 545.08 464.07 552.31 463.56 559.55 464.03 566.78 464.41 574.01 463.55 581.24 463.51 588.48 464.33 595.71 464.44 602.95 463.95 610.18 464.16 617.43 463.9 624.67 464.06 627.51 465.04"/><polyline class="cls-1" points="158.37 560.02 156.93 567.07 156.97 574.28 156.42 581.42 156.02 588.59 156.1 595.78 157.44 602.87 158.25 610.01"/><polyline class="cls-2" points="322.31 630.54 328.18 626.01 333.66 620.98 339.49 616.4 345.34 611.84 351.25 607.35 357.35 603.04 357.49 595.67 357.28 588.34 357.5 581.03 357.26 587.5 357.77 593.99 357.51 600.5 357.46 607.38 364.9 606.9 372.01 606.64 379.1 605.89 386.21 605.68 393.31 605.31 400.38 604.23 407.5 604.3 414.59 603.56 421.71 603.57 428.8 602.84 435.92 602.71 443.01 602.16 450.14 602.2 457.21 601.19 464.34 601.26 471.45 601.04 478.54 600.34 485.62 599.46 492.78 600.01 499.84 598.78 506.99 599.14 514.06 598.07 521.2 598.32 528.3 597.69 535.41 597.33 542.52 597.08 549.61 596.27 556.74 596.39 563.8 595.12 570.96 595.59 578.07 595.25 585.16 594.41 592.27 593.56 599.58 593.55 606.87 594.27 614.17 593.95 621.47 594.19 628.76 594.71 636.06 594.48 643.36 594.73 650.66 594.13 657.96 594.16 665.26 594.91 672.56 594.88 679.86 594.71 687.16 594.19 694.46 594.58 701.75 595.02 709.06 594.57 716.36 594.95 723.66 595.11 730.97 594.61 738 594.74 737.56 587.81 737.45 580.58 736.96 573.37 735.55 566.23 735.67 558.8 730.06 554.05 724.16 549.87 719.13 544.7 713.62 540.09 708.47 535.06 703.2 530.16 697.58 525.65 692.23 520.85 686.9 516.03 681.01 511.83 675.82 506.85 670.27 502.27 664.83 497.57 659.77 492.43 654.09 488 649.21 482.65 643.17 478.64 638.23 473.35 632.43 469.04 627.36 463.79 620.05 464.15 612.81 464.54 605.58 463.9 598.35 464.41 591.12 463.96 583.88 464 576.65 464.44 569.42 464.3 562.18 464.66 554.95 463.82 547.72 464.58 540.48 464.03 533.25 464.48 526.02 464.49 518.78 463.82 511.55 464.2 504.32 464.67 497.08 464.7 489.85 464.7 482.61 464.31 475.38 464.71 468.15 464.5 460.92 464.78 453.69 464.66 446.46 464.2 439.23 464.82 431.99 464.59 424.76 464.33 417.53 464.77 410.3 464.91 403.06 464.36 395.83 464.75 388.59 464.87 381.36 464.19 374.12 464.43 366.88 464.93 359.65 464.96 352.41 465.05 345.17 465.24 337.94 464.76 330.7 464.95 323.47 465.13 316.23 464.89 308.99 464.6 301.75 465.18 294.51 464.67 287.27 465.08 280.03 464.53 272.75 465.11 265.61 460.83 258.6 456.42 251.73 452.04 245.06 453.75 238.47 456.22 231.71 457.96 224.66 458.26 217.54 457.8 210.41 457.99 203.23 457.66 206.87 464.55 211.4 470.62 216.94 475.83 221.75 481.66 226.46 487.58 231.12 493.54 236.34 499.04 240.99 505.01 247.18 510.13 253.94 514.58 260.74 518.94 266.64 524.34 273.31 528.74 280.4 532.47 287.27 536.79 288 542.69 290.97 547.7 295.69 551.68 300.49 555.56 305.09 559.86 304.73 567.41 303.51 574.73 303.07 582.12 301.51 589.38 300.55 596.72 299.68 604.07 298.33 611.35 297.92 618.78 296.39 625.95 300.53 631.89 305.29 637.4 309.65 643.21 313.49 649.41 317.92 655.18 322.16 660.59 322.65 653.9 322.22 646.81 321.84 639.71 321.9 632.61 322.39 625.51 321.87 618.41 322.51 611.32 322 604.21 322.07 597.11 322.06 590"/><polyline class="cls-1" points="322.31 630.54 328.18 626.01 333.66 620.98 339.49 616.4 345.34 611.84 351.25 607.35 357.35 603.04 357.49 595.67 357.28 588.34 357.5 581.03 357.26 587.5 357.77 593.99 357.51 600.5 357.46 607.38 364.9 606.9 372.01 606.64 379.1 605.89 386.21 605.68 393.31 605.31 400.38 604.23 407.5 604.3 414.59 603.56 421.71 603.57 428.8 602.84 435.92 602.71 443.01 602.16 450.14 602.2 457.21 601.19 464.34 601.26 471.45 601.04 478.54 600.34 485.62 599.46 492.78 600.01 499.84 598.78 506.99 599.14 514.06 598.07 521.2 598.32 528.3 597.69 535.41 597.33 542.52 597.08 549.61 596.27 556.74 596.39 563.8 595.12 570.96 595.59 578.07 595.25 585.16 594.41 592.27 593.56 599.58 593.55 606.87 594.27 614.17 593.95 621.47 594.19 628.76 594.71 636.06 594.48 643.36 594.73 650.66 594.13 657.96 594.16 665.26 594.91 672.56 594.88 679.86 594.71 687.16 594.19 694.46 594.58 701.75 595.02 709.06 594.57 716.36 594.95 723.66 595.11 730.97 594.61 738 594.74 737.56 587.81 737.45 580.58 736.96 573.37 735.55 566.23 735.67 558.8 730.06 554.05 724.16 549.87 719.13 544.7 713.62 540.09 708.47 535.06 703.2 530.16 697.58 525.65 692.23 520.85 686.9 516.03 681.01 511.83 675.82 506.85 670.27 502.27 664.83 497.57 659.77 492.43 654.09 488 649.21 482.65 643.17 478.64 638.23 473.35 632.43 469.04 627.36 463.79 620.05 464.15 612.81 464.54 605.58 463.9 598.35 464.41 591.12 463.96 583.88 464 576.65 464.44 569.42 464.3 562.18 464.66 554.95 463.82 547.72 464.58 540.48 464.03 533.25 464.48 526.02 464.49 518.78 463.82 511.55 464.2 504.32 464.67 497.08 464.7 489.85 464.7 482.61 464.31 475.38 464.71 468.15 464.5 460.92 464.78 453.69 464.66 446.46 464.2 439.23 464.82 431.99 464.59 424.76 464.33 417.53 464.77 410.3 464.91 403.06 464.36 395.83 464.75 388.59 464.87 381.36 464.19 374.12 464.43 366.88 464.93 359.65 464.96 352.41 465.05 345.17 465.24 337.94 464.76 330.7 464.95 323.47 465.13 316.23 464.89 308.99 464.6 301.75 465.18 294.51 464.67 287.27 465.08 280.03 464.53 272.75 465.11 265.61 460.83 258.6 456.42 251.73 452.04 245.06 453.75 238.47 456.22 231.71 457.96 224.66 458.26 217.54 457.8 210.41 457.99 203.23 457.66 206.87 464.55 211.4 470.62 216.94 475.83 221.75 481.66 226.46 487.58 231.12 493.54 236.34 499.04 240.99 505.01 247.18 510.13 253.94 514.58 260.74 518.94 266.64 524.34 273.31 528.74 280.4 532.47 287.27 536.79 288 542.69 290.97 547.7 295.69 551.68 300.49 555.56 305.09 559.86 304.73 567.41 303.51 574.73 303.07 582.12 301.51 589.38 300.55 596.72 299.68 604.07 298.33 611.35 297.92 618.78 296.39 625.95 300.53 631.89 305.29 637.4 309.65 643.21 313.49 649.41 317.92 655.18 322.16 660.59 322.65 653.9 322.22 646.81 321.84 639.71 321.9 632.61 322.39 625.51 321.87 618.41 322.51 611.32 322 604.21 322.07 597.11 322.06 590"/><polyline points="439.34 624.66 446.42 625.91 453.38 627.76 460.45 629.06 467.49 630.67 474.39 629.96 481.31 630.37 488.18 629.31 495.08 629.26 502 629.38 508.9 629.23 515.79 628.85 522.66 628 529.58 628.25 536.45 627.2 543.36 626.93 550.28 627.07 557.61 625.86 565 625.07 572.22 623.16 579.64 622.53 586.89 620.84 594.4 620.17 596.7 613.82 598.85 607.53 601.38 601.38 603.51 594.72 609.25 599.15 615.3 602.57 620.66 607 626.35 610.95 632.04 614.89 637.9 618.58 643.94 622.02 649.43 626.27 655.36 629.82 662.11 631.09 668.64 633.48 675.49 634.49 682.22 636.01 688.94 637.56 695.59 639.43 702.46 640.36 709.12 642.2 715.79 643.99 722.5 645.66 729.4 647.23 731.76 640.54 734.39 634.14 736.99 627.72 740 621.47 742.43 614.99 744.27 608.26 747.27 602 747.52 594.84 747.59 587.67 747.51 580.51 747.59 573.34 747.12 566.17 747.24 559.02 741.79 554.29 736.35 549.53 731.2 544.45 726.36 539.05 720.85 534.36 715.32 529.68 709.94 524.92 704.33 521.42 698.47 518.27 692.81 514.7 687.03 511.7 683.97 505.62 681.13 499.29 678.72 492.77 675.58 486.6 669.78 481.88 663.7 477.44 658 472.52 652.16 467.79 646.36 463 640.12 458.75 634.36 453.77 627.04 453.82 619.82 453.52 612.57 454.17 605.34 453.87 598.11 453.62 590.88 453.21 583.64 453.18 576.4 453.77 569.16 453.43 561.93 453.36 554.7 453 547.46 453.06 540.23 452.81 532.99 452.83 525.75 453.42 518.51 452.76 511.27 453.14 504.02 453.31 496.77 452.52 490.41 454.07 484.05 455.39 477.64 456.48 471.16 457.24 464.78 458.49 458.04 456.92 451.13 456.32 444.41 454.65 437.64 453.21 430.74 452.69 423.71 451.94 416.63 452.32 409.56 451.54 402.49 451.64 395.4 451.73 388.33 451.48 381.24 451.92 374.17 451.55 367.09 451.69 360.01 451.44 352.93 451.35 345.85 451.69 338.77 451.38 331.7 450.9 324.61 451.4 317.54 451.23 310.45 451.21 303.37 450.71 296.37 451.06 299.57 457.43 302.9 463.84 306.19 470.28 310.04 476.41 313.13 482.94 316.93 489.11 319.81 495.76 323.65 501.9 327.17 508.21 329.77 515.01 333.63 521.15 337.33 527.38 339.99 534.28 346.68 537.5 352.53 541.9 358.85 545.53 365.49 548.62 371.63 552.57 377.94 556.39 379.07 563.83 380.09 571.21 381.67 578.49 382.39 585.92 383.39 593.3 384.53 600.66 385.82 608 386.93 615.36 389.01 622.57 389.51 630.09 393.05 637.44 397.19 644.47 400.09 652.38 407.1 650.18 413.78 647.93 420.49 645.76 427.04 643.13 433.86 641.28 440.33 638.38 447.06 636.31 454.02 634.88 460.42 631.74 467.74 630.13 462.57 625.09 457.72 620.32 452.96 615.45 448.38 610.4"/><polyline class="cls-1" points="439.34 624.66 446.42 625.91 453.38 627.76 460.45 629.06 467.49 630.67 474.39 629.96 481.31 630.37 488.18 629.31 495.08 629.26 502 629.38 508.9 629.23 515.79 628.85 522.66 628 529.58 628.25 536.45 627.2 543.36 626.93 550.28 627.07 557.61 625.86 565 625.07 572.22 623.16 579.64 622.53 586.89 620.84 594.4 620.17 596.7 613.82 598.85 607.53 601.38 601.38 603.51 594.72 609.25 599.15 615.3 602.57 620.66 607 626.35 610.95 632.04 614.89 637.9 618.58 643.94 622.02 649.43 626.27 655.36 629.82 662.11 631.09 668.64 633.48 675.49 634.49 682.22 636.01 688.94 637.56 695.59 639.43 702.46 640.36 709.12 642.2 715.79 643.99 722.5 645.66 729.4 647.23 731.76 640.54 734.39 634.14 736.99 627.72 740 621.47 742.43 614.99 744.27 608.26 747.27 602 747.52 594.84 747.59 587.67 747.51 580.51 747.59 573.34 747.12 566.17 747.24 559.02 741.79 554.29 736.35 549.53 731.2 544.45 726.36 539.05 720.85 534.36 715.32 529.68 709.94 524.92 704.33 521.42 698.47 518.27 692.81 514.7 687.03 511.7 683.97 505.62 681.13 499.29 678.72 492.77 675.58 486.6 669.78 481.88 663.7 477.44 658 472.52 652.16 467.79 646.36 463 640.12 458.75 634.36 453.77 627.04 453.82 619.82 453.52 612.57 454.17 605.34 453.87 598.11 453.62 590.88 453.21 583.64 453.18 576.4 453.77 569.16 453.43 561.93 453.36 554.7 453 547.46 453.06 540.23 452.81 532.99 452.83 525.75 453.42 518.51 452.76 511.27 453.14 504.02 453.31 496.77 452.52 490.41 454.07 484.05 455.39 477.64 456.48 471.16 457.24 464.78 458.49 458.04 456.92 451.13 456.32 444.41 454.65 437.64 453.21 430.74 452.69 423.71 451.94 416.63 452.32 409.56 451.54 402.49 451.64 395.4 451.73 388.33 451.48 381.24 451.92 374.17 451.55 367.09 451.69 360.01 451.44 352.93 451.35 345.85 451.69 338.77 451.38 331.7 450.9 324.61 451.4 317.54 451.23 310.45 451.21 303.37 450.71 296.37 451.06 299.57 457.43 302.9 463.84 306.19 470.28 310.04 476.41 313.13 482.94 316.93 489.11 319.81 495.76 323.65 501.9 327.17 508.21 329.77 515.01 333.63 521.15 337.33 527.38 339.99 534.28 346.68 537.5 352.53 541.9 358.85 545.53 365.49 548.62 371.63 552.57 377.94 556.39 379.07 563.83 380.09 571.21 381.67 578.49 382.39 585.92 383.39 593.3 384.53 600.66 385.82 608 386.93 615.36 389.01 622.57 389.51 630.09 393.05 637.44 397.19 644.47 400.09 652.38 407.1 650.18 413.78 647.93 420.49 645.76 427.04 643.13 433.86 641.28 440.33 638.38 447.06 636.31 454.02 634.88 460.42 631.74 467.74 630.13 462.57 625.09 457.72 620.32 452.96 615.45 448.38 610.4"/><polyline class="cls-2" points="129.88 534.08 136.78 532.09 143.61 529.96 150.7 528.95 157.64 527.15 164.78 526.64 171.89 525.74 179.05 525.64 186.2 526.09 193.26 527.3 200.37 528.14 207.19 529.56 214.15 527.43 221.32 525.77 228.65 524.92 236.04 524.67 243.47 524.73 250.75 526.22 258.2 526.58 265.41 528.4 272.57 530.33"/><polyline class="cls-3" points="129.88 534.08 136.78 532.09 143.61 529.96 150.7 528.95 157.64 527.15 164.78 526.64 171.89 525.74 179.05 525.64 186.2 526.09 193.26 527.3 200.37 528.14 207.19 529.56 214.15 527.43 221.32 525.77 228.65 524.92 236.04 524.67 243.47 524.73 250.75 526.22 258.2 526.58 265.41 528.4 272.57 530.33"/><polyline class="cls-2" points="80.69 492.3 87.92 490.93 95.18 489.78 102.48 488.97 109.69 487.44 117.01 486.73 124.37 486.8 131.72 485.95 139.09 486.24 146.41 487.19 153.58 488.96 160.26 492.5 166.97 490.12 173.6 487.97 180.43 486.61 187.24 485.03 194.23 484.92 201.17 484.3 208.12 484.9 215.06 485.29 221.87 486.7 228.61 488.33"/><polyline class="cls-3" points="80.69 492.3 87.92 490.93 95.18 489.78 102.48 488.97 109.69 487.44 117.01 486.73 124.37 486.8 131.72 485.95 139.09 486.24 146.41 487.19 153.58 488.96 160.26 492.5 166.97 490.12 173.6 487.97 180.43 486.61 187.24 485.03 194.23 484.92 201.17 484.3 208.12 484.9 215.06 485.29 221.87 486.7 228.61 488.33"/><polyline class="cls-3" points="135.82 463.9 141.58 467.19 147.63 470 152.82 474.2 157.02 479.39 159.84 485.4 160.35 491.94 167.11 493.73 173.55 496.57 180.02 499.34 185.89 503.21 191.86 506.94 197.17 511.6 201.5 517.2 204.6 523.51 207.09 530.2 213.59 534.01 219.46 538.66 223.03 545.24 225.15 552.52 223.52 559.94"/></svg>