<svg xmlns="http://www.w3.org/2000/svg" viewBox="0 0 800 800"><defs><style>.a{fill:#fff;}.a,.b,.c{stroke:#000;stroke-linejoin:bevel;stroke-width:13px;}.c{fill:none;stroke-dasharray:27;}</style></defs><title>canvas (32)</title><polygon class="a" points="400 104 64 144 64 107 400 47 400 104"/><polygon class="a" points="400 104 736 144 736 107 400 47 400 104"/><polygon class="b" points="734.13 144 736 143.5 732.27 143.5 400 104.5 67.73 143.5 64 143.5 65.87 144 64 144.5 67.73 144.5 400 183.5 732.27 144.5 736 144.5 734.13 144"/><polygon class="a" points="400 696.56 64 656.56 64 693.56 400 753.56 400 696.56"/><polygon class="a" points="400 696.56 736 656.56 736 693.56 400 753.56 400 696.56"/><polygon class="b" points="734.13 657 736 657.5 732.27 657.5 400 696.5 67.73 657.5 64 657.5 65.87 657 64 656.5 67.73 656.5 400 617.5 732.27 656.5 736 656.5 734.13 657"/><path class="c" d="M140.5,657,125.22,526.32a1083.12,1083.12,0,0,1,0-251.65L140.5,144"/><path class="c" d="M657.5,144l16,136.53a1028.48,1028.48,0,0,1,.05,239L657.5,657"/><path class="b" d="M417.25,402.85C394.08,460.93,355,500.59,330,491.45s-26.51-63.64-3.35-121.72S388.88,272,413.9,281.14,440.41,344.78,417.25,402.85Z"/><polyline class="b" points="413.9 281.14 469.98 308.55 386.1 518.86 330.02 491.45"/><path class="a" d="M473.33,430.27c-23.16,58.08-62.22,97.74-87.23,88.59s-26.51-63.64-3.35-121.72S445,299.41,470,308.55,496.5,372.19,473.33,430.27Z"/><path class="a" d="M446.16,420.33c-9.27,23.23-24.89,39.1-34.89,35.44s-10.61-25.46-1.34-48.69,24.89-39.1,34.89-35.44S455.42,397.1,446.16,420.33Z"/><path d="M437.71,369.06c-1.93-4.32-24.18,22.74-24.18,22.74S399.35,439,401,439c3.09,0,1.94,15.21,5.05,13.47,10.71-5.95,21.07-20.9,27.32-36.58C440.73,397.46,442.39,379.52,437.71,369.06Z"/></svg>