<svg id="Layer_1" data-name="Layer 1" xmlns="http://www.w3.org/2000/svg" viewBox="0 0 800 800"><defs><style>.cls-1{fill:none;stroke:#000;stroke-linejoin:bevel;stroke-width:13px;}</style></defs><title>canvas (83)</title><polygon class="cls-1" points="662.81 465.69 669.2 463.06 674.04 457.84 677.67 451.65 680.4 445 682.02 438 684.56 431.27 686.04 424.25 687.12 417.16 688.63 410.14 689.03 402.96 689.39 395.8 690.69 388.71 690.82 381.53 691.05 374.37 690.68 367.19 690.67 360.03 690.44 352.86 690.45 345.68 689.96 338.66 689 331.7 688.54 324.67 686.81 317.83 685.46 310.95 684.41 304 681.91 297.41 680.52 290.47 677.78 283.97 674.14 277.91 669.17 272.95 662.7 270.68 656.54 273.39 651.64 278.39 648.57 284.76 645.58 291.17 643.42 297.92 641.43 304.73 640.22 311.72 638.23 318.57 636.94 325.56 636.93 332.72 636.01 339.76 634.83 346.8 635.21 353.94 634.75 361.03 634.19 368.13 634.87 368.43 634.38 375.99 633.56 383.51 631.32 390.74 626.67 396.42 626.67 396.08 621.28 400.28 617.47 406.33 615.3 413.2 613.86 420.24 612.78 427.34 611.87 434.47 611.17 441.64 611.07 448.85 611.56 455.99 611.68 463.13 611.88 470.28 611.8 477.42 611.98 484.56 611.21 491.71 611.82 498.86 611.51 498.61 617.78 502.4 621.68 508.69 624.43 515.58 625.98 522.85 628.4 529.92 629.17 537.33 630.5 544.66 630.86 552.09 630.63 559.54 631.06 566.96 630.72 576.41 631.54 576.25 638.73 579.01 643.7 584.98 646.74 592.07 654.09 598.93 660.3 595.02 663.53 588.18 665.33 580.87 666.3 573.45 667.15 566.03 667.65 558.58 667.86 551.11 667.94 544.01 667.72 536.92 666.56 529.91 665.84 522.84 664.28 515.88 661.21 509.46 657.24 503.75 657.38 503.66 656.87 497.16 655.78 490.75 652.13 485.68 646.63 485.83 641.13 486.03 641.26 485.75 641.43 478.73 641.75 471.67 643.8 464.91 646.47 458.35 652.22 459.32 656.93 463.67 662.81 465.69"/><polyline class="cls-1" points="663.96 369 656.8 369.19 649.64 368.63 642.48 368.46 635.32 369.26 628.16 369.11 621 368.65 613.84 369.29 606.67 368.96 599.52 368.46 592.36 369.08 585.2 368.93 578.04 368.6 570.88 368.56 563.73 369.29 556.56 369.02 549.41 369.01 542.24 368.91 535.08 369.35 527.92 369.24 520.76 369.11 513.6 369.23 506.44 368.5 499.27 368.5 492.11 369.41 484.95 369.03 477.78 368.88 470.62 369.48 463.45 369.2 456.29 368.68 449.13 369.35 441.97 368.68 434.8 368.63 427.64 368.91 420.48 369.05 413.31 369.17 406.13 369.43 398.97 368.71 391.73 368.72 384.52 369.34 377.26 369.2 370.13 370.56 362.88 370.79 355.71 371.85 348.62 373.24 341.66 375.25 334.51 376.43 327.55 378.38 320.59 380.34 313.86 383 306.86 384.93 300.28 387.96 293.66 390.88 287.29 394.3 280.7 397.33 274.83 401.61 268.44 405.02 262.74 409.5 256.6 413.37 251.46 418.51 246.19 423.45 241.01 428.47 235.82 433.5 231.46 439.27 226.36 444.45 222.05 450.27 218.68 456.71 214.42 462.59 211.25 469.1 208.07 475.58 204.94 482.11 202.61 488.96 199.68 495.58 197.33 502.44 195.93 509.56 194.35 516.61 191.98 523.49 190.9 530.65 189.61 537.77 188.81 544.97 188.44 552.21 187.57 559.39 187.06 566.61 187.56 573.87 187.12 581.09"/><polygon class="cls-1" points="187.11 294.09 187.71 286.69 189.33 279.46 191.24 272.27 194.13 265.34 198.53 259.26 203.46 253.63 209.2 248.84 215.35 244.61 222.22 241.7 229.28 239.46 236.52 237.97 243.91 237.01 251.4 237.23 258.56 239.39 265.87 241.07 272.49 244.56 278.61 248.84 283.89 254.08 289.14 259.36 293.66 265.34 296.32 272.35 298.56 279.41 300.56 286.59 301.21 294.05 300.15 301.45 298.76 308.74 296.27 315.73 293.2 322.49 289.42 328.95 284.07 334.18 278.57 339.18 272.46 343.44 265.87 346.97 258.64 348.88 251.46 351.04 243.96 351.43 236.46 350.98 229.25 348.93 222.1 346.85 215.31 343.7 209.34 339.18 203.53 334.5 199.04 328.54 194.63 322.56 190.84 316.09 189.3 308.73 187.36 301.54 187.11 294.09"/><polygon class="cls-1" points="154.72 236.6 155.3 229.62 157.48 222.98 160.18 216.62 163.02 210.17 168.08 205.28 173.17 200.5 179.38 197.31 185.63 194.23 192.5 193.04 199.39 191.87 206.43 192.16 213.26 193.92 219.45 197.22 225.4 200.78 230.66 205.31 235.4 210.42 239.35 216.22 241.51 222.89 243.75 229.55 243.73 236.57 243.42 243.54 242.22 250.48 238.83 256.65 235.56 262.83 230.92 268.08 225.71 272.75 219.45 275.88 213.22 279.02 206.33 280.17 199.43 281.22 192.44 280.68 185.74 278.7 179.35 275.99 173.33 272.51 168.31 267.72 163.61 262.62 159.68 256.85 156.61 250.51 155.2 243.61 154.72 236.6"/><polygon points="188.96 279.6 199.43 281.54 206.36 280.7 213 278.69 219.52 276.35 225.26 272.48 230.57 268.08 235.17 262.92 239.05 257.16 241.37 250.62 243.73 244.05 243.7 237.29 236.38 237.32 229.01 238.87 221.98 241.52 215.25 244.82 209.24 249.28 203.13 253.71 198.85 259.93 194.7 266.11 191.55 272.85 188.96 279.6"/><polygon class="cls-1" points="188.96 279.6 199.43 281.54 206.36 280.7 213 278.69 219.52 276.35 225.26 272.48 230.57 268.08 235.17 262.92 239.05 257.16 241.37 250.62 243.73 244.05 243.7 237.29 236.38 237.32 229.01 238.87 221.98 241.52 215.25 244.82 209.24 249.28 203.13 253.71 198.85 259.93 194.7 266.11 191.55 272.85 188.96 279.6"/><polygon points="723.88 689.53 716.83 689.7 709.66 689.79 702.5 690.25 695.33 689.81 688.16 689.48 681 689.96 673.82 689.73 666.65 689.64 659.49 690.24 652.32 690.41 645.15 689.51 637.98 689.93 630.81 689.46 623.64 689.53 616.47 689.59 609.3 690.39 602.13 689.81 594.97 689.72 587.79 689.54 580.62 690.33 573.45 690.33 566.28 690.03 559.12 690.16 551.95 689.53 544.77 689.95 537.6 690.18 530.43 689.55 523.26 690.31 516.09 689.58 508.92 690.2 501.75 689.94 494.58 690.41 487.41 690.16 480.23 689.79 473.06 689.96 465.89 689.99 458.72 689.91 451.55 689.62 444.38 689.69 437.21 690.12 430.03 690.01 422.86 689.6 415.69 690.25 408.52 690.28 401.35 690.03 394.17 690.5 387 690.28 379.83 690.25 372.66 690.45 365.49 689.77 358.32 689.92 351.15 689.55 343.98 690.42 336.81 690.06 329.64 689.76 322.47 690.37 315.3 690.2 308.12 690.28 300.95 690.49 293.78 689.77 286.6 690.37 279.43 689.57 272.26 690.4 265.08 690.08 257.91 690.31 250.73 690.25 243.56 689.75 236.38 690.48 229.21 690.04 222.03 689.95 214.86 690.03 207.68 689.62 200.51 689.81 193.33 689.94 186.15 690.09 178.97 690.19 171.54 689.78 169.67 697.34 167.83 704.66 165.65 711.89 163.77 719.2 161.45 726.38 158.97 733.52 157.54 740.97 154.98 748.1 160.53 743.42 165.3 737.95 170.94 733.42 176.7 729.06 182.19 724.37 187.94 720 193.73 715.69 199.79 711.76 205.78 707.75 211.47 703.24 217.96 700 224.2 696.37 230.54 692.94 236.94 689.59 243.05 685.7 249.72 682.88 256.25 679.81 262.69 676.51 269.59 674.29 276.27 671.55 282.83 668.5 289.6 665.97 296.66 664.28 303.31 661.42 310.18 659.18 317.22 657.5 324.24 655.82 331.14 653.68 338.18 652.08 345.05 649.79 352.05 648 359.22 646.99 366.26 645.39 373.36 644.07 380.52 643.08 387.66 642.03 394.79 640.85 401.92 639.75 409.1 638.94 416.27 638.1 423.45 637.32 430.59 636.17 437.8 635.66 444.98 634.86 452.2 634.6 459.42 634.31 466.62 633.58 473.83 633.21 481.07 633.66 488.27 632.96 495.49 632.79 502.71 632.88 509.93 633.13 517.16 632.53 524.37 633.14 531.58 633.61 538.8 633.71 545.99 634.37 553.24 634 560.45 634.47 567.6 635.61 574.84 635.69 582 636.6 589.2 637.17 596.42 637.59 603.55 638.8 610.74 639.45 617.8 641.06 624.98 641.8 631.75 643.63 638.52 645.46 645.37 646.99 651.94 649.52 658.56 651.81 665.43 653.39 672.04 655.75 678.62 658.23 684.88 661.44 691.47 663.93 697.6 667.38 703.4 671.36 709.7 674.56 714.87 679.35 719.84 684.27 723.88 689.53"/><polygon class="cls-1" points="723.88 689.53 716.83 689.7 709.66 689.79 702.5 690.25 695.33 689.81 688.16 689.48 681 689.96 673.82 689.73 666.65 689.64 659.49 690.24 652.32 690.41 645.15 689.51 637.98 689.93 630.81 689.46 623.64 689.53 616.47 689.59 609.3 690.39 602.13 689.81 594.97 689.72 587.79 689.54 580.62 690.33 573.45 690.33 566.28 690.03 559.12 690.16 551.95 689.53 544.77 689.95 537.6 690.18 530.43 689.55 523.26 690.31 516.09 689.58 508.92 690.2 501.75 689.94 494.58 690.41 487.41 690.16 480.23 689.79 473.06 689.96 465.89 689.99 458.72 689.91 451.55 689.62 444.38 689.69 437.21 690.12 430.03 690.01 422.86 689.6 415.69 690.25 408.52 690.28 401.35 690.03 394.17 690.5 387 690.28 379.83 690.25 372.66 690.45 365.49 689.77 358.32 689.92 351.15 689.55 343.98 690.42 336.81 690.06 329.64 689.76 322.47 690.37 315.3 690.2 308.12 690.28 300.95 690.49 293.78 689.77 286.6 690.37 279.43 689.57 272.26 690.4 265.08 690.08 257.91 690.31 250.73 690.25 243.56 689.75 236.38 690.48 229.21 690.04 222.03 689.95 214.86 690.03 207.68 689.62 200.51 689.81 193.33 689.94 186.15 690.09 178.97 690.19 171.54 689.78 169.67 697.34 167.83 704.66 165.65 711.89 163.77 719.2 161.45 726.38 158.97 733.52 157.54 740.97 154.98 748.1 160.53 743.42 165.3 737.95 170.94 733.42 176.7 729.06 182.19 724.37 187.94 720 193.73 715.69 199.79 711.76 205.78 707.75 211.47 703.24 217.96 700 224.2 696.37 230.54 692.94 236.94 689.59 243.05 685.7 249.72 682.88 256.25 679.81 262.69 676.51 269.59 674.29 276.27 671.55 282.83 668.5 289.6 665.97 296.66 664.28 303.31 661.42 310.18 659.18 317.22 657.5 324.24 655.82 331.14 653.68 338.18 652.08 345.05 649.79 352.05 648 359.22 646.99 366.26 645.39 373.36 644.07 380.52 643.08 387.66 642.03 394.79 640.85 401.92 639.75 409.1 638.94 416.27 638.1 423.45 637.32 430.59 636.17 437.8 635.66 444.98 634.86 452.2 634.6 459.42 634.31 466.62 633.58 473.83 633.21 481.07 633.66 488.27 632.96 495.49 632.79 502.71 632.88 509.93 633.13 517.16 632.53 524.37 633.14 531.58 633.61 538.8 633.71 545.99 634.37 553.24 634 560.45 634.47 567.6 635.61 574.84 635.69 582 636.6 589.2 637.17 596.42 637.59 603.55 638.8 610.74 639.45 617.8 641.06 624.98 641.8 631.75 643.63 638.52 645.46 645.37 646.99 651.94 649.52 658.56 651.81 665.43 653.39 672.04 655.75 678.62 658.23 684.88 661.44 691.47 663.93 697.6 667.38 703.4 671.36 709.7 674.56 714.87 679.35 719.84 684.27 723.88 689.53"/></svg>