<svg id="Layer_1" data-name="Layer 1" xmlns="http://www.w3.org/2000/svg" viewBox="0 0 800 800"><defs><style>.cls-1,.cls-3{fill:none;stroke:#000;stroke-linejoin:bevel;}.cls-1{stroke-width:13px;}.cls-2{fill:#fff;}.cls-3{stroke-width:2px;}</style></defs><title>canvas (75)</title><polygon points="81.18 452.65 88.08 455.76 94.93 458.08 101.97 459.88 108.49 463.16 115.52 465 122.29 467.55 129.1 470 135.84 472.65 142.65 475.1 149.38 477.8 156.41 479.64 163.12 482.37 170.08 484.42 176.76 487.24 183.51 489.86 190.57 491.62 197.31 494.29 204.09 496.83 210.74 499.74 217.7 501.8 224.45 504.4 231.31 506.75 238.02 509.48 244.85 511.9 251.78 514.05 258.7 516.39 258.29 523.7 258.18 530.95 258.9 538.2 258.22 545.45 258.4 552.7 258.52 559.95 258.18 567.21 258.71 574.46 258.8 581.71 259 588.96 258.98 596.21 258.99 603.47 258.97 610.72 258.85 617.97 258.84 625.23 258.92 632.48 259.02 639.74 258.66 647.05 251.72 644.82 244.9 642.38 238.25 639.48 231.37 637.24 224.52 634.89 217.77 632.27 211.06 629.56 204.15 627.38 197.37 624.83 190.59 622.28 183.78 619.83 176.91 617.54 169.99 615.38 163.11 613.13 156.33 610.58 149.67 607.7 142.84 605.29 135.94 603.09 129.13 600.62 122.48 597.73 115.37 596.1 108.82 592.9 101.76 591.15 95 588.52 88.38 585.51 81.38 583.51 81.01 576.25 81.09 569 81.14 561.75 81.52 554.5 81.14 547.25 80.97 540 81.88 532.75 80.94 525.49 80.93 518.24 81.43 510.99 81.49 503.74 81.19 496.49 81.06 489.23 81.25 481.98 81.42 474.72 81.73 467.47 81.04 460.22 81.18 452.65"/><polygon class="cls-1" points="81.18 452.65 88.08 455.76 94.93 458.08 101.97 459.88 108.49 463.16 115.52 465 122.29 467.55 129.1 470 135.84 472.65 142.65 475.1 149.38 477.8 156.41 479.64 163.12 482.37 170.08 484.42 176.76 487.24 183.51 489.86 190.57 491.62 197.31 494.29 204.09 496.83 210.74 499.74 217.7 501.8 224.45 504.4 231.31 506.75 238.02 509.48 244.85 511.9 251.78 514.05 258.7 516.39 258.29 523.7 258.18 530.95 258.9 538.2 258.22 545.45 258.4 552.7 258.52 559.95 258.18 567.21 258.71 574.46 258.8 581.71 259 588.96 258.98 596.21 258.99 603.47 258.97 610.72 258.85 617.97 258.84 625.23 258.92 632.48 259.02 639.74 258.66 647.05 251.72 644.82 244.9 642.38 238.25 639.48 231.37 637.24 224.52 634.89 217.77 632.27 211.06 629.56 204.15 627.38 197.37 624.83 190.59 622.28 183.78 619.83 176.91 617.54 169.99 615.38 163.11 613.13 156.33 610.58 149.67 607.7 142.84 605.29 135.94 603.09 129.13 600.62 122.48 597.73 115.37 596.1 108.82 592.9 101.76 591.15 95 588.52 88.38 585.51 81.38 583.51 81.01 576.25 81.09 569 81.14 561.75 81.52 554.5 81.14 547.25 80.97 540 81.88 532.75 80.94 525.49 80.93 518.24 81.43 510.99 81.49 503.74 81.19 496.49 81.06 489.23 81.25 481.98 81.42 474.72 81.73 467.47 81.04 460.22 81.18 452.65"/><polygon class="cls-2" points="326.81 621.31 326.62 614.25 326.58 607.18 326.9 600.12 326.94 593.05 327.07 585.99 327.47 578.92 326.61 571.85 327.43 564.79 327.49 557.72 326.51 550.65 326.55 543.59 326.76 536.52 327.41 529.46 327.01 522.38 326.69 515.31 327.19 508.37 333.75 505.46 340.53 502.81 347.51 500.65 354.31 498.01 361.27 495.82 367.84 492.59 374.69 490.08 381.63 487.83 388.52 485.43 395.26 482.63 401.91 479.6 408.92 477.52 415.75 474.97 422.6 472.47 429.28 469.53 436.03 466.76 442.94 464.43 450.01 462.49 456.85 459.96 463.63 457.28 470.47 454.74 477.26 452.05 484.02 449.21 484.11 456.36 484.5 463.49 484.46 470.62 484.1 477.75 484.26 484.88 483.96 492.01 483.51 499.14 483.57 506.26 483.64 513.39 484.29 520.52 484 527.65 484.4 534.78 484.18 541.91 484.31 549.04 483.77 556.18 484.3 563.32 484.01 562.24 490.75 559.54 497.65 557.28 504.26 554.24 511.12 551.87 518.06 549.7 524.62 546.54 531.45 544.1 538.49 542.21 545.1 539.18 551.96 536.83 558.59 533.84 565.5 531.6 572.3 529.07 579.01 526.3 585.75 523.6 592.52 520.99 599.57 519.13 606.27 516.32 613.04 513.71 619.82 511.1 626.52 508.3 633.24 505.54 640.32 503.75 647.04 501.01 653.8 498.36 660.57 495.73 667.26 492.9 674.1 490.46 681.01 488.22 687.69 485.35 694.44 482.68 701.34 480.41 708.17 477.91 714.71 475.14 715.15 468.07 715.33 460.82 715.07 453.57 714.6 446.32 715.16 439.07 715.46 431.82 715.4 424.57 714.74 417.31 714.64 410.06 715.19 402.81 715.11 395.56 714.52 388.31 715.18 381.06 714.87 373.8 714.78 366.54 715.01 359.29 715.15 352.03 714.67 345.18 708.32 347.48 701.68 350.18 694.91 352.53 688.14 354.89 681.56 357.74 674.72 359.93 667.88 362.1 661.14 364.53 654.56 367.39 647.91 370.09 641.24 372.71 634.37 374.82 627.91 377.99 620.93 379.79 614.4 382.79 607.5 384.81 601 387.89 594.07 389.82 587.58 392.95 580.93 395.62 574.17 398.01 567.32 400.17 560.5 402.39 554.04 405.59 547.1 407.51 540.48 410.27 533.65 412.46 527.07 415.34 520.48 418.18 513.65 420.39 507.14 423.44 500.3 425.64 493.43 427.74 486.94 430.83 480.21 433.31 473.28 435.26 466.84 438.5 459.86 440.3 453.36 443.4 446.59 445.77 439.96 448.48 432.99 450.33 426.51 453.46 419.64 455.55 413.2 458.78 406.41 461.1 399.52 463.16 392.81 465.68 386.13 468.28 379.65 471.43 372.92 473.9 366.12 476.19 359.48 478.92 352.64 481.1 345.88 483.5 339.21 486.14 332.41 488.43 325.93 491.57 319.11 493.83 312.46 496.52 305.5 498.38 298.98 501.44 292.11 503.54 285.37 506.01 278.74 508.75 272.02 511.27 265.47 514.24 258.59 516.42 258.22 523.7 258.25 530.95 258.63 538.2 258.6 545.45 258.68 552.7 258.89 559.95 258.76 567.21 259 574.46 258.38 581.71 258.17 588.96 258.47 596.21 258.57 603.47 258.62 610.72 258.73 617.97 258.35 625.23 258.27 632.48 258.64 639.74 258.7 646.88 265.34 644.11 272.29 641.86 279.11 639.22 286.07 637.01 292.88 634.36 299.71 631.78 306.51 629.09 313.18 626.08 319.99 623.42 326.88 620.96 326.81 621.31"/><polygon class="cls-1" points="326.81 621.31 326.62 614.25 326.58 607.18 326.9 600.12 326.94 593.05 327.07 585.99 327.47 578.92 326.61 571.85 327.43 564.79 327.49 557.72 326.51 550.65 326.55 543.59 326.76 536.52 327.41 529.46 327.01 522.38 326.69 515.31 327.19 508.37 333.75 505.46 340.53 502.81 347.51 500.65 354.31 498.01 361.27 495.82 367.84 492.59 374.69 490.08 381.63 487.83 388.52 485.43 395.26 482.63 401.91 479.6 408.92 477.52 415.75 474.97 422.6 472.47 429.28 469.53 436.03 466.76 442.94 464.43 450.01 462.49 456.85 459.96 463.63 457.28 470.47 454.74 477.26 452.05 484.02 449.21 484.11 456.36 484.5 463.49 484.46 470.62 484.1 477.75 484.26 484.88 483.96 492.01 483.51 499.14 483.57 506.26 483.64 513.39 484.29 520.52 484 527.65 484.4 534.78 484.18 541.91 484.31 549.04 483.77 556.18 484.3 563.32 484.01 562.24 490.75 559.54 497.65 557.28 504.26 554.24 511.12 551.87 518.06 549.7 524.62 546.54 531.45 544.1 538.49 542.21 545.1 539.18 551.96 536.83 558.59 533.84 565.5 531.6 572.3 529.07 579.01 526.3 585.75 523.6 592.52 520.99 599.57 519.13 606.27 516.32 613.04 513.71 619.82 511.1 626.52 508.3 633.24 505.54 640.32 503.75 647.04 501.01 653.8 498.36 660.57 495.73 667.26 492.9 674.1 490.46 681.01 488.22 687.69 485.35 694.44 482.68 701.34 480.41 708.17 477.91 714.71 475.14 715.15 468.07 715.33 460.82 715.07 453.57 714.6 446.32 715.16 439.07 715.46 431.82 715.4 424.57 714.74 417.31 714.64 410.06 715.19 402.81 715.11 395.56 714.52 388.31 715.18 381.06 714.87 373.8 714.78 366.54 715.01 359.29 715.15 352.03 714.67 345.18 708.32 347.48 701.68 350.18 694.91 352.53 688.14 354.89 681.56 357.74 674.72 359.93 667.88 362.1 661.14 364.53 654.56 367.39 647.91 370.09 641.24 372.71 634.37 374.82 627.91 377.99 620.93 379.79 614.4 382.79 607.5 384.81 601 387.89 594.07 389.82 587.58 392.95 580.93 395.62 574.17 398.01 567.32 400.17 560.5 402.39 554.04 405.59 547.1 407.51 540.48 410.27 533.65 412.46 527.07 415.34 520.48 418.18 513.65 420.39 507.14 423.44 500.3 425.64 493.43 427.74 486.94 430.83 480.21 433.31 473.28 435.26 466.84 438.5 459.86 440.3 453.36 443.4 446.59 445.77 439.96 448.48 432.99 450.33 426.51 453.46 419.64 455.55 413.2 458.78 406.41 461.1 399.52 463.16 392.81 465.68 386.13 468.28 379.65 471.43 372.92 473.9 366.12 476.19 359.48 478.92 352.64 481.1 345.88 483.5 339.21 486.14 332.41 488.43 325.93 491.57 319.11 493.83 312.46 496.52 305.5 498.38 298.98 501.44 292.11 503.54 285.37 506.01 278.74 508.75 272.02 511.27 265.47 514.24 258.59 516.42 258.22 523.7 258.25 530.95 258.63 538.2 258.6 545.45 258.68 552.7 258.89 559.95 258.76 567.21 259 574.46 258.38 581.71 258.17 588.96 258.47 596.21 258.57 603.47 258.62 610.72 258.73 617.97 258.35 625.23 258.27 632.48 258.64 639.74 258.7 646.88 265.34 644.11 272.29 641.86 279.11 639.22 286.07 637.01 292.88 634.36 299.71 631.78 306.51 629.09 313.18 626.08 319.99 623.42 326.88 620.96 326.81 621.31"/><polygon class="cls-2" points="564.34 263.53 571.08 266.69 578.07 268.87 584.96 271.3 591.82 273.83 598.72 276.27 605.67 278.54 612.37 281.51 619.16 284.24 626.31 285.99 632.87 289.36 639.98 291.2 646.7 294.14 653.74 296.18 660.36 299.38 667.48 301.2 674.23 304.06 681.25 306.16 688.05 308.87 694.97 311.25 701.61 314.38 708.56 316.68 715.4 319.29 722.38 321.5 729.24 324.07 736.17 326.44 743.36 329.07 736.28 331.55 729.45 333.72 722.88 336.56 716.25 339.29 709.37 341.32 702.91 344.49 695.9 346.19 689.51 349.53 682.7 351.75 676.11 354.55 669.32 356.84 662.71 359.6 655.94 361.93 648.97 363.74 642.35 366.47 635.71 369.13 628.88 371.33 622.24 374.01 615.62 376.75 608.76 378.85 602.11 381.48 595.53 384.34 588.78 386.73 581.96 388.93 575.31 391.59 568.57 393.99 561.94 396.71 555.07 398.79 548.44 401.51 541.7 403.93 535.17 406.9 528.55 409.65 521.7 411.75 515.08 414.51 508.33 416.9 501.68 419.57 494.9 421.86 488.15 424.27 481.61 427.22 474.74 429.31 467.96 431.61 461.31 434.29 454.56 436.67 447.92 439.37 441.2 441.84 434.53 444.45 427.66 446.51 420.93 448.94 414.41 451.94 407.66 454.34 400.77 456.36 394.4 459.75 387.52 461.81 380.9 464.54 374.07 466.73 367.34 469.16 360.67 471.78 353.93 474.2 347.32 476.98 340.43 479.01 333.79 481.7 327.25 484.68 320.39 486.79 313.79 489.59 307.02 491.93 300.44 494.8 293.5 496.68 286.93 499.56 280.19 501.99 273.36 504.19 266.85 507.24 259.99 509.33 253.48 512.38 246.73 514.83 239.87 517.17 233.05 514.74 226.22 512.56 219.54 509.94 212.79 507.55 206.12 504.92 199.25 502.83 192.51 500.41 186.03 497.25 179.26 494.89 172.34 492.95 165.53 490.69 159.04 487.56 152.22 485.33 145.5 482.82 138.51 481.08 131.75 478.69 125.31 475.42 118.48 473.2 111.7 470.89 104.97 468.39 98.13 466.23 91.35 463.9 84.5 461.76 77.78 459.26 71.01 456.88 64.51 453.74 58.06 451.69 64.5 449.54 71.25 447.04 77.77 443.89 84.58 441.55 91.22 438.72 98.15 436.7 104.79 433.89 111.66 431.71 118.26 428.8 125.01 426.29 131.9 424.14 138.75 421.9 145.58 419.59 152.17 416.65 158.9 414.06 165.66 411.58 172.27 408.7 179.02 406.17 185.83 403.82 192.77 401.81 199.37 398.91 206.25 396.74 212.8 393.68 219.54 391.14 226.5 389.17 233.31 386.81 239.87 383.78 246.59 381.18 253.62 379.41 260.35 376.85 266.96 373.94 273.9 371.95 280.68 369.49 287.14 366.21 293.86 363.61 300.63 361.14 307.5 358.93 314.13 356.08 321.16 354.31 327.94 351.88 334.4 348.57 341.21 346.21 347.91 343.56 354.97 341.88 361.72 339.34 368.28 336.3 375.15 334.12 381.78 331.29 388.77 329.41 395.24 326.13 402.14 324.02 408.81 321.3 415.63 318.95 422.29 316.2 429.02 313.61 435.97 311.63 442.6 308.78 449.46 306.56 456.31 304.32 462.77 301.01 469.82 299.29 476.47 296.48 483.03 293.44 489.85 291.08 496.75 288.97 503.55 286.56 510.24 283.88 516.88 281.05 523.87 279.16 530.55 276.45 537.2 273.63 544.05 271.39 550.91 269.13 557.56 266.31 564.34 263.53"/><polygon class="cls-1" points="564.34 263.53 571.08 266.69 578.07 268.87 584.96 271.3 591.82 273.83 598.72 276.27 605.67 278.54 612.37 281.51 619.16 284.24 626.31 285.99 632.87 289.36 639.98 291.2 646.7 294.14 653.74 296.18 660.36 299.38 667.48 301.2 674.23 304.06 681.25 306.16 688.05 308.87 694.97 311.25 701.61 314.38 708.56 316.68 715.4 319.29 722.38 321.5 729.24 324.07 736.17 326.44 743.36 329.07 736.28 331.55 729.45 333.72 722.88 336.56 716.25 339.29 709.37 341.32 702.91 344.49 695.9 346.19 689.51 349.53 682.7 351.75 676.11 354.55 669.32 356.84 662.71 359.6 655.94 361.93 648.97 363.74 642.35 366.47 635.71 369.13 628.88 371.33 622.24 374.01 615.62 376.75 608.76 378.85 602.11 381.48 595.53 384.34 588.78 386.73 581.96 388.93 575.31 391.59 568.57 393.99 561.94 396.71 555.07 398.79 548.44 401.51 541.7 403.93 535.17 406.9 528.55 409.65 521.7 411.75 515.08 414.51 508.33 416.9 501.68 419.57 494.9 421.86 488.15 424.27 481.61 427.22 474.74 429.31 467.96 431.61 461.31 434.29 454.56 436.67 447.92 439.37 441.2 441.84 434.53 444.45 427.66 446.51 420.93 448.94 414.41 451.94 407.66 454.34 400.77 456.36 394.4 459.75 387.52 461.81 380.9 464.54 374.07 466.73 367.34 469.16 360.67 471.78 353.93 474.2 347.32 476.98 340.43 479.01 333.79 481.7 327.25 484.68 320.39 486.79 313.79 489.59 307.02 491.93 300.44 494.8 293.5 496.68 286.93 499.56 280.19 501.99 273.36 504.19 266.85 507.24 259.99 509.33 253.48 512.38 246.73 514.83 239.87 517.17 233.05 514.74 226.22 512.56 219.54 509.94 212.79 507.55 206.12 504.92 199.25 502.83 192.51 500.41 186.03 497.25 179.26 494.89 172.34 492.95 165.53 490.69 159.04 487.56 152.22 485.33 145.5 482.82 138.51 481.08 131.75 478.69 125.31 475.42 118.48 473.2 111.7 470.89 104.97 468.39 98.13 466.23 91.35 463.9 84.5 461.76 77.78 459.26 71.01 456.88 64.51 453.74 58.06 451.69 64.5 449.54 71.25 447.04 77.77 443.89 84.58 441.55 91.22 438.72 98.15 436.7 104.79 433.89 111.66 431.71 118.26 428.8 125.01 426.29 131.9 424.14 138.75 421.9 145.58 419.59 152.17 416.65 158.9 414.06 165.66 411.58 172.27 408.7 179.02 406.17 185.83 403.82 192.77 401.81 199.37 398.91 206.25 396.74 212.8 393.68 219.54 391.14 226.5 389.17 233.31 386.81 239.87 383.78 246.59 381.18 253.62 379.41 260.35 376.85 266.96 373.94 273.9 371.95 280.68 369.49 287.14 366.21 293.86 363.61 300.63 361.14 307.5 358.93 314.13 356.08 321.16 354.31 327.94 351.88 334.4 348.57 341.21 346.21 347.91 343.56 354.97 341.88 361.72 339.34 368.28 336.3 375.15 334.12 381.78 331.29 388.77 329.41 395.24 326.13 402.14 324.02 408.81 321.3 415.63 318.95 422.29 316.2 429.02 313.61 435.97 311.63 442.6 308.78 449.46 306.56 456.31 304.32 462.77 301.01 469.82 299.29 476.47 296.48 483.03 293.44 489.85 291.08 496.75 288.97 503.55 286.56 510.24 283.88 516.88 281.05 523.87 279.16 530.55 276.45 537.2 273.63 544.05 271.39 550.91 269.13 557.56 266.31 564.34 263.53"/><polygon class="cls-2" points="741.3 329.17 734.84 331.69 727.84 333.58 721.07 336.1 714.45 339.04 707.63 341.42 700.81 343.81 694.32 347.07 687.39 349.17 680.49 351.32 673.99 354.58 667.08 356.74 660.4 359.51 653.49 361.64 646.84 364.47 639.87 366.46 633.24 369.36 626.47 371.89 619.71 374.46 613.05 377.27 606.24 379.68 599.5 382.27 592.63 384.54 585.91 387.22 579.3 390.15 572.3 392.06 565.6 394.78 558.68 396.91 552.14 400.05 545.26 402.27 538.55 404.96 531.84 407.67 525.04 410.09 518.33 412.77 511.39 414.86 504.64 417.45 497.93 420.14 491.3 423.04 484.38 425.16 477.67 427.86 470.88 430.34 463.91 432.33 457.32 435.32 450.43 437.54 443.83 440.53 436.98 442.85 430.37 445.79 423.6 448.32 416.79 450.74 410.04 453.3 403.1 455.38 396.25 457.67 389.59 460.51 382.86 463.14 376.2 465.96 369.37 468.34 362.57 470.78 355.76 473.2 348.98 475.72 342.29 478.46 335.66 481.37 328.63 483.23 322.06 486.29 315.26 488.75 308.58 491.54 301.61 493.54 294.78 495.91 287.99 498.38 281.39 501.39 274.64 503.98 267.79 506.32 260.89 508.5 254.18 511.2 247.3 513.47 240.9 516.59 240.46 524.48 240.41 532.52 240.44 540.85 247.36 537.79 254.04 535.03 260.87 532.67 267.67 530.23 274.55 528 281.35 525.55 287.92 522.51 294.97 520.72 301.67 518.04 308.41 515.42 315.1 512.67 321.74 509.81 328.48 507.21 335.53 505.44 342.25 502.79 348.96 500.1 355.8 497.77 362.52 495.12 369.11 492.09 376.17 490.35 382.81 487.49 389.56 484.91 396.16 481.91 402.9 479.32 409.85 477.27 416.52 474.49 423.45 472.38 430.14 469.65 436.89 467.06 443.74 464.75 450.55 462.32 457.32 459.8 463.8 456.49 470.6 454.04 477.64 452.23 484.16 449.06 491.09 446.94 497.7 443.99 504.45 441.42 511.49 439.59 518.2 436.89 524.88 434.14 531.59 431.44 538.3 428.75 545.07 426.22 552.12 424.46 558.68 421.37 565.42 418.78 572.31 416.56 579.16 414.26 585.9 411.66 592.63 409 599.38 406.43 606.05 403.63 612.79 401.02 619.57 398.52 626.51 396.45 633.08 393.37 639.76 390.61 646.87 388.97 653.32 385.57 660.34 383.7 666.93 380.7 673.89 378.66 680.72 376.28 687.46 373.68 694.24 371.14 700.7 367.79 707.81 366.15 714.44 363.24 721.14 360.53 728.1 358.48 734.84 355.82 741.79 353.19 741.49 344.97 741.34 336.94 741.3 329.17"/><polygon class="cls-1" points="741.3 329.17 734.84 331.69 727.84 333.58 721.07 336.1 714.45 339.04 707.63 341.42 700.81 343.81 694.32 347.07 687.39 349.17 680.49 351.32 673.99 354.58 667.08 356.74 660.4 359.51 653.49 361.64 646.84 364.47 639.87 366.46 633.24 369.36 626.47 371.89 619.71 374.46 613.05 377.27 606.24 379.68 599.5 382.27 592.63 384.54 585.91 387.22 579.3 390.15 572.3 392.06 565.6 394.78 558.68 396.91 552.14 400.05 545.26 402.27 538.55 404.96 531.84 407.67 525.04 410.09 518.33 412.77 511.39 414.86 504.64 417.45 497.93 420.14 491.3 423.04 484.38 425.16 477.67 427.86 470.88 430.34 463.91 432.33 457.32 435.32 450.43 437.54 443.83 440.53 436.98 442.85 430.37 445.79 423.6 448.32 416.79 450.74 410.04 453.3 403.1 455.38 396.25 457.67 389.59 460.51 382.86 463.14 376.2 465.96 369.37 468.34 362.57 470.78 355.76 473.2 348.98 475.72 342.29 478.46 335.66 481.37 328.63 483.23 322.06 486.29 315.26 488.75 308.58 491.54 301.61 493.54 294.78 495.91 287.99 498.38 281.39 501.39 274.64 503.98 267.79 506.32 260.89 508.5 254.18 511.2 247.3 513.47 240.9 516.59 240.46 524.48 240.41 532.52 240.44 540.85 247.36 537.79 254.04 535.03 260.87 532.67 267.67 530.23 274.55 528 281.35 525.55 287.92 522.51 294.97 520.72 301.67 518.04 308.41 515.42 315.1 512.67 321.74 509.81 328.48 507.21 335.53 505.44 342.25 502.79 348.96 500.1 355.8 497.77 362.52 495.12 369.11 492.09 376.17 490.35 382.81 487.49 389.56 484.91 396.16 481.91 402.9 479.32 409.85 477.27 416.52 474.49 423.45 472.38 430.14 469.65 436.89 467.06 443.74 464.75 450.55 462.32 457.32 459.8 463.8 456.49 470.6 454.04 477.64 452.23 484.16 449.06 491.09 446.94 497.7 443.99 504.45 441.42 511.49 439.59 518.2 436.89 524.88 434.14 531.59 431.44 538.3 428.75 545.07 426.22 552.12 424.46 558.68 421.37 565.42 418.78 572.31 416.56 579.16 414.26 585.9 411.66 592.63 409 599.38 406.43 606.05 403.63 612.79 401.02 619.57 398.52 626.51 396.45 633.08 393.37 639.76 390.61 646.87 388.97 653.32 385.57 660.34 383.7 666.93 380.7 673.89 378.66 680.72 376.28 687.46 373.68 694.24 371.14 700.7 367.79 707.81 366.15 714.44 363.24 721.14 360.53 728.1 358.48 734.84 355.82 741.79 353.19 741.49 344.97 741.34 336.94 741.3 329.17"/><polygon points="56.86 451.61 63.92 453.82 70.56 456.7 77.51 458.64 84.12 461.57 90.98 463.8 97.77 466.21 104.44 469.01 111.47 470.74 118.13 473.53 124.93 475.94 131.81 478.11 138.65 480.4 145.42 482.89 152.32 485 159.09 487.5 165.77 490.24 172.72 492.24 179.55 494.55 186.38 496.85 193.05 499.65 199.88 501.96 206.67 504.4 213.47 506.79 220.17 509.48 227.03 511.73 233.74 514.42 240.71 516.44 240.95 524.48 240.67 532.52 240.67 540.53 234.02 537.78 227.19 535.48 220.19 533.63 213.54 530.82 206.85 528.12 199.87 526.25 193.12 523.71 186.36 521.19 179.5 518.96 172.75 516.41 165.75 514.59 159.2 511.46 152.35 509.21 145.47 507.03 138.64 504.7 131.82 502.36 124.91 500.27 118.25 497.44 111.6 494.63 104.68 492.57 97.84 490.27 91.04 487.86 84.36 485.11 77.52 482.82 70.77 480.26 63.94 477.93 57.35 475.65 56.84 467.85 57.44 459.81 56.86 451.61"/><polygon class="cls-1" points="56.86 451.61 63.92 453.82 70.56 456.7 77.51 458.64 84.12 461.57 90.98 463.8 97.77 466.21 104.44 469.01 111.47 470.74 118.13 473.53 124.93 475.94 131.81 478.11 138.65 480.4 145.42 482.89 152.32 485 159.09 487.5 165.77 490.24 172.72 492.24 179.55 494.55 186.38 496.85 193.05 499.65 199.88 501.96 206.67 504.4 213.47 506.79 220.17 509.48 227.03 511.73 233.74 514.42 240.71 516.44 240.95 524.48 240.67 532.52 240.67 540.53 234.02 537.78 227.19 535.48 220.19 533.63 213.54 530.82 206.85 528.12 199.87 526.25 193.12 523.71 186.36 521.19 179.5 518.96 172.75 516.41 165.75 514.59 159.2 511.46 152.35 509.21 145.47 507.03 138.64 504.7 131.82 502.36 124.91 500.27 118.25 497.44 111.6 494.63 104.68 492.57 97.84 490.27 91.04 487.86 84.36 485.11 77.52 482.82 70.77 480.26 63.94 477.93 57.35 475.65 56.84 467.85 57.44 459.81 56.86 451.61"/><polygon points="483.91 562.38 477.69 559.98 471.19 557.95 465.07 555.07 464.78 548.16 465.31 541.21 464.99 534.25 464.83 527.29 465.31 520.34 465.35 513.38 465.2 506.43 464.84 499.47 464.65 492.51 465.08 485.55 464.79 478.6 464.74 471.64 465.08 464.67 464.62 457.46 471.41 455.06 477.55 451.8 483.73 449.63 484.44 456.31 484.09 463.39 484.03 470.47 484.12 477.54 483.51 484.62 484.34 491.7 483.85 498.78 484.24 505.85 483.91 512.93 484.18 520.01 483.6 527.09 484.04 534.17 483.91 541.24 484.1 548.32 484.35 555.41 483.91 562.38"/><polygon class="cls-1" points="483.91 562.38 477.69 559.98 471.19 557.95 465.07 555.07 464.78 548.16 465.31 541.21 464.99 534.25 464.83 527.29 465.31 520.34 465.35 513.38 465.2 506.43 464.84 499.47 464.65 492.51 465.08 485.55 464.79 478.6 464.74 471.64 465.08 464.67 464.62 457.46 471.41 455.06 477.55 451.8 483.73 449.63 484.44 456.31 484.09 463.39 484.03 470.47 484.12 477.54 483.51 484.62 484.34 491.7 483.85 498.78 484.24 505.85 483.91 512.93 484.18 520.01 483.6 527.09 484.04 534.17 483.91 541.24 484.1 548.32 484.35 555.41 483.91 562.38"/><polyline class="cls-2" points="327.1 535.67 327.47 542.82 327.14 549.97 327.09 557.12 327.45 564.27 327.08 571.42 326.71 578.57 326.52 585.72 326.83 592.88 327.42 600.02 327.18 607.18 327.25 614.34 327.18 621.62 321.19 624.12 315.2 626.23 309.23 628.39"/><polyline class="cls-1" points="327.1 535.67 327.47 542.82 327.14 549.97 327.09 557.12 327.45 564.27 327.08 571.42 326.71 578.57 326.52 585.72 326.83 592.88 327.42 600.02 327.18 607.18 327.25 614.34 327.18 621.62 321.19 624.12 315.2 626.23 309.23 628.39"/><polyline class="cls-1" points="483.65 459.17 483.7 466.62 483.84 474.07 484.27 481.52 483.4 488.97 483.85 496.42 483.66 503.87 483.45 511.32 483.98 518.77 484.06 526.22 484.04 533.68 483.95 541.13 483.21 548.58 483.65 556.04 483.33 563.81 491.24 560.57 498.59 556.68 506.46 554.03"/><polygon class="cls-2" points="441.77 301.35 449.04 303.42 456.22 305.99 463.25 308.95 470.48 311.35 477.39 314.67 484.83 316.52 492.29 319.41 484.95 321.71 478.22 324.53 471.24 326.69 464.58 329.71 457.77 332.33 451.09 335.29 444.08 337.36 437.11 339.56 430.48 342.64 423.58 345.02 416.72 347.5 410.12 350.69 403.31 353.3 396.28 354.91 389.99 352.88 383.52 350.82 377.05 348.77 370.72 346.3 364.41 343.81 358.12 341.23 351.61 339.26 344.76 337.06 352.21 334.93 358.9 331.81 365.97 329.7 372.91 327.23 379.62 324.14 386.69 322.04 393.49 319.22 400.44 316.79 407.3 314.1 413.99 310.97 420.94 308.57 427.82 305.92 434.71 303.3 441.77 301.35"/><polygon class="cls-1" points="441.77 301.35 449.04 303.42 456.22 305.99 463.25 308.95 470.48 311.35 477.39 314.67 484.83 316.52 492.29 319.41 484.95 321.71 478.22 324.53 471.24 326.69 464.58 329.71 457.77 332.33 451.09 335.29 444.08 337.36 437.11 339.56 430.48 342.64 423.58 345.02 416.72 347.5 410.12 350.69 403.31 353.3 396.28 354.91 389.99 352.88 383.52 350.82 377.05 348.77 370.72 346.3 364.41 343.81 358.12 341.23 351.61 339.26 344.76 337.06 352.21 334.93 358.9 331.81 365.97 329.7 372.91 327.23 379.62 324.14 386.69 322.04 393.49 319.22 400.44 316.79 407.3 314.1 413.99 310.97 420.94 308.57 427.82 305.92 434.71 303.3 441.77 301.35"/><polygon class="cls-2" points="491.61 319.22 484.62 321.77 477.78 324.17 471.08 326.95 464.3 329.51 457.48 331.97 450.64 334.38 444.16 337.72 437.14 339.64 430.33 342.14 423.79 345.34 417.01 347.9 410.08 350.08 403.24 352.5 396.29 355.12 396.17 363.3 396.61 371.22 403.48 369.23 410 365.98 416.82 363.53 423.57 360.87 430.56 358.85 437.21 355.95 444.1 353.7 450.76 350.8 457.54 348.24 464.31 345.65 471.25 343.5 477.86 340.49 484.83 338.4 491.74 335.62 491.46 327.42 491.61 319.22"/><polygon class="cls-1" points="491.61 319.22 484.62 321.77 477.78 324.17 471.08 326.95 464.3 329.51 457.48 331.97 450.64 334.38 444.16 337.72 437.14 339.64 430.33 342.14 423.79 345.34 417.01 347.9 410.08 350.08 403.24 352.5 396.29 355.12 396.17 363.3 396.61 371.22 403.48 369.23 410 365.98 416.82 363.53 423.57 360.87 430.56 358.85 437.21 355.95 444.1 353.7 450.76 350.8 457.54 348.24 464.31 345.65 471.25 343.5 477.86 340.49 484.83 338.4 491.74 335.62 491.46 327.42 491.61 319.22"/><polygon points="344.88 337 351.49 339.23 357.96 341.4 364.45 343.53 370.72 346.28 377.35 348 383.71 350.5 389.95 353.35 396.85 355.06 397.02 363.3 396.3 371.08 390.15 368.86 383.76 366.48 377.33 364.17 370.78 362.22 364.18 360.42 357.84 357.86 351.3 355.87 344.9 353.24 344.91 345.16 344.88 337"/><polygon class="cls-1" points="344.88 337 351.49 339.23 357.96 341.4 364.45 343.53 370.72 346.28 377.35 348 383.71 350.5 389.95 353.35 396.85 355.06 397.02 363.3 396.3 371.08 390.15 368.86 383.76 366.48 377.33 364.17 370.78 362.22 364.18 360.42 357.84 357.86 351.3 355.87 344.9 353.24 344.91 345.16 344.88 337"/><polygon class="cls-2" points="481.41 247.37 480.99 254.42 480.02 261.43 477.82 268.15 475.37 274.79 471.83 280.92 467.22 286.27 463.11 292.03 457.68 296.57 452.07 300.89 445.77 304.12 439.15 306.56 432.47 308.82 425.51 310.14 418.44 310.61 411.45 309.39 404.54 308.26 397.86 306.19 391.2 303.94 385.04 300.53 379.61 296.06 373.91 291.89 369.08 286.73 365.68 280.52 362.2 274.45 359.21 268.09 357.72 261.23 356.4 254.36 355.94 247.37 355.92 240.32 357.36 233.43 359.07 226.59 361.89 220.13 365.5 214.1 369.63 208.44 374.26 203.19 379.33 198.32 384.87 193.93 391.2 190.8 397.84 188.49 404.51 186.33 411.44 185.23 418.44 185.04 425.48 184.93 432.35 186.45 439.33 187.68 445.88 190.38 451.78 194.31 457.66 198.19 462.95 202.86 467.46 208.28 471.83 213.82 475.42 219.93 477.52 226.69 480.12 233.29 481.18 240.3 481.41 247.37"/><polygon class="cls-1" points="481.41 247.37 480.99 254.42 480.02 261.43 477.82 268.15 475.37 274.79 471.83 280.92 467.22 286.27 463.11 292.03 457.68 296.57 452.07 300.89 445.77 304.12 439.15 306.56 432.47 308.82 425.51 310.14 418.44 310.61 411.45 309.39 404.54 308.26 397.86 306.19 391.2 303.94 385.04 300.53 379.61 296.06 373.91 291.89 369.08 286.73 365.68 280.52 362.2 274.45 359.21 268.09 357.72 261.23 356.4 254.36 355.94 247.37 355.92 240.32 357.36 233.43 359.07 226.59 361.89 220.13 365.5 214.1 369.63 208.44 374.26 203.19 379.33 198.32 384.87 193.93 391.2 190.8 397.84 188.49 404.51 186.33 411.44 185.23 418.44 185.04 425.48 184.93 432.35 186.45 439.33 187.68 445.88 190.38 451.78 194.31 457.66 198.19 462.95 202.86 467.46 208.28 471.83 213.82 475.42 219.93 477.52 226.69 480.12 233.29 481.18 240.3 481.41 247.37"/><polygon points="437.04 291.06 429.96 291.52 423.15 289.59 416.44 287.64 409.67 285.59 403.62 281.95 398.1 277.6 392.44 273.37 388.26 267.67 383.9 262.16 380.46 256.02 378.19 249.36 376.32 242.63 375.06 235.76 374.55 228.77 374.67 221.58 376.12 214.53 377.66 207.47 380.98 201.04 384.08 194.92 378.97 199.05 373.88 203.73 369.05 208.7 364.64 214.12 362.04 220.62 358.65 226.75 356.81 233.49 356.04 240.43 355.84 247.37 356.14 254.39 357.36 261.31 359.19 268.1 362.16 274.47 365.58 280.58 369.05 286.76 374.02 291.79 379.18 296.6 385.16 300.33 391.25 303.84 397.85 306.22 404.52 308.36 411.36 310.19 418.44 310.24 425.38 309.83 432.18 308.39 438.85 306.54 445.18 303.75 451.39 300.68 456.85 296.42 462.65 292.51 467.21 287.21 471.43 281.09 464.71 284.72 458.35 288.16 451.37 290.06 444.17 290.64 437.04 291.06"/><polygon class="cls-3" points="437.04 291.06 429.96 291.52 423.15 289.59 416.44 287.64 409.67 285.59 403.62 281.95 398.1 277.6 392.44 273.37 388.26 267.67 383.9 262.16 380.46 256.02 378.19 249.36 376.32 242.63 375.06 235.76 374.55 228.77 374.67 221.58 376.12 214.53 377.66 207.47 380.98 201.04 384.08 194.92 378.97 199.05 373.88 203.73 369.05 208.7 364.64 214.12 362.04 220.62 358.65 226.75 356.81 233.49 356.04 240.43 355.84 247.37 356.14 254.39 357.36 261.31 359.19 268.1 362.16 274.47 365.58 280.58 369.05 286.76 374.02 291.79 379.18 296.6 385.16 300.33 391.25 303.84 397.85 306.22 404.52 308.36 411.36 310.19 418.44 310.24 425.38 309.83 432.18 308.39 438.85 306.54 445.18 303.75 451.39 300.68 456.85 296.42 462.65 292.51 467.21 287.21 471.43 281.09 464.71 284.72 458.35 288.16 451.37 290.06 444.17 290.64 437.04 291.06"/><polyline class="cls-1" points="385.07 323.69 378.18 321.32 371.67 318 365.67 313.85 359.79 309.5 354.86 304.1 349.8 298.84 346.15 292.5 342.29 286.38 339 279.92 335.7 273.38 334.53 266.15 333.1 259.06 331.64 251.91 331.71 244.62 332.45 237.4 332.97 230.11 335.14 223.15 337.3 216.2 340.34 209.59 344.07 203.36 347.64 197.01 352.26 191.37 357.56 186.39 363 181.59 368.77 177.19 374.85 173.17 381.36 169.9 388.14 167.2 395.3 165.79 402.36 164.1 409.6 163.56 416.85 162.55 424.16 163 431.29 164.6 438.31 166.49 445.14 168.93"/><polyline class="cls-1" points="452.39 153.01 449.45 159.95 445.75 166.54 443.04 173.59 440.27 180.63 437 187.43"/><polyline class="cls-1" points="454.19 198.64 447.58 201.23 440.98 203.81 434.68 207.13 428.13 209.84 421.36 212.01 414.76 214.58 408.24 217.39 401.64 219.99 395.12 222.76 388.53 225.39 381.87 227.82 375.41 230.76 368.81 233.4 362.18 235.92"/><polyline class="cls-1" points="474.63 222.21 467.67 224.16 461.08 227.04 454.39 229.65 447.92 232.82 441.1 235.11 434.41 237.73 427.97 240.97 421.35 243.75 414.72 246.51 407.7 248.32 401.32 251.71 394.44 253.88 388.05 257.25 381.38 259.93 374.36 261.78"/><polyline class="cls-1" points="481.31 251.1 474.84 253.84 468.28 256.37 461.58 258.53 455.22 261.51 448.86 264.51 442.28 266.99 435.72 269.5 429.19 272.1 422.55 274.41 416.19 277.43 409.59 279.86 403.08 282.5 396.45 284.89"/><polygon class="cls-1" points="252.5 412.41 259.37 414.85 266.02 417.81 273.01 419.82 280 421.84 286.81 424.36 293.55 427.08 300.52 429.14 307.36 431.6 314.17 434.12 320.82 437.1 327.86 438.99 334.76 441.22 341.44 444.13 348.17 446.87 355.13 448.98 361.86 451.73 368.71 454.14 375.63 456.38 382.4 459.02 389.22 461.16 382.36 463.35 375.51 465.94 368.82 468.96 361.91 471.37 355.19 474.3 348.18 476.46 341.3 478.95 334.45 481.55 327.65 484.28 320.79 486.85 314.08 489.79 307.23 492.38 300.33 494.88 293.36 497.27 286.67 494.33 279.75 492.1 272.79 490.02 265.88 487.77 259.18 484.93 252.41 482.3 245.39 480.37 238.64 477.67 231.82 475.18 225.05 472.55 217.95 470.83 211.36 467.69 204.33 465.78 197.74 462.65 190.66 460.89 183.8 458.5 176.98 455.99 170.25 453.25 163.43 450.73 156.76 448.5 163.52 446.36 170.33 443.68 176.96 440.49 184.04 438.52 190.72 435.48 197.76 433.41 204.43 430.34 211.28 427.76 218.21 425.38 225 422.64 231.89 420.16 238.94 418.08 245.71 415.26 252.5 412.41"/><polyline class="cls-1" points="255.94 483.42 263.7 486.3 271.57 488.81 275.69 483.86 279.56 478.7 283.47 473.57 287.19 468.29"/><polyline class="cls-1" points="271.45 488.73 275.16 483.45 279.45 478.62 283.58 473.65 287.2 468.7 294.94 472.49 302.78 476.6"/><polyline class="cls-1" points="286.94 468.69 295.13 472.11 302.84 475.95 306.9 471.36 310.67 466.12 314.91 461.24 318.15 455.6"/><polyline class="cls-1" points="302.71 476.27 307.14 471.55 310.53 466.02 314.81 461.17 318.5 456.19 326.1 460.35 334.02 464.3"/><polyline class="cls-1" points="318.5 455.76 326.19 460.17 334.2 464.14 338.36 459.05 342.28 453.93 346.09 448.72 349.52 443.22"/><polyline class="cls-1" points="334.19 463.97 338.94 458.29 343.38 452.37 347.71 446.24 353.57 448.77 359.65 450.31 365.5 452.52"/><polyline class="cls-1" points="215.95 469.39 223.56 472.71 231.61 474.97 235.63 469.81 239.6 464.73 243.04 459.24 246.84 454.02"/><polyline class="cls-1" points="231.71 474.93 235.65 469.83 239.51 464.66 242.9 459.14 247.13 453.98 255.11 458.16 262.68 462.79"/><polyline class="cls-1" points="247.22 454.15 254.95 458.47 262.84 462 266.53 457.08 270.31 451.85 274.64 447.04 278.17 441.62"/><polyline class="cls-1" points="262.8 462.33 266.62 457.15 270.36 451.89 274.4 446.86 278.44 441.55 286.49 445.58 294.32 449.72"/><polyline class="cls-1" points="278.57 441.64 286.42 445.73 294.16 449.64 298.1 444.85 302.25 439.9 305.49 434.27 309.93 429.53"/><polyline class="cls-1" points="294.27 450.04 298.37 443.86 303.28 438.3 307.82 432.55 313.74 434.27 319.65 436.31 325.6 438.24"/><polyline class="cls-1" points="177.92 455.48 185.57 458.7 193.62 461.05 197.39 455.63 201.24 450.46 205.16 445.33 209.41 440.46"/><polyline class="cls-1" points="193.45 460.73 197.15 455.45 201.39 450.57 205.47 445.56 209.16 440.23 217.03 444.32 224.82 448.51"/><polyline class="cls-1" points="209.31 439.98 217.14 444.09 224.84 448.01 229 443.43 232.58 438.06 236.56 432.97 240.63 427.97"/><polyline class="cls-1" points="225.02 448.5 228.68 443.19 233.07 438.43 236.77 433.14 240.5 428.26 248.29 431.98 255.96 436.41"/><polyline class="cls-1" points="240.47 427.82 248.49 431.6 256.14 435.49 259.96 430.75 263.86 425.61 267.62 420.36 271.87 415.49"/><polyline class="cls-1" points="256.46 436.19 260.95 430.31 264.96 424.05 269.72 418.28 275.77 420.17 281.64 422.33 287.59 424.27"/><polygon class="cls-2" points="389.24 460.63 388.57 468.14 389.4 475.31 389.44 482.49 388.67 489.66 389.29 496.84 389.15 504.01 389.58 511.18 389.59 518.36 388.9 525.53 389.47 532.71 389.18 539.88 389.57 547.05 389.56 554.23 389.14 561.42 389.21 568.52 382.69 570.94 376.04 573.24 369.59 576.1 362.85 578.17 356.37 580.93 349.63 583.01 343.26 586.08 336.51 588.13 330 590.83 323.13 592.58 316.66 595.36 310.18 598.16 303.45 600.29 296.6 603.03 296.54 595.6 296.28 588.5 296.57 581.39 296.63 574.28 296.78 567.17 296.83 560.06 296.71 552.96 296.38 545.85 296.65 538.74 296.2 531.64 296.48 524.53 296.83 517.42 297.02 510.31 296.57 503.19 296.31 495.95 303.04 493.39 309.59 490.74 316.33 488.59 322.76 485.63 329.5 483.48 336.11 480.98 342.84 478.83 349.48 476.39 356.04 473.76 362.42 470.64 369.26 468.75 375.88 466.28 382.49 463.75 389.24 460.63"/><polygon class="cls-1" points="389.24 460.63 388.57 468.14 389.4 475.31 389.44 482.49 388.67 489.66 389.29 496.84 389.15 504.01 389.58 511.18 389.59 518.36 388.9 525.53 389.47 532.71 389.18 539.88 389.57 547.05 389.56 554.23 389.14 561.42 389.21 568.52 382.69 570.94 376.04 573.24 369.59 576.1 362.85 578.17 356.37 580.93 349.63 583.01 343.26 586.08 336.51 588.13 330 590.83 323.13 592.58 316.66 595.36 310.18 598.16 303.45 600.29 296.6 603.03 296.54 595.6 296.28 588.5 296.57 581.39 296.63 574.28 296.78 567.17 296.83 560.06 296.71 552.96 296.38 545.85 296.65 538.74 296.2 531.64 296.48 524.53 296.83 517.42 297.02 510.31 296.57 503.19 296.31 495.95 303.04 493.39 309.59 490.74 316.33 488.59 322.76 485.63 329.5 483.48 336.11 480.98 342.84 478.83 349.48 476.39 356.04 473.76 362.42 470.64 369.26 468.75 375.88 466.28 382.49 463.75 389.24 460.63"/><polyline class="cls-1" points="297.17 574.3 297.53 579.91 297.79 585.49 303.66 581.03 309.32 576.3 314.81 571.36 320.38 566.5 326.3 562.07 332.09 557.47"/><polyline class="cls-1" points="298.01 585.79 303.27 580.57 308.93 575.82 314.82 571.37 320.93 567.17 326.4 562.2 331.78 557.74 330.81 565.39 328.67 573.18"/><polyline class="cls-1" points="332.39 557.49 330.04 565.23 328.91 573.07 334.44 568.45 340.2 563.82 345.82 559.05 351.32 554.1 357.44 549.91 363.2 545.28"/><polyline class="cls-1" points="328.65 573.03 334.56 568.59 339.9 563.47 345.72 558.92 351.72 554.59 357.34 549.79 362.92 545.28 361.45 553 359.77 560.89"/><polyline class="cls-1" points="363.26 545.15 361.19 552.95 359.6 561.17 365.41 555.96 371.74 551.95 377.66 547.42 383.31 542.54 389.19 537.95"/><polyline class="cls-1" points="359.75 560.81 365.38 555.72 371.66 551.45 377.12 546.15 383.17 541.56 389.33 536.5 389.01 543.54 389.24 550.13"/><polyline class="cls-1" points="296.92 544.34 296.94 549.96 297.26 555.55 302.97 550.89 308.98 546.58 314.46 541.62 320.3 537.1 326.11 532.53 331.34 527.25"/><polyline class="cls-1" points="297.19 555.48 302.78 550.66 308.4 545.87 314.63 541.83 319.87 536.57 325.9 532.28 331.43 527.57 329.95 535.37 328.76 543.36"/><polyline class="cls-1" points="331.69 527.5 329.48 535.28 328.42 543.08 334 538.6 339.98 534.25 345.36 529.17 350.93 524.32 356.86 519.9 362.33 514.92"/><polyline class="cls-1" points="328.24 543.21 333.83 538.39 339.41 533.55 345.67 529.55 351.25 524.71 357.12 520.22 362.71 514.93 360.73 523.02 358.93 530.88"/><polyline class="cls-1" points="362.58 515.17 361.11 523.09 359.05 531.26 365.06 526.23 370.71 521.37 376.93 517.21 382.49 512.22 388.62 507.94"/><polyline class="cls-1" points="359.42 531.11 365.12 526.11 370.78 521.06 376.94 516.62 383.09 512.16 388.6 507.25 388.86 513.59 388.72 520.18"/><polyline class="cls-1" points="297 514.84 297.76 520.42 297.73 525.69 303.51 521.52 309.23 516.85 314.95 512.19 320.47 507.27 326.06 502.44 332.23 498.31"/><polyline class="cls-1" points="297.88 526.29 303.64 521.68 308.92 516.47 315.09 512.37 320.72 507.58 326.42 502.88 331.85 498.04 330.49 505.88 328.33 513.66"/><polyline class="cls-1" points="331.66 497.89 330.63 505.91 328.9 513.48 334.29 508.92 340.35 504.67 345.72 499.58 351.24 494.67 357.19 490.28 362.9 485.59"/><polyline class="cls-1" points="328.93 514.03 334.29 508.92 340.03 504.28 345.52 499.34 351.61 495.12 356.94 489.97 362.68 485.97 361.8 493.63 359.38 501.36"/><polyline class="cls-1" points="362.92 485.63 360.9 493.44 359.82 501.28 365.82 497.15 371.46 492.27 377.52 487.91 382.94 482.75 388.99 478.36"/><polyline class="cls-1" points="359.7 501.42 365.28 496.27 371.52 491.93 377.29 487.02 383.43 482.55 389.2 477.12 389.63 484.06 388.98 490.66"/><polygon class="cls-2" points="670.12 318.91 670.02 317.8 669.74 310.87 669.91 303.95 669.71 297.02 670.25 290.1 669.93 283.18 669.94 276.25 669.92 269.33 669.61 262.4 670.03 255.46 670.28 248.14 662.84 250.43 655.53 251.77 648.52 254.28 641.32 256.01 634.1 257.7 626.91 259.56 620.1 261.79 620.14 268.9 620.24 276.27 619.92 283.65 620.06 291.03 619.89 298.4 619.89 305.79 619.51 313.16 619.4 320.55 619.86 327.92 620 332.66 625.85 336.16 632.98 336.25 640.12 335.75 647.26 334.62 654.14 332.41 660.76 329.48 666.27 324.82 670.12 318.91"/><polygon class="cls-1" points="670.12 318.91 670.02 317.8 669.74 310.87 669.91 303.95 669.71 297.02 670.25 290.1 669.93 283.18 669.94 276.25 669.92 269.33 669.61 262.4 670.03 255.46 670.28 248.14 662.84 250.43 655.53 251.77 648.52 254.28 641.32 256.01 634.1 257.7 626.91 259.56 620.1 261.79 620.14 268.9 620.24 276.27 619.92 283.65 620.06 291.03 619.89 298.4 619.89 305.79 619.51 313.16 619.4 320.55 619.86 327.92 620 332.66 625.85 336.16 632.98 336.25 640.12 335.75 647.26 334.62 654.14 332.41 660.76 329.48 666.27 324.82 670.12 318.91"/><polygon class="cls-2" points="669.6 248.08 666.83 254.48 660.76 258.49 653.9 260.8 647.26 263.63 640.08 264.5 633.01 265.9 625.74 265.73 620.12 261.65 622.91 255.34 628.93 251.29 635.79 249 642.46 246.3 649.52 244.88 656.68 244.23 663.87 244.3 669.6 248.08"/><polygon class="cls-1" points="669.6 248.08 666.83 254.48 660.76 258.49 653.9 260.8 647.26 263.63 640.08 264.5 633.01 265.9 625.74 265.73 620.12 261.65 622.91 255.34 628.93 251.29 635.79 249 642.46 246.3 649.52 244.88 656.68 244.23 663.87 244.3 669.6 248.08"/><polyline class="cls-2" points="647.14 288.19 640.07 289.43 633 290.76 625.79 290.45 619.73 286.75"/><polyline class="cls-1" points="647.14 288.19 640.07 289.43 633 290.76 625.79 290.45 619.73 286.75"/><polyline class="cls-2" points="669.65 273.05 666.44 279.04 660.55 283.1 654.12 286.36 647.17 288.28"/><polyline class="cls-1" points="669.65 273.05 666.44 279.04 660.55 283.1 654.12 286.36 647.17 288.28"/><polyline class="cls-2" points="647.3 308.74 640.2 310.15 633 310.75 625.79 310.46 620.05 306.65"/><polyline class="cls-1" points="647.3 308.74 640.2 310.15 633 310.75 625.79 310.46 620.05 306.65"/><polyline class="cls-2" points="669.19 293.17 666.32 298.88 660.51 303.01 654.18 306.51 647.27 308.65"/><polyline class="cls-1" points="669.19 293.17 666.32 298.88 660.51 303.01 654.18 306.51 647.27 308.65"/><polyline class="cls-2" points="646.25 299.6 639.16 300.96 632 301.82 624.84 301.19 619.29 297.59"/><polyline class="cls-1" points="646.25 299.6 639.16 300.96 632 301.82 624.84 301.19 619.29 297.59"/><polyline class="cls-2" points="668.87 283.99 665.71 290.34 659.5 294 653.02 297.11 646.29 299.74"/><polyline class="cls-1" points="668.87 283.99 665.71 290.34 659.5 294 653.02 297.11 646.29 299.74"/></svg>