<svg xmlns="http://www.w3.org/2000/svg" viewBox="0 0 800 800"><defs><style>.a{fill:#fff;}.b{fill:none;stroke:#000;stroke-linecap:round;stroke-linejoin:round;stroke-width:13px;}</style></defs><title>Asset 1eed</title><rect class="a" width="800" height="800"/><path d="M630.5,479.5A6.5,6.5,0,0,1,624,473V307.77C624,254,584.89,230,546.12,230h-1.35C504.91,230,462,254.34,462,307.77V473a6.5,6.5,0,0,1-13,0V307.77c0-28.62,10.82-52.48,31.28-69,17.1-13.82,40.61-21.75,64.5-21.75h1.35c23.91,0,46,7.78,62.23,21.9C627.09,255.22,637,279,637,307.77V473A6.5,6.5,0,0,1,630.5,479.5Z"/><path d="M688.5,326.5A6.5,6.5,0,0,1,682,320V225c0-31-22.74-42-42.2-42H639c-21.68,0-45,13.14-45,42v95a6.5,6.5,0,0,1-13,0V225c0-36.09,29.19-55,58-55h.77c14.43,0,27.81,4.71,37.68,13.27C688.94,193.21,695,207.63,695,225v95A6.5,6.5,0,0,1,688.5,326.5Z"/><path class="b" d="M717.5,244"/><path d="M653.5,250.5A6.5,6.5,0,0,1,647,244V183.58c0-24,19.69-36.58,39.14-36.58h.49c18.6,0,37.37,11.31,37.37,36.58a6.5,6.5,0,0,1-13,0c0-17.38-12.59-23.58-24.37-23.58h-.49c-9.71,0-26.14,5-26.14,23.58V244A6.5,6.5,0,0,1,653.5,250.5Z"/><polygon class="a" points="369.27 497.26 376.64 497.67 383.79 497.56 390.93 497.83 398.07 497.02 405.22 497.21 412.37 497 419.51 497.39 426.65 497.1 433.8 497.58 440.94 497.15 448.09 497.36 455.23 497.45 462.38 497.52 469.52 497.49 476.67 497.36 483.81 497.68 490.96 497.22 498.1 497.79 505.25 497.52 512.39 497.29 519.53 497.16 526.67 497.24 533.82 497.44 540.96 497.05 548.1 497.69 555.25 497.25 562.39 497.8 569.53 497.77 576.68 497.5 583.82 497.33 590.97 497.48 598.12 497.56 605.26 497.56 612.41 497.71 619.56 497.49 626.71 497.96 633.85 497.65 641 497.89 648.15 497.58 655.29 497.97 662.44 497.03 669.59 497.87 676.74 497.89 683.89 497.43 691.03 497.38 698.19 497.25 705.34 497.44 712.39 497.62 712.42 504.35 712.04 511.21 712.15 518.06 712.09 524.92 712.56 531.77 712.19 538.64 712.76 545.77 705.36 545.39 698.21 545.04 691.07 545.42 683.92 545.24 676.78 545.3 669.63 545.8 662.49 545.12 655.35 545.78 648.2 545.68 641.06 545.52 633.91 545.51 626.77 545.16 619.63 545.98 612.48 545.29 605.34 545.63 598.19 545.67 591.04 545.38 583.9 545.18 576.75 545.82 569.61 545.13 562.47 545.76 555.33 545.91 548.18 545.68 541.04 545.02 533.9 545.73 526.75 545.91 519.61 545.58 512.47 545.77 505.32 545.21 498.18 546 491.03 546 483.88 545.33 476.74 545.58 469.59 545.74 462.44 545.44 455.3 545.63 448.15 546 441 545.42 433.85 545.02 426.7 545.56 419.56 545.53 412.41 545.71 405.26 545.09 398.11 545.32 390.97 545.81 383.81 545.57 376.66 545.22 369.2 545.82 369.44 538.65 369.85 531.79 369.66 524.94 369.56 518.08 369.11 511.23 369.06 504.37 369.27 497.26"/><path d="M448.15,552.49l-.52,0-7.07-.57-6.64-.37-6.72.51-.52,0-7,0-7,.18a6.49,6.49,0,0,1-.73,0l-6.76-.59-6.65.22-7,.48a5.68,5.68,0,0,1-.66,0l-7.15-.24h-.1l-6.74-.33-7,.56a6.5,6.5,0,0,1-7-6.7l.25-7.17c0-.05,0-.1,0-.16l.38-6.58-.18-6.58-.1-6.76-.44-6.69c0-.13,0-.26,0-.39l0-6.86c0-.07,0-.15,0-.22l.2-7.11a6.5,6.5,0,0,1,6.86-6.31l7.15.4,6.91-.11H384l6.65.26,6.65-.76a6.68,6.68,0,0,1,.91,0l7,.18,7-.2h.54l6.83.38,6.83-.28a6.42,6.42,0,0,1,.7,0l6.73.45,6.73-.4h.58l7.09.21,14.21.15,7.06,0,7.06-.12h.4l6.79.3,6.79-.44a6.68,6.68,0,0,1,.94,0l6.76.54,13.94-.49,7.23-.13h.19l7.14.08h.1l6.88.19,6.88-.37a6.42,6.42,0,0,1,.93,0l6.65.6,6.66-.41a6.15,6.15,0,0,1,.9,0l6.88.53,6.77,0,7-.27,7.24-.18h.3l7.15.16,7.07,0,7.07,0h.14l7,.18,7-.19c.2,0,.41,0,.62,0l6.79.45,6.8-.3h.5l6.9.24,6.9-.3c.21,0,.42,0,.63,0l6.54.36,6.55-.87a6.46,6.46,0,0,1,1.61,0l6.78.8,6.56,0,6.93-.44h.37l7.15-.05,7.08-.13h.29l14.19.37a6.5,6.5,0,0,1,6.34,6.47l0,6.74c0,.13,0,.25,0,.38l-.18,6.63L719,518v.16l-.24,6.6.36,6.61a6.5,6.5,0,0,1,0,.79l-.36,6.43.53,6.71a6.51,6.51,0,0,1-6.82,7l-14.21-.71-6.82.36h-.5l-7-.18-6.84.06-6.95.48a6.47,6.47,0,0,1-1.07,0l-6.53-.62-6.53.61a6.34,6.34,0,0,1-.7,0L641,552h-7.39l-6.61-.33-6.61.76a6.56,6.56,0,0,1-1.37,0l-6.68-.65-6.68.31h-.26l-7.15,0h-.31l-7.15-.3-6.68-.18-6.77.6a6.38,6.38,0,0,1-1.2,0l-6.54-.63-6.54.58-.43,0-7.14.16h-.36l-7.14-.24-.38,0-6.53-.6-6.53.64-.47,0-7.15.18h-.47l-6.91-.32-6.91.18a6.91,6.91,0,0,1-.91,0l-6.53-.74-6.53.5-.49,0h-7.53l-6.79-.4-6.79.35h-.14l-7.15.22h-.44l-6.94-.25-6.86.19-7.07.37Zm-14.3-14h.36l7.15.4h.16l6.72.54,6.72-.36h.16l7.15-.2h.42l6.93.25,6.86-.21,7.08-.37a6.32,6.32,0,0,1,.72,0l7,.41h6.71l6.9-.53a6.38,6.38,0,0,1,1.23,0l6.69.76,6.69-.18h.47l6.91.32,6.68-.17,6.91-.68a6.46,6.46,0,0,1,1.23,0l7,.64,6.78.23,6.75-.15,6.93-.61a6.39,6.39,0,0,1,1.19,0l6.54.63,6.55-.58a6,6,0,0,1,.75,0l7.14.19,7.08.29,6.86,0,7-.33a6.27,6.27,0,0,1,.93,0l6.46.62,6.46-.75a6.82,6.82,0,0,1,1.07,0l7,.34h7.12l13.89.26,6.79-.64a6.47,6.47,0,0,1,1.22,0l6.61.63,6.61-.46.39,0,7.15-.06h.22l6.89.17,6.89-.36c.22,0,.44,0,.66,0l7.17.35q0-.31,0-.61l.34-6.47-.44-6.46c0-.17,0-.34,0-.5l.06-6.77-.1-6.78c0-.15,0-.3.05-.45l.41-6.67V504l-7.8-.21-7,.13-7,.05-7,.45h-.44l-7.15,0a6.51,6.51,0,0,1-.74,0l-6.34-.75-6.34.84a6.29,6.29,0,0,1-1.21,0l-6.83-.37-6.83.29h-.5l-6.9-.24-6.9.3c-.24,0-.47,0-.7,0l-6.84-.44-6.84.21h-.33l-7.08-.15h-7.08L590.9,504l-7.07-.15-7,.17-7.05.27h-.22l-7.15,0-.52,0-6.69-.51-6.7.41a6.33,6.33,0,0,1-1,0l-6.68-.6-6.68.36h-.53l-7.09-.19-7-.08-7,.13-14.16.5a6.72,6.72,0,0,1-.77,0l-6.68-.54-6.68.43c-.24,0-.47,0-.71,0l-6.95-.31-6.94.12-7.23,0-14.4-.16h-.11l-6.85-.2-6.85.41a6.27,6.27,0,0,1-.82,0l-6.79-.46-6.79.28c-.21,0-.41,0-.62,0l-6.87-.38-6.87.2h-.36l-6.69-.18-6.69.76a6.67,6.67,0,0,1-1,0l-7-.27-7,.11h-.46l-.71,0v.32l0,6.55.44,6.66c0,.11,0,.22,0,.33l.1,6.85.18,6.78c0,.18,0,.37,0,.55l-.38,6.59.19,0a6.53,6.53,0,0,1,.83,0l7.11.35,6.77.22,6.82-.47h.23l7.15-.23a6,6,0,0,1,.77,0l6.78.59,6.78-.17h.2l6.89,0,6.88-.52Z"/><path d="M482.5,465a6.52,6.52,0,0,1-1.53-.18l-6.72-1.62-6.87-.91a6.48,6.48,0,0,1-1.21-.28l-6.43-2.15-6.65-1.08-.55-.11L445.91,457l-6.82-.82a6.45,6.45,0,0,1-1.3-.29l-6.21-2.09-6.52-.63a6.47,6.47,0,0,1-1.33-.27l-6.45-2-6.68-1-.49-.09-6.91-1.54-7-1.17a6.56,6.56,0,0,1-1.07-.28l-6.41-2.24L375,442.22l-7.23-1.34-.37-.08-7-1.74-.13,0-6.84-1.84-6.86-1.45-7.07-1.34-7.09-1.3a6.57,6.57,0,0,1-.68-.16L325.18,431l-6.7-.84a6.48,6.48,0,0,1-.83-.16l-6.8-1.77L303.94,427l-.52-.12L296.7,425l-6.86-1.18-.35-.07-6.94-1.59-7-1.3-.58-.13-6.43-1.81-6.69-.63a6.44,6.44,0,0,1-1.15-.21l-6.89-1.94-6.71-1.63-6.93-1.16-.54-.11-6.81-1.74-6.92-1.25-.33-.07-6.81-1.6-6.93-1.05a6.61,6.61,0,0,1-.75-.16l-6.65-1.83-6.82-1.07-.35-.06-7.1-1.51-.17,0-13.87-3.32-6.93-1.11a6.41,6.41,0,0,1-.63-.13l-6.8-1.79-6.91-1.29-.57-.13-6.85-1.94-6.8-1.59-6.78-1.3-7-.85a6.53,6.53,0,0,1-.79-.15l-6.8-1.69-6.92-1.16a6.53,6.53,0,0,1-1.08-.28l-6.45-2.26-6.58-1.26-7.09-1.18a6.47,6.47,0,0,1-.71-.16l-6.55-1.86-6.76-.91-.52-.09-7.09-1.56-.25-.06-6.61-1.72-6.81-.83a6.51,6.51,0,0,1-1.08-.22l-6.83-2L41,370.26a6.5,6.5,0,1,1,3.12-12.62l7.06,1.74.3.08L58,361.4l6.69.82a6.51,6.51,0,0,1,.85.16l6.91,1.8,6.71,1.47,7,.94a6.52,6.52,0,0,1,.91.19l6.65,1.89,6.81,1.13.15,0,7.13,1.36a6.53,6.53,0,0,1,.93.25l6.38,2.24,6.62,1.11.5.1,6.66,1.66,6.84.82.45.07,7.13,1.37.25.05,7.07,1.65.29.08,6.71,1.9,6.85,1.28.46.1,6.71,1.77,6.86,1.1.48.1,14,3.37,6.84,1.46,7,1.1a6.51,6.51,0,0,1,.72.16l6.63,1.83,6.8,1,.51.1,6.9,1.62,7,1.26.45.1,6.77,1.73,6.89,1.15.47.1,7.06,1.72.22.06,6.43,1.81,6.69.63a6.4,6.4,0,0,1,1.16.22l6.71,1.89,6.85,1.27.26.05,6.9,1.58,7,1.2c.2,0,.4.08.6.13l6.76,1.83,6.88,1.27.46.1,6.62,1.72,6.81.85a6.59,6.59,0,0,1,1,.22l6.64,2,6.79,1.24L349,423l.13,0,7.1,1.5.35.08,7,1.87,6.8,1.68,6.95,1.29,14.25,2.48a6.41,6.41,0,0,1,1,.27l6.38,2.23,6.61,1.11.34.07,6.84,1.52,7,1a6.59,6.59,0,0,1,1,.23l6.3,2,6.59.63a6.45,6.45,0,0,1,1.45.31l6.29,2.12,6.57.79a6.63,6.63,0,0,1,.82.15l6.77,1.71,6.89,1.12a6.48,6.48,0,0,1,1,.25l6.33,2.11,6.6.87a6.59,6.59,0,0,1,.68.13l7.05,1.71A6.5,6.5,0,0,1,482.5,465Z"/><path d="M482.42,395.42a6.49,6.49,0,0,1-1.36-.15l-14.22-3.08-.13,0-7.05-1.71-7.1-1.8-6.74-1.81-6.82-1-.21,0-7.14-1.29a6.51,6.51,0,0,1-.85-.21l-6.42-2.08-6.65-1-.44-.08-6.89-1.5-7-1.06-.39-.07L395.92,377l-.49-.12-6.76-2-6.78-1.52-7-1.38-.19,0-6.8-1.55-6.93-1-.34-.06L353.48,368a6.53,6.53,0,0,1-.92-.25l-6.42-2.25-6.64-1.21-7.09-1.21-.52-.11L325,361.18l-6.8-1.3-7.06-1a6.47,6.47,0,0,1-1.08-.26l-6.62-2.18L297.13,355l-6.86-.61a6.5,6.5,0,0,1-1.44-.29l-6.29-2-6.58-.69a6.5,6.5,0,0,1-1-.18l-6.86-1.82-6.94-1.46-7-1.57-7-1.12-.29-.05-7.1-1.48-.58-.15-6.79-2.08-6.55-1.63-6.87-1a6.44,6.44,0,0,1-.76-.15l-6.67-1.77-6.83-1a6.44,6.44,0,0,1-.68-.14L197.5,334l-6.8-.83A6.59,6.59,0,0,1,190,333L183,331.39l-7-1.38a6.54,6.54,0,0,1-.74-.19l-6.62-2.14-6.77-1.44-.13,0-6.68-1.57-6.86-.76-.54-.08-7.12-1.4-.21,0-7.08-1.63-.41-.11-6.66-2-6.73-1.31-7.08-1.2-.57-.12-6.71-1.76-6.85-1.06-.54-.11-14-3.46-13.82-2.89-7-.86a6.51,6.51,0,0,1-1-.2l-7-2-6.46-1.77-6.75-.75a6.5,6.5,0,0,1,1.43-12.92l7.26.81a6.56,6.56,0,0,1,1,.19l7,1.92L65,293l6.73.83.52.09,14.23,3,.23.05,13.81,3.4,6.91,1.07a6.64,6.64,0,0,1,.65.14l6.75,1.77,6.88,1.16.17,0,7.13,1.39a6.46,6.46,0,0,1,.63.16l6.77,2,6.76,1.56,6.75,1.33,7,.77a6.51,6.51,0,0,1,.77.13l7,1.65,7,1.5a6.51,6.51,0,0,1,.65.17l6.58,2.13,6.74,1.33.25.05,6.7,1.6,6.87.84a6.46,6.46,0,0,1,.86.16l6.69,1.75,6.85,1a6.51,6.51,0,0,1,.7.15l6.64,1.76,6.82,1a6.55,6.55,0,0,1,.67.13l7,1.75.34.09,6.67,2,6.66,1.39,7,1.13.4.08,7.08,1.6,7,1.48.32.08,6.54,1.73,6.76.71a6.54,6.54,0,0,1,1.33.28l6.24,2,6.55.58a6.48,6.48,0,0,1,.83.13l7.08,1.57c.21,0,.42.1.63.17l6.4,2.11,6.64,1,.27,0,7.13,1.37.4.09,6.77,1.74,6.89,1.18,7.21,1.31a6.5,6.5,0,0,1,1,.26l6.45,2.27,6.48,1.25,7,1,.55.1,7,1.59,7,1.38.17,0,7.08,1.59.43.11,6.73,2,6.65,1.43,7,1.06.41.08,6.87,1.5,7,1a6.47,6.47,0,0,1,1.06.25l6.52,2.11L441,373l7.09,1a6.47,6.47,0,0,1,.74.15l7,1.89,6.94,1.76,6.92,1.67,14.08,3.05a6.5,6.5,0,0,1-1.35,12.86Z"/><path d="M553.14,622.49a6.58,6.58,0,0,1-.67,0l-6.92-.71-6.72-.24-14,.34-7.07.32h-.38l-7.08-.09-14.17,0-7.07.13h-.32l-7.13-.21-7.14-.29-6.66-.15-6.72.72a6.53,6.53,0,0,1-.66,0l-7.13,0-7.22-.07-.4,0-7.06-.5a6.5,6.5,0,0,1-4.12-1.87L429.56,615l-5-4.87-4.88-4.86-5.13-4.49c-.14-.12-.27-.24-.39-.37l-4.88-5-.28-.3-4.26-5-4.93-4.33-.32-.3-4.88-4.9-5-4.74a6.42,6.42,0,0,1-.47-.49l-4.39-5.1-4.84-4.65-.35-.36-4.32-4.85-5.08-4.1a6.52,6.52,0,0,1-.74-.71l-4.71-5.22a6.5,6.5,0,0,1,9.66-8.71l4.36,4.84,5.09,4.11a6.49,6.49,0,0,1,.77.73l4.5,5.06,4.88,4.69q.22.21.42.45l4.37,5.07,4.86,4.58.15.14,4.8,4.82,5.12,4.49a6.67,6.67,0,0,1,.66.67l4.44,5.2,4.55,4.71,5.09,4.45.31.29,5,5,8.24,8.09,4.45.31,6.94.06,6.71,0,6.8-.73a6.44,6.44,0,0,1,.84,0l7.13.16h.12l7.13.29,6.9.15,7-.19h.12l14.25,0,.11,0,6.94.1,6.95-.31h.13l14.27-.35h.38l7.13.25.44,0,6.64.68,6.64-.33h.49l6.92.17,6.93-.28h.31l14.25.09,7,0,7-.29H603l7.13-.11a5.89,5.89,0,0,1,.82,0l6.66.74,6.66-.24,7.07-.32,7.22-.24H639l7.13.25,7.15.35,6.65.18,6.72-.69a5.73,5.73,0,0,1,.78,0l14.25.25h.15l6.93.27,6.93-.18h.46l7,.32,6.93.09,6.86-.12,7-.5a6.68,6.68,0,0,1,.84,0l6.81.39,6.81-.29h.31L753,609h.36l6.89.43,6.7-.1,7-.51a6,6,0,0,1,.7,0h.19q0-.14,0-.29v-6.92l.06-6.89-.13-6.83a6.67,6.67,0,0,1,0-.68l.55-6.31-.65-6.32q0-.32,0-.65v-4.4l-2.65-3.15-4.83-4.54c-.13-.12-.25-.24-.37-.37l-4.56-5-4.8-4.64-5.12-4.61a6.58,6.58,0,0,1-.6-.62l-4.26-5-4.91-4.36a6.66,6.66,0,0,1-.57-.57l-4.52-5.15-4.73-4.86-4.9-4.85-5-4.78-5.11-4.72-.33-.33-9.6-10.27a6.5,6.5,0,1,1,9.51-8.86l9.42,10.08,5,4.6.09.08,5.06,4.85.07.07,5,4.93.09.09,4.88,5,.22.24,4.37,5,4.95,4.4a6.55,6.55,0,0,1,.63.64l4.27,5,4.89,4.4.18.17,5,4.87.29.3,4.53,5,4.92,4.62a6.43,6.43,0,0,1,.53.56L786,563a6.5,6.5,0,0,1,1.52,4.16l0,6.43.68,6.61a6.56,6.56,0,0,1,0,1.23L787.8,588l.2,6.58v.18l-.15,6.93,0,6.72.3,6.87a6.52,6.52,0,0,1-6.73,6.8l-6.89-.24-6.8.5-.37,0-7.14.11h-.5l-7-.43L738.78,622l-7,.3a6.28,6.28,0,0,1-.65,0l-6.72-.39-6.71.48-.35,0-7.14.13H710l-7.14-.09h-.21l-6.91-.31-6.91.17h-.42l-7.06-.27-13.82-.24-6.75.69a6.13,6.13,0,0,1-.84,0l-7.13-.19h-.14l-7.13-.35-6.83-.24-6.91.23-7.05.32-7.2.26a6.45,6.45,0,0,1-1,0l-6.72-.75-6.64.1-7.05.29H596l-7.13,0L574.66,622l-7,.28h-.42l-6.89-.17-6.89.35Z"/><path d="M33.54,408.18a6.46,6.46,0,0,1-.92-.07L25,407a6.49,6.49,0,0,1-3.21-1.42l-6-4.91A6.5,6.5,0,0,1,14.36,399l-3.92-6.48a6.51,6.51,0,0,1-.77-1.9l-1.72-7.44a6.5,6.5,0,0,1,0-2.71l1.49-7.62a6.5,6.5,0,0,1,1.11-2.55L15,364a6.49,6.49,0,0,1,2.23-1.95l6.79-3.59a6.49,6.49,0,0,1,1.58-.59l7.44-1.71a6.49,6.49,0,0,1,3.14.06l7.39,2a6.5,6.5,0,0,1-3.37,12.56l-5.82-1.56-5,1.16-4.69,2.48-2.83,3.93-.95,4.86,1.17,5.08,2.81,4.64,3.71,3.05,4.86.7,5.45-.89,4.44-2.37,3.43-5.13A6.5,6.5,0,0,1,57.61,394l-4.34,6.48a6.5,6.5,0,0,1-2.34,2.12L44.1,406.2a6.49,6.49,0,0,1-2,.68l-7.5,1.22A6.55,6.55,0,0,1,33.54,408.18Z"/><path d="M69.94,424.18a6.49,6.49,0,0,1-1.9-.28l-7.31-2.23a6.5,6.5,0,0,1,3.79-12.43L70.39,411l4.91-.8,4.37-2.65,2.88-4.25,1.1-4.95-1.1-5-3-4.62-3.71-3.23-5-.71-5.06.55-4.06,3.15-4.37,5.36a6.5,6.5,0,0,1-10.07-8.22l4.84-5.93a6.51,6.51,0,0,1,1.05-1l6.1-4.72a6.5,6.5,0,0,1,3.28-1.32l7.7-.84a6.47,6.47,0,0,1,1.61,0L79.56,373a6.5,6.5,0,0,1,3.35,1.53l5.86,5.09A6.51,6.51,0,0,1,90,381l4.11,6.38a6.51,6.51,0,0,1,.88,2.11l1.67,7.5a6.5,6.5,0,0,1,0,2.83L95,407.35a6.5,6.5,0,0,1-1,2.23L89.63,416a6.5,6.5,0,0,1-2,1.91L81,422a6.49,6.49,0,0,1-2.33.86L71,424.09A6.47,6.47,0,0,1,69.94,424.18Z"/><path d="M53.37,460.06a6.54,6.54,0,0,1-1.27-.12l-7.59-1.51a6.5,6.5,0,0,1-2.77-1.28l-6-4.79A6.47,6.47,0,0,1,34.43,451L30,444.73a6.49,6.49,0,0,1-1.1-2.66l-1.31-7.65a6.5,6.5,0,0,1,.16-2.88l2.11-7.39a6.51,6.51,0,0,1,.85-1.84L35,416a6.5,6.5,0,0,1,1.72-1.74L43,409.86a6.49,6.49,0,0,1,2.8-1.08l7.66-1a6.46,6.46,0,0,1,2.54.16l7.37,1.95a6.5,6.5,0,0,1-3.32,12.57L54,420.79l-4.84.66-4.07,2.79-3,4.45-1.43,5,.81,4.74,3.06,4.32L48.58,446l4.8,1,5.1-1,4.42-2.75L66.73,438a6.5,6.5,0,0,1,10.46,7.72l-4.57,6.19a6.5,6.5,0,0,1-1.8,1.66l-6.49,4a6.51,6.51,0,0,1-2.18.86l-7.53,1.47A6.52,6.52,0,0,1,53.37,460.06Z"/><path d="M89.77,475.68a6.53,6.53,0,0,1-1.31-.13L80.88,474a6.5,6.5,0,0,1,2.63-12.73l6.45,1.33,5.1-.77L99.37,459l3.12-4.17,1.07-5-.87-4.88-3.17-4.28-4-3.26-4.87-.85-5.17.72L81.1,440l-4.17,5.24a6.5,6.5,0,1,1-10.17-8.1l4.86-6.1a6.5,6.5,0,0,1,1.61-1.45l6.5-4.11a6.49,6.49,0,0,1,2.58-.94l7.58-1.05a6.42,6.42,0,0,1,2,0l7.56,1.33a6.5,6.5,0,0,1,3,1.38l5.91,4.86a6.5,6.5,0,0,1,1.1,1.15l4.56,6.15a6.5,6.5,0,0,1,1.18,2.72l1.37,7.64a6.5,6.5,0,0,1,0,2.51l-1.63,7.61a6.5,6.5,0,0,1-1.15,2.53l-4.65,6.21a6.48,6.48,0,0,1-1.62,1.53L101,473.45a6.49,6.49,0,0,1-2.62,1l-7.66,1.15A6.54,6.54,0,0,1,89.77,475.68Z"/><path d="M73.21,511.16A6.5,6.5,0,0,1,72,511l-7.44-1.42a6.51,6.51,0,0,1-2.57-1.1l-6.19-4.43a6.49,6.49,0,0,1-1.74-1.86l-4-6.45A6.49,6.49,0,0,1,49.3,494l-1.95-7.48a6.5,6.5,0,0,1,0-3.42l2.12-7.46a6.5,6.5,0,0,1,1.14-2.23l4.69-6a6.49,6.49,0,0,1,1.09-1.09l6.05-4.78a6.51,6.51,0,0,1,3-1.32L73.2,459a6.51,6.51,0,0,1,2.41.07l7.61,1.67a6.5,6.5,0,0,1-2.79,12.7L74,472.07l-4.82.76-4.11,3.24-3.42,4.36L60.38,485l1.25,4.82,2.79,4.51,4,2.84,5.12,1,5.16-.49,4-2.52,3.3-5.25a6.5,6.5,0,0,1,11,6.91l-4.08,6.51a6.5,6.5,0,0,1-2,2l-6.56,4.13a6.49,6.49,0,0,1-2.85,1l-7.62.72Z"/><path d="M109.59,527.57a6.49,6.49,0,0,1-1.47-.17l-7.62-1.77A6.5,6.5,0,0,1,103.44,513l6.12,1.42,5.17-1.25,4.46-2.5,2.62-4.34,1.33-4.9-1.21-5.08-2.33-4.68-4.16-2.78-5.09-1.39-4.73.88-4.39,3.37-4.7,5.36a6.5,6.5,0,1,1-9.77-8.57l5.12-5.84a6.48,6.48,0,0,1,.92-.87l6.13-4.71a6.5,6.5,0,0,1,2.78-1.24l7.73-1.43a6.52,6.52,0,0,1,2.9.12l7.54,2.07a6.5,6.5,0,0,1,1.89.86l6.47,4.32a6.5,6.5,0,0,1,2.21,2.51l3.43,6.9a6.5,6.5,0,0,1,.5,1.39l1.77,7.41a6.5,6.5,0,0,1,0,3.2l-2,7.38a6.5,6.5,0,0,1-.71,1.66l-4,6.6a6.5,6.5,0,0,1-2.39,2.31l-6.74,3.77a6.51,6.51,0,0,1-1.65.65l-7.53,1.82A6.52,6.52,0,0,1,109.59,527.57Z"/><path d="M800,527.23l-.46-.41-4.08-5.05a6.48,6.48,0,0,0-.6-.65l-5.11-4.82-.3-.26-4.9-4.08-4-5a6.52,6.52,0,0,0-.7-.75l-5-4.58-4.59-5-.27-.27L765,491.54l-.17-.15-4.92-4.4-4.29-5a6.43,6.43,0,0,0-.84-.82l-5-4-4.08-4.94a6.5,6.5,0,0,0-10,8.28l4.49,5.43a6.53,6.53,0,0,0,.91.9l5,4.08,4.19,4.9a6.48,6.48,0,0,0,.6.61L756,501l4.84,4.65,4.64,5c.12.13.24.25.37.37l4.8,4.4,4.07,5.14a6.47,6.47,0,0,0,.93,1l5.26,4.38,4.65,4.38,4.16,5.15a6.4,6.4,0,0,0,.78.81l5,4.41,4.41,4.76Z"/></svg>