<svg xmlns="http://www.w3.org/2000/svg" xmlns:xlink="http://www.w3.org/1999/xlink" viewBox="0 0 800 800"><defs><style>.a,.c{fill:none;}.b{fill:#fff;}.c{stroke:#000;stroke-linejoin:bevel;stroke-width:13px;}.d{clip-path:url(#a);}.e{clip-path:url(#b);}</style><clipPath id="a"><polygon class="a" points="441.18 500.91 433.71 500.8 426.45 501.04 419.18 500.91 411.92 500.33 404.65 500.66 397.38 500.43 390.12 501.15 382.85 500.45 375.58 500.67 368.31 500.87 361.05 500.95 353.78 501.15 346.51 500.91 339.24 500.8 331.98 500.47 324.72 500.65 317.45 500.85 310.19 500.32 302.92 500.39 295.66 500.86 288.39 501.18 281.13 500.54 273.86 500.71 266.59 500.6 259.32 500.52 252.06 500.56 244.79 500.86 237.52 500.72 230.25 500.26 222.98 500.51 215.71 500.25 208.44 501.15 201.17 501.06 193.9 500.92 186.63 500.42 179.36 500.97 172.09 500.27 164.82 500.47 157.55 501.01 150.28 500.5 143 500.93 135.73 500.87 128.48 500.67 128.78 493.5 128.79 486.28 128.62 479.07 128.2 471.85 128.35 464.64 128.9 457.43 128.14 450.21 128.53 443 128.3 435.78 128.05 428.57 128.37 421.35 128.93 414.13 128.21 406.92 128.18 399.7 128.88 392.48 128.93 385.27 128.74 378.05 128.7 370.83 128.18 363.62 128.2 356.4 128.73 349.19 128.48 341.96 127.99 334.74 128.72 327.79 135.71 327.24 142.98 327.82 150.25 327.82 157.51 327.61 164.78 327.89 172.05 327.25 179.31 327.04 186.58 327.78 193.85 327.69 201.11 327.06 208.38 327.36 215.65 327.17 222.91 327.73 230.18 327.62 237.45 327.84 244.71 327.12 251.97 327.98 259.24 327.15 266.5 327.46 273.77 327.08 281.04 327.5 288.3 327.15 295.57 327.22 302.84 327.42 310.11 327.37 317.37 327.14 324.64 327.9 331.91 327.17 339.18 328 346.45 327.24 353.72 327.94 360.99 327.69 368.26 327.15 375.53 327.36 382.8 327.3 390.07 327.09 397.34 327.18 404.61 327.31 411.88 327.9 419.15 327.17 426.43 327.06 433.7 327.72 440.92 327.57 440.7 334.72 441.01 341.94 441.31 349.15 441.45 356.37 440.96 363.58 440.88 370.79 441.22 378.01 440.97 385.22 441.12 392.44 441.42 399.65 440.52 406.87 441.26 414.08 441.07 421.3 441.22 428.52 441.21 435.74 440.66 442.95 441.18 450.17 441.47 457.38 441.22 464.6 440.54 471.82 441.13 479.03 441.01 486.25 440.89 493.48 441.18 500.91"/></clipPath><clipPath id="b"><path class="a" d="M49,244l-.13,7.23.08,7.26,0,7.26L48.66,273l.66,7.26,0,7.26-.7,7.26.85,7.26-.73,7.26-.25,7.26.57,7.26.2,7.26.18,7.26-.92,7.26.35,7.26.16,7.26-.37,7.26,0,7.26,0,7.26.78,7.26-.51,7.26.08,7.26.18,7.26-.42,7.26.74,7.26L49,432.7,49.3,440l-.54,7.26.62,7.26.09,7.26L48.81,469l0,7.26.09,7.26-.14,7.26.73,7.26-.77,7.26.66,7.26-.18,7.26-.52,7.26.29,7.26.37,7.26-.64,7.26.57,7.26-.32,7.26-.11,7.26.13,7.26,0,7.26.09,7.26.43,7.26.06,7.26-.66,7.27.24,7.26-.41,7.27.19,7.43,7.32,0,7.16-.37,7.16.23,7.16-.27,7.16.2,7.16.17,7.16-.23,7.16.34,7.16-.33h7.16l7.16.48,7.16-.9,7.16.74h7.16l7.16-.24,7.16-.38h7.16l7.16.36,7.16,0,7.16-.24,7.16.56,7.16-.68,7.16.79,7.16-.31,7.16-.41,7.16-.22,7.16.57,7.16-.31,7.16.18,7.16-.23,7.16.35,7.16.13,7.16-.17,7.16.22,7.16.1,7.16-.58,7.16.46,7.16-.25,7.16-.2,7.16.55,7.16-.75,7.16,0,7.16.1,7.16.68,7.16-.71,7.16.35,7.16-.39,7.16.6,7.16-.63,7.16.1h7.17l7.16.61,7.16-.3,7.16-.36,7.17.14,7.16.36,7.16.13,7.16-.61,7.16.17,7.16.46,7.16-.48,7.17.49,7.16-.1,7.17-.69,7.16.77h7.16l7.17-.55,7.16-.16,7.17.48,7.16-.08,7.16.33,7.16-.18,7.16.23,7.16-.16,7.16.17,7.17-.65,7.16-.08,7.17-.09,7.16,0,7.17.06h7.16l7.17.56,7.17-.33,7.17-.17,7.17-.14,7.17.74,7.17-.41,7.17.46,7.17-.46,7.16.24,7.17.32,7.17-.95,7.17.7,7.17-.2,7.17-.23,7.17.68,7.18-.79,7.28.41,0-7.36-.07-7.26.31-7.26,0-7.26-.66-7.26.06-7.26.58-7.26-.21-7.26.16-7.26.21-7.26-.29-7.26-.66-7.26.3-7.26.55-7.26-.63-7.26v-7.26l.32-7.26-.32-7.26.17-7.26-.31-7.26.69-7.26-.79-7.26.85-7.26-.48-7.26.07-7.26-.12-7.25-.09-7.25.18-7.26-.21-7.26.09-7.26.69-7.26-.39-7.26-.4-7.26.27-7.26.16-7.26-.25-7.26-.06-7.26-.22-7.26.38-7.26-.15-7.26-.28-7.26v-7.26l.9-7.26-.06-7.26-.19-7.26.26-7.26-.87-7.26.29-7.26.36-7.26.06-7.26-.11-7.27.2-7.26-.9-7.27L751,244l-7.13-.2h-7.16l-7.16.38-7.16,0-7.16-.42-7.16.26-7.16.1-7.16-.06-7.16.1-7.16-.16-7.16-.22-7.16-.07-7.16.65-7.16-.82-7.16.63-7.16-.15-7.16.14-7.16-.61L615,244l-7.16-.09-7.16.16-7.16.36-7.16-.06H572l-7.16.06-7.16-.33-7.16-.47-7.16.59-7.16-.62L529,244l-7.16.36-7.16.12-7.16-.11-7.16-.28-7.16,0-7.16.35-7.16-.22-7.16-.2-7.16.31-7.16-.64-7.16.55-7.16,0-7.16-.13-7.16-.32-7.16.68h-7.16l-7.16-.94-7.16.66-7.16-.3-7.17.36-7.16-.43H364.3l-7.17.3-7.16-.21-7.16.15-7.16-.09-7.16.11-7.16-.06-7.16-.23-7.17.12-7.16-.22-7.17.13-7.16-.28-7.16.14-7.17.52-7.16-.32-7.17-.15h-7.16l-7.16.12-7.16.26-7.16.15-7.16-.39-7.16,0-7.17.07-7.16.35h-7.17L185.2,244l-7.17.45-7.16-.28-7.17.22-7.17.11-7.17-.65H142.2l-7.17-.18-7.17.49-7.17.05-7.17-.67-7.16.52-7.17.2L92,243.65H84.86l-7.17.41-7.17.12-7.17.13-7.18.08ZM466,530l-7.27-.13-7.24.08-7.24,0-7.24-.27-7.24.66-7.24,0-7.24-.7-7.24.85-7.24-.73-7.24-.25-7.24.57-7.24.2-7.24.18-7.24-.92-7.24.35-7.24.16-7.24-.37-7.24,0-7.24,0-7.24.78-7.24-.51-7.24.08-7.24.18-7.24-.42-7.24.74L277.7,530l-7.24.27-7.24-.54-7.24.62-7.25.09-7.24-.66-7.25,0-7.25.09-7.25-.14-7.25.73-7.25-.77-7.25.66-7.24-.18-7.25-.52-7.25.29-7.25.37-7.25-.64-7.25.57-7.25-.32-7.25-.11-7.19.16-.19-7.05-.33-7.11-.67-7.1-.3-7.11.42-7.13-.48-7.11.18-7.13-.37-7.11-.29-7.11-.61-7.1v-7.12l-.51-7.1,0-7.12-.07-7.12-.47-7.11.1-7.13-.57-7.11-.23-7.12.24-7.13-1.13-7.09.5-7.14-.25-7.12-.48-7.11-.62-7.1-.24-7.12.12-7.13-.2-7.12-.48-7.11.32-7.14-.91-7.1.42-6.83,6.93-.19,7.24-.43,7.24-.23,7.25.55,7.24-.32,7.25.17,7.25-.25,7.25.34,7.25.11,7.25-.18,7.25.2,7.25.08,7.25-.59,7.25.45,7.25-.26,7.25-.21,7.25.54,7.25-.77,7.24,0,7.24.09,7.25.67,7.25-.72,7.24.34,7.24-.4,7.25.59,7.24-.65,7.25.09h7.25l7.25.59,7.25-.31,7.25-.37,7.25.12,7.25.34,7.25.11,7.25-.63,7.25.16,7.25.45,7.25-.5,7.25.48,7.25-.11,7.25-.7,7.25.76H437l7.25-.57,7.25-.17,7.26.46,7.24-.1-.33,7.12.18,7.14-.23,7.13.16,7.13-.17,7.13.65,7.14.08,7.13.09,7.13,0,7.14-.06,7.13v7.14l-.56,7.14.33,7.14.17,7.14.14,7.14-.74,7.14.41,7.14-.46,7.14.46,7.14-.24,7.14-.32,7.14.95,7.14-.7,7.14L466,480l.23,7.14-.68,7.14.79,7.14-.45,7.14v7.14l.07,7.15Z"/></clipPath></defs><title>canvas (34)</title><polygon class="b" points="441 327.57 433.71 327.63 426.45 327.44 419.18 327.48 411.92 327.5 404.65 327.76 397.38 327.88 390.12 327.58 382.85 327.41 375.58 327.33 368.31 327.09 361.05 327.14 353.78 327.36 346.51 327.54 339.24 327.13 331.98 327.69 324.72 327.1 317.45 327.98 310.19 327.3 302.92 327.07 295.66 327.76 288.39 327.99 281.13 327.15 273.86 327.89 266.59 327.85 259.32 327.25 252.06 327.44 244.79 327.09 237.52 327.11 230.25 327.56 222.98 327.95 215.71 327.45 208.44 327.18 201.17 327.21 193.9 327.42 186.63 327.92 179.36 327.79 172.09 327.84 164.82 327.22 157.55 327.74 150.28 327.25 143 327.21 135.73 327.29 128.77 327.38 134.06 323.21 138.88 318 144.07 313.21 149.38 308.56 155.07 304.33 160.32 299.61 165.35 294.63 170.65 289.95 175.98 285.06 183.41 285.64 190.67 285.05 197.94 285.78 205.21 285.67 212.47 285.2 219.74 285.87 227 285.62 234.27 285.2 241.54 285.59 248.81 285.99 256.07 285.82 263.34 285.25 270.61 285.71 277.88 285.1 285.14 285.13 292.4 285.95 299.67 285.69 306.93 285.5 314.2 285.01 321.46 285.75 328.73 285.26 335.99 285.97 343.26 285 350.53 285 357.8 285.11 365.06 285.41 372.33 285.12 379.6 285.24 386.87 285.81 394.14 285.07 401.41 285.63 408.68 285.78 415.95 285.27 423.22 285.55 430.49 285.08 437.76 285.4 445.03 285.56 452.3 285.24 459.57 285.9 466.85 285.76 474.12 285.9 481.39 285.49 488.71 285.48 483.45 290.25 477.96 294.69 472.97 299.71 467.26 303.9 462.04 308.67 456.94 313.56 451.87 318.49 446.39 322.96 441 327.57"/><polygon class="c" points="441 327.57 433.71 327.63 426.45 327.44 419.18 327.48 411.92 327.5 404.65 327.76 397.38 327.88 390.12 327.58 382.85 327.41 375.58 327.33 368.31 327.09 361.05 327.14 353.78 327.36 346.51 327.54 339.24 327.13 331.98 327.69 324.72 327.1 317.45 327.98 310.19 327.3 302.92 327.07 295.66 327.76 288.39 327.99 281.13 327.15 273.86 327.89 266.59 327.85 259.32 327.25 252.06 327.44 244.79 327.09 237.52 327.11 230.25 327.56 222.98 327.95 215.71 327.45 208.44 327.18 201.17 327.21 193.9 327.42 186.63 327.92 179.36 327.79 172.09 327.84 164.82 327.22 157.55 327.74 150.28 327.25 143 327.21 135.73 327.29 128.77 327.38 134.06 323.21 138.88 318 144.07 313.21 149.38 308.56 155.07 304.33 160.32 299.61 165.35 294.63 170.65 289.95 175.98 285.06 183.41 285.64 190.67 285.05 197.94 285.78 205.21 285.67 212.47 285.2 219.74 285.87 227 285.62 234.27 285.2 241.54 285.59 248.81 285.99 256.07 285.82 263.34 285.25 270.61 285.71 277.88 285.1 285.14 285.13 292.4 285.95 299.67 285.69 306.93 285.5 314.2 285.01 321.46 285.75 328.73 285.26 335.99 285.97 343.26 285 350.53 285 357.8 285.11 365.06 285.41 372.33 285.12 379.6 285.24 386.87 285.81 394.14 285.07 401.41 285.63 408.68 285.78 415.95 285.27 423.22 285.55 430.49 285.08 437.76 285.4 445.03 285.56 452.3 285.24 459.57 285.9 466.85 285.76 474.12 285.9 481.39 285.49 488.71 285.48 483.45 290.25 477.96 294.69 472.97 299.71 467.26 303.9 462.04 308.67 456.94 313.56 451.87 318.49 446.39 322.96 441 327.57"/><g class="d"><polygon class="b" points="461.32 397.19 458.78 404.56 453.36 409.94 446 411.85 438.33 410.47 433.33 404.5 430.79 397.19 432.56 390.07 435.65 383.45 439.04 376.97 442.6 370.6 446 363.75 450.01 370.26 453.34 376.77 456.56 383.34 458.99 390.23 461.32 397.19"/><polygon class="c" points="461.32 397.19 458.78 404.56 453.36 409.94 446 411.85 438.33 410.47 433.33 404.5 430.79 397.19 432.56 390.07 435.65 383.45 439.04 376.97 442.6 370.6 446 363.75 450.01 370.26 453.34 376.77 456.56 383.34 458.99 390.23 461.32 397.19"/><polygon class="b" points="380.14 397.19 377.99 404.69 372.42 410.03 365 412.03 357.38 410.38 351.96 404.71 350.46 397.19 351.86 390.18 354.53 383.39 357.55 376.71 361.68 370.65 365 363.7 368.68 370.45 372.51 376.68 375.82 383.22 378.46 390.06 380.14 397.19"/><polygon class="c" points="380.14 397.19 377.99 404.69 372.42 410.03 365 412.03 357.38 410.38 351.96 404.71 350.46 397.19 351.86 390.18 354.53 383.39 357.55 376.71 361.68 370.65 365 363.7 368.68 370.45 372.51 376.68 375.82 383.22 378.46 390.06 380.14 397.19"/><polygon class="b" points="420.23 361.29 418.81 368.98 413.04 374.35 405.5 376.55 398.22 373.9 392.72 368.67 390.88 361.29 392.22 354.24 395.14 347.55 398.01 340.8 402.02 334.67 405.5 328.56 409.18 334.56 412.21 341.21 415.75 347.59 418.71 354.26 420.23 361.29"/><polygon class="c" points="420.23 361.29 418.81 368.98 413.04 374.35 405.5 376.55 398.22 373.9 392.72 368.67 390.88 361.29 392.22 354.24 395.14 347.55 398.01 340.8 402.02 334.67 405.5 328.56 409.18 334.56 412.21 341.21 415.75 347.59 418.71 354.26 420.23 361.29"/><polygon class="b" points="379.62 325.4 377.72 332.74 372.64 338.64 365 339.94 357.46 338.45 351.88 332.97 350.44 325.4 352.13 318.49 354.52 311.6 357.5 304.9 361.48 298.75 365 292.56 368.75 298.62 372.08 305.12 375.83 311.43 378.28 318.34 379.62 325.4"/><polygon class="c" points="379.62 325.4 377.72 332.74 372.64 338.64 365 339.94 357.46 338.45 351.88 332.97 350.44 325.4 352.13 318.49 354.52 311.6 357.5 304.9 361.48 298.75 365 292.56 368.75 298.62 372.08 305.12 375.83 311.43 378.28 318.34 379.62 325.4"/><polygon class="b" points="461.45 468.98 458.59 476.24 453.61 482.16 446 483.64 438.4 482.13 432.88 476.55 431.08 468.98 432.63 461.88 435.61 455.21 438.77 448.62 442.73 442.46 446 435.67 449.31 442.44 452.98 448.75 456.64 455.09 459.51 461.83 461.45 468.98"/><polygon class="c" points="461.45 468.98 458.59 476.24 453.61 482.16 446 483.64 438.4 482.13 432.88 476.55 431.08 468.98 432.63 461.88 435.61 455.21 438.77 448.62 442.73 442.46 446 435.67 449.31 442.44 452.98 448.75 456.64 455.09 459.51 461.83 461.45 468.98"/><polygon class="b" points="380.12 468.98 378.19 476.59 372.67 482.25 365 483.75 357.3 482.31 352.03 476.46 350.3 468.98 352.02 462.03 354.21 455.02 357.95 448.71 361.42 442.29 365 435.97 368.58 442.29 371.77 448.86 374.97 455.4 378.6 461.8 380.12 468.98"/><polygon class="c" points="380.12 468.98 378.19 476.59 372.67 482.25 365 483.75 357.3 482.31 352.03 476.46 350.3 468.98 352.02 462.03 354.21 455.02 357.95 448.71 361.42 442.29 365 435.97 368.58 442.29 371.77 448.86 374.97 455.4 378.6 461.8 380.12 468.98"/><polygon class="b" points="460.93 397.19 458.61 404.47 453.61 410.36 446 412.34 438.67 409.88 433.16 404.6 430.56 397.19 432.37 390 435.19 383.23 438.57 376.73 442.7 370.66 446 364.27 449.84 370.36 453.46 376.71 456.42 383.4 459.33 390.11 460.93 397.19"/><polygon class="c" points="460.93 397.19 458.61 404.47 453.61 410.36 446 412.34 438.67 409.88 433.16 404.6 430.56 397.19 432.37 390 435.19 383.23 438.57 376.73 442.7 370.66 446 364.27 449.84 370.36 453.46 376.71 456.42 383.4 459.33 390.11 460.93 397.19"/><polygon class="b" points="420.55 433.08 418.92 440.83 413.01 446.09 405.5 448.01 398.19 445.74 392.53 440.57 390.3 433.08 392.65 426.18 395.29 419.41 398.18 412.68 401.53 406.18 405.5 399.74 408.99 406.45 412.79 412.69 415.85 419.33 418.56 426.1 420.55 433.08"/><polygon class="c" points="420.55 433.08 418.92 440.83 413.01 446.09 405.5 448.01 398.19 445.74 392.53 440.57 390.3 433.08 392.65 426.18 395.29 419.41 398.18 412.68 401.53 406.18 405.5 399.74 408.99 406.45 412.79 412.69 415.85 419.33 418.56 426.1 420.55 433.08"/><polygon class="b" points="380.47 397.19 378.03 404.71 372.39 409.99 365 411.96 357.5 410.18 351.69 404.87 349.54 397.19 351.68 390.11 354.59 383.42 357.66 376.77 360.93 370.23 365 363.65 368.79 370.38 371.76 377.08 375.82 383.22 377.98 390.24 380.47 397.19"/><polygon class="c" points="380.47 397.19 378.03 404.71 372.39 409.99 365 411.96 357.5 410.18 351.69 404.87 349.54 397.19 351.68 390.11 354.59 383.42 357.66 376.77 360.93 370.23 365 363.65 368.79 370.38 371.76 377.08 375.82 383.22 377.98 390.24 380.47 397.19"/><polygon class="b" points="380.41 540.76 377.83 548.17 372.44 553.65 365 555.38 357.32 554.06 352.06 548.23 349.94 540.76 351.38 533.58 354.81 527.1 357.63 520.33 361.72 514.25 365 507.98 368.35 514.21 372.51 520.26 375.01 527.17 378.01 533.8 380.41 540.76"/><polygon class="c" points="380.41 540.76 377.83 548.17 372.44 553.65 365 555.38 357.32 554.06 352.06 548.23 349.94 540.76 351.38 533.58 354.81 527.1 357.63 520.33 361.72 514.25 365 507.98 368.35 514.21 372.51 520.26 375.01 527.17 378.01 533.8 380.41 540.76"/><polygon class="b" points="460.92 468.98 459.32 476.67 453.44 481.85 446 483.99 438.35 482.22 432.9 476.54 430.83 468.98 432.34 461.77 435.62 455.22 438.47 448.46 442.78 442.49 446 436.25 449.4 442.39 453.5 448.48 456.54 455.14 458.92 462.05 460.92 468.98"/><polygon class="c" points="460.92 468.98 459.32 476.67 453.44 481.85 446 483.99 438.35 482.22 432.9 476.54 430.83 468.98 432.34 461.77 435.62 455.22 438.47 448.46 442.78 442.49 446 436.25 449.4 442.39 453.5 448.48 456.54 455.14 458.92 462.05 460.92 468.98"/><polygon class="b" points="420.88 504.87 418.31 512.26 413.2 518.21 405.5 520.18 397.9 518.03 392.2 512.55 390.77 504.87 392.41 497.88 394.96 491.04 398.47 484.62 401.65 478.03 405.5 472.23 408.87 478.31 412.55 484.61 415.55 491.26 418.51 497.91 420.88 504.87"/><polygon class="c" points="420.88 504.87 418.31 512.26 413.2 518.21 405.5 520.18 397.9 518.03 392.2 512.55 390.77 504.87 392.41 497.88 394.96 491.04 398.47 484.62 401.65 478.03 405.5 472.23 408.87 478.31 412.55 484.61 415.55 491.26 418.51 497.91 420.88 504.87"/><polygon class="b" points="379.64 468.98 377.88 476.41 372.3 481.62 365 483.88 357.56 481.87 352.3 476.3 350.31 468.98 351.36 461.78 354.8 455.3 357.94 448.71 361.47 442.32 365 436.1 368.81 442.16 372.12 448.68 374.98 455.4 378.49 461.84 379.64 468.98"/><polygon class="c" points="379.64 468.98 377.88 476.41 372.3 481.62 365 483.88 357.56 481.87 352.3 476.3 350.31 468.98 351.36 461.78 354.8 455.3 357.94 448.71 361.47 442.32 365 436.1 368.81 442.16 372.12 448.68 374.98 455.4 378.49 461.84 379.64 468.98"/><polygon class="b" points="379.87 397.19 377.65 404.49 372.63 410.4 365 411.97 357.4 410.36 351.97 404.71 350.34 397.19 352.17 390.3 354.57 383.4 357.72 376.81 361.42 370.5 365 364.23 368.25 370.69 372 376.95 375 383.6 378.36 390.1 379.87 397.19"/><polygon class="c" points="379.87 397.19 377.65 404.49 372.63 410.4 365 411.97 357.4 410.36 351.97 404.71 350.34 397.19 352.17 390.3 354.57 383.4 357.72 376.81 361.42 370.5 365 364.23 368.25 370.69 372 376.95 375 383.6 378.36 390.1 379.87 397.19"/><polygon class="b" points="298.69 397.19 297.02 404.7 291.3 409.84 284 412.35 276.71 409.81 270.59 404.93 269.31 397.19 271.09 390.26 273.79 383.51 277.23 377.07 280.34 370.46 284 363.83 287.61 370.49 290.97 376.96 294.74 383.26 296.94 390.25 298.69 397.19"/><polygon class="c" points="298.69 397.19 297.02 404.7 291.3 409.84 284 412.35 276.71 409.81 270.59 404.93 269.31 397.19 271.09 390.26 273.79 383.51 277.23 377.07 280.34 370.46 284 363.83 287.61 370.49 290.97 376.96 294.74 383.26 296.94 390.25 298.69 397.19"/><polygon class="b" points="380.21 325.4 378.22 333.03 372.59 338.54 365 340.6 357.63 338.17 351.96 332.92 350.04 325.4 351.27 318.17 354.21 311.45 357.58 304.94 361.61 298.82 365 291.98 368.69 298.66 371.96 305.19 375.49 311.58 378.69 318.19 380.21 325.4"/><polygon class="c" points="380.21 325.4 378.22 333.03 372.59 338.54 365 340.6 357.63 338.17 351.96 332.92 350.04 325.4 351.27 318.17 354.21 311.45 357.58 304.94 361.61 298.82 365 291.98 368.69 298.66 371.96 305.19 375.49 311.58 378.69 318.19 380.21 325.4"/><polygon class="b" points="339.28 361.29 337.32 368.69 331.8 373.93 324.5 376.06 317.14 374.05 311.66 368.7 309.97 361.29 311.61 354.38 313.8 347.38 317.44 341.02 320.49 334.36 324.5 327.75 328.36 334.45 331.74 340.93 335.19 347.38 337.34 354.4 339.28 361.29"/><polygon class="c" points="339.28 361.29 337.32 368.69 331.8 373.93 324.5 376.06 317.14 374.05 311.66 368.7 309.97 361.29 311.61 354.38 313.8 347.38 317.44 341.02 320.49 334.36 324.5 327.75 328.36 334.45 331.74 340.93 335.19 347.38 337.34 354.4 339.28 361.29"/><polygon class="b" points="298.97 325.4 297.28 333.07 291.3 338.04 284 340.53 276.74 337.98 270.81 333.01 269.43 325.4 270.51 318.26 273.39 311.53 276.92 305.12 280.16 298.57 284 292.52 287.7 298.64 291.34 304.99 294.67 311.5 297.41 318.29 298.97 325.4"/><polygon class="c" points="298.97 325.4 297.28 333.07 291.3 338.04 284 340.53 276.74 337.98 270.81 333.01 269.43 325.4 270.51 318.26 273.39 311.53 276.92 305.12 280.16 298.57 284 292.52 287.7 298.64 291.34 304.99 294.67 311.5 297.41 318.29 298.97 325.4"/><polygon class="b" points="379.62 468.98 377.58 476.24 372.38 481.75 365 484.47 357.66 481.69 351.72 476.64 349.94 468.98 351.29 461.76 354.56 455.19 357.75 448.61 361.7 442.45 365 435.86 368.78 442.18 372.43 448.52 375.76 455.03 378.33 461.9 379.62 468.98"/><polygon class="c" points="379.62 468.98 377.58 476.24 372.38 481.75 365 484.47 357.66 481.69 351.72 476.64 349.94 468.98 351.29 461.76 354.56 455.19 357.75 448.61 361.7 442.45 365 435.86 368.78 442.18 372.43 448.52 375.76 455.03 378.33 461.9 379.62 468.98"/><polygon class="b" points="299.49 468.98 296.94 476.45 291.62 482.18 284 484.35 276.38 482.18 270.78 476.61 268.94 468.98 270.38 461.79 273.54 455.18 276.92 448.69 280.21 442.17 284 436.1 287.88 442.12 290.75 448.87 294.84 455 296.99 462.02 299.49 468.98"/><polygon class="c" points="299.49 468.98 296.94 476.45 291.62 482.18 284 484.35 276.38 482.18 270.78 476.61 268.94 468.98 270.38 461.79 273.54 455.18 276.92 448.69 280.21 442.17 284 436.1 287.88 442.12 290.75 448.87 294.84 455 296.99 462.02 299.49 468.98"/><polygon class="b" points="379.61 397.19 378.25 404.84 372.5 410.18 365 411.72 357.43 410.29 352.06 404.65 349.82 397.19 352.05 390.25 354.7 383.47 358.14 377.03 361.39 370.49 365 364.55 368.36 370.63 371.82 377.05 375.33 383.45 378.28 390.13 379.61 397.19"/><polygon class="c" points="379.61 397.19 378.25 404.84 372.5 410.18 365 411.72 357.43 410.29 352.06 404.65 349.82 397.19 352.05 390.25 354.7 383.47 358.14 377.03 361.39 370.49 365 364.55 368.36 370.63 371.82 377.05 375.33 383.45 378.28 390.13 379.61 397.19"/><polygon class="b" points="339.05 433.08 337.72 440.71 331.77 445.67 324.5 447.94 317.24 445.66 311.33 440.68 309.26 433.08 311.03 425.95 314.01 419.27 317.26 412.72 321.27 406.59 324.5 400.12 328.17 406.35 331.92 412.63 335.29 419.12 337.96 425.95 339.05 433.08"/><polygon class="c" points="339.05 433.08 337.72 440.71 331.77 445.67 324.5 447.94 317.24 445.66 311.33 440.68 309.26 433.08 311.03 425.95 314.01 419.27 317.26 412.72 321.27 406.59 324.5 400.12 328.17 406.35 331.92 412.63 335.29 419.12 337.96 425.95 339.05 433.08"/><polygon class="b" points="299 397.19 297.28 404.85 291.36 409.94 284 412.43 276.37 410.41 271.29 404.52 268.87 397.19 270.65 390.1 273.64 383.44 276.73 376.81 280.49 370.54 284 363.99 287.84 370.36 291.49 376.69 294.3 383.46 297.71 389.97 299 397.19"/><polygon class="c" points="299 397.19 297.28 404.85 291.36 409.94 284 412.43 276.37 410.41 271.29 404.52 268.87 397.19 270.65 390.1 273.64 383.44 276.73 376.81 280.49 370.54 284 363.99 287.84 370.36 291.49 376.69 294.3 383.46 297.71 389.97 299 397.19"/><polygon class="b" points="380.38 540.76 378.05 548.29 372.33 553.46 365 555.59 357.71 553.38 352.31 548.09 349.84 540.76 351.77 533.73 354.85 527.12 358.1 520.58 361.57 514.16 365 508.05 368.77 513.97 372.17 520.44 375.52 526.93 378.59 533.59 380.38 540.76"/><polygon class="c" points="380.38 540.76 378.05 548.29 372.33 553.46 365 555.59 357.71 553.38 352.31 548.09 349.84 540.76 351.77 533.73 354.85 527.12 358.1 520.58 361.57 514.16 365 508.05 368.77 513.97 372.17 520.44 375.52 526.93 378.59 533.59 380.38 540.76"/><polygon class="b" points="299.38 540.76 296.98 548.25 291.67 554.05 284 555.84 276.47 553.8 270.61 548.5 268.97 540.76 270.32 533.56 273.27 526.84 276.6 520.32 279.98 513.83 284 507.63 287.46 514.15 291.22 520.41 294.74 526.83 296.93 533.83 299.38 540.76"/><polygon class="c" points="299.38 540.76 296.98 548.25 291.67 554.05 284 555.84 276.47 553.8 270.61 548.5 268.97 540.76 270.32 533.56 273.27 526.84 276.6 520.32 279.98 513.83 284 507.63 287.46 514.15 291.22 520.41 294.74 526.83 296.93 533.83 299.38 540.76"/><polygon class="b" points="380.07 468.98 378.22 476.61 372.42 481.82 365 483.55 357.34 482.24 352.13 476.4 350.23 468.98 351.39 461.79 354.73 455.27 358 448.74 361.65 442.42 365 436.11 368.61 442.28 372.5 448.48 375.08 455.36 378.68 461.76 380.07 468.98"/><polygon class="c" points="380.07 468.98 378.22 476.61 372.42 481.82 365 483.55 357.34 482.24 352.13 476.4 350.23 468.98 351.39 461.79 354.73 455.27 358 448.74 361.65 442.42 365 436.11 368.61 442.28 372.5 448.48 375.08 455.36 378.68 461.76 380.07 468.98"/><polygon class="b" points="339.13 504.87 337.81 512.56 331.86 517.62 324.5 519.64 317.22 517.47 311.34 512.47 309.18 504.87 310.81 497.66 314.29 491.19 317.65 484.71 320.63 478.02 324.5 471.54 328.04 478.21 331.27 484.75 334.98 491.06 337.47 497.92 339.13 504.87"/><polygon class="c" points="339.13 504.87 337.81 512.56 331.86 517.62 324.5 519.64 317.22 517.47 311.34 512.47 309.18 504.87 310.81 497.66 314.29 491.19 317.65 484.71 320.63 478.02 324.5 471.54 328.04 478.21 331.27 484.75 334.98 491.06 337.47 497.92 339.13 504.87"/><polygon class="b" points="299.38 468.98 296.94 476.44 291.65 482.22 284 484.26 276.31 482.29 271.31 476.3 269.15 468.98 270.31 461.76 273.66 455.24 276.81 448.64 280.06 442.09 284 435.58 287.85 442.14 291.02 448.73 294.08 455.35 296.97 462.03 299.38 468.98"/><polygon class="c" points="299.38 468.98 296.94 476.44 291.65 482.22 284 484.26 276.31 482.29 271.31 476.3 269.15 468.98 270.31 461.76 273.66 455.24 276.81 448.64 280.06 442.09 284 435.58 287.85 442.14 291.02 448.73 294.08 455.35 296.97 462.03 299.38 468.98"/><polygon class="b" points="298.64 397.19 296.84 404.6 291.52 410.21 284 412.31 276.57 410.06 270.91 404.75 268.7 397.19 271.04 390.25 273.26 383.26 276.53 376.7 280.49 370.54 284 363.78 287.51 370.54 291.18 376.86 294.07 383.57 297.45 390.06 298.64 397.19"/><polygon class="c" points="298.64 397.19 296.84 404.6 291.52 410.21 284 412.31 276.57 410.06 270.91 404.75 268.7 397.19 271.04 390.25 273.26 383.26 276.53 376.7 280.49 370.54 284 363.78 287.51 370.54 291.18 376.86 294.07 383.57 297.45 390.06 298.64 397.19"/><polygon class="b" points="218.44 397.19 216.05 404.72 210.54 410.25 203 412.55 195.66 409.89 190.32 404.51 187.94 397.19 189.5 390.05 192.28 383.27 195.86 376.88 199.14 370.34 203 364.45 206.23 370.7 210.26 376.81 213.67 383.29 216.06 390.21 218.44 397.19"/><polygon class="c" points="218.44 397.19 216.05 404.72 210.54 410.25 203 412.55 195.66 409.89 190.32 404.51 187.94 397.19 189.5 390.05 192.28 383.27 195.86 376.88 199.14 370.34 203 364.45 206.23 370.7 210.26 376.81 213.67 383.29 216.06 390.21 218.44 397.19"/><polygon class="b" points="298.82 325.4 296.98 332.89 291.29 338.03 284 339.93 276.62 338.18 271.28 332.74 269.16 325.4 270.77 318.36 274.01 311.82 276.87 305.09 280.65 298.84 284 292.67 287.93 298.52 291.15 305.08 294.46 311.6 297.57 318.23 298.82 325.4"/><polygon class="c" points="298.82 325.4 296.98 332.89 291.29 338.03 284 339.93 276.62 338.18 271.28 332.74 269.16 325.4 270.77 318.36 274.01 311.82 276.87 305.09 280.65 298.84 284 292.67 287.93 298.52 291.15 305.08 294.46 311.6 297.57 318.23 298.82 325.4"/><polygon class="b" points="258.49 361.29 256.71 368.92 251.02 374.31 243.5 376.31 235.75 374.71 230.62 368.73 228.49 361.29 230.46 354.32 233.19 347.57 236.57 341.09 239.47 334.36 243.5 328.6 247.2 334.54 250.69 340.96 254.17 347.39 256.41 354.37 258.49 361.29"/><polygon class="c" points="258.49 361.29 256.71 368.92 251.02 374.31 243.5 376.31 235.75 374.71 230.62 368.73 228.49 361.29 230.46 354.32 233.19 347.57 236.57 341.09 239.47 334.36 243.5 328.6 247.2 334.54 250.69 340.96 254.17 347.39 256.41 354.37 258.49 361.29"/><polygon class="b" points="218.38 325.4 215.61 332.68 210.54 338.47 203 340.54 195.27 338.79 189.77 333.04 187.64 325.4 189.53 318.27 192.5 311.58 195.79 305.05 199.21 298.6 203 292.71 206.94 298.52 210.53 304.88 213.24 311.7 216.15 318.38 218.38 325.4"/><polygon class="c" points="218.38 325.4 215.61 332.68 210.54 338.47 203 340.54 195.27 338.79 189.77 333.04 187.64 325.4 189.53 318.27 192.5 311.58 195.79 305.05 199.21 298.6 203 292.71 206.94 298.52 210.53 304.88 213.24 311.7 216.15 318.38 218.38 325.4"/><polygon class="b" points="298.92 468.98 296.81 476.37 291.57 482.09 284 483.9 276.72 481.58 271.37 476.26 269.3 468.98 270.78 461.94 273.54 455.18 276.65 448.56 280.48 442.32 284 436.24 288.05 442.03 290.92 448.78 294.43 455.19 297.53 461.82 298.92 468.98"/><polygon class="c" points="298.92 468.98 296.81 476.37 291.57 482.09 284 483.9 276.72 481.58 271.37 476.26 269.3 468.98 270.78 461.94 273.54 455.18 276.65 448.56 280.48 442.32 284 436.24 288.05 442.03 290.92 448.78 294.43 455.19 297.53 461.82 298.92 468.98"/><polygon class="b" points="217.62 468.98 216.18 476.59 210.48 481.93 203 483.55 195.32 482.27 189.66 476.67 188.28 468.98 189.75 461.93 192.39 455.11 195.66 448.56 198.96 442.03 203 436.31 206.31 442.44 209.96 448.76 213.11 455.34 215.91 462.05 217.62 468.98"/><polygon class="c" points="217.62 468.98 216.18 476.59 210.48 481.93 203 483.55 195.32 482.27 189.66 476.67 188.28 468.98 189.75 461.93 192.39 455.11 195.66 448.56 198.96 442.03 203 436.31 206.31 442.44 209.96 448.76 213.11 455.34 215.91 462.05 217.62 468.98"/><polygon class="b" points="298.95 397.19 297.26 404.84 291.66 410.46 284 412.3 276.71 409.81 271.41 404.46 268.91 397.19 271.07 390.26 273.9 383.56 276.72 376.8 280.06 370.3 284 363.99 287.55 370.52 291.55 376.66 294.39 383.42 296.9 390.27 298.95 397.19"/><polygon class="c" points="298.95 397.19 297.26 404.84 291.66 410.46 284 412.3 276.71 409.81 271.41 404.46 268.91 397.19 271.07 390.26 273.9 383.56 276.72 376.8 280.06 370.3 284 363.99 287.55 370.52 291.55 376.66 294.39 383.42 296.9 390.27 298.95 397.19"/><polygon class="b" points="258.91 433.08 256.79 440.75 250.97 446.02 243.5 448.45 236.01 446.05 230.61 440.52 228.86 433.08 230.19 426.01 232.77 419.16 236.66 412.93 240.15 406.53 243.5 399.82 247.47 406.18 250.32 412.94 254.31 419.12 256.73 426.04 258.91 433.08"/><polygon class="c" points="258.91 433.08 256.79 440.75 250.97 446.02 243.5 448.45 236.01 446.05 230.61 440.52 228.86 433.08 230.19 426.01 232.77 419.16 236.66 412.93 240.15 406.53 243.5 399.82 247.47 406.18 250.32 412.94 254.31 419.12 256.73 426.04 258.91 433.08"/><polygon class="b" points="217.95 397.19 216.16 404.79 210.64 410.42 203 411.77 195.74 409.76 189.95 404.72 188.01 397.19 189.68 390.12 192.78 383.5 196.08 376.99 199.47 370.53 203 363.72 207.03 370.25 209.94 376.98 213.35 383.44 216.72 389.96 217.95 397.19"/><polygon class="c" points="217.95 397.19 216.16 404.79 210.64 410.42 203 411.77 195.74 409.76 189.95 404.72 188.01 397.19 189.68 390.12 192.78 383.5 196.08 376.99 199.47 370.53 203 363.72 207.03 370.25 209.94 376.98 213.35 383.44 216.72 389.96 217.95 397.19"/><polygon class="b" points="298.71 540.76 296.76 548.13 291.48 553.71 284 556.15 276.37 553.98 271.19 548.16 268.64 540.76 270.57 533.65 273.88 527.13 277.16 520.61 280.49 514.12 284 508.21 287.25 514.26 291.58 520.23 294.17 527.1 297.52 533.61 298.71 540.76"/><polygon class="c" points="298.71 540.76 296.76 548.13 291.48 553.71 284 556.15 276.37 553.98 271.19 548.16 268.64 540.76 270.57 533.65 273.88 527.13 277.16 520.61 280.49 514.12 284 508.21 287.25 514.26 291.58 520.23 294.17 527.1 297.52 533.61 298.71 540.76"/><polygon class="b" points="218.38 540.76 216.2 548.39 210.43 553.63 203 555.59 195.29 554.12 190 548.27 188.37 540.76 189.45 533.61 192.82 527.1 196.23 520.65 199.37 514.05 203 508 206.5 514.13 210.3 520.37 213.41 526.99 216.72 533.54 218.38 540.76"/><polygon class="c" points="218.38 540.76 216.2 548.39 210.43 553.63 203 555.59 195.29 554.12 190 548.27 188.37 540.76 189.45 533.61 192.82 527.1 196.23 520.65 199.37 514.05 203 508 206.5 514.13 210.3 520.37 213.41 526.99 216.72 533.54 218.38 540.76"/><polygon class="b" points="298.77 468.98 296.89 476.42 291.67 482.26 284 483.78 276.71 481.6 270.71 476.65 269.01 468.98 270.59 461.87 273.63 455.22 276.51 448.48 279.97 442.04 284 435.58 287.28 442.46 290.76 448.87 294.83 455 297.48 461.84 298.77 468.98"/><polygon class="c" points="298.77 468.98 296.89 476.42 291.67 482.26 284 483.78 276.71 481.6 270.71 476.65 269.01 468.98 270.59 461.87 273.63 455.22 276.51 448.48 279.97 442.04 284 435.58 287.28 442.46 290.76 448.87 294.83 455 297.48 461.84 298.77 468.98"/><polygon class="b" points="258.22 504.87 256.87 512.59 251 517.85 243.5 519.66 235.94 517.96 230.77 512.22 228.08 504.87 230.5 497.92 232.8 490.96 236.33 484.55 239.64 478.02 243.5 472.03 247.44 477.98 250.61 484.57 253.83 491.13 256.38 497.96 258.22 504.87"/><polygon class="c" points="258.22 504.87 256.87 512.59 251 517.85 243.5 519.66 235.94 517.96 230.77 512.22 228.08 504.87 230.5 497.92 232.8 490.96 236.33 484.55 239.64 478.02 243.5 472.03 247.44 477.98 250.61 484.57 253.83 491.13 256.38 497.96 258.22 504.87"/><polygon class="b" points="217.86 468.98 216.42 476.73 210.48 481.94 203 483.61 195.6 481.79 190.33 476.29 187.82 468.98 189.26 461.75 192.4 455.11 196.29 448.89 199.29 442.22 203 436.28 206.28 442.46 209.85 448.81 213.82 455 216.27 461.92 217.86 468.98"/><polygon class="c" points="217.86 468.98 216.42 476.73 210.48 481.94 203 483.61 195.6 481.79 190.33 476.29 187.82 468.98 189.26 461.75 192.4 455.11 196.29 448.89 199.29 442.22 203 436.28 206.28 442.46 209.85 448.81 213.82 455 216.27 461.92 217.86 468.98"/><polygon class="b" points="218.27 397.19 215.84 404.6 210.49 410.16 203 412.38 195.27 410.58 189.65 404.89 187.78 397.19 189.3 389.97 192.62 383.43 196 376.95 199.69 370.65 203 364.24 206.87 370.34 210.21 376.84 213 383.61 215.93 390.26 218.27 397.19"/><polygon class="c" points="218.27 397.19 215.84 404.6 210.49 410.16 203 412.38 195.27 410.58 189.65 404.89 187.78 397.19 189.3 389.97 192.62 383.43 196 376.95 199.69 370.65 203 364.24 206.87 370.34 210.21 376.84 213 383.61 215.93 390.26 218.27 397.19"/><polygon class="b" points="137.37 397.19 135.12 404.76 129.36 409.94 122 412.61 114.28 410.57 109.24 404.55 107.27 397.19 108.45 390.03 111.67 383.45 114.78 376.83 118.38 370.48 122 363.81 125.46 370.57 129.54 376.67 132.11 383.55 135.53 390.03 137.37 397.19"/><polygon class="c" points="137.37 397.19 135.12 404.76 129.36 409.94 122 412.61 114.28 410.57 109.24 404.55 107.27 397.19 108.45 390.03 111.67 383.45 114.78 376.83 118.38 370.48 122 363.81 125.46 370.57 129.54 376.67 132.11 383.55 135.53 390.03 137.37 397.19"/><polygon class="b" points="217.66 325.4 215.95 332.87 210.61 338.58 203 340.83 195.27 338.79 190.08 332.86 188.47 325.4 189.6 318.3 192.29 311.49 195.67 304.99 199.67 298.86 203 292.46 206.38 298.83 210.46 304.92 213.8 311.44 215.96 318.46 217.66 325.4"/><polygon class="c" points="217.66 325.4 215.95 332.87 210.61 338.58 203 340.83 195.27 338.79 190.08 332.86 188.47 325.4 189.6 318.3 192.29 311.49 195.67 304.99 199.67 298.86 203 292.46 206.38 298.83 210.46 304.92 213.8 311.44 215.96 318.46 217.66 325.4"/><polygon class="b" points="177.5 361.29 175.72 368.93 169.99 374.27 162.5 376.65 155.16 374.02 149.78 368.63 147.57 361.29 149.48 354.33 151.74 347.36 155.49 341.05 158.43 334.33 162.5 328.57 165.78 334.78 169.69 340.96 172.92 347.51 176.09 354.12 177.5 361.29"/><polygon class="c" points="177.5 361.29 175.72 368.93 169.99 374.27 162.5 376.65 155.16 374.02 149.78 368.63 147.57 361.29 149.48 354.33 151.74 347.36 155.49 341.05 158.43 334.33 162.5 328.57 165.78 334.78 169.69 340.96 172.92 347.51 176.09 354.12 177.5 361.29"/><polygon class="b" points="218 468.98 215.67 476.29 210.65 482.22 203 483.81 195.28 482.34 189.95 476.51 187.96 468.98 190.05 462.04 192.4 455.11 195.84 448.66 199.66 442.42 203 436.3 206.68 442.24 210.53 448.46 213.12 455.34 216.47 461.84 218 468.98"/><polygon class="c" points="218 468.98 215.67 476.29 210.65 482.22 203 483.81 195.28 482.34 189.95 476.51 187.96 468.98 190.05 462.04 192.4 455.11 195.84 448.66 199.66 442.42 203 436.3 206.68 442.24 210.53 448.46 213.12 455.34 216.47 461.84 218 468.98"/><polygon class="b" points="136.53 468.98 135.31 476.66 129.62 482.18 122 484.33 114.25 482.39 109.28 476.32 106.86 468.98 108.41 461.8 111.73 455.27 114.96 448.72 118.46 442.31 122 436.39 125.44 442.37 128.86 448.81 131.99 455.4 134.87 462.07 136.53 468.98"/><polygon class="c" points="136.53 468.98 135.31 476.66 129.62 482.18 122 484.33 114.25 482.39 109.28 476.32 106.86 468.98 108.41 461.8 111.73 455.27 114.96 448.72 118.46 442.31 122 436.39 125.44 442.37 128.86 448.81 131.99 455.4 134.87 462.07 136.53 468.98"/><polygon class="b" points="218.25 397.19 216.37 404.9 210.5 410.19 203 412.66 195.72 409.8 190.29 404.52 187.98 397.19 189.54 390.06 192.65 383.44 196.05 376.98 198.99 370.26 203 363.87 207.1 370.21 210.41 376.74 213.24 383.49 216.25 390.14 218.25 397.19"/><polygon class="c" points="218.25 397.19 216.37 404.9 210.5 410.19 203 412.66 195.72 409.8 190.29 404.52 187.98 397.19 189.54 390.06 192.65 383.44 196.05 376.98 198.99 370.26 203 363.87 207.1 370.21 210.41 376.74 213.24 383.49 216.25 390.14 218.25 397.19"/><polygon class="b" points="177.71 433.08 175.86 440.8 169.83 445.78 162.5 448.5 155.23 445.67 149.66 440.49 147.33 433.08 149.57 426.15 151.78 419.16 155.14 412.65 158.8 406.33 162.5 400.12 166.33 406.26 169.28 412.96 173.2 419.17 175.9 425.98 177.71 433.08"/><polygon class="c" points="177.71 433.08 175.86 440.8 169.83 445.78 162.5 448.5 155.23 445.67 149.66 440.49 147.33 433.08 149.57 426.15 151.78 419.16 155.14 412.65 158.8 406.33 162.5 400.12 166.33 406.26 169.28 412.96 173.2 419.17 175.9 425.98 177.71 433.08"/><polygon class="b" points="137.47 397.19 134.61 404.47 129.37 409.96 122 412.59 114.34 410.45 109.06 404.66 107.17 397.19 109.01 390.24 112.01 383.62 115.06 376.98 118.25 370.41 122 363.72 125.98 370.28 129.28 376.8 132.14 383.54 135.49 390.05 137.47 397.19"/><polygon class="c" points="137.47 397.19 134.61 404.47 129.37 409.96 122 412.59 114.34 410.45 109.06 404.66 107.17 397.19 109.01 390.24 112.01 383.62 115.06 376.98 118.25 370.41 122 363.72 125.98 370.28 129.28 376.8 132.14 383.54 135.49 390.05 137.47 397.19"/><polygon class="b" points="217.64 540.76 215.92 548.22 210.48 553.72 203 555.45 195.41 553.92 189.88 548.34 187.53 540.76 190.17 533.87 192.9 527.14 195.53 520.28 199.51 514.13 203 507.62 206.48 514.14 210.08 520.49 213.54 526.92 216.63 533.57 217.64 540.76"/><polygon class="c" points="217.64 540.76 215.92 548.22 210.48 553.72 203 555.45 195.41 553.92 189.88 548.34 187.53 540.76 190.17 533.87 192.9 527.14 195.53 520.28 199.51 514.13 203 507.62 206.48 514.14 210.08 520.49 213.54 526.92 216.63 533.57 217.64 540.76"/><polygon class="b" points="217.83 468.98 215.71 476.31 210.47 481.91 203 483.56 195.68 481.66 190.21 476.36 187.76 468.98 189.81 461.95 192.4 455.12 195.96 448.72 198.99 442.05 203 435.49 207.08 442.01 209.86 448.81 213.74 455.04 216.31 461.9 217.83 468.98"/><polygon class="c" points="217.83 468.98 215.71 476.31 210.47 481.91 203 483.56 195.68 481.66 190.21 476.36 187.76 468.98 189.81 461.95 192.4 455.12 195.96 448.72 198.99 442.05 203 435.49 207.08 442.01 209.86 448.81 213.74 455.04 216.31 461.9 217.83 468.98"/><polygon class="b" points="177.68 504.87 175.87 512.59 169.96 517.78 162.5 519.87 155 517.86 149.47 512.39 147.63 504.87 148.85 497.67 152.21 491.15 154.92 484.33 158.99 478.22 162.5 471.43 166.4 478 169.54 484.61 172.58 491.25 175.95 497.74 177.68 504.87"/><polygon class="c" points="177.68 504.87 175.87 512.59 169.96 517.78 162.5 519.87 155 517.86 149.47 512.39 147.63 504.87 148.85 497.67 152.21 491.15 154.92 484.33 158.99 478.22 162.5 471.43 166.4 478 169.54 484.61 172.58 491.25 175.95 497.74 177.68 504.87"/><polygon class="b" points="136.81 468.98 135.36 476.69 129.51 481.98 122 484.42 114.55 481.88 108.87 476.56 107.22 468.98 108.28 461.75 111.95 455.38 114.67 448.57 118.56 442.37 122 436.14 125.69 442.23 128.86 448.81 132.07 455.36 134.97 462.03 136.81 468.98"/><polygon class="c" points="136.81 468.98 135.36 476.69 129.51 481.98 122 484.42 114.55 481.88 108.87 476.56 107.22 468.98 108.28 461.75 111.95 455.38 114.67 448.57 118.56 442.37 122 436.14 125.69 442.23 128.86 448.81 132.07 455.36 134.97 462.03 136.81 468.98"/></g><path d="M440.93,507.11l-7.22.58-7.27-.54-7.27.35-7.27.11-7.27.05-7.27-.62-7.27.63-7.27-.62h-7.27l-7.27-.14-7.27.22-7.27.55-7.27-.83-7.27.11L332,506.9l-7.26.54-7.26-.25-7.27.38-7.26-.07-7.27-.18-7.27-.54-7.26,0-7.27.81-7.27-.19-7.27-.11-7.27-.42-7.27,0-7.27.53-7.27-.65-7.27.58-7.27-.6-7.27.24-7.27-.24-7.27.34-7.27.47-7.27.07-7.27-.14-7.27.13-7.27-.15-7.27-.56-7.27.06h-7.28l-7.26.21-6.59-6.43.52-7.25-.91-7.21.13-7.21.1-7.21.65-7.21,0-7.21.08-7.21L121.8,443l.63-7.21-.29-7.22v-7.22l-.64-7.22.86-7.22.07-7.22-.29-7.22-.27-7.21-.28-7.22.29-7.22-.15-7.22.5-7.22-.43-7.21L121.7,342l.64-7.23-.46-7.26,6.66-6.28,7.18,0,7.27,0,7.27.15,7.27-.74,7.27.19,7.27.55,7.27-.85,7.27.16,7.27-.21,7.27.71,7.27.18,7.27-.67,7.27.21,7.27.45,7.26-.23,7.26.3,7.26-.08,7.27-.51,7.26,0,7.27.08,7.27-.41,7.26.7,7.27-.14,7.27-.07,7.27.24,7.27-.13,7.27.09,7.27.11,7.27-.24,7.27-.36,7.27.25,7.27.29,7.27-.27,7.27.05,7.27-.27,7.27.31,7.27-.2,7.27.62,7.27-.38,7.27-.21,7.27-.32,7.28.22,7.22.31,6.15,6.58.08,7,.35,7.21-.49,7.21.22,7.21.66,7.21-.43,7.21.13,7.21-.47,7.22-.09,7.21.6,7.22.22,7.22-.67,7.22,0,7.22.13,7.22.3,7.22L447.4,443l.09,7.22.19,7.22.2,7.22-.7,7.22.2,7.21.23,7.22.27,7.23-.13,7.35ZM134.87,494.28l7.21-.56,7.13.54,7.13-.35,7.13-.11,7.13-.05,7.13.62,7.13-.63,7.13.62h7.13l7.13.14,7.13-.22,7.13-.55,7.13.83,7.13-.11,7.13.06L249,494l7.13.25,7.13-.38,7.13.07,7.13.18,7.13.54,7.13,0,7.13-.81,7.13.19,7.13.11,7.13.42,7.13,0,7.13-.53,7.13.65,7.13-.58,7.13.6,7.13-.24,7.14.24,7.13-.34,7.13-.47,7.13-.07,7.13.14,7.14-.13,7.13.15,7.14.56,7.14-.06,7.32-.09-.14-7.45-.12-7.28.53-7.28-.91-7.28.13-7.28.1-7.28.65-7.28,0-7.28.08-7.28-.63-7.28.63-7.28-.29-7.28v-7.28l-.64-7.28.86-7.28.07-7.28-.29-7.28-.27-7.28-.28-7.29.29-7.28-.15-7.29.41-7.5-7.34.35-7.13.11-7.13-.64-7.13.47-7.13-.28H391.7l-7.13,0-7.13-.15-7.13.74-7.13-.19L356,333.6l-7.13.85-7.13-.16-7.13.21-7.13-.71-7.13-.18-7.13.67-7.13-.21L299,333.6l-7.13.23-7.13-.3-7.13.08-7.13.51-7.13,0-7.13-.08-7.13.41-7.13-.7-7.13.14-7.13.07-7.13-.24-7.13.13-7.13-.09-7.14-.11-7.13.24-7.13.36-7.13-.25-7.13-.29-7.14.27-7.13-.05-7.14.27-7.14-.31-7,.16-.59,7.18.38,7.28.21,7.28.32,7.28-.22,7.28-.32,7.28L134.5,385l.12,7.28.35,7.28-.49,7.28.22,7.28.66,7.28-.43,7.28.13,7.28-.47,7.28-.09,7.28.6,7.28.22,7.28-.67,7.29,0,7.28.13,7.29Z"/><polyline class="b" points="440.81 327.51 441.08 334.72 441.25 341.94 440.73 349.15 440.57 356.37 440.5 363.58 440.62 370.79 440.78 378.01 440.97 385.22 440.66 392.44 440.67 399.65 440.81 406.87 440.9 414.08 441.07 421.3 440.68 428.52 440.64 435.74 440.83 442.95 440.8 450.17 441.13 457.38 440.83 464.6 441.1 471.82 440.75 479.03 441.22 486.25 440.94 493.48 441.1 500.37 446.24 495.45 451.56 490.25 456.37 484.53 461.48 479.13 466.88 474 472.51 469.1 477.36 463.43 482.93 458.45 487.94 452.86 487.75 445.47 487.74 438.13 487.87 430.8 487.84 423.46 487.82 416.12 488.22 408.79 487.97 401.45 488.3 394.11 487.42 386.77 488.1 379.43 487.81 372.1 487.38 364.76 488.03 357.42 487.63 350.08 488.25 342.74 487.99 335.4 487.76 328.06 487.48 320.72 488.13 313.38 487.69 306.04 487.88 298.7 488.3 291.35 487.62 284.39 482.32 288.52 477.34 293.6 472.28 298.58 467.32 303.68 461.48 307.82 456.75 313.15 451.57 318.02 446.36 322.86 440.8 327.31"/><polyline class="c" points="440.81 327.51 441.08 334.72 441.25 341.94 440.73 349.15 440.57 356.37 440.5 363.58 440.62 370.79 440.78 378.01 440.97 385.22 440.66 392.44 440.67 399.65 440.81 406.87 440.9 414.08 441.07 421.3 440.68 428.52 440.64 435.74 440.83 442.95 440.8 450.17 441.13 457.38 440.83 464.6 441.1 471.82 440.75 479.03 441.22 486.25 440.94 493.48 441.1 500.37 446.24 495.45 451.56 490.25 456.37 484.53 461.48 479.13 466.88 474 472.51 469.1 477.36 463.43 482.93 458.45 487.94 452.86 487.75 445.47 487.74 438.13 487.87 430.8 487.84 423.46 487.82 416.12 488.22 408.79 487.97 401.45 488.3 394.11 487.42 386.77 488.1 379.43 487.81 372.1 487.38 364.76 488.03 357.42 487.63 350.08 488.25 342.74 487.99 335.4 487.76 328.06 487.48 320.72 488.13 313.38 487.69 306.04 487.88 298.7 488.3 291.35 487.62 284.39 482.32 288.52 477.34 293.6 472.28 298.58 467.32 303.68 461.48 307.82 456.75 313.15 451.57 318.02 446.36 322.86 440.8 327.31"/><g class="e"><polyline class="b" points="505 277.59 497.77 277.12 490.55 277.35 483.33 277.96 476.1 277.24 468.88 277.22 461.65 277.15 454.42 277.88 447.2 277.29 439.97 277.76 432.75 277.8 425.52 277.1 418.29 277.2 411.07 277.55 403.84 277.12 396.61 277.19 389.39 277.18 382.16 277.04 374.93 277.77 367.7 277.62 360.48 277.95 353.25 277.11 346.02 277.88 338.8 277.49 331.57 277.63 324.34 277.33 317.12 277.59 309.89 277.58 302.66 277.7 295.43 277.32 288.2 277.4 280.98 277.53 273.75 277.45 266.52 277.59 259.29 277.28 252.07 277.9 244.85 277.72 237.62 277.63 230.39 277.35 223.17 277.98 215.94 277.53 208.71 277.53 201.48 277.19 194.26 277 187.03 277.27 179.8 277.84 172.57 277.54 165.34 277.66 158.11 277.11 150.88 277.08 143.65 277.34 136.42 277.61 129.19 277.24 121.96 277.55 114.73 277.08 107.5 277.86 100.27 277.68 93.04 277.83 85.8 277.28 78.57 277.66 71.33 277.29 64.1 277.7 56.71 277.1 61.95 282.61 66.7 288.04 71.97 292.96 77.2 297.92 82.28 303.04 88.04 307.41 93.35 312.31 98.86 316.98 104.91 320.94 111.04 324.75 117.07 328.71 123.2 332.51 129.28 336.42 135.71 339.75 142.41 342.48 149.32 344.61 156.13 346.98 163.01 349.17 170.18 350.12 177.27 351.66 184.51 351.66 191.74 351.35 198.98 351.83 206.2 351.81 213.43 351.25 220.67 352 227.9 351.35 235.13 351.36 242.37 351.67 249.6 351.84 256.83 351.36 264.07 351.68 271.3 351.96 278.53 351.05 285.76 351.55 292.99 351.43 300.22 351.92 307.45 351.8 314.69 351.72 321.92 351.68 329.15 351.97 336.38 351.11 343.62 351.59 350.85 351.75 358.09 351.16 365.33 351.38 372.57 351.92 379.81 351.1 387.04 351.37 394.28 351.41 401.52 351.46 408.75 351.35 415.99 351.04 423.23 351.96 430.47 351.13 437.7 351.54 444.94 351.47 452.18 351.28 459.42 351.95 466.65 351.77 473.89 351.21 481.12 351.99 488.36 351.14 495.6 351.17 502.83 351.35 510.07 351.61 517.31 351.98 524.54 351.54 531.77 351.33 539 351.1"/><polyline class="c" points="505 277.59 497.77 277.12 490.55 277.35 483.33 277.96 476.1 277.24 468.88 277.22 461.65 277.15 454.42 277.88 447.2 277.29 439.97 277.76 432.75 277.8 425.52 277.1 418.29 277.2 411.07 277.55 403.84 277.12 396.61 277.19 389.39 277.18 382.16 277.04 374.93 277.77 367.7 277.62 360.48 277.95 353.25 277.11 346.02 277.88 338.8 277.49 331.57 277.63 324.34 277.33 317.12 277.59 309.89 277.58 302.66 277.7 295.43 277.32 288.2 277.4 280.98 277.53 273.75 277.45 266.52 277.59 259.29 277.28 252.07 277.9 244.85 277.72 237.62 277.63 230.39 277.35 223.17 277.98 215.94 277.53 208.71 277.53 201.48 277.19 194.26 277 187.03 277.27 179.8 277.84 172.57 277.54 165.34 277.66 158.11 277.11 150.88 277.08 143.65 277.34 136.42 277.61 129.19 277.24 121.96 277.55 114.73 277.08 107.5 277.86 100.27 277.68 93.04 277.83 85.8 277.28 78.57 277.66 71.33 277.29 64.1 277.7 56.71 277.1 61.95 282.61 66.7 288.04 71.97 292.96 77.2 297.92 82.28 303.04 88.04 307.41 93.35 312.31 98.86 316.98 104.91 320.94 111.04 324.75 117.07 328.71 123.2 332.51 129.28 336.42 135.71 339.75 142.41 342.48 149.32 344.61 156.13 346.98 163.01 349.17 170.18 350.12 177.27 351.66 184.51 351.66 191.74 351.35 198.98 351.83 206.2 351.81 213.43 351.25 220.67 352 227.9 351.35 235.13 351.36 242.37 351.67 249.6 351.84 256.83 351.36 264.07 351.68 271.3 351.96 278.53 351.05 285.76 351.55 292.99 351.43 300.22 351.92 307.45 351.8 314.69 351.72 321.92 351.68 329.15 351.97 336.38 351.11 343.62 351.59 350.85 351.75 358.09 351.16 365.33 351.38 372.57 351.92 379.81 351.1 387.04 351.37 394.28 351.41 401.52 351.46 408.75 351.35 415.99 351.04 423.23 351.96 430.47 351.13 437.7 351.54 444.94 351.47 452.18 351.28 459.42 351.95 466.65 351.77 473.89 351.21 481.12 351.99 488.36 351.14 495.6 351.17 502.83 351.35 510.07 351.61 517.31 351.98 524.54 351.54 531.77 351.33 539 351.1"/><polygon class="b" points="557.46 368.86 550.65 368.26 544.19 369.13 537.72 369 531.01 369.01 528.22 362.32 525.51 355.83 522.66 349.41 519.71 343.03 516.63 336.7 513.04 330.62 510.37 324.11 507.79 317.55 504.38 311.39 501.43 305.01 498.92 298.42 495.77 292.14 492.3 285.99 489.75 279.42 486.92 272.99 483.69 266.73 480.71 260.35 477.46 253.78 484.23 253.93 490.7 254.03 497.17 253.63 503.68 253.89 506.84 260.22 509.14 266.9 512.36 273.15 515.27 279.56 518.68 285.72 521.78 292.04 524.65 298.45 527.39 304.93 530.15 311.4 533.01 317.82 535.99 324.19 539.43 330.34 542.21 336.81 545.33 343.11 548.24 349.51 551.45 355.78 554.23 362.24 557.46 368.86"/><polygon class="c" points="557.46 368.86 550.65 368.26 544.19 369.13 537.72 369 531.01 369.01 528.22 362.32 525.51 355.83 522.66 349.41 519.71 343.03 516.63 336.7 513.04 330.62 510.37 324.11 507.79 317.55 504.38 311.39 501.43 305.01 498.92 298.42 495.77 292.14 492.3 285.99 489.75 279.42 486.92 272.99 483.69 266.73 480.71 260.35 477.46 253.78 484.23 253.93 490.7 254.03 497.17 253.63 503.68 253.89 506.84 260.22 509.14 266.9 512.36 273.15 515.27 279.56 518.68 285.72 521.78 292.04 524.65 298.45 527.39 304.93 530.15 311.4 533.01 317.82 535.99 324.19 539.43 330.34 542.21 336.81 545.33 343.11 548.24 349.51 551.45 355.78 554.23 362.24 557.46 368.86"/><polygon class="b" points="537.74 368.39 528.39 368.37 525.69 362.1 521.97 356.08 519.77 349.35 516.6 343.07 512.98 337 510.33 330.49 507.44 324.08 504.1 317.87 501.94 311.13 498.89 304.8 495.29 298.72 492.98 292.04 489.85 285.74 486.21 279.67 483.65 273.11 481.11 266.53 477.51 260.44 474.56 253.74 484.53 253.96 487.51 260.32 490.8 266.54 493.07 273.24 496.15 279.56 499.17 285.91 502.04 292.33 505.12 298.65 508.22 304.96 511.63 311.12 514.26 317.65 517.55 323.87 519.82 330.57 523.49 336.62 526.13 343.15 529.37 349.4 531.82 356.02 535.28 362.17 537.74 368.39"/><polygon class="c" points="537.74 368.39 528.39 368.37 525.69 362.1 521.97 356.08 519.77 349.35 516.6 343.07 512.98 337 510.33 330.49 507.44 324.08 504.1 317.87 501.94 311.13 498.89 304.8 495.29 298.72 492.98 292.04 489.85 285.74 486.21 279.67 483.65 273.11 481.11 266.53 477.51 260.44 474.56 253.74 484.53 253.96 487.51 260.32 490.8 266.54 493.07 273.24 496.15 279.56 499.17 285.91 502.04 292.33 505.12 298.65 508.22 304.96 511.63 311.12 514.26 317.65 517.55 323.87 519.82 330.57 523.49 336.62 526.13 343.15 529.37 349.4 531.82 356.02 535.28 362.17 537.74 368.39"/><polyline points="549 352.03 556.13 352.83 563.25 352.61 570.38 352.19 577.5 352.22 584.63 352.5 591.76 352.07 598.88 352.65 606.01 352.22 613.14 352.99 620.27 352.51 627.4 352.54 634.52 352.82 641.65 352.69 648.78 352.71 655.91 352.99 663.04 352.5 670.18 352.94 677.31 352.92 684.43 352.47 691.57 352.46 698.7 352.82 705.83 352.71 712.96 352.3 720.09 352.8 727.22 352.79 734.36 352.21 741.61 352.61 741.61 345 741.41 337.51 741.39 330.01 741.84 322.51 741.43 315.01 741.34 307.51 741.28 300.01 741 292.51 741.97 285 741.72 277.28 734.27 277.99 727.05 277.99 719.83 277.81 712.6 277.15 705.38 277.54 698.15 277.26 690.93 277.08 683.71 277.62 676.48 277.62 669.26 277.58 662.03 277.99 654.8 277.42 647.58 277.15 640.35 277.64 633.12 277.78 625.9 277.5 618.67 277.15 611.44 277.3 604.21 277.15 596.98 277.67 589.75 277.07 582.52 277.6 575.3 277.81 568.07 277.52 560.84 277.37 553.61 277.72 546.38 277.95 539.14 277.31 531.91 277.34 524.68 277.85 517.57 277.78 524.64 277.36 531.83 277.61 539.02 277.06 546.21 277.12 553.4 277.42 560.59 277.98 567.79 277.34 574.98 277.68 582.17 277.64 589.36 277.43 596.56 277.85 603.75 277.62 610.95 277.28 618.14 277.29 625.33 278.17 632.53 278.03 639.73 277.45 646.92 277.73 654.12 277.57 661.32 277.65 668.51 278.1 675.71 277.87 682.9 277.99 690.1 277.39 697.3 278 704.49 278 711.69 277.61 718.89 277.71 726.09 277.69 733.29 278.4 740.28 278.28 740.12 286.8 740.27 295.31 733.25 295.29 726.01 295.99 718.76 295.42 711.52 295.04 704.27 295.81 697.02 295.5 689.78 295.51 682.53 295.23 675.28 295.01 668.03 295.68 660.78 295.35 653.54 295.2 646.29 295.93 639.04 295.23 631.79 295.63 624.54 295.62 617.29 295.44 610.04 295.45 602.78 295.97 595.53 295.84 588.28 295.7 581.03 295.26 573.78 295.91 566.53 295.15 559.28 295.46 552.03 295.69 544.77 295.26 537.52 295.44 530.26 295.99 523 295.75"/><polyline class="c" points="549 352.03 556.13 352.83 563.25 352.61 570.38 352.19 577.5 352.22 584.63 352.5 591.76 352.07 598.88 352.65 606.01 352.22 613.14 352.99 620.27 352.51 627.4 352.54 634.52 352.82 641.65 352.69 648.78 352.71 655.91 352.99 663.04 352.5 670.18 352.94 677.31 352.92 684.43 352.47 691.57 352.46 698.7 352.82 705.83 352.71 712.96 352.3 720.09 352.8 727.22 352.79 734.36 352.21 741.61 352.61 741.61 345 741.41 337.51 741.39 330.01 741.84 322.51 741.43 315.01 741.34 307.51 741.28 300.01 741 292.51 741.97 285 741.72 277.28 734.27 277.99 727.05 277.99 719.83 277.81 712.6 277.15 705.38 277.54 698.15 277.26 690.93 277.08 683.71 277.62 676.48 277.62 669.26 277.58 662.03 277.99 654.8 277.42 647.58 277.15 640.35 277.64 633.12 277.78 625.9 277.5 618.67 277.15 611.44 277.3 604.21 277.15 596.98 277.67 589.75 277.07 582.52 277.6 575.3 277.81 568.07 277.52 560.84 277.37 553.61 277.72 546.38 277.95 539.14 277.31 531.91 277.34 524.68 277.85 517.57 277.78 524.64 277.36 531.83 277.61 539.02 277.06 546.21 277.12 553.4 277.42 560.59 277.98 567.79 277.34 574.98 277.68 582.17 277.64 589.36 277.43 596.56 277.85 603.75 277.62 610.95 277.28 618.14 277.29 625.33 278.17 632.53 278.03 639.73 277.45 646.92 277.73 654.12 277.57 661.32 277.65 668.51 278.1 675.71 277.87 682.9 277.99 690.1 277.64 697.3 278.5 704.49 278.5 711.69 277.86 718.89 277.83 726.09 277.75 733.29 278.44 740.28 278.29 740.12 286.81 740.27 295.31 733.25 295.3 726.01 295.99 718.76 295.42 711.52 295.04 704.27 295.81 697.02 295.5 689.78 295.51 682.53 295.23 675.28 295.01 668.03 295.68 660.78 295.35 653.54 295.2 646.29 295.93 639.04 295.23 631.79 295.63 624.54 295.62 617.29 295.44 610.04 295.45 602.78 295.97 595.53 295.84 588.28 295.7 581.03 295.26 573.78 295.91 566.53 295.15 559.28 295.46 552.03 295.69 544.77 295.26 537.52 295.44 530.26 295.99 523 295.75"/></g><polygon points="471.75 356.72 466.11 356.95 460.32 356.62 460.38 349.72 461.25 342.99 461.01 336.24 461.47 329.51 461.03 322.75 461.42 315.85 454.11 316.47 446.95 316.5 439.79 316.27 432.63 316.2 425.47 315.59 418.31 316.47 411.15 316.31 403.99 315.75 396.83 315.71 389.67 316.15 382.51 315.83 375.35 316.17 368.19 315.54 361.03 316.33 353.87 316.15 346.71 316.06 339.55 316.01 332.39 316.15 325.24 316.39 318.08 316.15 310.92 316 303.76 315.73 296.6 316.27 289.44 316.16 282.28 316.07 275.12 316.29 267.96 315.96 260.8 316.36 253.63 316.28 246.47 315.72 239.31 316.49 232.15 316.2 224.98 316.3 217.82 315.73 210.66 316.05 203.49 316.39 196.33 315.94 189.17 316.43 182 315.6 174.84 316.45 167.68 316.3 160.51 315.65 153.34 316.25 146.17 316.29 139.27 315.69 139.25 309.9 146.02 305.28 153.06 305.08 160.19 305 167.33 305.02 174.46 304.64 181.59 305.34 188.72 304.6 195.86 305.04 202.99 304.79 210.12 304.91 217.26 304.51 224.39 304.74 231.53 304.77 238.66 304.99 245.79 304.87 252.93 304.91 260.06 304.56 267.19 305.24 274.32 304.65 281.45 305.29 288.58 304.83 295.71 304.89 302.85 305.13 309.98 305.45 317.11 305.13 324.25 305 331.38 305.32 338.51 304.72 345.65 305.02 352.78 305.45 359.92 304.64 367.05 305.43 374.19 304.98 381.33 304.71 388.46 305.21 395.6 305.04 402.74 305.33 409.87 304.6 417.01 305.05 424.14 304.57 431.28 305.12 438.42 305.31 445.55 304.6 452.69 304.87 459.84 305.28 466.99 304.98 472.75 310.57 472.37 318.31 472.4 325.98 472.38 333.66 471.62 341.33 471.96 349.02 471.75 356.72"/><polygon class="b" points="379.75 541.13 377.59 548.56 372.45 554.53 364.71 556.04 357.25 554.05 351.36 548.84 349.66 541.13 351.17 533.97 353.89 527.16 357.56 520.81 361.07 514.41 364.71 508.43 368.45 514.36 371.51 521 375.14 527.35 378.07 534.04 379.75 541.13"/><polygon class="c" points="379.75 541.13 377.59 548.56 372.45 554.53 364.71 556.04 357.25 554.05 351.36 548.84 349.66 541.13 351.17 533.97 353.89 527.16 357.56 520.81 361.07 514.41 364.71 508.43 368.45 514.36 371.51 521 375.14 527.35 378.07 534.04 379.75 541.13"/><polygon class="b" points="379.87 541.13 377.9 548.75 372.3 554.27 364.71 556.01 357.25 554.05 351.95 548.5 349.93 541.13 351.52 534.1 354.06 527.24 357.66 520.87 361.28 514.53 364.71 507.99 367.99 514.62 372.1 520.69 374.88 527.47 378.11 534.03 379.87 541.13"/><polygon class="c" points="379.87 541.13 377.9 548.75 372.3 554.27 364.71 556.01 357.25 554.05 351.95 548.5 349.93 541.13 351.52 534.1 354.06 527.24 357.66 520.87 361.28 514.53 364.71 507.99 367.99 514.62 372.1 520.69 374.88 527.47 378.11 534.03 379.87 541.13"/><polygon class="b" points="379.75 541.13 378.12 548.87 372.06 553.85 364.71 556.17 357.35 553.88 352.02 548.46 349.61 541.13 351.2 533.98 354.41 527.41 357.41 520.74 361.4 514.59 364.71 507.8 368.48 514.34 371.58 520.97 374.88 527.47 377.7 534.18 379.75 541.13"/><polygon class="c" points="379.75 541.13 378.12 548.87 372.06 553.85 364.71 556.17 357.35 553.88 352.02 548.46 349.61 541.13 351.2 533.98 354.41 527.41 357.41 520.74 361.4 514.59 364.71 507.8 368.48 514.34 371.58 520.97 374.88 527.47 377.7 534.18 379.75 541.13"/><polygon class="b" points="298.51 541.13 296.7 548.63 291.37 554.4 283.71 556.38 276.4 553.8 270.87 548.54 268.42 541.13 270.59 534.13 272.92 527.18 276.88 520.98 280.46 514.63 283.71 507.87 287.06 514.58 291.23 520.62 294.38 527.23 296.89 534.11 298.51 541.13"/><polygon class="c" points="298.51 541.13 296.7 548.63 291.37 554.4 283.71 556.38 276.4 553.8 270.87 548.54 268.42 541.13 270.59 534.13 272.92 527.18 276.88 520.98 280.46 514.63 283.71 507.87 287.06 514.58 291.23 520.62 294.38 527.23 296.89 534.11 298.51 541.13"/><polygon class="b" points="339.13 505.24 337.25 512.76 331.89 518.54 324.21 519.84 316.56 518.5 310.99 512.87 309.03 505.24 311.2 498.28 313.4 491.27 317.11 484.94 320.92 478.71 324.21 471.89 327.79 478.56 331.59 484.8 334.82 491.36 337.51 498.17 339.13 505.24"/><polygon class="c" points="339.13 505.24 337.25 512.76 331.89 518.54 324.21 519.84 316.56 518.5 310.99 512.87 309.03 505.24 311.2 498.28 313.4 491.27 317.11 484.94 320.92 478.71 324.21 471.89 327.79 478.56 331.59 484.8 334.82 491.36 337.51 498.17 339.13 505.24"/><polygon class="b" points="298.3 612.92 296.76 620.45 291.1 625.72 283.71 627.5 276.44 625.52 271.14 620.17 268.33 612.92 270.78 605.99 273.61 599.29 276.26 592.44 279.79 586.04 283.71 580.24 287.42 586.17 291.24 592.4 294.49 598.97 296.93 605.88 298.3 612.92"/><polygon class="c" points="298.3 612.92 296.76 620.45 291.1 625.72 283.71 627.5 276.44 625.52 271.14 620.17 268.33 612.92 270.78 605.99 273.61 599.29 276.26 592.44 279.79 586.04 283.71 580.24 287.42 586.17 291.24 592.4 294.49 598.97 296.93 605.88 298.3 612.92"/><polygon class="b" points="379.29 541.13 377.38 548.44 372.2 554.09 364.71 556.6 356.99 554.5 351.64 548.68 350.09 541.13 351.52 534.1 354.65 527.52 357.58 520.83 360.92 514.32 364.71 507.73 367.97 514.63 371.46 521.03 375.25 527.29 377.55 534.23 379.29 541.13"/><polygon class="c" points="379.29 541.13 377.38 548.44 372.2 554.09 364.71 556.6 356.99 554.5 351.64 548.68 350.09 541.13 351.52 534.1 354.65 527.52 357.58 520.83 360.92 514.32 364.71 507.73 367.97 514.63 371.46 521.03 375.25 527.29 377.55 534.23 379.29 541.13"/><polygon class="b" points="339.41 577.02 336.78 584.28 331.92 590.37 324.21 591.6 316.87 589.75 311.41 584.42 309.2 577.02 311.38 570.13 314.25 563.46 316.76 556.55 320.55 550.29 324.21 543.95 327.52 550.5 331.37 556.71 334.39 563.36 337.12 570.1 339.41 577.02"/><polygon class="c" points="339.41 577.02 336.78 584.28 331.92 590.37 324.21 591.6 316.87 589.75 311.41 584.42 309.2 577.02 311.38 570.13 314.25 563.46 316.76 556.55 320.55 550.29 324.21 543.95 327.52 550.5 331.37 556.71 334.39 563.36 337.12 570.1 339.41 577.02"/><polygon class="b" points="298.32 541.13 296.75 548.65 291.29 554.24 283.71 556 276.33 553.92 271.05 548.44 269.07 541.13 270.25 534 273.48 527.44 276.5 520.78 280.14 514.45 283.71 507.64 287.68 514.23 291.16 520.66 294.2 527.32 296.74 534.16 298.32 541.13"/><polygon class="c" points="298.32 541.13 296.75 548.65 291.29 554.24 283.71 556 276.33 553.92 271.05 548.44 269.07 541.13 270.25 534 273.48 527.44 276.5 520.78 280.14 514.45 283.71 507.64 287.68 514.23 291.16 520.66 294.2 527.32 296.74 534.16 298.32 541.13"/><polygon class="b" points="298.54 541.13 296.31 548.4 291.44 554.52 283.71 556.31 276.41 553.79 271.03 548.45 268.68 541.13 270.66 534.16 273.32 527.37 276.8 520.94 279.96 514.35 283.71 507.86 287.15 514.52 290.93 520.78 294.19 527.32 297.02 534.06 298.54 541.13"/><polygon class="c" points="298.54 541.13 296.31 548.4 291.44 554.52 283.71 556.31 276.41 553.79 271.03 548.45 268.68 541.13 270.66 534.16 273.32 527.37 276.8 520.94 279.96 514.35 283.71 507.86 287.15 514.52 290.93 520.78 294.19 527.32 297.02 534.06 298.54 541.13"/><polygon class="b" points="217.38 541.13 215.93 548.76 210.17 554.04 202.71 556.4 195.14 554.25 189.52 548.75 187.25 541.13 189.88 534.24 192.16 527.29 196 521.04 199.14 514.45 202.71 508.38 206.51 514.32 210.14 520.67 213.28 527.28 215.93 534.09 217.38 541.13"/><polygon class="c" points="217.38 541.13 215.93 548.76 210.17 554.04 202.71 556.4 195.14 554.25 189.52 548.75 187.25 541.13 189.88 534.24 192.16 527.29 196 521.04 199.14 514.45 202.71 508.38 206.51 514.32 210.14 520.67 213.28 527.28 215.93 534.09 217.38 541.13"/><polygon class="b" points="258.34 505.24 255.82 512.51 250.61 518.05 243.21 520 235.64 518.35 230.62 512.51 228.31 505.24 230.19 498.27 232.97 491.54 236.48 485.14 239.22 478.32 243.21 472.19 246.46 478.74 250.51 484.84 253.76 491.39 256.5 498.17 258.34 505.24"/><polygon class="c" points="258.34 505.24 255.82 512.51 250.61 518.05 243.21 520 235.64 518.35 230.62 512.51 228.31 505.24 230.19 498.27 232.97 491.54 236.48 485.14 239.22 478.32 243.21 472.19 246.46 478.74 250.51 484.84 253.76 491.39 256.5 498.17 258.34 505.24"/><polygon class="b" points="298.74 612.92 296.46 620.28 291.06 625.65 283.71 628.18 276.38 625.62 271.12 620.19 268.31 612.92 270.61 605.92 273.65 599.31 276.18 592.4 279.72 586 283.71 580.01 287.79 585.96 291.02 592.52 293.95 599.22 297.21 605.78 298.74 612.92"/><polygon class="c" points="298.74 612.92 296.46 620.28 291.06 625.65 283.71 628.18 276.38 625.62 271.12 620.19 268.31 612.92 270.61 605.92 273.65 599.31 276.18 592.4 279.72 586 283.71 580.01 287.79 585.96 291.02 592.52 293.95 599.22 297.21 605.78 298.74 612.92"/><polygon class="b" points="299.04 541.13 297.09 548.85 291.07 553.87 283.71 555.65 276.43 553.74 270.52 548.75 268.94 541.13 270.37 534.05 273.07 527.25 276.17 520.61 280.26 514.51 283.71 508.41 287.2 514.5 290.72 520.89 294.55 527.15 296.72 534.17 299.04 541.13"/><polygon class="c" points="299.04 541.13 297.09 548.85 291.07 553.87 283.71 555.65 276.43 553.74 270.52 548.75 268.94 541.13 270.37 534.05 273.07 527.25 276.17 520.61 280.26 514.51 283.71 508.41 287.2 514.5 290.72 520.89 294.55 527.15 296.72 534.17 299.04 541.13"/><polygon class="b" points="258.17 577.02 256.22 584.53 250.62 589.84 243.21 591.64 235.55 590.3 230.45 584.39 228.46 577.02 229.58 569.83 233.23 563.46 236.22 556.79 239.27 550.13 243.21 543.71 247.09 550.17 250.38 556.7 253.6 563.26 256.69 569.89 258.17 577.02"/><polygon class="c" points="258.17 577.02 256.22 584.53 250.62 589.84 243.21 591.64 235.55 590.3 230.45 584.39 228.46 577.02 229.58 569.83 233.23 563.46 236.22 556.79 239.27 550.13 243.21 543.71 247.09 550.17 250.38 556.7 253.6 563.26 256.69 569.89 258.17 577.02"/><polygon class="b" points="217.98 541.13 216.11 548.86 209.99 553.74 202.71 555.96 195.16 554.2 189.63 548.68 187.41 541.13 189.74 534.18 192.09 527.26 195.39 520.72 198.68 514.19 202.71 507.91 206.4 514.39 209.72 520.89 213.16 527.34 216.18 534 217.98 541.13"/><polygon class="c" points="217.98 541.13 216.11 548.86 209.99 553.74 202.71 555.96 195.16 554.2 189.63 548.68 187.41 541.13 189.74 534.18 192.09 527.26 195.39 520.72 198.68 514.19 202.71 507.91 206.4 514.39 209.72 520.89 213.16 527.34 216.18 534 217.98 541.13"/><polygon class="b" points="217.35 541.13 215.71 548.63 210.43 554.5 202.71 556.19 195.46 553.7 190.1 548.41 187.27 541.13 188.98 533.9 192.44 527.42 195.25 520.65 199.38 514.58 202.71 507.95 206.58 514.28 209.84 520.83 213.13 527.35 215.96 534.08 217.35 541.13"/><polygon class="c" points="217.35 541.13 215.71 548.63 210.43 554.5 202.71 556.19 195.46 553.7 190.1 548.41 187.27 541.13 188.98 533.9 192.44 527.42 195.25 520.65 199.38 514.58 202.71 507.95 206.58 514.28 209.84 520.83 213.13 527.35 215.96 534.08 217.35 541.13"/><polygon class="b" points="217.49 541.13 215.88 548.73 210.36 554.37 202.71 555.92 195.1 554.31 189.52 548.75 188.16 541.13 189.34 534.03 191.86 527.15 195.58 520.82 199.42 514.61 202.71 507.61 206.47 514.35 210.16 520.66 212.78 527.51 215.68 534.19 217.49 541.13"/><polygon class="c" points="217.49 541.13 215.88 548.73 210.36 554.37 202.71 555.92 195.1 554.31 189.52 548.75 188.16 541.13 189.34 534.03 191.86 527.15 195.58 520.82 199.42 514.61 202.71 507.61 206.47 514.35 210.16 520.66 212.78 527.51 215.68 534.19 217.49 541.13"/><polygon class="b" points="421.25 504.9 418.98 512.39 413.36 517.64 406 519.67 398.72 517.51 392.94 512.44 391.49 504.9 392.86 497.89 395.54 491.1 398.8 484.56 402.47 478.24 406 472.23 409.51 478.25 413.15 484.58 416.39 491.13 419.67 497.69 421.25 504.9"/><polygon class="c" points="421.25 504.9 418.98 512.39 413.36 517.64 406 519.67 398.72 517.51 392.94 512.44 391.49 504.9 392.86 497.89 395.54 491.1 398.8 484.56 402.47 478.24 406 472.23 409.51 478.25 413.15 484.58 416.39 491.13 419.67 497.69 421.25 504.9"/><polygon class="b" points="177.71 505.13 176.04 512.82 170.35 518.36 162.71 520.56 155.14 518.24 149.5 512.76 147.38 505.13 149.27 498.01 152.67 491.53 155.58 484.82 159.47 478.63 162.71 471.79 166.06 478.58 169.54 484.98 172.86 491.48 175.72 498.17 177.71 505.13"/><polygon class="c" points="177.71 505.13 176.04 512.82 170.35 518.36 162.71 520.56 155.14 518.24 149.5 512.76 147.38 505.13 149.27 498.01 152.67 491.53 155.58 484.82 159.47 478.63 162.71 471.79 166.06 478.58 169.54 484.98 172.86 491.48 175.72 498.17 177.71 505.13"/></svg>