<svg id="Layer_1" data-name="Layer 1" xmlns="http://www.w3.org/2000/svg" viewBox="0 0 800 800"><defs><style>.cls-1{fill:#fff;}.cls-2{fill:none;stroke:#000;stroke-linejoin:bevel;stroke-width:13px;}</style></defs><title>canvas (72)</title><polyline class="cls-1" points="586.55 644.05 591.86 638.86 597.3 633.8 603.19 629.21 608.61 624.07 610.55 616.91 613.41 610.09 615.37 602.97 618.09 596.1 619.84 588.89 622.86 581.73 614.9 581.55 607.3 581.84 599.71 581.78 592.1 581.69 584.66 581.83 584.01 574.78 584.09 567.56 584.74 560.35 584.66 553.13 584.75 545.91 584.25 538.69 584.22 531.47 584.13 524.25 584.73 517.04 584.16 509.82 584.28 502.6 584.19 495.38 584.43 488.16 584.53 480.94 584.56 473.73 584.25 466.5 584.47 459.29 584.06 452.07 584.65 444.85 584.1 437.63 584.23 430.41 584.66 423.19 584.9 415.97 584.41 408.75 584.52 401.53 584.57 394.31 584.1 387.09 584.53 379.87 584.51 372.65 584.96 365.43 584.33 358.21 584.67 351 584.93 343.78 584.81 336.56 584.36 329.34 584.29 322.13 584.67 314.9 584.7 307.69 584.91 300.47 584.88 293.25 584.89 286.03 584.4 278.81 584.18 271.58 584.85 264.36 584.7 257.14 584.68 249.92 584.91 242.7 584.69 235.47 584.5 228.25 584.49 221.03 584.37 213.81 584.26 206.58 584.15 199.36 584.69 192.14 584.55 184.91 584.28 177.69 584.9 170.46 584.66 163.23 584.21 156.29 577.35 155.67 570.2 156.06 563.05 155.65 555.9 155.53 548.75 156.44 541.6 155.71 534.45 155.81 527.3 155.85 520.15 155.7 513 155.93 505.85 155.66 498.69 155.8 491.54 156.22 484.39 156.21 477.24 156.27 470.09 155.95 462.94 155.69 455.79 156.32 448.64 155.54 441.49 156.08 434.34 156.1 427.19 156.25 420.05 156.19 412.89 156.47 405.74 156.22 398.59 156.46 391.44 156.37 384.29 156.33 377.14 156.09 369.98 155.66 362.83 155.75 355.68 155.66 348.52 155.82 341.37 155.7 334.22 155.79 327.06 155.67 319.91 156.43 312.75 155.91 305.6 156.07 298.45 155.95 291.29 155.92 284.14 156.24 276.99 156.29 269.83 156.41 262.66 155.61 255.44 155.74 250.19 159.13 245.04 162.54 239.33 165.17 237.13 171.53 235.14 177.87 233.29 184.25 231.88 190.78 229.48 197.36 222.51 190.39 221.63 197.14 221.09 204.2 220.61 211.26 220.76 218.37 220.21 225.44 219.5 232.5"/><polyline class="cls-2" points="586.55 644.05 591.86 638.86 597.3 633.8 603.19 629.21 608.61 624.07 610.55 616.91 613.41 610.09 615.37 602.97 618.09 596.1 619.84 588.89 622.86 581.73 614.9 581.55 607.3 581.84 599.71 581.78 592.1 581.69 584.66 581.83 584.01 574.78 584.09 567.56 584.74 560.35 584.66 553.13 584.75 545.91 584.25 538.69 584.22 531.47 584.13 524.25 584.73 517.04 584.16 509.82 584.28 502.6 584.19 495.38 584.43 488.16 584.53 480.94 584.56 473.73 584.25 466.5 584.47 459.29 584.06 452.07 584.65 444.85 584.1 437.63 584.23 430.41 584.66 423.19 584.9 415.97 584.41 408.75 584.52 401.53 584.57 394.31 584.1 387.09 584.53 379.87 584.51 372.65 584.96 365.43 584.33 358.21 584.67 351 584.93 343.78 584.81 336.56 584.36 329.34 584.29 322.13 584.67 314.9 584.7 307.69 584.91 300.47 584.88 293.25 584.89 286.03 584.4 278.81 584.18 271.58 584.85 264.36 584.7 257.14 584.68 249.92 584.91 242.7 584.69 235.47 584.5 228.25 584.49 221.03 584.37 213.81 584.26 206.58 584.15 199.36 584.69 192.14 584.55 184.91 584.28 177.69 584.9 170.46 584.66 163.23 584.21 156.29 577.35 155.67 570.2 156.06 563.05 155.65 555.9 155.53 548.75 156.44 541.6 155.71 534.45 155.81 527.3 155.85 520.15 155.7 513 155.93 505.85 155.66 498.69 155.8 491.54 156.22 484.39 156.21 477.24 156.27 470.09 155.95 462.94 155.69 455.79 156.32 448.64 155.54 441.49 156.08 434.34 156.1 427.19 156.25 420.05 156.19 412.89 156.47 405.74 156.22 398.59 156.46 391.44 156.37 384.29 156.33 377.14 156.09 369.98 155.66 362.83 155.75 355.68 155.66 348.52 155.82 341.37 155.7 334.22 155.79 327.06 155.67 319.91 156.43 312.75 155.91 305.6 156.07 298.45 155.95 291.29 155.92 284.14 156.24 276.99 156.29 269.83 156.41 262.66 155.61 255.44 155.74 250.19 159.13 245.04 162.54 239.33 165.17 237.13 171.53 235.14 177.87 233.29 184.25 231.88 190.78 229.48 197.36 222.51 190.39 221.63 197.14 221.09 204.2 220.61 211.26 220.76 218.37 220.21 225.44 219.5 232.5"/><polygon class="cls-1" points="561.76 604.25 554.38 603.56 547.25 604.29 540.13 603.69 533.01 603.86 525.88 603.57 518.76 604.03 511.64 603.57 504.51 604.05 497.39 604.32 490.27 604.22 483.14 604.1 476.02 603.6 468.89 603.63 461.77 603.9 454.65 604.34 447.52 604.38 440.4 603.69 433.27 603.54 426.15 603.9 419.03 603.78 411.91 603.72 404.79 604.14 397.66 603.96 390.54 603.96 383.42 604.32 376.3 603.68 369.17 603.69 362.05 604.25 354.93 603.81 347.8 603.53 340.68 604.41 333.55 603.86 326.43 604.49 319.3 603.84 312.17 603.74 305.05 604.09 297.92 603.82 290.79 603.7 283.66 604.03 276.54 604.11 269.41 603.58 262.28 604.19 255.16 604.35 248.03 603.55 240.9 604.13 233.77 603.98 226.64 604.38 219.51 603.99 219.92 596.87 219.94 589.74 219.21 582.6 219.95 575.47 219.29 568.34 219.54 561.2 219.23 554.07 219.73 546.94 219.68 539.8 219.69 532.67 219.07 525.54 219.67 518.41 219.11 511.27 219.79 504.14 219.51 497.01 219.21 489.87 219.72 482.74 219.66 475.61 219.06 468.47 219.8 461.34 219.76 454.2 219.95 447.07 219 439.93 219.59 432.8 219.47 425.68 219.34 418.54 219.86 411.41 219.01 404.28 219.48 397.15 219.04 390.01 219.58 382.88 219.19 375.75 219.2 368.61 219.3 361.48 219.5 354.34 219.01 347.21 219.6 340.07 219.33 332.94 219.49 325.8 219.72 318.66 219.85 311.53 219.43 304.39 219.31 297.25 219.83 290.12 219.37 282.98 219.71 275.84 219.63 268.71 219.29 261.57 219.68 254.43 219.33 247.29 219.64 240.15 219.6 233.03 222.86 227.02 226.03 220.93 229.75 215.15 233.18 209.2 236.47 203.17 239.38 196.85 247.7 193.56 255.95 190.13 260.46 183.69 264.63 177.23 271.75 177.28 278.99 176.63 286.23 177.36 293.47 177.07 300.71 176.9 307.96 177.48 315.2 176.91 322.44 176.83 329.68 176.81 336.93 176.89 344.17 177.32 351.41 177.38 358.65 176.56 365.89 176.58 373.13 177.49 380.37 176.55 387.61 177.41 394.85 176.92 402.1 177.21 409.34 177.09 416.58 176.89 423.82 176.72 431.06 176.56 438.31 177.24 445.55 177.08 452.8 176.74 460.04 176.83 467.29 177.49 474.53 176.79 481.78 176.56 489.02 177.34 496.27 177.18 503.51 176.95 510.76 176.91 518 176.83 525.25 176.59 532.5 177.27 539.75 177.05 547 176.66 554.25 176.97 561.73 176.77 561.28 184.23 561.02 191.47 561.24 198.71 561.19 205.94 561.62 213.17 561.79 220.41 561.57 227.64 561.68 234.88 561.78 242.12 561.15 249.35 561.76 256.58 561.84 263.82 561.36 271.06 561.87 278.29 561.75 285.53 561.44 292.77 561.35 300 561.63 307.24 561.99 314.47 561.99 321.71 561.04 328.95 561.43 336.18 561.9 343.42 561.22 350.66 561.78 357.89 561.73 365.13 561.92 372.37 561.53 379.6 561.99 386.84 561 394.08 561.97 401.31 562 408.54 561.21 415.78 561.11 423.02 561.4 430.25 561.97 437.48 561.72 444.72 561.03 451.96 561.14 459.19 561.71 466.43 561.59 473.67 561.63 480.9 561.11 488.14 561.2 495.38 561.58 502.62 561.74 509.86 561.67 517.1 561.59 524.34 561.76 531.58 561.34 538.82 561.18 546.06 561.34 553.3 561.28 560.54 561.15 567.78 561.32 575.02 561.57 582.26 561.19 589.51 561.45 596.75 561.76 604.25"/><polygon class="cls-2" points="561.76 604.25 554.38 603.56 547.25 604.29 540.13 603.69 533.01 603.86 525.88 603.57 518.76 604.03 511.64 603.57 504.51 604.05 497.39 604.32 490.27 604.22 483.14 604.1 476.02 603.6 468.89 603.63 461.77 603.9 454.65 604.34 447.52 604.38 440.4 603.69 433.27 603.54 426.15 603.9 419.03 603.78 411.91 603.72 404.79 604.14 397.66 603.96 390.54 603.96 383.42 604.32 376.3 603.68 369.17 603.69 362.05 604.25 354.93 603.81 347.8 603.53 340.68 604.41 333.55 603.86 326.43 604.49 319.3 603.84 312.17 603.74 305.05 604.09 297.92 603.82 290.79 603.7 283.66 604.03 276.54 604.11 269.41 603.58 262.28 604.19 255.16 604.35 248.03 603.55 240.9 604.13 233.77 603.98 226.64 604.38 219.51 603.99 219.92 596.87 219.94 589.74 219.21 582.6 219.95 575.47 219.29 568.34 219.54 561.2 219.23 554.07 219.73 546.94 219.68 539.8 219.69 532.67 219.07 525.54 219.67 518.41 219.11 511.27 219.79 504.14 219.51 497.01 219.21 489.87 219.72 482.74 219.66 475.61 219.06 468.47 219.8 461.34 219.76 454.2 219.95 447.07 219 439.93 219.59 432.8 219.47 425.68 219.34 418.54 219.86 411.41 219.01 404.28 219.48 397.15 219.04 390.01 219.58 382.88 219.19 375.75 219.2 368.61 219.3 361.48 219.5 354.34 219.01 347.21 219.6 340.07 219.33 332.94 219.49 325.8 219.72 318.66 219.85 311.53 219.43 304.39 219.31 297.25 219.83 290.12 219.37 282.98 219.71 275.84 219.63 268.71 219.29 261.57 219.68 254.43 219.33 247.29 219.64 240.15 219.6 233.03 222.86 227.02 226.03 220.93 229.75 215.15 233.18 209.2 236.47 203.17 239.38 196.85 247.7 193.56 255.95 190.13 260.46 183.69 264.63 177.23 271.75 177.28 278.99 176.63 286.23 177.36 293.47 177.07 300.71 176.9 307.96 177.48 315.2 176.91 322.44 176.83 329.68 176.81 336.93 176.89 344.17 177.32 351.41 177.38 358.65 176.56 365.89 176.58 373.13 177.49 380.37 176.55 387.61 177.41 394.85 176.92 402.1 177.21 409.34 177.09 416.58 176.89 423.82 176.72 431.06 176.56 438.31 177.24 445.55 177.08 452.8 176.74 460.04 176.83 467.29 177.49 474.53 176.79 481.78 176.56 489.02 177.34 496.27 177.18 503.51 176.95 510.76 176.91 518 176.83 525.25 176.59 532.5 177.27 539.75 177.05 547 176.66 554.25 176.97 561.73 176.77 561.28 184.23 561.02 191.47 561.24 198.71 561.19 205.94 561.62 213.17 561.79 220.41 561.57 227.64 561.68 234.88 561.78 242.12 561.15 249.35 561.76 256.58 561.84 263.82 561.36 271.06 561.87 278.29 561.75 285.53 561.44 292.77 561.35 300 561.63 307.24 561.99 314.47 561.99 321.71 561.04 328.95 561.43 336.18 561.9 343.42 561.22 350.66 561.78 357.89 561.73 365.13 561.92 372.37 561.53 379.6 561.99 386.84 561 394.08 561.97 401.31 562 408.54 561.21 415.78 561.11 423.02 561.4 430.25 561.97 437.48 561.72 444.72 561.03 451.96 561.14 459.19 561.71 466.43 561.59 473.67 561.63 480.9 561.11 488.14 561.2 495.38 561.58 502.62 561.74 509.86 561.67 517.1 561.59 524.34 561.76 531.58 561.34 538.82 561.18 546.06 561.34 553.3 561.28 560.54 561.15 567.78 561.32 575.02 561.57 582.26 561.19 589.51 561.45 596.75 561.76 604.25"/><polygon class="cls-1" points="254.68 603.82 261.66 603.71 268.81 604.08 275.97 604.37 283.13 604.44 290.28 603.9 297.44 603.83 304.6 603.83 311.75 603.65 318.91 603.7 326.06 603.97 333.21 604.25 340.37 603.72 347.52 603.66 354.68 603.96 361.83 604.06 368.99 603.88 376.14 604.23 383.3 603.96 390.46 604.14 397.62 603.79 404.77 604.06 411.93 604.19 419.09 603.95 426.25 604.35 433.41 603.84 440.56 603.74 447.73 604.33 454.88 604.39 462.05 603.7 469.2 604.1 476.36 604.29 483.52 604.45 490.68 604.11 497.84 604.33 505 603.95 512.16 604.08 519.33 604.3 526.66 604.16 526.49 596.77 526.36 589.54 526.57 582.3 526.76 575.07 526.01 567.84 526.21 560.61 526.57 553.38 526.1 546.15 526.54 538.92 526.13 531.68 526.99 524.45 526.75 517.22 526.76 509.99 526.79 502.76 526.5 495.52 526.96 488.29 526.83 481.06 526.32 473.82 526.63 466.59 526.74 459.36 526.96 452.13 526.69 444.89 526.39 437.66 526.05 430.43 526.88 423.19 526.86 415.96 526.21 408.74 526.23 401.51 526.1 394.27 526.29 387.04 526.96 379.81 526.15 372.58 526.45 365.35 526.88 358.11 526.41 350.88 526.04 343.65 526.87 336.42 526.94 329.18 526.62 321.95 526.02 314.71 526.94 307.48 526.33 300.24 526.65 293 526.53 285.77 526.05 278.53 526.28 271.3 526.28 264.06 526.74 256.82 526.79 249.59 526.06 242.35 526.81 235.11 526.99 227.87 526.36 220.63 526.17 213.71 519.34 212.94 512.19 213.49 505.03 213.19 497.87 213.64 490.72 213.18 483.56 213.25 476.4 213.85 469.25 213.8 462.09 213.66 454.94 213.72 447.79 213.24 440.63 213.73 433.48 213.27 426.32 213.1 419.17 213.49 412.01 212.96 404.86 213.21 397.7 213.12 390.54 212.94 383.38 213.58 376.23 213.34 369.07 213.32 361.91 213.64 354.75 213.31 347.59 213.78 340.44 213.61 333.27 213.87 326.12 213.83 318.95 213.49 311.8 213.02 304.64 213.78 297.48 213.12 290.32 213.27 283.16 213.56 276 213.75 268.84 213.4 261.67 213.83 254.31 213.2 254.54 220.62 254.44 227.85 254.34 235.08 254.31 242.31 255 249.54 254.31 256.77 254.67 264.01 254.71 271.24 254.31 278.47 254.69 285.7 254.11 292.94 254.79 300.17 254.77 307.4 254.52 314.63 254.29 321.86 254.5 329.1 255 336.33 254.92 343.56 254.1 350.79 254.84 358.03 254.34 365.26 254.64 372.49 254.88 379.73 254.91 386.96 254.75 394.19 254.7 401.42 254.12 408.65 254.11 415.88 254.41 423.11 254.97 430.34 254.58 437.57 254.81 444.81 254.46 452.04 254.1 459.27 254.96 466.5 254.04 473.74 254.11 480.97 254.88 488.21 254.13 495.44 254.32 502.68 254.25 509.91 254.19 517.15 254.93 524.38 254.45 531.62 254.11 538.86 254.65 546.09 254.57 553.33 254.19 560.56 254.01 567.8 254.22 575.04 254.69 582.28 254.71 589.51 254.68 596.75 254.68 603.82"/><polygon class="cls-2" points="254.68 603.82 261.66 603.71 268.81 604.08 275.97 604.37 283.13 604.44 290.28 603.9 297.44 603.83 304.6 603.83 311.75 603.65 318.91 603.7 326.06 603.97 333.21 604.25 340.37 603.72 347.52 603.66 354.68 603.96 361.83 604.06 368.99 603.88 376.14 604.23 383.3 603.96 390.46 604.14 397.62 603.79 404.77 604.06 411.93 604.19 419.09 603.95 426.25 604.35 433.41 603.84 440.56 603.74 447.73 604.33 454.88 604.39 462.05 603.7 469.2 604.1 476.36 604.29 483.52 604.45 490.68 604.11 497.84 604.33 505 603.95 512.16 604.08 519.33 604.3 526.66 604.16 526.49 596.77 526.36 589.54 526.57 582.3 526.76 575.07 526.01 567.84 526.21 560.61 526.57 553.38 526.1 546.15 526.54 538.92 526.13 531.68 526.99 524.45 526.75 517.22 526.76 509.99 526.79 502.76 526.5 495.52 526.96 488.29 526.83 481.06 526.32 473.82 526.63 466.59 526.74 459.36 526.96 452.13 526.69 444.89 526.39 437.66 526.05 430.43 526.88 423.19 526.86 415.96 526.21 408.74 526.23 401.51 526.1 394.27 526.29 387.04 526.96 379.81 526.15 372.58 526.45 365.35 526.88 358.11 526.41 350.88 526.04 343.65 526.87 336.42 526.94 329.18 526.62 321.95 526.02 314.71 526.94 307.48 526.33 300.24 526.65 293 526.53 285.77 526.05 278.53 526.28 271.3 526.28 264.06 526.74 256.82 526.79 249.59 526.06 242.35 526.81 235.11 526.99 227.87 526.36 220.63 526.17 213.71 519.34 212.94 512.19 213.49 505.03 213.19 497.87 213.64 490.72 213.18 483.56 213.25 476.4 213.85 469.25 213.8 462.09 213.66 454.94 213.72 447.79 213.24 440.63 213.73 433.48 213.27 426.32 213.1 419.17 213.49 412.01 212.96 404.86 213.21 397.7 213.12 390.54 212.94 383.38 213.58 376.23 213.34 369.07 213.32 361.91 213.64 354.75 213.31 347.59 213.78 340.44 213.61 333.27 213.87 326.12 213.83 318.95 213.49 311.8 213.02 304.64 213.78 297.48 213.12 290.32 213.27 283.16 213.56 276 213.75 268.84 213.4 261.67 213.83 254.31 213.2 254.54 220.62 254.44 227.85 254.34 235.08 254.31 242.31 255 249.54 254.31 256.77 254.67 264.01 254.71 271.24 254.31 278.47 254.69 285.7 254.11 292.94 254.79 300.17 254.77 307.4 254.52 314.63 254.29 321.86 254.5 329.1 255 336.33 254.92 343.56 254.1 350.79 254.84 358.03 254.34 365.26 254.64 372.49 254.88 379.73 254.91 386.96 254.75 394.19 254.7 401.42 254.12 408.65 254.11 415.88 254.41 423.11 254.97 430.34 254.58 437.57 254.81 444.81 254.46 452.04 254.1 459.27 254.96 466.5 254.04 473.74 254.11 480.97 254.88 488.21 254.13 495.44 254.32 502.68 254.25 509.91 254.19 517.15 254.93 524.38 254.45 531.62 254.11 538.86 254.65 546.09 254.57 553.33 254.19 560.56 254.01 567.8 254.22 575.04 254.69 582.28 254.71 589.51 254.68 596.75 254.68 603.82"/><polygon class="cls-1" points="187.53 643.96 194.75 644.24 202 644.22 209.25 644.18 216.51 643.69 223.76 643.9 231.01 643.59 238.26 644.32 245.52 644.09 252.77 644.3 260.02 644.42 267.28 643.78 274.53 644.14 281.78 644.25 289.04 644.16 296.29 644.24 303.54 644.09 310.8 643.53 318.05 643.85 325.3 643.53 332.56 644.14 339.81 644.07 347.06 644.1 354.32 644.25 361.57 643.74 368.83 643.96 376.08 643.51 383.33 644.17 390.58 644.01 397.83 644.49 405.09 643.69 412.34 644.18 419.59 644.21 426.85 643.78 434.1 643.63 441.35 644.27 448.61 643.72 455.86 644.17 463.11 643.71 470.37 644.25 477.63 643.58 484.88 643.77 492.14 643.95 499.39 643.66 506.65 643.88 513.91 643.53 521.17 643.78 528.42 643.67 535.68 644.25 542.93 644.18 550.19 644.06 557.45 644.25 564.71 643.58 571.97 644.28 579.24 643.54 586.28 643.71 588.4 637.39 589.78 630.66 591.96 624.13 593.36 617.39 594.92 610.69 596.74 603.8 589.28 604.33 582.05 604.24 574.83 603.7 567.61 603.69 560.39 604.39 553.17 604.44 545.95 603.54 538.72 604 531.5 604.12 524.28 604.19 517.06 604.04 509.83 604.2 502.61 604.3 495.39 603.84 488.17 604 480.94 604.08 473.72 604.34 466.5 604.16 459.27 603.58 452.05 604.44 444.83 603.5 437.61 604.03 430.38 604.42 423.16 604.18 415.93 603.99 408.71 604.3 401.49 603.63 394.26 603.89 387.04 604.05 379.82 604.24 372.6 604.11 365.38 603.94 358.15 604.01 350.93 604.05 343.71 604.42 336.49 603.54 329.27 604.36 322.04 603.76 314.82 603.51 307.59 603.55 300.37 603.87 293.14 603.92 285.92 603.55 278.69 604.47 271.47 603.82 264.24 603.57 257.01 604.2 249.79 603.64 242.56 604.25 235.34 603.81 228.11 603.55 220.88 603.91 213.66 603.52 206.43 604.46 199.2 604.05 191.97 603.73 184.73 603.84 177.53 604.03 178.83 610.75 180.92 617.31 182.67 623.95 184 630.7 185.4 637.44 187.53 643.96"/><polygon class="cls-2" points="187.53 643.96 194.75 644.24 202 644.22 209.25 644.18 216.51 643.69 223.76 643.9 231.01 643.59 238.26 644.32 245.52 644.09 252.77 644.3 260.02 644.42 267.28 643.78 274.53 644.14 281.78 644.25 289.04 644.16 296.29 644.24 303.54 644.09 310.8 643.53 318.05 643.85 325.3 643.53 332.56 644.14 339.81 644.07 347.06 644.1 354.32 644.25 361.57 643.74 368.83 643.96 376.08 643.51 383.33 644.17 390.58 644.01 397.83 644.49 405.09 643.69 412.34 644.18 419.59 644.21 426.85 643.78 434.1 643.63 441.35 644.27 448.61 643.72 455.86 644.17 463.11 643.71 470.37 644.25 477.63 643.58 484.88 643.77 492.14 643.95 499.39 643.66 506.65 643.88 513.91 643.53 521.17 643.78 528.42 643.67 535.68 644.25 542.93 644.18 550.19 644.06 557.45 644.25 564.71 643.58 571.97 644.28 579.24 643.54 586.28 643.71 588.4 637.39 589.78 630.66 591.96 624.13 593.36 617.39 594.92 610.69 596.74 603.8 589.28 604.33 582.05 604.24 574.83 603.7 567.61 603.69 560.39 604.39 553.17 604.44 545.95 603.54 538.72 604 531.5 604.12 524.28 604.19 517.06 604.04 509.83 604.2 502.61 604.3 495.39 603.84 488.17 604 480.94 604.08 473.72 604.34 466.5 604.16 459.27 603.58 452.05 604.44 444.83 603.5 437.61 604.03 430.38 604.42 423.16 604.18 415.93 603.99 408.71 604.3 401.49 603.63 394.26 603.89 387.04 604.05 379.82 604.24 372.6 604.11 365.38 603.94 358.15 604.01 350.93 604.05 343.71 604.42 336.49 603.54 329.27 604.36 322.04 603.76 314.82 603.51 307.59 603.55 300.37 603.87 293.14 603.92 285.92 603.55 278.69 604.47 271.47 603.82 264.24 603.57 257.01 604.2 249.79 603.64 242.56 604.25 235.34 603.81 228.11 603.55 220.88 603.91 213.66 603.52 206.43 604.46 199.2 604.05 191.97 603.73 184.73 603.84 177.53 604.03 178.83 610.75 180.92 617.31 182.67 623.95 184 630.7 185.4 637.44 187.53 643.96"/><polyline class="cls-1" points="391.91 213.39 391.82 220.62 391.85 227.86 392.46 235.1 392.3 242.34 391.85 249.57 392.37 256.81 392.37 264.05 391.57 271.29 391.72 278.52 391.76 285.75 392.29 292.99 392.23 300.22 391.75 307.46 392.18 314.7 391.69 321.93 392.29 329.17 392.07 336.41 391.8 343.65 391.94 350.88 392 358.13 391.92 365.36 392.23 372.6 391.75 379.84 391.72 387.08 392.06 394.32 392.31 401.56 391.71 408.81 392.11 416.05 392.36 423.29 391.7 430.53 392.09 437.77 392.32 445.01 391.92 452.25 392.3 459.5 391.81 466.74 392.29 473.99"/><polyline class="cls-2" points="391.91 213.39 391.82 220.62 391.85 227.86 392.46 235.1 392.3 242.34 391.85 249.57 392.37 256.81 392.37 264.05 391.57 271.29 391.72 278.52 391.76 285.75 392.29 292.99 392.23 300.22 391.75 307.46 392.18 314.7 391.69 321.93 392.29 329.17 392.07 336.41 391.8 343.65 391.94 350.88 392 358.13 391.92 365.36 392.23 372.6 391.75 379.84 391.72 387.08 392.06 394.32 392.31 401.56 391.71 408.81 392.11 416.05 392.36 423.29 391.7 430.53 392.09 437.77 392.32 445.01 391.92 452.25 392.3 459.5 391.81 466.74 392.29 473.99"/><polyline class="cls-1" points="254.5 343.72 261.66 343.36 268.81 343.44 275.97 343.34 283.13 343.04 290.28 343.99 297.44 343.19 304.6 343.62 311.75 343.18 318.91 343.61 326.06 343.85 333.21 343.85 340.37 343.88 347.52 343.03 354.68 343.35 361.83 343.02 368.99 343.34 376.14 343.82 383.3 343.99 390.46 343.72 397.62 343.26 404.77 343.87 411.93 343.03 419.09 343.48 426.25 343.37 433.41 343.14 440.56 343.46 447.73 343.71 454.88 343.81 462.05 343.15 469.2 343.87 476.36 343.84 483.52 343.59 490.68 343.22 497.84 343.39 505 343.24 512.16 343.17 519.33 343.2 526.5 343.71"/><polyline class="cls-2" points="254.5 343.72 261.66 343.36 268.81 343.44 275.97 343.34 283.13 343.04 290.28 343.99 297.44 343.19 304.6 343.62 311.75 343.18 318.91 343.61 326.06 343.85 333.21 343.85 340.37 343.88 347.52 343.03 354.68 343.35 361.83 343.02 368.99 343.34 376.14 343.82 383.3 343.99 390.46 343.72 397.62 343.26 404.77 343.87 411.93 343.03 419.09 343.48 426.25 343.37 433.41 343.14 440.56 343.46 447.73 343.71 454.88 343.81 462.05 343.15 469.2 343.87 476.36 343.84 483.52 343.59 490.68 343.22 497.84 343.39 505 343.24 512.16 343.17 519.33 343.2 526.5 343.71"/><polyline class="cls-1" points="391.46 603.99 391.07 596.75 390.9 589.5 390.56 582.25 391 575 390.86 567.75 390.54 560.51 391.03 553.25 390.86 546"/><polyline class="cls-2" points="391.46 603.99 391.07 596.75 390.9 589.5 390.56 582.25 391 575 390.86 567.75 390.54 560.51 391.03 553.25 390.86 546"/><polygon points="353.38 213.4 358.03 218.88 362.99 224.14 367.52 229.75 372.4 235.08 376.77 240.83 381.86 245.99 386.64 251.4 390.96 257.29 398.14 256.27 405.05 254.09 412.19 253.14 419.19 251.49 426.29 250.3 433.46 249.49 440.51 247.75 447.39 249.43 454.06 251.71 460.88 253.42 467.66 255.32 474.53 256.93 481.13 260.78 487.62 264.79 494.13 268.79 500.57 272.78 506.99 272.59 513.49 272.64 520 273.2 526.79 273.25 526.6 265.5 526.91 258.01 526.28 250.51 526.81 243.01 526.26 235.51 526.87 228.01 526.3 220.5 526.76 212.75 519.29 212.63 512.08 213.16 504.87 213.38 497.65 213.01 490.44 213.18 483.23 213.51 476.02 212.77 468.8 213.33 461.59 212.73 454.38 213.2 447.16 212.77 439.95 213.5 432.73 213.02 425.52 213.14 418.3 213.7 411.09 212.97 403.87 213.04 396.66 212.9 389.44 213.75 382.23 213.2 375.01 213.01 367.8 213.79 360.57 213.66 353.38 213.4"/><polygon class="cls-2" points="353.38 213.4 358.03 218.88 362.99 224.14 367.52 229.75 372.4 235.08 376.77 240.83 381.86 245.99 386.64 251.4 390.96 257.29 398.14 256.27 405.05 254.09 412.19 253.14 419.19 251.49 426.29 250.3 433.46 249.49 440.51 247.75 447.39 249.43 454.06 251.71 460.88 253.42 467.66 255.32 474.53 256.93 481.13 260.78 487.62 264.79 494.13 268.79 500.57 272.78 506.99 272.59 513.49 272.64 520 273.2 526.79 273.25 526.6 265.5 526.91 258.01 526.28 250.51 526.81 243.01 526.26 235.51 526.87 228.01 526.3 220.5 526.76 212.75 519.29 212.63 512.08 213.16 504.87 213.38 497.65 213.01 490.44 213.18 483.23 213.51 476.02 212.77 468.8 213.33 461.59 212.73 454.38 213.2 447.16 212.77 439.95 213.5 432.73 213.02 425.52 213.14 418.3 213.7 411.09 212.97 403.87 213.04 396.66 212.9 389.44 213.75 382.23 213.2 375.01 213.01 367.8 213.79 360.57 213.66 353.38 213.4"/><polyline class="cls-2" points="295.77 382.12 292.25 390.11 288.56 398 291.85 404.82 295.63 411.42 298.87 418.31 302.42 425.29 308.59 421.15 314.71 417.33 320.54 413.07 326.45 409.32 329.53 414.32 332.78 419.51 335.72 424.88"/><polyline class="cls-2" points="311.84 391.09 309.32 397.7 307.84 404.57 305.65 411.27 304.19 418.17 302.31 425.09 309.29 427.8 315.84 431.09 322.12 434.94 329.01 437.56 335.43 441.05 335.28 447.6 335.16 454.19 335.87 460.79 335.65 467.4 335.86 474"/><polygon points="254.66 425.33 261.36 425.41 268.21 425.18 275.06 425.06 281.92 425.23 288.77 425.02 295.64 425.03 302.6 424.87 305.08 432.67 308.28 440.08 311.56 447.47 314.11 455.29 320.63 459.58 326.43 464.57 332.7 469 338.62 473.66 345.93 474.13 353.36 474.31 360.8 474.01 368.23 474.47 375.66 474.07 383.09 474.11 390.52 473.57 397.95 473.53 405.38 473.67 412.82 474.46 420.25 473.52 427.69 474.49 435.12 474.16 442.56 473.93 450 474.17 446.05 473.68 452.84 470.81 459.56 468.19 466.48 466.04 473.05 463.05 479.87 460.66 486.23 457.14 493.15 455.02 499.87 452.37 506.54 449.62 513.27 447.02 519.68 443.6 526.63 441 526.87 448.49 526.45 455.78 526.05 463.08 526.22 470.38 526.86 477.67 526.69 484.97 526.99 492.28 526.53 499.58 526.43 506.88 526.72 514.4 519.63 514.33 512.75 514.52 505.88 514.57 499.01 514.19 492.14 514.16 485.26 513.64 478.38 513.72 471.65 514.41 466.49 518.71 461.14 523.05 456.29 527.95 450.7 532.01 445.99 537.07 440.51 541.27 435.63 546.35 428 545.81 420.51 545.98 413 545.7 405.51 545.76 398 546.5 390.48 546.02 385.23 550.37 379.83 554.5 374.44 558.63 369.44 563.26 364.2 567.59 359.01 571.99 353.39 575.86 347.98 580.1 342.21 583.84 336.87 588.19 331.1 591.94 325.78 596.32 320.12 600.23 314.21 603.53 306.87 604.05 299.39 604.08 291.91 603.99 284.43 604.12 276.95 603.62 269.47 604.39 261.99 604.18 254.66 603.82 254.4 596.85 254.55 589.7 255 582.55 254.81 575.4 254.6 568.25 255 561.1 254.45 553.95 254.72 546.8 254.54 539.65 254.69 532.5 254.72 525.35 254.23 518.19 254.67 511.04 254.52 503.89 254.21 496.73 254.18 489.58 254.74 482.43 254.64 475.28 254.67 468.13 254.7 460.97 254.83 453.82 254.33 446.67 254.1 439.51 254.12 432.34 254.66 425.33"/><polygon class="cls-2" points="254.66 425.33 261.36 425.41 268.21 425.18 275.06 425.06 281.92 425.23 288.77 425.02 295.64 425.03 302.6 424.87 305.08 432.67 308.28 440.08 311.56 447.47 314.11 455.29 320.63 459.58 326.43 464.57 332.7 469 338.62 473.66 345.93 474.13 353.36 474.31 360.8 474.01 368.23 474.47 375.66 474.07 383.09 474.11 390.52 473.57 397.95 473.53 405.38 473.67 412.82 474.46 420.25 473.52 427.69 474.49 435.12 474.16 442.56 473.93 450 474.17 446.05 473.68 452.84 470.81 459.56 468.19 466.48 466.04 473.05 463.05 479.87 460.66 486.23 457.14 493.15 455.02 499.87 452.37 506.54 449.62 513.27 447.02 519.68 443.6 526.63 441 526.87 448.49 526.45 455.78 526.05 463.08 526.22 470.38 526.86 477.67 526.69 484.97 526.99 492.28 526.53 499.58 526.43 506.88 526.72 514.4 519.63 514.33 512.75 514.52 505.88 514.57 499.01 514.19 492.14 514.16 485.26 513.64 478.38 513.72 471.65 514.41 466.49 518.71 461.14 523.05 456.29 527.95 450.7 532.01 445.99 537.07 440.51 541.27 435.63 546.35 428 545.81 420.51 545.98 413 545.7 405.51 545.76 398 546.5 390.48 546.02 385.23 550.37 379.83 554.5 374.44 558.63 369.44 563.26 364.2 567.59 359.01 571.99 353.39 575.86 347.98 580.1 342.21 583.84 336.87 588.19 331.1 591.94 325.78 596.32 320.12 600.23 314.21 603.53 306.87 604.05 299.39 604.08 291.91 603.99 284.43 604.12 276.95 603.62 269.47 604.39 261.99 604.18 254.66 603.82 254.4 596.85 254.55 589.7 255 582.55 254.81 575.4 254.6 568.25 255 561.1 254.45 553.95 254.72 546.8 254.54 539.65 254.69 532.5 254.72 525.35 254.23 518.19 254.67 511.04 254.52 503.89 254.21 496.73 254.18 489.58 254.74 482.43 254.64 475.28 254.67 468.13 254.7 460.97 254.83 453.82 254.33 446.67 254.1 439.51 254.12 432.34 254.66 425.33"/><polyline class="cls-2" points="420.45 584 420.61 575.5 420.78 567.1 425.26 561.77 430.32 556.8 434.54 551.06 439.51 546.11 446.06 550 452.25 554.53 458.15 559 452.29 564.47 445.68 569.49 439.43 574.92"/><polyline class="cls-2" points="449.83 565.16 455.8 570.38 460.66 576.66 466.48 582.02"/><polyline class="cls-2" points="450.54 552.23 458.23 551.07 465.77 548.98 473.41 548.38 479.31 552.14 484.61 556.96 490.67 560.77"/><polyline class="cls-2" points="436.24 287.05 435.37 278.93 433.67 271.11 441.9 268.18 450.4 265.8 456.72 261.1 463.47 257.23 465.26 262.75 467.42 268.36 469.82 273.68 476.45 277.59 483.8 280.74 486.11 288.46 488.5 296"/><polyline class="cls-2" points="463.54 261.03 458.46 266.97 453.45 272.99 454.83 279.09 457.17 284.9 458.26 290.98 456.44 296.22 453.54 301.02"/><polyline class="cls-2" points="476.45 283.98 474.04 289.61 471.97 295.39 469.55 301 470.9 307.4 472.39 313.78 474.81 319.92"/><polygon class="cls-1" points="254.92 584.09 257.2 578.05 259.35 571.86 262.13 565.93 264.63 559.89 267.49 554.21 272.23 560.55 277.85 566.38 282.51 572.99 288.65 578.34 294.15 584.17 294.51 590.66 294.17 597.33 294.43 603.92 287.84 604.41 281.17 604.19 274.51 604.45 267.84 603.64 261.17 604.46 254.43 604.07 254.29 597.34 254.71 590.67 254.92 584.09"/><polygon class="cls-2" points="254.92 584.09 257.2 578.05 259.35 571.86 262.13 565.93 264.63 559.89 267.49 554.21 272.23 560.55 277.85 566.38 282.51 572.99 288.65 578.34 294.15 584.17 294.51 590.66 294.17 597.33 294.43 603.92 287.84 604.41 281.17 604.19 274.51 604.45 267.84 603.64 261.17 604.46 254.43 604.07 254.29 597.34 254.71 590.67 254.92 584.09"/><polygon points="622.71 581.79 617.29 586.38 611.97 590.63 606.85 595.12 601.87 599.8 596.59 604.04 596.71 611.92 596.07 619.83 596.53 627.75 596.64 635.31 601.97 629.81 607.34 623.9 610.12 617.05 612.39 609.97 614.87 602.97 617.26 595.92 620.2 589.08 622.71 581.79"/><polygon class="cls-2" points="622.71 581.79 617.29 586.38 611.97 590.63 606.85 595.12 601.87 599.8 596.59 604.04 596.71 611.92 596.07 619.83 596.53 627.75 596.64 635.31 601.97 629.81 607.34 623.9 610.12 617.05 612.39 609.97 614.87 602.97 617.26 595.92 620.2 589.08 622.71 581.79"/><polygon points="561.6 603.66 566.94 598.19 572.98 592.99 578.84 587.61 584.11 581.83 584.09 574.78 584.93 567.56 584.78 560.35 584.05 553.13 584.81 545.91 584.46 538.69 584.45 531.47 584.29 524.25 584.41 517.04 584.15 509.82 584.44 502.6 584.86 495.38 584.26 488.16 584.48 480.94 584.85 473.73 584.21 466.5 584.4 459.29 584.26 452.07 584.47 444.85 584.36 437.63 584.33 430.41 584.2 423.19 584.1 415.97 584.56 408.75 584.64 401.53 584.57 394.31 584.81 387.09 584.62 379.87 584.28 372.65 584.92 365.43 584.86 358.21 584.49 351 584.72 343.78 584.32 336.56 584.26 329.34 584.52 322.13 584.98 314.9 584.11 307.69 584.65 300.47 584.96 293.25 584.75 286.03 584.63 278.81 584.57 271.58 584.99 264.36 584.55 257.14 584.82 249.92 584.68 242.7 584.99 235.47 584.18 228.25 584.33 221.03 584.05 213.81 584.24 206.58 584.38 199.36 584.91 192.14 584.13 184.91 584.79 177.69 584.98 170.46 584.71 163.23 584.48 156.05 578.57 161.04 573.03 166.52 567.39 171.9 561.31 176.91 561.27 184.23 561.79 191.47 561.91 198.71 561.74 205.94 561.64 213.17 561.74 220.41 561.12 227.64 561.34 234.88 561.77 242.12 561.99 249.35 561.74 256.58 561.62 263.82 561.18 271.06 561.29 278.29 561.49 285.53 561.87 292.77 561.5 300 561.12 307.24 561.13 314.47 561.83 321.71 561.27 328.95 561.16 336.18 561.26 343.42 561.14 350.66 561.83 357.89 561.61 365.13 561.4 372.37 561.14 379.6 561.05 386.84 561.37 394.08 561.53 401.31 561.69 408.54 561.23 415.78 561.73 423.02 561.71 430.25 561.67 437.48 561.91 444.72 561.77 451.96 561.51 459.19 561.84 466.43 561.88 473.67 561.15 480.9 561.14 488.14 561.68 495.38 561.2 502.62 561.36 509.86 561.09 517.1 561.87 524.34 561.45 531.58 561.13 538.82 561.82 546.06 561.08 553.3 561.05 560.54 561.26 567.78 561.63 575.02 561.75 582.26 561.93 589.51 561.3 596.75 561.6 603.66"/><polygon class="cls-2" points="561.6 603.66 566.94 598.19 572.98 592.99 578.84 587.61 584.11 581.83 584.09 574.78 584.93 567.56 584.78 560.35 584.05 553.13 584.81 545.91 584.46 538.69 584.45 531.47 584.29 524.25 584.41 517.04 584.15 509.82 584.44 502.6 584.86 495.38 584.26 488.16 584.48 480.94 584.85 473.73 584.21 466.5 584.4 459.29 584.26 452.07 584.47 444.85 584.36 437.63 584.33 430.41 584.2 423.19 584.1 415.97 584.56 408.75 584.64 401.53 584.57 394.31 584.81 387.09 584.62 379.87 584.28 372.65 584.92 365.43 584.86 358.21 584.49 351 584.72 343.78 584.32 336.56 584.26 329.34 584.52 322.13 584.98 314.9 584.11 307.69 584.65 300.47 584.96 293.25 584.75 286.03 584.63 278.81 584.57 271.58 584.99 264.36 584.55 257.14 584.82 249.92 584.68 242.7 584.99 235.47 584.18 228.25 584.33 221.03 584.05 213.81 584.24 206.58 584.38 199.36 584.91 192.14 584.13 184.91 584.79 177.69 584.98 170.46 584.71 163.23 584.48 156.05 578.57 161.04 573.03 166.52 567.39 171.9 561.31 176.91 561.27 184.23 561.79 191.47 561.91 198.71 561.74 205.94 561.64 213.17 561.74 220.41 561.12 227.64 561.34 234.88 561.77 242.12 561.99 249.35 561.74 256.58 561.62 263.82 561.18 271.06 561.29 278.29 561.49 285.53 561.87 292.77 561.5 300 561.12 307.24 561.13 314.47 561.83 321.71 561.27 328.95 561.16 336.18 561.26 343.42 561.14 350.66 561.83 357.89 561.61 365.13 561.4 372.37 561.14 379.6 561.05 386.84 561.37 394.08 561.53 401.31 561.69 408.54 561.23 415.78 561.73 423.02 561.71 430.25 561.67 437.48 561.91 444.72 561.77 451.96 561.51 459.19 561.84 466.43 561.88 473.67 561.15 480.9 561.14 488.14 561.68 495.38 561.2 502.62 561.36 509.86 561.09 517.1 561.87 524.34 561.45 531.58 561.13 538.82 561.82 546.06 561.08 553.3 561.05 560.54 561.26 567.78 561.63 575.02 561.75 582.26 561.93 589.51 561.3 596.75 561.6 603.66"/><polyline class="cls-2" points="221.51 582.46 213.5 582.22 205.39 582.19 199.96 586.97 194.52 591.56 188.68 595.66 182.88 599.82 177.59 604.53 178.87 611.12 180.45 617.69 182.88 624.05 184.14 630.72"/></svg>