<svg id="Layer_1" data-name="Layer 1" xmlns="http://www.w3.org/2000/svg" viewBox="0 0 800 800"><defs><style>.cls-1,.cls-3{fill:none;stroke-linejoin:bevel;stroke-width:13px;}.cls-1{stroke:#000;}.cls-2{fill:#fff;}.cls-3{stroke:#fff;}</style></defs><title>canvas (67)</title><polyline points="168.47 348.24 170.97 355.02 174 361.55 177.08 368.05 180.14 374.57 183.26 381.06 186.04 387.7 188.84 394.34 191.58 401 194.69 407.5 198.25 413.79 200.71 420.58 203.31 427.31 206.43 433.8 209.9 440.13 212.36 446.92 215.32 453.49 218.22 460.08 221.41 466.54 224.43 473.08 228 479.37 230.31 486.22 233.6 492.64 236.59 499.19 239.21 505.91 242.35 512.39 245.89 518.69 248.01 525.64 250.97 532.21 254.77 538.39 257.72 544.96 260.69 551.52 263.44 558.18 266.2 564.84 269.57 571.22 272.06 578 275.06 584.55 278.11 591.08 281.55 597.42 283.72 604.35 286.79 610.86 289.95 617.34 293.31 623.72 296.23 630.3 299.08 636.91 301.69 643.64 304.94 650.07 307.9 656.63 310.54 663.35 314.12 669.63 317.21 676.14 320.16 682.71 323.11 689.28 325.67 696.03 328.96 702.44 331.9 709.02 334.86 715.59 338.06 722.05 341.03 728.62 343.71 735.32 346.8 741.83 349.31 748.59 352.5 755.06 355.18 761.75 358.38 768.22 361.23 774.84 364.29 781.36 367.24 787.93 370.21 794.51 373.27 801.04 376.49 807.23 378.58 800.55 380.83 793.67 383.57 786.96 385.7 780.03 388.68 773.41 390.93 766.52 393.21 759.65 395.8 752.88 398.4 746.12 400.74 739.26 402.46 732.2 404.98 725.41 407.2 718.51 409.86 711.76 412.09 704.87 414.56 698.07 416.78 691.17 420.05 684.64 421.85 677.6 424.44 670.83 426.61 663.92 429.66 657.31 431.38 650.24 433.75 643.39 436.25 636.6 438.69 629.78 440.91 622.88 443.99 616.28 446.24 609.4 448.08 602.37 450.74 595.62 453.14 588.79 455.84 582.06 457.94 575.12 460.5 568.34 462.87 561.5 465.26 554.66 467.29 547.69 469.9 540.93 472.04 534 474.38 527.15 477.21 520.47 479.22 513.5 481.72 506.7 484.42 499.97 486.64 493.08 489.36 486.36 491.38 479.39 493.64 472.51 496.05 465.67 498.74 458.94 501.11 452.09 504.01 445.44 506.25 438.54 508.16 431.53 510.73 424.75 512.88 417.83 515.43 411.05 517.76 404.18 520.55 397.48 522.58 390.51 525.15 383.74 527.17 376.76 530.12 370.12 532.68 363.34 534.76 356.38 537.11 349.53 539.64 342.73 542.1 335.91 544.61 329.1"/><polyline class="cls-1" points="168.47 348.24 170.97 355.02 174 361.55 177.08 368.05 180.14 374.57 183.26 381.06 186.04 387.7 188.84 394.34 191.58 401 194.69 407.5 198.25 413.79 200.71 420.58 203.31 427.31 206.43 433.8 209.9 440.13 212.36 446.92 215.32 453.49 218.22 460.08 221.41 466.54 224.43 473.08 228 479.37 230.31 486.22 233.6 492.64 236.59 499.19 239.21 505.91 242.35 512.39 245.89 518.69 248.01 525.64 250.97 532.21 254.77 538.39 257.72 544.96 260.69 551.52 263.44 558.18 266.2 564.84 269.57 571.22 272.06 578 275.06 584.55 278.11 591.08 281.55 597.42 283.72 604.35 286.79 610.86 289.95 617.34 293.31 623.72 296.23 630.3 299.08 636.91 301.69 643.64 304.94 650.07 307.9 656.63 310.54 663.35 314.12 669.63 317.21 676.14 320.16 682.71 323.11 689.28 325.67 696.03 328.96 702.44 331.9 709.02 334.86 715.59 338.06 722.05 341.03 728.62 343.71 735.32 346.8 741.83 349.31 748.59 352.5 755.06 355.18 761.75 358.38 768.22 361.23 774.84 364.29 781.36 367.24 787.93 370.21 794.51 373.27 801.04 376.49 807.23 378.58 800.55 380.83 793.67 383.57 786.96 385.7 780.03 388.68 773.41 390.93 766.52 393.21 759.65 395.8 752.88 398.4 746.12 400.74 739.26 402.46 732.2 404.98 725.41 407.2 718.51 409.86 711.76 412.09 704.87 414.56 698.07 416.78 691.17 420.05 684.64 421.85 677.6 424.44 670.83 426.61 663.92 429.66 657.31 431.38 650.24 433.75 643.39 436.25 636.6 438.69 629.78 440.91 622.88 443.99 616.28 446.24 609.4 448.08 602.37 450.74 595.62 453.14 588.79 455.84 582.06 457.94 575.12 460.5 568.34 462.87 561.5 465.26 554.66 467.29 547.69 469.9 540.93 472.04 534 474.38 527.15 477.21 520.47 479.22 513.5 481.72 506.7 484.42 499.97 486.64 493.08 489.36 486.36 491.38 479.39 493.64 472.51 496.05 465.67 498.74 458.94 501.11 452.09 504.01 445.44 506.25 438.54 508.16 431.53 510.73 424.75 512.88 417.83 515.43 411.05 517.76 404.18 520.55 397.48 522.58 390.51 525.15 383.74 527.17 376.76 530.12 370.12 532.68 363.34 534.76 356.38 537.11 349.53 539.64 342.73 542.1 335.91 544.61 329.1"/><polygon class="cls-1" points="693.29 107.38 684.85 105.75 676.35 104.43 668.63 103.82 660.8 104.37 653.63 107.53 647.4 110.87 641.25 114.38 635.1 117.89 628.81 121.15 622.48 124.34 616.46 128.09 610.01 131.04 603.97 134.77 597.69 138.05 591.38 141.26 585.02 144.4 578.85 147.87 572.61 151.22 566.4 154.64 559.99 157.69 553.76 161.05 547.6 164.57 541.49 168.16 535.1 171.23 528.86 174.58 522.78 178.24 516.33 181.2 510.4 185.14 503.97 188.14 497.77 191.57 491.53 194.94 485.46 198.63 478.71 201.67 486.46 202.93 493.98 203.9 501.44 205.26 508.88 206.77 516.43 207.57 523.94 208.67 531.43 210.62 537.8 207.1 543.72 203.04 550.18 199.94 556.4 196.43 562.62 192.9 568.9 189.48 574.92 185.59 581.39 182.52 587.77 179.27 593.66 175.16 600.09 172.01 606.43 168.69 612.54 164.97 618.82 161.53 624.98 157.9 631.54 154.99 637.39 150.78 643.74 147.49 650.01 144.06 656.35 140.75 662.47 137.04 668.73 133.57 674.96 130.04 681.4 126.92 687.34 122.86 693.66 119.49 699.79 115.83 700.45 109.83 693.29 107.38"/><polygon class="cls-2" points="691.21 90.72 683.6 89.63 675.98 88.58 668.43 87.07 660.63 86.69 652.97 88.05 645.46 90.23 639.29 93.66 633.24 97.36 626.79 100.34 620.62 103.79 614.61 107.56 608.33 110.85 601.85 113.75 595.65 117.17 589.68 121.04 583.48 124.46 576.88 127.14 571.04 131.23 564.7 134.41 558.26 137.38 552.14 140.96 545.81 144.14 539.54 147.45 533.2 150.62 527 154.03 520.73 157.34 514.57 160.84 508.69 164.86 502.01 167.42 495.83 170.88 489.57 174.21 483.33 177.57 477.11 180.99 471.05 184.58 478.5 185.65 485.96 186.99 493.47 188.06 500.85 189.92 508.39 190.79 515.8 192.47 523.35 193.16 529.58 189.84 535.9 186.64 542.17 183.35 548.25 179.72 554.46 176.31 560.72 173 566.82 169.4 573.21 166.32 579.72 163.47 585.5 159.27 591.95 156.3 598.03 152.66 604.25 149.26 610.74 146.38 617 143.05 622.95 139.15 629.3 136.01 635.85 133.24 642.05 129.81 647.89 125.71 654.5 123.04 660.4 119.06 666.66 115.72 672.85 112.28 679.11 108.96 685.48 105.83 691.88 102.76 698.26 99.6 698.05 93.39 691.21 90.72"/><polygon class="cls-1" points="691.21 90.72 683.6 89.63 675.98 88.58 668.43 87.07 660.63 86.69 652.97 88.05 645.46 90.23 639.29 93.66 633.24 97.36 626.79 100.34 620.62 103.79 614.61 107.56 608.33 110.85 601.85 113.75 595.65 117.17 589.68 121.04 583.48 124.46 576.88 127.14 571.04 131.23 564.7 134.41 558.26 137.38 552.14 140.96 545.81 144.14 539.54 147.45 533.2 150.62 527 154.03 520.73 157.34 514.57 160.84 508.69 164.86 502.01 167.42 495.83 170.88 489.57 174.21 483.33 177.57 477.11 180.99 471.05 184.58 478.5 185.65 485.96 186.99 493.47 188.06 500.85 189.92 508.39 190.79 515.8 192.47 523.35 193.16 529.58 189.84 535.9 186.64 542.17 183.35 548.25 179.72 554.46 176.31 560.72 173 566.82 169.4 573.21 166.32 579.72 163.47 585.5 159.27 591.95 156.3 598.03 152.66 604.25 149.26 610.74 146.38 617 143.05 622.95 139.15 629.3 136.01 635.85 133.24 642.05 129.81 647.89 125.71 654.5 123.04 660.4 119.06 666.66 115.72 672.85 112.28 679.11 108.96 685.48 105.83 691.88 102.76 698.26 99.6 698.05 93.39 691.21 90.72"/><polygon points="459.29 208.35 465.62 209.85 472.43 210.58 479.05 211.3 484.54 207.19 490.34 203.21 495.9 198.88 501.93 195.18 507.2 190.61 500.59 189.3 493.8 188.44 487.15 187.61 481.45 191.5 475.78 195.67 470.41 200.24 464.72 204.4 459.29 208.35"/><polygon class="cls-1" points="459.29 208.35 465.62 209.85 472.43 210.58 479.05 211.3 484.54 207.19 490.34 203.21 495.9 198.88 501.93 195.18 507.2 190.61 500.59 189.3 493.8 188.44 487.15 187.61 481.45 191.5 475.78 195.67 470.41 200.24 464.72 204.4 459.29 208.35"/><polygon points="462.72 236.88 469.84 239.01 477.03 240.11 483.98 242.16 491.04 244.14 495.82 238.27 500.73 232.6 505.75 227.03 510.71 221.41 515.46 215.62 519.98 209.61 525.3 204.29 529.9 198.46 522.9 196.99 515.86 195.31 509.05 192.68 501.95 191.26 497.02 196.9 492.22 202.65 487.4 208.4 482.13 213.76 477.6 219.74 472.62 225.35 467.67 230.99 462.72 236.88"/><polygon class="cls-1" points="462.72 236.88 469.84 239.01 477.03 240.11 483.98 242.16 491.04 244.14 495.82 238.27 500.73 232.6 505.75 227.03 510.71 221.41 515.46 215.62 519.98 209.61 525.3 204.29 529.9 198.46 522.9 196.99 515.86 195.31 509.05 192.68 501.95 191.26 497.02 196.9 492.22 202.65 487.4 208.4 482.13 213.76 477.6 219.74 472.62 225.35 467.67 230.99 462.72 236.88"/><polygon points="650.67 87.28 658.18 87.85 665.57 89.64 673.14 90.3 680.58 91.8 688.05 93.1 695.51 94.48 703.03 95.68 697.21 99.77 691.86 104.41 686.14 108.56 680.69 113.08 674.85 117.08 669.2 121.34 663.55 125.6 658.08 130.4 650.78 128.36 643.59 126.64 636.39 124.92 629.39 122.44 622.22 120.63 614.94 119.25 607.84 117.11 600.38 115.46 606.93 111.97 613.08 108.25 619.3 104.65 625.78 101.52 631.79 97.56 638.31 94.49 644.25 90.38 650.67 87.28"/><polygon class="cls-2" points="577.23 272.81 569.02 272.49 560.56 272.3 554.66 268.08 548.92 263.46 542.47 259.91 535.85 256.71 529.2 253.62 522.73 250.04 515.8 247.54 508.92 244.9 501.91 242.63 494.62 241.36 487.52 239.44 480.38 237.67 473.21 236.03 465.93 234.92 458.69 233.61 451.61 232.61 444.57 231.35 437.44 230.81 430.41 229.38 423.29 228.67 416.17 227.99 408.99 228.09 401.88 227.18 394.73 226.92 387.58 226.65 380.42 226.66 373.27 226.94 366.11 226.69 358.97 227.29 351.84 227.9 344.68 227.76 337.52 227.98 330.37 228.2 323.26 229.15 316.19 230.33 309.03 230.59 301.99 231.93 294.8 232.15 287.79 233.69 280.78 235.14 273.76 236.5 266.56 236.95 259.69 239.07 252.55 239.91 245.8 242.44 238.73 243.65 231.87 245.65 225.05 247.82 218.27 250.08 211.51 252.4 204.84 254.94 197.9 256.82 191.44 259.92 185.03 263.07 178.45 265.88 172.23 269.4 166.16 273.16 160.16 277 154.07 280.75 148.17 285.7 142.39 290.75 142.49 290.75 135 290.37 127.78 290.8 127.36 297.54 127.18 304.57 127.75 311.62 127.81 318.68 127.5 325.86 128.79 332.95 131.75 339.53 135.73 345.54 140.61 350.82 145.71 355.89 151.32 360.42 157.19 364.63 163.74 367.71 169.82 371.63 176.55 374.26 183.07 377.37 189.94 379.61 196.61 382.4 203.65 384.02 210.46 386.47 217.42 388.39 224.66 389.13 231.59 391.21 238.76 392.13 245.76 393.98 252.9 394.61 259.98 395.59 267.1 396.26 274.13 397.64 281.31 397.74 288.43 398.26 295.51 399.56 302.67 399.75 309.81 400.19 316.98 399.69 324.12 400.31 331.27 399.67 338.42 399.64 345.57 399.62 352.73 399.81 359.87 399.26 367.02 398.98 374.16 398.6 381.24 397.35 388.36 396.74 395.5 396.28 402.54 394.92 409.72 394.63 416.69 392.9 423.77 391.86 430.96 391.46 437.85 389.36 444.83 387.81 451.82 386.32 458.76 384.6 465.71 382.95 472.79 381.74 479.44 379 486.4 377.29 493.24 375.18 499.91 372.61 506.71 370.33 512.98 366.8 519.83 364.57 526.16 361.23 532.62 358.14 538.35 353.77 544.63 350.35 550.52 346.3 556.39 341.27 562.38 336.34 567.04 330.15 571.59 323.92 575.18 317.06 577.26 309.66 577.36 309.49 578 302.1 577.42 294.7 577.65 287.31 577.2 279.91 577.23 272.81"/><polygon class="cls-3" points="577.23 272.81 569.02 272.49 560.56 272.3 554.66 268.08 548.92 263.46 542.47 259.91 535.85 256.71 529.2 253.62 522.73 250.04 515.8 247.54 508.92 244.9 501.91 242.63 494.62 241.36 487.52 239.44 480.38 237.67 473.21 236.03 465.93 234.92 458.69 233.61 451.61 232.61 444.57 231.35 437.44 230.81 430.41 229.38 423.29 228.67 416.17 227.99 408.99 228.09 401.88 227.18 394.73 226.92 387.58 226.65 380.42 226.66 373.27 226.94 366.11 226.69 358.97 227.29 351.84 227.9 344.68 227.76 337.52 227.98 330.37 228.2 323.26 229.15 316.19 230.33 309.03 230.59 301.99 231.93 294.8 232.15 287.79 233.69 280.78 235.14 273.76 236.5 266.56 236.95 259.69 239.07 252.55 239.91 245.8 242.44 238.73 243.65 231.87 245.65 225.05 247.82 218.27 250.08 211.51 252.4 204.84 254.94 197.9 256.82 191.44 259.92 185.03 263.07 178.45 265.88 172.23 269.4 166.16 273.16 160.16 277 154.07 280.75 148.17 285.7 142.39 290.75 142.49 290.75 135 290.37 127.78 290.8 127.36 297.54 127.18 304.57 127.75 311.62 127.81 318.68 127.5 325.86 128.79 332.95 131.75 339.53 135.73 345.54 140.61 350.82 145.71 355.89 151.32 360.42 157.19 364.63 163.74 367.71 169.82 371.63 176.55 374.26 183.07 377.37 189.94 379.61 196.61 382.4 203.65 384.02 210.46 386.47 217.42 388.39 224.66 389.13 231.59 391.21 238.76 392.13 245.76 393.98 252.9 394.61 259.98 395.59 267.1 396.26 274.13 397.64 281.31 397.74 288.43 398.26 295.51 399.56 302.67 399.75 309.81 400.19 316.98 399.69 324.12 400.31 331.27 399.67 338.42 399.64 345.57 399.62 352.73 399.81 359.87 399.26 367.02 398.98 374.16 398.6 381.24 397.35 388.36 396.74 395.5 396.28 402.54 394.92 409.72 394.63 416.69 392.9 423.77 391.86 430.96 391.46 437.85 389.36 444.83 387.81 451.82 386.32 458.76 384.6 465.71 382.95 472.79 381.74 479.44 379 486.4 377.29 493.24 375.18 499.91 372.61 506.71 370.33 512.98 366.8 519.83 364.57 526.16 361.23 532.62 358.14 538.35 353.77 544.63 350.35 550.52 346.3 556.39 341.27 562.38 336.34 567.04 330.15 571.59 323.92 575.18 317.06 577.26 309.66 577.36 309.49 578 302.1 577.42 294.7 577.65 287.31 577.2 279.91 577.23 272.81"/><polygon points="577.57 262.42 569.02 262.18 560.54 262.42 555 257.63 548.93 253.44 542.31 250.19 536.13 246.17 529.22 243.59 522.78 239.92 515.61 238.07 508.68 235.64 501.77 233.12 494.67 231.16 487.68 228.81 480.43 227.46 473.18 226.16 466.02 224.38 458.79 222.97 451.66 222.26 444.56 221.43 437.52 220.16 430.39 219.5 423.28 218.76 416.18 217.85 409.03 217.46 401.88 217.19 394.72 217.29 387.56 217.49 380.42 217.35 373.27 216.95 366.11 216.73 358.96 216.76 351.81 217.15 344.69 217.94 337.52 217.85 330.42 218.88 323.3 219.51 316.16 219.97 309.04 220.69 301.95 221.66 294.88 222.73 287.81 223.8 280.73 224.82 273.58 225.53 266.67 227.48 259.6 228.62 252.68 230.46 245.79 232.39 238.65 233.35 231.92 235.83 224.97 237.56 218.17 239.78 211.44 242.18 204.64 244.42 197.93 246.89 191.28 249.54 185.06 253.14 178.41 255.79 172.06 259.1 165.81 262.58 160.19 267.05 154.05 270.73 147.96 275.45 142.64 281.06 142.51 280.21 135 280.71 127.46 280.46 127.53 287.54 127.79 294.57 127.64 301.62 127.17 308.66 127.48 315.86 128.84 322.93 131.87 329.47 135.96 335.36 140.23 341.18 145.69 345.92 151.24 350.53 157.25 354.53 163.7 357.78 170.11 361.05 176.56 364.24 183.22 367 190.05 369.29 196.82 371.74 203.56 374.35 210.59 375.97 217.52 377.99 224.63 379.24 231.54 381.45 238.62 382.9 245.77 383.93 252.83 385.08 259.96 385.71 267.06 386.58 274.17 387.31 281.24 388.48 288.4 388.69 295.56 388.77 302.67 389.76 309.81 390.11 316.96 390.48 324.12 390.46 331.27 389.77 338.43 390.08 345.59 390.31 352.73 389.68 359.87 389.31 367.02 388.97 374.15 388.42 381.28 387.83 388.39 387.03 395.54 386.58 402.57 385.19 409.72 384.62 416.84 383.85 423.83 382.21 430.9 381.13 437.88 379.5 444.95 378.37 451.99 377.07 458.85 374.98 465.89 373.65 472.8 371.76 479.67 369.75 486.39 367.27 493.3 365.36 499.97 362.75 506.62 360.11 513.31 357.56 519.54 353.96 526.14 351.2 532.38 347.71 538.55 344.11 544.79 340.6 550.22 335.9 556.57 331.48 562.3 326.27 566.99 320.11 571.32 313.76 575.2 307.06 577.07 299.58 577.16 299.47 577.19 292.1 577.84 284.7 577.64 277.31 577.92 269.9 577.57 262.42"/><polygon class="cls-1" points="577.57 262.42 569.02 262.18 560.54 262.42 555 257.63 548.93 253.44 542.31 250.19 536.13 246.17 529.22 243.59 522.78 239.92 515.61 238.07 508.68 235.64 501.77 233.12 494.67 231.16 487.68 228.81 480.43 227.46 473.18 226.16 466.02 224.38 458.79 222.97 451.66 222.26 444.56 221.43 437.52 220.16 430.39 219.5 423.28 218.76 416.18 217.85 409.03 217.46 401.88 217.19 394.72 217.29 387.56 217.49 380.42 217.35 373.27 216.95 366.11 216.73 358.96 216.76 351.81 217.15 344.69 217.94 337.52 217.85 330.42 218.88 323.3 219.51 316.16 219.97 309.04 220.69 301.95 221.66 294.88 222.73 287.81 223.8 280.73 224.82 273.58 225.53 266.67 227.48 259.6 228.62 252.68 230.46 245.79 232.39 238.65 233.35 231.92 235.83 224.97 237.56 218.17 239.78 211.44 242.18 204.64 244.42 197.93 246.89 191.28 249.54 185.06 253.14 178.41 255.79 172.06 259.1 165.81 262.58 160.19 267.05 154.05 270.73 147.96 275.45 142.64 281.06 142.51 280.21 135 280.71 127.46 280.46 127.53 287.54 127.79 294.57 127.64 301.62 127.17 308.66 127.48 315.86 128.84 322.93 131.87 329.47 135.96 335.36 140.23 341.18 145.69 345.92 151.24 350.53 157.25 354.53 163.7 357.78 170.11 361.05 176.56 364.24 183.22 367 190.05 369.29 196.82 371.74 203.56 374.35 210.59 375.97 217.52 377.99 224.63 379.24 231.54 381.45 238.62 382.9 245.77 383.93 252.83 385.08 259.96 385.71 267.06 386.58 274.17 387.31 281.24 388.48 288.4 388.69 295.56 388.77 302.67 389.76 309.81 390.11 316.96 390.48 324.12 390.46 331.27 389.77 338.43 390.08 345.59 390.31 352.73 389.68 359.87 389.31 367.02 388.97 374.15 388.42 381.28 387.83 388.39 387.03 395.54 386.58 402.57 385.19 409.72 384.62 416.84 383.85 423.83 382.21 430.9 381.13 437.88 379.5 444.95 378.37 451.99 377.07 458.85 374.98 465.89 373.65 472.8 371.76 479.67 369.75 486.39 367.27 493.3 365.36 499.97 362.75 506.62 360.11 513.31 357.56 519.54 353.96 526.14 351.2 532.38 347.71 538.55 344.11 544.79 340.6 550.22 335.9 556.57 331.48 562.3 326.27 566.99 320.11 571.32 313.76 575.2 307.06 577.07 299.58 577.16 299.47 577.19 292.1 577.84 284.7 577.64 277.31 577.92 269.9 577.57 262.42"/><polygon class="cls-2" points="154.03 240.69 159.93 236.65 166 232.88 172.03 229.01 178.28 225.51 184.72 222.37 191.57 220.17 198.14 217.38 204.6 214.25 211.36 211.92 218.2 209.83 225.07 207.83 231.88 205.65 238.73 203.62 245.66 201.83 252.61 200.16 259.57 198.49 266.68 197.56 273.7 196.23 280.78 195.26 287.81 193.99 294.87 192.88 301.88 191.4 308.98 190.48 316.17 190.42 323.23 189.22 330.37 188.71 337.49 188 344.63 187.5 351.78 187.33 358.92 186.81 366.08 186.73 373.24 187.29 380.39 186.72 387.54 187.05 394.69 187.25 401.84 187.54 408.98 187.95 416.12 188.34 423.3 188.42 430.35 189.78 437.44 190.78 444.58 191.25 451.67 192.22 458.73 193.33 465.73 194.59 472.64 196.26 479.64 197.46 486.47 199.45 493.6 200.28 500.36 202.5 507.03 205.01 513.79 207.19 520.53 209.42 526.98 212.42 533.55 215.14 539.8 218.53 546.25 221.57 551.8 226.07 557.38 230.42 562.92 234.85 567.6 240.17 572.03 245.74 575.4 252.05 576.85 259.06 577.19 266.14 576.14 273.15 574.15 280.02 570.51 286.18 565.81 291.54 560.95 296.67 555.77 301.49 550.17 305.84 544.42 310.05 538.41 313.9 532.55 318.04 525.97 320.89 519.81 324.57 513.02 326.92 506.64 330.19 499.79 332.31 493.07 334.74 486.46 337.53 479.56 339.42 472.72 341.53 465.67 342.83 458.88 345.13 451.92 346.79 444.94 348.36 437.82 349.22 430.87 350.89 423.81 351.99 416.86 353.83 409.7 354.31 402.64 355.46 395.56 356.46 388.45 357.27 381.35 358.12 374.19 358.44 367.05 358.88 359.91 359.25 352.77 359.7 345.62 360.16 338.45 359.55 331.31 360.26 324.16 360.16 317.01 359.59 309.85 359.84 302.73 359.07 295.57 358.92 288.43 358.63 281.25 358.57 274.19 357.24 267.02 356.98 259.98 355.57 252.82 355.18 245.77 353.95 238.77 352.66 231.86 350.97 224.88 349.6 218.06 347.6 210.97 346.63 204.12 344.69 197.31 342.63 190.74 339.87 183.99 337.61 177.59 334.5 170.97 331.91 164.73 328.5 158.67 324.81 152.39 321.43 146.79 317.03 141.82 311.94 136.93 306.83 132.49 301.27 129.36 294.86 127.77 287.92 127.72 280.87 128.08 273.75 130.94 267.23 134.32 260.99 138.33 255.11 143.12 249.84 148.27 244.91 154.03 240.69"/><polygon class="cls-1" points="154.03 240.69 159.93 236.65 166 232.88 172.03 229.01 178.28 225.51 184.72 222.37 191.57 220.17 198.14 217.38 204.6 214.25 211.36 211.92 218.2 209.83 225.07 207.83 231.88 205.65 238.73 203.62 245.66 201.83 252.61 200.16 259.57 198.49 266.68 197.56 273.7 196.23 280.78 195.26 287.81 193.99 294.87 192.88 301.88 191.4 308.98 190.48 316.17 190.42 323.23 189.22 330.37 188.71 337.49 188 344.63 187.5 351.78 187.33 358.92 186.81 366.08 186.73 373.24 187.29 380.39 186.72 387.54 187.05 394.69 187.25 401.84 187.54 408.98 187.95 416.12 188.34 423.3 188.42 430.35 189.78 437.44 190.78 444.58 191.25 451.67 192.22 458.73 193.33 465.73 194.59 472.64 196.26 479.64 197.46 486.47 199.45 493.6 200.28 500.36 202.5 507.03 205.01 513.79 207.19 520.53 209.42 526.98 212.42 533.55 215.14 539.8 218.53 546.25 221.57 551.8 226.07 557.38 230.42 562.92 234.85 567.6 240.17 572.03 245.74 575.4 252.05 576.85 259.06 577.19 266.14 576.14 273.15 574.15 280.02 570.51 286.18 565.81 291.54 560.95 296.67 555.77 301.49 550.17 305.84 544.42 310.05 538.41 313.9 532.55 318.04 525.97 320.89 519.81 324.57 513.02 326.92 506.64 330.19 499.79 332.31 493.07 334.74 486.46 337.53 479.56 339.42 472.72 341.53 465.67 342.83 458.88 345.13 451.92 346.79 444.94 348.36 437.82 349.22 430.87 350.89 423.81 351.99 416.86 353.83 409.7 354.31 402.64 355.46 395.56 356.46 388.45 357.27 381.35 358.12 374.19 358.44 367.05 358.88 359.91 359.25 352.77 359.7 345.62 360.16 338.45 359.55 331.31 360.26 324.16 360.16 317.01 359.59 309.85 359.84 302.73 359.07 295.57 358.92 288.43 358.63 281.25 358.57 274.19 357.24 267.02 356.98 259.98 355.57 252.82 355.18 245.77 353.95 238.77 352.66 231.86 350.97 224.88 349.6 218.06 347.6 210.97 346.63 204.12 344.69 197.31 342.63 190.74 339.87 183.99 337.61 177.59 334.5 170.97 331.91 164.73 328.5 158.67 324.81 152.39 321.43 146.79 317.03 141.82 311.94 136.93 306.83 132.49 301.27 129.36 294.86 127.77 287.92 127.72 280.87 128.08 273.75 130.94 267.23 134.32 260.99 138.33 255.11 143.12 249.84 148.27 244.91 154.03 240.69"/><polygon class="cls-2" points="175.64 247.38 182.15 244.39 188.33 240.9 194.64 237.63 200.95 234.3 207.56 231.64 214.49 229.87 221.13 227.33 227.83 224.9 234.74 223.14 241.57 221.17 248.46 219.35 255.38 217.66 262.42 216.51 269.49 215.58 276.38 213.75 283.48 213.06 290.51 211.96 297.6 211.31 304.63 210.2 311.71 209.5 318.73 208.12 325.83 207.56 332.94 207.13 340.08 207.17 347.19 206.87 354.3 206.71 361.41 206.26 368.53 206.48 375.65 206.25 382.77 205.94 389.88 206.5 396.99 206.94 404.1 207.12 411.24 207.05 418.29 208.25 425.38 208.87 432.47 209.51 439.62 209.63 446.6 211.15 453.88 211.91 461.01 213.53 468.26 214.56 475.27 216.7 482.46 218.01 489.58 219.65 496.61 221.66 503.47 224.19 510.39 226.56 516.86 229.99 523.64 232.73 530.05 236.26 535.81 240.75 541.64 245.13 546.17 250.82 549.96 256.98 551.56 264 551.42 271.23 548.67 277.96 544.87 284.21 539.49 289.16 534.21 294.21 528.23 298.43 522.08 302.01 515.68 305.12 509.47 308.61 503.06 311.74 496.48 314.47 489.47 316.02 482.8 318.46 476.06 320.76 469.19 322.58 462.49 325.06 455.48 326.41 448.59 328.21 441.58 329.45 434.56 330.63 427.65 332.46 420.61 333.51 413.53 334.28 406.44 334.97 399.45 336.45 392.34 337 385.28 337.97 378.15 338.23 371.04 338.49 363.94 339.18 356.82 339.36 349.71 339.68 342.59 339.79 335.47 340.16 328.35 339.53 321.23 340.03 314.11 339.85 306.97 339.98 299.87 339.38 292.76 338.85 285.65 338.47 278.6 337.38 271.46 337.15 264.47 335.66 257.3 335.5 250.21 333.54 242.87 333.09 235.72 331.54 228.68 329.53 221.5 328.14 214.58 325.76 207.46 324.13 200.5 321.9 193.49 319.76 187.02 316.27 180.3 313.37 174.07 309.55 167.75 305.84 162.1 301.14 157.58 295.36 154.03 289.02 151.96 282.04 152.26 274.7 155.62 268.19 158.99 261.68 164.28 256.59 170.07 252.16 175.64 247.38"/><polygon class="cls-1" points="175.64 247.38 182.15 244.39 188.33 240.9 194.64 237.63 200.95 234.3 207.56 231.64 214.49 229.87 221.13 227.33 227.83 224.9 234.74 223.14 241.57 221.17 248.46 219.35 255.38 217.66 262.42 216.51 269.49 215.58 276.38 213.75 283.48 213.06 290.51 211.96 297.6 211.31 304.63 210.2 311.71 209.5 318.73 208.12 325.83 207.56 332.94 207.13 340.08 207.17 347.19 206.87 354.3 206.71 361.41 206.26 368.53 206.48 375.65 206.25 382.77 205.94 389.88 206.5 396.99 206.94 404.1 207.12 411.24 207.05 418.29 208.25 425.38 208.87 432.47 209.51 439.62 209.63 446.6 211.15 453.88 211.91 461.01 213.53 468.26 214.56 475.27 216.7 482.46 218.01 489.58 219.65 496.61 221.66 503.47 224.19 510.39 226.56 516.86 229.99 523.64 232.73 530.05 236.26 535.81 240.75 541.64 245.13 546.17 250.82 549.96 256.98 551.56 264 551.42 271.23 548.67 277.96 544.87 284.21 539.49 289.16 534.21 294.21 528.23 298.43 522.08 302.01 515.68 305.12 509.47 308.61 503.06 311.74 496.48 314.47 489.47 316.02 482.8 318.46 476.06 320.76 469.19 322.58 462.49 325.06 455.48 326.41 448.59 328.21 441.58 329.45 434.56 330.63 427.65 332.46 420.61 333.51 413.53 334.28 406.44 334.97 399.45 336.45 392.34 337 385.28 337.97 378.15 338.23 371.04 338.49 363.94 339.18 356.82 339.36 349.71 339.68 342.59 339.79 335.47 340.16 328.35 339.53 321.23 340.03 314.11 339.85 306.97 339.98 299.87 339.38 292.76 338.85 285.65 338.47 278.6 337.38 271.46 337.15 264.47 335.66 257.3 335.5 250.21 333.54 242.87 333.09 235.72 331.54 228.68 329.53 221.5 328.14 214.58 325.76 207.46 324.13 200.5 321.9 193.49 319.76 187.02 316.27 180.3 313.37 174.07 309.55 167.75 305.84 162.1 301.14 157.58 295.36 154.03 289.02 151.96 282.04 152.26 274.7 155.62 268.19 158.99 261.68 164.28 256.59 170.07 252.16 175.64 247.38"/><polygon points="658.72 125.6 659.11 132.38 659.46 139.35 665.36 135.5 671.31 131.88 677.73 129.06 683.28 124.76 689.53 121.65 695.68 118.36 701.1 114.3 700.44 107.21 699.67 99.88 699.42 92.69 693.64 97.21 687.89 102.05 681.81 106.49 676.3 111.62 670.51 116.42 664.28 120.69 658.72 125.6"/><polygon class="cls-1" points="658.72 125.6 659.11 132.38 659.46 139.35 665.36 135.5 671.31 131.88 677.73 129.06 683.28 124.76 689.53 121.65 695.68 118.36 701.1 114.3 700.44 107.21 699.67 99.88 699.42 92.69 693.64 97.21 687.89 102.05 681.81 106.49 676.3 111.62 670.51 116.42 664.28 120.69 658.72 125.6"/></svg>