<svg xmlns="http://www.w3.org/2000/svg" viewBox="0 0 800 800"><defs><style>.a{fill:#fff;}.b,.c{fill:none;stroke-linejoin:bevel;stroke-width:13px;}.b{stroke:#000;}.c{stroke:#fff;}</style></defs><title>canvas (31)</title><polygon class="a" points="537.59 221.43 531.57 225.07 524.71 226.66 517.88 228.2 511.24 225.7 508.12 219.38 508.06 212.37 509.59 205.3 512.5 198.69 515.75 192.25 519.6 186.14 524.09 180.48 529.32 175.5 534.33 170.36 539.68 165.55 545.57 161.41 551.79 158.25 558.2 155.49 565.12 155.05 571.62 157.16 575.04 163.25 575.08 170.3 573.28 177.3 570.25 183.82 567.12 190.3 563.33 196.43 559.14 202.33 554.2 207.6 548.79 212.38 543.47 217.25 537.59 221.43"/><polygon class="b" points="537.59 221.43 531.57 225.07 524.71 226.66 517.88 228.2 511.24 225.7 508.12 219.38 508.06 212.37 509.59 205.3 512.5 198.69 515.75 192.25 519.6 186.14 524.09 180.48 529.32 175.5 534.33 170.36 539.68 165.55 545.57 161.41 551.79 158.25 558.2 155.49 565.12 155.05 571.62 157.16 575.04 163.25 575.08 170.3 573.28 177.3 570.25 183.82 567.12 190.3 563.33 196.43 559.14 202.33 554.2 207.6 548.79 212.38 543.47 217.25 537.59 221.43"/><polygon points="299.19 244.98 306.59 246.26 313.67 246.79 320.74 247.35 327.83 247.09 334.9 246.5 342 246.22 349.03 245.26 355.89 243.39 362.94 242.4 369.74 240.34 376.65 238.65 383.17 235.76 389.84 233.3 396.32 229.42 402.81 225.62 409.21 221.55 414.84 216.49 419.87 210.84 424.57 204.93 429.01 198.85 433.78 192.98 437.63 186.49 442.36 180.56 445.88 173.85 450.54 167.91 454.75 161.65 459.77 156.03 465.26 150.89 472 147.7 479.21 146.04 486.01 147.34 492.45 150.18 497.54 155.07 502.29 160.2 506.74 165.6 511.25 171 515.01 176.94 519.03 182.74 521.7 189.29 525.31 195.34 528.09 201.81 531.23 208.11 533.46 214.79 535.82 221.09 540.96 216.06 546.2 211.05 551.6 206.18 556.59 200.89 561.43 195.47 559.15 188.62 555.96 181.88 553.64 174.78 550.53 168 546.78 161.54 542.59 155.37 539.31 148.7 534.78 142.84 529.69 137.48 524.71 132.05 519.08 127.33 513.6 122.34 507.27 118.47 500.37 115.81 493.43 113.24 486.06 112.57 478.73 111.63 471.63 112.82 464.47 113.56 457.62 115.83 451.07 118.89 445.15 123.04 440.06 128.14 434.66 132.87 430.26 138.55 425.24 143.75 421.27 149.75 417.05 155.57 413.52 161.85 409.59 167.57 405.98 173.5 401.97 179.16 397.27 184.28 392.63 189.39 388.04 194.61 382.55 198.9 376.29 201.98 369.58 204.22 362.94 206.59 356.21 208.73 349.41 210.68 342.44 211.94 335.36 212.28 328.32 212.6 321.29 212.72 314.22 212.94 306.93 211.8 305.39 218.43 304.53 225.21 303.09 231.87 301.48 238.5 299.19 244.98"/><polygon class="b" points="299.19 244.98 306.59 246.26 313.67 246.79 320.74 247.35 327.83 247.09 334.9 246.5 342 246.22 349.03 245.26 355.89 243.39 362.94 242.4 369.74 240.34 376.65 238.65 383.17 235.76 389.84 233.3 396.32 229.42 402.81 225.62 409.21 221.55 414.84 216.49 419.87 210.84 424.57 204.93 429.01 198.85 433.78 192.98 437.63 186.49 442.36 180.56 445.88 173.85 450.54 167.91 454.75 161.65 459.77 156.03 465.26 150.89 472 147.7 479.21 146.04 486.01 147.34 492.45 150.18 497.54 155.07 502.29 160.2 506.74 165.6 511.25 171 515.01 176.94 519.03 182.74 521.7 189.29 525.31 195.34 528.09 201.81 531.23 208.11 533.46 214.79 535.82 221.09 540.96 216.06 546.2 211.05 551.6 206.18 556.59 200.89 561.43 195.47 559.15 188.62 555.96 181.88 553.64 174.78 550.53 168 546.78 161.54 542.59 155.37 539.31 148.7 534.78 142.84 529.69 137.48 524.71 132.05 519.08 127.33 513.6 122.34 507.27 118.47 500.37 115.81 493.43 113.24 486.06 112.57 478.73 111.63 471.63 112.82 464.47 113.56 457.62 115.83 451.07 118.89 445.15 123.04 440.06 128.14 434.66 132.87 430.26 138.55 425.24 143.75 421.27 149.75 417.05 155.57 413.52 161.85 409.59 167.57 405.98 173.5 401.97 179.16 397.27 184.28 392.63 189.39 388.04 194.61 382.55 198.9 376.29 201.98 369.58 204.22 362.94 206.59 356.21 208.73 349.41 210.68 342.44 211.94 335.36 212.28 328.32 212.6 321.29 212.72 314.22 212.94 306.93 211.8 305.39 218.43 304.53 225.21 303.09 231.87 301.48 238.5 299.19 244.98"/><polygon class="a" points="313.48 200.03 317.77 204.82 319.36 211.35 320.03 218.04 319.52 224.75 318.74 231.39 318.15 238.05 316.88 244.63 314.55 250.9 311.86 256.96 306.96 261.09 302.78 256.1 301.52 249.54 300.59 242.9 301.21 236.22 301.21 229.51 302.1 222.87 303.77 216.38 305.2 209.8 308.3 203.81 313.48 200.03"/><polygon class="c" points="313.48 200.03 317.77 204.82 319.36 211.35 320.03 218.04 319.52 224.75 318.74 231.39 318.15 238.05 316.88 244.63 314.55 250.9 311.86 256.96 306.96 261.09 302.78 256.1 301.52 249.54 300.59 242.9 301.21 236.22 301.21 229.51 302.1 222.87 303.77 216.38 305.2 209.8 308.3 203.81 313.48 200.03"/><polygon class="a" points="306.69 197.32 310.77 202.33 312.61 208.79 313.19 215.49 312.99 222.2 311.94 228.83 311.82 235.58 310.04 242.06 308.49 248.62 304.84 254.27 300.17 258.35 296.3 253.43 294.74 246.98 293.67 240.35 294.34 233.66 294.98 227.02 295.43 220.34 297.05 213.84 298.38 207.24 301.27 201.12 306.69 197.32"/><polygon class="b" points="306.69 197.32 310.77 202.33 312.61 208.79 313.19 215.49 312.99 222.2 311.94 228.83 311.82 235.58 310.04 242.06 308.49 248.62 304.84 254.27 300.17 258.35 296.3 253.43 294.74 246.98 293.67 240.35 294.34 233.66 294.98 227.02 295.43 220.34 297.05 213.84 298.38 207.24 301.27 201.12 306.69 197.32"/><polyline class="a" points="265.12 227.96 257.66 227.58 250.4 225.7 243.07 224.41 235.87 222.54 228.68 220.49 222.33 216.58 216.12 211.59 214.15 203.77 218.7 197.19 226.39 196.48 232.92 198.6 239.31 201.13 245.92 203.01 252.58 204.75 259.18 206.57"/><polyline class="b" points="265.12 227.96 257.66 227.58 250.4 225.7 243.07 224.41 235.87 222.54 228.68 220.49 222.33 216.58 216.12 211.59 214.15 203.77 218.7 197.19 226.39 196.48 232.92 198.6 239.31 201.13 245.92 203.01 252.58 204.75 259.18 206.57"/><polyline class="a" points="259.36 206.97 252.52 204.42 245.96 201.2 239.44 197.95 232.88 194.78 226.9 190.64 221.42 186 220.06 179.71 223.61 174.06 229.7 171.54 236.34 171.12 242.51 173.83 248.71 176.56 254.27 180.41 259.61 184.56 265.09 188.69"/><polyline class="b" points="259.36 206.97 252.52 204.42 245.96 201.2 239.44 197.95 232.88 194.78 226.9 190.64 221.42 186 220.06 179.71 223.61 174.06 229.7 171.54 236.34 171.12 242.51 173.83 248.71 176.56 254.27 180.41 259.61 184.56 265.09 188.69"/><polyline class="a" points="268.86 192.73 264.45 187.21 261.81 180.66 261.21 173.6 263.27 166.82 266.84 160.71 272.8 161.76 277.48 166.71 282.23 171.75 285.78 177.71 289.68 183.41 293.23 189.36 297.61 194.41 300.79 200.27 303.75 206.22 306.94 211.88 306.19 218.61 305.66 225.41 304.89 232.19 304.56 239.01 302.96 245.57 296.26 247.85 289.06 250.01 281.57 250.76 274.07 250.08 266.57 250.12 259.17 248.88 251.8 247.01 244.44 245.05 238.22 240.67 236.04 233.81 240.96 228.28 248.06 225.52 255.63 226.31 262.93 228.09"/><polyline class="b" points="268.86 192.73 264.45 187.21 261.81 180.66 261.21 173.6 263.27 166.82 266.84 160.71 272.8 161.76 277.48 166.71 282.23 171.75 285.78 177.71 289.68 183.41 293.23 189.36 297.61 194.41 300.79 200.27 303.75 206.22 306.94 211.88 306.19 218.61 305.66 225.41 304.89 232.19 304.56 239.01 302.96 245.57 296.26 247.85 289.06 250.01 281.57 250.76 274.07 250.08 266.57 250.12 259.17 248.88 251.8 247.01 244.44 245.05 238.22 240.67 236.04 233.81 240.96 228.28 248.06 225.52 255.63 226.31 262.93 228.09"/><polygon class="a" points="377.62 389.98 371.5 393.42 364.84 395.66 357.91 396.44 351.6 393.8 348.25 387.86 347.88 380.85 349.74 373.86 352.97 367.42 356.06 360.94 360.23 355.09 364.52 349.34 369.09 343.79 374.2 338.72 379.39 333.67 385.77 330.22 391.53 326.19 398.22 324.03 405.17 322.86 411.75 325.53 414.77 331.81 414.48 338.72 413.31 345.81 410.06 352.24 407.02 358.75 403.46 365.03 398.5 370.3 394.28 376.19 388.76 380.85 383.12 385.29 377.62 389.98"/><polygon class="b" points="377.62 389.98 371.5 393.42 364.84 395.66 357.91 396.44 351.6 393.8 348.25 387.86 347.88 380.85 349.74 373.86 352.97 367.42 356.06 360.94 360.23 355.09 364.52 349.34 369.09 343.79 374.2 338.72 379.39 333.67 385.77 330.22 391.53 326.19 398.22 324.03 405.17 322.86 411.75 325.53 414.77 331.81 414.48 338.72 413.31 345.81 410.06 352.24 407.02 358.75 403.46 365.03 398.5 370.3 394.28 376.19 388.76 380.85 383.12 385.29 377.62 389.98"/><polygon points="139.34 413.51 146.6 414.71 153.64 415.71 160.75 415.5 167.83 415.42 174.9 415.04 182.03 415.02 188.92 413.1 196.02 412.5 202.84 410.51 209.71 408.73 216.54 406.8 223.18 404.28 229.58 401.2 236.69 398.57 243.05 394.46 248.67 389.4 254.41 384.55 259.68 379.17 264.53 373.4 268.97 367.32 273.87 361.55 277.48 354.89 281.75 348.68 286.16 342.55 289.98 336.02 294.97 330.33 299.8 324.56 305.22 319.34 311.75 315.51 319.2 314.01 326.1 315.61 332.05 319.29 337.84 323.25 342.8 328.26 347.47 333.55 351.35 339.44 354.64 345.68 358.2 351.72 362.4 357.43 365.23 363.89 367.84 370.43 370.7 376.84 373.97 383.1 376.03 389.93 381.1 384.7 386.05 379.4 391.33 374.41 396.68 369.48 401.6 364.13 399.12 357.14 396.12 350.33 393.5 343.35 389.79 336.88 387.12 329.86 382.97 323.65 379.24 317.26 374.39 311.65 369.67 306.01 364.98 300.29 359.37 295.49 353.26 291.35 347.34 286.87 340.24 284.65 333.33 282.16 326.1 280.74 318.73 280.16 311.52 280.49 304.62 282.63 297.84 284.86 291.56 288.24 285.37 291.83 280.11 296.7 274.88 301.58 269.76 306.65 265.72 312.61 261.25 318.24 257.37 324.29 253.78 330.52 249.35 335.91 246 342.02 241.88 347.6 237.85 353.26 233.05 358.3 227.61 362.61 222.38 367.14 216.25 370.38 209.64 372.86 203.08 375.53 196.14 376.93 189.43 379.24 182.41 380.18 175.37 380.79 168.37 382.02 161.28 381.72 154.22 381.51 147.04 380.33 145.38 386.94 144.34 393.68 142.3 400.19 141.47 407 139.34 413.51"/><polygon class="b" points="139.34 413.51 146.6 414.71 153.64 415.71 160.75 415.5 167.83 415.42 174.9 415.04 182.03 415.02 188.92 413.1 196.02 412.5 202.84 410.51 209.71 408.73 216.54 406.8 223.18 404.28 229.58 401.2 236.69 398.57 243.05 394.46 248.67 389.4 254.41 384.55 259.68 379.17 264.53 373.4 268.97 367.32 273.87 361.55 277.48 354.89 281.75 348.68 286.16 342.55 289.98 336.02 294.97 330.33 299.8 324.56 305.22 319.34 311.75 315.51 319.2 314.01 326.1 315.61 332.05 319.29 337.84 323.25 342.8 328.26 347.47 333.55 351.35 339.44 354.64 345.68 358.2 351.72 362.4 357.43 365.23 363.89 367.84 370.43 370.7 376.84 373.97 383.1 376.03 389.93 381.1 384.7 386.05 379.4 391.33 374.41 396.68 369.48 401.6 364.13 399.12 357.14 396.12 350.33 393.5 343.35 389.79 336.88 387.12 329.86 382.97 323.65 379.24 317.26 374.39 311.65 369.67 306.01 364.98 300.29 359.37 295.49 353.26 291.35 347.34 286.87 340.24 284.65 333.33 282.16 326.1 280.74 318.73 280.16 311.52 280.49 304.62 282.63 297.84 284.86 291.56 288.24 285.37 291.83 280.11 296.7 274.88 301.58 269.76 306.65 265.72 312.61 261.25 318.24 257.37 324.29 253.78 330.52 249.35 335.91 246 342.02 241.88 347.6 237.85 353.26 233.05 358.3 227.61 362.61 222.38 367.14 216.25 370.38 209.64 372.86 203.08 375.53 196.14 376.93 189.43 379.24 182.41 380.18 175.37 380.79 168.37 382.02 161.28 381.72 154.22 381.51 147.04 380.33 145.38 386.94 144.34 393.68 142.3 400.19 141.47 407 139.34 413.51"/><polygon class="a" points="153.45 368.91 157.82 373.31 158.92 379.92 159.92 386.56 159.57 393.25 158.99 399.92 158.03 406.54 157.13 413.2 154.77 419.48 151.82 425.44 146.97 429.53 143.14 424.48 141.6 418.04 140.51 411.41 140.46 404.69 141.03 398 142.65 391.47 143.46 384.8 145.21 378.31 148.16 372.23 153.45 368.91"/><polygon class="c" points="153.45 368.91 157.82 373.31 158.92 379.92 159.92 386.56 159.57 393.25 158.99 399.92 158.03 406.54 157.13 413.2 154.77 419.48 151.82 425.44 146.97 429.53 143.14 424.48 141.6 418.04 140.51 411.41 140.46 404.69 141.03 398 142.65 391.47 143.46 384.8 145.21 378.31 148.16 372.23 153.45 368.91"/><polygon class="a" points="146.69 365.89 150.51 370.94 152.65 377.29 153.21 384 152.8 390.7 152.56 397.41 151.78 404.08 149.85 410.52 148.27 417.04 145.26 423.04 140.19 426.69 135.7 422.15 134.19 415.57 133.67 408.86 134.43 402.17 134.84 395.51 135.49 388.85 136.79 382.28 138.65 375.84 141.55 369.8 146.69 365.89"/><polygon class="b" points="146.69 365.89 150.51 370.94 152.65 377.29 153.21 384 152.8 390.7 152.56 397.41 151.78 404.08 149.85 410.52 148.27 417.04 145.26 423.04 140.19 426.69 135.7 422.15 134.19 415.57 133.67 408.86 134.43 402.17 134.84 395.51 135.49 388.85 136.79 382.28 138.65 375.84 141.55 369.8 146.69 365.89"/><polyline class="a" points="105.11 396.7 97.73 395.57 90.28 394.91 83.01 393.19 75.79 391.33 68.92 388.43 62.09 385.47 56.05 380.15 54.33 372.3 58.81 365.86 66.24 365.36 72.84 367.36 79.35 369.54 86.02 371.21 92.41 373.84 99.1 375.58"/><polyline class="b" points="105.11 396.7 97.73 395.57 90.28 394.91 83.01 393.19 75.79 391.33 68.92 388.43 62.09 385.47 56.05 380.15 54.33 372.3 58.81 365.86 66.24 365.36 72.84 367.36 79.35 369.54 86.02 371.21 92.41 373.84 99.1 375.58"/><polyline class="a" points="99.37 375.46 92.57 372.8 86.08 369.44 79.25 366.83 72.62 363.74 66.82 359.26 61.08 354.78 59.99 348.19 63.55 342.5 69.7 340.06 76.3 339.85 82.59 342.18 88.36 345.62 94.34 348.83 99.5 353.21 105.15 356.64"/><polyline class="b" points="99.37 375.46 92.57 372.8 86.08 369.44 79.25 366.83 72.62 363.74 66.82 359.26 61.08 354.78 59.99 348.19 63.55 342.5 69.7 340.06 76.3 339.85 82.59 342.18 88.36 345.62 94.34 348.83 99.5 353.21 105.15 356.64"/><polyline class="a" points="108.45 361.65 104.55 355.66 101.38 349.26 100.63 342.05 103.19 335.29 106.72 329.1 113.19 329.77 117.66 335.07 121.96 340.45 126.34 345.84 129.83 351.82 133.53 357.65 137.64 362.9 140.76 368.8 144.29 374.43 146.81 380.4 146.19 387.12 145.53 393.9 145.44 400.75 143.73 407.43 143.39 414.25 136.25 416.27 128.96 417.82 121.57 419.24 114.06 418.88 106.61 418.2 99.13 417.62 91.61 416.26 84.6 413.21 77.95 409.45 76.04 402.31 80.77 396.46 88.13 394.43 95.69 394.46 102.87 396.73"/><polyline class="b" points="108.45 361.65 104.55 355.66 101.38 349.26 100.63 342.05 103.19 335.29 106.72 329.1 113.19 329.77 117.66 335.07 121.96 340.45 126.34 345.84 129.83 351.82 133.53 357.65 137.64 362.9 140.76 368.8 144.29 374.43 146.81 380.4 146.19 387.12 145.53 393.9 145.44 400.75 143.73 407.43 143.39 414.25 136.25 416.27 128.96 417.82 121.57 419.24 114.06 418.88 106.61 418.2 99.13 417.62 91.61 416.26 84.6 413.21 77.95 409.45 76.04 402.31 80.77 396.46 88.13 394.43 95.69 394.46 102.87 396.73"/><polygon class="b" points="656.04 124.77 663.02 125.74 669.83 127.62 676.7 129.25 683.69 130.28 690.69 131.28 697.43 133.54 704.83 134.26 702.48 141.41 701.27 148.52 698.67 155.26 697.31 162.33 695.17 169.19 693.37 176.14 691.75 183.14 689.51 189.98 687.77 196.95 685.96 203.9 684.85 211.04 682.98 218.11 677.13 222.5 672.49 227.98 667.05 232.62 661.82 237.49 656.49 242.25 651.25 247.1 646.08 252.03 641.44 257.52 636.26 262.44 630.86 267.12 625.53 271.88 620.25 276.69 615.13 281.67 610.32 286.98 604.7 291.43 599.42 296.25 594.57 301.51 589.36 306.4 584.05 311.19 578.91 316.14 573.74 321.07 568.71 326.15 563.51 331.06 558.28 335.91 552.77 340.47 547.78 345.57 542.4 350.28 537.31 355.3 532.49 360.59 526.81 364.98 522.2 370.49 516.37 374.72 511.23 379.68 506.14 384.7 500.93 389.58 495.74 394.5 490.88 399.75 485.87 404.85 480.62 409.69 475.39 414.57 470.07 419.33 464.95 424.32 459.46 428.92 454.1 433.65 449.01 438.67 444.37 444.16 438.6 448.46 433.75 453.73 428.79 458.89 423.04 463.22 418.38 468.68 412.59 472.96 407.54 478.02 402.22 482.8 397.64 488.36 392.44 493.27 387.25 498.19 382.04 503.09 376.92 508.07 371.32 512.57 366.24 517.62 360.82 522.05 354.37 522.51 347.73 522.37 341.09 522.4 334.45 522.58 327.98 522.55 321.5 522.47 321.5 522.92 313.81 522.18 306.2 522.14 298.64 522.85 291.36 522.34 294.48 516.11 298.3 509.98 302.18 503.87 306.06 497.78 309.74 491.56 312.92 485.03 316.5 478.75 320.44 472.69 324.19 466.5 328.07 460.4 331.31 453.92 335.71 448.13 339.37 441.89 342.62 435.42 346.52 429.32 349.7 422.81 353.97 416.94 357.15 410.43 360.95 404.28 365.06 398.31 368.74 392.09 372.12 385.7 375.77 379.46 379.26 373.12 383.43 367.2 386.78 360.78 391.11 354.94 394.42 348.5 397.92 342.17 401.8 336.07 405.2 329.68 409.27 323.69 412.79 317.37 416.64 311.24 420.64 305.2 423.56 298.53 427.79 292.63 431.27 286.28 435.28 280.25 438.74 273.9 442.07 267.47 446.17 261.49 449.83 255.25 453.47 249 457.23 242.82 460.58 236.4 464.56 230.34 468.57 224.3 472.31 218.21 477.78 213.77 483.27 209.21 489.08 205.06 494.92 200.96 500.71 196.8 506.64 192.82 511.92 187.96 517.76 183.86 523.59 179.74 529.33 175.51 535.07 171.27 540.88 167.13 546.72 163.03 552.16 158.4 557.75 153.95 563.48 149.7 569.47 145.8 574.99 141.25 581.13 137.56 586.61 132.96 592.64 129.1 598.19 124.68 605.37 124.19 612.61 124.92 619.85 124.39 627.09 124.56 634.33 124.68 641.58 124.83 648.82 124.9 656.04 124.77"/><polygon points="588.5 70.76 595.79 70.7 603.09 70.47 610.38 70.5 617.67 70.6 624.97 70.26 632.27 70.93 639.57 70.18 646.72 70.62 644.54 77.15 642.3 83.83 639.96 90.48 638.11 97.29 635.74 103.93 633.36 110.56 631.22 117.27 628.47 123.78 626.02 130.39 623.67 137.04 621.81 143.84 619.49 150.5 617.18 157.17 615.42 164.14 609.93 168.89 604.46 173.5 599.29 178.43 594.29 183.53 589.16 188.5 584.17 193.63 579.07 198.63 573.26 202.88 568.68 208.42 563.43 213.27 558.26 218.2 552.62 222.63 547.82 227.95 542.35 232.56 537.35 237.67 532.03 242.44 526.97 247.48 521.69 252.3 516.74 257.46 511.2 262 506.04 266.94 501.12 272.13 495.57 276.67 490.38 281.56 485.17 286.44 479.91 291.27 474.95 296.41 469.76 301.32 464.56 306.22 459.66 311.42 454.52 316.38 448.85 320.78 443.75 325.79 438.51 330.64 433.34 335.56 428.45 340.79 422.94 345.36 418.16 350.7 412.61 355.23 407.3 360.01 402.31 365.14 397.37 370.31 392.02 375.06 387.03 380.18 381.44 384.67 376.15 389.48 371.25 394.69 365.8 399.34 360.84 404.49 355.95 409.73 350.85 414.73 345.29 419.25 340.22 424.29 335.21 429.39 329.79 434.06 324.48 438.86 319.62 444.13 314.55 449.18 308.92 453.63 303.66 458.47 298.61 463.55 293.27 468.12 286.79 468.32 280.15 468.39 273.52 468.46 266.88 468.26 260.44 468.7 254 468.69 254 468.65 247.11 468.42 240.33 468.58 233.6 468.25 226.89 468.67 220.19 468.3 213.22 468.63 217.6 462.59 221.53 456.57 225.21 450.39 228.43 443.93 232.16 437.79 236.27 431.88 240.49 426.04 244.39 420 248.16 413.88 251.38 407.42 255.15 401.3 259.71 395.67 263.51 389.57 266.75 383.11 270.7 377.11 274.87 371.24 278.26 364.88 282.54 359.08 286.17 352.88 290.11 346.87 294.02 340.83 297.09 334.28 301.1 328.31 304.78 322.14 308.83 316.19 312.96 310.3 316.74 304.19 320.32 297.95 324.16 291.87 327.87 285.71 332.23 279.96 335.74 273.67 339.49 267.53 343.15 261.34 346.73 255.1 350.57 249.02 354.5 243 358.73 237.16 362.68 231.15 366.49 225.04 369.71 218.58 373.68 212.59 377.35 206.4 381.67 200.62 384.99 194.21 389.36 188.46 392.63 182.02 396.84 176.16 400.55 169.99 404.46 163.96 410.09 159.62 415.71 155.22 421.38 150.88 427.2 146.76 433.1 142.74 438.86 138.54 444.74 134.49 450.06 129.68 455.82 125.47 461.65 121.36 467.74 117.6 473.37 113.21 478.77 108.53 484.94 104.87 490.36 100.2 496.41 96.38 501.92 91.83 507.7 87.64 513.46 83.43 519.12 79.07 524.56 74.41 530.54 70.46 537.79 70.2 545.03 70.6 552.27 70.22 559.52 70.28 566.76 70.39 574 70.19 581.25 70.39 588.5 70.76"/><polygon class="c" points="588.5 70.76 595.79 70.7 603.09 70.47 610.38 70.5 617.67 70.6 624.97 70.26 632.27 70.93 639.57 70.18 646.72 70.62 644.54 77.15 642.3 83.83 639.96 90.48 638.11 97.29 635.74 103.93 633.36 110.56 631.22 117.27 628.47 123.78 626.02 130.39 623.67 137.04 621.81 143.84 619.49 150.5 617.18 157.17 615.42 164.14 609.93 168.89 604.46 173.5 599.29 178.43 594.29 183.53 589.16 188.5 584.17 193.63 579.07 198.63 573.26 202.88 568.68 208.42 563.43 213.27 558.26 218.2 552.62 222.63 547.82 227.95 542.35 232.56 537.35 237.67 532.03 242.44 526.97 247.48 521.69 252.3 516.74 257.46 511.2 262 506.04 266.94 501.12 272.13 495.57 276.67 490.38 281.56 485.17 286.44 479.91 291.27 474.95 296.41 469.76 301.32 464.56 306.22 459.66 311.42 454.52 316.38 448.85 320.78 443.75 325.79 438.51 330.64 433.34 335.56 428.45 340.79 422.94 345.36 418.16 350.7 412.61 355.23 407.3 360.01 402.31 365.14 397.37 370.31 392.02 375.06 387.03 380.18 381.44 384.67 376.15 389.48 371.25 394.69 365.8 399.34 360.84 404.49 355.95 409.73 350.85 414.73 345.29 419.25 340.22 424.29 335.21 429.39 329.79 434.06 324.48 438.86 319.62 444.13 314.55 449.18 308.92 453.63 303.66 458.47 298.61 463.55 293.27 468.12 286.79 468.32 280.15 468.39 273.52 468.46 266.88 468.26 260.19 468.7 253.5 468.69 253.5 468.65 246.86 468.42 240.21 468.58 233.54 468.25 226.86 468.67 220.18 468.3 213.21 468.63 217.6 462.59 221.53 456.57 225.21 450.39 228.43 443.93 232.16 437.79 236.27 431.88 240.49 426.04 244.39 420 248.16 413.88 251.38 407.42 255.15 401.3 259.71 395.67 263.51 389.57 266.75 383.11 270.7 377.11 274.87 371.24 278.26 364.88 282.54 359.08 286.17 352.88 290.11 346.87 294.02 340.83 297.09 334.28 301.1 328.31 304.78 322.14 308.83 316.19 312.96 310.3 316.74 304.19 320.32 297.95 324.16 291.87 327.87 285.71 332.23 279.96 335.74 273.67 339.49 267.53 343.15 261.34 346.73 255.1 350.57 249.02 354.5 243 358.73 237.16 362.68 231.15 366.49 225.04 369.71 218.58 373.68 212.59 377.35 206.4 381.67 200.62 384.99 194.21 389.36 188.46 392.63 182.02 396.84 176.16 400.55 169.99 404.46 163.96 410.09 159.62 415.71 155.22 421.38 150.88 427.2 146.76 433.1 142.74 438.86 138.54 444.74 134.49 450.06 129.68 455.82 125.47 461.65 121.36 467.74 117.6 473.37 113.21 478.77 108.53 484.94 104.87 490.36 100.2 496.41 96.38 501.92 91.83 507.7 87.64 513.46 83.43 519.12 79.07 524.56 74.41 530.54 70.46 537.79 70.2 545.03 70.6 552.27 70.22 559.52 70.28 566.76 70.39 574 70.19 581.25 70.39 588.5 70.76"/><polyline class="a" points="221.2 471.71 227.07 475.89 232.98 480 238.65 484.43 244.69 488.35 250.18 493.03 256.21 496.98 262.13 501.07 267.98 505.28 273.49 509.93 279.43 514.01 285.35 518.11 291.22 522.06 298.05 522.21 305.03 522.94 312.01 522.78 318.99 522.82 325.97 522.46 332.95 522.68 339.93 522.6 346.91 522.92 353.9 522.24 360.9 522.52 366.34 517.86 371.06 512.44 376.77 508.08 381.76 502.95 386.48 497.54 392.23 493.2 397.37 488.23 402.68 483.44 407.8 478.45 412.45 472.96 418.1 468.53 423.41 463.74 428.58 458.8 433.57 453.67 438.76 448.75 443.86 443.73 449.06 438.82 454.03 433.67 459.14 428.66 464.94 424.39 470.04 419.37 475.17 414.39 480.36 409.47 485.21 404.19 490.77 399.68 495.56 394.35 500.99 389.68 506.07 384.64 511.61 380.09 516.25 374.6 521.39 369.64 527.07 365.23 532.34 360.39 537.41 355.35 542.42 350.24 547.45 345.16 553.15 340.77 557.89 335.38 562.97 330.34 568.64 325.92 573.4 320.55 578.72 315.76 584.05 310.98 588.97 305.78 594.28 300.97 599.22 295.79 604.96 291.44 610.19 286.56 615.11 281.35 620.02 276.12 625.64 271.66 630.41 266.29 635.61 261.38 640.83 256.48 646.34 251.89 651.45 246.88 656.55 241.86 661.89 237.08 666.72 231.77 672.4 227.36 677.31 222.11 682.21 217.04 684.04 210.18 686.42 203.33 687.85 196.23 689.87 189.29 691.55 182.26 693.13 175.2 694.98 168.21 696.81 161.21 698.57 154.2 700.32 147.18 702.95 140.39 704.73 133.24 699.84 127.84 695.05 122.52 691.23 116.42 686.22 111.28 682.13 105.39 677.53 99.91 672.87 94.49 668.33 88.97 663.92 83.34 659.76 77.5 655.14 72.03"/><polyline class="b" points="221.2 471.71 227.07 475.89 232.98 480 238.65 484.43 244.69 488.35 250.18 493.03 256.21 496.98 262.13 501.07 267.98 505.28 273.49 509.93 279.43 514.01 285.35 518.11 291.22 522.06 298.05 522.21 305.03 522.94 312.01 522.78 318.99 522.82 325.97 522.46 332.95 522.68 339.93 522.6 346.91 522.92 353.9 522.24 360.9 522.52 366.34 517.86 371.06 512.44 376.77 508.08 381.76 502.95 386.48 497.54 392.23 493.2 397.37 488.23 402.68 483.44 407.8 478.45 412.45 472.96 418.1 468.53 423.41 463.74 428.58 458.8 433.57 453.67 438.76 448.75 443.86 443.73 449.06 438.82 454.03 433.67 459.14 428.66 464.94 424.39 470.04 419.37 475.17 414.39 480.36 409.47 485.21 404.19 490.77 399.68 495.56 394.35 500.99 389.68 506.07 384.64 511.61 380.09 516.25 374.6 521.39 369.64 527.07 365.23 532.34 360.39 537.41 355.35 542.42 350.24 547.45 345.16 553.15 340.77 557.89 335.38 562.97 330.34 568.64 325.92 573.4 320.55 578.72 315.76 584.05 310.98 588.97 305.78 594.28 300.97 599.22 295.79 604.96 291.44 610.19 286.56 615.11 281.35 620.02 276.12 625.64 271.66 630.41 266.29 635.61 261.38 640.83 256.48 646.34 251.89 651.45 246.88 656.55 241.86 661.89 237.08 666.72 231.77 672.4 227.36 677.31 222.11 682.21 217.04 684.04 210.18 686.42 203.33 687.85 196.23 689.87 189.29 691.55 182.26 693.13 175.2 694.98 168.21 696.81 161.21 698.57 154.2 700.32 147.18 702.95 140.39 704.73 133.24 699.84 127.84 695.05 122.52 691.23 116.42 686.22 111.28 682.13 105.39 677.53 99.91 672.87 94.49 668.33 88.97 663.92 83.34 659.76 77.5 655.14 72.03"/><polygon points="596.5 72.7 603.79 72.85 611.09 72.82 618.38 72.22 625.67 72.74 632.97 72.74 640.27 72.75 647.57 72.54 654.62 72.69 652.67 79.2 649.91 85.7 648.46 92.65 645.54 99.1 643.03 105.69 641.04 112.45 638.81 119.14 636.63 125.83 634.62 132.59 632.36 139.27 629.9 145.88 627.87 152.63 625.02 159.12 623 165.88 617.58 170.52 612.44 175.48 607.39 180.54 602.36 185.61 596.95 190.28 592 195.45 586.9 200.44 581.87 205.52 576.19 209.91 571.06 214.88 565.86 219.77 561.1 225.14 555.79 229.92 550.29 234.5 545.18 239.49 540.23 244.65 534.8 249.3 529.71 254.32 524.27 258.97 519.37 264.18 514.02 268.92 508.71 273.7 503.83 278.94 498.72 283.92 493.33 288.61 487.89 293.25 482.82 298.27 478.08 303.66 472.69 308.36 467.36 313.1 462.54 318.4 456.92 322.85 451.67 327.7 446.91 333.07 441.46 337.69 436.32 342.66 430.87 347.29 426.19 352.74 421.02 357.67 415.67 362.4 410.56 367.4 405.27 372.21 399.96 376.99 394.92 382.07 389.54 386.77 384.63 391.99 379.6 397.06 374.21 401.77 368.85 406.51 363.64 411.4 358.85 416.73 353.16 421.12 348.41 426.49 343.15 431.33 337.98 436.27 332.74 441.14 327.34 445.83 322.49 451.11 316.78 455.48 311.75 460.57 306.42 465.35 301.47 470.59 294.79 470.96 288.15 470.36 281.52 470.9 274.88 470.99 268.44 470.97 262 470.63 262 470.33 255.11 470.62 248.33 470.68 241.6 470.5 234.89 470.91 228.19 470.35 221.24 470.62 225.15 464.31 228.81 458.12 232.89 452.19 236.44 445.94 240.56 440.03 244.16 433.81 248.26 427.89 252.21 421.89 256.12 415.86 259.35 409.4 263.47 403.5 267.64 397.63 271 391.25 275.15 385.37 278.85 379.2 282.88 373.24 286.48 367.01 290.53 361.08 293.76 354.62 297.53 348.51 301.89 342.75 305.77 336.71 308.88 330.18 313.4 324.53 317.05 318.33 320.95 312.3 324.79 306.22 328.2 299.87 332.32 293.97 335.8 287.66 339.44 281.46 343.89 275.77 347.18 269.34 351.41 263.51 355.36 257.49 358.57 251.02 362.73 245.14 366.37 238.93 370.57 233.07 373.99 226.73 377.88 220.69 382.05 214.82 385.87 208.72 389.24 202.35 393.39 196.46 396.94 190.19 400.88 184.18 404.46 177.92 408.17 171.75 412.49 165.99 418.17 161.72 423.85 157.4 429.49 153.04 435.33 148.94 440.97 144.57 446.51 140.06 452.34 135.95 458.37 132.11 463.69 127.3 469.49 123.14 475.62 119.44 480.95 114.64 487.03 110.87 492.74 106.6 498.35 102.19 503.87 97.65 510.06 94.01 515.72 89.66 521.51 85.5 527.2 81.19 533.04 77.06 538.41 72.07 545.79 72.17 553.03 72.84 560.27 72.06 567.52 72.39 574.76 72.75 582 72.58 589.25 72.75 596.5 72.7"/><polygon class="b" points="596.5 72.7 603.79 72.85 611.09 72.82 618.38 72.22 625.67 72.74 632.97 72.74 640.27 72.75 647.57 72.54 654.62 72.69 652.67 79.2 649.91 85.7 648.46 92.65 645.54 99.1 643.03 105.69 641.04 112.45 638.81 119.14 636.63 125.83 634.62 132.59 632.36 139.27 629.9 145.88 627.87 152.63 625.02 159.12 623 165.88 617.58 170.52 612.44 175.48 607.39 180.54 602.36 185.61 596.95 190.28 592 195.45 586.9 200.44 581.87 205.52 576.19 209.91 571.06 214.88 565.86 219.77 561.1 225.14 555.79 229.92 550.29 234.5 545.18 239.49 540.23 244.65 534.8 249.3 529.71 254.32 524.27 258.97 519.37 264.18 514.02 268.92 508.71 273.7 503.83 278.94 498.72 283.92 493.33 288.61 487.89 293.25 482.82 298.27 478.08 303.66 472.69 308.36 467.36 313.1 462.54 318.4 456.92 322.85 451.67 327.7 446.91 333.07 441.46 337.69 436.32 342.66 430.87 347.29 426.19 352.74 421.02 357.67 415.67 362.4 410.56 367.4 405.27 372.21 399.96 376.99 394.92 382.07 389.54 386.77 384.63 391.99 379.6 397.06 374.21 401.77 368.85 406.51 363.64 411.4 358.85 416.73 353.16 421.12 348.41 426.49 343.15 431.33 337.98 436.27 332.74 441.14 327.34 445.83 322.49 451.11 316.78 455.48 311.75 460.57 306.42 465.35 301.47 470.59 294.79 470.96 288.15 470.36 281.52 470.9 274.88 470.99 268.19 470.97 261.5 470.63 261.5 470.33 254.86 470.62 248.21 470.68 241.54 470.5 234.86 470.91 228.18 470.35 221.23 470.62 225.15 464.31 228.81 458.12 232.89 452.19 236.44 445.94 240.55 440.03 244.16 433.81 248.26 427.89 252.21 421.89 256.12 415.86 259.35 409.4 263.47 403.5 267.64 397.63 271 391.25 275.15 385.37 278.85 379.2 282.88 373.24 286.48 367.01 290.53 361.08 293.76 354.62 297.53 348.51 301.89 342.75 305.77 336.71 308.88 330.18 313.4 324.53 317.05 318.33 320.95 312.3 324.79 306.22 328.2 299.87 332.32 293.97 335.8 287.66 339.44 281.46 343.89 275.77 347.18 269.34 351.41 263.51 355.36 257.49 358.57 251.02 362.73 245.14 366.37 238.93 370.57 233.07 373.99 226.73 377.88 220.69 382.05 214.82 385.87 208.72 389.24 202.35 393.39 196.46 396.94 190.19 400.88 184.18 404.46 177.92 408.17 171.75 412.49 165.99 418.17 161.72 423.85 157.4 429.49 153.04 435.33 148.94 440.97 144.57 446.51 140.06 452.34 135.95 458.37 132.11 463.69 127.3 469.49 123.14 475.62 119.44 480.95 114.64 487.03 110.87 492.74 106.6 498.35 102.19 503.87 97.65 510.06 94.01 515.72 89.66 521.51 85.5 527.2 81.19 533.04 77.06 538.41 72.07 545.79 72.17 553.03 72.84 560.27 72.06 567.52 72.39 574.76 72.75 582 72.58 589.25 72.75 596.5 72.7"/><polygon class="a" points="553.38 263.44 549.58 269.31 547.58 276 546.12 282.85 548.66 289.49 554.95 292.71 561.98 292.67 568.81 290.42 575.6 288.12 581.92 284.69 587.82 280.58 593.98 276.77 598.99 271.56 604.34 266.72 608.71 260.98 613.06 255.24 616.76 249.25 618.39 242.41 619.95 235.57 617.26 229.05 611.09 225.75 604.02 225.4 597.21 227.92 590.29 229.99 584.31 234.04 577.92 237.41 572.16 241.76 567.07 246.88 561.97 251.94 557.36 257.46 553.38 263.44"/><polygon class="b" points="553.38 263.44 549.58 269.31 547.58 276 546.12 282.85 548.66 289.49 554.95 292.71 561.98 292.67 568.81 290.42 575.6 288.12 581.92 284.69 587.82 280.58 593.98 276.77 598.99 271.56 604.34 266.72 608.71 260.98 613.06 255.24 616.76 249.25 618.39 242.41 619.95 235.57 617.26 229.05 611.09 225.75 604.02 225.4 597.21 227.92 590.29 229.99 584.31 234.04 577.92 237.41 572.16 241.76 567.07 246.88 561.97 251.94 557.36 257.46 553.38 263.44"/><polygon points="529.34 501.33 528.57 494.08 527.11 487.1 526.81 479.99 526.95 472.89 527.5 465.81 527.83 458.7 528.95 451.68 530.73 444.79 532.17 437.85 533.79 430.93 536.44 424.33 538.96 417.71 541.69 411.17 544.23 404.02 548.64 397.86 553.18 391.84 558.07 386.09 563.46 380.8 569.56 376.34 575.34 371.5 581.4 367 587.43 362.45 594.14 358.93 600.53 354.9 606.82 350.73 612.66 345.93 618.09 340.72 623.11 335.21 627.54 329.06 628.08 321.52 627.14 314.68 623.8 308.53 619.53 302.96 614.61 297.93 608.84 293.89 603.12 289.83 597.42 285.71 591.13 282.55 585.35 278.48 578.76 275.92 572.61 272.49 565.97 270.14 559.69 266.95 552.97 264.73 558.43 259.91 563.57 254.8 568.13 249.09 573.87 244.56 578.82 239.24 585.77 241.48 592.45 244.81 599.32 247.63 606.34 250.23 612.93 253.72 618.98 258.15 625.31 261.92 631.13 266.44 637.26 270.6 642.56 275.76 647.67 281.12 651.98 287.15 655.82 293.49 658.94 300.21 660.56 307.44 661.73 314.68 662.81 322 662.46 329.23 660.55 336.2 658.16 342.96 655.33 349.59 651.13 355.45 646.43 360.88 641.7 366.31 635.91 370.61 630.61 375.5 624.39 379.17 618.81 383.73 612.67 387.48 606.98 391.44 601.07 395.07 595.4 399.05 589.6 402.89 584.88 408.02 580.2 413.08 575.99 418.53 572.84 424.64 570.04 431.11 567.22 437.62 565.51 444.49 564.36 451.47 562.53 458.31 561.54 465.32 561.19 472.38 561.49 479.45 561.15 486.53 562.52 493.67 555.96 495.5 549.3 496.91 542.65 498.36 535.96 499.68 529.34 501.33"/><polygon class="b" points="529.34 501.33 528.57 494.08 527.11 487.1 526.81 479.99 526.95 472.89 527.5 465.81 527.83 458.7 528.95 451.68 530.73 444.79 532.17 437.85 533.79 430.93 536.44 424.33 538.96 417.71 541.69 411.17 544.23 404.02 548.64 397.86 553.18 391.84 558.07 386.09 563.46 380.8 569.56 376.34 575.34 371.5 581.4 367 587.43 362.45 594.14 358.93 600.53 354.9 606.82 350.73 612.66 345.93 618.09 340.72 623.11 335.21 627.54 329.06 628.08 321.52 627.14 314.68 623.8 308.53 619.53 302.96 614.61 297.93 608.84 293.89 603.12 289.83 597.42 285.71 591.13 282.55 585.35 278.48 578.76 275.92 572.61 272.49 565.97 270.14 559.69 266.95 552.97 264.73 558.43 259.91 563.57 254.8 568.13 249.09 573.87 244.56 578.82 239.24 585.77 241.48 592.45 244.81 599.32 247.63 606.34 250.23 612.93 253.72 618.98 258.15 625.31 261.92 631.13 266.44 637.26 270.6 642.56 275.76 647.67 281.12 651.98 287.15 655.82 293.49 658.94 300.21 660.56 307.44 661.73 314.68 662.81 322 662.46 329.23 660.55 336.2 658.16 342.96 655.33 349.59 651.13 355.45 646.43 360.88 641.7 366.31 635.91 370.61 630.61 375.5 624.39 379.17 618.81 383.73 612.67 387.48 606.98 391.44 601.07 395.07 595.4 399.05 589.6 402.89 584.88 408.02 580.2 413.08 575.99 418.53 572.84 424.64 570.04 431.11 567.22 437.62 565.51 444.49 564.36 451.47 562.53 458.31 561.54 465.32 561.19 472.38 561.49 479.45 561.15 486.53 562.52 493.67 555.96 495.5 549.3 496.91 542.65 498.36 535.96 499.68 529.34 501.33"/><polygon class="a" points="574.51 487.23 569.38 483.37 562.91 481.98 556.29 480.98 549.6 481.09 542.96 481.95 536.36 482.92 529.79 484.1 523.44 486.15 517.5 489.05 513.51 493.75 518.28 497.86 524.8 499.29 531.46 499.69 538.13 499.51 544.78 498.95 551.51 498.81 558.08 497.37 564.25 494.72 570.49 492.36 574.51 487.23"/><polygon class="c" points="574.51 487.23 569.38 483.37 562.91 481.98 556.29 480.98 549.6 481.09 542.96 481.95 536.36 482.92 529.79 484.1 523.44 486.15 517.5 489.05 513.51 493.75 518.28 497.86 524.8 499.29 531.46 499.69 538.13 499.51 544.78 498.95 551.51 498.81 558.08 497.37 564.25 494.72 570.49 492.36 574.51 487.23"/><polygon class="a" points="577.2 494.02 571.89 490.31 565.49 488.6 558.86 487.59 552.16 487.98 545.45 488.18 538.81 489.13 532.19 490.32 525.75 492.3 519.91 495.63 515.78 500.59 520.93 504.4 527.37 505.95 534.01 506.77 540.7 506.76 547.34 505.82 553.93 504.8 560.67 504.33 566.86 501.67 572.98 499.05 577.2 494.02"/><polygon class="b" points="577.2 494.02 571.89 490.31 565.49 488.6 558.86 487.59 552.16 487.98 545.45 488.18 538.81 489.13 532.19 490.32 525.75 492.3 519.91 495.63 515.78 500.59 520.93 504.4 527.37 505.95 534.01 506.77 540.7 506.76 547.34 505.82 553.93 504.8 560.67 504.33 566.86 501.67 572.98 499.05 577.2 494.02"/><polyline class="a" points="546.64 535.6 547.15 542.99 547.56 550.42 548.92 557.73 551.03 564.85 552.91 572.06 556.77 578.4 562.17 583.97 569.5 586.08 575.8 581.79 576.66 574.43 575 567.54 572.29 560.99 570 554.3 568.54 547.37 566.89 540.53"/><polyline class="b" points="546.64 535.6 547.15 542.99 547.56 550.42 548.92 557.73 551.03 564.85 552.91 572.06 556.77 578.4 562.17 583.97 569.5 586.08 575.8 581.79 576.66 574.43 575 567.54 572.29 560.99 570 554.3 568.54 547.37 566.89 540.53"/><polyline class="a" points="575.59 528.9 581.36 533.7 588.59 535.7 596.15 536.55 603.2 533.69 609.91 530.16 608.73 523.68 603.53 518.71 597.45 514.82 591.47 510.79 585.26 507.12 579.87 503.23 574.03 500.03 568.22 496.82 562.46 493.94 555.74 494.56 548.93 495 542.18 495.99 535.43 497.03 528.7 497.56 525.76 504.27 523.95 511.59 523.74 519.12 523.01 526.61 523.06 534.15 524.26 541.6 525.6 548.31 528.06 554.7 531.07 560.83 536.71 564.27 543.13 563.38 547.27 557.82 548.26 551.04 548.76 544.2 546.3 537.79"/><polyline class="b" points="575.59 528.9 581.36 533.7 588.59 535.7 596.15 536.55 603.2 533.69 609.91 530.16 608.73 523.68 603.53 518.71 597.45 514.82 591.47 510.79 585.26 507.12 579.87 503.23 574.03 500.03 568.22 496.82 562.46 493.94 555.74 494.56 548.93 495 542.18 495.99 535.43 497.03 528.7 497.56 525.76 504.27 523.95 511.59 523.74 519.12 523.01 526.61 523.06 534.15 524.26 541.6 525.6 548.31 528.06 554.7 531.07 560.83 536.71 564.27 543.13 563.38 547.27 557.82 548.26 551.04 548.76 544.2 546.3 537.79"/><polyline class="a" points="301.64 471.11 306.94 475.87 312.43 480.4 317.77 485.11 323.14 489.8 328.52 494.46 333.63 499.44 338.96 504.19 344.49 508.68 349.92 513.3 355.45 517.8 360.93 522.37"/><polyline class="b" points="301.64 471.11 306.94 475.87 312.43 480.4 317.77 485.11 323.14 489.8 328.52 494.46 333.63 499.44 338.96 504.19 344.49 508.68 349.92 513.3 355.45 517.8 360.93 522.37"/><polyline class="a" points="622.77 166.47 628.36 170.91 633.99 175.28 639.05 180.34 644.53 184.91 650.3 189.13 655.3 194.26 660.85 198.75 666.55 203.06 671.77 207.93 676.93 212.88 682.36 217.51"/><polyline class="b" points="622.77 166.47 628.36 170.91 633.99 175.28 639.05 180.34 644.53 184.91 650.3 189.13 655.3 194.26 660.85 198.75 666.55 203.06 671.77 207.93 676.93 212.88 682.36 217.51"/><polygon class="a" points="384.95 423.48 381.26 429.39 378.98 435.97 377.48 442.86 380.75 448.95 386.54 452.21 393.41 452.21 400.29 450.39 407.07 448.07 413.43 444.71 419.21 440.43 424.9 436.08 430.34 431.41 435.35 426.27 440 420.82 444.84 415.42 448.11 409.18 450.64 402.6 451.3 395.57 448.64 389.15 442.53 386.02 435.52 385.49 428.73 387.99 422 390.44 415.71 393.88 409.46 397.47 404.1 402.3 398.41 406.71 393.45 411.93 388.93 417.52 384.95 423.48"/><polygon class="b" points="384.95 423.48 381.26 429.39 378.98 435.97 377.48 442.86 380.75 448.95 386.54 452.21 393.41 452.21 400.29 450.39 407.07 448.07 413.43 444.71 419.21 440.43 424.9 436.08 430.34 431.41 435.35 426.27 440 420.82 444.84 415.42 448.11 409.18 450.64 402.6 451.3 395.57 448.64 389.15 442.53 386.02 435.52 385.49 428.73 387.99 422 390.44 415.71 393.88 409.46 397.47 404.1 402.3 398.41 406.71 393.45 411.93 388.93 417.52 384.95 423.48"/><polygon points="360.87 661.56 359.2 654.18 358.85 647.08 358.62 639.98 358.84 632.9 359.46 625.84 359.75 618.75 361.06 611.78 361.61 604.66 363.35 597.77 365.93 591.12 367.43 584.15 370.08 577.56 372.38 570.82 376.22 564.29 380.14 557.86 384.99 552.1 390 546.51 394.75 540.57 401.11 536.4 406.78 531.42 413.15 527.37 419.11 522.73 425.69 519.01 431.81 514.59 437.84 510.05 443.91 505.62 449.6 500.74 454.73 495.3 458.52 488.87 460.15 481.52 458.9 474.57 455.5 468.39 450.74 463.22 446 458.03 440.62 453.5 435.06 449.16 428.67 446.1 423.11 441.7 416.48 439.17 410.39 435.62 404.1 432.49 397.63 429.74 391.1 427.16 384.74 424.9 389.5 419.49 394.66 414.39 400.1 409.56 404.73 403.92 410.38 399.31 417.17 401.73 424.2 404.18 430.99 407.25 437.43 411.03 444.19 414.14 450.77 417.65 457.13 421.43 463.06 425.88 468.37 431.04 473.71 436.09 479.01 441.25 483.57 447.09 486.78 453.76 490.33 460.25 492.04 467.44 493.79 474.61 494.07 482 493.57 489.17 492.1 496.21 489.52 502.9 486.24 509.25 482.54 515.38 477.92 520.87 472.74 525.82 467.3 530.48 462.17 535.58 455.84 539.1 450.18 543.54 444.03 547.27 438.24 551.08 432.46 554.92 426.65 558.71 421.29 563.13 416.1 567.73 411.1 572.58 407.21 578.35 404.3 584.62 400.99 590.91 399.27 597.79 396.86 604.45 395.89 611.47 394.31 618.35 393.58 625.37 392.51 632.37 392.77 639.45 393.22 646.48 394.01 653.64 387.38 655.19 380.73 656.63 374.14 658.37 367.42 659.53 360.87 661.56"/><polygon class="b" points="360.87 661.56 359.2 654.18 358.85 647.08 358.62 639.98 358.84 632.9 359.46 625.84 359.75 618.75 361.06 611.78 361.61 604.66 363.35 597.77 365.93 591.12 367.43 584.15 370.08 577.56 372.38 570.82 376.22 564.29 380.14 557.86 384.99 552.1 390 546.51 394.75 540.57 401.11 536.4 406.78 531.42 413.15 527.37 419.11 522.73 425.69 519.01 431.81 514.59 437.84 510.05 443.91 505.62 449.6 500.74 454.73 495.3 458.52 488.87 460.15 481.52 458.9 474.57 455.5 468.39 450.74 463.22 446 458.03 440.62 453.5 435.06 449.16 428.67 446.1 423.11 441.7 416.48 439.17 410.39 435.62 404.1 432.49 397.63 429.74 391.1 427.16 384.74 424.9 389.5 419.49 394.66 414.39 400.1 409.56 404.73 403.92 410.38 399.31 417.17 401.73 424.2 404.18 430.99 407.25 437.43 411.03 444.19 414.14 450.77 417.65 457.13 421.43 463.06 425.88 468.37 431.04 473.71 436.09 479.01 441.25 483.57 447.09 486.78 453.76 490.33 460.25 492.04 467.44 493.79 474.61 494.07 482 493.57 489.17 492.1 496.21 489.52 502.9 486.24 509.25 482.54 515.38 477.92 520.87 472.74 525.82 467.3 530.48 462.17 535.58 455.84 539.1 450.18 543.54 444.03 547.27 438.24 551.08 432.46 554.92 426.65 558.71 421.29 563.13 416.1 567.73 411.1 572.58 407.21 578.35 404.3 584.62 400.99 590.91 399.27 597.79 396.86 604.45 395.89 611.47 394.31 618.35 393.58 625.37 392.51 632.37 392.77 639.45 393.22 646.48 394.01 653.64 387.38 655.19 380.73 656.63 374.14 658.37 367.42 659.53 360.87 661.56"/><polygon class="a" points="405.84 647.24 400.89 643.34 394.49 641.37 387.79 641.08 381.11 641.45 374.38 641.25 367.75 642.34 361.21 643.84 354.95 646.2 348.54 648.31 345.16 653.73 349.68 658.13 356.31 659.14 362.96 659.48 369.62 659.41 376.29 659.15 382.96 658.55 389.57 657.36 395.96 655.28 401.93 652.27 405.84 647.24"/><polygon class="c" points="405.84 647.24 400.89 643.34 394.49 641.37 387.79 641.08 381.11 641.45 374.38 641.25 367.75 642.34 361.21 643.84 354.95 646.2 348.54 648.31 345.16 653.73 349.68 658.13 356.31 659.14 362.96 659.48 369.62 659.41 376.29 659.15 382.96 658.55 389.57 657.36 395.96 655.28 401.93 652.27 405.84 647.24"/><polygon class="a" points="408.56 654.03 403.44 650.15 397.03 648.29 390.34 647.78 383.63 647.62 376.98 648.52 370.27 648.96 363.71 650.41 357.39 652.68 351.28 655.41 347.77 660.53 352.43 664.38 358.81 666.35 365.49 667.09 372.19 666.53 378.89 666.35 385.5 665.26 391.98 663.58 398.43 661.88 404.63 659.31 408.56 654.03"/><polygon class="b" points="408.56 654.03 403.44 650.15 397.03 648.29 390.34 647.78 383.63 647.62 376.98 648.52 370.27 648.96 363.71 650.41 357.39 652.68 351.28 655.41 347.77 660.53 352.43 664.38 358.81 666.35 365.49 667.09 372.19 666.53 378.89 666.35 385.5 665.26 391.98 663.58 398.43 661.88 404.63 659.31 408.56 654.03"/><polyline class="a" points="378.26 695.58 378.72 703.01 380.06 710.34 381.45 717.65 383.41 724.83 385.6 731.94 388.8 738.69 394.25 744.6 402.05 746.41 408.41 741.87 409.62 734.24 406.96 727.9 404.64 721.44 402.52 714.9 401.23 708.11 399.1 701.58"/><polyline class="b" points="378.26 695.58 378.72 703.01 380.06 710.34 381.45 717.65 383.41 724.83 385.6 731.94 388.8 738.69 394.25 744.6 402.05 746.41 408.41 741.87 409.62 734.24 406.96 727.9 404.64 721.44 402.52 714.9 401.23 708.11 399.1 701.58"/><polyline class="a" points="399.27 701.23 401.78 708.07 404.69 714.75 407.46 721.51 411.25 727.75 414.97 734 419.89 739.26 426.54 741.46 431.95 737.27 434.26 731.02 434.72 724.39 432.54 717.97 428.98 712.22 425.54 706.38 421.1 701.26 417.21 695.63"/><polyline class="b" points="399.27 701.23 401.78 708.07 404.69 714.75 407.46 721.51 411.25 727.75 414.97 734 419.89 739.26 426.54 741.46 431.95 737.27 434.26 731.02 434.72 724.39 432.54 717.97 428.98 712.22 425.54 706.38 421.1 701.26 417.21 695.63"/><polyline class="a" points="412.48 692.5 418.55 696.42 425.2 698.86 432.29 699.96 439.14 697.74 444.91 693.66 444.71 687.44 439.6 682.69 434.04 678.57 428.38 674.59 422.54 670.89 416.55 667.4 411.44 663.1 405.61 659.87 399.68 656.87 393.98 653.19 387.19 654.23 380.37 654.52 373.63 655.54 366.84 656.29 360.17 657.5 357.77 664.41 356.42 671.75 355.38 679.17 355.64 686.66 356.45 694.09 357.12 701.54 358.8 708.93 360.82 716.28 365.32 722.35 372.09 724.87 377.18 719.55 380.27 712.65 380.37 704.98 378.06 697.67"/><polyline class="b" points="412.48 692.5 418.55 696.42 425.2 698.86 432.29 699.96 439.14 697.74 444.91 693.66 444.71 687.44 439.6 682.69 434.04 678.57 428.38 674.59 422.54 670.89 416.55 667.4 411.44 663.1 405.61 659.87 399.68 656.87 393.98 653.19 387.19 654.23 380.37 654.52 373.63 655.54 366.84 656.29 360.17 657.5 357.77 664.41 356.42 671.75 355.38 679.17 355.64 686.66 356.45 694.09 357.12 701.54 358.8 708.93 360.82 716.28 365.32 722.35 372.09 724.87 377.18 719.55 380.27 712.65 380.37 704.98 378.06 697.67"/><polyline class="a" points="570.29 553.72 572.23 547.72 574.03 541.7 576.98 536.07 582.2 532.44"/><polyline class="b" points="570.29 553.72 572.23 547.72 574.03 541.7 576.98 536.07 582.2 532.44"/></svg>