<svg xmlns="http://www.w3.org/2000/svg" viewBox="0 0 800 800"><defs><style>.a{fill:#fff;}.b{fill:none;stroke:#000;stroke-linejoin:bevel;stroke-width:13px;}</style></defs><title>canvas (53)</title><polygon class="a" points="355.94 211.34 348.64 211.36 341.49 209.97 334.25 209.39 327.01 208.81 319.85 207.47 312.6 206.96 305.36 206.37 298.19 205.12 290.92 204.84 283.75 203.61 276.56 202.57 269.26 202.52 262.13 200.99 254.83 200.94 247.7 199.36 240.45 198.81 233.25 197.76 226.01 197.88 219.24 199.56 212.52 201.72 205.76 203.74 199.09 206.04 192.41 208.3 185.46 209.72 178.84 212.2 172.13 214.37 165.22 215.97 158.76 218.96 152 220.92 145.29 223.03 138.47 224.78 131.88 227.25 125.14 229.28 118.37 231.18 111.56 232.97 104.88 235.19 98.31 237.75 91.51 239.62 84.99 242.19 78.3 244.29 71.72 246.69 64.96 248.6 58.62 251.69 51.96 253.88 45.19 255.76 38.73 258.55 32.34 260.79 39.28 261.28 46.38 262.44 53.54 263.03 60.59 264.62 67.77 265.15 74.88 266.19 82.04 266.88 89.25 267.08 96.33 268.44 103.43 269.56 110.56 270.48 117.75 270.9 124.92 271.42 132.03 272.51 139.2 273.15 146.29 274.48 153.51 275.54 160.36 273.39 166.99 270.87 173.76 268.82 180.56 266.85 187.28 264.62 194.08 262.65 200.69 260.07 207.5 258.14 214.24 255.93 221.02 253.89 228.2 254.87 235.45 255.28 242.59 256.62 249.84 256.97 257.04 257.83 264.25 258.59 271.48 259.18 278.67 260.12 285.86 261.08 293.04 262.08 300.23 263.03 307.44 263.73 314.66 264.43 321.89 265 329.09 265.87 336.33 266.36 343.5 267.57 350.72 267.82 357.58 266.32 364.36 264.35 370.86 261.51 377.73 259.84 384.38 257.47 391.12 255.4 397.88 253.36 404.75 251.68 411.2 248.67 418.11 247.14 424.66 244.42 431.4 242.34 438.33 240.85 444.9 238.24 451.64 236.14 458.54 234.56 465.09 231.86 472.07 230.54 478.55 227.57 485.51 225.88 478.19 225.46 471.04 224.28 463.89 223.14 456.65 222.72 449.51 221.47 442.31 220.74 435.05 220.53 427.92 219.19 420.65 219 413.44 218.39 406.3 217.12 399.07 216.63 391.86 216.02 384.7 214.85 377.48 214.29 370.3 213.4 363.12 212.37 355.94 211.34"/><polygon class="b" points="355.94 211.34 348.64 211.36 341.49 209.97 334.25 209.39 327.01 208.81 319.85 207.47 312.6 206.96 305.36 206.37 298.19 205.12 290.92 204.84 283.75 203.61 276.56 202.57 269.26 202.52 262.13 200.99 254.83 200.94 247.7 199.36 240.45 198.81 233.25 197.76 226.01 197.88 219.24 199.56 212.52 201.72 205.76 203.74 199.09 206.04 192.41 208.3 185.46 209.72 178.84 212.2 172.13 214.37 165.22 215.97 158.76 218.96 152 220.92 145.29 223.03 138.47 224.78 131.88 227.25 125.14 229.28 118.37 231.18 111.56 232.97 104.88 235.19 98.31 237.75 91.51 239.62 84.99 242.19 78.3 244.29 71.72 246.69 64.96 248.6 58.62 251.69 51.96 253.88 45.19 255.76 38.73 258.55 32.34 260.79 39.28 261.28 46.38 262.44 53.54 263.03 60.59 264.62 67.77 265.15 74.88 266.19 82.04 266.88 89.25 267.08 96.33 268.44 103.43 269.56 110.56 270.48 117.75 270.9 124.92 271.42 132.03 272.51 139.2 273.15 146.29 274.48 153.51 275.54 160.36 273.39 166.99 270.87 173.76 268.82 180.56 266.85 187.28 264.62 194.08 262.65 200.69 260.07 207.5 258.14 214.24 255.93 221.02 253.89 228.2 254.87 235.45 255.28 242.59 256.62 249.84 256.97 257.04 257.83 264.25 258.59 271.48 259.18 278.67 260.12 285.86 261.08 293.04 262.08 300.23 263.03 307.44 263.73 314.66 264.43 321.89 265 329.09 265.87 336.33 266.36 343.5 267.57 350.72 267.82 357.58 266.32 364.36 264.35 370.86 261.51 377.73 259.84 384.38 257.47 391.12 255.4 397.88 253.36 404.75 251.68 411.2 248.67 418.11 247.14 424.66 244.42 431.4 242.34 438.33 240.85 444.9 238.24 451.64 236.14 458.54 234.56 465.09 231.86 472.07 230.54 478.55 227.57 485.51 225.88 478.19 225.46 471.04 224.28 463.89 223.14 456.65 222.72 449.51 221.47 442.31 220.74 435.05 220.53 427.92 219.19 420.65 219 413.44 218.39 406.3 217.12 399.07 216.63 391.86 216.02 384.7 214.85 377.48 214.29 370.3 213.4 363.12 212.37 355.94 211.34"/><polygon class="a" points="355.9 136.52 348.72 135.37 341.51 134.51 334.31 133.6 327.02 133.45 319.81 132.65 312.65 131.24 305.44 130.48 298.16 130.23 291 128.92 283.76 128.28 276.53 127.64 269.35 126.48 262.03 126.65 254.81 125.83 247.65 124.53 240.43 123.75 233.19 123.12 226.01 122.64 219.32 124.59 212.63 126.83 205.79 128.6 199.13 130.93 192.32 132.8 185.47 134.55 178.71 136.55 171.99 138.72 165.41 141.33 158.59 143.19 151.96 145.55 145.09 147.15 138.38 149.24 131.77 151.67 125.01 153.62 118.38 155.99 111.53 157.64 104.94 160.15 98.15 162.03 91.51 164.39 84.8 166.41 78.4 169.34 71.6 171.12 65.2 174.03 58.48 176.07 51.93 178.54 45.21 180.59 38.54 182.78 32.26 185.57 39.2 186.74 46.32 187.7 53.51 188.11 60.68 188.69 67.76 189.98 74.97 190.18 82.08 191.33 89.15 192.75 96.34 193.07 103.46 194.1 110.67 194.34 117.78 195.35 124.88 196.55 132.07 196.94 139.12 198.6 146.27 199.37 153.46 199.69 160.31 197.99 166.96 195.56 173.68 193.32 180.59 191.72 187.21 189.16 193.95 187.01 200.89 185.48 207.46 182.76 214.29 180.89 221.05 179.03 228.27 179.02 235.44 180.11 242.6 181.26 249.79 182.24 257.01 182.86 264.25 183.36 271.43 184.4 278.64 185.18 285.9 185.5 293.05 186.78 300.24 187.66 307.52 187.78 314.73 188.55 321.94 189.35 329.16 190.02 336.35 190.98 343.49 192.42 350.78 193.26 357.49 190.79 364.33 189.06 370.83 186.2 377.76 184.7 384.4 182.32 391 179.77 397.92 178.26 404.68 176.22 411.25 173.61 418.19 172.14 424.82 169.69 431.56 167.64 438.39 165.84 445.02 163.38 451.83 161.52 458.38 158.81 465.26 157.18 471.85 154.6 478.57 152.42 485.79 150.6 478.21 150.11 471 149.45 463.9 147.8 456.67 147.39 449.43 146.92 442.29 145.68 435.03 145.45 427.88 144.24 420.64 143.87 413.44 143.2 406.33 141.63 399.12 140.99 391.92 140.25 384.72 139.47 377.52 138.77 370.31 138.01 363.08 137.46 355.9 136.52"/><polygon class="b" points="355.9 136.52 348.72 135.37 341.51 134.51 334.31 133.6 327.02 133.45 319.81 132.65 312.65 131.24 305.44 130.48 298.16 130.23 291 128.92 283.76 128.28 276.53 127.64 269.35 126.48 262.03 126.65 254.81 125.83 247.65 124.53 240.43 123.75 233.19 123.12 226.01 122.64 219.32 124.59 212.63 126.83 205.79 128.6 199.13 130.93 192.32 132.8 185.47 134.55 178.71 136.55 171.99 138.72 165.41 141.33 158.59 143.19 151.96 145.55 145.09 147.15 138.38 149.24 131.77 151.67 125.01 153.62 118.38 155.99 111.53 157.64 104.94 160.15 98.15 162.03 91.51 164.39 84.8 166.41 78.4 169.34 71.6 171.12 65.2 174.03 58.48 176.07 51.93 178.54 45.21 180.59 38.54 182.78 32.26 185.57 39.2 186.74 46.32 187.7 53.51 188.11 60.68 188.69 67.76 189.98 74.97 190.18 82.08 191.33 89.15 192.75 96.34 193.07 103.46 194.1 110.67 194.34 117.78 195.35 124.88 196.55 132.07 196.94 139.12 198.6 146.27 199.37 153.46 199.69 160.31 197.99 166.96 195.56 173.68 193.32 180.59 191.72 187.21 189.16 193.95 187.01 200.89 185.48 207.46 182.76 214.29 180.89 221.05 179.03 228.27 179.02 235.44 180.11 242.6 181.26 249.79 182.24 257.01 182.86 264.25 183.36 271.43 184.4 278.64 185.18 285.9 185.5 293.05 186.78 300.24 187.66 307.52 187.78 314.73 188.55 321.94 189.35 329.16 190.02 336.35 190.98 343.49 192.42 350.78 193.26 357.49 190.79 364.33 189.06 370.83 186.2 377.76 184.7 384.4 182.32 391 179.77 397.92 178.26 404.68 176.22 411.25 173.61 418.19 172.14 424.82 169.69 431.56 167.64 438.39 165.84 445.02 163.38 451.83 161.52 458.38 158.81 465.26 157.18 471.85 154.6 478.57 152.42 485.79 150.6 478.21 150.11 471 149.45 463.9 147.8 456.67 147.39 449.43 146.92 442.29 145.68 435.03 145.45 427.88 144.24 420.64 143.87 413.44 143.2 406.33 141.63 399.12 140.99 391.92 140.25 384.72 139.47 377.52 138.77 370.31 138.01 363.08 137.46 355.9 136.52"/><polygon class="a" points="32.55 185.62 32.21 193.09 32.1 200.61 32.04 208.13 32.21 215.65 32.87 223.17 32.04 230.69 32.98 238.22 32.8 245.74 32.92 253.27 32.54 260.76 39.58 261.94 46.76 262.26 53.89 262.96 61.01 263.77 68.05 265.23 75.21 265.69 82.36 266.31 89.42 267.61 96.57 268.15 103.7 268.81 110.81 269.77 117.93 270.52 124.99 271.86 132.13 272.51 139.19 273.85 146.38 274.15 153.51 275.19 160.26 272.97 167.11 271.16 173.64 268.35 180.37 266.15 187.28 264.53 194.09 262.6 200.83 260.47 207.58 258.33 214.37 256.31 221 253.51 228.23 254.74 235.46 255.35 242.6 256.71 249.84 257.18 257.02 258.24 264.26 258.79 271.53 258.96 278.67 260.42 285.88 261.15 293.12 261.63 300.28 262.84 307.52 263.38 314.74 264 321.97 264.64 329.19 265.3 336.35 266.56 343.55 267.55 350.79 268.12 357.53 266.02 364.33 264.11 370.87 261.4 377.79 259.88 384.59 257.99 391.11 255.19 397.83 253.02 404.52 250.79 411.35 248.98 418.12 246.95 425.01 245.35 431.63 242.88 438.42 240.96 445.12 238.73 451.84 236.55 458.45 234.05 465.25 232.14 471.89 229.73 478.9 228.45 485.85 226.13 485.85 218.35 485.23 210.81 485.65 203.27 485.75 195.73 485.74 188.19 485.61 180.64 485.07 173.1 485.5 165.55 485.09 158.01 485.79 150.1 478.67 152.27 472.1 154.93 465.29 156.78 458.56 158.92 451.82 161.03 445.09 163.17 438.46 165.64 431.55 167.22 425.02 170 418.23 171.93 411.33 173.56 404.52 175.44 397.98 178.17 391.32 180.54 384.44 182.23 377.58 183.94 371.08 186.81 364.36 189.02 357.36 190.31 350.73 192.73 343.52 192.31 336.37 191.02 329.12 190.58 321.96 189.45 314.72 188.91 307.48 188.44 300.36 186.9 293.09 186.7 285.86 186.12 278.74 184.53 271.49 184.1 264.25 183.61 257.12 182.17 249.86 181.82 242.63 181.32 235.49 179.89 228.24 179.41 220.98 178.24 214.16 180.43 207.53 182.92 200.91 185.45 194.09 187.33 187.37 189.55 180.62 191.65 173.66 193.11 167.14 195.98 160.13 197.27 153.51 199.93 146.35 199.25 139.28 198.02 132.17 197.16 124.99 196.82 117.96 195.28 110.85 194.4 103.69 193.89 96.59 192.96 89.46 192.25 82.38 191.08 75.25 190.4 68.1 189.79 60.96 189.12 53.89 187.91 46.81 186.76 39.63 186.39 32.55 185.62"/><polygon class="b" points="32.55 185.62 32.21 193.09 32.1 200.61 32.04 208.13 32.21 215.65 32.87 223.17 32.04 230.69 32.98 238.22 32.8 245.74 32.92 253.27 32.54 260.76 39.58 261.94 46.76 262.26 53.89 262.96 61.01 263.77 68.05 265.23 75.21 265.69 82.36 266.31 89.42 267.61 96.57 268.15 103.7 268.81 110.81 269.77 117.93 270.52 124.99 271.86 132.13 272.51 139.19 273.85 146.38 274.15 153.51 275.19 160.26 272.97 167.11 271.16 173.64 268.35 180.37 266.15 187.28 264.53 194.09 262.6 200.83 260.47 207.58 258.33 214.37 256.31 221 253.51 228.23 254.74 235.46 255.35 242.6 256.71 249.84 257.18 257.02 258.24 264.26 258.79 271.53 258.96 278.67 260.42 285.88 261.15 293.12 261.63 300.28 262.84 307.52 263.38 314.74 264 321.97 264.64 329.19 265.3 336.35 266.56 343.55 267.55 350.79 268.12 357.53 266.02 364.33 264.11 370.87 261.4 377.79 259.88 384.59 257.99 391.11 255.19 397.83 253.02 404.52 250.79 411.35 248.98 418.12 246.95 425.01 245.35 431.63 242.88 438.42 240.96 445.12 238.73 451.84 236.55 458.45 234.05 465.25 232.14 471.89 229.73 478.9 228.45 485.85 226.13 485.85 218.35 485.23 210.81 485.65 203.27 485.75 195.73 485.74 188.19 485.61 180.64 485.07 173.1 485.5 165.55 485.09 158.01 485.79 150.1 478.67 152.27 472.1 154.93 465.29 156.78 458.56 158.92 451.82 161.03 445.09 163.17 438.46 165.64 431.55 167.22 425.02 170 418.23 171.93 411.33 173.56 404.52 175.44 397.98 178.17 391.32 180.54 384.44 182.23 377.58 183.94 371.08 186.81 364.36 189.02 357.36 190.31 350.73 192.73 343.52 192.31 336.37 191.02 329.12 190.58 321.96 189.45 314.72 188.91 307.48 188.44 300.36 186.9 293.09 186.7 285.86 186.12 278.74 184.53 271.49 184.1 264.25 183.61 257.12 182.17 249.86 181.82 242.63 181.32 235.49 179.89 228.24 179.41 220.98 178.24 214.16 180.43 207.53 182.92 200.91 185.45 194.09 187.33 187.37 189.55 180.62 191.65 173.66 193.11 167.14 195.98 160.13 197.27 153.51 199.93 146.35 199.25 139.28 198.02 132.17 197.16 124.99 196.82 117.96 195.28 110.85 194.4 103.69 193.89 96.59 192.96 89.46 192.25 82.38 191.08 75.25 190.4 68.1 189.79 60.96 189.12 53.89 187.91 46.81 186.76 39.63 186.39 32.55 185.62"/><polygon points="153.33 275.21 153.98 267.49 153.65 259.97 153.03 252.45 153.36 244.93 153.53 237.4 153.19 229.88 153.47 222.36 153.63 214.83 153.13 207.3 153.15 199.53 160.24 197.48 167.22 195.97 173.96 193.65 180.69 191.32 187.47 189.16 194.22 186.88 201.22 185.41 207.8 182.59 214.71 180.83 221.24 178.97 221.4 186.19 221.6 193.73 221.34 201.28 221.64 208.82 221.83 216.37 221.24 223.91 221.39 231.46 221.01 239.01 221.5 246.56 221.59 254.18 214.83 256.62 207.98 258.54 201.13 260.44 194.45 262.93 187.44 264.32 180.8 266.93 173.9 268.68 167.15 270.95 160.32 272.96 153.33 275.21"/><polygon class="b" points="153.33 275.21 153.98 267.49 153.65 259.97 153.03 252.45 153.36 244.93 153.53 237.4 153.19 229.88 153.47 222.36 153.63 214.83 153.13 207.3 153.15 199.53 160.24 197.48 167.22 195.97 173.96 193.65 180.69 191.32 187.47 189.16 194.22 186.88 201.22 185.41 207.8 182.59 214.71 180.83 221.24 178.97 221.4 186.19 221.6 193.73 221.34 201.28 221.64 208.82 221.83 216.37 221.24 223.91 221.39 231.46 221.01 239.01 221.5 246.56 221.59 254.18 214.83 256.62 207.98 258.54 201.13 260.44 194.45 262.93 187.44 264.32 180.8 266.93 173.9 268.68 167.15 270.95 160.32 272.96 153.33 275.21"/><polygon points="350.96 193.01 350.95 200.39 351.13 207.9 351.21 215.43 350.54 222.95 350.59 230.47 350.63 237.99 350.62 245.52 350.95 253.04 350.38 260.57 350.98 267.85 357.62 266.31 364.24 263.85 371.05 261.99 377.8 259.91 384.4 257.39 391.12 255.24 397.8 252.94 404.58 250.99 411.47 249.36 418.01 246.64 424.72 244.42 431.54 242.59 438.22 240.3 445.05 238.49 451.78 236.37 458.6 234.54 465.38 232.56 472.02 230.15 478.68 227.75 485.52 225.9 485.96 218.35 485.5 210.81 485.23 203.27 485.77 195.73 485.29 188.19 485.44 180.64 485.08 173.1 485.21 165.55 485.23 158.01 485.58 150.36 478.87 152.91 471.95 154.45 465.16 156.38 458.44 158.54 451.82 161.05 445.18 163.47 438.3 165.12 431.64 167.51 424.91 169.63 418.06 171.42 411.32 173.52 404.74 176.13 398.06 178.43 391.31 180.5 384.51 182.44 377.73 184.42 370.85 186.08 364.22 188.55 357.64 191.2 350.96 193.01"/><polygon class="b" points="350.96 193.01 350.95 200.39 351.13 207.9 351.21 215.43 350.54 222.95 350.59 230.47 350.63 237.99 350.62 245.52 350.95 253.04 350.38 260.57 350.98 267.85 357.62 266.31 364.24 263.85 371.05 261.99 377.8 259.91 384.4 257.39 391.12 255.24 397.8 252.94 404.58 250.99 411.47 249.36 418.01 246.64 424.72 244.42 431.54 242.59 438.22 240.3 445.05 238.49 451.78 236.37 458.6 234.54 465.38 232.56 472.02 230.15 478.68 227.75 485.52 225.9 485.96 218.35 485.5 210.81 485.23 203.27 485.77 195.73 485.29 188.19 485.44 180.64 485.08 173.1 485.21 165.55 485.23 158.01 485.58 150.36 478.87 152.91 471.95 154.45 465.16 156.38 458.44 158.54 451.82 161.05 445.18 163.47 438.3 165.12 431.64 167.51 424.91 169.63 418.06 171.42 411.32 173.52 404.74 176.13 398.06 178.43 391.31 180.5 384.51 182.44 377.73 184.42 370.85 186.08 364.22 188.55 357.64 191.2 350.96 193.01"/><polygon class="a" points="447.18 423.28 453.98 420.79 461.05 418.97 467.85 416.29 475.01 414.79 481.99 412.66 489 410.68 495.93 408.4 502.86 406.16 509.77 403.82 516.72 401.58 523.5 399.31 516.58 398.47 509.51 397.63 502.37 397.42 495.39 395.74 488.28 395.19 481.17 394.73 474.13 393.6 467.03 392.93 459.95 392.21 452.86 391.54 445.79 390.63 438.7 389.93 431.66 388.77 424.53 388.45 417.51 387.16 410.32 387.33 403.27 386.26 396.2 385.4 389.07 385.02 382.04 383.73 374.94 383.01 367.82 382.6 360.74 381.86 353.69 380.9 346.65 379.7 339.58 378.85 332.43 378.69 325.41 377.4 318.34 376.53 311.18 376.47 304.19 374.86 297.11 374.08 289.95 373.97 282.96 372.46 275.83 372.13 268.76 371.23 261.72 370.12 254.59 369.72 247.55 368.6 240.39 368.5 233.35 367.28 226.28 367.13 219.25 368.92 212.1 370.61 205.17 373 198.18 375.21 191.29 377.73 184.3 379.93 177.39 382.4 170.34 384.43 163.15 386 156.43 389.09 149.25 390.69 142.41 393.37 135.28 395.16 128.2 397.09 121.16 399.14 114.36 401.96 107.33 404.05 100.37 406.37 93.45 408.8 86.3 410.52 79.38 413 71.84 414.96 79.34 416.11 86.46 416.45 93.55 417.15 100.63 417.93 107.68 418.96 114.73 419.97 121.88 420.17 128.9 421.5 135.97 422.29 143.06 422.99 150.22 423.06 157.29 423.95 164.35 424.9 171.42 425.82 178.46 426.9 185.59 427.28 192.66 428.17 199.78 428.58 206.8 429.95 213.94 430.26 221.04 430.9 228.06 432.27 235.21 432.4 242.21 433.82 249.36 434 256.35 435.6 263.51 435.56 270.6 436.3 277.6 437.84 284.77 437.8 291.76 439.36 298.92 439.47 305.95 440.71 313 441.72 320.13 442.01 327.26 442.39 334.25 443.99 341.39 444.24 348.41 445.52 355.55 445.86 362.64 446.63 369.76 447.54 362.8 449.85 355.91 452.26 348.9 454.23 341.85 456.12 334.89 458.28 328.12 461.06 320.93 462.49 314.06 464.92 307.18 467.38 300.2 469.51 293.32 471.94 286.44 473.57 279.72 475.72 272.9 477.53 266.36 480.25 259.46 481.81 252.73 483.9 246 486.02 239.38 488.47 232.59 490.42 225.88 492.58 219.03 494.31 212.3 496.42 205.68 498.9 198.99 501.13 192.22 503.12 185.51 505.29 178.64 506.95 172.17 509.93 165.31 511.63 158.47 513.37 151.9 516 145.16 518.13 138.83 519.99 145.45 520.54 152.52 521.18 159.58 521.95 166.54 523.62 173.64 524 180.71 524.66 187.78 525.31 194.86 525.99 201.92 526.72 208.99 527.38 216.04 528.24 223.06 529.45 230.14 530.03 237.22 530.56 244.21 532 251.36 532 258.37 533.26 265.38 534.45 272.48 534.9 279.59 535.29 286.63 536.28 293.26 533.84 300.05 531.96 306.75 529.74 313.51 527.73 320.37 526.04 326.91 523.33 333.75 521.58 340.41 519.23 347.08 516.93 354.07 515.66 360.61 512.92 367.36 510.88 374.19 509.08 380.93 506.99 387.65 504.85 394.4 502.79 401.01 500.31 407.93 498.79 414.5 496.15 421.19 493.91 428.08 492.32 434.58 489.44 441.41 487.61 448.45 485.55 455.36 483.09 462.59 481.67 469.31 478.61 476.32 476.44 483.31 474.25 490.34 472.17 497.56 470.69 504.39 467.95 511.53 466.22 518.34 463.44 525.44 461.57 532.28 458.88 539.51 457.42 546.53 455.32 553.45 452.87 560.54 450.98 567.54 448.77 574.41 446.17 581.43 444.06 588.25 441.27 595.26 439.54 588.39 438.36 581.27 438.15 574.24 437.11 567.14 436.75 560.08 435.92 553.05 434.95 546.03 433.77 538.9 433.59 531.89 432.44 524.86 431.4 517.73 431.2 510.66 430.55 503.68 429.07 496.52 429.17 489.53 427.76 482.48 426.86 475.42 426.09 468.33 425.56 461.23 425.18 454.19 424.11 447.18 423.28"/><polygon class="b" points="447.18 423.28 453.98 420.79 461.05 418.97 467.85 416.29 475.01 414.79 481.99 412.66 489 410.68 495.93 408.4 502.86 406.16 509.77 403.82 516.72 401.58 523.5 399.31 516.58 398.47 509.51 397.63 502.37 397.42 495.39 395.74 488.28 395.19 481.17 394.73 474.13 393.6 467.03 392.93 459.95 392.21 452.86 391.54 445.79 390.63 438.7 389.93 431.66 388.77 424.53 388.45 417.51 387.16 410.32 387.33 403.27 386.26 396.2 385.4 389.07 385.02 382.04 383.73 374.94 383.01 367.82 382.6 360.74 381.86 353.69 380.9 346.65 379.7 339.58 378.85 332.43 378.69 325.41 377.4 318.34 376.53 311.18 376.47 304.19 374.86 297.11 374.08 289.95 373.97 282.96 372.46 275.83 372.13 268.76 371.23 261.72 370.12 254.59 369.72 247.55 368.6 240.39 368.5 233.35 367.28 226.28 367.13 219.25 368.92 212.1 370.61 205.17 373 198.18 375.21 191.29 377.73 184.3 379.93 177.39 382.4 170.34 384.43 163.15 386 156.43 389.09 149.25 390.69 142.41 393.37 135.28 395.16 128.2 397.09 121.16 399.14 114.36 401.96 107.33 404.05 100.37 406.37 93.45 408.8 86.3 410.52 79.38 413 71.84 414.96 79.34 416.11 86.46 416.45 93.55 417.15 100.63 417.93 107.68 418.96 114.73 419.97 121.88 420.17 128.9 421.5 135.97 422.29 143.06 422.99 150.22 423.06 157.29 423.95 164.35 424.9 171.42 425.82 178.46 426.9 185.59 427.28 192.66 428.17 199.78 428.58 206.8 429.95 213.94 430.26 221.04 430.9 228.06 432.27 235.21 432.4 242.21 433.82 249.36 434 256.35 435.6 263.51 435.56 270.6 436.3 277.6 437.84 284.77 437.8 291.76 439.36 298.92 439.47 305.95 440.71 313 441.72 320.13 442.01 327.26 442.39 334.25 443.99 341.39 444.24 348.41 445.52 355.55 445.86 362.64 446.63 369.76 447.54 362.8 449.85 355.91 452.26 348.9 454.23 341.85 456.12 334.89 458.28 328.12 461.06 320.93 462.49 314.06 464.92 307.18 467.38 300.2 469.51 293.32 471.94 286.44 473.57 279.72 475.72 272.9 477.53 266.36 480.25 259.46 481.81 252.73 483.9 246 486.02 239.38 488.47 232.59 490.42 225.88 492.58 219.03 494.31 212.3 496.42 205.68 498.9 198.99 501.13 192.22 503.12 185.51 505.29 178.64 506.95 172.17 509.93 165.31 511.63 158.47 513.37 151.9 516 145.16 518.13 138.83 519.99 145.45 520.54 152.52 521.18 159.58 521.95 166.54 523.62 173.64 524 180.71 524.66 187.78 525.31 194.86 525.99 201.92 526.72 208.99 527.38 216.04 528.24 223.06 529.45 230.14 530.03 237.22 530.81 244.21 532.5 251.36 532.5 258.37 533.51 265.38 534.58 272.48 534.97 279.59 535.32 286.63 536.29 293.26 533.85 300.05 531.96 306.75 529.74 313.51 527.73 320.37 526.04 326.91 523.33 333.75 521.58 340.41 519.23 347.08 516.93 354.07 515.66 360.61 512.92 367.36 510.88 374.19 509.08 380.93 506.99 387.65 504.85 394.4 502.79 401.01 500.31 407.93 498.79 414.5 496.15 421.19 493.91 428.08 492.32 434.58 489.44 441.41 487.61 448.45 485.55 455.36 483.09 462.59 481.67 469.31 478.61 476.32 476.44 483.31 474.25 490.34 472.17 497.56 470.69 504.39 467.95 511.53 466.22 518.34 463.44 525.44 461.57 532.28 458.88 539.51 457.42 546.53 455.32 553.45 452.87 560.54 450.98 567.54 448.77 574.41 446.17 581.43 444.06 588.25 441.27 595.26 439.54 588.39 438.36 581.27 438.15 574.24 437.11 567.14 436.75 560.08 435.92 553.05 434.95 546.03 433.77 538.9 433.59 531.89 432.44 524.86 431.4 517.73 431.2 510.66 430.55 503.68 429.07 496.52 429.17 489.53 427.76 482.48 426.86 475.42 426.09 468.33 425.56 461.23 425.18 454.19 424.11 447.18 423.28"/><polygon class="a" points="72.81 340.33 72.25 347.5 72.77 354.99 72.31 362.49 72.3 369.99 72.24 377.49 72.95 384.99 72.97 392.49 72.77 399.99 72.45 407.5 72.84 414.7 79.73 415.93 86.96 416.8 94.27 417.03 101.42 418.65 108.75 418.6 116 419.35 123.14 421.05 130.45 421.21 137.73 421.71 144.91 423.07 152.21 423.33 159.42 424.47 166.65 425.29 173.92 425.85 181.13 426.9 188.4 427.47 195.66 428 202.81 429.66 210.12 429.84 217.38 430.42 224.56 431.85 231.82 432.47 239.07 433.18 246.29 434.15 253.55 434.86 260.79 435.65 268.08 436.06 275.33 436.83 282.49 438.39 289.73 439.2 297.03 439.57 304.25 440.58 311.46 441.64 318.74 442.12 326.05 442.38 333.26 443.46 340.54 444.01 347.78 444.87 355.01 445.83 362.2 447.17 369.63 447.69 369.59 440.09 369.86 432.64 369.64 425.19 369.47 417.74 369.88 410.28 369.04 402.83 369.31 395.37 369.19 387.92 369.02 380.46 369.27 373.2 362.38 372.68 355.41 370.98 348.28 370.77 341.17 370.34 334.19 368.73 327.07 368.35 320.06 367.11 312.91 367.03 305.87 365.96 298.8 365.14 291.75 364.22 284.64 363.74 277.61 362.58 270.55 361.71 263.43 361.43 256.41 360.24 249.35 359.36 242.28 358.56 235.17 358.19 228.14 357.02 221.03 356.58 213.94 356.04 206.86 355.31 199.81 354.3 192.79 353.11 185.71 352.37 178.59 352.07 171.53 351.11 164.51 349.87 157.41 349.3 150.36 348.38 143.28 347.58 136.13 347.49 129.16 345.8 122.06 345.32 114.98 344.58 107.84 344.38 100.79 343.34 93.74 342.37 86.64 341.77 79.56 341.09 72.81 340.33"/><polygon class="b" points="72.81 340.33 72.25 347.5 72.77 354.99 72.31 362.49 72.3 369.99 72.24 377.49 72.95 384.99 72.97 392.49 72.77 399.99 72.45 407.5 72.84 414.7 79.73 415.93 86.96 416.8 94.27 417.03 101.42 418.65 108.75 418.6 116 419.35 123.14 421.05 130.45 421.21 137.73 421.71 144.91 423.07 152.21 423.33 159.42 424.47 166.65 425.29 173.92 425.85 181.13 426.9 188.4 427.47 195.66 428 202.81 429.66 210.12 429.84 217.38 430.42 224.56 431.85 231.82 432.47 239.07 433.18 246.29 434.15 253.55 434.86 260.79 435.65 268.08 436.06 275.33 436.83 282.49 438.39 289.73 439.2 297.03 439.57 304.25 440.58 311.46 441.64 318.74 442.12 326.05 442.38 333.26 443.46 340.54 444.01 347.78 444.87 355.01 445.83 362.2 447.17 369.63 447.69 369.59 440.09 369.86 432.64 369.64 425.19 369.47 417.74 369.88 410.28 369.04 402.83 369.31 395.37 369.19 387.92 369.02 380.46 369.27 373.2 362.38 372.68 355.41 370.98 348.28 370.77 341.17 370.34 334.19 368.73 327.07 368.35 320.06 367.11 312.91 367.03 305.87 365.96 298.8 365.14 291.75 364.22 284.64 363.74 277.61 362.58 270.55 361.71 263.43 361.43 256.41 360.24 249.35 359.36 242.28 358.56 235.17 358.19 228.14 357.02 221.03 356.58 213.94 356.04 206.86 355.31 199.81 354.3 192.79 353.11 185.71 352.37 178.59 352.07 171.53 351.11 164.51 349.87 157.41 349.3 150.36 348.38 143.28 347.58 136.13 347.49 129.16 345.8 122.06 345.32 114.98 344.58 107.84 344.38 100.79 343.34 93.74 342.37 86.64 341.77 79.56 341.09 72.81 340.33"/><polygon class="a" points="447.55 348.27 454.2 346.48 460.93 343.57 468.13 342.18 474.92 339.48 482.04 337.85 488.89 335.33 495.76 332.87 502.7 330.63 509.61 328.29 516.71 326.55 523.19 324.32 516.55 323.73 509.52 322.54 502.43 321.85 495.36 321.02 488.25 320.44 481.14 319.96 474.08 319.03 467.02 318.09 459.98 316.9 452.9 316.16 445.77 315.81 438.73 314.62 431.62 314.14 424.5 313.7 417.44 312.74 410.37 311.86 403.27 311.29 396.23 310.15 389.17 309.13 382.01 308.99 374.98 307.68 367.81 307.69 360.75 306.8 353.68 305.94 346.65 304.74 339.58 303.83 332.47 303.36 325.34 303.01 318.28 302.08 311.18 301.46 304.13 300.42 297.07 299.49 290 298.53 282.93 297.75 275.86 296.83 268.76 296.27 261.7 295.28 254.63 294.36 247.46 294.4 240.47 292.76 233.37 292.11 226.28 292.06 219.35 294.22 212.27 296.16 205.4 298.73 198.31 300.62 191.4 303.09 184.13 304.41 177.16 306.67 170.28 309.25 163.22 311.25 156.31 313.7 149.22 315.59 142.43 318.45 135.29 320.19 128.17 321.99 121.32 324.64 114.22 326.52 107.28 328.9 100.33 331.24 93.38 333.58 86.28 335.44 79.31 337.75 72.74 339.94 79.41 340.48 86.44 341.62 93.58 341.83 100.65 342.73 107.72 343.62 114.79 344.44 121.9 344.92 128.89 346.52 135.97 347.32 143.11 347.57 150.2 348.3 157.23 349.53 164.33 350.05 171.41 350.84 178.5 351.59 185.61 352.08 192.66 353.11 199.74 353.94 206.85 354.49 213.94 355.23 221.02 356.12 228.11 356.75 235.12 358.16 242.22 358.81 249.35 359.02 256.37 360.36 263.5 360.73 270.52 362.04 277.64 362.44 284.74 363.01 291.77 364.25 298.87 364.92 305.94 365.73 312.99 366.82 320.11 367.25 327.21 367.79 334.34 368.18 341.33 369.73 348.45 370.14 355.49 371.37 362.62 371.79 369.93 372.53 362.66 374.42 355.9 377.24 348.71 378.65 341.76 380.82 334.9 383.31 327.93 385.45 321.1 388.04 314.04 389.88 307.26 392.63 300.28 394.75 293.28 396.81 286.54 398.9 279.79 400.92 273.01 402.88 266.29 405.01 259.6 407.23 252.93 409.54 246.1 411.34 239.32 413.29 232.5 415.11 225.99 417.93 219.25 420.03 212.36 421.62 205.84 424.41 198.86 425.73 192.14 427.86 185.41 429.99 178.88 432.73 172.14 434.83 165.19 436.24 158.58 438.72 151.85 440.84 145.09 442.89 138.47 445.03 145.37 446.25 152.51 446.24 159.5 447.66 166.55 448.5 173.63 449.05 180.72 449.56 187.82 450.01 194.81 451.43 201.9 451.88 209 452.29 216.02 453.5 223.12 453.87 230.17 454.75 237.24 455.42 244.27 456.44 251.28 457.69 258.42 457.8 265.41 459.16 272.52 459.56 279.54 460.74 286.63 461.23 293.44 459.41 300.2 457.41 306.85 455.05 313.44 452.52 320.28 450.76 327.01 448.64 333.83 446.83 340.54 444.66 347.16 442.18 353.88 440.03 360.79 438.5 367.48 436.27 374.26 434.32 380.94 432.02 387.55 429.52 394.26 427.35 401.01 425.3 407.82 423.46 414.55 421.31 421.33 419.37 428.1 417.38 434.66 414.68 441.44 412.7 448.4 410.41 455.36 408.11 462.35 405.9 469.31 403.61 476.33 401.48 483.33 399.29 490.35 397.18 497.39 395.15 504.28 392.61 511.3 390.48 518.52 389.01 525.39 386.42 532.35 384.08 539.38 382 546.33 379.67 553.47 377.92 560.38 375.47 567.29 372.99 574.53 371.56 581.47 369.18 588.42 366.8 595.51 364.53 588.38 363.44 581.33 362.63 574.18 362.67 567.21 361.07 560.16 360.24 553.09 359.58 546.05 358.63 538.94 358.26 531.86 357.72 524.84 356.59 517.72 356.27 510.63 355.74 503.58 354.9 496.54 354.02 489.53 352.76 482.42 352.47 475.38 351.45 468.33 350.63 461.21 350.31 454.24 348.67 447.55 348.27"/><polygon class="b" points="447.55 348.27 454.2 346.48 460.93 343.57 468.13 342.18 474.92 339.48 482.04 337.85 488.89 335.33 495.76 332.87 502.7 330.63 509.61 328.29 516.71 326.55 523.19 324.32 516.55 323.73 509.52 322.54 502.43 321.85 495.36 321.02 488.25 320.44 481.14 319.96 474.08 319.03 467.02 318.09 459.98 316.9 452.9 316.16 445.77 315.81 438.73 314.62 431.62 314.14 424.5 313.7 417.44 312.74 410.37 311.86 403.27 311.29 396.23 310.15 389.17 309.13 382.01 308.99 374.98 307.68 367.81 307.69 360.75 306.8 353.68 305.94 346.65 304.74 339.58 303.83 332.47 303.36 325.34 303.01 318.28 302.08 311.18 301.46 304.13 300.42 297.07 299.49 290 298.53 282.93 297.75 275.86 296.83 268.76 296.27 261.7 295.28 254.63 294.36 247.46 294.4 240.47 292.76 233.37 292.11 226.28 292.06 219.35 294.22 212.27 296.16 205.4 298.73 198.31 300.62 191.4 303.09 184.13 304.41 177.16 306.67 170.28 309.25 163.22 311.25 156.31 313.7 149.22 315.59 142.43 318.45 135.29 320.19 128.17 321.99 121.32 324.64 114.22 326.52 107.28 328.9 100.33 331.24 93.38 333.58 86.28 335.44 79.31 337.75 72.74 339.94 79.41 340.48 86.44 341.62 93.58 341.83 100.65 342.73 107.72 343.62 114.79 344.44 121.9 344.92 128.89 346.52 135.97 347.32 143.11 347.57 150.2 348.3 157.23 349.53 164.33 350.05 171.41 350.84 178.5 351.59 185.61 352.08 192.66 353.11 199.74 353.94 206.85 354.49 213.94 355.23 221.02 356.12 228.11 356.75 235.12 358.16 242.22 358.81 249.35 359.02 256.37 360.36 263.5 360.73 270.52 362.04 277.64 362.44 284.74 363.01 291.77 364.25 298.87 364.92 305.94 365.73 312.99 366.82 320.11 367.25 327.21 367.79 334.34 368.18 341.33 369.73 348.45 370.14 355.49 371.37 362.62 371.79 369.93 372.53 362.66 374.42 355.9 377.24 348.71 378.65 341.76 380.82 334.9 383.31 327.93 385.45 321.1 388.04 314.04 389.88 307.26 392.63 300.28 394.75 293.28 396.81 286.54 398.9 279.79 400.92 273.01 402.88 266.29 405.01 259.6 407.23 252.93 409.54 246.1 411.34 239.32 413.29 232.5 415.11 225.99 417.93 219.25 420.03 212.36 421.62 205.84 424.41 198.86 425.73 192.14 427.86 185.41 429.99 178.88 432.73 172.14 434.83 165.19 436.24 158.58 438.72 151.85 440.84 145.09 442.89 138.47 445.03 145.37 446.25 152.51 446.24 159.5 447.66 166.55 448.5 173.63 449.05 180.72 449.56 187.82 450.01 194.81 451.43 201.9 451.88 209 452.29 216.02 453.5 223.12 453.87 230.17 454.75 237.24 455.42 244.27 456.44 251.28 457.69 258.42 457.8 265.41 459.16 272.52 459.56 279.54 460.74 286.63 461.23 293.44 459.41 300.2 457.41 306.85 455.05 313.44 452.52 320.28 450.76 327.01 448.64 333.83 446.83 340.54 444.66 347.16 442.18 353.88 440.03 360.79 438.5 367.48 436.27 374.26 434.32 380.94 432.02 387.55 429.52 394.26 427.35 401.01 425.3 407.82 423.46 414.55 421.31 421.33 419.37 428.1 417.38 434.66 414.68 441.44 412.7 448.4 410.41 455.36 408.11 462.35 405.9 469.31 403.61 476.33 401.48 483.33 399.29 490.35 397.18 497.39 395.15 504.28 392.61 511.3 390.48 518.52 389.01 525.39 386.42 532.35 384.08 539.38 382 546.33 379.67 553.47 377.92 560.38 375.47 567.29 372.99 574.53 371.56 581.47 369.18 588.42 366.8 595.51 364.53 588.38 363.44 581.33 362.63 574.18 362.67 567.21 361.07 560.16 360.24 553.09 359.58 546.05 358.63 538.94 358.26 531.86 357.72 524.84 356.59 517.72 356.27 510.63 355.74 503.58 354.9 496.54 354.02 489.53 352.76 482.42 352.47 475.38 351.45 468.33 350.63 461.21 350.31 454.24 348.67 447.55 348.27"/><polygon class="a" points="138.39 444.88 138.14 452.5 138.9 459.99 138.74 467.49 138.37 474.99 138.47 482.49 138.44 489.99 138.25 497.49 138.48 504.99 138.84 512.5 138.26 520.2 145.54 520.86 152.61 521.52 159.63 522.59 166.66 523.59 173.82 523.44 180.85 524.39 187.88 525.45 194.99 525.75 201.97 527.15 209.02 528.04 216.08 528.73 223.21 528.84 230.22 529.98 237.32 530.42 244.35 531.43 251.41 532.15 258.4 533.56 265.54 533.56 272.51 535.13 279.66 535.18 286.71 536.56 293.48 533.95 300.35 531.82 307.34 530.07 314.18 527.86 320.85 525.09 327.93 523.64 334.79 521.51 341.44 518.69 348.34 516.65 355.4 515.14 362.08 512.39 368.97 510.34 375.78 508.02 382.76 506.25 389.46 503.61 396.47 501.9 403.36 499.87 410.31 498 416.94 495.13 424.03 493.71 430.81 491.33 437.48 488.54 444.55 487.08 451.26 484.44 458.29 482.84 465.21 480.86 472.03 478.59 478.88 476.39 485.79 474.4 492.42 471.51 499.48 469.99 506.24 467.49 513.16 465.52 519.83 462.73 526.88 461.21 533.65 458.72 540.71 457.21 547.48 454.77 554.19 452.12 561.05 449.94 567.98 448.02 575.03 446.46 581.88 444.25 588.49 441.26 595.6 439.6 595.32 432.08 595.57 424.63 595.44 417.18 595.41 409.73 595.66 402.28 595.8 394.83 595.36 387.37 595.88 379.92 595.16 372.46 595.48 365.02 588.69 367.3 581.67 368.95 574.82 371.13 567.92 373.12 561.28 375.97 554.2 377.43 547.35 379.62 540.51 381.82 533.89 384.73 526.96 386.64 519.95 388.31 513.24 390.96 506.27 392.74 499.28 394.48 492.56 397.09 485.8 399.56 478.72 400.96 471.97 403.46 465.18 405.84 458.13 407.37 451.53 410.35 444.61 412.29 437.65 414.12 430.77 416.21 424.06 418.83 416.98 420.28 410.32 423.04 403.37 424.92 396.38 426.67 389.65 429.22 382.7 431.11 375.86 433.31 369.19 436.07 362.32 438.19 355.25 439.7 348.5 442.21 341.6 444.21 334.72 446.32 327.88 448.56 320.97 450.53 314.15 452.82 307.36 455.2 300.35 456.91 293.63 459.54 286.59 460.84 279.62 460.23 272.5 460.02 265.45 459.28 258.38 458.65 251.43 456.98 244.37 456.26 237.3 455.62 230.24 454.88 223.19 454.07 216.14 453.32 209.03 452.99 202 452.03 194.9 451.7 187.88 450.59 180.81 449.95 173.8 448.81 166.76 447.85 159.64 447.69 152.65 446.37 145.53 446.1 138.39 444.88"/><polygon class="b" points="138.39 444.88 138.14 452.5 138.9 459.99 138.74 467.49 138.37 474.99 138.47 482.49 138.44 489.99 138.25 497.49 138.48 504.99 138.84 512.5 138.26 520.2 145.54 520.86 152.61 521.52 159.63 522.59 166.66 523.59 173.82 523.44 180.85 524.39 187.88 525.45 194.99 525.75 201.97 527.15 209.02 528.04 216.08 528.73 223.21 528.84 230.22 529.98 237.32 530.42 244.35 531.43 251.41 532.15 258.4 533.56 265.54 533.56 272.51 535.13 279.66 535.18 286.71 536.56 293.48 533.95 300.35 531.82 307.34 530.07 314.18 527.86 320.85 525.09 327.93 523.64 334.79 521.51 341.44 518.69 348.34 516.65 355.4 515.14 362.08 512.39 368.97 510.34 375.78 508.02 382.76 506.25 389.46 503.61 396.47 501.9 403.36 499.87 410.31 498 416.94 495.13 424.03 493.71 430.81 491.33 437.48 488.54 444.55 487.08 451.26 484.44 458.29 482.84 465.21 480.86 472.03 478.59 478.88 476.39 485.79 474.4 492.42 471.51 499.48 469.99 506.24 467.49 513.16 465.52 519.83 462.73 526.88 461.21 533.65 458.72 540.71 457.21 547.48 454.77 554.19 452.12 561.05 449.94 567.98 448.02 575.03 446.46 581.88 444.25 588.49 441.26 595.6 439.6 595.32 432.08 595.57 424.63 595.44 417.18 595.41 409.73 595.66 402.28 595.8 394.83 595.36 387.37 595.88 379.92 595.16 372.46 595.48 365.02 588.69 367.3 581.67 368.95 574.82 371.13 567.92 373.12 561.28 375.97 554.2 377.43 547.35 379.62 540.51 381.82 533.89 384.73 526.96 386.64 519.95 388.31 513.24 390.96 506.27 392.74 499.28 394.48 492.56 397.09 485.8 399.56 478.72 400.96 471.97 403.46 465.18 405.84 458.13 407.37 451.53 410.35 444.61 412.29 437.65 414.12 430.77 416.21 424.06 418.83 416.98 420.28 410.32 423.04 403.37 424.92 396.38 426.67 389.65 429.22 382.7 431.11 375.86 433.31 369.19 436.07 362.32 438.19 355.25 439.7 348.5 442.21 341.6 444.21 334.72 446.32 327.88 448.56 320.97 450.53 314.15 452.82 307.36 455.2 300.35 456.91 293.63 459.54 286.59 460.84 279.62 460.23 272.5 460.02 265.45 459.28 258.38 458.65 251.43 456.98 244.37 456.26 237.3 455.62 230.24 454.88 223.19 454.07 216.14 453.32 209.03 452.99 202 452.03 194.9 451.7 187.88 450.59 180.81 449.95 173.8 448.81 166.76 447.85 159.64 447.69 152.65 446.37 145.53 446.1 138.39 444.88"/><polygon points="523.4 324.16 523.93 330.6 523.25 337.19 523.41 343.79 523.51 350.4 523.75 357.3 516.57 356.1 509.6 355.59 502.66 354.81 495.72 354.01 488.79 353.11 481.87 352.12 474.89 351.62 467.96 350.77 461.05 349.65 454.05 349.3 447.06 348.28 454.19 346.45 460.9 343.54 467.94 341.62 474.79 339.14 481.92 337.54 488.68 334.74 495.86 333.28 502.62 330.53 509.5 328.1 516.51 326.08 523.4 324.16"/><polygon class="b" points="523.4 324.16 523.93 330.6 523.25 337.19 523.41 343.79 523.51 350.4 523.75 357.3 516.57 356.1 509.6 355.59 502.66 354.81 495.72 354.01 488.79 353.11 481.87 352.12 474.89 351.62 467.96 350.77 461.05 349.65 454.05 349.3 447.06 348.28 454.19 346.45 460.9 343.54 467.94 341.62 474.79 339.14 481.92 337.54 488.68 334.74 495.86 333.28 502.62 330.53 509.5 328.1 516.51 326.08 523.4 324.16"/><polygon points="286.84 536.33 286.36 529.02 287.04 521.51 286.69 514 286.44 506.49 286.53 498.98 286.39 491.47 286.67 483.96 286.48 476.45 286.19 468.93 286.83 461.55 293.47 459.2 300.32 457.01 307.21 454.95 314.19 453.19 320.99 450.85 327.83 448.65 334.6 446.19 341.63 444.57 348.47 442.37 355.35 440.3 362.11 437.81 369.1 436.09 375.8 433.42 382.72 431.46 389.61 429.41 396.33 426.82 403.38 425.28 410.23 423.12 417.03 420.78 423.79 418.3 430.86 416.82 437.69 414.59 444.34 411.76 451.35 410.11 458.26 408.11 465.06 405.77 471.83 403.35 478.77 401.45 485.52 398.92 492.44 396.96 499.42 395.18 506.15 392.6 513.03 390.51 520.08 388.98 526.73 386.13 533.57 383.89 540.45 381.83 547.3 379.62 554.27 377.8 561.11 375.59 568.16 374.02 574.94 371.62 581.9 369.75 588.75 367.56 595.39 365.13 595.14 372.5 595.89 379.99 595.09 387.49 595.35 394.99 595.11 402.49 595.99 409.99 595.66 417.49 595.63 424.99 595.42 432.5 595.24 439.82 588.78 442.58 581.72 444.11 575.05 446.87 567.96 448.27 561.14 450.55 554.25 452.6 547.44 454.89 540.61 457.16 533.83 459.55 526.74 460.97 520.16 464.03 513.12 465.58 506.23 467.63 499.36 469.76 492.65 472.39 485.77 474.47 478.77 476.17 472.14 479.05 465.2 480.92 458.21 482.65 451.47 485.17 444.44 486.76 437.69 489.3 430.7 491.02 423.95 493.51 417.08 495.63 410.3 498.05 403.4 500.05 396.58 502.35 389.57 504.01 382.84 506.59 375.91 508.52 369.11 510.89 362.14 512.69 355.32 514.97 348.48 517.21 341.48 518.92 334.83 521.75 327.92 523.73 321.16 526.21 314.25 528.23 307.16 529.63 300.34 531.96 293.55 534.35 286.84 536.33"/><polygon class="b" points="286.84 536.33 286.36 529.02 287.04 521.51 286.69 514 286.44 506.49 286.53 498.98 286.39 491.47 286.67 483.96 286.48 476.45 286.19 468.93 286.83 461.55 293.47 459.2 300.32 457.01 307.21 454.95 314.19 453.19 320.99 450.85 327.83 448.65 334.6 446.19 341.63 444.57 348.47 442.37 355.35 440.3 362.11 437.81 369.1 436.09 375.8 433.42 382.72 431.46 389.61 429.41 396.33 426.82 403.38 425.28 410.23 423.12 417.03 420.78 423.79 418.3 430.86 416.82 437.69 414.59 444.34 411.76 451.35 410.11 458.26 408.11 465.06 405.77 471.83 403.35 478.77 401.45 485.52 398.92 492.44 396.96 499.42 395.18 506.15 392.6 513.03 390.51 520.08 388.98 526.73 386.13 533.57 383.89 540.45 381.83 547.3 379.62 554.27 377.8 561.11 375.59 568.16 374.02 574.94 371.62 581.9 369.75 588.75 367.56 595.39 365.13 595.14 372.5 595.89 379.99 595.09 387.49 595.35 394.99 595.11 402.49 595.99 409.99 595.66 417.49 595.63 424.99 595.42 432.5 595.24 439.82 588.78 442.58 581.72 444.11 575.05 446.87 567.96 448.27 561.14 450.55 554.25 452.6 547.44 454.89 540.61 457.16 533.83 459.55 526.74 460.97 520.16 464.03 513.12 465.58 506.23 467.63 499.36 469.76 492.65 472.39 485.77 474.47 478.77 476.17 472.14 479.05 465.2 480.92 458.21 482.65 451.47 485.17 444.44 486.76 437.69 489.3 430.7 491.02 423.95 493.51 417.08 495.63 410.3 498.05 403.4 500.05 396.58 502.35 389.57 504.01 382.84 506.59 375.91 508.52 369.11 510.89 362.14 512.69 355.32 514.97 348.48 517.21 341.48 518.92 334.83 521.75 327.92 523.73 321.16 526.21 314.25 528.23 307.16 529.63 300.34 531.96 293.55 534.35 286.84 536.33"/><polygon class="a" points="635.35 556 628.78 558 622.16 560.15 615.66 562.67 608.99 564.69 602.52 567.27 595.91 569.48 589.38 571.9 582.75 574.05 576.37 577.26 569.2 576.03 562.1 575.15 555.07 573.71 547.88 573.48 540.85 572.04 533.76 571.01 526.6 570.65 519.49 569.83 512.39 568.88 505.27 568.16 498.21 566.94 491.07 566.4 484.06 564.8 476.89 564.36 469.81 563.22 462.69 562.42 455.55 561.5 448.43 560.47 441.29 559.51 434.08 559.13 427 557.7 419.77 557.51 412.64 556.43 405.55 555.13 398.35 554.69 391.2 553.84 384.09 552.63 376.98 551.5 369.87 550.34 362.72 549.45 355.48 549.23 348.39 548.43 341.7 550.17 335.1 552.4 328.54 554.72 322.3 557.97 315.46 559.52 309.1 562.39 302.65 565.06 295.98 567.09 289.42 569.8 282.2 568.59 275.09 567.42 267.88 567.08 260.83 565.4 253.69 564.47 246.56 563.47 239.3 563.46 232.2 562.24 225.11 560.91 217.88 560.67 210.79 559.33 203.57 559.01 196.47 557.82 189.3 557.09 182.18 555.86 175 554.67 168.41 557.23 161.97 560.02 155.28 562.12 148.77 564.72 142.05 566.73 135.34 568.79 128.81 571.33 122.12 573.43 115.68 576.2 109.27 579.08 102.52 581.03 95.97 583.52 89.48 586.19 82.6 587.76 76.2 590.65 69.38 592.43 62.87 595.06 56.7 597.55 63.47 598.56 70.66 599.08 77.78 600.17 84.89 601.35 92.03 602.29 99.25 602.56 106.32 604.09 113.45 605.05 120.63 605.68 127.77 606.65 134.89 607.74 142.07 608.34 149.24 609.02 156.3 610.68 163.56 610.68 170.69 612.21 177.18 609.53 183.82 607.43 190.23 604.66 196.87 602.56 203.44 600.26 209.82 597.42 216.65 595.81 223.03 592.98 229.67 590.96 236.82 591.47 243.89 592.93 251.08 593.5 258.24 594.32 265.37 595.31 272.47 596.54 279.65 597.15 286.87 597.49 293.93 599.01 301.07 599.95 308.2 600.97 315.36 601.79 322.48 602.86 329.66 603.53 336.78 604.68 344.03 604.81 351.13 606.03 358.24 607.19 365.42 607.87 372.62 608.28 379.65 610.06 386.85 610.58 394.03 611.19 401.13 612.38 408.27 613.33 415.4 614.35 422.58 614.97 429.74 615.81 436.87 616.76 443.97 618.03 451.19 618.42 458.37 620 464.95 617.39 471.48 614.98 477.82 612.05 484.59 610.3 491.06 607.71 497.78 605.83 504.18 603.04 510.9 601.12 517.34 598.66 524.39 599.28 531.55 599.7 538.64 600.74 545.69 601.99 552.8 602.87 559.96 603.3 567.07 604.13 574.08 605.66 581.19 606.5 588.34 607.03 595.38 608.36 602.47 609.42 609.65 609.64 616.68 611.1 623.89 611.24 630.99 613.06 637.6 610.44 644.18 608.04 650.73 605.55 657.47 603.59 663.74 600.32 670.46 598.31 677.24 596.44 683.67 593.63 690.2 591.09 696.77 588.65 703.54 586.79 710.13 584.38 716.63 581.77 723.25 579.45 729.7 576.7 736.31 574.36 743.09 572.47 749.87 569.9 742.55 568.62 735.3 568.52 728.23 567.06 721.11 565.98 713.96 565.1 706.83 564.09 699.66 563.4 692.45 563.01 685.38 561.53 678.21 560.84 671.1 559.68 663.91 559.13 656.72 558.59 649.62 557.26 642.49 556.07 635.35 556"/><polygon class="b" points="635.35 556 628.78 558 622.16 560.15 615.66 562.67 608.99 564.69 602.52 567.27 595.91 569.48 589.38 571.9 582.75 574.05 576.37 577.26 569.2 576.03 562.1 575.15 555.07 573.71 547.88 573.48 540.85 572.04 533.76 571.01 526.6 570.65 519.49 569.83 512.39 568.88 505.27 568.16 498.21 566.94 491.07 566.4 484.06 564.8 476.89 564.36 469.81 563.22 462.69 562.42 455.55 561.5 448.43 560.47 441.29 559.51 434.08 559.13 427 557.7 419.77 557.51 412.64 556.43 405.55 555.13 398.35 554.69 391.2 553.84 384.09 552.63 376.98 551.5 369.87 550.34 362.72 549.45 355.48 549.23 348.39 548.43 341.7 550.17 335.1 552.4 328.54 554.72 322.3 557.97 315.46 559.52 309.1 562.39 302.65 565.06 295.98 567.09 289.42 569.8 282.2 568.59 275.09 567.42 267.88 567.08 260.83 565.4 253.69 564.47 246.56 563.47 239.3 563.46 232.2 562.24 225.11 560.91 217.88 560.67 210.79 559.33 203.57 559.01 196.47 557.82 189.3 557.09 182.18 555.86 175 554.67 168.41 557.23 161.97 560.02 155.28 562.12 148.77 564.72 142.05 566.73 135.34 568.79 128.81 571.33 122.12 573.43 115.68 576.2 109.27 579.08 102.52 581.03 95.97 583.52 89.48 586.19 82.6 587.76 76.2 590.65 69.38 592.43 62.87 595.06 56.7 597.55 63.47 598.56 70.66 599.08 77.78 600.17 84.89 601.35 92.03 602.29 99.25 602.56 106.32 604.09 113.45 605.05 120.63 605.68 127.77 606.65 134.89 607.74 142.07 608.34 149.24 609.02 156.3 610.68 163.56 610.68 170.69 612.21 177.18 609.53 183.82 607.43 190.23 604.66 196.87 602.56 203.44 600.26 209.82 597.42 216.65 595.81 223.03 592.98 229.67 590.96 236.82 591.47 243.89 592.93 251.08 593.5 258.24 594.32 265.37 595.31 272.47 596.54 279.65 597.15 286.87 597.49 293.93 599.01 301.07 599.95 308.2 600.97 315.36 601.79 322.48 602.86 329.66 603.53 336.78 604.68 344.03 604.81 351.13 606.03 358.24 607.19 365.42 607.87 372.62 608.28 379.65 610.06 386.85 610.58 394.03 611.19 401.13 612.38 408.27 613.33 415.4 614.35 422.58 614.97 429.74 615.81 436.87 616.76 443.97 618.03 451.19 618.42 458.37 620 464.95 617.39 471.48 614.98 477.82 612.05 484.59 610.3 491.06 607.71 497.78 605.83 504.18 603.04 510.9 601.12 517.34 598.66 524.39 599.28 531.55 599.7 538.64 600.74 545.69 601.99 552.8 602.87 559.96 603.3 567.07 604.13 574.08 605.66 581.19 606.5 588.34 607.03 595.38 608.36 602.47 609.42 609.65 609.64 616.68 611.1 623.89 611.24 630.99 613.06 637.6 610.44 644.18 608.04 650.73 605.55 657.47 603.59 663.74 600.32 670.46 598.31 677.24 596.44 683.67 593.63 690.2 591.09 696.77 588.65 703.54 586.79 710.13 584.38 716.63 581.77 723.25 579.45 729.7 576.7 736.31 574.36 743.09 572.47 749.87 569.9 742.55 568.62 735.3 568.52 728.23 567.06 721.11 565.98 713.96 565.1 706.83 564.09 699.66 563.4 692.45 563.01 685.38 561.53 678.21 560.84 671.1 559.68 663.91 559.13 656.72 558.59 649.62 557.26 642.49 556.07 635.35 556"/><polygon class="a" points="635.31 630.64 628.63 632.59 622.15 635.14 615.72 637.82 609.22 640.33 602.42 642 596.12 645.05 589.46 647.13 582.86 649.37 576.35 652.08 569.21 650.93 562.08 650.29 554.97 649.5 547.86 648.66 540.8 647.41 533.71 646.49 526.56 645.9 519.49 644.87 512.39 643.89 505.29 643.06 498.26 641.57 491.15 640.72 483.97 640.46 476.85 639.7 469.74 638.83 462.7 637.39 455.51 636.87 448.41 635.57 441.3 634.42 434.12 633.83 426.97 632.94 419.78 632.43 412.7 630.96 405.55 630.15 398.34 629.78 391.21 628.79 384.04 628.07 376.98 626.48 369.78 626.02 362.63 625.18 355.56 623.56 348.4 623.53 341.96 625.9 335.1 627.41 328.7 630.17 322.25 632.8 315.71 635.21 308.96 637.01 302.32 639.13 295.81 641.63 289.41 644.7 282.19 643.67 275.08 642.54 267.92 641.77 260.75 641.06 253.62 639.99 246.48 639.07 239.32 638.33 232.18 637.4 225.1 636 217.93 635.29 210.82 634.1 203.61 633.7 196.52 632.41 189.36 631.58 182.19 630.78 174.99 629.52 168.4 632.2 161.92 634.87 155.23 636.96 148.53 639.05 141.98 641.53 135.62 644.56 128.96 646.75 122.2 648.65 115.85 651.68 109.13 653.69 102.57 656.15 95.84 658.17 89.46 661.11 82.57 662.67 76.23 665.76 69.37 667.4 62.96 670.3 56.68 672.55 63.5 673.31 70.65 674.18 77.72 675.67 84.96 675.83 92.08 676.9 99.18 678.14 106.37 678.72 113.44 680.19 120.63 680.69 127.74 681.9 134.96 682.19 142.12 682.97 149.17 684.64 156.3 685.64 163.5 686.16 170.68 687.11 177.1 684.3 183.63 681.9 190.37 680.06 196.73 677.16 203.54 675.53 209.89 672.62 216.4 670.14 223.01 667.9 229.69 666.12 236.81 666.53 243.94 667.56 251.11 668.24 258.29 668.88 265.43 669.84 272.5 671.3 279.65 672.21 286.8 672.99 293.93 674 301.06 675.04 308.26 675.51 315.34 676.91 322.5 677.72 329.72 678.03 336.79 679.59 343.98 680.19 351.11 681.22 358.27 681.96 365.42 682.84 372.56 683.78 379.71 684.63 386.83 685.69 393.96 686.74 401.16 687.19 408.23 688.66 415.44 689.05 422.55 690.26 429.71 691.03 436.87 691.81 444.06 692.37 451.18 693.51 458.3 694.32 464.74 691.82 471.51 690.08 478.03 687.61 484.55 685.17 491.16 682.99 497.5 680.03 504.28 678.31 510.59 675.25 517.27 673.01 524.46 673.8 531.49 675.2 538.61 676 545.74 676.62 552.8 677.82 559.93 678.54 567.05 679.24 574.12 680.39 581.2 681.43 588.37 681.76 595.43 682.96 602.57 683.63 609.58 685.23 616.69 686.04 623.85 686.54 630.91 687.32 637.55 685.32 644.09 682.78 650.56 680.07 657.38 678.34 663.93 675.85 670.45 673.26 677.09 671.04 683.85 669.12 690.4 666.64 696.87 663.94 703.61 661.99 710.15 659.46 716.68 656.91 723.25 654.46 729.7 651.7 736.5 649.87 743.13 647.6 749.16 645.02 742.51 643.93 735.41 642.67 728.16 642.6 721.06 641.33 713.96 640.13 706.76 639.63 699.59 638.9 692.46 637.95 685.35 636.75 678.22 635.77 671.05 635.05 663.88 634.31 656.75 633.33 649.63 632.22 642.48 631.32 635.31 630.64"/><polygon class="b" points="635.31 630.64 628.63 632.59 622.15 635.14 615.72 637.82 609.22 640.33 602.42 642 596.12 645.05 589.46 647.13 582.86 649.37 576.35 652.08 569.21 650.93 562.08 650.29 554.97 649.5 547.86 648.66 540.8 647.41 533.71 646.49 526.56 645.9 519.49 644.87 512.39 643.89 505.29 643.06 498.26 641.57 491.15 640.72 483.97 640.46 476.85 639.7 469.74 638.83 462.7 637.39 455.51 636.87 448.41 635.57 441.3 634.42 434.12 633.83 426.97 632.94 419.78 632.43 412.7 630.96 405.55 630.15 398.34 629.78 391.21 628.79 384.04 628.07 376.98 626.48 369.78 626.02 362.63 625.18 355.56 623.56 348.4 623.53 341.96 625.9 335.1 627.41 328.7 630.17 322.25 632.8 315.71 635.21 308.96 637.01 302.32 639.13 295.81 641.63 289.41 644.7 282.19 643.67 275.08 642.54 267.92 641.77 260.75 641.06 253.62 639.99 246.48 639.07 239.32 638.33 232.18 637.4 225.1 636 217.93 635.29 210.82 634.1 203.61 633.7 196.52 632.41 189.36 631.58 182.19 630.78 174.99 629.52 168.4 632.2 161.92 634.87 155.23 636.96 148.53 639.05 141.98 641.53 135.62 644.56 128.96 646.75 122.2 648.65 115.85 651.68 109.13 653.69 102.57 656.15 95.84 658.17 89.46 661.11 82.57 662.67 76.23 665.76 69.37 667.4 62.96 670.3 56.68 672.55 63.5 673.31 70.65 674.18 77.72 675.67 84.96 675.83 92.08 676.9 99.18 678.14 106.37 678.72 113.44 680.19 120.63 680.69 127.74 681.9 134.96 682.19 142.12 682.97 149.17 684.64 156.3 685.64 163.5 686.16 170.68 687.11 177.1 684.3 183.63 681.9 190.37 680.06 196.73 677.16 203.54 675.53 209.89 672.62 216.4 670.14 223.01 667.9 229.69 666.12 236.81 666.53 243.94 667.56 251.11 668.24 258.29 668.88 265.43 669.84 272.5 671.3 279.65 672.21 286.8 672.99 293.93 674 301.06 675.04 308.26 675.51 315.34 676.91 322.5 677.72 329.72 678.03 336.79 679.59 343.98 680.19 351.11 681.22 358.27 681.96 365.42 682.84 372.56 683.78 379.71 684.63 386.83 685.69 393.96 686.74 401.16 687.19 408.23 688.66 415.44 689.05 422.55 690.26 429.71 691.03 436.87 691.81 444.06 692.37 451.18 693.51 458.3 694.32 464.74 691.82 471.51 690.08 478.03 687.61 484.55 685.17 491.16 682.99 497.5 680.03 504.28 678.31 510.59 675.25 517.27 673.01 524.46 673.8 531.49 675.2 538.61 676 545.74 676.62 552.8 677.82 559.93 678.54 567.05 679.24 574.12 680.39 581.2 681.43 588.37 681.76 595.43 682.96 602.57 683.63 609.58 685.23 616.69 686.04 623.85 686.54 630.91 687.32 637.55 685.32 644.09 682.78 650.56 680.07 657.38 678.34 663.93 675.85 670.45 673.26 677.09 671.04 683.85 669.12 690.4 666.64 696.87 663.94 703.61 661.99 710.15 659.46 716.68 656.91 723.25 654.46 729.7 651.7 736.5 649.87 743.13 647.6 749.16 645.02 742.51 643.93 735.41 642.67 728.16 642.6 721.06 641.33 713.96 640.13 706.76 639.63 699.59 638.9 692.46 637.95 685.35 636.75 678.22 635.77 671.05 635.05 663.88 634.31 656.75 633.33 649.63 632.22 642.48 631.32 635.31 630.64"/><polygon class="a" points="56.13 597.49 63.4 598.61 70.55 599.49 77.74 600.02 84.8 601.63 92.03 601.87 99.12 603.2 106.28 604.02 113.45 604.67 120.55 605.98 127.7 606.81 134.87 607.53 142.08 607.95 149.22 608.92 156.31 610.28 163.42 611.53 170.6 611.71 177.05 609.26 183.81 607.47 190.42 605.28 196.9 602.72 203.56 600.66 209.93 597.79 216.4 595.18 223.11 593.25 229.63 590.71 236.84 591.2 243.96 592.32 251.04 593.76 258.21 594.4 265.39 594.94 272.55 595.74 279.63 597.16 286.79 597.88 293.95 598.64 301.03 600.03 308.21 600.63 315.41 601.14 322.45 602.8 329.69 603 336.82 603.97 343.99 604.69 351.13 605.62 358.23 606.92 365.38 607.79 372.55 608.54 379.63 609.98 386.76 611.03 394.02 611.01 401.12 612.28 408.25 613.33 415.43 613.95 422.54 615.14 429.74 615.64 436.8 617.21 444.04 617.37 451.13 618.85 458.29 619.28 464.75 616.88 471.49 615.03 477.92 612.34 484.59 610.31 490.92 607.34 497.52 605.12 504.03 602.64 510.63 600.36 517.33 598.55 524.4 599.15 531.44 600.52 538.6 600.9 545.67 602.05 552.79 602.69 559.88 603.64 566.92 605.04 574.02 605.87 581.14 606.59 588.28 607.09 595.34 608.33 602.41 609.42 609.55 609.95 616.62 611.09 623.7 612.18 630.85 612.49 637.29 609.79 644.09 607.99 650.62 605.48 657.2 603.06 663.7 600.46 670.36 598.27 677.06 596.21 683.69 593.94 690.28 591.6 696.76 588.93 703.19 586.11 710.08 584.58 716.52 581.78 723.25 579.8 729.56 576.66 736.38 574.92 742.8 572.04 749.63 569.77 749.6 577.45 749.62 584.95 749.92 592.45 749.06 599.95 749.07 607.46 749.59 614.96 749.65 622.47 749.69 629.98 749.04 637.49 749.73 645.16 742.48 647.38 735.52 649.9 728.46 652.18 721.65 655.14 714.53 657.24 707.63 659.93 700.64 662.39 693.69 664.99 686.74 667.54 679.94 670.51 672.79 672.54 665.98 675.5 658.71 677.17 651.98 680.36 644.96 682.74 638.07 685.53 630.99 688.08 623.83 686.76 616.71 686.06 609.59 685.34 602.56 683.85 595.42 683.28 588.35 682.12 581.26 681.12 574.19 680 567.06 679.35 559.88 679.09 552.86 677.57 545.79 676.43 538.65 675.81 531.48 675.47 524.46 673.87 517.3 673.32 510.88 676.03 504.33 678.37 497.54 680.08 491.23 683.11 484.65 685.38 477.83 687 471.52 690.02 464.89 692.19 458.34 694.68 451.16 693.78 443.97 693.21 436.94 691.39 429.7 691.32 422.64 689.74 415.42 689.52 408.27 688.65 401.16 687.46 394.06 686.28 386.89 685.53 379.7 685.03 372.62 683.64 365.4 683.34 358.38 681.48 351.23 680.62 343.98 680.52 336.88 679.26 329.79 677.92 322.63 677.15 315.44 676.54 308.3 675.59 301.11 675.05 293.98 673.96 286.91 672.48 279.73 671.9 272.62 670.71 265.46 669.86 258.29 669.14 251.06 668.95 243.9 668.07 236.81 666.68 229.68 666.01 223.06 668.02 216.44 670.18 210.03 672.94 203.41 675.09 196.75 677.14 190.41 680.09 183.62 681.81 177.23 684.62 170.71 687.41 163.55 685.85 156.35 685.42 149.2 684.53 142.12 683.14 134.98 682.25 127.86 681.14 120.67 680.53 113.45 680.26 106.33 679.23 99.25 677.78 92.09 677.05 84.99 675.75 77.76 675.58 70.67 674.2 63.45 673.83 56.09 672.82 56.82 665.11 56.65 657.62 56.08 650.13 56.49 642.63 56.45 635.13 55.88 627.64 56.68 620.14 56.42 612.64 56.3 605.14 56.13 597.49"/><polygon class="b" points="56.13 597.49 63.4 598.61 70.55 599.49 77.74 600.02 84.8 601.63 92.03 601.87 99.12 603.2 106.28 604.02 113.45 604.67 120.55 605.98 127.7 606.81 134.87 607.53 142.08 607.95 149.22 608.92 156.31 610.28 163.42 611.53 170.6 611.71 177.05 609.26 183.81 607.47 190.42 605.28 196.9 602.72 203.56 600.66 209.93 597.79 216.4 595.18 223.11 593.25 229.63 590.71 236.84 591.2 243.96 592.32 251.04 593.76 258.21 594.4 265.39 594.94 272.55 595.74 279.63 597.16 286.79 597.88 293.95 598.64 301.03 600.03 308.21 600.63 315.41 601.14 322.45 602.8 329.69 603 336.82 603.97 343.99 604.69 351.13 605.62 358.23 606.92 365.38 607.79 372.55 608.54 379.63 609.98 386.76 611.03 394.02 611.01 401.12 612.28 408.25 613.33 415.43 613.95 422.54 615.14 429.74 615.64 436.8 617.21 444.04 617.37 451.13 618.85 458.29 619.28 464.75 616.88 471.49 615.03 477.92 612.34 484.59 610.31 490.92 607.34 497.52 605.12 504.03 602.64 510.63 600.36 517.33 598.55 524.4 599.15 531.44 600.52 538.6 600.9 545.67 602.05 552.79 602.69 559.88 603.64 566.92 605.04 574.02 605.87 581.14 606.59 588.28 607.09 595.34 608.33 602.41 609.42 609.55 609.95 616.62 611.09 623.7 612.18 630.85 612.49 637.29 609.79 644.09 607.99 650.62 605.48 657.2 603.06 663.7 600.46 670.36 598.27 677.06 596.21 683.69 593.94 690.28 591.6 696.76 588.93 703.19 586.11 710.08 584.58 716.52 581.78 723.25 579.8 729.56 576.66 736.38 574.92 742.8 572.04 749.63 569.77 749.6 577.45 749.62 584.95 749.92 592.45 749.06 599.95 749.07 607.46 749.59 614.96 749.65 622.47 749.69 629.98 749.04 637.49 749.73 645.16 742.48 647.38 735.52 649.9 728.46 652.18 721.65 655.14 714.53 657.24 707.63 659.93 700.64 662.39 693.69 664.99 686.74 667.54 679.94 670.51 672.79 672.54 665.98 675.5 658.71 677.17 651.98 680.36 644.96 682.74 638.07 685.53 630.99 688.08 623.83 686.76 616.71 686.06 609.59 685.34 602.56 683.85 595.42 683.28 588.35 682.12 581.26 681.12 574.19 680 567.06 679.35 559.88 679.09 552.86 677.57 545.79 676.43 538.65 675.81 531.48 675.47 524.46 673.87 517.3 673.32 510.88 676.03 504.33 678.37 497.54 680.08 491.23 683.11 484.65 685.38 477.83 687 471.52 690.02 464.89 692.19 458.34 694.68 451.16 693.78 443.97 693.21 436.94 691.39 429.7 691.32 422.64 689.74 415.42 689.52 408.27 688.65 401.16 687.46 394.06 686.28 386.89 685.53 379.7 685.03 372.62 683.64 365.4 683.34 358.38 681.48 351.23 680.62 343.98 680.52 336.88 679.26 329.79 677.92 322.63 677.15 315.44 676.54 308.3 675.59 301.11 675.05 293.98 673.96 286.91 672.48 279.73 671.9 272.62 670.71 265.46 669.86 258.29 669.14 251.06 668.95 243.9 668.07 236.81 666.68 229.68 666.01 223.06 668.02 216.44 670.18 210.03 672.94 203.41 675.09 196.75 677.14 190.41 680.09 183.62 681.81 177.23 684.62 170.71 687.41 163.55 685.85 156.35 685.42 149.2 684.53 142.12 683.14 134.98 682.25 127.86 681.14 120.67 680.53 113.45 680.26 106.33 679.23 99.25 677.78 92.09 677.05 84.99 675.75 77.76 675.58 70.67 674.2 63.45 673.83 56.09 672.82 56.82 665.11 56.65 657.62 56.08 650.13 56.49 642.63 56.45 635.13 55.88 627.64 56.68 620.14 56.42 612.64 56.3 605.14 56.13 597.49"/><polygon points="170.85 612.14 170.34 619.5 171.07 626.99 170.25 634.49 170.47 641.98 170.99 649.48 170.94 656.98 170.92 664.48 170.4 671.98 170.9 679.48 170.42 687.29 177.05 684.17 183.72 682.13 190.22 679.63 196.79 677.33 203.49 675.38 210.02 672.97 216.51 670.43 223 667.89 229.92 665.96 229.22 658.28 229.52 650.79 229.31 643.29 229.75 635.79 229.54 628.29 229.62 620.8 229.73 613.29 229.39 605.79 229.16 598.29 229.39 591.1 222.99 592.87 216.6 595.69 210.11 598.23 203.37 600.07 196.86 602.55 190.16 604.48 183.77 607.31 177.36 610.07 170.85 612.14"/><polygon class="b" points="170.85 612.14 170.34 619.5 171.07 626.99 170.25 634.49 170.47 641.98 170.99 649.48 170.94 656.98 170.92 664.48 170.4 671.98 170.9 679.48 170.42 687.29 177.05 684.17 183.72 682.13 190.22 679.63 196.79 677.33 203.49 675.38 210.02 672.97 216.51 670.43 223 667.89 229.92 665.96 229.22 658.28 229.52 650.79 229.31 643.29 229.75 635.79 229.54 628.29 229.62 620.8 229.73 613.29 229.39 605.79 229.16 598.29 229.39 591.1 222.99 592.87 216.6 595.69 210.11 598.23 203.37 600.07 196.86 602.55 190.16 604.48 183.77 607.31 177.36 610.07 170.85 612.14"/><polygon points="457.95 619.29 457.93 627.03 458.23 634.52 458.17 642.02 458.69 649.52 458.17 657.02 458.66 664.52 458.71 672.02 458.2 679.52 458.33 687.02 458.05 694.88 464.9 692.25 471.46 689.92 478.08 687.76 484.36 684.65 490.96 682.43 497.74 680.71 504.31 678.4 510.75 675.69 517.24 673.28 517.28 665.83 516.93 658.33 517.39 650.83 517.16 643.34 517.67 635.84 517.25 628.34 517.53 620.84 517.21 613.34 516.86 605.83 517.28 598.36 510.81 600.84 504.2 603.04 497.5 604.99 490.98 607.43 484.67 610.47 477.85 612.07 471.52 615.07 464.78 616.91 457.95 619.29"/><polygon class="b" points="457.95 619.29 457.93 627.03 458.23 634.52 458.17 642.02 458.69 649.52 458.17 657.02 458.66 664.52 458.71 672.02 458.2 679.52 458.33 687.02 458.05 694.88 464.9 692.25 471.46 689.92 478.08 687.76 484.36 684.65 490.96 682.43 497.74 680.71 504.31 678.4 510.75 675.69 517.24 673.28 517.28 665.83 516.93 658.33 517.39 650.83 517.16 643.34 517.67 635.84 517.25 628.34 517.53 620.84 517.21 613.34 516.86 605.83 517.28 598.36 510.81 600.84 504.2 603.04 497.5 604.99 490.98 607.43 484.67 610.47 477.85 612.07 471.52 615.07 464.78 616.91 457.95 619.29"/><polygon points="630.76 687.86 631.04 680.11 630.8 672.62 631.41 665.12 630.89 657.62 630 650.12 630 642.62 630.89 635.12 630.82 627.62 630.69 620.12 630.61 612.46 637.39 610.1 643.91 607.53 650.65 605.56 657.3 603.36 663.77 600.66 670.31 598.13 677.02 596.1 683.45 593.27 690.13 591.18 696.75 588.9 703.28 586.38 709.84 583.9 716.55 581.87 723.25 579.79 729.81 577.35 736.27 574.61 743.03 572.68 749.5 569.95 749.41 577.45 749.37 584.95 749.92 592.45 749.7 599.95 749.11 607.46 749.46 614.96 749.03 622.47 749.4 629.98 749.59 637.49 749.4 644.93 742.41 647.19 735.5 649.85 728.65 652.69 721.49 654.68 714.52 657.22 707.74 660.26 700.75 662.69 693.88 665.51 686.75 667.56 679.82 670.21 672.82 672.62 665.92 675.34 658.93 677.8 652.04 680.53 645.03 682.96 637.78 684.74 630.76 687.86"/><polygon class="b" points="630.76 687.86 631.04 680.11 630.8 672.62 631.41 665.12 631.14 657.62 630.5 650.12 630.5 642.62 631.14 635.12 630.94 627.62 630.75 620.12 630.64 612.46 637.4 610.1 643.92 607.53 650.65 605.56 657.3 603.36 663.77 600.66 670.31 598.13 677.02 596.1 683.45 593.27 690.13 591.18 696.75 588.9 703.28 586.38 709.84 583.9 716.55 581.87 723.25 579.79 729.81 577.35 736.27 574.61 743.03 572.68 749.5 569.95 749.41 577.45 749.37 584.95 749.92 592.45 749.7 599.95 749.11 607.46 749.46 614.96 749.03 622.47 749.4 629.98 749.59 637.49 749.4 644.93 742.41 647.19 735.5 649.85 728.65 652.69 721.49 654.68 714.52 657.22 707.74 660.26 700.75 662.69 693.88 665.51 686.75 667.56 679.82 670.21 672.82 672.62 665.92 675.34 658.93 677.8 652.04 680.53 645.03 682.96 637.78 684.74 630.76 687.86"/><polygon class="a" points="665.84 562.73 665.23 555.74 665.73 548.47 665.76 541.21 665.75 533.95 665.84 526.68 665.75 519.42 665.77 512.16 665.64 504.9 665.64 497.64 665.88 490.38 665.47 483.12 665.12 475.86 665.47 468.6 665.91 461.33 665.5 454.07 665.99 446.81 665 439.54 665.04 432.28 665.93 425.01 665.94 417.75 665.85 410.48 665.99 403.21 665.44 395.95 665.11 388.68 665.68 381.42 665.67 374.15 665.46 366.89 665.91 359.62 665.68 352.35 665.81 345.08 665.1 337.81 665.23 330.55 665.84 323.27 665.35 315.75 672.01 319.28 678.56 322.49 685.16 325.62 691.29 329.38 691.15 336.45 691.31 343.66 691.62 350.86 691 358.06 691.6 365.26 691.32 372.46 691.49 379.66 691.41 386.86 691.95 394.06 691.13 401.26 691.7 408.47 691.97 415.67 691.99 422.87 691.27 430.08 691.74 437.28 691.75 444.48 691.37 451.69 691.06 458.89 691.54 466.1 691.46 473.3 691.87 480.51 691.03 487.71 691.57 494.92 691.77 502.13 691.12 509.33 691.48 516.54 691.39 523.74 691.48 530.95 691.31 538.16 691.37 545.36 691.52 552.57 691.86 559.78 691.29 566.78 684.96 566.28 678.58 564.53 671.93 564.41 665.84 562.73"/><polygon class="b" points="665.84 562.73 665.23 555.74 665.73 548.47 665.76 541.21 665.75 533.95 665.84 526.68 665.75 519.42 665.77 512.16 665.64 504.9 665.64 497.64 665.88 490.38 665.47 483.12 665.12 475.86 665.47 468.6 665.91 461.33 665.5 454.07 665.99 446.81 665 439.54 665.04 432.28 665.93 425.01 665.94 417.75 665.85 410.48 665.99 403.21 665.44 395.95 665.11 388.68 665.68 381.42 665.67 374.15 665.46 366.89 665.91 359.62 665.68 352.35 665.81 345.08 665.1 337.81 665.23 330.55 665.84 323.27 665.35 315.75 672.01 319.28 678.56 322.49 685.16 325.62 691.29 329.38 691.15 336.45 691.31 343.66 691.62 350.86 691 358.06 691.6 365.26 691.32 372.46 691.49 379.66 691.41 386.86 691.95 394.06 691.13 401.26 691.7 408.47 691.97 415.67 691.99 422.87 691.27 430.08 691.74 437.28 691.75 444.48 691.37 451.69 691.06 458.89 691.54 466.1 691.46 473.3 691.87 480.51 691.03 487.71 691.57 494.92 691.77 502.13 691.12 509.33 691.48 516.54 691.39 523.74 691.48 530.95 691.31 538.16 691.37 545.36 691.52 552.57 691.86 559.78 691.29 566.78 684.96 566.28 678.58 564.53 671.93 564.41 665.84 562.73"/><polygon class="a" points="645.28 574.22 645.7 566.71 645.27 559.41 645.48 552.12 645.76 544.83 645.07 537.54 645.06 530.24 645.13 522.96 645.58 515.67 645.16 508.37 645.14 501.08 645.8 493.79 645.44 486.5 645.68 479.21 645.03 471.92 645.46 464.63 645.35 457.33 645.02 450.04 645.29 442.75 645.99 435.45 645.43 428.16 645.23 420.86 645.62 413.57 645.38 406.27 645.32 398.98 645.05 391.68 645.86 384.39 645.78 377.09 645.82 369.8 645.25 362.5 645.45 355.2 645.66 347.9 645.96 340.61 645.15 333.3 645.34 325.76 651.92 328.99 658.59 331.41 664.93 334.6 671.09 337.51 671.64 344.51 671.53 351.78 671.16 359.04 671.78 366.31 671.14 373.56 670.86 380.82 671.36 388.09 671.68 395.35 671.65 402.61 671.25 409.87 671.12 417.13 670.98 424.4 671.42 431.66 671.05 438.92 671.21 446.19 671.07 453.45 670.63 460.72 671.16 467.98 670.76 475.25 671.06 482.51 671.12 489.78 670.59 497.05 670.81 504.31 671.25 511.58 670.28 518.84 670.95 526.11 671.03 533.38 670.48 540.64 670.6 547.91 670.9 555.18 670.12 562.45 670.86 569.73 670.54 577.06 662.16 576.12 653.87 574.63 645.28 574.22"/><polygon class="b" points="645.28 574.22 645.7 566.71 645.27 559.41 645.48 552.12 645.76 544.83 645.07 537.54 645.06 530.24 645.13 522.96 645.58 515.67 645.16 508.37 645.14 501.08 645.8 493.79 645.44 486.5 645.68 479.21 645.03 471.92 645.46 464.63 645.35 457.33 645.02 450.04 645.29 442.75 645.99 435.45 645.43 428.16 645.23 420.86 645.62 413.57 645.38 406.27 645.32 398.98 645.05 391.68 645.86 384.39 645.78 377.09 645.82 369.8 645.25 362.5 645.45 355.2 645.66 347.9 645.96 340.61 645.15 333.3 645.34 325.76 651.92 328.99 658.59 331.41 664.93 334.6 671.09 337.51 671.64 344.51 671.53 351.78 671.16 359.04 671.78 366.31 671.14 373.56 670.86 380.82 671.36 388.09 671.68 395.35 671.65 402.61 671.25 409.87 671.12 417.13 670.98 424.4 671.42 431.66 671.05 438.92 671.21 446.19 671.07 453.45 670.63 460.72 671.16 467.98 670.76 475.25 671.06 482.51 671.12 489.78 670.59 497.05 670.81 504.31 671.25 511.58 670.28 518.84 670.95 526.11 671.03 533.38 670.48 540.64 670.6 547.91 670.9 555.18 670.12 562.45 670.86 569.73 670.54 577.06 662.16 576.12 653.87 574.63 645.28 574.22"/><polygon class="b" points="670.47 576.93 677.5 573.59 684.32 569.92 691.9 567.27 691.63 559.79 691.82 552.58 691.97 545.37 691.33 538.16 691.32 530.95 691.07 523.74 691.44 516.54 691.23 509.32 691.2 502.12 691.24 494.91 691.61 487.7 691.24 480.49 691.78 473.28 691.64 466.07 691.96 458.86 691.09 451.65 691.05 444.43 691.29 437.22 691.16 430.01 691.95 422.8 691.17 415.58 691.44 408.37 691.45 401.16 691.91 393.94 691.02 386.73 691.54 379.52 691.04 372.3 691.56 365.09 691.86 357.88 691.56 350.66 691.53 343.44 691.41 336.22 691.65 328.9 685.17 325.43 678.61 322.3 671.86 319.54 665.5 315.79 658.77 319.2 652.37 323.07 645.45 326 651.97 328.86 658.6 331.37 664.96 334.52 671.5 337.25 671.69 344.51 671.06 351.77 671.55 359.03 671.09 366.29 671.6 373.55 670.91 380.8 671.22 388.06 671.07 395.32 670.94 402.57 671.34 409.83 671.2 417.09 671 424.35 671.14 431.61 671.49 438.87 670.74 446.13 670.83 453.39 671.31 460.65 670.6 467.91 671.34 475.18 670.72 482.44 670.53 489.7 670.58 496.96 671.23 504.23 670.41 511.49 670.45 518.75 670.23 526.01 670.72 533.28 670.25 540.54 670.41 547.8 671.01 555.07 670.89 562.34 670.94 569.61 670.47 576.93"/><polygon class="a" points="671.5 337.28 678.15 334.47 684.71 331.45 691.68 329 685.2 325.36 678.71 322.11 671.8 319.66 665.5 316.15 658.88 319.42 651.97 322.27 645.16 325.99 652.08 328.62 658.35 331.96 664.81 334.86 671.5 337.28"/><polygon class="b" points="671.5 337.28 678.15 334.47 684.71 331.45 691.68 329 685.2 325.36 678.71 322.11 671.8 319.66 665.5 316.15 658.88 319.42 651.97 322.27 645.16 325.99 652.08 328.62 658.35 331.96 664.81 334.86 671.5 337.28"/><polygon points="670.47 576.93 677.45 573.49 684.44 570.18 691.48 566.99 691.1 559.79 691.22 552.58 691.58 545.37 691.39 538.16 691.22 530.95 691.75 523.74 691.13 516.54 691.01 509.32 691.85 502.12 691.75 494.91 691.77 487.7 691.66 480.49 691.45 473.28 691.45 466.07 691.72 458.86 691.38 451.65 691.09 444.43 691.37 437.22 691.78 430.01 691.75 422.8 691.29 415.58 691.75 408.37 691.09 401.16 691.18 393.94 691.01 386.73 691.54 379.52 691.58 372.3 691.48 365.09 691.93 357.88 691.65 350.66 691.95 343.44 691.94 336.22 691.39 329.16 684.83 331.73 678.23 334.65 671.21 337.05 671.48 344.51 671.34 351.77 671.52 359.03 671.01 366.29 671.37 373.55 671.01 380.8 670.8 388.06 670.88 395.32 671.08 402.57 671.08 409.83 671.32 417.09 670.71 424.35 670.74 431.61 670.71 438.87 670.87 446.13 670.63 453.39 671.28 460.65 670.68 467.91 671.36 475.18 671.12 482.44 670.74 489.7 670.95 496.96 671.25 504.23 671.16 511.49 670.77 518.75 671.19 526.01 670.95 533.28 671.09 540.54 670.54 547.8 670.35 555.07 670.59 562.34 670.27 569.6 670.47 576.93"/><polygon class="b" points="670.47 576.93 677.45 573.49 684.44 570.18 691.48 566.99 691.1 559.79 691.22 552.58 691.58 545.37 691.39 538.16 691.22 530.95 691.75 523.74 691.13 516.54 691.01 509.32 691.85 502.12 691.75 494.91 691.77 487.7 691.66 480.49 691.45 473.28 691.45 466.07 691.72 458.86 691.38 451.65 691.09 444.43 691.37 437.22 691.78 430.01 691.75 422.8 691.29 415.58 691.75 408.37 691.09 401.16 691.18 393.94 691.01 386.73 691.54 379.52 691.58 372.3 691.48 365.09 691.93 357.88 691.65 350.66 691.95 343.44 691.94 336.22 691.39 329.16 684.83 331.73 678.23 334.65 671.21 337.05 671.48 344.51 671.34 351.77 671.52 359.03 671.01 366.29 671.37 373.55 671.01 380.8 670.8 388.06 670.88 395.32 671.08 402.57 671.08 409.83 671.32 417.09 670.71 424.35 670.74 431.61 670.71 438.87 670.87 446.13 670.63 453.39 671.28 460.65 670.68 467.91 671.36 475.18 671.12 482.44 670.74 489.7 670.95 496.96 671.25 504.23 671.16 511.49 670.77 518.75 671.19 526.01 670.95 533.28 671.09 540.54 670.54 547.8 670.35 555.07 670.59 562.34 670.27 569.6 670.47 576.93"/><polyline points="634.81 297.81 631.36 292.05 627.12 286.76 624.26 280.63 620.7 274.92"/><polyline class="b" points="634.81 297.81 631.36 292.05 627.12 286.76 624.26 280.63 620.7 274.92"/><polyline points="656.7 291.64 654.97 284.89 652.69 278.3 650.48 271.69 648.53 264.99"/><polyline class="b" points="656.7 291.64 654.97 284.89 652.69 278.3 650.48 271.69 648.53 264.99"/><polyline points="675.51 291.71 678.29 285.14 680.9 278.51 682.6 271.53 685.62 265.04"/><polyline class="b" points="675.51 291.71 678.29 285.14 680.9 278.51 682.6 271.53 685.62 265.04"/><polyline points="695.03 298.03 700.11 292.8 705.67 288.1 710.9 283.03 716.19 278.01"/><polyline class="b" points="695.03 298.03 700.11 292.8 705.67 288.1 710.9 283.03 716.19 278.01"/></svg>