<svg xmlns="http://www.w3.org/2000/svg" viewBox="0 0 800 800"><defs><style>.a,.c,.d{fill:none;}.a,.c{stroke:#000;stroke-width:13px;}.a{stroke-miterlimit:10;}.b{fill:#fff;}.c,.d{stroke-linejoin:bevel;}.d{stroke:#fff;stroke-width:9px;}</style></defs><title>canvas (25)</title><polygon class="a" points="198.21 289.19 205.93 289.59 213.3 289.25 220.67 289.52 228.03 290.01 235.41 289.27 242.77 289.77 250.14 290.03 257.51 289.28 264.88 289.25 272.25 289.74 279.82 289.31 280.06 296.72 279.65 303.95 279.59 311.18 279.73 318.52 272.26 318.05 264.88 318.5 257.51 318.3 250.15 317.39 242.78 318.04 235.4 317.56 228.04 318.22 220.66 317.71 213.3 318.24 205.92 317.78 198.4 318.28 198.82 310.97 198.99 303.81 198.07 296.65 198.21 289.19"/><polygon points="279.55 289.43 286.94 289.33 294.25 289.09 301.58 289.09 308.89 289.33 316.22 289.14 323.53 289.59 330.84 290.22 338.16 290.3 345.48 290.23 352.78 289.28 360.32 289.25 359.86 296.7 360.58 303.92 360.49 311.14 360.59 318.37 360.15 325.59 359.71 332.81 359.63 340.03 360.38 347.25 359.84 354.47 360.16 361.68 360.02 368.9 359.69 376.11 360.1 383.33 359.69 390.55 360.49 397.77 359.87 404.77 352.91 403.59 346.52 400 341.04 395.06 335.98 389.62 331.73 383.51 327.92 377.12 323.32 371.19 320.26 364.34 316.6 358.44 312.44 352.81 309.24 346.61 305.37 340.81 301.65 334.89 296.59 330.04 291.62 325.21 285.92 321.29 279.24 318.66 279.17 311.18 279.71 303.95 279.34 296.72 279.55 289.43"/><polygon class="a" points="279.55 289.43 286.94 289.33 294.25 289.09 301.58 289.09 308.89 289.33 316.22 289.14 323.53 289.59 330.84 290.22 338.16 290.3 345.48 290.23 352.78 289.28 360.32 289.25 359.86 296.7 360.58 303.92 360.49 311.14 360.59 318.37 360.15 325.59 359.71 332.81 359.63 340.03 360.38 347.25 359.84 354.47 360.16 361.68 360.02 368.9 359.69 376.11 360.1 383.33 359.69 390.55 360.49 397.77 359.87 404.77 352.91 403.59 346.52 400 341.04 395.06 335.98 389.62 331.73 383.51 327.92 377.12 323.32 371.19 320.26 364.34 316.6 358.44 312.44 352.81 309.24 346.61 305.37 340.81 301.65 334.89 296.59 330.04 291.62 325.21 285.92 321.29 279.24 318.66 279.17 311.18 279.71 303.95 279.34 296.72 279.55 289.43"/><polygon points="359.93 289.31 367.42 289.12 374.74 289.18 382.06 289.48 389.37 289.37 396.69 289.93 404 289.73 411.32 289.17 418.64 289.83 425.95 289.95 433.27 289.11 440.93 289.14 440.29 296.7 440.22 303.92 440.23 311.14 441.06 318.37 440.19 325.59 440.75 332.81 440.36 340.03 440.88 347.25 440.54 354.47 440.78 361.68 440.51 368.9 440.65 376.11 440.81 383.33 440.92 390.55 440.31 397.77 440.78 405.19 433.27 405.39 425.95 404.89 418.64 405.41 411.32 405.14 404 405.01 396.69 405.37 389.37 405.49 382.06 405.24 374.74 404.72 367.42 404.62 360.14 404.96 360.27 397.77 360.18 390.55 360.41 383.33 360.01 376.11 359.76 368.89 359.74 361.66 360.48 354.44 360.01 347.23 359.65 340.01 359.63 332.79 359.87 325.57 360.02 318.36 360.1 311.14 359.91 303.93 359.87 296.7 359.93 289.31"/><polygon class="a" points="359.93 289.31 367.42 289.12 374.74 289.18 382.06 289.48 389.37 289.37 396.69 289.93 404 289.73 411.32 289.17 418.64 289.83 425.95 289.95 433.27 289.11 440.93 289.14 440.29 296.7 440.22 303.92 440.23 311.14 441.06 318.37 440.19 325.59 440.75 332.81 440.36 340.03 440.88 347.25 440.54 354.47 440.78 361.68 440.51 368.9 440.65 376.11 440.81 383.33 440.92 390.55 440.31 397.77 440.78 405.19 433.27 405.39 425.95 404.89 418.64 405.41 411.32 405.14 404 405.01 396.69 405.37 389.37 405.49 382.06 405.24 374.74 404.72 367.42 404.62 360.14 404.96 360.27 397.77 360.18 390.55 360.41 383.33 360.01 376.11 359.76 368.89 359.74 361.66 360.48 354.44 360.01 347.23 359.65 340.01 359.63 332.79 359.87 325.57 360.02 318.36 360.1 311.14 359.91 303.93 359.87 296.7 359.93 289.31"/><polygon points="440.76 289.66 447.9 289.78 455.22 289.64 462.54 289.73 469.85 289.46 477.18 289.98 484.5 290.01 491.8 289.09 499.12 288.97 506.44 288.77 513.76 289.41 521.43 289.19 521.44 296.69 521.13 303.9 520.86 311.1 521.21 318.41 514.75 320.95 508.65 324.19 503.72 329.08 499.12 334.27 494.95 339.82 491.31 345.73 488.17 351.94 484.8 357.99 480.81 363.66 477.05 370.13 473.01 376.44 468.89 382.68 464.39 388.64 460.03 394.75 454.07 399.28 447.93 403.54 440.26 405.35 440.78 397.77 440.96 390.55 440.43 383.33 440.89 376.11 440.83 368.89 441 361.66 440.78 354.44 440.41 347.23 440.26 340.01 440.64 332.79 440.81 325.57 440.55 318.36 440.34 311.14 440.23 303.93 440.29 296.7 440.76 289.66"/><polygon class="a" points="440.76 289.66 447.9 289.78 455.22 289.64 462.54 289.73 469.85 289.46 477.18 289.98 484.5 290.01 491.8 289.09 499.12 288.97 506.44 288.77 513.76 289.41 521.43 289.19 521.44 296.69 521.13 303.9 520.86 311.1 521.21 318.41 514.75 320.95 508.65 324.19 503.72 329.08 499.12 334.27 494.95 339.82 491.31 345.73 488.17 351.94 484.8 357.99 480.81 363.66 477.05 370.13 473.01 376.44 468.89 382.68 464.39 388.64 460.03 394.75 454.07 399.28 447.93 403.54 440.26 405.35 440.78 397.77 440.96 390.55 440.43 383.33 440.89 376.11 440.83 368.89 441 361.66 440.78 354.44 440.41 347.23 440.26 340.01 440.64 332.79 440.81 325.57 440.55 318.36 440.34 311.14 440.23 303.93 440.29 296.7 440.76 289.66"/><polygon class="a" points="521.41 289.76 528.39 289.12 535.71 289.47 543.02 289.2 550.34 289.78 557.66 289.5 564.98 290.06 572.29 289.21 579.61 289.53 586.92 289.57 594.24 289.6 601.2 289.78 602 296.65 601.53 303.81 601.81 310.97 601.63 318.21 594.24 317.89 586.92 317.77 579.61 318.29 572.29 317.78 564.97 317.91 557.66 318.39 550.34 318.05 543.02 318.33 535.71 318.49 528.39 318.33 520.78 318.56 520.66 311.1 521.32 303.89 521.13 296.69 521.41 289.76"/><polygon points="198.83 318.44 205.93 317.71 213.3 317.84 220.67 318.35 228.03 317.78 235.41 318.2 242.78 318.35 250.15 317.92 257.51 318.12 264.88 318.36 272.25 318.35 279.48 318.56 279.74 325.76 279.48 333.09 279.69 340.42 279.6 347.76 279.85 355.09 279.89 362.71 272.56 361.7 265.45 362.36 258.38 362.01 251.31 362.11 244.23 362.03 237.16 361.6 230.09 362.24 223.01 362.43 215.62 362.49 215.31 355.27 212.32 349.06 208.66 343.27 205.89 336.98 201.82 331.4 199.48 324.92 198.83 318.44"/><polygon class="a" points="198.83 318.44 205.93 317.71 213.3 317.84 220.67 318.35 228.03 317.78 235.41 318.2 242.78 318.35 250.15 317.92 257.51 318.12 264.88 318.36 272.25 318.35 279.48 318.56 279.74 325.76 279.48 333.09 279.69 340.42 279.6 347.76 279.85 355.09 279.89 362.71 272.56 361.7 265.45 362.36 258.38 362.01 251.31 362.11 244.23 362.03 237.16 361.6 230.09 362.24 223.01 362.43 215.62 362.49 215.31 355.27 212.32 349.06 208.66 343.27 205.89 336.98 201.82 331.4 199.48 324.92 198.83 318.44"/><polygon class="a" points="279.59 318.39 285.99 321.17 291.89 324.88 296.65 329.99 301.28 335.18 305.65 340.62 309.4 346.51 312.53 352.76 316.35 358.59 319.55 364.79 323.68 370.99 327.92 377.12 331.31 383.79 335.91 389.67 340.67 395.41 346.55 399.97 352.92 403.57 360.06 405.05 360.19 412.33 359.75 419.66 359.68 427 359.67 434.33 359.81 441.67 359.74 448.66 352.89 447.67 346.56 443.96 340.97 439.13 335.9 433.68 331.33 427.78 327.24 421.54 323.5 415.1 320.02 408.5 315.82 402.9 312.8 396.6 309.51 390.45 305.02 385.05 301.63 378.91 296.42 374.2 291.68 369.15 286.17 364.85 279.39 362.6 279.8 355.09 279.84 347.76 279.43 340.42 280.03 333.09 279.21 325.76 279.59 318.39"/><polygon class="a" points="360.11 405 367.42 404.82 374.74 404.61 382.06 405.19 389.37 404.98 396.69 404.8 404 405.03 411.32 404.99 418.64 405.29 425.95 404.75 433.27 405.29 440.77 404.81 440.75 412.33 440.29 419.66 440.92 427 440.23 434.33 440.74 441.67 440.43 448.85 433.27 448.54 425.95 449.13 418.64 449.18 411.32 449.06 404 449.31 396.69 449.33 389.37 448.68 382.06 449.16 374.74 448.63 367.42 448.77 359.85 449.25 359.68 441.67 360.42 434.33 360.45 427 360.06 419.66 360.19 412.33 360.11 405"/><polygon class="a" points="440.45 404.86 447.86 403.38 454.05 399.26 460.17 394.89 464.89 389.03 468.84 382.65 472.71 376.25 476.9 370.04 480.69 363.59 484.77 357.96 488.2 351.94 491.38 345.78 495.22 340 499.4 334.48 503.88 329.23 508.95 324.56 514.61 320.67 521.01 318.39 521.05 325.65 520.74 332.98 520.78 340.32 521.46 347.65 521.41 354.99 521.35 362.54 514.46 364.38 508.83 368.42 503.4 372.78 499.19 378.33 495.22 384.01 491.72 389.99 488.23 395.98 484.42 401.77 481.22 407.93 476.73 413.95 473.12 420.51 468.72 426.57 464.62 432.82 459.55 438.3 454.39 443.72 448.03 447.8 440.53 449.06 440.53 441.67 441.07 434.33 440.82 427 440.59 419.66 440.42 412.33 440.45 404.86"/><polygon points="520.95 318.19 528.39 318.57 535.7 318.02 543.02 318.19 550.34 317.7 557.66 318.02 564.97 317.82 572.29 317.97 579.61 317.95 586.92 318.51 594.24 318.01 601.81 317.87 600.45 324.86 598.31 331.41 594.36 337.05 591.37 343.23 588.3 349.31 585.38 355.45 584.32 362.3 577.17 362.21 570.15 361.92 563.14 361.93 556.12 362.31 549.12 362.32 542.11 362.44 535.09 361.67 528.09 361.92 521.22 362.17 521.26 354.99 520.58 347.65 520.88 340.32 521.09 332.98 520.65 325.65 520.95 318.19"/><polygon class="a" points="520.95 318.19 528.39 318.57 535.7 318.02 543.02 318.19 550.34 317.7 557.66 318.02 564.97 317.82 572.29 317.97 579.61 317.95 586.92 318.51 594.24 318.01 601.81 317.87 600.45 324.86 598.31 331.41 594.36 337.05 591.37 343.23 588.3 349.31 585.38 355.45 584.32 362.3 577.17 362.21 570.15 361.92 563.14 361.93 556.12 362.31 549.12 362.32 542.11 362.44 535.09 361.67 528.09 361.92 521.22 362.17 521.26 354.99 520.58 347.65 520.88 340.32 521.09 332.98 520.65 325.65 520.95 318.19"/><polygon class="a" points="215.84 362.05 223.01 361.94 230.1 362.45 237.17 361.61 244.25 361.8 251.32 361.62 258.39 362.1 265.46 362.5 272.54 362.11 279.31 362.73 279.39 369.76 279.45 377.1 279.39 384.43 279.29 391.76 279.29 399.1 279.33 406.13 272.55 405.9 265.45 406.5 258.38 405.96 251.31 406.24 244.23 406.02 237.16 406.21 230.08 405.73 223.01 406 216.2 405.87 215.69 398.82 215.87 391.49 216.01 384.15 215.75 376.82 216.33 369.48 215.84 362.05"/><polygon class="a" points="279.59 362.39 286.14 364.9 291.75 369.06 297.14 373.54 301.17 379.26 305.3 384.86 309.45 390.49 313.08 396.44 316.59 402.45 320.25 408.35 323.82 414.91 327.29 421.51 331.63 427.58 336.11 433.52 340.7 439.39 346.44 444.13 352.8 447.9 360.18 448.92 360.02 456.33 360.36 463.67 359.98 471 360.06 478.34 360.14 485.67 360.04 492.95 352.7 492.18 346.47 488.09 340.79 483.31 335.57 477.95 331.34 471.78 327.16 465.6 324.08 458.75 319.91 452.57 316.4 446.57 312.51 440.77 308.79 434.9 305.03 429.06 301.06 423.36 296.43 418.2 291.98 412.79 285.79 409.54 279.49 406.53 279.52 399.1 279.64 391.76 279.38 384.43 279.49 377.1 279.43 369.76 279.59 362.39"/><polygon class="a" points="359.85 448.75 367.42 449.23 374.74 449 382.06 449.36 389.37 448.72 396.69 449.01 404 449.26 411.32 448.8 418.64 448.94 425.95 448.89 433.27 448.54 440.33 449.25 440.36 456.33 440.62 463.67 440.79 471 440.47 478.34 440.87 485.67 440.74 493.15 433.27 492.74 425.95 492.91 418.64 492.85 411.32 493.19 404 493.46 396.69 492.63 389.37 492.61 382.06 492.81 374.74 493.5 367.42 492.65 360.44 492.67 360.53 485.67 359.93 478.34 360.49 471 360.06 463.67 359.87 456.33 359.85 448.75"/><polygon class="a" points="440.3 448.72 447.91 447.51 454.27 443.57 459.66 438.41 464.83 432.99 469.41 427.04 472.94 420.4 477.38 414.33 481.02 407.8 484.54 401.83 487.47 395.52 491.22 389.68 494.82 383.74 498.92 378.12 503.56 372.93 509.05 368.69 514.59 364.63 521.32 362.05 521.05 369.66 521.18 376.99 521.53 384.32 520.6 391.66 521.5 398.99 521 406.27 514.41 408.3 508.92 412.54 503.6 416.98 499.03 422.21 494.91 427.8 491.16 433.65 487.83 439.75 484.45 445.79 480.91 451.74 477.19 458.23 472.99 464.43 468.94 470.72 465.09 477.19 460.03 482.76 454.21 487.49 447.92 491.54 440.63 492.96 440.5 485.67 440.5 478.34 440.89 471 440.23 463.67 440.82 456.33 440.3 448.72"/><polygon class="a" points="521.26 362.51 528.08 361.86 535.1 362.08 542.12 361.69 549.13 362.08 556.14 361.84 563.15 361.63 570.16 361.85 577.17 361.8 584.11 362.23 584.21 369.48 584.42 376.82 584 384.15 584.64 391.49 584.49 398.82 584.33 406.29 577.17 406.24 570.15 406.33 563.14 405.88 556.13 405.56 549.12 405.98 542.11 405.95 535.1 405.91 528.08 405.78 521.19 406.21 521.54 398.99 521.47 391.66 521.53 384.32 520.67 376.99 521.23 369.66 521.26 362.51"/><polygon class="a" points="216.02 406.25 223.01 405.86 230.09 406.11 237.18 406.23 244.25 405.89 251.32 405.94 258.39 406.11 265.47 405.88 272.54 406.35 279.84 406.21 279.23 413.67 279.32 420.91 279.46 428.15 279.47 435.38 279.84 442.62 279.43 449.65 272.54 449.86 265.45 449.79 258.38 449.23 251.31 449.33 244.24 449.59 237.16 448.96 230.09 449.7 223.01 449.55 216.19 449.31 215.63 442.34 216.2 435.1 215.61 427.87 215.93 420.63 215.6 413.39 216.02 406.25"/><polygon class="a" points="279.51 406.29 286.09 409 291.85 412.94 296.76 417.89 301.38 423.11 305.54 428.71 309.26 434.61 312.38 440.86 316.23 446.67 319.64 452.74 323.44 459.14 327.37 465.47 331.26 471.83 335.8 477.76 341.07 483.04 346.48 488.08 352.89 491.68 359.97 493.15 359.7 500.24 360.17 507.48 359.9 514.72 359.67 521.96 360.25 529.2 360.45 536.76 352.85 535.19 346.47 531.51 340.81 526.72 336.31 520.8 331.63 515.01 327.31 508.93 323.96 502.25 319.51 496.25 316.65 489.85 312.4 484.27 308.97 478.21 305.17 472.39 300.97 466.86 296.77 461.31 291.6 456.67 286.22 452.19 279.69 449.81 279.61 442.62 279.75 435.38 279.35 428.15 279.65 420.91 279.84 413.67 279.51 406.29"/><polygon class="a" points="360.1 493.01 367.42 492.59 374.74 493.42 382.06 493.39 389.37 493.42 396.69 493.13 404 493.07 411.32 492.69 418.64 493.38 425.95 493.03 433.27 493.43 440.38 493.22 440.15 500.24 440.6 507.48 440.84 514.72 441 521.96 441.08 529.2 440.5 536.34 433.27 536.04 425.95 536.81 418.64 536.18 411.32 536.74 404 536.29 396.69 536.16 389.37 536.29 382.06 536.91 374.74 536.74 367.42 536 359.85 536.69 360.18 529.2 359.93 521.96 359.97 514.72 359.93 507.48 360.13 500.24 360.1 493.01"/><polygon class="a" points="440.24 492.66 447.9 491.49 454.37 487.7 459.98 482.72 464.89 477.04 468.97 470.75 472.78 464.31 476.96 458.09 481.16 451.89 484.19 445.63 487.95 439.81 491.38 433.79 494.91 427.81 499.44 422.53 504.02 417.36 508.62 412.17 514.39 408.25 521.23 406.15 521.48 413.56 520.96 420.8 521.51 428.04 521.29 435.28 521.57 442.52 521.33 449.96 514.32 451.54 509.05 456.12 504.01 460.79 499.19 465.76 495.35 471.53 491.28 477.15 487.96 483.25 484 488.95 480.8 495.09 476.82 501.43 472.77 507.72 469.29 514.38 464.99 520.54 459.91 526.07 454.22 530.93 447.86 534.82 440.91 536.08 440.57 529.2 440.59 521.96 440.17 514.72 441 507.48 440.97 500.24 440.24 492.66"/><polygon class="a" points="520.81 406.06 528.08 405.82 535.1 405.92 542.12 406.41 549.13 405.84 556.14 405.66 563.15 405.72 570.16 405.7 577.17 406.35 584.02 406.32 584.5 413.39 583.69 420.63 583.79 427.87 584.49 435.1 584.05 442.34 584.29 449.69 577.17 449.07 570.15 449.18 563.13 449.92 556.13 449.35 549.12 449.41 542.11 449.57 535.09 449.21 528.1 450.05 521.08 449.75 521.48 442.52 520.58 435.28 521.2 428.04 521.2 420.8 521.26 413.56 520.81 406.06"/><polygon class="a" points="216.07 449.72 223.01 449.19 230.1 449.98 237.17 449.23 244.25 449.28 251.32 449.45 258.39 449.62 265.46 449.77 272.53 449.91 279.46 450.02 279.31 457.19 279.94 464.53 279.93 471.86 279.22 479.2 279.63 486.53 279.82 494.08 272.55 493.55 265.46 493.73 258.38 493.01 251.31 493.35 244.23 493.1 237.16 493.7 230.09 493.96 223.01 493.65 215.79 493.72 216.14 486.25 215.69 478.92 215.96 471.58 215.55 464.25 215.57 456.91 216.07 449.72"/><polygon class="a" points="279.8 450.08 285.89 452.79 291.67 456.59 296.63 461.43 301 466.83 305.04 472.47 309.34 477.98 312.31 484.33 316.27 490.07 319.8 496.07 323.49 502.54 327.93 508.55 331.45 515.13 335.97 521.06 340.83 526.7 346.27 531.78 352.73 535.52 360.23 536.29 360.11 543.77 359.9 551.1 360.23 558.44 359.76 565.77 360.01 573.11 359.8 580.15 352.79 579.38 346.21 575.87 340.81 570.72 336.17 564.91 331.77 558.93 327.63 552.74 324.01 546.22 319.63 540.18 316.28 534.07 313.12 527.85 308.72 522.38 305.1 516.44 301.26 510.64 297.03 505.08 291.92 500.29 286.04 496.53 279.77 493.76 279.65 486.53 280.09 479.2 279.23 471.86 279.82 464.53 279.25 457.19 279.8 450.08"/><polygon class="a" points="359.75 536.08 367.42 536.03 374.74 536.79 382.06 536.89 389.37 535.99 396.69 536.65 404 536.32 411.32 536.43 418.64 536.68 425.95 536.82 433.27 535.98 440.66 536.36 440.75 543.77 440.62 551.1 440.84 558.44 440.86 565.77 440.37 573.11 440.37 580.23 433.27 580.77 425.95 579.94 418.64 580.6 411.32 580.51 404 580.1 396.69 580.26 389.37 580.66 382.06 580.11 374.74 580.1 367.42 580.22 360.09 580.46 359.77 573.11 359.73 565.77 360.17 558.44 360.38 551.1 360.39 543.77 359.75 536.08"/><polygon class="a" points="440.69 536.53 447.88 534.86 454.19 530.89 459.9 526.07 464.55 520.21 469.34 514.42 473.21 508 477.1 501.6 480.89 495.15 484.73 489.37 488.12 483.33 491.78 477.46 495.09 471.36 498.9 465.54 503.46 460.27 508.84 455.87 514.76 452.41 520.98 449.86 520.72 457.09 520.91 464.42 521.21 471.76 520.79 479.09 521.1 486.43 521.3 493.94 514.36 495.63 508.68 499.67 503.43 504.25 499.36 509.89 495.34 515.53 491.13 521.06 488.32 527.47 484.34 533.16 480.86 539.14 476.89 545.48 473.32 552.07 469.02 558.21 464.57 564.22 459.53 569.71 454.34 575.09 447.7 578.43 440.6 580.42 440.98 573.11 440.87 565.77 440.81 558.44 440.09 551.1 440.19 543.77 440.69 536.53"/><polygon class="a" points="521.02 449.7 528.08 449.52 535.1 449.15 542.12 449.78 549.13 449.38 556.14 449.43 563.14 449.84 570.16 449.21 577.17 449.59 584.21 449.55 584.55 456.91 583.95 464.25 584.1 471.58 584.65 478.92 584.59 486.25 584.53 493.94 577.17 493.31 570.15 493.72 563.13 493.94 556.12 493.88 549.12 493.35 542.11 493.23 535.09 493.18 528.09 493.86 520.74 494.11 520.66 486.43 521.13 479.09 521.34 471.76 521.21 464.42 521.13 457.09 521.02 449.7"/><polygon class="a" points="215.64 493.29 223.01 493.32 230.09 493.71 237.18 493.69 244.25 493.71 251.32 493.75 258.39 493.8 265.46 493.78 272.53 493.96 279.6 493.89 279.7 501.2 280.09 508.53 280.12 515.87 279.85 523.2 279.95 530.54 279.94 538.21 272.55 537.31 265.46 537.27 258.38 537.64 251.3 536.86 244.23 537.14 237.16 537.37 230.08 537.29 223.01 537.7 216.16 537.35 216.38 530.26 215.92 522.92 216.22 515.59 215.86 508.25 215.83 500.92 215.64 493.29"/><polygon class="a" points="279.5 493.72 285.83 496.89 291.92 500.29 296.87 505.22 301.14 510.73 305.67 516.05 308.88 522.28 312.54 528.2 316.62 533.87 319.6 540.2 323.73 546.4 327.23 552.98 331.61 559.03 335.56 565.38 340.59 570.93 346.21 575.86 352.89 579.1 359.94 580.63 360.58 587.77 359.67 595.11 359.72 602.44 360.6 609.78 359.63 617.11 360.31 624.64 352.87 623.16 346.09 620.03 340.79 614.75 336.04 609.02 331.22 603.3 327.7 596.7 323.37 590.62 319.96 583.98 315.89 578.3 312.54 572.2 309.34 566 305.47 560.19 300.96 554.87 296.75 549.34 292.03 544.17 285.87 540.83 279.92 537.65 279.4 530.54 280.09 523.2 279.78 515.87 279.2 508.53 279.38 501.2 279.5 493.72"/><polygon class="a" points="359.88 580.22 367.42 580.69 374.74 579.98 382.06 580.64 389.37 580.63 396.69 580.94 404 580.84 411.32 580.23 418.64 579.98 425.95 580 433.27 580.35 440.41 580.61 440.35 587.77 440.38 595.11 440.64 602.44 441.04 609.78 440.91 617.11 440.29 624.15 433.27 624.89 425.95 624.45 418.64 624.03 411.32 624.43 404 624.2 396.69 623.95 389.37 624.86 382.06 624.91 374.74 624.87 367.42 624.2 360.33 624.22 359.7 617.11 360.01 609.78 359.89 602.44 359.91 595.11 360.5 587.77 359.88 580.22"/><polygon class="a" points="440.41 580.26 447.68 578.38 454.08 574.75 460.19 570.35 464.94 564.52 469.12 558.28 473.43 552.14 476.56 545.28 481.04 539.25 484.79 533.41 487.59 527.03 491.77 521.46 494.9 515.23 499.61 510.1 503.73 504.52 508.67 499.66 514.58 496.05 521.01 493.83 521.52 501.09 520.75 508.43 521.17 515.76 520.77 523.1 520.77 530.43 520.75 537.51 514.73 540.35 508.7 543.71 503.49 548.31 498.98 553.61 495 559.3 491.75 565.46 488.18 571.39 484.44 577.23 481.05 583.27 477.08 589.6 473.03 595.9 468.82 602.08 464.32 608.03 459.5 613.7 454.42 619.2 447.69 622.42 440.8 624.22 440.67 617.11 440.98 609.78 440.12 602.44 440.27 595.11 440.84 587.77 440.41 580.26"/><polygon class="a" points="521.12 493.81 528.08 493.31 535.11 493.95 542.12 493.45 549.13 493.43 556.14 493.21 563.15 493.61 570.16 493.8 577.17 493.14 584.36 493.41 584.52 500.92 584.28 508.25 583.91 515.59 584.19 522.92 583.84 530.26 584.4 537.81 577.17 537.71 570.15 537.52 563.13 537.95 556.13 537.45 549.12 537.17 542.11 537.82 535.09 537.02 528.1 537.99 521.22 537.61 521.5 530.43 521.36 523.1 520.8 515.76 520.82 508.43 520.61 501.09 521.12 493.81"/><polygon class="a" points="216.25 537.92 223.01 537.83 230.09 537.56 237.17 537.61 244.25 537.51 251.32 537.07 258.4 536.89 265.47 537.48 272.53 537.92 279.59 537.9 279.4 545.21 279.91 552.54 279.36 559.87 279.64 567.21 279.19 574.54 279.82 582.09 272.54 581.9 265.47 580.98 258.38 581.08 251.3 581 244.24 581.6 237.16 581.57 230.08 581.32 223.01 581.39 215.88 581.64 215.73 574.26 216.39 566.93 216.34 559.59 216 552.26 215.62 544.93 216.25 537.92"/><polygon class="a" points="279.54 537.77 285.98 540.63 291.86 544.37 296.76 549.33 301.05 554.8 305.27 560.33 308.96 566.23 312.93 571.98 315.9 578.3 319.86 584.04 323.83 590.34 327.75 596.67 331.85 602.87 335.59 609.37 341.09 614.46 346.32 619.73 352.97 622.89 360.34 624.18 360.18 631.78 359.82 639.11 360.32 646.45 359.8 653.78 359.63 661.12 359.96 668.32 352.96 666.93 346.38 663.65 340.79 658.75 335.61 653.36 331.94 646.82 327.96 640.54 324.02 634.23 320.18 627.84 316.11 622.18 312.63 616.15 308.74 610.37 305.07 604.47 301.17 598.72 296.48 593.6 291.68 588.59 286.23 584.2 279.92 581.66 280.02 574.54 279.96 567.21 279.25 559.87 280.08 552.54 279.88 545.21 279.54 537.77"/><polygon class="a" points="360.06 624.4 367.42 624.23 374.74 624.22 382.06 624.95 389.37 624.32 396.69 624.09 404 624.8 411.32 624.15 418.64 624.4 425.95 624.45 433.27 624.58 440.43 624.6 440.78 631.78 440.53 639.11 440.87 646.45 440.9 653.78 440.18 661.12 440.3 668.17 433.27 668.01 425.95 668.23 418.64 668 411.32 668.41 404 668.22 396.69 668.54 389.37 667.99 382.06 668.45 374.74 668.75 367.42 668.32 360.04 668.51 359.84 661.12 360.4 653.78 359.79 646.45 359.98 639.11 360.2 631.78 360.06 624.4"/><polygon class="a" points="440.39 624.25 447.92 622.98 454.31 619.05 459.82 614 464.57 608.23 469.46 602.51 473.07 595.92 476.96 589.52 480.92 583.18 484.03 576.98 488.05 571.3 491.08 565.04 494.97 559.29 499.27 553.84 503.46 548.28 508.68 543.68 514.33 539.57 521.15 537.68 520.76 545.1 520.58 552.43 520.65 559.77 521.42 567.1 521.5 574.44 520.9 581.63 514.53 583.97 508.77 587.8 503.56 592.39 499.23 597.81 495.02 603.33 491.71 609.43 487.82 615.18 484.52 621.28 480.72 627.06 477.15 633.65 472.69 639.7 469.4 646.48 464.82 652.42 459.78 657.96 454.11 662.79 447.68 666.4 440.51 668.53 440.18 661.12 441.08 653.78 440.72 646.45 440.53 639.11 440.37 631.78 440.39 624.25"/><polygon class="a" points="521.18 537.87 528.09 537.57 535.11 537.63 542.12 537.22 549.13 537.86 556.14 537.89 563.14 537.93 570.16 537.31 577.17 537.99 584.53 537.24 584.35 544.93 583.86 552.26 583.94 559.59 584.54 566.93 584.4 574.26 583.97 581.38 577.17 581.81 570.15 581.66 563.14 581.54 556.12 581.96 549.12 581.81 542.11 581.07 535.1 581.73 528.09 581.71 521.03 581.82 521.04 574.44 521.26 567.1 520.76 559.77 520.8 552.43 521.26 545.1 521.18 537.87"/><polygon class="b" points="513.86 291.52 508.51 286.85 501.72 284.17 494.52 282.93 487.36 281.56 480.21 280.04 472.99 278.98 465.69 278.52 458.44 277.6 451.17 276.98 443.85 277.08 436.56 276.59 429.28 275.86 421.97 276.06 414.67 275.88 407.37 275.17 400.06 275.53 392.75 275.1 385.45 275.6 378.13 275.31 370.85 276.17 363.52 275.7 356.26 276.78 348.95 276.89 341.7 277.88 334.4 278.25 327.09 278.63 319.84 279.64 312.65 281 305.5 282.52 298.54 284.72 291.48 286.59 286.71 291.52 291.5 296.42 298.38 298.89 305.62 300.02 312.71 301.75 319.93 302.76 327.11 304.2 334.44 304.3 341.67 305.42 348.96 305.93 356.22 306.82 363.52 307.13 370.85 306.74 378.12 307.8 385.43 308.05 392.75 307.94 400.06 307.76 407.36 307.28 414.67 307.45 421.97 307.48 429.27 307.19 436.58 307.12 443.89 306.87 451.13 305.62 458.46 305.63 465.73 304.95 472.91 303.44 480.17 302.67 487.46 302 494.59 300.42 501.72 298.85 508.47 296.09 513.86 291.52"/><polygon class="c" points="513.86 291.52 508.51 286.85 501.72 284.17 494.52 282.93 487.36 281.56 480.21 280.04 472.99 278.98 465.69 278.52 458.44 277.6 451.17 276.98 443.85 277.08 436.56 276.59 429.28 275.86 421.97 276.06 414.67 275.88 407.37 275.17 400.06 275.53 392.75 275.1 385.45 275.6 378.13 275.31 370.85 276.17 363.52 275.7 356.26 276.78 348.95 276.89 341.7 277.88 334.4 278.25 327.09 278.63 319.84 279.64 312.65 281 305.5 282.52 298.54 284.72 291.48 286.59 286.71 291.52 291.5 296.42 298.38 298.89 305.62 300.02 312.71 301.75 319.93 302.76 327.11 304.2 334.44 304.3 341.67 305.42 348.96 305.93 356.22 306.82 363.52 307.13 370.85 306.74 378.12 307.8 385.43 308.05 392.75 307.94 400.06 307.76 407.36 307.28 414.67 307.45 421.97 307.48 429.27 307.19 436.58 307.12 443.89 306.87 451.13 305.62 458.46 305.63 465.73 304.95 472.91 303.44 480.17 302.67 487.46 302 494.59 300.42 501.72 298.85 508.47 296.09 513.86 291.52"/><polygon points="514.08 271.67 508.46 267.11 501.58 264.83 494.61 262.65 487.39 261.52 480.2 260.27 473.01 258.94 465.67 258.91 458.48 257.39 451.16 257.17 443.89 256.55 436.56 256.83 429.27 256.36 421.99 255.53 414.68 255.52 407.37 255.59 400.06 255.23 392.75 255.97 385.45 255.79 378.14 255.82 370.85 256.28 363.55 256.57 356.24 256.64 348.94 256.88 341.69 257.94 334.43 258.67 327.11 258.97 319.91 260.3 312.7 261.42 305.5 262.65 298.43 264.48 291.65 267.12 286.9 271.67 291.5 276.58 298.44 278.85 305.6 280.23 312.77 281.54 319.97 282.65 327.08 284.53 334.37 285.21 341.69 285.4 348.99 285.63 356.23 286.7 363.51 287.4 370.81 287.76 378.13 287.69 385.44 287.65 392.74 288.2 400.06 287.52 407.37 287.98 414.66 287.43 421.98 287.71 429.25 286.81 436.57 287.04 443.88 286.88 451.14 285.9 458.43 285.45 465.71 284.86 473.02 284.52 480.23 283.21 487.47 282.23 494.57 280.5 501.73 279.02 508.41 276.11 514.08 271.67"/><polygon class="c" points="514.08 271.67 508.46 267.11 501.58 264.83 494.61 262.65 487.39 261.52 480.2 260.27 473.01 258.94 465.67 258.91 458.48 257.39 451.16 257.17 443.89 256.55 436.56 256.83 429.27 256.36 421.99 255.53 414.68 255.52 407.37 255.59 400.06 255.23 392.75 255.97 385.45 255.79 378.14 255.82 370.85 256.28 363.55 256.57 356.24 256.64 348.94 256.88 341.69 257.94 334.43 258.67 327.11 258.97 319.91 260.3 312.7 261.42 305.5 262.65 298.43 264.48 291.65 267.12 286.9 271.67 291.5 276.58 298.44 278.85 305.6 280.23 312.77 281.54 319.97 282.65 327.08 284.53 334.37 285.21 341.69 285.4 348.99 285.63 356.23 286.7 363.51 287.4 370.81 287.76 378.13 287.69 385.44 287.65 392.74 288.2 400.06 287.52 407.37 287.98 414.66 287.43 421.98 287.71 429.25 286.81 436.57 287.04 443.88 286.88 451.14 285.9 458.43 285.45 465.71 284.86 473.02 284.52 480.23 283.21 487.47 282.23 494.57 280.5 501.73 279.02 508.41 276.11 514.08 271.67"/><polyline class="c" points="429.41 283.48 435.65 280.33 440.96 275.74 446.15 271.07 451.55 266.61 455.95 261.15 461.15 256.41 464.9 250.44 469.51 245.17 473.35 239.31 476.63 233.13 480.32 227.2 483.38 220.91 486.81 214.78 489.18 208.18 491.48 201.56 492.63 194.54 493.98 187.56 493.97 180.44 493.19 173.37 492.23 166.33 489.98 159.58 488.06 152.76 486.35 145.85 483 139.55 480.79 132.78 477.34 126.57 474.43 120.08 470.48 114.16 467.52 107.67 463.18 102.01 459.79 95.76 455.96 89.78 451.38 84.33 447.3 78.53 442.85 73.05 446.26 79.26 447.52 86.26 448.26 93.28 448.31 100.36 447 107.32 446.15 114.35 444.23 121.16 442.45 128.01 440.71 134.91 437.4 141.23 435.36 148.05 432.62 154.6 429.16 160.8 426.17 167.23 422.65 173.38"/><polyline class="c" points="354.25 184.49 352.06 177.73 349.71 171.05 347.09 164.43 345.89 157.4 344.15 150.53 342.34 143.67 340.5 136.8 339.17 129.83 337.98 122.83 336.43 115.91 335.02 108.95 334.41 101.85 332.64 94.96 331.97 88.31 331.99 95.03 331.74 102.15 331.38 109.27 330.17 116.31 329.79 123.44 328.17 130.41 327.32 137.48 325.49 144.37 324.22 151.41 322.05 158.29 319.68 165.11 317.77 172.06 315.92 179.01 314.69 186.09 313.92 193.22 313.31 200.41 314.28 207.55 315.07 214.77 317.58 221.57 320.44 228.2 323.55 234.72 327.03 241.06 330.35 247.48 334.48 253.45 337.72 259.94 341.69 266 346.37 271.54 350.69 277.38 356.21 282.08 362.3 285.89"/><polygon class="b" points="442.83 73.51 446.02 79.35 447.48 86.27 448.4 93.27 448.06 100.34 447.19 107.35 446.35 114.39 444.25 121.17 442.65 128.08 440.07 134.68 437.66 141.34 435.44 148.09 431.86 154.25 428.84 160.65 425.86 167.07 422.4 173.23 422.4 173.36 422.03 166.32 422.43 159.21 421.36 152.2 419.22 145.43 416.96 138.8 414.64 132.07 409.9 126.68 405.2 121.63 401.76 115.52 398.84 109.12 396.34 102.55 394.14 95.87 391.21 89.42 389.47 82.58 387.82 75.73 385.82 68.98 384.08 62.16 382.19 55.37 380.53 48.53 379.23 42.08 377.13 48.32 374.03 54.71 372.64 61.69 369.86 68.21 367.95 75.01 366.06 81.82 364.25 88.64 362.58 95.5 360.77 102.34 360.18 109.43 358.09 116.23 357.88 123.34 356.77 130.31 355.58 137.31 355.61 144.39 355.43 151.47 356.75 158.45 357.14 165.54 359.26 172.41 360.94 173.31 358.58 178.38 357.12 184.37 354.46 184.42 351.87 177.8 349.33 171.17 348.04 164.16 345.52 157.5 343.82 150.61 342.54 143.62 340.98 136.7 339.36 129.79 338.2 122.79 336.98 115.8 335.51 108.86 334.56 101.83 332.61 94.97 331.96 88.28 332.09 95.04 331.05 102.11 331.36 109.27 330.52 116.35 329.49 123.4 328.97 130.53 327.02 137.43 326.27 144.56 323.73 151.26 321.96 158.27 319.25 164.97 317.01 171.84 315.4 178.89 313.79 185.95 313.11 193.17 313.69 200.39 314.03 207.59 315.41 214.68 317.68 221.53 320.49 228.18 323.95 234.51 326.89 241.13 330.52 247.39 334.49 253.44 338.06 259.72 342.05 265.75 346.5 271.44 350.72 277.34 355.91 282.45 362.19 286.23 369.67 286.12 377.14 286.39 384.61 286.58 392.08 286.52 399.56 286.27 407.03 286.7 414.51 286.46 421.99 286.44 429.46 286.87 435.61 283.26 440.91 278.44 446.21 273.63 451.35 268.65 456.12 263.3 460.66 257.77 465.2 252.23 468.86 246.06 472.94 240.19 476.4 233.94 480.06 227.79 483.81 221.66 485.88 214.75 489.12 208.33 491.65 201.61 493.23 194.65 494 187.56 493.62 180.45 493.37 173.35 491.68 166.44 490.54 159.43 488.44 152.64 485.54 146.15 483.56 139.32 480.68 132.83 477.44 126.52 473.89 120.37 470.57 114.1 467.17 107.88 463.24 101.97 459.27 96.1 455.8 89.89 451.19 84.47 446.91 78.83 442.83 73.51"/><polygon class="c" points="442.83 73.51 446.02 79.35 447.48 86.27 448.4 93.27 448.06 100.34 447.19 107.35 446.35 114.39 444.25 121.17 442.65 128.08 440.07 134.68 437.66 141.34 435.44 148.09 431.86 154.25 428.84 160.65 425.86 167.07 422.4 173.23 422.4 173.36 422.03 166.32 422.43 159.21 421.36 152.2 419.22 145.43 416.96 138.8 414.64 132.07 409.9 126.68 405.2 121.63 401.76 115.52 398.84 109.12 396.34 102.55 394.14 95.87 391.21 89.42 389.47 82.58 387.82 75.73 385.82 68.98 384.08 62.16 382.19 55.37 380.53 48.53 379.23 42.08 377.13 48.32 374.03 54.71 372.64 61.69 369.86 68.21 367.95 75.01 366.06 81.82 364.25 88.64 362.58 95.5 360.77 102.34 360.18 109.43 358.09 116.23 357.88 123.34 356.77 130.31 355.58 137.31 355.61 144.39 355.43 151.47 356.75 158.45 357.14 165.54 359.26 172.41 360.94 173.31 358.58 178.38 357.12 184.37 354.46 184.42 351.87 177.8 349.33 171.17 348.04 164.16 345.52 157.5 343.82 150.61 342.54 143.62 340.98 136.7 339.36 129.79 338.2 122.79 336.98 115.8 335.51 108.86 334.56 101.83 332.61 94.97 331.96 88.28 332.09 95.04 331.05 102.11 331.36 109.27 330.52 116.35 329.49 123.4 328.97 130.53 327.02 137.43 326.27 144.56 323.73 151.26 321.96 158.27 319.25 164.97 317.01 171.84 315.4 178.89 313.79 185.95 313.11 193.17 313.69 200.39 314.03 207.59 315.41 214.68 317.68 221.53 320.49 228.18 323.95 234.51 326.89 241.13 330.52 247.39 334.49 253.44 338.06 259.72 342.05 265.75 346.5 271.44 350.72 277.34 355.91 282.45 362.19 286.23 369.67 286.12 377.14 286.39 384.61 286.58 392.08 286.52 399.56 286.27 407.03 286.7 414.51 286.46 421.99 286.44 429.46 286.87 435.61 283.26 440.91 278.44 446.21 273.63 451.35 268.65 456.12 263.3 460.66 257.77 465.2 252.23 468.86 246.06 472.94 240.19 476.4 233.94 480.06 227.79 483.81 221.66 485.88 214.75 489.12 208.33 491.65 201.61 493.23 194.65 494 187.56 493.62 180.45 493.37 173.35 491.68 166.44 490.54 159.43 488.44 152.64 485.54 146.15 483.56 139.32 480.68 132.83 477.44 126.52 473.89 120.37 470.57 114.1 467.17 107.88 463.24 101.97 459.27 96.1 455.8 89.89 451.19 84.47 446.91 78.83 442.83 73.51"/><polyline class="c" points="401.44 281.9 399.89 274.92 398.32 267.92 397.35 260.81 397.41 253.61 396.56 246.51 395.75 239.38 395.85 232.21 396.81 225.11 397 217.89"/><polyline class="c" points="359.91 172.09 357.5 165.47 356.02 158.54 355.48 151.47 355.35 144.4 355.63 137.32 356.68 130.32 357.08 123.25 358.58 116.33 359.9 109.4 361.22 102.46 363 95.62 364.56 88.73 366.53 81.95 368.47 75.17 370.04 68.27 372.57 61.66 374.75 54.95 376.59 48.12 379.34 41.22 380.45 48.55 382.25 55.36 383.61 62.27 386.16 68.89 387.4 75.84 389.38 82.6 391.33 89.37 393.97 95.92 396.19 102.59 398.73 109.16 401.59 115.6 405.1 121.7 409.36 127.38 414.26 132.34 417.36 138.68 419.98 145.29 421 152.32 421.77 159.36 422.33 166.4 422.39 173.47 422.08 180.54 421.73 187.6 421.1 194.69 419.38 201.6"/><polyline class="c" points="384.9 138.71 379.92 144.01 375.72 149.96 371.27 155.71 367.84 162.14 363.76 168.17 360.86 174.84 357.64 181.36 355.14 188.22 354.76 195.52 354.39 202.72 356.3 209.67 359.11 216.43 361.86 223.21 364.69 229.97 366.92 236.95 368.68 244.06 368.83 251.28 368.32 258.55"/><polyline class="c" points="463.75 161.3 465.15 168.44 465.85 175.69 465.39 182.97 465.15 190.23 464.31 197.43 463.62 204.66 461.96 211.73 460.24 218.8 456.92 225.28 453.84 231.87 450.2 237.74 445.82 243.06 441.02 248.01 436.16 252.87 431.23 257.66 427.19 263.28 423.41 268.91 420.79 275.16 419.81 281.97"/><polyline class="c" points="401.46 281.9 400.23 274.86 399.19 267.79 397.58 260.79 397.19 253.63 396.76 246.49 396.07 239.37 396.29 232.22 396 225.03 397.92 218.12"/><polygon points="415.92 369.82 413.72 377.18 408.5 382.86 400.98 384.56 393.35 383.03 388.08 377.26 386.4 369.82 388 362.71 389.83 355.53 392.55 348.63 395.32 341.76 397.62 334.69 400.98 328.31 403.79 334.92 406.51 341.81 409.31 348.66 411.83 355.63 414.79 362.47 415.92 369.82"/><polygon class="d" points="415.92 369.82 413.72 377.18 408.5 382.86 400.98 384.56 393.35 383.03 388.08 377.26 386.4 369.82 388 362.71 389.83 355.53 392.55 348.63 395.32 341.76 397.62 334.69 400.98 328.31 403.79 334.92 406.51 341.81 409.31 348.66 411.83 355.63 414.79 362.47 415.92 369.82"/><polygon class="b" points="415.49 744.7 413.61 751.99 408.21 757.23 400.98 759.25 393.35 757.91 388.21 752.07 386.34 744.7 388.03 737.6 389.72 730.38 392.52 723.51 394.8 716.43 398.39 709.9 400.98 702.67 403.97 709.73 407.09 716.46 409.4 723.51 412.39 730.32 414 737.58 415.49 744.7"/><polygon class="c" points="415.49 744.7 413.61 751.99 408.21 757.23 400.98 759.25 393.35 757.91 388.21 752.07 386.34 744.7 388.03 737.6 389.72 730.38 392.52 723.51 394.8 716.43 398.39 709.9 400.98 702.67 403.97 709.73 407.09 716.46 409.4 723.51 412.39 730.32 414 737.58 415.49 744.7"/></svg>