<svg xmlns="http://www.w3.org/2000/svg" viewBox="0 0 800 800"><defs><style>.a{fill:#fff;}.b,.c{fill:none;stroke-linecap:round;stroke-linejoin:round;stroke-width:13px;}.b{stroke:#000;}.c{stroke:#fff;}</style></defs><title>wata</title><rect class="a" width="800" height="800"/><polyline class="b" points="139.91 90.11 145.44 94.95 151.43 99.26 158.1 102.45 165.14 104.89 172.55 104.67 179.94 104.79 186.93 102.45 193.35 98.86 199.45 94.83 205.18 90.19"/><polyline class="b" points="204.93 90.06 210.69 94.61 216.61 98.95 223.2 102.21 230.22 104.44 237.55 105.19 244.79 104.07 251.89 102.29 258.75 99.54 264.2 94.51 270.4 90.44"/><polyline class="b" points="270.08 89.94 275.79 94.49 281.78 98.67 288.25 102.06 295.34 103.84 302.55 104.86 309.79 103.97 317.2 103.14 323.79 99.6 329.32 94.68 335.12 90.13"/><polyline class="b" points="335.49 89.55 340.33 95.09 346.81 98.59 352.96 102.79 360.31 103.86 367.56 104.47 374.88 104.49 382.12 102.88 388.6 99.29 394.41 94.78 399.9 89.87"/><polyline class="b" points="400.09 89.83 405.23 95.22 411.69 98.81 418.02 102.67 425.23 104.39 432.55 105.27 439.9 104.62 446.93 102.44 453.32 98.83 459.42 94.78 464.76 89.76"/><polyline class="b" points="464.62 90.41 470.52 94.84 476.71 98.78 483.19 102.23 490.3 104.05 497.53 106 504.84 104.32 511.85 102.22 518.3 98.77 524.63 95.05 529.51 89.51"/><polyline class="b" points="529.63 90.4 535.63 94.69 541.92 98.42 548.21 102.18 555.36 103.81 562.55 105.89 569.78 104.02 576.78 102.04 583.22 98.67 589.57 94.98 594.73 89.71"/><polyline class="b" points="594.9 90.13 600.72 94.59 606.72 98.75 613.27 102.03 620.32 103.98 627.55 105.57 634.77 103.95 641.88 102.29 648.42 99 654.44 94.81 660.14 90.13"/><polyline class="b" points="660.06 89.94 665.42 94.96 671.81 98.61 678.43 101.63 685.37 103.77 692.54 105.62 699.85 104.39 707.04 102.7 713.57 99.23 719.52 94.92 724.99 89.99"/><polyline class="b" points="661.28 269.25 655.49 273.85 649.83 278.73 642.92 281.52 635.9 284.03 628.44 283.67 621.07 283.81 614.08 281.42 607.4 278.3 601.37 274.05 595.87 269.13"/><polyline class="b" points="595.99 268.99 590.99 274.47 584.82 278.72 577.74 281.05 570.88 283.94 563.45 283.82 555.97 284.32 549.14 281.24 542.38 278.34 536.23 274.21 531.32 268.68"/><polyline class="b" points="531.04 268.93 525.54 273.94 519.6 278.26 512.88 281.42 505.89 284.01 498.46 283.69 491.09 283.71 484.22 281.05 477.55 278.04 471.35 274.08 465.91 269.05"/><polyline class="b" points="466.25 269.26 460.36 273.7 454.51 278.15 448.09 281.96 440.83 283.75 433.44 283.91 426.12 283.58 419.24 281 412.42 278.25 406.63 273.72 400.45 269.64"/><polyline class="b" points="400.81 268.82 395.47 273.83 389.38 277.89 383.13 281.99 375.81 283.6 368.45 284.42 361.08 283.69 354.24 280.98 347.22 278.6 341.61 273.75 335.7 269.33"/><polyline class="b" points="335.47 268.52 330.56 273.96 324.35 277.87 318 281.77 310.71 283.14 303.47 284.29 296.1 283.63 289.12 281.3 282.46 278.2 276.37 274.05 270.66 269.34"/><polyline class="b" points="270.81 268.72 265.52 273.91 259.32 277.83 252.68 280.87 245.69 283.09 238.45 284.18 231.1 283.63 224.09 281.36 217.48 278.17 211.23 274.22 205.71 269.29"/><polyline class="b" points="205.82 268.84 200.47 273.82 194.05 277.32 187.49 280.46 180.82 283.59 173.45 284.52 166.15 283.36 159.12 281.31 152.53 278.08 146.2 274.26 141.28 268.72"/><polyline class="b" points="140.64 268.64 135.73 274.16 129.3 277.79 122.69 280.93 115.85 283.74 108.45 284.66 101.14 283.44 94.04 281.5 87.65 277.88 81.43 273.98 76.41 268.58"/><polyline class="b" points="75.81 152.19 81.35 157.06 87.46 161.2 94.34 163.85 101.25 166.26 108.55 166.3 115.85 166.39 122.63 163.67 129.5 161.12 135.31 156.64 141 152.03"/><polyline class="b" points="140.99 152.03 146.35 157.06 152.41 161.29 159.39 163.69 166.25 166.31 173.57 166.43 180.89 166.56 187.78 164.07 194.42 160.99 200.49 156.87 205.84 151.84"/><polyline class="b" points="205.87 152.1 211.61 156.71 217.69 160.81 224.12 164.4 231.34 165.81 238.56 166.61 245.86 166.45 253.09 164.85 259.57 161.25 265.58 156.97 270.73 151.73"/><polyline class="b" points="270.69 152.34 276.72 156.58 282.54 161.08 288.95 164.87 296.24 166.3 303.55 166.95 310.78 166.02 317.89 164.37 324.7 161.46 330.21 156.53 335.59 151.56"/><polyline class="b" points="335.99 152.04 341.85 156.41 347.54 161.06 354.08 164.47 361.14 166.84 368.55 167.15 375.81 166.19 382.74 163.96 389.53 161.2 395.55 156.95 400.5 151.51"/><polyline class="b" points="401.17 151.82 406.83 156.43 412.95 160.37 419.2 164.21 426.26 166.2 433.55 167.37 440.8 166.12 447.91 164.37 454.65 161.38 460.75 157.18 465.45 151.45"/><polyline class="b" points="466.18 151.83 471.46 156.91 478.06 160.18 484.07 164.54 491.28 166.14 498.55 167.68 505.85 166.36 513.03 164.69 519.9 161.81 525.86 157.33 530.46 151.49"/><polyline class="b" points="531.22 151.77 536.47 156.9 542.84 160.59 548.94 164.89 556.24 166.41 563.54 167.11 570.99 167.09 577.91 164.35 584.61 161.32 590.57 156.97 595.6 151.54"/><polyline class="b" points="596.19 151.81 601.62 156.7 607.81 160.6 614.23 164.1 621.29 166.12 628.55 166.75 635.92 166.73 642.73 163.88 649.71 161.47 655.6 157.03 660.75 151.76"/><polyline class="b" points="724.9 330.92 719.39 335.72 713.4 339.93 707.14 344.03 699.75 345.29 692.45 345.74 685.09 345.7 678.03 343.54 671.51 340.1 665.76 335.58 659.91 331.1"/><polyline class="b" points="659.62 330.62 654.28 335.59 648.27 339.73 641.84 343.35 634.66 344.88 627.43 346.13 620.07 345.76 613.13 343.28 606.18 340.69 600.23 336.23 595.07 330.93"/><polyline class="b" points="594.49 330.51 589.38 335.71 583.32 339.84 576.57 342.62 569.62 344.69 562.47 346.56 555.03 346.01 547.92 343.81 541.15 340.68 535.52 335.84 530.19 330.81"/><polyline class="b" points="529.72 330.68 524.49 335.85 517.98 339.26 511.79 343.23 504.8 345.48 497.44 345.6 490.05 346.04 482.74 344.28 476.14 340.69 471.05 335.21 465.23 330.74"/><polyline class="b" points="464.62 330.65 459.66 336.08 453.25 339.71 447.06 343.91 439.71 345.18 432.44 345.48 425.18 345.24 417.85 344.04 411.24 340.55 405.9 335.4 400.15 330.84"/><polyline class="b" points="399.91 330.84 394.89 336.38 388.51 340.18 381.77 343.15 374.58 344.49 367.44 345.69 360.19 345.1 353.05 343.5 346.25 340.55 340.49 335.89 334.81 331.18"/><polyline class="b" points="335.25 331.3 329.43 335.76 323.67 340.44 316.75 343.03 309.68 344.89 302.44 345.77 295.13 345.49 288.23 343.03 281.51 340.12 275.29 336.15 269.76 331.26"/><polyline class="b" points="270.18 331.18 264.35 335.68 258.73 340.55 251.95 343.59 244.72 345.14 237.45 346.15 230.17 345.27 223.18 343.15 216.71 339.8 210.61 335.75 204.9 331.1"/><polyline class="b" points="205.36 331.37 199.55 335.94 193.26 339.73 186.68 342.9 179.71 345.11 172.45 346.19 165.21 345.07 158.19 343.12 151.57 340.02 145.98 335.29 140.07 330.94"/><polyline class="b" points="140.57 211.48 145.27 217.17 151.55 221.09 158.1 224.46 165.25 226.31 172.55 227.22 179.97 226.98 186.96 224.49 193.55 221.21 199.68 217.11 205.08 212.11"/><polyline class="b" points="205.55 211.47 210.25 217.19 216.9 220.44 223.33 223.9 230.2 226.56 237.55 227.31 244.95 226.85 251.68 223.78 258.78 221.61 264.67 217.09 270.23 212.22"/><polyline class="b" points="270.25 211.74 275.32 217.09 281.64 220.88 288.25 224.07 295.14 226.82 302.55 227.09 309.84 226.31 316.83 224.17 323.58 221.29 330.06 217.6 335.29 212.29"/><polyline class="b" points="334.71 212.26 340.25 217.19 346.5 221.15 353.17 224.28 360.24 226.36 367.56 226.66 374.83 226.24 381.93 224.44 388.53 221.17 394.81 217.28 400.27 212.27"/><polyline class="b" points="399.58 212.46 405.35 217.07 411.72 220.75 418.04 224.61 425.34 225.85 432.57 226.75 439.91 226.71 446.93 224.44 453.73 221.53 459.86 217.33 465.62 212.65"/><polyline class="b" points="464.89 212.13 470.47 216.91 476.89 220.47 482.93 224.87 490.29 226.06 497.55 227.12 504.92 226.73 511.88 224.29 518.32 220.83 524.85 217.34 530.2 212.22"/><polyline class="b" points="529.71 212.25 535.72 216.58 541.95 220.36 548.25 224.03 555.13 226.88 562.55 226.88 569.9 226.69 576.99 224.6 583.14 220.59 589.29 216.62 594.94 211.91"/><polyline class="b" points="594.79 212.2 600.47 216.93 606.63 220.9 613.31 223.9 620.15 226.8 627.55 226.98 634.86 226.39 641.92 224.45 648.53 221.18 654.13 216.44 659.85 211.85"/><polyline class="b" points="659.94 212.03 665.26 217.21 671.62 220.94 678.24 224.07 685.17 226.69 692.55 227.57 699.88 226.53 706.75 223.96 713.81 221.64 719.14 216.44 724.92 211.86"/><polyline class="b" points="661.04 390.99 655.25 395.55 649.51 400.17 642.73 403.01 635.7 405.17 628.45 406.19 621.14 405.45 614 403.61 607.63 399.93 601.31 396.12 596.11 390.88"/><polyline class="b" points="596.47 391.46 590.38 395.7 584.57 400.27 577.73 402.97 570.76 405.32 563.46 406.94 556.13 405.47 548.88 403.92 542.54 400.07 536.59 395.77 531.13 390.87"/><polyline class="b" points="531.26 391.32 525.54 395.93 519.42 400.01 512.84 403.3 505.7 405.12 498.45 407.01 491.27 404.81 484.04 403.57 477.35 400.36 471.4 396.01 466.2 390.8"/><polyline class="b" points="465.79 390.81 460.64 396.06 454.13 399.48 447.75 403.09 440.83 405.7 433.44 406.21 426.16 405.24 419.07 403.43 412.14 400.72 406.38 396.03 401.25 390.74"/><polyline class="b" points="401.22 391.12 395.45 395.81 389.38 399.95 382.93 403.53 375.75 405.28 368.44 406.06 361.06 405.85 353.92 403.82 347.29 400.48 341.32 396.11 335.83 391.14"/><polyline class="b" points="336.62 391.65 330.29 395.58 324.49 400.13 317.9 403.44 310.75 405.32 303.46 406.7 296.01 406.04 289.11 403.3 282.66 399.88 276.17 396.3 270.98 390.99"/><polyline class="b" points="271.23 391.23 265.87 396.34 259.43 400.03 252.72 403.01 245.87 405.81 238.45 406.71 231.14 405.37 224.24 402.95 217.69 399.82 211.62 395.74 205.94 390.94"/><polyline class="b" points="205.69 390.71 200.95 396.42 194.44 400.03 187.71 402.98 180.85 405.76 173.45 406.71 166.2 405.22 159.29 402.85 152.25 400.55 147 395.26 140.5 391.6"/><polyline class="b" points="140.46 390.48 135.7 396.11 129.64 400.39 122.69 402.91 115.83 405.62 108.45 406.72 101.17 405.28 94.14 403.2 87.27 400.52 81.64 395.73 75.98 391.01"/><polygon class="a" points="321.54 130.33 319.56 137.35 316.74 144.06 314.11 150.84 311.06 157.45 308.83 164.39 305.95 171.07 302.59 177.56 300.32 184.48 297.76 191.28 295.09 198.04 292.62 204.89 289.18 211.34 286.94 218.27 284.15 224.99 281.26 231.66 278.24 238.29 275.56 245.05 273.04 251.87 270.3 258.61 267.42 265.29 265.11 272.2 262.55 279.01 259.54 285.64 257.12 292.51 254.7 299.37 251.37 305.87 248.69 312.64 245.74 319.29 243.86 326.38 240.34 332.8 238.31 339.82 235.2 346.42 232.25 353.07 230.35 360.15 227.42 366.82 224.28 373.65 231.68 373.6 238.85 373.06 246.02 373.27 253.2 373.79 260.37 373.36 267.55 373.86 274.72 373.99 281.9 373.44 289.07 373.01 296.24 373.18 303.41 373.87 310.58 373.46 317.75 373.64 324.93 373.25 332.1 373.44 339.27 373.03 346.45 373.55 353.62 373.38 360.8 373.92 367.97 373.95 375.15 373.82 382.32 373.72 389.5 373.07 396.68 373.7 403.85 373.72 411.03 373.7 418.21 373.94 425.39 373.48 432.56 373.1 439.74 373.31 446.91 373.92 454.09 373.23 461.27 373.04 468.45 373.83 475.63 373.66 482.81 373.91 489.73 373.1 493.19 366.93 495.14 359.86 498.61 353.4 501.17 346.57 503.52 339.67 506.5 333.01 509.54 326.38 512.09 319.55 514.66 312.74 517.32 305.95 520.46 299.36 522.57 292.36 525.96 285.87 528.07 278.86 531.63 272.45 533.76 265.45 536.46 258.68 539.09 251.88 541.95 245.17 544.62 238.39 547.39 231.65 550.16 224.91 553.66 218.46 556.15 211.6 558.62 204.74 561.9 198.2 563.89 191.14 567.21 184.62 569.9 177.85 572.18 170.9 575.54 164.4 578 157.53 580.55 150.7 583.6 144.06 585.96 137.15 589.33 130.51 581.78 130.32 574.56 129.81 567.33 130.35 560.12 129.43 552.88 130.25 545.68 129.34 538.45 129.37 531.22 129.52 524 128.94 516.78 129.18 509.55 129.07 502.33 129.09 495.11 128.41 487.87 129.17 480.65 128.75 473.43 128.79 466.21 127.97 458.98 128.78 451.76 127.78 444.53 128.56 437.3 128.03 430.07 128.18 422.84 128.03 415.61 128.4 408.38 128.11 401.16 127.83 393.93 127.49 386.71 127.85 379.48 127.82 372.25 127.47 365.03 128.31 357.8 127.68 350.58 128.25 343.37 128.84 336.15 129.03 328.94 129.19 321.54 130.33"/><polygon class="c" points="321.54 130.33 319.56 137.35 316.74 144.06 314.11 150.84 311.06 157.45 308.83 164.39 305.95 171.07 302.59 177.56 300.32 184.48 297.76 191.28 295.09 198.04 292.62 204.89 289.18 211.34 286.94 218.27 284.15 224.99 281.26 231.66 278.24 238.29 275.56 245.05 273.04 251.87 270.3 258.61 267.42 265.29 265.11 272.2 262.55 279.01 259.54 285.64 257.12 292.51 254.7 299.37 251.37 305.87 248.69 312.64 245.74 319.29 243.86 326.38 240.34 332.8 238.31 339.82 235.2 346.42 232.25 353.07 230.35 360.15 227.42 366.82 224.28 373.65 231.68 373.6 238.85 373.06 246.02 373.27 253.2 373.79 260.37 373.36 267.55 373.86 274.72 373.99 281.9 373.44 289.07 373.01 296.24 373.18 303.41 373.87 310.58 373.46 317.75 373.64 324.93 373.25 332.1 373.44 339.27 373.03 346.45 373.55 353.62 373.38 360.8 373.92 367.97 373.95 375.15 373.82 382.32 373.72 389.5 373.07 396.68 373.7 403.85 373.72 411.03 373.7 418.21 373.94 425.39 373.48 432.56 373.1 439.74 373.31 446.91 373.92 454.09 373.23 461.27 373.04 468.45 373.83 475.63 373.66 482.81 373.91 489.73 373.1 493.19 366.93 495.14 359.86 498.61 353.4 501.17 346.57 503.52 339.67 506.5 333.01 509.54 326.38 512.09 319.55 514.66 312.74 517.32 305.95 520.46 299.36 522.57 292.36 525.96 285.87 528.07 278.86 531.63 272.45 533.76 265.45 536.46 258.68 539.09 251.88 541.95 245.17 544.62 238.39 547.39 231.65 550.16 224.91 553.66 218.46 556.15 211.6 558.62 204.74 561.9 198.2 563.89 191.14 567.21 184.62 569.9 177.85 572.18 170.9 575.54 164.4 578 157.53 580.55 150.7 583.6 144.06 585.96 137.15 589.33 130.51 581.78 130.32 574.56 129.81 567.33 130.35 560.12 129.43 552.88 130.25 545.68 129.34 538.45 129.37 531.22 129.52 524 128.94 516.78 129.18 509.55 129.07 502.33 129.09 495.11 128.41 487.87 129.17 480.65 128.75 473.43 128.79 466.21 127.97 458.98 128.78 451.76 127.78 444.53 128.56 437.3 128.03 430.07 128.18 422.84 128.03 415.61 128.4 408.38 128.11 401.16 127.83 393.93 127.49 386.71 127.85 379.48 127.82 372.25 127.47 365.03 128.31 357.8 127.68 350.58 128.25 343.37 128.84 336.15 129.03 328.94 129.19 321.54 130.33"/><polygon class="a" points="287.9 130.46 285.55 137.35 282.13 143.81 279.9 150.75 276.79 157.34 274.81 164.38 272.12 171.14 269.03 177.73 266.01 184.35 263.58 191.21 260.97 198 257.83 204.57 255.36 211.41 253.01 218.3 249.78 224.84 247.5 231.76 244.72 238.48 242.22 245.31 239.49 252.05 236.98 258.88 234.29 265.64 230.91 272.12 228.84 279.12 225.42 285.59 223.06 292.48 219.85 299.03 217.16 305.79 215.31 312.89 211.84 319.33 209.82 326.36 206.58 332.9 203.63 339.55 201.22 346.43 198.29 353.09 195.9 359.97 192.84 366.59 190.65 373.4 197.68 373.59 204.85 373.66 212.02 373.93 219.2 373 226.37 373.63 233.55 373.78 240.72 373.35 247.9 373.84 255.07 373.3 262.24 373.5 269.41 373.33 276.58 373.69 283.75 373.94 290.93 373.27 298.1 373.73 305.27 373.8 312.45 373.55 319.62 373.38 326.8 373.49 333.97 373.12 341.15 373.52 348.32 373.46 355.5 373.7 362.68 373.4 369.85 373.81 377.03 373.48 384.21 373.61 391.39 373.65 398.56 373.16 405.74 373.27 412.91 373.81 420.09 373.96 427.27 373.7 434.45 373.78 441.63 373.77 448.81 373.53 456.03 373.54 458.34 366.59 461.95 360.19 464.33 353.29 467.22 346.6 469.43 339.63 472.86 333.16 475.04 326.18 477.58 319.35 481.14 312.93 483.84 306.17 485.96 299.16 488.62 292.38 492.14 285.95 494.45 279.02 497.16 272.25 499.82 265.47 502.69 258.77 505.05 251.86 508.68 245.47 510.63 238.4 513.95 231.88 516.19 224.92 519.27 218.3 522.27 211.65 524.91 204.86 527.04 197.85 529.9 191.15 533.2 184.62 535.99 177.88 538.52 171.04 541.54 164.4 543.61 157.37 546.93 150.85 549.4 143.98 551.88 137.11 555.3 130.51 547.78 130.37 540.55 130.51 533.34 129.64 526.11 130.25 518.89 129.91 511.67 129.59 504.44 129.93 497.22 129.56 490 129.26 482.77 129.43 475.55 129.46 468.33 128.85 461.11 128.78 453.88 128.84 446.66 128.23 439.43 128.61 432.2 128.82 424.98 128.54 417.76 127.93 410.53 128.38 403.3 128.02 396.07 127.69 388.84 128.21 381.61 128.22 374.39 127.54 367.16 127.69 359.93 127.42 352.71 127.6 345.48 127.91 338.26 127.8 331.02 127.75 323.8 127.63 316.57 127.72 309.36 128.63 302.12 128.3 294.93 129.05 287.9 130.46"/><polygon class="c" points="287.9 130.46 285.55 137.35 282.13 143.81 279.9 150.75 276.79 157.34 274.81 164.38 272.12 171.14 269.03 177.73 266.01 184.35 263.58 191.21 260.97 198 257.83 204.57 255.36 211.41 253.01 218.3 249.78 224.84 247.5 231.76 244.72 238.48 242.22 245.31 239.49 252.05 236.98 258.88 234.29 265.64 230.91 272.12 228.84 279.12 225.42 285.59 223.06 292.48 219.85 299.03 217.16 305.79 215.31 312.89 211.84 319.33 209.82 326.36 206.58 332.9 203.63 339.55 201.22 346.43 198.29 353.09 195.9 359.97 192.84 366.59 190.65 373.4 197.68 373.59 204.85 373.66 212.02 373.93 219.2 373 226.37 373.63 233.55 373.78 240.72 373.35 247.9 373.84 255.07 373.3 262.24 373.5 269.41 373.33 276.58 373.69 283.75 373.94 290.93 373.27 298.1 373.73 305.27 373.8 312.45 373.55 319.62 373.38 326.8 373.49 333.97 373.12 341.15 373.52 348.32 373.46 355.5 373.7 362.68 373.4 369.85 373.81 377.03 373.48 384.21 373.61 391.39 373.65 398.56 373.16 405.74 373.27 412.91 373.81 420.09 373.96 427.27 373.7 434.45 373.78 441.63 373.77 448.81 373.53 456.03 373.54 458.34 366.59 461.95 360.19 464.33 353.29 467.22 346.6 469.43 339.63 472.86 333.16 475.04 326.18 477.58 319.35 481.14 312.93 483.84 306.17 485.96 299.16 488.62 292.38 492.14 285.95 494.45 279.02 497.16 272.25 499.82 265.47 502.69 258.77 505.05 251.86 508.68 245.47 510.63 238.4 513.95 231.88 516.19 224.92 519.27 218.3 522.27 211.65 524.91 204.86 527.04 197.85 529.9 191.15 533.2 184.62 535.99 177.88 538.52 171.04 541.54 164.4 543.61 157.37 546.93 150.85 549.4 143.98 551.88 137.11 555.3 130.51 547.78 130.37 540.55 130.51 533.34 129.64 526.11 130.25 518.89 129.91 511.67 129.59 504.44 129.93 497.22 129.56 490 129.26 482.77 129.43 475.55 129.46 468.33 128.85 461.11 128.78 453.88 128.84 446.66 128.23 439.43 128.61 432.2 128.82 424.98 128.54 417.76 127.93 410.53 128.38 403.3 128.02 396.07 127.69 388.84 128.21 381.61 128.22 374.39 127.54 367.16 127.69 359.93 127.42 352.71 127.6 345.48 127.91 338.26 127.8 331.02 127.75 323.8 127.63 316.57 127.72 309.36 128.63 302.12 128.3 294.93 129.05 287.9 130.46"/><polygon class="a" points="306.19 127.57 303 134.13 300.57 140.99 297.46 147.58 294.72 154.31 292.55 161.28 289.91 168.05 287.1 174.76 283.99 181.35 282.07 188.4 278.87 194.95 276.68 201.91 273.3 208.38 270.9 215.26 267.83 221.86 265.7 228.84 262.75 235.49 260.09 242.26 257.19 248.93 254.26 255.59 252.08 262.55 249.04 269.17 246.12 275.83 243.38 282.57 241.11 289.5 238 296.09 235.4 302.89 232.95 309.74 230.05 316.42 227.56 323.26 225.15 330.13 221.73 336.59 219.42 343.51 217.06 350.4 214.07 357.04 211.57 363.88 208.55 370.47 215.68 370.2 222.85 370.44 230.02 370.09 237.2 370.72 244.37 370.07 251.55 370.83 258.72 370.03 265.9 370.39 273.07 370.69 280.24 370.52 287.41 370.86 294.58 370.1 301.75 370.07 308.93 370.57 316.1 370.72 323.27 370.45 330.45 370.92 337.62 370.45 344.8 370.14 351.97 370.14 359.15 370.79 366.32 370.53 373.5 370.48 380.68 370.31 387.85 370.25 395.03 370.05 402.21 370.9 409.39 370.86 416.56 370.98 423.74 370.05 430.91 370.58 438.09 370.13 445.27 370.22 452.45 370.33 459.63 370.34 466.81 370.71 474.1 370.65 476.4 363.61 479.45 356.98 482.53 350.37 484.74 343.4 487.71 336.74 490.84 330.15 493.69 323.44 495.87 316.46 499.18 309.95 501.56 303.05 504.28 296.29 506.64 289.39 509.31 282.61 512.14 275.89 515.3 269.31 518.45 262.73 520.31 255.62 523.45 249.02 526.47 242.39 529.22 235.63 531.95 228.88 534.7 222.13 536.84 215.13 540.33 208.68 542.58 201.72 545.34 194.97 548.18 188.26 550.68 181.41 553.64 174.74 556.94 168.21 559.12 161.23 561.95 154.51 564.44 147.65 567.75 141.13 570.58 134.39 573.43 127.51 565.78 127.43 558.55 127.27 551.33 127.12 544.12 126.41 536.89 126.98 529.67 126.91 522.45 126.41 515.22 126.69 508 126.22 500.77 126.36 493.56 125.88 486.32 126.33 479.1 126 471.88 125.89 464.65 126.05 457.43 125.38 450.21 124.91 442.99 125.11 435.76 125.35 428.54 124.68 421.3 125.06 414.07 125.42 406.84 125.32 399.61 125.18 392.38 125.27 385.16 125.3 377.93 125.25 370.71 124.35 363.48 125.04 356.26 125.09 349.02 124.73 341.81 125.31 334.58 125.45 327.34 124.92 320.13 125.5 312.92 125.96 306.19 127.57"/><polygon class="b" points="306.19 127.57 303 134.13 300.57 140.99 297.46 147.58 294.72 154.31 292.55 161.28 289.91 168.05 287.1 174.76 283.99 181.35 282.07 188.4 278.87 194.95 276.68 201.91 273.3 208.38 270.9 215.26 267.83 221.86 265.7 228.84 262.75 235.49 260.09 242.26 257.19 248.93 254.26 255.59 252.08 262.55 249.04 269.17 246.12 275.83 243.38 282.57 241.11 289.5 238 296.09 235.4 302.89 232.95 309.74 230.05 316.42 227.56 323.26 225.15 330.13 221.73 336.59 219.42 343.51 217.06 350.4 214.07 357.04 211.57 363.88 208.55 370.47 215.68 370.2 222.85 370.44 230.02 370.09 237.2 370.72 244.37 370.07 251.55 370.83 258.72 370.03 265.9 370.39 273.07 370.69 280.24 370.52 287.41 370.86 294.58 370.1 301.75 370.07 308.93 370.57 316.1 370.72 323.27 370.45 330.45 370.92 337.62 370.45 344.8 370.14 351.97 370.14 359.15 370.79 366.32 370.53 373.5 370.48 380.68 370.31 387.85 370.25 395.03 370.05 402.21 370.9 409.39 370.86 416.56 370.98 423.74 370.05 430.91 370.58 438.09 370.13 445.27 370.22 452.45 370.33 459.63 370.34 466.81 370.71 474.1 370.65 476.4 363.61 479.45 356.98 482.53 350.37 484.74 343.4 487.71 336.74 490.84 330.15 493.69 323.44 495.87 316.46 499.18 309.95 501.56 303.05 504.28 296.29 506.64 289.39 509.31 282.61 512.14 275.89 515.3 269.31 518.45 262.73 520.31 255.62 523.45 249.02 526.47 242.39 529.22 235.63 531.95 228.88 534.7 222.13 536.84 215.13 540.33 208.68 542.58 201.72 545.34 194.97 548.18 188.26 550.68 181.41 553.64 174.74 556.94 168.21 559.12 161.23 561.95 154.51 564.44 147.65 567.75 141.13 570.58 134.39 573.43 127.51 565.78 127.43 558.55 127.27 551.33 127.12 544.12 126.41 536.89 126.98 529.67 126.91 522.45 126.41 515.22 126.69 508 126.22 500.77 126.36 493.56 125.88 486.32 126.33 479.1 126 471.88 125.89 464.65 126.05 457.43 125.38 450.21 124.91 442.99 125.11 435.76 125.35 428.54 124.68 421.3 125.06 414.07 125.42 406.84 125.32 399.61 125.18 392.38 125.27 385.16 125.3 377.93 125.25 370.71 124.35 363.48 125.04 356.26 125.09 349.02 124.73 341.81 125.31 334.58 125.45 327.34 124.92 320.13 125.5 312.92 125.96 306.19 127.57"/><polyline class="a" points="306.29 127.31 309.98 132.97 313.51 138.74 317.54 144.17 321.28 149.8 325.11 155.37 328.1 161.51 332.57 166.66 336.04 172.47"/><polyline class="b" points="306.29 127.31 309.98 132.97 313.51 138.74 317.54 144.17 321.28 149.8 325.11 155.37 328.1 161.51 332.57 166.66 336.04 172.47"/><polyline points="474 370.79 466.77 370.83 459.54 370.75 452.32 370.65 445.09 370.94 437.86 370.51 430.64 371.02 423.41 370.92 416.18 370.91 408.95 370.83 401.72 370.93 394.49 371 387.26 371 380.03 370.66 372.8 370.82 365.57 370.66 358.34 370.31 351.11 370.86 343.87 370.72 336.64 371.28 329.41 370.8 322.18 371.26 314.95 370.51 307.71 371.18 300.48 370.93 293.25 370.79 286.01 370.46 278.78 370.75 271.54 371.11 264.31 371.47 256.67 371.27 259.93 364.48 262.02 357.65 265.34 351.32 267.78 344.63 270.02 337.86 272.84 331.32 275.39 324.68 278.2 318.13 280.43 311.36 283.75 305.02 285.53 298.06 288.59 291.62 291.64 285.17 294.08 278.48 296.1 271.62 298.82 265.04 301.82 258.57 303.97 251.76 306.62 245.15 309.55 238.65 312.71 232.25 314.84 225.43 317.74 218.92 320.42 212.32 322.47 205.47 325.9 199.17 327.85 192.28 330.53 185.68 332.91 178.94 335.92 172.37 343.3 172.11 350.6 172 357.89 172.17 365.19 172.24 372.49 172.25 379.78 172.5 387.08 172.83 394.38 172.91 401.67 172.05 408.97 172.44 416.27 172.82 423.57 172.71 430.86 172.6 438.16 172.74 445.46 172.84 452.76 172.49 460.06 172.92 467.37 172.19 474.67 172.54 481.97 172.34 489.27 172.85 496.57 172.6 503.87 172.79 511.17 172.41 518.47 172.51 525.77 172.07 533.08 172.76 540.38 172.22 547.69 172.71 555 172.36"/><polyline class="b" points="474 370.79 466.77 370.83 459.54 370.75 452.32 370.65 445.09 370.94 437.86 370.51 430.64 371.02 423.41 370.92 416.18 370.91 408.95 370.83 401.72 370.68 394.49 370.5 387.26 370.5 380.03 370.41 372.8 370.69 365.57 370.6 358.34 370.27 351.11 370.85 343.87 370.71 336.64 371.27 329.41 370.8 322.18 371.26 314.95 370.51 307.71 371.18 300.48 370.93 293.25 370.79 286.01 370.46 278.78 370.75 271.54 371.11 264.31 371.47 256.67 371.27 259.93 364.48 262.02 357.65 265.34 351.32 267.78 344.63 270.02 337.86 272.84 331.32 275.39 324.68 278.2 318.13 280.43 311.36 283.75 305.02 285.53 298.06 288.59 291.62 291.64 285.17 294.08 278.48 296.1 271.62 298.82 265.04 301.82 258.57 303.97 251.76 306.62 245.15 309.55 238.65 312.71 232.25 314.84 225.43 317.74 218.92 320.42 212.32 322.47 205.47 325.9 199.17 327.85 192.28 330.53 185.68 332.91 178.94 335.92 172.37 343.3 172.11 350.6 172 357.89 172.17 365.19 172.24 372.49 172.25 379.78 172.5 387.08 172.83 394.38 172.91 401.67 172.05 408.97 172.44 416.27 172.82 423.57 172.71 430.86 172.6 438.16 172.74 445.46 172.84 452.76 172.49 460.06 172.92 467.37 172.19 474.67 172.54 481.97 172.34 489.27 172.85 496.57 172.6 503.87 172.79 511.17 172.41 518.47 172.51 525.77 172.07 533.08 172.76 540.38 172.22 547.69 172.71 555 172.36"/><polygon class="b" points="131.98 557.92 139.14 558.37 146.13 559.63 153.2 560.08 160.23 561.06 167.32 561.18 174.42 561.13 181.47 562.05 188.56 562 195.61 562.85 202.71 562.56 209.78 562.97 216.87 563.04 223.95 563.53 231.03 562.77 238.12 563.37 245.2 562.93 252.28 562.61 259.39 562.87 266.44 561.96 273.49 561.23 280.56 560.7 287.66 560.54 294.76 560.3 301.75 559.03 308.77 558.04 316.1 557.34 323.43 556.94 330.78 556.74 337.89 558.32 343.74 562.01 345.42 568.8 342.97 575.72 339.37 582.11 335.76 588.5 332.31 595.02 327.8 600.89 324.15 607.29 321.67 614.25 319.09 621.11 319.84 628.3 316.94 634.42 309.81 635.8 302.63 635.14 295.48 634.75 288.33 634.16 281.31 632.55 274.22 631.54 267.13 630.51 260.03 629.48 252.96 628.31 245.84 627.41 238.76 626.22 231.63 625.42 224.5 624.62 217.32 624.31 210.21 623.16 203 623.73 195.85 622.82 188.69 623.53 181.52 623.72 174.38 624.36 167.38 625.94 160.73 628.56 154.56 632.03 149.33 636.77 144.17 641.84 138.33 645.99 131.36 647.55 124.48 645.16 119.68 639.63 116.67 633.02 114.27 626.16 113.86 618.9 113.1 611.71 114.13 604.54 114.58 597.33 115.72 590.16 117.94 583.25 121.44 576.87 124.13 570.17 128.29 564.25 131.98 557.92"/><polyline class="b" points="343.28 562.69 350.5 562.84 357.68 563.49 364.88 563.88 372.09 564.09 379.29 564.4 386.5 564.74 393.72 564.58 400.92 565.03 408.13 565.18 415.35 565.1 422.55 565.97 429.76 565.9 436.98 565.59 444.19 566.23 451.4 566.15 458.61 566.64 465.83 566.38 473.04 566.07 480.25 565.83 487.47 566.52 494.68 566.31 501.89 566.18 509.11 566.38 516.31 565.73 523.52 565.65 530.75 565.8 537.94 564.94 545.14 564.55 552.35 564.27 559.59 564.56 566.77 563.83 573.94 562.86 581.21 563.34 588.33 561.84 595.52 561.3 602.73 560.82 609.92 560.23 617.12 559.66 624.28 558.76 631.47 558.09 638.57 556.76 645.79 556.3 652.82 554.56 660.01 553.82 667.07 552.28 674.21 551.17 681.18 549.28 688.16 547.5 688.12 554.86 686.83 562.15 683.46 568.75 679.99 575.26 675.33 581.01 670.53 586.69 664.43 590.97 658.85 595.92 652.07 599.09 646 595.51 640.48 590.24 634.1 587.02 633.75 593.87 634.74 601.3 634.14 608.57 627.41 610.67 620.66 609.68 613.4 608.67 608.09 614.33 602.18 618.95 595.16 620.86 587.99 622.14 580.93 623.9 573.75 625.05 566.63 626.6 559.45 627.81 552.26 628.89 545.01 629.64 537.83 630.89 530.56 631.42 523.31 632.07 516.05 632.63 508.8 633.21 501.55 634.02 494.27 634.15 487.01 634.9 479.75 635.33 472.46 635.27 465.19 635.77 457.91 635.67 450.63 635.95 443.34 636.42 436.06 635.8 428.77 636.54 421.49 636.34 414.21 636.17 406.93 635.87 399.65 635.79 392.36 635.81 385.09 635.38 377.81 634.99 370.51 635.04 363.25 634.41 356 633.61 348.72 633.25 341.45 632.71 334.14 632.87 326.85 632.64 319.62 631.42"/><polyline class="b" points="323.36 612.8 330.4 613.64 337.46 614.41 344.58 614.21 351.63 615.1 358.72 615.09 365.79 615.59 372.84 616.52 379.95 616.15 387.01 617.1 394.1 617.3 401.19 617.2 408.27 617.78 415.36 618.01 422.45 618.18 429.54 617.99 436.64 617.82 443.73 618.05 450.83 618.54 457.91 617.64 465.02 618.11 472.11 617.68 479.17 616.97 486.25 616.52 493.37 616.7 500.43 615.91 507.43 614.62 514.46 613.8 521.43 612.54"/><polygon points="148.81 559.6 145.8 566.22 142.52 572.61 139.93 579.31 137.15 585.93 135.12 592.82 132.13 599.38 129.99 606.25 128.41 613.28 126.98 620.34 127.05 627.56 126.41 634.76 128.73 641.6 132.77 647.77 138.84 642.57 144.45 636.95 150.48 631.81 156.34 626.31 164.1 624.66 171.72 622.86 179.54 622 187.18 620.26 194.73 618.4 201.78 619.01 208.89 619.6 215.82 621.44 222.94 621.98 229.96 623.2 237.09 623.6 244.1 624.97 251.14 626.02 258.16 627.21 265.27 627.85 272.33 628.73 279.36 629.88 286.39 631.08 293.46 631.93 300.5 633.03 307.64 633.47 314.9 635.09 316.3 626.77 317.93 618.75 319.8 610.82 323.12 604.13 327.23 597.85 330.93 591.33 334 584.46 337.75 577.97 341.84 571.66 345.35 565.11 337.92 562.64 330.62 559.64 323.38 556.36 316.33 556.56 309.35 557.21 302.38 558.05 295.35 557.75 288.37 558.44 281.35 558.29 274.4 559.63 267.4 559.84 260.39 559.97 253.37 559.83 246.42 561.06 239.39 560.83 232.39 561.08 225.4 561.42 218.44 562.6 211.4 562.31 204.4 562.36 197.45 562.7 190.54 561.62 183.57 561.84 176.62 561.62 169.69 561.06 162.73 560.82 155.77 560.49 148.81 559.6"/></svg>