<svg xmlns="http://www.w3.org/2000/svg" viewBox="0 0 800 800"><defs><style>.a,.c{fill:none;stroke-linejoin:bevel;}.a{stroke:#fff;stroke-width:7px;}.b{fill:#fff;}.c{stroke:#000;stroke-width:13px;}</style></defs><title>canvas (46-b)</title><polygon points="311.79 232.42 304.19 232.56 296.88 232.43 289.56 231.92 282.25 232.19 274.93 232.59 267.62 232.24 260.3 232.04 252.99 232.4 245.67 232.1 238.36 231.78 231.04 232.03 223.73 231.84 216.41 232.19 209.1 232.35 201.78 231.7 194.46 232.31 187.15 232.21 179.82 232.48 172.69 231.94 172.82 224.81 172.5 217.5 172.9 210.19 172.21 202.87 172.89 195.56 172.44 188.24 172.13 180.93 172.21 173.61 172.48 166.3 172.87 158.98 172.96 151.67 172.44 144.35 172.9 137.04 172.87 129.72 172.39 122.41 172.45 115.09 172.4 107.77 172.01 100.45 172.62 93.25 179.81 93.59 187.13 92.92 194.44 93.23 201.75 93.28 209.07 93.21 216.38 92.72 223.7 93.61 231.01 92.78 238.33 93.43 245.64 93.28 252.96 93.34 260.27 92.73 267.59 93.37 274.9 93.46 282.22 93.24 289.54 93.39 296.86 92.87 304.18 93.12 311.67 92.95 311.38 100.44 311.07 107.75 311.48 115.06 311.94 122.38 311.73 129.69 311.16 137.01 311.4 144.32 311.49 151.64 311.06 158.95 311.81 166.27 311.57 173.58 311.32 180.9 311.07 188.21 311.14 195.53 311.83 202.84 311.43 210.16 311.37 217.48 311.77 224.8 311.79 232.42"/><polygon class="a" points="311.79 232.42 304.19 232.56 296.88 232.43 289.56 231.92 282.25 232.19 274.93 232.59 267.62 232.24 260.3 232.04 252.99 232.4 245.67 232.1 238.36 231.78 231.04 232.03 223.73 231.84 216.41 232.19 209.1 232.35 201.78 231.7 194.46 232.31 187.15 232.21 179.82 232.48 172.69 231.94 172.82 224.81 172.5 217.5 172.9 210.19 172.21 202.87 172.89 195.56 172.44 188.24 172.13 180.93 172.21 173.61 172.48 166.3 172.87 158.98 172.96 151.67 172.44 144.35 172.9 137.04 172.87 129.72 172.39 122.41 172.45 115.09 172.4 107.77 172.01 100.45 172.62 93.25 179.81 93.59 187.13 92.92 194.44 93.23 201.75 93.28 209.07 93.21 216.38 92.72 223.7 93.61 231.01 92.78 238.33 93.43 245.64 93.28 252.96 93.34 260.27 92.73 267.59 93.37 274.9 93.46 282.22 93.24 289.54 93.39 296.86 92.87 304.18 93.12 311.67 92.95 311.38 100.44 311.07 107.75 311.48 115.06 311.94 122.38 311.73 129.69 311.16 137.01 311.4 144.32 311.49 151.64 311.06 158.95 311.81 166.27 311.57 173.58 311.32 180.9 311.07 188.21 311.14 195.53 311.83 202.84 311.43 210.16 311.37 217.48 311.77 224.8 311.79 232.42"/><polygon points="260.41 63.44 253.19 63.35 245.88 62.63 238.56 62.69 231.25 63.27 223.93 62.99 216.62 62.88 209.3 62.65 201.99 63.48 194.67 63.19 187.36 63.37 180.04 63.34 172.73 62.74 165.41 62.64 158.1 63.57 150.78 63.07 143.46 63.07 136.15 62.86 128.82 63.09 121.46 63.12 128.04 66.58 134.14 70.8 140.82 74.03 147.1 77.93 153.31 81.96 159.87 85.39 166.06 89.47 172.53 93 179.81 92.75 187.13 93.6 194.44 93.37 201.75 93.37 209.07 92.76 216.38 92.97 223.7 93.53 231.01 92.86 238.33 93.27 245.64 92.64 252.96 93.33 260.27 92.97 267.59 93.59 274.9 93.13 282.22 92.99 289.54 93.13 296.86 93.51 304.18 93.35 311.97 93.24 304.95 89.68 298.59 85.91 292.59 81.53 285.94 78.24 279.4 74.79 273.23 70.69 266.97 66.72 260.41 63.44"/><polygon class="a" points="260.41 63.44 253.19 63.35 245.88 62.63 238.56 62.69 231.25 63.27 223.93 62.99 216.62 62.88 209.3 62.65 201.99 63.48 194.67 63.19 187.36 63.37 180.04 63.34 172.73 62.74 165.41 62.64 158.1 63.57 150.78 63.07 143.46 63.07 136.15 62.86 128.82 63.09 121.46 63.12 128.04 66.58 134.14 70.8 140.82 74.03 147.1 77.93 153.31 81.96 159.87 85.39 166.06 89.47 172.53 93 179.81 92.75 187.13 93.6 194.44 93.37 201.75 93.37 209.07 92.76 216.38 92.97 223.7 93.53 231.01 92.86 238.33 93.27 245.64 92.64 252.96 93.33 260.27 92.97 267.59 93.59 274.9 93.13 282.22 92.99 289.54 93.13 296.86 93.51 304.18 93.35 311.97 93.24 304.95 89.68 298.59 85.91 292.59 81.53 285.94 78.24 279.4 74.79 273.23 70.69 266.97 66.72 260.41 63.44"/><polygon points="121.32 202.23 127.92 205.8 134.15 209.78 140.47 213.63 147.17 216.82 153.48 220.67 159.94 224.28 166 228.57 172.39 231.93 172.23 224.81 172.46 217.5 172.77 210.19 172.11 202.87 172.41 195.56 172.78 188.24 172.08 180.93 172.06 173.61 172.97 166.3 172.01 158.98 172.51 151.67 172.61 144.35 172.61 137.04 172.34 129.72 172.14 122.41 172.09 115.09 172.22 107.77 172.72 100.45 172.22 93.29 166.03 89.55 159.69 85.75 153.13 82.3 146.94 78.24 140.78 74.14 134.33 70.51 127.77 67.07 121.72 63.53 121.63 70.44 121.53 77.75 121.22 85.06 121.11 92.38 121.25 99.69 121.47 107.01 121.14 114.32 121.54 121.64 121.18 128.95 121.73 136.27 121.43 143.58 121.3 150.9 121.52 158.21 121.26 165.53 121.84 172.84 121.7 180.16 121.38 187.48 121.76 194.81 121.32 202.23"/><polygon class="a" points="121.32 202.23 127.92 205.8 134.15 209.78 140.47 213.63 147.17 216.82 153.48 220.67 159.94 224.28 166 228.57 172.39 231.93 172.23 224.81 172.46 217.5 172.77 210.19 172.11 202.87 172.41 195.56 172.78 188.24 172.08 180.93 172.06 173.61 172.97 166.3 172.01 158.98 172.51 151.67 172.61 144.35 172.61 137.04 172.34 129.72 172.14 122.41 172.09 115.09 172.22 107.77 172.72 100.45 172.22 93.29 166.03 89.55 159.69 85.75 153.13 82.3 146.94 78.24 140.78 74.14 134.33 70.51 127.77 67.07 121.72 63.53 121.63 70.44 121.53 77.75 121.22 85.06 121.11 92.38 121.25 99.69 121.47 107.01 121.14 114.32 121.54 121.64 121.18 128.95 121.73 136.27 121.43 143.58 121.3 150.9 121.52 158.21 121.26 165.53 121.84 172.84 121.7 180.16 121.38 187.48 121.76 194.81 121.32 202.23"/><polygon points="301.15 263.49 298.59 256.52 296.12 249.51 294.76 242.18 292.73 235.05 289.83 228.17 287.91 221.01 286.29 213.75 284.03 206.68 281.79 199.46 279.49 206.64 277.28 213.72 275.04 220.79 273.51 228.07 271.34 235.17 269.25 242.28 267.53 249.51 264.74 256.43 263.25 263.73 263.38 266.29 268.75 271.89 274.64 276.98 279.72 282.89 283.42 282.43 288.87 276.91 294.66 271.73 300.06 266.14 301.15 263.49"/><polygon class="a" points="301.15 263.49 298.59 256.52 296.12 249.51 294.76 242.18 292.73 235.05 289.83 228.17 287.91 221.01 286.29 213.75 284.03 206.68 281.79 199.46 279.49 206.64 277.28 213.72 275.04 220.79 273.51 228.07 271.34 235.17 269.25 242.28 267.53 249.51 264.74 256.43 263.25 263.73 263.38 266.29 268.75 271.89 274.64 276.98 279.72 282.89 283.42 282.43 288.87 276.91 294.66 271.73 300.06 266.14 301.15 263.49"/><polygon points="237.52 278.51 239.98 271.51 242.22 264.44 244.17 257.29 246.03 250.1 248.15 242.99 250.71 236.02 252.8 228.9 254.38 221.62 256.79 214.84 258.69 221.76 261.22 228.75 263.42 235.83 265.14 243.05 267.09 250.21 269.25 257.3 271.25 264.45 273.36 271.57 275.92 278.56 274.98 281.06 269.47 286.52 264.29 292.33 258.79 297.81 255.02 297.58 249.79 291.84 244.35 286.3 238.57 281.1 237.52 278.51"/><polygon class="a" points="237.52 278.51 239.98 271.51 242.22 264.44 244.17 257.29 246.03 250.1 248.15 242.99 250.71 236.02 252.8 228.9 254.38 221.62 256.79 214.84 258.69 221.76 261.22 228.75 263.42 235.83 265.14 243.05 267.09 250.21 269.25 257.3 271.25 264.45 273.36 271.57 275.92 278.56 274.98 281.06 269.47 286.52 264.29 292.33 258.79 297.81 255.02 297.58 249.79 291.84 244.35 286.3 238.57 281.1 237.52 278.51"/><polygon points="488.72 361.9 495.81 362.34 503.13 362.4 510.44 361.95 517.75 361.77 525.07 361.94 532.38 361.93 539.7 362.42 547.01 361.73 554.33 361.89 561.64 361.81 568.96 362.24 576.27 361.63 583.59 361.93 590.9 362.62 598.22 361.96 605.54 362.43 612.86 362.18 620.18 361.81 627.2 361.82 627.98 354.81 627.36 347.5 627.34 340.19 627.29 332.87 627.99 325.56 627.7 318.24 627.41 310.93 627.81 303.61 627.74 296.3 627.81 288.98 627.07 281.67 627.58 274.35 627.92 267.04 627.49 259.72 627.39 252.41 627.33 245.09 627.28 237.77 627.91 230.45 627.18 223.45 620.19 222.89 612.88 222.91 605.56 223.43 598.25 223.22 590.93 223.54 583.62 223.44 576.3 222.83 568.99 223.14 561.67 223.46 554.36 223.17 547.04 222.87 539.73 223.39 532.41 223.25 525.1 223.03 517.78 222.69 510.46 223.48 503.14 222.92 495.82 223.46 488.58 223.2 488.32 230.44 488.36 237.75 488.8 245.06 488.16 252.38 488.66 259.69 488.37 267.01 488.28 274.32 488.49 281.64 488.91 288.95 488.84 296.27 488.96 303.58 488.77 310.9 488.16 318.21 488.96 325.53 488.46 332.84 488.93 340.16 488.32 347.48 488.94 354.8 488.72 361.9"/><polygon class="a" points="488.72 361.9 495.81 362.34 503.13 362.4 510.44 361.95 517.75 361.77 525.07 361.94 532.38 361.93 539.7 362.42 547.01 361.73 554.33 361.89 561.64 361.81 568.96 362.24 576.27 361.63 583.59 361.93 590.9 362.62 598.22 361.96 605.54 362.43 612.86 362.18 620.18 361.81 627.2 361.82 627.98 354.81 627.36 347.5 627.34 340.19 627.29 332.87 627.99 325.56 627.7 318.24 627.41 310.93 627.81 303.61 627.74 296.3 627.81 288.98 627.07 281.67 627.58 274.35 627.92 267.04 627.49 259.72 627.39 252.41 627.33 245.09 627.28 237.77 627.91 230.45 627.18 223.45 620.19 222.89 612.88 222.91 605.56 223.43 598.25 223.22 590.93 223.54 583.62 223.44 576.3 222.83 568.99 223.14 561.67 223.46 554.36 223.17 547.04 222.87 539.73 223.39 532.41 223.25 525.1 223.03 517.78 222.69 510.46 223.48 503.14 222.92 495.82 223.46 488.58 223.2 488.32 230.44 488.36 237.75 488.8 245.06 488.16 252.38 488.66 259.69 488.37 267.01 488.28 274.32 488.49 281.64 488.91 288.95 488.84 296.27 488.96 303.58 488.77 310.9 488.16 318.21 488.96 325.53 488.46 332.84 488.93 340.16 488.32 347.48 488.94 354.8 488.72 361.9"/><polygon points="539.57 193.36 546.81 192.65 554.13 192.94 561.44 192.64 568.75 193.46 576.07 192.79 583.38 193.4 590.7 192.85 598.01 193.04 605.33 193.54 612.64 192.89 619.96 193.17 627.27 192.91 634.59 193.39 641.9 193.3 649.22 192.76 656.54 192.84 663.86 193 671.18 193.62 678.23 193.19 672.15 196.9 665.98 201.01 659.56 204.67 653.23 208.5 646.71 211.99 640.27 215.64 633.97 219.52 627.48 223.06 620.19 222.95 612.88 223.06 605.56 223.09 598.25 223.18 590.93 223.02 583.62 223.29 576.3 222.99 568.99 223.54 561.67 222.74 554.36 223.26 547.04 223.04 539.73 223.26 532.41 222.65 525.1 223.5 517.78 222.69 510.46 223.41 503.14 222.76 495.82 223.03 488.59 223.1 494.62 218.95 501.15 215.47 507.52 211.72 514.14 208.38 520.27 204.22 526.6 200.39 533.12 196.88 539.57 193.36"/><polygon class="a" points="539.57 193.36 546.81 192.65 554.13 192.94 561.44 192.64 568.75 193.46 576.07 192.79 583.38 193.4 590.7 192.85 598.01 193.04 605.33 193.54 612.64 192.89 619.96 193.17 627.27 192.91 634.59 193.39 641.9 193.3 649.22 192.76 656.54 192.84 663.86 193 671.18 193.62 678.23 193.19 672.15 196.9 665.98 201.01 659.56 204.67 653.23 208.5 646.71 211.99 640.27 215.64 633.97 219.52 627.48 223.06 620.19 222.95 612.88 223.06 605.56 223.09 598.25 223.18 590.93 223.02 583.62 223.29 576.3 222.99 568.99 223.54 561.67 222.74 554.36 223.26 547.04 223.04 539.73 223.26 532.41 222.65 525.1 223.5 517.78 222.69 510.46 223.41 503.14 222.76 495.82 223.03 488.59 223.1 494.62 218.95 501.15 215.47 507.52 211.72 514.14 208.38 520.27 204.22 526.6 200.39 533.12 196.88 539.57 193.36"/><polygon points="678.62 332.19 671.88 335.46 665.57 339.31 659.51 343.59 652.96 347.03 646.4 350.47 640.16 354.44 633.83 358.29 627.49 362.15 627.67 354.81 627.85 347.5 627.44 340.19 627.34 332.87 627.33 325.56 627.78 318.24 627.03 310.93 627.53 303.61 627.3 296.3 627.91 288.98 627.63 281.67 627.42 274.35 627.56 267.04 627.15 259.72 627.54 252.41 627.5 245.09 627.79 237.77 627.49 230.45 627.29 223 633.67 219.03 640.27 215.67 646.78 212.15 653.2 208.48 659.61 204.81 665.6 200.4 671.93 196.55 678.49 193.15 678.37 200.44 678.72 207.75 678.58 215.06 678.66 222.38 678.8 229.69 678.48 237.01 678.53 244.32 678.58 251.64 678.81 258.95 678.26 266.27 678.32 273.58 678.8 280.9 678.25 288.21 678.37 295.53 678.79 302.84 679 310.16 678.45 317.48 678.74 324.8 678.62 332.19"/><polygon class="a" points="678.62 332.19 671.88 335.46 665.57 339.31 659.51 343.59 652.96 347.03 646.4 350.47 640.16 354.44 633.83 358.29 627.49 362.15 627.67 354.81 627.85 347.5 627.44 340.19 627.34 332.87 627.33 325.56 627.78 318.24 627.03 310.93 627.53 303.61 627.3 296.3 627.91 288.98 627.63 281.67 627.42 274.35 627.56 267.04 627.15 259.72 627.54 252.41 627.5 245.09 627.79 237.77 627.49 230.45 627.29 223 633.67 219.03 640.27 215.67 646.78 212.15 653.2 208.48 659.61 204.81 665.6 200.4 671.93 196.55 678.49 193.15 678.37 200.44 678.72 207.75 678.58 215.06 678.66 222.38 678.8 229.69 678.48 237.01 678.53 244.32 678.58 251.64 678.81 258.95 678.26 266.27 678.32 273.58 678.8 280.9 678.25 288.21 678.37 295.53 678.79 302.84 679 310.16 678.45 317.48 678.74 324.8 678.62 332.19"/><polygon points="499.43 393.49 501.79 386.45 504.24 379.45 505.77 372.17 508 365.09 510.08 357.97 512.49 350.95 514.5 343.81 516.9 336.78 518.79 329.27 520.83 336.72 523.43 343.69 525.37 350.85 526.97 358.1 529.22 365.18 531.76 372.15 533.49 379.38 535.31 386.58 537.38 393.72 536.82 395.9 531.24 401.3 526.15 407.19 520.44 412.46 517.31 412.29 511.18 407.45 506.31 401.34 500.62 396.05 499.43 393.49"/><polygon class="a" points="499.43 393.49 501.79 386.45 504.24 379.45 505.77 372.17 508 365.09 510.08 357.97 512.49 350.95 514.5 343.81 516.9 336.78 518.79 329.27 520.83 336.72 523.43 343.69 525.37 350.85 526.97 358.1 529.22 365.18 531.76 372.15 533.49 379.38 535.31 386.58 537.38 393.72 536.82 395.9 531.24 401.3 526.15 407.19 520.44 412.46 517.31 412.29 511.18 407.45 506.31 401.34 500.62 396.05 499.43 393.49"/><polygon points="562.32 408.73 560.76 401.46 558.91 394.28 556.13 387.37 554.62 380.08 552.25 373.05 550.46 365.85 548.38 358.72 546.05 351.67 543.79 344.48 541.79 351.73 539.37 358.75 537.73 366 535.81 373.16 533.46 380.2 531.63 387.39 529.3 394.44 527.12 401.54 524.8 408.6 525.26 411.41 531.33 416.31 536.23 422.39 541.72 427.88 545.53 427.55 551.42 422.47 556.82 416.88 562.02 411.11 562.32 408.73"/><polygon class="a" points="562.32 408.73 560.76 401.46 558.91 394.28 556.13 387.37 554.62 380.08 552.25 373.05 550.46 365.85 548.38 358.72 546.05 351.67 543.79 344.48 541.79 351.73 539.37 358.75 537.73 366 535.81 373.16 533.46 380.2 531.63 387.39 529.3 394.44 527.12 401.54 524.8 408.6 525.26 411.41 531.33 416.31 536.23 422.39 541.72 427.88 545.53 427.55 551.42 422.47 556.82 416.88 562.02 411.11 562.32 408.73"/><polyline class="b" points="280.63 576 280.74 583.17 280.06 590.35 280.86 597.53 280.48 604.7 280.67 611.88 280.29 619.05 280.66 626.23 280.22 633.4 280.76 640.58 280.87 647.76 280.16 654.93 280.15 662.11 280.19 669.29 280.35 676.47 280.24 683.65 280.08 691.08 287.02 694.34 293.21 698.41 299.37 702.53"/><polyline class="c" points="280.63 576 280.74 583.17 280.06 590.35 280.86 597.53 280.48 604.7 280.67 611.88 280.29 619.05 280.66 626.23 280.22 633.4 280.76 640.58 280.87 647.76 280.16 654.93 280.15 662.11 280.19 669.29 280.35 676.47 280.24 683.65 280.08 691.08 287.02 694.34 293.21 698.41 299.37 702.53"/><polyline class="b" points="296.65 586 296.27 593.15 296.07 600.31 296.33 607.46 296.39 614.62 296.27 621.77 296.92 628.93 296.59 636.09 296.29 643.24 296.38 650.39 296.98 657.55 296.71 664.7 296.63 671.86 296.34 679.01 296.88 686.17 296.38 693.34 296.17 700.78 302.5 700.31 308.5 700.58 314.62 700.6 314.86 693.35 314.85 686.19 314.62 679.04 314.64 671.88 314.02 664.73 314.42 657.57 314.06 650.41 314.33 643.26 314.16 636.11 314.74 628.95 314.78 621.8 314.64 614.64 314.56 607.49 314.02 600.33 314.61 593.16 314.03 586"/><polyline class="c" points="296.65 586 296.27 593.15 296.07 600.31 296.33 607.46 296.39 614.62 296.27 621.77 296.92 628.93 296.59 636.09 296.29 643.24 296.38 650.39 296.98 657.55 296.71 664.7 296.63 671.86 296.34 679.01 296.88 686.17 296.38 693.34 296.17 700.78 302.5 700.31 308.5 700.58 314.62 700.6 314.86 693.35 314.85 686.19 314.62 679.04 314.64 671.88 314.02 664.73 314.42 657.57 314.06 650.41 314.33 643.26 314.16 636.11 314.74 628.95 314.78 621.8 314.64 614.64 314.56 607.49 314.02 600.33 314.61 593.16 314.03 586"/><polyline class="b" points="226.15 737.04 220.97 733.44 215.29 730.65 210.04 727.14 204.77 723.98 204.82 716.96 204.45 709.8 204.06 702.63 204.92 695.47 204.82 688.3 204.57 681.14 204.03 673.97 204.2 666.8 204.63 659.64 204.61 652.47 204.41 645.31 204.19 638.14 204.71 630.98 204.52 623.81 204.03 616.64 204.8 609.48 204.07 602.3 204.3 594.79 210.92 598.24 216.77 602.38 223.05 605.77"/><polyline class="c" points="226.15 737.04 220.97 733.44 215.29 730.65 210.04 727.14 204.77 723.98 204.82 716.96 204.45 709.8 204.06 702.63 204.92 695.47 204.82 688.3 204.57 681.14 204.03 673.97 204.2 666.8 204.63 659.64 204.61 652.47 204.41 645.31 204.19 638.14 204.71 630.98 204.52 623.81 204.03 616.64 204.8 609.48 204.07 602.3 204.3 594.79 210.92 598.24 216.77 602.38 223.05 605.77"/><polyline class="b" points="222.7 606 222.59 613.19 222.09 620.38 222.34 627.58 222.94 634.77 222.39 641.96 222.57 649.15 222.09 656.35 222.63 663.54 222.94 670.74 222.19 677.93 222.37 685.12 222.93 692.32 222.61 699.51 222.87 706.71 222.53 713.9 222.12 721.09 222.62 728.3 222.79 735.22 229.5 735.29 236.5 735.24 243.81 735.8 243.36 728.31 243.79 721.12 243.44 713.92 243.54 706.73 243.05 699.54 243.27 692.35 243.81 685.15 243.69 677.96 243.03 670.76 243.48 663.57 243.15 656.38 243.96 649.18 243.86 641.99 243.24 634.79 243.22 627.6 243.22 620.41 243.84 613.2 243.8 606"/><polyline class="c" points="222.7 606 222.59 613.19 222.09 620.38 222.34 627.58 222.94 634.77 222.39 641.96 222.57 649.15 222.09 656.35 222.63 663.54 222.94 670.74 222.19 677.93 222.37 685.12 222.93 692.32 222.61 699.51 222.87 706.71 222.53 713.9 222.12 721.09 222.62 728.3 222.79 735.22 229.5 735.29 236.5 735.24 243.81 735.8 243.36 728.31 243.79 721.12 243.44 713.92 243.54 706.73 243.05 699.54 243.27 692.35 243.81 685.15 243.69 677.96 243.03 670.76 243.48 663.57 243.15 656.38 243.96 649.18 243.86 641.99 243.24 634.79 243.22 627.6 243.22 620.41 243.84 613.2 243.8 606"/><polyline class="b" points="323.41 595 323.91 602.17 323.44 609.34 323.2 616.51 323.02 623.68 323.97 630.86 323.44 638.03 323.91 645.2 323.19 652.38 323.01 659.55 323.87 666.72 323.85 673.89 323.32 681.07 323.04 688.24 323.25 695.41 323.66 702.58 323.96 709.76 323.5 716.94 323.54 724.1 330.49 728.64 337.69 732.83 345.2 736.47"/><polyline class="c" points="323.41 595 323.91 602.17 323.44 609.34 323.2 616.51 323.02 623.68 323.97 630.86 323.44 638.03 323.91 645.2 323.19 652.38 323.01 659.55 323.87 666.72 323.85 673.89 323.32 681.07 323.04 688.24 323.25 695.41 323.66 702.58 323.96 709.76 323.5 716.94 323.54 724.1 330.49 728.64 337.69 732.83 345.2 736.47"/><polyline class="b" points="341.24 606 341.39 613.19 341.74 620.38 341.75 627.58 341.58 634.77 341.53 641.96 341.81 649.15 341.4 656.35 341.95 663.54 341.65 670.74 341.25 677.93 341.82 685.12 341.95 692.32 341.03 699.51 341.26 706.71 341.42 713.9 341.02 721.09 341.39 728.3 341.84 735.17 348.5 735.21 355.5 735.64 362.86 735.85 362.72 728.31 362.16 721.12 362.89 713.92 362.7 706.73 362.85 699.54 362.48 692.35 362.68 685.15 362.1 677.96 362.9 670.76 362.73 663.57 362.29 656.38 362.69 649.18 362.73 641.99 362.08 634.79 362.19 627.6 362.6 620.41 362.26 613.2 362.84 606"/><polyline class="c" points="341.24 606 341.39 613.19 341.74 620.38 341.75 627.58 341.58 634.77 341.53 641.96 341.81 649.15 341.4 656.35 341.95 663.54 341.65 670.74 341.25 677.93 341.82 685.12 341.95 692.32 341.03 699.51 341.26 706.71 341.42 713.9 341.02 721.09 341.39 728.3 341.84 735.17 348.5 735.21 355.5 735.64 362.86 735.85 362.72 728.31 362.16 721.12 362.89 713.92 362.7 706.73 362.85 699.54 362.48 692.35 362.68 685.15 362.1 677.96 362.9 670.76 362.73 663.57 362.29 656.38 362.69 649.18 362.73 641.99 362.08 634.79 362.19 627.6 362.6 620.41 362.26 613.2 362.84 606"/><polygon class="b" points="312.54 575 305.19 575.45 297.88 575.21 290.56 575.32 283.25 574.84 275.93 574.96 268.62 574.97 261.3 575.05 253.99 575.56 246.67 575.28 239.36 575.57 232.04 575.17 224.73 575.52 217.41 575.39 210.1 574.96 202.78 574.78 195.46 574.75 188.15 574.8 180.82 575.13 173.61 575.15 180.01 578.64 185.99 583.05 192.85 585.97 199.09 589.96 205.43 593.76 211.97 597.23 217.93 601.7 224.56 604.89 231.81 605.21 239.13 605.28 246.44 605.18 253.75 604.9 261.07 605.43 268.38 604.66 275.7 605.49 283.01 605.21 290.33 605.03 297.64 604.96 304.96 605.49 312.27 604.87 319.59 605.43 326.9 605.03 334.22 605.39 341.54 604.7 348.86 604.78 356.18 605.5 363.97 605.25 357.09 601.44 350.91 597.36 344.59 593.52 338.01 590.13 331.76 586.18 325.43 582.34 318.86 578.92 312.54 575"/><polygon class="c" points="312.54 575 305.19 575.45 297.88 575.21 290.56 575.32 283.25 574.84 275.93 574.96 268.62 574.97 261.3 575.05 253.99 575.56 246.67 575.28 239.36 575.57 232.04 575.17 224.73 575.52 217.41 575.39 210.1 574.96 202.78 574.78 195.46 574.75 188.15 574.8 180.82 575.13 173.61 575.15 180.01 578.64 185.99 583.05 192.85 585.97 199.09 589.96 205.43 593.76 211.97 597.23 217.93 601.7 224.56 604.89 231.81 605.21 239.13 605.28 246.44 605.18 253.75 604.9 261.07 605.43 268.38 604.66 275.7 605.49 283.01 605.21 290.33 605.03 297.64 604.96 304.96 605.49 312.27 604.87 319.59 605.43 326.9 605.03 334.22 605.39 341.54 604.7 348.86 604.78 356.18 605.5 363.97 605.25 357.09 601.44 350.91 597.36 344.59 593.52 338.01 590.13 331.76 586.18 325.43 582.34 318.86 578.92 312.54 575"/><polygon class="b" points="312.48 553.21 305.19 553 297.88 552.86 290.56 553.61 283.25 552.65 275.93 553.28 268.62 553.55 261.3 553.24 253.99 553.25 246.67 553.01 239.36 552.75 232.04 553.3 224.73 552.85 217.41 553.05 210.1 552.7 202.78 553.51 195.46 552.77 188.15 552.76 180.82 553.06 173.9 553.23 179.65 557.26 186.24 560.63 192.44 564.67 198.84 568.38 205.54 571.56 211.67 575.73 218.22 579.21 224.44 583.35 231.81 583.16 239.13 583.5 246.44 582.74 253.75 583.61 261.07 583.58 268.38 583.11 275.7 583.44 283.01 583.43 290.33 582.86 297.64 583.33 304.96 582.93 312.27 582.82 319.59 583.02 326.9 583.12 334.22 583.02 341.54 583.22 348.86 583.45 356.18 582.9 363.54 583.13 357.28 579.12 350.9 575.38 344.51 571.66 337.8 568.48 331.46 564.68 325.22 560.7 318.79 557.04 312.48 553.21"/><polygon class="c" points="312.48 553.21 305.19 553 297.88 552.86 290.56 553.61 283.25 552.65 275.93 553.28 268.62 553.55 261.3 553.24 253.99 553.25 246.67 553.01 239.36 552.75 232.04 553.3 224.73 552.85 217.41 553.05 210.1 552.7 202.78 553.51 195.46 552.77 188.15 552.76 180.82 553.06 173.9 553.23 179.65 557.26 186.24 560.63 192.44 564.67 198.84 568.38 205.54 571.56 211.67 575.73 218.22 579.21 224.44 583.35 231.81 583.16 239.13 583.5 246.44 582.74 253.75 583.61 261.07 583.58 268.38 583.11 275.7 583.44 283.01 583.43 290.33 582.86 297.64 583.33 304.96 582.93 312.27 582.82 319.59 583.02 326.9 583.12 334.22 583.02 341.54 583.22 348.86 583.45 356.18 582.9 363.54 583.13 357.28 579.12 350.9 575.38 344.51 571.66 337.8 568.48 331.46 564.68 325.22 560.7 318.79 557.04 312.48 553.21"/><polygon class="b" points="312.16 552.79 305.19 553.24 297.88 552.88 290.56 553.39 283.25 552.64 275.93 553.15 268.62 552.85 261.3 553.2 253.99 553.6 246.67 552.94 239.36 553.29 232.04 552.94 224.73 553.59 217.41 553.38 210.1 552.71 202.78 552.64 195.46 553.57 188.15 553.13 180.82 553.27 173.32 553.31 173.98 545.81 173.42 538.49 173.28 531.17 173.51 523.85 173.95 516.53 173.88 509.22 173.37 501.89 174.16 494.57 174.1 487.25 173.88 479.93 174.14 472.61 174.29 465.29 174.2 457.97 173.72 450.65 174.69 443.33 174.29 436.01 173.82 428.69 174.42 421.36 174.41 414.04 174.84 406.71 174.38 399.26 181.81 399.47 189.13 399.49 196.44 399.86 203.75 399.01 211.07 399.33 218.38 399.32 225.7 399.87 233.01 399.7 240.33 399.3 247.64 399.52 254.96 399.01 262.27 399.02 269.59 399.59 276.9 399.77 284.22 398.97 291.54 398.99 298.86 399.29 306.18 399.31 313.76 399.13 313.43 406.7 313.05 414.02 313.45 421.34 312.83 428.65 313.52 435.98 313.11 443.29 313.57 450.62 313.3 457.94 313.17 465.26 313.01 472.58 312.69 479.89 313.01 487.22 312.4 494.53 313.17 501.86 312.66 509.18 312.69 516.5 312.54 523.82 313.13 531.15 312.11 538.47 312.39 545.79 312.16 552.79"/><polygon class="c" points="312.16 552.79 305.19 553.24 297.88 552.88 290.56 553.39 283.25 552.64 275.93 553.15 268.62 552.85 261.3 553.2 253.99 553.6 246.67 552.94 239.36 553.29 232.04 552.94 224.73 553.59 217.41 553.38 210.1 552.71 202.78 552.64 195.46 553.57 188.15 553.13 180.82 553.27 173.32 553.31 173.98 545.81 173.42 538.49 173.28 531.17 173.51 523.85 173.95 516.53 173.88 509.22 173.37 501.89 174.16 494.57 174.1 487.25 173.88 479.93 174.14 472.61 174.29 465.29 174.2 457.97 173.72 450.65 174.69 443.33 174.29 436.01 173.82 428.69 174.42 421.36 174.41 414.04 174.84 406.71 174.38 399.26 181.81 399.47 189.13 399.49 196.44 399.86 203.75 399.01 211.07 399.33 218.38 399.32 225.7 399.87 233.01 399.7 240.33 399.3 247.64 399.52 254.96 399.01 262.27 399.02 269.59 399.59 276.9 399.77 284.22 398.97 291.54 398.99 298.86 399.29 306.18 399.31 313.76 399.13 313.43 406.7 313.05 414.02 313.45 421.34 312.83 428.65 313.52 435.98 313.11 443.29 313.57 450.62 313.3 457.94 313.17 465.26 313.01 472.58 312.69 479.89 313.01 487.22 312.4 494.53 313.17 501.86 312.66 509.18 312.69 516.5 312.54 523.82 313.13 531.15 312.11 538.47 312.39 545.79 312.16 552.79"/><polygon class="b" points="172.19 575.3 172.23 567.79 172.43 560.46 172.28 552.73 178.81 556.99 185 561.05 191.65 564.32 197.94 568.21 204.6 571.46 210.83 575.47 217.09 579.42 223.65 583.04 223.02 590.46 223.53 597.79 223.36 604.88 216.89 601.78 210.97 597.27 204.58 593.55 198.16 589.88 191.41 586.77 185.45 582.32 178.64 579.31 172.19 575.3"/><polygon class="c" points="172.19 575.3 172.23 567.79 172.43 560.46 172.28 552.73 178.81 556.99 185 561.05 191.65 564.32 197.94 568.21 204.6 571.46 210.83 575.47 217.09 579.42 223.65 583.04 223.02 590.46 223.53 597.79 223.36 604.88 216.89 601.78 210.97 597.27 204.58 593.55 198.16 589.88 191.41 586.77 185.45 582.32 178.64 579.31 172.19 575.3"/><polygon class="b" points="362.57 583.43 362.42 590.83 362.3 598.16 362.18 605.18 355.19 605.94 347.88 605.49 340.56 605.35 333.25 605.8 325.93 605.35 318.62 605.79 311.3 605.69 303.99 605.44 296.67 605.47 289.36 605.01 282.04 605.66 274.73 605.91 267.41 605.52 260.1 605.32 252.78 605.2 245.46 605.45 238.15 605.98 230.82 605.83 223.25 605.74 223.6 598.17 223.59 590.83 223.84 583.33 231.29 583.39 238.57 583.62 245.86 583.46 253.15 583.9 260.44 583.41 267.73 583.25 275.01 583.21 282.3 583.84 289.59 583 296.88 583.9 304.17 583.11 311.45 583.83 318.74 583.48 326.03 583.68 333.32 583.08 340.62 583.57 347.91 583.42 355.2 583.36 362.57 583.43"/><polygon class="c" points="362.57 583.43 362.42 590.83 362.3 598.16 362.18 605.18 355.19 605.94 347.88 605.49 340.56 605.35 333.25 605.8 325.93 605.35 318.62 605.79 311.3 605.69 303.99 605.44 296.67 605.47 289.36 605.01 282.04 605.66 274.73 605.91 267.41 605.52 260.1 605.32 252.78 605.2 245.46 605.45 238.15 605.98 230.82 605.83 223.25 605.74 223.6 598.17 223.59 590.83 223.84 583.33 231.29 583.39 238.57 583.62 245.86 583.46 253.15 583.9 260.44 583.41 267.73 583.25 275.01 583.21 282.3 583.84 289.59 583 296.88 583.9 304.17 583.11 311.45 583.83 318.74 583.48 326.03 583.68 333.32 583.08 340.62 583.57 347.91 583.42 355.2 583.36 362.57 583.43"/></svg>