<svg xmlns="http://www.w3.org/2000/svg" viewBox="0 0 800 800"><defs><style>.a{fill:#fff;}.b,.c,.d{fill:none;}.b,.c{stroke:#000;}.b,.d{stroke-linecap:round;stroke-linejoin:bevel;}.b{stroke-width:13px;}.c{stroke-miterlimit:10;stroke-width:16px;}.d{stroke:#fff;stroke-width:11px;}</style></defs><title>ickk</title><rect class="a" width="800" height="800"/><path class="b" d="M572,569.71c-.16-3.34,2.54-.74,6.72.38,1.78.48,3.59,1.91,5.94,3.11a43.31,43.31,0,0,1,5.63,3.5c1.65,1.19,3.9,1.95,5.7,3.6,1.53,1.4,2.58,3.5,4.2,5.27,1.41,1.55,3.28,2.87,4.76,4.74,1.31,1.66,2.81,3.35,4.16,5.28a43.65,43.65,0,0,1,3.54,6.15,37.5,37.5,0,0,1,2,6.78c.62,2.31,1.73,4.52,1.91,6.84a43,43,0,0,1-.26,7.1,52.78,52.78,0,0,1-1.18,7,69.5,69.5,0,0,1-1.92,6.8c-.74,2.2-1.58,4.42-2.51,6.6s-1.7,4.39-2.73,6.52-2.25,4.13-3.34,6.22-2.3,4.11-3.41,6.17-2.37,4.08-3.47,6.14-2.15,4.21-3.19,6.28-2.41,4.12-3.33,6.22-1.85,4.41-2.6,6.57a56.83,56.83,0,0,0-2,6.79,37.36,37.36,0,0,0-.32,7.05c0,2.35-.14,4.75,0,7.2s.31,4.77.73,7.18,1.22,4.62,1.87,7A70.44,70.44,0,0,0,591,729a68.67,68.67,0,0,0,3.21,6.44,65.65,65.65,0,0,0,3.74,6.11c1.31,2,2.26,4.25,3.83,6.12a65,65,0,0,0,4.72,5.5,69.05,69.05,0,0,0,5.74,4.44,70.13,70.13,0,0,0,5.9,4.17c2,1.23,4.1,2.44,6.31,3.53s4.44,1.7,6.75,2.59,4.4,1.78,6.77,2.49,4.69.72,7.11,1.25,4.56,1.29,7,1.66,4.68.75,7.14,1,4.74.12,7.21.23,4.74.35,7.21.35c3.67.13,2.78,0,7.33-.13,2.1,0,4.57,0,7.32-.27,2.27-.18,4.69-.53,7.28-.89,2.32-.32,4.84-.2,7.33-.7s4.7-1.19,7.12-1.86,4.57-1.65,6.9-2.51,4.55-1.73,6.77-2.79a65.68,65.68,0,0,0,6.46-3.45,56.82,56.82,0,0,0,6.13-4.05,50.6,50.6,0,0,0,5.23-5.17,47,47,0,0,0,4.19-6c1.31-2,3.21-3.75,4.24-6a50.45,50.45,0,0,0,2.38-7,57.28,57.28,0,0,0,1.18-7.27,62.71,62.71,0,0,0,1-7.3c.07-2.35-.26-4.8-.43-7.35-.16-2.35-.23-4.81-.61-7.34s-1.08-4.76-1.5-7.11-.49-4.87-1-7.21-1.06-4.76-1.61-7.09-1.79-4.57-2.4-6.88-.44-4.93-1.1-7.23-1.77-4.55-2.48-6.84-1.46-4.64-2.22-6.91-1.66-4.57-2.44-6.83-1.6-4.59-2.4-6.85-1.67-4.56-2.48-6.82-2.06-4.42-2.87-6.68-.74-4.88-1.53-7.15-2.4-4.31-3.15-6.59-1-4.76-1.73-7.07-1.67-4.56-2.31-6.89-1.27-4.68-1.82-7-.59-4.81-1-7.19-1.31-4.67-1.66-7.08-.44-4.8-.67-7.23-.56-4.79-.65-7.23-.16-4.81-.12-7.27.75-4.77.93-7.22.37-4.76.67-7.2.25-4.8.68-7.23,1-4.68,1.52-7.09,1.25-4.62,1.9-7,1-4.18,1.75-6.54c-3.57-.75-1.07,1.91-4.13,5.47-1.33,1.55-3,3.37-5,5.35-1.56,1.55-3.31,3.28-5.31,5-1.71,1.49-3.85,2.72-5.91,4.29-1.83,1.4-3.85,2.74-6,4.17-1.92,1.31-3.89,2.74-6.05,4-2,1.21-3.89,2.82-6.11,4s-4.5,1.72-6.76,2.8-4.12,2.52-6.42,3.51-4.4,2-6.74,2.83-4.83.73-7.19,1.52-4.42,1.9-6.81,2.6-4.69,1-7.1,1.63-4.65,1.2-7.07,1.72-4.6,1.56-7,2-4.82.4-7.27.76-4.79.48-7.24.77-4.76.82-7.22,1-4.82.09-7.29.24-4.8.37-7.27.46-4.82.15-7.29.18-4.82-.21-7.29-.24S574.44,569.8,572,569.71Z"/><path class="b" d="M723.78,514.59c-3.49.67-2.55.46-7,1.37-2,.41-4.28,1-6.93,1.58-2.12.46-4.44,1-6.94,1.56-2.18.49-4.36,1.61-6.79,2.16-2.22.51-4.54,1-6.93,1.55-2.24.53-4.6.84-7,1.42L675.36,526c-2.26.57-4.51,1.34-6.83,2s-4.73.57-7,1.2-4.44,1.68-6.73,2.33-4.72.72-7,1.39-4.35,2-6.62,2.69-4.58,1.26-6.83,2-4.59,1.27-6.82,2-4.41,1.83-6.62,2.62-4.57,1.41-6.75,2.25-4.26,2.22-6.42,3.1-4.73,1.14-6.84,2.09-4.12,2.55-6.17,3.58c-2.21,1.1-4.32,2.15-6.3,3.27-2.17,1.24-4.32,2.27-6.17,3.54a51.4,51.4,0,0,0-5.53,4.45,26.63,26.63,0,0,0-4.62,5.34"/><path class="b" d="M720.16,590.61a38.08,38.08,0,0,1,1.12-7.25c.46-2.13.57-4.72,1.4-7.26a58.44,58.44,0,0,1,2.95-6.78,37.57,37.57,0,0,1,4-6.17c1.49-2,2.8-4.24,4.77-5.64a17.38,17.38,0,0,1,6.9-2.64,19.29,19.29,0,0,1,7.26.48,29.54,29.54,0,0,1,6.84,2.42c2,1,4.57,1.41,6.81,2.92s3.48,3.43,5,5c1.69,1.81,3.63,3.34,4.64,5.36s1.06,4.61,1.47,6.94a31.49,31.49,0,0,1,.29,7,46.82,46.82,0,0,1-.4,7c-.43,2.23-1.18,4.46-1.86,6.8s-1.12,4.51-1.93,6.78-2.2,4.14-3.07,6.37-1,4.62-1.92,6.82-2.29,4.11-3.2,6.3-1.54,4.43-2.42,6.62-2.23,4.18-3.06,6.38-.76,4.73-1.51,6.94-2,4.3-2.64,6.55-1.51,4.5-2,6.78-.68,4.69-1,7a70.18,70.18,0,0,0-.91,7,58.17,58.17,0,0,0,.34,7.09,51.06,51.06,0,0,0,1.49,6.92"/><path d="M572.87,568.17c1.25,3.46,4.14,0,7.82,0s3.68.09,7.35.09,3.68-.27,7.36-.27,3.71.56,7.38.24a57.62,57.62,0,0,0,7.29-1c3.61-.62,3.61-.65,7.23-1.27s3.49-1.37,7.1-2,3.71-.05,7.33-.68,3.56-.94,7.18-1.56,3.63-.51,7.25-1.14,3.69-.23,7.3-.85a31.52,31.52,0,0,0,7.11-1.83c3.36-1.14,3.08-1.7,6.21-3.37s3.24-1.45,6.37-3.12l6.25-3.34c3.13-1.66,3.27-1.4,6.4-3.06s3-1.9,6.14-3.56,3.12-1.69,6.25-3.36,3.43-1.21,6.22-3.4c2.5-2,2.21-2.27,4.27-4.68s2-2.5,4-4.92l4.14-4.82c2.07-2.42,6.2-2.41,4.16-4.85-2.29-2.72-3.48.88-7,1.61s-3.52.55-7,1.28-3.47.79-7,1.52-3.55.41-7,1.14-3.34,1.4-6.83,2.13-3.59.21-7.07.94-3.54.48-7,1.21l-7,1.45c-3.49.73-3.43,1-6.87,2s-3.29,1.58-6.71,2.77-3.5,1-6.93,2.14-3.52.91-6.95,2.1-3.36,1.39-6.78,2.58-3.38,1.32-6.81,2.5-3.54.86-7,2-3.47,1.05-6.9,2.24-3.42,1.22-6.85,2.41-3.45,1.12-6.89,2.31-3.61.82-6.7,2.72-2.79,2.49-5.52,5.11-2,3.67-5.32,5.52C575.09,565.27,571.59,564.61,572.87,568.17Z"/><path class="b" d="M587.22,716.62c3.12,1.75,2.58.61,6.73,2.55,1.83.85,3.92,2,6.45,3.08,2,.85,4.1,2.06,6.51,3,2.1.8,4.5,1.17,6.89,2,2.16.75,4.31,1.84,6.68,2.58,2.2.69,4.43,1.57,6.81,2.24s4.64.89,7,1.48,4.48,1.6,6.87,2.11,4.78.17,7.18.59,4.58,1.31,7,1.65,4.68.86,7.08,1.12,4.78-.19,7.19,0,4.72.49,7.13.59,4.74.6,7.16.61,4.76-.22,7.17-.3,4.75-.31,7.15-.48,4.76-.26,7.15-.53,4.67-.93,7.05-1.3,4.78-.28,7.15-.74,4.67-1,7-1.54,4.41-1.93,6.73-2.59,4.64-1,6.93-1.79,4.63-1.19,6.88-2,4.43-1.75,6.65-2.7"/><path class="b" d="M602.83,658.2c3.21,1.71,2.1,1.8,6.32,3.64,1.89.83,4.11,1.89,6.7,2.89,2.08.8,4.52,1.24,7,2.09,2.17.74,4.48,1.52,6.92,2.25,2.24.67,4.56,1.38,7,2,2.29.58,4.65,1.15,7.09,1.66s4.72.88,7.16,1.28,4.73.93,7.18,1.21,4.82.26,7.28.42,4.81.72,7.27.75,4.84-.25,7.29-.37,4.84-.24,7.28-.51,4.74-1,7.15-1.41,4.78-.73,7.16-1.33,4.74-1,7.07-1.79,4.42-2,6.68-2.92,4.36-2,6.55-3.14,4.47-1.87,6.58-3.15,4.07-2.6,6.08-4,4.08-2.63,6-4.21"/><path class="b" d="M608.85,595.58c3.53.93,2.65.5,7.17,1.31,2,.36,4.42,1,7.16,1.4,2.23.29,4.62,1,7.22,1.24,2.31.19,4.77.23,7.32.31,2.35.08,4.8-.21,7.31-.24s4.83.15,7.32,0,4.85-.19,7.31-.5,4.73-1.18,7.15-1.63,4.87-.47,7.26-1.09,4.48-2,6.81-2.76,4.75-1.17,7-2.14,4.55-1.8,6.71-3,3.72-3.22,5.77-4.58,4-2.63,5.94-4.19,4-2.76,5.77-4.5,3.34-3.51,4.93-5.42"/><path d="M597.56,664.54c-2.24,2.55-.85,3.33-1.65,6.62s-.48,3.37-1.28,6.66-.52,3.36-1.32,6.66-1.47,3.13-2.27,6.42-.35,3.4-1.15,6.7-1.3,3.18-2.09,6.48-1.81,3.29-1,6.59,1.66,2.7,3.88,5.1,1.84,3,4.66,4.62c3,1.78,3.34,1.24,6.75,2.13s3.4,1,6.81,1.84,3.57.29,7,1.18,3.31,1.31,6.72,2.2,3.57.3,7,1.19,3.22,1.64,6.63,2.53,3.6.17,7,1.06,3.3,1.31,6.72,2.2,3.36,1.09,6.78,2,3.51.55,6.93,1.44,3.34,1.23,6.86,1.5,3.38-.49,6.82-.84l6.89-.71c3.44-.36,3.52.4,7,0s3.41-.63,6.86-1,3.47-.07,6.92-.43,3.43-.48,6.87-.83,3.42-.59,6.86-1,3.4-.79,6.85-1.14,3.66.81,6.94-.3,3-1.82,6-3.64,2.72-2.25,5.71-4.07,3.26-1.36,6.25-3.19,4.45-.52,5.76-3.77-.75-3.4-1.59-6.89-1-3.45-1.88-6.94-.88-3.48-1.73-7-.86-3.49-1.7-7-.7-3.53-1.55-7-.35-3.61-1.19-7.1-1.36-3.37-2.21-6.86-.18-3.66-1-7.15,1.16-5.42-2.16-6.79c-3.67-1.51-3.46,1.78-7.06,3.46s-3.56,1.77-7.16,3.44-3.61,1.66-7.21,3.34-3.53,1.91-7.33,3.07a33.72,33.72,0,0,1-7.31,1.56c-3.69.55-3.79-.07-7.48.48s-3.68.67-7.37,1.22-3.76.1-7.45.65l-7.39,1.11c-3.7.55-3.58,1.55-7.31,1.34-3.54-.2-3.53-.34-6.95-1.29s-3.43-.89-6.85-1.84-3.43-.92-6.84-1.87-3.4-1-6.82-2-3.41-1-6.83-1.94-3.27-1.5-6.74-2.29c-3-.69-3.11-.14-6.16-.66l-6.09-1.07c-3-.52-3-1.7-6-1.56-2.89.13-2.69,1.36-5.58,1.63S599.47,662.36,597.56,664.54Z"/><path d="M565.89,620.5c-2.81-7-6-22.4-6.46-22.6,0,0-13.58,15.79-13.07,23.88.34,5.48,7.25,8.44,12.58,7.75C564.72,628.77,567.48,624.45,565.89,620.5Z"/><path class="c" d="M565.93,620.48c-.8-2-1.25-4.75-2-7.56-.72-2.55-1.64-5.15-2.24-7.52a43.57,43.57,0,0,0-2.53-7.8c-2.43,2.46-1.35,2.72-3.71,5.92-1.25,1.69-3.23,3.24-4.51,5.29a48.93,48.93,0,0,0-3.07,6.24c-1.07,2.44-1.87,4.84-1.75,6.73.18,2.82,2.32,5,4.86,6.36a13.68,13.68,0,0,0,7.95,1.08c2.61-.34,4.58-1.16,5.84-2.59A5.82,5.82,0,0,0,565.93,620.48Z"/><path class="b" d="M763,462.19c-3.57,0-3.57-.23-7.13-.23s-3.57-.16-7.13-.16-3.57.11-7.13.11-3.57-.28-7.13-.28-3.57.14-7.13.14-3.57.25-7.13.25-3.57-.28-7.13-.28-3.57.46-7.14.46-3.56-.32-7.13-.32-3.56.26-7.13.26-3.57-.35-7.13-.35-3.57.62-7.13.62-3.57-.38-7.13-.38-3.57.06-7.13.06-3.57.07-7.13.07-3.57,0-7.13,0-3.57-.23-7.13-.23-3.57.19-7.13.19S631,462,627.47,462s-3.57-.3-7.13-.3-3.57.11-7.14.11-3.57-.25-7.13-.25-3.57.57-7.14.57-3.57-.46-7.14-.46-3.57-.12-7.14-.12-3.57.24-7.14.24-3.57-.12-7.14-.12-3.57.78-7.14.78-3.57-.76-7.13-.76-3.57-.09-7.14-.09-3.57.42-7.14.42-3.57.14-7.14.14-3.57.09-7.14.09-3.57-.59-7.13-.59-3.57.84-7.14.84-3.57-.44-7.15-.44-4.37-2.29-6.89.24-.12,3.33-.12,6.91.15,3.58.15,7.16-.71,3.58-.71,7.16,0,3.58,0,7.16.44,3.58.44,7.16-.08,3.58-.08,7.16.37,3.58.37,7.16-.5,3.58-.5,7.16.3,3.58.3,7.16-.47,3.58-.47,7.16.24,3.58.24,7.16.56,3.58.56,7.16-.35,3.58-.35,7.16.07,3.58.07,7.16-.6,3.58-.6,7.16.09,3.58.09,7.16.79,3.58.79,7.16,0,3.58,0,7.16,0,3.58,0,7.16-.66,3.58-.66,7.16.34,3.58.34,7.16.21,3.58.21,7.16-.55,3.58-.55,7.16-.17,3.58-.17,7.16,0,3.58,0,7.16.6,3.58.6,7.16.06,3.58.06,7.16-.67,3.58-.67,7.16.63,3.58.63,7.16-.17,3.58-.17,7.17.14,3.58.14,7.16-.68,3.58-.68,7.16.73,3.58.73,7.17-.66,3.58-.66,7.17-.13,3.58-.13,7.16.26,3.58.26,7.16-.18,3.58-.18,7.16.22,3.58.22,7.16.66,3.58.66,7.17-.9,3.58-.9,7.16,0,3.58,0,7.17.19,3.59.19,7.17-.19,3.59-.19,7.17"/><path class="b" d="M166.69,222.37c2.42-2.55,3.54-5.24,3.49-7.81a8,8,0,0,0-4.41-7.36c-2.07-1-4.72-1-7.26-.86a20.26,20.26,0,0,0-6.92,2,19.05,19.05,0,0,0-5.93,4,11.48,11.48,0,0,0-3.57,7.93c.06,2.9,1.73,5.39,4.84,6.88a13.91,13.91,0,0,0,7,1,19.91,19.91,0,0,0,7-1.45A19.07,19.07,0,0,0,166.69,222.37Z"/><path class="a" d="M165.42,225.75a11.39,11.39,0,0,0,3.34-8,8.07,8.07,0,0,0-4.49-7.37,15,15,0,0,0-7.28-1,20.64,20.64,0,0,0-7,1.95,19.42,19.42,0,0,0-5.93,4.17,11.45,11.45,0,0,0-3.41,8c.06,2.9,1.71,5.32,4.82,6.8a13.73,13.73,0,0,0,7,.95,19.38,19.38,0,0,0,6.8-1.86C161.41,228.35,163.76,227.49,165.42,225.75Z"/><path class="b" d="M165.42,225.75a11.39,11.39,0,0,0,3.34-8,8.07,8.07,0,0,0-4.49-7.37,15,15,0,0,0-7.28-1,20.64,20.64,0,0,0-7,1.95,19.42,19.42,0,0,0-5.93,4.17,11.45,11.45,0,0,0-3.41,8c.06,2.9,1.71,5.32,4.82,6.8a13.73,13.73,0,0,0,7,.95,19.38,19.38,0,0,0,6.8-1.86C161.41,228.35,163.76,227.49,165.42,225.75Z"/><path class="b" d="M275.1,154a11,11,0,0,0,3.07-8c-.06-2.9-1.47-5.12-4.58-6.6-2.07-1-4.39-2.21-6.93-2-2.33.16-4.51,1.7-6.75,2.72a18.86,18.86,0,0,0-6.07,3.74,11.14,11.14,0,0,0-3.34,7.92,7.49,7.49,0,0,0,4.61,6.87,14,14,0,0,0,7,1.23,20.39,20.39,0,0,0,7.1-1.51A19.59,19.59,0,0,0,275.1,154Z"/><path class="a" d="M273.37,157a10.9,10.9,0,0,0,3.34-7.81,7.69,7.69,0,0,0-4.34-7.21c-2.07-1-4.62-.73-7.16-.56a19.86,19.86,0,0,0-7,1.36,19,19,0,0,0-5.62,4.45c-2.42,2.55-4.09,5.16-4,7.72a8.16,8.16,0,0,0,5,7.08,14.33,14.33,0,0,0,7.12.89,19.87,19.87,0,0,0,6.9-1.83A18.8,18.8,0,0,0,273.37,157Z"/><path class="b" d="M273.37,157a10.9,10.9,0,0,0,3.34-7.81,7.69,7.69,0,0,0-4.34-7.21c-2.07-1-4.62-.73-7.16-.56a19.86,19.86,0,0,0-7,1.36,19,19,0,0,0-5.62,4.45c-2.42,2.55-4.09,5.16-4,7.72a8.16,8.16,0,0,0,5,7.08,14.33,14.33,0,0,0,7.12.89,19.87,19.87,0,0,0,6.9-1.83A18.8,18.8,0,0,0,273.37,157Z"/><path d="M19.13,173.91C21,177,21.39,176.63,24,179.13s2.52,2.54,5.09,5,3,2,5.61,4.52,2,3.09,4.56,5.59,2.6,2.47,5.17,5,2.43,2.65,5,5.15,3,2.08,5.54,4.59,2.58,2.48,5.15,5,2.53,2.55,5.1,5.05,2.79,2.28,5.36,4.79,2.51,2.55,5.13,5,1.78,2,5.71,3.42a30.44,30.44,0,0,0,6.51,2,40.81,40.81,0,0,0,6.8-.07,45.25,45.25,0,0,0,6.67-1,51.3,51.3,0,0,0,6.58-1.52,62.3,62.3,0,0,0,6.38-2.28c2-.87,3.79-2.22,5.88-3.38,1.75-1,4-2,6.46-3.38,1.91-1.1,3.83-2.65,6.11-4,2-1.16,4.5-1.66,6.71-3,2-1.18,3.94-2.68,6.12-4,2-1.2,4.13-2.4,6.28-3.69s3.89-2.84,6-4.12,4.47-1.91,6.59-3.18,3.9-2.87,6-4.14,4.42-2,6.52-3.3,3.75-3.15,5.84-4.41,4.4-2.08,6.49-3.35,4-2.8,6.06-4.07,4.32-2.25,6.4-3.51,4.08-2.67,6.15-3.93,4-2.88,6-4.14,4.13-2.61,6.18-3.87,4.63-1.8,6.68-3.05,4.21-2.5,6.26-3.75,4.18-2.58,6.21-3.83,4-3,6-4.19,4-2.89,6-4.12,4.18-2.68,6.16-3.9c2.19-1.34,4.46-2.3,6.41-3.5,2.24-1.37,4.38-2.56,6.27-3.72,2.38-1.46,4.2-3.16,6-4.23,4-2.43,3.43-1.37,6.56-3.23,3-1.76,2.23-1.26,5.55-4.11a67.23,67.23,0,0,0,5-4.74c1.44-1.51,2.86-3.35,4.41-5.31,1.34-1.68,2.31-3.8,3.67-5.83,1.21-1.81,2.67-3.59,3.86-5.68,1.08-1.91,2.5-3.77,3.52-5.94.95-2,1.22-4.38,2.09-6.59.81-2.06,2-4.08,2.68-6.34a65,65,0,0,0,2.15-6.81A44.76,44.76,0,0,0,316,70a36.77,36.77,0,0,0-.12-7.11,28.83,28.83,0,0,0-2.26-6.73,26.6,26.6,0,0,0-3.67-6A28.92,28.92,0,0,0,305.22,45a35,35,0,0,0-5.76-4.19,42.65,42.65,0,0,0-6.74-2.31,48.69,48.69,0,0,0-6.91-1.6,51.36,51.36,0,0,0-7.07-.35,50.64,50.64,0,0,0-7.1-.09,38.5,38.5,0,0,0-6.93,1.57,23.37,23.37,0,0,0-6.43,3c-2,1.45-3.93,2.86-5.75,4.18-2,1.47-3.73,3.15-5.54,4.47-2,1.49-3.88,3-5.68,4.29-2,1.49-4.07,2.69-5.87,4-2,1.49-4.25,2.39-6.07,3.75s-3.28,3.61-5.15,5c-1.43,1.05-3.51,2.35-6,4-1.77,1.18-3.85,2.42-6.08,3.87-1.87,1.22-4.14,2.14-6.31,3.52-1.93,1.23-4,2.45-6.13,3.79-2,1.24-3.64,3.08-5.74,4.41s-4,2.49-6.13,3.79-4.12,2.37-6.21,3.66-4.33,2.06-6.4,3.35-3.88,2.81-5.95,4.09-4.28,2.17-6.35,3.44-3.84,2.9-5.9,4.16-4.33,2.11-6.39,3.37-3.82,3-5.87,4.21-4,2.72-6,4-4.28,2.23-6.33,3.48-4,2.68-6.06,3.92-4,2.64-6.09,3.87-4.2,2.39-6.23,3.63-4.48,2-6.51,3.18-4.11,2.58-6.13,3.81-4.1,2.63-6.1,3.85-4,2.76-6,4-4,2.87-6,4.06c-2.17,1.31-4.37,2.32-6.31,3.49-2.23,1.34-4.14,2.84-6,4-2.36,1.42-4.84,2-6.58,3a40.55,40.55,0,0,0-5.88,4.15c-2.72,2-1.91,1.45-6.05,3.07a40.88,40.88,0,0,1-6.49,1.95,58.31,58.31,0,0,1-6.72.88c-2.07.19-4.31,0-6.77,0-2.11,0-4.4.61-6.81.42C23.51,175,21.5,174.25,19.13,173.91Z"/><path class="b" d="M19.13,173.91C21,177,21.39,176.63,24,179.13s2.52,2.54,5.09,5,3,2,5.61,4.52,2,3.09,4.56,5.59,2.6,2.47,5.17,5,2.43,2.65,5,5.15,3,2.08,5.54,4.59,2.58,2.48,5.15,5,2.53,2.55,5.1,5.05,2.79,2.28,5.36,4.79,2.51,2.55,5.13,5,1.78,2,5.71,3.42a30.44,30.44,0,0,0,6.51,2,40.81,40.81,0,0,0,6.8-.07,45.25,45.25,0,0,0,6.67-1,51.3,51.3,0,0,0,6.58-1.52,62.3,62.3,0,0,0,6.38-2.28c2-.87,3.79-2.22,5.88-3.38,1.75-1,4-2,6.46-3.38,1.91-1.1,3.83-2.65,6.11-4,2-1.16,4.5-1.66,6.71-3,2-1.18,3.94-2.68,6.12-4,2-1.2,4.13-2.4,6.28-3.69s3.89-2.84,6-4.12,4.47-1.91,6.59-3.18,3.9-2.87,6-4.14,4.42-2,6.52-3.3,3.75-3.15,5.84-4.41,4.4-2.08,6.49-3.35,4-2.8,6.06-4.07,4.32-2.25,6.4-3.51,4.08-2.67,6.15-3.93,4-2.88,6-4.14,4.13-2.61,6.18-3.87,4.63-1.8,6.68-3.05,4.21-2.5,6.26-3.75,4.18-2.58,6.21-3.83,4-3,6-4.19,4-2.89,6-4.12,4.18-2.68,6.16-3.9c2.19-1.34,4.46-2.3,6.41-3.5,2.24-1.37,4.38-2.56,6.27-3.72,2.38-1.46,4.2-3.16,6-4.23,4-2.43,3.43-1.37,6.56-3.23,3-1.76,2.23-1.26,5.55-4.11a67.23,67.23,0,0,0,5-4.74c1.44-1.51,2.86-3.35,4.41-5.31,1.34-1.68,2.31-3.8,3.67-5.83,1.21-1.81,2.67-3.59,3.86-5.68,1.08-1.91,2.5-3.77,3.52-5.94.95-2,1.22-4.38,2.09-6.59.81-2.06,2-4.08,2.68-6.34a65,65,0,0,0,2.15-6.81A44.76,44.76,0,0,0,316,70a36.77,36.77,0,0,0-.12-7.11,28.83,28.83,0,0,0-2.26-6.73,26.6,26.6,0,0,0-3.67-6A28.92,28.92,0,0,0,305.22,45a35,35,0,0,0-5.76-4.19,42.65,42.65,0,0,0-6.74-2.31,48.69,48.69,0,0,0-6.91-1.6,51.36,51.36,0,0,0-7.07-.35,50.64,50.64,0,0,0-7.1-.09,38.5,38.5,0,0,0-6.93,1.57,23.37,23.37,0,0,0-6.43,3c-2,1.45-3.93,2.86-5.75,4.18-2,1.47-3.73,3.15-5.54,4.47-2,1.49-3.88,3-5.68,4.29-2,1.49-4.07,2.69-5.87,4-2,1.49-4.25,2.39-6.07,3.75s-3.28,3.61-5.15,5c-1.43,1.05-3.51,2.35-6,4-1.77,1.18-3.85,2.42-6.08,3.87-1.87,1.22-4.14,2.14-6.31,3.52-1.93,1.23-4,2.45-6.13,3.79-2,1.24-3.64,3.08-5.74,4.41s-4,2.49-6.13,3.79-4.12,2.37-6.21,3.66-4.33,2.06-6.4,3.35-3.88,2.81-5.95,4.09-4.28,2.17-6.35,3.44-3.84,2.9-5.9,4.16-4.33,2.11-6.39,3.37-3.82,3-5.87,4.21-4,2.72-6,4-4.28,2.23-6.33,3.48-4,2.68-6.06,3.92-4,2.64-6.09,3.87-4.2,2.39-6.23,3.63-4.48,2-6.51,3.18-4.11,2.58-6.13,3.81-4.1,2.63-6.1,3.85-4,2.76-6,4-4,2.87-6,4.06c-2.17,1.31-4.37,2.32-6.31,3.49-2.23,1.34-4.14,2.84-6,4-2.36,1.42-4.84,2-6.58,3a40.55,40.55,0,0,0-5.88,4.15c-2.72,2-1.91,1.45-6.05,3.07a40.88,40.88,0,0,1-6.49,1.95,58.31,58.31,0,0,1-6.72.88c-2.07.19-4.31,0-6.77,0-2.11,0-4.4.61-6.81.42C23.51,175,21.5,174.25,19.13,173.91Z"/><path d="M106.48,168.13c1.31,0,1.31.05,2.62.05"/><path class="d" d="M106.48,168.13c1.31,0,1.31.05,2.62.05"/><path d="M126.6,187.41c1.31,0,1.31-.55,2.62-.55"/><path class="d" d="M126.6,187.41c1.31,0,1.31-.55,2.62-.55"/><path d="M222,98.26h2.62"/><path class="d" d="M222,98.26h2.62"/><path d="M243,121.38c1.31,0,1.31-.24,2.62-.24"/><path class="d" d="M243,121.38c1.31,0,1.31-.24,2.62-.24"/><path class="b" d="M147.91,562.86c-2.39,2.67,1.19,2.21,2.35,6.64.51,2,1.07,4.31,1.65,7,.46,2.13.27,4.62.72,7.17.39,2.22.76,4.58,1.11,7.08.32,2.26.75,4.61,1,7.09.24,2.29.86,4.65,1,7.11s.25,4.72.34,7.17-.38,4.74-.37,7.18.41,4.74.33,7.17-.65,4.71-.82,7.14.12,4.77-.13,7.19-.83,4.69-1.17,7.09-.7,4.7-1.13,7.08-1.26,4.59-1.78,7-.58,4.75-1.2,7.09-1.12,4.2-1.84,6.51c3.05,1.94,2.32-.46,6.52-2.23,1.89-.8,4.09-1.78,6.68-2.7,2.08-.75,4.28-1.8,6.76-2.55,2.18-.66,4.52-1.27,7-1.89,2.25-.56,4.54-1.41,7-1.89,2.3-.45,4.76-.32,7.21-.67s4.71-.66,7.16-.87,4.74-.6,7.2-.67,4.77.28,7.22.37,4.75.36,7.18.6,4.83-.07,7.24.34,4.69,1,7.06,1.6,4.61,1.3,6.93,2.05,4.51,1.6,6.77,2.52,4.64,1.38,6.83,2.47,4.28,2.84,6.39,4.09c2.54-2.58-1.51-2.66-2.71-7.07-.54-2-.86-4.43-1.51-7.1-.52-2.16-.48-4.66-1-7.2-.48-2.24-1.73-4.47-2.2-7-.43-2.3-.26-4.78-.65-7.25s-1.35-4.64-1.66-7.09.31-4.86.08-7.3-.56-4.77-.69-7.21-.37-4.81-.4-7.23,0-4.83.09-7.24-.36-4.88-.15-7.28,1.32-4.73,1.69-7.1.24-4.89.78-7.22,1-4.81,1.7-7.08a67.29,67.29,0,0,1,2.83-6.71,59.29,59.29,0,0,1,3.69-6.44c-2.61-2.41-2.38,1.53-6.68,2.89-1.91.61-4.41.59-7,1.29-2.1.56-4.41,1.05-6.9,1.61q-3.27.73-6.95,1.41c-2.23.41-4.51,1.16-6.94,1.5-2.27.32-4.62.62-7,.86s-4.66.4-7.08.54-4.68.31-7.1.34-4.7.08-7.11,0-4.66-.76-7.06-.94-4.66-.47-7-.77-4.77.08-7.13-.34-4.5-1.51-6.83-2.06-4.67-.73-7-1.41-4.6-1.13-6.86-1.93S150.11,563.79,147.91,562.86Z"/><path class="b" d="M147.74,562.55c3.6-.66,2.75-.51,7-2a69.24,69.24,0,0,0,6.69-2.9,68.47,68.47,0,0,0,6.33-3.61c2-1.24,4.38-2.07,6.37-3.67a63.7,63.7,0,0,0,5.3-5.1,50.58,50.58,0,0,0,9.15-11.48c1.2-2,1.78-4.49,2.8-6.81a58.17,58.17,0,0,0,2.82-6.47c3.31-1.22,2,1.37,6.07,3.11,1.84.79,4.07,1.7,6.6,2.59,2,.72,4.58.54,7,1.23,2.14.61,4.27,1.8,6.68,2.33,2.21.48,4.53,1,6.94,1.34,2.26.34,4.59.85,7,1.06s4.68-.35,7.09-.31,4.66.29,7.06.16,4.67-.27,7-.58,4.62-.72,7-1.21,4.61-.85,6.91-1.52,4.44-1.48,6.69-2.33,4.3-1.84,6.47-2.86,4.12-2.13,6.21-3.31c2.35,2.72-1.26,2.32-2.66,6.66-.62,1.93-1.45,4.22-2.17,6.87-.58,2.12-.39,4.64-1,7.17-.5,2.21-1.56,4.44-2,6.92-.42,2.26-.66,4.66-1,7.12-.33,2.3-.35,4.71-.6,7.16s-.76,4.69-.9,7.14-.06,4.75-.09,7.19.1,4.75.18,7.18-.25,4.78-.05,7.21.56,4.74.87,7.15.84,4.69,1.28,7.08.43,4.79,1,7.15,1.25,4.63,1.94,7,1.48,4.55,2.3,6.84,2.39,4.61,3.33,6.85c-1.86,2.95-3.12.18-6.9,2.25a38.93,38.93,0,0,0-5.53,4.22c-1.62,1.35-3.82,2.46-5.47,4.4a49,49,0,0,0-3.88,5.86,57.48,57.48,0,0,0-2.89,6.35,59.14,59.14,0,0,0-3,6.32c-.68,2.1-.55,4.53-1.09,6.92-.49,2.16-1.73,4.29-2.08,6.71"/><path class="b" d="M252.87,564.63c3.68.6,2.29.32,6.71-2.39,1.68-1,4.1-1.89,6.28-4,1.55-1.5,2.61-3.86,4.38-6.08,1.4-1.75,3.38-3.35,4.91-5.62,1.28-1.9,2.38-4.14,3.73-6.45,1.18-2,2.27-4.23,3.5-6.57,1.09-2.08,2.11-4.33,3.24-6.7,1-2.14,2.63-4.13,3.68-6.51"/><path class="b" d="M546.78,205.66c-2.52,2.38.72,2.42,1.79,6.71.47,1.9,1.09,4.15,1.61,6.76.41,2.08,1,4.34,1.37,6.82.33,2.16.22,4.51.49,6.94.24,2.2.77,4.48.93,6.89.15,2.23.37,4.55.43,6.94s.21,4.58.16,7-.73,4.56-.88,6.92.31,4.63.06,7-1,4.51-1.37,6.84-.36,4.61-.83,6.92S549,285.68,548.4,288s-1,4.63-1.69,6.88c3,1.84,2.33-1.51,6.38-3.16,1.85-.75,4.05-1.62,6.57-2.46,2-.68,4.23-1.65,6.65-2.29,2.14-.57,4.51-.84,6.91-1.32,2.21-.44,4.57-.5,7-.82s4.54-1,6.93-1.18,4.65-.24,7-.22,4.58,1,6.95,1.25,4.73-.43,7.07,0,4.47,1.34,6.76,2,4.51,1.12,6.74,1.94,4.28,1.8,6.43,2.83,4.06,2.14,6.11,3.35c2.43-2.53-.5-2.55-1.62-6.79-.51-1.94-1.56-4.12-2.15-6.7-.48-2.11-1-4.41-1.5-6.87-.43-2.19-.45-4.58-.83-7-.36-2.24-.92-4.54-1.21-6.92s0-4.67-.16-7-.53-4.63-.61-7-.21-4.67-.15-7,.19-4.68.41-7,.37-4.7.77-7,.78-4.67,1.41-6.89a57.07,57.07,0,0,1,2.11-6.74,39.66,39.66,0,0,1,3.3-5.69c-3.07-2.11-2.24.79-6.73,2.14-2,.61-4.54.91-7.29,1.57-2.22.53-4.58,1.45-7.21,1.93-2.32.42-4.79.81-7.37,1.14-2.37.3-4.9,0-7.47.14-2.41.18-4.87.66-7.42.7s-4.92.2-7.46.09-4.91-.42-7.43-.7-4.89-.66-7.37-1.1-4.87-.85-7.31-1.47-4.84-1.1-7.23-1.9S549.1,206.65,546.78,205.66Z"/><path class="b" d="M546.79,205.73c3.64-.67,2.88-.56,7.06-2.22a59.46,59.46,0,0,0,6.5-3.51,51.84,51.84,0,0,0,6.07-4.15,47.16,47.16,0,0,0,5.64-4.74c1.63-1.72,3.7-3.25,5.16-5.38,1.34-2,1.77-4.55,2.88-6.88a52.61,52.61,0,0,0,3-7c3.31-1.23,2.54,1.43,6.61,3.08,1.87.76,4,2,6.5,2.81,2.08.65,4.36,1.37,6.82,1.94,2.18.5,4.63.29,7.07.65,2.25.33,4.56.61,7,.76s4.62.35,7,.28,4.7.29,7.1,0,4.57-1,6.92-1.56a70.51,70.51,0,0,0,6.94-1.51c2.19-.72,4.24-2,6.45-3a65.28,65.28,0,0,0,6-2.85c2.38,2.54-.59,2.12-1.89,6.32-.58,1.88-1,4.19-1.63,6.76-.52,2.07-1.35,4.26-1.83,6.72-.43,2.15-.63,4.47-1,6.89-.32,2.21-.45,4.52-.68,6.91-.21,2.24-.51,4.54-.6,6.92s-.78,4.59-.74,7,.21,4.61.38,7,.53,4.59.84,6.93.95,4.52,1.41,6.83,1.34,4.4,1.95,6.68,1,4.49,1.76,6.72,1.78,4.68,2.69,6.85c-2.14,3-3.43,0-7.21,2.42-1.74,1.11-3.36,3-5.29,5.08a34.28,34.28,0,0,0-4.61,5.65,43.59,43.59,0,0,0-3.26,6.55,53.47,53.47,0,0,0-2.38,6.93,65.88,65.88,0,0,0-1.67,7.16"/><path class="b" d="M629.49,207.13c3.3.54,2,.26,5.92-2.36a28,28,0,0,0,5.13-4.18,47.94,47.94,0,0,0,4.6-4.89c1.19-1.62,2.13-3.68,3.42-5.78,1.08-1.75,2.2-3.67,3.34-5.79,1-1.84,1.77-3.93,2.8-6.07.92-1.9,2.27-3.73,3.23-5.89"/><line class="b" x1="602.5" y1="196" x2="602.5" y2="197"/><path class="b" d="M588.28,248.06c.12,0,.14,0,.26,0"/><line class="b" x1="638.5" y1="239" x2="638.5" y2="239"/><path class="b" d="M234,587.4c-.5,0-.5.11-1,.11"/><path class="b" d="M200.19,619.26c.63-.66.74-.55,1.36-1.21"/><path class="b" d="M168.86,652c0-1-.81-1-.81-2"/><path class="b" d="M218,552.25c1.5,0,1.5.34,3,.34"/><path class="b" d="M263,604.43c.25.38.71.07,1,.44"/></svg>