<svg xmlns="http://www.w3.org/2000/svg" viewBox="0 0 800 800"><defs><style>.a{fill:#fff;}.b{fill:none;stroke:#000;stroke-linejoin:bevel;stroke-width:13px;}</style></defs><title>canvas (49)</title><polygon class="a" points="568.7 126.63 561.61 125.81 554.64 124.09 547.55 123.27 540.41 122.93 533.3 122.32 526.2 121.75 519.09 121.03 511.98 120.44 504.82 120.75 497.7 120.04 490.56 119.97 483.43 120.08 476.31 120.92 469.18 121.05 462.05 121.21 454.92 121.5 447.78 121.72 440.7 122.75 433.6 123.36 426.56 124.55 419.4 124.88 412.41 126.38 405.39 127.65 398.26 128.3 391.38 130.29 384.26 131.11 377.43 133.27 370.3 134.15 363.6 136.74 356.75 138.7 349.69 140.02 343.15 142.99 336.15 144.57 329.69 147.66 322.88 149.85 316.22 152.42 309.92 155.81 303.7 159.3 297 161.89 291.06 165.86 284.72 169.18 279.05 173.52 273.31 177.75 267.73 182.17 262.51 187.03 257.7 192.27 252.69 197.44 247.6 202.54 242.72 207.83 238.33 213.57 232.89 218.34 228.22 223.84 223.57 229.34 218.67 234.61 214 240.09 208.77 245.07 203.94 250.4 198.85 255.5 194.46 261.25 189.18 266.17 184.3 271.47 179.44 276.79 174.84 282.34 169.85 287.54 165.03 292.89 159.87 297.93 155.01 303.24 150.44 308.82 145.66 314.22 140.7 319.45 135.89 324.81 130.68 329.8 126.48 335.72 121.3 340.74 116.16 345.8 111.69 351.48 106.83 356.81 102.17 362.3 97.15 367.49 92.38 372.9 87.61 377.81 94.1 379.58 101.14 380.36 108.14 381.4 115.13 382.45 122.13 383.51 129.11 384.64 136.1 385.69 143.06 386.93 149.97 388.53 156.97 389.5 163.99 390.43 170.85 392.25 177.96 392.65 184.87 394.29 192.02 395.85 196.81 390.22 201.35 384.68 206.34 379.55 210.91 374.05 215.92 368.92 220.66 363.57 225.57 358.36 230.73 353.39 235.1 347.69 240.2 342.66 244.85 337.21 249.53 331.8 255.01 327.11 259.36 321.39 264.25 316.16 269.32 311.1 274.17 305.84 278.98 300.54 283.86 295.3 288.4 289.75 293.69 284.89 298.12 279.23 302.85 273.87 308.09 268.95 312.32 263.13 317.37 258.05 322.31 252.86 326.94 247.39 332.37 242.66 336.54 236.76 341.39 231.49 346.23 226.21 351.15 221 356.55 216.21 361.27 210.85 367.19 206.82 372.82 202.39 379.23 199.18 385.44 195.59 392.33 193.51 399.05 191.11 405.75 188.64 412.71 186.99 419.63 185.25 426.52 183.32 433.56 182.12 440.54 180.4 447.69 179.84 454.86 179.68 461.95 178.6 469.11 178.55 476.26 177.99 483.42 178.1 490.57 178.55 497.68 179.4 504.86 179.45 511.92 180.68 518.95 182 526.12 182.73 533.16 184.16 539.93 186.65 547.06 187.9 553.62 190.9 560.18 193.79 566.6 196.94 572.9 200.36 578.98 204.22 584.14 209.24 588.89 214.64 592.35 220.97 594.44 227.9 594.48 235.17 591.9 241.91 588.55 248.2 584.14 253.82 579.3 259.09 574.72 264.59 569.46 269.47 565.16 275.23 559.84 280.06 555.28 285.59 550.26 290.69 545.4 295.94 540.89 301.51 536.09 306.81 531.4 312.23 526.45 317.4 521.25 322.33 516.88 328.04 512.13 333.39 507.08 338.48 502.39 343.88 497.33 348.95 492.5 354.24 487.45 359.32 482.52 364.51 477.91 370 473.3 375.48 468.26 380.57 463.1 385.55 458.6 391.14 453.97 396.61 448.73 401.52 444.25 407.13 439.31 412.31 434.74 417.83 429.8 423.03 424.95 428.31 419.78 433.45 426.86 434.22 433.66 435.97 440.53 437.31 447.44 438.42 454.41 439.17 461.37 440.01 468.19 441.64 475.13 442.52 482.04 443.67 488.88 445.17 495.78 446.34 502.77 446.98 509.7 447.95 516.61 449.14 523.39 450.5 528.28 445.33 533.5 440.35 538.09 434.8 542.54 429.12 547.56 423.95 552.97 419.15 557.59 413.61 562 407.89 567.1 402.8 572.09 397.61 576.7 392.07 581.77 386.95 586.75 381.74 591.24 376.09 596.06 370.74 601.09 365.59 606.42 360.7 611.13 355.25 615.82 349.78 620.65 344.44 625.38 339 630.75 334.15 635.07 328.33 640.2 323.27 645.32 318.19 649.95 312.67 654.66 307.22 659.72 302.08 664.37 296.56 669.09 291.12 674.39 286.2 679.15 280.79 684.29 275.73 688.81 270.08 693.59 264.68 698.05 258.93 702.43 253.14 706.28 246.97 708.87 240.18 711.69 233.45 712.31 226.17 712.75 218.92 711.58 211.73 709.66 204.72 706.73 198.06 703.36 191.58 699.12 185.62 694.33 180.08 688.97 175.11 683 170.89 677.67 165.85 671.11 162.55 664.99 158.62 658.56 155.22 652.23 151.62 645.75 148.24 638.83 145.89 632 143.38 625.13 140.97 618.4 138.1 611.32 136.37 604.24 134.63 597.29 132.38 590.13 131.01 582.96 129.67 575.83 128.17 568.7 126.63"/><polygon class="b" points="568.7 126.63 561.61 125.81 554.64 124.09 547.55 123.27 540.41 122.93 533.3 122.32 526.2 121.75 519.09 121.03 511.98 120.44 504.82 120.75 497.7 120.04 490.56 119.97 483.43 120.08 476.31 120.92 469.18 121.05 462.05 121.21 454.92 121.5 447.78 121.72 440.7 122.75 433.6 123.36 426.56 124.55 419.4 124.88 412.41 126.38 405.39 127.65 398.26 128.3 391.38 130.29 384.26 131.11 377.43 133.27 370.3 134.15 363.6 136.74 356.75 138.7 349.69 140.02 343.15 142.99 336.15 144.57 329.69 147.66 322.88 149.85 316.22 152.42 309.92 155.81 303.7 159.3 297 161.89 291.06 165.86 284.72 169.18 279.05 173.52 273.31 177.75 267.73 182.17 262.51 187.03 257.7 192.27 252.69 197.44 247.6 202.54 242.72 207.83 238.33 213.57 232.89 218.34 228.22 223.84 223.57 229.34 218.67 234.61 214 240.09 208.77 245.07 203.94 250.4 198.85 255.5 194.46 261.25 189.18 266.17 184.3 271.47 179.44 276.79 174.84 282.34 169.85 287.54 165.03 292.89 159.87 297.93 155.01 303.24 150.44 308.82 145.66 314.22 140.7 319.45 135.89 324.81 130.68 329.8 126.48 335.72 121.3 340.74 116.16 345.8 111.69 351.48 106.83 356.81 102.17 362.3 97.15 367.49 92.38 372.9 87.61 377.81 94.1 379.58 101.14 380.36 108.14 381.4 115.13 382.45 122.13 383.51 129.11 384.64 136.1 385.69 143.06 386.93 149.97 388.53 156.97 389.5 163.99 390.43 170.85 392.25 177.96 392.65 184.87 394.29 192.02 395.85 196.81 390.22 201.35 384.68 206.34 379.55 210.91 374.05 215.92 368.92 220.66 363.57 225.57 358.36 230.73 353.39 235.1 347.69 240.2 342.66 244.85 337.21 249.53 331.8 255.01 327.11 259.36 321.39 264.25 316.16 269.32 311.1 274.17 305.84 278.98 300.54 283.86 295.3 288.4 289.75 293.69 284.89 298.12 279.23 302.85 273.87 308.09 268.95 312.32 263.13 317.37 258.05 322.31 252.86 326.94 247.39 332.37 242.66 336.54 236.76 341.39 231.49 346.23 226.21 351.15 221 356.55 216.21 361.27 210.85 367.19 206.82 372.82 202.39 379.23 199.18 385.44 195.59 392.33 193.51 399.05 191.11 405.75 188.64 412.71 186.99 419.63 185.25 426.52 183.32 433.56 182.12 440.54 180.4 447.69 179.84 454.86 179.68 461.95 178.6 469.11 178.55 476.26 177.99 483.42 178.1 490.57 178.55 497.68 179.4 504.86 179.45 511.92 180.68 518.95 182 526.12 182.73 533.16 184.16 539.93 186.65 547.06 187.9 553.62 190.9 560.18 193.79 566.6 196.94 572.9 200.36 578.98 204.22 584.14 209.24 588.89 214.64 592.35 220.97 594.44 227.9 594.48 235.17 591.9 241.91 588.55 248.2 584.14 253.82 579.3 259.09 574.72 264.59 569.46 269.47 565.16 275.23 559.84 280.06 555.28 285.59 550.26 290.69 545.4 295.94 540.89 301.51 536.09 306.81 531.4 312.23 526.45 317.4 521.25 322.33 516.88 328.04 512.13 333.39 507.08 338.48 502.39 343.88 497.33 348.95 492.5 354.24 487.45 359.32 482.52 364.51 477.91 370 473.3 375.48 468.26 380.57 463.1 385.55 458.6 391.14 453.97 396.61 448.73 401.52 444.25 407.13 439.31 412.31 434.74 417.83 429.8 423.03 424.95 428.31 419.78 433.45 426.86 434.22 433.66 435.97 440.53 437.31 447.44 438.42 454.41 439.17 461.37 440.01 468.19 441.64 475.13 442.52 482.04 443.67 488.88 445.17 495.78 446.34 502.77 446.98 509.7 447.95 516.61 449.14 523.39 450.5 528.28 445.33 533.5 440.35 538.09 434.8 542.54 429.12 547.56 423.95 552.97 419.15 557.59 413.61 562 407.89 567.1 402.8 572.09 397.61 576.7 392.07 581.77 386.95 586.75 381.74 591.24 376.09 596.06 370.74 601.09 365.59 606.42 360.7 611.13 355.25 615.82 349.78 620.65 344.44 625.38 339 630.75 334.15 635.07 328.33 640.2 323.27 645.32 318.19 649.95 312.67 654.66 307.22 659.72 302.08 664.37 296.56 669.09 291.12 674.39 286.2 679.15 280.79 684.29 275.73 688.81 270.08 693.59 264.68 698.05 258.93 702.43 253.14 706.28 246.97 708.87 240.18 711.69 233.45 712.31 226.17 712.75 218.92 711.58 211.73 709.66 204.72 706.73 198.06 703.36 191.58 699.12 185.62 694.33 180.08 688.97 175.11 683 170.89 677.67 165.85 671.11 162.55 664.99 158.62 658.56 155.22 652.23 151.62 645.75 148.24 638.83 145.89 632 143.38 625.13 140.97 618.4 138.1 611.32 136.37 604.24 134.63 597.29 132.38 590.13 131.01 582.96 129.67 575.83 128.17 568.7 126.63"/><polygon class="a" points="568.62 77.09 561.6 75.84 554.55 74.82 547.49 73.84 540.41 72.9 533.31 72.25 526.19 71.81 519.06 71.55 511.96 70.87 504.83 70.44 497.7 69.98 490.56 70.66 483.43 70.69 476.29 70.28 469.19 71.23 462.02 70.74 454.9 71.19 447.78 71.75 440.73 73.03 433.64 73.74 426.47 73.84 419.44 75.16 412.38 76.2 405.33 77.27 398.33 78.66 391.22 79.47 384.39 81.7 377.29 82.64 370.33 84.26 363.48 86.28 356.68 88.46 349.94 90.83 342.95 92.4 336.32 95.03 329.76 97.84 322.97 100.05 316.56 103.2 310.03 106.05 303.68 109.27 297.26 112.36 290.82 115.47 285.11 119.78 278.86 123.26 273.34 127.78 267.55 131.97 262.46 136.97 257.26 141.86 252.31 147.1 247.65 152.59 243.12 158.19 237.99 163.25 233.13 168.56 228.03 173.66 223.23 179.02 218.66 184.59 213.82 189.93 208.51 194.83 203.75 200.22 198.76 205.42 194.04 210.87 189.48 216.45 184.67 221.81 179.76 227.07 174.69 232.2 169.85 237.53 164.86 242.73 159.9 247.95 155.49 253.68 150.53 258.91 145.74 264.29 140.96 269.68 136.11 275 131.32 280.38 126.41 285.65 121.54 290.96 116.61 296.22 111.62 301.42 107.02 306.98 102.11 312.25 96.68 317.06 92.12 322.66 87.4 327.88 94.2 329.02 101.2 330.04 108.1 331.66 115.11 332.56 122.14 333.43 128.99 335.37 135.99 336.35 143 337.32 149.97 338.51 156.91 339.89 163.88 341.09 170.99 341.44 177.83 343.43 184.81 344.65 191.97 345.69 197.06 340.44 201.59 334.9 206.24 329.47 211.34 324.43 215.83 318.84 220.48 313.4 225.36 308.18 230.27 302.97 235.46 298.02 239.94 292.42 244.95 287.31 249.82 282.06 254.31 276.47 259.79 271.78 264 265.93 269.35 261.13 273.8 255.5 278.97 250.53 283.82 245.26 288.69 240.02 293 234.25 297.82 228.96 302.8 223.82 307.87 218.76 312.33 213.14 317.61 208.26 322.49 203.03 326.91 197.37 332.36 192.64 336.57 186.79 341.38 181.48 346.89 176.81 351.26 171.09 355.88 165.6 361.4 160.91 366.52 155.79 372.52 151.76 378.59 147.87 384.77 144.15 391.39 141.25 397.96 138.28 404.68 135.61 411.84 134.37 418.67 132 425.69 130.31 432.91 129.74 440.03 128.63 447.2 127.84 454.4 127.55 461.6 127.2 468.81 127.14 476.02 126.89 483.24 127.18 490.38 128.44 497.55 129.11 504.75 129.5 511.87 130.69 518.94 132.07 526.05 133.05 533.19 134.06 540.08 136.14 547.02 138.01 553.78 140.48 560.35 143.4 566.54 147.06 572.82 150.48 578.71 154.56 583.84 159.53 588.57 164.87 592.19 171.04 593.68 178 594.48 185.17 592.28 192.07 588.96 198.47 584.6 204.24 579.64 209.4 574.93 214.78 569.42 219.43 565.02 225.1 560.45 230.62 555.01 235.34 550.48 240.89 545.31 245.86 541 251.62 535.96 256.69 531.1 261.95 526.17 267.14 521.56 272.62 516.45 277.65 511.56 282.87 507.1 288.49 501.96 293.49 497.06 298.71 492.21 303.98 487.69 309.54 482.57 314.56 477.99 320.08 473.35 325.52 468.55 330.84 463.55 335.96 458.42 340.97 453.62 346.28 449.14 351.89 444.17 357.05 439 362.03 434.32 367.46 429.39 372.65 424.54 377.93 420.3 383.29 426.72 385.05 433.68 385.9 440.59 386.99 447.58 387.57 454.44 388.97 461.32 390.31 468.25 391.27 475.17 392.32 482.01 393.82 488.98 394.59 495.82 396.11 502.81 396.75 509.6 398.6 516.5 399.81 523.62 401.14 528.61 395.63 533.42 390.27 538.15 384.86 542.97 379.51 547.64 374.03 552.66 368.86 557.57 363.6 562.01 357.9 567.54 353.21 572.24 347.75 576.86 342.22 581.98 337.15 586.77 331.77 591.59 326.42 596.38 321.03 601.34 315.81 606.14 310.45 611.29 305.4 615.82 299.78 621.06 294.81 625.23 288.86 630.31 283.75 635.23 278.49 639.8 272.9 645.05 267.94 649.87 262.59 654.46 257.03 659.3 251.69 664.3 246.51 669.48 241.48 674.4 236.21 678.81 230.48 684.07 225.52 689 220.26 693.34 214.45 698.71 209.44 702.98 203.5 706.09 196.87 709.75 190.52 711.46 183.39 712.75 176.21 713.16 168.89 711.8 161.69 710.12 154.56 706.58 148.14 703.28 141.63 698.48 136.14 693.98 130.42 689.12 124.95 683.41 120.37 677.56 116 671.32 112.21 665.1 108.44 658.59 105.18 652.16 101.75 645.81 98.11 638.73 96.15 632.17 92.93 625.13 90.97 618.34 88.29 611.44 85.92 604.45 83.83 597.22 82.66 590.15 80.9 582.99 79.52 575.79 78.38 568.62 77.09"/><polygon class="b" points="568.62 77.09 561.6 75.84 554.55 74.82 547.49 73.84 540.41 72.9 533.31 72.25 526.19 71.81 519.06 71.55 511.96 70.87 504.83 70.44 497.7 69.98 490.56 70.66 483.43 70.69 476.29 70.28 469.19 71.23 462.02 70.74 454.9 71.19 447.78 71.75 440.73 73.03 433.64 73.74 426.47 73.84 419.44 75.16 412.38 76.2 405.33 77.27 398.33 78.66 391.22 79.47 384.39 81.7 377.29 82.64 370.33 84.26 363.48 86.28 356.68 88.46 349.94 90.83 342.95 92.4 336.32 95.03 329.76 97.84 322.97 100.05 316.56 103.2 310.03 106.05 303.68 109.27 297.26 112.36 290.82 115.47 285.11 119.78 278.86 123.26 273.34 127.78 267.55 131.97 262.46 136.97 257.26 141.86 252.31 147.1 247.65 152.59 243.12 158.19 237.99 163.25 233.13 168.56 228.03 173.66 223.23 179.02 218.66 184.59 213.82 189.93 208.51 194.83 203.75 200.22 198.76 205.42 194.04 210.87 189.48 216.45 184.67 221.81 179.76 227.07 174.69 232.2 169.85 237.53 164.86 242.73 159.9 247.95 155.49 253.68 150.53 258.91 145.74 264.29 140.96 269.68 136.11 275 131.32 280.38 126.41 285.65 121.54 290.96 116.61 296.22 111.62 301.42 107.02 306.98 102.11 312.25 96.68 317.06 92.12 322.66 87.4 327.88 94.2 329.02 101.2 330.04 108.1 331.66 115.11 332.56 122.14 333.43 128.99 335.37 135.99 336.35 143 337.32 149.97 338.51 156.91 339.89 163.88 341.09 170.99 341.44 177.83 343.43 184.81 344.65 191.97 345.69 197.06 340.44 201.59 334.9 206.24 329.47 211.34 324.43 215.83 318.84 220.48 313.4 225.36 308.18 230.27 302.97 235.46 298.02 239.94 292.42 244.95 287.31 249.82 282.06 254.31 276.47 259.79 271.78 264 265.93 269.35 261.13 273.8 255.5 278.97 250.53 283.82 245.26 288.69 240.02 293 234.25 297.82 228.96 302.8 223.82 307.87 218.76 312.33 213.14 317.61 208.26 322.49 203.03 326.91 197.37 332.36 192.64 336.57 186.79 341.38 181.48 346.89 176.81 351.26 171.09 355.88 165.6 361.4 160.91 366.52 155.79 372.52 151.76 378.59 147.87 384.77 144.15 391.39 141.25 397.96 138.28 404.68 135.61 411.84 134.37 418.67 132 425.69 130.31 432.91 129.74 440.03 128.63 447.2 127.84 454.4 127.55 461.6 127.2 468.81 127.14 476.02 126.89 483.24 127.18 490.38 128.44 497.55 129.11 504.75 129.5 511.87 130.69 518.94 132.07 526.05 133.05 533.19 134.06 540.08 136.14 547.02 138.01 553.78 140.48 560.35 143.4 566.54 147.06 572.82 150.48 578.71 154.56 583.84 159.53 588.57 164.87 592.19 171.04 593.68 178 594.48 185.17 592.28 192.07 588.96 198.47 584.6 204.24 579.64 209.4 574.93 214.78 569.42 219.43 565.02 225.1 560.45 230.62 555.01 235.34 550.48 240.89 545.31 245.86 541 251.62 535.96 256.69 531.1 261.95 526.17 267.14 521.56 272.62 516.45 277.65 511.56 282.87 507.1 288.49 501.96 293.49 497.06 298.71 492.21 303.98 487.69 309.54 482.57 314.56 477.99 320.08 473.35 325.52 468.55 330.84 463.55 335.96 458.42 340.97 453.62 346.28 449.14 351.89 444.17 357.05 439 362.03 434.32 367.46 429.39 372.65 424.54 377.93 420.3 383.29 426.72 385.05 433.68 385.9 440.59 386.99 447.58 387.57 454.44 388.97 461.32 390.31 468.25 391.27 475.17 392.32 482.01 393.82 488.98 394.59 495.82 396.11 502.81 396.75 509.6 398.6 516.5 399.81 523.62 401.14 528.61 395.63 533.42 390.27 538.15 384.86 542.97 379.51 547.64 374.03 552.66 368.86 557.57 363.6 562.01 357.9 567.54 353.21 572.24 347.75 576.86 342.22 581.98 337.15 586.77 331.77 591.59 326.42 596.38 321.03 601.34 315.81 606.14 310.45 611.29 305.4 615.82 299.78 621.06 294.81 625.23 288.86 630.31 283.75 635.23 278.49 639.8 272.9 645.05 267.94 649.87 262.59 654.46 257.03 659.3 251.69 664.3 246.51 669.48 241.48 674.4 236.21 678.81 230.48 684.07 225.52 689 220.26 693.34 214.45 698.71 209.44 702.98 203.5 706.09 196.87 709.75 190.52 711.46 183.39 712.75 176.21 713.16 168.89 711.8 161.69 710.12 154.56 706.58 148.14 703.28 141.63 698.48 136.14 693.98 130.42 689.12 124.95 683.41 120.37 677.56 116 671.32 112.21 665.1 108.44 658.59 105.18 652.16 101.75 645.81 98.11 638.73 96.15 632.17 92.93 625.13 90.97 618.34 88.29 611.44 85.92 604.45 83.83 597.22 82.66 590.15 80.9 582.99 79.52 575.79 78.38 568.62 77.09"/><polygon points="151.45 256.35 158.57 257.27 165.42 259.38 172.43 260.52 179.5 261.33 186.46 262.75 193.51 263.69 200.45 265.21 207.56 265.74 214.48 267.41 221.41 269.03 228.49 269.77 235.44 271.31 242.47 272.32 249.51 273.38 256.67 274.52 256.38 281.81 256.5 288.95 256.94 296.09 256.74 303.23 256.37 310.37 256.94 317.52 256.8 324.79 251.73 330.25 246.77 335.65 242.08 341.3 236.54 346.17 231.6 351.59 227.08 357.39 222.19 362.86 216.93 367.99 212.19 373.6 207.26 379.03 202.35 384.49 197.64 390.13 192.51 395.41 185.51 394.19 178.47 393.23 171.47 392.08 164.49 390.79 157.46 389.75 150.57 387.94 143.55 386.89 136.46 386.27 129.55 384.53 122.49 383.75 115.58 382.03 108.52 381.23 101.48 380.25 94.55 378.61 87.61 377.58 87.68 370.53 88 363.39 87.65 356.25 87.4 349.11 87.02 341.97 87.8 334.82 87.44 327.65 92.7 322.45 97.36 316.74 102.11 311.11 107.42 306 111.84 300.07 117.36 295.14 122.29 289.67 126.98 283.98 131.93 278.53 136.53 272.77 141.72 267.53 146.2 261.65 151.45 256.35"/><polygon class="b" points="151.45 256.35 158.57 257.27 165.42 259.38 172.43 260.52 179.5 261.33 186.46 262.75 193.51 263.69 200.45 265.21 207.56 265.74 214.48 267.41 221.41 269.03 228.49 269.77 235.44 271.31 242.47 272.32 249.51 273.38 256.67 274.52 256.38 281.81 256.5 288.95 256.94 296.09 256.74 303.23 256.37 310.37 256.94 317.52 256.8 324.79 251.73 330.25 246.77 335.65 242.08 341.3 236.54 346.17 231.6 351.59 227.08 357.39 222.19 362.86 216.93 367.99 212.19 373.6 207.26 379.03 202.35 384.49 197.64 390.13 192.51 395.41 185.51 394.19 178.47 393.23 171.47 392.08 164.49 390.79 157.46 389.75 150.57 387.94 143.55 386.89 136.46 386.27 129.55 384.53 122.49 383.75 115.58 382.03 108.52 381.23 101.48 380.25 94.55 378.61 87.61 377.58 87.68 370.53 88 363.39 87.65 356.25 87.4 349.11 87.02 341.97 87.8 334.82 87.44 327.65 92.7 322.45 97.36 316.74 102.11 311.11 107.42 306 111.84 300.07 117.36 295.14 122.29 289.67 126.98 283.98 131.93 278.53 136.53 272.77 141.72 267.53 146.2 261.65 151.45 256.35"/><polygon class="a" points="87.36 327.51 87.37 334.81 87.33 341.95 87.52 349.09 87.82 356.23 87.66 363.37 87.5 370.52 87.18 377.94 94.43 379.23 101.5 379.99 108.43 381.58 115.48 382.47 122.54 383.31 129.51 384.68 136.49 385.96 143.52 386.94 150.46 388.48 157.41 389.9 164.52 390.45 171.43 392.17 178.56 392.56 185.55 393.86 192.33 395.19 192.66 388.29 192.79 381.19 192.49 374.09 192.06 366.99 192.21 359.89 192.06 352.78 192.36 345.79 185.5 344.49 178.53 343.11 171.53 341.91 164.56 340.57 157.52 339.58 150.56 338.17 143.59 336.82 136.45 336.44 129.6 334.38 122.58 333.31 115.45 332.83 108.46 331.61 101.5 330.15 94.42 329.34 87.36 327.51"/><polygon class="b" points="87.36 327.51 87.37 334.81 87.33 341.95 87.52 349.09 87.82 356.23 87.66 363.37 87.5 370.52 87.18 377.94 94.43 379.23 101.5 379.99 108.43 381.58 115.48 382.47 122.54 383.31 129.51 384.68 136.49 385.96 143.52 386.94 150.46 388.48 157.41 389.9 164.52 390.45 171.43 392.17 178.56 392.56 185.55 393.86 192.33 395.19 192.66 388.29 192.79 381.19 192.49 374.09 192.06 366.99 192.21 359.89 192.06 352.78 192.36 345.79 185.5 344.49 178.53 343.11 171.53 341.91 164.56 340.57 157.52 339.58 150.56 338.17 143.59 336.82 136.45 336.44 129.6 334.38 122.58 333.31 115.45 332.83 108.46 331.61 101.5 330.15 94.42 329.34 87.36 327.51"/><polygon points="484.33 312.03 491.54 313.45 498.46 315.15 505.55 315.84 512.48 317.42 519.41 319.05 526.49 319.77 533.55 320.64 540.41 322.61 547.48 323.45 554.52 324.41 561.41 326.25 568.56 326.6 575.52 328.01 582.48 329.55 589.39 330.76 589.87 337.52 589.14 344.38 589.79 351.24 589.52 358.09 589.11 364.94 589.54 371.81 589.29 378.59 584.46 384 580.01 389.87 575.08 395.3 569.68 400.29 565.04 405.99 560.01 411.33 555.06 416.75 550.22 422.25 545.16 427.58 540.35 433.12 535.62 438.73 530.35 443.87 525.64 449.77 518.57 447.89 511.55 447.01 504.46 446.52 497.46 445.5 490.44 444.6 483.57 442.67 476.57 441.67 469.55 440.76 462.55 439.75 455.55 438.67 448.55 437.65 441.48 437.04 434.51 435.81 427.44 435.21 420.38 433.77 420.2 426.53 420.58 419.39 420.76 412.25 420.14 405.11 420.69 397.97 420.17 390.82 420.9 383.83 425.72 378.46 430.07 372.48 435.6 367.55 440.11 361.72 445.46 356.63 450.12 350.92 454.83 345.25 459.7 339.74 464.51 334.15 469.77 328.99 474.3 323.15 479.42 317.85 484.33 312.03"/><polygon class="b" points="484.33 312.03 491.54 313.45 498.46 315.15 505.55 315.84 512.48 317.42 519.41 319.05 526.49 319.77 533.55 320.64 540.41 322.61 547.48 323.45 554.52 324.41 561.41 326.25 568.56 326.6 575.52 328.01 582.48 329.55 589.39 330.76 589.87 337.52 589.14 344.38 589.79 351.24 589.52 358.09 589.11 364.94 589.54 371.81 589.29 378.59 584.46 384 580.01 389.87 575.08 395.3 569.68 400.29 565.04 405.99 560.01 411.33 555.06 416.75 550.22 422.25 545.16 427.58 540.35 433.12 535.62 438.73 530.35 443.87 525.64 449.77 518.57 447.89 511.55 447.01 504.46 446.52 497.46 445.5 490.44 444.6 483.57 442.67 476.57 441.67 469.55 440.76 462.55 439.75 455.55 438.67 448.55 437.65 441.48 437.04 434.51 435.81 427.44 435.21 420.38 433.77 420.2 426.53 420.58 419.39 420.76 412.25 420.14 405.11 420.69 397.97 420.17 390.82 420.9 383.83 425.72 378.46 430.07 372.48 435.6 367.55 440.11 361.72 445.46 356.63 450.12 350.92 454.83 345.25 459.7 339.74 464.51 334.15 469.77 328.99 474.3 323.15 479.42 317.85 484.33 312.03"/><polygon class="a" points="420.8 384.05 420.27 390.81 420.78 397.95 420.2 405.09 420.02 412.23 420.15 419.37 420.2 426.52 420.15 433.98 427.91 434.58 435.15 436.45 442.57 437.3 449.89 438.7 457.36 439.26 464.61 441.12 472.02 441.99 479.26 443.86 486.67 444.78 494.11 445.48 501.48 446.67 508.8 448.12 516.06 449.94 523.77 451.01 523.06 443.54 523.62 436.39 523.32 429.25 523.57 422.11 523.44 414.97 523.41 407.82 523.62 400.56 516.19 399.16 508.76 398.38 501.5 396.65 494.02 396.14 486.71 394.63 479.34 393.56 472.07 391.83 464.71 390.66 457.38 389.3 449.9 388.81 442.65 386.9 435.29 385.73 427.91 384.58 420.8 384.05"/><polygon class="b" points="420.8 384.05 420.27 390.81 420.78 397.95 420.2 405.09 420.02 412.23 420.15 419.37 420.2 426.52 420.15 433.98 427.91 434.58 435.15 436.45 442.57 437.3 449.89 438.7 457.36 439.26 464.61 441.12 472.02 441.99 479.26 443.86 486.67 444.78 494.11 445.48 501.48 446.67 508.8 448.12 516.06 449.94 523.77 451.01 523.06 443.54 523.62 436.39 523.32 429.25 523.57 422.11 523.44 414.97 523.41 407.82 523.62 400.56 516.19 399.16 508.76 398.38 501.5 396.65 494.02 396.14 486.71 394.63 479.34 393.56 472.07 391.83 464.71 390.66 457.38 389.3 449.9 388.81 442.65 386.9 435.29 385.73 427.91 384.58 420.8 384.05"/><polyline class="a" points="712.33 229 712.16 221.89 712.55 214.78 712.04 207.68 712.5 200.57 712.63 193.46 712.92 186.35 712.16 179.24 712.93 172.12 712.69 165"/><polyline class="b" points="712.33 229 712.16 221.89 712.55 214.78 712.04 207.68 712.5 200.57 712.63 193.46 712.92 186.35 712.16 179.24 712.93 172.12 712.69 165"/><polygon points="362.71 209.31 367.28 204.34 372.16 199.02 377.55 194.23 382.62 189.04 388.69 185.07 394.39 180.65 400.28 176.48 406.17 172.28 412.65 169.05 418.86 165.35 425.32 162.11 431.9 159.12 438.61 156.45 445.44 154.1 452.19 151.53 459.13 149.52 466.19 148.02 473.14 146 480.27 144.82 487.47 144.17 494.55 142.57 501.78 142.25 508.98 141.56 516.21 142.04 523.44 141.47 530.62 142.53 537.86 142.46 545.08 142.92 552.23 144.03 559.32 145.42 566.32 146.88 572.23 150.42 577.29 155.19 581.77 160.49 586.04 165.93 589.42 171.96 591.54 178.52 592.48 185.33 591.68 192.25 588.18 198.25 584.23 203.84 577.82 200.57 571.38 197.22 564.77 194.2 557.68 192.46 550.9 189.92 544.08 187.48 536.98 185.98 530.1 183.63 523.04 181.97 515.89 180.74 508.63 180.29 501.48 179.04 494.24 178.73 487.03 178.06 479.79 177.92 472.53 177.32 465.32 178.37 458.03 178.07 450.9 179.54 443.63 179.93 436.56 181.6 429.46 183.03 422.31 184.32 415.33 186.29 408.6 189.06 401.51 190.74 394.72 193.31 388.3 196.75 381.66 199.65 374.87 202.26 368.75 206.21 362.71 209.31"/><polygon class="b" points="362.71 209.31 367.28 204.34 372.16 199.02 377.55 194.23 382.62 189.04 388.69 185.07 394.39 180.65 400.28 176.48 406.17 172.28 412.65 169.05 418.86 165.35 425.32 162.11 431.9 159.12 438.61 156.45 445.44 154.1 452.19 151.53 459.13 149.52 466.19 148.02 473.14 146 480.27 144.82 487.47 144.17 494.55 142.57 501.78 142.25 508.98 141.56 516.21 142.04 523.44 141.47 530.62 142.53 537.86 142.46 545.08 142.92 552.23 144.03 559.32 145.42 566.32 146.88 572.23 150.42 577.29 155.19 581.77 160.49 586.04 165.93 589.42 171.96 591.54 178.52 592.48 185.33 591.68 192.25 588.18 198.25 584.23 203.84 577.82 200.57 571.38 197.22 564.77 194.2 557.68 192.46 550.9 189.92 544.08 187.48 536.98 185.98 530.1 183.63 523.04 181.97 515.89 180.74 508.63 180.29 501.48 179.04 494.24 178.73 487.03 178.06 479.79 177.92 472.53 177.32 465.32 178.37 458.03 178.07 450.9 179.54 443.63 179.93 436.56 181.6 429.46 183.03 422.31 184.32 415.33 186.29 408.6 189.06 401.51 190.74 394.72 193.31 388.3 196.75 381.66 199.65 374.87 202.26 368.75 206.21 362.71 209.31"/><polyline points="87.03 409 87.39 416.29 87.36 423.58 87.65 430.88 87.5 438.17 87.66 445.46 87.16 452.75 87.61 460.05 87.39 467.34 87.62 474.63 87.25 481.93 87.4 489.22 87.5 496.51 87.04 503.81 87.75 511.1 87.58 518.4 87.93 525.7 87.8 533"/><polyline class="b" points="87.03 409 87.39 416.29 87.36 423.58 87.65 430.88 87.5 438.17 87.66 445.46 87.16 452.75 87.61 460.05 87.39 467.34 87.62 474.63 87.25 481.93 87.4 489.22 87.5 496.51 87.04 503.81 87.75 511.1 87.58 518.4 87.93 525.7 87.8 533"/><polyline points="192.22 426 192.38 433.29 192.5 440.58 192.76 447.88 192 455.17 192.96 462.46 192.34 469.75 192.24 477.05 192.22 484.34 192.73 491.63 192.66 498.93 192.2 506.22 192.97 513.51 192.68 520.81 192.24 528.1 192.64 535.4 192.06 542.7 192.47 550"/><polyline class="b" points="192.22 426 192.38 433.29 192.5 440.58 192.76 447.88 192 455.17 192.96 462.46 192.34 469.75 192.24 477.05 192.22 484.34 192.73 491.63 192.66 498.93 192.2 506.22 192.97 513.51 192.68 520.81 192.24 528.1 192.64 535.4 192.06 542.7 192.47 550"/><polyline points="256.02 366 256.07 373.29 256.33 380.58 256.14 387.88 256.89 395.17 256.09 402.46 256.35 409.75 256.11 417.05 256.99 424.34 256.66 431.63 256.63 438.93 256.42 446.22 256.19 453.51 256.96 460.81 256.31 468.1 256.96 475.4 256.18 482.7 256.31 490"/><polyline class="b" points="256.02 366 256.07 373.29 256.33 380.58 256.14 387.88 256.89 395.17 256.09 402.46 256.35 409.75 256.11 417.05 256.99 424.34 256.66 431.63 256.63 438.93 256.42 446.22 256.19 453.51 256.96 460.81 256.31 468.1 256.96 475.4 256.18 482.7 256.31 490"/><polyline points="420.25 465 420.45 472.29 420.74 479.58 420.49 486.88 420.89 494.17 420.7 501.46 420.32 508.75 420.77 516.05 420.72 523.34 420.09 530.63 420.82 537.93 420.92 545.22 420.84 552.51 420.91 559.81 420.56 567.1 420.64 574.4 420.04 581.7 420.3 589"/><polyline class="b" points="420.25 465 420.45 472.29 420.74 479.58 420.49 486.88 420.89 494.17 420.7 501.46 420.32 508.75 420.77 516.05 420.72 523.34 420.09 530.63 420.82 537.93 420.92 545.22 420.84 552.51 420.91 559.81 420.56 567.1 420.64 574.4 420.04 581.7 420.3 589"/><polyline points="525.74 482 525.19 489.29 525.26 496.58 525.18 503.88 525.54 511.17 525.1 518.46 525.65 525.75 525.47 533.05 525.37 540.34 525.84 547.63 525.21 554.93 525.23 562.22 525.43 569.51 525.78 576.81 525.09 584.1 525.19 591.4 525.91 598.7 525.4 606"/><polyline class="b" points="525.74 482 525.19 489.29 525.26 496.58 525.18 503.88 525.54 511.17 525.1 518.46 525.65 525.75 525.47 533.05 525.37 540.34 525.84 547.63 525.21 554.93 525.23 562.22 525.43 569.51 525.78 576.81 525.09 584.1 525.19 591.4 525.91 598.7 525.4 606"/><polyline points="589.11 422 589.25 429.29 589.82 436.58 589.13 443.88 589.48 451.17 589.73 458.46 589.63 465.75 589.76 473.05 589.48 480.34 589.67 487.63 589.95 494.93 589.26 502.22 589.58 509.51 589.62 516.81 589.53 524.1 589.14 531.4 589.34 538.7 589.41 546"/><polyline class="b" points="589.11 422 589.25 429.29 589.82 436.58 589.13 443.88 589.48 451.17 589.73 458.46 589.63 465.75 589.76 473.05 589.48 480.34 589.67 487.63 589.95 494.93 589.26 502.22 589.58 509.51 589.62 516.81 589.53 524.1 589.14 531.4 589.34 538.7 589.41 546"/><polyline points="356.88 524 356.85 531.29 356.33 538.58 356.27 545.88 356.08 553.17 356.88 560.46 356.31 567.75 356.13 575.05 356.15 582.34 356.03 589.63 356.25 596.93 356.76 604.22 356.17 611.51 356.38 618.81 356.12 626.1 356.47 633.4 356.83 640.7 356.4 648"/><polyline class="b" points="356.88 524 356.85 531.29 356.33 538.58 356.27 545.88 356.08 553.17 356.88 560.46 356.31 567.75 356.13 575.05 356.15 582.34 356.03 589.63 356.25 596.93 356.76 604.22 356.17 611.51 356.38 618.81 356.12 626.1 356.47 633.4 356.83 640.7 356.4 648"/><polyline points="461.79 541 461.22 548.29 461.98 555.58 461.05 562.88 461.29 570.17 461.32 577.46 461.45 584.75 461.02 592.05 461.97 599.34 461.59 606.63 461.05 613.93 461.52 621.22 461.71 628.51 461.77 635.81 461.23 643.1 461.27 650.4 461.53 657.7 461.48 665"/><polyline class="b" points="461.79 541 461.22 548.29 461.98 555.58 461.05 562.88 461.29 570.17 461.32 577.46 461.45 584.75 461.02 592.05 461.97 599.34 461.59 606.63 461.05 613.93 461.52 621.22 461.71 628.51 461.77 635.81 461.23 643.1 461.27 650.4 461.53 657.7 461.48 665"/><polyline points="292.3 589 292.55 596.29 292.04 603.58 292.5 610.88 292.04 618.17 292.17 625.46 292.43 632.75 292.91 640.05 292.77 647.34 292.4 654.63 292.42 661.93 292.88 669.22 292.95 676.51 292.3 683.81 292.36 691.1 292.72 698.4 292.28 705.7 292.11 713"/><polyline class="b" points="292.3 589 292.55 596.29 292.04 603.58 292.5 610.88 292.04 618.17 292.17 625.46 292.43 632.75 292.91 640.05 292.77 647.34 292.4 654.63 292.42 661.93 292.88 669.22 292.95 676.51 292.3 683.81 292.36 691.1 292.72 698.4 292.28 705.7 292.11 713"/><polyline points="397.26 606 397.48 613.29 397.97 620.58 397.08 627.88 397.46 635.17 397.76 642.46 397.45 649.75 397.41 657.05 397.29 664.34 397.56 671.63 397.62 678.93 397.57 686.22 397.19 693.51 397.71 700.81 397.02 708.1 397.27 715.4 397.33 722.7 397.94 730"/><polyline class="b" points="397.26 606 397.48 613.29 397.97 620.58 397.08 627.88 397.46 635.17 397.76 642.46 397.45 649.75 397.41 657.05 397.29 664.34 397.56 671.63 397.62 678.93 397.57 686.22 397.19 693.51 397.71 700.81 397.02 708.1 397.27 715.4 397.33 722.7 397.94 730"/></svg>