<svg xmlns="http://www.w3.org/2000/svg" viewBox="0 0 800 800"><defs><style>.a{fill:#fff;}.b{fill:none;stroke:#000;stroke-linejoin:bevel;stroke-width:13px;}</style></defs><title>canvas (48)</title><polygon class="a" points="361.53 711.4 369.02 709.74 375.21 705.34 379.37 698.98 381.12 691.5 379.62 684.37 375.8 678.31 370.94 673.06 364.02 670.91 356.88 672.26 351.13 676.73 347.01 682.74 345.21 689.8 345.39 697.36 349.17 703.84 354.41 709.01 361.53 711.4"/><polygon class="b" points="361.53 711.4 369.02 709.74 375.21 705.34 379.37 698.98 381.12 691.5 379.62 684.37 375.8 678.31 370.94 673.06 364.02 670.91 356.88 672.26 351.13 676.73 347.01 682.74 345.21 689.8 345.39 697.36 349.17 703.84 354.41 709.01 361.53 711.4"/><polyline class="a" points="360.42 711.3 353.25 710.7 346.15 709.5 338.99 708.86 331.92 707.6 324.74 707.01 317.73 705.39 310.66 704.11 303.62 702.7 296.71 700.7 289.68 699.22 282.68 697.58 275.88 695.22 269.15 692.71 262.34 690.44 255.37 688.57 248.77 685.7 242.37 682.41 235.54 680.05 229.24 676.56 222.82 673.34 216.7 669.55 210.19 666.46 204.53 661.95 198.09 658.67 192.63 653.95 186.49 650.18 180.62 646.01 175.14 641.36 169.66 636.7 164.74 631.43 159.03 627.01 154.09 621.78 149.41 616.32 144.38 611.18 140.18 605.32 135.38 599.97 131.28 594.07 126.56 588.58 122.38 582.7 119.11 576.23 115.43 570.04 111.48 564.01 108.03 557.68 104.29 551.51 101.06 545.06 98.53 538.28 95.11 531.9 93.1 524.94 89.97 518.42 87.42 511.67 85.27 504.79 83.7 497.73 81.25 490.94 79.55 483.93 77.67 476.96 75.88 469.97 74.56 462.88 73.89 455.67 72.81 448.55 71.77 441.42 71.1 434.25 70.6 427.06 69.69 419.9 69.85 412.68 69.56 405.48 68.92 398.28 69.7 391 69.65 383.7 70.2 376.44 70.6 369.16 71.31 361.9 72.22 354.67 73.19 347.44 74.52 340.27 76.01 333.14 77.05 325.91 79.24 318.94 80.53 311.75 82.77 304.81 84.74 297.79 86.87 290.82 88.95 283.82 91.74 277.07 94.36 270.26 97.08 263.49 100.69 257.12 103.76 250.51 107 243.99 110.64 237.67 113.73 231.03 118.09 225.15 121.41 218.61 125.62 212.65 129.79 206.66 134.5 201.25 138.88 195.6 143.27 189.94 148.25 184.79 153 179.43 157.88 174.2 163.2 169.41 168.58 164.69 173.62 159.58 179.34 155.26 184.84 150.68 191.02 147.01 196.82 142.84 202.57 138.57 208.57 134.67 214.92 131.35 221.08 127.71 227.24 124.05 233.95 121.48 240.37 118.35 246.83 115.27 253.5 112.69 260.34 110.58 267.03 108.06 273.69 105.47 280.65 103.77 287.47 101.65 294.33 99.64 301.26 97.87 308.15 95.92 315.28 95.08 322.33 93.93 329.27 92.02 336.44 91.62 343.57 91.11 350.6 89.55 357.76 89.31 364.69 89.05 365.32 95.46 365.82 102.11 366.11 108.78 366.15 115.45 366.4 122.12 366.92 128.76 359.76 129.43 352.59 130.01 345.42 130.6 338.28 131.56 331.26 133.24 324.12 134.15 317.02 135.36 310.04 137.1 302.97 138.49 296.09 140.64 289.14 142.55 282.32 144.86 275.47 147.07 269.07 150.48 262.3 152.93 255.74 155.87 249.02 158.5 242.93 162.39 236.36 165.39 230.09 168.94 224.29 173.23 218.36 177.31 212.49 181.45 206.88 185.95 201.09 190.23 195.88 195.21 190.1 199.55 185.28 204.91 180.11 209.93 175.35 215.33 170.67 220.8 166.07 226.34 161.69 232.06 158.02 238.15 153.64 243.75 150.47 250.13 146.72 256.14 142.93 262.14 140.07 268.65 137.01 275.03 133.79 281.35 130.79 287.78 127.94 294.29 125.52 300.96 123.89 307.9 121.89 314.7 119.34 321.34 117.44 328.18 115.79 335.09 115.28 342.23 113.16 349.05 112.59 356.14 111.98 363.2 110.86 370.2 110.59 377.29 109.83 384.34 109.28 391.41 109.72 398.5 108.98 405.79 109.18 413.08 109.48 420.38 110.94 427.57 111.37 434.85 111.86 442.13 113.62 449.23 114.45 456.48 116.47 463.5 117.81 470.67 119.77 477.68 121.43 484.78 123.31 491.83 125.81 498.68 128.73 505.37 131.15 512.24 134.22 518.84 136.91 525.62 139.82 532.32 143.38 538.69 146.69 545.2 150.8 551.24 155.16 557.09 158.87 563.38 163.23 569.22 167.87 574.77 171.77 580.92 176.93 586.04 181.37 591.8 186.63 596.79 192.23 601.41 197.32 606.57 203.08 610.96 208.62 615.62 214.24 620.19 220.14 624.39 226.53 627.84 232.35 632.19 238.59 635.87 245.09 639.07 251.53 642.39 258 645.64 264.76 648.27 271.55 650.77 278.06 654.03 285.2 655.54 291.9 658.34 298.95 660.03 305.88 662.15 313.02 663.41 320.04 665.19 327.14 666.61 334.36 667.3 341.4 669.14 348.65 669.53 355.82 670.63 363.06 670.85"/><polyline class="b" points="360.42 711.3 353.25 710.7 346.15 709.5 338.99 708.86 331.92 707.6 324.74 707.01 317.73 705.39 310.66 704.11 303.62 702.7 296.71 700.7 289.68 699.22 282.68 697.58 275.88 695.22 269.15 692.71 262.34 690.44 255.37 688.57 248.77 685.7 242.37 682.41 235.54 680.05 229.24 676.56 222.82 673.34 216.7 669.55 210.19 666.46 204.53 661.95 198.09 658.67 192.63 653.95 186.49 650.18 180.62 646.01 175.14 641.36 169.66 636.7 164.74 631.43 159.03 627.01 154.09 621.78 149.41 616.32 144.38 611.18 140.18 605.32 135.38 599.97 131.28 594.07 126.56 588.58 122.38 582.7 119.11 576.23 115.43 570.04 111.48 564.01 108.03 557.68 104.29 551.51 101.06 545.06 98.53 538.28 95.11 531.9 93.1 524.94 89.97 518.42 87.42 511.67 85.27 504.79 83.7 497.73 81.25 490.94 79.55 483.93 77.67 476.96 75.88 469.97 74.56 462.88 73.89 455.67 72.81 448.55 71.77 441.42 71.1 434.25 70.6 427.06 69.69 419.9 69.85 412.68 69.56 405.48 68.92 398.28 69.7 391 69.65 383.7 70.2 376.44 70.6 369.16 71.31 361.9 72.22 354.67 73.19 347.44 74.52 340.27 76.01 333.14 77.05 325.91 79.24 318.94 80.53 311.75 82.77 304.81 84.74 297.79 86.87 290.82 88.95 283.82 91.74 277.07 94.36 270.26 97.08 263.49 100.69 257.12 103.76 250.51 107 243.99 110.64 237.67 113.73 231.03 118.09 225.15 121.41 218.61 125.62 212.65 129.79 206.66 134.5 201.25 138.88 195.6 143.27 189.94 148.25 184.79 153 179.43 157.88 174.2 163.2 169.41 168.58 164.69 173.62 159.58 179.34 155.26 184.84 150.68 191.02 147.01 196.82 142.84 202.57 138.57 208.57 134.67 214.92 131.35 221.08 127.71 227.24 124.05 233.95 121.48 240.37 118.35 246.83 115.27 253.5 112.69 260.34 110.58 267.03 108.06 273.69 105.47 280.65 103.77 287.47 101.65 294.33 99.64 301.26 97.87 308.15 95.92 315.28 95.08 322.33 93.93 329.27 92.02 336.44 91.62 343.57 91.11 350.6 89.55 357.76 89.31 364.69 89.05 365.32 95.46 365.82 102.11 366.11 108.78 366.15 115.45 366.4 122.12 366.92 128.76 359.76 129.43 352.59 130.01 345.42 130.6 338.28 131.56 331.26 133.24 324.12 134.15 317.02 135.36 310.04 137.1 302.97 138.49 296.09 140.64 289.14 142.55 282.32 144.86 275.47 147.07 269.07 150.48 262.3 152.93 255.74 155.87 249.02 158.5 242.93 162.39 236.36 165.39 230.09 168.94 224.29 173.23 218.36 177.31 212.49 181.45 206.88 185.95 201.09 190.23 195.88 195.21 190.1 199.55 185.28 204.91 180.11 209.93 175.35 215.33 170.67 220.8 166.07 226.34 161.69 232.06 158.02 238.15 153.64 243.75 150.47 250.13 146.72 256.14 142.93 262.14 140.07 268.65 137.01 275.03 133.79 281.35 130.79 287.78 127.94 294.29 125.52 300.96 123.89 307.9 121.89 314.7 119.34 321.34 117.44 328.18 115.79 335.09 115.28 342.23 113.16 349.05 112.59 356.14 111.98 363.2 110.86 370.2 110.59 377.29 109.83 384.34 109.28 391.41 109.72 398.5 108.98 405.79 109.18 413.08 109.48 420.38 110.94 427.57 111.37 434.85 111.86 442.13 113.62 449.23 114.45 456.48 116.47 463.5 117.81 470.67 119.77 477.68 121.43 484.78 123.31 491.83 125.81 498.68 128.73 505.37 131.15 512.24 134.22 518.84 136.91 525.62 139.82 532.32 143.38 538.69 146.69 545.2 150.8 551.24 155.16 557.09 158.87 563.38 163.23 569.22 167.87 574.77 171.77 580.92 176.93 586.04 181.37 591.8 186.63 596.79 192.23 601.41 197.32 606.57 203.08 610.96 208.62 615.62 214.24 620.19 220.14 624.39 226.53 627.84 232.35 632.19 238.59 635.87 245.09 639.07 251.53 642.39 258 645.64 264.76 648.27 271.55 650.77 278.06 654.03 285.2 655.54 291.9 658.34 298.95 660.03 305.88 662.15 313.02 663.41 320.04 665.19 327.14 666.61 334.36 667.3 341.4 669.14 348.65 669.53 355.82 670.63 363.06 670.85"/><polygon class="a" points="364.04 129.31 356.81 127.89 351.63 122.83 347.38 117.09 345.1 110.22 345.47 102.66 349.09 96.1 354.65 91.4 361.56 89.3 369.17 89.92 375.43 94.45 379.35 101.03 380.9 108.5 379.86 115.71 376.32 122.08 370.94 126.94 364.04 129.31"/><polygon class="b" points="364.04 129.31 356.81 127.89 351.63 122.83 347.38 117.09 345.1 110.22 345.47 102.66 349.09 96.1 354.65 91.4 361.56 89.3 369.17 89.92 375.43 94.45 379.35 101.03 380.9 108.5 379.86 115.71 376.32 122.08 370.94 126.94 364.04 129.31"/><polyline points="289.88 142.3 282.82 143.29 275.85 144.85 268.75 145.72 261.71 146.96 254.61 147.82 247.47 148.36 240.31 148.11 233.18 147.66 226.06 146.78 219.32 144.25 213.58 139.95 210.19 133.85 204.16 137.19 198.35 141.18 192.96 145.77 187.38 150.06 181.83 154.39 176.02 158.41 170.91 163.27 165.42 167.69 160.13 172.37 155.36 177.63 160.38 183.03 167.29 185.4 174.57 186.54 181.93 185.7 189.03 183.63 196.11 181.64 203.01 179.03 210.13 176.96 216.75 173.66 223.48 170.62 230.54 168.41"/><polyline class="b" points="289.88 142.3 282.82 143.29 275.85 144.85 268.75 145.72 261.71 146.96 254.61 147.82 247.47 148.36 240.31 148.11 233.18 147.66 226.06 146.78 219.32 144.25 213.58 139.95 210.19 133.85 204.16 137.19 198.35 141.18 192.96 145.77 187.38 150.06 181.83 154.39 176.02 158.41 170.91 163.27 165.42 167.69 160.13 172.37 155.36 177.63 160.38 183.03 167.29 185.4 174.57 186.54 181.93 185.7 189.03 183.63 196.11 181.64 203.01 179.03 210.13 176.96 216.75 173.66 223.48 170.62 230.54 168.41"/><polyline points="167.84 223.64 162.81 228.75 157.54 233.59 151.85 237.95 146.38 242.54 140.6 246.73 134.88 251.01 128.99 255.15 122.32 257.88 115.23 258.89 108.19 258.4 101.96 254.41 99.22 261.91 95.83 268.73 93.52 275.98 90.85 283.08 87.54 289.97 85.31 297.24 83.59 304.66 81.07 311.83 79.12 319.28 86.03 320.98 93.14 320.85 99.53 317.54 105.22 313.23 110.37 308.31 115.53 303.35 119.92 297.7 123.97 291.82 127.99 285.93 132.65 280.48 136.17 274.24"/><polyline class="b" points="167.84 223.64 162.81 228.75 157.54 233.59 151.85 237.95 146.38 242.54 140.6 246.73 134.88 251.01 128.99 255.15 122.32 257.88 115.23 258.89 108.19 258.4 101.96 254.41 99.22 261.91 95.83 268.73 93.52 275.98 90.85 283.08 87.54 289.97 85.31 297.24 83.59 304.66 81.07 311.83 79.12 319.28 86.03 320.98 93.14 320.85 99.53 317.54 105.22 313.23 110.37 308.31 115.53 303.35 119.92 297.7 123.97 291.82 127.99 285.93 132.65 280.48 136.17 274.24"/><polyline points="112.5 352.86 110.3 359.73 108.41 366.71 105.55 373.34 103.54 380.3 99.81 386.54 96.66 393 93.66 399.6 88.99 405.13 83.4 409.59 77.06 412.62 69.97 412.87 70.34 419.74 71.24 426.55 71.7 433.39 71.87 440.28 73.06 447.05 73.75 453.89 74.91 460.66 76.29 467.38 78.31 473.98 79.56 480.38 86.3 479.24 91.9 474.75 96.42 469.1 99.75 462.62 101.72 455.62 103.78 448.65 105.57 441.59 106.14 434.32 107.8 427.21 108.2 419.95 108.72 412.69"/><polyline class="b" points="112.5 352.86 110.3 359.73 108.41 366.71 105.55 373.34 103.54 380.3 99.81 386.54 96.66 393 93.66 399.6 88.99 405.13 83.4 409.59 77.06 412.62 69.97 412.87 70.34 419.74 71.24 426.55 71.7 433.39 71.87 440.28 73.06 447.05 73.75 453.89 74.91 460.66 76.29 467.38 78.31 473.98 79.56 480.38 86.3 479.24 91.9 474.75 96.42 469.1 99.75 462.62 101.72 455.62 103.78 448.65 105.57 441.59 106.14 434.32 107.8 427.21 108.2 419.95 108.72 412.69"/><polyline points="123.9 493.6 125.17 500.77 126.48 507.95 126.93 515.25 128.11 522.45 128.4 529.75 128.46 537.03 127.86 544.27 126.9 551.45 125.05 558.54 120.22 564.02 113.65 567.55 117.56 573.67 121.78 579.1 125.06 585.17 129.32 590.56 133.71 595.85 137.89 601.28 141.65 607.06 146.61 611.85 151.04 617.08 155.37 622.85 160.61 617.39 163.66 610.87 164.35 603.64 163.89 596.39 162.29 589.3 161.38 582.01 158.41 575.3 156.62 568.19 153.36 561.63 150.63 554.88 148.28 547.97"/><polyline class="b" points="123.9 493.6 125.17 500.77 126.48 507.95 126.93 515.25 128.11 522.45 128.4 529.75 128.46 537.03 127.86 544.27 126.9 551.45 125.05 558.54 120.22 564.02 113.65 567.55 117.56 573.67 121.78 579.1 125.06 585.17 129.32 590.56 133.71 595.85 137.89 601.28 141.65 607.06 146.61 611.85 151.04 617.08 155.37 622.85 160.61 617.39 163.66 610.87 164.35 603.64 163.89 596.39 162.29 589.3 161.38 582.01 158.41 575.3 156.62 568.19 153.36 561.63 150.63 554.88 148.28 547.97"/><polyline points="201.97 609.65 206.17 615.91 211.47 621.25 216.01 627.22 221.37 632.53 225.34 638.93 230 644.85 233.69 651.4 236.66 658.31 238.52 665.59 238.4 673.16 233.89 679.54 240.58 682.77 247.28 685.05 253.84 687.61 260.45 690.07 266.87 693.04 273.8 694.56 280.41 697.04 287.19 698.99 293.93 701.05 300.89 702.28 307.86 704.27 309.88 697.26 308.36 690.29 304.66 684.18 300.03 678.76 294.59 674.16 289.5 669.16 283.56 665.19 278.28 660.32 271.97 656.91 266.07 652.92 259.9 649.34 253.93 645.42"/><polyline class="b" points="201.97 609.65 206.17 615.91 211.47 621.25 216.01 627.22 221.37 632.53 225.34 638.93 230 644.85 233.69 651.4 236.66 658.31 238.52 665.59 238.4 673.16 233.89 679.54 240.58 682.77 247.28 685.05 253.84 687.61 260.45 690.07 266.87 693.04 273.8 694.56 280.41 697.04 287.19 698.99 293.93 701.05 300.89 702.28 307.86 704.27 309.88 697.26 308.36 690.29 304.66 684.18 300.03 678.76 294.59 674.16 289.5 669.16 283.56 665.19 278.28 660.32 271.97 656.91 266.07 652.92 259.9 649.34 253.93 645.42"/><polygon class="a" points="438.46 88.77 430.84 89.93 424.74 94.61 420.42 100.94 418.78 108.5 420.58 115.56 424.2 121.69 429.07 126.92 435.99 128.87 442.95 127.39 448.45 122.9 452.5 117.03 454.81 110.2 454.5 102.66 451.38 95.76 445.61 90.95 438.46 88.77"/><polygon class="b" points="438.46 88.77 430.84 89.93 424.74 94.61 420.42 100.94 418.78 108.5 420.58 115.56 424.2 121.69 429.07 126.92 435.99 128.87 442.95 127.39 448.45 122.9 452.5 117.03 454.81 110.2 454.5 102.66 451.38 95.76 445.61 90.95 438.46 88.77"/><polyline class="a" points="439.55 89.19 446.7 89.88 453.92 89.88 461.05 90.83 468.08 92.39 475.28 92.86 482.32 94.35 489.4 95.6 496.47 96.9 503.33 99.13 510.26 101.01 517.21 102.8 524.18 104.58 530.81 107.39 537.79 109.2 544.41 112 551.14 114.53 557.7 117.44 564.46 119.94 570.56 123.83 577.2 126.62 583.64 129.85 589.87 133.45 595.61 137.84 601.88 141.37 607.81 145.44 613.39 149.99 618.88 154.61 624.76 158.76 630.16 163.51 635.77 168.02 640.38 173.59 645.82 178.3 650.9 183.4 655.19 189.19 660.11 194.44 664.54 200.09 668.96 205.76 673.04 211.7 677.15 217.61 681.21 223.57 685.27 229.53 688.33 236.1 692.32 242.12 694.98 248.86 698.96 254.94 701.89 261.53 704.39 268.31 707.33 274.89 709.33 281.83 712.05 288.51 714.96 295.14 717.08 302.04 718.39 309.16 720.39 316.09 722.24 323.06 723.91 330.07 725.17 337.18 726.6 344.25 727.26 351.44 728.02 358.61 729.15 365.73 729.95 372.9 730.08 380.12 730.91 387.3 730.81 394.51 730.76 401.72 730.82 409.01 730.67 416.31 729.9 423.57 729.02 430.81 728.38 438.06 727.9 445.35 726.41 452.5 725.61 459.75 724.2 466.9 722.68 474.03 721.59 481.26 719.58 488.28 717.07 495.15 715.31 502.23 712.66 509.02 710.61 516.03 708.23 522.92 705.32 529.61 702.27 536.22 699.4 542.92 696.55 549.64 692.73 555.87 689.28 562.29 686.14 568.89 682.29 575.09 678.62 581.4 674.13 587.17 670 593.19 665.61 598.84 661.33 604.58 656.69 610.03 652.13 615.56 647.18 620.74 641.62 625.29 636.45 630.21 631.22 635.08 626.01 639.99 620.46 644.48 615.13 649.29 609.07 653.12 603.49 657.62 597.55 661.62 591.22 664.98 585.13 668.73 578.67 671.82 572.51 675.47 566.1 678.61 559.54 681.45 553.31 685.05 546.63 687.65 539.71 689.57 532.97 691.94 526.31 694.56 519.51 696.76 512.62 698.68 505.79 700.84 498.73 702.07 491.8 703.85 484.69 704.74 477.73 706.42 470.62 707.27 463.59 708.59 456.53 709.8 449.37 710.14 442.25 710.88 435.1 711.2 435.2 704.51 434.76 697.86 433.7 691.23 434.16 684.53 433.14 677.9 433.27 671.42 440.23 670.45 447.44 670.35 454.51 668.82 461.75 668.68 468.84 667.37 475.83 665.59 482.89 664.23 489.91 662.68 497.02 661.45 503.83 659.07 510.9 657.6 517.47 654.52 524.35 652.42 531 649.7 537.66 646.99 544.41 644.45 550.87 641.26 557.17 637.8 563.37 634.14 569.87 630.99 575.55 626.52 581.68 622.76 587.4 618.39 593.38 614.38 598.84 609.68 604.33 605.03 609.7 600.24 614.61 594.97 619.42 589.64 624.3 584.36 629.48 579.33 633.59 573.4 637.76 567.54 642.3 562.07 646.13 556.1 650.28 550.32 653.46 543.96 656.51 537.56 660.01 531.39 663.37 525.15 666.29 518.68 668.72 512.02 671.99 505.68 673.81 498.8 676.49 492.22 678.52 485.43 680.23 478.54 682.4 471.78 683.93 464.85 685.2 457.87 686 450.81 687.18 443.83 688.59 436.87 689.72 429.86 689.61 422.73 689.95 415.65 690.83 408.6 691.12 401.5 690.85 394.21 690.94 386.91 689.99 379.66 689.15 372.42 688.85 365.13 687.74 357.93 686.24 350.79 685.19 343.58 684.26 336.34 682.39 329.29 680.24 322.32 678.18 315.34 676.53 308.23 674.03 301.38 671.39 294.59 669.18 287.63 666.03 281.04 662.65 274.58 660.13 267.7 656.12 261.58 652.63 255.2 648.74 249.04 644.86 242.89 641.12 236.63 636.85 230.73 632.34 225.07 628.2 219.11 623.56 213.53 617.98 208.82 613.2 203.38 608.08 198.26 602.52 193.62 597.2 188.7 591.29 184.5 585.9 179.63 579.55 176.07 573.83 171.6 567.42 168.19 561.13 164.63 555.01 160.73 548.39 157.78 541.98 154.39 535.09 152.1 528.44 149.26 521.63 146.84 514.82 144.4 508.1 141.67 501.06 139.93 494.18 137.62 487.02 136.43 479.99 134.66 472.83 133.55 465.71 132.29 458.62 130.73 451.42 129.89 444.19 129.32 436.94 129.11"/><polyline class="b" points="439.55 89.19 446.7 89.88 453.92 89.88 461.05 90.83 468.08 92.39 475.28 92.86 482.32 94.35 489.4 95.6 496.47 96.9 503.33 99.13 510.26 101.01 517.21 102.8 524.18 104.58 530.81 107.39 537.79 109.2 544.41 112 551.14 114.53 557.7 117.44 564.46 119.94 570.56 123.83 577.2 126.62 583.64 129.85 589.87 133.45 595.61 137.84 601.88 141.37 607.81 145.44 613.39 149.99 618.88 154.61 624.76 158.76 630.16 163.51 635.77 168.02 640.38 173.59 645.82 178.3 650.9 183.4 655.19 189.19 660.11 194.44 664.54 200.09 668.96 205.76 673.04 211.7 677.15 217.61 681.21 223.57 685.27 229.53 688.33 236.1 692.32 242.12 694.98 248.86 698.96 254.94 701.89 261.53 704.39 268.31 707.33 274.89 709.33 281.83 712.05 288.51 714.96 295.14 717.08 302.04 718.39 309.16 720.39 316.09 722.24 323.06 723.91 330.07 725.17 337.18 726.6 344.25 727.26 351.44 728.02 358.61 729.15 365.73 729.95 372.9 730.08 380.12 730.91 387.3 730.81 394.51 730.76 401.72 730.82 409.01 730.67 416.31 729.9 423.57 729.02 430.81 728.38 438.06 727.9 445.35 726.41 452.5 725.61 459.75 724.2 466.9 722.68 474.03 721.59 481.26 719.58 488.28 717.07 495.15 715.31 502.23 712.66 509.02 710.61 516.03 708.23 522.92 705.32 529.61 702.27 536.22 699.4 542.92 696.55 549.64 692.73 555.87 689.28 562.29 686.14 568.89 682.29 575.09 678.62 581.4 674.13 587.17 670 593.19 665.61 598.84 661.33 604.58 656.69 610.03 652.13 615.56 647.18 620.74 641.62 625.29 636.45 630.21 631.22 635.08 626.01 639.99 620.46 644.48 615.13 649.29 609.07 653.12 603.49 657.62 597.55 661.62 591.22 664.98 585.13 668.73 578.67 671.82 572.51 675.47 566.1 678.61 559.54 681.45 553.31 685.05 546.63 687.65 539.71 689.57 532.97 691.94 526.31 694.56 519.51 696.76 512.62 698.68 505.79 700.84 498.73 702.07 491.8 703.85 484.69 704.74 477.73 706.42 470.62 707.27 463.59 708.59 456.53 709.8 449.37 710.14 442.25 710.88 435.1 711.2 435.2 704.51 434.76 697.86 433.7 691.23 434.16 684.53 433.14 677.9 433.27 671.42 440.23 670.45 447.44 670.35 454.51 668.82 461.75 668.68 468.84 667.37 475.83 665.59 482.89 664.23 489.91 662.68 497.02 661.45 503.83 659.07 510.9 657.6 517.47 654.52 524.35 652.42 531 649.7 537.66 646.99 544.41 644.45 550.87 641.26 557.17 637.8 563.37 634.14 569.87 630.99 575.55 626.52 581.68 622.76 587.4 618.39 593.38 614.38 598.84 609.68 604.33 605.03 609.7 600.24 614.61 594.97 619.42 589.64 624.3 584.36 629.48 579.33 633.59 573.4 637.76 567.54 642.3 562.07 646.13 556.1 650.28 550.32 653.46 543.96 656.51 537.56 660.01 531.39 663.37 525.15 666.29 518.68 668.72 512.02 671.99 505.68 673.81 498.8 676.49 492.22 678.52 485.43 680.23 478.54 682.4 471.78 683.93 464.85 685.2 457.87 686 450.81 687.18 443.83 688.59 436.87 689.72 429.86 689.61 422.73 689.95 415.65 690.83 408.6 691.12 401.5 690.85 394.21 690.94 386.91 689.99 379.66 689.15 372.42 688.85 365.13 687.74 357.93 686.24 350.79 685.19 343.58 684.26 336.34 682.39 329.29 680.24 322.32 678.18 315.34 676.53 308.23 674.03 301.38 671.39 294.59 669.18 287.63 666.03 281.04 662.65 274.58 660.13 267.7 656.12 261.58 652.63 255.2 648.74 249.04 644.86 242.89 641.12 236.63 636.85 230.73 632.34 225.07 628.2 219.11 623.56 213.53 617.98 208.82 613.2 203.38 608.08 198.26 602.52 193.62 597.2 188.7 591.29 184.5 585.9 179.63 579.55 176.07 573.83 171.6 567.42 168.19 561.13 164.63 555.01 160.73 548.39 157.78 541.98 154.39 535.09 152.1 528.44 149.26 521.63 146.84 514.82 144.4 508.1 141.67 501.06 139.93 494.18 137.62 487.02 136.43 479.99 134.66 472.83 133.55 465.71 132.29 458.62 130.73 451.42 129.89 444.19 129.32 436.94 129.11"/><polygon class="a" points="435.98 671.07 442.81 672.91 448.7 676.88 452.17 683.11 455.11 689.76 454.64 697.37 450.76 703.79 445.38 708.64 438.44 710.7 431.18 709.26 424.71 705.41 420.31 699.11 419.43 691.5 420.62 684.46 423.78 678 429.34 673.54 435.98 671.07"/><polygon class="b" points="435.98 671.07 442.81 672.91 448.7 676.88 452.17 683.11 455.11 689.76 454.64 697.37 450.76 703.79 445.38 708.64 438.44 710.7 431.18 709.26 424.71 705.41 420.31 699.11 419.43 691.5 420.62 684.46 423.78 678 429.34 673.54 435.98 671.07"/><polyline points="510.11 657.61 517.16 656.6 524.26 655.8 531.22 654.12 538.35 653.51 545.41 652.42 552.54 651.85 559.68 652.24 566.82 652.4 573.97 653.13 580.37 656.38 586.47 660 589.87 666.03 595.73 662.64 601.48 658.56 607.03 654.22 613.15 650.64 618.25 645.71 623.87 641.47 629.19 636.85 634.76 632.49 639.91 627.67 644.3 622.34 639.72 616.82 632.83 614.02 625.43 613.45 618.04 614.11 610.82 615.75 603.71 617.83 596.78 620.4 589.9 623.12 583.01 625.8 576.42 629.16 569.76 632.37"/><polyline class="b" points="510.11 657.61 517.16 656.6 524.26 655.8 531.22 654.12 538.35 653.51 545.41 652.42 552.54 651.85 559.68 652.24 566.82 652.4 573.97 653.13 580.37 656.38 586.47 660 589.87 666.03 595.73 662.64 601.48 658.56 607.03 654.22 613.15 650.64 618.25 645.71 623.87 641.47 629.19 636.85 634.76 632.49 639.91 627.67 644.3 622.34 639.72 616.82 632.83 614.02 625.43 613.45 618.04 614.11 610.82 615.75 603.71 617.83 596.78 620.4 589.9 623.12 583.01 625.8 576.42 629.16 569.76 632.37"/><polyline points="631.83 575.97 637.42 571.5 642.55 566.51 647.87 561.73 653.18 556.92 659.35 553.19 665.18 549.08 671.37 545.56 677.71 542.2 684.75 540.83 691.78 541.7 698.04 545.59 700.71 538.06 703.71 531.09 706.97 524.21 709.24 516.95 712.15 509.93 714.84 502.81 716.47 495.36 718.66 488.09 720.96 480.69 713.97 479.02 706.91 479.33 700.31 482.19 694.85 486.85 689.88 491.94 685.06 497.17 680.23 502.42 675.83 508.04 671.58 513.77 667.91 519.9 663.51 525.52"/><polyline class="b" points="631.83 575.97 637.42 571.5 642.55 566.51 647.87 561.73 653.18 556.92 659.35 553.19 665.18 549.08 671.37 545.56 677.71 542.2 684.75 540.83 691.78 541.7 698.04 545.59 700.71 538.06 703.71 531.09 706.97 524.21 709.24 516.95 712.15 509.93 714.84 502.81 716.47 495.36 718.66 488.09 720.96 480.69 713.97 479.02 706.91 479.33 700.31 482.19 694.85 486.85 689.88 491.94 685.06 497.17 680.23 502.42 675.83 508.04 671.58 513.77 667.91 519.9 663.51 525.52"/><polyline points="687.66 447.2 689.93 440.34 691.55 433.28 694.68 426.74 697.19 420 700.2 413.46 702.93 406.78 706.98 400.82 711.17 395.01 716.11 389.7 722.79 386.75 729.77 386.78 729.27 380.29 729.24 373.41 728.16 366.62 727.62 359.78 727.02 352.94 725.36 346.25 724.25 339.49 723.11 332.73 722.24 325.91 720.53 319.49 713.86 321.08 707.71 324.88 703.74 330.99 700.39 337.43 698.63 344.49 696.38 351.38 695.01 358.51 694.15 365.72 692.89 372.87 691.32 379.99 690.93 387.25"/><polyline class="b" points="687.66 447.2 689.93 440.34 691.55 433.28 694.68 426.74 697.19 420 700.2 413.46 702.93 406.78 706.98 400.82 711.17 395.01 716.11 389.7 722.79 386.75 729.77 386.78 729.27 380.29 729.24 373.41 728.16 366.62 727.62 359.78 727.02 352.94 725.36 346.25 724.25 339.49 723.11 332.73 722.24 325.91 720.53 319.49 713.86 321.08 707.71 324.88 703.74 330.99 700.39 337.43 698.63 344.49 696.38 351.38 695.01 358.51 694.15 365.72 692.89 372.87 691.32 379.99 690.93 387.25"/><polyline points="676.04 306.41 675.25 299.16 674.28 291.93 673.11 284.74 671.71 277.56 671.68 270.25 671.45 262.97 671.22 255.64 672.92 248.51 675.36 241.67 679.45 235.61 686.01 232.29 682.27 226.44 678.33 220.82 674.96 214.81 670.56 209.52 666.82 203.75 662.2 198.65 658.41 192.89 653.74 187.85 649.33 182.59 644.61 177.35 639.33 182.56 636.35 189.13 635.37 196.35 636 203.62 637.64 210.71 638.75 217.95 641.04 224.88 643.97 231.59 645.96 238.64 649.38 245.12 651.45 252.12"/><polyline class="b" points="676.04 306.41 675.25 299.16 674.28 291.93 673.11 284.74 671.71 277.56 671.68 270.25 671.45 262.97 671.22 255.64 672.92 248.51 675.36 241.67 679.45 235.61 686.01 232.29 682.27 226.44 678.33 220.82 674.96 214.81 670.56 209.52 666.82 203.75 662.2 198.65 658.41 192.89 653.74 187.85 649.33 182.59 644.61 177.35 639.33 182.56 636.35 189.13 635.37 196.35 636 203.62 637.64 210.71 638.75 217.95 641.04 224.88 643.97 231.59 645.96 238.64 649.38 245.12 651.45 252.12"/><polyline points="598.43 189.03 593.54 183.45 588.28 178.18 584.09 171.99 579.1 166.5 574.75 160.5 570.66 154.32 566.35 148.25 563.26 141.48 561.17 134.29 561.96 126.86 565.41 120.54 559.13 117.9 552.66 115.11 546.25 112.14 539.53 110 533.07 107.13 526.33 105.04 519.69 102.65 512.67 101.53 505.86 99.74 499.09 97.8 492.41 96.32 489.79 102.74 492.09 109.52 495.45 115.74 500.02 121.2 504.82 126.5 510.82 130.44 516.14 135.21 522.23 138.95 527.84 143.38 533.65 147.51 539.83 151.09 545.78 154.99"/><polyline class="b" points="598.43 189.03 593.54 183.45 588.28 178.18 584.09 171.99 579.1 166.5 574.75 160.5 570.66 154.32 566.35 148.25 563.26 141.48 561.17 134.29 561.96 126.86 565.41 120.54 559.13 117.9 552.66 115.11 546.25 112.14 539.53 110 533.07 107.13 526.33 105.04 519.69 102.65 512.67 101.53 505.86 99.74 499.09 97.8 492.41 96.32 489.79 102.74 492.09 109.52 495.45 115.74 500.02 121.2 504.82 126.5 510.82 130.44 516.14 135.21 522.23 138.95 527.84 143.38 533.65 147.51 539.83 151.09 545.78 154.99"/><polygon class="a" points="387.4 168.31 383.61 173.87 379.89 179.99 375.53 185.68 371.97 191.91 367.69 197.64 363.69 203.57 359.44 209.33 355.66 215.42 351.67 221.36 347.05 226.86 343.11 232.83 339.12 238.77 334.99 244.62 330.42 250.14 326.63 256.22 322.35 261.95 318.14 267.73 313.73 273.37 309.54 279.17 305.12 284.79 301.34 290.9 297.12 296.68 292.74 302.35 287.92 307.68 283.81 313.54 279.68 319.4 275.37 325.11 271.07 330.84 266.03 335.99 261.96 341.89 257.67 347.64 252.75 352.86 248.36 358.52 243.65 363.91 239.22 369.55 234.69 375.1 229.44 380.02 224.71 385.38 219.95 390.74 215.18 396.08 210.15 401.19 204.57 405.7 199.22 410.44 194.02 415.36 188.4 419.81 182.12 423.24 175.84 426.76 168.78 426.47 163.72 422.24 161.28 415.66 160.66 408.53 163.81 402.31 170.13 399.45 177.29 400.24 184.1 402.55 190.59 405.6 196.72 409.31 202.82 413.02 208.94 416.71 214.8 420.8 220.59 424.98 226.7 428.75 231.95 433.65 237.68 437.93 243.21 442.45 248.72 447 254.43 451.32 259.63 456.25 265.09 460.86 270.46 465.59 275.37 470.82 280.34 475.97 285.38 481.04 291.06 485.46 295.71 490.92 300.63 496.11 305.36 501.48 310.45 506.5 315.44 511.63 320.18 516.99 324.64 522.59 329.25 528.05 334.51 532.99 338.45 539.01 342.94 544.57 347.44 550.13 351.86 555.75 356.05 561.55 360.04 567.49 364.3 573.25 368.01 579.37 371.35 585.72 374.96 591.88 378.35 598.19 380.8 604.93 383.97 611.37 386.2 618.2 386.86 625.36 387.51 632.42 386.66 639.44 381.52 639.19 377.12 633.53 373.59 627.26 370.63 620.7 367.35 614.3 364.25 607.8 361.81 601.02 359.61 594.17 357.08 587.45 354.24 580.83 352.34 573.88 349.45 567.27 347.33 560.39 345.03 553.58 343.46 546.54 341.48 539.63 339.43 532.73 337.96 525.68 335.84 518.81 334.34 511.77 332.59 504.8 330.3 497.95 328.89 490.9 327.14 483.92 326.13 476.78 324.32 469.81 323.04 462.74 321.49 455.71 320.69 448.55 319.1 441.52 318.27 434.37 317.37 427.24 316.25 420.13 315.08 413.04 314.18 405.9 313.11 398.78 312.97 391.56 312.26 384.41 311.71 377.24 311.04 370.07 310.87 362.88 309.91 355.72 310.29 348.51 309.5 341.32 309.74 334.13 310.23 326.94 310.27 319.74 310.33 312.53 310.93 305.35 311.97 298.22 312.36 291.02 313.57 283.91 314.58 276.78 316.45 269.81 318.17 262.83 319.69 255.79 321.97 248.97 324.01 242.07 326.46 235.31 328.99 228.56 332.53 222.27 336.15 216.06 339.86 209.94 343.18 203.49 347.83 197.97 352.63 192.6 358.09 187.91 363.43 183.13 368.83 178.37 375.17 174.92 381.47 171.52 387.4 168.31"/><polygon class="b" points="387.4 168.31 383.61 173.87 379.89 179.99 375.53 185.68 371.97 191.91 367.69 197.64 363.69 203.57 359.44 209.33 355.66 215.42 351.67 221.36 347.05 226.86 343.11 232.83 339.12 238.77 334.99 244.62 330.42 250.14 326.63 256.22 322.35 261.95 318.14 267.73 313.73 273.37 309.54 279.17 305.12 284.79 301.34 290.9 297.12 296.68 292.74 302.35 287.92 307.68 283.81 313.54 279.68 319.4 275.37 325.11 271.07 330.84 266.03 335.99 261.96 341.89 257.67 347.64 252.75 352.86 248.36 358.52 243.65 363.91 239.22 369.55 234.69 375.1 229.44 380.02 224.71 385.38 219.95 390.74 215.18 396.08 210.15 401.19 204.57 405.7 199.22 410.44 194.02 415.36 188.4 419.81 182.12 423.24 175.84 426.76 168.78 426.47 163.72 422.24 161.28 415.66 160.66 408.53 163.81 402.31 170.13 399.45 177.29 400.24 184.1 402.55 190.59 405.6 196.72 409.31 202.82 413.02 208.94 416.71 214.8 420.8 220.59 424.98 226.7 428.75 231.95 433.65 237.68 437.93 243.21 442.45 248.72 447 254.43 451.32 259.63 456.25 265.09 460.86 270.46 465.59 275.37 470.82 280.34 475.97 285.38 481.04 291.06 485.46 295.71 490.92 300.63 496.11 305.36 501.48 310.45 506.5 315.44 511.63 320.18 516.99 324.64 522.59 329.25 528.05 334.51 532.99 338.45 539.01 342.94 544.57 347.44 550.13 351.86 555.75 356.05 561.55 360.04 567.49 364.3 573.25 368.01 579.37 371.35 585.72 374.96 591.88 378.35 598.19 380.8 604.93 383.97 611.37 386.2 618.2 386.86 625.36 387.51 632.42 386.66 639.44 381.52 639.19 377.12 633.53 373.59 627.26 370.63 620.7 367.35 614.3 364.25 607.8 361.81 601.02 359.61 594.17 357.08 587.45 354.24 580.83 352.34 573.88 349.45 567.27 347.33 560.39 345.03 553.58 343.46 546.54 341.48 539.63 339.43 532.73 337.96 525.68 335.84 518.81 334.34 511.77 332.59 504.8 330.3 497.95 328.89 490.9 327.14 483.92 326.13 476.78 324.32 469.81 323.04 462.74 321.49 455.71 320.69 448.55 319.1 441.52 318.27 434.37 317.37 427.24 316.25 420.13 315.08 413.04 314.18 405.9 313.11 398.78 312.97 391.56 312.26 384.41 311.71 377.24 311.04 370.07 310.87 362.88 309.91 355.72 310.29 348.51 309.5 341.32 309.74 334.13 310.23 326.94 310.27 319.74 310.33 312.53 310.93 305.35 311.97 298.22 312.36 291.02 313.57 283.91 314.58 276.78 316.45 269.81 318.17 262.83 319.69 255.79 321.97 248.97 324.01 242.07 326.46 235.31 328.99 228.56 332.53 222.27 336.15 216.06 339.86 209.94 343.18 203.49 347.83 197.97 352.63 192.6 358.09 187.91 363.43 183.13 368.83 178.37 375.17 174.92 381.47 171.52 387.4 168.31"/><polygon class="a" points="585.52 317.5 580.85 322.36 575.93 327.5 570.43 332.01 565.12 336.73 559.92 341.56 554.87 346.55 549.48 351.19 544.63 356.39 539.01 360.78 534.03 365.85 529.23 371.12 523.93 375.86 518.29 380.21 513.28 385.26 508.35 390.37 503.35 395.42 497.86 399.95 492.84 404.98 487.25 409.41 482.24 414.46 477.35 419.63 471.82 424.12 466.95 429.33 461.56 433.79 461.51 426.73 461.87 419.55 461.58 412.36 461.99 405.18 461.06 398 461.93 390.82 461.94 383.64 461.68 376.46 461.81 369.28 461.41 362.1 461.93 354.92 461.2 347.73 461.95 340.55 461.09 333.36 461.52 326.18 461.39 319 461.11 311.81 461.82 304.63 461.19 297.44 461.93 290.25 461.59 283.07 461.65 275.88 461.82 268.69 461.96 261.51 461.88 254.32 461.2 247.14 461.51 239.95 461.49 232.76 461.54 225.58 461.87 218.39 461.99 211.19 461.33 203.6 466.67 209.2 472.64 213.51 477.5 219.05 483.15 223.72 488.76 228.44 493.84 233.74 499.53 238.37 504.55 243.73 510.13 248.48 515.37 253.6 520.88 258.43 526.11 263.57 531.75 268.25 537.53 272.77 542.5 278.19 548.25 282.76 553.31 288.08 559 292.72 564.02 298.08 570.06 302.33 575.18 307.6 580.33 312.83 585.52 317.5"/><polygon class="b" points="585.52 317.5 580.85 322.36 575.93 327.5 570.43 332.01 565.12 336.73 559.92 341.56 554.87 346.55 549.48 351.19 544.63 356.39 539.01 360.78 534.03 365.85 529.23 371.12 523.93 375.86 518.29 380.21 513.28 385.26 508.35 390.37 503.35 395.42 497.86 399.95 492.84 404.98 487.25 409.41 482.24 414.46 477.35 419.63 471.82 424.12 466.95 429.33 461.56 433.79 461.51 426.73 461.87 419.55 461.58 412.36 461.99 405.18 461.06 398 461.93 390.82 461.94 383.64 461.68 376.46 461.81 369.28 461.41 362.1 461.93 354.92 461.2 347.73 461.95 340.55 461.09 333.36 461.52 326.18 461.39 319 461.11 311.81 461.82 304.63 461.19 297.44 461.93 290.25 461.59 283.07 461.65 275.88 461.82 268.69 461.96 261.51 461.88 254.32 461.2 247.14 461.51 239.95 461.49 232.76 461.54 225.58 461.87 218.39 461.99 211.19 461.33 203.6 466.67 209.2 472.64 213.51 477.5 219.05 483.15 223.72 488.76 228.44 493.84 233.74 499.53 238.37 504.55 243.73 510.13 248.48 515.37 253.6 520.88 258.43 526.11 263.57 531.75 268.25 537.53 272.77 542.5 278.19 548.25 282.76 553.31 288.08 559 292.72 564.02 298.08 570.06 302.33 575.18 307.6 580.33 312.83 585.52 317.5"/><polygon class="b" points="486.65 272.68 491.84 276.96 496.84 281.99 501.76 287.11 506.21 292.69 511.23 297.71 516.92 302.06 521.35 307.66 526.85 312.19 531.42 317.65 536.83 322.27 541.66 327.48 546.81 332.37 551.91 337.31 556.97 342.29 561.82 347.48 566.45 352.89 571.57 357.81 576.55 362.88 581.97 367.64 577.06 373.1 571.62 377.9 566.22 382.74 561.38 388.16 556.43 393.45 551.46 398.72 546.07 403.58 540.99 408.74 535.59 413.58 530.71 418.94 525.76 424.24 520.06 428.79 515.41 434.39 510.34 439.57 505.22 444.7 499.75 449.48 494.57 454.56 489.86 460.11 484.52 464.92 484.38 457.87 484.17 450.73 485.03 443.6 484.79 436.46 484.51 429.32 484.68 422.19 485.08 415.06 485.32 407.93 485.44 400.79 484.92 393.65 484.93 386.51 484.91 379.37 485.61 372.24 485.24 365.1 485.46 357.96 485.37 350.82 486.17 343.69 485.46 336.54 486.23 329.41 486.04 322.27 486.27 315.14 486.11 308 486.66 300.86 486.4 293.72 486.48 286.58 486.81 279.44 486.65 272.68"/><path class="b" d="M533.31,418.05,586,545s-60.24,71.33-152.94,31.18l111.24-55.82"/></svg>