<svg xmlns="http://www.w3.org/2000/svg" viewBox="0 0 800 800"><defs><style>.a{fill:#fff;}.b,.c,.d,.e{fill:none;stroke-linejoin:bevel;}.b,.c{stroke:#000;}.b,.e{stroke-width:13px;}.d,.e{stroke:#fff;}.d{stroke-width:26px;}</style></defs><title>canvas (41)</title><polyline class="a" points="89.54 451.44 95.98 448.21 102.32 444.77 108.87 441.76 115.29 438.5 121.87 435.55 128.34 432.38 134.85 429.3 141.34 426.18 147.78 422.96 154.08 419.42 160.79 416.76 167.37 413.83 173.46 409.88 180.3 407.47 186.67 404.1 192.8 400.25 199.75 398.07 206.09 394.63 212.56 391.45 218.84 387.9 225.56 385.24 231.82 381.64 238.53 378.95 245.05 375.89 251.34 372.35 258.02 369.61 264.42 366.27 270.88 363.09 277.25 359.7 283.78 356.66 290.32 353.63 296.56 350 303.35 347.46 309.78 344.21 315.88 340.27 322.76 337.93 328.88 334.03 335.44 331.01 341.82 327.67 348.11 324.42 354.06 320.56 360.41 317.43 366.79 314.35 373.15 311.26 379.23 307.57 385.7 304.68 392.31 302.15 398.87 299.48 405.61 297.31 412.09 294.35 419.03 292.81 425.9 291.11 432.71 289.06 439.72 287.93 446.78 287.19 453.88 287.03 460.93 287.69 468.03 287.82 475.15 288.67 482.34 289.33 489.5 288.36 496.67 287.98 503.8 287.08 510.97 286.31 517.83 283.96 525.06 283.28 531.74 280.41 538.64 278.44 545.48 276.26 552.25 273.87 559.14 271.75 565.6 268.56 572.35 266.07 578.9 263.13 585.69 260.64 591.97 257.1 598.04 253.19 604.23 249.55 610.58 246.16 616.83 242.55 622.38 237.93 628.37 233.93 634 229.44 639.07 224.31 644.66 219.76 649.19 214.15 653.95 208.79 659.05 203.63 662.8 197.45 665.55 190.78 669.24 184.44 674.8 179.68 681.66 178.43 688.44 180.38 693.88 185.13 698.21 190.9 702.3 196.83 706.63 202.67 709.87 209.16 713 215.7 715.15 222.66 718.6 229.09 721.05 235.91 722.81 242.97 725.38 249.76 727.46 256.72 729.03 263.81 729.46 271.1 731.13 278.2 730.05 285.4 727 291.52 719.92 291.54 712.86 292.4 705.96 294.08 698.95 295.22 692.01 296.7 685.32 299.3 678.42 300.92 671.54 302.63 664.38 303.2 657.73 305.87 650.79 307.34 643.95 309.21 636.96 310.5 630.05 312.15 623.25 314.19 616.32 315.76 609.68 318.37 602.84 320.25 596.06 322.36 589.33 324.6 582.47 326.4 575.46 327.76 568.91 330.56 562.11 332.61 555.43 335.02 549.03 338.49 541.99 336.76 534.98 335.46 527.94 334.35 520.79 334.38 513.68 334.18 506.57 333.58 499.47 334.25 492.34 334.13 485.2 334.39 478.16 335.61 471.12 336.78 464.29 338.91 457.35 340.63 450.59 342.96 444.39 346.59 438.04 349.8 431.99 353.56 426.57 358.19 420.98 362.61 416.3 367.99 411.41 373.21 407.83 379.52 401.26 382.68 394.9 386.16 388.15 388.86 381.71 392.2 375.1 395.17 368.77 398.73 362 401.37 355.73 405.04 349.32 408.42 342.72 411.43 336.42 415.04 330.07 418.55 323.58 421.76 316.61 424.02 310.32 427.67 303.61 430.45 297.36 434.17 290.95 437.55 284.65 441.17 277.93 443.93 271.39 447.07 264.82 450.14 258.42 453.57 251.73 456.4 245.61 460.37 238.89 463.13 232.71 466.98 225.69 469.16 219.27 472.54 212.9 476.02 206.72 479.89 200.18 483.01 193.35 485.57 187.05 489.21 180.59 492.54"/><polyline class="b" points="89.54 451.44 95.98 448.21 102.32 444.77 108.87 441.76 115.29 438.5 121.87 435.55 128.34 432.38 134.85 429.3 141.34 426.18 147.78 422.96 154.08 419.42 160.79 416.76 167.37 413.83 173.46 409.88 180.3 407.47 186.67 404.1 192.8 400.25 199.75 398.07 206.09 394.63 212.56 391.45 218.84 387.9 225.56 385.24 231.82 381.64 238.53 378.95 245.05 375.89 251.34 372.35 258.02 369.61 264.42 366.27 270.88 363.09 277.25 359.7 283.78 356.66 290.32 353.63 296.56 350 303.35 347.46 309.78 344.21 315.88 340.27 322.76 337.93 328.88 334.03 335.44 331.01 341.82 327.67 348.11 324.42 354.06 320.56 360.41 317.43 366.79 314.35 373.15 311.26 379.23 307.57 385.7 304.68 392.31 302.15 398.87 299.48 405.61 297.31 412.09 294.35 419.03 292.81 425.9 291.11 432.71 289.06 439.72 287.93 446.78 287.19 453.88 287.03 460.93 287.69 468.03 287.82 475.15 288.67 482.34 289.33 489.5 288.36 496.67 287.98 503.8 287.08 510.97 286.31 517.83 283.96 525.06 283.28 531.74 280.41 538.64 278.44 545.48 276.26 552.25 273.87 559.14 271.75 565.6 268.56 572.35 266.07 578.9 263.13 585.69 260.64 591.97 257.1 598.04 253.19 604.23 249.55 610.58 246.16 616.83 242.55 622.38 237.93 628.37 233.93 634 229.44 639.07 224.31 644.66 219.76 649.19 214.15 653.95 208.79 659.05 203.63 662.8 197.45 665.55 190.78 669.24 184.44 674.8 179.68 681.66 178.43 688.44 180.38 693.88 185.13 698.21 190.9 702.3 196.83 706.63 202.67 709.87 209.16 713 215.7 715.15 222.66 718.6 229.09 721.05 235.91 722.81 242.97 725.38 249.76 727.46 256.72 729.03 263.81 729.46 271.1 731.13 278.2 730.05 285.4 727 291.52 719.92 291.54 712.86 292.4 705.96 294.08 698.95 295.22 692.01 296.7 685.32 299.3 678.42 300.92 671.54 302.63 664.38 303.2 657.73 305.87 650.79 307.34 643.95 309.21 636.96 310.5 630.05 312.15 623.25 314.19 616.32 315.76 609.68 318.37 602.84 320.25 596.06 322.36 589.33 324.6 582.47 326.4 575.46 327.76 568.91 330.56 562.11 332.61 555.43 335.02 549.03 338.49 541.99 336.76 534.98 335.46 527.94 334.35 520.79 334.38 513.68 334.18 506.57 333.58 499.47 334.25 492.34 334.13 485.2 334.39 478.16 335.61 471.12 336.78 464.29 338.91 457.35 340.63 450.59 342.96 444.39 346.59 438.04 349.8 431.99 353.56 426.57 358.19 420.98 362.61 416.3 367.99 411.41 373.21 407.83 379.52 401.26 382.68 394.9 386.16 388.15 388.86 381.71 392.2 375.1 395.17 368.77 398.73 362 401.37 355.73 405.04 349.32 408.42 342.72 411.43 336.42 415.04 330.07 418.55 323.58 421.76 316.61 424.02 310.32 427.67 303.61 430.45 297.36 434.17 290.95 437.55 284.65 441.17 277.93 443.93 271.39 447.07 264.82 450.14 258.42 453.57 251.73 456.4 245.61 460.37 238.89 463.13 232.71 466.98 225.69 469.16 219.27 472.54 212.9 476.02 206.72 479.89 200.18 483.01 193.35 485.57 187.05 489.21 180.59 492.54"/><polygon class="a" points="136.31 470.78 137.75 477.77 136.87 484.82 133.93 491.35 127.94 495.38 120.88 496.23 113.79 495.14 107.13 492.44 101.12 488.44 96.23 483.14 92.06 477.32 88.5 471.01 86.74 464.01 87.44 456.75 91.01 450.42 97 446.44 104.04 445.59 111.2 446.32 117.67 449.53 123.99 453.08 129.1 458.25 133.78 463.89 136.31 470.78"/><polygon class="b" points="136.31 470.78 137.75 477.77 136.87 484.82 133.93 491.35 127.94 495.38 120.88 496.23 113.79 495.14 107.13 492.44 101.12 488.44 96.23 483.14 92.06 477.32 88.5 471.01 86.74 464.01 87.44 456.75 91.01 450.42 97 446.44 104.04 445.59 111.2 446.32 117.67 449.53 123.99 453.08 129.1 458.25 133.78 463.89 136.31 470.78"/><polygon points="131.35 466.95 132.55 473.88 129.45 480.37 122.51 481.96 116.13 480.94 110.79 477.25 106.5 472.47 102.88 467.02 102.13 459.83 105.86 453.86 112.4 450.94 118.57 453.32 124.3 456.29 128.54 461.19 131.35 466.95"/><polygon class="c" points="131.35 466.95 132.55 473.88 129.45 480.37 122.51 481.96 116.13 480.94 110.79 477.25 106.5 472.47 102.88 467.02 102.13 459.83 105.86 453.86 112.4 450.94 118.57 453.32 124.3 456.29 128.54 461.19 131.35 466.95"/><polygon class="a" points="183.68 470.69 184.83 477.63 184.98 484.76 181.68 491.23 175.35 494.53 168.55 496.38 161.25 495.73 154.43 492.93 148.45 488.67 143.5 483.3 139.45 477.3 136.45 470.73 135.16 463.77 136.01 456.82 138.66 450.21 144.51 445.85 151.71 445.11 159.02 445.63 165.52 449.03 171.68 452.87 176.55 458.26 181.2 463.86 183.68 470.69"/><polygon class="b" points="183.68 470.69 184.83 477.63 184.98 484.76 181.68 491.23 175.35 494.53 168.55 496.38 161.25 495.73 154.43 492.93 148.45 488.67 143.5 483.3 139.45 477.3 136.45 470.73 135.16 463.77 136.01 456.82 138.66 450.21 144.51 445.85 151.71 445.11 159.02 445.63 165.52 449.03 171.68 452.87 176.55 458.26 181.2 463.86 183.68 470.69"/><polygon points="179.32 466.67 179.57 473.6 176.46 479.38 170.19 482.63 163.59 481.25 158.04 477.57 153.51 472.75 151.39 466.56 150.62 459.77 153.69 453.86 160.08 451.06 166.64 452.19 172.26 455.75 176 461.16 179.32 466.67"/><polygon class="c" points="179.32 466.67 179.57 473.6 176.46 479.38 170.19 482.63 163.59 481.25 158.04 477.57 153.51 472.75 151.39 466.56 150.62 459.77 153.69 453.86 160.08 451.06 166.64 452.19 172.26 455.75 176 461.16 179.32 466.67"/><polyline class="b" points="407.3 379.19 408.94 372.3 410.64 365.32 410.99 358.13 409.42 351.1 407.55 344.24 403.86 338.14 398.68 333.12 391.9 330.74 385.04 329.11 378.62 332.36 372.3 335.82 365.32 337.95 359.15 341.73 352.86 345.26 346.42 348.49 339.57 350.89 333.44 354.75 326.91 357.79 320.21 360.49 313.63 363.43 307.27 366.82 300.95 370.3 294.6 373.71 287.8 376.19 281.44 379.58 275 382.8 268.63 386.18 261.99 389 255.53 392.18 248.82 394.86 242.72 398.79 236.24 401.95 229.42 404.4 223.22 408.13 216.86 411.54 210.41 414.75 203.92 417.88 197.34 420.84 190.78 423.81 184.24 426.84 178.09 430.68 171.26 433.11 164.84 436.4 158.17 439.17 151.89 442.72 145.39 445.85 139.02 449.26 132.49 452.33"/><polyline class="b" points="385.44 329.15 380.19 323.79 372.45 323.24 364.75 323.73 357.11 324.83 349.65 326.87 341.95 327.8"/><polyline class="b" points="443.99 344.44 449.35 349.66 453.52 355.86 458.04 361.82 459.67 369.14 457.37 375.74 458.85 368.5 461.41 361.17 461.61 353.42 461.75 345.7 459.45 338.33"/><polyline class="b" points="678.24 270.23 677.87 262.96 676.57 255.87 675.19 248.78 674.22 241.62 672.63 234.57 671.12 227.5 669.87 220.39 668.71 213.26 667.28 206.17 666.17 199.54 661.28 204.46 655.31 208.95 650.55 214.73 644.5 219.38 648.79 225.27 653.02 231 656.95 236.93 660.66 243 664.58 248.94 668.61 254.8 672.33 260.87 676.58 266.59 680.34 272.64 684.38 278.49 688.3 284.43 692.18 290.41 696.01 296.37 689.31 297.74 682.62 299.36 675.84 300.63 669.41 302.15 665.41 296.43 660.99 290.69 656.5 285 651.82 279.45 647.74 273.45 643.44 267.62 639.52 261.5 634.9 255.91 631.17 249.66 625.95 244.49 622.5 238.02"/><polyline class="b" points="636.13 310.99 635.39 303.48 634.42 295.99 633.66 288.48 634.02 280.88 633.17 273.38 632.32 265.88 631.59 258.36 631.77 250.77"/><polyline class="b" points="595.61 250.82 598.02 257.27 600.49 263.69 602.49 270.29 604.74 276.79 606.84 283.35 610.03 289.52 612.27 296.03 614.74 302.46 616.25 309.24 618.59 315.73"/><polyline class="b" points="666.39 190.76 670.01 197.13 673.27 203.71 676.97 210.03 681.39 215.91 684.94 222.31 688.38 228.79 692.71 234.72 696.36 241.06 699.92 247.47 704.21 253.42 707.49 260 712.21 265.69 715.61 272.2 719.71 278.28 722.99 284.86 727.19 290.88"/><polyline class="b" points="701.99 194.74 700.54 202.27 699.12 209.81 698.46 217.43 698.36 225.13 696.95 232.67 696.52 240.32"/><polygon points="366.9 315.62 372.51 318.8 378.28 322.78 384.33 326.31 390.42 329.81 394.84 335.08 400.12 339.48 404.46 344.79 409.73 349.4 410.72 357.14 411.43 364.79 412.67 371.87 418.54 368.23 423.96 363.19 430.14 359.12 435.8 354.38 441.66 349.89 447.27 345.08 452.75 339.89 459.88 339.82 466.85 339.27 473.86 339.38 480.83 338.82 487.75 337.68 494.71 337.06 501.67 336.27 508.69 336.64 515.63 335.64 522.61 335.1 529.6 334.65 536.67 334.29 543.75 334.11 550.85 334.08 557.95 334.02 564.96 332.85 571.95 330.95 578.95 328.98 585.59 325.9 592.78 324.51 599.64 322.09 606.33 319.14 612.95 316.89 611.69 310.34 610.64 303.44 609.35 296.59 607.9 289.77 606.33 282.97 604.36 276.42 598.91 270.69 593.24 264.96 587.8 259.36 581.38 261.14 575.05 263.96 568.66 266.66 561.99 268.63 555.59 271.29 549.05 273.59 542.39 275.55 536.09 278.49 529.64 281.07 522.93 282.74 515.83 283.79 508.64 284.29 501.42 284.36 494.23 284.88 487.05 285.56 479.86 286.11 472.61 285.73 465.45 286.72 458.22 286.66 451.05 287.7 443.84 287.88 436.74 290.19 429.63 292.53 422.78 295.56 415.57 297.64 408.6 300.36 401.76 303.45 394.57 305.56 387.46 307.88 380.63 311.02 373.41 313.06 366.9 315.62"/><polyline class="b" points="122.42 510.48 121.15 516.93 120.44 523.5 119.57 530.03 117.47 536.34"/><polyline class="b" points="104.76 505.6 100.44 512.72 96.23 519.91 91.77 526.95"/><polyline class="b" points="87.43 497.01 81.38 501.41 75.4 505.9 69.3 510.24"/><polyline class="b" points="190.94 506.79 192.5 513.18 194.26 519.52 195.95 525.89 197.45 532.31"/><polyline class="b" points="172.37 510.05 171.53 518.34 170.59 526.62 169.7 534.91"/><polyline class="b" points="153.15 509.74 149.98 516.51 146.28 523.02 142.79 529.64"/><polyline class="d" points="372.38 273.65 375.71 267.3 379.48 261.19 382.16 254.46 386.1 248.45 390.36 242.67 394.93 237.14 398.68 230.96 403.8 225.89 408.81 220.77 413.7 215.51 419.29 211 425.12 206.84 430.59 202.18 436.41 197.94 443.18 195.38 449.36 191.7 456.02 188.99 463.15 187.87 470 185.63 477.19 185.29 484.36 185.09 491.39 186.29 498.47 187.43 504.95 190.51 511.19 194.1 515.94 199.5 520.06 205.26 524.4 210.99 527.24 217.59 528.26 224.73 530.78 231.46 531.98 238.51 531.96 245.68 532.75 252.78 532.78 259.92 532.5 267.06 531.99 274.18 531.29 281.28 529.54 288.24 528.75 295.33 526.96 302.24 526.38 309.41 523.9 316.14 522.04 323.02 520.79 330.08 517.93 336.65 515.65 343.39 514 350.39 510.99 356.97 507.9 363.5 504.8 370.01 502.16 376.75 499.09 383.29 495.15 389.38 491.84 395.79 488.14 401.99 484.82 408.4 481.74 414.98 477.71 420.99 473.06 426.57 469.07 432.59 464.97 438.52 460.52 444.2 455.75 449.6 451.79 455.75 446.17 460.36 440.82 465.19 435.73 470.39 429.74 474.5 423.3 477.91 416.17 479.41 409.21 481.23 402.08 480.4 395.2 478.59 388.82 475.37 383.61 471.07 378.19 466.88 374.41 461.18 370.7 455.48 367.65 449.4 364.36 443.39"/><polyline class="b" points="358.66 318.01 359.53 311.36 361.04 304.83 363.3 298.12 365.54 291.42 367.97 284.78 370.96 278.38 373.6 271.83 377.11 265.7 379.59 259.01 383.19 252.91 387.21 247.09 390.99 241.09 395.89 235.94 400.16 230.31 404.82 225.01 409.31 219.52 414.53 214.73 420.02 210.28 425.85 206.27 431.47 202.03 437.04 197.59 443.7 195.04 449.71 191.21 456.66 189.59 463.33 187.31 470.21 185.61 477.28 185.15 484.35 185.24 491.5 185.67 498.13 188.43 504.7 190.97 510.85 194.53 516.03 199.42 520.74 204.81 523.49 211.44 527.12 217.63 529.29 224.46 530.32 231.54 531.93 238.52 531.95 245.68 532.28 252.79 532.3 259.91 532.26 267.04 531.25 274.11 530.6 281.2 529.99 288.31 529.17 295.4 527.01 302.25 525.32 309.16 524.37 316.26 522.58 323.17 520.87 330.1 518.63 336.88 515.37 343.29 513.38 350.14 511.05 356.99 508.36 363.7 505.31 370.25 501.54 376.45 498.58 383.03 495.39 389.51 491.95 395.85 489.05 402.5 484.77 408.38 481.03 414.55 477.32 420.74 473.06 426.57 469.81 433.11 465.43 438.86 461.03 444.61 456.1 449.9 451.74 455.7 446.56 460.76 441.31 465.75 435.44 470 429.6 474.28 422.83 476.89 416.33 480 409.2 481.07 402.06 480.49 394.91 479.33 388.83 475.35 382.62 471.61 378.29 465.79 373.37 460.5 369.55 454.37 367.33 447.45 363.68 441.19 361.44 434.34 359.97 427.28 358.2 420.32 356.51 413.32 355.94 406.13"/><polyline class="e" points="374.58 448.19 377.09 455.14 380.09 461.89 383.2 468.58 385.57 475.61 389.32 481.99 393.09 488.33 396.37 494.94 399.7 501.54 403.57 507.82 408.11 513.67 412.53 519.57 416.7 525.65 420.94 531.69 425.7 537.33 429.77 543.44 434 549.46 436.61 556.34 438.74 563.32 441.24 570.27 441.14 577.66 441.18 584.93 441.76 592.31 440.63 599.59 438.74 606.69 436.14 613.56 434.26 620.66 430.95 627.21 428.42 634.11 424.93 640.56 421.04 646.77 417.88 653.41 413.77 659.49 409.36 665.35 405.53 671.61 401.62 677.81 397.02 683.51 392.75 689.14 389.27 695.29 386.89 701.95 384.22 708.46 382.7 715.33 380.6 722.1 380.76 729.2 380.28 736.2 379.69 743.27 380.94 750.24 381.55 757.28 382.83 764.23 384.71 771.04 387.01 777.72 389.67 784.25 391.93 790.94 395.36 797.12 398.47 803.42 402.13 809.41"/><polyline class="b" points="367.97 449.08 370.27 456.08 372.52 463.12 375.58 469.85 379.53 476.15 381.86 483.23 385.42 489.69 389.68 495.76 392.93 502.39 397.3 508.36 400.86 514.84 404.92 521 409.62 526.71 414.24 532.46 418.63 538.4 422.58 544.3 426.46 550.24 430.02 556.42 431.86 563.33 434.16 570.05 435.81 577 435.58 584.16 435.38 591.23 435.25 598.3 434.37 605.34 433.37 612.39 430.83 619.05 428.53 625.75 425.94 632.34 423.5 639.02 420.42 645.43 416.57 651.41 412.64 657.32 408.87 663.34 404.76 669.14 399.67 674.13 394.93 679.39 389.65 684.11 384.68 689.37 380.46 695.24 376.92 701.49 374.01 708.04 372.03 714.93 369.93 721.87 370.32 729.13 369.67 736.3 370.94 743.41 371.59 750.55 372.85 757.64 374.71 764.59 376.69 771.51 379.02 778.32 382.42 784.7 384.92 791.45 388.22 797.84 391.12 804.44 395.16 810.4"/></svg>