<svg xmlns="http://www.w3.org/2000/svg" viewBox="0 0 800 800"><defs><style>.a{fill:#fff;}.b{fill:none;stroke:#000;stroke-linejoin:bevel;stroke-width:13px;}</style></defs><title>canvas (33)</title><path d="M504.21,411.26c-33.12-18-64.66-17.48-93.79,1.42-18.6,12.07-30.59,28.33-34.47,34.06a825.08,825.08,0,0,1,17,131.19c2.05,43.52.11,83.53-5.77,118.93-6.74,40.58-18.74,75.2-35.66,103.13h55.12c62.79-142.86,86.09-240.19,94.51-297.46C509.11,448.7,505.65,419.68,504.21,411.26Z"/><path d="M344.52,655.48C325.34,643.35,301.08,615,299,612.58c-20.07-21.44-35.63-50.67-46.25-86.9C244.33,497,239,463.77,236.8,427a666.8,666.8,0,0,1,3.35-114.82L253,314a652.91,652.91,0,0,0-3.24,112.53c3.3,55.83,16.19,131.91,58.8,177.33l.22.25c.25.29,24.71,29.09,42.65,40.43Z"/><path d="M333.89,732.25c-29.28-28.65-44.21-69.95-51.58-99.55A323.56,323.56,0,0,1,273.12,575l12.88-.54h0c0,1.12,4.86,97.64,56.87,148.53Z"/><path class="a" d="M383,503.27l-8.67-9.68c2-1.81,49.87-44.17,96.09-41.25,17.81,1.13,33,8.8,45.12,22.8l-9.83,8.51c-9.89-11.42-21.69-17.42-36.08-18.33C428.88,462.71,383.46,502.87,383,503.27Z"/><path class="a" d="M391.78,562.18,383,552.63c2-1.86,49.73-45.5,89.53-39.76,14.41,2.08,25.93,10.18,34.23,24.08l-11.16,6.66c-6.28-10.52-14.43-16.37-24.92-17.88C436.92,520.86,392.23,561.76,391.78,562.18Z"/><path class="a" d="M391.29,612l-7.85-10.36c1.88-1.42,46.34-34.74,79.05-25,12.68,3.78,21.78,13.19,27.06,28L477.31,609c-3.86-10.82-9.92-17.33-18.52-19.9C432.38,581.25,391.7,611.71,391.29,612Z"/><path class="a" d="M391.87,669.33l-9-9.38c4-3.82,39.7-37.16,68.06-30.39,11.36,2.71,19.61,11.18,24.53,25.18L463.19,659c-3.4-9.68-8.39-15.19-15.27-16.83C429.71,637.84,401.28,660.31,391.87,669.33Z"/><path class="a" d="M382.12,717.33l-9-9.42c1.43-1.35,35.22-33.12,62.41-27.95,10.38,2,18.3,8.71,23.54,20l-11.79,5.47c-3.43-7.39-8.06-11.55-14.17-12.72C416,689.46,390.5,709.38,382.12,717.33Z"/><path class="a" d="M371,766.49l-8-10.21c4-3.15,39.66-30.56,62.77-24.41,7.25,1.93,12.67,6.92,15.69,14.41l-12.06,4.85c-1.49-3.7-3.7-5.83-7-6.7C409.68,741,384.14,756.17,371,766.49Z"/><path d="M297.82,433.34c-8.67,0-22.88-3.44-46-15.59l6-11.51c28.72,15.1,39.69,14.43,42.46,13.83l14-24.33,11.26,6.5-15,26-.85,1.16C308.21,431.11,304.81,433.34,297.82,433.34Zm3.27-13.49Z"/><path d="M284.82,405.34c-8.67,0-22.88-3.44-46-15.59l6-11.51c28.72,15.1,39.69,14.43,42.46,13.83l14-24.33,11.26,6.5-15,26-.85,1.16C295.21,403.11,291.81,405.34,284.82,405.34Zm3.27-13.49Z"/><path d="M307.82,462.34c-8.67,0-22.88-3.44-46-15.59l6-11.51c28.72,15.1,39.69,14.43,42.46,13.83l14-24.33,11.26,6.5-15,26-.85,1.16C318.21,460.11,314.81,462.34,307.82,462.34Zm3.27-13.49Z"/><path class="a" d="M295,257s76.74-58.86,173.87-45.68,38.89,87.33,22.76,90.75-68.39-14.58-83.76-9.58-61.37,67-98.87,55S263,290.5,295,257Z"/><path d="M319.21,355.57A39.74,39.74,0,0,1,307,353.69c-18.63-6-31.95-19.73-36.54-37.76-5.37-21.1,2-44.8,19.82-63.42l.74-.67c.81-.62,20.22-15.38,52-28.62,29.32-12.23,75.12-25.34,126.74-18.34,48.79,6.62,59.78,28.26,60.41,45.25,1,26.86-24.32,55.58-37.18,58.3-9,1.91-24.46-1.23-42.36-4.87-15.29-3.11-34.31-7-40.74-4.88-3.38,1.1-11.8,8.74-19.23,15.48C371,332,345,355.57,319.21,355.57Zm-19.87-93.7c-14.4,15.29-20.48,34.26-16.26,50.85,3.51,13.8,13.42,24,27.9,28.59,22.46,7.19,51.63-19.27,70.94-36.78,10.4-9.43,17.92-16.25,23.94-18.21,9.68-3.15,28,.57,47.35,4.51,14.4,2.93,30.71,6.24,37.07,4.89,5.55-1.18,27.68-23.58,26.88-45.1-.81-21.75-27.19-29.87-49.17-32.85C378.06,205.56,305.22,257.53,299.33,261.88Z"/><path class="a" d="M304,262s76.74-58.86,173.87-45.68,38.89,87.33,22.76,90.75-68.39-14.58-83.76-9.58-61.37,67-98.87,55S272,295.5,304,262Z"/><path d="M328.21,360.57A39.74,39.74,0,0,1,316,358.69c-18.63-6-31.95-19.73-36.54-37.76-5.37-21.1,2-44.8,19.82-63.42l.74-.67c.81-.62,20.22-15.38,52-28.62,29.32-12.23,75.11-25.34,126.74-18.34,48.79,6.62,59.78,28.26,60.41,45.25,1,26.86-24.32,55.58-37.18,58.3-9,1.91-24.46-1.23-42.36-4.87-15.29-3.11-34.32-7-40.74-4.88-3.38,1.1-11.8,8.74-19.23,15.48C380,337,354,360.57,328.21,360.57Zm-19.87-93.7c-14.4,15.29-20.48,34.26-16.26,50.85,3.51,13.8,13.42,24,27.9,28.59,22.45,7.19,51.63-19.27,70.94-36.78,10.4-9.43,17.92-16.25,23.94-18.21,9.68-3.15,28,.57,47.35,4.51,14.4,2.93,30.71,6.24,37.07,4.89,5.55-1.18,27.68-23.58,26.88-45.1-.81-21.75-27.19-29.87-49.17-32.85C387.06,210.56,314.22,262.53,308.33,266.88Z"/><path class="a" d="M314,268s76.74-58.86,173.87-45.68,38.89,87.33,22.76,90.75-68.39-14.58-83.76-9.58-61.37,67-98.87,55S282,301.5,314,268Z"/><path d="M338.21,366.57A39.74,39.74,0,0,1,326,364.69c-18.63-6-31.95-19.73-36.54-37.76-5.37-21.1,2-44.8,19.82-63.42l.74-.67c.81-.62,20.22-15.38,52-28.62,29.32-12.23,75.12-25.34,126.74-18.34,48.79,6.62,59.78,28.26,60.41,45.25,1,26.86-24.32,55.58-37.18,58.3-9,1.91-24.46-1.23-42.36-4.87-15.29-3.11-34.31-7-40.74-4.88-3.38,1.1-11.8,8.74-19.23,15.48C390,343,364,366.57,338.21,366.57Zm-19.87-93.7c-14.4,15.29-20.48,34.26-16.26,50.85,3.51,13.8,13.42,24,27.9,28.59,22.45,7.19,51.63-19.27,70.94-36.78,10.4-9.43,17.92-16.25,23.94-18.21,9.68-3.15,28,.57,47.35,4.51,14.4,2.93,30.71,6.24,37.07,4.89,5.55-1.18,27.68-23.58,26.88-45.1-.81-21.75-27.19-29.87-49.17-32.85C397.06,216.56,324.22,268.53,318.33,272.88Z"/><path class="a" d="M297.66,342.5c-.42,0-3.08.1-7.19.1-13.16,0-41.11-.92-57.58-8.15l-3.8-4.89c-.54-3.27-4.92-32.36,7.75-47.7l7.39-1.91c.22.09,22.63,8.75,41.1,6.54l6.78,8.93c-.38.94-9.31,23.72,8.77,35.08Z"/><path d="M483.26,202.18l-.29-.38c-41.91-49.53-88.85-50.86-120.84-43.25A160.78,160.78,0,0,0,302.88,187l-.13.11c-.72.62-17.74,15.51-34.21,43.35a217.7,217.7,0,0,0-30,121.88c2.64,53.83,23,104.15,39.58,136.87C296,524.57,313.14,547,313.82,547.91c.56.74,55.36,75.77,9,209-.07.21-4.23,12.49-11.46,31.23-17.7-45.54-10.79-135.93-10.71-136.93l-13-1c-.35,4.42-7.9,103.22,14.71,149.81h18.29c9.06-23,14.36-38.66,14.43-38.86,25.31-72.75,21.15-128.72,13.2-162.86-8.71-37.41-23.5-57.35-24.16-58.23s-67.84-89.66-72.68-188.37a204.76,204.76,0,0,1,28-114.18C294.37,212.16,310.07,198,311.19,197c1.43-1.15,23.52-18.54,53.94-25.77,41.31-9.82,77.57,3.24,107.76,38.82l13.86,14.8,10.51-7.65Z"/><path d="M516.29,405.42l-3.08-4c-48.31-27.52-86.64-14.84-110.28.65a138.11,138.11,0,0,0-39.52,40.13l-.74,4.85c.14.58,13.93,59,17.34,131.76,3.11,66.3-2,158.34-43.84,221.22h15.38c16.92-27.93,28.92-62.55,35.66-103.13,5.88-35.4,7.82-75.42,5.77-118.93a825.08,825.08,0,0,0-17-131.19c3.88-5.73,15.87-22,34.47-34.06,29.13-18.9,60.67-19.38,93.79-1.42,1.43,8.42,4.9,37.44-3,91.28-8.42,57.26-31.72,154.59-94.51,297.46h14.19C482.95,657.68,506,560.38,514.29,502.83,523.91,436.1,516.61,406.64,516.29,405.42Z"/><path d="M528.39,306.19,515.95,310c.4,1.33,40.19,134.34,24.67,215.83-15.37,80.67-35,132.41-49.28,170.19l-1.33,3.5c-1.79,3.86-27,57.93-50,100.52h14.77c22.58-42.43,45.71-92.21,47.13-95.27l1.59-4.15c13.67-36.07,34.32-90.58,49.9-172.36C569.5,443.62,530.07,311.77,528.39,306.19Z"/><path class="a" d="M297.43,336s-41.43,1.5-61.93-7.5c0,0-4.8-29,6.35-42.5,0,0,23.86,9.39,44.25,6.95C286.1,292.95,274.35,321.5,297.43,336Z"/><path d="M290.47,342.6c-13.16,0-41.11-.92-57.58-8.15l-3.8-4.89c-.54-3.27-4.92-32.36,7.75-47.7l7.39-1.91c.22.09,22.63,8.75,41.1,6.54l6.78,8.93c-.38.94-9.31,23.72,8.77,35.08l-3.22,12C297.24,342.51,294.58,342.6,290.47,342.6Zm-49-18.76c11.55,4,28.36,5.26,40.51,5.62-5.81-9.64-6.12-20.82-4.52-29.63-13.18-.26-26-3.78-32.88-6C240.35,302.5,240.62,316,241.44,323.84Z"/><path class="a" d="M335.25,174.92c19.8,25.07,29.39,55.31,29.39,55.31s33.86-16,55.36-15.83c0,0-16.25-47.9-42.37-62.9C377.63,151.5,323.13,159.57,335.25,174.92Z"/><path d="M367.41,236.16l-9-3.94c-.09-.29-9.51-29.47-28.29-53.26-4.29-5.43-3.28-10.4-2.3-12.88,2.7-6.81,11.55-12.07,27.85-16.55a198.72,198.72,0,0,1,21-4.47l4.19.79c27.94,16,44.6,64.45,45.29,66.5L420,221h-.25C399.89,221,367.74,236,367.41,236.16Zm-27.28-65.57c.06.08.13.19.22.31h0c14.79,18.73,24,39.93,28.05,50.56,9.32-3.94,26.94-10.73,42.39-12.88-5.45-13.2-17.86-39.35-34.51-50.27-3.41.59-10.16,1.85-17.09,3.75C344.54,166.07,340.91,169.58,340.13,170.59Z"/><path class="b" d="M127.77,805.68c3.83-13.09,10.33-21.66,15.41-33.87,4.44-10.69,4.59-20.5,4.59-32,0-21.44-1.06-38.62-6.68-59.19-8.69-31.78-2.92-69.51-3.32-102.32-.24-20.08-10-29.93-16.79-47.5-7.64-19.67,4.54-35.36,6.46-54.82,2-19.95-9.31-39.09-9.68-59.19-.41-22.39-1-44.2,5.09-65.86,7.09-9.91,28.61-26.84,28.46,0-6.07,21.65-5.49,43.47-5.08,65.85.37,20.09,11.65,39.23,9.67,59.18-1.93,19.46-14.1,35.14-6.45,54.81,6.83,17.57,16.53,27.41,16.77,47.5.4,32.81-5.37,70.53,3.32,102.31,5.62,20.57,6.68,37.74,6.68,59.18,0,11.49-.15,21.3-4.59,32-5.07,12.21-11.58,20.78-15.41,33.86"/><path class="b" d="M667.41,800c0-12.66-1.56-26.19,2.63-38.44,5.8-17,8.9-17.45,1.77-34.62-6.67-16.07-1.78-16.75,2.84-32.07,5.48-18.19-4.94-16.29-13.54-30.79-12.1-20.41.26-43.54,6.07-62.86,7.75-25.79,14.71-45.69,6-73.05,1.29-16.34,17.74-4.43,24.2,0,8.72,27.37,1.77,47.26-6,73-5.81,19.33-18.17,42.45-6.06,62.86,8.6,14.5,19,12.6,13.53,30.79-4.62,15.31-9.5,16-2.83,32.06,7.12,17.17,4,17.66-1.78,34.61-4.19,12.24-2.63,25.77-2.63,38.44"/><path class="b" d="M42.59,800.82C40,769.5,29.32,743,36,711.41c6-28.37,9.65-53.3,20.72-80.29,8.36-20.37,5.88-42.38,5.88-64,0-14.35.45-27.38-3.79-41.22-3.25-10.59-10.14-19.9-13.19-30.59-6-21.12-3-44.87-3-66.62,0-24-7.45-45.61-9.52-69.17-2.17-24.73,5.79-56,10.29-80.29,2.44-13.18,10.18-24.63,14.75-37,7.34-19.87,2.44-33.81-5.79-52.4-1-3.79-3.69-13.94-.7-17.23,8.1-8.88,19,12.62,22.55,17.28,8.23,18.59,13.1,32.53,5.75,52.39-4.58,12.38-12.31,23.83-14.74,37-4.49,24.32-12.46,55.54-10.27,80.28,2.08,23.55,9.49,45.13,9.52,69.16,0,21.76-3,45.49,3,66.62,3.05,10.69,9.95,20,13.19,30.59,4.23,13.84,3.78,26.88,3.78,41.22,0,21.6,2.48,43.6-5.88,64-11.07,27-14.72,51.92-20.72,80.28-6.67,31.55,4,58.09,6.6,89.41"/></svg>