<svg xmlns="http://www.w3.org/2000/svg" viewBox="0 0 800 800"><defs><style>.a{fill:none;stroke:#000;stroke-linejoin:bevel;stroke-width:13px;}.b{fill:#fff;}</style></defs><title>canvas (29)</title><polygon points="800.01 325.73 793.3 327.61 786.74 330.04 779.92 331.52 772.95 331.98 766.02 332.67 759.06 333.06 752.16 331.82 745.15 331.81 738.37 330.11 731.69 328.14 725.2 325.64 718.89 322.75 711.74 320.49 704.78 317.86 697.61 315.9 690.49 313.68 683.12 312.6 675.8 311.25 668.45 309.91 660.98 309.87 653.54 309.27 646.08 309.47 638.65 310.16 631.16 309.93 623.91 311.3 616.61 312.11 609.4 313.56 602.14 314.63 594.82 315.55 587.77 317.72 580.64 319.5 573.51 321.29 566.57 323.74 559.39 325.4 552.65 328.43 545.61 330.57 538.7 332.86 532.2 336.18 525.32 338.56 518.67 341.52 511.85 344.06 505.18 346.97 498.82 350.54 492.06 353.28 485.9 357.21 479.43 360.53 473.06 364.03 466.61 367.38 460.34 371.05 454 374.88 457.66 380.26 461.43 385.56 467.13 381.93 473.54 378.88 479.55 375.12 485.91 372.01 492.14 368.65 498.34 365.22 504.68 362.07 510.85 358.55 517.64 356.37 523.83 352.83 530.48 350.37 536.89 347.32 543.54 344.85 550.29 342.66 557.26 340.58 563.99 337.78 571.1 336.19 577.96 333.76 584.86 331.42 592.09 330.39 599.02 328.06 606.26 327.15 613.45 326.13 620.63 325.07 627.83 324.11 635.06 323.41 642.3 322.8 649.57 322.91 656.83 322.58 664.07 323.27 671.28 324.05 678.58 324.31 685.65 326.06 692.74 327.64 699.59 330.08 706.69 331.78 713.23 334.99 719.92 338.25 726.99 340.56 734.15 342.58 741.46 343.9 748.8 344.97 756.21 345.12 763.61 346.08 771.03 345.51 778.31 343.93 785.58 342.61 792.96 341.64 799.76 339.21 799.98 332.51 800.01 325.73"/><polygon points="799.77 312.82 793.37 314.85 786.57 316.31 779.83 318.02 772.94 318.93 766.03 319.85 759.08 319.23 752.16 318.88 745.21 318.46 738.48 316.68 731.59 315.47 725 313.16 718.73 310.09 711.78 307.4 704.74 304.99 697.78 302.27 690.46 300.82 683.2 299.17 675.86 297.79 668.39 297.53 660.97 297.01 653.53 296.75 646.07 296.07 638.61 296.45 631.19 297.26 623.88 298.09 616.61 299.15 609.35 300.23 602.03 301.09 594.96 303.19 587.71 304.46 580.7 306.71 573.53 308.36 566.46 310.38 559.44 312.57 552.63 315.38 545.56 317.43 538.7 319.85 532.04 322.8 525.16 325.19 518.49 328.1 512.06 331.54 505.49 334.64 498.9 337.69 492.06 340.27 485.83 344.09 479.5 347.67 473.08 351.06 466.45 354.1 460.31 358 453.83 361.97 457.77 367.19 461.31 372.64 467.11 368.89 473.56 365.91 479.27 361.62 485.83 358.86 491.91 355.2 498.26 352.06 504.72 349.14 511.06 346.01 517.33 342.67 524.12 340.51 530.58 337.61 536.89 334.33 543.58 331.95 550.24 329.51 557.07 327.03 563.91 324.54 571.04 322.98 577.81 320.24 584.88 318.51 592.02 317.08 599 314.97 606.26 314.17 613.41 312.86 620.56 311.56 627.77 310.51 635 309.72 642.29 309.61 649.57 309.87 656.84 309.39 664.11 309.68 671.39 310.08 678.57 311.36 685.6 313.31 692.64 315.01 699.88 316.17 706.6 319.02 713.11 322.27 719.96 325.15 727.18 326.98 734.19 329.4 741.47 330.84 748.83 331.67 756.19 332.46 763.61 332.85 771 332.17 778.37 331.35 785.62 329.82 792.92 328.52 799.62 326.17 800.5 319.5 799.77 312.82"/><polygon points="799.95 302.75 793.36 304.55 786.85 306.84 780.01 307.71 773.25 308.91 766.39 309.31 759.54 309.29 752.62 309.77 745.8 308.68 739 307.5 732.41 305.43 726.19 303.18 733.22 302.47 740.37 300.88 747.48 299.2 754.45 296.99 761.57 295.15 768.21 292.05 774.82 288.9 781.24 285.39 787.46 281.56 793.69 277.76 799.75 274 800.23 266.05 800.36 257.94 793.79 262.12 788.05 266.85 781.65 270.63 775.3 274.47 768.43 277.35 761.94 280.97 754.81 283.12 747.99 286.1 740.72 287.6 733.49 289.23 726.13 290.12 718.75 290.75 711.33 290.89 703.91 290.4 696.44 288.93 703.5 286.88 710.26 284.51 716.97 281.98 723.16 278.32 729.52 275.08 735.83 271.7 742.25 268.46 748.12 264.34 753.64 259.75 759.79 256.01 764.92 251.23 770.6 247.12 775.58 242.2 780.75 237.49 785.79 232.65 790.59 227.57 795.01 222.15 799.96 217.25 799.7 210.53 800.1 203.8 799.73 197.14 795.81 202.5 791.26 207.63 786.83 212.87 782 217.75 776.93 222.39 772.36 227.53 767.04 231.88 761.79 236.29 756.82 241.02 751.73 245.66 745.31 249.45 739.8 254.48 733.28 258.04 727.26 262.41 720.38 265.27 713.96 268.97 707.04 271.62 700.13 274.23 693.13 276.63 685.85 277.98 678.61 279.36 671.35 280.18 664.12 277.98 656.97 275.47 649.91 272.51 642.33 271.52 634.93 269.76 627.41 268.64 619.86 267.7 612.31 267.2 605.46 264.81 598.24 263.51 591.17 261.8 584.08 260.11 576.9 258.82 569.65 257.91 562.36 257.53 555.06 257.86 547.76 257.28 540.45 257.45 533.2 258.46 525.89 259.18 518.59 259.96 511.34 261.17 504.11 262.52 496.97 264.24 489.82 265.9 482.68 267.63 475.47 269.13 468.5 271.49 461.4 273.44 454.48 275.93 447.72 278.88 440.66 280.75 434.19 284.18 427.11 286.06 420.43 288.96 413.84 292.04 407.2 295.03 400.63 298.15 394.31 301.78 387.95 305.31 381.47 308.61 375.07 312.03 368.63 315.42 362.42 319.18 355.92 322.92 359.24 328.54 362.87 333.93 368.98 329.67 375.52 326.83 381.45 322.94 387.52 319.27 394.17 316.7 400.14 312.81 406.88 310.47 413.18 307.26 419.69 304.47 425.81 300.8 432.34 298.03 438.9 295.35 445.51 292.78 452.13 290.22 459.11 288.36 465.88 285.91 472.91 284.27 479.67 281.76 486.65 280.01 493.63 278.22 500.61 276.45 507.68 275.04 514.78 273.86 521.84 272.33 529.08 272.18 536.25 271.54 543.39 270.38 550.61 270.82 557.82 270.21 565.18 270.88 557.58 272.15 550.14 273.43 542.79 275.12 535.63 277.54 528.4 279.65 521.09 281.51 513.89 283.71 506.67 285.91 499.74 288.93 492.64 290.69 485.88 293.38 479.33 296.6 472.55 299.23 466.13 302.7 459.25 305.12 452.93 308.77 446.35 311.87 439.65 314.72 433.21 318.13 427 321.91 420.69 325.51 414.54 329.38 408.03 332.86 411.88 338.12 414.77 344 421.21 340.07 427.22 336.32 433.51 333.05 439.57 329.37 446.05 326.47 452.27 323.08 458.7 320.12 465.25 317.4 471.31 313.63 478.04 311.34 484.46 308.34 491.16 306 497.66 303.17 504.16 300.29 511.1 298.34 517.91 296.01 524.75 293.79 531.68 291.83 538.53 289.56 545.59 288.13 552.69 286.88 559.75 285.56 566.78 283.97 573.84 282.5 581.01 281.74 588.19 281.23 595.38 280.88 602.58 280.99 609.83 280.26 615.32 282.81 621.19 285.5 627.21 287.65 620.29 288.41 613.32 289.28 606.36 290.28 599.55 292.09 592.75 293.83 585.93 295.45 579.03 296.81 572.37 299.06 565.45 300.42 558.89 302.97 552.07 304.76 545.53 307.35 538.9 310.37 531.86 312.33 525.32 315.58 518.56 318.26 511.86 321.09 505.19 323.99 498.58 327.05 492.29 330.75 485.54 333.51 479.37 337.42 473.14 341.17 466.42 344.05 460.39 348.14 454.37 351.67 457.44 357.41 461.09 362.79 466.96 358.64 473.28 355.41 479.56 352.14 485.57 348.37 492.06 345.48 498.25 342.03 504.86 339.43 511.18 336.25 517.57 333.21 523.77 329.72 530.67 327.82 537.06 324.75 543.79 322.51 550.38 319.91 556.99 316.8 564.03 314.91 571.02 312.91 577.87 310.46 584.83 308.33 592.03 307.14 599.02 305.06 606.23 304.01 613.33 302.37 620.58 301.69 627.8 300.85 635.06 300.43 642.29 299.53 649.56 299.4 656.82 300.04 664.1 299.88 671.38 300.2 678.49 301.86 685.72 302.74 692.67 304.93 699.79 306.45 706.42 309.49 713.25 311.96 720.04 314.96 726.97 317.64 734.3 318.97 741.46 320.87 748.83 321.69 756.21 322.22 763.61 322.71 770.98 321.89 778.37 321.32 785.65 320 792.98 318.72 799.89 316.25 799.64 309.51 799.95 302.75"/><polygon points="468.26 601.34 461.23 598.73 454.37 596.77 447.4 595.23 440.41 593.72 433.71 591.19 426.68 589.86 419.81 587.93 412.95 585.99 406.2 583.63 399.3 581.82 392.4 580.04 385.58 577.92 378.57 576.52 371.89 573.92 364.9 572.41 357.94 570.81 351.09 568.84 344.37 566.36 337.39 564.84 330.58 562.73 323.68 560.94 316.74 559.27 309.88 557.33 303.01 555.4 296.12 553.55 289.23 551.71 282.58 548.99 275.7 547.12 268.71 545.61 261.75 544.05 255.11 541.28 248.06 540 241.33 537.56 234.43 535.76 227.5 534.04 220.61 532.17 213.77 530.13 207.02 527.78 200.11 526 193.21 524.16 186.32 522.3 179.39 520.61 172.52 518.66 165.67 516.65 158.7 515.07 152 512.5 144.75 511.19 145.2 503.87 145.06 496.74 145.02 489.6 145.09 482.47 144.64 475.33 144.74 468.2 144.87 461.06 144.72 453.93 145.22 446.79 145.41 439.66 145.49 432.52 145.05 425.38 145.1 418.24 145.13 411.11 144.54 403.97 144.88 396.83 145.29 389.69 145.27 382.55 145 375.41 144.92 368.27 144.63 361.13 144.51 354 145.42 346.86 144.55 339.72 144.63 332.58 144.61 325.44 145.27 318.3 144.71 311.15 145.08 304.1 151.91 305.77 158.73 307.88 165.65 309.62 172.48 311.65 179.45 313.24 186.18 315.65 193.06 317.53 200.03 319.07 206.76 321.49 213.63 323.42 220.49 325.37 227.33 327.4 234.29 329 241.16 330.91 248.03 332.85 255.01 334.38 261.9 336.23 268.58 338.82 275.48 340.61 282.33 342.6 289.2 344.5 296.19 346 302.93 348.36 309.96 349.71 316.69 352.13 323.51 354.22 330.46 355.85 337.43 357.43 344.24 359.56 351.19 361.2 357.9 363.69 364.74 365.74 371.72 367.25 378.5 369.52 385.46 371.12 392.45 372.62 399.36 374.41 406.09 376.85 413.01 378.59 419.95 380.26 426.73 382.5 433.56 384.59 440.57 386.03 447.49 387.77 454.2 390.3 461.05 392.32 467.97 394.02 467.59 401.13 467.82 408.26 467.89 415.4 467.96 422.53 467.76 429.67 468.2 436.8 468.19 443.94 468.15 451.07 467.92 458.21 468.08 465.34 467.75 472.48 468.17 479.62 467.8 486.76 468.32 493.89 467.66 501.03 467.52 508.17 467.69 515.31 468.39 522.45 468.49 529.59 468.14 536.73 467.67 543.87 467.58 551 467.62 558.14 468.33 565.28 468.39 572.42 467.51 579.56 467.53 586.7 468.22 593.85 468.26 601.34"/><polygon class="a" points="468.26 601.34 461.23 598.73 454.37 596.77 447.4 595.23 440.41 593.72 433.71 591.19 426.68 589.86 419.81 587.93 412.95 585.99 406.2 583.63 399.3 581.82 392.4 580.04 385.58 577.92 378.57 576.52 371.89 573.92 364.9 572.41 357.94 570.81 351.09 568.84 344.37 566.36 337.39 564.84 330.58 562.73 323.68 560.94 316.74 559.27 309.88 557.33 303.01 555.4 296.12 553.55 289.23 551.71 282.58 548.99 275.7 547.12 268.71 545.61 261.75 544.05 255.11 541.28 248.06 540 241.33 537.56 234.43 535.76 227.5 534.04 220.61 532.17 213.77 530.13 207.02 527.78 200.11 526 193.21 524.16 186.32 522.3 179.39 520.61 172.52 518.66 165.67 516.65 158.7 515.07 152 512.5 144.75 511.19 145.2 503.87 145.06 496.74 145.02 489.6 145.09 482.47 144.64 475.33 144.74 468.2 144.87 461.06 144.72 453.93 145.22 446.79 145.41 439.66 145.49 432.52 145.05 425.38 145.1 418.24 145.13 411.11 144.54 403.97 144.88 396.83 145.29 389.69 145.27 382.55 145 375.41 144.92 368.27 144.63 361.13 144.51 354 145.42 346.86 144.55 339.72 144.63 332.58 144.61 325.44 145.27 318.3 144.71 311.15 145.08 304.1 151.91 305.77 158.73 307.88 165.65 309.62 172.48 311.65 179.45 313.24 186.18 315.65 193.06 317.53 200.03 319.07 206.76 321.49 213.63 323.42 220.49 325.37 227.33 327.4 234.29 329 241.16 330.91 248.03 332.85 255.01 334.38 261.9 336.23 268.58 338.82 275.48 340.61 282.33 342.6 289.2 344.5 296.19 346 302.93 348.36 309.96 349.71 316.69 352.13 323.51 354.22 330.46 355.85 337.43 357.43 344.24 359.56 351.19 361.2 357.9 363.69 364.74 365.74 371.72 367.25 378.5 369.52 385.46 371.12 392.45 372.62 399.36 374.41 406.09 376.85 413.01 378.59 419.95 380.26 426.73 382.5 433.56 384.59 440.57 386.03 447.49 387.77 454.2 390.3 461.05 392.32 467.97 394.02 467.59 401.13 467.82 408.26 467.89 415.4 467.96 422.53 467.76 429.67 468.2 436.8 468.19 443.94 468.15 451.07 467.92 458.21 468.08 465.34 467.75 472.48 468.17 479.62 467.8 486.76 468.32 493.89 467.66 501.03 467.52 508.17 467.69 515.31 468.39 522.45 468.49 529.59 468.14 536.73 467.67 543.87 467.58 551 467.62 558.14 468.33 565.28 468.39 572.42 467.51 579.56 467.53 586.7 468.22 593.85 468.26 601.34"/><polygon class="b" points="464.06 395.2 457.19 392.85 450.2 391.39 443.35 389.39 436.59 387.08 429.72 385.16 422.71 383.75 415.94 381.46 408.99 379.86 402.15 377.8 395.2 376.17 388.3 374.38 381.59 371.88 374.7 370.03 367.81 368.2 360.9 366.42 354.07 364.34 347.16 362.58 340.2 360.98 333.38 358.9 326.64 356.51 319.58 355.27 312.74 353.25 306.05 350.69 299 349.44 292.29 346.96 285.41 345.08 278.48 343.36 271.51 341.8 264.84 339.16 257.93 337.37 251.09 335.35 244.19 333.52 237.36 331.46 230.26 330.34 223.42 328.31 216.73 325.75 209.64 324.58 202.86 322.35 196.08 320.09 189.16 318.34 182.34 316.26 175.5 314.2 168.59 312.38 161.67 310.65 154.85 308.52 147.86 307 141.43 305.03 148.16 303.48 155.26 301.72 162.39 300.08 169.64 298.99 176.74 297.2 183.85 295.44 190.93 293.57 198.12 292.17 205.42 291.32 212.54 289.59 219.69 288.06 226.76 286.15 233.96 284.79 241.09 283.14 248.31 281.89 255.31 279.65 262.52 278.36 269.76 277.15 276.84 274.9 283.7 277.6 290.76 279.26 297.94 280.56 304.71 283.29 311.72 285.17 318.65 287.3 325.66 289.14 332.86 290.33 339.67 292.94 346.6 295.06 353.6 296.98 360.67 298.65 367.65 300.6 374.68 302.42 381.66 304.39 388.73 306.03 395.75 307.87 402.51 310.67 409.53 312.49 416.54 314.36 423.53 316.32 430.66 317.79 437.5 320.27 444.65 321.67 451.55 323.95 458.58 325.75 465.43 328.19 472.64 329.38 479.64 331.27 486.45 333.89 493.4 335.96 500.45 337.75 507.52 339.44 514.75 341.36 509.11 346.44 504.53 352.24 499.6 357.7 494.04 362.58 489.44 368.36 484.25 373.59 479.06 378.81 474.29 384.44 469.11 389.69 464.06 395.2"/><polygon class="a" points="464.06 395.2 457.19 392.85 450.2 391.39 443.35 389.39 436.59 387.08 429.72 385.16 422.71 383.75 415.94 381.46 408.99 379.86 402.15 377.8 395.2 376.17 388.3 374.38 381.59 371.88 374.7 370.03 367.81 368.2 360.9 366.42 354.07 364.34 347.16 362.58 340.2 360.98 333.38 358.9 326.64 356.51 319.58 355.27 312.74 353.25 306.05 350.69 299 349.44 292.29 346.96 285.41 345.08 278.48 343.36 271.51 341.8 264.84 339.16 257.93 337.37 251.09 335.35 244.19 333.52 237.36 331.46 230.26 330.34 223.42 328.31 216.73 325.75 209.64 324.58 202.86 322.35 196.08 320.09 189.16 318.34 182.34 316.26 175.5 314.2 168.59 312.38 161.67 310.65 154.85 308.52 147.86 307 141.43 305.03 148.16 303.48 155.26 301.72 162.39 300.08 169.64 298.99 176.74 297.2 183.85 295.44 190.93 293.57 198.12 292.17 205.42 291.32 212.54 289.59 219.69 288.06 226.76 286.15 233.96 284.79 241.09 283.14 248.31 281.89 255.31 279.65 262.52 278.36 269.76 277.15 276.84 274.9 283.7 277.6 290.76 279.26 297.94 280.56 304.71 283.29 311.72 285.17 318.65 287.3 325.66 289.14 332.86 290.33 339.67 292.94 346.6 295.06 353.6 296.98 360.67 298.65 367.65 300.6 374.68 302.42 381.66 304.39 388.73 306.03 395.75 307.87 402.51 310.67 409.53 312.49 416.54 314.36 423.53 316.32 430.66 317.79 437.5 320.27 444.65 321.67 451.55 323.95 458.58 325.75 465.43 328.19 472.64 329.38 479.64 331.27 486.45 333.89 493.4 335.96 500.45 337.75 507.52 339.44 514.75 341.36 509.11 346.44 504.53 352.24 499.6 357.7 494.04 362.58 489.44 368.36 484.25 373.59 479.06 378.81 474.29 384.44 469.11 389.69 464.06 395.2"/><polygon class="b" points="442.7 568.61 436.05 566.89 429.04 565.02 422.02 563.19 414.95 561.54 407.94 559.64 401 557.53 393.93 555.86 387.09 553.36 380.02 551.7 373.11 549.45 366.1 547.58 359.06 545.86 352 544.16 345.09 541.92 338 540.34 330.97 538.53 323.91 536.84 317.11 534.22 310.08 532.38 303.09 530.44 295.93 529.12 288.98 527.03 282.1 524.67 275.07 522.86 267.98 521.26 261.07 519 254.03 517.23 247.13 514.95 240.02 513.43 233.07 511.28 226.13 509.19 219.01 507.69 211.98 505.88 205.05 503.67 198.15 501.38 191.11 499.62 183.93 498.33 177 496.13 170.14 494.05 169.64 486.97 170.27 479.78 170.36 472.6 169.74 465.41 170.13 458.22 170.05 451.04 170.45 443.85 169.7 436.66 169.68 429.47 169.93 422.29 169.81 415.1 169.96 407.91 170.13 400.72 169.91 393.53 170.2 386.34 169.78 379.15 169.56 371.97 169.86 364.77 170.1 357.59 170.12 350.4 169.55 343.2 170.16 336.22 177.09 337.58 184.06 339.6 191.07 341.48 198.05 343.47 204.97 345.68 212.1 347.12 218.9 349.77 225.96 351.47 232.91 353.57 240.01 355.1 247.1 356.66 253.94 359.16 261.08 360.55 268.1 362.39 275.09 364.32 282 366.57 288.92 368.78 295.99 370.42 303.01 372.29 309.96 374.38 317.07 375.89 323.92 378.36 331.03 379.85 338.01 381.86 345.06 383.6 351.98 385.82 359.06 387.44 365.97 389.7 373.04 391.38 379.95 393.62 386.91 395.69 393.88 397.72 401.06 398.97 407.97 401.23 414.87 403.55 422.01 404.95 428.91 407.26 435.96 409.04 442.7 411.08 442.89 418.03 442.61 425.22 443.3 432.4 443.35 439.59 442.71 446.78 442.63 453.96 443.47 461.15 442.63 468.34 442.84 475.53 442.73 482.71 442.71 489.9 443.19 497.09 442.83 504.28 443.23 511.47 443.44 518.66 442.69 525.85 443.32 533.03 442.83 540.23 442.68 547.41 443.39 554.6 443 561.8 442.7 568.61"/><polygon class="a" points="442.7 568.61 436.05 566.89 429.04 565.02 422.02 563.19 414.95 561.54 407.94 559.64 401 557.53 393.93 555.86 387.09 553.36 380.02 551.7 373.11 549.45 366.1 547.58 359.06 545.86 352 544.16 345.09 541.92 338 540.34 330.97 538.53 323.91 536.84 317.11 534.22 310.08 532.38 303.09 530.44 295.93 529.12 288.98 527.03 282.1 524.67 275.07 522.86 267.98 521.26 261.07 519 254.03 517.23 247.13 514.95 240.02 513.43 233.07 511.28 226.13 509.19 219.01 507.69 211.98 505.88 205.05 503.67 198.15 501.38 191.11 499.62 183.93 498.33 177 496.13 170.14 494.05 169.64 486.97 170.27 479.78 170.36 472.6 169.74 465.41 170.13 458.22 170.05 451.04 170.45 443.85 169.7 436.66 169.68 429.47 169.93 422.29 169.81 415.1 169.96 407.91 170.13 400.72 169.91 393.53 170.2 386.34 169.78 379.15 169.56 371.97 169.86 364.77 170.1 357.59 170.12 350.4 169.55 343.2 170.16 336.22 177.09 337.58 184.06 339.6 191.07 341.48 198.05 343.47 204.97 345.68 212.1 347.12 218.9 349.77 225.96 351.47 232.91 353.57 240.01 355.1 247.1 356.66 253.94 359.16 261.08 360.55 268.1 362.39 275.09 364.32 282 366.57 288.92 368.78 295.99 370.42 303.01 372.29 309.96 374.38 317.07 375.89 323.92 378.36 331.03 379.85 338.01 381.86 345.06 383.6 351.98 385.82 359.06 387.44 365.97 389.7 373.04 391.38 379.95 393.62 386.91 395.69 393.88 397.72 401.06 398.97 407.97 401.23 414.87 403.55 422.01 404.95 428.91 407.26 435.96 409.04 442.7 411.08 442.89 418.03 442.61 425.22 443.3 432.4 443.35 439.59 442.71 446.78 442.63 453.96 443.47 461.15 442.63 468.34 442.84 475.53 442.73 482.71 442.71 489.9 443.19 497.09 442.83 504.28 443.23 511.47 443.44 518.66 442.69 525.85 443.32 533.03 442.83 540.23 442.68 547.41 443.39 554.6 443 561.8 442.7 568.61"/><path class="b" d="M99.55,516.36l-.16,7,.46,7-.57,7,.61,7-.63,7,.67,7-.21,7,.2,7-.36,6.87,5.64-4.25,6.09-3.87,5.35-4.86,5.73-4.35,5.86-4.18,5.72-4.36,5.88-4.15,6.09-3.86,5.61-4.51,5.49-4.68,6.13-3.82L169,528.1l5.68-4.42,5.54-4.61,6.18-3.75,5.42-4.78L197.4,506l5.85-4.19,5.82-4.23,5.9-4.12,5.63-4.49,6.07-3.91,5.49-4.68,6.19-3.74,5.8-4.27,5.71-4.4,5.72-4.39-.54-.22,1.91-7.25,1.07-7.42.49-7.48,1-7.47-.7-7.5-.09-7.51-1.28-7.4-1.1-7.42-.93-3.92L250,405.09l-6.25,3.65-5.67,4.43-5.78,4.28-5.95,4.06-5.25,5-6.18,3.75-5.33,4.89-6.17,3.76-5.8,4.26-5.49,4.67L186.27,452l-5.76,4.31-6,4-5.87,4.17-5.76,4.32-5.42,4.78-6.09,3.87-5.78,4.29-5.79,4.28-5.65,4.46-5.94,4.07-5.54,4.61-6.08,3.88-5.27,5-6.19,3.75ZM134.76,534l-7.93,3.46-5.18-6,1.84-6.52,2.3-6.37,4.37-5.18,4.31-5.24,8.16-3.5,5.26,6.3-1.55,6.64-2.88,6.11L139.17,529Z"/><path class="a" d="M99.55,516.36l-.16,7,.46,7-.57,7,.61,7-.63,7,.67,7-.21,7,.2,7-.36,6.87,5.64-4.25,6.09-3.87,5.35-4.86,5.73-4.35,5.86-4.18,5.72-4.36,5.88-4.15,6.09-3.86,5.61-4.51,5.49-4.68,6.13-3.82L169,528.1l5.68-4.42,5.54-4.61,6.18-3.75,5.42-4.78L197.4,506l5.85-4.19,5.82-4.23,5.9-4.12,5.63-4.49,6.07-3.91,5.49-4.68,6.19-3.74,5.8-4.27,5.71-4.4,5.72-4.39-.54-.22,1.91-7.25,1.07-7.42.49-7.48,1-7.47-.7-7.5-.09-7.51-1.28-7.4-1.1-7.42-.93-3.92L250,405.09l-6.25,3.65-5.67,4.43-5.78,4.28-5.95,4.06-5.25,5-6.18,3.75-5.33,4.89-6.17,3.76-5.8,4.26-5.49,4.67L186.27,452l-5.76,4.31-6,4-5.87,4.17-5.76,4.32-5.42,4.78-6.09,3.87-5.78,4.29-5.79,4.28-5.65,4.46-5.94,4.07-5.54,4.61-6.08,3.88-5.27,5-6.19,3.75ZM134.76,534l-7.93,3.46-5.18-6,1.84-6.52,2.3-6.37,4.37-5.18,4.31-5.24,8.16-3.5,5.26,6.3-1.55,6.64-2.88,6.11L139.17,529Z"/><path class="b" d="M107.55,520.36l-.16,7,.46,7-.57,7,.61,7-.63,7,.67,7-.21,7,.2,7-.36,6.87,5.64-4.25,6.09-3.87,5.35-4.86,5.73-4.35,5.86-4.18,5.72-4.36,5.88-4.15,6.09-3.86,5.61-4.51,5.49-4.68,6.13-3.82L177,532.1l5.68-4.42,5.54-4.61,6.18-3.75,5.42-4.78L205.4,510l5.85-4.19,5.82-4.23,5.9-4.12,5.63-4.49,6.07-3.91,5.49-4.68,6.19-3.74,5.8-4.27,5.71-4.4,5.72-4.39-.54-.22,1.91-7.25,1.07-7.42.49-7.48,1-7.47-.7-7.5-.09-7.51-1.28-7.4-1.1-7.42-.93-3.92L258,409.09l-6.25,3.65-5.67,4.43-5.78,4.28-5.95,4.06-5.25,5-6.18,3.75-5.33,4.89-6.17,3.76-5.8,4.26-5.49,4.67L194.27,456l-5.76,4.31-6,4-5.87,4.17-5.76,4.32-5.42,4.78-6.09,3.87-5.78,4.29-5.79,4.28-5.65,4.46-5.94,4.07-5.54,4.61-6.08,3.88-5.27,5-6.19,3.75ZM142.76,538l-7.93,3.46-5.18-6,1.84-6.52,2.3-6.37,4.37-5.18,4.31-5.24,8.16-3.5,5.26,6.3-1.55,6.64-2.88,6.11L147.17,533Z"/><path class="a" d="M107.55,520.36l-.16,7,.46,7-.57,7,.61,7-.63,7,.67,7-.21,7,.2,7-.36,6.87,5.64-4.25,6.09-3.87,5.35-4.86,5.73-4.35,5.86-4.18,5.72-4.36,5.88-4.15,6.09-3.86,5.61-4.51,5.49-4.68,6.13-3.82L177,532.1l5.68-4.42,5.54-4.61,6.18-3.75,5.42-4.78L205.4,510l5.85-4.19,5.82-4.23,5.9-4.12,5.63-4.49,6.07-3.91,5.49-4.68,6.19-3.74,5.8-4.27,5.71-4.4,5.72-4.39-.54-.22,1.91-7.25,1.07-7.42.49-7.48,1-7.47-.7-7.5-.09-7.51-1.28-7.4-1.1-7.42-.93-3.92L258,409.09l-6.25,3.65-5.67,4.43-5.78,4.28-5.95,4.06-5.25,5-6.18,3.75-5.33,4.89-6.17,3.76-5.8,4.26-5.49,4.67L194.27,456l-5.76,4.31-6,4-5.87,4.17-5.76,4.32-5.42,4.78-6.09,3.87-5.78,4.29-5.79,4.28-5.65,4.46-5.94,4.07-5.54,4.61-6.08,3.88-5.27,5-6.19,3.75ZM142.76,538l-7.93,3.46-5.18-6,1.84-6.52,2.3-6.37,4.37-5.18,4.31-5.24,8.16-3.5,5.26,6.3-1.55,6.64-2.88,6.11L147.17,533Z"/><path class="b" d="M217.23,547.85l-.46,6.79.27,7-.62,7,.8,7v7l-.08,7-.18,7,.36,7-.34,6.69,5.71-3.85,5.69-4.4,5.62-4.49,6.09-3.86,5.84-4.21,5.8-4.25,5.25-5,6.07-3.89,5.78-4.29,5.66-4.44,5.74-4.35,6.11-3.84,5.59-4.54,5.69-4.42,5.53-4.62,6.21-3.72,5.86-4.19,5.82-4.22,5.53-4.62,5.5-4.67,5.79-4.27,6.31-3.58,5.27-5,6-4,5.75-4.34,5.89-4.16L373,495l-.42-.27,1.45-7.34,1.45-7.36.22-7.5,1.09-7.46-.82-7.49-.06-7.5-1.47-7.36-.74-7.48-.85-3.4-6,3.92L361,440,355.76,445l-6.28,3.61-5.62,4.5-5.58,4.55-6.14,3.8-5.67,4.43-5.36,4.85L315.3,475,309,478.62l-5.63,4.49-5.93,4.09L292.11,492l-5.83,4.22-5.65,4.47-5.86,4.18L269,509.24l-5.74,4.34-6.15,3.79-5.86,4.18-5.35,4.87-5.68,4.44-6.08,3.89L228.36,539l-5.54,4.62Zm35.11,17.8-8.17,3.21-5-6,1.87-6.45,2.12-6.43,3.88-5.59,4.87-4.75,8.08-3.51,5.32,6.22L263.84,549l-3.3,5.91-3.72,5.6Z"/><path class="a" d="M217.23,547.85l-.46,6.79.27,7-.62,7,.8,7v7l-.08,7-.18,7,.36,7-.34,6.69,5.71-3.85,5.69-4.4,5.62-4.49,6.09-3.86,5.84-4.21,5.8-4.25,5.25-5,6.07-3.89,5.78-4.29,5.66-4.44,5.74-4.35,6.11-3.84,5.59-4.54,5.69-4.42,5.53-4.62,6.21-3.72,5.86-4.19,5.82-4.22,5.53-4.62,5.5-4.67,5.79-4.27,6.31-3.58,5.27-5,6-4,5.75-4.34,5.89-4.16L373,495l-.42-.27,1.45-7.34,1.45-7.36.22-7.5,1.09-7.46-.82-7.49-.06-7.5-1.47-7.36-.74-7.48-.85-3.4-6,3.92L361,440,355.76,445l-6.28,3.61-5.62,4.5-5.58,4.55-6.14,3.8-5.67,4.43-5.36,4.85L315.3,475,309,478.62l-5.63,4.49-5.93,4.09L292.11,492l-5.83,4.22-5.65,4.47-5.86,4.18L269,509.24l-5.74,4.34-6.15,3.79-5.86,4.18-5.35,4.87-5.68,4.44-6.08,3.89L228.36,539l-5.54,4.62Zm35.11,17.8-8.17,3.21-5-6,1.87-6.45,2.12-6.43,3.88-5.59,4.87-4.75,8.08-3.51,5.32,6.22L263.84,549l-3.3,5.91-3.72,5.6Z"/><path class="b" d="M224.23,551.85l-.46,6.79.27,7-.62,7,.8,7v7l-.08,7-.18,7,.36,7-.34,6.69,5.71-3.85,5.69-4.4,5.62-4.49,6.09-3.86,5.84-4.21,5.8-4.25,5.25-5,6.07-3.89,5.78-4.29,5.66-4.44,5.74-4.35,6.11-3.84,5.59-4.54,5.69-4.42,5.53-4.62,6.21-3.72,5.86-4.19,5.82-4.22,5.53-4.62,5.5-4.67,5.79-4.27,6.31-3.58,5.27-5,6-4,5.75-4.34,5.89-4.16L380,499l-.42-.27,1.45-7.34,1.45-7.36.22-7.5,1.09-7.46-.82-7.49-.06-7.5-1.47-7.36-.74-7.48-.85-3.4-6,3.92L368,444,362.76,449l-6.28,3.61-5.62,4.5-5.58,4.55-6.14,3.8-5.67,4.43-5.36,4.85L322.3,479,316,482.62l-5.63,4.49-5.93,4.09L299.11,496l-5.83,4.22-5.65,4.47-5.86,4.18L276,513.24l-5.74,4.34-6.15,3.79-5.86,4.18-5.35,4.87-5.68,4.44-6.08,3.89L235.36,543l-5.54,4.62Zm35.11,17.8-8.17,3.21-5-6,1.87-6.45,2.12-6.43,3.88-5.59,4.87-4.75,8.08-3.51,5.32,6.22L270.84,553l-3.3,5.91-3.72,5.6Z"/><path class="a" d="M224.23,551.85l-.46,6.79.27,7-.62,7,.8,7v7l-.08,7-.18,7,.36,7-.34,6.69,5.71-3.85,5.69-4.4,5.62-4.49,6.09-3.86,5.84-4.21,5.8-4.25,5.25-5,6.07-3.89,5.78-4.29,5.66-4.44,5.74-4.35,6.11-3.84,5.59-4.54,5.69-4.42,5.53-4.62,6.21-3.72,5.86-4.19,5.82-4.22,5.53-4.62,5.5-4.67,5.79-4.27,6.31-3.58,5.27-5,6-4,5.75-4.34,5.89-4.16L380,499l-.42-.27,1.45-7.34,1.45-7.36.22-7.5,1.09-7.46-.82-7.49-.06-7.5-1.47-7.36-.74-7.48-.85-3.4-6,3.92L368,444,362.76,449l-6.28,3.61-5.62,4.5-5.58,4.55-6.14,3.8-5.67,4.43-5.36,4.85L322.3,479,316,482.62l-5.63,4.49-5.93,4.09L299.11,496l-5.83,4.22-5.65,4.47-5.86,4.18L276,513.24l-5.74,4.34-6.15,3.79-5.86,4.18-5.35,4.87-5.68,4.44-6.08,3.89L235.36,543l-5.54,4.62Zm35.11,17.8-8.17,3.21-5-6,1.87-6.45,2.12-6.43,3.88-5.59,4.87-4.75,8.08-3.51,5.32,6.22L270.84,553l-3.3,5.91-3.72,5.6Z"/><polyline class="a" points="467.71 502 467.59 509.36 466.99 516.71 466.95 524.06 467.2 531.43 466.52 538.77 466.99 546.14 466.99 553.5 466.44 560.85 466.53 568.21 466.33 575.56 465.51 582.91 465.99 590.28 466.12 597.65 465.49 605.04 469.11 598.88 472.62 592.71 475.44 586.14 479.07 580.04 482.9 574.04 486.01 567.65 489.71 561.58 493.12 555.34 496.72 549.22 500.13 542.98 503.09 536.5 506.79 530.43 509.8 523.97 513.28 517.83 513.54 510.57 513.56 503.26 513.13 495.95 513.02 488.64 513.95 481.32 513.21 474.01 513.43 466.7 513.67 459.38 513.24 452.07 513.15 444.76 513.6 437.44 513.52 430.13 513.16 422.81 513.12 415.5 513.32 408.18 513.2 400.86 513.1 393.55 513.4 386.23 513.47 378.92 513.42 371.6 513.27 364.28 513.12 356.96 513.06 349.65 513.85 342.32 513.8 335"/></svg>