<svg id="Layer_1" data-name="Layer 1" xmlns="http://www.w3.org/2000/svg" viewBox="0 0 800 800"><defs><style>.cls-1{fill:#fff;}.cls-2,.cls-3{fill:none;stroke-linejoin:bevel;}.cls-2{stroke:#000;stroke-width:13px;}.cls-3{stroke:#fff;stroke-width:7px;}</style></defs><title>canvas (73)</title><polygon class="cls-1" points="727.19 464.58 720.5 467.13 713.82 469.73 706.97 471.78 700.13 473.87 693.33 476.11 686.51 478.25 679.82 480.81 672.95 482.82 666.17 485.12 659.39 487.4 652.83 490.32 645.98 492.4 638.97 493.98 632.25 496.47 625.51 498.86 618.87 501.57 612.07 503.78 605.14 505.62 598.25 507.58 591.72 510.6 584.89 512.74 577.89 514.38 571.1 516.61 564.45 519.29 557.74 521.79 550.83 523.7 544.06 526.02 537.31 528.38 530.44 530.4 523.69 532.78 516.78 534.67 510.18 537.52 503.36 539.68 496.45 541.58 489.92 544.63 482.92 546.25 476.05 548.27 469.52 551.31 462.56 553.05 455.71 555.13 449.1 557.95 442.38 560.42 435.4 562.08 428.83 565.01 421.88 566.78 415.2 569.35 408.37 571.48 401.48 573.44 394.6 575.43 387.96 578.14 381.32 580.85 374.25 582.25 367.73 585.33 360.92 587.53 354.13 589.81 347.21 591.69 340.56 594.37 333.55 595.96 326.76 598.26 320.07 600.83 313.29 603.12 306.4 605.1 299.7 607.62 292.79 609.54 286.17 612.32 279.23 614.11 272.47 616.49 265.74 618.92 258.9 621.08 252.16 623.53 245.37 625.81 238.11 626.6 231.09 625.71 226.43 620.33 221.02 615.7 216.14 610.53 211.03 605.58 206.18 600.39 201.11 595.42 196.1 590.37 190.67 585.75 185.59 580.79 180.55 575.78 175.82 570.45 170.45 565.77 165.84 560.32 160.51 555.61 155.54 550.53 150.91 545.11 145.72 540.24 140.85 535.06 135.39 530.46 130.29 525.5 125.24 520.49 120.34 515.35 115.19 510.45 110.5 505.08 105.49 500.04 100 495.48 95.22 490.19 90.43 484.93 85.24 480.06 79.95 475.29 75.03 470.14 70.06 465.04 64.97 460.07 67.07 455.73 72.03 452.92 78.95 451.06 85.55 448.21 92.32 445.92 99.33 444.33 106.06 441.9 112.86 439.67 119.56 437.18 126.46 435.25 133.13 432.61 140.03 430.69 146.65 427.94 153.44 425.71 160.36 423.83 167.03 421.21 173.92 419.26 180.56 416.55 187.41 414.47 194.25 412.4 200.87 409.63 207.85 407.94 214.67 405.77 221.36 403.21 228.05 400.67 235.06 399.07 241.82 396.71 248.45 393.96 255.32 391.96 262.12 389.72 268.76 387.02 275.66 385.09 282.4 382.69 289.11 380.18 296.14 378.66 302.81 376.05 309.6 373.77 316.36 371.43 323.13 369.09 329.86 366.66 336.64 364.39 343.7 362.93 350.45 360.55 357.25 358.3 363.89 355.62 370.75 353.58 377.47 351.11 384.22 348.73 391 346.45 397.83 344.34 404.65 342.15 411.37 339.67 418.3 337.83 425.11 335.64 431.68 332.73 438.71 331.19 445.24 328.14 452.29 326.66 459.01 324.18 465.78 321.86 472.5 319.37 479.29 317.11 486.11 314.92 492.82 312.41 499.56 309.99 506.52 308.24 513.25 305.78 520.09 303.66 526.86 301.32 533.62 298.98 540.5 296.98 547.28 294.65 554.09 292.41 561.23 290.73 568.43 292.13 573.52 297.08 578.04 302.61 583.53 307.17 588.16 312.59 593.32 317.47 598.34 322.5 603.36 327.53 608.44 332.5 613.33 337.66 618.3 342.74 623.82 347.27 628.67 352.47 633.55 357.64 638.5 362.75 643.99 367.31 648.92 372.43 654.13 377.28 659.07 382.39 663.7 387.82 668.65 392.92 673.89 397.73 678.82 402.86 684.16 407.57 688.93 412.85 694.14 417.69 699.32 422.57 703.96 427.99 709.25 432.75 714.58 437.49 719.42 442.7 724.12 448.07 729.56 452.7 734.62 457.71 732.63 462.69 727.19 464.58"/><polygon class="cls-2" points="727.19 464.58 720.5 467.13 713.82 469.73 706.97 471.78 700.13 473.87 693.33 476.11 686.51 478.25 679.82 480.81 672.95 482.82 666.17 485.12 659.39 487.4 652.83 490.32 645.98 492.4 638.97 493.98 632.25 496.47 625.51 498.86 618.87 501.57 612.07 503.78 605.14 505.62 598.25 507.58 591.72 510.6 584.89 512.74 577.89 514.38 571.1 516.61 564.45 519.29 557.74 521.79 550.83 523.7 544.06 526.02 537.31 528.38 530.44 530.4 523.69 532.78 516.78 534.67 510.18 537.52 503.36 539.68 496.45 541.58 489.92 544.63 482.92 546.25 476.05 548.27 469.52 551.31 462.56 553.05 455.71 555.13 449.1 557.95 442.38 560.42 435.4 562.08 428.83 565.01 421.88 566.78 415.2 569.35 408.37 571.48 401.48 573.44 394.6 575.43 387.96 578.14 381.32 580.85 374.25 582.25 367.73 585.33 360.92 587.53 354.13 589.81 347.21 591.69 340.56 594.37 333.55 595.96 326.76 598.26 320.07 600.83 313.29 603.12 306.4 605.1 299.7 607.62 292.79 609.54 286.17 612.32 279.23 614.11 272.47 616.49 265.74 618.92 258.9 621.08 252.16 623.53 245.37 625.81 238.11 626.6 231.09 625.71 226.43 620.33 221.02 615.7 216.14 610.53 211.03 605.58 206.18 600.39 201.11 595.42 196.1 590.37 190.67 585.75 185.59 580.79 180.55 575.78 175.82 570.45 170.45 565.77 165.84 560.32 160.51 555.61 155.54 550.53 150.91 545.11 145.72 540.24 140.85 535.06 135.39 530.46 130.29 525.5 125.24 520.49 120.34 515.35 115.19 510.45 110.5 505.08 105.49 500.04 100 495.48 95.22 490.19 90.43 484.93 85.24 480.06 79.95 475.29 75.03 470.14 70.06 465.04 64.97 460.07 67.07 455.73 72.03 452.92 78.95 451.06 85.55 448.21 92.32 445.92 99.33 444.33 106.06 441.9 112.86 439.67 119.56 437.18 126.46 435.25 133.13 432.61 140.03 430.69 146.65 427.94 153.44 425.71 160.36 423.83 167.03 421.21 173.92 419.26 180.56 416.55 187.41 414.47 194.25 412.4 200.87 409.63 207.85 407.94 214.67 405.77 221.36 403.21 228.05 400.67 235.06 399.07 241.82 396.71 248.45 393.96 255.32 391.96 262.12 389.72 268.76 387.02 275.66 385.09 282.4 382.69 289.11 380.18 296.14 378.66 302.81 376.05 309.6 373.77 316.36 371.43 323.13 369.09 329.86 366.66 336.64 364.39 343.7 362.93 350.45 360.55 357.25 358.3 363.89 355.62 370.75 353.58 377.47 351.11 384.22 348.73 391 346.45 397.83 344.34 404.65 342.15 411.37 339.67 418.3 337.83 425.11 335.64 431.68 332.73 438.71 331.19 445.24 328.14 452.29 326.66 459.01 324.18 465.78 321.86 472.5 319.37 479.29 317.11 486.11 314.92 492.82 312.41 499.56 309.99 506.52 308.24 513.25 305.78 520.09 303.66 526.86 301.32 533.62 298.98 540.5 296.98 547.28 294.65 554.09 292.41 561.23 290.73 568.43 292.13 573.52 297.08 578.04 302.61 583.53 307.17 588.16 312.59 593.32 317.47 598.34 322.5 603.36 327.53 608.44 332.5 613.33 337.66 618.3 342.74 623.82 347.27 628.67 352.47 633.55 357.64 638.5 362.75 643.99 367.31 648.92 372.43 654.13 377.28 659.07 382.39 663.7 387.82 668.65 392.92 673.89 397.73 678.82 402.86 684.16 407.57 688.93 412.85 694.14 417.69 699.32 422.57 703.96 427.99 709.25 432.75 714.58 437.49 719.42 442.7 724.12 448.07 729.56 452.7 734.62 457.71 732.63 462.69 727.19 464.58"/><polygon class="cls-1" points="727.42 415.28 720.64 417.55 713.78 419.6 706.92 421.64 700.2 424.09 693.35 426.15 686.71 428.86 679.73 430.53 673.08 433.21 666.38 435.76 659.32 437.17 652.77 440.15 646.02 442.52 639.07 444.28 632.47 447.12 625.38 448.47 618.74 451.19 612.02 453.64 605.13 455.57 598.44 458.14 591.62 460.3 584.81 462.51 578.16 465.17 571.28 467.18 564.52 469.51 557.61 471.4 551.01 474.23 544 475.82 537.44 478.78 530.51 480.61 523.72 482.88 516.9 485.03 510.25 487.74 503.38 489.74 496.62 492.1 489.76 494.13 482.89 496.15 476.34 499.13 469.5 501.26 462.65 503.33 455.88 505.65 449.02 507.69 442.34 510.3 435.62 512.75 428.76 514.8 421.93 516.92 414.99 518.72 408.37 521.5 401.59 523.78 394.88 526.27 387.82 527.72 381.06 530.08 374.24 532.24 367.69 535.21 360.89 537.45 353.88 539.05 347.25 541.81 340.35 543.72 333.5 545.83 326.73 548.16 320.03 550.68 313.41 553.48 306.43 555.18 299.72 557.66 293.04 560.28 286.15 562.24 279.36 564.5 272.38 566.22 265.78 569.06 258.86 570.94 252.22 573.71 245.37 575.81 238.16 577.39 230.84 575.97 226.23 570.53 221 565.72 215.9 560.77 211.02 555.6 205.76 550.81 200.88 545.64 195.86 540.61 190.94 535.48 185.49 530.89 180.99 525.34 176.1 520.17 170.58 515.65 165.98 510.19 160.71 505.41 155.94 500.12 150.41 495.6 145.43 490.53 140.8 485.11 135.37 480.48 130.3 475.49 125.49 470.25 120.34 465.35 115.21 460.42 110.36 455.23 105.25 450.28 100.14 445.33 95.45 439.96 89.99 435.37 84.99 430.31 80.18 425.06 75.06 420.12 70.08 415.03 64.87 410.16 66.9 405.49 72.11 403.15 78.96 401.09 85.65 398.53 92.45 396.31 99.13 393.74 105.83 391.22 112.82 389.55 119.59 387.26 126.24 384.56 133.16 382.72 140.03 380.69 146.8 378.4 153.62 376.24 160.15 373.21 167.07 371.35 173.83 368.99 180.74 367.11 187.55 364.9 194.08 361.86 200.92 359.77 207.74 357.59 214.65 355.72 221.29 353.02 228.07 350.72 235.01 348.91 241.81 346.67 248.62 344.48 255.26 341.8 262.15 339.81 268.76 337.03 275.8 335.51 282.41 332.73 289.12 330.21 296.13 328.62 302.86 326.19 309.63 323.85 316.27 321.17 323.17 319.21 329.9 316.79 336.81 314.88 343.54 312.44 350.34 310.21 357.24 308.28 363.91 305.68 370.6 303.11 377.44 301.03 384.28 298.92 391.15 296.91 397.69 293.92 404.77 292.5 411.5 290.08 418.24 287.66 424.94 285.14 431.79 283.05 438.43 280.33 445.43 278.72 452.19 276.34 459.05 274.28 465.62 271.37 472.39 269.04 479.48 267.67 486.16 265.08 492.92 262.7 499.71 260.46 506.55 258.31 513.16 255.52 519.97 253.3 526.73 250.93 533.51 248.64 540.6 247.25 547.36 244.89 554.14 242.54 561.22 240.51 568.1 242.47 573.07 247.53 578.27 252.38 583.46 257.23 588.1 262.65 593.25 267.55 598.16 272.68 603.76 277.13 608.27 282.68 613.64 287.34 618.74 292.3 623.85 297.24 628.78 302.36 633.78 307.41 638.75 312.49 643.89 317.4 648.89 322.46 653.79 327.62 659.1 332.35 663.92 337.6 669.28 342.29 673.66 347.97 679.1 352.57 683.87 357.86 689.42 362.36 693.81 368.02 699.44 372.44 703.92 378.03 709.2 382.81 713.99 388.08 719.23 392.9 724.13 398.06 729.34 402.92 734.29 408.04 732.65 412.73 727.42 415.28"/><polygon class="cls-2" points="727.42 415.28 720.64 417.55 713.78 419.6 706.92 421.64 700.2 424.09 693.35 426.15 686.71 428.86 679.73 430.53 673.08 433.21 666.38 435.76 659.32 437.17 652.77 440.15 646.02 442.52 639.07 444.28 632.47 447.12 625.38 448.47 618.74 451.19 612.02 453.64 605.13 455.57 598.44 458.14 591.62 460.3 584.81 462.51 578.16 465.17 571.28 467.18 564.52 469.51 557.61 471.4 551.01 474.23 544 475.82 537.44 478.78 530.51 480.61 523.72 482.88 516.9 485.03 510.25 487.74 503.38 489.74 496.62 492.1 489.76 494.13 482.89 496.15 476.34 499.13 469.5 501.26 462.65 503.33 455.88 505.65 449.02 507.69 442.34 510.3 435.62 512.75 428.76 514.8 421.93 516.92 414.99 518.72 408.37 521.5 401.59 523.78 394.88 526.27 387.82 527.72 381.06 530.08 374.24 532.24 367.69 535.21 360.89 537.45 353.88 539.05 347.25 541.81 340.35 543.72 333.5 545.83 326.73 548.16 320.03 550.68 313.41 553.48 306.43 555.18 299.72 557.66 293.04 560.28 286.15 562.24 279.36 564.5 272.38 566.22 265.78 569.06 258.86 570.94 252.22 573.71 245.37 575.81 238.16 577.39 230.84 575.97 226.23 570.53 221 565.72 215.9 560.77 211.02 555.6 205.76 550.81 200.88 545.64 195.86 540.61 190.94 535.48 185.49 530.89 180.99 525.34 176.1 520.17 170.58 515.65 165.98 510.19 160.71 505.41 155.94 500.12 150.41 495.6 145.43 490.53 140.8 485.11 135.37 480.48 130.3 475.49 125.49 470.25 120.34 465.35 115.21 460.42 110.36 455.23 105.25 450.28 100.14 445.33 95.45 439.96 89.99 435.37 84.99 430.31 80.18 425.06 75.06 420.12 70.08 415.03 64.87 410.16 66.9 405.49 72.11 403.15 78.96 401.09 85.65 398.53 92.45 396.31 99.13 393.74 105.83 391.22 112.82 389.55 119.59 387.26 126.24 384.56 133.16 382.72 140.03 380.69 146.8 378.4 153.62 376.24 160.15 373.21 167.07 371.35 173.83 368.99 180.74 367.11 187.55 364.9 194.08 361.86 200.92 359.77 207.74 357.59 214.65 355.72 221.29 353.02 228.07 350.72 235.01 348.91 241.81 346.67 248.62 344.48 255.26 341.8 262.15 339.81 268.76 337.03 275.8 335.51 282.41 332.73 289.12 330.21 296.13 328.62 302.86 326.19 309.63 323.85 316.27 321.17 323.17 319.21 329.9 316.79 336.81 314.88 343.54 312.44 350.34 310.21 357.24 308.28 363.91 305.68 370.6 303.11 377.44 301.03 384.28 298.92 391.15 296.91 397.69 293.92 404.77 292.5 411.5 290.08 418.24 287.66 424.94 285.14 431.79 283.05 438.43 280.33 445.43 278.72 452.19 276.34 459.05 274.28 465.62 271.37 472.39 269.04 479.48 267.67 486.16 265.08 492.92 262.7 499.71 260.46 506.55 258.31 513.16 255.52 519.97 253.3 526.73 250.93 533.51 248.64 540.6 247.25 547.36 244.89 554.14 242.54 561.22 240.51 568.1 242.47 573.07 247.53 578.27 252.38 583.46 257.23 588.1 262.65 593.25 267.55 598.16 272.68 603.76 277.13 608.27 282.68 613.64 287.34 618.74 292.3 623.85 297.24 628.78 302.36 633.78 307.41 638.75 312.49 643.89 317.4 648.89 322.46 653.79 327.62 659.1 332.35 663.92 337.6 669.28 342.29 673.66 347.97 679.1 352.57 683.87 357.86 689.42 362.36 693.81 368.02 699.44 372.44 703.92 378.03 709.2 382.81 713.99 388.08 719.23 392.9 724.13 398.06 729.34 402.92 734.29 408.04 732.65 412.73 727.42 415.28"/><polygon class="cls-1" points="420.77 489.51 414.17 492.1 407.43 494.23 400.87 496.9 394.17 499.16 387.38 501.17 380.7 503.49 373.86 505.33 367.02 507.18 360.59 510.28 353.88 512.51 346.92 514.01 340.46 517 333.72 519.14 326.81 520.8 320.29 523.61 313.62 526 306.88 528.13 300.04 530.01 293.38 532.38 286.68 534.67 280 536.99 273.21 539 266.57 541.46 259.89 543.81 253.11 545.89 246.27 547.78 244.19 547.93 239.31 542.82 234.46 537.7 228.87 533.3 224.32 527.87 219.49 522.7 220.11 521.52 226.99 519.79 233.82 517.91 240.3 515 247.02 512.8 253.84 510.9 260.48 508.43 267.1 505.92 274.05 504.41 280.67 501.89 287.36 499.61 294.07 497.37 300.78 495.12 307.6 493.19 314.32 490.98 320.82 488.1 327.54 485.9 334.33 483.89 340.94 481.33 347.92 479.9 354.47 477.19 361.11 474.73 368 473.02 374.74 470.86 381.34 468.26 388.04 465.97 394.91 464.18 397.25 463.43 401.68 468.98 406.92 473.72 411.83 478.79 416.74 483.87 421.67 488.93 420.77 489.51"/><polygon class="cls-2" points="420.77 489.51 414.17 492.1 407.43 494.23 400.87 496.9 394.17 499.16 387.38 501.17 380.7 503.49 373.86 505.33 367.02 507.18 360.59 510.28 353.88 512.51 346.92 514.01 340.46 517 333.72 519.14 326.81 520.8 320.29 523.61 313.62 526 306.88 528.13 300.04 530.01 293.38 532.38 286.68 534.67 280 536.99 273.21 539 266.57 541.46 259.89 543.81 253.11 545.89 246.27 547.78 244.19 547.93 239.31 542.82 234.46 537.7 228.87 533.3 224.32 527.87 219.49 522.7 220.11 521.52 226.99 519.79 233.82 517.91 240.3 515 247.02 512.8 253.84 510.9 260.48 508.43 267.1 505.92 274.05 504.41 280.67 501.89 287.36 499.61 294.07 497.37 300.78 495.12 307.6 493.19 314.32 490.98 320.82 488.1 327.54 485.9 334.33 483.89 340.94 481.33 347.92 479.9 354.47 477.19 361.11 474.73 368 473.02 374.74 470.86 381.34 468.26 388.04 465.97 394.91 464.18 397.25 463.43 401.68 468.98 406.92 473.72 411.83 478.79 416.74 483.87 421.67 488.93 420.77 489.51"/><polygon class="cls-1" points="450.84 478.73 457.92 476.07 465.14 473.83 472.62 472.45 479.8 470.11 486.77 467.08 494.21 465.52 501.46 463.37 499.08 463.04 493.92 458.22 489.22 452.94 483.92 448.26 478.99 443.19 474.5 437.7 475.18 436.72 467.96 438.95 460.8 441.34 453.71 443.99 446.43 446 439.27 448.42 432.04 450.66 424.7 452.51 426.98 452.69 432.08 457.58 436.93 462.71 441.88 467.74 447.13 472.48 451.88 477.72 450.84 478.73"/><polygon class="cls-2" points="450.84 478.73 457.92 476.07 465.14 473.83 472.62 472.45 479.8 470.11 486.77 467.08 494.21 465.52 501.46 463.37 499.08 463.04 493.92 458.22 489.22 452.94 483.92 448.26 478.99 443.19 474.5 437.7 475.18 436.72 467.96 438.95 460.8 441.34 453.71 443.99 446.43 446 439.27 448.42 432.04 450.66 424.7 452.51 426.98 452.69 432.08 457.58 436.93 462.71 441.88 467.74 447.13 472.48 451.88 477.72 450.84 478.73"/><polygon class="cls-1" points="450.57 421.17 443.7 423.51 436.76 425.64 429.87 427.9 423.09 430.52 416.07 432.41 409.33 435.13 402.46 437.48 395.58 439.77 388.46 441.35 381.53 443.5 374.8 446.26 367.89 448.47 360.99 450.72 354.06 452.85 347.23 455.32 340.51 458.12 333.57 460.24 326.71 462.6 319.82 464.89 312.88 467.01 306.07 469.54 299 471.29 292.02 473.33 285.27 476.03 278.49 478.63 271.55 480.77 264.78 483.41 257.59 484.81 250.99 487.95 244.07 490.17 237.01 491.94 230.34 494.88 223.36 496.92 216.42 499.1 209.35 500.87 202.09 501.66 196.89 496.49 191.78 491.24 186.58 486.06 181.36 480.93 176.35 475.58 171.39 470.17 166.33 464.87 160.76 460.08 155.37 455.1 150.83 449.27 145.39 444.35 139.95 439.42 135.16 433.83 129.48 429.14 124.43 423.81 119.56 418.3 122.83 414.85 129.63 412.31 136.65 410.43 143.53 408.11 150.25 405.33 157.19 403.21 164.07 400.9 171.04 398.87 177.78 396.16 184.84 394.38 191.65 391.88 198.72 390.16 205.57 387.77 212.32 385.06 219.3 383.05 226.24 380.91 232.92 378.02 239.88 375.93 246.69 373.42 253.8 371.79 260.39 368.63 267.29 366.36 274.46 364.92 281.33 362.56 288.23 360.3 294.87 357.28 302 355.7 308.82 353.21 315.7 350.89 322.6 348.64 329.28 345.71 336.18 343.47 343.25 341.71 350.12 339.35 356.88 336.64 363.76 334.3 371.27 334.35 376.14 339.84 381.12 345.23 386.82 349.89 392.04 355.04 397.12 360.32 402.28 365.52 407.6 370.56 412.79 375.74 417.69 381.2 423.14 386.12 427.9 391.73 433.28 396.72 438.13 402.24 443.84 406.9 448.52 412.6 453.96 417.55 450.57 421.17"/><polygon class="cls-2" points="450.57 421.17 443.7 423.51 436.76 425.64 429.87 427.9 423.09 430.52 416.07 432.41 409.33 435.13 402.46 437.48 395.58 439.77 388.46 441.35 381.53 443.5 374.8 446.26 367.89 448.47 360.99 450.72 354.06 452.85 347.23 455.32 340.51 458.12 333.57 460.24 326.71 462.6 319.82 464.89 312.88 467.01 306.07 469.54 299 471.29 292.02 473.33 285.27 476.03 278.49 478.63 271.55 480.77 264.78 483.41 257.59 484.81 250.99 487.95 244.07 490.17 237.01 491.94 230.34 494.88 223.36 496.92 216.42 499.1 209.35 500.87 202.09 501.66 196.89 496.49 191.78 491.24 186.58 486.06 181.36 480.93 176.35 475.58 171.39 470.17 166.33 464.87 160.76 460.08 155.37 455.1 150.83 449.27 145.39 444.35 139.95 439.42 135.16 433.83 129.48 429.14 124.43 423.81 119.56 418.3 122.83 414.85 129.63 412.31 136.65 410.43 143.53 408.11 150.25 405.33 157.19 403.21 164.07 400.9 171.04 398.87 177.78 396.16 184.84 394.38 191.65 391.88 198.72 390.16 205.57 387.77 212.32 385.06 219.3 383.05 226.24 380.91 232.92 378.02 239.88 375.93 246.69 373.42 253.8 371.79 260.39 368.63 267.29 366.36 274.46 364.92 281.33 362.56 288.23 360.3 294.87 357.28 302 355.7 308.82 353.21 315.7 350.89 322.6 348.64 329.28 345.71 336.18 343.47 343.25 341.71 350.12 339.35 356.88 336.64 363.76 334.3 371.27 334.35 376.14 339.84 381.12 345.23 386.82 349.89 392.04 355.04 397.12 360.32 402.28 365.52 407.6 370.56 412.79 375.74 417.69 381.2 423.14 386.12 427.9 391.73 433.28 396.72 438.13 402.24 443.84 406.9 448.52 412.6 453.96 417.55 450.57 421.17"/><polygon class="cls-1" points="64.65 408.16 61.48 415.19 61.03 422.54 59.86 429.75 60.19 437.05 61.56 444.23 62.61 451.44 64.41 458.57 69.38 463.67 74.74 468.37 79.47 473.68 84.27 478.93 89.44 483.82 94.41 488.9 99.3 494.06 104.15 499.26 109.78 503.7 114.56 508.97 119.78 513.81 124.43 519.21 129.62 524.07 134.73 529.03 139.77 534.04 144.31 539.56 149.8 544.13 154.54 549.45 159.78 554.27 164.62 559.49 169.16 565.01 174.47 569.77 179.44 574.84 184.79 579.56 189.16 585.24 194.2 590.25 199.79 594.73 204.53 600.06 209.49 605.16 214.54 610.18 219.75 615.03 224.15 620.7 229.43 625.5 234.43 630.8 241.29 628.04 248.15 625.77 255.11 623.82 261.84 621.15 268.6 618.58 275.49 616.41 282.46 614.49 289.42 612.53 295.98 609.4 302.84 607.13 309.66 604.73 316.62 602.78 323.53 600.67 330.43 598.52 337.35 596.44 344.19 594.12 350.96 591.56 357.86 589.42 364.72 587.16 371.55 584.81 378.13 581.73 385.09 579.75 391.91 577.36 398.82 575.25 405.7 573.05 412.48 570.54 419.4 568.45 426.32 566.36 433 563.55 440.08 561.95 446.93 559.64 453.51 556.54 460.44 554.48 467.27 552.12 474.14 549.9 481.01 547.65 487.91 545.51 494.87 543.53 501.56 540.75 508.4 538.43 515.28 536.2 522.15 533.97 528.83 531.17 535.84 529.33 542.55 526.64 549.41 524.37 556.22 521.95 563.17 519.96 569.91 517.35 576.78 515.12 583.83 513.41 590.54 510.71 597.31 508.16 604.14 505.78 611.19 504.08 617.86 501.25 624.69 498.88 631.54 496.58 638.41 494.35 645.46 492.63 652.38 490.53 659 487.52 665.99 485.62 672.72 482.95 679.5 480.46 686.4 478.3 693.25 475.99 700.07 473.59 707.16 471.98 713.96 469.51 720.68 466.83 727.61 464.73 734.45 462.41 736.54 455.9 738.11 449.2 739.11 442.39 739.44 435.51 739.97 428.56 738.28 421.79 736.83 415.02 734.5 408.43 727.6 410.63 720.68 412.69 713.98 415.43 707.07 417.52 700.45 420.46 693.6 422.74 686.69 424.84 679.73 426.79 673.14 429.83 666.32 432.22 659.32 434.07 652.45 436.26 645.6 438.55 638.84 441.08 632.01 443.44 625.15 445.69 618.34 448.1 611.58 450.63 604.8 453.12 597.89 455.23 591.14 457.79 584.15 459.66 577.23 461.74 570.44 464.21 563.8 467.1 556.82 469.02 550.02 471.44 543.22 473.87 536.29 475.93 529.38 478.04 522.66 480.68 515.78 482.89 509.05 485.52 502.04 487.33 495.15 489.52 488.37 491.99 481.58 494.47 474.83 497.03 467.87 499.01 461.08 501.48 454.28 503.92 447.53 506.5 440.56 508.44 433.71 510.72 426.93 513.21 420.24 515.92 413.16 517.53 406.44 520.23 399.74 522.93 392.64 524.49 385.92 527.15 379.05 529.36 372.41 532.27 365.39 534.06 358.73 536.91 351.78 538.89 344.8 540.82 338.07 543.47 331.16 545.58 324.51 548.46 317.62 550.65 310.8 553.03 304.05 555.61 297 557.32 290.11 559.5 283.41 562.24 276.68 564.87 269.73 566.89 262.98 569.49 256.15 571.84 249.08 573.51 242.47 576.53 235.5 578.49 230.34 573.34 225.15 568.21 220.23 562.8 214.69 558 209.49 552.88 204.77 547.27 199.25 542.47 193.88 537.51 188.72 532.34 183.73 527 178.22 522.18 173.13 516.93 167.87 511.87 162.81 506.59 157.52 501.55 152.57 496.16 147.41 491 142.38 485.69 137.41 480.32 131.78 475.62 126.89 470.18 121.46 465.27 116.36 460.04 111.26 454.81 106.16 449.58 100.73 444.67 95.61 439.45 90.75 433.97 85.24 429.14 80.23 423.82 75.23 418.47 69.6 413.75 64.65 408.16"/><polygon class="cls-2" points="64.65 408.16 61.48 415.19 61.03 422.54 59.86 429.75 60.19 437.05 61.56 444.23 62.61 451.44 64.41 458.57 69.38 463.67 74.74 468.37 79.47 473.68 84.27 478.93 89.44 483.82 94.41 488.9 99.3 494.06 104.15 499.26 109.78 503.7 114.56 508.97 119.78 513.81 124.43 519.21 129.62 524.07 134.73 529.03 139.77 534.04 144.31 539.56 149.8 544.13 154.54 549.45 159.78 554.27 164.62 559.49 169.16 565.01 174.47 569.77 179.44 574.84 184.79 579.56 189.16 585.24 194.2 590.25 199.79 594.73 204.53 600.06 209.49 605.16 214.54 610.18 219.75 615.03 224.15 620.7 229.43 625.5 234.43 630.8 241.29 628.04 248.15 625.77 255.11 623.82 261.84 621.15 268.6 618.58 275.49 616.41 282.46 614.49 289.42 612.53 295.98 609.4 302.84 607.13 309.66 604.73 316.62 602.78 323.53 600.67 330.43 598.52 337.35 596.44 344.19 594.12 350.96 591.56 357.86 589.42 364.72 587.16 371.55 584.81 378.13 581.73 385.09 579.75 391.91 577.36 398.82 575.25 405.7 573.05 412.48 570.54 419.4 568.45 426.32 566.36 433 563.55 440.08 561.95 446.93 559.64 453.51 556.54 460.44 554.48 467.27 552.12 474.14 549.9 481.01 547.65 487.91 545.51 494.87 543.53 501.56 540.75 508.4 538.43 515.28 536.2 522.15 533.97 528.83 531.17 535.84 529.33 542.55 526.64 549.41 524.37 556.22 521.95 563.17 519.96 569.91 517.35 576.78 515.12 583.83 513.41 590.54 510.71 597.31 508.16 604.14 505.78 611.19 504.08 617.86 501.25 624.69 498.88 631.54 496.58 638.41 494.35 645.46 492.63 652.38 490.53 659 487.52 665.99 485.62 672.72 482.95 679.5 480.46 686.4 478.3 693.25 475.99 700.07 473.59 707.16 471.98 713.96 469.51 720.68 466.83 727.61 464.73 734.45 462.41 736.54 455.9 738.11 449.2 739.11 442.39 739.44 435.51 739.97 428.56 738.28 421.79 736.83 415.02 734.5 408.43 727.6 410.63 720.68 412.69 713.98 415.43 707.07 417.52 700.45 420.46 693.6 422.74 686.69 424.84 679.73 426.79 673.14 429.83 666.32 432.22 659.32 434.07 652.45 436.26 645.6 438.55 638.84 441.08 632.01 443.44 625.15 445.69 618.34 448.1 611.58 450.63 604.8 453.12 597.89 455.23 591.14 457.79 584.15 459.66 577.23 461.74 570.44 464.21 563.8 467.1 556.82 469.02 550.02 471.44 543.22 473.87 536.29 475.93 529.38 478.04 522.66 480.68 515.78 482.89 509.05 485.52 502.04 487.33 495.15 489.52 488.37 491.99 481.58 494.47 474.83 497.03 467.87 499.01 461.08 501.48 454.28 503.92 447.53 506.5 440.56 508.44 433.71 510.72 426.93 513.21 420.24 515.92 413.16 517.53 406.44 520.23 399.74 522.93 392.64 524.49 385.92 527.15 379.05 529.36 372.41 532.27 365.39 534.06 358.73 536.91 351.78 538.89 344.8 540.82 338.07 543.47 331.16 545.58 324.51 548.46 317.62 550.65 310.8 553.03 304.05 555.61 297 557.32 290.11 559.5 283.41 562.24 276.68 564.87 269.73 566.89 262.98 569.49 256.15 571.84 249.08 573.51 242.47 576.53 235.5 578.49 230.34 573.34 225.15 568.21 220.23 562.8 214.69 558 209.49 552.88 204.77 547.27 199.25 542.47 193.88 537.51 188.72 532.34 183.73 527 178.22 522.18 173.13 516.93 167.87 511.87 162.81 506.59 157.52 501.55 152.57 496.16 147.41 491 142.38 485.69 137.41 480.32 131.78 475.62 126.89 470.18 121.46 465.27 116.36 460.04 111.26 454.81 106.16 449.58 100.73 444.67 95.61 439.45 90.75 433.97 85.24 429.14 80.23 423.82 75.23 418.47 69.6 413.75 64.65 408.16"/><polyline class="cls-1" points="235.86 577.82 232.15 583.46 230.62 590.14 229.33 596.91 230.22 603.75 230.72 610.56 231.51 617.38 233.78 623.87 235.36 630.55"/><polyline class="cls-2" points="235.86 577.82 232.15 583.46 230.62 590.14 229.33 596.91 230.22 603.75 230.72 610.56 231.51 617.38 233.78 623.87 235.36 630.55"/><polygon points="119.37 417.56 125.35 413.45 130.78 408.84 136.5 404.59 142.56 400.85 148.49 396.93 154.55 393.19 160.5 389.3 166.97 386.27 172.82 382.17 179.18 378.96 185.66 376.01 191.84 372.48 198.13 369.13 204.76 366.51 211.08 363.22 217.85 360.95 224.25 357.79 230.89 355.23 237.81 353.45 244.5 351.05 251.1 348.33 258.01 346.6 264.91 344.85 271.72 342.77 278.56 340.8 285.57 339.5 292.63 338.55 299.59 337.07 306.59 335.78 313.64 334.8 320.69 333.71 327.8 333.24 334.94 333.3 342.05 333.09 349.16 332.9 356.28 332.95 363.41 332.79 370.61 333.35 376.08 338.42 380.83 344.16 386.06 349.43 391.2 354.78 396.9 359.58 401.73 365.25 407.14 370.32 412.67 375.29 417.75 380.71 422.75 386.21 427.97 391.5 433.17 396.8 438.64 401.82 443.77 407.2 449.31 412.17 454.81 417.34 447.39 417.79 440.29 418.44 433.24 419.42 426.14 420.01 418.99 420.1 411.93 421.08 404.91 422.25 397.81 422.89 390.9 424.8 383.91 426.11 376.85 427.06 369.74 427.82 362.78 429.33 355.83 430.93 348.98 432.9 342.18 435.02 335.24 436.6 328.43 438.66 321.36 439.86 314.61 442.17 307.88 444.51 301.33 447.35 294.57 449.59 287.73 451.67 281.31 454.78 274.76 457.58 268.25 460.46 261.82 463.51 255.58 466.95 249.3 470.29 242.89 473.42 236.66 476.88 230.99 481.24 224.97 485.03 218.77 488.61 213.26 493.15 207.9 497.85 202.72 502.08 197.37 497.74 192.95 492.3 187.94 487.42 183.18 482.3 178.07 477.53 173.03 472.69 168.09 467.76 163.12 462.85 158.69 457.41 153.92 452.3 148.94 447.4 144.04 442.41 138.73 437.83 133.91 432.76 129.18 427.61 124.69 422.21 119.37 417.56"/><polygon class="cls-2" points="119.37 417.56 125.35 413.45 130.78 408.84 136.5 404.59 142.56 400.85 148.49 396.93 154.55 393.19 160.5 389.3 166.97 386.27 172.82 382.17 179.18 378.96 185.66 376.01 191.84 372.48 198.13 369.13 204.76 366.51 211.08 363.22 217.85 360.95 224.25 357.79 230.89 355.23 237.81 353.45 244.5 351.05 251.1 348.33 258.01 346.6 264.91 344.85 271.72 342.77 278.56 340.8 285.57 339.5 292.63 338.55 299.59 337.07 306.59 335.78 313.64 334.8 320.69 333.71 327.8 333.24 334.94 333.3 342.05 333.09 349.16 332.9 356.28 332.95 363.41 332.79 370.61 333.35 376.08 338.42 380.83 344.16 386.06 349.43 391.2 354.78 396.9 359.58 401.73 365.25 407.14 370.32 412.67 375.29 417.75 380.71 422.75 386.21 427.97 391.5 433.17 396.8 438.64 401.82 443.77 407.2 449.31 412.17 454.81 417.34 447.39 417.79 440.29 418.44 433.24 419.42 426.14 420.01 418.99 420.1 411.93 421.08 404.91 422.25 397.81 422.89 390.9 424.8 383.91 426.11 376.85 427.06 369.74 427.82 362.78 429.33 355.83 430.93 348.98 432.9 342.18 435.02 335.24 436.6 328.43 438.66 321.36 439.86 314.61 442.17 307.88 444.51 301.33 447.35 294.57 449.59 287.73 451.67 281.31 454.78 274.76 457.58 268.25 460.46 261.82 463.51 255.58 466.95 249.3 470.29 242.89 473.42 236.66 476.88 230.99 481.24 224.97 485.03 218.77 488.61 213.26 493.15 207.9 497.85 202.72 502.08 197.37 497.74 192.95 492.3 187.94 487.42 183.18 482.3 178.07 477.53 173.03 472.69 168.09 467.76 163.12 462.85 158.69 457.41 153.92 452.3 148.94 447.4 144.04 442.41 138.73 437.83 133.91 432.76 129.18 427.61 124.69 422.21 119.37 417.56"/><polyline class="cls-3" points="150.66 417.7 156.47 413.28 162.46 409.09 168.37 404.78 174.41 400.65 180.81 397.12 186.82 392.91 193.64 390.11 199.79 386.11 206.35 382.87 212.74 379.29 219.67 376.83 226.27 373.69 233.07 371.01 239.85 368.27 246.44 364.99 253.39 362.69 260.58 361.14 267.57 359.04 274.43 356.4 281.49 354.42 288.74 353.29 295.95 352.05 303.11 350.49 310.38 349.65 317.68 349.12 324.96 348.42 332.27 348.21 339.57 348.08 346.89 347.36 354.19 348.18 361.53 348.21"/><polyline class="cls-1" points="440.81 466.79 447.49 464.58 454.2 462.49 460.91 460.36 467.42 457.62 474.11 455.44 480.8 453.22 487.64 451.35 489.57 460.53 482.95 462.62 476.21 463.97 469.46 465.31 462.74 466.75 456.07 468.42 449.39 470.07"/><polyline class="cls-2" points="440.81 466.79 447.49 464.58 454.2 462.49 460.91 460.36 467.42 457.62 474.11 455.44 480.8 453.22 487.64 451.35 489.57 460.53 482.95 462.62 476.21 463.97 469.46 465.31 462.74 466.75 456.07 468.42 449.39 470.07"/><polyline class="cls-1" points="273.27 537.93 268.26 532.87 263.48 527.67 258.47 522.7 252.9 518.29 248.13 513.16"/><polyline class="cls-2" points="273.27 537.93 268.26 532.87 263.48 527.67 258.47 522.7 252.9 518.29 248.13 513.16"/><polyline class="cls-1" points="303.3 527.94 298.13 523 293.05 518.11 288.26 512.92 283.31 507.88 278.11 503.2"/><polyline class="cls-2" points="303.3 527.94 298.13 523 293.05 518.11 288.26 512.92 283.31 507.88 278.11 503.2"/><polyline class="cls-1" points="332.87 518.25 328.29 512.84 323.54 507.62 318.04 503.13 312.93 498.26 307.93 493.26"/><polyline class="cls-2" points="332.87 518.25 328.29 512.84 323.54 507.62 318.04 503.13 312.93 498.26 307.93 493.26"/><polyline class="cls-1" points="363.45 507.66 358.02 503.11 353.26 497.89 348.15 493.03 343.18 488 338.09 483.11"/><polyline class="cls-2" points="363.45 507.66 358.02 503.11 353.26 497.89 348.15 493.03 343.18 488 338.09 483.11"/><polyline class="cls-1" points="393.45 497.66 388.1 493.03 383.07 488.09 378.21 482.96 373.41 477.77 368.19 473"/><polyline class="cls-2" points="393.45 497.66 388.1 493.03 383.07 488.09 378.21 482.96 373.41 477.77 368.19 473"/><polyline class="cls-1" points="303.15 326.35 295.98 324.77 288.65 324.83 281.44 323.67 274.15 323.3 266.9 322.53 259.63 321.99 252.38 321.21 245.18 319.87 237.85 319.92 230.59 319.25 223.41 317.74 216.09 317.69 208.84 316.92 201.61 315.95 194.36 315.17 187.06 314.84 179.85 313.68 172.54 313.41 165.33 312.23 158.08 311.42 150.73 311.53 143.54 310.5 150.01 306.33 156.88 302.81 163.57 298.93 170.34 295.31 164.56 298.73 158.67 302.06 152.48 304.81 146.59 308.16 140.39 310.88 134.51 314.25 128.41 317.19 122.71 320.91"/><polyline class="cls-2" points="303.15 326.35 295.98 324.77 288.65 324.83 281.44 323.67 274.15 323.3 266.9 322.53 259.63 321.99 252.38 321.21 245.18 319.87 237.85 319.92 230.59 319.25 223.41 317.74 216.09 317.69 208.84 316.92 201.61 315.95 194.36 315.17 187.06 314.84 179.85 313.68 172.54 313.41 165.33 312.23 158.08 311.42 150.73 311.53 143.54 310.5 150.01 306.33 156.88 302.81 163.57 298.93 170.34 295.31 164.56 298.73 158.67 302.06 152.48 304.81 146.59 308.16 140.39 310.88 134.51 314.25 128.41 317.19 122.71 320.91"/><polyline class="cls-1" points="338.4 314.39 341.7 307.92 345.23 301.57 348.94 295.34 353.07 289.35 356.45 282.92 360.57 276.93 363.66 270.33 368.03 264.49 371.64 258.19 375.29 251.91 378.65 245.47 382.47 239.3 385.97 232.93 389.76 226.73 393.32 220.59 386.53 219.73 379.53 219.24 372.49 219.14 365.65 218.31 372.77 219.29 380.1 219.6 387.34 220.75 394.61 221.62 401.9 222.3 409.17 223.21 416.54 223.11"/><polyline class="cls-2" points="338.4 314.39 341.7 307.92 345.23 301.57 348.94 295.34 353.07 289.35 356.45 282.92 360.57 276.93 363.66 270.33 368.03 264.49 371.64 258.19 375.29 251.91 378.65 245.47 382.47 239.3 385.97 232.93 389.76 226.73 393.32 220.59 386.53 219.73 379.53 219.24 372.49 219.14 365.65 218.31 372.77 219.29 380.1 219.6 387.34 220.75 394.61 221.62 401.9 222.3 409.17 223.21 416.54 223.11"/><polygon class="cls-1" points="525.52 369.93 521.9 376.29 514.81 379.52 507.57 382.37 499.97 384.02 492.39 385.67 484.86 387.39 477.14 386.95 469.67 385.28 462.36 382.8 458.55 376.18 462.62 370.13 469.33 366.2 476.93 364.43 484.27 361.99 491.82 360.32 499.45 359.74 507.11 359.14 514.72 360.32 521.38 363.97 525.52 369.93"/><polygon class="cls-2" points="525.52 369.93 521.9 376.29 514.81 379.52 507.57 382.37 499.97 384.02 492.39 385.67 484.86 387.39 477.14 386.95 469.67 385.28 462.36 382.8 458.55 376.18 462.62 370.13 469.33 366.2 476.93 364.43 484.27 361.99 491.82 360.32 499.45 359.74 507.11 359.14 514.72 360.32 521.38 363.97 525.52 369.93"/><polygon class="cls-1" points="525.45 362.94 521.56 368.79 514.96 372.91 507.41 374.85 500.01 377.18 492.42 378.8 484.86 380.35 477.12 380.26 469.55 378.72 462.34 375.82 458.15 369.25 462.63 363.15 469.6 359.85 476.68 356.66 484.22 354.79 491.73 352.87 499.39 351.77 507.12 351.98 514.73 353.3 521.79 356.42 525.45 362.94"/><polygon class="cls-2" points="525.45 362.94 521.56 368.79 514.96 372.91 507.41 374.85 500.01 377.18 492.42 378.8 484.86 380.35 477.12 380.26 469.55 378.72 462.34 375.82 458.15 369.25 462.63 363.15 469.6 359.85 476.68 356.66 484.22 354.79 491.73 352.87 499.39 351.77 507.12 351.98 514.73 353.3 521.79 356.42 525.45 362.94"/><polygon class="cls-1" points="572.14 295.82 567.54 301.76 560.65 305.13 553.51 308.16 546.01 310.2 538.44 311.88 530.86 313.38 523.16 312.75 515.46 312.05 508.84 308.15 504.61 302.16 508.46 295.89 515.5 292.62 522.75 289.87 530.18 287.65 537.86 286.55 545.39 284.83 553.08 285.55 560.69 286.44 567.95 289.21 572.14 295.82"/><polygon class="cls-2" points="572.14 295.82 567.54 301.76 560.65 305.13 553.51 308.16 546.01 310.2 538.44 311.88 530.86 313.38 523.16 312.75 515.46 312.05 508.84 308.15 504.61 302.16 508.46 295.89 515.5 292.62 522.75 289.87 530.18 287.65 537.86 286.55 545.39 284.83 553.08 285.55 560.69 286.44 567.95 289.21 572.14 295.82"/><polygon class="cls-1" points="572.14 288.82 567.45 294.62 560.79 298.48 553.46 301 545.99 303.1 538.33 304.4 530.82 305.83 523.14 305.89 515.46 305.05 508.57 301.51 504.97 295.1 508.89 289.54 515.37 285.29 522.84 283.17 530.36 281.37 537.76 279.04 545.4 277.9 553.13 277.86 560.6 279.78 567.57 282.72 572.14 288.82"/><polygon class="cls-2" points="572.14 288.82 567.45 294.62 560.79 298.48 553.46 301 545.99 303.1 538.33 304.4 530.82 305.83 523.14 305.89 515.46 305.05 508.57 301.51 504.97 295.1 508.89 289.54 515.37 285.29 522.84 283.17 530.36 281.37 537.76 279.04 545.4 277.9 553.13 277.86 560.6 279.78 567.57 282.72 572.14 288.82"/><polygon class="cls-1" points="654.99 390.92 652.54 396.16 646.65 398.61 640.67 400.67 634.5 402.07 626.49 403.16 618.49 401.95 612.59 397.1 615.28 391.73 621.06 388.98 627.19 387.3 633.27 385.45 641.37 384.94 649.28 386.26 654.99 390.92"/><polygon class="cls-2" points="654.99 390.92 652.54 396.16 646.65 398.61 640.67 400.67 634.5 402.07 626.49 403.16 618.49 401.95 612.59 397.1 615.28 391.73 621.06 388.98 627.19 387.3 633.27 385.45 641.37 384.94 649.28 386.26 654.99 390.92"/><polygon class="cls-1" points="655.27 385.88 652.46 391.14 646.8 394.11 640.57 395.45 634.46 397.07 626.45 398.49 618.38 397.24 612.17 392.24 615.32 386.88 621.03 384.03 627.02 381.85 633.32 380.89 641.33 379.94 649.33 381.04 655.27 385.88"/><polygon class="cls-2" points="655.27 385.88 652.46 391.14 646.8 394.11 640.57 395.45 634.46 397.07 626.45 398.49 618.38 397.24 612.17 392.24 615.32 386.88 621.03 384.03 627.02 381.85 633.32 380.89 641.33 379.94 649.33 381.04 655.27 385.88"/><polygon class="cls-1" points="611.97 342.53 609.25 347.87 603.42 350.5 597.41 352.57 591.25 354.21 583.13 354 575.14 353.35 569.28 348.5 572.27 343.56 577.9 340.73 583.96 338.93 590.05 337.14 598.12 336.15 606.04 337.87 611.97 342.53"/><polygon class="cls-2" points="611.97 342.53 609.25 347.87 603.42 350.5 597.41 352.57 591.25 354.21 583.13 354 575.14 353.35 569.28 348.5 572.27 343.56 577.9 340.73 583.96 338.93 590.05 337.14 598.12 336.15 606.04 337.87 611.97 342.53"/><polygon class="cls-1" points="612.65 337.4 609.23 342.88 603.53 345.83 597.33 347.33 591.07 348.29 583.12 349.98 575.15 348.39 569.12 343.58 572.17 338.45 577.87 335.68 584.03 334.22 590.12 332.58 598.12 331.66 606.15 332.55 612.65 337.4"/><polygon class="cls-2" points="612.65 337.4 609.23 342.88 603.53 345.83 597.33 347.33 591.07 348.29 583.12 349.98 575.15 348.39 569.12 343.58 572.17 338.45 577.87 335.68 584.03 334.22 590.12 332.58 598.12 331.66 606.15 332.55 612.65 337.4"/></svg>