<svg xmlns="http://www.w3.org/2000/svg" viewBox="0 0 800 800"><defs><style>.a{fill:none;stroke:#000;stroke-linejoin:bevel;stroke-width:13px;}</style></defs><title>canvas (37)</title><polyline class="a" points="562.68 543.13 570.04 544.17 577.41 543.47 584.77 544.23 592.14 543.23 599.51 544.21 606.87 543.36 614.24 543.82 621.61 543.65 628.98 543.59 636.35 543.87 643.71 543.89 651.08 544.19 658.45 544.24 665.81 543.77 673.18 543.16 680.56 543.62 687.93 543.23 695.3 543.82 702.64 543.67 696.95 547.79 691.18 551.87 684.99 555.3 679.38 559.62 673.21 563.09 667.22 566.82 661.82 571.45 655.68 574.96 649.51 578.43 643.6 582.3 637.85 586.4 632.09 590.5 626.15 594.32 620.61 598.74 614.56 602.38 608.98 606.74 602.5 609.76 597.03 614.28 591.26 618.36 585.05 621.77 579.23 625.78 573.54 630 567.31 633.09 560.11 634.17 552.75 633.53 545.38 633.5 538.02 633.16 530.65 633.93 523.28 633.59 515.91 633.9 508.55 633.77 501.18 633.97 493.81 633.76 486.44 633.15 479.08 634.24 471.71 634.07 464.34 633.75 456.97 634.13 449.6 633.35 442.23 633.7 434.86 633.49 427.48 633.07"/><polyline class="a" points="388.46 165.54 389.27 172.73 389.59 179.93 390.3 187.11 390.3 194.38 391.61 201.5 392.23 208.71 393.14 215.88 394.33 223.02 395.55 230.15 397.8 237.07 398.36 244.33 399.87 251.4 401.78 258.38 403.83 265.32 404.84 272.51 406.91 279.44 409.19 286.31 410.97 293.32 413.26 300.18 415.57 307.02 417.81 313.89 420.06 320.75 422.06 327.71 425.03 334.32 426.67 341.43 429.51 348.08 432.71 354.58 435.34 361.31 437.91 368.08 441.24 374.51 443.78 381.3 447.07 387.74 450.88 393.92 453.55 400.68 457.49 406.76 460.27 413.48 464.42 419.44 468.31 425.53 471.23 432.2 475.57 438.02 479.59 444.03 483.71 449.96 487.53 456.1 491.35 462.24 495.64 468.06 500.01 473.81 504.32 479.62 508.78 485.3 513.63 490.67 517.8 496.59 522.08 502.44 527.64 507.19 532.22 512.79 536.97 518.24 541.93 523.5 547.08 528.58 552.04 533.85 557.08 539.05 562.59 543.75"/><polyline points="117.22 259.61 120.5 266.05 122.55 272.99 125.41 279.6 128.49 286.11 131.23 292.76 135.17 298.86 138.27 305.35 141 312.02 144.33 318.4 147.25 324.99 150.91 331.2 154.08 337.67 157.84 343.81 162.06 349.69 165.72 355.87 169.41 362.05 173.05 368.25 176.31 374.71 180.4 380.63 184.1 386.81 188.44 392.57 192.54 398.49 196.48 404.51 201.19 409.99 204.92 416.18 209.28 421.91 213.42 427.81 218.26 433.16 222.49 438.99 227.15 444.48 232.08 449.73 236.08 455.77 240.69 461.31 246.12 466.12 250.77 471.61 255.71 476.84 260.43 482.28 265.96 486.94 270.33 492.75 275.98 497.27 281.37 502.04 286.41 507.18 291.24 512.57 296.94 517 302.75 521.28 307.86 526.38 313.58 530.77 319.48 534.91 324.88 539.68 330.63 544.02 336.28 548.49 342.55 552.09 348.21 556.56 354.54 560.05 360.22 564.51 366.07 568.75 372.57 571.91 378.72 575.65 384.73 579.66 391.33 582.6 397.99 585.39 404.24 588.98 410.75 592.03 416.99 595.69 423.52 598.73 430.12 601.65 437 603.84 443.51 607 450.64 608.47 457.28 611.29 464.04 613.78 470.87 616.08 477.87 617.78 484.65 620.27 491.87 621.15 498.86 622.84 505.88 624.38 512.75 626.73 519.85 627.96 526.92 629.35 534.04 630.43 541.28 630.68 548.28 632.68 555.47 633.3 562.63 633.54 568.63 629.54 574.95 625.99 581.1 622.19 586.83 617.73 593.07 614.04 598.91 609.76 605.53 606.67 611.12 601.99 617.29 598.21 623.8 594.96 629.9 591.08 635.86 586.95 641.78 582.78 647.79 578.75 654.25 575.43 660.31 571.48 665.83 566.68 671.91 562.76 678.35 559.39 684.48 555.55 690.27 551.16 696.74 547.82 702.44 543.44 695.52 542.5 688.25 542.52 681.17 540.79 673.99 539.94 666.84 538.87 659.66 537.99 652.55 536.67 645.36 535.8 638.34 534.01 631.2 532.84 624.08 531.52 616.91 530.43 610.07 527.9 602.88 526.83 595.94 524.73 589.18 522.06 582.25 519.99 575.03 518.83 568.4 515.8 561.41 513.88 554.7 511.16 547.97 508.51 541.17 506.04 534.19 504 527.86 500.36 521.1 497.77 514.4 495.03 507.71 492.25 501.11 489.26 494.65 485.99 488.5 482.13 481.75 479.42 475.38 475.96 469.5 471.66 462.98 468.48 456.59 465.06 450.79 460.68 444.57 456.98 438.32 453.33 432.37 449.21 426.67 444.74 420.56 440.83 414.55 436.81 408.65 432.6 402.88 428.23 397.73 423.08 392.2 418.42 386 414.56 381.17 409.07 375.14 404.98 370.17 399.69 364.89 394.76 358.97 390.49 353.91 385.31 349.37 379.61 343.7 375.04 338.74 369.78 334.21 364.1 329.13 358.96 324.32 353.56 319.3 348.34 314.44 342.97 310.18 337.1 305.63 331.49 301.04 325.9 297 319.88 291.9 314.66 287.89 308.64 283.75 302.7 279.61 296.76 275.84 290.59 271.49 284.78 267.66 278.64 264.57 272.07 260.68 265.98 257.7 259.4"/><polyline class="a" points="117.22 259.61 120.5 266.05 122.55 272.99 125.41 279.6 128.49 286.11 131.23 292.76 135.17 298.86 138.27 305.35 141 312.02 144.33 318.4 147.25 324.99 150.91 331.2 154.08 337.67 157.84 343.81 162.06 349.69 165.72 355.87 169.41 362.05 173.05 368.25 176.31 374.71 180.4 380.63 184.1 386.81 188.44 392.57 192.54 398.49 196.48 404.51 201.19 409.99 204.92 416.18 209.28 421.91 213.42 427.81 218.26 433.16 222.49 438.99 227.15 444.48 232.08 449.73 236.08 455.77 240.69 461.31 246.12 466.12 250.77 471.61 255.71 476.84 260.43 482.28 265.96 486.94 270.33 492.75 275.98 497.27 281.37 502.04 286.41 507.18 291.24 512.57 296.94 517 302.75 521.28 307.86 526.38 313.58 530.77 319.48 534.91 324.88 539.68 330.63 544.02 336.28 548.49 342.55 552.09 348.21 556.56 354.54 560.05 360.22 564.51 366.07 568.75 372.57 571.91 378.72 575.65 384.73 579.66 391.33 582.6 397.99 585.39 404.24 588.98 410.75 592.03 416.99 595.69 423.52 598.73 430.12 601.65 437 603.84 443.51 607 450.64 608.47 457.28 611.29 464.04 613.78 470.87 616.08 477.87 617.78 484.65 620.27 491.87 621.15 498.86 622.84 505.88 624.38 512.75 626.73 519.85 627.96 526.92 629.35 534.04 630.43 541.28 630.68 548.28 632.68 555.47 633.3 562.63 633.54 568.63 629.54 574.95 625.99 581.1 622.19 586.83 617.73 593.07 614.04 598.91 609.76 605.53 606.67 611.12 601.99 617.29 598.21 623.8 594.96 629.9 591.08 635.86 586.95 641.78 582.78 647.79 578.75 654.25 575.43 660.31 571.48 665.83 566.68 671.91 562.76 678.35 559.39 684.48 555.55 690.27 551.16 696.74 547.82 702.44 543.44 695.52 542.5 688.25 542.52 681.17 540.79 673.99 539.94 666.84 538.87 659.66 537.99 652.55 536.67 645.36 535.8 638.34 534.01 631.2 532.84 624.08 531.52 616.91 530.43 610.07 527.9 602.88 526.83 595.94 524.73 589.18 522.06 582.25 519.99 575.03 518.83 568.4 515.8 561.41 513.88 554.7 511.16 547.97 508.51 541.17 506.04 534.19 504 527.86 500.36 521.1 497.77 514.4 495.03 507.71 492.25 501.11 489.26 494.65 485.99 488.5 482.13 481.75 479.42 475.38 475.96 469.5 471.66 462.98 468.48 456.59 465.06 450.79 460.68 444.57 456.98 438.32 453.33 432.37 449.21 426.67 444.74 420.56 440.83 414.55 436.81 408.65 432.6 402.88 428.23 397.73 423.08 392.2 418.42 386 414.56 381.17 409.07 375.14 404.98 370.17 399.69 364.89 394.76 358.97 390.49 353.91 385.31 349.37 379.61 343.7 375.04 338.74 369.78 334.21 364.1 329.13 358.96 324.32 353.56 319.3 348.34 314.44 342.97 310.18 337.1 305.63 331.49 301.04 325.9 297 319.88 291.9 314.66 287.89 308.64 283.75 302.7 279.61 296.76 275.84 290.59 271.49 284.78 267.66 278.64 264.57 272.07 260.68 265.98 257.7 259.4"/><polyline class="a" points="431.07 634.56 424.78 630.79 419.59 625.55 413.45 621.56 407.56 617.23 401.85 612.68 396.42 607.79 390.78 603.15 385.16 598.48 379.43 593.94 374.27 588.74 369.07 583.61 363.67 578.67 358.7 573.32 353.61 568.07 348.53 562.79 343.99 557.04 340.19 550.77"/><polygon class="a" points="257.39 259.5 250.04 259.14 242.67 259.08 235.3 259.42 227.94 260.14 220.57 259.83 213.2 259.29 205.84 259.42 198.47 259.13 191.1 259.24 183.73 259.65 176.37 258.96 169 259.7 161.63 259.14 154.26 259.85 146.89 259.79 139.52 260.06 132.15 258.98 124.78 259.67 117.22 259.61 123.14 255.42 129.46 252.19 134.88 247.58 140.7 243.59 146.88 240.13 152.61 236.01 158.28 231.78 164.7 228.69 169.98 223.88 176.5 220.92 182.06 216.53 187.93 212.61 194.09 209.11 199.57 204.62 205.35 200.56 211.38 196.88 217.41 193.19 223.3 189.3 229.19 185.39 235.18 181.65 240.74 177.25 246.79 173.57 252.46 169.08 259.96 169.79 267.33 169.64 274.7 169.29 282.06 170.02 289.43 169.28 296.8 169.7 304.16 169.65 311.53 169.63 318.9 169.15 326.27 169.24 333.63 169.13 341 169.18 348.37 169.88 355.74 169.58 363.11 169.31 370.48 170.14 377.85 169.41 385.22 169.42 392.67 169.52 386.62 173.3 381.15 177.81 374.71 180.88 368.79 184.73 363.2 189.07 357.62 193.42 351.52 197 345.65 200.92 339.66 204.66 333.67 208.42 328.11 212.8 321.84 216.13 316.41 220.72 310.3 224.26 304.45 228.22 298.86 232.57 292.7 236.06 287.13 240.44 280.91 243.84 274.92 247.58 269.02 251.47 263.39 255.78 257.39 259.5"/></svg>