<svg xmlns="http://www.w3.org/2000/svg" viewBox="0 0 800 800"><defs><style>.a{fill:#fff;}.b{fill:none;stroke:#000;stroke-linejoin:bevel;stroke-width:13px;}</style></defs><title>canvas (27)</title><polygon class="a" points="479.71 721.81 472.56 719.72 465.55 718.24 458.66 716.28 451.67 714.73 444.76 712.83 437.87 710.87 430.88 709.32 423.75 708.3 416.88 706.27 409.95 704.46 402.95 702.95 396.09 700.85 389.13 699.15 382.12 697.67 375.04 696.5 368.09 694.74 361.32 692.3 354.38 690.52 347.32 689.24 340.41 687.38 333.5 685.49 326.38 684.48 319.5 682.49 312.66 680.31 305.64 678.87 298.74 676.96 291.79 675.2 284.78 673.72 277.75 672.33 270.88 670.27 263.94 668.5 257.01 666.68 250.06 664.93 242.92 663.97 236.02 662.05 229.09 660.22 222.02 658.98 215.07 657.23 208.3 654.75 201.19 653.65 194.4 651.29 187.38 649.82 180.38 648.28 173.39 646.7 166.56 644.49 159.55 642.93 152.39 641.63 152.64 634.28 152.17 627.01 152.76 619.75 152.28 612.48 152.46 605.22 152.76 597.95 152.06 590.69 152.6 583.42 152.13 576.16 152.96 568.89 152.43 561.63 152.58 554.36 152.79 547.1 152.66 539.83 152.61 532.57 152.66 525.3 152.87 518.04 152.78 510.78 152.16 503.51 152.97 496.25 152.97 488.99 152.69 481.73 152.57 474.46 152.97 467.2 152.85 459.93 152.43 452.67 152.68 445.4 152.97 438.13 152.77 430.87 152.18 423.6 152.88 416.33 152.66 409.06 152.91 401.8 152.8 394.53 152.09 387.26 152.07 379.99 152.11 372.73 152.71 365.46 152.86 358.19 152.25 350.92 152.54 343.65 152.06 336.38 152.78 329.11 152.13 321.83 152.68 314.77 159.47 316.22 166.43 317.91 173.33 319.84 180.31 321.44 187.36 322.74 194.32 324.43 201.29 326.07 208.25 327.78 215 330.3 222.05 331.61 228.96 333.52 235.91 335.21 242.88 336.88 249.91 338.26 256.94 339.68 263.83 341.66 270.64 343.96 277.6 345.63 284.58 347.24 291.71 348.19 298.63 350.02 305.45 352.28 312.38 354.11 319.48 355.19 326.44 356.87 333.34 358.8 340.36 360.24 347.3 362.01 354.14 364.18 361.19 365.52 368.03 367.72 375.17 368.68 382.14 370.31 388.94 372.66 395.98 374.04 402.82 376.21 409.99 377.09 416.93 378.85 423.87 380.61 430.87 382.16 437.69 384.44 444.61 386.31 451.69 387.49 458.65 389.22 465.52 391.26 472.43 393.22 479.79 394.32 479.34 401.82 479.6 409.09 479.21 416.35 479.91 423.61 479.37 430.88 479.17 438.14 479.22 445.41 479.44 452.67 479.54 459.94 479.62 467.2 479.53 474.47 479.45 481.73 479.22 489 479.15 496.26 479.16 503.53 479.05 510.8 479.83 518.06 479.82 525.32 479.53 532.58 479.51 539.85 479.13 547.11 479.77 554.37 479.11 561.64 479.78 568.9 479.49 576.17 479.2 583.43 479.49 590.7 479.54 597.96 479.1 605.23 479.22 612.5 479.84 619.76 479.18 627.03 479.31 634.3 479.28 641.57 479.45 648.84 479.51 656.11 479.85 663.37 479.2 670.64 479.14 677.91 479.79 685.18 479.27 692.45 479.68 699.72 479.32 706.99 479.75 714.26 479.71 721.81"/><polygon class="b" points="479.71 721.81 472.56 719.72 465.55 718.24 458.66 716.28 451.67 714.73 444.76 712.83 437.87 710.87 430.88 709.32 423.75 708.3 416.88 706.27 409.95 704.46 402.95 702.95 396.09 700.85 389.13 699.15 382.12 697.67 375.04 696.5 368.09 694.74 361.32 692.3 354.38 690.52 347.32 689.24 340.41 687.38 333.5 685.49 326.38 684.48 319.5 682.49 312.66 680.31 305.64 678.87 298.74 676.96 291.79 675.2 284.78 673.72 277.75 672.33 270.88 670.27 263.94 668.5 257.01 666.68 250.06 664.93 242.92 663.97 236.02 662.05 229.09 660.22 222.02 658.98 215.07 657.23 208.3 654.75 201.19 653.65 194.4 651.29 187.38 649.82 180.38 648.28 173.39 646.7 166.56 644.49 159.55 642.93 152.39 641.63 152.64 634.28 152.17 627.01 152.76 619.75 152.28 612.48 152.46 605.22 152.76 597.95 152.06 590.69 152.6 583.42 152.13 576.16 152.96 568.89 152.43 561.63 152.58 554.36 152.79 547.1 152.66 539.83 152.61 532.57 152.66 525.3 152.87 518.04 152.78 510.78 152.16 503.51 152.97 496.25 152.97 488.99 152.69 481.73 152.57 474.46 152.97 467.2 152.85 459.93 152.43 452.67 152.68 445.4 152.97 438.13 152.77 430.87 152.18 423.6 152.88 416.33 152.66 409.06 152.91 401.8 152.8 394.53 152.09 387.26 152.07 379.99 152.11 372.73 152.71 365.46 152.86 358.19 152.25 350.92 152.54 343.65 152.06 336.38 152.78 329.11 152.13 321.83 152.68 314.77 159.47 316.22 166.43 317.91 173.33 319.84 180.31 321.44 187.36 322.74 194.32 324.43 201.29 326.07 208.25 327.78 215 330.3 222.05 331.61 228.96 333.52 235.91 335.21 242.88 336.88 249.91 338.26 256.94 339.68 263.83 341.66 270.64 343.96 277.6 345.63 284.58 347.24 291.71 348.19 298.63 350.02 305.45 352.28 312.38 354.11 319.48 355.19 326.44 356.87 333.34 358.8 340.36 360.24 347.3 362.01 354.14 364.18 361.19 365.52 368.03 367.72 375.17 368.68 382.14 370.31 388.94 372.66 395.98 374.04 402.82 376.21 409.99 377.09 416.93 378.85 423.87 380.61 430.87 382.16 437.69 384.44 444.61 386.31 451.69 387.49 458.65 389.22 465.52 391.26 472.43 393.22 479.79 394.32 479.34 401.82 479.6 409.09 479.21 416.35 479.91 423.61 479.37 430.88 479.17 438.14 479.22 445.41 479.44 452.67 479.54 459.94 479.62 467.2 479.53 474.47 479.45 481.73 479.22 489 479.15 496.26 479.16 503.53 479.05 510.8 479.83 518.06 479.82 525.32 479.53 532.58 479.51 539.85 479.13 547.11 479.77 554.37 479.11 561.64 479.78 568.9 479.49 576.17 479.2 583.43 479.49 590.7 479.54 597.96 479.1 605.23 479.22 612.5 479.84 619.76 479.18 627.03 479.31 634.3 479.28 641.57 479.45 648.84 479.51 656.11 479.85 663.37 479.2 670.64 479.14 677.91 479.79 685.18 479.27 692.45 479.68 699.72 479.32 706.99 479.75 714.26 479.71 721.81"/><polygon class="a" points="421.5 683.43 414.49 682.03 407.68 680.17 400.88 678.22 393.92 677 387.21 674.72 380.35 673.05 373.46 671.5 366.65 669.62 359.66 668.5 352.96 666.17 345.93 665.2 339.15 663.21 332.35 661.28 325.43 659.88 318.5 658.47 311.71 656.51 304.81 655.01 298.08 652.77 291.07 651.5 291.89 644.61 291.7 637.68 292.58 630.73 299.74 632.88 307.01 634.13 314.17 635.85 321.22 638.02 328.49 639.29 335.67 640.95 342.7 643.16 349.96 644.49 357 646.73 364.14 648.51 371.34 650.08 378.39 652.21 385.53 654.04 392.89 654.93 399.95 657.07 407.13 658.7 414.23 660.73 421.34 662.42 421.15 669.34 421.27 676.34 421.5 683.43"/><polygon class="b" points="421.5 683.43 414.49 682.03 407.68 680.17 400.88 678.22 393.92 677 387.21 674.72 380.35 673.05 373.46 671.5 366.65 669.62 359.66 668.5 352.96 666.17 345.93 665.2 339.15 663.21 332.35 661.28 325.43 659.88 318.5 658.47 311.71 656.51 304.81 655.01 298.08 652.77 291.07 651.5 291.89 644.61 291.7 637.68 292.58 630.73 299.74 632.88 307.01 634.13 314.17 635.85 321.22 638.02 328.49 639.29 335.67 640.95 342.7 643.16 349.96 644.49 357 646.73 364.14 648.51 371.34 650.08 378.39 652.21 385.53 654.04 392.89 654.93 399.95 657.07 407.13 658.7 414.23 660.73 421.34 662.42 421.15 669.34 421.27 676.34 421.5 683.43"/><polygon points="646.41 571.42 640.92 576.1 635.48 580.87 630.18 585.8 624.68 590.5 619.63 595.7 614.01 600.28 609.1 605.65 603.18 609.89 598.2 615.17 592.35 619.49 587.06 624.43 581.66 629.26 576.18 633.99 571.1 639.17 566.03 644.36 560.47 649 554.9 653.64 549.79 658.79 543.97 663.15 539.08 668.54 533.22 672.85 528.15 678.04 522.93 683.06 517.53 687.89 511.69 692.22 506.24 697 501.22 702.25 495.49 706.71 490.16 711.61 484.58 716.25 479.4 721.64 479.23 714.18 479.06 706.91 479.16 699.65 479.57 692.39 479.27 685.12 479.62 677.86 479.52 670.59 479.24 663.33 479.46 656.06 479.42 648.8 479.74 641.53 479.4 634.27 479.33 627 479.88 619.74 479.02 612.47 479.81 605.2 479.07 597.94 479.86 590.68 479.87 583.42 479.57 576.15 479.47 568.89 479.04 561.63 479.4 554.36 479.84 547.1 479.35 539.83 479.58 532.57 479.89 525.3 479.26 518.04 479.09 510.77 479.15 503.5 479.26 496.24 479.08 488.97 479.62 481.7 479.43 474.43 479.33 467.16 479.66 459.89 479.45 452.63 479.29 445.36 479.39 438.09 479.45 430.82 479.1 423.55 479.54 416.28 479.94 409.01 479.93 401.74 479.52 394.48 485.69 390.8 491.74 386.87 498.16 383.57 504.37 379.91 510.43 376.01 516.63 372.34 522.78 368.58 529.1 365.1 535.02 360.96 541.27 357.38 547.55 353.83 553.48 349.7 559.67 346 565.81 342.23 572.49 339.35 578.59 335.5 584.82 331.88 590.82 327.87 596.72 323.7 603.13 320.37 609.45 316.89 615.57 313.07 621.46 308.86 628.04 305.82 634.32 302.27 640.43 298.42 646.69 294.09 646.31 301.75 646.95 309.04 646.35 316.32 646.09 323.61 646.19 330.9 646.56 338.19 646.55 345.47 646.87 352.76 646.68 360.05 646.54 367.34 645.98 374.62 646.52 381.91 646.77 389.19 646.3 396.48 645.99 403.76 646.7 411.05 646.16 418.34 646.79 425.63 646.66 432.91 646.72 440.2 646.27 447.49 646.29 454.78 646.19 462.06 646.51 469.36 646.3 476.65 646.33 483.94 646.87 491.23 646.81 498.52 646.68 505.81 646.44 513.1 646.36 520.39 646.36 527.68 646.73 534.97 646.82 542.26 646.16 549.56 646.6 556.85 646.76 564.15 646.41 571.42"/><polygon class="b" points="646.41 571.42 640.92 576.1 635.48 580.87 630.18 585.8 624.68 590.5 619.63 595.7 614.01 600.28 609.1 605.65 603.18 609.89 598.2 615.17 592.35 619.49 587.06 624.43 581.66 629.26 576.18 633.99 571.1 639.17 566.03 644.36 560.47 649 554.9 653.64 549.79 658.79 543.97 663.15 539.08 668.54 533.22 672.85 528.15 678.04 522.93 683.06 517.53 687.89 511.69 692.22 506.24 697 501.22 702.25 495.49 706.71 490.16 711.61 484.58 716.25 479.4 721.64 479.23 714.18 479.06 706.91 479.16 699.65 479.57 692.39 479.27 685.12 479.62 677.86 479.52 670.59 479.24 663.33 479.46 656.06 479.42 648.8 479.74 641.53 479.4 634.27 479.33 627 479.88 619.74 479.02 612.47 479.81 605.2 479.07 597.94 479.86 590.68 479.87 583.42 479.57 576.15 479.47 568.89 479.04 561.63 479.4 554.36 479.84 547.1 479.35 539.83 479.58 532.57 479.89 525.3 479.26 518.04 479.09 510.77 479.15 503.5 479.26 496.24 479.08 488.97 479.62 481.7 479.43 474.43 479.33 467.16 479.66 459.89 479.45 452.63 479.29 445.36 479.39 438.09 479.45 430.82 479.1 423.55 479.54 416.28 479.94 409.01 479.93 401.74 479.52 394.48 485.69 390.8 491.74 386.87 498.16 383.57 504.37 379.91 510.43 376.01 516.63 372.34 522.78 368.58 529.1 365.1 535.02 360.96 541.27 357.38 547.55 353.83 553.48 349.7 559.67 346 565.81 342.23 572.49 339.35 578.59 335.5 584.82 331.88 590.82 327.87 596.72 323.7 603.13 320.37 609.45 316.89 615.57 313.07 621.46 308.86 628.04 305.82 634.32 302.27 640.43 298.42 646.69 294.09 646.31 301.75 646.95 309.04 646.35 316.32 646.09 323.61 646.19 330.9 646.56 338.19 646.55 345.47 646.87 352.76 646.68 360.05 646.54 367.34 645.98 374.62 646.52 381.91 646.77 389.19 646.3 396.48 645.99 403.76 646.7 411.05 646.16 418.34 646.79 425.63 646.66 432.91 646.72 440.2 646.27 447.49 646.29 454.78 646.19 462.06 646.51 469.36 646.3 476.65 646.33 483.94 646.87 491.23 646.81 498.52 646.68 505.81 646.44 513.1 646.36 520.39 646.36 527.68 646.73 534.97 646.82 542.26 646.16 549.56 646.6 556.85 646.76 564.15 646.41 571.42"/><polygon class="a" points="479.44 396.62 472.39 395 465.56 392.81 458.63 390.98 451.57 389.7 444.54 388.32 437.71 386.11 430.75 384.44 423.69 383.13 416.87 380.89 409.89 379.26 402.89 377.76 395.89 376.25 389.01 374.2 381.93 373.03 375.06 370.98 368.18 368.95 361.11 367.71 354.31 365.39 347.35 363.69 340.25 362.6 333.27 361.01 326.33 359.23 319.36 357.61 312.5 355.53 305.52 353.93 298.68 351.77 291.67 350.26 284.76 348.37 277.81 346.63 270.7 345.56 263.76 343.8 256.81 342.08 249.89 340.19 242.82 338.96 236 336.69 228.97 335.26 222.11 333.15 215.04 331.9 208.21 329.7 201.07 328.72 194.32 326.18 187.18 325.22 180.38 322.86 173.31 321.59 166.44 319.54 159.33 318.41 152.44 316.42 158.57 312.63 165.01 309.31 171.18 305.57 177.23 301.6 183.77 298.48 189.57 294.09 195.81 290.45 202.14 286.95 208.63 283.74 214.82 280.01 220.89 276.08 227.09 272.37 233.21 268.53 239.44 264.86 245.69 261.23 252.23 258.1 258.49 254.48 264.32 250.16 270.62 246.61 276.91 243.05 283.15 239.4 289.49 235.91 295.41 231.72 301.73 228.21 308.22 224.99 314.16 220.8 320.56 217.25 327.46 219.48 334.43 221.15 341.35 222.99 348.4 224.31 355.46 225.57 362.36 227.49 369.35 229.06 376.15 231.38 383.21 232.67 390.12 234.56 397.21 235.71 404.02 237.99 410.99 239.68 417.92 241.49 424.88 243.15 431.77 245.15 438.88 246.19 445.9 247.65 452.64 250.23 459.62 251.82 466.76 252.76 473.56 255.08 480.5 256.83 487.6 257.94 494.38 260.38 501.49 261.45 508.47 263.03 515.34 265.09 522.32 266.72 529.24 268.57 536.17 270.37 543.23 271.64 550.06 273.86 557.03 275.54 564 277.18 571.05 278.52 578.08 279.95 584.84 282.46 591.87 283.87 598.72 286 605.9 286.82 612.85 288.57 619.73 290.6 626.77 291.94 633.6 294.2 640.56 295.92 647.7 297.44 641.57 301.5 635.14 304.83 628.89 308.44 622.76 312.26 616.53 315.92 610.42 319.78 604.13 323.34 597.77 326.77 591.32 330.06 585.53 334.46 578.94 337.51 572.78 341.29 566.59 345.02 560.19 348.39 553.93 352 547.97 356.12 541.57 359.51 535.62 363.63 529.09 366.78 523.05 370.77 516.73 374.29 510.47 377.9 504.2 381.5 498.3 385.72 492.04 389.35 485.73 392.89 479.44 396.62"/><polygon class="b" points="479.44 396.62 472.39 395 465.56 392.81 458.63 390.98 451.57 389.7 444.54 388.32 437.71 386.11 430.75 384.44 423.69 383.13 416.87 380.89 409.89 379.26 402.89 377.76 395.89 376.25 389.01 374.2 381.93 373.03 375.06 370.98 368.18 368.95 361.11 367.71 354.31 365.39 347.35 363.69 340.25 362.6 333.27 361.01 326.33 359.23 319.36 357.61 312.5 355.53 305.52 353.93 298.68 351.77 291.67 350.26 284.76 348.37 277.81 346.63 270.7 345.56 263.76 343.8 256.81 342.08 249.89 340.19 242.82 338.96 236 336.69 228.97 335.26 222.11 333.15 215.04 331.9 208.21 329.7 201.07 328.72 194.32 326.18 187.18 325.22 180.38 322.86 173.31 321.59 166.44 319.54 159.33 318.41 152.44 316.42 158.57 312.63 165.01 309.31 171.18 305.57 177.23 301.6 183.77 298.48 189.57 294.09 195.81 290.45 202.14 286.95 208.63 283.74 214.82 280.01 220.89 276.08 227.09 272.37 233.21 268.53 239.44 264.86 245.69 261.23 252.23 258.1 258.49 254.48 264.32 250.16 270.62 246.61 276.91 243.05 283.15 239.4 289.49 235.91 295.41 231.72 301.73 228.21 308.22 224.99 314.16 220.8 320.56 217.25 327.46 219.48 334.43 221.15 341.35 222.99 348.4 224.31 355.46 225.57 362.36 227.49 369.35 229.06 376.15 231.38 383.21 232.67 390.12 234.56 397.21 235.71 404.02 237.99 410.99 239.68 417.92 241.49 424.88 243.15 431.77 245.15 438.88 246.19 445.9 247.65 452.64 250.23 459.62 251.82 466.76 252.76 473.56 255.08 480.5 256.83 487.6 257.94 494.38 260.38 501.49 261.45 508.47 263.03 515.34 265.09 522.32 266.72 529.24 268.57 536.17 270.37 543.23 271.64 550.06 273.86 557.03 275.54 564 277.18 571.05 278.52 578.08 279.95 584.84 282.46 591.87 283.87 598.72 286 605.9 286.82 612.85 288.57 619.73 290.6 626.77 291.94 633.6 294.2 640.56 295.92 647.7 297.44 641.57 301.5 635.14 304.83 628.89 308.44 622.76 312.26 616.53 315.92 610.42 319.78 604.13 323.34 597.77 326.77 591.32 330.06 585.53 334.46 578.94 337.51 572.78 341.29 566.59 345.02 560.19 348.39 553.93 352 547.97 356.12 541.57 359.51 535.62 363.63 529.09 366.78 523.05 370.77 516.73 374.29 510.47 377.9 504.2 381.5 498.3 385.72 492.04 389.35 485.73 392.89 479.44 396.62"/><polyline class="a" points="201.48 355.89 208.54 357.1 215.34 359.34 222.43 360.41 229.3 362.38 236.23 364.07 243.25 365.37 250.05 367.61 256.98 369.35 263.98 370.74 270.82 372.84 277.81 374.32 284.67 376.3 291.75 377.38 298.57 379.55 305.6 380.89 312.45 382.9 319.38 384.62 326.28 386.48 333.34 387.68 340.25 389.47 347.08 391.6 354.11 392.95 361.1 394.4 368.04 396.1 374.98 397.8 381.9 399.53 388.88 401.07 395.74 403.09 402.7 404.68 409.57 406.65 416.44 408.64 423.47 410.03 430.59 411.49 430.04 418.76 430.41 425.91 430.08 433.06 430.32 440.21 430.56 447.35 429.99 454.5 430.19 461.65 430.13 468.8 430.67 475.95 430.17 483.1 430.6 490.25 430.43 497.4 430.89 504.55 430.51 511.7 430.22 518.86 430.36 526.01 430.75 533.16 430.74 540.31 430.27 547.47 429.98 554.62 430.19 561.78 430.88 568.93 430.19 576.09 430.29 583.24 430.17 590.39 430.21 597.54 430.39 604.7 430.36 611.86 430.02 619.01 430.62 626.17 430.82 633.33 430.14 640.11 423.49 638.85 416.66 636.73 409.66 635.32 402.73 633.6 395.84 631.74 388.76 630.64 382.02 628.16 375.02 626.72 368.14 624.85 361.02 623.92 354.29 621.38 347.17 620.45 340.36 618.22 333.27 617.18 326.56 614.56 319.51 613.33 312.64 611.34 305.64 609.92 298.6 608.64 291.67 606.94 284.82 604.87 277.86 603.27 270.83 601.93 264.04 599.65 257.1 597.98 250.05 596.75 243.11 595.03 236.36 592.6 229.27 591.49 222.34 589.76 215.43 587.96 208.39 586.66 201.63 584.2"/><polyline class="b" points="201.48 355.89 208.54 357.1 215.34 359.34 222.43 360.41 229.3 362.38 236.23 364.07 243.25 365.37 250.05 367.61 256.98 369.35 263.98 370.74 270.82 372.84 277.81 374.32 284.67 376.3 291.75 377.38 298.57 379.55 305.6 380.89 312.45 382.9 319.38 384.62 326.28 386.48 333.34 387.68 340.25 389.47 347.08 391.6 354.11 392.95 361.1 394.4 368.04 396.1 374.98 397.8 381.9 399.53 388.88 401.07 395.74 403.09 402.7 404.68 409.57 406.65 416.44 408.64 423.47 410.03 430.59 411.49 430.04 418.76 430.41 425.91 430.08 433.06 430.32 440.21 430.56 447.35 429.99 454.5 430.19 461.65 430.13 468.8 430.67 475.95 430.17 483.1 430.6 490.25 430.43 497.4 430.89 504.55 430.51 511.7 430.22 518.86 430.36 526.01 430.75 533.16 430.74 540.31 430.27 547.47 429.98 554.62 430.19 561.78 430.88 568.93 430.19 576.09 430.29 583.24 430.17 590.39 430.21 597.54 430.39 604.7 430.36 611.86 430.02 619.01 430.62 626.17 430.82 633.33 430.14 640.11 423.49 638.85 416.66 636.73 409.66 635.32 402.73 633.6 395.84 631.74 388.76 630.64 382.02 628.16 375.02 626.72 368.14 624.85 361.02 623.92 354.29 621.38 347.17 620.45 340.36 618.22 333.27 617.18 326.56 614.56 319.51 613.33 312.64 611.34 305.64 609.92 298.6 608.64 291.67 606.94 284.82 604.87 277.86 603.27 270.83 601.93 264.04 599.65 257.1 597.98 250.05 596.75 243.11 595.03 236.36 592.6 229.27 591.49 222.34 589.76 215.43 587.96 208.39 586.66 201.63 584.2"/><polyline class="a" points="203.58 356.45 198.23 361.16 196.06 368.22 193.29 375.1 191.91 382.37 190.85 389.67 189.55 396.94 188.5 404.26 187.9 411.62 187.1 418.97 187.31 426.38 186.58 433.73 185.68 441.08 185.64 448.47 186.03 455.87 185.88 463.25 185.4 470.63 185.83 478.01 185.69 485.4 185.96 492.78 186.21 500.15 186.9 507.51 187.19 514.88 187.9 522.23 188.14 529.62 188.81 536.97 189.93 544.27 190.64 551.63 192.51 558.79 193.86 566.03 195.73 573.16 198.15 580.16 203.58 584.85"/><polyline class="b" points="203.58 356.45 198.23 361.16 196.06 368.22 193.29 375.1 191.91 382.37 190.85 389.67 189.55 396.94 188.5 404.26 187.9 411.62 187.1 418.97 187.31 426.38 186.58 433.73 185.68 441.08 185.64 448.47 186.03 455.87 185.88 463.25 185.4 470.63 185.83 478.01 185.69 485.4 185.96 492.78 186.21 500.15 186.9 507.51 187.19 514.88 187.9 522.23 188.14 529.62 188.81 536.97 189.93 544.27 190.64 551.63 192.51 558.79 193.86 566.03 195.73 573.16 198.15 580.16 203.58 584.85"/><polyline points="430.44 411.78 425.37 416.99 422.41 423.74 420.43 430.85 418.85 438.07 417.73 445.36 416.41 452.63 415.91 460 415.12 467.34 413.97 474.65 413.56 482.02 413.05 489.39 413.31 496.8 413.07 504.18 413.03 511.56 412.39 518.93 412.32 526.32 412.61 533.7 412.85 541.08 412.6 548.47 412.99 555.84 413.21 563.23 414.18 570.56 414.01 577.98 415.25 585.28 415.94 592.62 416.19 600.03 417.54 607.31 418.95 614.56 420.09 621.87 422.79 628.78 425.48 635.59 430.44 640.11"/><polyline class="b" points="430.44 411.78 425.37 416.99 422.41 423.74 420.43 430.85 418.85 438.07 417.73 445.36 416.41 452.63 415.91 460 415.12 467.34 413.97 474.65 413.56 482.02 413.05 489.39 413.31 496.8 413.07 504.18 413.03 511.56 412.39 518.93 412.32 526.32 412.61 533.7 412.85 541.08 412.6 548.47 412.99 555.84 413.21 563.23 414.18 570.56 414.01 577.98 415.25 585.28 415.94 592.62 416.19 600.03 417.54 607.31 418.95 614.56 420.09 621.87 422.79 628.78 425.48 635.59 430.44 640.11"/><polyline class="a" points="511.23 650 510.54 642.8 511.27 635.61 511.16 628.41 511.01 621.22 511.22 614.02 511.03 606.82 510.96 599.63 511.28 592.43 511.34 585.23 511.38 578.03 510.53 570.84 511.4 563.64 510.89 556.44 511.43 549.24 510.83 542.04 510.96 534.84 510.9 527.64 511.01 520.44 511.25 513.24 511.18 506.03 511.16 498.83 511.21 491.63 510.72 484.43 510.91 477.23 511.39 470.03 511.29 462.82 510.7 455.63 511.14 448.42 511.49 441.21 511.26 434"/><polygon class="a" points="517.7 640.3 511.46 645.41 504.97 650.54 505.03 643.26 504.77 636.07 504.89 628.87 504.84 621.68 505.17 614.48 504.6 607.28 504.53 600.09 504.82 592.89 504.98 585.69 505.22 578.49 505.26 571.29 504.99 564.1 504.62 556.9 505.22 549.7 504.67 542.5 504.68 535.3 505.15 528.1 505.39 520.9 504.88 513.7 504.83 506.49 505.38 499.29 504.94 492.09 504.75 484.89 505.31 477.69 505.19 470.49 504.64 463.29 504.69 456.09 505.47 448.88 505.48 441.67 504.82 434.36 511.63 429.63 518.1 424.17 518.05 431.66 518.12 438.85 517.89 446.05 517.62 453.24 517.91 460.44 518.28 467.64 517.58 474.83 517.85 482.03 517.67 489.23 518.06 496.43 518.24 503.63 518.34 510.82 518.13 518.02 518.33 525.22 517.56 532.42 518.18 539.62 517.88 546.82 517.71 554.02 517.95 561.23 518.22 568.43 517.79 575.63 518 582.83 518.48 590.03 518.43 597.23 518.39 604.43 517.84 611.63 518.28 618.83 518.35 626.04 517.74 633.24 517.7 640.3"/><polyline class="a" points="545.86 617 546.49 609.72 546.23 602.44 545.7 595.16 545.58 587.88 545.91 580.59 545.89 573.31 546.4 566.03 546.32 558.74 545.75 551.46 546.28 544.18 545.99 536.89 545.98 529.61 545.94 522.32 546.13 515.04 545.53 507.75 545.83 500.46 545.97 493.18 545.96 485.89 546.46 478.6 545.9 471.32 545.69 464.03 546.23 456.74 545.6 449.46 545.81 442.17 546.29 434.88 546.39 427.59 545.64 420.29 545.67 413"/><polygon class="a" points="552.77 607.34 546.34 612.26 540.12 617.11 539.63 610.18 540.37 602.9 539.58 595.62 539.85 588.34 540.01 581.05 540.37 573.77 539.74 566.49 540.07 559.2 540.16 551.92 539.9 544.64 540.46 537.35 539.7 530.07 539.66 522.78 539.85 515.5 539.6 508.21 540 500.92 540 493.64 540.2 486.35 539.82 479.06 539.54 471.78 540.28 464.49 539.92 457.2 540.07 449.92 540.18 442.63 540 435.34 539.88 428.05 540.39 420.75 540.43 413.69 546.24 408.13 552.94 403.62 553.26 410.74 553.05 418.02 553.23 425.3 552.81 432.58 553.36 439.87 552.63 447.15 553.42 454.43 552.72 461.72 552.73 469 553.4 476.28 552.85 483.57 553.39 490.85 552.9 498.14 552.68 505.43 552.86 512.71 553.14 520 552.73 527.28 552.73 534.57 552.62 541.86 553.22 549.14 552.58 556.43 553.45 563.72 552.61 571 553.04 578.29 553.22 585.58 552.74 592.87 552.72 600.16 552.77 607.34"/><polyline class="a" points="581.61 584 581.86 576.89 581.71 569.78 581.89 562.68 581.52 555.57 581.97 548.46 581.73 541.36 582.04 534.25 582.11 527.14 582.31 520.03 581.56 512.92 582.16 505.81 581.91 498.7 581.57 491.59 581.54 484.47 582.43 477.36 582.01 470.25 582.31 463.14 581.68 456.03 582.34 448.92 581.64 441.81 582.31 434.69 582.43 427.58 582.11 420.47 582.49 413.36 582.46 406.24 581.79 399.12 582.46 392"/><polygon class="a" points="589.36 574.66 582.21 579.09 575.89 584.79 575.54 577.35 576.16 570.24 576.43 563.14 575.81 556.03 575.99 548.92 575.65 541.82 575.89 534.71 575.93 527.6 575.63 520.49 576.23 513.38 576.18 506.27 575.84 499.16 576.37 492.05 576.36 484.93 575.94 477.82 575.95 470.71 575.93 463.6 576.49 456.49 575.82 449.38 575.51 442.26 575.54 435.15 576.11 428.04 575.89 420.93 575.63 413.82 576.37 406.7 575.71 399.58 576.16 392.55 582.8 387.86 589.1 382.16 588.98 389.57 588.91 396.68 589.42 403.78 589.48 410.89 588.92 418 588.85 425.11 589.43 432.21 589.18 439.32 589.47 446.43 589.2 453.54 589.23 460.65 589.35 467.76 589.3 474.87 589.24 481.99 589.39 489.1 589.34 496.21 589.19 503.32 589.49 510.44 588.93 517.54 588.75 524.65 589.06 531.77 589.35 538.88 589.38 545.99 589.26 553.1 588.94 560.22 589.46 567.33 589.36 574.66"/><polyline class="a" points="617.08 551 616.58 543.81 617.32 536.61 616.85 529.41 616.64 522.22 616.53 515.02 616.6 507.82 616.56 500.62 616.8 493.43 616.81 486.23 617.34 479.03 616.96 471.83 617.46 464.63 617.24 457.43 616.69 450.23 616.96 443.03 616.64 435.82 617.14 428.63 616.84 421.43 616.94 414.23 617.14 407.02 616.58 399.82 617.29 392.62 617.16 385.42 616.53 378.21 616.68 371"/><polygon class="a" points="624.27 541.6 617.3 546.2 611.13 551.07 610.74 544.27 610.68 537.07 610.91 529.87 610.9 522.68 610.99 515.48 610.76 508.28 611.27 501.08 611.22 493.89 610.99 486.69 610.62 479.49 611.08 472.29 611.04 465.09 611.24 457.89 611.21 450.69 611.05 443.49 610.71 436.28 610.79 429.09 611.19 421.89 610.98 414.69 611.32 407.49 611.2 400.28 611.21 393.08 610.69 385.88 611.08 378.67 611.18 371.56 617.39 366.32 623.93 361.67 623.6 368.65 623.57 375.85 623.78 383.05 624 390.24 624.14 397.44 624.47 404.64 624.48 411.84 623.57 419.04 623.77 426.24 623.93 433.43 624.19 440.63 624.25 447.83 624.21 455.03 624.43 462.23 624.37 469.44 623.53 476.64 623.67 483.83 624.14 491.03 623.71 498.24 623.83 505.44 624.4 512.64 623.59 519.84 623.58 527.04 623.79 534.25 624.27 541.6"/><polygon class="b" points="218.4 623.52 215.08 631.09 206.85 631.34 201.21 627.99 197.25 622.77 195.44 616.48 198.6 609.01 206.86 608.32 212.53 611.86 216.86 616.98 218.4 623.52"/><polygon class="b" points="259.39 634.54 255.58 641.45 247.84 642.24 241.91 639.3 237.58 634.11 236.04 627.51 239.84 620.49 247.78 619.43 253.84 622.48 257.95 627.93 259.39 634.54"/><polygon points="409.7 282.62 419.48 282.12 421.49 277.09 424.89 275.36 427.93 276.7 433.95 279.16 437.69 284.52 440.6 290.01 446.94 292.37 453.72 293.19 453.72 292.66 452.84 285 449.74 277.88 444.42 272.3 439.02 266.78 431.77 264.11 425.56 263.25 419.37 263.93 413.44 266.23 408.02 273.31 406.1 282.08 409.7 282.62"/><polyline class="a" points="403.84 318.63 410.4 314.93 416.79 310.94 423.47 307.44 429.62 303.05 436.44 299.78 443.01 296.07 449.21 291.74"/><polygon points="407.2 324.69 400.47 322.85 394.04 320.96 399.48 316.73 405.71 313.54 411.52 309.71 417.24 305.74 422.88 301.64 428.6 297.68 434.81 294.44 440.51 290.69 447.16 291.46 453.84 293.5 447.96 297.53 441.84 300.91 436.34 305.23 430.51 309.04 424.76 312.97 418.83 316.65 412.81 320.2 407.2 324.69"/><polyline class="a" points="370 310.52 376.23 306.26 382.69 302.4 389.41 298.96 395.67 294.75 402.34 291.23 409 287.69 415.22 283.39"/><polygon points="373.16 315.96 366.39 314.44 359.99 312.62 365.47 308.8 371.4 305.14 377.03 301.04 383.19 297.75 388.81 293.62 394.82 290.09 400.63 286.24 406.18 281.97 412.9 283.63 419.14 285.34 413.73 288.98 408.14 293.14 401.98 296.43 396.46 300.7 390.38 304.11 384.89 308.42 378.92 312.01 373.16 315.96"/><polygon class="a" points="428.08 276.2 424.89 276.18 421.09 276.56 418.73 272.12 419.49 275.08 412.81 278.46 406.19 282.01 399.86 285.78 393.75 289.97 387.39 293.74 380.75 297.06 374.83 300.92 381.41 304.67 388.12 308.44 394.71 312.46 401.61 316.4 406.95 311.86 412.68 308.34 417.81 303.96 423.31 300.11 428.95 296.44 434.53 292.68 440.16 288.96 437.27 283.64 433.56 278.85 428.08 276.2"/><polygon points="373.08 316.19 372.26 312.78 374.56 307.19 378.39 306.71 381.59 306.82 387.15 310.19 391.42 315.04 393.87 321.12 400.57 322.48 407.08 324.6 407.07 323.33 406.33 315.66 403.13 308.61 397.87 303.01 392.12 298.08 385.19 295.05 379.07 293.55 372.7 294.02 367.13 297.13 361.26 303.86 359.9 312.36 366.45 314.1 373.08 316.19"/><polyline class="a" points="369.99 302.93 376.24 299.86 381.98 296.02 387.51 291.86 393.26 288.03 398.87 283.99 404.73 280.33 410.75 276.91 416.48 273.03 422.46 269.54"/><polygon points="373.87 308.26 371.05 302.52 367.98 296.75 373.54 292.77 379.42 288.92 385.15 284.84 391.04 281.02 397.04 277.36 402.9 273.46 408.77 269.58 414.67 265.96 420.51 269.88 426.26 274.66 420.01 278.4 414.29 282.29 408.22 285.62 402.93 290.16 396.97 293.67 391.14 297.36 385.34 301.12 379.69 305.13 373.87 308.26"/><polyline class="a" points="526.17 124.58 521.74 130.14 517.56 135.89 514.27 142.25 509.83 147.81 506.15 153.89 501.89 159.58 497.45 165.14 493.86 171.3 489.96 177.24 485.6 182.85 481.82 188.87 477.14 194.27 473.26 200.22 469.55 206.29 465.27 211.97 461.46 217.97 457.15 223.63 453.46 229.72 448.9 235.19 445.26 241.31 440.81 246.88 437.47 253.2 432.87 258.66 429.33 264.85 425.27 270.68 420.9 276.31 416.62 281.99 412.81 287.99 412.53 280.78 412.23 273.56 411.64 266.35 411.54 259.11 410.98 251.9 410.69 244.67 410.13 237.46 409.47 230.25 409.65 223 408.85 215.8 408.54 208.57 408.76 201.32 408.38 194.09 408.17 186.86 407.19 179.67 406.72 172.45 406.67 165.21 406.4 157.97 405.95 150.75 405.72 143.52 404.83 136.32 405.34 129.05 405.02 121.82 404.06 114.62 403.38 107.41 403.92 100.14 403.13 92.93 402.85 85.69 402.88 78.44"/><polyline class="b" points="526.17 124.58 521.74 130.14 517.56 135.89 514.27 142.25 509.83 147.81 506.15 153.89 501.89 159.58 497.45 165.14 493.86 171.3 489.96 177.24 485.6 182.85 481.82 188.87 477.14 194.27 473.26 200.22 469.55 206.29 465.27 211.97 461.46 217.97 457.15 223.63 453.46 229.72 448.9 235.19 445.26 241.31 440.81 246.88 437.47 253.2 432.87 258.66 429.33 264.85 425.27 270.68 420.9 276.31 416.62 281.99 412.81 287.99 412.53 280.78 412.23 273.56 411.64 266.35 411.54 259.11 410.98 251.9 410.69 244.67 410.13 237.46 409.47 230.25 409.65 223 408.85 215.8 408.54 208.57 408.76 201.32 408.38 194.09 408.17 186.86 407.19 179.67 406.72 172.45 406.67 165.21 406.4 157.97 405.95 150.75 405.72 143.52 404.83 136.32 405.34 129.05 405.02 121.82 404.06 114.62 403.38 107.41 403.92 100.14 403.13 92.93 402.85 85.69 402.88 78.44"/><polyline class="a" points="188.41 485.1 194.51 488.5 200.14 492.62 205.38 497.23 211.27 501.02 216.28 505.93 221.94 510 227.9 513.61 233.87 517.18 239.91 520.73 246.63 522.73 253.41 524.59 260.2 526.43 266.92 528.49 273.64 530.64 280.63 531.61 287.68 531.32 294.62 530.51 301.63 529.72 308.37 527.67 315.4 527.58 322.41 527.87 328.99 530.33 335 533.96 340.52 538.31 345.72 543.03 351.02 547.64 356.72 551.61 362.52 555.4 368.55 558.84 374.85 561.75 381.62 563.43 387.91 566.42 394.68 567.96 401.25 570.11 407.92 572 414.54 573.99"/><polyline class="b" points="188.41 485.1 194.51 488.5 200.14 492.62 205.38 497.23 211.27 501.02 216.28 505.93 221.94 510 227.9 513.61 233.87 517.18 239.91 520.73 246.63 522.73 253.41 524.59 260.2 526.43 266.92 528.49 273.64 530.64 280.63 531.61 287.68 531.32 294.62 530.51 301.63 529.72 308.37 527.67 315.4 527.58 322.41 527.87 328.99 530.33 335 533.96 340.52 538.31 345.72 543.03 351.02 547.64 356.72 551.61 362.52 555.4 368.55 558.84 374.85 561.75 381.62 563.43 387.91 566.42 394.68 567.96 401.25 570.11 407.92 572 414.54 573.99"/><polyline class="a" points="188.41 435.1 194.67 438.27 200.23 442.5 205.27 447.37 211.14 451.19 216.44 455.71 222.27 459.54 227.72 463.9 233.77 467.36 239.92 470.71 246.52 473.09 253.52 474.26 259.95 477.26 266.86 478.74 273.63 480.67 280.67 481.13 287.69 481.81 294.67 480.83 301.45 479.03 308.36 477.56 315.4 476.89 322.43 477.78 329 480.33 334.84 484.2 340.35 488.52 345.77 492.96 351.44 497.14 356.69 501.66 362.49 505.46 368.48 508.98 375.17 510.98 381.28 514.36 388.15 515.65 394.65 518.06 401.25 520.11 407.93 521.93 414.59 523.85"/><polyline class="b" points="188.41 435.1 194.67 438.27 200.23 442.5 205.27 447.37 211.14 451.19 216.44 455.71 222.27 459.54 227.72 463.9 233.77 467.36 239.92 470.71 246.52 473.09 253.52 474.26 259.95 477.26 266.86 478.74 273.63 480.67 280.67 481.13 287.69 481.81 294.67 480.83 301.45 479.03 308.36 477.56 315.4 476.89 322.43 477.78 329 480.33 334.84 484.2 340.35 488.52 345.77 492.96 351.44 497.14 356.69 501.66 362.49 505.46 368.48 508.98 375.17 510.98 381.28 514.36 388.15 515.65 394.65 518.06 401.25 520.11 407.93 521.93 414.59 523.85"/><polyline class="b" points="188.51 444.49 194.13 448.65 200 452.44 205 457.36 210.96 461.07 215.97 465.96 221.89 469.69 227.42 473.94 233.51 477.35 239.73 480.54 246.42 482.56 253.08 484.84 259.9 486.6 266.68 488.42 273.54 489.83 280.44 490.94 287.44 491.48 294.4 490.61 301.19 488.9 308.13 487.61 315.16 487.38 322.07 488.23 328.92 489.96 334.66 494.06 339.98 498.64 345.48 502.98 350.82 507.56 356.56 511.45 362.24 515.42 368.66 518.07 374.64 521.63 381.06 524.25 387.85 525.8 394.26 528.52 401.06 529.9 407.62 532.13 414.43 533.53"/><polyline class="b" points="188.7 425.2 194.61 428.87 200.35 432.81 205.92 437 211.07 441.72 217.06 445.37 222.48 449.74 228.27 453.58 234.09 457.43 240.62 459.87 247 462.66 253.75 464.64 260.5 466.6 267.09 469.15 274.02 470.46 281.02 471.09 288.03 471.84 295.05 471.1 301.81 469.12 308.81 468.26 315.74 467.44 322.78 467.74 329.31 470.4 335.07 474.37 340.61 478.64 346.42 482.63 351.68 487.28 357.26 491.35 363.03 495.13 369.1 498.44 375.38 501.31 381.68 504.22 388.21 506.57 394.89 508.42 401.54 510.32 408.25 512.05 414.91 513.92"/><polyline class="b" points="188.69 415.14 194.63 418.76 200.27 422.85 205.58 427.36 211.22 431.47 216.91 435.5 222.07 440.24 228.19 443.63 233.99 447.52 240.56 449.89 246.97 452.56 253.74 454.51 260.29 457.15 267.15 458.73 274.02 460.18 280.97 461.14 287.97 461.32 294.95 460.78 301.76 459.13 308.72 458 315.69 456.89 322.68 457.98 329.36 460.19 334.96 464.45 341.06 468.03 346.32 472.68 351.74 477.15 357.32 481.18 362.93 485.22 369.01 488.51 375.48 490.96 381.91 493.44 388.42 495.75 395.03 497.76 401.66 499.74 408.07 502.47 414.75 504.27"/></svg>