<svg xmlns="http://www.w3.org/2000/svg" viewBox="0 0 800 800"><defs><style>.a{fill:#fff;}.b{fill:none;stroke:#000;stroke-linejoin:bevel;stroke-width:13px;}</style></defs><title>canvas (43)</title><polyline class="a" points="706.62 204 706.16 211.18 706.3 218.36 706.02 225.54 706.85 232.73 706.87 239.91 706.01 247.09 706.74 254.28 706.57 261.46 706.61 268.64 706.89 275.83 706.58 283.01 707.01 290.19 706.32 297.38 706.07 304.56 706.34 311.75 706.73 318.93 706.8 326.12 706.51 333.31 706.85 340.85 699.29 340.63 692.08 340.64 684.87 341.01 677.66 340.8 670.44 340.95 663.22 340.58 656 341.08"/><polyline class="b" points="706.62 204 706.16 211.18 706.3 218.36 706.02 225.54 706.85 232.73 706.87 239.91 706.01 247.09 706.74 254.28 706.57 261.46 706.61 268.64 706.89 275.83 706.58 283.01 707.01 290.19 706.32 297.38 706.07 304.56 706.34 311.75 706.73 318.93 706.8 326.12 706.51 333.31 706.85 340.85 699.29 340.63 692.08 340.64 684.87 341.01 677.66 340.8 670.44 340.95 663.22 340.58 656 341.08"/><polyline class="a" points="440.61 434.18 447.79 433.85 454.96 434.57 462.14 434.69 469.31 434.71 476.49 434.32 483.66 434.16 490.83 433.76 498 433.64 505.18 434.39 512.35 434.26 519.52 434.26 526.7 433.78 533.87 434.41 541.05 434.67 548.22 434.12 555.4 434.54 562.57 434.51 569.75 434.07 576.92 434.67 584.1 433.94 591.28 434.36 598.46 433.89 605.64 434.2 612.81 434.48 619.99 434.22 627.17 434.12 634.35 434.8 641.52 434.3 648.7 434.55 655.88 434.77 663.06 434.05 670.24 433.82 677.43 434.43 684.61 434.24"/><polyline class="b" points="440.61 434.18 447.79 433.85 454.96 434.57 462.14 434.69 469.31 434.71 476.49 434.32 483.66 434.16 490.83 433.76 498 433.64 505.18 434.39 512.35 434.26 519.52 434.26 526.7 433.78 533.87 434.41 541.05 434.67 548.22 434.12 555.4 434.54 562.57 434.51 569.75 434.07 576.92 434.67 584.1 433.94 591.28 434.36 598.46 433.89 605.64 434.2 612.81 434.48 619.99 434.22 627.17 434.12 634.35 434.8 641.52 434.3 648.7 434.55 655.88 434.77 663.06 434.05 670.24 433.82 677.43 434.43 684.61 434.24"/><polyline class="b" points="442.42 433.48 441.66 433.96 434.75 436.13 427.87 438.37 420.63 439.45 413.83 441.96 406.85 443.89 400.02 446.31 393.16 448.63 386.21 450.65 379.37 453.03 372.24 454.49 365.51 457.24 358.33 458.52 351.61 461.3 344.7 463.46 337.75 465.49 330.74 467.29 323.95 469.84 317.05 472.01 309.93 473.49 303.19 476.2 296.04 477.55 289.29 480.25 282.29 482.12 275.36 484.19 268.61 486.88 261.63 488.82 254.74 491.05 247.86 493.3 240.78 494.92 233.84 496.98 226.84 498.84 220.02 501.31 213.09 503.4 206.05 505.17 199.41 508.2 192.45 510.22 185.5 512.25 178.65 514.63 171.54 516.15 164.57 518.11 157.65 520.24 150.78 522.56 143.76 524.4 136.87 526.66 130.09 529.45 123.06 531.55 116.74 535.28 110.12 538.43 104.54 543.19 98.91 547.78 93.34 552.56 89.52 558.82 85.11 564.73 82.33 571.56 81.56 578.9 80.76 586.08 80.08 593.4"/><polyline class="b" points="715.59 459.88 711.62 453.73 707.2 447.84 701.24 443.5 695.01 439.76 688.76 435.98 681.71 434.07 674.6 432.63 667.38 431.95 660.12 431.61 652.8 431.67 645.65 433.23 638.49 434.63 631.29 436.02 630.69 437.06 623.72 439.01 616.71 440.84 609.63 442.46 602.7 444.53 596.06 447.57 589.14 449.69 582.12 451.49 575.15 453.46 568.15 455.33 561.34 457.81 554.55 460.37 547.56 462.25 540.49 463.88 533.55 465.96 526.69 468.3 519.69 470.13 512.91 472.69 506.02 474.92 499.03 476.81 492.02 478.62 485.36 481.62 478.37 483.5 471.5 485.77 464.6 488 457.45 489.36 450.51 491.42 443.77 494.14 436.8 496.1 429.87 498.2 422.84 499.97 415.97 502.29 408.98 504.18 402.28 507.03 395.13 508.43 388.29 510.83 381.45 513.21 374.61 515.6 367.63 517.55 360.69 519.64 353.52 520.97 346.63 523.19 339.74 525.43 332.86 527.71 325.87 529.66 318.98 532.13 312.11 534.66 305.71 538.23 298.95 541.15 293.15 545.68 287.76 550.62 282.46 555.66 278.22 561.63 274.4 567.87 272.17 574.84 269.47 581.7 268.65 589.03 269.44 596.16"/><polyline class="b" points="337.57 483 337.41 490.33 337.5 497.66 337.5 505 337.7 512.33 337.69 519.66 337.39 527"/><polyline class="b" points="560.11 415 560.96 422.16 559.97 429.33 560.5 436.49 560.91 443.66 560.5 450.83 560.05 458"/><polyline class="a" points="89.11 557.42 96.29 557.9 103.48 557.9 110.66 557.12 117.84 557.71 125.02 558.04 132.2 557.95 139.39 557.9 146.57 557.49 153.75 557.46 160.94 557.26 168.12 557.37 175.3 557.32 182.49 557.86 189.68 557.66 196.86 557.2 204.05 557.73 211.23 557.66 218.42 557.29 225.6 558.22 232.79 557.82 239.97 558.12 247.16 557.16 254.35 557.38 261.53 557.85 268.72 558.13 275.92 557.11 283.11 557.18"/><polyline class="b" points="89.11 557.42 96.29 557.9 103.48 557.9 110.66 557.12 117.84 557.71 125.02 558.04 132.2 557.95 139.39 557.9 146.57 557.49 153.75 557.46 160.94 557.26 168.12 557.37 175.3 557.32 182.49 557.86 189.68 557.66 196.86 557.2 204.05 557.73 211.23 557.66 218.42 557.29 225.6 558.22 232.79 557.82 239.97 558.12 247.16 557.16 254.35 557.38 261.53 557.85 268.72 558.13 275.92 557.11 283.11 557.18"/><polygon class="a" points="628.02 394.58 620.2 394.42 612.95 394.27 605.7 394.94 598.46 394.54 591.21 395.13 583.97 394.9 576.72 394.23 569.47 394.15 562.22 395.13 554.97 395.17 547.73 394.11 540.48 394.37 533.23 394.18 525.98 394.62 518.73 394.88 511.47 394.77 504.22 394.35 496.97 394.53 489.72 394.7 482.47 395.22 475.22 394.67 467.97 394.31 460.72 395.08 453.47 394.74 446.21 394.35 438.96 394.51 431.7 394.67 424.52 395.22 417.53 396.81 410.5 398.52 403.57 400.59 396.6 402.53 389.78 404.96 382.89 407.16 376.04 409.48 369.06 411.39 362.24 413.81 355.11 415.22 348.15 417.22 341.42 419.93 334.32 421.44 327.54 424 320.62 426.11 313.69 428.18 306.82 430.44 299.97 432.77 292.77 433.97 286.15 437.05 278.99 438.37 272.21 440.93 265.36 443.28 258.49 445.54 251.25 446.57 244.66 449.73 237.7 451.71 230.64 453.35 223.73 455.48 216.94 458.02 209.81 459.4 202.86 461.41 196.03 463.8 189.02 465.62 182.07 467.62 175.29 470.22 168.21 471.77 161.39 474.22 154.59 476.73 147.4 477.97 140.62 480.51 133.57 482.22 126.74 484.64 119.71 486.37 112.96 489.04 105.97 490.95 99.15 493.37 92.17 495.31 85.08 496.83 78.21 499.15 71.21 501.02 64.44 503.67 71.68 503.77 78.93 503.76 86.18 503.87 93.42 503.52 100.67 503.2 107.92 503.38 115.16 503.1 122.41 503.59 129.66 503.5 136.91 503.16 144.16 503.6 151.41 503.22 158.66 503.49 165.91 503.5 173.16 503.6 180.41 504.05 187.66 503.82 194.91 503.59 202.16 503.79 209.41 503.77 216.66 503.96 223.91 503.82 231.16 503.84 238.42 504.17 245.67 503.69 252.93 503.14 260.18 503.39 267.36 503.14 274.28 501.28 281.27 499.44 288.19 497.32 295.16 495.39 301.97 492.94 309.05 491.35 315.9 489.03 322.67 486.45 329.65 484.55 336.6 482.52 343.43 480.13 350.52 478.61 357.42 476.44 364.39 474.48 371.32 472.42 378.1 469.84 385.13 468.12 392.13 466.26 398.98 463.94 405.93 461.92 412.88 459.94 419.71 457.52 426.72 455.71 433.58 453.44 440.49 451.31 447.35 449.03 454.33 447.13 461.29 445.13 468.16 442.88 474.99 440.47 481.98 438.61 488.82 436.24 495.99 434.96 502.79 432.45 509.61 430.03 516.55 428 523.54 426.13 530.63 424.56 537.42 422.01 544.34 419.91 551.32 418 558.07 415.31 565 413.22 571.92 411.14 578.98 409.47 585.86 407.22 592.85 405.36 599.82 403.37 606.78 401.41 613.55 398.79 620.35 396.25 628.02 394.58"/><polygon class="b" points="628.02 394.58 620.2 394.42 612.95 394.27 605.7 394.94 598.46 394.54 591.21 395.13 583.97 394.9 576.72 394.23 569.47 394.15 562.22 395.13 554.97 395.17 547.73 394.11 540.48 394.37 533.23 394.18 525.98 394.62 518.73 394.88 511.47 394.77 504.22 394.35 496.97 394.53 489.72 394.7 482.47 395.22 475.22 394.67 467.97 394.31 460.72 395.08 453.47 394.74 446.21 394.35 438.96 394.51 431.7 394.67 424.52 395.22 417.53 396.81 410.5 398.52 403.57 400.59 396.6 402.53 389.78 404.96 382.89 407.16 376.04 409.48 369.06 411.39 362.24 413.81 355.11 415.22 348.15 417.22 341.42 419.93 334.32 421.44 327.54 424 320.62 426.11 313.69 428.18 306.82 430.44 299.97 432.77 292.77 433.97 286.15 437.05 278.99 438.37 272.21 440.93 265.36 443.28 258.49 445.54 251.25 446.57 244.66 449.73 237.7 451.71 230.64 453.35 223.73 455.48 216.94 458.02 209.81 459.4 202.86 461.41 196.03 463.8 189.02 465.62 182.07 467.62 175.29 470.22 168.21 471.77 161.39 474.22 154.59 476.73 147.4 477.97 140.62 480.51 133.57 482.22 126.74 484.64 119.71 486.37 112.96 489.04 105.97 490.95 99.15 493.37 92.17 495.31 85.08 496.83 78.21 499.15 71.21 501.02 64.44 503.67 71.68 503.77 78.93 503.76 86.18 503.87 93.42 503.52 100.67 503.2 107.92 503.38 115.16 503.1 122.41 503.59 129.66 503.5 136.91 503.16 144.16 503.6 151.41 503.22 158.66 503.49 165.91 503.5 173.16 503.6 180.41 504.05 187.66 503.82 194.91 503.59 202.16 503.79 209.41 503.77 216.66 503.96 223.91 503.82 231.16 503.84 238.42 504.17 245.67 503.69 252.93 503.14 260.18 503.39 267.36 503.14 274.28 501.28 281.27 499.44 288.19 497.32 295.16 495.39 301.97 492.94 309.05 491.35 315.9 489.03 322.67 486.45 329.65 484.55 336.6 482.52 343.43 480.13 350.52 478.61 357.42 476.44 364.39 474.48 371.32 472.42 378.1 469.84 385.13 468.12 392.13 466.26 398.98 463.94 405.93 461.92 412.88 459.94 419.71 457.52 426.72 455.71 433.58 453.44 440.49 451.31 447.35 449.03 454.33 447.13 461.29 445.13 468.16 442.88 474.99 440.47 481.98 438.61 488.82 436.24 495.99 434.96 502.79 432.45 509.61 430.03 516.55 428 523.54 426.13 530.63 424.56 537.42 422.01 544.34 419.91 551.32 418 558.07 415.31 565 413.22 571.92 411.14 578.98 409.47 585.86 407.22 592.85 405.36 599.82 403.37 606.78 401.41 613.55 398.79 620.35 396.25 628.02 394.58"/><polygon class="a" points="735.68 225.6 728.32 225.42 721.07 225.74 713.82 225.57 706.58 226.03 699.33 226.07 692.08 225.12 684.84 225.85 677.59 225.94 670.34 226.19 663.09 225.88 655.84 226.15 648.59 226.13 641.35 225.31 634.09 226.18 626.84 225.41 619.59 225.39 612.34 225.31 605.09 226.21 597.84 225.8 590.59 225.13 583.34 225.75 576.09 225.73 568.84 226.26 561.58 226.23 554.33 225.9 547.08 225.97 539.82 225.47 532.67 225.88 528.25 231.45 525.12 238 521.13 243.99 516.72 249.7 513.36 256.11 509.05 261.89 504.72 267.66 501.25 273.99 496.8 279.69 493.62 286.21 489.17 291.9 485.19 297.9 481.09 303.83 477.8 310.28 473.37 316 469.45 322.04 466.19 328.5 462.31 334.57 458.24 340.51 454.08 346.39 450.03 352.36 446.28 358.51 441.98 364.31 437.95 370.28 434.72 376.77 430.73 382.77 425.99 388.3 422.38 394.76 429.8 394.79 437.05 394.43 444.3 394.63 451.54 394.56 458.79 394.66 466.04 394.12 473.28 394.5 480.53 394.34 487.78 395.25 495.03 394.45 502.27 394.62 509.52 395.26 516.77 394.64 524.02 394.79 531.27 395.24 538.53 394.63 545.78 394.76 553.03 395.19 560.28 394.82 567.53 394.1 574.78 394.83 582.03 394.17 589.28 395.08 596.53 395.26 603.79 394.49 611.04 394.65 618.3 394.59 625.82 395.15 629.55 388.68 633.23 382.49 637.4 376.61 640.91 370.31 645.57 364.75 649.03 358.42 652.87 352.32 656.68 346.22 660.47 340.09 664.37 334.04 669.17 328.57 672.65 322.24 676.24 315.99 680.64 310.26 684.48 304.17 687.93 297.82 692.52 292.21 695.86 285.79 700.61 280.3 704.5 274.24 708.3 268.12 711.91 261.87 715.63 255.69 719.52 249.63 723.9 243.89 727.68 237.75 731.37 231.54 735.68 225.6"/><polygon class="b" points="735.68 225.6 728.32 225.42 721.07 225.74 713.82 225.57 706.58 226.03 699.33 226.07 692.08 225.12 684.84 225.85 677.59 225.94 670.34 226.19 663.09 225.88 655.84 226.15 648.59 226.13 641.35 225.31 634.09 226.18 626.84 225.41 619.59 225.39 612.34 225.31 605.09 226.21 597.84 225.8 590.59 225.13 583.34 225.75 576.09 225.73 568.84 226.26 561.58 226.23 554.33 225.9 547.08 225.97 539.82 225.47 532.67 225.88 528.25 231.45 525.12 238 521.13 243.99 516.72 249.7 513.36 256.11 509.05 261.89 504.72 267.66 501.25 273.99 496.8 279.69 493.62 286.21 489.17 291.9 485.19 297.9 481.09 303.83 477.8 310.28 473.37 316 469.45 322.04 466.19 328.5 462.31 334.57 458.24 340.51 454.08 346.39 450.03 352.36 446.28 358.51 441.98 364.31 437.95 370.28 434.72 376.77 430.73 382.77 425.99 388.3 422.38 394.76 429.8 394.79 437.05 394.43 444.3 394.63 451.54 394.56 458.79 394.66 466.04 394.12 473.28 394.5 480.53 394.34 487.78 395.25 495.03 394.45 502.27 394.62 509.52 395.26 516.77 394.64 524.02 394.79 531.27 395.24 538.53 394.63 545.78 394.76 553.03 395.19 560.28 394.82 567.53 394.1 574.78 394.83 582.03 394.17 589.28 395.08 596.53 395.26 603.79 394.49 611.04 394.65 618.3 394.59 625.82 395.15 629.55 388.68 633.23 382.49 637.4 376.61 640.91 370.31 645.57 364.75 649.03 358.42 652.87 352.32 656.68 346.22 660.47 340.09 664.37 334.04 669.17 328.57 672.65 322.24 676.24 315.99 680.64 310.26 684.48 304.17 687.93 297.82 692.52 292.21 695.86 285.79 700.61 280.3 704.5 274.24 708.3 268.12 711.91 261.87 715.63 255.69 719.52 249.63 723.9 243.89 727.68 237.75 731.37 231.54 735.68 225.6"/><polygon class="a" points="708.98 209.61 701.47 210.2 694.09 209.94 686.7 209.42 679.31 209.25 671.93 210.2 664.54 209.47 657.15 209.79 649.76 209.83 642.37 210.13 634.99 209.95 627.6 210.05 620.21 209.16 612.82 209.91 605.43 209.52 598.04 210.03 590.65 209.38 583.25 209.24 576.01 209.97 572.26 215.75 568.65 221.81 564.8 227.72 560.51 233.35 556.7 239.28 553.48 245.6 548.77 250.96 545.36 257.15 541.46 263.03 537.52 268.88 534.17 275.12 530.63 281.23 526.85 287.18 522.65 292.87 518.78 298.76 514.88 304.64 511.42 310.81 507.85 316.9 504.07 322.86 500.18 328.75 496.23 334.61 492.29 340.36 499.58 340.51 506.96 340.93 514.35 340.91 521.74 340.32 529.13 340.83 536.51 340.74 543.9 340.99 551.29 339.86 558.68 340.78 566.06 340.31 573.45 340.86 580.84 340.79 588.23 340.37 595.62 340.13 603.01 339.84 610.4 340.48 617.8 340.92 625.28 340.58 628.85 334.39 632.54 328.38 636.67 322.64 639.95 316.37 644.34 310.81 647.79 304.64 651.52 298.66 655.92 293.09 659.85 287.24 663.19 280.99 666.64 274.83 671.1 269.3 674.38 263.03 678.7 257.43 682.29 251.34 686 245.34 689.83 239.41 693.47 233.37 696.97 227.23 701.75 221.91 705.19 215.72 708.98 209.61"/><polygon class="b" points="708.98 209.61 701.47 210.2 694.09 209.94 686.7 209.42 679.31 209.25 671.93 210.2 664.54 209.47 657.15 209.79 649.76 209.83 642.37 210.13 634.99 209.95 627.6 210.05 620.21 209.16 612.82 209.91 605.43 209.52 598.04 210.03 590.65 209.38 583.25 209.24 576.01 209.97 572.26 215.75 568.65 221.81 564.8 227.72 560.51 233.35 556.7 239.28 553.48 245.6 548.77 250.96 545.36 257.15 541.46 263.03 537.52 268.88 534.17 275.12 530.63 281.23 526.85 287.18 522.65 292.87 518.78 298.76 514.88 304.64 511.42 310.81 507.85 316.9 504.07 322.86 500.18 328.75 496.23 334.61 492.29 340.36 499.58 340.51 506.96 340.93 514.35 340.91 521.74 340.32 529.13 340.83 536.51 340.74 543.9 340.99 551.29 339.86 558.68 340.78 566.06 340.31 573.45 340.86 580.84 340.79 588.23 340.37 595.62 340.13 603.01 339.84 610.4 340.48 617.8 340.92 625.28 340.58 628.85 334.39 632.54 328.38 636.67 322.64 639.95 316.37 644.34 310.81 647.79 304.64 651.52 298.66 655.92 293.09 659.85 287.24 663.19 280.99 666.64 274.83 671.1 269.3 674.38 263.03 678.7 257.43 682.29 251.34 686 245.34 689.83 239.41 693.47 233.37 696.97 227.23 701.75 221.91 705.19 215.72 708.98 209.61"/><polyline class="a" points="506 318.76 513.1 318.51 520.2 317.95 527.31 318.13 534.41 318.6 541.51 317.91 548.62 318.47 555.72 318.85 562.83 318.45 569.93 318.71 577.04 318.95 584.14 317.93 591.25 318.25 598.35 318.26 605.46 318.06 612.56 318.52 619.66 319.01 626.77 318.15 633.89 318.6 641 317.91"/><polyline class="b" points="506 318.76 513.1 318.51 520.2 317.95 527.31 318.13 534.41 318.6 541.51 317.91 548.62 318.47 555.72 318.85 562.83 318.45 569.93 318.71 577.04 318.95 584.14 317.93 591.25 318.25 598.35 318.26 605.46 318.06 612.56 318.52 619.66 319.01 626.77 318.15 633.89 318.6 641 317.91"/><polyline class="a" points="519 296.65 526.1 296.59 533.2 295.96 540.31 296.7 547.41 296.08 554.51 296.19 561.62 295.94 568.72 296.11 575.83 295.93 582.93 296.73 590.04 296.08 597.14 296.83 604.25 296.4 611.35 296.1 618.46 296.84 625.56 296.93 632.66 296.06 639.77 296.61 646.89 296.99 654 297.06"/><polyline class="b" points="519 296.65 526.1 296.59 533.2 295.96 540.31 296.7 547.41 296.08 554.51 296.19 561.62 295.94 568.72 296.11 575.83 295.93 582.93 296.73 590.04 296.08 597.14 296.83 604.25 296.4 611.35 296.1 618.46 296.84 625.56 296.93 632.66 296.06 639.77 296.61 646.89 296.99 654 297.06"/><polyline class="a" points="532 274.87 539.1 274.4 546.2 273.97 553.31 274.71 560.41 273.99 567.51 275.01 574.62 274.99 581.72 274.15 588.83 274.01 595.93 274.64 603.04 274.7 610.14 274.67 617.25 274.28 624.35 275 631.46 274.43 638.56 274.61 645.66 274.72 652.77 274.57 659.89 275.04 667 274.8"/><polyline class="b" points="532 274.87 539.1 274.4 546.2 273.97 553.31 274.71 560.41 273.99 567.51 275.01 574.62 274.99 581.72 274.15 588.83 274.01 595.93 274.64 603.04 274.7 610.14 274.67 617.25 274.28 624.35 275 631.46 274.43 638.56 274.61 645.66 274.72 652.77 274.57 659.89 275.04 667 274.8"/><polyline class="a" points="545 252.74 552.1 252.96 559.2 252.08 566.31 252.28 573.41 251.98 580.51 252.4 587.62 251.97 594.72 252.28 601.83 252.45 608.93 251.97 616.04 252.85 623.14 252.22 630.25 252.56 637.35 252.72 644.46 252.19 651.56 252.17 658.66 253.05 665.77 252.98 672.89 252.39 680 252.4"/><polyline class="b" points="545 252.74 552.1 252.96 559.2 252.08 566.31 252.28 573.41 251.98 580.51 252.4 587.62 251.97 594.72 252.28 601.83 252.45 608.93 251.97 616.04 252.85 623.14 252.22 630.25 252.56 637.35 252.72 644.46 252.19 651.56 252.17 658.66 253.05 665.77 252.98 672.89 252.39 680 252.4"/><polyline class="a" points="560 230.66 567.1 230.92 574.2 230.14 581.31 230.66 588.41 230.7 595.51 230.84 602.62 231.03 609.72 230.98 616.83 230.57 623.93 231.1 631.04 230.27 638.14 230.79 645.25 230.59 652.35 230.76 659.46 230.04 666.56 230.18 673.66 230.9 680.77 230.99 687.89 230.37 695 230.02"/><polyline class="b" points="560 230.66 567.1 230.92 574.2 230.14 581.31 230.66 588.41 230.7 595.51 230.84 602.62 231.03 609.72 230.98 616.83 230.57 623.93 231.1 631.04 230.27 638.14 230.79 645.25 230.59 652.35 230.76 659.46 230.04 666.56 230.18 673.66 230.9 680.77 230.99 687.89 230.37 695 230.02"/><polyline class="a" points="676 317.92 683.5 318.08 691 318.64 698.5 318.54 706 318.88"/><polyline class="b" points="676 317.92 683.5 318.08 691 318.64 698.5 318.54 706 318.88"/><polyline class="a" points="690 296.99 696 296.35 702 297.07 708 296.68"/><polyline class="b" points="690 296.99 696 296.35 702 297.07 708 296.68"/><polyline class="a" points="550.9 579.57 557.24 583.99 564.39 586.51 571.9 587.54 579.44 587.78 586.65 587.21 593.87 586.51 600.95 584.86 606.38 580.38 605.07 582.68 606.54 575.87 607.24 569.01 608.34 562.21 610.24 555.54 610.7 548.64 611.75 541.84 613.14 535.09 613.95 528.24 615.12 521.8 608.28 521.23 601.11 521.67 593.93 522.06 586.74 521.71 579.56 521.07 572.41 521.3 565.28 521.89 558.13 521.4 550.98 521.13 543.4 521.12 545.37 528.25 546.49 535.07 546.8 542.02 548.47 548.76 548.88 555.69 550.45 562.44 550.74 569.39 552.41 576.13 553.09 583.03"/><polyline class="b" points="550.9 579.57 557.24 583.99 564.39 586.51 571.9 587.54 579.44 587.78 586.65 587.21 593.87 586.51 600.95 584.86 606.38 580.38 605.07 582.68 606.54 575.87 607.24 569.01 608.34 562.21 610.24 555.54 610.7 548.64 611.75 541.84 613.14 535.09 613.95 528.24 615.12 521.8 608.28 521.23 601.11 521.67 593.93 522.06 586.74 521.71 579.56 521.07 572.41 521.3 565.28 521.89 558.13 521.4 550.98 521.13 543.4 521.12 545.37 528.25 546.49 535.07 546.8 542.02 548.47 548.76 548.88 555.69 550.45 562.44 550.74 569.39 552.41 576.13 553.09 583.03"/><polyline class="a" points="623.02 521.01 624.52 512.39 625.84 503.94 618.92 505.17 611.67 505.69 604.44 506.35 597.42 507.65 590.28 507.33 583.19 507.62 576.08 508.37 568.99 507.72 561.87 507.56 554.77 506.98 547.63 505.7 540.45 504.59 532.91 503.53 534.03 512.51 535.87 521.06"/><polyline class="b" points="623.02 521.01 624.52 512.39 625.84 503.94 618.92 505.17 611.67 505.69 604.44 506.35 597.42 507.65 590.28 507.33 583.19 507.62 576.08 508.37 568.99 507.72 561.87 507.56 554.77 506.98 547.63 505.7 540.45 504.59 532.91 503.53 534.03 512.51 535.87 521.06"/><polyline class="a" points="534.24 517.43 539.59 521.84 545.68 524.96 552.25 526.95 558.95 528.38 565.79 528.95 572.63 528.98 579.44 529.07 586.26 529.34 593.01 528.22 599.79 527.61 606.49 526.35 613.04 524.49 619.3 521.87 623.95 517.43"/><polyline class="b" points="534.24 517.43 539.59 521.84 545.68 524.96 552.25 526.95 558.95 528.38 565.79 528.95 572.63 528.98 579.44 529.07 586.26 529.34 593.01 528.22 599.79 527.61 606.49 526.35 613.04 524.49 619.3 521.87 623.95 517.43"/><polyline class="a" points="625.84 503.11 618.63 502.28 611.42 501.45 604.28 500.11 597.18 499.64 590.08 499.3 583 498.38 575.89 498.85 568.81 499.54 561.67 499.28 554.66 500.55 547.37 500.72 540.26 502.35 533.09 503.47"/><polyline class="b" points="625.84 503.11 618.63 502.28 611.42 501.45 604.28 500.11 597.18 499.64 590.08 499.3 583 498.38 575.89 498.85 568.81 499.54 561.67 499.28 554.66 500.55 547.37 500.72 540.26 502.35 533.09 503.47"/></svg>