<svg xmlns="http://www.w3.org/2000/svg" viewBox="0 0 800 800"><defs><style>.a{fill:#fff;}.a,.b,.c,.e,.f{stroke:#000;stroke-width:13px;}.a,.e,.f{stroke-linecap:round;}.a,.c,.d,.e,.f{stroke-miterlimit:10;}.b,.c,.d,.e{fill:none;}.b{stroke-linejoin:bevel;}.d{stroke:#fff;stroke-width:6px;}</style></defs><title>canvas (24)</title><path class="a" d="M116.85,242.67l568.43-5.84c10.82-.11,19.65,9.6,19.65,21.63l18.52,285.27c0,11.81-27,33.79-37.68,34L114.85,587.86c-10.94.19-39-22.63-38.92-34.79l21.63-289C97.66,252.31,106.24,242.78,116.85,242.67Z"/><path class="a" d="M85.39,218,717,212.14a21.63,21.63,0,0,1,21.83,21.63V531.38A21.63,21.63,0,0,1,717.53,553L83.17,563.17a21.63,21.63,0,0,1-22-21.82L64,239.4A21.63,21.63,0,0,1,85.39,218Z"/><path d="M223,306.33H155.06a7.43,7.43,0,0,0-7.41,7.41V492.16a7.43,7.43,0,0,0,7.41,7.41h0c11.51,4.6,56.4,4.6,67.91,0h0a7.43,7.43,0,0,0,7.41-7.41V313.74A7.43,7.43,0,0,0,223,306.33Z"/><path d="M160.65,283.59l21.08,4v20.52H160.65V283.59m-5.59-14.31a7.43,7.43,0,0,0-7.41,7.41v37a7.43,7.43,0,0,0,7.41,7.41h32.26a7.43,7.43,0,0,0,7.41-7.41V282.87a7.43,7.43,0,0,0-7.41-7.41l-32.26-6.17Z"/><polyline class="b" points="194 296.5 226.06 296.5 219.29 290.63"/><line class="b" x1="189.02" y1="296.14" x2="204.76" y2="310.34"/><path d="M191.8,262.8c-7.41,0-13.57,4.6-14.87,10.67l10.52,2a7.55,7.55,0,0,1,7.54,7.41v5.77c7-1.18,12.06-6.46,12.06-12.8,0-7.2-6.9-13-15.26-13Z"/><line class="c" x1="154" y1="295.5" x2="168" y2="295.5"/><line class="d" x1="159" y1="490" x2="159" y2="324"/><path class="e" d="M642.19,262.8s-13,19.45-10.5,39.82"/><path class="e" d="M633.54,331.64s.62,25.93,6.17,32.72"/><path class="e" d="M644.66,392.15s5.27,17.9-8.48,37"/><path class="e" d="M628.93,459.44s-9.55,16.05,1.23,41.37"/><path class="e" d="M612.55,303s22.23,18.52,36,21.61"/><path class="e" d="M612.55,330.82s27.17-15,34.37-26.55"/><path class="e" d="M622.22,369.51s30.66,16.46,40.54,17.08"/><path class="e" d="M622.22,395s31.9-22.64,36.63-35"/><path class="e" d="M618.52,426.1s18.52,27.78,29.84,34.37"/><path class="e" d="M609.05,456.77s39.92-23.87,50.63-22.64"/><path class="f" d="M514.5,486V357.88c0-49.44-39.27-89.38-88.71-89.38H432c-49.44,0-78.1,46.54-82.73,89.45L342,486S421.5,497.1,514.5,486Z"/><path class="a" d="M497.5,492.16V364.05c0-49.44-40.79-88.55-90.23-88.55h6.17c-49.44,0-78.1,46.13-82.73,89l-6.44,127.87S402.5,497.07,497.5,492.16Z"/><line class="f" x1="500.29" y1="491.55" x2="515.93" y2="487.84"/><polyline class="e" points="75.1 563.04 104.5 584.77 107.97 586.6"/><polyline class="e" points="123 562.79 148.19 584.13 151.17 585.99"/><polyline class="e" points="170.89 562.54 191.89 583.49 194.37 585.38"/><polyline class="e" points="218.78 562.3 235.58 582.85 237.57 584.76"/><polyline class="e" points="266.68 562.05 279.27 582.21 280.76 584.15"/><polyline class="e" points="314.57 561.8 322.97 581.57 323.96 583.53"/><polyline class="e" points="362.46 561.56 366.66 580.93 367.16 582.92"/><polyline class="e" points="725.23 552.54 695.83 574.28 692.36 576.11"/><polyline class="e" points="676.78 553.42 651.91 574.73 648.97 576.59"/><polyline class="e" points="628.34 554.29 607.99 575.18 605.59 577.07"/><polyline class="e" points="579.9 555.16 564.07 575.63 562.2 577.54"/><polyline class="e" points="531.46 556.04 520.15 576.08 518.81 578.02"/><polyline class="e" points="483.01 556.91 476.23 576.53 475.43 578.5"/><polyline class="e" points="434.57 557.79 432.31 576.98 432.04 578.98"/></svg>