<svg xmlns="http://www.w3.org/2000/svg" viewBox="0 0 800 800"><defs><style>.a{fill:#fff;}.b,.c{fill:none;stroke:#000;stroke-linejoin:bevel;}.b{stroke-width:13px;}.c{stroke-width:7px;}</style></defs><title>canvas (62)</title><polygon class="a" points="565.09 642.05 558.11 642.59 551.1 643.13 544.12 643.84 537.07 643.91 530.1 644.84 523.12 645.66 516.15 646.6 509.08 646.44 502.13 647.54 495.15 648.35 488.16 649.04 481.12 649.2 474.12 649.77 467.13 650.55 460.13 651.11 453.17 652.16 446.12 652.28 439.18 653.54 432.2 654.03 427.69 659.69 422.3 664.68 418.04 670.62 413.09 675.97 408.33 681.5 403.54 686.99 398.97 692.68 394.32 698.3 389.6 703.68 396.8 703.97 404.14 703.93 411.49 703.68 418.83 704.08 426.17 703.74 433.52 703.69 440.86 703.65 448.2 703.89 455.55 704.08 462.89 704.47 470.24 703.82 477.58 704.6 484.92 704.58 492.27 704.66 499.61 704.5 506.95 704.86 514.3 704.14 521.65 704.81 529 705.19 536.35 705.19 543.55 704.45 548.45 700.01 552.81 694.88 557.5 690.25 564.47 689.27 571.64 689.36 578.78 688.81 585.91 688.26 593.08 688.14 600.23 687.83 607.37 687.48 614.51 687.01 621.62 685.89 628.78 685.69 635.96 685.86 643.11 685.53 650.26 685.13 657.36 683.93 664.56 684.47 671.67 683.4 678.82 682.93 686 683.23 693.14 682.65 700.26 681.72 707.4 681.23 714.56 680.95 721.71 680.54 728.87 680.27 735.6 679.96 731.28 674.13 726.03 668.57 720.85 662.96 715.82 657.22 710.76 651.5 705.68 645.78 700.68 639.8 693.4 640.69 686.27 640.17 679.15 640.76 672.02 640.42 664.89 640.67 657.76 641.09 650.63 640.73 643.51 641.21 636.38 640.94 629.24 640.58 622.12 641.12 614.99 640.74 607.87 641.55 600.74 641.37 593.6 641.2 586.48 641.31 579.34 641.32 572.21 641.49 565.09 642.05"/><polygon class="b" points="565.09 642.05 558.11 642.59 551.1 643.13 544.12 643.84 537.07 643.91 530.1 644.84 523.12 645.66 516.15 646.6 509.08 646.44 502.13 647.54 495.15 648.35 488.16 649.04 481.12 649.2 474.12 649.77 467.13 650.55 460.13 651.11 453.17 652.16 446.12 652.28 439.18 653.54 432.2 654.03 427.69 659.69 422.3 664.68 418.04 670.62 413.09 675.97 408.33 681.5 403.54 686.99 398.97 692.68 394.32 698.3 389.6 703.68 396.8 703.97 404.14 703.93 411.49 703.68 418.83 704.08 426.17 703.74 433.52 703.69 440.86 703.65 448.2 703.89 455.55 704.08 462.89 704.47 470.24 703.82 477.58 704.6 484.92 704.58 492.27 704.66 499.61 704.5 506.95 704.86 514.3 704.14 521.65 704.56 529 704.69 536.35 704.69 543.55 704.2 548.45 699.89 552.81 694.82 557.5 690.22 564.47 689.26 571.64 689.35 578.78 688.81 585.91 688.26 593.08 688.14 600.23 687.83 607.37 687.48 614.51 687.01 621.62 685.89 628.78 685.69 635.96 685.86 643.11 685.53 650.26 685.13 657.36 683.93 664.56 684.47 671.67 683.4 678.82 682.93 686 683.23 693.14 682.65 700.26 681.72 707.4 681.23 714.56 680.95 721.71 680.54 728.87 680.27 735.6 679.96 731.28 674.13 726.03 668.57 720.85 662.96 715.82 657.22 710.76 651.5 705.68 645.78 700.68 639.8 693.4 640.69 686.27 640.17 679.15 640.76 672.02 640.42 664.89 640.67 657.76 641.09 650.63 640.73 643.51 641.21 636.38 640.94 629.24 640.58 622.12 641.12 614.99 640.74 607.87 641.55 600.74 641.37 593.6 641.2 586.48 641.31 579.34 641.32 572.21 641.49 565.09 642.05"/><polygon points="565.08 591.77 558.04 591.84 551.04 592.47 544.13 594.01 537.06 593.79 530.08 594.6 523.06 595.04 516.13 596.32 509.08 596.4 502.1 597.23 495.13 598.14 488.12 598.62 481.11 599.16 474.16 600.26 467.13 600.57 460.16 601.44 453.18 602.26 446.17 602.76 439.19 603.75 432.26 604.14 427.13 609.21 422.43 614.78 417.74 620.36 413.25 626.12 408.28 631.45 403.57 637.01 398.76 642.5 393.96 648 389.62 653.68 396.8 653.92 404.15 653.38 411.49 653.41 418.83 654.23 426.17 654.36 433.52 653.58 440.86 654.42 448.2 653.96 455.55 654.53 462.89 654.46 470.24 653.8 477.58 654.14 484.93 653.99 492.26 654.82 499.61 654.87 506.96 654.33 514.3 654.75 521.65 654.09 529 654.24 536.35 654.26 543.66 654.6 548.05 649.6 552.82 644.86 557.47 640.18 564.51 640 571.6 638.66 578.78 638.89 585.95 638.8 593.07 637.99 600.23 637.91 607.34 636.89 614.52 637.18 621.67 636.84 628.78 635.64 635.93 635.42 643.08 634.89 650.22 634.49 657.4 634.56 664.52 633.76 671.67 633.38 678.85 633.48 686 633.12 693.14 632.69 700.27 631.89 707.42 631.59 714.56 631.09 721.72 630.8 728.87 630.14 736.42 630.24 730.7 624.64 725.97 618.63 720.58 613.2 715.63 607.39 710.42 601.8 705.62 595.84 700.37 590.47 693.39 590.19 686.27 590.68 679.14 590.62 672.02 590.38 664.89 590.32 657.76 590.38 650.64 591.18 643.51 591.2 636.37 590.68 629.24 590.8 622.12 590.96 615 591.58 607.87 591.57 600.74 591.44 593.61 591.81 586.48 591.61 579.35 591.92 572.22 591.9 565.08 591.77"/><polygon class="b" points="565.08 591.77 558.04 591.84 551.04 592.47 544.13 594.01 537.06 593.79 530.08 594.6 523.06 595.04 516.13 596.32 509.08 596.4 502.1 597.23 495.13 598.14 488.12 598.62 481.11 599.16 474.16 600.26 467.13 600.57 460.16 601.44 453.18 602.26 446.17 602.76 439.19 603.75 432.26 604.14 427.13 609.21 422.43 614.78 417.74 620.36 413.25 626.12 408.28 631.45 403.57 637.01 398.76 642.5 393.96 648 389.62 653.68 396.8 653.92 404.15 653.38 411.49 653.41 418.83 654.23 426.17 654.36 433.52 653.58 440.86 654.42 448.2 653.96 455.55 654.53 462.89 654.46 470.24 653.8 477.58 654.14 484.93 653.99 492.26 654.82 499.61 654.87 506.96 654.33 514.3 654.75 521.65 654.09 529 654.24 536.35 654.26 543.66 654.6 548.05 649.6 552.82 644.86 557.47 640.18 564.51 640 571.6 638.66 578.78 638.89 585.95 638.8 593.07 637.99 600.23 637.91 607.34 636.89 614.52 637.18 621.67 636.84 628.78 635.64 635.93 635.42 643.08 634.89 650.22 634.49 657.4 634.56 664.52 633.76 671.67 633.38 678.85 633.48 686 633.12 693.14 632.69 700.27 631.89 707.42 631.59 714.56 631.09 721.72 630.8 728.87 630.14 736.42 630.24 730.7 624.64 725.97 618.63 720.58 613.2 715.63 607.39 710.42 601.8 705.62 595.84 700.37 590.47 693.39 590.19 686.27 590.68 679.14 590.62 672.02 590.38 664.89 590.32 657.76 590.38 650.64 591.18 643.51 591.2 636.37 590.68 629.24 590.8 622.12 590.96 615 591.58 607.87 591.57 600.74 591.44 593.61 591.81 586.48 591.61 579.35 591.92 572.22 591.9 565.08 591.77"/><polygon class="a" points="390.69 654.05 390.7 660.93 390.68 668.07 390.83 675.21 390.36 682.35 390.25 689.5 390.25 696.64 390.61 703.61 397.77 703.37 405.09 704.2 412.43 703.86 419.75 704 427.09 704.28 434.42 703.61 441.75 704.11 449.08 704.26 456.42 704.45 463.75 704.15 471.08 704.19 478.42 703.89 485.75 704.39 493.08 703.93 500.41 704.14 507.75 704.51 515.08 704.41 522.42 704.79 529.75 704.59 537.09 704.53 544.61 704.89 544.79 697.58 544.41 690.45 544.66 683.32 544.58 676.2 544.88 669.07 544.91 661.93 544.12 655.12 537.1 654.94 529.77 655.14 522.44 655.1 515.11 654.88 507.78 654.52 500.45 654.21 493.12 654.2 485.78 654.4 478.45 654.02 471.12 653.98 463.79 654.09 456.45 654.52 449.12 654.23 441.79 654.03 434.45 654.45 427.12 654.34 419.79 653.87 412.45 654.31 405.11 654.08 397.77 653.83 390.69 654.05"/><polygon class="b" points="390.69 654.05 390.7 660.93 390.68 668.07 390.83 675.21 390.36 682.35 390.25 689.5 390.25 696.64 390.61 703.61 397.77 703.37 405.09 704.2 412.43 703.86 419.75 704 427.09 704.28 434.42 703.61 441.75 704.11 449.08 704.26 456.42 704.45 463.75 704.15 471.08 704.19 478.42 703.89 485.75 704.39 493.08 703.93 500.41 704.14 507.75 704.51 515.08 704.41 522.42 704.79 529.75 704.59 537.09 704.53 544.61 704.89 544.79 697.58 544.41 690.45 544.66 683.32 544.58 676.2 544.88 669.07 544.91 661.93 544.12 655.12 537.1 654.94 529.77 655.14 522.44 655.1 515.11 654.88 507.78 654.52 500.45 654.21 493.12 654.2 485.78 654.4 478.45 654.02 471.12 653.98 463.79 654.09 456.45 654.52 449.12 654.23 441.79 654.03 434.45 654.45 427.12 654.34 419.79 653.87 412.45 654.31 405.11 654.08 397.77 653.83 390.69 654.05"/><polygon class="a" points="557.61 639.44 557.41 646.93 557.78 654.07 557.88 661.21 557.67 668.35 557.07 675.5 557.17 682.64 557.39 689.78 553.23 694.87 548.4 699.41 544.29 705 544.56 697.58 544.22 690.45 544.05 683.32 544.36 676.2 544.6 669.07 544.01 661.93 544.58 654.85 548.81 649.84 552.88 644.6 557.61 639.44"/><polygon class="b" points="557.61 639.44 557.41 646.93 557.78 654.07 557.88 661.21 557.67 668.35 557.07 675.5 557.17 682.64 557.39 689.78 553.23 694.87 548.4 699.41 544.29 705 544.56 697.58 544.22 690.45 544.05 683.32 544.36 676.2 544.6 669.07 544.01 661.93 544.58 654.85 548.81 649.84 552.88 644.6 557.61 639.44"/><polygon class="a" points="736.45 630.1 729.28 630.25 722.15 630.67 715.06 631.69 707.9 631.73 700.8 632.69 693.64 632.64 686.55 633.73 679.41 634.11 672.26 634.32 665.14 634.92 658.01 635.4 650.86 635.7 643.75 636.47 636.61 636.82 629.45 636.93 622.33 637.6 615.21 638.19 608.07 638.64 600.94 639.13 593.79 639.34 586.69 640.23 579.54 640.61 572.41 641.24 565.55 641.92 564.73 648.48 564.83 655.35 564.68 662.2 564.36 669.05 563.86 675.9 563.07 682.73 563.12 689.52 570.28 689.42 577.5 689.08 584.71 688.38 591.91 687.73 599.13 687.15 606.35 686.77 613.61 687.05 620.84 686.72 628.07 686.46 635.25 685.39 642.49 685.28 649.73 685.02 656.93 684.36 664.15 683.71 671.4 683.77 678.63 683.54 685.85 683.11 693.07 682.59 700.31 682.54 707.52 681.78 714.76 681.61 721.95 680.44 729.2 680.52 736.7 680.37 736.04 672.97 736.9 665.83 736.59 658.69 736.09 651.55 736.69 644.41 736.77 637.26 736.45 630.1"/><polygon class="b" points="736.45 630.1 729.28 630.25 722.15 630.67 715.06 631.69 707.9 631.73 700.8 632.69 693.64 632.64 686.55 633.73 679.41 634.11 672.26 634.32 665.14 634.92 658.01 635.4 650.86 635.7 643.75 636.47 636.61 636.82 629.45 636.93 622.33 637.6 615.21 638.19 608.07 638.64 600.94 639.13 593.79 639.34 586.69 640.23 579.54 640.61 572.41 641.24 565.55 641.92 564.73 648.48 564.83 655.35 564.68 662.2 564.36 669.05 563.86 675.9 563.07 682.73 563.12 689.52 570.28 689.42 577.5 689.08 584.71 688.38 591.91 687.73 599.13 687.15 606.35 686.77 613.61 687.05 620.84 686.72 628.07 686.46 635.25 685.39 642.49 685.28 649.73 685.02 656.93 684.36 664.15 683.71 671.4 683.77 678.63 683.54 685.85 683.11 693.07 682.59 700.31 682.54 707.52 681.78 714.76 681.61 721.95 680.44 729.2 680.52 736.7 680.37 736.04 672.97 736.9 665.83 736.59 658.69 736.09 651.55 736.69 644.41 736.77 637.26 736.45 630.1"/><polyline class="a" points="559.79 383.19 559.83 390.33 559.89 397.47 559.24 404.61 559.07 411.75 559.37 418.88 559.61 426.01 559.64 433.15 559.26 440.29 559.59 447.42 559.32 454.56 559.11 461.69 559.89 468.83 559.51 475.97 559.9 483.11 559.01 490.25 559.05 497.38 559.89 504.52 559.52 511.66 559.11 518.8 559.89 525.94 559.37 533.08 559.5 540.22 559.9 547.37 559.71 554.51 559.48 561.64 559 568.78 558.93 575.93 559.05 583.07 559.84 590.21 559.68 597.35 559.87 604.49 559.07 611.64 559.73 618.73 565.23 624.6 572.88 626.55 579.03 621.71 579.34 614.57 579.33 607.34 579.05 600.11 579.15 592.88 578.98 585.65 579.74 578.43 579.33 571.2 579.43 563.97 579.31 556.75 579.25 549.52 579.5 542.29 579.78 535.07 579.49 527.84 579.24 520.61 579.17 513.38 579.2 506.15 579.39 498.92 579.75 491.69 579.35 484.46 579.61 477.23 579.56 469.99 579.39 462.76 579.31 455.53 579.25 448.3 579.56 441.07 579.31 433.84 579.93 426.61 579.93 419.37 579.96 412.14 579.69 404.9 579.71 397.67 579.17 390.43 579.22 383.19"/><polyline class="b" points="559.79 383.19 559.83 390.33 559.89 397.47 559.24 404.61 559.07 411.75 559.37 418.88 559.61 426.01 559.64 433.15 559.26 440.29 559.59 447.42 559.32 454.56 559.11 461.69 559.89 468.83 559.51 475.97 559.9 483.11 559.01 490.25 559.05 497.38 559.89 504.52 559.52 511.66 559.11 518.8 559.89 525.94 559.37 533.08 559.5 540.22 559.9 547.37 559.71 554.51 559.48 561.64 559 568.78 558.93 575.93 559.05 583.07 559.84 590.21 559.68 597.35 559.87 604.49 559.07 611.64 559.73 618.73 565.23 624.6 572.88 626.55 579.03 621.71 579.34 614.57 579.33 607.34 579.05 600.11 579.15 592.88 578.98 585.65 579.74 578.43 579.33 571.2 579.43 563.97 579.31 556.75 579.25 549.52 579.5 542.29 579.78 535.07 579.49 527.84 579.24 520.61 579.17 513.38 579.2 506.15 579.39 498.92 579.75 491.69 579.35 484.46 579.61 477.23 579.56 469.99 579.39 462.76 579.31 455.53 579.25 448.3 579.56 441.07 579.06 433.84 579.43 426.61 579.43 419.37 579.71 412.14 579.57 404.9 579.64 397.67 579.14 390.43 579.2 383.19"/><polyline class="a" points="562.98 383.19 563.11 390.39 563.28 397.59 563.78 404.79 563.23 411.99 563.25 419.18 563.14 426.38 563.47 433.57 563.78 440.77 563.43 447.97 563.25 455.16 563.29 462.36 563.42 469.56 563.76 476.76 563.84 483.95 563.32 491.15 563.04 498.35 563.21 505.55 563.11 512.75 563.89 519.95 563.43 527.15 563.54 534.36 563.45 541.56 563.25 548.76 563.43 555.96 563.93 563.16 563.88 570.36 563.16 577.56 563.21 584.76 563.58 591.97 563.67 599.17 563.04 606.37 563.11 613.58 562.97 620.94 570.62 622.78 577.88 621.07 583.24 615.75 583.17 608.52 583.32 601.26 583.61 593.99 583.88 586.73 583.73 579.47 583.49 572.2 583.13 564.93 582.95 557.67 583.77 550.4 583.17 543.14 583.39 535.87 583.77 528.6 583.66 521.34 583.49 514.07 583.47 506.8 583.91 499.53 583.46 492.26 583.2 485 583.64 477.72 583.79 470.45 583.25 463.19 583.34 455.91 583.66 448.64 583.87 441.38 583.37 434.11 583.46 426.84 583.36 419.57 583.05 412.29 583.71 405.02 583.73 397.75 583.56 390.47 583.65 383.19"/><polyline class="b" points="562.98 383.19 563.11 390.39 563.28 397.59 563.78 404.79 563.23 411.99 563.25 419.18 563.14 426.38 563.47 433.57 563.78 440.77 563.43 447.97 563.25 455.16 563.29 462.36 563.42 469.56 563.76 476.76 563.84 483.95 563.32 491.15 563.04 498.35 563.21 505.55 563.11 512.75 563.89 519.95 563.43 527.15 563.54 534.36 563.45 541.56 563.25 548.76 563.43 555.96 563.93 563.16 563.88 570.36 563.16 577.56 563.21 584.76 563.58 591.97 563.67 599.17 563.04 606.37 563.11 613.58 562.97 620.94 570.62 622.78 577.88 621.07 583.24 615.75 583.17 608.52 583.32 601.26 583.61 593.99 583.88 586.73 583.73 579.47 583.49 572.2 583.13 564.93 582.95 557.67 583.77 550.4 583.17 543.14 583.39 535.87 583.77 528.6 583.66 521.34 583.49 514.07 583.47 506.8 583.91 499.53 583.46 492.26 583.2 485 583.64 477.72 583.79 470.45 583.25 463.19 583.34 455.91 583.66 448.64 583.87 441.38 583.37 434.11 583.46 426.84 583.36 419.57 583.05 412.29 583.71 405.02 583.73 397.75 583.56 390.47 583.65 383.19"/><polygon class="a" points="599.49 294.15 603.12 300.21 606.35 306.24 610.52 311.68 613.75 317.71 617.61 323.35 621.55 328.94 624.56 335.12 628.48 340.72 631.79 346.47 629.07 352.73 625.69 358.87 622.63 365.18 619 371.19 615.45 377.24 612.35 383.54 608.88 389.63 606.27 396.18 602.77 402.27 599.11 408.07 592.04 409.56 584.69 410.38 577.48 412.06 570.11 412.74 562.89 414.39 555.45 414.61 548.16 415.82 540.83 416.84 533.41 418.82 530.27 412.41 525.91 407.1 522.46 401.2 518.61 395.56 515.69 389.33 511.85 383.68 507.93 378.08 504.12 372.4 500.23 366.48 503.81 360.17 507.68 354.29 510.29 347.74 513.87 341.7 517.37 335.63 520.76 329.49 523.72 323.12 527.42 317.15 530.69 310.94 533.55 304.48 540.91 303.56 548.17 302.2 555.42 300.74 562.83 300.32 570.05 298.7 577.46 298.24 584.64 296.28 592.09 296.03 599.49 294.15"/><polygon class="b" points="599.49 294.15 603.12 300.21 606.35 306.24 610.52 311.68 613.75 317.71 617.61 323.35 621.55 328.94 624.56 335.12 628.48 340.72 631.79 346.47 629.07 352.73 625.69 358.87 622.63 365.18 619 371.19 615.45 377.24 612.35 383.54 608.88 389.63 606.27 396.18 602.77 402.27 599.11 408.07 592.04 409.56 584.69 410.38 577.48 412.06 570.11 412.74 562.89 414.39 555.45 414.61 548.16 415.82 540.83 416.84 533.41 418.82 530.27 412.41 525.91 407.1 522.46 401.2 518.61 395.56 515.69 389.33 511.85 383.68 507.93 378.08 504.12 372.4 500.23 366.48 503.81 360.17 507.68 354.29 510.29 347.74 513.87 341.7 517.37 335.63 520.76 329.49 523.72 323.12 527.42 317.15 530.69 310.94 533.55 304.48 540.91 303.56 548.17 302.2 555.42 300.74 562.83 300.32 570.05 298.7 577.46 298.24 584.64 296.28 592.09 296.03 599.49 294.15"/><polygon class="a" points="605.16 297.92 608.89 303.35 612.47 309.16 615.98 315.02 619.89 320.62 623.74 326.27 627.05 332.25 631.22 337.7 634.55 343.68 638.05 349.46 635.16 355.78 631.84 361.95 628.49 368.11 624.97 374.18 621.55 380.3 618.33 386.52 614.89 392.63 612 399.04 608.75 405.26 605.12 411.09 597.96 412.03 590.74 413.72 583.37 414.37 576.11 415.77 568.83 416.99 561.53 418.16 554.17 418.89 546.97 420.72 539.76 420.99 536 415.58 532.64 409.63 528.64 404.08 525.16 398.21 521 392.76 518.1 386.52 513.8 381.16 510.78 374.98 506.56 369.46 509.92 363.23 513.36 357.12 516.54 350.87 519.48 344.5 523.07 338.47 526.5 332.35 529.86 326.2 533 319.93 536.71 313.95 539.72 307.72 546.87 306.27 554.17 305.17 561.47 304.05 568.77 302.92 576.11 302.08 583.34 300.47 590.76 300.1 598.03 298.78 605.16 297.92"/><polygon class="b" points="605.16 297.92 608.89 303.35 612.47 309.16 615.98 315.02 619.89 320.62 623.74 326.27 627.05 332.25 631.22 337.7 634.55 343.68 638.05 349.46 635.16 355.78 631.84 361.95 628.49 368.11 624.97 374.18 621.55 380.3 618.33 386.52 614.89 392.63 612 399.04 608.75 405.26 605.12 411.09 597.96 412.03 590.74 413.72 583.37 414.37 576.11 415.77 568.83 416.99 561.53 418.16 554.17 418.89 546.97 420.72 539.76 420.99 536 415.58 532.64 409.63 528.64 404.08 525.16 398.21 521 392.76 518.1 386.52 513.8 381.16 510.78 374.98 506.56 369.46 509.92 363.23 513.36 357.12 516.54 350.87 519.48 344.5 523.07 338.47 526.5 332.35 529.86 326.2 533 319.93 536.71 313.95 539.72 307.72 546.87 306.27 554.17 305.17 561.47 304.05 568.77 302.92 576.11 302.08 583.34 300.47 590.76 300.1 598.03 298.78 605.16 297.92"/><polygon points="590.48 361.59 587.38 368.29 582.84 374.04 576.66 378.15 569.33 378.89 562.96 377.81 557.8 373.91 555.05 368.07 554.23 361.46 556.94 354.44 562.21 349.2 568.52 345.58 575.59 344.22 582.17 344.78 586.94 349.31 590.18 354.95 590.48 361.59"/><polygon class="c" points="590.48 361.59 587.38 368.29 582.84 374.04 576.66 378.15 569.33 378.89 562.96 377.81 557.8 373.91 555.05 368.07 554.23 361.46 556.94 354.44 562.21 349.2 568.52 345.58 575.59 344.22 582.17 344.78 586.94 349.31 590.18 354.95 590.48 361.59"/><polyline class="c" points="602.8 361.51 601 368.53 597.85 375.13 593 380.59 587.65 385.56 581.25 389.11 574.24 391.03 567.08 392.23"/><polyline class="c" points="541.7 361.5 543.76 354.49 547.62 348.32 551.59 342.18 557.61 338 563.68 334.02 570.72 332.26 577.84 331.21"/><polygon class="a" points="290.89 292.23 297.96 292.72 304.7 292.18 311.45 292.31 318.2 292.95 324.96 292.54 324.49 299.29 325.39 306.04 325.1 312.78 324.67 319.54 324.62 325.95 318.21 326.35 311.47 326.39 304.72 326.1 297.96 326.53 291.44 326.06 290.71 319.55 291.63 312.8 291.08 306.05 291.61 299.29 290.89 292.23"/><polygon class="b" points="290.89 292.23 297.96 292.72 304.7 292.18 311.45 292.31 318.2 292.95 324.96 292.54 324.49 299.29 325.39 306.04 325.1 312.78 324.67 319.54 324.62 325.95 318.21 326.35 311.47 326.39 304.72 326.1 297.96 326.53 291.44 326.06 290.71 319.55 291.63 312.8 291.08 306.05 291.61 299.29 290.89 292.23"/><polygon class="a" points="301.84 347.81 294.72 348.48 287.61 348.69 280.49 348.17 273.39 348.81 266.28 348.85 259.17 348.62 252.05 348.2 244.94 348.52 237.83 348.85 230.72 349.16 223.6 349 216.42 348.63 209.9 351.09 203.22 352.91 196.72 355.27 190.08 357.18 183.56 359.49 177.09 361.95 170.52 364.1 163.84 365.93 157.47 368.69 150.85 370.71 144.01 372.08 137.99 374.79 142.79 378.73 147.73 383.08 153.24 386.75 158.06 391.29 151.54 394.39 144.59 396.38 138.08 399.5 131.17 401.6 124.66 404.71 118.07 407.6 111.23 409.89 104.39 412.16 97.98 415.53 91.08 417.66 84.48 420.54 77.89 423.45 71.09 425.86 63.95 428.71 71.62 429.26 78.85 429.32 86 430.44 93.23 430.43 100.38 431.63 107.64 431.22 114.81 432.15 121.97 433.13 129.18 433.33 136.36 434.09 143.55 434.66 150.77 434.92 158.01 434.89 165.18 435.66 172.24 434.88 179.28 433.93 186.2 432.17 193.33 431.78 200.34 430.6 207.39 429.74 214.34 428.13 221.37 427.07 228.35 425.74 235.41 424.85 242.41 423.59 249.43 422.5 256.53 421.94 263.48 420.31 270.53 419.43 277.64 418.88 284.57 417.15 291.58 415.98 298.63 415.04 305.64 413.85 312.62 412.78 319.26 410 325.41 406.14 332.03 403.19 338.19 399.36 345.05 396.86 351.16 392.93 357.57 389.6 364.1 386.49 370.4 382.91 376.81 379.56 383.34 376.43 389.96 373.48 396.38 370.14 402.62 366.45 408.82 362.67 415.64 359.71 408.35 359.12 401.26 358.31 394.19 357.3 387.06 356.82 379.94 356.25 372.82 355.69 365.75 354.66 358.68 353.72 351.51 353.6 344.42 352.85 337.34 351.84 330.25 350.98 323.15 350.28 316 350.02 308.98 348.47 301.84 347.81"/><polygon class="b" points="301.84 347.81 294.72 348.48 287.61 348.69 280.49 348.17 273.39 348.81 266.28 348.85 259.17 348.62 252.05 348.2 244.94 348.52 237.83 348.85 230.72 349.16 223.6 349 216.42 348.63 209.9 351.09 203.22 352.91 196.72 355.27 190.08 357.18 183.56 359.49 177.09 361.95 170.52 364.1 163.84 365.93 157.47 368.69 150.85 370.71 144.01 372.08 137.99 374.79 142.79 378.73 147.73 383.08 153.24 386.75 158.06 391.29 151.54 394.39 144.59 396.38 138.08 399.5 131.17 401.6 124.66 404.71 118.07 407.6 111.23 409.89 104.39 412.16 97.98 415.53 91.08 417.66 84.48 420.54 77.89 423.45 71.09 425.86 63.95 428.71 71.62 429.26 78.85 429.32 86 430.44 93.23 430.43 100.38 431.63 107.64 431.22 114.81 432.15 121.97 433.13 129.18 433.33 136.36 434.09 143.55 434.66 150.77 434.92 158.01 434.89 165.18 435.66 172.24 434.88 179.28 433.93 186.2 432.17 193.33 431.78 200.34 430.6 207.39 429.74 214.34 428.13 221.37 427.07 228.35 425.74 235.41 424.85 242.41 423.59 249.43 422.5 256.53 421.94 263.48 420.31 270.53 419.43 277.64 418.88 284.57 417.15 291.58 415.98 298.63 415.04 305.64 413.85 312.62 412.78 319.26 410 325.41 406.14 332.03 403.19 338.19 399.36 345.05 396.86 351.16 392.93 357.57 389.6 364.1 386.49 370.4 382.91 376.81 379.56 383.34 376.43 389.96 373.48 396.38 370.14 402.62 366.45 408.82 362.67 415.64 359.71 408.35 359.12 401.26 358.31 394.19 357.3 387.06 356.82 379.94 356.25 372.82 355.69 365.75 354.66 358.68 353.72 351.51 353.6 344.42 352.85 337.34 351.84 330.25 350.98 323.15 350.28 316 350.02 308.98 348.47 301.84 347.81"/><polygon points="301.82 288.28 294.71 287.72 287.6 287.86 280.49 288.24 273.39 288.84 266.28 288.88 259.17 288.84 252.05 288.21 244.94 288.95 237.83 288.98 230.72 289.24 223.59 288.48 216.55 289.42 210.04 291.52 203.22 292.91 196.73 295.29 190.16 297.43 183.53 299.39 177.09 301.96 170.51 304.08 163.9 306.12 157.19 307.83 150.62 310 144.09 312.3 137.19 314.6 142.81 318.69 147.93 322.85 153.07 326.96 157.8 331.23 151.55 334.41 144.82 336.98 137.92 339.1 131.16 341.57 124.53 344.39 117.82 346.98 111.27 350 104.56 352.6 97.82 355.13 91.15 357.84 84.44 360.43 77.94 363.59 71.22 366.19 64.32 368.65 71.61 369.48 78.82 369.72 86.04 369.94 93.2 370.86 100.4 371.36 107.63 371.42 114.79 372.38 121.97 373.09 129.2 373.08 136.39 373.68 143.61 373.89 150.81 374.39 158.01 374.93 165.19 375.87 172.18 374.47 179.26 373.81 186.2 372.18 193.35 371.96 200.24 369.97 207.35 369.49 214.41 368.57 221.43 367.47 228.46 366.46 235.4 364.82 242.41 363.59 249.53 363.11 256.46 361.48 263.5 360.46 270.54 359.48 277.56 358.36 284.63 357.55 291.63 356.34 298.65 355.17 305.67 354 312.68 352.94 318.99 349.48 325.6 346.52 331.81 342.78 338.43 339.82 344.71 336.22 351.45 333.5 357.52 329.51 363.96 326.21 370.67 323.43 377.13 320.18 383.24 316.25 389.6 312.79 396.01 309.44 402.39 306 408.93 302.89 415.01 299.81 408.32 299.4 401.29 298.03 394.17 297.45 387.11 296.36 379.99 295.78 372.81 295.85 365.74 294.75 358.64 294.12 351.56 293.2 344.42 292.82 337.38 291.47 330.26 290.93 323.19 289.96 316.09 289.11 308.91 289.11 301.82 288.28"/><polygon class="b" points="301.82 288.28 294.71 287.72 287.6 287.86 280.49 288.24 273.39 288.84 266.28 288.88 259.17 288.84 252.05 288.21 244.94 288.95 237.83 288.98 230.72 289.24 223.59 288.48 216.55 289.42 210.04 291.52 203.22 292.91 196.73 295.29 190.16 297.43 183.53 299.39 177.09 301.96 170.51 304.08 163.9 306.12 157.19 307.83 150.62 310 144.09 312.3 137.19 314.6 142.81 318.69 147.93 322.85 153.07 326.96 157.8 331.23 151.55 334.41 144.82 336.98 137.92 339.1 131.16 341.57 124.53 344.39 117.82 346.98 111.27 350 104.56 352.6 97.82 355.13 91.15 357.84 84.44 360.43 77.94 363.59 71.22 366.19 64.32 368.65 71.61 369.48 78.82 369.72 86.04 369.94 93.2 370.86 100.4 371.36 107.63 371.42 114.79 372.38 121.97 373.09 129.2 373.08 136.39 373.68 143.61 373.89 150.81 374.39 158.01 374.93 165.19 375.87 172.18 374.47 179.26 373.81 186.2 372.18 193.35 371.96 200.24 369.97 207.35 369.49 214.41 368.57 221.43 367.47 228.46 366.46 235.4 364.82 242.41 363.59 249.53 363.11 256.46 361.48 263.5 360.46 270.54 359.48 277.56 358.36 284.63 357.55 291.63 356.34 298.65 355.17 305.67 354 312.68 352.94 318.99 349.48 325.6 346.52 331.81 342.78 338.43 339.82 344.71 336.22 351.45 333.5 357.52 329.51 363.96 326.21 370.67 323.43 377.13 320.18 383.24 316.25 389.6 312.79 396.01 309.44 402.39 306 408.93 302.89 415.01 299.81 408.32 299.4 401.29 298.03 394.17 297.45 387.11 296.36 379.99 295.78 372.81 295.85 365.74 294.75 358.64 294.12 351.56 293.2 344.42 292.82 337.38 291.47 330.26 290.93 323.19 289.96 316.09 289.11 308.91 289.11 301.82 288.28"/><polygon class="a" points="64.42 368.78 64.18 376.29 64.05 383.79 64.73 391.28 64.16 398.78 64.31 406.29 63.97 413.78 64.2 421.29 64.44 428.79 71.68 428.81 78.88 429.45 86.04 430.69 93.26 431.19 100.47 431.76 107.73 431.46 114.95 431.81 122.12 432.96 129.35 433.24 136.57 433.61 143.74 434.75 150.97 435.12 158.22 435.24 165.71 436.08 165.93 428.3 165.62 420.8 165.58 413.3 165.39 405.8 165.93 398.3 165.37 390.8 165.31 383.3 165.3 375.92 158.23 375.16 150.99 375.05 143.82 373.91 136.6 373.52 129.35 373.6 122.15 372.86 114.96 372.15 107.73 371.76 100.52 371.26 93.31 370.68 86.1 370.24 78.91 369.41 71.68 369 64.42 368.78"/><polygon class="b" points="64.42 368.78 64.18 376.29 64.05 383.79 64.73 391.28 64.16 398.78 64.31 406.29 63.97 413.78 64.2 421.29 64.44 428.79 71.68 428.81 78.88 429.45 86.04 430.69 93.26 431.19 100.47 431.76 107.73 431.46 114.95 431.81 122.12 432.96 129.35 433.24 136.57 433.61 143.74 434.75 150.97 435.12 158.22 435.24 165.71 436.08 165.93 428.3 165.62 420.8 165.58 413.3 165.39 405.8 165.93 398.3 165.37 390.8 165.31 383.3 165.3 375.92 158.23 375.16 150.99 375.05 143.82 373.91 136.6 373.52 129.35 373.6 122.15 372.86 114.96 372.15 107.73 371.76 100.52 371.26 93.31 370.68 86.1 370.24 78.91 369.41 71.68 369 64.42 368.78"/><polygon class="a" points="313.61 352.6 313.29 360.29 313.85 367.79 313.22 375.28 313.53 382.78 312.94 390.29 313.48 397.78 313.01 405.29 313.4 412.77 306.42 414.12 299.34 414.98 292.37 416.52 285.28 417.35 278.15 417.92 271.14 419.22 264.15 420.7 257 421.13 250.06 422.87 243 423.93 235.98 425.18 228.83 425.61 221.87 427.24 214.82 428.33 207.8 429.62 200.72 430.52 193.65 431.46 186.66 432.89 179.47 433.14 172.53 434.98 165.69 435.52 164.95 428.3 165.67 420.8 165.44 413.3 165.52 405.8 165.29 398.3 165.18 390.8 165.73 383.3 165.16 375.57 172.4 374.21 179.51 373.51 186.59 372.67 193.56 371.1 200.69 370.54 207.68 369.09 214.69 367.73 221.78 366.9 228.9 366.29 235.93 365.11 242.92 363.6 249.98 362.57 257.03 361.53 264.1 360.58 271.06 358.91 278.22 358.55 285.19 356.98 292.34 356.51 299.34 355.1 306.39 353.95 313.61 352.6"/><polygon class="b" points="313.61 352.6 313.29 360.29 313.85 367.79 313.22 375.28 313.53 382.78 312.94 390.29 313.48 397.78 313.01 405.29 313.4 412.77 306.42 414.12 299.34 414.98 292.37 416.52 285.28 417.35 278.15 417.92 271.14 419.22 264.15 420.7 257 421.13 250.06 422.87 243 423.93 235.98 425.18 228.83 425.61 221.87 427.24 214.82 428.33 207.8 429.62 200.72 430.52 193.65 431.46 186.66 432.89 179.47 433.14 172.53 434.98 165.69 435.52 164.95 428.3 165.67 420.8 165.44 413.3 165.52 405.8 165.29 398.3 165.18 390.8 165.73 383.3 165.16 375.57 172.4 374.21 179.51 373.51 186.59 372.67 193.56 371.1 200.69 370.54 207.68 369.09 214.69 367.73 221.78 366.9 228.9 366.29 235.93 365.11 242.92 363.6 249.98 362.57 257.03 361.53 264.1 360.58 271.06 358.91 278.22 358.55 285.19 356.98 292.34 356.51 299.34 355.1 306.39 353.95 313.61 352.6"/><polygon points="415.43 299.79 415.88 307.29 415.25 314.79 415.37 322.28 415.34 329.78 415.61 337.29 415.62 344.78 415.68 352.29 415.73 359.97 409.07 363.12 402.75 366.54 396.1 369.31 389.78 372.74 383.67 376.54 377 379.29 370.71 382.75 364.46 386.29 358.18 389.79 351.67 392.84 345.33 396.22 339.03 399.69 332.68 403.04 326.19 406.13 319.75 409.66 312.93 413.07 312.93 405.3 313.02 397.8 313.14 390.3 313.4 382.8 313.44 375.3 313.89 367.8 312.95 360.3 313.29 352.71 319.83 349.53 325.99 345.81 332.33 342.43 339.06 339.8 345.13 335.91 351.89 333.33 358.09 329.7 364.48 326.43 370.76 322.93 377.31 319.96 383.55 316.38 389.87 312.97 396.36 309.87 402.77 306.63 409.08 303.16 415.43 299.79"/><polygon class="b" points="415.43 299.79 415.88 307.29 415.25 314.79 415.37 322.28 415.34 329.78 415.61 337.29 415.62 344.78 415.68 352.29 415.73 359.97 409.07 363.12 402.75 366.54 396.1 369.31 389.78 372.74 383.67 376.54 377 379.29 370.71 382.75 364.46 386.29 358.18 389.79 351.67 392.84 345.33 396.22 339.03 399.69 332.68 403.04 326.19 406.13 320 409.66 313.43 413.07 313.43 405.3 313.27 397.8 313.26 390.3 313.47 382.8 313.47 375.3 313.91 367.8 312.95 360.3 313.29 352.71 319.83 349.53 325.99 345.81 332.33 342.43 339.06 339.8 345.13 335.91 351.89 333.33 358.09 329.7 364.48 326.43 370.76 322.93 377.31 319.96 383.55 316.38 389.87 312.97 396.36 309.87 402.77 306.63 409.08 303.16 415.43 299.79"/><polyline class="b" points="217.45 289.71 210.66 291.16 204.1 293.32 197.56 295.52 191.12 298.02 184.45 299.83 178 302.34 171.17 303.66 164.78 306.33 158.27 308.66 151.67 310.7 145.11 312.87 138.47 314.72 138.04 321.06 138.09 327.44 138.84 333.81 138.66 340.19"/><polygon class="a" points="209.12 316.01 209.34 308.6 209.69 301.5 209.44 294.41 208.94 287.32 209.08 280.23 209 273.13 209.64 266.04 209.83 258.95 208.94 251.85 209.23 244.76 209.29 237.66 209.21 230.57 209.84 223.47 209.54 216.38 209.01 209.28 209.61 202.18 209.29 195.09 209.79 187.99 209.66 180.89 209.89 173.79 209.68 166.69 209.65 159.59 209.82 152.5 209.37 145.4 209.88 138.3 209.56 131.21 209.03 124.11 209.29 117.01 209.65 109.91 209.64 102.8 209.64 95.9 216.68 95.48 223.93 96 231.18 95.42 238.43 96.02 245.68 96.19 252.92 95.56 260.18 95.88 267.42 95.98 274.67 95.72 281.92 95.62 289.17 95.28 296.42 95.98 303.67 96.1 310.92 95.33 318.18 95.81 325.15 95.98 325.74 102.79 325.4 109.88 325.79 116.97 325.85 124.06 325.55 131.16 325.41 138.25 325.17 145.34 325.2 152.44 325.04 159.53 325.17 166.63 324.98 173.72 325.42 180.82 325.93 187.91 325.72 195.01 325.51 202.11 325.03 209.2 325.83 216.3 325.79 223.4 325.73 230.5 325.02 237.59 325.83 244.69 325.9 251.79 325.76 258.89 325.57 265.98 325.14 273.08 325.4 280.18 325.4 287.28 325.5 294.38 325.34 301.48 325.18 308.59 325.54 315.81 318.19 315.63 310.94 315.76 303.69 315.29 296.44 315.43 289.19 315.53 281.94 316.01 274.69 315.34 267.45 315.22 260.2 315.66 252.95 315.78 245.7 315.75 238.45 315.67 231.2 315.59 223.95 315.28 216.7 316.1 209.12 316.01"/><polygon class="b" points="209.12 316.01 209.34 308.6 209.69 301.5 209.44 294.41 208.94 287.32 209.08 280.23 209 273.13 209.64 266.04 209.83 258.95 208.94 251.85 209.23 244.76 209.29 237.66 209.21 230.57 209.84 223.47 209.54 216.38 209.01 209.28 209.61 202.18 209.29 195.09 209.79 187.99 209.66 180.89 209.89 173.79 209.68 166.69 209.65 159.59 209.82 152.5 209.37 145.4 209.88 138.3 209.56 131.21 209.03 124.11 209.29 117.01 209.65 109.91 209.64 102.8 209.64 95.9 216.68 95.48 223.93 96 231.18 95.42 238.43 96.02 245.68 96.19 252.92 95.56 260.18 95.88 267.42 95.98 274.67 95.72 281.92 95.62 289.17 95.28 296.42 95.98 303.67 96.1 310.92 95.33 318.18 95.81 325.15 95.98 325.74 102.79 325.4 109.88 325.79 116.97 325.85 124.06 325.55 131.16 325.41 138.25 325.17 145.34 325.2 152.44 325.04 159.53 325.17 166.63 324.98 173.72 325.42 180.82 325.93 187.91 325.72 195.01 325.51 202.11 325.03 209.2 325.83 216.3 325.79 223.4 325.73 230.5 325.02 237.59 325.83 244.69 325.9 251.79 325.76 258.89 325.57 265.98 325.14 273.08 325.4 280.18 325.4 287.28 325.5 294.38 325.34 301.48 325.18 308.59 325.54 315.81 318.19 315.63 310.94 315.76 303.69 315.29 296.44 315.43 289.19 315.53 281.94 316.01 274.69 315.34 267.45 315.22 260.2 315.66 252.95 315.78 245.7 315.75 238.45 315.67 231.2 315.59 223.95 315.28 216.7 316.1 209.12 316.01"/><polygon class="a" points="190.52 328.61 190.81 321.6 190.83 314.5 190.71 307.41 190.3 300.32 190.28 293.23 190.64 286.13 190.63 279.04 190.29 271.95 189.96 264.85 190.53 257.76 190.22 250.66 190.11 243.57 190.74 236.47 190.47 229.38 190.06 222.28 190.24 215.18 190.92 208.09 190.11 200.99 189.99 193.89 190.92 186.79 190.87 179.69 190.06 172.59 190.69 165.5 190.6 158.4 189.96 151.3 190.16 144.21 190.75 137.1 190.08 130.01 190.07 122.91 190.55 115.8 190.25 108.51 197.62 108.22 204.8 108.73 211.99 109.1 219.18 108.22 226.36 108.73 233.55 108.37 240.74 108.64 247.92 108.78 255.11 108.47 262.29 108.48 269.48 108.97 276.67 108.84 283.85 108.34 291.04 108.59 298.24 108.59 305.46 108.67 305.12 115.79 305.4 122.88 304.96 129.97 305.01 137.06 304.94 144.16 305.14 151.25 305 158.34 305.55 165.44 305.81 172.53 305.91 179.63 305.13 186.72 305.02 193.82 305.55 200.91 305.05 208.01 305.93 215.11 305.27 222.2 305.12 229.3 305.07 236.4 305.24 243.5 305.93 250.59 305.36 257.69 305.33 264.79 305.77 271.89 305.56 278.98 305.03 286.08 305.69 293.18 305.43 300.28 305.72 307.38 305.05 314.48 305.03 321.59 305.74 329 298.25 329.09 291.06 328.56 283.88 329.08 276.69 328.95 269.5 328.76 262.32 329.16 255.13 328.81 247.95 328.81 240.76 328.56 233.57 328.7 226.39 328.58 219.2 329.07 212.01 328.7 204.82 328.21 197.63 328.54 190.52 328.61"/><polygon class="b" points="190.52 328.61 190.81 321.6 190.83 314.5 190.71 307.41 190.3 300.32 190.28 293.23 190.64 286.13 190.63 279.04 190.29 271.95 189.96 264.85 190.53 257.76 190.22 250.66 190.11 243.57 190.74 236.47 190.47 229.38 190.06 222.28 190.24 215.18 190.92 208.09 190.11 200.99 189.99 193.89 190.92 186.79 190.87 179.69 190.06 172.59 190.69 165.5 190.6 158.4 189.96 151.3 190.16 144.21 190.75 137.1 190.08 130.01 190.07 122.91 190.55 115.8 190.25 108.51 197.62 108.22 204.8 108.73 211.99 109.1 219.18 108.22 226.36 108.73 233.55 108.37 240.74 108.64 247.92 108.78 255.11 108.47 262.29 108.48 269.48 108.97 276.67 108.84 283.85 108.34 291.04 108.59 298.24 108.59 305.46 108.67 305.12 115.79 305.4 122.88 304.96 129.97 305.01 137.06 304.94 144.16 305.14 151.25 305 158.34 305.55 165.44 305.81 172.53 305.91 179.63 305.13 186.72 305.02 193.82 305.55 200.91 305.05 208.01 305.93 215.11 305.27 222.2 305.12 229.3 305.07 236.4 305.24 243.5 305.93 250.59 305.36 257.69 305.33 264.79 305.77 271.89 305.56 278.98 305.03 286.08 305.69 293.18 305.43 300.28 305.72 307.38 305.05 314.48 305.03 321.59 305.74 329 298.25 329.09 291.06 328.56 283.88 329.08 276.69 328.95 269.5 328.76 262.32 329.16 255.13 328.81 247.95 328.81 240.76 328.56 233.57 328.7 226.39 328.58 219.2 329.07 212.01 328.7 204.82 328.21 197.63 328.54 190.52 328.61"/><polygon points="189.26 218.86 196.62 218.29 203.81 219.04 210.99 218.42 218.18 218.41 225.37 218.77 232.55 218.58 239.74 218.57 246.93 218.84 254.11 219.01 261.3 218.3 268.49 218.57 275.68 219.17 282.86 219.02 290.06 219.12 297.25 218.72 304.77 219.01 304.89 211.36 304.05 204.03 304.79 196.7 304.87 189.37 304.54 182.03 304.15 174.7 304.26 167.37 304.59 160.04 304.99 152.71 304.38 145.37 304.54 138.04 305.08 130.71 304.32 123.37 304.75 116.03 305.2 108.38 297.69 108.99 290.5 108.89 283.31 108.59 276.12 108.95 268.93 108.45 261.74 108.49 254.54 108.51 247.18 108.53 246.97 115.81 247.06 122.94 246.84 130.06 247.06 137.18 247.36 144.31 246.81 151.43 246.82 158.56 247.15 165.93 239.73 165.93 232.55 166.06 225.37 165.71 218.18 165.35 211 165.35 203.82 165.91 196.63 165.34 189.79 166.03 189.34 173.26 189.42 180.83 189.34 188.4 189.69 195.97 189.77 203.54 189.12 211.11 189.26 218.86"/><polygon class="b" points="189.26 218.86 196.62 218.29 203.81 219.04 210.99 218.42 218.18 218.41 225.37 218.77 232.55 218.58 239.74 218.57 246.93 218.84 254.11 219.01 261.3 218.3 268.49 218.57 275.68 219.17 282.86 219.02 290.06 219.12 297.25 218.72 304.77 219.01 304.89 211.36 304.05 204.03 304.79 196.7 304.87 189.37 304.54 182.03 304.15 174.7 304.26 167.37 304.59 160.04 304.99 152.71 304.38 145.37 304.54 138.04 305.08 130.71 304.32 123.37 304.75 116.03 305.2 108.38 297.69 108.99 290.5 108.89 283.31 108.59 276.12 108.95 268.93 108.45 261.74 108.49 254.54 108.51 247.18 108.53 246.97 115.81 247.06 122.94 246.84 130.06 247.06 137.18 247.36 144.31 246.81 151.43 246.82 158.56 247.15 165.93 239.73 165.93 232.55 166.06 225.37 165.71 218.18 165.35 211 165.35 203.82 165.91 196.63 165.34 189.79 166.03 189.34 173.26 189.42 180.83 189.34 188.4 189.69 195.97 189.77 203.54 189.12 211.11 189.26 218.86"/><polygon class="a" points="246.72 165.34 239.78 165.91 232.65 165.23 225.51 165.17 218.37 165.43 211.24 165.77 204.1 165.84 196.96 165.35 189.89 165.46 189.5 158.4 189.34 151.27 189.43 144.13 189.56 136.99 189.38 129.86 190.17 122.72 189.5 115.58 189.71 108.33 196.95 108.57 204.08 108.27 211.22 108.08 218.35 108.52 225.49 108.65 232.63 108.06 239.77 108.11 246.87 108.48 246.56 115.57 247.1 122.7 246.9 129.84 246.93 136.97 247.02 144.11 246.62 151.25 246.86 158.39 246.72 165.34"/><polygon class="b" points="246.72 165.34 239.78 165.91 232.65 165.23 225.51 165.17 218.37 165.43 211.24 165.77 204.1 165.84 196.96 165.35 189.89 165.46 189.5 158.4 189.34 151.27 189.43 144.13 189.56 136.99 189.38 129.86 190.17 122.72 189.5 115.58 189.71 108.33 196.95 108.57 204.08 108.27 211.22 108.08 218.35 108.52 225.49 108.65 232.63 108.06 239.77 108.11 246.87 108.48 246.56 115.57 247.1 122.7 246.9 129.84 246.93 136.97 247.02 144.11 246.62 151.25 246.86 158.39 246.72 165.34"/><polygon class="a" points="247.63 271.08 254.53 271.14 261.72 270.6 268.91 271.27 276.1 270.54 283.29 270.99 290.48 270.74 297.68 270.36 304.79 270.88 304.62 277.99 304.61 285.18 304.47 292.36 305.11 299.56 304.41 306.74 304.63 313.93 305.34 321.13 304.62 328.07 297.69 328.81 290.5 328.72 283.31 328.14 276.12 328.23 268.93 328.32 261.74 328.15 254.54 328.07 247.17 328.5 247.3 321.14 247.56 313.95 247.31 306.76 246.92 299.57 247.39 292.39 247.63 285.19 247.03 277.99 247.63 271.08"/><polygon class="b" points="247.63 271.08 254.53 271.14 261.72 270.6 268.91 271.27 276.1 270.54 283.29 270.99 290.48 270.74 297.68 270.36 304.79 270.88 304.62 277.99 304.61 285.18 304.47 292.36 305.11 299.56 304.41 306.74 304.63 313.93 305.34 321.13 304.62 328.07 297.69 328.81 290.5 328.72 283.31 328.14 276.12 328.23 268.93 328.32 261.74 328.15 254.54 328.07 247.17 328.5 247.3 321.14 247.56 313.95 247.31 306.76 246.92 299.57 247.39 292.39 247.63 285.19 247.03 277.99 247.63 271.08"/><polygon class="a" points="215.64 134.26 223.58 134.16 231.36 134.15 239.14 134.21 247.19 134.15 247.2 142.2 246.63 149.98 247.26 157.76 247.23 165.85 239.14 165.27 231.37 166 223.59 165.17 215.61 165.73 216.31 157.76 216.28 149.99 215.39 142.21 215.64 134.26"/><polygon class="b" points="215.64 134.26 223.58 134.16 231.36 134.15 239.14 134.21 247.19 134.15 247.2 142.2 246.63 149.98 247.26 157.76 247.23 165.85 239.14 165.27 231.37 166 223.59 165.17 215.61 165.73 216.31 157.76 216.28 149.99 215.39 142.21 215.64 134.26"/><polygon points="247.31 328.81 254.65 329.1 261.87 328.81 269.1 328.26 276.11 328.48 275.98 321.45 275.88 314.2 276.01 306.95 276.37 299.94 283.19 299.63 290.27 299.28 297.36 299.83 304.42 299.66 304.3 292.7 304.7 285.7 304.45 278.69 304.56 272.01 297.7 272.05 290.52 271.99 283.34 271.66 276.16 271.87 268.99 271.47 261.81 272.17 254.62 271.54 247.17 271.43 247.02 278.81 247.37 285.94 247.86 293.06 247.81 300.18 247.9 307.3 247.47 314.43 247.28 321.56 247.31 328.81"/><polygon class="b" points="247.31 328.81 254.65 329.1 261.87 328.81 269.1 328.26 276.11 328.48 275.98 321.45 275.88 314.2 276.01 306.95 276.37 299.94 283.19 299.63 290.27 299.28 297.36 299.83 304.42 299.66 304.3 292.7 304.7 285.7 304.45 278.69 304.56 272.01 297.7 272.05 290.52 271.99 283.34 271.66 276.16 271.87 268.99 271.47 261.81 272.17 254.62 271.54 247.17 271.43 247.02 278.81 247.37 285.94 247.86 293.06 247.81 300.18 247.9 307.3 247.47 314.43 247.28 321.56 247.31 328.81"/><polygon class="a" points="305.24 328.42 311.84 324.21 318.77 320.08 325.15 315.38 325.13 308.23 325.2 300.92 325.9 293.61 325.61 286.3 325.06 278.98 325.92 271.67 325.48 264.36 325.39 257.05 325.05 249.73 325.82 242.42 325.85 235.1 325.37 227.79 325.19 220.48 325.29 213.16 325.89 205.85 325.15 198.53 325.62 191.21 325.74 183.9 325.37 176.58 325.53 169.26 325.74 161.94 325.84 154.63 325.84 147.31 325.59 140 325.1 132.68 325.13 125.36 325.4 118.04 325.25 110.72 325.88 103.4 325.44 96.07 318.22 95.8 311 95.89 303.78 95.94 296.56 96.04 289.34 95.74 282.12 95.69 274.89 96.06 267.68 95.86 260.46 95.66 253.24 95.59 246.02 95.59 238.79 95.37 231.57 96.16 224.35 95.88 217.12 95.35 209.87 95.72 203.27 100.18 196.28 104.04 189.83 108.69 196.97 108.52 204.13 108.4 211.3 108.9 218.46 109.17 225.63 109.05 232.79 108.83 239.96 109 247.12 108.22 254.28 108.99 261.44 109.17 268.61 109.14 275.77 108.78 282.93 109.16 290.1 108.32 297.27 108.72 304.69 108.45 304.65 115.79 304.63 122.88 304.19 129.97 304.2 137.06 304.94 144.15 305.01 151.25 304.2 158.34 304.55 165.43 304.41 172.53 304.23 179.62 305.06 186.72 304.47 193.81 304.96 200.91 305.1 208 304.77 215.1 304.9 222.19 304.81 229.29 304.55 236.39 304.52 243.49 305.18 250.58 304.95 257.68 305.12 264.78 304.5 271.87 304.93 278.97 304.74 286.07 305.36 293.16 304.8 300.26 304.81 307.36 305.08 314.46 305.27 321.57 305.24 328.42"/><polygon class="b" points="305.24 328.42 311.84 324.21 318.77 320.08 325.15 315.38 325.13 308.23 325.2 300.92 325.9 293.61 325.61 286.3 325.06 278.98 325.92 271.67 325.48 264.36 325.39 257.05 325.05 249.73 325.82 242.42 325.85 235.1 325.37 227.79 325.19 220.48 325.29 213.16 325.89 205.85 325.15 198.53 325.62 191.21 325.74 183.9 325.37 176.58 325.53 169.26 325.74 161.94 325.84 154.63 325.84 147.31 325.59 140 325.1 132.68 325.13 125.36 325.4 118.04 325.25 110.72 325.88 103.4 325.44 96.07 318.22 95.8 311 95.89 303.78 95.94 296.56 96.04 289.34 95.74 282.12 95.69 274.89 96.06 267.68 95.86 260.46 95.66 253.24 95.59 246.02 95.59 238.79 95.37 231.57 96.16 224.35 95.88 217.12 95.35 209.87 95.72 203.27 100.18 196.28 104.04 189.83 108.69 196.97 108.52 204.13 108.4 211.3 108.9 218.46 109.17 225.63 109.05 232.79 108.83 239.96 109 247.12 108.22 254.28 108.99 261.44 109.17 268.61 109.14 275.77 108.78 282.93 109.16 290.1 108.32 297.27 108.72 304.69 108.45 304.65 115.79 304.63 122.88 304.19 129.97 304.2 137.06 304.94 144.15 305.01 151.25 304.2 158.34 304.55 165.43 304.41 172.53 304.23 179.62 305.06 186.72 304.47 193.81 304.96 200.91 305.1 208 304.77 215.1 304.9 222.19 304.81 229.29 304.55 236.39 304.52 243.49 305.18 250.58 304.95 257.68 305.12 264.78 304.5 271.87 304.93 278.97 304.74 286.07 305.36 293.16 304.8 300.26 304.81 307.36 305.08 314.46 305.27 321.57 305.24 328.42"/><polygon points="304.33 108.29 310.94 104.25 317.56 99.99 324.66 96.18 317.29 96.12 310.1 96.32 302.91 95.86 295.72 96.14 288.53 96.5 281.34 95.99 274.15 95.99 266.96 96.45 259.77 96.45 252.58 96.46 245.39 96.15 238.2 95.97 231.01 96.07 223.81 96.23 216.61 96.28 209.38 95.72 202.61 99.71 196.62 104.82 190.28 108.62 196.97 108.42 204.13 108.91 211.3 108.95 218.46 108.99 225.63 108.41 232.79 108.55 239.96 108.27 247.12 108.66 254.28 109.1 261.44 108.33 268.61 108.32 275.77 108.45 282.93 108.78 290.1 109.05 297.27 108.54 304.33 108.29"/><polygon class="b" points="304.33 108.29 310.94 104.25 317.56 99.99 324.66 96.18 317.29 96.12 310.1 96.32 302.91 95.86 295.72 96.14 288.53 96.5 281.34 95.99 274.15 95.99 266.96 96.45 259.77 96.45 252.58 96.46 245.39 96.15 238.2 95.97 231.01 96.07 223.81 96.23 216.61 96.28 209.38 95.72 202.61 99.71 196.62 104.82 190.28 108.62 196.97 108.42 204.13 108.91 211.3 108.95 218.46 108.99 225.63 108.41 232.79 108.55 239.96 108.27 247.12 108.66 254.28 109.1 261.44 108.33 268.61 108.32 275.77 108.45 282.93 108.78 290.1 109.05 297.27 108.54 304.33 108.29"/></svg>