<svg id="Layer_1" data-name="Layer 1" xmlns="http://www.w3.org/2000/svg" viewBox="0 0 800 800"><defs><style>.cls-1{fill:#fff;}.cls-2,.cls-3{fill:none;stroke-linejoin:bevel;stroke-width:13px;}.cls-2{stroke:#000;}.cls-3{stroke:#fff;}</style></defs><title>canvas (77)</title><polygon class="cls-1" points="266.47 239.33 259.34 241.11 252.25 242.33 245.22 243.85 238.15 245.18 231.06 246.42 224.17 248.58 217.06 249.72 210.1 251.6 203.06 253.04 196 254.47 188.95 255.9 182 257.78 174.96 259.23 167.83 260.32 160.91 262.31 153.83 263.62 146.74 264.9 139.85 267.05 132.82 268.65 125.61 270.19 125.69 262.83 125.72 255.65 125.38 248.47 125.81 241.29 125.36 234.11 125.31 226.93 125.31 219.75 126.06 212.57 126.21 205.39 125.73 198.21 125.81 191.02 125.86 183.84 126.03 176.66 125.84 169.48 125.32 162.3 125.5 155.11 125.44 147.93 125.43 140.75 125.62 133.56 125.38 126.37 125.91 119.31 132.87 118.1 139.81 116.14 146.76 114.29 153.82 112.9 160.77 111.01 168 110.39 174.83 107.98 181.87 106.51 189.02 105.51 195.9 103.31 202.98 102.03 210.03 100.62 217.18 99.61 224 97.15 231.03 95.6 238.08 94.16 245.1 92.62 252.12 91.03 259.21 89.74 266.17 88.48 265.92 95.52 266.46 102.7 266.73 109.88 265.82 117.06 266.17 124.24 266.51 131.42 265.94 138.6 266.63 145.78 266.41 152.97 265.95 160.15 266.42 167.33 266.68 174.51 266.24 181.69 266.27 188.88 266.78 196.06 266.59 203.24 266.62 210.42 266.33 217.6 266.78 224.79 266.23 231.98 266.47 239.33"/><polygon class="cls-2" points="266.47 239.33 259.34 241.11 252.25 242.33 245.22 243.85 238.15 245.18 231.06 246.42 224.17 248.58 217.06 249.72 210.1 251.6 203.06 253.04 196 254.47 188.95 255.9 182 257.78 174.96 259.23 167.83 260.32 160.91 262.31 153.83 263.62 146.74 264.9 139.85 267.05 132.82 268.65 125.61 270.19 125.69 262.83 125.72 255.65 125.38 248.47 125.81 241.29 125.36 234.11 125.31 226.93 125.31 219.75 126.06 212.57 126.21 205.39 125.73 198.21 125.81 191.02 125.86 183.84 126.03 176.66 125.84 169.48 125.32 162.3 125.5 155.11 125.44 147.93 125.43 140.75 125.62 133.56 125.38 126.37 125.91 119.31 132.87 118.1 139.81 116.14 146.76 114.29 153.82 112.9 160.77 111.01 168 110.39 174.83 107.98 181.87 106.51 189.02 105.51 195.9 103.31 202.98 102.03 210.03 100.62 217.18 99.61 224 97.15 231.03 95.6 238.08 94.16 245.1 92.62 252.12 91.03 259.21 89.74 266.17 88.48 265.92 95.52 266.46 102.7 266.73 109.88 265.82 117.06 266.17 124.24 266.51 131.42 265.94 138.6 266.63 145.78 266.41 152.97 265.95 160.15 266.42 167.33 266.68 174.51 266.24 181.69 266.27 188.88 266.78 196.06 266.59 203.24 266.62 210.42 266.33 217.6 266.78 224.79 266.23 231.98 266.47 239.33"/><polygon points="369.11 350.29 361.88 351.9 354.81 353.21 347.7 354.36 340.84 356.64 333.82 358.23 326.69 359.28 319.63 360.69 312.6 362.19 305.62 363.94 298.6 365.52 291.55 366.97 284.55 368.6 277.57 370.35 270.58 372.06 263.51 373.38 256.53 375.16 249.4 376.23 242.31 377.51 235.31 379.21 228.05 381.24 228.33 373.73 228.22 366.56 228.12 359.38 228.41 352.2 228.63 345.01 228.3 337.84 228.43 330.65 228.11 323.47 228.66 316.29 228.81 309.11 228.66 301.93 228.5 294.74 228.25 287.56 228.62 280.38 228.47 273.2 228.36 266.02 228.1 258.83 228.51 251.65 228.55 244.47 228.39 237.28 228.05 229.87 235.43 228.96 242.37 227.04 249.31 225.1 256.5 224.35 263.45 222.47 270.51 221.06 277.4 218.92 284.55 217.93 291.46 215.84 298.56 214.66 305.68 213.53 312.63 211.67 319.71 210.35 326.61 208.24 333.67 206.84 340.68 205.25 347.65 203.45 354.82 202.55 361.89 201.15 368.88 199.2 369.22 206.42 368.89 213.6 369.17 220.78 369.2 227.96 368.5 235.14 369.23 242.32 368.83 249.5 368.82 256.69 368.85 263.87 368.48 271.05 368.98 278.23 369.02 285.42 368.36 292.6 368.85 299.78 369.12 306.96 369.09 314.14 368.82 321.33 369.29 328.51 369.15 335.69 369.27 342.88 369.11 350.29"/><polygon class="cls-3" points="369.11 350.29 361.88 351.9 354.81 353.21 347.7 354.36 340.84 356.64 333.82 358.23 326.69 359.28 319.63 360.69 312.6 362.19 305.62 363.94 298.6 365.52 291.55 366.97 284.55 368.6 277.57 370.35 270.58 372.06 263.51 373.38 256.53 375.16 249.4 376.23 242.31 377.51 235.31 379.21 228.05 381.24 228.33 373.73 228.22 366.56 228.12 359.38 228.41 352.2 228.63 345.01 228.3 337.84 228.43 330.65 228.11 323.47 228.66 316.29 228.81 309.11 228.66 301.93 228.5 294.74 228.25 287.56 228.62 280.38 228.47 273.2 228.36 266.02 228.1 258.83 228.51 251.65 228.55 244.47 228.39 237.28 228.05 229.87 235.43 228.96 242.37 227.04 249.31 225.1 256.5 224.35 263.45 222.47 270.51 221.06 277.4 218.92 284.55 217.93 291.46 215.84 298.56 214.66 305.68 213.53 312.63 211.67 319.71 210.35 326.61 208.24 333.67 206.84 340.68 205.25 347.65 203.45 354.82 202.55 361.89 201.15 368.88 199.2 369.22 206.42 368.89 213.6 369.17 220.78 369.2 227.96 368.5 235.14 369.23 242.32 368.83 249.5 368.82 256.69 368.85 263.87 368.48 271.05 368.98 278.23 369.02 285.42 368.36 292.6 368.85 299.78 369.12 306.96 369.09 314.14 368.82 321.33 369.29 328.51 369.15 335.69 369.27 342.88 369.11 350.29"/><polygon class="cls-1" points="470.37 459.92 463.32 461.79 456.27 463.19 449.16 464.35 442.06 465.54 435.22 467.94 428.19 469.44 421.19 471.09 414.08 472.26 407.01 473.61 399.95 475 392.87 476.32 385.85 477.88 378.89 479.68 371.82 481.06 364.79 482.56 357.77 484.15 350.92 486.5 343.82 487.71 336.81 489.35 329.7 490.68 329.8 483.48 329.57 476.3 329.79 469.12 330.01 461.94 329.48 454.76 330.21 447.58 330.21 440.4 329.37 433.22 329.62 426.03 329.56 418.85 329.65 411.67 329.7 404.49 329.87 397.31 330.21 390.13 329.71 382.94 329.68 375.76 329.76 368.58 329.83 361.4 329.3 354.21 329.79 347.02 329.46 339.62 336.68 337.99 343.68 336.33 350.77 335.1 357.72 333.25 364.76 331.78 371.92 330.84 378.86 328.89 385.83 327.09 392.84 325.47 400 324.55 406.91 322.46 413.92 320.85 420.94 319.31 427.98 317.84 435.14 316.9 442.21 315.57 449.08 313.3 456.2 312.17 463.15 310.25 470.56 308.61 470.59 316.17 470.6 323.35 470.7 330.53 469.97 337.71 470.14 344.89 470.54 352.07 470.33 359.25 470.36 366.43 470.59 373.61 470.64 380.8 470.64 387.98 470.64 395.16 469.79 402.34 470.48 409.52 470.25 416.7 470.18 423.89 470.04 431.07 469.75 438.25 470.19 445.44 469.94 452.63 470.37 459.92"/><polygon class="cls-2" points="470.37 459.92 463.32 461.79 456.27 463.19 449.16 464.35 442.06 465.54 435.22 467.94 428.19 469.44 421.19 471.09 414.08 472.26 407.01 473.61 399.95 475 392.87 476.32 385.85 477.88 378.89 479.68 371.82 481.06 364.79 482.56 357.77 484.15 350.92 486.5 343.82 487.71 336.81 489.35 329.7 490.68 329.8 483.48 329.57 476.3 329.79 469.12 330.01 461.94 329.48 454.76 330.21 447.58 330.21 440.4 329.37 433.22 329.62 426.03 329.56 418.85 329.65 411.67 329.7 404.49 329.87 397.31 330.21 390.13 329.71 382.94 329.68 375.76 329.76 368.58 329.83 361.4 329.3 354.21 329.79 347.02 329.46 339.62 336.68 337.99 343.68 336.33 350.77 335.1 357.72 333.25 364.76 331.78 371.92 330.84 378.86 328.89 385.83 327.09 392.84 325.47 400 324.55 406.91 322.46 413.92 320.85 420.94 319.31 427.98 317.84 435.14 316.9 442.21 315.57 449.08 313.3 456.2 312.17 463.15 310.25 470.56 308.61 470.59 316.17 470.6 323.35 470.7 330.53 469.97 337.71 470.14 344.89 470.54 352.07 470.33 359.25 470.36 366.43 470.59 373.61 470.64 380.8 470.64 387.98 470.64 395.16 469.79 402.34 470.48 409.52 470.25 416.7 470.18 423.89 470.04 431.07 469.75 438.25 470.19 445.44 469.94 452.63 470.37 459.92"/><polyline class="cls-3" points="188.44 176.32 195.01 179.73 201.51 183.1 207.99 186.59 213.75 191.16 219.44 195.79 224.98 200.6 230.72 205.22 235.67 210.65 240.51 216.16 245.58 221.46 250.29 227.09 254.78 232.89 259.08 238.83 264.13 244.23 268.11 250.41 272.47 256.33 276.05 262.76 280.18 268.84 284.09 275.06 287.83 281.39 290.86 288.12 294.99 294.1 298.31 300.54 302.31 306.57 305.95 312.83 309.32 319.27 313.72 325.05 317.84 331 322.5 336.55 326.19 342.84 330.77 348.47 336.06 353.47 340.58 359.13 345.5 364.43 350.67 369.5 356.16 374.21 361.09 379.57 367.02 383.76 372.81 388.13 379.2 391.56 385.57 394.95 392.18 397.92"/><polyline class="cls-2" points="196.11 178.83 202.73 182.06 209.42 185.1 215.64 189.01 221.61 193.31 227.38 197.85 233.13 202.44 238.54 207.43 243.46 212.9 248.35 218.37 253.72 223.42 258.3 229.16 262.35 235.32 267.02 240.98 271.56 246.76 275.33 253.07 280.12 258.69 283.57 265.2 287.61 271.34 291.25 277.71 295.21 283.9 299 290.2 302.62 296.47 306.35 302.67 309.53 309.2 313.22 315.43 317.27 321.44 321.32 327.45 325.96 333.03 330.14 338.93 334.36 344.81 338.45 350.82 343.8 355.77 348.1 361.63 353.25 366.73 358.01 372.21 363.88 376.52 369.24 381.38 374.64 386.21 380.89 389.91 386.77 394.15 393.08 397.73 399.84 400.48"/><polyline class="cls-1" points="400.36 385.33 399.71 392.3 400.13 399.24 400.46 406.19 401.21 413.13"/><polyline class="cls-2" points="400.36 385.33 399.71 392.3 400.13 399.24 400.46 406.19 401.21 413.13"/><polyline class="cls-1" points="195.66 165.59 195.92 172.54 196.47 179.48 197.09 186.42 197.05 193.38"/><polyline class="cls-2" points="195.66 165.59 195.92 172.54 196.47 179.48 197.09 186.42 197.05 193.38"/><polygon class="cls-1" points="469.93 459.89 463.16 461.27 456.29 463.52 449.31 465.27 442.18 466.33 435.12 467.71 428.17 469.59 421.11 470.95 414.02 472.21 407.01 473.83 399.94 475.19 392.91 476.7 386.05 478.99 378.91 480.02 371.99 482.04 364.93 483.43 357.79 484.44 350.87 486.45 343.87 488.17 336.77 489.42 329.76 491 329.83 483.83 329.59 476.65 330.24 469.47 329.55 462.29 329.76 455.11 330.15 447.93 329.78 440.75 329.51 433.57 329.92 426.39 329.47 419.2 330.02 412.02 329.5 404.84 329.49 397.66 330.18 390.48 330.09 383.3 329.53 376.11 329.88 368.93 330.07 361.75 329.78 354.56 329.46 347.37 329.71 340.15 336.85 339.01 343.82 337.22 350.8 335.47 357.81 333.88 364.77 332.02 371.82 330.61 378.96 329.56 386 328.07 393 326.45 400.02 324.88 406.97 322.95 414.01 321.5 420.98 319.69 428.15 318.82 435.18 317.31 442.24 315.91 449.13 313.75 456.29 312.79 463.27 311.01 470.45 309.13 470.31 316.52 469.95 323.7 469.91 330.88 469.84 338.06 470.15 345.24 469.98 352.42 470.38 359.6 470.63 366.78 470.2 373.97 470.35 381.15 470.73 388.33 470.61 395.51 469.92 402.69 470.02 409.88 470.25 417.06 469.85 424.24 470.66 431.42 470.78 438.6 470.44 445.79 469.82 452.97 469.93 459.89"/><polygon class="cls-2" points="469.93 459.89 463.16 461.27 456.29 463.52 449.31 465.27 442.18 466.33 435.12 467.71 428.17 469.59 421.11 470.95 414.02 472.21 407.01 473.83 399.94 475.19 392.91 476.7 386.05 478.99 378.91 480.02 371.99 482.04 364.93 483.43 357.79 484.44 350.87 486.45 343.87 488.17 336.77 489.42 329.76 491 329.83 483.83 329.59 476.65 330.24 469.47 329.55 462.29 329.76 455.11 330.15 447.93 329.78 440.75 329.51 433.57 329.92 426.39 329.47 419.2 330.02 412.02 329.5 404.84 329.49 397.66 330.18 390.48 330.09 383.3 329.53 376.11 329.88 368.93 330.07 361.75 329.78 354.56 329.46 347.37 329.71 340.15 336.85 339.01 343.82 337.22 350.8 335.47 357.81 333.88 364.77 332.02 371.82 330.61 378.96 329.56 386 328.07 393 326.45 400.02 324.88 406.97 322.95 414.01 321.5 420.98 319.69 428.15 318.82 435.18 317.31 442.24 315.91 449.13 313.75 456.29 312.79 463.27 311.01 470.45 309.13 470.31 316.52 469.95 323.7 469.91 330.88 469.84 338.06 470.15 345.24 469.98 352.42 470.38 359.6 470.63 366.78 470.2 373.97 470.35 381.15 470.73 388.33 470.61 395.51 469.92 402.69 470.02 409.88 470.25 417.06 469.85 424.24 470.66 431.42 470.78 438.6 470.44 445.79 469.82 452.97 469.93 459.89"/><polygon points="572.65 570.92 565.85 572.75 558.73 573.84 551.8 575.8 544.67 576.87 537.62 578.31 530.77 580.64 523.66 581.82 516.75 583.88 509.67 585.17 502.67 586.85 495.62 588.28 488.57 589.69 481.59 591.46 474.48 592.6 467.51 594.38 460.38 595.48 453.42 597.29 446.34 598.62 439.45 600.82 432.55 601.63 432.19 594.73 432.14 587.56 432.34 580.38 432.63 573.2 432.32 566.01 432.69 558.84 432.08 551.65 432.41 544.47 432.25 537.29 432.3 530.11 432.18 522.93 431.86 515.74 432.46 508.56 432.81 501.38 432.1 494.2 431.94 487.02 431.96 479.83 432.43 472.65 432.23 465.47 432.12 458.27 432.38 451.14 439.37 449.71 446.32 447.8 453.4 446.54 460.43 445.02 467.52 443.78 474.54 442.22 481.4 439.89 488.48 438.59 495.6 437.48 502.61 435.89 509.65 434.41 516.68 432.91 523.58 430.77 530.6 429.22 537.62 427.62 544.71 426.37 551.73 424.8 558.67 422.87 565.78 421.65 572.72 420.39 572.42 427.42 572.41 434.6 572.4 441.78 572.58 448.96 572.62 456.14 572.58 463.32 572.85 470.5 573.05 477.69 572.71 484.87 573.27 492.05 572.35 499.23 572.94 506.42 572.81 513.6 573.19 520.78 572.47 527.96 572.65 535.14 572.48 542.33 572.5 549.51 573.27 556.69 573.14 563.89 572.65 570.92"/><polygon class="cls-3" points="572.65 570.92 565.85 572.75 558.73 573.84 551.8 575.8 544.67 576.87 537.62 578.31 530.77 580.64 523.66 581.82 516.75 583.88 509.67 585.17 502.67 586.85 495.62 588.28 488.57 589.69 481.59 591.46 474.48 592.6 467.51 594.38 460.38 595.48 453.42 597.29 446.34 598.62 439.45 600.82 432.55 601.63 432.19 594.73 432.14 587.56 432.34 580.38 432.63 573.2 432.32 566.01 432.69 558.84 432.08 551.65 432.41 544.47 432.25 537.29 432.3 530.11 432.18 522.93 431.86 515.74 432.46 508.56 432.81 501.38 432.1 494.2 431.94 487.02 431.96 479.83 432.43 472.65 432.23 465.47 432.12 458.27 432.38 451.14 439.37 449.71 446.32 447.8 453.4 446.54 460.43 445.02 467.52 443.78 474.54 442.22 481.4 439.89 488.48 438.59 495.6 437.48 502.61 435.89 509.65 434.41 516.68 432.91 523.58 430.77 530.6 429.22 537.62 427.62 544.71 426.37 551.73 424.8 558.67 422.87 565.78 421.65 572.72 420.39 572.42 427.42 572.41 434.6 572.4 441.78 572.58 448.96 572.62 456.14 572.58 463.32 572.85 470.5 573.05 477.69 572.71 484.87 573.27 492.05 572.35 499.23 572.94 506.42 572.81 513.6 573.19 520.78 572.47 527.96 572.65 535.14 572.48 542.33 572.5 549.51 573.27 556.69 573.14 563.89 572.65 570.92"/><polygon class="cls-1" points="674.02 680.64 667.16 682.08 660.3 684.33 653.14 685.26 646.17 687.07 639.12 688.46 632.2 690.49 625.16 691.97 618.07 693.24 611.13 695.14 604.08 696.58 596.97 697.75 589.9 699.1 583.01 701.25 575.93 702.54 568.95 704.29 561.95 705.96 554.88 707.32 547.83 708.74 540.8 710.34 533.85 711.49 533.4 704.48 533.7 697.3 533.37 690.12 533.79 682.94 533.92 675.76 533.26 668.58 533.67 661.4 534.08 654.22 533.29 647.03 533.77 639.85 533.72 632.67 533.25 625.49 534.13 618.31 533.78 611.13 533.84 603.94 534.2 596.76 533.59 589.58 533.57 582.4 534.18 575.21 533.97 568.02 533.57 560.71 540.66 558.91 547.69 557.39 554.83 556.36 561.77 554.47 568.9 553.42 575.78 551.2 582.98 550.44 589.99 548.81 597 547.22 603.95 545.3 611.01 543.92 617.98 542.16 625.03 540.73 632.03 539.04 639.15 537.97 646.18 536.41 653.12 534.48 660.13 532.84 667.23 531.61 674.45 529.73 674.14 537.17 673.99 544.35 674.02 551.53 673.83 558.71 674.64 565.89 674.67 573.07 673.78 580.25 674.55 587.43 674.09 594.61 674.42 601.79 674.36 608.98 674.51 616.16 674.44 623.34 673.8 630.52 674.55 637.7 674.59 644.89 673.77 652.07 674.43 659.25 674.35 666.44 674.09 673.63 674.02 680.64"/><polygon class="cls-2" points="674.02 680.64 667.16 682.08 660.3 684.33 653.14 685.26 646.17 687.07 639.12 688.46 632.2 690.49 625.16 691.97 618.07 693.24 611.13 695.14 604.08 696.58 596.97 697.75 589.9 699.1 583.01 701.25 575.93 702.54 568.95 704.29 561.95 705.96 554.88 707.32 547.83 708.74 540.8 710.34 533.85 711.49 533.4 704.48 533.7 697.3 533.37 690.12 533.79 682.94 533.92 675.76 533.26 668.58 533.67 661.4 534.08 654.22 533.29 647.03 533.77 639.85 533.72 632.67 533.25 625.49 534.13 618.31 533.78 611.13 533.84 603.94 534.2 596.76 533.59 589.58 533.57 582.4 534.18 575.21 533.97 568.02 533.57 560.71 540.66 558.91 547.69 557.39 554.83 556.36 561.77 554.47 568.9 553.42 575.78 551.2 582.98 550.44 589.99 548.81 597 547.22 603.95 545.3 611.01 543.92 617.98 542.16 625.03 540.73 632.03 539.04 639.15 537.97 646.18 536.41 653.12 534.48 660.13 532.84 667.23 531.61 674.45 529.73 674.14 537.17 673.99 544.35 674.02 551.53 673.83 558.71 674.64 565.89 674.67 573.07 673.78 580.25 674.55 587.43 674.09 594.61 674.42 601.79 674.36 608.98 674.51 616.16 674.44 623.34 673.8 630.52 674.55 637.7 674.59 644.89 673.77 652.07 674.43 659.25 674.35 666.44 674.09 673.63 674.02 680.64"/><polyline class="cls-3" points="392.4 397.48 399.12 400.5 405.45 404.2 412 407.57 417.46 412.56 423.5 416.72 429.07 421.5 434.48 426.46 439.35 431.96 444.66 437.02 449.62 442.43 454.7 447.75 459.03 453.69 463.05 459.85 467.39 465.76 472.31 471.27 475.99 477.64 479.71 483.97 484.13 489.87 488.07 496.07 491.81 502.4 494.77 509.17 498.46 515.4 502.58 521.38 505.66 527.97 509.43 534.16 513.8 539.96 517.82 545.98 521.88 551.97 526.5 557.55 530.41 563.67 535.39 568.96 539.43 575.02 544.43 580.26 549.69 585.25 554.62 590.55 560.02 595.36 565.58 599.99 570.87 604.96 577.22 608.51 582.98 612.94 589.53 616.04 596.35 618.22"/><polyline class="cls-2" points="399.91 400.58 406.72 403.07 413.27 406.36 419.6 410.08 425.35 414.65 431.51 418.7 436.91 423.69 442.38 428.6 447.77 433.6 452.13 439.57 457.35 444.74 461.92 450.48 466.64 456.1 471.11 461.92 475.31 467.94 479.86 473.7 484.19 479.65 487.65 486.15 491.57 492.36 495.74 498.42 499.49 504.75 502.47 511.5 506.18 517.72 510.36 523.66 513.92 529.96 517.65 536.16 521.66 542.19 525.64 548.23 529.93 554.05 533.79 560.19 538.32 565.84 542.81 571.52 547.07 577.41 552.51 582.25 557.1 587.87 562.28 592.94 567.56 597.89 573.24 602.38 578.83 606.97 584.59 611.36 591.05 614.65 597.34 618.17 603.94 621.11"/><polyline class="cls-1" points="604.45 606.32 604.15 613.28 604.29 620.24 604.65 627.19 604.76 634.14"/><polyline class="cls-2" points="604.45 606.32 604.15 613.28 604.29 620.24 604.65 627.19 604.76 634.14"/><polyline class="cls-1" points="400.53 386.57 400.62 393.52 400.89 400.47 400.59 407.44 400.34 414.4"/><polyline class="cls-2" points="400.53 386.57 400.62 393.52 400.89 400.47 400.59 407.44 400.34 414.4"/></svg>