<svg xmlns="http://www.w3.org/2000/svg" viewBox="0 0 800 800"><defs><style>.a{fill:none;stroke:#000;stroke-linejoin:bevel;stroke-width:13px;}.b{fill:#fff;}</style></defs><title>canvas (28)</title><polygon class="a" points="707.13 588.31 699.77 588 692.59 587.93 685.41 588.48 678.23 587.88 671.05 588.47 663.87 588.79 656.69 588 649.51 588.48 642.33 588.61 635.14 588.08 627.97 588.25 620.78 588.81 613.6 588.42 606.42 588.2 599.24 588.65 592.06 588.19 584.88 588.46 577.7 587.88 570.51 588.04 563.33 588.14 556.15 588.82 548.97 587.86 541.79 588.29 534.61 587.93 527.43 588.05 520.25 588.78 513.07 588.34 505.89 588.15 498.71 588.58 491.53 588.8 484.35 588.21 477.17 588.7 469.99 588.3 462.81 588.69 455.62 588.29 448.44 588.25 441.26 588 434.07 588.47 426.89 588.42 419.7 587.85 412.52 588.37 405.33 588.71 398.15 588.02 390.97 588.48 383.78 587.95 376.6 588.5 369.41 587.86 362.23 588.26 355.05 588.16 347.86 587.94 340.66 588.67 333.46 588.3 326.69 591.01 319.85 593.53 312.86 595.62 306.15 598.51 299.2 600.72 292.36 603.23 285.36 605.29 278.67 608.2 271.9 610.9 265 613.27 258.04 615.44 251.07 617.57 244.31 620.33 237.44 622.74 230.71 625.57 223.62 627.4 216.79 629.94 210.11 632.89 203.12 634.99 196.49 638.1 189.63 640.57 182.65 642.69 175.88 645.41 169.07 648.02 162.02 649.96 155.29 652.8 148.37 655.1 141.43 657.34 134.77 660.35 127.91 662.83 121.04 665.26 113.94 667.06 107.1 669.62 100.33 672.35 93.52 674.84 100.65 674.69 107.83 674.76 115.01 675.24 122.19 674.63 129.37 675.03 136.55 674.58 143.73 674.89 150.91 674.97 158.09 675.01 165.27 674.52 172.45 674.95 179.63 675.09 186.82 674.76 194 675.15 201.18 675.08 208.36 674.54 215.54 674.46 222.72 674.53 229.91 675.23 237.09 674.65 244.27 674.43 251.45 674.52 258.63 675.12 265.81 674.86 272.99 675.19 280.17 674.7 287.35 674.66 294.53 674.66 301.71 675.33 308.89 674.38 316.07 675.08 323.25 674.66 330.43 674.75 337.61 674.97 344.8 674.87 351.98 674.45 359.16 675.22 366.35 675.08 373.53 674.43 380.71 674.64 387.9 674.69 395.08 674.64 402.27 674.45 409.45 675.1 416.64 674.38 423.82 674.57 431 674.9 438.19 674.38 445.37 675.04 452.56 674.99 459.76 674.76 466.91 674.59 473.68 672.02 480.64 669.84 487.65 667.79 494.32 664.8 501.15 662.26 507.92 659.55 514.87 657.36 521.94 655.49 528.8 653.05 535.34 649.7 542.34 647.63 549.34 645.58 556.19 643.08 562.81 639.96 569.81 637.88 576.62 635.3 583.4 632.61 590.33 630.34 597.29 628.15 604.04 625.4 610.91 622.94 617.68 620.23 624.68 618.15 631.35 615.16 638.51 613.53 645.21 610.6 652.17 608.42 658.81 605.35 665.65 602.82 672.69 600.85 679.49 598.22 686.24 595.43 693.38 593.73 699.94 590.4 707.13 588.31"/><polygon class="b" points="707.05 580.32 699.77 580.61 692.59 580.55 685.41 580.44 678.23 580.64 671.05 580.44 663.87 580.06 656.69 580.52 649.51 580.06 642.33 579.86 635.14 580.26 627.97 580.7 620.78 579.85 613.6 580.78 606.42 580.18 599.24 580.81 592.06 580 584.88 580.48 577.7 580.15 570.51 580.16 563.33 580.38 556.15 579.94 548.97 580.02 541.79 580.03 534.61 580.77 527.43 580.77 520.25 579.91 513.07 580.7 505.89 580.33 498.71 580.27 491.53 580.06 484.35 579.98 477.17 580 469.99 580.8 462.81 580.81 455.62 580.5 448.44 580.28 441.26 580.14 434.07 580.24 426.89 580.78 419.7 580.15 412.52 580.02 405.33 580.5 398.15 580.48 390.97 580.29 383.78 580.36 376.6 580.38 369.41 580.6 362.23 580.6 355.05 580.52 347.86 580.04 340.66 580.32 333.42 580.04 326.56 582.66 319.88 585.62 312.79 587.42 306.21 590.67 299.04 592.26 292.2 594.8 285.4 597.4 278.53 599.83 271.68 602.31 264.98 605.22 258.22 607.94 251.33 610.31 244.46 612.74 237.54 615.02 230.72 617.59 223.71 619.65 216.77 621.88 209.96 624.49 203.37 627.7 196.23 629.38 189.54 632.32 182.79 635.1 175.66 636.81 169.06 640 161.91 641.65 155.11 644.31 148.2 646.61 141.64 649.91 134.78 652.38 127.92 654.85 121.05 657.3 114.22 659.86 107.17 661.79 100.36 664.43 92.99 666.91 100.65 666.83 107.83 666.98 115.01 666.95 122.19 666.76 129.37 666.79 136.55 666.88 143.73 666.43 150.91 667.17 158.09 667.21 165.27 666.5 172.45 667.16 179.63 666.51 186.82 666.67 194 666.89 201.18 667.12 208.36 667.11 215.54 666.5 222.72 666.38 229.91 666.66 237.09 666.73 244.27 666.95 251.45 666.43 258.63 667.26 265.81 667.22 272.99 666.71 280.17 666.95 287.35 666.36 294.53 667.03 301.71 666.45 308.89 666.57 316.07 667.06 323.25 667.04 330.43 666.69 337.61 666.64 344.8 666.4 351.98 666.97 359.16 666.57 366.35 667.32 373.53 666.87 380.71 666.65 387.9 666.87 395.08 666.53 402.27 666.97 409.45 666.77 416.64 666.95 423.82 667.31 431 666.41 438.19 667.03 445.37 666.78 452.56 667.15 459.76 666.89 466.88 666.47 473.84 664.46 480.68 661.95 487.51 659.42 494.39 657.02 501.12 654.18 508.09 652.02 515.06 649.88 521.95 647.52 528.69 644.75 535.41 641.9 542.31 639.55 549.22 637.24 556.12 634.88 563.08 632.71 569.68 629.52 576.59 627.22 583.5 624.89 590.36 622.43 597.22 619.97 604.13 617.62 611.04 615.32 617.74 612.39 624.51 609.67 631.37 607.2 638.37 605.13 645.1 602.3 652.19 600.48 658.9 597.6 665.92 595.58 672.7 592.88 679.39 589.93 686.5 588.15 693.18 585.17 700.1 582.86 707.05 580.32"/><polygon class="a" points="707.05 580.32 699.77 580.61 692.59 580.55 685.41 580.44 678.23 580.64 671.05 580.44 663.87 580.06 656.69 580.52 649.51 580.06 642.33 579.86 635.14 580.26 627.97 580.7 620.78 579.85 613.6 580.78 606.42 580.18 599.24 580.81 592.06 580 584.88 580.48 577.7 580.15 570.51 580.16 563.33 580.38 556.15 579.94 548.97 580.02 541.79 580.03 534.61 580.77 527.43 580.77 520.25 579.91 513.07 580.7 505.89 580.33 498.71 580.27 491.53 580.06 484.35 579.98 477.17 580 469.99 580.8 462.81 580.81 455.62 580.5 448.44 580.28 441.26 580.14 434.07 580.24 426.89 580.78 419.7 580.15 412.52 580.02 405.33 580.5 398.15 580.48 390.97 580.29 383.78 580.36 376.6 580.38 369.41 580.6 362.23 580.6 355.05 580.52 347.86 580.04 340.66 580.32 333.42 580.04 326.56 582.66 319.88 585.62 312.79 587.42 306.21 590.67 299.04 592.26 292.2 594.8 285.4 597.4 278.53 599.83 271.68 602.31 264.98 605.22 258.22 607.94 251.33 610.31 244.46 612.74 237.54 615.02 230.72 617.59 223.71 619.65 216.77 621.88 209.96 624.49 203.37 627.7 196.23 629.38 189.54 632.32 182.79 635.1 175.66 636.81 169.06 640 161.91 641.65 155.11 644.31 148.2 646.61 141.64 649.91 134.78 652.38 127.92 654.85 121.05 657.3 114.22 659.86 107.17 661.79 100.36 664.43 92.99 666.91 100.65 666.83 107.83 666.98 115.01 666.95 122.19 666.76 129.37 666.79 136.55 666.88 143.73 666.43 150.91 667.17 158.09 667.21 165.27 666.5 172.45 667.16 179.63 666.51 186.82 666.67 194 666.89 201.18 667.12 208.36 667.11 215.54 666.5 222.72 666.38 229.91 666.66 237.09 666.73 244.27 666.95 251.45 666.43 258.63 667.26 265.81 667.22 272.99 666.71 280.17 666.95 287.35 666.36 294.53 667.03 301.71 666.45 308.89 666.57 316.07 667.06 323.25 667.04 330.43 666.69 337.61 666.64 344.8 666.4 351.98 666.97 359.16 666.57 366.35 667.32 373.53 666.87 380.71 666.65 387.9 666.87 395.08 666.53 402.27 666.97 409.45 666.77 416.64 666.95 423.82 667.31 431 666.41 438.19 667.03 445.37 666.78 452.56 667.15 459.76 666.89 466.88 666.47 473.84 664.46 480.68 661.95 487.51 659.42 494.39 657.02 501.12 654.18 508.09 652.02 515.06 649.88 521.95 647.52 528.69 644.75 535.41 641.9 542.31 639.55 549.22 637.24 556.12 634.88 563.08 632.71 569.68 629.52 576.59 627.22 583.5 624.89 590.36 622.43 597.22 619.97 604.13 617.62 611.04 615.32 617.74 612.39 624.51 609.67 631.37 607.2 638.37 605.13 645.1 602.3 652.19 600.48 658.9 597.6 665.92 595.58 672.7 592.88 679.39 589.93 686.5 588.15 693.18 585.17 700.1 582.86 707.05 580.32"/><polygon class="a" points="706.98 439.58 699.77 439.1 692.59 439.24 685.41 439.32 678.23 439.38 671.05 439.61 663.87 439.58 656.69 439.48 649.51 439.83 642.33 439.15 635.14 439.9 627.97 439.39 620.78 439.52 613.6 439.56 606.42 439.49 599.24 439.94 592.06 439.84 584.88 439.72 577.7 439.86 570.51 439.37 563.33 439.18 556.15 439.1 548.97 439.53 541.79 439.49 534.61 439.46 527.43 440.05 520.25 439.71 513.07 439.29 505.89 439.32 498.71 439.59 491.53 439.67 484.35 439.96 477.17 440.08 469.99 439.17 462.81 440.04 455.62 439.96 448.44 439.98 441.26 439.31 434.07 439.88 426.89 439.45 419.7 439.73 412.52 439.53 405.33 439.72 398.15 439.59 390.97 439.93 383.78 439.42 376.6 439.45 369.41 439.84 362.23 439.32 355.05 439.3 347.86 439.26 340.66 439.14 333.45 439.46 326.57 441.95 319.71 444.39 312.99 447.25 306.16 449.78 299.06 451.59 292.25 454.19 285.37 456.58 278.53 459.06 271.82 461.94 264.8 463.97 258.15 467 251.12 468.97 244.2 471.27 237.45 474.02 230.71 476.82 223.78 479.08 217.02 481.82 209.96 483.74 203.06 486.08 196.34 488.94 189.36 491.06 182.61 493.84 175.9 496.73 169.08 499.32 162.04 501.28 155.24 503.92 148.47 506.63 141.5 508.79 134.58 511.09 127.89 514.03 121.09 516.67 114.02 518.54 107.12 520.92 100.32 523.59 93.06 526.15 100.65 526.28 107.83 526.21 115.01 526.15 122.19 526.35 129.37 525.9 136.55 525.91 143.73 525.95 150.91 526.18 158.09 526.02 165.27 526.35 172.45 525.93 179.63 526.3 186.82 525.79 194 526.45 201.18 526.58 208.36 526.42 215.54 525.71 222.72 525.61 229.91 525.96 237.09 526.43 244.27 526.52 251.45 526.48 258.63 525.77 265.81 525.71 272.99 526.59 280.17 526.57 287.35 525.89 294.53 526.05 301.71 526.46 308.89 525.96 316.07 526.5 323.25 526.29 330.43 526.44 337.61 526.54 344.8 525.67 351.98 525.9 359.16 525.73 366.35 526.01 373.53 526.38 380.71 526.34 387.9 526.06 395.08 526.09 402.27 525.96 409.45 526.6 416.64 526.24 423.82 526.15 431 525.96 438.19 525.68 445.37 525.71 452.56 525.84 459.76 526.33 467.01 526.47 473.93 523.97 480.55 520.84 487.46 518.54 494.26 515.9 501.32 513.99 507.97 510.96 515.04 509.1 521.68 506.02 528.69 503.98 535.5 501.38 542.39 499.02 549.19 496.41 555.98 493.76 562.8 491.18 569.71 488.85 576.65 486.64 583.53 484.23 590.47 481.98 597.09 478.84 603.96 476.41 610.87 474.1 617.94 472.19 624.73 469.55 631.4 466.56 638.51 464.77 645.19 461.81 652.23 459.83 658.96 457 665.84 454.59 672.71 452.16 679.52 449.56 686.21 446.61 693.2 444.5 699.98 441.78 706.98 439.58"/><polygon class="b" points="706.94 431.59 699.77 431.18 692.59 431.73 685.41 431.32 678.23 431.46 671.05 431.21 663.87 431.47 656.69 431.19 649.51 431.89 642.33 431.93 635.14 431.29 627.97 431.22 620.78 432.05 613.6 431.22 606.42 431.42 599.24 431.31 592.06 431.29 584.88 431.77 577.7 431.42 570.51 431.82 563.33 432.03 556.15 431.27 548.97 431.9 541.79 431.42 534.61 431.26 527.43 431.97 520.25 431.58 513.07 431.79 505.89 431.34 498.71 431.81 491.53 431.72 484.35 431.31 477.17 431.31 469.99 431.83 462.81 431.44 455.62 431.76 448.44 431.62 441.26 431.91 434.07 432.04 426.89 431.44 419.7 431.5 412.52 431.59 405.33 431.73 398.15 431.55 390.97 431.71 383.78 432.04 376.6 431.87 369.41 431.38 362.23 432.07 355.05 431.97 347.86 431.3 340.66 431.99 333.44 431.4 326.56 433.91 319.77 436.58 313.05 439.4 305.93 441.15 299.12 443.75 292.23 446.12 285.4 448.67 278.5 451 271.93 454.25 265.03 456.61 257.95 458.45 251.36 461.65 244.39 463.81 237.42 465.95 230.62 468.58 223.71 470.89 216.8 473.22 209.98 475.79 203.19 478.44 196.26 480.7 189.54 483.57 182.5 485.55 175.78 488.38 168.99 491.04 162.15 493.58 155.12 495.59 148.34 498.27 141.56 500.94 134.8 503.7 127.88 506.01 120.77 507.79 113.97 510.42 107.09 512.85 100.35 515.66 93.29 518.13 100.65 518.2 107.83 518.53 115.01 517.84 122.19 518.13 129.37 518.49 136.55 517.81 143.73 518.57 150.91 518.28 158.09 517.61 165.27 518.42 172.45 518.35 179.63 518.53 186.82 518.43 194 517.65 201.18 518.32 208.36 518.51 215.54 518.48 222.72 518.19 229.91 518.19 237.09 518.06 244.27 518.09 251.45 517.76 258.63 517.65 265.81 518.54 272.99 518.41 280.17 518.33 287.35 518.34 294.53 517.84 301.71 518.39 308.89 517.82 316.07 518.17 323.25 518.02 330.43 518.52 337.61 517.74 344.8 517.68 351.98 518.38 359.16 518.5 366.35 518.34 373.53 518.07 380.71 517.85 387.9 518.59 395.08 517.94 402.27 517.79 409.45 518.48 416.64 517.86 423.82 518.05 431 518.25 438.19 517.87 445.37 518.03 452.56 517.67 459.76 518.47 467.02 518.51 473.82 515.66 480.53 512.8 487.6 510.93 494.25 507.88 501.11 505.42 507.98 502.98 514.99 500.94 521.8 498.37 528.61 495.77 535.54 493.5 542.21 490.52 549.3 488.73 556.01 485.85 562.76 483.08 569.64 480.66 576.69 478.74 583.41 475.88 590.33 473.61 597.14 471.01 603.92 468.3 610.78 465.85 617.65 463.39 624.49 460.86 631.32 458.32 638.46 456.63 645.3 454.12 652.01 451.24 658.75 448.43 665.91 446.79 672.54 443.7 679.59 441.73 686.4 439.15 693.2 436.48 700.05 433.96 706.94 431.59"/><polygon class="a" points="706.94 431.59 699.77 431.18 692.59 431.73 685.41 431.32 678.23 431.46 671.05 431.21 663.87 431.47 656.69 431.19 649.51 431.89 642.33 431.93 635.14 431.29 627.97 431.22 620.78 432.05 613.6 431.22 606.42 431.42 599.24 431.31 592.06 431.29 584.88 431.77 577.7 431.42 570.51 431.82 563.33 432.03 556.15 431.27 548.97 431.9 541.79 431.42 534.61 431.26 527.43 431.97 520.25 431.58 513.07 431.79 505.89 431.34 498.71 431.81 491.53 431.72 484.35 431.31 477.17 431.31 469.99 431.83 462.81 431.44 455.62 431.76 448.44 431.62 441.26 431.91 434.07 432.04 426.89 431.44 419.7 431.5 412.52 431.59 405.33 431.73 398.15 431.55 390.97 431.71 383.78 432.04 376.6 431.87 369.41 431.38 362.23 432.07 355.05 431.97 347.86 431.3 340.66 431.99 333.44 431.4 326.56 433.91 319.77 436.58 313.05 439.4 305.93 441.15 299.12 443.75 292.23 446.12 285.4 448.67 278.5 451 271.93 454.25 265.03 456.61 257.95 458.45 251.36 461.65 244.39 463.81 237.42 465.95 230.62 468.58 223.71 470.89 216.8 473.22 209.98 475.79 203.19 478.44 196.26 480.7 189.54 483.57 182.5 485.55 175.78 488.38 168.99 491.04 162.15 493.58 155.12 495.59 148.34 498.27 141.56 500.94 134.8 503.7 127.88 506.01 120.77 507.79 113.97 510.42 107.09 512.85 100.35 515.66 93.29 518.13 100.65 518.2 107.83 518.53 115.01 517.84 122.19 518.13 129.37 518.49 136.55 517.81 143.73 518.57 150.91 518.28 158.09 517.61 165.27 518.42 172.45 518.35 179.63 518.53 186.82 518.43 194 517.65 201.18 518.32 208.36 518.51 215.54 518.48 222.72 518.19 229.91 518.19 237.09 518.06 244.27 518.09 251.45 517.76 258.63 517.65 265.81 518.54 272.99 518.41 280.17 518.33 287.35 518.34 294.53 517.84 301.71 518.39 308.89 517.82 316.07 518.17 323.25 518.02 330.43 518.52 337.61 517.74 344.8 517.68 351.98 518.38 359.16 518.5 366.35 518.34 373.53 518.07 380.71 517.85 387.9 518.59 395.08 517.94 402.27 517.79 409.45 518.48 416.64 517.86 423.82 518.05 431 518.25 438.19 517.87 445.37 518.03 452.56 517.67 459.76 518.47 467.02 518.51 473.82 515.66 480.53 512.8 487.6 510.93 494.25 507.88 501.11 505.42 507.98 502.98 514.99 500.94 521.8 498.37 528.61 495.77 535.54 493.5 542.21 490.52 549.3 488.73 556.01 485.85 562.76 483.08 569.64 480.66 576.69 478.74 583.41 475.88 590.33 473.61 597.14 471.01 603.92 468.3 610.78 465.85 617.65 463.39 624.49 460.86 631.32 458.32 638.46 456.63 645.3 454.12 652.01 451.24 658.75 448.43 665.91 446.79 672.54 443.7 679.59 441.73 686.4 439.15 693.2 436.48 700.05 433.96 706.94 431.59"/><polygon class="a" points="707.36 290.79 699.77 291.15 692.59 291.32 685.41 290.82 678.23 290.76 671.05 291.17 663.87 290.89 656.69 290.72 649.51 291.19 642.33 290.62 635.14 291.23 627.97 290.6 620.78 291.26 613.6 291.05 606.42 291.26 599.24 290.99 592.06 290.95 584.88 290.42 577.7 291.14 570.51 291.22 563.33 291.08 556.15 291.18 548.97 291 541.79 290.46 534.61 290.74 527.43 291.23 520.25 290.64 513.07 290.54 505.89 290.7 498.71 291.1 491.53 290.42 484.35 291.02 477.17 291.34 469.99 291.21 462.81 291.14 455.62 290.93 448.44 291.18 441.26 290.69 434.07 291.18 426.89 290.49 419.7 290.46 412.52 290.58 405.33 290.69 398.15 291.3 390.97 290.89 383.78 290.93 376.6 291.15 369.41 290.44 362.23 291.03 355.05 290.61 347.86 290.95 340.66 290.7 333.39 290.38 326.75 293.7 319.63 295.43 312.83 298.06 305.97 300.53 299.02 302.73 292.46 306.02 285.38 307.86 278.78 311.03 271.7 312.88 264.83 315.31 258.14 318.23 251.26 320.61 244.41 323.1 237.44 325.24 230.53 327.57 223.69 330.08 217.03 333.12 210 335.09 203.14 337.56 196.28 340.02 189.49 342.7 182.54 344.91 175.82 347.75 168.79 349.75 162.22 353.03 155.13 354.87 148.19 357.11 141.43 359.86 134.59 362.38 127.76 364.94 121 367.67 114.15 370.16 107.22 372.45 100.44 375.17 93.17 377.39 100.65 377.38 107.83 377.74 115.01 377.68 122.19 377.47 129.37 377.25 136.55 377.58 143.73 377.23 150.91 377.12 158.09 376.88 165.27 377.61 172.45 377.52 179.63 377.55 186.82 376.93 194 377.1 201.18 377.56 208.36 377.46 215.54 377.12 222.72 377.47 229.91 377.32 237.09 377.69 244.27 377.28 251.45 377.51 258.63 377.7 265.81 377.25 272.99 377.15 280.17 377.45 287.35 377.82 294.53 377.67 301.71 377.01 308.89 377.3 316.07 377.53 323.25 377 330.43 377.63 337.61 377.71 344.8 377.09 351.98 377.48 359.16 377.41 366.35 377.81 373.53 377.06 380.71 377.04 387.9 377.28 395.08 377.16 402.27 377.31 409.45 377.49 416.64 377.27 423.82 377.55 431 377.14 438.19 376.92 445.37 377.21 452.56 377.46 459.76 377.48 466.87 376.92 473.9 375.14 480.54 372.09 487.43 369.71 494.28 367.21 501.16 364.8 508.12 362.61 514.8 359.67 521.91 357.92 528.68 355.23 535.6 352.94 542.32 350.08 549.05 347.27 556.11 345.37 562.78 342.38 569.61 339.83 576.47 337.38 583.44 335.23 590.4 333.04 597.16 330.3 603.99 327.77 610.91 325.46 617.63 322.6 624.68 320.66 631.39 317.77 638.28 315.39 645.08 312.74 652.04 310.56 658.79 307.8 665.77 305.65 672.54 302.95 679.51 300.79 686.42 298.46 693.33 296.09 699.96 292.97 707.36 290.79"/><polygon class="b" points="706.63 282.88 699.77 282.85 692.59 282.45 685.41 282.47 678.23 283.17 671.05 283 663.87 283.14 656.69 283.05 649.51 282.99 642.33 282.95 635.14 282.51 627.97 282.38 620.78 282.57 613.6 282.6 606.42 282.79 599.24 282.9 592.06 283.23 584.88 282.81 577.7 283.17 570.51 282.36 563.33 283.2 556.15 282.47 548.97 283.04 541.79 282.61 534.61 282.73 527.43 282.5 520.25 282.87 513.07 282.68 505.89 283.03 498.71 283.14 491.53 283.3 484.35 283.14 477.17 282.82 469.99 283.05 462.81 283.32 455.62 283.11 448.44 282.71 441.26 282.59 434.07 283.29 426.89 282.77 419.7 282.4 412.52 282.62 405.33 282.56 398.15 282.94 390.97 282.64 383.78 283.33 376.6 282.54 369.41 282.41 362.23 283.13 355.05 282.41 347.86 282.98 340.66 282.65 333.54 283.24 326.69 285.51 319.84 288 312.83 290.04 306.01 292.62 299.28 295.45 292.24 297.42 285.6 300.46 278.8 303.07 271.81 305.16 265.03 307.85 258.16 310.27 251.07 312.1 244.43 315.16 237.67 317.88 230.63 319.86 223.72 322.19 216.83 324.56 210.22 327.69 203.28 329.94 196.26 331.98 189.53 334.79 182.56 336.98 175.72 339.47 168.79 341.75 161.94 344.25 155.26 347.22 148.3 349.4 141.6 352.33 134.72 354.73 127.77 356.95 120.9 359.4 114.19 362.28 107.37 364.86 100.18 366.46 93.76 369.32 100.65 369.29 107.83 369.53 115.01 369.1 122.19 369.01 129.37 369.46 136.55 369.38 143.73 369.02 150.91 368.98 158.09 369.17 165.27 369.06 172.45 368.95 179.63 369.26 186.82 369.33 194 369.28 201.18 369.13 208.36 368.98 215.54 368.92 222.72 369.71 229.91 369.66 237.09 368.92 244.27 369.42 251.45 369.15 258.63 369.77 265.81 368.98 272.99 368.97 280.17 369.05 287.35 369.23 294.53 368.87 301.71 369 308.89 369.5 316.07 369.36 323.25 369.11 330.43 369.64 337.61 369.75 344.8 369.8 351.98 368.92 359.16 369.42 366.35 369.42 373.53 369.23 380.71 369.16 387.9 369.73 395.08 369.42 402.27 369.27 409.45 368.86 416.64 369.57 423.82 369.7 431 369.79 438.19 369.38 445.37 368.92 452.56 368.94 459.76 369.83 466.88 368.98 473.79 366.84 480.63 364.32 487.54 362.01 494.46 359.71 501.13 356.74 507.97 354.22 514.94 352.07 521.63 349.14 528.75 347.4 535.36 344.26 542.37 342.22 549.04 339.24 556.1 337.35 562.9 334.71 569.9 332.66 576.76 330.2 583.34 326.96 590.49 325.28 597.26 322.57 604 319.8 611.07 317.9 617.87 315.26 624.49 312.13 631.36 309.69 638.49 307.98 645.27 305.27 652.21 303.03 658.84 299.92 665.73 297.53 672.51 294.85 679.42 292.51 686.25 289.99 693.1 287.46 700.18 285.57 706.63 282.88"/><polygon class="a" points="706.63 282.88 699.77 282.85 692.59 282.45 685.41 282.47 678.23 283.17 671.05 283 663.87 283.14 656.69 283.05 649.51 282.99 642.33 282.95 635.14 282.51 627.97 282.38 620.78 282.57 613.6 282.6 606.42 282.79 599.24 282.9 592.06 283.23 584.88 282.81 577.7 283.17 570.51 282.36 563.33 283.2 556.15 282.47 548.97 283.04 541.79 282.61 534.61 282.73 527.43 282.5 520.25 282.87 513.07 282.68 505.89 283.03 498.71 283.14 491.53 283.3 484.35 283.14 477.17 282.82 469.99 283.05 462.81 283.32 455.62 283.11 448.44 282.71 441.26 282.59 434.07 283.29 426.89 282.77 419.7 282.4 412.52 282.62 405.33 282.56 398.15 282.94 390.97 282.64 383.78 283.33 376.6 282.54 369.41 282.41 362.23 283.13 355.05 282.41 347.86 282.98 340.66 282.65 333.54 283.24 326.69 285.51 319.84 288 312.83 290.04 306.01 292.62 299.28 295.45 292.24 297.42 285.6 300.46 278.8 303.07 271.81 305.16 265.03 307.85 258.16 310.27 251.07 312.1 244.43 315.16 237.67 317.88 230.63 319.86 223.72 322.19 216.83 324.56 210.22 327.69 203.28 329.94 196.26 331.98 189.53 334.79 182.56 336.98 175.72 339.47 168.79 341.75 161.94 344.25 155.26 347.22 148.3 349.4 141.6 352.33 134.72 354.73 127.77 356.95 120.9 359.4 114.19 362.28 107.37 364.86 100.18 366.46 93.76 369.32 100.65 369.29 107.83 369.53 115.01 369.1 122.19 369.01 129.37 369.46 136.55 369.38 143.73 369.02 150.91 368.98 158.09 369.17 165.27 369.06 172.45 368.95 179.63 369.26 186.82 369.33 194 369.28 201.18 369.13 208.36 368.98 215.54 368.92 222.72 369.71 229.91 369.66 237.09 368.92 244.27 369.42 251.45 369.15 258.63 369.77 265.81 368.98 272.99 368.97 280.17 369.05 287.35 369.23 294.53 368.87 301.71 369 308.89 369.5 316.07 369.36 323.25 369.11 330.43 369.64 337.61 369.75 344.8 369.8 351.98 368.92 359.16 369.42 366.35 369.42 373.53 369.23 380.71 369.16 387.9 369.73 395.08 369.42 402.27 369.27 409.45 368.86 416.64 369.57 423.82 369.7 431 369.79 438.19 369.38 445.37 368.92 452.56 368.94 459.76 369.83 466.88 368.98 473.79 366.84 480.63 364.32 487.54 362.01 494.46 359.71 501.13 356.74 507.97 354.22 514.94 352.07 521.63 349.14 528.75 347.4 535.36 344.26 542.37 342.22 549.04 339.24 556.1 337.35 562.9 334.71 569.9 332.66 576.76 330.2 583.34 326.96 590.49 325.28 597.26 322.57 604 319.8 611.07 317.9 617.87 315.26 624.49 312.13 631.36 309.69 638.49 307.98 645.27 305.27 652.21 303.03 658.84 299.92 665.73 297.53 672.51 294.85 679.42 292.51 686.25 289.99 693.1 287.46 700.18 285.57 706.63 282.88"/><polygon class="a" points="706.85 142.11 699.77 141.7 692.59 141.77 685.41 142.09 678.23 141.98 671.05 142.41 663.87 142.42 656.69 141.92 649.51 141.72 642.33 142.25 635.14 141.94 627.97 142.1 620.78 142.41 613.6 142.15 606.42 141.85 599.24 142.08 592.06 142.33 584.88 141.83 577.7 142.1 570.51 142.43 563.33 141.73 556.15 141.9 548.97 142.02 541.79 142.45 534.61 141.63 527.43 142.35 520.25 141.83 513.07 142.32 505.89 142.53 498.71 142.57 491.53 142.33 484.35 142 477.17 141.8 469.99 141.93 462.81 142.13 455.62 142.54 448.44 142.54 441.26 142.23 434.07 142.17 426.89 142 419.7 141.75 412.52 142.15 405.33 141.82 398.15 142.57 390.97 142.41 383.78 141.66 376.6 142.34 369.41 142.1 362.23 142.52 355.05 141.97 347.86 142.01 340.66 141.62 333.39 141.62 326.78 145.03 319.6 146.61 312.91 149.53 305.92 151.64 299.25 154.6 292.23 156.63 285.49 159.42 278.76 162.24 271.9 164.68 265.06 167.19 258.16 169.52 251.24 171.82 244.29 174.04 237.42 176.47 230.6 179.03 223.9 181.93 216.9 184 210.01 186.39 203.06 188.6 196.52 191.94 189.34 193.53 182.81 196.92 175.82 199.02 168.92 201.37 162.09 203.94 155.25 206.46 148.27 208.57 141.57 211.49 134.7 213.92 127.7 216 121.08 219.15 113.97 220.93 107.16 223.54 100.41 226.34 93.59 228.6 100.65 229.11 107.83 228.72 115.01 228.47 122.19 228.21 129.37 228.34 136.55 228.95 143.73 228.93 150.91 228.44 158.09 228.26 165.27 228.93 172.45 228.37 179.63 228.89 186.82 228.44 194 228.54 201.18 228.51 208.36 228.58 215.54 228.84 222.72 228.95 229.91 228.66 237.09 228.73 244.27 228.93 251.45 228.99 258.63 228.12 265.81 228.94 272.99 228.41 280.17 228.65 287.35 228.62 294.53 228.64 301.71 228.91 308.89 228.72 316.07 228.71 323.25 229.01 330.43 228.69 337.61 228.31 344.8 229.03 351.98 228.4 359.16 228.85 366.35 228.19 373.53 228.52 380.71 228.37 387.9 228.93 395.08 228.56 402.27 228.45 409.45 228.45 416.64 228.42 423.82 228.52 431 228.3 438.19 228.68 445.37 228.19 452.56 228.55 459.76 228.37 467.04 229.09 473.66 225.74 480.58 223.43 487.41 220.9 494.21 218.26 501.19 216.16 508.06 213.72 514.77 210.85 521.62 208.38 528.51 206 535.36 203.5 542.23 201.08 549.37 199.41 556.17 196.78 563.04 194.37 569.85 191.76 576.65 189.13 583.46 186.54 590.48 184.51 597.04 181.23 603.98 178.99 610.82 176.46 617.82 174.37 624.48 171.34 631.49 169.31 638.31 166.72 645.12 164.11 652.2 162.25 658.96 159.53 665.7 156.73 672.75 154.77 679.58 152.21 686.24 149.21 693.33 147.35 700.13 144.68 706.85 142.11"/><polygon class="b" points="706.87 134.1 699.77 134.51 692.59 134.03 685.41 134.3 678.23 134.29 671.05 133.94 663.87 134.5 656.69 134.23 649.51 134.5 642.33 133.97 635.14 134.31 627.97 134.09 620.78 134.27 613.6 133.73 606.42 134.29 599.24 134.36 592.06 134.45 584.88 134.55 577.7 133.69 570.51 134.34 563.33 133.71 556.15 133.6 548.97 134.54 541.79 133.63 534.61 134.06 527.43 134.34 520.25 134.42 513.07 134.14 505.89 134.21 498.71 133.8 491.53 133.61 484.35 133.95 477.17 134.1 469.99 134.41 462.81 134.27 455.62 134.03 448.44 134.29 441.26 134.52 434.07 133.6 426.89 134.15 419.7 133.68 412.52 134.32 405.33 134.51 398.15 133.87 390.97 134.04 383.78 134.22 376.6 133.93 369.41 134.13 362.23 134 355.05 134.38 347.86 134.1 340.66 134.24 333.44 133.94 326.46 136.14 319.76 139.04 312.75 141.08 306.11 144.14 299.28 146.7 292.29 148.8 285.64 151.83 278.54 153.61 271.89 156.64 265.06 159.2 257.92 160.85 251.06 163.32 244.32 166.12 237.61 168.98 230.54 170.88 223.73 173.46 217.01 176.3 210.2 178.91 203.31 181.3 196.47 183.81 189.46 185.86 182.5 188.04 175.68 190.64 168.92 193.37 162.06 195.83 155.23 198.4 148.3 200.66 141.53 203.38 134.48 205.32 127.91 208.59 120.95 210.79 114.02 213.06 107.12 215.43 100.33 218.12 92.97 220.68 100.65 220.31 107.83 220.42 115.01 220.7 122.19 220.66 129.37 220.95 136.55 220.16 143.73 220.47 150.91 220.97 158.09 221.06 165.27 220.58 172.45 221.02 179.63 220.62 186.82 220.26 194 220.44 201.18 221.07 208.36 220.43 215.54 220.24 222.72 220.92 229.91 220.49 237.09 220.28 244.27 221.05 251.45 220.86 258.63 220.78 265.81 220.86 272.99 220.72 280.17 220.23 287.35 220.93 294.53 220.59 301.71 220.26 308.89 220.91 316.07 220.63 323.25 221.1 330.43 220.85 337.61 220.87 344.8 220.41 351.98 220.53 359.16 220.45 366.35 220.78 373.53 220.45 380.71 220.13 387.9 220.46 395.08 220.36 402.27 220.84 409.45 220.37 416.64 220.77 423.82 220.15 431 220.92 438.19 221.01 445.37 220.76 452.56 220.34 459.76 220.45 466.91 220.37 473.84 218.24 480.54 215.34 487.46 213.04 494.25 210.38 501.38 208.66 508.19 206.06 514.77 202.84 521.84 200.99 528.72 198.6 535.47 195.81 542.47 193.77 549.18 190.88 555.97 188.22 562.8 185.7 569.75 183.48 576.52 180.77 583.4 178.36 590.23 175.82 597.19 173.65 604.12 171.38 611 168.96 617.86 166.49 624.57 163.61 631.57 161.52 638.29 158.67 645.08 156 651.9 153.44 659 151.64 665.75 148.85 672.7 146.63 679.42 143.77 686.4 141.66 693.25 139.15 700.19 136.85 706.87 134.1"/><polygon class="a" points="706.87 134.1 699.77 134.51 692.59 134.03 685.41 134.3 678.23 134.29 671.05 133.94 663.87 134.5 656.69 134.23 649.51 134.5 642.33 133.97 635.14 134.31 627.97 134.09 620.78 134.27 613.6 133.73 606.42 134.29 599.24 134.36 592.06 134.45 584.88 134.55 577.7 133.69 570.51 134.34 563.33 133.71 556.15 133.6 548.97 134.54 541.79 133.63 534.61 134.06 527.43 134.34 520.25 134.42 513.07 134.14 505.89 134.21 498.71 133.8 491.53 133.61 484.35 133.95 477.17 134.1 469.99 134.41 462.81 134.27 455.62 134.03 448.44 134.29 441.26 134.52 434.07 133.6 426.89 134.15 419.7 133.68 412.52 134.32 405.33 134.51 398.15 133.87 390.97 134.04 383.78 134.22 376.6 133.93 369.41 134.13 362.23 134 355.05 134.38 347.86 134.1 340.66 134.24 333.44 133.94 326.46 136.14 319.76 139.04 312.75 141.08 306.11 144.14 299.28 146.7 292.29 148.8 285.64 151.83 278.54 153.61 271.89 156.64 265.06 159.2 257.92 160.85 251.06 163.32 244.32 166.12 237.61 168.98 230.54 170.88 223.73 173.46 217.01 176.3 210.2 178.91 203.31 181.3 196.47 183.81 189.46 185.86 182.5 188.04 175.68 190.64 168.92 193.37 162.06 195.83 155.23 198.4 148.3 200.66 141.53 203.38 134.48 205.32 127.91 208.59 120.95 210.79 114.02 213.06 107.12 215.43 100.33 218.12 92.97 220.68 100.65 220.31 107.83 220.42 115.01 220.7 122.19 220.66 129.37 220.95 136.55 220.16 143.73 220.47 150.91 220.97 158.09 221.06 165.27 220.58 172.45 221.02 179.63 220.62 186.82 220.26 194 220.44 201.18 221.07 208.36 220.43 215.54 220.24 222.72 220.92 229.91 220.49 237.09 220.28 244.27 221.05 251.45 220.86 258.63 220.78 265.81 220.86 272.99 220.72 280.17 220.23 287.35 220.93 294.53 220.59 301.71 220.26 308.89 220.91 316.07 220.63 323.25 221.1 330.43 220.85 337.61 220.87 344.8 220.41 351.98 220.53 359.16 220.45 366.35 220.78 373.53 220.45 380.71 220.13 387.9 220.46 395.08 220.36 402.27 220.84 409.45 220.37 416.64 220.77 423.82 220.15 431 220.92 438.19 221.01 445.37 220.76 452.56 220.34 459.76 220.45 466.91 220.37 473.84 218.24 480.54 215.34 487.46 213.04 494.25 210.38 501.38 208.66 508.19 206.06 514.77 202.84 521.84 200.99 528.72 198.6 535.47 195.81 542.47 193.77 549.18 190.88 555.97 188.22 562.8 185.7 569.75 183.48 576.52 180.77 583.4 178.36 590.23 175.82 597.19 173.65 604.12 171.38 611 168.96 617.86 166.49 624.57 163.61 631.57 161.52 638.29 158.67 645.08 156 651.9 153.44 659 151.64 665.75 148.85 672.7 146.63 679.42 143.77 686.4 141.66 693.25 139.15 700.19 136.85 706.87 134.1"/><polygon points="595.84 580.4 589.23 583.16 582.33 585.14 575.69 587.84 568.94 590.27 562.09 592.38 555.54 595.34 548.71 597.53 542.06 600.23 535.15 602.16 528.53 604.92 521.71 607.15 515.04 609.77 508.11 611.7 501.57 614.66 494.85 617.17 488.13 619.69 481.67 622.02 482.17 629.42 481.51 630.15 481.99 636.63 483.17 643.39 490.56 642.55 497.64 643.46 504.73 643.03 511.82 642.75 518.91 642.67 526.01 642.96 533.08 642.88 539.89 640.86 546.63 638.63 553.2 635.91 559.84 633.36 566.41 630.66 573.14 628.38 579.91 626.19 586.5 623.54 593.11 620.91 600.11 619.37 606.61 616.44 613.46 614.48 619.92 611.46 626.55 608.87 633.45 607.06 640.08 604.49 646.71 601.91 653.49 599.78 660.11 597.17 666.84 594.88 673.4 592.12 680.18 589.97 686.82 587.43 693.61 585.3 700.41 583.17 706.94 580.33 699.54 579.88 692.14 580.5 684.73 580.6 677.32 580.2 669.92 580.79 662.51 580.06 655.11 580.65 647.7 580.75 640.29 579.88 632.88 579.88 625.48 580.23 618.06 580.64 610.65 580.03 603.24 580.15 595.84 580.4"/><polygon points="705.82 432 698.69 431.51 691.58 431.66 684.47 431.74 677.37 431.8 670.26 432.03 663.15 432 656.04 431.9 648.93 432.24 641.82 431.57 634.71 432.32 627.6 431.8 620.49 431.94 613.38 431.98 606.27 431.91 599.16 432.36 592.05 432.26 584.94 432.13 577.83 432.28 570.72 431.78 563.6 431.59 556.39 431.52 549.68 434.38 542.89 436.77 536.11 439.18 529.53 442.17 522.64 444.28 515.73 446.32 508.96 448.78 502.27 451.46 495.52 453.97 488.85 456.68 482.11 459.23 475.03 460.8 468.54 464.06 461.74 466.41 454.97 468.87 447.96 470.68 441.52 473.51 442.45 480.83 441.41 481.35 442.32 487.68 443.55 493.9 450.42 494 457.36 493.65 464.31 494.17 471.26 494.13 478.21 493.74 485.15 494.27 492.1 494.28 499.05 494.32 506 494.44 512.95 494.12 519.9 494.11 526.85 494.14 533.76 493.74 540.57 491.21 547.68 489.39 554.52 486.79 561.42 484.39 568.29 481.9 575.02 479.01 582.06 476.97 588.74 473.94 595.8 471.96 602.74 469.64 609.51 466.89 616.28 464.08 623.23 461.81 630.01 459.06 637.1 457.14 644.02 454.79 650.76 451.92 657.76 449.79 664.53 447 671.27 444.11 678.11 441.51 685.17 439.54 691.99 436.89 698.79 434.16 705.82 432"/><polygon points="391.23 324.66 392.36 332.11 390.98 332.48 392.39 338.74 393.2 345.35 400.52 345.07 407.57 344.83 414.62 345.07 421.67 344.78 428.72 345.23 435.77 344.53 442.82 345.28 449.87 345.17 456.92 344.81 463.98 344.83 471.03 345.44 478.08 344.68 485.13 345.25 492.18 344.6 499.23 345.17 506.29 345.06 513.34 344.55 520.39 344.83 527.46 344.98 534.59 345.4 541.35 342.37 548.15 339.62 555.18 337.52 562.07 335.04 569.11 332.96 575.89 330.15 582.81 327.74 589.74 325.35 596.43 322.32 603.45 320.18 610.53 318.19 617.16 314.97 624.26 313.07 631.1 310.42 638.04 308.05 644.74 305.01 651.6 302.43 658.56 300.13 665.38 297.44 672.61 295.87 679.45 293.24 686.3 290.62 693.29 288.39 699.93 285.17 706.73 283.02 699.83 283.34 692.7 282.64 685.57 282.94 678.44 283.24 671.31 283.06 664.18 282.87 657.05 283.08 649.92 283.38 642.79 283.06 635.66 283.04 628.53 283.21 621.39 282.9 614.26 282.56 607.13 282.55 600 283.49 592.86 282.91 585.73 283.44 578.6 282.62 571.46 283.36 564.33 282.81 557.2 282.75 550.07 283.1 542.93 282.68 535.8 283.21 528.66 283.47 521.53 283.39 514.38 282.95 507.29 283.26 500.53 285.76 493.5 287.61 486.68 290.06 479.93 292.72 473.13 295.24 466.4 297.94 459.64 300.55 452.6 302.39 445.93 305.27 438.94 307.26 432.34 310.31 425.48 312.65 418.46 314.56 411.88 317.68 405.07 320.18 398 321.96 391.23 324.66"/></svg>