<svg xmlns="http://www.w3.org/2000/svg" viewBox="0 0 822.45 822.44"><defs><style>.a,.c{fill:none;}.b{fill:#fff;}.c{stroke:#000;stroke-miterlimit:10;stroke-width:13px;}</style></defs><title>Asset 1 dark</title><rect class="a" x="11.23" y="11.21" width="800" height="800"/><path class="b" d="M262.33,669l.7-5.7,1.07-5.73,3.75-4.5,3.06-4.85,3.54-3.59,4.88-1.57,5.8-3.09,5.45-3.71,5.27-4,6.45-1.88,5.18-4.2,5.92-2.85,5.7-3.26,6.05-2.62,5.43-3.73,5.65-3.34,6.19-2.36,5.9-2.89,5.53-3.57,5.94-2.83,5.32-3.95,6.31-2.15,5.65-3.34,5.77-3.14,5.8-3.08,5.36-3.88,5.78-3.12,6-2.76,5.17-4.23,6.21-2.31,5.36-3.87L429,561l5.23-4.13,6-2.65,6-2.67,5.2-4.16,5.7-3.28,5.58-3.51,5.33-2.26h-5.65l-6.48-.79-6.47.44-6.47-.54-6.48.12-6.47.47-6.48-.25-6.48-.33-6.48-.14-6.48,1-6.48-.05-6.48-.43-6.48.29-6.48-.73-6.48.9-6.48.2-6.48,0-6.47-.41-6.48.33-6.48-.86-6.48,1.28-6.48-.59-6.48.32-6.48-.52L307,537.6,300.49,539l-6.49-.9-7.24-.08-6.41-3.37-5.91-3.89-4.38-5.5-4.1-5.79-2.31-6.82.94-7.13.73-7,2.27-6.89,5.12-5.14,4-3.07,3.93-3.32,5.89-2.77,5.66-3.2,5.67-3.18,5.67-3.2,5.78-3,5.51-3.47,6.23-2.16,5.87-2.83,5.6-3.31,5.3-3.86,6.1-2.4,5-4.45,5.92-2.73,6.1-2.4,5.25-4,5.56-3.39,6.17-2.28,5.68-3.16,5.49-3.53,5.53-3.44,5.78-3,6.22-2.19,5.06-4.3,5.83-2.89,5.91-2.75,5.4-3.68,5.64-3.26,5.66-3.22,6-2.58,6-2.6,5.34-3.81,5.48-3.56,6.22-2.43h-6.76l-6.66-.69-6.66,1.08-6.66-1-6.66.48-6.66.75-6.66-1-6.66.06-6.66.68-6.66-1-6.66.39-6.66,1-6.66-1.38-6.66-.09-6.66.4-6.66.57-6.66.34-6.67-.68-6.66-.61-6.66.23-6.66.82-6.66-.28-6.67.14-6.66.41-6.67-.67-6.67.1-6.67.18-6.21-.14-5.17-3.47-5.34-3L268.34,366l-2.3-5.81-.47-6.19.25-6.56.51-6.56.22-6.56-.07-6.56-.53-6.56,0-6.56.57-6.56.06-6.57-.8-6.57-.48-6.5.59-6.48,1.6-6.38.2-6.49-.18-6.58,1.19-6.39,1.45-6.34,2.43-6.1,1.73-6.23,1.55-6.29,1.77-6.24,1.28-6.45,3.65-5.52,2.4-6,3.06-5.71,2.82-5.85,3.7-5.34,3.61-5.38,3-5.89,4.89-4.4,4.76-4.41,4.49-4.9,4.28-5.23,6-3.19,4.84-4.69,5.92-3.13,6.14-2.64,5.73-3.38,5.77-3.49,6.45-1.83,6.45-1.71,6.56-1.19,6.32-2.25,6.55-1.3,6.64-.66,6.66-.33,6.66-.19,6.66-1.07,4.66.44,6.56.47,6.47,1.49,6.46,1.33,6.51,1.06,6.55,1.07,6.08,2.68,6,2.77,6.44,1.67,5.53,3.69,6.38,2.07,5.25,4.06,5.85,3.16,4.63,4.8,5.52,3.58,4.77,4.48,3.41,5.72,4.48,4.7,4,5.14,4,5.16,4,5.19,2.61,6,2.16,6.18,3.73,5.43,2.43,6,2.12,6.28,1.57,6.44,1.82,6.34,1.87,6.34,1.17,6.51,1.43,6.44,2,6.39.81,6.58.42,6.62-.29,6.65.18,6.59,1.18,6.59.38,6.14-.78,6.14-.52,6.14.45,6.15.64,6.74-7.18.1-6.63-1.52-6.63,1-6.63-.55-6.63-.15-6.64.33-7,.64,0-6.62-.1-6.21L505,307l-.38-6.22-.52-6.22.82-.84,0-6.9v-6.92l-1.94-6.73-.95-6.8-.94-6.81L500,252.76l-2.27-6.52-1.37-6.81-2.42-6.48-3.36-5.78-2.91-5.94-3.42-5.67-3.82-5.39-4.35-5-3.59-5.71-5.16-4.23-5.4-3.87L456.22,188l-5.91-3-6-3-6.49-1.47L431.68,178l-6.58-1-6.66-.2-6.62-.11-2.05-.33-6.65-.64-6.58.93-6.62.67-6.36,2-6.17,2.41-6.27,2-6.05,2.61-5.79,3.16-5.67,3.42L348.45,197l-4.86,4.52-4.7,4.68-3.81,5.42-3.66,5.51-3.37,5.7-2,6.35-3.49,5.68-1,6.64-2.39,6.14-2.37,6.19-.87,6.55L314.36,267l-1.52,6.58.11,6.77L311.72,287l-.22,6.77.24.83,1.25,6-.7,6-.35,6,.92,6-1.17,6,1.15,5.48,6.06,1.1,6.57.06,6.57-.59,6.57.59,6.57.1,6.57-1.2,6.57.49,6.57.79,6.57-1.09,6.57.89,6.57-1.09,6.57-.35,6.57.87,6.57-.41,6.57.36,6.57-.24L424,331l6.57-.53,6.57-.27,6.57,1.31,6.57-.17,6.57.1,6.57-.38,6.57-.62,6.57.67,6.57.07,6.57-1.05,6.57.19,6.58.84,6.57-.89,6.58.31,6.58.25,6.58-.74,6.11,1,6,1.53,5.3,3.15L551,340l4.34,4.34,2.14,5.76,2.2,5.66,1,6.07-1.51,6-1.94,6.81-3.5,6.23-5.5,4.53-5.41,4.77-5.83,3.09-5.87,3-5.56,3.61-5.77,3.23-6.18,2.47-6.12,2.56-5.69,3.36-5.44,3.83-6.17,2.48-6,2.86-5.59,3.56L473,427.88l-6.16,2.5-5.31,4.07-5.67,3.41-6.33,2.2-5.84,3.11-5.57,3.59-5.52,3.7-5.84,3.1-5.72,3.32-6.2,2.45L409.37,463l-6,2.85-5.61,3.52-6.46,2-5.47,3.79-6,2.88-5.41,3.9-6.2,2.45-5.76,3.27-5.88,3.06-5.49,3.43,6.44.79,6.59-.59,6.59-.18,6.6.35,6.6,0,6.59-.7,6.59-1,6.6-.07,6.6,0,6.6.31,6.61.61,6.59-.81,6.59-.51,6.61.23,6.6-.29,6.61.51,6.61.39,6.6,0,6.6-.18,6.6.07,6.6-.36,6.59-1.11,6.61.23,6.6-.33,6.62,1,6.6-.59,6.61-.58,5.89,2,6.16.51,5.64,2.61,4.16,4.63,4.43,4.3,3.16,5.38,1.57,6-.52,6.18-.33,6-2.64,6.57L553.89,542l-5.72,4.36-5.56,4.5-5.86,3-5.46,3.73-5.81,3.1L519.24,563l-5.64,3.41-5.89,3-6,2.81-5.63,3.42-5.26,4.1-6.1,2.58-5.36,3.93-6.07,2.64-5.7,3.3-6.27,2.27-5.7,3.3-5.9,2.95L444.6,605l-6.37,2.1-5.32,4-5.63,3.44L421.65,618l-6.09,2.59-6,2.67-5.56,3.55-6.14,2.51-5.36,3.93-5.95,2.86-5.31,4L374.7,642,369,645.22l-5.61,3.49-5.27,3.39,6.12.69,6.48-1.19,6.48.83,6.48-.4,6.48.68,6.48-.18,6.48-.19,6.48-.32,6.48-.61h6.48L429,652l6.48.39,6.48-.89,6.48,1.45,6.48-.28,6.48-.63,6.48-.24,6.48-.32,6.48,1.45,6.48-1.32,6.48.13,6.48-.42,6.48.29,6.48-.33,6.48.13,6.48,1.45,6.49-.24,6.48-.21,6.49-.59,6.49-.51,7,.34-.86,7.09.59,6.63-.46,6.63.4,6.63-.36,6.63-.54,6.64,1.09,7-6.84-.09-6.51-.47-6.51.24-6.51.36-6.51-.66-6.51.2-6.51.92-6.51-.65-6.51-.91-6.51.12-6.5.42-6.51.34-6.5-.91-6.5,1.07-6.51.13-6.51-.9-6.5.13-6.51-.11-6.51.69-6.51.1L422,699l-6.51-1.17-6.51.68-6.51.47L396,697.89l-6.51.86-6.51.48-6.51-.25-6.51-.05-6.51-.92-6.51.67-6.51.4-6.51-.66-6.51.33-6.51.13-6.51-.47-6.51.87-6.51-.2-6.52.17-6.52-.11-6.52-1.22-7,.39-6.35-3-5.61-4L268.45,686l-4.57-5.4-1-5.84Zm35.85,15.75M300.12,523"/><path d="M558.67,717.74l-6.51-.57-6.51.13-6.51.33-6.51.51-6.51-.58-6.51.45-6.51-.43-6.51.79-6.51-.93-6.51,1-6.5.13-6.51-1.33-6.5.53-6.5.83-6.51-1.37-6.51.33-6.5-.36-6.51,1-6.51,0-6.51-1-6.51.2-6.51,1.24-6.51-.72-6.51-.31L396,718l-6.51-.1-6.51.36-6.51-1.07-6.51.88-6.51-.52-6.51.64-6.51.41-6.51-.21-6.51-.78-6.51-.44-6.51-.19-6.51.93-6.51.27-6.52.47-6.52-.37-6.52-.58-6.44.27-6-2.36-6-2-6-2.15-4.82-4.22-4.87-4-5-4.1-3.25-5.57-1.9-6.14-3.7-5.52.24-6.61-1-6.32.21-6.39,1.39-6.24,2.36-5.92,2.75-5.72,3-5.71,4.83-4.26,5.89-5.33,6.92-3.91,5.74-2.85,5-4.16,5.69-2.95,5.51-3.27,6.22-2,5.71-2.91,5.52-3.25,5-4.23,6.23-2,5.1-4,5.54-3.21,6.38-1.68,5.48-3.31,5.31-3.64,5.77-2.8,5.5-3.29,6-2.42,4.93-4.33,6.22-2,5-4.24,5.89-2.59,4.9-2.73L387,557.3l-6.64-.33-6.64.41-6.64-.77-6.64,1.79-6.64-.5-6.64-.09-6.64-.75-6.64-.37-6.64.43-6.64.36-6.64.36-6.65-.28-6.65.37L294,558l-6.58-.19-6.1-2.66-6.41-1.24-5.55-3.4L264,547l-5.65-3.45-3-6-4.75-4.62-2.48-6.07-1.76-6.26-.6-6.43-.71-6.37,0-6.46,1.21-6.37,1.46-6.41,4.08-5.22,3.2-5.61,3.91-5.22,6.53-4.67,6.66-4.41,5.54-3.67,6.37-2.14,5.32-4.07,6.06-2.72,5.35-4,6.47-2,5.24-4.21,6.25-2.38,5.5-3.74,6.34-2.22,5.06-4.53,5.75-3.27,5.92-3,5.9-3,5.93-3,6.13-2.6,5.21-4.27,6.54-1.85,5.1-4.47,6.23-2.44,5.59-3.45-6.47-.85-6.55,1.7-6.55-1.43-6.55.72-6.55-.29-6.55.71-6.54-.82-6.54.78-6.55.12-6.55-.36-6.55-.79-6.55,1.2-6.55-1.23-6.55,1.11-6.56.24-6.56-1.14-6.78.66-6.08-3.23-6.76-1.08-5.14-4.43-5.42-3.91-3.76-5.53L252,372.87l-3.16-5.81-1.9-6.4-.1-6.67.2-6.53L246,340.92l.39-6.53-.41-6.53-.13-6.53,1.43-6.53-1.45-6.54.15-6.54-.12-6.54.15-6.61,0-6.62,1.8-6.49.13-6.6,1.56-6.44.08-6.65.86-6.56,2.68-6.18,1.33-6.42.46-6.68,2.09-6.25,2-6.28,2.09-6.25,3.11-5.84,2.2-6.23,3.14-5.8,3.85-5.38,2.24-6.32,3.73-5.45,4.87-4.6,2.83-6.12,4.89-4.5,4.42-4.87,5.11-4,4-5.2,5-4.08,5.88-2.9,4.83-4.3,5.32-3.65,5.65-3.1,5.46-3.52,6.31-1.69,5.67-3.16,6.21-1.78,6-2.51,6.44-.87,6.16-2,6.44-.65h6.49l6.28-1.69,6.43-.42,6.46.37,6.42-.5,6.85,1.12,6.53-.43,6.43.54,6.41.81,6.09,2.41,6.17,1.78,6.23,1.5,6.16,1.78,5.86,2.63,6.08,2.07,5.59,3.17,5.93,2.5,5.67,3,5,4.1,5.79,2.94,4.87,4.22,5.12,4.42,5.22,4.34,4.19,5.36,4.34,5.18,4.7,4.9,3.18,6,5.18,4.69,3.45,5.86,3.15,6,3.29,6,1.48,6.78,3.22,6,2.54,6.19,1.16,6.66,3.1,6,.6,6.76,2.69,6.23.2,6.79,2,6.42,1.08,6.6,0,6.73.93,6.62,1.19,6.62-.87,6.72-.09,6.66,1,6.1-.08,6.09.3,6.1-1,6.1.21,6.1-1.4,6.16,4.65,5.74,2.22,6.68,3.14,6.39.75,7,.27,7.07-.42,7.13-2.93,6L574.12,384l-3,5.84-3.76,5.45-5.47,3.8-4.35,5.14-6.35,2.2-5.86,3.17L540,413.8l-6.11,2.7-6,3-6,3-5.77,3.33-5.51,3.79-6.21,2.52-5.68,3.49-5.54,3.74-6,2.91-6,2.87-5.94,3L469.86,452l-6.07,2.78L458,458l-6.06,2.8-6.12,2.67-5.7,3.46-5.21,4.37L428.12,474l7.21-.29H442l6.68-.69,6.68-.21,6.7,1.28,6.68-.88,6.68-.14,6.69.55,6.68-.43,6.69.37,6.67-1.31,6.69.63,6.68-.85,6.69-.11L529,473.2l.25-1.25,6.68.06,6.53,1.44,6.36,2,5.26,4.23,5.45,3.55,4.9,4.3,4.51,4.23,3.52,5.09,2.38,5.71,2.18,5.73,1.76,5.91v6.17l1.18,6.2-1.25,6.12-1.61,6.4L574,544.95l-3,5.84-4.34,4.92-4.79,4.4-5.25,3.78-5.31,3.82-5.62,3.14-5.29,3.72-5.72,2.93-5.87,2.66-5.92,2.58-5,4.2L512,589.61l-5.89,2.63-5.4,3.52-5.77,2.85-5.78,2.83-5.63,3.09-5.16,4L472.4,611l-5.65,3.07L461,616.92l-5.69,3-5,4.26-6.4,1.72-4.94,4.38-5.18,2.37,5.88-.27,6.61-.14,6.61,1,6.61.11,6.61-1.35,6.61.75,6.61,0,6.61-.75,6.61.33,6.61,1.22,6.61-1.17,6.61.64L519,633l6.61.1,6.62.09,6.61-1,6.62.92,6.62-1,6.62,1.51,6,0,5.32,2.95,4.85,3.86,2.28,5.77,1.12,6-.91,6.63.58,6.63.15,6.63,0,6.63-.45,6.63.81,6.64.23,6.64-1.57,6-2.69,5.47-4.93,3.49-5.14,2.67ZM412.88,148.59l-6.54-.45-6.53.5-6.47,1L387,151l-6.51.66-6.23,2-6.37,1.47-5.85,3-6.36,1.71-5.35,3.85-5.53,3.37-6.15,2.51L333.72,174l-4.37,4.88-5.62,3.57-4.12,5-4.36,4.81-3,5.81-3.53,5.39-4.1,5.1-2.78,5.86-1.55,6.38-3.08,5.7-2.48,6-1.49,6.3-1.82,6.19-1.16,6.36-2.3,5.89-.19,6.29-1.39,6.09-.05,6.26-.09,6.22-.51,6.18-.82,6.21-.44.49-.19,6.56.93,6.56.27,6.56.47,6.56-.37,6.56-.58,6.56.69,6.56-1.15,6.57.05,6.57,4.5,3.77,6.66.83,6.66-.19,6.66-1.07,6.66.39,6.66,1,6.66-1.72,6.66,1.54,6.66-.64,6.66-.2,6.66.16,6.66.33,6.66-.07,6.66-.71,6.66.83L389,358l6.66.22,6.66.26,6.67-1.23,6.66.15,6.66-.21,6.66,1.27,6.66.19,6.67-.19,6.66-1.31,6.67,1.28,6.67-1.07,6.67-.14,6,2.58,5.48,2.66,4.69,4.15,2.25,5.87.78,6.23L486,384.53l-2.23,6.05L478,393.53,473,397.82l-6,2.64-5.36,3.75-6.19,2.24-5.86,2.84-5.5,3.49L438,415.25l-4.84,4.7-5.94,2.69-5.74,3.05-6.06,2.48L409.57,431l-5.49,3.51-5.53,3.45L393,441.39l-5.84,2.89-5.52,3.46L376,451l-5.59,3.34L364,456.2l-5.28,3.9-6,2.61-5.69,3.15L341.94,470l-6.48,1.71-5,4.36-5.92,2.74-5.87,2.83-6,2.55-5.56,3.4-5.48,3.55-5.67,3.21-5.37,3.75-1.58-.68L286.13,500l-2.56,5.82v6.4l4.35,4.78,6.08,1.29,6.47,1.19,6.48-1,6.47.53,6.47-.93,6.48,1.4,6.47-1.17,6.48.93,6.48-.62,6.48,1.11,6.48-1.53,6.48-.09,6.48.25,6.48.2,6.48.26,6.48.68,6.48-1.23,6.48,1.53,6.47-1.46,6.48.86,6.48-.38,6.48.91,6.48-1.7,6.48,1.43,6.48-.72,6.48.29,6.49-.71,6.49.82,6.42.29,5.8,3,4.14,5,1.83,6.08,1.73,6.24-2.72,5.88-2.52,5.92-5,4.24-6.3,2.15-5.18,4.2-6.58,1.64-5,4.56-6.28,2.2-5.48,3.64-6.11,2.51-5.92,2.85-5.42,3.76-5.58,3.47-6,2.79-5.85,3-5.24,4.1-5.94,2.81L392.2,603l-5.69,3.27-6.45,1.9L375,612.62l-5.83,3-5.7,3.26-5.83,3-5.62,3.4-6.41,2-5.51,3.59L334,633.39l-5.32,4-5.61,3.43-6.41,2L311,646.06l-5.14,4.28-5.86,3-5.72,3.25-5.66,3.35-1.26-.11-2.41,2.38L281.85,669v4.15l4.68,3.75,5.26,1.75,6.51,1.32,6.51-1.51,6.51.83,6.51-.05,6.51.78,6.51-1.17,6.51.07,6.51,1.26,6.52-.79,6.51-.26,6.51.09,6.51-.66,6.51,1.07,6.51-.82,6.51.39,6.51-.65,6.51.8,6.52-.61,6.51.52,6.51.93,6.51-1,6.52.07,6.51.66,6.52-.41,6.52.55,6.52-1,6.52-.24,6.52-.2,6.51,1.19,6.51.31,6.52-.22,6.52-.2,6.52.43,6.52-.45,6.52.47,6.52-.56,6.53-.26,7.15.43-.76-8.24-6.35-.24h-6.48l-6.49.44-6.48-.69L507,671l-6.49.61-6.48-1-6.49,1.71L481,672.2l-6.49-.16-6.49.26-6.49-1.48-6.49.67-6.49.2-6.49-1-6.49,1.22-6.49-1.19-6.49,1.18-6.48-1.19-6.49.87-6.49.09-6.49-.77-6.49.3-6.49.75-6.49-1.12-6.49-.1-6.5,1-6.5-.08-6.39-.76L346.24,667l-4.35-4.4-2.06-5.81-1.37-6.11,2.26-5.84,2.44-5.9,5.24-3.71,5.67-3.34,5.53-3.61,6.38-2.07,5.62-3.44,5.62-3.44,5.6-3.48,6.34-2.14,5.08-4.42,6.38-2.06,5.78-3.15,5.24-4.13,6-2.68,5.89-3,5.9-2.95,5.7-3.31,5.45-3.77,6.14-2.51,5.61-3.47,5.47-3.73,5.93-2.89,5.95-2.86,5.88-3,5.36-3.92,6-2.76,5.75-3.21,6-2.79,6.06-2.66L510.4,547l5.13-4.35,6.42-2,5.49-3.71,5.83-3.09.74-1,3.91-3.27,3.45-4.34-1-5.81-2.94-4.82-8.09-4-6.59.43-6.6-.38-6.57,1.31-6.6-.63-6.58.85-6.59.1L483.17,511l-6.57,1.34-6.59.46-6.59-.07-6.59.19-6.61-1.38-6.59.18-6.6.1-6.59.66-6.59.11-6.6-.43-6.59.14-6.59.45-6.6-.57-6.58,1.36-6.6-.3-6.6.21-6.6-.56-6.59.45-6.61-.35-6.61-.18-6-1.12-5.78-2.31-4.36-4.56-3.28-5.58-.41-6.51,2-6.11,3.87-4.92,4.22-4.89,6-2.75,6.05-2.69,5.57-3.59,5.94-2.92,5.95-2.89,5.8-3.16,5.33-4,6.1-2.63,5.81-3.14,6-2.88L405.9,443l5.16-4.34,6.56-1.78,5.1-4.44,5.71-3.34,5.93-2.93,5.74-3.29,6.3-2.26,5.86-3.07,5.16-4.35,6.17-2.5,5.82-3.13,5.45-3.83,6-2.88,6.39-2.1,5.25-4.19,6.11-2.61,5.78-3.22,5.86-3.08,5.85-3.09,5.31-4.09,6.26-2.36,5.31-4.09,1.63.86,3.72-4.11,2.39-4.75-.95-5.47-2.32-5-8.17-3.2-6.57-.91-6.57.58-6.57.15-6.57,0-6.57-.45-6.57.81-6.57.23-6.57-.62-6.57.09-6.57-1-6.57,0-6.57.65-6.57-.15-6.57.68-6.57-1.27-6.57.76-6.57.48L411,349.26l-6.57-.09-6.57.67-6.57,1.06-6.57-1.55-6.57,1.27-6.57-.38-6.57.12-6.57-.66-6.57.7-6.57.23-6.58-1-6.57-.32-6.58.5-6.58-.4-6.58,1-5.69-2.12-5.26-2.44-4.1-4.14-2.56-5.22-1.78-5.72.05-6.05.49-6.05-1.3-6.05,1-6.06-.87-6.06,1.58-6.06-1.13-6.36.93-6.31,1.13-6.25-.48-6.44.8-6.32.74-6.35,1.34-6.29,2.27-6,2.63-5.89,1.61-6.2,2.84-5.75,2.43-5.89,2.37-6,3.34-5.46,3.68-5.22,3.79-5.11,3.18-5.64,4.35-4.72,5.17-4.37,5-4.59,5.9-3.35,5.2-4.4,5.87-3.4,6.2-2.76,6.49-2L375.9,161l6.77-.72,6.4-2.59,6.8-.28,6.72-.93,6.79.28,2.86.64.5-1.48,6.35,1.38,6.47-.12,6.18,2,6.27,1.26,6,2.16,6.32,1.21,6.11,2,5.22,3.92,5.92,2.47L473.5,175l4.63,4.54,4.69,4.35,5.23,3.83,4,5.08,4,5,3.73,5.23,3.45,5.42,2.93,5.71,3.19,5.6,1.45,6.36,1.91,6,2.21,5.93,2.64,5.85.7,6.38,2.92,5.87.66,6.37.05,6.42,1.73,6.2.84,6.33-.72,6.41.08,6.34.47.29.37,5.92-.38,5.53,7.93.92-1.15-6.24.29-5.71.48-.49-.7-6.49-.46-6.47-.63-6.45-.06-6.53-.29-6.54-2-6.27-1.85-6.24-.58-6.56-1.86-6.25-1.33-6.44-3.35-5.72-1.7-6.74-3.43-6-4-5.65-2.64-6.42L503.1,194l-4.78-5-3.7-5.9-5.16-4.59-5.83-3.74-4.4-5.25-5.54-3.85-6-3-6.26-2.45L455.12,158l-6-2.93-6.26-2.52-6.6-1.31-6.74-.34-6.59-1.18-6.68-.43-2.66.09Zm-81.35,163,6.79.61,6.68-.13,6.68-.33,6.68-.51,6.68.58,6.68-.45,6.68.43,6.68-.79,6.69.93,6.69-1,6.69-.13,6.69,1.33,6.69-.53,6.69-.83,6.68,1.37,6.69-.33,6.69.36,6.69-1,6.69,0,6.68,1L472,312l6.69-1.24,6.71.71.32-5.65-.48-5.63.1-5.63-.34-1.43.9-6.77-1.39-6.67-.27-6.76-1.69-6.56-1.75-6.5-1.45-6.56-1.24-6.67-1.94-6.51-2.46-6-3.83-5.33-3.64-5.34L462,218.58l-4.07-5-4.48-4.68-5.7-3.1-5.16-4.07-6.06-2.42-6.42-1.16L424,196l-6.48-.68L411,196l-2-.53-6.34-.67-6.05,2.41-6.44-.41-5.94,2.2-5.84,2.28-5.74,2.52-5.56,3-5,3.87L358,215.41l-5.11,4.64-3.77,5.77-3.65,5.84-3.24,6.09-1.43,6.83L338.45,251l-1.63,6.64-2.75,6.41-1.46,7.17-.74,7.28.71,7.37-1.48,7.25,1.09,1.45.14,5.63-1.59,5.62Zm-.1-18.82-.56.27,1.35,0Z"/><polyline class="c" points="348.66 331.21 348.66 324.75 348.59 318.3 348.5 311.84 348.7 305.39 348.8 298.93 348.55 292.48 348.96 286.02 348.91 279.56 348.56 273.1 348.6 266.65 348.91 260.19 348.73 253.73 348.87 247.27 348.93 240.81 348.86 234.36 348.94 227.9 348.78 221.44 348.76 214.98 348.81 208.53 348.7 202.06 348.62 195.61 348.69 189.14 348.52 182.68 348.66 176.21"/><polyline class="c" points="372.85 331.21 372.65 324.75 372.92 318.3 372.89 311.84 372.61 305.39 372.63 298.93 372.78 292.48 372.66 286.02 372.62 279.56 372.79 273.1 372.75 266.65 372.78 260.19 372.83 253.73 372.73 247.27 372.57 240.81 372.75 234.36 372.82 227.9 372.82 221.44 372.86 214.98 372.59 208.53 372.89 202.06 372.65 195.61 372.95 189.14 372.52 182.68 372.53 176.21"/><polyline class="c" points="396.83 331.21 396.61 324.75 396.64 318.3 396.56 311.84 396.9 305.39 396.9 298.93 396.64 292.48 396.53 286.02 396.83 279.56 396.62 273.1 396.85 266.65 396.65 260.19 396.89 253.73 396.71 247.27 396.72 240.81 396.94 234.36 396.56 227.9 396.96 221.44 396.69 214.98 396.71 208.53 396.67 202.06 396.63 195.61 396.68 189.14 396.59 182.68 396.72 176.21"/><polyline class="c" points="420.8 331.21 420.59 324.75 420.59 318.3 420.93 311.84 420.74 305.39 420.64 298.93 420.88 292.48 420.57 286.02 420.73 279.56 420.82 273.1 420.89 266.65 420.54 260.19 420.53 253.73 420.69 247.27 420.92 240.81 420.52 234.36 420.77 227.9 420.61 221.44 420.69 214.98 420.75 208.53 420.96 202.06 420.88 195.61 420.65 189.14 420.5 182.68 420.72 176.21"/><polyline class="c" points="444.9 331.21 444.94 324.75 444.84 318.3 444.55 311.84 444.81 305.39 444.64 298.93 444.59 292.48 444.59 286.02 444.92 279.56 444.94 273.1 444.59 266.65 444.91 260.19 444.94 253.73 444.94 247.27 444.95 240.81 444.74 234.36 444.71 227.9 444.83 221.44 444.92 214.98 444.62 208.53 444.85 202.06 444.84 195.61 444.66 189.14 444.84 182.68 444.55 176.21"/><polyline class="c" points="468.85 331.21 468.95 324.75 468.78 318.3 468.7 311.84 468.92 305.39 468.9 298.93 468.93 292.48 468.9 286.02 468.7 279.56 468.91 273.1 468.81 266.65 468.52 260.19 468.86 253.73 468.82 247.27 468.59 240.81 468.87 234.36 468.63 227.9 468.83 221.44 468.77 214.98 468.67 208.53 468.88 202.06 468.77 195.61 468.6 189.14 468.84 182.68 468.69 176.21"/><polyline class="c" points="318.25 461.45 324.61 462.94 331.04 464.12 337.43 465.46 343.81 466.9 350.21 468.24 356.62 469.54 363.03 470.8 369.42 472.17 375.81 473.6 382.24 474.85"/><polyline class="c" points="375.22 432.6 381.62 433.87 388 435.3 394.4 436.6 400.84 437.78 407.21 439.23 413.61 440.59 420.02 441.84 426.41 443.24 432.81 444.62 439.24 445.84"/><polyline class="c" points="429.24 403.47 435.62 404.88 442.01 406.25 448.4 407.61 454.83 408.81 461.23 410.12 467.61 411.56 474.01 412.9 480.41 414.25 486.84 415.47 493.25 416.79"/><polyline class="c" points="319.23 616.56 325.62 617.88 332.02 619.21 338.4 620.61 344.83 621.78 351.2 623.28 357.63 624.5 364.02 625.85 370.4 627.29 376.83 628.49 383.21 629.94"/><polyline class="c" points="376.25 587.46 382.62 588.9 389.01 590.24 395.4 591.63 401.81 592.92 408.23 594.15 414.63 595.46 421 596.94 427.41 598.23 433.81 599.62 440.22 600.9"/><polyline class="c" points="430.24 558.51 436.62 559.9 443 561.27 449.43 562.46 455.83 563.81 462.2 565.27 468.61 566.57 475.02 567.86 481.41 569.21 487.82 570.55 494.21 571.94"/><polyline class="c" points="350.25 526.9 355.47 523.36 360.71 519.85 365.94 516.31 371.16 512.76 376.38 509.22 381.67 505.76 386.9 502.22"/><polyline class="c" points="422.23 526.88 427.5 523.4 432.7 519.83 437.96 516.34 443.15 512.76 448.42 509.28 453.66 505.75 458.89 502.2"/><polyline class="c" points="336.23 690.87 341.44 687.31 346.69 683.82 351.95 680.32 357.2 676.82 362.41 673.26 367.67 669.75 372.88 666.18"/><polyline class="c" points="408.24 690.89 413.47 687.36 418.69 683.82 423.94 680.3 429.15 676.75 434.4 673.24 439.63 669.7 444.9 666.22"/><polyline class="c" points="483.26 688.91 488.44 685.32 493.67 681.79 498.91 678.26 504.16 674.77 509.4 671.25 514.64 667.71 519.9 664.21"/><path class="c" d="M338.9,502.21"/><path d="M1.62,1.6,1,7.77.33,14.33l1.8,6.56-.28,6.56L1.17,34,1,40.56l.55,6.56.75,6.56-.89,6.56L.35,66.8l.51,6.56.93,6.56-.42,6.56L2.27,93l-.55,6.55-.41,6.55-.77,6.55.3,6.55.75,6.55-.83,6.55.1,6.55-.79,6.56L0,152l1.08,6.56-.38,6.56L.29,171.7l1.15,6.56L1,184.81l1.09,6.56.27,6.55L.23,204.47.38,211l2,6.56L.72,224.14l.43,6.56L.09,237.26l.28,6.56,1.79,6.56-.25,6.56.28,6.56V270l-1,6.56-.33,6.56-.43,6.56L.3,296.28l.76,6.56L.71,309.4,0,316l.22,6.56,1.33,6.56L0,335.63l1.5,6.56-.21,6.56L.49,355.3,0,361.86l1,6.56L1.23,375l.26,6.56-.42,6.56L0,394.66l2.24,6.56-1.12,6.56.78,6.56L.63,420.9l-.48,6.56L2.39,434,.16,440.58l-.08,6.56v6.56l2.33,6.56,0,6.56-1.18,6.56.07,6.56.78,6.56-.79,6.56.35,6.56.64,6.56,0,6.56L.3,519.31l2.07,6.56-.15,6.56L2.42,539,.37,545.55l1.25,6.56.07,6.56-1.5,6.56,2.2,6.56-2.2,6.56.61,6.56,1.08,6.56L2.21,598l.11,6.56-.63,6.56.11,6.56-.4,6.56-1,6.56,1.69,6.56L1.39,644l-1,6.56L1,657.09l.54,6.56-.79,6.56.8,6.56-.14,6.56.25,6.56L.25,696.46l2,6.56-.67,6.56L.26,716.15l1.36,6.56.1,6.56L.12,735.84,0,742.41,2.27,749l-.09,6.57-.05,6.56-.24,6.56-.33,6.57.51,6.57L.45,788.36l1,6.57L.14,801.49,2,808.06l.17,6.57L.7,821.74l7.09-1.24,6.56,1.85h6.56l6.56-2.12,6.56.41,6.56-.24,6.56,1.14,6.56.07,6.56.31,6.56.08,6.56-1.68,6.56.07,6.56,1.28L93,822l6.55.32,6.55-1.4,6.55.4,6.55-.53,6.55-.65,6.55,1.88,6.55-.19,6.56-1L152,822l6.56-1.05,6.56,0,6.56-.15,6.56.3,6.56-.06,6.56.82,6.55-1.11,6.55,1.55,6.55-.83,6.56-.16,6.56-1.15,6.56,2.1,6.56-.29,6.56-.64,6.56-1.19,6.56.73,6.56.39,6.56-.91,6.56,1.33,6.56.23,6.56-1.9,6.56.15,6.56.66,6.56.68,6.56-.1,6.56.8,6.56-2,6.56,1.31,6.56-.62,6.56,1.28,6.56-1.33,6.56,1.19,6.56.3L375,821l6.56-.39,6.56,1.7,6.56-2.18,6.56,1.35,6.56-.79,6.56,1.15,6.56.13,6.56-.47,6.56.53,6.56-.86,6.56,1,6.56-2,6.56.11,6.56,1,6.56.53,6.56.29,6.56-1.67,6.56.83h6.56l6.56-.28,6.56.67,6.56-.77,6.56.83,6.56.62,6.56-.66,6.56.68,6.56-2.09,6.56.23,6.56.61,6.56-.5,6.56.26,6.56-.39,6.56,1.06,6.56-.3,6.56-.49,6.56-.16,6.56.32,6.56-.06,6.56.92,6.56-1.46,6.56.32,6.56.45,6.56.32,6.56-.69,6.56-.24,6.56.35,6.56-.32,6.56,0,6.56.26,6.56.31,6.56,1.14,6.56-.49,6.56-1.34,6.56,1.11,6.57,1,6.56-1.49,6.56,1.28,6.57-1.66,6.56,1.84,6.56-.06,6.57-2,6.57.71,6.57,1.24,6.57-.91,6.56.63,6.57-1.66,6.57,1.18,7.42.53-2-7.41,2-6.56-.57-6.56L822,795l-1.87-6.56.91-6.56.46-6.56-.5-6.56.3-6.56-.24-6.56,1-6.56-.39-6.56.66-6.56-.81-6.55L820,722.83l1.81-6.55-.57-6.55-.51-6.55,1.39-6.55-1.67-6.55.85-6.55.41-6.56-.14-6.56-.92-6.56.26-6.56-.09-6.56-.19-6.56,1-6.56-1.23-6.56,2-6.55-2-6.55,2-6.55-2.1-6.56,1.82-6.56v-6.56l-.17-6.56.3-6.56L820.48,572l.69-6.56-.2-6.56.9-6.56-1.8-6.56,1.89-6.56-1.76-6.56,1.94-6.56-1.74-6.56.21-6.56,1.82-6.56-.56-6.56.12-6.56-.15-6.56-.67-6.56-1-6.56,1-6.56-.57-6.56,1.56-6.56-1.25-6.56-.14-6.56,1.47-6.56-.1-6.56L822,421.2l-2-6.56,1.63-6.56-1.43-6.56,2.08-6.56-.76-6.56-1.37-6.56.62-6.56,0-6.56.09-6.56-.61-6.56,1.83-6.56-.2-6.56-.18-6.56-1.29-6.56.3-6.56.71-6.56-1.35-6.56,1.51-6.56v-6.56l-.83-6.56-.74-6.56.52-6.56,1.07-6.56.7-6.56-.53-6.56-.31-6.56-.7-6.56,1.09-6.56-1.28-6.56.94-6.56.2-6.56.14-6.56-1.2-6.56.4-6.56,1-6.56.33-6.56-.77-6.56.3-6.56.21-6.56-.81-6.56,0-6.56-1.08-6.56.09-6.56,1.72-6.56-.76-6.56-.72-6.56.67-6.56v-6.56l-.67-6.56,1.4-6.56-.43-6.57.63-6.56-1.64-6.56,1.75-6.57-1.49-6.56.17-6.56.4-6.57-1.14-6.57,1.73-6.57-.79-6.57L821,20.93l-.6-6.57,1.89-6.57-.58-7.1h-7.08l-6.56.89-6.56-.42L795,2l-6.56.28L781.88.65,775.32,2,768.76.5,762.2,1.64,755.64.89l-6.56.72L742.52,1,736,2.28l-6.55-.62-6.55.55-6.55-2L709.75.7,703.2.2l-6.55.89h-6.55l-6.55.81L677,1l-6.56.81-6.56-.54L657.3,2.41,650.74.77l-6.56,1.09L637.63.51l-6.56.35-6.55.42L618,1l-6.55,0-6.56.86L598.3.18l-6.56,2L585.18.64l-6.56,1-6.56-.9L565.5,2.18l-6.56.14-6.56-.57-6.56-.49-6.56.57L532.72.15,526.16,1.6,519.6.29,513,.79l-6.56-.4-6.56,1.09-6.56-1h-6.56l-6.56.12-6.56,1.09-6.56.47-6.56-1.14L454,2l-6.56.07L440.9.13l-6.56,1.56-6.56-.08L421.22,2l-6.56-.81L408.1.28l-6.56.35L395,.32l-6.56,1.52-6.56-.15-6.56.06-6.56-.38-6.56-.19L355.62.33,349.06,2,342.5.17l-6.56,2.26-6.56-.93-6.56.38L316.26.36l-6.56,1-6.56.92-6.56-.52L290,2,283.45.5l-6.56,1L270.33,2l-6.56.09-6.56-.45-6.56-.23-6.56.47L237.52,0,231,2.36l-6.56-.85-6.56.68L211.27.7l-6.56.95-6.56.27-6.56-.73L185,1.56l-6.56.88-6.56-1.38L165.34.61,158.78.23,152.22,1.9,145.66.53,139.1.29l-6.56.3L126,2l-6.56-2L112.85,2.2l-6.56-1.07L99.72.88l-6.56.8L86.59,0,80,.21,73.46.15,66.9,2.09l-6.56.26-6.56,0-6.57-.82H40.64l-6.57.2-6.57-.53L20.95.67l-6.57.43-6.57.38ZM630.78,765.21l-3.05,2.72-6.53-.62-6.53,1.8-6.53-.28-6.54-.68-6.54-.17-6.53.55-6.53.75-6.53-.89-6.53-1.06-6.54.51-6.54.93-6.53-.42-6.53.9-6.53-.55-6.54-.41-6.54-.77-6.54.3-6.53.75-6.54-.83-6.54.1-6.54-.79L484,767l-6.54,1.08-6.54-.38-6.54-.42-6.54,1.15-6.54-.46L444.73,769l-6.54.27-6.54-2.11-6.54.15-6.54,2L412,767.7l-6.54.43L399,767.06l-6.54.28-6.53,1.79-6.54-.25-6.53.28H366.3l-6.54-1-6.54-.33-6.53-.43-6.54-.14-6.54.76-6.54-.34-6.54-.7-6.54.22-6.54,1.33L300.93,767l-6.54,1.5-6.54-.21-6.54-.82-6.54-.49-6.54,1-6.54.19-6.54.26-6.53-.42L242.08,767l-6.54,2.24L229,768.12l-6.54.78-6.54-1.29-6.54-.48-6.54,2.24-6.55-2.23-6.55-.08-1.36-1.85L186,758.69l0-6.52,1.18-6.52-.07-6.52-.78-6.52.79-6.52-.35-6.52-.64-6.52,0-6.52,2.05-6.52-2.07-6.52.15-6.52-.21-6.52,2.05-6.52-1.25-6.52-.07-6.52,1.5-6.52-2.2-6.52,2.2-6.52-.61-6.52-1.08-6.52-.33-6.52-.11-6.52.63-6.52-.11-6.52.4-6.52,1-6.52-1.69-6.52.71-6.52,1-6.52-.66-6.52-.54-6.52.79-6.52-.8-6.52.14-6.52-.25-6.52,1.42-6.52-2-6.51.67-6.52,1.35-6.52L186.84,498l-.1-6.52,1.59-6.52.11-6.52-2.26-6.52.09-6.52.05-6.52.24-6.52.33-6.52-.51-6.52,1.61-6.52-1-6.52,1.33-6.52-1.87-6.52-.17-6.52,1.71-6.52-1.46-6.52,1.85-6.52v-6.52l-2.12-6.52.41-6.52-.24-6.52,1.14-6.53.07-6.53.31-6.53.11-6.62-1.58-6.65.24-6.63,1.52-6.58.65-6.59.71-6.58-.92-6.7,1-6.57.12-6.65.1-6.66,2.7-6.34.74-6.57,0-6.7,2.29-6.32.2-6.7,1.37-6.48,1.31-6.5,1.87-6.36,1.65-6.42,2.61-6.14.9-6.65,3.56-5.79,1.44-6.5,2.23-6.23,1.46-6.57,4.59-5.21,2.55-6.09,2.41-6.19,2.1-6.4,4-5.39,3.8-5.44,2.88-6,4.9-4.66,4.15-5.14,2.67-6.35,4.45-4.95,5-4.44,5.13-4.24,4.76-4.65L273,100l3.9-5.75,6.1-3,5.08-4.36,6.26-2.57,5-4.58,6.39-2.19,6-2.75,5.46-4,6-3,6.82-.8,5.58-4.24,6.78-.68,6.22-2.51,6.74-.42,6.53-1.2,6.47-1.58L375,56l6.52-1.54,6.69.49,6.57-2.29,6.69.1,7.22,1.1,7.25.46,6.39.3,6.47-1.45,6.36,1.25,6.39.61,6.41.51,6.24,1.62,6.45.38,6.11,2.13,6.07,2.1,6.35,1,5.92,2.5,6.75.05,6,2.45,5.73,3,6.08,2.15,5.69,3,5.89,2.64,5.07,4.09,5.63,3.09,5.64,3.13,5.34,3.6,4.92,4.17,5,4,4.2,4.94,5.67,3.36,4.44,5,4.16,5.2,4.06,5.25,4.67,4.77,4.15,5.2,3.49,5.67,3.86,5.42,3.39,5.72,3,5.94,2.77,6,1.82,6.46,3.13,5.84,3.76,5.62,1.32,6.6,1.29,6.55,3.45,5.84.65,6.71,3.34,6-.19,6.87,1.51,6.43,3.3,6.09.49,6.66-.15,6.73,1.85,6.42.2,6.65,2.37,6.41-.56,6.72-.37,6.66,2.78,6.47L629,291.6l.79,6.6-.45,6.64,1.91,6.63-.91,6.57-.46,6.57.5,6.57-.3,6.57.24,6.57-1,6.58.39,6.57-.66,6.57.81,6.57,1.55,6.57-1.81,6.57.57,6.58.51,6.58-1.39,6.57,1.67,6.57-.85,6.57-.41,6.58.14,6.58.92,6.57-.26,6.57.09,6.57.19,6.58-1,6.58,1.23,6.57-2,6.57,2,6.58L629,489l2.1,6.57-1.82,6.58v6.58l.17,6.57-.3,6.58,1.81,6.58-.69,6.58.2,6.58-.9,6.58,1.8,6.58-1.89,6.58,1.76,6.57-1.94,6.58L631,581l-.21,6.57L629,594.17l.56,6.58-.12,6.57.15,6.57.67,6.58,1,6.57-1,6.58.57,6.58-1.56,6.58,1.25,6.58.14,6.58-1.47,6.58.1,6.58.11,6.58,2,6.58-1.63,6.58,1.43,6.58L629.14,706l.76,6.58,1.37,6.58-.62,6.58,0,6.58-.09,6.58.61,6.58L629.37,752l.2,6.62Z"/></svg>