<svg xmlns="http://www.w3.org/2000/svg" viewBox="0 0 800 800"><defs><style>.a{fill:#fff;}.b,.c,.d,.e{fill:none;stroke-linejoin:bevel;}.b,.c,.e{stroke:#000;}.b{stroke-width:13px;}.c,.d{stroke-width:7px;}.d{stroke:#fff;}.e{stroke-width:6px;}</style></defs><title>canvas (61)</title><polygon class="a" points="609.89 239.98 602.8 239.21 595.65 239.58 588.56 238.6 581.43 238.38 574.3 238.53 567.19 239.16 560.06 239.19 553.02 240.56 545.89 240.83 538.86 241.97 531.78 242.71 524.73 243.67 517.62 244.31 510.59 245.51 503.72 247.51 496.76 248.97 489.62 249.64 482.75 251.55 475.79 253.07 468.83 254.63 462.17 257.28 455.15 258.63 448.45 261.12 441.7 263.36 434.82 265.24 428.12 267.65 421.38 269.95 414.61 272.19 407.95 274.74 401.6 278.04 394.95 280.61 388.51 283.65 381.79 286.1 375.58 289.62 369.15 292.7 363.18 296.62 356.71 299.65 350.61 303.34 344.75 307.38 338.27 312.03 331.67 316.52 325.94 320.62 320.49 325.08 315.14 329.7 309.36 333.73 303.62 337.8 297.88 341.89 291.98 345.73 285.87 349.27 280.25 353.53 274.56 357.7 268.35 361.07 262.51 365.01 256.67 368.95 250.53 372.42 244.71 376.41 238.76 380.18 232.66 383.72 226.56 387.25 220.11 391.37 214.46 396.56 208.64 401.57 203.62 407.42 197.52 412.14 191.34 416.61 185.12 420.72 179.17 425.22 173.35 429.89 167.28 434.2 161.35 438.69 155.15 442.85 149.17 447.28 143.62 452.26 137.93 457.06 132.31 461.94 126.72 466.54 133.81 468.04 140.89 469.86 147.87 472.11 155.12 473.21 162.26 474.82 169.2 477.22 176.48 478.22 183.4 480.73 190.66 481.82 197.59 484.28 204.71 485.96 212.02 486.8 218.94 489.3 226.07 490.95 233.31 492.13 240.27 494.49 247.65 495.54 247.36 499.38 254.3 496.54 261.04 493.63 268.12 491.69 275.09 489.44 282.04 487.13 289.04 484.99 295.82 482.13 303.01 480.57 309.92 478.13 316.68 475.22 323.9 473.74 330.58 470.64 337.54 468.36 344.64 466.47 351.49 463.88 358.3 461.19 365.17 458.63 371.96 455.88 378.46 452.45 385.17 449.53 391.85 446.5 398.21 442.86 404.4 438.92 410.92 435.57 417.22 431.81 417.39 430.96 423.74 427.57 429.52 423.26 436.07 420.23 442.37 416.79 448.58 413.19 454.83 409.64 461.26 406.43 467.98 403.85 474.51 400.86 480.96 397.67 487.56 394.81 494.3 392.31 501.09 389.96 507.82 387.42 514.9 385.93 521.56 383.17 528.59 381.18 535.62 379.22 542.44 376.59 549.26 373.98 556.26 371.86 563.12 369.34 569.67 366.05 576.4 363.24 583.23 360.63 589.98 357.81 596.3 354.12 602.88 350.96 609.29 347.46 615.58 343.76 622.04 340.33 628.05 336.19 634.1 332.29 639.51 327.52 645.61 323.65 650.63 318.48 655.8 313.51 660.92 308.47 665.2 302.7 669.04 296.65 672.29 290.24 674.28 283.3 673.75 276.13 672.22 269.21 669.08 262.7 663.93 257.59 658.12 253.28 651.58 250.23 645.1 247.07 638.23 244.89 631.05 243.95 624.16 241.83 617.05 240.67 609.89 239.98"/><polygon class="b" points="609.89 239.98 602.8 239.21 595.65 239.58 588.56 238.6 581.43 238.38 574.3 238.53 567.19 239.16 560.06 239.19 553.02 240.56 545.89 240.83 538.86 241.97 531.78 242.71 524.73 243.67 517.62 244.31 510.59 245.51 503.72 247.51 496.76 248.97 489.62 249.64 482.75 251.55 475.79 253.07 468.83 254.63 462.17 257.28 455.15 258.63 448.45 261.12 441.7 263.36 434.82 265.24 428.12 267.65 421.38 269.95 414.61 272.19 407.95 274.74 401.6 278.04 394.95 280.61 388.51 283.65 381.79 286.1 375.58 289.62 369.15 292.7 363.18 296.62 356.71 299.65 350.61 303.34 344.75 307.38 338.27 312.03 331.67 316.52 325.94 320.62 320.49 325.08 315.14 329.7 309.36 333.73 303.62 337.8 297.88 341.89 291.98 345.73 285.87 349.27 280.25 353.53 274.56 357.7 268.35 361.07 262.51 365.01 256.67 368.95 250.53 372.42 244.71 376.41 238.76 380.18 232.66 383.72 226.56 387.25 220.11 391.37 214.46 396.56 208.64 401.57 203.62 407.42 197.52 412.14 191.34 416.61 185.12 420.72 179.17 425.22 173.35 429.89 167.28 434.2 161.35 438.69 155.15 442.85 149.17 447.28 143.62 452.26 137.93 457.06 132.31 461.94 126.72 466.54 133.81 468.04 140.89 469.86 147.87 472.11 155.12 473.21 162.26 474.82 169.2 477.22 176.48 478.22 183.4 480.73 190.66 481.82 197.59 484.28 204.71 485.96 212.02 486.8 218.94 489.3 226.07 490.95 233.31 492.13 240.27 494.49 247.65 495.54 247.36 499.38 254.3 496.54 261.04 493.63 268.12 491.69 275.09 489.44 282.04 487.13 289.04 484.99 295.82 482.13 303.01 480.57 309.92 478.13 316.68 475.22 323.9 473.74 330.58 470.64 337.54 468.36 344.64 466.47 351.49 463.88 358.3 461.19 365.17 458.63 371.96 455.88 378.46 452.45 385.17 449.53 391.85 446.5 398.21 442.86 404.4 438.92 410.92 435.57 417.22 431.81 417.39 430.96 423.74 427.57 429.52 423.26 436.07 420.23 442.37 416.79 448.58 413.19 454.83 409.64 461.26 406.43 467.98 403.85 474.51 400.86 480.96 397.67 487.56 394.81 494.3 392.31 501.09 389.96 507.82 387.42 514.9 385.93 521.56 383.17 528.59 381.18 535.62 379.22 542.44 376.59 549.26 373.98 556.26 371.86 563.12 369.34 569.67 366.05 576.4 363.24 583.23 360.63 589.98 357.81 596.3 354.12 602.88 350.96 609.29 347.46 615.58 343.76 622.04 340.33 628.05 336.19 634.1 332.29 639.51 327.52 645.61 323.65 650.63 318.48 655.8 313.51 660.92 308.47 665.2 302.7 669.04 296.65 672.29 290.24 674.28 283.3 673.75 276.13 672.22 269.21 669.08 262.7 663.93 257.59 658.12 253.28 651.58 250.23 645.1 247.07 638.23 244.89 631.05 243.95 624.16 241.83 617.05 240.67 609.89 239.98"/><polygon class="a" points="127.7 465.68 134.95 467.87 141.89 469.97 149.15 470.75 156.18 472.52 163.16 474.46 170.07 476.67 177.09 478.46 184.11 480.24 191.28 481.42 198.27 483.3 205.37 484.77 212.31 486.89 219.23 489.06 226.45 490.06 233.48 491.8 240.48 493.66 247.44 495.73 254.22 497.61 254.65 504.58 254.78 511.76 254.61 518.94 254.32 526.13 254.83 533.31 254.8 540.5 254.73 547.68 254.03 554.87 254.32 562.06 254.87 569.24 254.02 576.43 254.45 583.62 254.54 590.8 254.89 597.99 254.12 605.18 254.08 612.36 254.57 619.55 254.75 626.74 254.64 633.93 254.04 641.12 254.67 648.54 247.52 646.31 240.52 644.37 233.4 642.9 226.42 640.92 219.44 638.88 212.44 636.96 205.41 635.13 198.32 633.55 191.16 632.2 184.15 630.34 177.18 628.25 170.12 626.57 163.25 624.13 156.1 622.73 149.14 620.66 142.08 618.94 135.03 617.18 127.94 615.45 128.21 608.31 128.24 601.2 127.85 594.09 128.03 586.98 128.21 579.86 128.26 572.75 128.25 565.63 128.44 558.52 127.63 551.4 127.9 544.29 128.41 537.17 128.02 530.06 127.84 522.95 128.36 515.83 127.94 508.72 127.78 501.6 127.66 494.49 128.16 487.37 128.43 480.25 128.31 473.12 127.7 465.68"/><polygon class="b" points="127.7 465.68 134.95 467.87 141.89 469.97 149.15 470.75 156.18 472.52 163.16 474.46 170.07 476.67 177.09 478.46 184.11 480.24 191.28 481.42 198.27 483.3 205.37 484.77 212.31 486.89 219.23 489.06 226.45 490.06 233.48 491.8 240.48 493.66 247.44 495.73 254.22 497.61 254.65 504.58 254.78 511.76 254.61 518.94 254.32 526.13 254.83 533.31 254.8 540.5 254.73 547.68 254.03 554.87 254.32 562.06 254.87 569.24 254.02 576.43 254.45 583.62 254.54 590.8 254.89 597.99 254.12 605.18 254.08 612.36 254.57 619.55 254.75 626.74 254.64 633.93 254.04 641.12 254.67 648.54 247.52 646.31 240.52 644.37 233.4 642.9 226.42 640.92 219.44 638.88 212.44 636.96 205.41 635.13 198.32 633.55 191.16 632.2 184.15 630.34 177.18 628.25 170.12 626.57 163.25 624.13 156.1 622.73 149.14 620.66 142.08 618.94 135.03 617.18 127.94 615.45 128.21 608.31 128.24 601.2 127.85 594.09 128.03 586.98 128.21 579.86 128.26 572.75 128.25 565.63 128.44 558.52 127.63 551.4 127.9 544.29 128.41 537.17 128.02 530.06 127.84 522.95 128.36 515.83 127.94 508.72 127.78 501.6 127.66 494.49 128.16 487.37 128.43 480.25 128.31 473.12 127.7 465.68"/><polyline class="a" points="254.51 647.61 261.06 644.26 268.18 642.36 275.12 640.03 282.07 637.73 288.88 634.98 295.8 632.6 302.88 630.67 309.78 628.21 316.81 626.12 323.69 623.58 330.68 621.4 337.7 619.28 344.59 616.79 351.41 614.11 358.36 611.77 365.4 609.66 371.93 606.26 378.63 603.31 385.63 601.03 391.98 597.3 398.48 593.94 405.3 591.17 411.44 587.14 417.69 583.33 423.97 579.55 424.76 579.6 430.42 575.12 436.88 571.92 442.99 568.16 449.22 564.59 455.39 560.91 461.77 557.6 468.19 554.37 474.73 551.37 481.51 548.94 488.14 546.17 494.72 543.31 501.49 540.88 508.15 538.18 514.92 535.79 521.89 533.98 528.67 531.6 535.57 529.18 542.47 526.8 549.38 524.47 556.22 521.93 563.37 520.2 569.88 516.77 576.81 514.44 583.59 511.7 590.29 508.79 596.63 505.13 603.22 502 609.66 498.57 616.37 495.65 622.66 491.93 628.79 487.96 635.17 484.39 640.69 480.16 645.88 475.56 651.36 471.29 656.15 466.27 660.15 460.6 664 454.88 667.2 448.78 669.98 442.47 671.74 435.78 672.17 428.88 671.3 422.06"/><polyline class="b" points="254.51 647.61 261.06 644.26 268.18 642.36 275.12 640.03 282.07 637.73 288.88 634.98 295.8 632.6 302.88 630.67 309.78 628.21 316.81 626.12 323.69 623.58 330.68 621.4 337.7 619.28 344.59 616.79 351.41 614.11 358.36 611.77 365.4 609.66 371.93 606.26 378.63 603.31 385.63 601.03 391.98 597.3 398.48 593.94 405.3 591.17 411.44 587.14 417.69 583.33 423.97 579.55 424.76 579.6 430.42 575.12 436.88 571.92 442.99 568.16 449.22 564.59 455.39 560.91 461.77 557.6 468.19 554.37 474.73 551.37 481.51 548.94 488.14 546.17 494.72 543.31 501.49 540.88 508.15 538.18 514.92 535.79 521.89 533.98 528.67 531.6 535.57 529.18 542.47 526.8 549.38 524.47 556.22 521.93 563.37 520.2 569.88 516.77 576.81 514.44 583.59 511.7 590.29 508.79 596.63 505.13 603.22 502 609.66 498.57 616.37 495.65 622.66 491.93 628.79 487.96 635.17 484.39 640.69 480.16 645.88 475.56 651.36 471.29 656.15 466.27 660.15 460.6 664 454.88 667.2 448.78 669.98 442.47 671.74 435.78 672.17 428.88 671.3 422.06"/><polyline class="a" points="672.26 425.47 672.74 418.11 672.01 410.74 672.13 403.38 672.63 396.03 672.48 388.67 672.86 381.31 672.68 373.95 673 366.59 673 359.23 673.33 351.87 673.28 344.5 673.11 337.14 673.35 329.78 673.88 322.43 673.89 315.06 674.28 307.7 674.1 300.34 674.17 292.97 674.34 285.61 674.55 278.24 674.15 270.87"/><polyline class="b" points="672.26 425.47 672.74 418.11 672.01 410.74 672.13 403.38 672.63 396.03 672.48 388.67 672.86 381.31 672.68 373.95 673 366.59 673 359.23 673.33 351.87 673.28 344.5 673.11 337.14 673.35 329.78 673.88 322.43 673.89 315.06 674.28 307.7 674.1 300.34 674.17 292.97 674.34 285.61 674.55 278.24 674.15 270.87"/><polyline class="a" points="470.92 402.45 470.63 409.64 470.42 416.83 469.88 424.02 470.33 431.23 469.55 438.42 470.15 445.63 469.75 452.82 469.42 460.02 469.98 467.22 469.96 474.43 469.18 481.63 469.48 488.83 470.15 496.03 469.81 503.24 470.25 510.43 470.17 517.63 469.99 524.84 470.42 532.04 469.81 539.26 470.26 546.46 470.39 553.67"/><polyline class="b" points="470.92 402.45 470.63 409.64 470.42 416.83 469.88 424.02 470.33 431.23 469.55 438.42 470.15 445.63 469.75 452.82 469.42 460.02 469.98 467.22 469.96 474.43 469.18 481.63 469.48 488.83 470.15 496.03 469.81 503.24 470.25 510.43 470.17 517.63 469.99 524.84 470.42 532.04 469.81 539.26 470.26 546.46 470.39 553.67"/><polygon points="628.1 336.26 633.56 331.99 639.48 328.36 644.85 323.99 650.26 319.65 655.01 314.59 660.04 309.81 664.08 304.17 668.51 298.46 662.05 294.26 655.9 290.11 648.84 287.8 642.09 284.66 634.85 283 627.5 281.98 620.3 280.01 612.91 279.28 605.8 278.72 598.67 278.54 591.56 278.09 584.43 278.25 577.31 278.21 570.2 278.65 563.11 279.49 555.96 279.38 548.88 280.17 541.77 280.68 534.73 281.83 527.7 282.93 520.61 283.74 513.73 285.72 506.59 286.28 499.59 287.64 492.75 289.69 485.74 291.01 478.78 292.51 471.85 294.17 465.08 296.45 458.22 298.36 451.45 300.57 444.56 302.42 437.94 305.06 431.06 306.97 424.4 309.47 417.7 311.92 411.21 314.87 404.35 316.91 397.88 319.92 391.62 323.36 385.04 326.1 378.79 329.51 372.27 332.38 366 335.76 359.69 339.09 353.7 342.94 347.87 347.04 340.97 351.09 334.51 355.78 329.14 360.36 323.27 364.26 317.98 368.96 312.42 373.29 306.36 376.91 300.74 381.16 294.64 384.72 289.33 389.42 283.35 393.15 277.11 396.48 271.49 400.77 265.62 404.65 259.63 408.36 253.3 411.52 247.74 415.93 241.36 419 235.72 423.29 229.6 426.8 223.26 431.02 217.33 435.88 212.01 441.42 206.61 446.89 200.38 451.44 194.42 456.2 188.69 460.09 183.03 464.06 177.43 468.14 171.81 472.18 166.07 476.45 172.97 477.86 179.77 479.39 186.43 481.49 193.27 482.83 200.18 483.9 206.78 486.22 213.66 487.4 220.49 488.82 227.25 490.5 233.97 492.33 240.79 493.82 247.38 495.9 247.16 499.55 254.4 496.8 261.34 494.46 267.95 491.2 274.9 488.87 281.96 486.88 288.9 484.55 296 482.7 302.71 479.66 309.81 477.79 316.71 475.32 323.67 473.07 330.86 471.46 337.61 468.56 344.5 466.07 351.53 463.99 358.44 461.55 364.93 458.05 371.73 455.32 378.75 453.1 385.07 449.32 391.71 446.23 398.4 443.21 404.72 439.48 410.8 435.37 417.19 431.77 417.65 431.37 423.84 427.72 429.96 423.99 436.02 420.14 442.34 416.75 448.62 413.26 455.05 410.08 461.56 407.06 467.81 403.48 474.62 401.12 481.26 398.4 487.82 395.48 494.43 392.67 501.25 390.39 507.84 387.48 514.79 385.59 521.53 383.08 528.49 380.87 535.54 378.97 542.53 376.83 549.42 374.42 556.19 371.67 562.94 368.89 569.83 366.44 576.36 363.14 583.21 360.6 589.78 357.41 596.59 354.7 602.86 350.92 609.27 347.44 615.53 343.69 622.08 340.42 628.1 336.26"/><polygon class="b" points="628.1 336.26 633.56 331.99 639.48 328.36 644.85 323.99 650.26 319.65 655.01 314.59 660.04 309.81 664.08 304.17 668.51 298.46 662.05 294.26 655.9 290.11 648.84 287.8 642.09 284.66 634.85 283 627.5 281.98 620.3 280.01 612.91 279.28 605.8 278.72 598.67 278.54 591.56 278.09 584.43 278.25 577.31 278.21 570.2 278.65 563.11 279.49 555.96 279.38 548.88 280.17 541.77 280.68 534.73 281.83 527.7 282.93 520.61 283.74 513.73 285.72 506.59 286.28 499.59 287.64 492.75 289.69 485.74 291.01 478.78 292.51 471.85 294.17 465.08 296.45 458.22 298.36 451.45 300.57 444.56 302.42 437.94 305.06 431.06 306.97 424.4 309.47 417.7 311.92 411.21 314.87 404.35 316.91 397.88 319.92 391.62 323.36 385.04 326.1 378.79 329.51 372.27 332.38 366 335.76 359.69 339.09 353.7 342.94 347.87 347.04 340.97 351.09 334.51 355.78 329.14 360.36 323.27 364.26 317.98 368.96 312.42 373.29 306.36 376.91 300.74 381.16 294.64 384.72 289.33 389.42 283.35 393.15 277.11 396.48 271.49 400.77 265.62 404.65 259.63 408.36 253.3 411.52 247.74 415.93 241.36 419 235.72 423.29 229.6 426.8 223.26 431.02 217.33 435.88 212.01 441.42 206.61 446.89 200.38 451.44 194.42 456.2 188.69 460.09 183.03 464.06 177.43 468.14 171.81 472.18 166.07 476.45 172.97 477.86 179.77 479.39 186.43 481.49 193.27 482.83 200.18 483.9 206.78 486.22 213.66 487.4 220.49 488.82 227.25 490.5 233.97 492.33 240.79 493.82 247.38 495.9 247.16 499.55 254.4 496.8 261.34 494.46 267.95 491.2 274.9 488.87 281.96 486.88 288.9 484.55 296 482.7 302.71 479.66 309.81 477.79 316.71 475.32 323.67 473.07 330.86 471.46 337.61 468.56 344.5 466.07 351.53 463.99 358.44 461.55 364.93 458.05 371.73 455.32 378.75 453.1 385.07 449.32 391.71 446.23 398.4 443.21 404.72 439.48 410.8 435.37 417.19 431.77 417.65 431.37 423.84 427.72 429.96 423.99 436.02 420.14 442.34 416.75 448.62 413.26 455.05 410.08 461.56 407.06 467.81 403.48 474.62 401.12 481.26 398.4 487.82 395.48 494.43 392.67 501.25 390.39 507.84 387.48 514.79 385.59 521.53 383.08 528.49 380.87 535.54 378.97 542.53 376.83 549.42 374.42 556.19 371.67 562.94 368.89 569.83 366.44 576.36 363.14 583.21 360.6 589.78 357.41 596.59 354.7 602.86 350.92 609.27 347.44 615.53 343.69 622.08 340.42 628.1 336.26"/><polyline class="c" points="254.38 539.51 261.61 538.86 268.73 537.42 275.8 535.7 283.05 535.08 290.17 533.73 297.19 531.85 304.41 530.96 311.41 529 318.49 527.45 325.62 526.11 332.6 524.08 339.82 523.06 346.73 520.82 353.75 518.96 360.77 517.12 367.66 514.84 374.56 512.59 381.43 510.28 388.4 508.21 395.26 505.83 402.06 503.28 408.58 500.07 415.4 497.51 421.7 493.89 428.14 490.54 434.4 486.85 440.07 482.31 445.72 478.04 451.55 474.02 458 471 463.88 467.07 470.17 463.87 476.57 460.91 482.81 457.52 489.64 455.59 496.35 453.39 503.15 451.48 510.12 450.31 517.07 449.12 524.05 448.18 531.02 446.9 538.1 446.77 545.12 445.99 552.18 445.75 559.22 445.13 566.19 443.96 573.32 442.78 580.38 441.12 586.98 438.07 593.84 435.71 600.31 432.45 606.65 428.94 612.92 425.33 619.14 421.61 624.9 417.2 630.82 413.04 636.82 408.98 642.93 405.05 648.54 400.44 653.9 395.56 658.98 390.37 664.23 385.4 669.22 380.18 674.63 375.3"/><polyline class="c" points="254.17 576.44 260.59 573.22 266.67 569.41 273.21 566.42 279.22 562.5 285.38 558.83 291.75 555.54 297.89 551.82 304.45 548.9 310.94 545.83 316.96 541.88 323.71 539.36 330.02 535.95 336.45 532.79 342.8 529.44 349.67 527.22 355.92 523.65 362.6 521.03 369.11 518 376.01 515.95 382.64 513.23 389.46 511 396.27 508.77 403.17 506.81 410.17 505.13 417.3 504.17 424.47 504.85 431.49 505.66 438.35 507.75 445.49 508.66 452.64 508.04 459.52 506.24 466.25 503.98 472.89 501.39 479.61 498.95 486.06 495.89 492.68 493.25 499.52 491.22 506.21 488.75 512.97 486.41 519.92 484.74 526.97 483.59 533.93 482.02 540.91 480.46 548.06 480.03 555.13 479 562.16 477.57 569.5 477.08 576.75 475.89 583.95 474.39 591.1 472.77 598.27 471.17 605.33 469.11 612.22 466.54 619.09 463.92 625.86 461.02 632 456.92 638.39 453.3 644.21 448.84 650.2 444.57 655.28 439.26 660.79 434.35 665.05 428.33 669.04 422.17 671.85 415.44"/><polyline class="c" points="514.96 534.99 507.68 536.29 500.45 537.8 493.19 539.18 486.05 541.07 478.76 542.27 471.55 543.9 464.23 544.91 456.99 546.39 449.6 546.85 442.25 547.53 434.88 548.26 427.5 547.56 420.13 547.22 412.93 545.6 405.65 544.29 398.24 544.25 390.88 544.31 383.49 544.6 376.47 546.88 369.44 548.87 362.51 551.23 355.77 554.11 348.92 556.77 342.25 559.84 335.85 563.45 329.46 567.05 323.08 570.67 316.74 574.37 310.23 577.75 304.01 581.67 297.68 585.37 291.19 588.84 284.98 592.74 279.08 597.15 272.82 600.97 266.82 605.2 260.61 609.1 254.39 613.29 248 609.47 241.21 606.79 234.91 603.13 228.29 600.12 221.62 597.23 215.32 593.49 208.55 590.81 201.87 587.9 194.83 585.96 187.81 584.13 180.62 583.13 174.81 587.27 168.76 591.1 163.25 595.63 157.32 599.59 151.2 603.13 144.69 605.97 137.73 605.06 131.71 601.45 127.8 595.46"/><polyline class="c" points="268.22 496.36 275.21 495.77 282.15 494.71 289.14 494.12 296.08 493.12 303.02 492.09 310.01 491.46 316.98 490.62 323.93 489.6 330.71 487.66 337.59 486.3 344.58 485.5 351.43 483.96 358.37 482.9 365.09 480.75 372.01 479.53 378.78 477.65 385.66 475.93 392.49 474.01 399.27 471.9 406.07 469.81 412.37 466.44 419.11 464.1 425.25 460.48 431.47 457.06 437.55 453.38 443.85 450.1 450.12 446.77 456.23 443.14 462.39 439.58 469.03 437.01 475.64 434.44 482.57 432.96 489.59 432.12 496.61 432.86 503.52 434.29 510.62 435.57 517.73 436.75 524.92 436.27 532.1 435.65 539.07 433.81 546.24 432.55 552.87 429.6 559.42 426.57 566.18 423.94 572.59 420.6 578.88 417.02 585.1 413.32 591.26 409.52 597.14 405.29 603.22 401.39 609.22 397.34 614.78 392.69 621.15 389.18 626.79 384.1 632.77 379.48 638.48 374.55 644.34 369.76 649.4 364.13 654.65 358.69 660.24 353.54 667.07 350.23 674.36 348.62"/><polyline class="c" points="296.98 632.63 299.86 626.18 304.65 620.96 308.68 615.15 313.4 609.89 318.51 605 324.49 601.17 330.21 597.09 335.7 592.59 341.9 589.19 348.45 586.5 355.02 583.97 361.62 581.55 368.28 579.21 375.04 577.16 382.05 576.24 389.06 575.43 396.02 574.35 403.05 573.86 410.1 573.41 417.15 573.88 424.2 573.83"/><polyline class="c" points="507.28 534.54 511.25 528.11 516.36 522.61 522.23 517.9 529.09 514.7 536.54 513.47 544.02 513.43 551.59 513.36 558.95 515.08"/><polyline class="c" points="491.05 393.54 498.01 395.65 504.98 397.81 512.21 398.78 519.37 400.02 526.5 401.56 533.75 402.26 541.05 402.32 548.27 403.29 555.55 403.38 562.81 402.93 570.09 402.79 577.27 401.61 584.37 400.04 591.21 397.59 597.79 394.37 603.01 389.26 608.54 384.59 613.48 379.29 618.2 373.78 622.55 367.97 626.39 361.8 630.64 355.9 634.59 349.81 637.48 343.09 641.73 337.17 645.28 330.84 649.21 324.71 654.8 320.01"/><polyline class="c" points="126.34 496.22 129.75 502.63 134.84 507.76 140.71 511.98 147.17 515.27 154.01 517.64 161.06 519.27 168.06 521.11 175.15 522.64 182.42 522.88 189.61 523.87 196.86 524.3 204.39 524.21 211.85 523.07 219.32 522.5 226.78 521.32 233.45 517.79 239.3 513.31 243.39 507.15 249.29 507.43 254.03 513.31"/><polyline class="c" points="127.92 543.96 134.29 540.37 140.92 537.31 147.81 534.87 154.63 532.28 161.73 530.56 168.72 528.45 175.92 527.21 183.2 526.41 190.5 527.21 197.25 529.96 203.38 533.69 207.22 539.81 211.1 546.03 214.66 552.33 219.2 557.96 224.71 562.77 230.72 565.38 236.4 568.58 242.63 570.66 249.28 570.71 254.81 566.91"/><polyline class="c" points="127.88 570.3 134.31 566.74 141.11 563.7 147.7 560.18 154.72 557.63 162.06 556.18 169.27 554.28 176.72 553.52 184.16 554.5 191.25 556.91 197.44 560.25 204.04 562.69 210.99 563.89 217.86 565.29 224.67 567.08 231.69 567.68 238.48 569.51 244.87 572.36 250.17 576.8"/><polyline class="c" points="180.69 629.2 186.85 625.27 193.64 622.61 200.5 620.27 207.54 618.44 214.8 618.73 221.71 620.67 228.02 624.29 232.31 630.2 235.65 636.71 237.58 643.78"/><polyline class="c" points="127.75 483.7 133.64 487.88 139.49 492.14 146.09 495.14 152.97 497.47 160.11 498.74 167.35 498.95 174.57 499.23 181.76 498.46 188.77 496.73 195.8 495.15 202.78 493.2 209.51 490.53 215.93 487.17 221.98 483.18"/><polygon class="d" points="606.38 232.9 600.44 230.61 594.17 229.79 587.87 228.66 580.73 228.87 573.75 230.33 566.95 232.36 560.26 234.68 553.66 237.22 546.93 239.56 540.96 243.45 534.99 247.27 529.08 251.17 523.35 255.34 523.05 255.19 523.4 255.4 517.41 259.55 512.61 265.03 507.25 269.94 502.52 275.46 498.71 281.67 495.26 288.02 490.42 297.5 490.75 297.58 490.1 297.41 487.81 304.91 486.12 312.59 486.43 320.47 487.14 320.3 486.62 320.43 488.29 326.68 490.63 332.75 495.09 337.49 500.04 341.7 500.28 341.63 500.41 341.06 506.91 344.94 514.41 346.04 521.9 347.14 525.53 347.04 525.5 346.33 525.61 347.01 534.1 345.89 542.38 343.76 542.45 344.01 542.58 344.16 549.59 341.69 556.52 339.02 563.18 335.76 569.83 332.45 576.17 328.59 582.22 324.26 588.18 319.82 587.92 319.54 587.59 319.1 592.98 314.7 598.45 310.31 602.83 304.85 607.45 299.61 611.49 293.91 615.26 288.02 617.66 281.39 620.82 275.14 622.85 268.4 623.83 261.41 622.67 254.4 623.41 246.61 619.93 239.64 614.08 234.45 606.38 232.9"/><polygon class="a" points="607.96 287.85 604.54 294.16 600.26 299.92 595.32 305.12 590.69 310.58 585.57 315.59 579.82 319.86 574.14 324.19 568.54 328.65 562.43 332.39 556.02 335.57 549.69 338.92 543.09 341.74 536.23 343.87 529.24 345.46 522.15 346.58 514.98 346.6 508.1 346.24 501.44 344.57 494.95 342.37 489.47 338.29 484.77 333.4 481.18 327.52 479.41 320.81 479.69 313.89 480.09 306.98 482.68 300.54 484.67 293.93 488.27 288.03 491.92 281.91 496.19 276.2 500.06 270.13 505.53 265.45 510.29 260.1 515.53 255.19 521.46 251.14 527.56 247.41 533.34 243.14 539.66 239.77 546.33 237.14 553.02 234.66 559.77 232.35 566.71 230.7 573.72 229.27 580.87 228.96 587.74 229.5 594.59 230.49 600.77 233.55 606.73 236.97 611.26 242.15 614.75 248.12 615.79 254.94 616.76 261.81 615.61 268.66 613.98 275.39 611.52 281.89 607.96 287.85"/><polygon class="c" points="607.96 287.85 604.54 294.16 600.26 299.92 595.32 305.12 590.69 310.58 585.57 315.59 579.82 319.86 574.14 324.19 568.54 328.65 562.43 332.39 556.02 335.57 549.69 338.92 543.09 341.74 536.23 343.87 529.24 345.46 522.15 346.58 514.98 346.6 508.1 346.24 501.44 344.57 494.95 342.37 489.47 338.29 484.77 333.4 481.18 327.52 479.41 320.81 479.69 313.89 480.09 306.98 482.68 300.54 484.67 293.93 488.27 288.03 491.92 281.91 496.19 276.2 500.06 270.13 505.53 265.45 510.29 260.1 515.53 255.19 521.46 251.14 527.56 247.41 533.34 243.14 539.66 239.77 546.33 237.14 553.02 234.66 559.77 232.35 566.71 230.7 573.72 229.27 580.87 228.96 587.74 229.5 594.59 230.49 600.77 233.55 606.73 236.97 611.26 242.15 614.75 248.12 615.79 254.94 616.76 261.81 615.61 268.66 613.98 275.39 611.52 281.89 607.96 287.85"/><polygon points="610.77 267.21 606.85 273.35 602.06 278.84 596.21 283.21 590.93 288.27 584.83 292.28 578.1 295.12 571.6 298.4 564.5 300.03 557.55 302.28 550.25 302.61 543.05 301.42 535.92 299.69 530.23 294.95 527.75 288.09 527.64 280.9 529.16 273.76 532.66 267.31 537.04 261.53 541.42 255.71 546.72 250.68 552.52 246.24 559.03 242.92 565.32 239.3 571.89 236.15 578.96 234.42 585.99 232.62 593.23 231.74 600.54 232.59 607.35 235.25 613.39 239.49 615.88 246.43 616.02 253.68 614.4 260.82 610.77 267.21"/><polygon class="c" points="610.77 267.21 606.85 273.35 602.06 278.84 596.21 283.21 590.93 288.27 584.83 292.28 578.1 295.12 571.6 298.4 564.5 300.03 557.55 302.28 550.25 302.61 543.05 301.42 535.92 299.69 530.23 294.95 527.75 288.09 527.64 280.9 529.16 273.76 532.66 267.31 537.04 261.53 541.42 255.71 546.72 250.68 552.52 246.24 559.03 242.92 565.32 239.3 571.89 236.15 578.96 234.42 585.99 232.62 593.23 231.74 600.54 232.59 607.35 235.25 613.39 239.49 615.88 246.43 616.02 253.68 614.4 260.82 610.77 267.21"/><polygon class="a" points="610.93 255.21 606.81 261.06 601.85 266.2 596.3 270.79 589.55 273.32 582.57 274.32 576.35 272.89 572.63 267.88 572.09 261.43 574.47 255.26 578.6 249.48 583.31 244.11 588.91 239.57 595.45 236.41 602.65 235.98 608.88 237.48 612.57 242.5 613.07 248.94 610.93 255.21"/><polygon class="c" points="610.93 255.21 606.81 261.06 601.85 266.2 596.3 270.79 589.55 273.32 582.57 274.32 576.35 272.89 572.63 267.88 572.09 261.43 574.47 255.26 578.6 249.48 583.31 244.11 588.91 239.57 595.45 236.41 602.65 235.98 608.88 237.48 612.57 242.5 613.07 248.94 610.93 255.21"/><polyline class="c" points="535.38 272.63 528.9 272.41 522.39 272.84 516.23 274.9 510.35 277.6 505.46 282.06 501.47 287.95 496.62 293.12 490.32 296.21 483.31 296.98"/><polyline class="c" points="527.05 287.7 519.98 290.05 514.19 294.64 510.81 301.27 507.34 307.97 501.09 312.6 494.32 316.36 487.24 319.49 479.73 320.32"/><polyline class="c" points="493.03 341.96 491.99 335.99 495.56 330.54 500.63 326.46 506.13 322.33 512.35 319.34 518.84 317.02 525.14 314.12 531.82 312.28 538.13 309.35 542.63 304.08 544.21 297.4"/><polyline class="c" points="505.14 346.55 508.38 340.82 512.87 336.02 517.03 330.96 522.81 327.8 529.88 326.27 537.03 325.35 544.12 324 550.87 321.46 556.86 317.44 561.13 311.58 562.59 304.48"/><polyline class="c" points="535.73 343.63 534.84 337.54 538.08 332.26 544.15 330.35 551.09 329.59 557.99 328.6 564.85 327.36 571.74 326.32"/><polyline class="c" points="580.66 319.78 578.49 312.34 577.85 304.74 579.01 297.23 584.06 291.83"/><polyline class="c" points="516.19 254.88 524.13 254.29 532.07 254.24 540.01 254.62 547.92 255.26"/><polygon class="d" points="488.54 273.33 482.5 271.37 476.23 270.28 469.87 269.72 462.79 270.38 455.82 271.7 448.76 272.69 442.2 275.51 435.51 277.87 428.92 280.54 422.66 283.93 416.68 287.78 410.59 291.48 405.16 296.1 405.57 296.19 405.07 296 399.82 301.01 394.32 305.74 389.31 310.99 385.19 316.98 380.41 322.47 377.15 328.96 372.37 338.48 372.12 338.46 372.53 338.58 369.74 345.89 368.87 353.66 368.57 361.46 368.27 361.56 368.96 361.39 370.23 367.7 373.01 373.51 377.24 378.33 382.15 382.51 382.49 382.86 382.14 382.52 388.9 385.97 396.4 387.07 403.9 388 407.51 387.8 407.51 388.05 407.56 387.11 416.11 386.95 424.39 384.82 424.3 384.31 424.36 384.36 431.38 382.08 438.58 380.18 445.25 376.91 451.87 373.52 458.2 369.63 464.15 365.17 469.56 360.08 469.9 360.51 470.12 360.74 475.05 355.77 480.28 351.15 484.86 345.88 489.29 340.49 493.01 334.59 497.07 328.91 500.16 322.62 502.68 316.09 504.09 309.25 505.43 302.39 504.92 295.41 505.49 287.6 501.63 280.87 495.77 276.06 488.54 273.33"/><polygon class="a" points="490.15 327.95 486.31 334.01 482.42 340.04 477.14 344.96 472.57 350.46 467.71 355.74 461.84 359.88 456.49 364.67 450.63 368.78 444.2 371.99 438.2 375.92 431.44 378.36 424.9 381.2 418.17 383.66 411.17 385.12 404.17 386.75 396.98 386.59 390.13 386 383.33 384.94 376.86 382.55 371.4 378.37 366.88 373.32 363.04 367.57 361.77 360.76 361.22 353.86 361.99 346.96 364.55 340.5 366.62 333.91 370.33 328.06 373.35 321.54 378.05 316.1 382 310.08 387.2 305.13 392.11 299.89 397.5 295.15 403.75 291.55 409.19 286.83 415.62 283.62 421.84 280.12 428.38 277.24 434.9 274.32 441.72 272.18 448.57 269.98 455.69 269.01 462.87 269.23 469.75 269.4 476.5 270.8 483.13 272.85 488.37 277.39 493.47 282 496.38 288.25 497.66 294.96 498.67 301.81 497.75 308.69 496.07 315.43 493.45 321.86 490.15 327.95"/><polygon class="c" points="490.15 327.95 486.31 334.01 482.42 340.04 477.14 344.96 472.57 350.46 467.71 355.74 461.84 359.88 456.49 364.67 450.63 368.78 444.2 371.99 438.2 375.92 431.44 378.36 424.9 381.2 418.17 383.66 411.17 385.12 404.17 386.75 396.98 386.59 390.13 386 383.33 384.94 376.86 382.55 371.4 378.37 366.88 373.32 363.04 367.57 361.77 360.76 361.22 353.86 361.99 346.96 364.55 340.5 366.62 333.91 370.33 328.06 373.35 321.54 378.05 316.1 382 310.08 387.2 305.13 392.11 299.89 397.5 295.15 403.75 291.55 409.19 286.83 415.62 283.62 421.84 280.12 428.38 277.24 434.9 274.32 441.72 272.18 448.57 269.98 455.69 269.01 462.87 269.23 469.75 269.4 476.5 270.8 483.13 272.85 488.37 277.39 493.47 282 496.38 288.25 497.66 294.96 498.67 301.81 497.75 308.69 496.07 315.43 493.45 321.86 490.15 327.95"/><polygon points="492.73 307.18 488.36 312.95 483.73 318.52 478.52 323.58 472.56 327.74 466.86 332.33 460.24 335.42 453.38 337.81 446.54 340.19 439.46 341.7 432.25 342.99 424.9 342.18 418.05 339.47 412.64 334.64 409.57 328.13 409.39 320.86 411.68 313.96 414.88 307.45 418.94 301.46 423.81 296.09 428.71 290.67 434.6 286.35 440.72 282.38 447.42 279.51 453.96 276.34 460.88 274.14 467.97 272.5 475.23 272.49 482.49 272.87 489.64 274.71 494.63 280.08 497.95 286.42 497.68 293.63 496.53 300.88 492.73 307.18"/><polygon class="c" points="492.73 307.18 488.36 312.95 483.73 318.52 478.52 323.58 472.56 327.74 466.86 332.33 460.24 335.42 453.38 337.81 446.54 340.19 439.46 341.7 432.25 342.99 424.9 342.18 418.05 339.47 412.64 334.64 409.57 328.13 409.39 320.86 411.68 313.96 414.88 307.45 418.94 301.46 423.81 296.09 428.71 290.67 434.6 286.35 440.72 282.38 447.42 279.51 453.96 276.34 460.88 274.14 467.97 272.5 475.23 272.49 482.49 272.87 489.64 274.71 494.63 280.08 497.95 286.42 497.68 293.63 496.53 300.88 492.73 307.18"/><polygon class="a" points="492.65 295.07 488.88 301.12 483.75 306.08 478.31 310.81 471.59 313.44 464.57 314.97 458.02 313.44 453.85 308.12 454.23 301.46 456.15 295.1 460.56 289.44 465.44 284.27 471.26 280.16 477.63 276.97 484.65 275.41 490.95 277.35 495.41 282.24 495.09 288.94 492.65 295.07"/><polygon class="c" points="492.65 295.07 488.88 301.12 483.75 306.08 478.31 310.81 471.59 313.44 464.57 314.97 458.02 313.44 453.85 308.12 454.23 301.46 456.15 295.1 460.56 289.44 465.44 284.27 471.26 280.16 477.63 276.97 484.65 275.41 490.95 277.35 495.41 282.24 495.09 288.94 492.65 295.07"/><polyline class="c" points="417.47 311.93 410.88 311.9 404.42 313.04 398.08 314.52 392.11 317.29 387.81 322.28 383.96 328.34 378.77 333.31 372.52 336.93 365.31 337.09"/><polyline class="c" points="409.06 327.79 402.33 330.99 396.07 334.97 390.6 339.88 387.55 346.36 383.97 353.65 377.29 358.21 369.68 360.88 361.74 360.31"/><polyline class="c" points="375.17 381.5 379.59 376.41 384.13 371.4 389.2 366.93 394.23 362.43 398.81 357.46 403.96 353.08 410.3 348.41 418.03 347.08 425.05 344.96 425.91 337.43"/><polyline class="c" points="400.68 386.6 400.55 378.99 401.58 371.37 405.9 365.01 412.74 361.74 420.06 359.11 427.63 357.52 435.25 355.96 441.68 351.58 444.94 344.51"/><polyline class="c" points="417.17 383.88 416.38 377.45 420.36 372.69 426.14 370.27 433.07 369.46 439.91 368.06 446.79 366.95 453.75 366.39"/><polyline class="c" points="462.61 359.51 461.91 352.42 462 345.32 462.96 338.38 466.01 332.22"/><polyline class="c" points="398.27 295.56 406.16 294.94 414.08 294.8 422 294.75 429.87 295.64"/><polyline points="285.94 162.35 282.35 168.51 278.97 174.79 275.01 180.72 270.63 186.32 266.09 191.76 261.12 196.88 255.13 200.77 248.68 203.77 242.22 206.73 235.95 209.93 230.03 213.68 225.3 218.85 220.51 224.05 217.03 230.2 214 236.57 210.72 242.81 208.53 249.09 205.36 254.91 202.58 260.93 199.07 266.57 194.62 271.56 188.71 274.44 182.52 276.52 176.08 277.88 169.47 281.31 163.31 285.47 157.9 290.56 153.1 296.2 148.2 301.75 144.45 308.15 140.08 314.14 136.21 320.46 132.37 327.27 137.58 322.2 142.31 317.28 147.69 313.1 152.89 308.61 159.28 306.11 165.99 305.25 172.68 305.54 179.11 307.56 186.15 309.72 193.07 311.74 199.87 309.96 205.52 305.27 210.58 299.96 216.02 294.24 221.99 289.15 228.85 285.84 236.52 286.42 243.82 289.3 251.05 291.75 258.15 294.34 265.61 295.15 273.13 294.03 279.66 290.06 285.77 285.52"/><polyline class="e" points="285.94 162.35 282.35 168.51 278.97 174.79 275.01 180.72 270.63 186.32 266.09 191.76 261.12 196.88 255.13 200.77 248.68 203.77 242.22 206.73 235.95 209.93 230.03 213.68 225.3 218.85 220.51 224.05 217.03 230.2 214 236.57 210.72 242.81 208.53 249.09 205.36 254.91 202.58 260.93 199.07 266.57 194.62 271.56 188.71 274.44 182.52 276.52 176.08 277.88 169.47 281.31 163.31 285.47 157.9 290.56 153.1 296.2 148.2 301.75 144.45 308.15 140.08 314.14 136.21 320.46 132.37 327.27 137.58 322.2 142.31 317.28 147.69 313.1 152.89 308.61 159.28 306.11 165.99 305.25 172.68 305.54 179.11 307.56 186.15 309.72 193.07 311.74 199.87 309.96 205.52 305.27 210.58 299.96 216.02 294.24 221.99 289.15 228.85 285.84 236.52 286.42 243.82 289.3 251.05 291.75 258.15 294.34 265.61 295.15 273.13 294.03 279.66 290.06 285.77 285.52"/><polygon class="a" points="290.7 446.01 285.75 447.2 285.41 440.03 285.35 432.82 285.57 425.62 286.13 418.41 285.3 411.2 285.3 404 285.88 396.79 285.43 389.58 286.15 382.37 285.73 375.17 285.73 367.96 286.01 360.75 286.13 353.55 286.1 346.34 285.69 339.14 286.18 331.93 285.34 324.73 285.36 317.52 285.58 310.31 285.46 303.11 285.67 295.9 286.05 288.69 285.87 281.48 285.28 274.28 285.6 267.07 285.27 259.86 285.93 252.65 285.95 245.44 285.71 238.23 285.49 231.02 285.68 223.81 285.87 216.59 285.98 209.39 285.36 202.18 285.45 194.97 285.49 187.76 285.83 180.54 285.62 173.34 285.74 166.12 285.34 158.9 285.81 151.79 293.29 152.12 300.92 151.64 301.04 158.92 301.34 166.16 301.21 173.39 301.06 180.63 300.65 187.87 300.8 195.11 300.68 202.34 300.75 209.58 301.13 216.82 301.04 224.06 300.78 231.29 300.92 238.53 300.75 245.76 300.46 253 300.39 260.24 300.73 267.47 300.42 274.71 301.24 281.94 300.83 289.18 300.38 296.42 301.04 303.66 300.94 310.9 300.87 318.14 300.82 325.38 301.31 332.62 300.84 339.86 300.66 347.1 300.93 354.34 300.86 361.58 300.63 368.82 300.97 376.06 301.24 383.3 301.01 390.54 300.85 397.78 301.22 405.03 300.61 412.27 301.26 419.51 300.8 426.76 300.51 434.01 298.16 442.08 290.7 446.01"/><polygon class="e" points="290.7 446.01 285.75 447.2 285.41 440.03 285.35 432.82 285.57 425.62 286.13 418.41 285.3 411.2 285.3 404 285.88 396.79 285.43 389.58 286.15 382.37 285.73 375.17 285.73 367.96 286.01 360.75 286.13 353.55 286.1 346.34 285.69 339.14 286.18 331.93 285.34 324.73 285.36 317.52 285.58 310.31 285.46 303.11 285.67 295.9 286.05 288.69 285.87 281.48 285.28 274.28 285.6 267.07 285.27 259.86 285.93 252.65 285.95 245.44 285.71 238.23 285.49 231.02 285.68 223.81 285.87 216.59 285.98 209.39 285.36 202.18 285.45 194.97 285.49 187.76 285.83 180.54 285.62 173.34 285.74 166.12 285.34 158.9 285.81 151.79 293.29 152.12 300.92 151.64 301.04 158.92 301.34 166.16 301.21 173.39 301.06 180.63 300.65 187.87 300.8 195.11 300.68 202.34 300.75 209.58 301.13 216.82 301.04 224.06 300.78 231.29 300.92 238.53 300.75 245.76 300.46 253 300.39 260.24 300.73 267.47 300.42 274.71 301.24 281.94 300.83 289.18 300.38 296.42 301.04 303.66 300.94 310.9 300.87 318.14 300.82 325.38 301.31 332.62 300.84 339.86 300.66 347.1 300.93 354.34 300.86 361.58 300.63 368.82 300.97 376.06 301.24 383.3 301.01 390.54 300.85 397.78 301.22 405.03 300.61 412.27 301.26 419.51 300.8 426.76 300.51 434.01 298.16 442.08 290.7 446.01"/></svg>