<svg xmlns="http://www.w3.org/2000/svg" viewBox="0 0 800 800"><defs><style>.a{fill:#fff;}.b{fill:none;stroke:#000;stroke-linejoin:bevel;stroke-width:13px;}</style></defs><title>canvas (55)</title><polyline class="a" points="266.98 719.9 274.59 719.62 281.23 715.82 286.54 710.43 289.92 703.71 291.09 696.32 291.13 688.63 291.08 680.94 291.24 673.25 291.75 665.56 291.62 657.87 291.46 650.17 292.1 642.73 299.25 642.02 306.67 642.47 314.09 642.86 321.39 642.45 321.74 649.63 321.52 656.93 321.86 664.23 321.63 671.53 321.75 678.83 321.64 686.13 321.19 693.44 321.83 700.74 321 707.71 319.89 714.63 317.81 721.36 313.92 727.23 310.58 733.39 305.9 738.61 300.43 742.97 294.63 746.82 288.4 749.93 281.79 752.11 275.01 753.85 268.01 753.68"/><polyline class="b" points="266.98 719.9 274.59 719.62 281.23 715.82 286.54 710.43 289.92 703.71 291.09 696.32 291.13 688.63 291.08 680.94 291.24 673.25 291.75 665.56 291.62 657.87 291.46 650.17 292.1 642.73 299.25 642.02 306.67 642.47 314.09 642.86 321.39 642.45 321.74 649.63 321.52 656.93 321.86 664.23 321.63 671.53 321.75 678.83 321.64 686.13 321.19 693.44 321.83 700.74 321 707.71 319.89 714.63 317.81 721.36 313.92 727.23 310.58 733.39 305.9 738.61 300.43 742.97 294.63 746.82 288.4 749.93 281.79 752.11 275.01 753.85 268.01 753.68"/><polygon class="a" points="320.71 642.76 313.94 641.31 306.42 640.69 298.91 641.47 291.88 642.76 298.93 643.76 306.42 644.2 313.91 643.82 320.71 642.76"/><polygon class="b" points="320.71 642.76 313.94 641.31 306.42 640.69 298.91 641.47 291.88 642.76 298.93 643.76 306.42 644.2 313.91 643.82 320.71 642.76"/><polyline class="a" points="267.85 45.77 260.89 45.91 254.15 47.64 247.54 49.73 241.49 53.09 235.38 56.4 230.43 61.28 225.93 66.51 221.52 71.88 218.95 78.34 216.03 84.65 215.17 91.55 213.8 98.4 214.6 105.63 214.63 112.86 213.84 120.09 214.65 127.32 213.86 134.54 214.51 141.77 214.03 149 213.79 156.23 214.27 163.46 214.66 170.69 213.82 177.91 214.33 185.15 213.82 192.37 214.25 199.6 214.24 206.83 214.14 214.06 214.22 221.28 214.44 228.51 214.22 235.74 213.9 242.96 213.87 250.19 214.49 257.42 213.69 264.64 213.94 271.88 214.22 279.1 214.15 286.33 214.4 293.56 213.89 300.79 213.92 308.02 213.59 315.25 214.22 322.49 213.64 329.72 213.61 336.95 213.61 344.18 213.96 351.41 213.77 358.64 213.82 365.87 213.41 373.1 213.4 380.34 213.78 387.57 213.89 394.81 213.76 402.04 213.81 409.28 213.33 416.52"/><polyline class="b" points="267.85 45.77 260.89 45.91 254.15 47.64 247.54 49.73 241.49 53.09 235.38 56.4 230.43 61.28 225.93 66.51 221.52 71.88 218.95 78.34 216.03 84.65 215.17 91.55 213.8 98.4 214.6 105.63 214.63 112.86 213.84 120.09 214.65 127.32 213.86 134.54 214.51 141.77 214.03 149 213.79 156.23 214.27 163.46 214.66 170.69 213.82 177.91 214.33 185.15 213.82 192.37 214.25 199.6 214.24 206.83 214.14 214.06 214.22 221.28 214.44 228.51 214.22 235.74 213.9 242.96 213.87 250.19 214.49 257.42 213.69 264.64 213.94 271.88 214.22 279.1 214.15 286.33 214.4 293.56 213.89 300.79 213.92 308.02 213.59 315.25 214.22 322.49 213.64 329.72 213.61 336.95 213.61 344.18 213.96 351.41 213.77 358.64 213.82 365.87 213.41 373.1 213.4 380.34 213.78 387.57 213.89 394.81 213.76 402.04 213.81 409.28 213.33 416.52"/><polyline class="a" points="243.77 417 243.04 409.72 243.89 402.45 243.89 395.17 243.22 387.89 243.96 380.62 243.51 373.34 243.64 366.06 243.97 358.78 243.59 351.5 243.94 344.23 243.26 336.95 243.7 329.67 243.07 322.39 243.47 315.11 244 307.84 243.8 300.57 243.77 293.29 243.43 286.01 243.42 278.74 243.13 271.46 243.3 264.18 243.95 256.91 243.01 249.63 243.63 242.35 243.12 235.07 243.55 227.79 243.82 220.51 243.97 213.24 243.32 205.96 243.42 198.68 243.29 191.39 243.04 184.11 243.53 176.83 243.24 169.55 243.96 162.27 243.89 154.99 243.45 147.71 243.38 140.43 243.38 133.15 243.63 125.86 243.87 118.58 243.29 111.29 243.84 104 245 96.62 248.31 89.91 253.18 84.03 260.09 80.64 267.68 79.63"/><polyline class="b" points="243.77 417 243.04 409.72 243.89 402.45 243.89 395.17 243.22 387.89 243.96 380.62 243.51 373.34 243.64 366.06 243.97 358.78 243.59 351.5 243.94 344.23 243.26 336.95 243.7 329.67 243.07 322.39 243.47 315.11 244 307.84 243.8 300.57 243.77 293.29 243.43 286.01 243.42 278.74 243.13 271.46 243.3 264.18 243.95 256.91 243.01 249.63 243.63 242.35 243.12 235.07 243.55 227.79 243.82 220.51 243.97 213.24 243.32 205.96 243.42 198.68 243.29 191.39 243.04 184.11 243.53 176.83 243.24 169.55 243.96 162.27 243.89 154.99 243.45 147.71 243.38 140.43 243.38 133.15 243.63 125.86 243.87 118.58 243.29 111.29 243.84 104 245 96.62 248.31 89.91 253.18 84.03 260.09 80.64 267.68 79.63"/><polygon class="a" points="189.82 638.54 189.39 638.96 189.85 638.43 193.13 635.48 198.36 630.5 203.16 625.12 208.08 619.87 213.41 615.03 218.17 609.62 223.08 604.36 228.22 599.32 233.37 594.31 238.79 589.56 243.53 584.14 248.79 579.23 253.9 574.17 258.66 568.76 264.36 564.29 268.84 558.6 274.42 554.02 279.14 548.55 284.55 543.79 289.64 538.72 294.76 533.67 299.34 528.08 304.41 522.97 309.64 518.03 314.95 513.16 319.68 507.72 325.18 503.05 330.32 498 335 492.51 340.68 488.01 345.16 482.32 350.22 477.2 355.95 472.75 360.59 467.21 365.46 461.9 370.95 457.22 375.66 451.75 380.99 446.91 386.09 441.83 391.01 436.57 396.29 431.67 401.21 426.41 406.12 421.13 411.82 416.65 416.48 411.12 421.42 405.87 426.91 401.26 434.03 401.11 441.22 401.03 448.41 401.21 455.59 401.13 462.78 401.13 469.98 400.76 477.16 400.73 484.35 401.51 491.55 401.52 498.74 401.11 505.93 401.33 513.12 401.61 520.31 401.3 527.5 400.76 534.7 401.05 541.89 400.82 549.09 400.89 556.28 401.06 563.47 401.61 570.67 401.39 577.86 401.29 585.06 401.56 592.25 401.35 599.45 401.18 606.64 401.6 613.84 400.77 621.03 401.04 628.23 400.92 635.42 400.76 642.63 400.94 650.26 401.07 644.46 405.98 639.82 411.43 635.03 416.73 629.39 421.19 624.63 426.53 619.26 431.25 614.71 436.8 609.46 441.64 604.38 446.66 599.25 451.61 594.42 456.87 589.11 461.65 584 466.63 579.31 472.04 573.97 476.79 568.86 481.77 563.8 486.8 559.04 492.15 553.73 496.93 548.92 502.21 544.05 507.43 539.03 512.52 533.82 517.4 528.49 522.16 523.47 527.25 518.76 532.64 513.59 537.56 508.22 542.29 503.32 547.49 498.17 552.44 493.11 557.49 488.55 563.02 482.85 567.43 478.02 572.7 473 577.79 468.37 583.25 463.13 588.11 457.96 593.03 453.03 598.21 448.06 603.34 442.75 608.14 437.97 613.46 432.64 618.25 427.96 623.67 422.4 628.22 417.3 633.24 412.1 638.15 412.02 638.41 406.57 641.98 399.81 644 392.87 645.4 385.89 646.72 378.83 647.38 371.77 648.05 364.76 649.25 357.62 648.87 350.56 649.54 343.5 650.24 336.39 650.19 329.31 650.54 322.22 650.78 315.13 651.02 308.03 650.97 300.93 651.07 293.84 650.65 286.74 651.04 279.66 650.39 272.55 651.15 265.46 650.61 258.38 650.22 251.27 650.25 244.22 649.28 237.15 648.81 230.04 648.55 222.98 647.85 215.96 646.79 209.01 645.3 202.07 643.89 195.06 642.62 189.63 638.51 189.82 638.54"/><polygon class="b" points="189.82 638.54 189.39 638.96 189.85 638.43 193.13 635.48 198.36 630.5 203.16 625.12 208.08 619.87 213.41 615.03 218.17 609.62 223.08 604.36 228.22 599.32 233.37 594.31 238.79 589.56 243.53 584.14 248.79 579.23 253.9 574.17 258.66 568.76 264.36 564.29 268.84 558.6 274.42 554.02 279.14 548.55 284.55 543.79 289.64 538.72 294.76 533.67 299.34 528.08 304.41 522.97 309.64 518.03 314.95 513.16 319.68 507.72 325.18 503.05 330.32 498 335 492.51 340.68 488.01 345.16 482.32 350.22 477.2 355.95 472.75 360.59 467.21 365.46 461.9 370.95 457.22 375.66 451.75 380.99 446.91 386.09 441.83 391.01 436.57 396.29 431.67 401.21 426.41 406.12 421.13 411.82 416.65 416.48 411.12 421.42 405.87 426.91 401.26 434.03 401.11 441.22 401.03 448.41 401.21 455.59 401.13 462.78 401.13 469.98 400.76 477.16 400.73 484.35 401.51 491.55 401.52 498.74 401.11 505.93 401.33 513.12 401.61 520.31 401.3 527.5 400.76 534.7 401.05 541.89 400.82 549.09 400.89 556.28 401.06 563.47 401.61 570.67 401.39 577.86 401.29 585.06 401.56 592.25 401.35 599.45 401.18 606.64 401.6 613.84 400.77 621.03 401.04 628.23 400.92 635.42 400.76 642.63 400.94 650.26 401.07 644.46 405.98 639.82 411.43 635.03 416.73 629.39 421.19 624.63 426.53 619.26 431.25 614.71 436.8 609.46 441.64 604.38 446.66 599.25 451.61 594.42 456.87 589.11 461.65 584 466.63 579.31 472.04 573.97 476.79 568.86 481.77 563.8 486.8 559.04 492.15 553.73 496.93 548.92 502.21 544.05 507.43 539.03 512.52 533.82 517.4 528.49 522.16 523.47 527.25 518.76 532.64 513.59 537.56 508.22 542.29 503.32 547.49 498.17 552.44 493.11 557.49 488.55 563.02 482.85 567.43 478.02 572.7 473 577.79 468.37 583.25 463.13 588.11 457.96 593.03 453.03 598.21 448.06 603.34 442.75 608.14 437.97 613.46 432.64 618.25 427.96 623.67 422.4 628.22 417.3 633.24 412.1 638.15 412.02 638.41 406.57 641.98 399.81 644 392.87 645.4 385.89 646.72 378.83 647.38 371.77 648.05 364.76 649.25 357.62 648.87 350.56 649.54 343.5 650.24 336.39 650.19 329.31 650.54 322.22 650.78 315.13 651.02 308.03 650.97 300.93 651.07 293.84 650.65 286.74 651.04 279.66 650.39 272.55 651.15 265.46 650.61 258.38 650.22 251.27 650.25 244.22 649.28 237.15 648.81 230.04 648.55 222.98 647.85 215.96 646.79 209.01 645.3 202.07 643.89 195.06 642.62 189.63 638.51 189.82 638.54"/><polygon class="a" points="426.69 401.11 432.34 405.01 439.25 406.59 446.1 408.59 453.18 409.35 460.27 409.87 467.29 411.04 474.41 411.26 481.49 411.9 488.59 412.25 495.67 412.88 502.76 413.67 509.89 413.24 516.99 414.02 524.11 413.78 531.23 414.26 538.35 414 545.47 414.28 552.59 414.31 559.7 413.92 566.79 413.28 573.92 413.4 581.02 413.09 588.15 413.02 595.25 412.5 602.31 411.58 609.39 410.92 616.53 410.77 623.59 409.76 630.65 408.85 637.61 407.29 644.35 404.99 649.65 401.11 644.34 397.23 637.58 395.05 630.58 393.72 623.57 392.48 616.53 391.46 609.39 391.34 602.32 390.57 595.22 390.14 588.12 389.8 581.02 389.45 573.91 389.24 566.8 388.92 559.69 388.73 552.58 388.51 545.47 388.27 538.35 388.61 531.24 388.56 524.11 387.89 517 388.44 509.9 388.78 502.78 388.91 495.68 389.36 488.55 389.28 481.47 389.99 474.4 390.82 467.24 390.67 460.18 391.59 453.14 392.67 446.1 393.71 439.07 394.87 432.18 396.75 426.69 401.11"/><polygon class="b" points="426.69 401.11 432.34 405.01 439.25 406.59 446.1 408.59 453.18 409.35 460.27 409.87 467.29 411.04 474.41 411.26 481.49 411.9 488.59 412.25 495.67 412.88 502.76 413.67 509.89 413.24 516.99 414.02 524.11 413.78 531.23 414.26 538.35 414 545.47 414.28 552.59 414.31 559.7 413.92 566.79 413.28 573.92 413.4 581.02 413.09 588.15 413.02 595.25 412.5 602.31 411.58 609.39 410.92 616.53 410.77 623.59 409.76 630.65 408.85 637.61 407.29 644.35 404.99 649.65 401.11 644.34 397.23 637.58 395.05 630.58 393.72 623.57 392.48 616.53 391.46 609.39 391.34 602.32 390.57 595.22 390.14 588.12 389.8 581.02 389.45 573.91 389.24 566.8 388.92 559.69 388.73 552.58 388.51 545.47 388.27 538.35 388.61 531.24 388.56 524.11 387.89 517 388.44 509.9 388.78 502.78 388.91 495.68 389.36 488.55 389.28 481.47 389.99 474.4 390.82 467.24 390.67 460.18 391.59 453.14 392.67 446.1 393.71 439.07 394.87 432.18 396.75 426.69 401.11"/><polygon class="a" points="426.86 401.11 432.3 405.15 439.19 406.84 446.17 408.17 453.18 409.35 460.24 410.09 467.25 411.46 474.35 411.96 481.49 411.93 488.55 412.95 495.67 412.92 502.76 413.77 509.88 413.63 517 413.62 524.11 414.22 531.23 414.19 538.35 414.25 545.47 414.54 552.58 414.11 559.69 413.74 566.79 413.16 573.93 413.69 581.02 413.02 588.15 413.09 595.23 412.29 602.3 411.51 609.44 411.42 616.45 410 623.61 409.92 630.65 408.85 637.59 407.17 644.46 405.3 649.61 401.11 644.43 396.99 637.44 395.67 630.5 394.25 623.5 393.04 616.45 392.14 609.39 391.3 602.33 390.52 595.23 390.01 588.12 389.68 581.01 389.51 573.92 388.88 566.82 388.47 559.71 387.98 552.58 388.58 545.47 388.5 538.35 387.92 531.24 388.67 524.11 387.91 517 388.06 509.88 388.28 502.8 389.18 495.69 389.48 488.55 389.13 481.47 389.97 474.38 390.51 467.28 391.08 460.22 391.97 453.09 392.31 446.18 394.17 439.07 394.9 432.18 396.75 426.86 401.11"/><polygon class="b" points="426.86 401.11 432.3 405.15 439.19 406.84 446.17 408.17 453.18 409.35 460.24 410.09 467.25 411.46 474.35 411.96 481.49 411.93 488.55 412.95 495.67 412.92 502.76 413.77 509.88 413.63 517 413.62 524.11 414.22 531.23 414.19 538.35 414.25 545.47 414.54 552.58 414.11 559.69 413.74 566.79 413.16 573.93 413.69 581.02 413.02 588.15 413.09 595.23 412.29 602.3 411.51 609.44 411.42 616.45 410 623.61 409.92 630.65 408.85 637.59 407.17 644.46 405.3 649.61 401.11 644.43 396.99 637.44 395.67 630.5 394.25 623.5 393.04 616.45 392.14 609.39 391.3 602.33 390.52 595.23 390.01 588.12 389.68 581.01 389.51 573.92 388.88 566.82 388.47 559.71 387.98 552.58 388.58 545.47 388.5 538.35 387.92 531.24 388.67 524.11 387.91 517 388.06 509.88 388.28 502.8 389.18 495.69 389.48 488.55 389.13 481.47 389.97 474.38 390.51 467.28 391.08 460.22 391.97 453.09 392.31 446.18 394.17 439.07 394.9 432.18 396.75 426.86 401.11"/><polyline class="a" points="572.02 412.12 566.97 417.17 561.82 422.12 556.92 427.31 551.72 432.22 546.56 437.16 542.1 442.79 536.43 447.23 531.48 452.37 526.95 457.94 521.88 462.96 516.65 467.82 511.89 473.15 506.61 477.98 501.77 483.23 496.08 487.63 491.08 492.73 486.32 498.07 481.13 502.98 476.27 508.22 471 513.04 466.44 518.58 461.06 523.3 455.72 528.06 451 533.45 445.72 538.27 440.81 543.46 435.87 548.62 430.93 553.78 425.63 558.59 420.66 563.72 415.92 569.09 410.73 574 405.42 578.79 400.77 584.25 395.62 589.21 390.5 594.19 385.41 599.2 380.57 604.47 374.94 608.93 369.86 613.97 365.19 619.4 360.16 624.49 354.79 629.22 349.91 634.46 344.85 639.5 339.8 644.58 334.95 649.85"/><polyline class="b" points="572.02 412.12 566.97 417.17 561.82 422.12 556.92 427.31 551.72 432.22 546.56 437.16 542.1 442.79 536.43 447.23 531.48 452.37 526.95 457.94 521.88 462.96 516.65 467.82 511.89 473.15 506.61 477.98 501.77 483.23 496.08 487.63 491.08 492.73 486.32 498.07 481.13 502.98 476.27 508.22 471 513.04 466.44 518.58 461.06 523.3 455.72 528.06 451 533.45 445.72 538.27 440.81 543.46 435.87 548.62 430.93 553.78 425.63 558.59 420.66 563.72 415.92 569.09 410.73 574 405.42 578.79 400.77 584.25 395.62 589.21 390.5 594.19 385.41 599.2 380.57 604.47 374.94 608.93 369.86 613.97 365.19 619.4 360.16 624.49 354.79 629.22 349.91 634.46 344.85 639.5 339.8 644.58 334.95 649.85"/><polyline class="b" points="404.53 424.39 409.49 429.45 416.28 432.07 423.36 433.67 430.32 435.71 437.49 436.81 444.68 437.65 451.82 438.84 458.99 439.8 466.2 440.32 473.39 441.27 480.6 441.99 487.86 441.71 495.08 442.51 502.33 441.87 509.57 442.04 516.17 442.1 522.77 442.46 529.38 442.48 535.96 442.01 542.13 441.68 542.27 434.88 542.12 427.94 542.38 421 542.54 414.06"/><polyline class="b" points="376.77 452.45 381.58 457.2 388.26 460.02 395.38 461.42 402.3 463.59 409.5 464.47 416.52 466.39 423.7 467.37 430.97 467.47 438.09 469 445.35 469.05 452.54 470.11 459.79 470.11 467.03 470.08 474.27 470.17 481.51 470.06 488.12 470.49 494.71 469.89 501.31 470.04 507.91 470.29 514.62 469.91 514.67 462.94 514.48 456 514.18 449.06 514.34 442.12"/><polyline class="b" points="347.51 481.23 352.92 485.73 359.58 488.5 366.52 490.53 373.59 492.07 380.65 493.63 387.82 494.65 395.02 495.41 402.14 496.72 409.39 496.93 416.53 498.38 423.77 498.69 431.03 498.49 438.26 498.71 445.5 498.72 452.74 499.67 459.34 499.59 465.94 499.39 472.54 499.23 479.14 499.1 485.93 498.71 485.5 491.72 485.68 484.78 485.23 477.84 485.57 470.9"/><polyline class="b" points="319.18 510 323.96 514.89 330.88 517.04 337.72 519.4 344.68 521.45 351.89 522.35 359.08 523.19 366.14 524.95 373.37 525.44 380.59 525.91 387.76 527.14 395.04 526.74 402.25 527.31 409.47 527.89 416.71 528.09 423.96 527.63 430.56 528.34 437.15 527.62 443.76 527.78 450.36 528.03 456.91 527.41 457.17 520.49 457.1 513.56 456.46 506.62 456.47 499.67"/><polyline class="b" points="290.51 538.78 295.34 543.35 301.86 546.56 308.86 548.52 316.1 549.31 323.09 551.24 330.28 552.13 337.41 553.38 344.61 554.1 351.81 554.8 359 555.64 366.21 556.25 373.47 556.18 380.69 556.96 387.94 556.39 395.18 556.75 401.78 556.59 408.39 557.03 414.99 556.88 421.59 556.87 427.89 556.12 428.59 549.27 428.54 542.34 428.47 535.39 427.67 528.45"/><polyline class="b" points="261.82 567.56 266.5 572.24 273.19 575 280.08 577.29 287.3 578.19 294.26 580.32 301.44 581.27 308.7 581.61 315.8 583.17 323.05 583.38 330.21 584.56 337.43 585.21 344.67 585.45 351.91 585.65 359.15 585.98 366.4 585.25 373.01 585.89 379.6 585.45 386.21 585.53 392.78 584.7 399.55 585.03 399.2 578.05 399.87 571.11 399.57 564.17 399.05 557.23"/><polyline class="b" points="232.39 596.34 237.93 600.59 244.49 603.55 251.52 605.22 258.5 607.09 265.6 608.42 272.64 610.23 279.91 610.46 287 612.11 294.27 612.1 301.44 613.29 308.69 613.31 315.91 613.69 323.13 614.36 330.38 614.46 337.62 613.86 344.23 614.56 350.83 614.51 357.42 613.7 364.01 613.66 370.95 613.86 370.34 606.83 370.44 599.89 370.27 592.95 370.66 586.01"/><polyline class="b" points="203.34 625.11 208.99 629.71 215.78 632.11 222.66 634.31 229.64 636.24 236.71 637.81 243.98 638.25 251.11 639.41 258.25 640.63 265.46 641.25 272.67 641.88 279.88 642.53 287.13 642.67 294.37 642.57 301.6 643.37 308.85 643.19 315.45 643.06 322.05 643.29 328.66 643.39 335.23 642.31 341.57 642.46 341.85 635.61 341.37 628.67 342 621.73 342.11 614.78"/><polygon points="568.87 415.23 562.19 415.92 555.51 415.62 548.87 416.12 542.54 417.11 541.89 423.44 541.48 430.05 541.42 436.69 541.4 443.49 534.67 444.02 528.16 445.13 521.58 445.66 514.86 446.05 515.27 453.12 515.22 460.08 514.59 467.04 515.23 474.23 507.88 474.42 500.75 474.34 493.62 474.41 486.54 474.04 487.13 481.43 487.04 488.91 487.86 496.19 480.17 497.08 472.41 498.38 464.69 499.88 456.69 501.04 457.05 507.85 455.96 514.35 455.94 520.9 455.56 527.15 447.85 528.08 439.89 527.89 431.92 527.99 423.91 527.93 427.88 531.07 429.33 538.72 429.39 546.6 430.65 554.68 422.66 555.27 415.12 556.58 407.53 557.66 399.9 559.04 400 566.87 400.26 574.63 399.61 582.08 393.1 584.21 385.98 584.98 378.95 586.27 371.77 587.73 372.23 596.13 372.16 604.36 371.77 612.41 364.57 614.14 357.03 614.93 349.47 615.58 342.11 617.01 341.56 624.35 341.97 631.78 341.71 639.59 348.15 636.64 353.31 631.5 358.24 626.15 363.48 621.11 368.5 615.85 373.98 611.07 378.79 605.61 384.07 600.62 389.04 595.32 394.43 590.43 399.45 585.18 404.51 579.97 409.97 575.16 414.59 569.5 419.85 564.48 424.73 559.09 429.95 554.04 435.63 549.44 440.63 544.16 445.58 538.84 450.83 533.81 455.52 528.22 461.13 523.55 466.15 518.29 471.22 513.08 476.08 507.66 481.57 502.87 486.5 497.52 491.62 492.36 496.77 487.22 501.98 482.15 507.25 477.14 512.18 471.79 517.35 466.68 522.72 461.77 527.53 456.3 532.78 451.27 538.24 446.44 542.86 440.77 548.21 435.83 553.14 430.48 558.73 425.78 563.44 420.18 568.87 415.23"/><polygon points="426.95 401.23 426.81 407.86 426.69 414.64 426.76 421.42 426.59 428.21 426.88 434.88 420.2 434.57 413.41 435.35 406.61 435.02 399.8 434.76 392.98 434.99 393.47 443.33 392.58 451.67 392.97 459.98 386.26 460.26 379.51 459.95 372.75 459.91 365.84 459.86 366.06 467.5 366.12 475 366.07 482.5 365.78 489.79 359.01 490.21 352.01 489.52 345 489.77 337.88 489.88 338.44 497.25 337.8 504.5 338.05 511.75 337.69 518.67 330.25 519 322.5 518.54 314.75 518.66 306.96 518.95 307.41 525.99 307.27 532.99 306.9 540 306.94 546.94 300.01 547.38 293.01 547.45 286 546.8 278.9 546.9 279.22 554.25 278.78 561.5 278.61 568.75 279.21 576.2 272.01 575.72 265.01 576.48 258 575.54 250.85 575.85 250.82 583.25 250.95 590.5 250.52 597.75 251.34 605.33 244.01 605.09 237.01 604.55 230 605.02 223.15 605.14 223.28 612.25 222.73 619.5 222.77 626.75 223.02 634.02 215.67 633.98 208.34 634.38 201.01 634.35 193.83 633.93 198.91 629.1 204.12 624.18 208.62 618.54 214.09 613.88 219.29 608.95 224.35 603.88 229.51 598.9 234.42 593.69 239.13 588.27 244.6 583.63 249.53 578.42 254.78 573.54 259.6 568.23 264.42 562.92 269.79 558.16 275.07 553.31 280.04 548.15 284.71 542.68 290.26 538.11 295.08 532.79 299.98 527.56 305.13 522.57 310.1 517.41 315.37 512.55 320.31 507.35 325.19 502.09 330.75 497.51 335.59 492.22 340.63 487.13 345.77 482.12 351.12 477.34 356.05 472.13 361.08 467.02 365.92 461.72 371.38 457.05 376.4 451.93 381.53 446.93 386.35 441.61 391.74 436.85 396.42 431.39 401.63 426.46 406.77 421.46 411.52 416.06 417.04 411.44 422.11 406.35 426.95 401.23"/><polygon class="a" points="650.3 401.47 650.48 401.41 650.65 401.12 646.76 398.25 641.85 392.92 636.61 387.99 632.03 382.39 626.89 377.36 621.53 372.55 616.36 367.55 611.54 362.19 606.34 357.23 601 352.4 596.4 346.84 591.24 341.84 585.99 336.92 581.01 331.72 576.27 326.29 571.11 321.29 565.78 316.44 561 311.04 555.81 306.07 550.59 301.12 545.44 296.09 540.07 291.29 535.39 285.8 530.38 280.63 524.74 276.09 520.08 270.58 515.25 265.23 509.58 260.73 504.76 255.37 499.89 250.07 494.51 245.26 489.31 240.28 484.26 235.15 479.39 229.85 474.36 224.69 469.15 219.73 463.95 214.75 458.93 209.61 454 204.36 448.91 199.27 443.4 194.59 438.56 189.25 433.63 184 428.42 179.02 423.58 173.67 418.31 168.75 413.26 163.48 405.97 163.54 398.78 163.34 391.59 164.23 384.41 163.9 377.22 163.92 370.02 163.38 362.84 164.06 355.65 163.52 348.45 163.4 341.26 163.94 334.07 164.03 326.88 163.98 319.69 164.16 312.5 163.85 305.3 164.22 298.11 163.51 290.92 163.99 283.72 163.74 276.53 163.85 269.33 163.84 262.14 163.72 254.94 163.68 247.75 164.21 240.55 163.68 233.36 164.4 226.16 164.23 218.97 163.84 211.78 164.32 204.58 164.38 197.37 164.07 189.97 163.97 194.88 169.44 199.94 174.48 205.47 179.05 210.59 184.03 215.19 189.53 220.15 194.67 225.17 199.75 230.89 204.13 235.33 209.78 240.76 214.44 246.04 219.25 250.84 224.55 256.14 229.36 260.97 234.62 265.82 239.86 271.26 244.52 275.75 250.12 280.79 255.2 285.76 260.32 291.44 264.74 296.26 270.01 301.01 275.38 306.52 279.96 311.26 285.32 316.72 289.96 321.56 295.23 326.73 300.16 331.55 305.44 336.4 310.7 341.58 315.62 346.95 320.36 351.8 325.61 357.02 330.5 361.81 335.82 366.62 341.11 371.8 346.03 376.65 351.29 382 356.04 387.44 360.71 392.17 366.08 397.32 371.04 402.6 375.88 407.05 381.53 412.5 386.19 417.11 391.7 422.36 396.57 427.81 401.24 427.54 401.51 433.43 404.98 440.19 407.02 447.09 408.65 454.11 409.75 461.21 410 468.19 411.37 475.26 412.05 482.35 412.32 489.43 412.84 496.5 413.4 503.6 413.41 510.69 413.44 517.77 414.39 524.88 413.62 531.97 414.33 539.07 414.02 546.16 414.27 553.25 413.76 560.35 413.89 567.44 413.76 574.51 413 581.63 413.49 588.69 412.61 595.79 412.5 602.84 411.6 609.96 411.53 616.98 410.46 624.01 409.51 631.03 408.54 638.07 407.52 644.85 405.37 650.07 401.48 650.3 401.47"/><polygon class="b" points="650.3 401.47 650.48 401.41 650.65 401.12 646.76 398.25 641.85 392.92 636.61 387.99 632.03 382.39 626.89 377.36 621.53 372.55 616.36 367.55 611.54 362.19 606.34 357.23 601 352.4 596.4 346.84 591.24 341.84 585.99 336.92 581.01 331.72 576.27 326.29 571.11 321.29 565.78 316.44 561 311.04 555.81 306.07 550.59 301.12 545.44 296.09 540.07 291.29 535.39 285.8 530.38 280.63 524.74 276.09 520.08 270.58 515.25 265.23 509.58 260.73 504.76 255.37 499.89 250.07 494.51 245.26 489.31 240.28 484.26 235.15 479.39 229.85 474.36 224.69 469.15 219.73 463.95 214.75 458.93 209.61 454 204.36 448.91 199.27 443.4 194.59 438.56 189.25 433.63 184 428.42 179.02 423.58 173.67 418.31 168.75 413.26 163.48 405.97 163.54 398.78 163.34 391.59 164.23 384.41 163.9 377.22 163.92 370.02 163.38 362.84 164.06 355.65 163.52 348.45 163.4 341.26 163.94 334.07 164.03 326.88 163.98 319.69 164.16 312.5 163.85 305.3 164.22 298.11 163.51 290.92 163.99 283.72 163.74 276.53 163.85 269.33 163.84 262.14 163.72 254.94 163.68 247.75 164.21 240.55 163.68 233.36 164.4 226.16 164.23 218.97 163.84 211.78 164.32 204.58 164.38 197.37 164.07 189.97 163.97 194.88 169.44 199.94 174.48 205.47 179.05 210.59 184.03 215.19 189.53 220.15 194.67 225.17 199.75 230.89 204.13 235.33 209.78 240.76 214.44 246.04 219.25 250.84 224.55 256.14 229.36 260.97 234.62 265.82 239.86 271.26 244.52 275.75 250.12 280.79 255.2 285.76 260.32 291.44 264.74 296.26 270.01 301.01 275.38 306.52 279.96 311.26 285.32 316.72 289.96 321.56 295.23 326.73 300.16 331.55 305.44 336.4 310.7 341.58 315.62 346.95 320.36 351.8 325.61 357.02 330.5 361.81 335.82 366.62 341.11 371.8 346.03 376.65 351.29 382 356.04 387.44 360.71 392.17 366.08 397.32 371.04 402.6 375.88 407.05 381.53 412.5 386.19 417.11 391.7 422.36 396.57 427.81 401.24 427.54 401.51 433.43 404.98 440.19 407.02 447.09 408.65 454.11 409.75 461.21 410 468.19 411.37 475.26 412.05 482.35 412.32 489.43 412.84 496.5 413.4 503.6 413.41 510.69 413.44 517.77 414.39 524.88 413.62 531.97 414.33 539.07 414.02 546.16 414.27 553.25 413.76 560.35 413.89 567.44 413.76 574.51 413 581.63 413.49 588.69 412.61 595.79 412.5 602.84 411.6 609.96 411.53 616.98 410.46 624.01 409.51 631.03 408.54 638.07 407.52 644.85 405.37 650.07 401.48 650.3 401.47"/><polygon class="a" points="413.17 163.69 407.59 167.42 400.92 169.91 393.94 171.4 386.79 171.71 379.74 172.48 372.71 173.6 365.62 174.19 358.56 175.19 351.46 175.69 344.33 175.52 337.25 176.41 330.11 175.89 323.01 176.66 315.89 176.93 308.77 176.88 301.65 176.32 294.54 176.78 287.42 176.57 280.3 176.65 273.18 176.72 266.07 176.41 258.98 175.54 251.88 175.16 244.77 174.82 237.69 174.18 230.62 173.41 223.5 173.09 216.5 171.71 209.47 170.72 202.37 169.94 195.72 167.39 190.18 163.69 195.66 159.84 202.46 157.78 209.43 156.4 216.47 155.37 223.51 154.44 230.6 153.85 237.7 153.38 244.76 152.4 251.89 152.51 258.96 151.63 266.08 151.63 273.19 151.25 280.3 150.94 287.41 150.47 294.53 150.64 301.65 150.52 308.77 150.38 315.88 151.11 322.99 151.13 330.11 151.22 337.21 151.66 344.35 151.33 351.42 152.38 358.56 152.09 365.65 152.76 372.75 153.29 379.78 154.54 386.85 155.33 393.93 156.13 400.85 157.8 407.75 159.54 413.17 163.69"/><polygon class="b" points="413.17 163.69 407.59 167.42 400.92 169.91 393.94 171.4 386.79 171.71 379.74 172.48 372.71 173.6 365.62 174.19 358.56 175.19 351.46 175.69 344.33 175.52 337.25 176.41 330.11 175.89 323.01 176.66 315.89 176.93 308.77 176.88 301.65 176.32 294.54 176.78 287.42 176.57 280.3 176.65 273.18 176.72 266.07 176.41 258.98 175.54 251.88 175.16 244.77 174.82 237.69 174.18 230.62 173.41 223.5 173.09 216.5 171.71 209.47 170.72 202.37 169.94 195.72 167.39 190.18 163.69 195.66 159.84 202.46 157.78 209.43 156.4 216.47 155.37 223.51 154.44 230.6 153.85 237.7 153.38 244.76 152.4 251.89 152.51 258.96 151.63 266.08 151.63 273.19 151.25 280.3 150.94 287.41 150.47 294.53 150.64 301.65 150.52 308.77 150.38 315.88 151.11 322.99 151.13 330.11 151.22 337.21 151.66 344.35 151.33 351.42 152.38 358.56 152.09 365.65 152.76 372.75 153.29 379.78 154.54 386.85 155.33 393.93 156.13 400.85 157.8 407.75 159.54 413.17 163.69"/><polygon class="a" points="413.1 163.69 407.68 167.66 400.92 169.95 393.83 170.74 386.82 171.91 379.83 173.32 372.75 173.98 365.67 174.78 358.52 174.62 351.45 175.51 344.35 175.94 337.21 175.53 330.13 176.65 323.01 176.89 315.88 176.12 308.77 176.63 301.65 176.95 294.53 176.98 287.42 176.3 280.32 175.92 273.21 175.88 266.07 176.37 258.96 175.93 251.87 175.32 244.76 175 237.65 174.66 230.57 173.85 223.5 173.09 216.41 172.36 209.38 171.26 202.5 169.39 195.61 167.67 190.48 163.69 195.55 159.52 202.5 157.99 209.46 156.56 216.47 155.38 223.56 154.87 230.6 153.81 237.66 152.87 244.77 152.63 251.89 152.49 258.98 151.99 266.06 150.98 273.18 150.93 280.31 151.23 287.41 150.4 294.53 150.7 301.65 150.58 308.77 150.98 315.89 150.45 322.99 151.45 330.12 150.87 337.2 151.9 344.33 151.64 351.45 151.74 358.55 152.34 365.64 152.85 372.68 154.07 379.83 154.08 386.88 155.14 393.86 156.55 400.9 157.59 407.57 160.05 413.1 163.69"/><polygon class="b" points="413.1 163.69 407.68 167.66 400.92 169.95 393.83 170.74 386.82 171.91 379.83 173.32 372.75 173.98 365.67 174.78 358.52 174.62 351.45 175.51 344.35 175.94 337.21 175.53 330.13 176.65 323.01 176.89 315.88 176.12 308.77 176.63 301.65 176.95 294.53 176.98 287.42 176.3 280.32 175.92 273.21 175.88 266.07 176.37 258.96 175.93 251.87 175.32 244.76 175 237.65 174.66 230.57 173.85 223.5 173.09 216.41 172.36 209.38 171.26 202.5 169.39 195.61 167.67 190.48 163.69 195.55 159.52 202.5 157.99 209.46 156.56 216.47 155.38 223.56 154.87 230.6 153.81 237.66 152.87 244.77 152.63 251.89 152.49 258.98 151.99 266.06 150.98 273.18 150.93 280.31 151.23 287.41 150.4 294.53 150.7 301.65 150.58 308.77 150.98 315.89 150.45 322.99 151.45 330.12 150.87 337.2 151.9 344.33 151.64 351.45 151.74 358.55 152.34 365.64 152.85 372.68 154.07 379.83 154.08 386.88 155.14 393.86 156.55 400.9 157.59 407.57 160.05 413.1 163.69"/><polyline class="a" points="267.75 174.93 273.25 179.54 278.2 184.68 282.85 190.13 288.03 195.06 292.79 200.39 298.36 204.93 303.06 210.32 308.49 214.99 313.54 220.04 318 225.66 323.17 230.59 328.61 235.24 333.36 240.58 338.43 245.61 343.88 250.26 348.36 255.87 353.58 260.75 358.71 265.72 363.83 270.7 368.58 276.04 373.78 280.95 379.07 285.76 384.24 290.69 388.78 296.25 394.35 300.78 399.19 306.05 404.15 311.19 409.45 315.99 414.32 321.22 419.56 326.09 424.68 331.07 429.77 336.08 434.57 341.39 439.6 346.47 444.87 351.3 449.82 356.45 454.81 361.56 459.9 366.57 464.53 372.05 469.62 377.07 475.12 381.68 480.27 386.64 485.34 391.68 490.01 397.12 495.33 401.91 500.11 407.25 504.99 412.5"/><polyline class="b" points="267.75 174.93 273.25 179.54 278.2 184.68 282.85 190.13 288.03 195.06 292.79 200.39 298.36 204.93 303.06 210.32 308.49 214.99 313.54 220.04 318 225.66 323.17 230.59 328.61 235.24 333.36 240.58 338.43 245.61 343.88 250.26 348.36 255.87 353.58 260.75 358.71 265.72 363.83 270.7 368.58 276.04 373.78 280.95 379.07 285.76 384.24 290.69 388.78 296.25 394.35 300.78 399.19 306.05 404.15 311.19 409.45 315.99 414.32 321.22 419.56 326.09 424.68 331.07 429.77 336.08 434.57 341.39 439.6 346.47 444.87 351.3 449.82 356.45 454.81 361.56 459.9 366.57 464.53 372.05 469.62 377.07 475.12 381.68 480.27 386.64 485.34 391.68 490.01 397.12 495.33 401.91 500.11 407.25 504.99 412.5"/><polyline class="b" points="435.56 186.97 430.11 191.21 423.54 194.13 416.53 195.84 409.51 197.53 402.46 199.09 395.43 200.97 388.26 202 381.01 202.36 373.83 203.31 366.59 203.55 359.36 203.82 352.15 204.61 344.91 204.65 337.67 204.48 330.43 205.16 323.83 204.46 317.23 204.88 310.62 205.2 304.04 204.37 297.22 204.47 297.19 197.47 297.7 190.53 297.68 183.59 297.9 176.65"/><polyline class="b" points="463.75 215.03 458.4 219.74 451.7 222.5 444.74 224.5 437.76 226.46 430.48 226.94 423.48 228.94 416.21 229.27 409.11 230.8 401.91 231.54 394.67 231.84 387.43 232.04 380.2 232.55 372.98 233.22 365.73 232.87 358.49 233.52 351.89 232.53 345.29 232.51 338.68 233.19 332.09 232.66 325.93 232.32 325.82 225.52 325.52 218.59 325.57 211.65 325.21 204.7"/><polyline class="b" points="492.46 243.81 487.36 248.9 480.58 251.58 473.49 253.17 466.49 255.01 459.41 256.56 452.17 257.14 445.05 258.48 437.83 259.06 430.63 259.67 423.4 260.04 416.2 260.75 409 261.75 401.74 261.38 394.5 261.29 387.26 261.61 380.66 262.14 374.07 261.37 367.46 261.6 360.86 261.82 353.94 261.34 354.61 254.3 353.89 247.37 353.98 240.42 354.77 233.48"/><polyline class="b" points="521.29 272.59 515.99 277.36 509.25 280.02 502.36 282.31 495.12 283.12 488.04 284.51 480.99 286.2 473.83 287.27 466.64 288.16 459.38 288.23 452.23 289.56 444.98 289.63 437.76 290.01 430.52 290.02 423.29 290.66 416.04 290.27 409.44 290.45 402.84 290.34 396.24 290.32 389.65 290.21 382.59 290.15 383.08 283.08 382.6 276.14 383.49 269.2 382.77 262.26"/><polyline class="b" points="549.63 301.37 544.79 306.2 537.93 308.51 530.94 310.32 523.99 312.31 516.84 313.45 509.68 314.43 502.6 316.01 495.45 317.23 488.19 317.35 480.99 318.09 473.77 318.62 466.55 319.23 459.31 319.29 452.06 319.12 444.82 319.05 438.22 319.01 431.62 319.25 425.01 319.62 418.44 318.56 411.81 318.8 412.23 311.86 411.41 304.92 412.08 297.98 411.54 291.04"/><polyline class="b" points="578.55 330.14 573.58 335 566.73 337.36 559.89 339.75 552.69 340.74 545.73 342.85 538.49 343.45 531.39 344.92 524.21 345.84 516.96 346.03 509.78 346.98 502.53 347.1 495.33 348.13 488.09 348.24 480.85 348.52 473.6 348.48 467 347.89 460.4 348.12 453.81 347.53 447.2 347.88 440.76 347.52 440.51 340.63 440.56 333.7 441.08 326.76 441.02 319.81"/><polyline class="b" points="607.49 358.92 602.49 364.04 595.63 366.49 588.52 367.98 581.54 369.86 574.51 371.6 567.37 372.87 560.13 373.36 552.96 374.39 545.78 375.26 538.52 375.35 531.33 376.13 524.11 376.88 516.85 376.37 509.62 377.23 502.38 377.21 495.77 377.36 489.17 377.27 482.57 376.75 475.98 376.61 469.19 376.4 469.73 369.41 469.87 362.48 468.95 355.53 469.33 348.59"/><polyline class="b" points="636.4 387.7 631.02 392.31 624.3 394.96 617.45 397.32 610.24 398.27 603.27 400.3 596.06 401.05 588.9 402.13 581.75 403.23 574.51 403.53 567.31 404.2 560.1 404.85 552.89 405.7 545.65 405.88 538.39 405.56 531.15 405.26 524.55 405.96 517.95 406.01 511.36 405.29 504.77 404.96 498.32 405.07 498.64 398.19 498.09 391.25 497.83 384.31 498.28 377.37"/><polygon points="271.57 177.95 277.83 178.23 284.46 178.71 291.1 179.14 298.05 179.1 298.33 186.01 298.13 192.67 298.86 199.28 298.94 206.23 305.94 206.71 312.64 207.24 319.3 208.16 325.75 208.97 325.83 215.81 326.18 222.87 325.63 229.93 325.76 237.23 332.87 236.76 339.75 236.84 346.63 236.51 353.51 237 353.16 244.38 352.55 251.74 352.21 258.93 359.79 260.1 367.59 261.07 375.35 262.38 382.79 264.26 382.91 270.52 383.25 277.05 383.83 283.56 384.11 290.2 392.16 289.84 400.11 290.49 408.08 290.13 416.29 290.3 411.73 293.49 411.3 301.35 410.31 309.14 410.15 317.05 417.89 318.29 425.56 319.66 433.38 320.05 441.26 321.48 440.66 329.45 440.62 337.21 440.99 344.97 448.26 346.27 455.5 347.7 462.82 348.73 469.93 350.54 470.15 358.71 469.63 366.95 470.04 375.15 477.21 376.49 484.51 377.25 491.81 377.98 499.03 379.47 499.17 386.93 499.01 394.37 498.75 401.45 492.6 398.86 487 394.26 482.42 388.55 476.8 383.89 472.04 378.35 466.51 373.6 461.77 368.06 456.12 363.44 451.56 357.71 446.27 352.71 440.76 347.94 435.66 342.76 430.53 337.6 425.77 332.08 420.26 327.29 415.57 321.7 409.81 317.18 404.89 311.8 399.65 306.76 394.54 301.58 389.71 296.12 384.52 291.02 379.24 286.01 373.95 281 369.23 275.44 363.55 270.82 358.62 265.46 353.32 260.46 348.49 255.01 343.2 250 338.11 244.8 333.04 239.57 327.66 234.67 322.35 229.68 317.26 224.48 312.6 218.84 307.11 214.04 301.82 209.03 297.06 203.49 291.82 198.43 286.99 192.97 281.49 188.16 276.02 183.31 271.57 177.95"/><polygon points="414.07 163.89 414.35 170.33 413.82 176.99 413.97 183.66 414.31 190.33 413.69 197.32 420.8 196.67 427.59 196.93 434.39 196.88 441.2 197.37 447.69 197.31 448.27 203.74 447.77 210.49 447.74 217.25 447.82 224.18 454.74 224.34 461.49 224.25 468.25 224.27 474.9 224.1 474.86 230.99 474.62 237.99 475.03 245 475.27 251.73 481.99 251.97 488.99 252.41 496 252 502.65 252.34 503.5 259.25 503.45 266.5 502.57 273.75 502.69 281.32 510.5 281.35 518 281.49 525.5 280.94 533.27 280.72 532.82 288.25 532.83 295.5 533.04 302.75 532.71 310.3 540.5 310.19 548 310.31 555.5 309.6 563.19 309.81 562.66 317.25 563.3 324.5 563.03 331.75 563.11 338.9 569.74 338.64 576.49 339.24 583.25 339.35 589.86 339.13 590.12 345.99 589.5 352.99 590.1 360 589.87 367.13 596.99 367.01 603.99 367.09 611 366.55 617.73 367.26 618.2 374.25 618.47 381.5 618.49 388.75 617.84 396.16 625.07 395.76 632.15 395.75 639.24 396.13 646.73 396.17 641.24 390.98 636.26 385.87 630.91 381.12 626.46 375.47 621.03 370.8 615.83 365.9 611.25 360.38 605.95 355.59 600.97 350.49 595.86 345.5 590.93 340.34 585.84 335.33 580.68 330.39 575.4 325.58 570.82 320.07 565.36 315.43 560.85 309.85 555.17 305.43 550.2 300.3 545.44 294.96 540.23 290.07 535.61 284.59 530.35 279.75 524.82 275.18 519.78 270.12 515.22 264.58 510.04 259.65 504.87 254.73 499.71 249.78 494.75 244.64 489.55 239.73 484.8 234.38 479.87 229.2 474.57 224.4 469.4 219.47 464.61 214.16 459.22 209.45 454.37 204.2 449.38 199.07 444.21 194.13 439.08 189.16 434.28 183.85 429.45 178.57 424.34 173.57 419 168.79 414.07 163.89"/><polygon points="598.25 405.59 604.9 402.65 611.19 399.74 617.49 396.84 623.54 393.42 629.94 390.72 636.21 387.53 641.02 392.12 645.54 396.89 650.77 401.16 643.34 403.09 636.24 405.55 629.08 407.79 621.75 409.47 614.62 411.86 607.33 414.47 603.35 409.51 598.25 405.59"/><polyline class="b" points="228.45 200.21 235.18 202.23 242.05 203.78 249.09 204.07 256.07 204.82 263.06 205.54 270.08 204.99 277.11 205.42 284.15 205.2 291.08 203.9 297.96 202.49"/><polyline class="b" points="342.94 245.39 335.91 246.23 329.03 247.55 322.09 248.45 315.15 249.68 308.13 249.86 301.11 249.76 294.11 249.28 287.06 249.61 280.07 248.79 273.2 247.24"/><polyline class="b" points="317.57 289.03 324.27 291.06 331.19 292.2 338.17 292.81 345.12 293.74 352.1 294.83 359.13 294.37 366.14 293.99 373.16 293.9 380.12 292.91 387.05 291.78"/><polyline class="b" points="430.97 334.01 424.09 335.37 417.3 337.29 410.33 338.25 403.32 338.84 396.28 338.78 389.26 339.3 382.23 339.14 375.27 338.01 368.25 337.61 361.35 336.3"/><polyline class="b" points="406.39 378.8 413.21 380.62 420.22 381.36 427.12 382.74 434.14 383.21 441.18 382.96 448.18 383.15 455.18 382.89 462.17 382.52 469.21 382.27 476.08 380.77"/><polyline class="b" points="610.06 439.47 603.06 440.4 596.18 441.76 589.3 443.21 582.25 443.2 575.28 444.35 568.25 443.86 561.24 443.52 554.25 443.13 547.19 443.04 540.36 441.2"/><polyline class="b" points="495.56 483.46 502.29 485.5 509.3 486.22 516.16 487.81 523.19 488.14 530.2 488.64 537.22 488.85 544.23 488.23 551.24 487.88 558.24 487.27 565.16 486.04"/><polyline class="b" points="520.99 528.43 514.03 529.53 507.14 530.84 500.27 532.38 493.22 532.54 486.22 532.92 479.2 533.36 472.19 532.81 465.18 532.43 458.17 531.89 451.32 530.22"/><polyline class="b" points="407.5 572.18 414.19 574.31 421.17 575.06 428.05 576.51 435.01 577.47 442.05 577.56 449.07 577.63 456.08 577.33 463.11 577.13 470.12 576.55 477.06 575.35"/><polyline class="b" points="431.81 617.03 424.94 618.34 418.18 620.44 411.22 621.43 404.2 621.85 397.19 622.36 390.16 621.67 383.12 622.28 376.13 621.54 369.14 620.76 362.28 619.24"/><polyline class="a" points="266.98 79.37 274.57 80.38 281.14 84.26 286.37 89.64 290.09 96.18 291.08 103.64 291.38 111.32 291.51 119.01 291.88 126.7 291.45 134.4 291.26 142.09 291.33 149.79 292.17 157.16 299.26 157.36 306.67 157.45 314.08 158.02 321.74 157.86 321.29 150.32 321.87 143.02 321.96 135.72 321.56 128.43 321.5 121.12 321.09 113.82 321.98 106.52 321.63 99.21 321.37 92.19 320.14 85.25 317.27 78.82 314.17 72.58 310.1 66.94 305.78 61.47 300.39 57.04 294.6 53.19 288.38 50.08 281.88 47.48 274.96 46.49 268.01 45.5"/><polyline class="b" points="266.98 79.37 274.57 80.38 281.14 84.26 286.37 89.64 290.09 96.18 291.08 103.64 291.38 111.32 291.51 119.01 291.88 126.7 291.45 134.4 291.26 142.09 291.33 149.79 292.17 157.16 299.26 157.36 306.67 157.45 314.08 158.02 321.74 157.86 321.29 150.32 321.87 143.02 321.96 135.72 321.56 128.43 321.5 121.12 321.09 113.82 321.98 106.52 321.63 99.21 321.37 92.19 320.14 85.25 317.27 78.82 314.17 72.58 310.1 66.94 305.78 61.47 300.39 57.04 294.6 53.19 288.38 50.08 281.88 47.48 274.96 46.49 268.01 45.5"/><polygon class="a" points="321.6 157.19 313.95 158.89 306.42 158.79 298.89 158.78 291.22 157.19 298.87 155.33 306.42 155.45 313.97 155.24 321.6 157.19"/><polygon class="b" points="321.6 157.19 313.95 158.89 306.42 158.79 298.89 158.78 291.22 157.19 298.87 155.33 306.42 155.45 313.97 155.24 321.6 157.19"/><polyline class="a" points="257.52 753.24 250.07 751.61 243.1 748.49 236.8 744.21 230.82 739.53 225.56 734.02 221.71 727.45 217.8 720.91 215.33 713.67 215.04 707.57 214.52 701.6 214.53 694.37 214.41 687.14 214.18 679.91 214.18 672.68 214.43 665.45 214.09 658.23 213.78 651 214.05 643.77 214.45 636.54 214.41 629.31 213.94 622.08 214.39 614.86 213.72 607.63 213.79 600.4 213.61 593.17 214.13 585.94 214.16 578.72 214.05 571.49 214.49 564.26 214.2 557.04 214.49 549.81 214.46 542.58 213.82 535.36 214.03 528.13 213.83 520.9 214.33 513.67 213.96 506.44 214.06 499.21 213.83 491.98 214.3 484.75 213.9 477.51 214.22 470.28 214.39 463.05 214.27 455.82 214.03 448.59 213.99 441.36 213.71 434.13 214.28 426.89 214.2 419.66 214.19 412.43 213.98 405.19 214.19 397.96 213.5 390.72 214.05 383.48"/><polyline class="b" points="257.52 753.24 250.07 751.61 243.1 748.49 236.8 744.21 230.82 739.53 225.56 734.02 221.71 727.45 217.8 720.91 215.33 713.67 215.04 707.57 214.52 701.6 214.53 694.37 214.41 687.14 214.18 679.91 214.18 672.68 214.43 665.45 214.09 658.23 213.78 651 214.05 643.77 214.45 636.54 214.41 629.31 213.94 622.08 214.39 614.86 213.72 607.63 213.79 600.4 213.61 593.17 214.13 585.94 214.16 578.72 214.05 571.49 214.49 564.26 214.2 557.04 214.49 549.81 214.46 542.58 213.82 535.36 214.03 528.13 213.83 520.9 214.33 513.67 213.96 506.44 214.06 499.21 213.83 491.98 214.3 484.75 213.9 477.51 214.22 470.28 214.39 463.05 214.27 455.82 214.03 448.59 213.99 441.36 213.71 434.13 214.28 426.89 214.2 419.66 214.19 412.43 213.98 405.19 214.19 397.96 213.5 390.72 214.05 383.48"/><polyline class="b" points="243.77 383 243.8 390.28 243.19 397.55 243.1 404.83 243.51 412.11 243.67 419.38 243.21 426.66 243.89 433.94 243.09 441.22 243.02 448.5 243.41 455.77 243.71 463.05 243.19 470.33 243.73 477.61 243.89 484.89 243.87 492.16 243.77 499.43 243.37 506.71 243.28 513.99 243.46 521.26 243.36 528.54 243.3 535.82 243.92 543.09 243.22 550.37 243.42 557.65 243.42 564.93 243.45 572.21 243.89 579.49 243.61 586.76 243.82 594.04 243.96 601.33 243.49 608.61 243.19 615.89 243.07 623.17 243.92 630.45 243.37 637.73 243.29 645.01 243.01 652.29 243.3 659.57 243.52 666.85 243.47 674.14 243.14 681.42 243.09 688.71 243.95 696 244.37 703.58 247.88 710.4 253.38 715.69 260.22 718.97 267.68 720.11"/><line class="a" x1="267.85" y1="754.07" x2="257.52" y2="753.24"/><line class="b" x1="267.85" y1="754.07" x2="257.52" y2="753.24"/></svg>