<svg xmlns="http://www.w3.org/2000/svg" viewBox="0 0 801.04 800"><defs><style>.a{fill:#fff;}.b,.c{fill:none;stroke:#000;stroke-width:13px;}.b{stroke-miterlimit:10;}.c{stroke-linejoin:bevel;}</style></defs><title>Asset 1-222-2</title><rect class="a" width="800" height="800"/><path d="M99.52,65.76l-1.48,0C74,65,57.44,46.69,56.75,45.91l9.71-8.64c.13.15,13.65,15,32.08,15.48,11.47.31,22.71-5,33.47-15.75l9.19,9.19C128.21,59.18,114.19,65.76,99.52,65.76Z"/><path d="M165.52,65.76l-1.48,0C140,65,123.44,46.69,122.75,45.91l9.71-8.64c.13.15,13.65,15,32.08,15.48,11.47.31,22.71-5,33.47-15.75l9.19,9.19C194.21,59.18,180.19,65.76,165.52,65.76Z"/><path d="M231.52,65.76l-1.48,0C206,65,189.44,46.69,188.75,45.91l9.71-8.64c.13.15,13.65,15,32.08,15.48,11.47.31,22.71-5,33.47-15.75l9.19,9.19C260.21,59.18,246.19,65.76,231.52,65.76Z"/><path d="M297.52,65.76l-1.48,0C272,65,255.44,46.69,254.75,45.91l9.71-8.64c.13.15,13.65,15,32.08,15.48,11.46.31,22.71-5,33.47-15.75l9.19,9.19C326.21,59.18,312.19,65.76,297.52,65.76Z"/><path d="M363.52,65.76l-1.48,0C338,65,321.44,46.69,320.75,45.91l9.71-8.64c.13.15,13.65,15,32.08,15.48,11.46.31,22.71-5,33.47-15.75l9.19,9.19C392.21,59.18,378.19,65.76,363.52,65.76Z"/><path d="M429.52,65.76l-1.48,0C404,65,387.44,46.69,386.75,45.91l9.71-8.64c.13.15,13.65,15,32.08,15.48,11.43.31,22.71-5,33.47-15.75l9.19,9.19C458.21,59.18,444.19,65.76,429.52,65.76Z"/><path d="M99.52,131.76l-1.48,0C74,131,57.44,112.69,56.75,111.91l9.71-8.64c.13.15,13.65,15,32.08,15.48,11.47.31,22.71-5,33.47-15.75l9.19,9.19C128.21,125.18,114.19,131.76,99.52,131.76Z"/><path d="M165.52,131.76l-1.48,0c-24.08-.72-40.6-19.05-41.3-19.83l9.71-8.64c.13.15,13.65,15,32.08,15.48,11.47.31,22.71-5,33.47-15.75l9.19,9.19C194.21,125.18,180.19,131.76,165.52,131.76Z"/><path d="M231.52,131.76l-1.48,0c-24.08-.72-40.6-19.05-41.3-19.83l9.71-8.64c.13.15,13.65,15,32.08,15.48,11.47.31,22.71-5,33.47-15.75l9.19,9.19C260.21,125.18,246.19,131.76,231.52,131.76Z"/><path d="M297.52,131.76l-1.48,0c-24.08-.72-40.6-19.05-41.3-19.83l9.71-8.64c.13.15,13.65,15,32.08,15.48,11.46.31,22.71-5,33.47-15.75l9.19,9.19C326.21,125.18,312.19,131.76,297.52,131.76Z"/><path d="M363.52,131.76l-1.48,0c-24.08-.72-40.6-19.05-41.3-19.83l9.71-8.64c.13.15,13.65,15,32.08,15.48,11.46.31,22.71-5,33.47-15.75l9.19,9.19C392.21,125.18,378.19,131.76,363.52,131.76Z"/><path d="M429.52,131.76l-1.48,0c-24.08-.72-40.6-19.05-41.3-19.83l9.71-8.64c.13.15,13.65,15,32.08,15.48,11.43.3,22.71-5,33.47-15.75l9.19,9.19C458.21,125.18,444.19,131.76,429.52,131.76Z"/><path d="M495.52,131.76l-1.48,0c-24.08-.72-40.6-19.05-41.3-19.83l9.71-8.64c.13.15,13.65,15,32.08,15.48,11.44.3,22.71-5,33.47-15.75l9.19,9.19C524.21,125.18,510.19,131.76,495.52,131.76Z"/><polyline class="b" points="61.91 173.32 66.9 178.29 72.57 182.53 78.59 186.28 85.06 189.3 92.05 190.74 99.13 190.94 106.21 190.81 112.99 188.77 119.4 185.86 125.63 182.54 131.07 178.03 136.86 173.84"/><polyline class="b" points="127.56 173.63 133.05 178.11 138.66 182.38 144.49 186.48 151.09 189.18 158 191.04 165.13 190.84 172.26 191.09 179.08 189.03 185.72 186.47 191.79 182.77 197.65 178.72 202.82 173.81"/><polyline class="b" points="193.53 173.67 198.84 178.36 204.24 183.03 210.83 185.79 217.33 188.47 224.03 190.89 231.13 191.53 238.26 191.13 245.13 189.17 251.76 186.57 257.86 182.88 263.62 178.68 268.83 173.82"/><polyline class="b" points="259.3 173.87 264.67 178.56 270.39 182.79 276.58 186.3 283.34 188.46 290.07 190.65 297.13 190.88 304.17 190.59 311.17 189.29 317.59 186.22 323.75 182.71 329.48 178.51 334.75 173.73"/><polyline class="b" points="325.9 173.33 330.94 178.25 336.62 182.44 342.61 186.24 349.35 188.41 355.99 191.07 363.13 191.3 370.24 190.97 376.95 188.65 383.45 185.94 389.85 182.87 395.31 178.31 400.84 173.83"/><polyline class="b" points="391.51 173.68 396.6 178.65 402.33 182.88 408.83 185.78 415.08 189.22 422.03 190.84 429.13 190.81 436.27 191.16 442.94 188.62 449.43 185.92 455.56 182.44 461.49 178.53 466.74 173.73"/><polyline class="b" points="457.67 173.54 462.87 178.32 468.66 182.39 474.61 186.24 481.1 189.17 488.11 190.43 495.13 190.9 502.26 191.1 508.95 188.66 515.74 186.52 521.63 182.53 527.5 178.54 532.39 173.38"/><polyline class="b" points="523.42 173.76 528.77 178.45 534.56 182.53 540.55 186.36 547.06 189.28 554.03 190.83 561.13 191.53 568.26 191.09 575.15 189.25 581.75 186.55 587.97 183.04 593.23 178.22 598.52 173.51"/><polyline class="b" points="127.46 239.73 132.58 244.68 138.55 248.55 144.72 252.01 151.32 254.5 158.13 256.26 165.13 257.27 172.27 257.16 179 254.8 185.62 252.29 191.85 248.86 197.33 244.34 202.49 239.48"/><polyline class="b" points="193.79 239.43 198.5 244.78 204.77 248.21 210.81 251.83 217.12 255.12 224.08 256.59 231.13 257.7 238.25 257.04 244.99 254.76 251.61 252.26 257.57 248.46 263.28 244.28 268.49 239.47"/><polyline class="b" points="259.45 239.73 264.83 244.37 270.78 248.21 276.68 252.09 283.14 255.06 290.15 256.16 297.13 257.17 304.25 257.07 311.02 254.87 317.8 252.64 323.69 248.63 329.31 244.32 334.28 239.27"/><polyline class="b" points="325.27 239.89 330.97 244.21 336.59 248.49 342.54 252.38 349.21 254.85 356.16 256.13 363.13 257.6 370.23 256.91 376.94 254.62 383.8 252.63 389.61 248.51 395.3 244.29 400.31 239.3"/><polyline class="b" points="391.41 239.77 396.89 244.3 402.3 248.94 408.49 252.47 415.35 254.42 422.14 256.2 429.13 257.24 436.21 256.82 442.94 254.62 449.71 252.47 455.91 248.96 461.61 244.67 466.3 239.29"/><polyline class="b" points="457.26 239.9 462.7 244.53 468.56 248.54 474.44 252.58 481.15 255 488.13 256.3 495.13 256.89 502.21 256.81 508.96 254.69 515.64 252.34 521.8 248.79 527.45 244.48 532.89 239.88"/><polyline class="b" points="523.96 239.28 528.8 244.41 534.35 248.86 540.68 252.09 547.06 255.29 554.05 256.71 561.13 257.53 568.14 256.38 574.98 254.73 581.82 252.69 587.89 248.92 593.64 244.71 598.37 239.35"/><polyline class="b" points="589.32 239.85 594.74 244.48 600.29 248.95 606.5 252.47 613.17 254.96 620.16 256.13 627.13 257.1 634.12 256.28 640.98 254.74 647.53 252.11 653.61 248.51 659.54 244.59 664.27 239.26"/><polyline class="b" points="193.48 305.7 198.59 310.66 204.56 314.53 210.63 318.19 217.32 320.52 224 323.01 231.13 323.49 238.2 322.76 245.05 320.94 251.4 317.86 257.56 314.43 263.53 310.58 268.66 305.65"/><polyline class="b" points="259.27 305.89 264.63 310.62 270.57 314.53 276.73 318 283.09 321.2 290.14 322.21 297.13 323.46 304.23 322.96 311.17 321.31 317.61 318.27 323.89 314.92 329.22 310.2 334.37 305.36"/><polyline class="b" points="325.8 305.43 331.01 310.15 336.65 314.41 342.58 318.3 349.32 320.5 356.16 322.14 363.13 323.11 370.26 323.12 377.13 321.17 383.47 317.99 389.53 314.39 395.27 310.26 400.7 305.69"/><polyline class="b" points="391.93 305.31 396.63 310.62 402.41 314.77 408.68 318.09 415.27 320.67 421.99 323.08 429.13 323.17 436.14 322.41 443.11 321.13 449.65 318.35 455.89 314.93 461.21 310.19 466.91 305.9"/><polyline class="b" points="457.83 305.39 462.65 310.59 468.54 314.57 474.79 317.88 481.36 320.41 488.12 322.32 495.13 323.05 502.2 322.72 508.99 320.75 515.75 318.54 521.62 314.52 527.07 310.03 532.94 305.93"/><polyline class="b" points="523.29 305.87 529.05 310.1 534.37 314.83 540.61 318.23 547.17 320.95 554.11 322.41 561.13 323.14 568.25 323.04 574.93 320.6 581.69 318.43 587.75 314.71 593.38 310.39 598.43 305.42"/><polyline class="b" points="589.34 305.83 595.09 310.06 600.45 314.71 606.74 317.97 613.33 320.49 620.01 322.98 627.13 323.37 634.2 322.74 641.03 320.87 647.58 318.21 653.86 314.88 659.38 310.39 664.29 305.27"/><polyline class="b" points="655.52 305.67 660.99 310.18 666.63 314.43 672.61 318.23 679.28 320.62 686.15 322.19 693.13 323.11 700.22 322.84 707.18 321.32 713.44 317.93 719.98 315.06 725.34 310.35 730.38 305.37"/><polyline class="b" points="259.54 371.65 264.5 376.78 270.33 380.89 276.61 384.24 283.26 386.69 290.02 388.93 297.13 389.71 304.12 388.23 311.07 387.01 317.77 384.59 323.67 380.6 329.12 376.09 334.58 371.56"/><polyline class="b" points="325.61 371.59 330.49 376.8 336.4 380.78 342.68 384.09 349.34 386.45 356.05 388.75 363.13 389.38 370.17 388.55 377.15 387.25 383.82 384.68 389.89 380.92 395.24 376.23 400.48 371.46"/><polyline class="b" points="391.42 371.76 396.67 376.57 402.31 380.92 408.87 383.72 415.36 386.39 422.06 388.71 429.13 389.41 436.27 389.19 443.11 387.13 449.62 384.29 455.6 380.49 461.67 376.74 466.79 371.78"/><polyline class="b" points="457.7 371.51 462.6 376.65 468.72 380.29 474.82 383.8 481.35 386.43 488 389 495.13 389.66 502.25 389.02 509.15 387.25 515.68 384.41 521.44 380.26 527.68 376.75 532.8 371.79"/><polyline class="b" points="523.48 371.7 528.62 376.63 534.76 380.22 540.79 383.88 547.27 386.66 554.12 388.32 561.13 389.3 568.12 388.28 575.07 387 581.73 384.5 587.91 380.95 593.67 376.74 598.47 371.45"/><polyline class="b" points="589.27 371.89 594.76 376.45 600.41 380.77 606.73 383.99 613.18 386.92 620.11 388.39 627.13 389.51 634.14 388.36 641.14 387.21 647.83 384.7 653.93 380.98 659.43 376.45 664.74 371.72"/><polyline class="b" points="655.62 371.58 660.71 376.52 666.69 380.34 672.7 384.06 679.29 386.59 686.04 388.78 693.13 389.13 700.24 388.98 707.05 386.95 713.75 384.54 719.91 380.95 725.62 376.68 730.73 371.72"/><polyline class="b" points="721.88 371.35 726.88 376.32 732.49 380.64 738.88 383.69 745.23 386.78 752.11 388.41 759.13 388.88 766.14 388.36 773 386.78 779.8 384.65 785.74 380.7 791.44 376.46 796.32 371.3"/><polygon points="799.73 373.86 792.32 367.11 787.59 371.57 782.43 375.58 788.14 380.73 793.85 385.18 800.03 389.05 799.65 381.4 799.73 373.86"/><path d="M800,38C789.54,48.06,778.61,53,767.54,52.75c-18.42-.5-31.94-15.33-32.08-15.48l-9.71,8.64C726.44,46.69,743,65,767,65.74l1.48,0c10.91,0,21.45-3.64,31.48-10.84Z"/><polygon class="c" points="470.59 745.65 463.03 745.25 455.77 745.9 448.51 745.62 441.25 745.52 433.99 746.05 426.73 745.51 419.47 745.36 412.21 745.96 404.95 745.81 397.7 745.59 390.44 745.19 383.18 745.83 375.92 746.01 368.66 745.79 361.39 745.41 354.13 745.62 346.86 745.64 339.59 745.57 333.4 741.67 327.23 737.75 321.03 733.86 315.25 729.34 309.19 725.24 302.98 721.37 296.93 717.25 290.8 713.26 284.6 709.37 278.29 705.64 272.53 701.09 266.56 696.85 260.03 693.45 253.86 689.51 248.15 684.88 241.84 681.14 235.71 677.15 229.53 673.23 223.68 668.82 217.3 665.19 211.45 660.76 205.22 656.9 199.21 652.73 192.69 649.32 187.04 644.56 180.97 640.95 187.95 641.12 195.21 640.49 202.46 640.48 209.72 641.12 216.98 640.72 224.24 641.19 231.5 640.56 238.76 640.88 246.02 640.81 253.28 640.68 260.54 640.55 267.8 641.18 275.06 640.99 282.32 641.24 289.58 641.36 296.85 640.46 304.11 641.1 311.26 641.26 317.76 644.48 323.35 649.3 329.5 653.26 335.59 657.31 341.85 661.1 348.15 664.84 353.96 669.32 360.1 673.3 366.31 677.18 372.7 680.77 378.65 685.04 384.52 689.45 390.97 692.95 397.19 696.83 403.01 701.29 408.94 705.59 415.42 709.06 421.62 712.94 427.69 717.03 433.52 721.49 439.62 725.54 445.68 729.65 451.93 733.46 457.84 737.81 464.29 741.34 470.59 745.65"/><polygon class="c" points="312.01 641.03 304.5 640.42 297.24 641.25 289.99 640.75 282.73 640.76 275.47 641.31 268.21 640.92 260.95 640.55 253.69 640.7 246.43 640.96 239.17 640.71 231.91 640.7 224.65 640.59 217.39 641.06 210.13 640.81 202.87 640.58 195.6 640.93 188.34 640.98 180.93 641.11 177.79 634.58 174.13 628.49 171.5 621.86 167.9 615.72 164.58 609.45 161.1 603.25 158.11 596.81 154.91 590.48 151.9 584.04 148.1 578.01 144.94 571.65 141.87 565.24 138.61 558.93 135.39 552.6 131.85 546.43 128.63 540.11 125.88 533.54 122.49 527.3 119.3 520.95 116.09 514.62 112.67 508.39 109.32 502.12 106.58 495.54 103.29 489.24 100.08 482.9 96.47 476.82 103.67 476.77 110.93 476.52 118.19 476.57 125.45 476.31 132.71 476.31 139.97 477.22 147.23 477.03 154.49 476.64 161.75 476.88 169.01 476.48 176.27 476.94 183.53 477.06 190.78 477.06 198.05 477.05 205.31 477.24 212.57 476.62 219.84 477.23 226.91 477.11 230.55 483 233.54 489.44 237.02 495.63 240.25 501.95 243.11 508.46 246.42 514.75 249.78 521 252.89 527.38 256.51 533.5 259.49 539.96 262.74 546.27 266.14 552.51 269.49 558.77 272.72 565.09 276.02 571.38 279.14 577.76 282.76 583.88 285.48 590.47 288.62 596.84 292.02 603.08 295.67 609.19 298.93 615.5 302.14 621.84 305.22 628.25 308.78 634.41 312.01 641.03"/><polyline points="478.36 723.46 475.34 730.69 473.18 738.22 470.37 745.62 463.04 745.17 455.8 745.68 448.56 745.03 441.32 745.53 434.07 745.76 426.83 745.09 419.59 745.35 412.34 745.72 405.1 745.78 397.86 745.46 390.62 745.78 383.37 745.27 376.13 745.28 368.88 745.21 361.64 745.18 354.39 745.04 347.14 745.28 339.78 745.87 333.59 741.77 327.63 737.53 321.31 733.84 315.42 729.48 309.4 725.34 303.2 721.46 296.96 717.63 291.24 713.02 285.05 709.13 278.96 705.08 272.57 701.48 266.37 697.59 260.29 693.53 254.49 689.03 248.42 684.95 242.28 680.98 236.3 676.75 229.99 673.05 223.78 669.18 217.76 665 211.89 660.62 205.36 657.23 199.4 652.99 193.19 649.1 187.09 645.05 180.84 641.08 177.89 634.3 174.83 627.68 171.29 621.3 167.4 615.1 164.08 608.6 160.74 602.12 157.38 595.65 154.54 588.91 151.24 582.4 147.35 576.2 143.88 569.77 140.91 563.1 137.86 556.46 133.85 550.32 131.04 543.56 127.67 537.09 124.31 530.62 121.28 523.97 117.69 517.61 113.8 511.41 110.41 504.94 107.46 498.25 104.45 491.59 100.83 485.24 97.16 478.79 99.35 471.62 101.74 464.62 103.86 457.65 107.36 463.91 110.94 470.25 113.8 476.97 117.04 483.49 120.56 489.86 124.19 496.18 127.41 502.71 130.95 509.07 134.16 515.61 137.88 521.88 140.78 528.58 144.54 534.84 147.61 541.45 150.79 548 154.59 554.23 158.32 560.49 161.12 567.25 164.6 573.64 167.74 580.22 171.61 586.42 175.35 592.68 178.3 599.36 181.9 605.69 185.42 612.08 188.13 619.03 194.41 623 200.52 627.01 206.94 630.54 212.78 634.96 219.06 638.7 225.08 642.85 231.42 646.51 237.45 650.64 243.35 654.97 249.67 658.65 255.37 663.29 261.64 667.05 267.95 670.76 274.11 674.7 280.19 678.76 286.25 682.84 291.87 687.59 298.42 690.93 304.34 695.23 310.61 699 316.65 703.13 322.4 707.68 328.98 710.98 334.77 715.49 341.08 719.21 346.93 723.82 354.3 723.96 361.57 723.03 368.84 723.38 376.12 723.75 383.39 723.59 390.67 723.22 397.94 723.73 405.22 723.76 412.5 723.83 419.77 723.26 427.05 723.27 434.32 723.37 441.6 723.04 448.88 723.34 456.16 723.74 463.43 723.02 470.72 723.58 478 723.34"/><polyline class="c" points="478.36 723.46 475.34 730.69 473.18 738.22 470.37 745.62 463.04 745.17 455.8 745.68 448.56 745.03 441.32 745.53 434.07 745.76 426.83 745.09 419.59 745.35 412.34 745.72 405.1 745.78 397.86 745.46 390.62 745.78 383.37 745.27 376.13 745.28 368.88 745.21 361.64 745.18 354.39 745.04 347.14 745.28 339.78 745.87 333.59 741.77 327.63 737.53 321.31 733.84 315.42 729.48 309.4 725.34 303.2 721.46 296.96 717.63 291.24 713.02 285.05 709.13 278.96 705.08 272.57 701.48 266.37 697.59 260.29 693.53 254.49 689.03 248.42 684.95 242.28 680.98 236.3 676.75 229.99 673.05 223.78 669.18 217.76 665 211.89 660.62 205.36 657.23 199.4 652.99 193.19 649.1 187.09 645.05 180.84 641.08 177.89 634.3 174.83 627.68 171.29 621.3 167.4 615.1 164.08 608.6 160.74 602.12 157.38 595.65 154.54 588.91 151.24 582.4 147.35 576.2 143.88 569.77 140.91 563.1 137.86 556.46 133.85 550.32 131.04 543.56 127.67 537.09 124.31 530.62 121.28 523.97 117.69 517.61 113.8 511.41 110.41 504.94 107.46 498.25 104.45 491.59 100.83 485.24 97.16 478.79 99.35 471.62 101.74 464.62 103.86 457.65 107.36 463.91 110.94 470.25 113.8 476.97 117.04 483.49 120.56 489.86 124.19 496.18 127.41 502.71 130.95 509.07 134.16 515.61 137.88 521.88 140.78 528.58 144.54 534.84 147.61 541.45 150.79 548 154.59 554.23 158.32 560.49 161.12 567.25 164.6 573.64 167.74 580.22 171.61 586.42 175.35 592.68 178.3 599.36 181.9 605.69 185.42 612.08 188.13 619.03 194.41 623 200.52 627.01 206.94 630.54 212.78 634.96 219.06 638.7 225.08 642.85 231.42 646.51 237.45 650.64 243.35 654.97 249.67 658.65 255.37 663.29 261.64 667.05 267.95 670.76 274.11 674.7 280.19 678.76 286.25 682.84 291.87 687.59 298.42 690.93 304.34 695.23 310.61 699 316.65 703.13 322.4 707.68 328.98 710.98 334.77 715.49 341.08 719.21 346.93 723.82 354.3 723.96 361.57 723.03 368.84 723.38 376.12 723.75 383.39 723.59 390.67 723.22 397.94 723.73 405.22 723.76 412.5 723.83 419.77 723.26 427.05 723.27 434.32 723.37 441.6 723.04 448.88 723.34 456.16 723.74 463.43 723.02 470.72 723.58 478 723.34"/><polygon class="a" points="477.4 723.2 470.45 723.06 463.19 723.77 455.94 723.02 448.68 722.9 441.42 723.23 434.16 722.99 426.9 722.92 419.64 723.13 412.38 723.16 405.12 723.62 397.86 722.94 390.6 723.72 383.34 723.78 376.08 723.6 368.82 723.52 361.56 723.04 354.29 723.06 347.05 723.2 341 719.14 335.05 714.87 328.79 711.08 322.5 707.32 316.53 703.09 310.22 699.37 304.33 695.01 297.88 691.5 292.26 686.72 286.09 682.8 279.84 678.99 273.83 674.79 267.45 671.18 261.49 666.92 255.57 662.6 249.33 658.77 243.06 654.99 237.12 650.7 230.95 646.77 224.64 643.03 218.75 638.68 212.34 635.1 206.3 630.96 200.34 626.7 194.37 622.44 187.7 618.48 195.37 619.08 202.63 618.85 209.89 618.81 217.15 618.99 224.41 618.32 231.67 618.62 238.93 618.41 246.19 618.66 253.45 618.55 260.7 618.36 267.96 618.62 275.22 618.33 282.48 618.74 289.75 619.04 297.01 618.67 304.27 618.24 311.54 618.19 318.68 619.02 325.07 622.38 330.88 626.87 337.11 630.7 343 635.06 349.38 638.67 355.43 642.79 361.72 646.53 367.54 651.01 373.99 654.52 379.67 659.19 386.14 662.68 392.06 666.99 398.06 671.19 404.34 674.97 410.55 678.85 416.46 683.17 422.94 686.63 428.53 691.45 434.81 695.22 440.91 699.27 447.15 703.11 453.12 707.36 459.32 711.25 465.21 715.62 471.55 719.31 477.4 723.2"/><polygon class="c" points="477.4 723.2 470.45 723.06 463.19 723.77 455.94 723.02 448.68 722.9 441.42 723.23 434.16 722.99 426.9 722.92 419.64 723.13 412.38 723.16 405.12 723.62 397.86 722.94 390.6 723.72 383.34 723.78 376.08 723.6 368.82 723.52 361.56 723.04 354.29 723.06 347.05 723.2 341 719.14 335.05 714.87 328.79 711.08 322.5 707.32 316.53 703.09 310.22 699.37 304.33 695.01 297.88 691.5 292.26 686.72 286.09 682.8 279.84 678.99 273.83 674.79 267.45 671.18 261.49 666.92 255.57 662.6 249.33 658.77 243.06 654.99 237.12 650.7 230.95 646.77 224.64 643.03 218.75 638.68 212.34 635.1 206.3 630.96 200.34 626.7 194.37 622.44 187.7 618.48 195.37 619.08 202.63 618.85 209.89 618.81 217.15 618.99 224.41 618.32 231.67 618.62 238.93 618.41 246.19 618.66 253.45 618.55 260.7 618.36 267.96 618.62 275.22 618.33 282.48 618.74 289.75 619.04 297.01 618.67 304.27 618.24 311.54 618.19 318.68 619.02 325.07 622.38 330.88 626.87 337.11 630.7 343 635.06 349.38 638.67 355.43 642.79 361.72 646.53 367.54 651.01 373.99 654.52 379.67 659.19 386.14 662.68 392.06 666.99 398.06 671.19 404.34 674.97 410.55 678.85 416.46 683.17 422.94 686.63 428.53 691.45 434.81 695.22 440.91 699.27 447.15 703.11 453.12 707.36 459.32 711.25 465.21 715.62 471.55 719.31 477.4 723.2"/><polygon class="a" points="319.39 618.73 311.93 618.65 304.67 618.67 297.41 618.11 290.15 618.86 282.89 618.33 275.63 618.84 268.37 618.37 261.11 618.84 253.85 618.55 246.59 618.31 239.34 618.77 232.08 618.65 224.82 618.93 217.56 618.47 210.29 618.73 203.03 618.34 195.76 618.33 188.49 618.61 185.53 612.14 182.42 605.76 178.31 599.89 175.59 593.31 172.34 587 169.39 580.53 165.29 574.66 162.33 568.2 159.42 561.71 155.9 555.54 152.38 549.37 149.34 542.94 145.81 536.77 143.33 530.06 139.5 524.05 136.59 517.55 133.27 511.28 129.83 505.07 126.5 498.79 123.52 492.34 119.72 486.31 117.03 479.7 113.97 473.29 109.92 467.38 106.84 460.96 103.9 454.54 111.1 454.79 118.36 454.85 125.62 454.05 132.88 454.04 140.14 454.91 147.4 454.56 154.65 454.74 161.91 454.57 169.18 454.86 176.43 454.26 183.69 455 190.95 454.73 198.21 454.29 205.47 454.86 212.74 454.59 220 454.89 227.26 454.19 234.38 454.77 237.89 460.76 240.61 467.34 244.67 473.24 247.98 479.52 250.91 485.99 254.08 492.35 257.54 498.55 260.23 505.15 264.21 511.08 267.34 517.46 270.62 523.76 273.21 530.41 277.01 536.45 280.21 542.79 283.66 549 286.19 555.68 289.98 561.72 293.16 568.06 296.51 574.32 299.74 580.65 303.3 586.81 306.52 593.14 309.81 599.43 312.91 605.83 315.82 612.34 319.39 618.73"/><polygon class="c" points="319.39 618.73 311.93 618.65 304.67 618.67 297.41 618.11 290.15 618.86 282.89 618.33 275.63 618.84 268.37 618.37 261.11 618.84 253.85 618.55 246.59 618.31 239.34 618.77 232.08 618.65 224.82 618.93 217.56 618.47 210.29 618.73 203.03 618.34 195.76 618.33 188.49 618.61 185.53 612.14 182.42 605.76 178.31 599.89 175.59 593.31 172.34 587 169.39 580.53 165.29 574.66 162.33 568.2 159.42 561.71 155.9 555.54 152.38 549.37 149.34 542.94 145.81 536.77 143.33 530.06 139.5 524.05 136.59 517.55 133.27 511.28 129.83 505.07 126.5 498.79 123.52 492.34 119.72 486.31 117.03 479.7 113.97 473.29 109.92 467.38 106.84 460.96 103.9 454.54 111.1 454.79 118.36 454.85 125.62 454.05 132.88 454.04 140.14 454.91 147.4 454.56 154.65 454.74 161.91 454.57 169.18 454.86 176.43 454.26 183.69 455 190.95 454.73 198.21 454.29 205.47 454.86 212.74 454.59 220 454.89 227.26 454.19 234.38 454.77 237.89 460.76 240.61 467.34 244.67 473.24 247.98 479.52 250.91 485.99 254.08 492.35 257.54 498.55 260.23 505.15 264.21 511.08 267.34 517.46 270.62 523.76 273.21 530.41 277.01 536.45 280.21 542.79 283.66 549 286.19 555.68 289.98 561.72 293.16 568.06 296.51 574.32 299.74 580.65 303.3 586.81 306.52 593.14 309.81 599.43 312.91 605.83 315.82 612.34 319.39 618.73"/><polygon points="284.83 602.4 277.01 601.93 269.49 602.52 261.98 602.5 254.46 602.54 246.94 601.75 239.43 602.54 231.91 602.22 224.38 601.8 216.86 602.55 209.34 602.05 201.95 601.97 198.25 596.12 195.06 589.85 192.17 583.43 188.55 577.39 185.72 570.94 182.03 564.93 179.56 558.29 175.71 552.36 173.02 545.83 169.17 539.9 166.37 533.43 163.25 527.13 159.6 521.11 156.95 514.56 153.53 508.4 150.13 502.25 147.16 495.86 143.58 489.8 140.95 483.23 137.75 476.96 133.91 470.79 141.61 471.41 149.13 471.3 156.64 471.4 164.16 470.98 171.68 471.33 179.2 470.94 186.72 470.71 194.24 471.24 201.76 470.6 209.28 471.12 216.67 471.16 220.32 477.02 222.95 483.57 226.04 489.89 229.5 496.02 233.22 502.01 235.93 508.53 239.27 514.72 242.79 520.81 245.99 527.08 249.04 533.42 252.6 539.5 255.62 545.85 259.12 551.96 261.68 558.55 265.42 564.53 268.58 570.82 271.52 577.22 275.26 583.2 277.87 589.78 281.24 595.96 284.83 602.4"/><polyline class="a" points="339.5 745.39 341.92 738 344.31 730.59 346.63 723.16"/><polyline class="c" points="339.5 745.39 341.92 738 344.31 730.59 346.63 723.16"/><polyline class="a" points="180.79 640.78 183.62 633.48 185.65 625.91 188.27 618.53"/><polyline class="c" points="180.79 640.78 183.62 633.48 185.65 625.91 188.27 618.53"/><polyline class="c" points="118.21 454.32 114.62 448.1 110.85 442 107.45 435.68 103.36 429.75 100.53 423.11 96.64 417.08 93.36 410.69 89.32 404.73 86.25 398.23 82.82 391.92 79.1 385.79 74.89 379.92 71.8 373.42 68.21 367.15 59.13 371.48 65.54 368.22 72.08 365.22 78.51 361.99"/><polyline class="a" points="437.71 697.44 430.45 697.27 423.19 697.22 415.94 697.41 408.68 697.24 401.42 697.47 394.16 697.18 386.9 697.01 379.64 697.13 372.38 697.75 365.12 697.44 357.86 697.25 350.6 697.6 343.34 697.75 336.08 697.35 328.82 697.08 321.56 697.08 314.29 697.71 307.02 697.95"/><polyline class="c" points="437.71 697.44 430.45 697.27 423.19 697.22 415.94 697.41 408.68 697.24 401.42 697.47 394.16 697.18 386.9 697.01 379.64 697.13 372.38 697.75 365.12 697.44 357.86 697.25 350.6 697.6 343.34 697.75 336.08 697.35 328.82 697.08 321.56 697.08 314.29 697.71 307.02 697.95"/><polyline class="a" points="396.95 671.2 389.69 671.24 382.43 670.64 375.18 671.41 367.92 671.54 360.66 671.13 353.4 670.99 346.14 671.34 338.88 671.06 331.62 671.21 324.36 671.41 317.1 671.13 309.84 671.07 302.58 671.38 295.32 671.31 288.06 671.13 280.79 671.03 273.53 670.99 266.26 670.98"/><polyline class="c" points="396.95 671.2 389.69 671.24 382.43 670.64 375.18 671.41 367.92 671.54 360.66 671.13 353.4 670.99 346.14 671.34 338.88 671.06 331.62 671.21 324.36 671.41 317.1 671.13 309.84 671.07 302.58 671.38 295.32 671.31 288.06 671.13 280.79 671.03 273.53 670.99 266.26 670.98"/><polyline class="a" points="362.45 646.12 355.19 646.29 347.93 645.4 340.68 645.75 333.42 645.89 326.16 646.33 318.9 646.18 311.64 646.34 304.38 645.49 297.12 646.02 289.86 645.4 282.6 645.36 275.34 646 268.08 646.09 260.82 645.92 253.56 645.57 246.3 646.34 239.03 646.29 231.76 645.62"/><polyline class="c" points="362.45 646.12 355.19 646.29 347.93 645.4 340.68 645.75 333.42 645.89 326.16 646.33 318.9 646.18 311.64 646.34 304.38 645.49 297.12 646.02 289.86 645.4 282.6 645.36 275.34 646 268.08 646.09 260.82 645.92 253.56 645.57 246.3 646.34 239.03 646.29 231.76 645.62"/><polyline class="a" points="414.19 723.26 407.77 719.7 402.01 715.14 395.46 711.8 389.7 707.23 383.63 703.16 377.5 699.15 371.51 694.95 365.44 690.87 359.26 686.95 352.9 683.31 346.89 679.12 340.95 674.83 334.44 671.41 328.29 667.44 322.44 663.02 316.45 658.81 310.2 654.99 304.02 651.08 298.19 646.62 292.05 642.64 285.5 639.27 279.84 634.55 273.53 630.83 267.53 626.62 261.29 622.78 254.98 619.03"/><polyline class="c" points="414.19 723.26 407.77 719.7 402.01 715.14 395.46 711.8 389.7 707.23 383.63 703.16 377.5 699.15 371.51 694.95 365.44 690.87 359.26 686.95 352.9 683.31 346.89 679.12 340.95 674.83 334.44 671.41 328.29 667.44 322.44 663.02 316.45 658.81 310.2 654.99 304.02 651.08 298.19 646.62 292.05 642.64 285.5 639.27 279.84 634.55 273.53 630.83 267.53 626.62 261.29 622.78 254.98 619.03"/><polyline class="a" points="721.15 530 721.93 536.66 721.86 543.33 721.71 549.99 721.24 556.66 721.58 563.33 721.56 570"/><polyline class="c" points="721.15 530 721.93 536.66 721.86 543.33 721.71 549.99 721.24 556.66 721.58 563.33 721.56 570"/><polyline class="a" points="685.29 656.69 690.33 651.62 695.41 646.63 701.22 642.5 706.92 638.27 712.75 634.22 718.89 630.68 724.98 627.03 731.22 623.65 737.6 620.51 744.34 618.21 751.17 616.28 757.78 613.6 764.64 611.68 771.66 610.44 778.78 610.05 785.82 609.17 792.9 608.59 800 608.36"/><polyline class="c" points="685.29 656.69 690.33 651.62 695.41 646.63 701.22 642.5 706.92 638.27 712.75 634.22 718.89 630.68 724.98 627.03 731.22 623.65 737.6 620.51 744.34 618.21 751.17 616.28 757.78 613.6 764.64 611.68 771.66 610.44 778.78 610.05 785.82 609.17 792.9 608.59 800 608.36"/><path d="M66,37C55.25,47.76,44,53.06,32.54,52.75,14.11,52.25.59,37.42.46,37.27L0,37.67V54c7.29,5.3,18.46,11.31,32,11.71l1.48,0c14.67,0,28.69-6.58,41.68-19.57Z"/><path d="M66,103c-10.76,10.76-22,16.06-33.47,15.75C14.11,118.25.59,103.42.46,103.27l-.46.41V120c7.29,5.3,18.46,11.31,32,11.71l1.48,0c14.67,0,28.69-6.58,41.68-19.57Z"/></svg>