<svg xmlns="http://www.w3.org/2000/svg" viewBox="0 0 800 800"><defs><style>.a{fill:#fff;}.b,.c,.d,.e{fill:none;stroke:#000;stroke-linejoin:bevel;}.b{stroke-width:13px;}.c,.d,.e{stroke-width:7px;}.d,.e{stroke-linecap:round;}.e{stroke-dasharray:0 24.67;}</style></defs><title>canvas (58)</title><polygon class="a" points="417.97 653.15 414.82 659.37 409.63 664.41 402.92 667.22 395.86 668.84 388.99 671.14 381.92 672.69 374.78 673.84 367.54 674.2 360.46 675.93 353.2 675.99 346.08 677.43 338.86 677.9 331.63 678.2 324.4 678.39 317.19 679.06 309.97 679.53 302.72 678.94 295.5 679.29 288.27 679.51 281.05 679.72 273.81 679.95 266.59 680.04 259.35 679.77 252.11 680.03 244.88 680.12 237.65 679.6 230.42 679.83 223.18 680.29 215.97 679.46 208.73 679.75 201.49 679.74 194.26 679.43 187.04 678.93 179.81 678.72 172.62 677.8 165.43 677.06 158.21 676.75 151.03 675.87 143.75 675.97 136.58 675.03 129.47 673.66 122.33 672.51 115.34 670.65 108.11 669.71 101.34 667.11 94.63 664.32 88.82 659.89 86.74 653.15 88.81 646.32 94.2 641.29 100.72 637.92 107.45 635.04 114.03 631.67 121.07 629.56 128.36 628.4 135.32 625.96 142.54 624.6 149.83 623.67 157.03 622.29 164.23 620.79 171.56 620.22 178.84 619.28 186.17 618.79 193.47 618.13 200.77 617.27 208.1 616.88 215.42 616.33 222.75 616.07 230.09 615.94 237.41 615.14 244.77 615.64 252.11 615.7 259.45 615.49 266.8 615.36 274.13 615.75 281.49 615.43 288.81 616.15 296.17 616.16 303.5 616.6 310.8 617.54 318.09 618.43 325.39 619.23 332.7 619.87 340 620.72 347.22 622.12 354.54 622.88 361.67 624.71 368.87 626.13 375.87 628.39 383.07 629.86 390.07 632.07 397.01 634.51 403.43 638.08 410.07 641.26 415.44 646.31 417.97 653.15"/><polygon class="b" points="417.97 653.15 414.82 659.37 409.63 664.41 402.92 667.22 395.86 668.84 388.99 671.14 381.92 672.69 374.78 673.84 367.54 674.2 360.46 675.93 353.2 675.99 346.08 677.43 338.86 677.9 331.63 678.2 324.4 678.39 317.19 679.06 309.97 679.53 302.72 678.94 295.5 679.29 288.27 679.51 281.05 679.72 273.81 679.95 266.59 680.04 259.35 679.77 252.11 680.03 244.88 680.12 237.65 679.6 230.42 679.83 223.18 680.29 215.97 679.46 208.73 679.75 201.49 679.74 194.26 679.43 187.04 678.93 179.81 678.72 172.62 677.8 165.43 677.06 158.21 676.75 151.03 675.87 143.75 675.97 136.58 675.03 129.47 673.66 122.33 672.51 115.34 670.65 108.11 669.71 101.34 667.11 94.63 664.32 88.82 659.89 86.74 653.15 88.81 646.32 94.2 641.29 100.72 637.92 107.45 635.04 114.03 631.67 121.07 629.56 128.36 628.4 135.32 625.96 142.54 624.6 149.83 623.67 157.03 622.29 164.23 620.79 171.56 620.22 178.84 619.28 186.17 618.79 193.47 618.13 200.77 617.27 208.1 616.88 215.42 616.33 222.75 616.07 230.09 615.94 237.41 615.14 244.77 615.64 252.11 615.7 259.45 615.49 266.8 615.36 274.13 615.75 281.49 615.43 288.81 616.15 296.17 616.16 303.5 616.6 310.8 617.54 318.09 618.43 325.39 619.23 332.7 619.87 340 620.72 347.22 622.12 354.54 622.88 361.67 624.71 368.87 626.13 375.87 628.39 383.07 629.86 390.07 632.07 397.01 634.51 403.43 638.08 410.07 641.26 415.44 646.31 417.97 653.15"/><polygon points="252.11 616.25 244.78 615.71 237.46 616.49 230.11 615.82 222.78 616.28 215.48 617.06 208.12 616.61 200.81 617.19 193.5 617.74 186.2 618.54 178.88 618.97 171.61 619.9 164.31 620.56 157.03 621.66 162.29 626.13 168.44 629.54 175.22 631.5 182.02 633.4 188.99 634.48 195.96 635.48 202.9 636.69 209.97 636.66 216.92 638.03 223.94 638.56 231 638.36 238.03 638.89 245.07 639.22 252.11 639.38 259.15 638.9 266.19 638.78 273.21 638.35 280.26 638.27 287.25 637.33 294.3 637.15 301.29 636.28 308.27 635.43 315.16 633.96 322.21 633.33 329.01 631.48 335.55 628.87 342.06 626.34 346.84 621.99 339.88 620.78 332.6 619.93 325.33 618.95 318.02 618.49 310.69 618.21 303.42 617.15 296.1 616.64 288.76 616.65 281.46 615.95 274.11 616.36 266.78 616.45 259.45 615.78 252.11 616.25"/><polygon class="b" points="252.11 616.25 244.78 615.71 237.46 616.49 230.11 615.82 222.78 616.28 215.48 617.06 208.12 616.61 200.81 617.19 193.5 617.74 186.2 618.54 178.88 618.97 171.61 619.9 164.31 620.56 157.03 621.66 162.29 626.13 168.44 629.54 175.22 631.5 182.02 633.4 188.99 634.48 195.96 635.48 202.9 636.69 209.97 636.66 216.92 638.03 223.94 638.56 231 638.36 238.03 638.89 245.07 639.22 252.11 639.38 259.15 638.9 266.19 638.78 273.21 638.35 280.26 638.27 287.25 637.33 294.3 637.15 301.29 636.28 308.27 635.43 315.16 633.96 322.21 633.33 329.01 631.48 335.55 628.87 342.06 626.34 346.84 621.99 339.88 620.78 332.6 619.93 325.33 618.95 318.02 618.49 310.69 618.21 303.42 617.15 296.1 616.64 288.76 616.65 281.46 615.95 274.11 616.36 266.78 616.45 259.45 615.78 252.11 616.25"/><polyline class="b" points="218.2 283.25 216.31 290.35 215.48 297.6 215.08 304.85 215.5 312.11 215.5 319.47 217.24 326.55 219.95 333.3 222.49 340.15 226.33 346.38 230.49 352.42 235.64 357.63 240.65 362.98 246.56 367.32 252.14 372.1"/><polyline class="b" points="224.07 287.24 227.76 293 231.87 298.46 236.87 303.15 241.86 307.78 246.96 312.31 252.16 316.81"/><polyline class="b" points="286.06 515.39 288.53 508.49 289.88 501.27 290.5 493.94 289.83 486.63 289.4 479.31 287.48 472.24 285.33 465.22 282.18 458.59 278.04 452.54 273.8 446.6 269.19 440.9 263.5 436.27 258.22 431.19 252.23 426.98"/><polyline class="b" points="290.01 594.78 288.45 587.86 286.54 581.08 284.02 574.5 281.68 567.76 277.56 561.97 273.38 556.24 268.7 550.91 263.11 546.52 258.02 541.58 252.24 537.48"/><polyline class="b" points="218.97 338.82 216.15 345.56 215.27 352.83 214.65 360.09 214.65 367.39 215.77 374.6 217.5 381.67 219.91 388.53 222.68 395.28 226.3 401.64 230.54 407.62 235.68 412.84 240.59 418.29 246.49 422.65 252.32 427.09"/><polyline class="b" points="218.51 449.44 216.44 456.13 215.11 463.31 214.95 470.61 214.61 477.9 215.12 485.22 217.09 492.29 219.99 499 222.51 505.88 226.32 512.13 231.07 517.7 235.5 523.52 241.09 528.24 246.71 532.88 252.46 537.38"/><polyline class="b" points="218.96 283.57 216.5 290.39 215.29 297.58 214.88 304.85 215.07 312.11 215.69 319.36 217.24 326.49 219.73 333.35 222.66 340.04 226.19 346.46 231.08 351.93 235.69 357.57 241.14 362.43 246.47 367.44 252.62 371.39"/><polyline class="b" points="285.74 460 287.89 453.08 289.37 445.95 290.41 438.69 289.98 431.37 289.06 424.12 287.79 416.89 285.1 410.06 281.66 403.61 278 397.31 274 391.18 269.01 385.82 263.5 381.02 258.29 375.85 252.28 371.65"/><polyline class="b" points="285.84 570.54 288.16 563.65 289.14 556.42 290.32 549.19 289.91 541.88 289.08 534.62 287.31 527.54 284.8 520.69 281.55 514.18 277.84 507.93 274.21 501.51 269.12 496.23 264.03 490.94 258.36 486.27 252.2 482.27"/><polyline class="b" points="286.15 404.92 288.03 397.86 289.97 390.77 290.08 383.43 289.71 376.14 288.98 368.88 286.97 361.88 285.05 354.83 282.19 348.08 277.78 342.21 274.07 335.87 269.02 330.56 263.72 325.52 257.9 321.11 252.46 316.13"/><polyline class="b" points="218.51 394.15 215.93 400.76 215.17 408.07 214.77 415.35 214.39 422.67 216.01 429.81 216.97 437.08 219.46 443.97 222.3 450.74 226.03 457.07 230.85 462.62 235.35 468.41 240.94 473.15 246.53 477.87 252.61 481.91"/><polyline class="b" points="218.51 504.07 216.62 511.43 214.87 518.54 214.31 525.84 215.03 533.13 215.75 540.37 217.64 547.39 219.84 554.32 222.95 560.89 226.27 567.42 231.13 572.91 235.58 578.7 240.94 583.66 246.68 588.17 252.12 593.13"/><polyline class="b" points="218.18 559.51 216.54 566.27 215.44 573.1 214.87 579.97 214.91 586.86 215.16 593.75"/><polyline class="b" points="286.48 349.8 288.64 342.83 289.31 335.58 289.97 328.4 290.35 321.14 288.71 314.06 287.27 307.01 285.13 300.11 282.06 293.58 278.73 287.13"/><polyline class="a" points="302.59 281.96 303.72 289.04 304.89 296.12 306.01 303.2 307.09 310.29 308.55 317.31 309.52 324.43 310.58 331.53 312.3 338.52 304.86 336.17 297.26 337.31 289.68 338.23 282.17 339.62 274.59 340.71 267.24 342.86 259.84 344.77 252.34 346.78 244.96 344.27 237.6 342.15 229.96 341.27 222.55 339.36 215.04 337.93 207.47 336.73 199.81 336.74 192.84 338.6 193.66 331.47 194.99 324.42 195.71 317.27 197.26 310.26 198.37 303.17 199.13 296.03 200.89 289.04 201.78 281.91"/><polyline class="b" points="302.59 281.96 303.72 289.04 304.89 296.12 306.01 303.2 307.09 310.29 308.55 317.31 309.52 324.43 310.58 331.53 312.3 338.52 304.86 336.17 297.26 337.31 289.68 338.23 282.17 339.62 274.59 340.71 267.24 342.86 259.84 344.77 252.34 346.78 244.96 344.27 237.6 342.15 229.96 341.27 222.55 339.36 215.04 337.93 207.47 336.73 199.81 336.74 192.84 338.6 193.66 331.47 194.99 324.42 195.71 317.27 197.26 310.26 198.37 303.17 199.13 296.03 200.89 289.04 201.78 281.91"/><polyline class="a" points="422.31 143.08 418.94 149.57 416.78 156.56 412.96 162.82 410.33 169.62 407.17 176.18 403.78 182.63 399.43 188.53 395.63 194.73 392.43 201.31 388.32 207.34 383.74 213.01 379.21 218.7 374.73 224.43 370.28 230.2 365.7 235.87 360.34 240.82 354.96 245.73 349.82 250.87 344.28 255.59 338.71 260.27 332.56 264.19 326.68 268.47 320.38 272.11 314 275.59 307.6 279.09 300.81 281.73 294 284.34 287.06 286.55 279.9 287.92 272.71 289.04 265.5 289.9 258.31 291.23 251.01 291.54 243.73 290.83 236.46 290.45 229.3 289.12 222.01 288.44 215.01 286.39 207.94 284.56 201.1 282.02 194.42 279.09 187.93 275.77 181.76 271.9 175.19 268.71 169.52 264.11 163.34 260.24 157.56 255.81 151.85 251.28 146.67 246.14 141.65 240.86 136.51 235.7 131.45 230.45 127.14 224.56 122.56 218.91 118.41 212.92 114.08 207.07 110.23 200.9 106.08 194.91 101.89 188.93 98.62 182.41 94.83 176.19 91.72 169.59 88.23 163.19 85.93 156.24 82.6 149.76 80 142.7"/><polyline class="b" points="422.31 143.08 418.94 149.57 416.78 156.56 412.96 162.82 410.33 169.62 407.17 176.18 403.78 182.63 399.43 188.53 395.63 194.73 392.43 201.31 388.32 207.34 383.74 213.01 379.21 218.7 374.73 224.43 370.28 230.2 365.7 235.87 360.34 240.82 354.96 245.73 349.82 250.87 344.28 255.59 338.71 260.27 332.56 264.19 326.68 268.47 320.38 272.11 314 275.59 307.6 279.09 300.81 281.73 294 284.34 287.06 286.55 279.9 287.92 272.71 289.04 265.5 289.9 258.31 291.23 251.01 291.54 243.73 290.83 236.46 290.45 229.3 289.12 222.01 288.44 215.01 286.39 207.94 284.56 201.1 282.02 194.42 279.09 187.93 275.77 181.76 271.9 175.19 268.71 169.52 264.11 163.34 260.24 157.56 255.81 151.85 251.28 146.67 246.14 141.65 240.86 136.51 235.7 131.45 230.45 127.14 224.56 122.56 218.91 118.41 212.92 114.08 207.07 110.23 200.9 106.08 194.91 101.89 188.93 98.62 182.41 94.83 176.19 91.72 169.59 88.23 163.19 85.93 156.24 82.6 149.76 80 142.7"/><polygon class="a" points="421.64 142.98 417.28 137.97 410.86 134.46 403.72 132.8 396.57 131.34 389.45 129.68 382.24 128.5 375.09 126.92 367.86 125.76 360.53 125.47 353.27 124.7 346.04 123.44 338.69 123.5 331.42 122.77 324.13 122.03 316.83 121.69 309.53 121.26 302.2 121.35 294.89 121.18 287.59 120.63 280.28 120.57 272.97 119.96 265.65 120.2 258.33 120.11 251.01 120.38 243.69 120.21 236.37 119.58 229.06 120.09 221.74 119.92 214.45 120.93 207.14 121.12 199.82 121.17 192.49 121.04 185.23 122.18 177.89 122.03 170.57 122.17 163.27 122.75 155.98 123.4 148.72 124.33 141.46 125.26 134.21 126.22 126.95 127.06 119.7 128.1 112.53 129.51 105.44 131.29 98.25 132.66 91.12 134.37 84.64 137.81 79.67 142.98 84.32 148.71 91.13 151.59 98.34 153 105.36 155.05 112.44 156.97 119.78 157.44 127.01 158.47 134.22 159.72 141.51 160.3 148.69 161.91 156.06 161.64 163.31 162.61 170.56 163.75 177.89 163.78 185.19 164.19 192.47 165.02 199.79 165.14 207.13 164.78 214.42 165.53 221.74 165.63 229.06 165.47 236.36 165.98 243.69 165.89 251.01 166.02 258.33 166.03 265.65 166.36 272.95 165.38 280.27 165.56 287.58 165.37 294.89 165.29 302.2 165.04 309.5 164.42 316.83 164.46 324.15 164.26 331.38 162.87 338.73 162.99 346 162.11 353.25 161.12 360.53 160.45 367.78 159.52 375.06 158.81 382.31 157.85 389.46 156.29 396.6 154.74 403.8 153.46 410.91 151.62 417.25 147.94 421.64 142.98"/><polygon class="b" points="421.64 142.98 417.28 137.97 410.86 134.46 403.72 132.8 396.57 131.34 389.45 129.68 382.24 128.5 375.09 126.92 367.86 125.76 360.53 125.47 353.27 124.7 346.04 123.44 338.69 123.5 331.42 122.77 324.13 122.03 316.83 121.69 309.53 121.26 302.2 121.35 294.89 121.18 287.59 120.63 280.28 120.57 272.97 119.96 265.65 120.2 258.33 120.11 251.01 120.38 243.69 120.21 236.37 119.58 229.06 120.09 221.74 119.92 214.45 120.93 207.14 121.12 199.82 121.17 192.49 121.04 185.23 122.18 177.89 122.03 170.57 122.17 163.27 122.75 155.98 123.4 148.72 124.33 141.46 125.26 134.21 126.22 126.95 127.06 119.7 128.1 112.53 129.51 105.44 131.29 98.25 132.66 91.12 134.37 84.64 137.81 79.67 142.98 84.32 148.71 91.13 151.59 98.34 153 105.36 155.05 112.44 156.97 119.78 157.44 127.01 158.47 134.22 159.72 141.51 160.3 148.69 161.91 156.06 161.64 163.31 162.61 170.56 163.75 177.89 163.78 185.19 164.19 192.47 165.02 199.79 165.14 207.13 164.78 214.42 165.53 221.74 165.63 229.06 165.47 236.36 165.98 243.69 165.89 251.01 166.02 258.33 166.03 265.65 166.36 272.95 165.38 280.27 165.56 287.58 165.37 294.89 165.29 302.2 165.04 309.5 164.42 316.83 164.46 324.15 164.26 331.38 162.87 338.73 162.99 346 162.11 353.25 161.12 360.53 160.45 367.78 159.52 375.06 158.81 382.31 157.85 389.46 156.29 396.6 154.74 403.8 153.46 410.91 151.62 417.25 147.94 421.64 142.98"/><polygon points="100.78 154.03 108.02 155.34 114.94 157.38 122.13 157.91 129.15 159.5 136.26 160.55 143.45 160.84 150.63 161.21 157.75 162.19 164.93 162.44 172.04 163.66 179.22 163.96 186.36 164.78 193.54 164.95 200.71 165.46 207.91 165.34 215.09 165.31 222.26 166 229.45 165.7 236.63 166.19 243.82 166.17 251.01 165.53 258.2 166.39 265.38 165.75 272.57 166.26 279.76 166.13 286.93 165.23 294.13 165.68 301.31 165.27 308.47 164.67 315.65 164.56 322.83 164.32 329.99 163.59 337.15 163.11 344.3 162.38 351.47 161.98 358.62 161.29 365.75 160.37 372.89 159.62 379.95 158.2 386.94 156.5 394.02 155.38 401.49 154.03 394.05 152.5 387.04 150.9 379.95 149.75 372.86 148.57 365.63 148.5 358.58 147.03 351.46 146.07 344.32 145.31 337.1 145.54 329.99 144.29 322.8 144.13 315.66 143.3 308.47 143.21 301.27 143.39 294.12 142.49 286.94 142.23 279.76 141.91 272.57 141.93 265.39 142.29 258.2 141.91 251.01 141.95 243.83 142.41 236.64 142.2 229.45 141.9 222.26 141.96 215.08 142.4 207.92 143.25 200.72 143.03 193.56 143.62 186.37 143.52 179.19 143.91 172.06 144.8 164.87 145 157.71 145.52 150.61 146.73 143.44 147.21 136.35 148.38 129.24 149.31 122.11 150.15 115.02 151.22 107.91 152.25 100.78 154.03"/><polygon class="c" points="100.78 154.03 108.02 155.34 114.94 157.38 122.13 157.91 129.15 159.5 136.26 160.55 143.45 160.84 150.63 161.21 157.75 162.19 164.93 162.44 172.04 163.66 179.22 163.96 186.36 164.78 193.54 164.95 200.71 165.46 207.91 165.34 215.09 165.31 222.26 166 229.45 165.7 236.63 166.19 243.82 166.17 251.01 165.53 258.2 166.39 265.38 165.75 272.57 166.26 279.76 166.13 286.93 165.23 294.13 165.68 301.31 165.27 308.47 164.67 315.65 164.56 322.83 164.32 329.99 163.59 337.15 163.11 344.3 162.38 351.47 161.98 358.62 161.29 365.75 160.37 372.89 159.62 379.95 158.2 386.94 156.5 394.02 155.38 401.49 154.03 394.05 152.5 387.04 150.9 379.95 149.75 372.86 148.57 365.63 148.5 358.58 147.03 351.46 146.07 344.32 145.31 337.1 145.54 329.99 144.29 322.8 144.13 315.66 143.3 308.47 143.21 301.27 143.39 294.12 142.49 286.94 142.23 279.76 141.91 272.57 141.93 265.39 142.29 258.2 141.91 251.01 141.95 243.83 142.41 236.64 142.2 229.45 141.9 222.26 141.96 215.08 142.4 207.92 143.25 200.72 143.03 193.56 143.62 186.37 143.52 179.19 143.91 172.06 144.8 164.87 145 157.71 145.52 150.61 146.73 143.44 147.21 136.35 148.38 129.24 149.31 122.11 150.15 115.02 151.22 107.91 152.25 100.78 154.03"/><polygon class="a" points="251.32 568.38 245.19 570.84 238.89 573.34 233.01 576.76 226.85 579.59 220.52 582.04 214.31 584.76 208.22 587.74 201.9 590.8 207.12 596.14 211.96 601.54 216.75 606.97 221.91 612.07 226.35 617.83 231.56 622.88 236.34 628.33 241.5 633.44 246.05 639.27 251.64 638.25 257.06 638.18 261.67 632.81 266.4 627.46 271.29 622.26 276.26 617.13 280.84 611.64 286.23 606.89 291.18 601.73 295.7 596.18 300.15 590.89 294.11 588.43 288 585.52 282.16 582.01 275.76 579.69 269.56 576.97 263.46 574 257.39 570.99 251.32 568.38"/><polygon class="b" points="251.32 568.38 245.19 570.84 238.89 573.34 233.01 576.76 226.85 579.59 220.52 582.04 214.31 584.76 208.22 587.74 201.9 590.8 207.12 596.14 211.96 601.54 216.75 606.97 221.91 612.07 226.35 617.83 231.56 622.88 236.34 628.33 241.5 633.44 246.05 639.27 251.64 638.25 257.06 638.18 261.67 632.81 266.4 627.46 271.29 622.26 276.26 617.13 280.84 611.64 286.23 606.89 291.18 601.73 295.7 596.18 300.15 590.89 294.11 588.43 288 585.52 282.16 582.01 275.76 579.69 269.56 576.97 263.46 574 257.39 570.99 251.32 568.38"/><polyline class="c" points="251.01 198.07 258.35 198.13 265.69 197.98 273.04 198.17 280.38 197.87 287.73 197.88 295.05 197.19 302.4 197.13 309.71 196.42 316.99 195.35 324.28 194.55 331.63 194.34 338.87 193.02 346.25 192.94 353.45 191.42 360.8 190.94 368.04 189.76 375.31 188.72 382.39 186.59 389.75 186.02 396.8 183.96"/><polyline class="c" points="102.79 183.93 109.8 185.14 116.83 186.21 123.78 187.66 130.73 189.11 137.84 189.59 144.77 191.24 151.81 192.19 158.9 192.71 165.93 193.72 173.03 194.09 180.09 194.89 187.11 196.02 194.22 196.24 201.31 196.64 208.38 197.57 215.47 197.96 222.59 197.76 229.69 197.99 236.78 198.41 243.9 198.16 251.01 198"/><line class="d" x1="384.47" y1="172.74" x2="384.47" y2="172.74"/><polyline class="e" points="360.15 176.81 356.15 177.63 349.02 178.46 341.86 179.1 334.76 180.3 327.66 181.48 320.51 182.31 313.28 182.11 306.12 182.69 298.94 183.05 291.78 183.84 284.61 184.15 277.44 184.77 270.25 185.08 263.04 184.5 255.85 185.39 248.66 185.49 241.59 184.79 234.51 185.14 227.46 184.34 220.37 184.9 213.31 184.38 206.28 183.51 199.19 183.82 192.13 183.34 185.13 182.2 178.1 181.56 171.02 181.33 164.02 180.37 157.03 179.31 149.94 179.04 142.92 178.2 135.93 177.17 129.06 175.35 127.29 175.11"/><line class="d" x1="115.06" y1="173.45" x2="115.06" y2="173.45"/><polyline class="a" points="251.73 568.17 247.94 574.24 244.04 580.25 240.71 586.57 237.43 592.93 233.84 599.29 237.18 606.52 241.06 613.33 244.29 620.46 247.76 627.48 251.63 634.31"/><polyline class="c" points="251.73 568.17 247.94 574.24 244.04 580.25 240.71 586.57 237.43 592.93 233.84 599.29 237.18 606.52 241.06 613.33 244.29 620.46 247.76 627.48 251.63 634.31"/><polyline class="a" points="251.76 567.99 255.34 574.17 258.35 580.67 262.25 586.68 265.39 593.12 268.61 599.29 265.37 606.22 262.05 613.31 258.99 620.52 255.54 627.55 251.9 634.49"/><polyline class="c" points="251.76 567.99 255.34 574.17 258.35 580.67 262.25 586.68 265.39 593.12 268.61 599.29 265.37 606.22 262.05 613.31 258.99 620.52 255.54 627.55 251.9 634.49"/><polyline class="c" points="202.13 589.86 208.48 591.59 214.94 592.87 221.47 593.91 227.77 595.87 234.21 597.05 241.12 597.63 248.07 597.44 255.03 597.52 262 597.7 268.92 597.05 275.31 596.15 281.66 594.89 287.84 592.86 294.24 591.72 300.49 589.99"/><polyline class="c" points="412.99 642.81 407.06 646.53 400.6 649.45 393.96 652.16 386.89 653.31 379.84 654.34 372.89 655.99 365.78 656.64 358.72 657.68 351.63 658.37 344.56 659.38 337.4 659.42 330.29 659.97 323.17 660.42 316.07 661.17 308.92 660.98 301.79 661.41 294.65 661.06 287.53 662 280.39 662.02 273.26 662.2 266.12 662.27 258.98 662.14 251.84 661.95 244.67 661.92 237.49 662.34 230.33 661.75 223.16 661.74 215.99 661.52 208.8 661.96 201.66 660.95 194.48 660.88 187.31 660.87 180.15 660.37 173.01 659.73 165.86 659.25 158.69 658.97 151.54 658.4 144.37 657.98 137.24 657.14 130.24 655.39 123.06 654.89 116.04 653.41 109.06 651.75 102.25 649.45 95.74 646.49 89.81 642.55"/><polyline class="c" points="194.6 333.4 200.15 328.99 206.06 325.06 212.01 321.17 217.43 316.58 223.35 312.65 228.68 307.94 234.62 304.04 240.25 299.72 246.08 295.67 251.75 290.64 251.16 298.76 251.43 306.46 251.97 314.17 251.9 321.88 251.96 329.58 251.09 337.29 251.23 345"/><polyline class="c" points="308.39 333.41 302.44 329.53 297.11 324.82 291.19 320.9 285.73 316.37 280.09 312.06 274.03 308.33 268.76 303.54 262.7 299.79 257.17 295.34 251.4 290.89 251.71 298.76 251.35 306.46 251.77 314.17 251.37 321.88 251.94 329.58 251.76 337.29 251.62 345"/><polygon class="a" points="699.55 433.04 696.3 439.23 691.76 445.09 688.43 451.72 684.06 457.69 680.4 464.1 676.49 470.36 671.69 476.05 668.38 482.69 663.87 488.56 659.99 494.83 655.86 500.95 652.13 507.33 648.1 513.52 644.57 520.02 640.48 526.17 635.97 532.06 632.22 538.39 629.85 531.43 626.92 524.63 625.34 517.36 622.26 510.61 620.1 503.54 617.97 496.46 614.78 489.74 612.32 482.6 616.63 476.66 621.07 471 625.93 465.68 630.21 459.9 634.56 454.17 639.1 448.61 643.26 442.73 647.44 436.87 652.22 431.68 658.91 431.24 665.75 431.71 672.59 432.29 679.43 432.48 686.29 432.52 693.12 433.11 699.55 433.04"/><polygon class="b" points="699.55 433.04 696.3 439.23 691.76 445.09 688.43 451.72 684.06 457.69 680.4 464.1 676.49 470.36 671.69 476.05 668.38 482.69 663.87 488.56 659.99 494.83 655.86 500.95 652.13 507.33 648.1 513.52 644.57 520.02 640.48 526.17 635.97 532.06 632.22 538.39 629.85 531.43 626.92 524.63 625.34 517.36 622.26 510.61 620.1 503.54 617.97 496.46 614.78 489.74 612.32 482.6 616.63 476.66 621.07 471 625.93 465.68 630.21 459.9 634.56 454.17 639.1 448.61 643.26 442.73 647.44 436.87 652.22 431.68 658.91 431.24 665.75 431.71 672.59 432.29 679.43 432.48 686.29 432.52 693.12 433.11 699.55 433.04"/><polygon class="a" points="699.94 432.8 700.18 425.85 699.59 418.88 698.66 411.93 699.33 404.91 698.64 397.95 698.76 390.96 697.65 384.01 697.49 377.03 697.32 370.05 696.69 363.08 697.36 356.07 696.68 349.1 695.95 342.13 696.07 334.81 693.26 341.63 690.39 348.06 686.89 354.22 684.5 360.88 680.97 367.02 678.26 373.53 675.58 380.05 672.46 386.38 670.03 393.02 666.6 399.21 663.5 405.55 660.85 412.08 658.01 418.55 654.64 424.77 651.67 431.56 658.9 431.22 665.74 431.81 672.59 431.7 679.44 431.77 686.27 432.75 693.14 432.46 699.94 432.8"/><polygon class="b" points="699.94 432.8 700.18 425.85 699.59 418.88 698.66 411.93 699.33 404.91 698.64 397.95 698.76 390.96 697.65 384.01 697.49 377.03 697.32 370.05 696.69 363.08 697.36 356.07 696.68 349.1 695.95 342.13 696.07 334.81 693.26 341.63 690.39 348.06 686.89 354.22 684.5 360.88 680.97 367.02 678.26 373.53 675.58 380.05 672.46 386.38 670.03 393.02 666.6 399.21 663.5 405.55 660.85 412.08 658.01 418.55 654.64 424.77 651.67 431.56 658.9 431.22 665.74 431.81 672.59 431.7 679.44 431.77 686.27 432.75 693.14 432.46 699.94 432.8"/><polygon points="695.76 335.43 689.62 338.62 683.49 342.57 676.9 345.71 670.66 349.45 664.32 353.03 658.13 356.87 651.99 360.79 645.48 364.09 639.46 368.23 632.91 371.44 626.54 374.97 620.09 378.38 613.81 382.37 618.22 387.85 622.17 393.5 627.01 398.46 630.92 404.14 634.75 409.88 639.1 415.22 643.36 420.64 648.18 425.62 652 431.01 654.93 424.91 658.09 418.6 660.93 412.15 663.83 405.72 667.08 399.46 669.93 393.01 672.75 386.55 675.75 380.17 678.06 373.47 681.15 367.13 684.06 360.7 687.56 354.56 690.19 348 693.16 341.59 695.76 335.43"/><polygon class="b" points="695.76 335.43 689.62 338.62 683.49 342.57 676.9 345.71 670.66 349.45 664.32 353.03 658.13 356.87 651.99 360.79 645.48 364.09 639.46 368.23 632.91 371.44 626.54 374.97 620.09 378.38 613.81 382.37 618.22 387.85 622.17 393.5 627.01 398.46 630.92 404.14 634.75 409.88 639.1 415.22 643.36 420.64 648.18 425.62 652 431.01 654.93 424.91 658.09 418.6 660.93 412.15 663.83 405.72 667.08 399.46 669.93 393.01 672.75 386.55 675.75 380.17 678.06 373.47 681.15 367.13 684.06 360.7 687.56 354.56 690.19 348 693.16 341.59 695.76 335.43"/><polygon class="a" points="696.38 335.22 691.76 329.26 687.94 323.12 684.75 316.59 680.79 310.53 677.15 304.28 672.99 298.35 668.95 292.35 664.94 286.32 661.5 279.94 657.91 273.65 653.68 267.76 649.89 261.45 648.14 268.35 645.63 274.91 644.33 281.82 641.89 288.41 639.89 295.12 638.12 301.9 636.31 308.67 634.31 315.38 632.28 322.08 630.22 328.77 627.96 335.4 626.09 342.15 623.87 348.8 621.6 355.43 619.78 362.19 618.25 369.05 616.05 375.71 613.8 382.69 620.34 378.84 626.48 374.92 632.89 371.45 639 367.5 645.7 364.54 651.97 360.84 658.19 357.04 664.6 353.59 670.58 349.37 677.09 346.1 683.26 342.2 689.53 338.48 696.38 335.22"/><polygon class="b" points="696.38 335.22 691.76 329.26 687.94 323.12 684.75 316.59 680.79 310.53 677.15 304.28 672.99 298.35 668.95 292.35 664.94 286.32 661.5 279.94 657.91 273.65 653.68 267.76 649.89 261.45 648.14 268.35 645.63 274.91 644.33 281.82 641.89 288.41 639.89 295.12 638.12 301.9 636.31 308.67 634.31 315.38 632.28 322.08 630.22 328.77 627.96 335.4 626.09 342.15 623.87 348.8 621.6 355.43 619.78 362.19 618.25 369.05 616.05 375.71 613.8 382.69 620.34 378.84 626.48 374.92 632.89 371.45 639 367.5 645.7 364.54 651.97 360.84 658.19 357.04 664.6 353.59 670.58 349.37 677.09 346.1 683.26 342.2 689.53 338.48 696.38 335.22"/><polygon points="632.05 538.22 627.55 533.11 622.36 528.32 617.44 523.26 612.24 518.48 607.66 513.09 602.08 508.67 597.5 503.28 592.31 498.5 587.8 493.03 582.35 488.5 577.41 483.45 572.41 478.48 567.66 473.24 562.45 468.47 557.89 463.04 552.8 458.15 547.99 452.97 542.57 448.39 538.29 442.87 539.25 435.46 540.11 427.74 541.44 420.08 542.84 412.42 545.25 405.01 549.28 400.71 553.68 406.68 558.08 412.62 562.75 418.37 567.03 424.4 572.1 429.83 576.42 435.83 580.66 441.91 585.06 447.87 590.05 453.36 594.72 459.11 599.28 464.93 603.27 471.21 608.15 476.78 612.51 482.7 615.34 489.53 617.91 496.46 619.96 503.57 622.4 510.54 624.81 517.52 627.77 524.31 629.73 531.46 632.05 538.22"/><polygon class="b" points="632.05 538.22 627.55 533.11 622.36 528.32 617.44 523.26 612.24 518.48 607.66 513.09 602.08 508.67 597.5 503.28 592.31 498.5 587.8 493.03 582.35 488.5 577.41 483.45 572.41 478.48 567.66 473.24 562.45 468.47 557.89 463.04 552.8 458.15 547.99 452.97 542.57 448.39 538.29 442.87 539.25 435.46 540.11 427.74 541.44 420.08 542.84 412.42 545.25 405.01 549.28 400.71 553.68 406.68 558.08 412.62 562.75 418.37 567.03 424.4 572.1 429.83 576.42 435.83 580.66 441.91 585.06 447.87 590.05 453.36 594.72 459.11 599.28 464.93 603.27 471.21 608.15 476.78 612.51 482.7 615.34 489.53 617.91 496.46 619.96 503.57 622.4 510.54 624.81 517.52 627.77 524.31 629.73 531.46 632.05 538.22"/><polygon class="a" points="614 382.4 606.94 384.76 599.62 386.18 592.64 388.81 585.36 390.38 578.13 392.11 571.12 394.65 563.87 396.32 556.83 398.79 550.04 400.66 554.31 406.2 558.25 412.5 562.7 418.4 567.87 423.76 572.16 429.78 576.95 435.42 580.78 441.81 585.34 447.63 590.45 453.03 594.6 459.17 599.16 464.99 603.23 471.19 608.27 476.66 612.63 482.58 616.76 476.78 621.76 471.56 625.46 465.33 630.1 459.84 634.63 454.24 638.72 448.33 643.27 442.75 647.72 437.1 652.35 431.35 648.06 425.72 643.44 420.6 639.07 415.27 635.14 409.61 630.79 404.27 627.03 398.47 622.45 393.31 618.03 388.01 614 382.4"/><polygon class="b" points="614 382.4 606.94 384.76 599.62 386.18 592.64 388.81 585.36 390.38 578.13 392.11 571.12 394.65 563.87 396.32 556.83 398.79 550.04 400.66 554.31 406.2 558.25 412.5 562.7 418.4 567.87 423.76 572.16 429.78 576.95 435.42 580.78 441.81 585.34 447.63 590.45 453.03 594.6 459.17 599.16 464.99 603.23 471.19 608.27 476.66 612.63 482.58 616.76 476.78 621.76 471.56 625.46 465.33 630.1 459.84 634.63 454.24 638.72 448.33 643.27 442.75 647.72 437.1 652.35 431.35 648.06 425.72 643.44 420.6 639.07 415.27 635.14 409.61 630.79 404.27 627.03 398.47 622.45 393.31 618.03 388.01 614 382.4"/><polygon points="649.87 261.65 645.77 267.27 642 273.21 637.47 278.62 633.13 284.17 629.43 290.17 625.42 295.94 621.56 301.82 617.35 307.46 613.12 313.08 608.68 318.56 604.7 324.36 600.5 330 596.45 335.76 592.64 341.7 588.49 347.27 592.53 353.18 596.92 358.95 601.06 364.9 605.1 370.94 609.33 376.84 614.02 382.56 616.42 375.83 617.64 368.89 620.02 362.29 622.45 355.71 623.81 348.81 625.9 342.13 627.96 335.43 630 328.74 631.53 321.88 633.98 315.31 636.14 308.64 637.87 301.85 639.94 295.16 642.15 288.51 643.82 281.7 645.56 274.91 647.77 268.25 649.87 261.65"/><polygon class="b" points="649.87 261.65 645.77 267.27 642 273.21 637.47 278.62 633.13 284.17 629.43 290.17 625.42 295.94 621.56 301.82 617.35 307.46 613.12 313.08 608.68 318.56 604.7 324.36 600.5 330 596.45 335.76 592.64 341.7 588.49 347.27 592.53 353.18 596.92 358.95 601.06 364.9 605.1 370.94 609.33 376.84 614.02 382.56 616.42 375.83 617.64 368.89 620.02 362.29 622.45 355.71 623.81 348.81 625.9 342.13 627.96 335.43 630 328.74 631.53 321.88 633.98 315.31 636.14 308.64 637.87 301.85 639.94 295.16 642.15 288.51 643.82 281.7 645.56 274.91 647.77 268.25 649.87 261.65"/><polygon class="a" points="588.32 347 583.98 353.15 579.97 359.27 575.71 365.22 571.23 371 566.47 376.59 562.84 382.99 558.53 388.9 553.75 394.48 549.85 400.42 556.28 402.99 563.24 404.63 570.07 406.69 576.82 409.01 583.61 411.19 590.45 413.22 597.4 414.87 604.09 417.4 611.16 418.65 617.99 420.72 624.75 422.99 631.62 424.93 638.39 427.19 645.12 429.61 652.19 431.44 647.47 426 643.48 420.2 638.97 414.79 635.25 408.79 631.02 403.17 626.58 397.72 622.16 392.25 618.06 386.54 613.96 380.82 609.8 375.14 605.06 369.91 600.88 364.26 596.66 358.63 592.68 352.81 588.32 347"/><polygon class="b" points="588.32 347 583.98 353.15 579.97 359.27 575.71 365.22 571.23 371 566.47 376.59 562.84 382.99 558.53 388.9 553.75 394.48 549.85 400.42 556.28 402.99 563.24 404.63 570.07 406.69 576.82 409.01 583.61 411.19 590.45 413.22 597.4 414.87 604.09 417.4 611.16 418.65 617.99 420.72 624.75 422.99 631.62 424.93 638.39 427.19 645.12 429.61 652.19 431.44 647.47 426 643.48 420.2 638.97 414.79 635.25 408.79 631.02 403.17 626.58 397.72 622.16 392.25 618.06 386.54 613.96 380.82 609.8 375.14 605.06 369.91 600.88 364.26 596.66 358.63 592.68 352.81 588.32 347"/></svg>