<svg xmlns="http://www.w3.org/2000/svg" viewBox="0 0 800 800"><defs><style>.a{fill:none;stroke:#000;stroke-linejoin:bevel;stroke-width:13px;}.b{fill:#fff;}</style></defs><title>canvas (47)</title><polyline class="a" points="264.59 245.71 270.96 242.36 276.75 238.13 282.95 234.53 288.88 230.51 294.84 226.55 300.47 222.08 306.44 218.14 312.88 214.89 318.43 210.3 324.48 206.47 330.37 202.4 336.63 198.86 342.38 194.59 348.26 190.5 354.09 186.33 359.53 181.64 365.77 178.03 370.93 172.99 376.96 169.07 382.56 164.59 387.93 159.84 393.5 155.33 398.55 150.23 403.8 145.37 409.45 140.92 414.06 135.4 419.28 130.48 423.93 125.04 429.23 120.16 433.6 114.47 437.9 109.21 436.93 116.09 435.94 123.36 434.38 130.52 432.48 137.61 431.12 144.81 429.94 152.04 428.45 159.21 427.09 166.42 426.13 173.7 425.79 181.03 425.64 188.36 425.95 195.68 426.62 202.98 428.26 210.12 430.35 217.16 433.43 223.86 437.96 229.66 443.32 234.62 449.12 239 455.14 243.15 461.81 246.07 454.56 246.47 447.25 245.67 439.95 245.99 432.65 246.15 425.35 245.71 418.05 246.44 410.74 245.95 403.44 246.28 396.14 245.89 388.83 245.84 381.53 246.16 374.23 246.45 366.93 246.26 359.63 246.03 352.32 246.25 345.02 246.39 337.72 246.49 330.42 245.99 323.11 245.61 315.81 246.03 308.51 245.91 301.21 245.65 293.9 245.71 286.6 246.42 279.3 246.52 272 245.98 264.7 245.96 257.39 245.98 250.09 246.23 242.79 246.33 235.49 245.99 228.18 246.41 220.88 245.98 213.58 246.53 206.28 246.02 198.97 246.25 191.67 246.27 184.37 246.16 177.07 246.26 169.76 246.49 162.46 246.4 155.16 246.31 147.86 245.93 140.56 246.04 133.25 246.41 125.95 246.29 118.65 245.9 111.35 245.64 104.04 245.67 96.74 245.78 89.44 246.47 82.14 245.92 74.83 246.25 67.07 246.2 74.38 243.97 81.26 242 88 239.59 94.8 237.24 100.94 233.45 107.23 230.05 113.85 227.2 119.98 223.46 125.64 219.03 131.11 214.4 136.73 209.97 142.49 205.66 147.25 200.27 152.2 195.09 156.38 189.26 160.59 183.47 164.51 177.45 167.15 170.76 169.75 164.1 171.81 157.25 172.68 150.14 172.83 143.01 172.81 135.87 172.06 128.71 169.47 121.98 167.03 115.25 163.67 108.72 169.5 113.2 174.69 118.13 179.33 123.63 184.5 128.55 189.91 133.26 194.75 138.53 198.99 144.32 203.83 149.58 208.16 155.26 212.92 160.6 216.98 166.49 221.85 171.79 225.15 178.2 229.31 184.01 233.71 189.67 237.02 196.03 241.12 201.9 244.32 208.3 248.41 214.2 251.87 220.46 254.9 226.94 258.45 233.15 261.86 239.44 264.38 246.17"/><polyline class="a" points="265.46 244.41 268.77 238.18 272.39 232.11 275.56 225.81 278.05 219.18 281.22 212.88 283.94 206.38 286.86 199.96 290.27 193.74 292 186.86 294.59 180.3 296.49 173.52 298.69 166.82 300.78 160.06 301.95 153.09 303.04 146.11 303.02 138.81 303.14 131.55 303.08 124.28 302.21 117.06 300.68 109.95 299.05 102.86 296.98 95.87 294.01 89.21 290.7 82.72 286.95 76.48 282.86 70.47 279.22 64.14 274.18 58.83 269.84 52.99 264.88 47.51 268.64 54.4 270.83 61.82 272.27 69.47 271.79 77.27 268.89 84.51 265.56 91.46 260.77 97.03 255.97 102.65 249.83 106.76 243.11 109.75 236.41 112.81 229.29 114.82 221.91 115.28 214.61 116.59 207.22 116.2 199.9 115.23 192.55 114.72 185.27 113.58 178.02 112.23 170.88 110.42 163.8 108.38"/><polyline class="a" points="265.09 47.48 270.87 51.77 276.39 56.4 282.1 60.77 287.82 65.14 293.88 69.06 299.6 73.43 305.55 77.5 310.96 82.3 316.89 86.4 322.97 90.27 328.97 94.25 335.03 98.16 341.33 101.68 347.9 104.66 354.42 107.7 361.07 110.47 367.81 113.02 374.68 115.23 381.92 115.79 388.94 117.51 396.14 117.92 403.37 117.95 410.51 116.92 417.69 116.08 424.46 113.48 431.4 111.6 437.9 108.48"/><polyline class="a" points="125.86 246.39 132.86 244.04 139.61 241.1 145.91 237.31 151.87 233.02 157.88 228.8 163.29 223.83 168.52 218.69 173.5 213.32 179 208.43 183.94 202.99 188.78 197.48 193.45 191.82 198.25 186.27 202.31 180.11 207.59 174.96 211.85 168.95 217.44 164.3 223.5 160.77 229.99 157.93 236.82 155.99 243.3 153.11 250.07 151.02 256.54 148.06 263.19 145.62 269.93 143.4 276.91 141.95 283.36 138.9 290.13 136.78 297.01 135.05 303.68 133.3 310.59 135.63 317.63 138.1 324.3 141.42 331.29 144.03 338.02 147.21 344.71 150.49 351.76 152.98 358.17 156.87 365.08 159.67 371.73 163.04 378.72 165.71 378.32 173.07 376.96 180.09 375.26 187.07 375.07 194.25 374.55 201.36 373.85 208.5 374.77 215.6 375.5 222.73 378.04 229.42 381.6 235.54 386.31 240.78 392.19 244.8"/><polyline class="a" points="204.34 246.14 210.94 242.71 216.99 238.35 221.83 232.68 226.24 226.7 229.87 220.21 233.75 213.87 237.42 207.41 241.41 201.05 247.96 198.51 254.42 195.93 261.04 193.75 267.37 190.76 274.17 189.09 280.63 186.44 287.48 184.98 293.98 182.47 300.4 185.05 306.39 188.55 312.75 191.32 318.82 194.67 324.85 198.07 330.87 201.49 327.49 208 324.3 215.11 321.8 222.5 320.33 230.19 321.13 237.96 325.13 244.45"/><polyline class="a" points="264.13 246.61 267.58 252.91 270.72 259.35 274.27 265.58 278.04 271.68 281.14 278.15 284.56 284.44 288.57 290.39 292.08 296.64 295.6 302.89 299.81 308.69 304.01 314.49 307.43 320.84 311.79 326.53 316.28 332.11 320.69 337.76 325.16 343.35 330.31 348.36 335.03 353.74 339.25 359.59 344.41 364.57 350.02 369.08 355.05 374.18 360.44 378.89 365.83 384.19 362.35 377.52 359.38 371.02 357.34 364.16 356.31 357.1 355.82 349.99 356.37 342.91 357.4 335.88 358.87 328.89 361.32 322.16 364.76 315.88 368.11 309.55 372.62 303.97 377.07 298.39 382.02 293.25 387.06 288.2 392.38 283.44 397.63 278.56 403.74 274.81 409.56 270.68 415.73 267.08 421.94 263.57 428.12 260 434.62 257.04 441.21 254.3 447.78 251.51 454.45 248.92 460.94 247.2 454.05 246.9 446.75 246.68 439.44 247.27 432.14 247.07 424.84 247.17 417.54 247.13 410.24 246.6 402.93 246.65 395.63 247.15 388.33 247.27 381.03 247 373.72 247.11 366.42 246.79 359.12 246.86 351.82 246.78 344.51 247.42 337.21 247.41 329.91 246.58 322.61 247 315.31 246.84 308 247.1 300.7 246.76 293.4 246.61 286.1 246.89 278.79 246.76 271.49 247.03 264.19 246.69 256.89 247.01 249.59 246.93 242.28 246.75 234.98 246.63 227.68 246.79 220.38 246.75 213.07 246.69 205.77 247.56 198.47 246.63 191.17 247.39 183.86 246.78 176.56 246.69 169.26 246.88 161.96 247.04 154.65 247.44 147.35 246.98 140.05 247.17 132.75 247.03 125.44 247.31 118.14 246.81 110.84 246.98 103.54 247.06 96.24 246.78 88.93 247.04 81.63 247.34 74.33 247.11 67.33 247.07 73.93 249.59 80.65 252.63 86.26 257.42 91.53 262.52 96.02 268.39 99.19 275.09 100.89 282.28 102.57 289.44 102.76 296.79 102.92 304.11 103.31 311.47 102.36 318.77 101.61 326.08 100.24 333.3 98.91 340.52 97.83 347.79 96.83 355.08 94.75 362.15 93.48 369.39 91.86 376.56 91.2 384.2 95.84 378.36 100.51 372.92 104.97 367.31 109.6 361.83 114.96 357.04 120.03 351.98 125.34 347.18 130.09 341.76 135.86 337.45 141.49 333.02 146.53 327.89 152.24 323.55 158.1 319.42 163.55 314.75 169.13 310.25 175.28 306.52 181.17 302.44 187.06 298.37 192.98 294.33 198.4 289.56 204.63 285.99 210.56 281.96 216.69 278.24 222.28 273.71 228.37 269.93 234.31 265.92 240.47 262.23 246.61 258.55 252.75 254.84 258.32 250.29 264.31 246.37"/><polyline class="a" points="263.9 247.39 260.95 253.81 258.17 260.31 254.84 266.54 251.22 272.63 248.31 279.08 245.94 285.76 242.84 292.11 240.35 298.72 237.91 305.34 235 311.8 232.66 318.47 231.14 325.39 229.74 332.31 227.95 339.16 227.09 346.18 226.3 353.43 226.77 360.73 226.34 368.04 228.13 375.16 228.8 382.44 230.9 389.43 233.56 396.21 236.34 402.92 239.43 409.51 242.91 415.9 247.11 421.85 251.02 427.99 255.77 433.52 260.05 439.43 265.13 444.91 259.4 440.27 253.12 436.71 247.49 432.25 241.7 428.03 236.21 423.39 230.55 418.97 224.59 414.97 218.79 410.75 212.73 406.89 206.55 403.24 200.79 398.91 194.41 395.6 187.84 392.69 181.56 389.24 175.15 385.98 168.25 383.96 161.53 381.49 154.67 379.4 147.68 377.71 140.53 376.95 133.37 376.35 126.2 376.54 119.08 377.43 111.88 377.63 104.97 379.68 97.94 381.13 91.04 383.17"/><polyline class="a" points="265.44 444.54 261.96 438.64 259.06 432.34 257.93 425.49 257.98 418.57 259.13 411.79 260.83 405.05 264.94 399.44 269.26 393.59 274.42 388.44 279.93 383.54 286.78 380.82 293.43 377.69 300.53 375.75 307.88 375.32 315.18 374.57 322.52 374.83 329.83 375.42 337.06 376.6 344.26 377.96 351.32 379.9 358.52 381.36 365.36 384.02"/><polyline class="a" points="125.41 246.73 131.85 249.45 137.37 253.73 142.34 258.83 144.88 265.49 147.66 272.03 148.89 279.03 150.02 286.05 149.95 293.16 149.5 300.23 149.3 307.3 149.19 314.38 148.81 321.47 147.98 328.61 154.12 332.17 160.68 334.7 167.01 337.76 173.61 340.18 180.19 342.63 186.64 345.43 193.46 347.25 199.9 350.1 206.46 352.61 213.06 355.01 219.64 357.44 226.31 359.14 233 357.58 239.4 354.8 246.12 352.87 252.59 350.3 259.27 348.23 265.76 345.69 272.04 342.62 278.51 340.01 285.13 337.78 291.54 335.03 298.04 332.48 304.23 329.22 310.75 326.67 315.42 321.25 320.13 315.9 323.89 309.84 328.69 304.56 333.13 299.01 337.21 293.17 341.52 287.5 346.63 282.51 351.05 276.92 355.82 271.62 361.24 266.98 366.53 262.23 371.87 257.49 377.7 253.36 384.08 250.14 390.8 247.84"/><polyline class="a" points="204.09 246.19 209.52 250.91 211.43 257.88 210.56 265.07 207.93 271.78 205.35 278.47 202.27 284.97 198.71 290.94 204.47 294.72 210.74 297.87 217.11 300.82 223.47 303.78 229.91 306.57 235.88 310.36 242.6 307.88 249.23 306 255.64 303.52 262.02 300.92 268.51 298.64 274.89 296.06 281.49 294.07 287.77 291.27 291.7 285.4 295.74 279.58 299.57 273.62 303.81 267.93 308.19 262.36 312.65 256.86 317.68 251.87 323.16 247.31"/><polyline class="a" points="412.89 553.19 406.7 549.57 400.73 545.62 394.6 541.91 388.7 537.85 382.5 534.26 376.79 529.91 370.66 526.2 364.95 521.86 359.03 517.82 352.58 514.58 347.01 510.04 340.94 506.23 335.08 502.1 329.5 497.6 323.24 494.03 317.88 489.24 311.77 485.45 306.09 481.08 300.83 476.19 294.75 472.31 289.55 467.37 283.75 463.12 278.5 458.23 273.57 453.01 268.32 448.14 263.36 442.98 258.32 437.91 253.41 432.71 248.79 427.24 244.21 421.74 239.3 416.38 240.26 423.75 241.85 430.91 243.06 438.14 244.96 445.22 245.87 452.51 247.62 459.63 248.44 466.92 249.61 474.14 251.32 481.32 251.56 488.66 251.87 495.99 251.38 503.3 250.18 510.51 248.98 517.71 247.03 524.78 243.56 531.24 239.76 537.56 234.57 542.82 228.48 546.94 222.21 550.68 215.86 553.67 222.83 553.64 230.13 553.36 237.44 553.56 244.74 554.02 252.04 553.35 259.34 553.92 266.65 553.93 273.95 553.66 281.25 553.31 288.55 554 295.86 553.3 303.16 553.98 310.46 553.59 317.76 554.18 325.06 553.98 332.37 553.53 339.67 553.56 346.97 554.04 354.27 553.76 361.58 554.09 368.88 553.93 376.18 553.58 383.48 553.25 390.79 554.01 398.09 553.83 405.39 553.24 412.69 553.9 420 553.73 427.3 553.4 434.6 553.29 441.9 553.91 449.2 553.77 456.51 554.16 463.81 553.84 471.11 554.01 478.41 553.21 485.72 553.62 493.02 554.05 500.32 553.36 507.62 554.15 514.93 553.29 522.23 553.94 529.53 553.4 536.83 554.15 544.13 553.68 551.44 553.4 558.74 554.1 566.04 553.97 573.35 553.28 580.65 553.64 587.95 553.37 595.25 553.78 602.55 553.36 609.98 553.73 602.99 551.66 595.94 550.17 589.27 547.52 582.94 544.07 576.26 541.47 570.12 537.76 563.75 534.48 557.65 530.72 551.57 526.9 545.95 522.45 540.18 518.15 534.99 513.19 530.29 507.75 525.36 502.57 520.48 497.28 516.41 491.34 513.49 484.75 509.63 478.65 507.72 471.7 505.69 464.85 504.46 457.79 503.74 450.63 504.63 443.5 505.29 436.32 507.44 429.44 510.36 422.88 513.38 416.71 508.42 421.42 503.01 426.1 497.82 431 492.62 435.91 487.88 441.27 482.77 446.27 478.34 451.9 473.67 457.3 468.73 462.49 464.73 468.44 460.24 473.99 455.67 479.5 451.97 485.64 447.99 491.57 444.11 497.57 439.81 503.31 436.75 509.81 432.86 515.81 429.03 521.85 426.08 528.39 422.06 534.34 419.49 541.06 416.19 547.39 412.21 553.4"/><polyline class="a" points="411.23 552.38 408.61 545.81 405.11 539.68 402.45 533.13 398.86 527.03 395.65 520.75 393.35 514.04 390.19 507.73 387.95 501.04 384.96 494.64 382.84 487.91 380.19 481.35 378.96 474.38 377.31 467.54 375.54 460.7 375 453.66 374.13 446.44 374.4 439.18 374.66 431.94 374.99 424.65 376.42 417.51 378.74 410.61 380.54 403.55 383.94 397.09 387.04 390.53 390.66 384.24 394.54 378.11 398.07 371.69 402.51 365.9 407.73 360.76 412.11 355.38 409.15 362.19 406.41 369.41 405.59 377.1 405.83 384.86 407.75 392.43 411.53 399.28 416.49 404.78 421.8 409.82 427.68 414.19 433.98 418.05 440.99 420.4 448.11 422.34 455.49 422.79 462.8 423.81 470.15 423.29 477.51 423.03 484.91 422.87 492.13 421.28 499.44 420.2 506.63 418.52 513.81 416.78"/><polyline class="a" points="412.12 354.85 406.4 359.23 400.59 363.48 394.88 367.86 389.57 372.77 383.39 376.54 377.53 380.72 372.35 385.81 366.32 389.77 360.47 393.98 354.28 397.68 348.13 401.41 342.04 405.24 335.68 408.6 329.63 412.57 322.91 415.2 316.41 418.33 309.53 420.48 302.6 422.42 295.51 423.67 288.38 424.45 281.24 425.27 274.06 424.86 266.91 424.31 259.71 423.65 252.84 421.41 246.07 419 239.52 416.04"/><polyline class="a" points="551.71 553.21 544.78 551 538.13 548.04 531.57 544.79 525.39 540.83 519.53 536.4 514.38 531.15 508.49 526.71 503.2 521.61 498.5 515.94 493.28 510.77 488.59 505.12 483.86 499.5 479.7 493.43 475 487.81 469.93 482.47 465.75 476.39 460.11 471.7 453.81 468.6 447.42 465.52 440.75 463.14 434.06 460.8 427.3 458.69 420.71 456.1 413.93 454.03 407.36 451.32 400.71 448.88 394.02 446.54 387.19 444.62 380.48 442.38 373.66 440.3 366.77 443.19 359.91 446.05 352.93 448.68 346.36 452.22 339.48 455.07 332.43 457.57 325.72 460.8 319.09 464.23 312.15 466.96 305.58 470.49 298.77 473.53 299.66 480.58 301.24 487.57 302.29 494.67 303.1 501.79 302.95 508.98 303.86 516.13 303.21 523.3 301.87 530.35 299.64 537.17 295.74 543.13 291.03 548.35 285.06 552.1"/><polyline class="a" points="473.09 553.62 466.15 550.79 460.72 545.65 455.75 540.16 450.88 534.5 446.85 528.23 443.31 521.68 440.06 514.98 435.68 509.05 429.44 506.12 422.99 503.49 416.5 500.97 410.01 498.4 403.44 496.06 396.76 494.07 390.16 491.85 383.43 490.02 377.05 492.79 371.06 496.3 364.88 499.42 358.43 502.01 352.4 505.43 346.16 508.45 349.96 515.59 353.2 522.69 355.16 530.24 357.18 537.8 356.35 545.61 352.9 552.67"/><polyline class="a" points="413.12 554.17 410.05 560.65 406.44 566.86 403.34 573.32 400.02 579.67 396.66 586 392.55 591.91 389.46 598.4 385 604.07 381.55 610.36 377.35 616.16 373.63 622.28 369.75 628.31 365.38 633.99 360.85 639.53 356.45 645.18 352.21 650.96 347.08 655.99 342.73 661.71 337.81 666.91 333.11 672.33 327.41 676.75 322.3 681.76 317.01 686.58 311.88 691.47 315.09 685.17 317.8 678.57 319.8 671.73 321.15 664.73 321.91 657.62 321.65 650.47 320.78 643.33 318.43 636.54 315.43 630.07 312.83 623.39 309.01 617.34 304.95 611.46 300.72 605.67 295.48 600.76 290.8 595.32 284.99 591.09 279.41 586.64 273.99 581.95 267.97 578.08 262.06 574.03 255.49 571.12 249.57 567.02 243.04 564.07 236.49 561.18 229.76 558.72 222.84 556.87 215.58 554.55 223.34 554.76 230.64 555.05 237.94 554.26 245.25 554.93 252.55 555.11 259.85 555.12 267.15 554.39 274.45 554.74 281.76 554.6 289.06 555.04 296.36 554.51 303.67 555.16 310.97 554.94 318.27 554.62 325.57 555.17 332.87 554.62 340.18 554.74 347.48 555.18 354.78 554.72 362.08 554.57 369.39 555.13 376.69 554.24 383.99 554.6 391.29 554.53 398.6 554.68 405.9 554.87 413.2 554.23 420.5 554.3 427.8 554.39 435.11 554.56 442.41 554.87 449.71 554.99 457.01 554.21 464.32 555.11 471.62 554.76 478.92 555.16 486.22 554.8 493.52 554.52 500.83 555.05 508.13 554.73 515.43 554.94 522.74 554.4 530.04 554.55 537.34 554.93 544.64 554.48 551.94 554.74 559.25 554.99 566.55 554.95 573.85 555.07 581.15 554.65 588.46 554.88 595.76 554.57 603.06 554.6 610.17 554.69 603.56 557.44 597.1 560.85 591.09 565.01 585.8 570.11 581.5 576.1 579.06 583.05 576.41 589.88 574.99 597.08 574.16 604.39 574.32 611.74 574.12 619.1 575.01 626.4 576.06 633.66 577.36 640.89 578.26 648.18 579.88 655.35 580.51 662.71 582.01 669.9 583.55 677.08 584.71 684.32 586.01 691.33 581.9 685.69 576.87 680.56 572.38 674.97 567.84 669.4 562.82 664.28 557.53 659.42 552.58 654.23 546.92 649.79 541.43 645.2 536.44 640.02 530.82 635.57 524.96 631.41 519.31 627.01 513.63 622.65 508.31 617.8 502.16 614.08 496.34 609.9 490.84 605.26 484.42 601.95 478.5 597.91 473.09 593.11 466.99 589.36 460.92 585.54 454.9 581.66 448.64 578.14 442.68 574.15 436.62 570.33 431.02 565.79 425.15 561.69 418.69 558.48 412.87 554.31"/><polyline class="a" points="412.99 555.26 416.58 561.36 419.58 567.75 422.64 574.12 425.68 580.49 428.55 586.95 431.76 593.24 434.25 599.86 436.94 606.38 439.85 612.83 442.66 619.33 444.76 626.09 446 633.08 448.03 639.85 448.78 646.89 450.53 653.77 450.85 661.07 450.99 668.36 451.05 675.67 449.59 682.84 448.19 689.98 446.72 697.13 444.26 704 441.51 710.76 438.14 717.23 434.77 723.7 430.52 729.64 426.39 735.64 421.65 741.17 417.06 746.81 412.78 752.18 418.38 748.43 423.84 743.76 429.47 739.31 435.55 735.47 441.28 731.15 446.9 726.68 453.12 723.04 458.47 718.18 464.91 714.89 470.76 710.74 476.86 706.97 482.87 703.03 489.24 699.72 495.77 696.73 502.23 693.61 508.98 691.15 515.73 688.68 522.83 687.5 529.82 685.95 536.89 684.86 544.01 683.87 551.2 684 558.3 685.07 565.44 685.66 572.4 687.36 579.36 689.05 586.23 691.12"/><polyline class="a" points="412.45 752.48 415.2 746.16 417.87 739.84 419.5 733.12 419.14 726.22 418.07 719.46 416.47 712.72 413.08 706.65 408.68 700.73 403.14 695.87 397.03 691.87 390.77 688.07 383.98 685.27 376.75 683.9 369.5 683.04 362.2 682.37 354.88 682.54 347.52 682.68 340.24 683.69 333.07 685.32 325.89 686.84 319 689.44 311.82 691"/><polyline class="a" points="551.87 553.97 545.49 556.99 539.84 561.18 535.62 566.81 532.24 573.01 529.7 579.64 529.01 586.74 527.55 593.69 527.73 600.79 527.56 607.86 527.54 614.95 528.13 622.01 529.28 629.02 528.93 635.82 523.18 639.6 516.54 641.93 510.39 645.42 503.66 647.5 497.1 650.01 490.69 652.9 484.1 655.34 477.32 657.26 470.92 660.19 464.35 662.67 457.69 664.91 451.06 667.13 444.51 664.85 437.78 662.99 431.22 660.63 424.89 657.68 418.22 655.61 411.76 652.99 405.34 650.26 399 647.32 392.45 644.93 386.04 642.18 379.55 639.64 373.01 637.19 366.6 634.35 361.86 628.97 357.45 623.39 353.58 617.4 348.66 612.22 344.66 606.32 340.17 600.81 335.39 595.53 331.13 589.81 325.97 584.89 321.31 579.5 316.36 574.38 310.78 569.94 305.02 565.79 299.46 561.35 293.19 558.01 286.79 554.81"/><polyline class="a" points="473.32 553.87 467.66 558.41 466.19 565.51 467.23 572.61 468.87 579.62 472.39 585.93 475.55 592.36 478.69 598.79 472.72 601.96 466.55 605.28 460.15 608.17 453.75 611.07 447.6 614.46 441.36 617.67 434.78 615.53 428.15 613.66 421.6 611.55 415.4 608.46 408.79 606.49 402.34 604.11 396.05 601.28 389.51 599.04 385.28 593.29 381.68 587.19 378 581.12 373.72 575.45 369.2 569.98 364.93 564.3 359.6 559.62 353.93 555.45"/><polygon points="259.67 418.21 260.19 411.48 260.54 404.7 260.19 397.73 266.91 393.08 273.57 388.57 280.3 384.16 287.08 379.74 294.69 379.26 302.22 378.25 309.82 378.09 317.37 377.36 324.88 376.13 332.48 376.22 339.95 376 347.36 377 354.78 378.05 362.06 381.61 367.2 388.78 361.28 392.13 355.98 396 350.8 400.05 345.73 404.32 339.33 406.95 333.29 410.2 327.26 413.45 321.04 416.35 315.13 419.85 308.77 422.5 302.87 426.35 295.57 424.91 288.41 423.41 281.21 422.2 274.12 420.32 266.85 419.48 259.67 418.21"/><polygon class="b" points="708.37 162.13 708.18 169.91 707.45 177.22 707.04 184.56 706.53 191.89 706.32 199.24 706.61 206.59 706.78 213.93 707.2 221.27 707.42 228.61 707.93 235.94 708.39 243.28 709.18 250.59 710.38 257.84 711.21 265.14 712.05 272.46 714.01 279.57 714.95 286.89 717.35 293.87 718.77 301.1 721.37 307.99 723.63 314.97 726.15 321.89 727.64 329.13 729.79 336.17 730.75 343.47 732.46 350.65 732.93 358 733.11 365.36 732.62 372.7 731.24 379.92 730.17 387.23 727.33 394.04 723.84 400.51 719.64 406.54 714.39 411.68 708.28 415.69 701.84 419.08 695.12 422.13 687.84 423.49 680.46 423.88 680.47 423.23 673.18 422.67 665.95 421.6 658.92 419.46 652.52 415.88 646.44 411.78 641.16 406.63 637.06 400.52 634.01 393.85 631.49 387 629.08 380.02 628.85 372.64 628.08 365.35 628.58 358.02 628.92 350.69 630.02 343.44 631.68 336.29 633.44 329.17 635.03 321.98 637.75 315.13 640.29 308.24 641.7 301 644.08 294.04 645.25 286.78 646.78 279.61 648.69 272.51 649.89 265.27 650.36 257.92 651.5 250.68 652.68 243.41 652.59 236.04 653.09 228.73 653.42 221.4 653.65 214.07 653.73 206.74 654.46 199.41 654.46 192.06 653.37 184.75 653.91 177.39 653.49 170.07 652.28 163.15 659.53 166.64 666.3 170.99 673.68 174.28 680.47 178.53 687.46 174.61 694.25 170.24 701.37 166.44 708.37 162.13"/><polygon class="a" points="708.37 162.13 708.18 169.91 707.45 177.22 707.04 184.56 706.53 191.89 706.32 199.24 706.61 206.59 706.78 213.93 707.2 221.27 707.42 228.61 707.93 235.94 708.39 243.28 709.18 250.59 710.38 257.84 711.21 265.14 712.05 272.46 714.01 279.57 714.95 286.89 717.35 293.87 718.77 301.1 721.37 307.99 723.63 314.97 726.15 321.89 727.64 329.13 729.79 336.17 730.75 343.47 732.46 350.65 732.93 358 733.11 365.36 732.62 372.7 731.24 379.92 730.17 387.23 727.33 394.04 723.84 400.51 719.64 406.54 714.39 411.68 708.28 415.69 701.84 419.08 695.12 422.13 687.84 423.49 680.46 423.88 680.47 423.23 673.18 422.67 665.95 421.6 658.92 419.46 652.52 415.88 646.44 411.78 641.16 406.63 637.06 400.52 634.01 393.85 631.49 387 629.08 380.02 628.85 372.64 628.08 365.35 628.58 358.02 628.92 350.69 630.02 343.44 631.68 336.29 633.44 329.17 635.03 321.98 637.75 315.13 640.29 308.24 641.7 301 644.08 294.04 645.25 286.78 646.78 279.61 648.69 272.51 649.89 265.27 650.36 257.92 651.5 250.68 652.68 243.41 652.59 236.04 653.09 228.73 653.42 221.4 653.65 214.07 653.73 206.74 654.46 199.41 654.46 192.06 653.37 184.75 653.91 177.39 653.49 170.07 652.28 163.15 659.53 166.64 666.3 170.99 673.68 174.28 680.47 178.53 687.46 174.61 694.25 170.24 701.37 166.44 708.37 162.13"/><polygon points="649.72 163.66 656.25 160.7 662.3 157.33 668.11 153.51 674.35 150.46 680.47 147.5 686.49 150.59 692.69 153.66 698.69 157.12 705.03 159.95 711.41 163.53 704.79 166.87 698.88 170.68 692.46 173.61 686.66 177.63 680.47 180.58 674.21 177.79 668.03 174.47 662.34 170.3 656.24 166.83 649.72 163.66"/><polygon class="a" points="649.72 163.66 656.25 160.7 662.3 157.33 668.11 153.51 674.35 150.46 680.47 147.5 686.49 150.59 692.69 153.66 698.69 157.12 705.03 159.95 711.41 163.53 704.79 166.87 698.88 170.68 692.46 173.61 686.66 177.63 680.47 180.58 674.21 177.79 668.03 174.47 662.34 170.3 656.24 166.83 649.72 163.66"/><polyline class="b" points="679.76 181 679.19 188.3 679.42 195.61 679.27 202.91 679.9 210.21 679.51 217.52 679.75 224.82 679.7 232.12 679.32 239.43 679.54 246.73 679.92 254.03 679.89 261.34 679.57 268.64 679.1 275.95 679.3 283.26 679 290.5 676.19 297.22 671.92 303.34 668.68 310.02 665.13 316.55 662.52 323.53 658.6 329.88 656.35 337.02 653.18 343.73 649.92 350.4 647.42 357.4 644.69 364.31 642.27 371.32 639.8 378.34 638.84 385.75 637.18 392.97 636.46 400.35"/><polyline class="a" points="679.76 181 679.19 188.3 679.42 195.61 679.27 202.91 679.9 210.21 679.51 217.52 679.75 224.82 679.7 232.12 679.32 239.43 679.54 246.73 679.92 254.03 679.89 261.34 679.57 268.64 679.1 275.95 679.3 283.26 679 290.5 676.19 297.22 671.92 303.34 668.68 310.02 665.13 316.55 662.52 323.53 658.6 329.88 656.35 337.02 653.18 343.73 649.92 350.4 647.42 357.4 644.69 364.31 642.27 371.32 639.8 378.34 638.84 385.75 637.18 392.97 636.46 400.35"/><polyline class="b" points="679.78 289.73 683.42 296.17 687.28 302.5 690.8 309.02 693.64 315.88 697.71 322.13 700.96 328.8 704.02 335.55 706.23 342.67 709.66 349.26 712.71 356.04 714.99 363.11 717.22 370.18 719.13 377.33 721.37 384.41 722.78 391.71 723.25 399.13"/><polyline class="a" points="679.78 289.73 683.42 296.17 687.28 302.5 690.8 309.02 693.64 315.88 697.71 322.13 700.96 328.8 704.02 335.55 706.23 342.67 709.66 349.26 712.71 356.04 714.99 363.11 717.22 370.18 719.13 377.33 721.37 384.41 722.78 391.71 723.25 399.13"/></svg>