<svg xmlns="http://www.w3.org/2000/svg" viewBox="0 0 800 800"><defs><style>.a{fill:#fff;}</style></defs><title>10set</title><rect class="a" width="800" height="800"/><path d="M218.67,395.54a6.5,6.5,0,0,0-12.33-.36c-1,2.76-8.81,7.77-15.82,8.29-2.14.15-3.89-.2-4.26-.88-2.19-4-1.94-18-.45-31.41a37.93,37.93,0,0,1,5.43,3.83,6.5,6.5,0,0,0,8.73-9.63,163.59,163.59,0,0,1-20.49-23.66,80,80,0,0,1,12.65,5.72A6.5,6.5,0,0,0,202,341.9V322.84a6.5,6.5,0,0,0-3.12-5.55,98.23,98.23,0,0,0-24-9.68c13.84-57.71,9.6-113.28,5-145,1.27-9.24,2.1-15.94,2.53-20.47.23-2.46.35-4.3.35-5.62,0-.1,0-.19,0-.29a39.46,39.46,0,0,0,8.64-15.39,6.5,6.5,0,0,0-3.94-7.73l-19.89-7.69a6.5,6.5,0,0,0-2.35-.44H138.7a6.5,6.5,0,0,0-2.35.44l-19.89,7.69a6.5,6.5,0,0,0-3.93,7.75,39.23,39.23,0,0,0,8.6,15.24c0,.14,0,.27,0,.42,0,1.32.12,3.16.35,5.62.43,4.54,1.27,11.28,2.55,20.58-4.09,28.12-7.83,74.84.95,125.15a6.52,6.52,0,0,0,.27,1.52q1,5.61,2.22,11.27a86.52,86.52,0,0,1-16.6-7,6.5,6.5,0,0,0-9.85,5.57v19.06a6.5,6.5,0,0,0,3.14,5.56,94,94,0,0,0,17.54,7.72l-12.64,22a6.5,6.5,0,0,0,6.59,9.67c.08,0,1.48-.21,3.86-.46-4.15,22.13-12.57,81.77,5.9,129.2,21.37,54.9,12.72,175.33,12.63,176.54a6.5,6.5,0,0,0,11.72,4.33c55.7-75.81,71.52-147,75-193.29C228.5,429.09,219.07,396.89,218.67,395.54ZM151.13,122.75l-2.3-4.75h4.3ZM158.67,225c3.7-13.88,7.29-28.13,10.55-41.15a403.56,403.56,0,0,1,.15,78C165.91,251.14,162.24,238.27,158.67,225Zm-24-41c3.25,13,6.83,27.18,10.52,41C141.64,238.22,138,251,134.54,261.7A404.5,404.5,0,0,1,134.69,184Zm32.57-53.1-.09,0-.37.09-.29.09-.12,0a37.63,37.63,0,0,1-5.25,1.41l5.66-13.44,9.76,3.78C174.72,126.17,171.71,130,167.25,130.87Zm-32-11.07,5.93,12.27c-1.22-.26-2.17-.52-2.8-.7a6.49,6.49,0,0,0-1.74-.62c-4.44-.89-7.44-4.63-9.27-7.9Zm17.36,217a6.5,6.5,0,0,0,2-.3,79.89,79.89,0,0,1,8.3.9c1.4,4.53,4.34,9.58,7.86,14.51-16-3.6-32.93-3.49-44.17-2.79L134.7,335A93.29,93.29,0,0,0,152.63,336.8Zm59.13,141.79c-3.05,40.83-16.11,101.72-59.55,167.93.29-7.43.54-16.31.65-26.1a6.47,6.47,0,0,0,1.38-1.47c21.83-32.42,35.63-76.87,41-132.12a474.54,474.54,0,0,0,1.69-71.31,40.88,40.88,0,0,0,11.79-5C211.13,423.63,214.08,447.52,211.76,478.59Z"/><path d="M738.42,646.3l.05-.34-1-7,.36-7-.05-7.37.08-.43,0-7,1-6.93-.08-1-.67-7.29-.23-6.9.7-7-.62-.77.26-7.15.35-7.12-.47-.46-.69-7.29-.17-7,.72-7.07.1-.66.12-7.38L738,543l-.55-7.36-3.64-5.31-1.07-.63-6.63-1.53-6.25-2.76-6.41-2.51-1-.21-6.79-.91-6.49-2.06-.21-.48L692,517.47l-.15-.67-6.61-.89-5.83-3.33-1.09-.26-6.84-.88-6.3-2.76-.37-.1L658,506.26l-7.1-1.26-.46.1-6.33-2-6.08-2.59-.44-.11-7.88-1.94.64-8.83.1-8.65-1.18-3.31,4.91-6.68,5.24-6.49L645,458.3l-1.21-9.21-9.26.63-4.41,5.92-4.45,5.88-5,5.43-4.67,5.7-4.45,5.89-5,5.44-4.68,5.48-5.71-1.6-6.77-1.56-6.59-2.19-.29,0-6.85-1.63L569,480.76l-6.6-2.78-5,.29-6.11,2.79-6.11,1.89-6.35,2.54-.8.33-6.26,2.39-6.29,2.23-6.21,1.65-1,.45-4.84,1.9L508.25,499l-.61,3.92.49,5.16-.07,6.32-.4,6.31.12.35.6,6.5-.44.13.12,2.55-3,.91-6.43,2.46-1,.51L491,536.73l-6.56,2.84-.42,0-7,3-5.83,1.75-4.87,4.57-.5,3.08-.18,6.38,0,.22.2,7.2-.17.52,1,6.79-.24,6.82-.91.16.39,2.81-2.47.61L457,586l-.22.34-6.63,2.47-6.7,1.77L437,593.41l-.22.24-7,1.72-.09.34-5.12,2L419,602.51l.53,3.94-.84,5.1-.24,7.12.7,7.16,0,.76-.13,6.76-.07,2.24-2.37.68-.42.16-5.81,2.73-6,2.52-.76-.28-6.22,3.14-6.55,2-5.94,2.88-6.41,2.14-4.67,6.33.07,6.46-.39,6.37.34,1-.13,6.61-.09,6.6-.31,1.16.82,6.72,4.21,5.55,6.44,2.65,1.3-.36,6.7,1.1,6.17,2.6,6.81,2,.39,1,6.9,1.58,6.64,1.73,1,.12-1.62,2.51.48,9.34,4.38,1,4.89-2.3,5.73-6.26.23.07.12,6.44,0,6.46,6.66,6.3,6.85-6.3-.69-8.88,5.7,2.28.83,0,6.77,2.14,6.58,1.36,6.29,2.6,1.22-.05,6.4,1.15,5.76,3.07.62.48,6.86,2,6.85,2,.25-.12,6.76,2,6.7,2.15.73,0,6.55,1.63,6.49,1.51,6.57,2.64.48,0,6.8,1.5,6.67,3,2.22.38.14-.17.13.34,1.85-1.18,7.1-1.73h.73l6.07-3,6.64-1.35.47-.81,6.91-2.31.62.47,6.34-2.75,6.54-2.18.19-.46,6.43-2.54,6.94-.84.4-.69,7.09-1.76,0-.59,6.9-2.34.67-.35,6-2.69,6.41-1.5,1-.16,6.21-3,6.81-1.2.79-1,6.45-2.13,6.49-1.87.27-.19,7-2.06.1-.5,6.92-2.28.56.22,6.18-2.44,6.44-1.73,1.14-.22,6.49-3,6.45-2.56,7-1.18.83-.65,6.12-2.54,6.41-1.78,1.17,0L734,689.6l3.66-6.71-.22-7,.37-7-.42-.15.26-7.31.67-7.3.28-.48Zm-269.43,0-.7-.33-7-1.59-.67-.38L454,643.1l-6.22-2.32-.64-.5-6.27-1.83-6-2.58-1.22-.19-1.28-.33.31-1.71-.65-1-.08-6.82.35-6.26-.24-6.33,4.28,1.33.77.23,6.75,2L450.5,619l.42.46,6.82,1.43,6.65,1.8,6.74,2,6.58,2.5.72-.21,6.7,2.51,1.89,0-4.85,6L477.65,642l-5,6.32Zm46.46-53-.14-.11-6.9-1.54-6.62-2.45-.69.11-6.5-1.55L488.48,585l-1-.7-6.8-1.28-1.63-.23.11-2.48.48-7.09-.65-.8v-7l0-4.89,5.07,1.24.35-.32,6.8,1.78,6.65,2.27.51.22,6.43,1.75,6.24,2.33,1,.13,6.45,1.41,6,2.78,1.55,0,5.39,1.5-4.89,5.79-4.91,6.15-4.56,6.51ZM520.65,529l.1-1.39-.46-6.28.51-5.41.15-5.69,5.41,1.3,6.61,2.2,6.51,2.46,6.68,2.27.56,0,6.9,1.92.19.23,6.94.95,6.37,2.49,5.14,1.7-3.85,5.21-4,5.5-4.57,5.44-9.35-3-6.4-2.67-.9-.63-6.72-1.39-6.62-2L523,530.06l-.07-.2Zm66.91,1.8.67.24,6.48.79,5.9,2.82,1.1.07,6.94,1.8.13.34,6.38,1.75,6.17,2.36.84.05,7,1.92,6.43,1.8,6.44,2,1,.89,6.66,1.47,6.51,1.56,6.78,2,.73.17,6.63,1.64,6.43,2.29.17.41,2.19.53.28,8.1-.6,6.13-.18,1.29.43,3.84-4.95-2.42-.3-.08L667,572.67l-7-1.33-6.66-2.13-.47-.55-7.07-1.51-6.38-2.11L633,563.22l-.28-.93-7-1.94-6.89-1.14-6.37-2.84-.64-.18-6.57-2-6.82-1.57-6.87-2-.5-.81-6.86-1.62-6.33-1.56-4.72-1.5,4.7-4.75,4.17-4.93,4-5Zm-87,103.49,5.23,1.29,6.56,1.08,6,2.85,1,0,6.79,1.83,6.64,2.33.41.5,6.8,1.4,6.75,1.78,6.68,2,6.66,2.38.54-.51,6.41,2.29,6.28,2.61,1.15-.14,6.83,1.07,6.58,2,.14.23,2,.71-.23,3,0,7,.19.72.69,6.87-.27,5.85-5.64-1.46,0-.92-6.86-2L571,677.24l-.31.54L564,676.16l-6.32-2.77-1-.08-6.21-1.91-6.2-2-.69-1.08-6.87-1.74-7-1.23-6.7-2.57-.56-.13-6.65-1.77-6.62-1.26-6.68-2.17-.4-.8-6.75-1.88L489,652.84l-3.37-1,5.45-5.59,4.93-5.85Zm20.63-25.16,3.61,1.36.81-.27,6.55,1.72L538.6,614l.83.32,6.39,1.65,6,2.84,1.22.27,6.51,1.14,6.11,2.52,1,.5,6.94.84,6.49,2.48,6.58,2.07,6.66,2,1-.12,6.53,1.31L607,634.4l.62.29,6.58,2.14L620.8,639l.41,0,2.07.68-1.94.73-6.45,2.68-7,1.22-.67.25-6.16,2.71L596.92,649l-5.47-1.34-6.62-2.51-.61,0-6.36-2-6.42-1.82-.45-1-6.76-1.7-6.86-1.45,0-.55-4.43-1.3.12-.39-1.08.48-8.54-2.31-.26-.74-6.71-1.65-6.61-2-.44.52-6.24-2.32-6.07-2.75-1.16-.32-6.26-1.06,3.76-4.71,4.09-4.41Zm43.47-53,2.52.61,6.2,2.07.82.5,7,1.48.22.13,6.62,1.71,6.26,2.45,6.8,2.24.61,0,6.61,1.73,6.37,2.49.64-.47,6.67,2.46,6.54,2.06,6.59,2.06,1-.13,6.94,1.59,6.63,1.79,6.46,2.33.26.43,10.42,2.81-4.25,1.47-.51.25L655,590.8l-.17.52-7.1,2.39-3.82,1.66-5.14-1.27-6.73-1.71-.39.07L625,590.12,618,588.27l-.17-.67-6.85-1-6.27-3-.72-.11-6.95-.78-6.26-2.45-6.5-2.46-1-.67-6.88-.64-6.53-1.82-6.53-2.87-.42-.3-6.5-1.63-3-.88,6-6.21Zm-19.07,23.84,6.21,2.63,1-.18,6.66,1.93,6.67,1.93.1.11L573,588.8l.58.54,6.52,1.22,6.25,2.16.4.21,6.8,2.26.63-.49,6.53,2,6.4,2.32.7-.28L614.7,600l6.78,2,6.67,2.1,6.58,2.38.38.47,1.83.37,0,2.13.05.35-.26,7.19.42.44-.46,6.84-.19,5.38-4.87-1.32L624.86,627l-6.64-2.16-.32-.51-6.63-1.61-6.14-3.07-1.26.29-6.35-2.11-6.25-2.23-.66.58-6.74-2.51-6.89-2-.37-.48-6.66-.68-6.26-2.29-.88-.94-6.39-1.5-6.09-2.44-1.3.25-6.41-2.06-6.24-2.39-.86-.19-5.54-.83,5-6.21,5.33-5.93,4.73-6.43Zm-68.3,82.73.86.29,6.18,2,.52.41,6.94,1.8.26.15,6.57,2,6.33,2.67h.33l6.91,1.89.57.22,6.7,1.59,6.81,1.39,6.71,2.54.11.18,6.56,1.28,6.31,2.34,1.21.35,6.54,1.55,6.26,2.41.47.5,6.87,1.74,8.81,2.42-1.27.9-.34,0-5.73,3.09-6.46,1.09-.27.1-5.4,2-5.31,2.54-4.85-.86-6.35-2.22-6.54-2.25-.84-.87-6.82-.72-6.22-2.87-.26,0-6.77-1.16-6.15-3.09-1-.31-6.83-2-6.68-.88-6.3-2.37-.36-.82-6.8-2.24-.25,0-6.95-1.19-5-2,5.6-6.54Zm156-149.52,6.45,2.62,1.2-.15,6.77,1.63,6.75,1.62,6.65,2,6.49,2.6.53.55,6.44,1.46,6.2,2.4,1.05.41,6.77,1.77,6.73,1.26,6.42,2.82.7.35,6.61,1,2.7.76-1.9,1.2-.21-.12-6.53,2.25-6.68,1.8-.79.43-6,3.05-3.82,1.42-5.09-1.66L674,542.74l-.47-1-6.6-1.44-6.39-2.16-.41.5-6.89-2-.55-.55-6.5-1.1-5.87-3.06-1.08.32-6.68-2.5L626,528.11l-6.57-1.8-.87-.8L611.64,524l-6.19-1.91-6.36-2-1.33-.2-2.61-1,3.9-4.46,3.78-4.68,3.5-5.15,5.89,3.07,1.42.51,3,.23L617,516l6.48,6.41,6.78-6.41-.37-4.15ZM616.86,495.1l-.19-.25-1.89-.46L617,492Zm-74.14,2.56,6.29-1.71.21-.58,6.66-2.08.56-.54,4.09-1.86,4.27,1.82.1.43,6.84,2.08.29-.13,6.74,2,6.63,2.33.55-.5,6.86,2.34-.25-.52-3.46,5-3.51,4.92-4,4.82L578,514.05l-6.74-2.42-.16-.4-6.89-1.94-.43.05-6.89-1.52-6.52-1.93L543.68,504l.07-.9-6.82-2.15-.21,0-1.68-.41Zm-46.2,51.19,6.27-3,6.59-2.39,1.41-.36,3.93-2.48,4.58,1.4,6.61,2.4,6.69,2.59.67.08,6.52,1.24,6.14,2.55.46.35,4.77,1.05-5.67,6.1-5.14,6.11-4.09-1.14-1.22.1-6.41-1-5.88-2.72-1-.43-6.44-1.82L509,555.07l-1-.14-6.76-1.41-6.51-2.22-.37.32-2.33-1,3.79-1.21ZM448,603.44l6.73-2.38,0-.51,6.58-2.35,6.54-2.49.43-.07,3.86-1.27,5,1.86.59,0,6.52,1.11,6.1,2.51,1,.49,6.83.89,6.32,2.71.19.21,3.3.54-3.51,4.93-3.79,4.67-4,4.54-.41,0-.8-.63-7-1.71-.17.12-6.68-1.54-6.4-2.43-.37.31-6.65-3-6.87-2-.46,0L454,607l-6.64-1.89-.11-.44-2.14-.7,2.62-.32Zm-39.63,50.41,6.32-1.8.67-.77,6.18-2.58,4.07-1.83,4.49,1.15,6,3,1.1.76,6.62,1.43,6.44,2.09,1.08.36,6.68,1.36,6.17,1.32-4.35,4.63-4,4.63-3.52,5-1.69.15-5.95-2.47-.94-.49-6.73-1.63-6.48-2.4-.34,0-6.57-1.56-6.3-2.49-1.26-.54-6.73-.76-6-2.91-2.42-.79,1.46-.26ZM423.91,698l-.53-.23-7.1-1.36-6.56-1.86-6.51-2.06-.11-.12-6.68-2.57-.76-.59-6.5-1.18-2.3-.65-.18-2.19.55-6.35-.63-.7.25-6.44.53-4.86,5,.87,6.51,2,.21,0,6.74,2.43.88.3,6.35,1.44,6,2.34.84.11,6.79,1.71,6.62,2.28.59-.26,6.23,2.33,2.83.89-3.44,4.25-4.26,6.14-5.54,6.95Zm121.35,31.67-.22,5.18-5.38-1.06-6.47-2.51-.23.23-6.76-2.3-.69-.49L518.9,727l-6.51-1.89-.26.15-6.77-1.91-6.55-2.19L492,719.77l-6.06-3.23-1.4-.58-6.56-.77-6.28-2L471,713l-6.87-2-.1-.11-6.47-1.9-6.35-2.28-.44,0-3-1,.16-7.64,4.27-5.86,5.13-4.93,3.19,1.24.24,0,7,1.57.32-.09,6.71,2.18,6.51,1.77,6.15,3.18,1.12-.31,6.84,2.5,6.47,1.42,6.43,1.83.49.72,6.77,1.94,6.58,2.54.94-.51,6.61,1.12,6,3,.48.33,6.91,1.92.54-.5.94.78v2.39L545,723Z"/><path d="M498.17,272.72l1.86-.46.23,6.73.18,6.73-.71,6.73.1,6.74.43,6.83-2.94-.33-7,.17-.13,0L483,305.4l-7.22.09-.42.44-7.36-.55h-.63l-6.58,1.37-6.45.32-6.72-.54-1.29.05-6.82,1-.24.62-6.7.87-6.5,1.65-1.17.61-6.56,2-3.82,8.12-.29,2.39,1.14,6.94,1.78,6.8,1.46,6.87,2.87,6.44,2.46,6.55,2.63,6.52,3.85,5.88,4.18,5.6,4.58,5.3,5.36,4.58,6.22,3.4,6.86,1.75,7,.23,7,1.47,7,.81,6.88,1.79,7.1.35,7,1.1,7,1.33,7,1.16,7.1.26,7,1.45,7,.81,7.08.42,7.06.69,7.09,0,7.24-.65,7.06-1.66,7.18-1,6.89-2.27,7.15-1.4,6.8-2.56,7.19-2.12,7.05-2.59,7.34-1.63,7.36-1.48,7.3-1.69,7.45-.83,7.39-1.5,7.52.47,6.68-1.27,6.74-.86,6.17-2.86,5.56-3.85,4.93-4.58,5-4.62,3.77-5.65,3.39-5.88,2.52-6.88,2.83-6.75,2-7.05,1-7.24-4.69-6.67L700.1,314l-6.22-2.66-1.75-.64-6.63-1.37-6.6-1.76-.5.74-6.73-1.14-.2.08-6.79-.75-.49-.33-6.58.71-6.53-1.08-1.06-.09-7.29.4-7,.09-7-.61-.53.16-7.46.3-7.15.34-7.22-.8-7.39-.46-1,.36-6.87.43-6.83-.22-.21.67-7.38-.75-.16.33-7.15-.32-7.18,0-1.2-.09-4.27.54.2-7.65L557,291l-.28-7.49L557,276l-.36-7.49.24-7.52,7.69-.91,7.28-2.25,7.16-2.81,6.25-4.56,5.15-5.76,4.39-6.32,3.41-6.88,3.47-6.43,2.31-6.93,2.12-7,1.28-7.18-4.07-6.79-3.3-3.92-6.51-2.2-1.16-.28-6.63-2.06L579,187.55l-.55,0-6.75-1.17-.88.68-6.52.06-6.47-.64-.74-.07-6.6.34-7.16-.34-.72.09-7,0-6.94-.26-.87.21-7-.11-7-.3-7.38-.47-.52.27-7.31.16-7.31,0-.27,0-7.29.13h-7.27l-7.28.58-7.27-1-.56.73-3.21-.17-.2-7.05.06-7.15.25-7.16-.42-7.2,7,.58,6.75,1.4,6.81,1,6.9.18,6.86.43,6.84.73,6.87.51,7.22-.89,7.15-1.08,7-1.91,7.08-1.54,7-2,6.87-2.32,7.25-2,7.18-2.15,7.13-2.36,7.28-1.87,7.35-1.6,7.44-1.15h7.54l7.48-.23,6.75-.76,6.54-1.69,6.12-2.8,5.64-3.64,5.36-4.12,4.49-5.07,3.67-5.69,3.17-6,3.51-6.44,2.13-7L655.77,91l1.66-7.09-3.83-7L649.85,73l-6.58-2-.33-.13-6.61-1.79-.85-1-6.69-1-6.72-.93-.68.14-6.84-.4-.73.41-6.62-.43-6.58.53-.2-.73-7.39.24-.32-.26-7,1.14-7-.47-.56-.43-7.37.06-7.37.05-7.24-.21-7.22.1-7.14.25-.84-.45-7,.45-7-.86L526,66l-6.91.42-6.88-.51-.54.15-3.12-.63-1.62.68-.75,0-5.21-.16-3.74.1-.18-.56-2,.27-10.56.14-7,.3-1.28-.62-6.68,1.08-6.65-1.37-1.4.1-6.84,1-6.88.21-.43,0-7.13-.76-7.09.66-7.35-.38-.7-.05-7.16-.14-6.65-.34-.73.1-6.39.77-6.48.5-1.32-.53-6.49,1.23-6.61.35-1.65.19-6.4,2.63-.68.18-6.11,2.9L365,80.73l.26,6,1.21,7.18,1,7.2,2.84,6.69,2.07,6.92,3.33,6.41,3.32,6.38,3.67,6.22,4.55,5.65,5.88,4.25,6.1,3.78,6.78,2.51.41,7.28-.91,7.27.22,7.27V179l-.15,7.21-.78.17-6.69-1-1-.14-7.05,1-7.06-.78-.7.52-7.31-.21-7.09.93-6.79,0-6.79.12-.23-.87-6.87.66-.66-.32-6.74,1.54-.71-.5L332.62,189l-6.69,1.06-1.39.19-6.19,3.29-3.82,8.17-.19,2.1,1.5,6.86,1.55,6.83,1.48,6.85,1.87,6.78L324,237.4l2.83,6.4,3.43,6.11,4.33,5.5,4.49,5.4,5.77,4,6.21,3.12,6.56,2.46,7,.25,6.95,1.53,7,.81,6.88,1.82,7.08.5,7,.82,6.92,1.61,7.1.29,7,1.33,7,.71,7.06.6,7.07.36,7.06.42,7,.6,7.22-.46,7.11-1.31,7-1.72,7.08-1.52,6.84-2.41Zm36.18,51.33-5.36-.34-.16-5,4.83.2.69.74,1.48-.25.42,4.65Zm-17.27-.41-5,0-.27.24-1.22-.13.71-4.56.28.19,1-.42,4.17.33Zm19-17.46-1.6,0-5.72-.34-.22-8.05.71-7.92-.1-7.92,2.82-3.27,1,.7,2.92,2.56,0,8.05-.38,8.06Zm-19-.14-4.79.23-1.56-.11-.19-8.6.71-8.56,2.72-2.82,3.27,2.82-.7,8.5ZM435.17,322l.29,0,6.46-1.76,6-1.25,6.28.87.39-.11,6.84-.68.53.67,6.53-1.06,6.83-.06,7.12.74.31-.45,7.29-.4,7.27.85H498l2.37-.57.09,5.48-2.74-.09-7.13-.54-.91-.19-7.13,1.05-7-.63-7.17,0-.61.25-6.92-.39-6.9.07-.64-.09-7.05.66-.39.36-6.92.69L432.12,327l-.33-.18-1.68-2.36-1.21-1.11.17-.38Zm221.62,46.13-7.1.12-7.06.83-7,1.13-7.12.57-6.93,1.64-6.78,2.19-7,1.26-6.7,2.39-6.79,2.09-7.66,2L579.16,385l-7.55,2.41-7.89.83-7.83.57-7,.45-6.95-.36-6.89-1-6.9-.78-6.87-1-7-.32-6.8-1.61-6.94-.57-6.91-.76-6.76-1.75-6.88-1-6.84-1.21-6.85-1.1-1.15.21-7.1-1.42-6.88-2.51-5.52-4.89-4.18-6-4-6.14-3.07-6.65-2.24-6.92,5.91,3.38.78.47,6.55,2L446,349l6.53,2.19,1.77-.07,6.63.73,6.61-.18.39.1,7.34.48.22.22,7.16-.72,7.14,1,1.06.05,6.71-.94,6.72.75.31-.15,7.36,0,.17-.55,7.35.62.45-.41,6.94.26,6.92.05.44.13.31-.47,7.41,0,4.5.06.83-.17,3.57.16,5.23-.74,7.15,1.13.8-.77,4.87.39,7.2.21.32-.26,7.39-.12.33.7,7.14-.37,7.13.39.26-.49.21.41,7.31-.19,7.3-.47.4-.39h6.93l6.93.08.59.08,7.29.11,7.18.65,7.41-.6.85.3,6.73-.82,6.79-.52,1,.14,6.45-2.39,6.74-1.2,1.52-.49,6.11-3.14.95-.44,1-1.13-3.06,6.27-3.8,6.22-4.78,5.54-6.13,3.94-6.74,2.5ZM591,319.31l1,.06,6.89-1,6.84.07,7.36,1.09.5-.1,7.3-.61,7.13.62,7.14.11.64,0,7.4.14.2-.47,6.86-.89,6.27,1.28.58.06,6.6-.57,6.49.48,6.45,1.15L683.3,322l5.72,1.16.88.22-1.67,1.51L686.7,327l-2.22-.44L678,324.79l-.47.06-6.61-.69-.92,0-6.39.61-6.34-.59-.17.73-6.69-.19-7-.44-7-.47-1.25,0-7.26.29-7.07-.06-7.11-.22h-7.3l-.32.48-7.27-.26-7.27.08-.63-.7-7.06,1.16-10.39-.39-3-.81-6.79.31-1.25.67-1.82-.61-3.26.12-.21-4.48h6.48l7,.18,2.39-.55,3.46-.58,7.21.68Zm-157-114.79-6.86-.07-.45,0v-5.65l7.08.79Zm0-18.11-6.93-.27-.39,0-.18-6.21.71-6.21-.1-6.21,3.32-3.77,3.06,3.77.35,6.27,0,6.28ZM556.89,248l.09-8.29-.23-8.29,1-.49,6.78.15.68-.2,6.62-1.7.93.49,6.42-2.4.91-.33,6.34-2.66.69-.94,1.86-1.29-3.78,6.55-4,6-4.37,5.79-5.84,4.39-6.89,2.39Zm-72.92-49,.22.09,7.25-.52,7.26-.17.17.71,7.13-.27,7.21-.05,7.35,1,.75-.36,6.93-.43,6.9.88,1-.46,7-.92,7,1,.51,0,6.47-.81,6.46.49.65.4,6.44-.05,6.08.89,6.46.73,5.92,2,.8,0-1,2.09-2.79,1.89-1.74-.57-6.25-1-6.25-1.4-1.63.14-6.61-.26-6.24.72-6.29-.8-1.33-.45-6.88,1-6.91-.3-.28-.32-7.38-.38-.29-.12-7.29.55-7,.55-7.06-.92-1,.32-7-.22-7,.29-.46-.05-7.33-.19-7.41-.22-7.39.56-.38-.72-1.87,0-2.49-.07-.77-.28-5.44.25-.13-4,5.59-.69,7.15.79,2-.65,5.62.68Zm122.82-70.94-7.1.12-7.06.83-7,1.13-7.12.57-6.93,1.64-6.78,2.19-7,1.26-6.7,2.39-6.79,2.09-7.66,2L529.16,145l-7.55,2.41-7.89.83-7.83.57-6.89.46-6.88-.36-6.82-1-6.83-.77-6.8-1-6.9-.31-6.51-1.42-.39-6.43-.25-6.51.72-6.52-.11-6.52.06-6.35,3.55.32.47-.3,7.3.24,7.29-.86,7.22.28.28.44,7-.49,7.05.46.47.33.38.31,5.44-.17,7-.38,7.29-.34.34.3,7.38-.56.15.7,7.13-1.08,7.17.22.14.35,7.49.21,7.2-.75,7.19.93.35.09,7.31-.29,7.3.15,7.21.12.63-.22,6.9-.93,6.88,1.24.65-.37.42.69,6.81-.84.22.1,6.77-1.1,1.53.07,6.4-1.85,6.31-1.94,1.65-.33,5.55-4,.57.51,2.49-2.27-3.66,6.82-3.77,6.35L627,120l-5.86,4.61L614,126.71Zm-221.7-47,6.12-.42.52-.3,6.15-1.24,6.27.91.88-.14,6.47-1.1,6.54.74.45-.37,7-.41,7,.75,7.37-.14.44-.44,7.13.47,7.11.35.94-.68,6.73-.8,6.71,1,1.3,0,6.7-.51,6.74.11.81.72,7.33-.65,7.34-.5,1.48.67h3.58l.34.11,3.48-.12,5,.17.72.39,7.34-.84,2.06-.27,3.49.1,6.86.12.77-.06,7-.07,6.92.89.63.14,7.4-.37,7.29-.61,7.31.18,7.31-.44,7.05,1.22.8-.7,7.24-.26,7.13.35,6.72.45.52-.62,6.5.33,6.1.49,6.46.87.12.26,6.26.72,5.9,1.62,1.2.26-1.53,1.25-2.15,2.77-2-1.21L628,85.85l-6.29-1.43-1.68.33-6-.05-5.84-1.27-1,.11-6.64-.46-.15.77L593,83.12l-.45.79-7.1-.19-7.05.07-.14.27-7.29.19-7.27-.94-.65.12-7.26.35-6.86.67-7-1.07h-1.38l-6.72,1.17-6.79-.19-.45-.44-7.38.54-.21-.06-2.55-.27-2.19-.78-1,.78-1.84-.22-.22,0-3.7.18-1.47-.22-2.91.84-5.47-1-2.54.16-2.9-.36-.81-.16-7.31.06-7.29.38-7.21.12-.22.18-7.07-.28-7-.65-1.18.35-6.68.38-6.64-.55L440,84l-7.36-.55-.47.35-6.82.25h-6.83l-.62-.1-7,.41-7-.28-.85-.07L396,85.14l-7,.65-.07.37-7,.83-.62.2-2.18-1.86-.41-1.72,1.09-.24Zm-2.7,22.57,5.91,3.07.86.12,6.54,2.09.5.88,6.72,1.42,1.38-.28,1.28.38.34,8.23,0,8.33-.36,8.19-5.45-3.33-5.34-4.42-3.61-5.92-3.36-6-3.41-6Zm-47.34,98,.25,0,6.38-1.63,6.22-.94,6.49.55,6.82-.06,6.82-.39.32.7,7.34-.65.17,0,7-.09,7-.17.54-.45,6.91.36,6.88.69,1.24-.65,1.06.27-.37,4.75H405l-.48-.19-7.17.83-7.18-.79-.2.41-7.25.38-7.17-.83-7.26-.08-7.08-.4-1.27.11-6.75,1.31-6.9.13-7,1.31h-.79l-6.76,1-2.39-1.79-1.24-2.23.79-.23Zm30.16,56.45L358,257,351.37,254l-5.69-4.62-4-6.15L338,237l-3.41-6.44-2.3-6.51,5.77,2.73,1.31.57,6.5,2.25.24-.41,6.74,1.33,1,.84,6.84.58.2-.64,6.84.27.12.38,7.35.29.21.2.23-.56,7.21.42,7.2-.33.51-.27,7,.21,7,.2.61.11,6.91-.35,6.93.3,1.19.36,7-1.38,6.92,0,7.14.8.61-.35,5.44-.31,6.3,1,1.22.35,5.7-.26,2.71-.14.54-.48,7.36.13,1.51-.54,3.54.92,7.42-.36.47.09,7.4.15.28.21,6.81-1.08,1.06.5-.09,6.63.2,6.7-.24,6.71.18,6.63-5.42,1.77-7.39,2.88-7.75,1.7-7.56,2.36-7.89.78-7.81,1-6.94-.32h-7l-6.89-1-6.87-1-6.92-.62-6.85-1.2-7-.16-6.78-1.7-7-.24L386.95,261l-6.9-.85-6.9-.84-6.89-.93Z"/></svg>