<svg xmlns="http://www.w3.org/2000/svg" viewBox="0 0 800 800"><defs><style>.a{fill:#fff;}.a,.b,.c{stroke:#000;stroke-linejoin:bevel;}.a,.b{stroke-width:13px;}.c{stroke-width:7px;}</style></defs><title>camvas (59)</title><path class="a" d="M695.2,266.22C550.55,243.74,405.28,226.16,259,218.39c-52.83,16-105.59,32.15-158.43,48.1,163,6.05,324.79,25.1,486,49.47Q640.64,290.55,695.2,266.22Z"/><path class="a" d="M552.41,341.62c-148.87-22.2-298.23-40.55-448.6-48.71-1.14-10.57-1.78-15.85-3.21-26.41,163,6.05,324.79,25.1,486,49.47Q569.44,328.74,552.41,341.62Z"/><path class="b" d="M695.2,266.22a1248.57,1248.57,0,0,0,3.14,293q-51.29,19.63-103,38A1912.7,1912.7,0,0,1,586.56,316Q640.64,290.55,695.2,266.22Z"/><path class="a" d="M552.9,342.22a2298.4,2298.4,0,0,0,8.2,255.06q16.87.35,33.75.64A1917.55,1917.55,0,0,1,586,316Q569.43,329,552.9,342.22Z"/><path class="a" d="M561.1,597.28c-153.16-26.41-305.12-59-457.23-90.76a1057.9,1057.9,0,0,0-.06-213.61c150.36,8.16,299.72,26.51,448.6,48.71A2298.46,2298.46,0,0,0,561.1,597.28Z"/><path class="a" d="M458.72,328.9q-1.61,125.39,2.77,250.71"/><path class="b" d="M458.24,387.55q46.8,8,93.55,16.2,0-31.08.62-62.13-47.2-6.87-94.46-13.26Q457.91,358,458.24,387.55Z"/><path class="a" d="M458.43,446.09q47.6,9.61,95.21,19.22"/><path class="a" d="M458.75,514.7q48.47,9,97,17.61"/><path class="a" d="M487.16,392.69q0,94.07,4.59,188"/><path class="a" d="M523.29,392.65q0,99.44,6.94,198.57"/><path class="a" d="M136.8,325.86A1260.56,1260.56,0,0,1,137.05,470c92.86,17.11,185.55,35.12,278.38,52.42q-.78-82-.54-164.05C322.46,345.26,229.82,333.92,136.8,325.86Z"/><path class="c" d="M412.26,522.35q-.58-68.93-.53-137.85C327.69,371.77,243.51,360.2,159,351c1.37,41,1,81.9-1.19,122.89C242.68,489.79,327.42,506.36,412.26,522.35Z"/></svg>