<svg xmlns="http://www.w3.org/2000/svg" viewBox="0 0 800 800"><defs><style>.a{fill:none;stroke:#000;stroke-linejoin:bevel;stroke-width:13px;}</style></defs><title>canvas (26)</title><polygon class="a" points="97.91 202.02 105.04 202.94 112.15 203.11 119.17 204.22 126.21 205.02 133.27 205.76 140.33 206.42 147.42 206.8 154.49 207.36 161.56 208 168.64 208.49 175.66 209.58 182.72 210.27 189.85 210.32 196.89 211.24 203.92 212.3 211.01 212.66 218.05 213.57 225.13 214.1 232.2 214.77 239.23 215.84 246.36 215.87 253.37 217.13 260.45 217.58 267.48 218.61 274.61 218.65 281.65 219.62 288.69 220.55 295.8 220.76 302.86 221.59 309.94 222.22 316.75 222.61 319.89 216.32 322.32 209.46 324.63 202.56 327.03 195.69 329.88 188.98 332.06 182.03 334.69 175.25 337.69 168.6 340.08 161.72 342.69 154.94 344.93 148 347.23 141.09 350.56 134.57 353.14 127.76 355.51 120.88 357.41 113.82 360.77 107.3 363.43 100.52 365.94 93.69 367.94 86.67 371.02 80.05 373.17 73.08 375.55 66.2 378.32 59.47 380.42 52.48 383.55 45.87 386.03 38.97 379.93 42.88 373.69 46.45 367.42 49.98 361.19 53.56 354.76 56.81 348.28 59.97 342.2 63.83 336.02 67.52 329.6 70.77 323.5 74.59 317.15 77.97 310.94 81.61 304.58 84.98 298.5 88.81 292.06 92.03 285.84 95.64 279.62 99.25 273.3 102.69 267.22 106.54 260.71 109.64 254.57 113.39 248.55 117.36 242.2 120.74 236.02 124.43 229.32 127.19 223.24 131.05 216.92 134.49 210.86 138.39 204.68 142.06 198.41 145.6 192.09 149.04 185.93 152.77 179.25 155.58 173.42 159.88 166.99 163.14 160.7 166.63 154.38 170.07 148.25 173.83 141.93 177.29 135.7 180.89 129.16 183.94 123.27 188.15 116.87 191.46 110.67 195.12 104.17 198.28 97.91 202.02"/><polyline class="a" points="98 201.99 104.32 205.59 110.91 208.7 117.15 212.44 123.44 216.08 129.95 219.32 136.29 222.88 142.61 226.47 149.15 229.65 155.39 233.38 162.01 236.43 168.06 240.52 174.49 243.91 180.94 247.26 187.34 250.72 193.9 253.87 200.05 257.78 206.68 260.79 213.13 264.16 219.3 268.03 225.74 271.4 232.23 274.69 238.29 278.78 244.99 281.68 251.29 285.32 257.5 289.12 264.22 292 270.33 295.97 277 298.92 283.24 302.68 289.79 305.86 295.99 309.69 302.5 312.94 309.01 316.19 315.32 319.82 321.76 323.22 328.05 327.1 329.39 319.97 330.6 312.91 332.43 305.97 333.21 298.82 334.77 291.83 336.29 284.82 337.8 277.82 339.11 270.77 340.92 263.83 342.6 256.86 343.58 249.75 345.04 242.74 346.56 235.74 348.2 228.76 349.38 221.7 351.09 214.73 352.43 207.7 353.9 200.69 354.48 193.5 356.44 186.59 357.66 179.52 358.86 172.46 360.69 165.51 362.36 158.54 363.18 151.4 365.26 144.51 366.41 137.43 367.76 130.39 368.53 123.24 370.15 116.25 371.37 109.19 372.83 102.17 374.44 95.18 376.52 88.29 377.61 81.2 378.56 74.08 380.36 67.13 381.64 60.08 382.71 52.98 385.05 46.13 385.59 38.92"/><polyline class="a" points="316.75 223.03 317.71 229.93 318.01 236.91 319.16 243.8 320.23 250.7 320.38 257.69 321.82 264.55 321.67 271.57 323.22 278.42 323.77 285.37 324.53 292.3 325.44 299.21 325.81 306.18 326.75 313.1 326.87 320.1 327.92 327.01"/><polygon class="a" points="274.32 265.66 268.07 269.78 260.5 270.47 253.17 268.25 246.48 264.47 240.58 259.36 236.84 252.46 235.57 244.74 238.6 237.69 244.92 233.69 252.51 232.63 259.88 234.96 266.34 239.11 272.2 244.17 276.34 250.85 276.99 258.62 274.32 265.66"/><polygon class="a" points="251.4 166.18 249.9 159.26 252.01 152.05 256.63 146.07 262.59 141.52 268.38 136.73 275.45 134.21 282.81 132.99 289.5 136.13 290.99 143.35 288.13 150.26 283.84 156.39 278.41 161.57 272.11 165.66 265.04 168.05 257.78 169.36 251.4 166.18"/><polyline class="a" points="274.93 163.77 270.78 157.52 269.01 150.22 267.53 142.92 268.64 135.57 271.3 128.7 275.71 122.79 280.71 117.19 287.29 113.57 294.09 110.5 301.05 107.85 307.84 105.63 314.61 103.2 321.59 101.59 328.68 100.47 335.69 99 342.79 98.01 349.92 97.25 357.05 96.61 364.19 96.07 371.32 95.43 378.41 94.22 385.59 94.43 392.74 93.99 399.89 93.53 407.05 93.71 414.21 92.81 421.37 93.03 428.52 93.75 435.71 93.29 442.83 94.3 449.98 94.74 457.09 95.59 464.23 96.13 471.41 96.28 478.56 96.88 485.66 97.86 492.7 99.28 499.7 100.8 506.75 102.09 513.77 103.47 520.83 104.75 527.89 106.03 534.8 107.95 541.5 110.58 548.62 111.81 555.3 114.44 561.93 117.18 568.78 119.3 575.35 122.17 581.83 125.2 588.73 127.35 595.2 130.46 601.54 133.82 607.46 137.91 613.56 141.64 619.99 144.9 625.76 149.34 631.54 153.76 636.98 158.6 641.72 164.13 647.07 169.07 651.5 174.85 655.49 180.92 659.87 186.76 662.83 193.43 666.14 199.88 669.65 206.28 671.57 213.32 674.21 220.09 675.85 227.17 678.02 234.11 679.02 241.32 680.49 248.42 681.62 255.59 682.89 262.76 682.98 270.04 684.13 277.25 683.45 284.54 683.55 291.8 684.33 299.07 683.1 306.3 683.45 313.59 682.41 320.8 682.32 328.09 681.12 335.27 680.08 342.46 679.59 349.74 677.81 356.81 677.11 364.07 675.23 371.11 674.27 378.33 672.5 385.38 670.39 392.35 668.73 399.42 667.42 406.58 665.15 413.5 662.67 420.34 661.3 427.52 658.45 434.23 656.73 441.31 653.7 447.94 651.53 454.76 649.44 461.65 646.52 468.2 643.22 474.57 640.13 481.03 636.86 487.4 633.46 493.7 629.98 499.95 626.5 506.2 622.76 512.3 619.16 518.5 615.26 524.51 611.45 530.6 607.21 536.39 602.62 541.9 598.2 547.55 593.68 553.12 588.36 557.98 583.62 563.35 579 568.85 573.4 573.38 568.39 578.49 563.22 583.45 557.74 588.05 552.49 592.95 546.63 597.09 540.91 601.38 535.43 606.02 529.42 609.92 523.7 614.25 517.71 618.18 511.76 622.19 505.25 625.26 499.21 629.13 492.9 632.52 486.37 635.48 480.24 639.24 473.6 641.96 467.08 644.92 460.6 648 453.72 650.1 447.07 652.76 440.5 655.67 433.68 657.88 426.85 660.09 419.76 661.36 412.96 663.66 406.07 665.66 399.08 667.25 391.96 668.23 384.9 669.44 377.83 670.55 370.84 672.21 363.76 673.39 356.63 674.15 349.45 674.37 342.29 674.72 335.15 675.27 328 675.65 320.82 676.06 313.64 675.84 306.45 676 299.3 675.21 292.12 674.98 284.97 674.35 277.83 673.66 270.77 672.38 263.68 671.3 256.67 669.76 249.57 668.61 242.56 666.97 235.74 664.68 229.18 661.71 222.74 658.55 216.15 655.74 209.99 652.08 203.84 648.4 197.84 644.44 192.57 639.56 187.15 634.86 182.08 629.76 178.12 623.74 173.85 617.99 170.45 611.69 166.76 605.53 163.96 598.91 162.15 591.96 159.39 585.27 158.47 578.12 157.31 571.04 156.74 563.88 156.13 556.72 156.52 549.54 157.07 542.39 158.1 535.28 158.65 528.1 160.48 521.13 161.81 514.06 164.21 507.27 166.49 500.47 169.18 493.81 171.64 487 175.2 480.72 179.65 475.01 183.87 469.21 187.63 463.01 192.91 458.07 197.73 452.72 203.13 447.96 208.84 443.59 214.69 439.42 220.19 434.71 226.53 431.27 232.81 427.74 239.31 424.64 245.77 421.46 252.43 418.71 259.35 416.67 266.19 414.48 272.9 411.81 280.07 410.77 286.92 408.49 293.99 407.13 301.14 406.29 308.23 405.06 315.32 403.79 322.53 403.67 329.59 403.25 336.67 402.97 343.76 402.86 350.87 402.94 357.95 403.56 364.94 404.92 371.89 406.31 378.83 407.77 385.75 409.34 392.52 411.43 399.18 413.87 405.75 416.5 412.48 418.86 418.45 422.76 424.83 425.88 430.71 429.86 436.3 434.22 442.21 438.22 446.99 443.51 452.02 448.52 456.61 453.93 460.72 459.72 464.53 465.7 468.39 471.67 471.4 478.1 474.03 484.69 476.81 491.23 478.5 498.13 480.55 504.92 481.73 511.92 483.37 518.83 484.45 525.86 484.88 532.95 485.04 540.05 485.27 547.14 485.31 554.28 484.65 561.39 484.61 568.56 483.38 575.61 481.79 582.58 481.32 589.77 479.53 596.7 477.46 603.55 475.15 610.31 473.05 617.13 470.99 623.97 468.38 630.62 465.93 637.34 462.81 643.77 460.78 650.68 457.32 656.96 454.83 663.68 450.98 669.76 448.43 676.47 445.1 682.79 441.66 689.05 438.24 695.33 434.91 701.65 431.67 708.02 428.5 714.42 425.27 720.81 422.87 727.57 420.16 734.16 417.35 740.77 416.97 747.93 420.16 753.9 426.69 756.34 433.37 755.58 439.93 753.88 445.22 749.62 449.67 744.5 451.87 738.1 452.63 731.49 452.09 724.83 449.33 718.71 445.92 712.42 441.61 706.7 437.75 700.69 433.17 695.18 428.8 689.54 424.44 683.89 420.19 678.11 414.99 673.17 409.93 668.12 404.92 663.04 399.73 658.13 394.9 652.83 389.55 648.07 383.73 643.88 378.67 638.76 372.95 634.45 366.79 630.76 361.21 626.26 355.13 622.48 349.48 618.03 343.33 614.36 336.79 611.37 330.77 607.28 324.41 603.8 317.99 600.43 311.81 596.61 305.05 593.88 298.83 590.14 292.56 586.48 285.69 584 279.48 580.2 273 576.96 266.54 573.68 260.07 570.4 253.43 567.48 246.84 564.45 240.56 560.81 234.31 557.13 227.61 554.29 221.4 550.53 215.02 547.09 208.64 543.64 202.79 539.32 196.83 535.21 190.54 531.57 184.68 527.29 179.1 522.65 173.56 517.95 168.75 512.5 163.46 507.51 159.07 501.71 154.66 495.93 151.03 489.63 148.47 482.81 144.79 476.51 142.49 469.61 141.08 462.48 139.41 455.43 138.79 448.2 137.92 441 138.35 433.9 138.3 426.8 139.25 419.77 140.75 412.83 141.76 405.77 143.67 398.91 146.25 392.27 149.04 385.73 151.74 379.16 155.26 372.98 158.1 366.45 161.58 360.25 164.86 353.93 169.35 348.35 173.25 342.42 177.33 336.61 181.27 330.7 185.52 325 189.62 319.17 194.65 314.1 198.96 308.44 203.92 303.34 208.57 297.97 213.49 292.84 218.05 287.38 222.84 282.12 227.76 276.97 232.8 271.94 238.38 267.5 243.77 262.86 248.53 257.52 254.28 253.3 259.32 248.26 265.09 244.11"/><polyline class="a" points="123.19 484.69 116.6 481.53 110.83 477.04 104.4 473.62 98.12 469.94 92.05 465.93"/><polyline class="a" points="119.97 512.93 113.67 514.83 107.76 517.83 101.32 519.36 95.05 521.38 89.12 524.34"/><polyline class="a" points="129.21 545.14 125.51 551.24 121.56 557.19 116.97 562.74 113.24 568.83"/><polyline class="a" points="655.68 373.3 651.24 367.88 646.65 362.59 641.41 357.92 637.26 352.23 631.85 347.7 627.5 342.2 622.88 336.94 617.99 331.92 612.8 327.19"/><polyline class="a" points="640.96 397.24 633.95 396.2 626.99 394.84 620.05 393.35 613.01 392.51 606.07 391.04 598.96 390.56 591.99 389.25 585 387.97"/><polyline class="a" points="634.36 428.4 627.25 431.35 620.01 433.88 612.84 436.64 605.47 438.84 598.17 441.23 591.14 444.41"/></svg>