<svg xmlns="http://www.w3.org/2000/svg" viewBox="0 0 800 800"><defs><style>.a,.c{fill:none;stroke-linejoin:bevel;}.a{stroke:#000;stroke-width:13px;}.b{fill:#fff;}.c{stroke:#fff;stroke-width:7px;}</style></defs><title>canvas (50)</title><polygon class="a" points="583.51 538.32 590.18 540.4 596.89 543.39 602.92 547.62 609.18 551.4 615.17 555.63 620.35 560.83 625.7 565.85 630.67 571.25 634.87 577.26 639.15 583.24 642.54 589.76 645.43 596.5 648.77 603.05 651.07 610.03 652.89 617.15 654.27 624.04 647.36 624.07 640.17 623.04 633.3 620.65 626.71 617.62 620.83 613.37 614.87 609.26 610.27 603.64 605.66 598.15 601.39 592.36 597.71 586.16 594.58 579.67 592.08 572.91 589.2 566.27 587.64 559.2 585.72 552.24 583.91 545.22 583.51 538.32"/><polygon class="b" points="644.11 632.25 645.32 625.7 648.59 619.69 654.43 616.03 661.15 614.83 667.96 615.8 673.69 619.72 677.49 625.48 679.12 632.25 677.62 639.08 673.66 644.77 667.96 648.69 661.15 649.53 654.64 647.96 648.47 644.93 644.88 638.99 644.11 632.25"/><polygon class="a" points="644.11 632.25 645.32 625.7 648.59 619.69 654.43 616.03 661.15 614.83 667.96 615.8 673.69 619.72 677.49 625.48 679.12 632.25 677.62 639.08 673.66 644.77 667.96 648.69 661.15 649.53 654.64 647.96 648.47 644.93 644.88 638.99 644.11 632.25"/><polyline class="a" points="644.39 637.11 637.36 638.86 630.15 639.66 623.14 641.48 616.13 643.22 609.09 644.87 602.17 646.95 595.22 648.92 588.15 650.51 581.43 653.22 574.65 655.71 567.89 658.27 560.88 660.24 554.65 664.03 548.15 667.16 541.45 669.98 535.25 673.77 529.69 678.45 523.74 682.62 519.13 688.25 514.81 694 510.93 700.09 509.32 707.12 507.62 714.19"/><polyline class="a" points="648.5 644.4 641.77 646.85 634.89 648.92 628.37 651.92 621.71 654.55 615.1 657.33 608.4 659.89 601.6 662.23 595.29 665.68 588.61 668.35 582.48 672.14 576.21 675.6 569.82 678.88 563.53 682.36 558.09 687.11 552.37 691.39 546.77 695.85 541.63 700.89 538.08 707.18 536.92 714.19"/><polygon class="b" points="745.06 474.32 744.82 474.46 744.93 474.17 744 472.52 739.38 466.93 734.2 461.84 729.73 456.13 724.67 450.93 720.27 445.15 715.51 439.68 710.25 434.65 705.39 429.27 700.65 423.78 696.03 418.19 691.29 412.69 686.64 406.91 680.48 410.97 674.37 414.82 668.52 419.06 662.1 422.42 656.09 426.41 649.97 430.22 643.9 434.11 637.92 438.15 631.86 442.07 626.09 446.44 619.83 450.04 613.95 454.23 607.82 458.04 601.76 461.95 595.51 465.58 589.64 469.8 583.16 473.05 577.19 477.11 570.94 480.73 565.12 485.04 559 488.86 553.05 492.95 546.62 496.3 540.51 500.14 534.87 504.73 528.48 508.13 522.36 511.95 516.65 516.44 510.3 519.89 504.54 524.28 498.44 528.15 492.21 531.8 486.24 535.87 480.08 539.66 473.87 543.34 467.88 547.38 461.73 551.19 455.31 555.01 460.45 560.09 464.44 565.83 469.15 570.96 474.13 575.84 478.58 581.19 482.77 586.78 487.42 591.97 492.39 596.87 496.85 602.22 501.11 607.74 506.06 612.67 510.33 618.18 514.94 623.41 521.31 626.92 528.61 627.87 535.81 628 542.96 627.01 550.04 625.54 556.79 622.95 563.75 621.06 570.63 618.87 577.09 615.6 583.63 612.59 590.24 609.75 596.71 606.59 603.19 603.46 609.8 600.57 615.96 596.81 622.48 593.71 628.6 589.9 634.73 586.11 640.97 582.52 647.36 579.13 653.34 575.09 659.13 570.78 664.88 566.44 671.28 563 677.05 558.67 682.3 553.65 688.55 549.96 693.62 544.98 699.05 540.48 704.31 535.76 710.2 531.75 715.07 526.62 720.18 521.75 724.84 516.42 729.65 511.27 734.23 505.88 738.67 500.36 741.82 494.01 744.87 487.71 746.91 480.98 745.06 474.32"/><polygon class="a" points="745.06 474.32 744.82 474.46 744.93 474.17 744 472.52 739.38 466.93 734.2 461.84 729.73 456.13 724.67 450.93 720.27 445.15 715.51 439.68 710.25 434.65 705.39 429.27 700.65 423.78 696.03 418.19 691.29 412.69 686.64 406.91 680.48 410.97 674.37 414.82 668.52 419.06 662.1 422.42 656.09 426.41 649.97 430.22 643.9 434.11 637.92 438.15 631.86 442.07 626.09 446.44 619.83 450.04 613.95 454.23 607.82 458.04 601.76 461.95 595.51 465.58 589.64 469.8 583.16 473.05 577.19 477.11 570.94 480.73 565.12 485.04 559 488.86 553.05 492.95 546.62 496.3 540.51 500.14 534.87 504.73 528.48 508.13 522.36 511.95 516.65 516.44 510.3 519.89 504.54 524.28 498.44 528.15 492.21 531.8 486.24 535.87 480.08 539.66 473.87 543.34 467.88 547.38 461.73 551.19 455.31 555.01 460.45 560.09 464.44 565.83 469.15 570.96 474.13 575.84 478.58 581.19 482.77 586.78 487.42 591.97 492.39 596.87 496.85 602.22 501.11 607.74 506.06 612.67 510.33 618.18 514.94 623.41 521.31 626.92 528.61 627.87 535.81 628 542.96 627.01 550.04 625.54 556.79 622.95 563.75 621.06 570.63 618.87 577.09 615.6 583.63 612.59 590.24 609.75 596.71 606.59 603.19 603.46 609.8 600.57 615.96 596.81 622.48 593.71 628.6 589.9 634.73 586.11 640.97 582.52 647.36 579.13 653.34 575.09 659.13 570.78 664.88 566.44 671.28 563 677.05 558.67 682.3 553.65 688.55 549.96 693.62 544.98 699.05 540.48 704.31 535.76 710.2 531.75 715.07 526.62 720.18 521.75 724.84 516.42 729.65 511.27 734.23 505.88 738.67 500.36 741.82 494.01 744.87 487.71 746.91 480.98 745.06 474.32"/><polygon class="b" points="630.22 483.28 624.63 487.84 618.78 492.06 612.78 496.07 606.82 500.12 600.72 503.96 594.97 508.33 588.71 511.91 582.8 516.05 576.65 519.82 570.66 523.85 564.24 527.17 557.62 530.09 551.67 534.23 544.91 536.84 538.73 540.6 532.27 543.82 525.65 546.68 518.82 549.02 512.15 551.75 505.36 554.12 498.54 556.43 491.64 558.5 484.55 559.74 477.56 561.71 470.33 561.96 463.15 561.1 456.79 557.55 454.62 550.71 455.98 543.71 458.69 537.08 462.3 530.87 466.73 525.23 471.15 519.6 476.13 514.45 481.01 509.21 485.86 503.94 491.06 499 496.5 494.34 502.14 489.92 507.77 485.49 513.1 480.69 519.06 476.61 524.39 471.71 530.37 467.68 536.52 463.89 542.38 459.71 548.54 455.96 554.44 451.82 560.55 448 566.76 444.35 573.04 440.8 579.09 436.87 585.17 432.98 591.84 430.16 598.12 426.62 604.68 423.64 611.21 420.58 617.82 417.73 624.3 414.57 630.94 411.76 637.71 409.28 644.69 407.43 651.61 405.43 658.68 404.15 665.71 402.62 672.89 401.87 680.01 402.95 686.17 406.53 688.96 413.13 687.73 420.3 684.55 426.77 680.57 432.73 676.84 438.88 672.02 444.19 667.04 449.35 662.01 454.43 657.34 459.88 651.96 464.62 646.86 469.66 641.39 474.29 635.8 478.78 630.22 483.28"/><polygon class="a" points="630.22 483.28 624.63 487.84 618.78 492.06 612.78 496.07 606.82 500.12 600.72 503.96 594.97 508.33 588.71 511.91 582.8 516.05 576.65 519.82 570.66 523.85 564.24 527.17 557.62 530.09 551.67 534.23 544.91 536.84 538.73 540.6 532.27 543.82 525.65 546.68 518.82 549.02 512.15 551.75 505.36 554.12 498.54 556.43 491.64 558.5 484.55 559.74 477.56 561.71 470.33 561.96 463.15 561.1 456.79 557.55 454.62 550.71 455.98 543.71 458.69 537.08 462.3 530.87 466.73 525.23 471.15 519.6 476.13 514.45 481.01 509.21 485.86 503.94 491.06 499 496.5 494.34 502.14 489.92 507.77 485.49 513.1 480.69 519.06 476.61 524.39 471.71 530.37 467.68 536.52 463.89 542.38 459.71 548.54 455.96 554.44 451.82 560.55 448 566.76 444.35 573.04 440.8 579.09 436.87 585.17 432.98 591.84 430.16 598.12 426.62 604.68 423.64 611.21 420.58 617.82 417.73 624.3 414.57 630.94 411.76 637.71 409.28 644.69 407.43 651.61 405.43 658.68 404.15 665.71 402.62 672.89 401.87 680.01 402.95 686.17 406.53 688.96 413.13 687.73 420.3 684.55 426.77 680.57 432.73 676.84 438.88 672.02 444.19 667.04 449.35 662.01 454.43 657.34 459.88 651.96 464.62 646.86 469.66 641.39 474.29 635.8 478.78 630.22 483.28"/><polygon class="b" points="628.44 460.69 622.59 465.01 616.33 468.75 610.34 472.86 604.82 477.66 598.65 481.52 592.62 485.57 586.42 489.38 580.05 492.9 573.96 496.87 567.78 500.7 561.75 504.79 555.46 508.44 549.26 512.26 542.96 515.9 536.41 519.09 530.12 522.75 523.66 526.09 517.11 529.27 510.58 532.45 504.11 535.78 497.35 538.54 490.18 539.43 483.44 538.05 483.25 531.42 486.32 525.18 490.64 519.69 495.94 515.12 500.78 510.11 506.43 506.01 511.57 501.3 517.38 496.93 523.06 492.36 529.03 488.22 535.22 484.4 541.38 480.54 547.39 476.45 553.46 472.44 559.86 468.97 565.97 465.03 572.34 461.51 578.26 457.26 584.42 453.38 590.65 449.63 596.98 446.03 603.66 443.08 610.1 439.7 616.2 435.69 622.58 432.19 629.14 429.03 635.96 426.48 642.65 423.63 649.71 422.27 656.56 423.67 657.16 430.63 653.41 436.54 649.08 442 643.98 446.75 639.25 451.88 633.57 455.96 628.44 460.69"/><polygon class="a" points="628.44 460.69 622.59 465.01 616.33 468.75 610.34 472.86 604.82 477.66 598.65 481.52 592.62 485.57 586.42 489.38 580.05 492.9 573.96 496.87 567.78 500.7 561.75 504.79 555.46 508.44 549.26 512.26 542.96 515.9 536.41 519.09 530.12 522.75 523.66 526.09 517.11 529.27 510.58 532.45 504.11 535.78 497.35 538.54 490.18 539.43 483.44 538.05 483.25 531.42 486.32 525.18 490.64 519.69 495.94 515.12 500.78 510.11 506.43 506.01 511.57 501.3 517.38 496.93 523.06 492.36 529.03 488.22 535.22 484.4 541.38 480.54 547.39 476.45 553.46 472.44 559.86 468.97 565.97 465.03 572.34 461.51 578.26 457.26 584.42 453.38 590.65 449.63 596.98 446.03 603.66 443.08 610.1 439.7 616.2 435.69 622.58 432.19 629.14 429.03 635.96 426.48 642.65 423.63 649.71 422.27 656.56 423.67 657.16 430.63 653.41 436.54 649.08 442 643.98 446.75 639.25 451.88 633.57 455.96 628.44 460.69"/><polygon points="642.77 538 640.39 545.51 634.85 550.93 627.38 553.17 619.98 550.82 614.56 545.39 612.09 538 614.02 530.28 619.93 525.09 627.38 523.07 634.8 525.14 640.76 530.27 642.77 538"/><polygon class="a" points="642.77 538 640.39 545.51 634.85 550.93 627.38 553.17 619.98 550.82 614.56 545.39 612.09 538 614.02 530.28 619.93 525.09 627.38 523.07 634.8 525.14 640.76 530.27 642.77 538"/><polygon class="b" points="635.46 537.68 642.66 540.31 649.24 543.57 655.77 546.95 661.64 551.37 667.51 555.76 673.14 560.47 678.22 565.77 683.01 571.33 687.3 577.27 690.93 583.64 695.06 589.72 697.98 596.45 701.39 602.99 703.68 609.98 705.8 617.02 706.66 623.99 699.85 623.67 692.65 622.88 686 620.01 679.43 617.1 673.43 613.14 667.56 608.98 662.63 603.72 657.88 598.32 653.63 592.49 650.11 586.18 647.08 579.64 644.17 573.04 642.23 566.09 640.13 559.19 638.21 552.23 636.58 545.18 635.46 537.68"/><polygon class="a" points="635.46 537.68 642.66 540.31 649.24 543.57 655.77 546.95 661.64 551.37 667.51 555.76 673.14 560.47 678.22 565.77 683.01 571.33 687.3 577.27 690.93 583.64 695.06 589.72 697.98 596.45 701.39 602.99 703.68 609.98 705.8 617.02 706.66 623.99 699.85 623.67 692.65 622.88 686 620.01 679.43 617.1 673.43 613.14 667.56 608.98 662.63 603.72 657.88 598.32 653.63 592.49 650.11 586.18 647.08 579.64 644.17 573.04 642.23 566.09 640.13 559.19 638.21 552.23 636.58 545.18 635.46 537.68"/><polygon class="b" points="696.48 632.25 697.36 625.53 700.98 619.64 707.06 616.49 713.59 614.63 720.3 616.05 726.29 619.55 730.09 625.42 731 632.25 729.39 638.8 725.85 644.51 720.31 648.48 713.59 650.14 707.09 647.95 701.41 644.43 697.81 638.79 696.48 632.25"/><polygon class="a" points="696.48 632.25 697.36 625.53 700.98 619.64 707.06 616.49 713.59 614.63 720.3 616.05 726.29 619.55 730.09 625.42 731 632.25 729.39 638.8 725.85 644.51 720.31 648.48 713.59 650.14 707.09 647.95 701.41 644.43 697.81 638.79 696.48 632.25"/><polyline class="a" points="696.89 637.53 689.66 638.13 682.62 639.82 675.49 641.06 668.46 642.76 661.49 644.67 654.54 646.69 647.45 648.2 640.73 650.95 633.73 652.79 626.84 655.02 620.38 658.39 613.65 661 606.84 663.49 600.57 667.13 594.02 670.22 587.73 673.82 582.1 678.4 576.54 683.01 571.29 687.99 567.4 694.09 563.64 700.21 561.04 706.96 560.58 714.19"/><polyline class="a" points="701.03 644.65 693.99 646.24 687.44 649.2 680.59 651.34 674.09 654.41 667.51 657.24 660.75 659.67 654.39 663.01 647.6 665.4 641.22 668.68 634.96 672.21 628.34 675.05 622.2 678.76 616.13 682.6 610.24 686.71 604.27 690.72 598.96 695.6 594.47 701.21 590.62 707.23 589.33 714.19"/><polygon class="b" points="555.79 705.15 548.7 705.48 541.61 705.93 534.58 706.88 527.55 707.73 520.48 708.36 513.47 709.48 506.6 711.25 499.53 712.25 492.73 714.31 486.14 717.02 479.25 718.84 472.68 721.57 466.26 724.66 460.01 728.06 453.96 731.83 448.88 736.84 444.17 741.99 441.66 748.05 447.99 750.36 454.97 752.24 462.23 752.37 469.38 753.22 476.52 754.23 483.73 754.37 490.92 754.82 498.12 755.07 505.3 756.18 512.53 755.5 519.73 756.13 526.94 756.03 534.15 755.97 541.36 756.39 548.57 756.72 555.79 756.76 563.01 756.97 570.22 756.57 577.42 756 584.64 756.39 591.86 756.39 599.05 755.51 606.27 755.8 613.47 755.42 620.69 755.35 627.9 755.02 635.05 753.93 642.28 753.82 649.38 752.51 656.5 751.45 663.72 750.85 670 748.07 668.12 741.47 663.11 736.37 657.12 732.54 651.37 728.4 644.95 725.38 638.89 721.59 632 719.72 625.47 716.94 618.76 714.67 611.94 712.71 605 711.25 598.01 710.04 591.19 707.88 584.12 707.18 577.08 706.23 570 705.58 562.9 705.2 555.79 705.15"/><polygon class="a" points="555.79 705.15 548.7 705.48 541.61 705.93 534.58 706.88 527.55 707.73 520.48 708.36 513.47 709.48 506.6 711.25 499.53 712.25 492.73 714.31 486.14 717.02 479.25 718.84 472.68 721.57 466.26 724.66 460.01 728.06 453.96 731.83 448.88 736.84 444.17 741.99 441.66 748.05 447.99 750.36 454.97 752.24 462.23 752.37 469.38 753.22 476.52 754.23 483.73 754.37 490.92 754.82 498.12 755.07 505.3 756.18 512.53 755.5 519.73 756.13 526.94 756.03 534.15 755.97 541.36 756.39 548.57 756.72 555.79 756.76 563.01 756.97 570.22 756.57 577.42 756 584.64 756.39 591.86 756.39 599.05 755.51 606.27 755.8 613.47 755.42 620.69 755.35 627.9 755.02 635.05 753.93 642.28 753.82 649.38 752.51 656.5 751.45 663.72 750.85 670 748.07 668.12 741.47 663.11 736.37 657.12 732.54 651.37 728.4 644.95 725.38 638.89 721.59 632 719.72 625.47 716.94 618.76 714.67 611.94 712.71 605 711.25 598.01 710.04 591.19 707.88 584.12 707.18 577.08 706.23 570 705.58 562.9 705.2 555.79 705.15"/><polygon points="657.29 425.91 655.36 418.97 652.94 412.18 651.13 405.19 648.38 398.5 646.8 391.44 644.09 384.74 642.26 377.76 639.98 370.93 638.14 363.95 636.15 357.02 633.37 350.33 631.67 343.32 629.62 336.41 627.05 329.66 624.65 322.86 622.92 315.85 620.15 309.16 618.29 302.19 616.69 295.14 614.04 288.42 612.06 281.48 609.33 274.79 607.33 267.86 605.53 260.87 602.93 254.13 601.56 247 599.34 240.14 596.69 233.42 594.94 226.41 592.46 219.64 590.18 212.79 588.54 205.76 585.92 199.02 583.74 192.15 582.16 185.1 579.4 178.41 577.49 171.46 575.57 164.51 572.64 157.87 570.77 150.9 568.96 143.92 566.98 136.98 564.66 130.16 562.22 123.37 560.3 116.41 558.13 109.54 555.52 102.8 553.83 95.77 551.75 88.86 548.95 82.19 546.77 75.31 544.61 68.43 542.33 61.58 540.34 54.65 538.8 47.58 536.69 40.68 534.18 33.91 532.39 26.91 529.49 20.27 527.93 13.19 525.5 6.39 523.06 -0.13 516.13 -0.68 508.94 -0.75 501.74 -0.22 494.54 -0.89 487.35 -0.54 480.15 -0.6 472.96 -0.92 465.76 -0.56 458.56 -0.82 451.37 -0.19 444.17 -0.7 436.98 -0.2 429.78 -0.13 422.58 -0.87 415.38 -0.26 408.19 -0.13 400.99 -1 393.79 -0.61 386.6 -0.3 379.4 -0.75 372.2 -0.19 365 -0.61 357.81 -0.18 350.61 -0.07 343.41 -0.85 336.21 -0.7 329.01 -0.65 321.81 -0.65 314.62 -0.56 307.42 -0.53 300.22 -0.29 293.02 -0.86 285.82 -0.04 278.62 -0.64 271.42 -0.43 264.23 -0.21 257.03 -0.77 249.83 -0.49 242.63 -0.28 235.43 -0.74 228.23 -0.23 221.03 -0.67 213.83 -0.92 206.63 -0.18 199.44 -0.92 192.24 -0.18 185.04 -0.97 177.85 -0.73 170.65 -0.99 163.45 -0.07 156.25 -0.51 149.05 -0.45 141.85 -0.54 134.65 -0.34 127.45 -0.19 120.25 -0.9 113.05 -0.52 105.85 -0.46 98.65 -0.99 91.45 -0.07 84.25 -0.23 77.04 -0.22 69.84 -0.59 62.64 -0.21 55.44 -0.28 48.24 -0.49 41.03 -0.82 33.83 -0.7 26.63 -0.22 19.42 -0.47 12.21 -0.25 4.99 -0.51 4.9 6.74 4.29 13.97 4.93 21.23 4.63 28.47 4 35.7 4.32 42.95 4.35 50.2 4.36 57.44 3.91 64.68 4.02 71.93 3.14 79.15 3.32 86.4 2.98 93.63 3 100.88 3.52 108.13 2.87 115.36 2.44 122.6 2.24 129.84 2.52 137.09 2.72 144.33 2.33 151.57 2.4 158.82 1.78 166.05 1.43 173.29 1.32 180.54 1.61 187.79 1.42 195.03 1.13 202.28 1.12 209.52 0.84 216.77 1.19 224.02 0.87 231.26 0.84 238.51 0.63 245.75 0.31 253 0.56 260.25 -0.12 267.49 0.19 274.75 0 282 6.35 285.35 12.78 288.54 19.04 292.04 25.3 295.56 31.54 299.12 37.8 302.63 44.18 305.92 50.56 309.21 57 312.38 63.3 315.82 69.78 318.93 75.92 322.67 82.51 325.56 88.55 329.49 94.82 332.99 101.52 335.67 107.64 339.45 114.11 342.58 120.43 345.99 126.73 349.43 132.86 353.19 139.64 355.73 145.69 359.63 152.33 362.45 158.65 365.85 164.69 369.79 171.27 372.69 177.6 376.07 183.69 379.94 190.31 382.76 196.26 386.86 203.02 389.44 209.11 393.29 215.66 396.26 221.81 399.99 227.99 403.66 234.5 406.71 240.62 410.49 246.99 413.81 253.6 416.67 259.68 420.53 266.31 423.36 272.73 426.58 278.84 430.38 285.32 433.49 291.74 436.69 297.9 440.4 304.35 443.57 310.63 447.03 316.86 450.62 323.43 453.56 329.48 457.46 335.73 461 342.24 464.06 348.41 467.74 354.84 470.94 361.1 474.48 367.6 477.54 374.17 480.48 380.19 484.46 386.72 487.48 392.79 491.37 399.35 494.34 405.82 497.47 411.87 501.38 418.42 504.38 424.64 507.97 430.95 511.39 437.43 514.52 443.88 517.68 449.99 521.5 456.36 524.83 462.9 527.82 468.9 531.86 475.66 534.47 481.84 538.12 488.84 536.29 495.54 533.41 502.52 531.36 509.07 528.17 515.99 525.87 522.47 522.57 529.32 520.08 535.88 516.92 542.15 513.21 548.75 510.16 555.05 506.52 561.61 503.36 567.72 499.4 573.67 495.2 580.16 491.88 585.88 487.35 591.87 483.25 598.32 479.77 603.86 475.04 609.52 470.47 615.12 465.84 620.71 461.2 626.26 456.52 631.8 451.81 637.02 446.76 642.07 441.53 647.77 436.93 652.5 431.39 657.29 425.91"/><polygon class="a" points="657.29 425.91 655.36 418.97 652.94 412.18 651.13 405.19 648.38 398.5 646.8 391.44 644.09 384.74 642.26 377.76 639.98 370.93 638.14 363.95 636.15 357.02 633.37 350.33 631.67 343.32 629.62 336.41 627.05 329.66 624.65 322.86 622.92 315.85 620.15 309.16 618.29 302.19 616.69 295.14 614.04 288.42 612.06 281.48 609.33 274.79 607.33 267.86 605.53 260.87 602.93 254.13 601.56 247 599.34 240.14 596.69 233.42 594.94 226.41 592.46 219.64 590.18 212.79 588.54 205.76 585.92 199.02 583.74 192.15 582.16 185.1 579.4 178.41 577.49 171.46 575.57 164.51 572.64 157.87 570.77 150.9 568.96 143.92 566.98 136.98 564.66 130.16 562.22 123.37 560.3 116.41 558.13 109.54 555.52 102.8 553.83 95.77 551.75 88.86 548.95 82.19 546.77 75.31 544.61 68.43 542.33 61.58 540.34 54.65 538.8 47.58 536.69 40.68 534.18 33.91 532.39 26.91 529.49 20.27 527.93 13.19 525.5 6.39 523.06 -0.13 516.13 -0.68 508.94 -0.75 501.74 -0.22 494.54 -0.89 487.35 -0.54 480.15 -0.6 472.96 -0.92 465.76 -0.56 458.56 -0.82 451.37 -0.19 444.17 -0.7 436.98 -0.2 429.78 -0.13 422.58 -0.87 415.38 -0.26 408.19 -0.13 400.99 -1 393.79 -0.61 386.6 -0.3 379.4 -0.75 372.2 -0.19 365 -0.61 357.81 -0.18 350.61 -0.07 343.41 -0.85 336.21 -0.7 329.01 -0.65 321.81 -0.65 314.62 -0.56 307.42 -0.53 300.22 -0.29 293.02 -0.86 285.82 -0.04 278.62 -0.64 271.42 -0.43 264.23 -0.21 257.03 -0.77 249.83 -0.49 242.63 -0.28 235.43 -0.74 228.23 -0.23 221.03 -0.67 213.83 -0.92 206.63 -0.18 199.44 -0.92 192.24 -0.18 185.04 -0.97 177.85 -0.73 170.65 -0.99 163.45 -0.07 156.25 -0.51 149.05 -0.45 141.85 -0.54 134.65 -0.34 127.45 -0.19 120.25 -0.9 113.05 -0.52 105.85 -0.46 98.65 -0.99 91.45 -0.07 84.25 -0.23 77.04 -0.22 69.84 -0.59 62.64 -0.21 55.44 -0.28 48.24 -0.49 41.03 -0.82 33.83 -0.7 26.63 -0.22 19.42 -0.47 12.21 -0.25 4.99 -0.51 4.9 6.74 4.29 13.97 4.93 21.23 4.63 28.47 4 35.7 4.32 42.95 4.35 50.2 4.36 57.44 3.91 64.68 4.02 71.93 3.14 79.15 3.32 86.4 2.98 93.63 3 100.88 3.52 108.13 2.87 115.36 2.44 122.6 2.24 129.84 2.52 137.09 2.72 144.33 2.33 151.57 2.4 158.82 1.78 166.05 1.43 173.29 1.32 180.54 1.61 187.79 1.42 195.03 1.13 202.28 1.12 209.52 0.84 216.77 1.19 224.02 0.87 231.26 0.84 238.51 0.63 245.75 0.31 253 0.56 260.25 -0.12 267.49 0.19 274.75 0 282 6.35 285.35 12.78 288.54 19.04 292.04 25.3 295.56 31.54 299.12 37.8 302.63 44.18 305.92 50.56 309.21 57 312.38 63.3 315.82 69.78 318.93 75.92 322.67 82.51 325.56 88.55 329.49 94.82 332.99 101.52 335.67 107.64 339.45 114.11 342.58 120.43 345.99 126.73 349.43 132.86 353.19 139.64 355.73 145.69 359.63 152.33 362.45 158.65 365.85 164.69 369.79 171.27 372.69 177.6 376.07 183.69 379.94 190.31 382.76 196.26 386.86 203.02 389.44 209.11 393.29 215.66 396.26 221.81 399.99 227.99 403.66 234.5 406.71 240.62 410.49 246.99 413.81 253.6 416.67 259.68 420.53 266.31 423.36 272.73 426.58 278.84 430.38 285.32 433.49 291.74 436.69 297.9 440.4 304.35 443.57 310.63 447.03 316.86 450.62 323.43 453.56 329.48 457.46 335.73 461 342.24 464.06 348.41 467.74 354.84 470.94 361.1 474.48 367.6 477.54 374.17 480.48 380.19 484.46 386.72 487.48 392.79 491.37 399.35 494.34 405.82 497.47 411.87 501.38 418.42 504.38 424.64 507.97 430.95 511.39 437.43 514.52 443.88 517.68 449.99 521.5 456.36 524.83 462.9 527.82 468.9 531.86 475.66 534.47 481.84 538.12 488.84 536.29 495.54 533.41 502.52 531.36 509.07 528.17 515.99 525.87 522.47 522.57 529.32 520.08 535.88 516.92 542.15 513.21 548.75 510.16 555.05 506.52 561.61 503.36 567.72 499.4 573.67 495.2 580.16 491.88 585.88 487.35 591.87 483.25 598.32 479.77 603.86 475.04 609.52 470.47 615.12 465.84 620.71 461.2 626.26 456.52 631.8 451.81 637.02 446.76 642.07 441.53 647.77 436.93 652.5 431.39 657.29 425.91"/><polygon class="c" points="341.68 206.08 334.25 207.44 327.19 209.16 320.13 210.85 312.91 211.93 306.03 214.4 298.76 215.15 291.75 217.11 284.59 218.41 277.33 218.81 270.09 219.15 262.81 219.5 255.66 218.07 248.56 216.71 241.49 215.09 234.79 212.54 234.69 205.52 235.02 198.41 234.86 191.3 234.63 184.19 234.47 177.08 234.84 169.97 235.15 162.86 234.68 155.75 234.6 148.64 234.96 141.53 235.03 134.42 235.16 127.31 234.51 120.2 234.52 113.09 234.92 106.38 241.34 108.92 248.5 110.35 255.55 112.19 262.82 112.76 270.1 112.77 277.39 112.77 284.5 111.02 291.66 109.91 298.88 108.99 305.96 107.39 312.98 105.53 319.96 103.49 327.05 101.92 334.11 100.17 341.35 99.08 341.6 106.23 341.35 113.34 340.97 120.45 340.85 127.56 340.92 134.67 341.44 141.78 341.17 148.89 341.44 156 340.92 163.11 340.91 170.22 341.25 177.33 341.08 184.44 341.36 191.55 340.89 198.66 341.68 206.08"/><polygon class="c" points="387.77 258.92 381.24 256.71 374.28 254.58 367.1 253.37 359.86 252.72 352.59 252.97 345.34 253.12 338.17 254.23 330.87 254.51 323.74 255.97 316.66 257.63 309.75 259.95 302.6 261.28 295.52 262.88 288.44 264.5 281.44 266.11 280.94 259.08 281.38 251.97 280.97 244.86 281.83 237.75 281.7 230.64 281.13 223.53 281.41 216.42 281.39 209.31 281.39 202.2 281.38 195.09 281.01 187.98 281.57 180.87 280.89 173.76 281.09 166.65 281.55 159.69 288.59 158.55 295.54 156.32 302.53 154.36 309.7 153.06 316.86 151.78 323.77 149.42 330.88 147.91 338.19 147.63 345.36 146.52 352.6 145.79 359.84 146.45 367.09 146.81 374.16 148.48 381.21 150.16 388.29 152.5 387.58 159.79 388.17 166.91 388.38 174.01 387.58 181.13 387.95 188.24 388.24 195.34 387.59 202.45 388.03 209.56 388.32 216.67 387.68 223.78 387.99 230.89 387.61 238 387.67 245.11 388.07 252.22 387.77 258.92"/><polyline class="c" points="234.65 212.64 238.71 218.5 242.73 224.4 247.53 229.7 251.47 235.67 255.87 241.29 261.13 246.16 266.04 251.31 271.15 256.26 276.12 261.38 281.4 266.15"/><polyline class="c" points="387.65 259.59 384.13 253.35 379.9 247.61 375.35 242.11 371.25 236.26 366.49 230.95 361.64 225.72 356.66 220.63 351.55 215.68 346.69 210.45 341.47 205.58"/><polyline class="c" points="281.55 159.34 276.19 154.65 270.99 149.78 266.05 144.66 260.66 139.94 256.27 134.29 251.56 128.94 247.59 123 243.03 117.52 239.08 111.59 234.81 105.88"/><polyline class="c" points="387.74 152.88 384.09 146.74 379.75 141.07 375.85 135.08 371 129.82 366.58 124.22 361.78 118.95 357.14 113.52 351.59 108.99 346.36 104.17 341.36 99.07"/></svg>