<?xml version="1.0" encoding="utf-8"?>
<!-- Generator: Adobe Illustrator 20.0.0, SVG Export Plug-In . SVG Version: 6.00 Build 0)  -->
<svg version="1.1" id="Layer_1" xmlns="http://www.w3.org/2000/svg" xmlns:xlink="http://www.w3.org/1999/xlink" x="0px" y="0px"
	 viewBox="0 0 801 801" style="enable-background:new 0 0 801 801;" xml:space="preserve">
<style type="text/css">
	.st0{fill:#FFFFFF;}
	.st1{fill:none;stroke:#000000;stroke-width:10;stroke-miterlimit:10;}
	.st2{fill:none;stroke:#000000;stroke-width:9;stroke-linejoin:round;}
	.st3{fill:none;stroke:#000000;stroke-width:9;stroke-linecap:round;stroke-linejoin:round;}
	.st4{fill:none;stroke:#000000;stroke-width:7;stroke-miterlimit:10;}
</style>
<title>yayocard1</title>
<rect x="0.5" y="0.5" class="st0" width="800" height="800"/>
<polyline class="st0" points="260.2,351.2 266.1,349.6 271.3,346.3 276,342 278.6,336.4 281.2,330.7 282.3,324.5 283.9,330.5 
	285.2,336.6 285.7,342.8 286.5,348.9 287.2,355.1 287,361.3 286.8,367.5 284.4,373.2 "/>
<polyline class="st1" points="260.2,351.2 266.1,349.6 271.3,346.3 276,342 278.6,336.4 281.2,330.7 282.3,324.5 283.9,330.5 
	285.2,336.6 285.7,342.8 286.5,348.9 287.2,355.1 287,361.3 286.8,367.5 284.4,373.2 "/>
<polyline class="st0" points="180.9,438.2 186.2,433.9 190.6,428.7 194.9,423.4 198.6,417.6 200.3,411.3 205.1,414.4 209.2,418.7 
	212.3,423.8 212.9,429.6 "/>
<polyline class="st1" points="180.9,438.2 186.2,433.9 190.6,428.7 194.9,423.4 198.6,417.6 200.3,411.3 205.1,414.4 209.2,418.7 
	212.3,423.8 212.9,429.6 "/>
<polyline class="st0" points="170.5,469.5 166.7,475.4 164.6,482 165.5,488.9 167.3,495.5 170.7,501 171.5,495.3 174,489.5 
	177.2,484.1 181.1,479.2 186,475.2 191,471.5 196.6,468.5 202.4,466.1 208.3,464.1 "/>
<polyline class="st1" points="170.5,469.5 166.7,475.4 164.6,482 165.5,488.9 167.3,495.5 170.7,501 171.5,495.3 174,489.5 
	177.2,484.1 181.1,479.2 186,475.2 191,471.5 196.6,468.5 202.4,466.1 208.3,464.1 "/>
<polyline class="st0" points="92.6,363.7 88.2,357.9 83.6,352.4 80.8,345.7 78.4,339 77.3,332 82.5,335.9 88.3,339.1 93.9,342.7 
	100.1,345.3 106.4,347.2 "/>
<polyline class="st1" points="92.6,363.7 88.2,357.9 83.6,352.4 80.8,345.7 78.4,339 77.3,332 82.5,335.9 88.3,339.1 93.9,342.7 
	100.1,345.3 106.4,347.2 "/>
<path class="st0" d="M161.1,470.6l-6.3-0.6l-6.3-0.6l-6.4-0.2l-6.1-1.5l-6-1.9l-6.3-1.1l-5.5-3.2l-5.5-3.1l-6-3.2l-4.5-5.1l-5-4.5
	l-3.4-5.8l-3.2-5.9l-2.6-6.2l-1.7-6.6l-1.8-6.5l-0.5-6.7l-0.4-6.8l0.6-6.7l0.8-6.7l1.4-6.6l1.9-6.4l2.3-6.3l3.2-5.9l3.7-5.6l4.4-5.1
	l5-4.5l5.7-3.6l5.6-3.1l5.9-2.7l6.2-1.8l6.2-1.9l6.4-0.6l6.3-1.4l6.4-0.2l6.4,0.2l6.4,0.5l6.5-0.4l6.4,1.2l6.4,0.4l6.4,1l6.3,1.1
	l6.3,1.3l6.3,1.3l6.2,1.7l6.3,1.4l6.3,1.5l6,2.3l6.3,1.3l5.9,2.7l6.1,1.9l6.3,1.3l5.8,2.7l5.9,2.5l6.1,1.7l5.8,2.7l6.1,1.9l5.8,2.6
	l6,2.2l5.6,3l5.9,2.5l5.8,2.6l6.1,1.8l5.5,3.1l5.8,2.9l5.8-3l5.7-2.9l6.1-2l5.8-2.6l5.9-2.5l5.8-2.6l5.9-2.4l6-2.3l6-2.3l5.7-3.1
	l6.2-1.8l6-2.2l6.1-1.8l5.8-2.8l6.3-1.5l6-2.4l6.4-1.2l6-2.5l6.4-1.3l6.3-1.6l6.2-1.7l6.3-1.5l6.5-0.6l6.3-1.5l6.5-0.5l6.3-1.5
	l6.5-0.4l6.5-0.5l6.5,0.2l6.5,0.2l6.4,0.5l6.5,0.3l6.3,1.6l6.3,1.4l6.2,1.8l6.1,2.2l5.7,3l5.4,4.1l4.7,4.8l5,4.5l3.8,5.6l2.8,6.1
	l2.5,6.3l1.8,6.6l1.2,6.6l1.6,6.6l-0.3,6.8l0.1,6.8l-0.8,6.7l-0.9,6.7l-2,6.5l-3.1,6l-2.8,6.2l-3.9,5.5l-4.3,5.2l-5.2,4.4l-5.4,4
	l-5.8,2.8l-5.8,3l-6.1,2.1l-6.3,1.5l-6.4,0.9l-6.4,1l-6.5-0.4l-6.5,0.1l-6.5,0.4l-6.4-0.9l-6.4-0.6l-6.4-0.7l-6.4-0.8l-6.3-1.6
	l-6.4-1l-6.3-1.5l-6.2-1.5l-6.5-0.8l-6.3-1.6l-6-2.5L434,455l-6.1-2.2l-6.4-1.2l-5.9-2.4l-5.9-2.6l-6.1-1.9l-6.2-1.6l-5.7-2.9
	l-6-2.1l-6-2.1l-5.7-2.9l-6-2.3l-5.7-2.8l-6.1-2l-5.8-2.7l-5.8-2.6l-5.7-3.3l-5.6,3.3l-5.9,2.5l-5.9,2.4l-5.9,2.3l-5.6,3.2l-5.8,2.7
	l-6.1,1.8l-5.6,3l-6,2.1l-6,2.2l-6.1,1.7l-5.7,2.9l-6,2.2l-6.2,1.6l-6.2,2l-6.1,2.3l-6.3,1.8l-6.3,1.6l-6.4,1.3l-6.1,2.2l-6.3,1.7
	l-6.5,0.6l-6.3,1.7l-6.5,0.7L187,468l-6.4,0.7l-6.5,0.6l-6.5,0.1L161.1,470.6z M160.9,362.2l-6.8-0.3l-6.8,0.4l-6.6,1.8l-6.6,1.6
	l-6.3,2.7l-4.3,4.4l-4.5,4.3l-2.9,5.5l-0.9,6.2l-1.7,6l0.4,6.2l-0.3,6.2l0.9,6.1l1.8,5.9l2.5,5.7l4.3,4.4l4.8,3.9l5.8,2.6l6,2.3
	l6.3,1.3l6.4,0.8l6.4,0.3l6.4-0.2l6.4-0.4l6.4-0.8l6.4-0.9l6.3-1l6.4-0.8l6.3-1.4l6.2-1.6l6.3-1.4l6.1-2.1l6.3-1.3l6-2.5l6.2-1.8
	l6.2-1.7l6.4-1.9l6.1-2.9l6.5-1.7l6.1-2.8l6.3-2.4l6.2-2.4l6.2-2.5l6.2-2.6l6.3-2.6l-6.3-2.5l-6.3-2.5l-6-3.1l-6.5-2l-6-3.2
	l-6.4-2.3l-6.6-1.6l-6.2-2.8l-6.3-2.5l-6.6-1.6l-6.3-2.5l-6.6-1.4l-6.4-2l-6.6-1.4l-6.4-2.1l-6.6-1.4l-6.6-1.3l-6.8-0.3l-6.6-1.5
	l-6.7-0.9l-6.8-0.3L160.9,362.2z M374.9,401l5.8,2.8l6.2,2.8l6.5,2l6.1,2.9l6.2,2.8l6.7,1.5l6.1,3.1l6.4,2.4l6.7,1.4l5.9,2.7
	l6.4,1.2l6,2.3l6.2,1.7l6.3,1.5l6.2,1.9l6.4,0.9l6.3,1.5l6.4,0.9l6.3,1.4l6.4,0.9l6.4,0.7l6.4,0.4l6.5-0.1l6.4-0.3l6.4-0.9l6.3-1.4
	l6.1-2l5.9-2.5l4.9-3.8l3.8-4.9l2.9-5.4l1.3-6l1.4-6l-0.4-6.2l-0.1-6.1l-0.6-6.1l-1.4-6l-3.4-5.1l-3.4-5.1l-5.1-3.4l-5.7-2.9l-6.1-2
	l-6.3-1.4l-6.4-0.7l-6.4-0.5L513,362l-6.4,0.5h-6.5l-6.4,1.5l-6.5,0.2l-6.3,1.2l-6.1,2.1l-6.4,0.8l-6.3,1.2l-6.1,2.1l-6.3,1.3
	l-6,2.3l-6.2,1.7l-6,2.3l-6.6,1.7l-6.4,2.3l-6.4,2.3l-6,3.2l-6.5,2l-6.4,2.4l-6.1,2.7l-6.1,2.9L374.9,401z"/>
<path class="st1" d="M161.1,470.6l-6.3-0.6l-6.3-0.6l-6.4-0.2l-6.1-1.5l-6-1.9l-6.3-1.1l-5.5-3.2l-5.5-3.1l-6-3.2l-4.5-5.1l-5-4.5
	l-3.4-5.8l-3.2-5.9l-2.6-6.2l-1.7-6.6l-1.8-6.5l-0.5-6.7l-0.4-6.8l0.6-6.7l0.8-6.7l1.4-6.6l1.9-6.4l2.3-6.3l3.2-5.9l3.7-5.6l4.4-5.1
	l5-4.5l5.7-3.6l5.6-3.1l5.9-2.7l6.2-1.8l6.2-1.9l6.4-0.6l6.3-1.4l6.4-0.2l6.4,0.2l6.4,0.5l6.5-0.4l6.4,1.2l6.4,0.4l6.4,1l6.3,1.1
	l6.3,1.3l6.3,1.3l6.2,1.7l6.3,1.4l6.3,1.5l6,2.3l6.3,1.3l5.9,2.7l6.1,1.9l6.3,1.3l5.8,2.7l5.9,2.5l6.1,1.7l5.8,2.7l6.1,1.9l5.8,2.6
	l6,2.2l5.6,3l5.9,2.5l5.8,2.6l6.1,1.8l5.5,3.1l5.8,2.9l5.8-3l5.7-2.9l6.1-2l5.8-2.6l5.9-2.5l5.8-2.6l5.9-2.4l6-2.3l6-2.3l5.7-3.1
	l6.2-1.8l6-2.2l6.1-1.8l5.8-2.8l6.3-1.5l6-2.4l6.4-1.2l6-2.5l6.4-1.3l6.3-1.6l6.2-1.7l6.3-1.5l6.5-0.6l6.3-1.5l6.5-0.5l6.3-1.5
	l6.5-0.4l6.5-0.5l6.5,0.2l6.5,0.2l6.4,0.5l6.5,0.3l6.3,1.6l6.3,1.4l6.2,1.8l6.1,2.2l5.7,3l5.4,4.1l4.7,4.8l5,4.5l3.8,5.6l2.8,6.1
	l2.5,6.3l1.8,6.6l1.2,6.6l1.6,6.6l-0.3,6.8l0.1,6.8l-0.8,6.7l-0.9,6.7l-2,6.5l-3.1,6l-2.8,6.2l-3.9,5.5l-4.3,5.2l-5.2,4.4l-5.4,4
	l-5.8,2.8l-5.8,3l-6.1,2.1l-6.3,1.5l-6.4,0.9l-6.4,1l-6.5-0.4l-6.5,0.1l-6.5,0.4l-6.4-0.9l-6.4-0.6l-6.4-0.7l-6.4-0.8l-6.3-1.6
	l-6.4-1l-6.3-1.5l-6.2-1.5l-6.5-0.8l-6.3-1.6l-6-2.5L434,455l-6.1-2.2l-6.4-1.2l-5.9-2.4l-5.9-2.6l-6.1-1.9l-6.2-1.6l-5.7-2.9
	l-6-2.1l-6-2.1l-5.7-2.9l-6-2.3l-5.7-2.8l-6.1-2l-5.8-2.7l-5.8-2.6l-5.7-3.3l-5.6,3.3l-5.9,2.5l-5.9,2.4l-5.9,2.3l-5.6,3.2l-5.8,2.7
	l-6.1,1.8l-5.6,3l-6,2.1l-6,2.2l-6.1,1.7l-5.7,2.9l-6,2.2l-6.2,1.6l-6.2,2l-6.1,2.3l-6.3,1.8l-6.3,1.6l-6.4,1.3l-6.1,2.2l-6.3,1.7
	l-6.5,0.6l-6.3,1.7l-6.5,0.7L187,468l-6.4,0.7l-6.5,0.6l-6.5,0.1L161.1,470.6z M160.9,362.2l-6.8-0.3l-6.8,0.4l-6.6,1.8l-6.6,1.6
	l-6.3,2.7l-4.3,4.4l-4.5,4.3l-2.9,5.5l-0.9,6.2l-1.7,6l0.4,6.2l-0.3,6.2l0.9,6.1l1.8,5.9l2.5,5.7l4.3,4.4l4.8,3.9l5.8,2.6l6,2.3
	l6.3,1.3l6.4,0.8l6.4,0.3l6.4-0.2l6.4-0.4l6.4-0.8l6.4-0.9l6.3-1l6.4-0.8l6.3-1.4l6.2-1.6l6.3-1.4l6.1-2.1l6.3-1.3l6-2.5l6.2-1.8
	l6.2-1.7l6.4-1.9l6.1-2.9l6.5-1.7l6.1-2.8l6.3-2.4l6.2-2.4l6.2-2.5l6.2-2.6l6.3-2.6l-6.3-2.5l-6.3-2.5l-6-3.1l-6.5-2l-6-3.2
	l-6.4-2.3l-6.6-1.6l-6.2-2.8l-6.3-2.5l-6.6-1.6l-6.3-2.5l-6.6-1.4l-6.4-2l-6.6-1.4l-6.4-2.1l-6.6-1.4l-6.6-1.3l-6.8-0.3l-6.6-1.5
	l-6.7-0.9l-6.8-0.3L160.9,362.2z M374.9,401l5.8,2.8l6.2,2.8l6.5,2l6.1,2.9l6.2,2.8l6.7,1.5l6.1,3.1l6.4,2.4l6.7,1.4l5.9,2.7
	l6.4,1.2l6,2.3l6.2,1.7l6.3,1.5l6.2,1.9l6.4,0.9l6.3,1.5l6.4,0.9l6.3,1.4l6.4,0.9l6.4,0.7l6.4,0.4l6.5-0.1l6.4-0.3l6.4-0.9l6.3-1.4
	l6.1-2l5.9-2.5l4.9-3.8l3.8-4.9l2.9-5.4l1.3-6l1.4-6l-0.4-6.2l-0.1-6.1l-0.6-6.1l-1.4-6l-3.4-5.1l-3.4-5.1l-5.1-3.4l-5.7-2.9l-6.1-2
	l-6.3-1.4l-6.4-0.7l-6.4-0.5L513,362l-6.4,0.5h-6.5l-6.4,1.5l-6.5,0.2l-6.3,1.2l-6.1,2.1l-6.4,0.8l-6.3,1.2l-6.1,2.1l-6.3,1.3
	l-6,2.3l-6.2,1.7l-6,2.3l-6.6,1.7l-6.4,2.3l-6.4,2.3l-6,3.2l-6.5,2l-6.4,2.4l-6.1,2.7l-6.1,2.9L374.9,401z"/>
<polyline class="st0" points="135.8,340.5 140.8,336.6 144.6,331.5 148.8,326.7 151.8,321.1 154.4,315.2 155.9,309.1 157.6,303 
	159.1,296.8 159.6,290.5 159.8,284.2 160.3,277.8 159.8,271.2 162.6,277.4 165,283.6 167.1,289.8 169.7,295.9 171.4,302.3 
	173.9,308.4 175.6,314.8 176.6,321.3 178.8,327.6 179.5,334.2 179,340.9 176.6,346.9 "/>
<polyline class="st1" points="135.8,340.5 140.8,336.6 144.6,331.5 148.8,326.7 151.8,321.1 154.4,315.2 155.9,309.1 157.6,303 
	159.1,296.8 159.6,290.5 159.8,284.2 160.3,277.8 159.8,271.2 162.6,277.4 165,283.6 167.1,289.8 169.7,295.9 171.4,302.3 
	173.9,308.4 175.6,314.8 176.6,321.3 178.8,327.6 179.5,334.2 179,340.9 176.6,346.9 "/>
<polyline class="st0" points="222.7,361.6 222.9,367.7 223.3,373.7 221.6,379.5 219.8,385.3 216.9,390.4 222.7,388.5 228.6,386.5 
	234.3,383.8 239.3,380.1 244.7,376.7 247.4,371 "/>
<polyline class="st1" points="222.7,361.6 222.9,367.7 223.3,373.7 221.6,379.5 219.8,385.3 216.9,390.4 222.7,388.5 228.6,386.5 
	234.3,383.8 239.3,380.1 244.7,376.7 247.4,371 "/>
<polyline class="st0" points="256.4,442.8 260.1,448.1 263.6,453.7 266.1,459.8 268.1,466.1 267.5,472.8 266.1,479.1 263.3,485 
	268.4,481.2 273.9,477.8 278.4,473.2 282.9,468.6 286.4,463.3 289.1,457.4 291.7,451.6 293.6,445.5 294.6,439.3 295.6,432.9 
	295,426.5 "/>
<polyline class="st1" points="256.4,442.8 260.1,448.1 263.6,453.7 266.1,459.8 268.1,466.1 267.5,472.8 266.1,479.1 263.3,485 
	268.4,481.2 273.9,477.8 278.4,473.2 282.9,468.6 286.4,463.3 289.1,457.4 291.7,451.6 293.6,445.5 294.6,439.3 295.6,432.9 
	295,426.5 "/>
<polyline class="st0" points="118.7,437.5 124.5,434.3 129.6,430 134.2,425.2 137,419.1 140.4,413.4 142.2,406.8 145.8,412.8 
	148.4,419 149.9,425.5 150.7,432.2 151.3,439 149.3,445.5 147.9,452.1 "/>
<polyline class="st1" points="118.7,437.5 124.5,434.3 129.6,430 134.2,425.2 137,419.1 140.4,413.4 142.2,406.8 145.8,412.8 
	148.4,419 149.9,425.5 150.7,432.2 151.3,439 149.3,445.5 147.9,452.1 "/>
<polyline class="st0" points="92.8,393.7 87.4,397.2 82.2,401.1 77.6,405.7 73.5,410.8 70.1,416.4 67.7,422.5 65.2,428.6 
	64.4,435.1 62.5,441.4 62.1,448.3 66.1,443.2 70.2,438.7 75.1,434.8 79.6,430.7 84.3,426.7 89.2,423.1 94.3,419.7 99.2,415.9 "/>
<polyline class="st1" points="92.8,393.7 87.4,397.2 82.2,401.1 77.6,405.7 73.5,410.8 70.1,416.4 67.7,422.5 65.2,428.6 
	64.4,435.1 62.5,441.4 62.1,448.3 66.1,443.2 70.2,438.7 75.1,434.8 79.6,430.7 84.3,426.7 89.2,423.1 94.3,419.7 99.2,415.9 "/>
<polyline class="st0" points="303.2,400.9 309.1,403.7 315,406.5 320.9,409.4 327.1,411.7 333,414.6 338.8,417.7 "/>
<polyline class="st1" points="303.2,400.9 309.1,403.7 315,406.5 320.9,409.4 327.1,411.7 333,414.6 338.8,417.7 "/>
<polyline class="st0" points="338.9,384 344.7,387 350.8,389.5 356.8,392.3 362.4,395.7 368.6,398.1 374.7,400.6 "/>
<polyline class="st1" points="338.9,384 344.7,387 350.8,389.5 356.8,392.3 362.4,395.7 368.6,398.1 374.7,400.6 "/>
<polygon class="st0" points="427,309.3 433.3,309.6 439.7,308.7 446.2,309.6 452.7,309.2 459.2,308.7 465.7,308.8 472.2,308.7 
	478.7,308.9 485.2,308.8 491.7,309.2 498.2,309 504.7,309.3 511.2,308.7 517.7,309.4 524.2,309.2 530.7,309.5 537.2,308.9 
	543.7,309.1 550.2,309 556.7,308.9 563.2,308.9 569.7,309 576.2,309.3 582.7,308.8 589.2,309.1 595.7,309.3 602.2,309 608.7,308.6 
	615.2,309 621.7,309 628.2,309.2 634.6,309.3 634.3,315.7 635.2,322.2 634.3,328.8 634.9,335.4 634.7,341.9 634.5,348.5 635.1,355 
	634.3,361.6 634.4,368.2 634.7,374.7 634.4,381.3 635.1,387.8 634.5,394.4 635.2,401 635,407.5 634.6,414.1 634.8,420.7 
	634.7,427.2 634.7,433.8 635.1,440.3 635.2,446.9 634.9,453.5 634.9,460 635.1,466.6 635.2,473.2 634.3,479.7 635.2,486.3 
	634.4,492.5 628.3,493.1 621.8,493 615.3,493 608.8,493 602.3,492.9 595.8,493.4 589.3,493.2 582.8,492.9 576.3,493 569.8,492.6 
	563.3,493 556.8,492.4 550.3,493.1 543.8,493.3 537.3,493.3 530.8,492.6 524.3,493 517.8,493.3 511.3,493 504.8,492.8 498.3,493 
	491.8,492.7 485.3,492.9 478.8,492.7 472.3,493 465.8,493.2 459.3,493.2 452.8,493.2 446.3,492.9 439.8,492.7 433.3,492.8 
	426.5,493.1 427.1,486.3 426.4,479.8 426.5,473.2 426.3,466.6 426.7,460.1 426.9,453.5 426.4,447 426.4,440.4 427.1,433.8 
	426.4,427.3 426.7,420.7 426.4,414.2 427.2,407.6 427.1,401 426.8,394.5 427.1,387.9 426.4,381.3 427.3,374.8 426.9,368.2 
	426.8,361.7 426.6,355.1 427,348.5 426.4,342 426.7,335.4 426.9,328.8 426.8,322.3 427,315.7 "/>
<polygon points="738.8,565.5 732.2,565.8 725.7,565.7 719.1,565.5 712.5,566 706,565.9 699.4,565.9 692.9,565.7 686.3,565.2 
	679.8,565.8 673.2,565.1 666.7,565.2 660.1,565.4 653.6,565.8 647,565.9 640.5,566 633.9,565.3 627.4,565.3 620.8,565.8 
	614.3,565.8 607.7,565.7 601.2,565.7 594.6,565.5 588.1,565.5 581.5,565.7 575,565.3 568.4,565.2 561.9,565.1 555.3,565.5 
	548.8,565.4 542.2,565.7 535.7,565.8 529.1,565.8 522.5,565.8 516,565.7 509.4,565.8 502.9,565.7 496.3,565.7 489.8,565.3 
	483.2,565.8 476.7,565.3 470.1,565.3 463.5,565 457,565.2 450.4,565.2 443.9,565.6 437.3,565.4 430.7,565.6 430.9,558.9 
	430.9,552.3 430.7,545.7 431.2,539.1 430.4,532.5 430.7,525.9 430.3,519.3 430.8,512.7 430.6,506.1 431.3,499.5 431.2,492.9 
	430.5,486.3 430.7,479.7 430.9,473.1 431.1,466.5 430.8,459.9 430.3,453.3 430.7,446.7 430.7,440.1 430.6,433.5 430.8,426.9 
	430.4,420.3 430.6,413.7 430.9,407.1 431.1,400.5 430.8,393.9 430.5,387.4 430.4,380.8 430.9,374.1 430.7,367.5 430.9,361 
	431,354.4 430.8,347.8 430.7,341.1 430.6,334.5 431.1,328 430.4,321.4 430.6,314.7 431.1,308.1 431,301.5 431,294.9 430.6,288.3 
	430.5,281.7 430.6,275.1 430.4,268.5 430.7,261.9 431,255.3 430.4,248.7 430.5,242.1 430.9,235.6 437.3,235.9 443.9,236 
	450.4,235.4 457,235.7 463.6,235.3 470.1,235.8 476.7,235.7 483.3,235.3 489.8,235.6 496.4,235.7 502.9,235.5 509.5,235.6 
	516.1,235.5 522.6,235.2 529.2,235.1 535.7,235.3 542.3,235.8 548.9,235.3 555.4,235.3 562,235.3 568.5,235.8 575.1,235.4 
	581.7,235 588.2,235.2 594.8,235.2 601.4,235.6 607.9,235.6 614.5,235.9 621,235.3 627.6,235.8 634.2,235.9 640.8,235.6 
	647.3,235.2 653.9,235.6 660.4,235.4 667,235.5 673.6,235.2 680.1,235.8 686.7,235.9 693.3,235.5 699.8,236 706.4,235.6 
	710.8,240.2 715.7,244.3 720,248.9 725.2,252.7 729.8,257 734.2,261.7 738.8,266.1 739.1,272.7 738.8,279.2 738.4,285.7 
	739.1,292.2 738.7,298.7 738.3,305.2 739.1,311.7 739.1,318.2 738.9,324.7 739,331.2 738.9,337.7 738.8,344.2 738.9,350.7 
	738.8,357.3 738.7,363.8 738.9,370.3 738.9,376.8 738.5,383.3 739,389.8 738.9,396.3 738.5,402.8 738.9,409.3 738.8,415.8 
	738.9,422.3 739.2,428.8 738.7,435.3 739,441.8 738.6,448.3 738.5,454.8 738.7,461.3 738.8,467.8 739.2,474.4 738.5,480.9 
	738.8,487.4 739.2,493.9 738.3,500.4 738.7,506.9 738.7,513.4 739.1,519.9 738.7,526.4 739.1,532.9 738.5,539.4 738.7,546 
	738.7,552.5 738.7,559 "/>
<polygon class="st2" points="738.8,565.5 732.2,565.8 725.7,565.7 719.1,565.5 712.5,566 706,565.9 699.4,565.9 692.9,565.7 
	686.3,565.2 679.8,565.8 673.2,565.1 666.7,565.2 660.1,565.4 653.6,565.8 647,565.9 640.5,566 633.9,565.3 627.4,565.3 
	620.8,565.8 614.3,565.8 607.7,565.7 601.2,565.7 594.6,565.5 588.1,565.5 581.5,565.7 575,565.3 568.4,565.2 561.9,565.1 
	555.3,565.5 548.8,565.4 542.2,565.7 535.7,565.8 529.1,565.8 522.5,565.8 516,565.7 509.4,565.8 502.9,565.7 496.3,565.7 
	489.8,565.3 483.2,565.8 476.7,565.3 470.1,565.3 463.5,565 457,565.2 450.4,565.2 443.9,565.6 437.3,565.4 430.7,565.6 
	430.9,558.9 430.9,552.3 430.7,545.7 431.2,539.1 430.4,532.5 430.7,525.9 430.3,519.3 430.8,512.7 430.6,506.1 431.3,499.5 
	431.2,492.9 430.5,486.3 430.7,479.7 430.9,473.1 431.1,466.5 430.8,459.9 430.3,453.3 430.7,446.7 430.7,440.1 430.6,433.5 
	430.8,426.9 430.4,420.3 430.6,413.7 430.9,407.1 431.1,400.5 430.8,393.9 430.5,387.4 430.4,380.8 430.9,374.1 430.7,367.5 
	430.9,361 431,354.4 430.8,347.8 430.7,341.1 430.6,334.5 431.1,328 430.4,321.4 430.6,314.7 431.1,308.1 431,301.5 431,294.9 
	430.6,288.3 430.5,281.7 430.6,275.1 430.4,268.5 430.7,261.9 431,255.3 430.4,248.7 430.5,242.1 430.9,235.6 437.3,235.9 
	443.9,236 450.4,235.4 457,235.7 463.6,235.3 470.1,235.8 476.7,235.7 483.3,235.3 489.8,235.6 496.4,235.7 502.9,235.5 
	509.5,235.6 516.1,235.5 522.6,235.2 529.2,235.1 535.7,235.3 542.3,235.8 548.9,235.3 555.4,235.3 562,235.3 568.5,235.8 
	575.1,235.4 581.7,235 588.2,235.2 594.8,235.2 601.4,235.6 607.9,235.6 614.5,235.9 621,235.3 627.6,235.8 634.2,235.9 
	640.8,235.6 647.3,235.2 653.9,235.6 660.4,235.4 667,235.5 673.6,235.2 680.1,235.8 686.7,235.9 693.3,235.5 699.8,236 
	706.4,235.6 710.8,240.2 715.7,244.3 720,248.9 725.2,252.7 729.8,257 734.2,261.7 738.8,266.1 739.1,272.7 738.8,279.2 
	738.4,285.7 739.1,292.2 738.7,298.7 738.3,305.2 739.1,311.7 739.1,318.2 738.9,324.7 739,331.2 738.9,337.7 738.8,344.2 
	738.9,350.7 738.8,357.3 738.7,363.8 738.9,370.3 738.9,376.8 738.5,383.3 739,389.8 738.9,396.3 738.5,402.8 738.9,409.3 
	738.8,415.8 738.9,422.3 739.2,428.8 738.7,435.3 739,441.8 738.6,448.3 738.5,454.8 738.7,461.3 738.8,467.8 739.2,474.4 
	738.5,480.9 738.8,487.4 739.2,493.9 738.3,500.4 738.7,506.9 738.7,513.4 739.1,519.9 738.7,526.4 739.1,532.9 738.5,539.4 
	738.7,546 738.7,552.5 738.7,559 "/>
<polygon class="st0" points="654.3,360 647.6,359.1 641,359.7 634.4,359.8 627.8,359.5 621.2,359.5 614.5,359.5 607.9,359.6 
	601.3,359.5 594.7,359.8 588.1,359.2 581.5,359.1 574.8,359.5 568.2,359.8 561.6,359 555,359.8 548.4,359 541.8,359.7 535.1,359.6 
	528.5,359.1 521.9,359.9 515.3,359.9 509.5,358.3 504.8,355 501,350.4 500.3,344.5 500.6,338.1 500.5,331.7 500.1,325.3 
	500.3,318.9 500.7,312.5 500.7,306 499.8,299.6 500.6,293.2 500.7,286.8 499.8,280.4 500.7,274 500.5,267.6 500.5,261.2 
	500.3,254.8 499.8,248.3 499.8,241.9 500.5,235.8 506.8,235.8 513.2,235.3 519.7,235.6 526.2,235 532.7,235.3 539.2,235.6 
	545.7,235.8 552.2,235.3 558.7,235.8 565.2,235.9 571.7,235.5 578.2,235.1 584.7,235.4 591.2,235.9 597.7,235.1 604.2,235.4 
	610.7,235.8 617.2,235.8 623.7,235.6 630.2,235.8 636.7,236 643.2,235.3 649.7,235.8 656.2,235.3 662.7,235.9 669.5,235.2 
	668.9,241.9 668.9,248.3 669.2,254.7 669.2,261.1 669.5,267.5 669.5,274 669.2,280.4 669.7,286.8 668.8,293.2 669.7,299.6 
	669.2,306 668.9,312.4 669.6,318.8 669,325.3 669.5,331.7 669.5,338.1 669.8,344.5 668.1,350.3 664.5,354.8 660,358.4 "/>
<polygon class="st2" points="654.3,360 647.6,359.1 641,359.7 634.4,359.8 627.8,359.5 621.2,359.5 614.5,359.5 607.9,359.6 
	601.3,359.5 594.7,359.8 588.1,359.2 581.5,359.1 574.8,359.5 568.2,359.8 561.6,359 555,359.8 548.4,359 541.8,359.7 535.1,359.6 
	528.5,359.1 521.9,359.9 515.3,359.9 509.5,358.3 504.8,355 501,350.4 500.3,344.5 500.6,338.1 500.5,331.7 500.1,325.3 
	500.3,318.9 500.7,312.5 500.7,306 499.8,299.6 500.6,293.2 500.7,286.8 499.8,280.4 500.7,274 500.5,267.6 500.5,261.2 
	500.3,254.8 499.8,248.3 499.8,241.9 500.5,235.8 506.8,235.8 513.2,235.3 519.7,235.6 526.2,235 532.7,235.3 539.2,235.6 
	545.7,235.8 552.2,235.3 558.7,235.8 565.2,235.9 571.7,235.5 578.2,235.1 584.7,235.4 591.2,235.9 597.7,235.1 604.2,235.4 
	610.7,235.8 617.2,235.8 623.7,235.6 630.2,235.8 636.7,236 643.2,235.3 649.7,235.8 656.2,235.3 662.7,235.9 669.5,235.2 
	668.9,241.9 668.9,248.3 669.2,254.7 669.2,261.1 669.5,267.5 669.5,274 669.2,280.4 669.7,286.8 668.8,293.2 669.7,299.6 
	669.2,306 668.9,312.4 669.6,318.8 669,325.3 669.5,331.7 669.5,338.1 669.8,344.5 668.1,350.3 664.5,354.8 660,358.4 "/>
<polygon points="640.5,263.7 634.5,263.8 628.3,264 622.1,263.9 615.9,263.5 609.6,263.5 603.4,263.5 603.4,269.9 603.1,276.3 
	603.7,282.8 603.6,289.2 603.1,295.6 603.6,302 603.2,308.4 603.8,314.9 603.1,321.3 603.7,327.7 603,334.1 603.1,340.6 603.4,347 
	609.6,347.5 615.9,346.7 622.1,346.8 628.3,346.5 634.5,347.2 641,347.3 641,340.6 641.1,334.2 640.4,327.7 640.5,321.3 
	640.8,314.9 640.6,308.5 640.5,302.1 640.5,295.6 641.2,289.2 640.6,282.8 640.6,276.4 640.5,269.9 "/>
<polygon class="st0" points="684.1,400.4 677.5,400.7 670.8,400.8 664.2,400.8 657.6,400.3 651,400 644.4,400.4 637.8,401 
	631.1,400.3 624.5,400 617.9,400.4 611.3,400.9 604.7,400.1 598,400.4 591.4,401 584.8,400.3 578.2,400.7 571.5,400.2 564.9,400.1 
	558.3,400.6 551.7,400.7 545,400.2 538.4,400.9 531.8,400.4 525.2,400.6 518.6,400.4 511.9,400.8 505.3,400.3 498.7,400.3 
	492,400.4 485.4,400.7 478.4,402.3 473,407.3 471.8,414.5 471.3,421.1 471.1,427.6 471.6,434.2 471,440.8 471.6,447.3 471.2,453.9 
	471.7,460.4 471.2,467 471.5,473.6 471.7,480.1 471.6,486.7 471.1,493.3 471.3,499.8 471.6,506.4 471.3,513 471,519.5 471.3,526.1 
	471.8,532.7 471.4,539.2 471.7,545.8 471.2,552.3 471,558.9 471.6,565.3 477.9,565.5 484.4,565.2 490.8,565.7 497.3,566 
	503.8,565.1 510.3,565.5 516.7,565.3 523.2,565.9 529.7,565.7 536.2,566 542.6,565.4 549.1,565.6 555.6,565.5 562,565.7 
	568.5,565.8 575,565.4 581.5,565.4 588,565.7 594.4,565.3 600.9,565.2 607.4,566 613.9,565.5 620.3,565.6 626.8,565.9 633.3,565 
	639.8,565 646.2,565.7 652.7,565.7 659.2,565.1 665.7,565.7 672.2,565.5 678.6,565.5 685.1,565.9 691.6,566 698.3,565.8 
	697.8,558.9 697.9,552.4 697.6,545.8 698.2,539.3 697.8,532.7 698,526.1 698.3,519.6 697.9,513 698,506.4 697.8,499.9 698.5,493.3 
	698.4,486.7 698.4,480.2 698.1,473.6 698.3,467 698.5,460.5 698,453.9 697.7,447.4 697.9,440.8 697.9,434.2 697.9,427.6 
	698.2,421.1 698.5,414.5 695.9,407.7 691,402.5 "/>
<polygon class="st2" points="684.1,400.4 677.5,400.7 670.8,400.8 664.2,400.8 657.6,400.3 651,400 644.4,400.4 637.8,401 
	631.1,400.3 624.5,400 617.9,400.4 611.3,400.9 604.7,400.1 598,400.4 591.4,401 584.8,400.3 578.2,400.7 571.5,400.2 564.9,400.1 
	558.3,400.6 551.7,400.7 545,400.2 538.4,400.9 531.8,400.4 525.2,400.6 518.6,400.4 511.9,400.8 505.3,400.3 498.7,400.3 
	492,400.4 485.4,400.7 478.4,402.3 473,407.3 471.8,414.5 471.3,421.1 471.1,427.6 471.6,434.2 471,440.8 471.6,447.3 471.2,453.9 
	471.7,460.4 471.2,467 471.5,473.6 471.7,480.1 471.6,486.7 471.1,493.3 471.3,499.8 471.6,506.4 471.3,513 471,519.5 471.3,526.1 
	471.8,532.7 471.4,539.2 471.7,545.8 471.2,552.3 471,558.9 471.6,565.3 477.9,565.5 484.4,565.2 490.8,565.7 497.3,566 
	503.8,565.1 510.3,565.5 516.7,565.3 523.2,565.9 529.7,565.7 536.2,566 542.6,565.4 549.1,565.6 555.6,565.5 562,565.7 
	568.5,565.8 575,565.4 581.5,565.4 588,565.7 594.4,565.3 600.9,565.2 607.4,566 613.9,565.5 620.3,565.6 626.8,565.9 633.3,565 
	639.8,565 646.2,565.7 652.7,565.7 659.2,565.1 665.7,565.7 672.2,565.5 678.6,565.5 685.1,565.9 691.6,566 698.3,565.8 
	697.8,558.9 697.9,552.4 697.6,545.8 698.2,539.3 697.8,532.7 698,526.1 698.3,519.6 697.9,513 698,506.4 697.8,499.9 698.5,493.3 
	698.4,486.7 698.4,480.2 698.1,473.6 698.3,467 698.5,460.5 698,453.9 697.7,447.4 697.9,440.8 697.9,434.2 697.9,427.6 
	698.2,421.1 698.5,414.5 695.9,407.7 691,402.5 "/>
<polyline class="st0" points="497.5,432.4 504,431.5 510.5,432 516.9,432.2 523.4,431.8 529.9,432.5 536.4,432.1 542.8,432.4 
	549.3,432 555.8,432.2 562.3,431.5 568.8,432 575.3,432 581.7,431.5 588.2,432.2 594.7,432.2 601.2,432.4 607.7,432.1 614.1,432.3 
	620.6,431.7 627.1,432.5 633.6,432.4 640.1,432.1 646.5,432 653,432.3 659.5,432.3 666,431.8 672.5,432.1 "/>
<polyline class="st3" points="497.5,432.4 504,431.5 510.5,432 516.9,432.2 523.4,431.8 529.9,432.5 536.4,432.1 542.8,432.4 
	549.3,432 555.8,432.2 562.3,431.5 568.8,432 575.3,432 581.7,431.5 588.2,432.2 594.7,432.2 601.2,432.4 607.7,432.1 614.1,432.3 
	620.6,431.7 627.1,432.5 633.6,432.4 640.1,432.1 646.5,432 653,432.3 659.5,432.3 666,431.8 672.5,432.1 "/>
<polyline class="st0" points="497.5,467.4 504,467.3 510.5,466.8 516.9,466.9 523.4,467 529.9,467.3 536.4,467.3 542.8,466.5 
	549.3,466.9 555.8,467.4 562.3,466.8 568.8,466.8 575.3,466.6 581.7,467.1 588.2,467.1 594.7,466.6 601.2,467.2 607.7,466.8 
	614.1,466.9 620.6,467.4 627.1,467.1 633.6,467.3 640.1,466.8 646.5,467.4 653,467.2 659.5,467.4 666,467.2 672.5,466.7 "/>
<polyline class="st3" points="497.5,467.4 504,467.3 510.5,466.8 516.9,466.9 523.4,467 529.9,467.3 536.4,467.3 542.8,466.5 
	549.3,466.9 555.8,467.4 562.3,466.8 568.8,466.8 575.3,466.6 581.7,467.1 588.2,467.1 594.7,466.6 601.2,467.2 607.7,466.8 
	614.1,466.9 620.6,467.4 627.1,467.1 633.6,467.3 640.1,466.8 646.5,467.4 653,467.2 659.5,467.4 666,467.2 672.5,466.7 "/>
<polyline class="st0" points="497.5,502.4 504,502.1 510.5,502 516.9,501.9 523.4,502.5 529.9,501.8 536.4,501.8 542.8,501.9 
	549.3,501.6 555.8,502 562.3,501.9 568.8,501.8 575.3,502.5 581.7,501.7 588.2,501.6 594.7,502.4 601.2,501.5 607.7,501.9 
	614.1,502.4 620.6,502.2 627.1,501.6 633.6,502.5 640.1,502.1 646.5,502.1 653,502.1 659.5,501.9 666,502.4 672.5,502 "/>
<polyline class="st3" points="497.5,502.4 504,502.1 510.5,502 516.9,501.9 523.4,502.5 529.9,501.8 536.4,501.8 542.8,501.9 
	549.3,501.6 555.8,502 562.3,501.9 568.8,501.8 575.3,502.5 581.7,501.7 588.2,501.6 594.7,502.4 601.2,501.5 607.7,501.9 
	614.1,502.4 620.6,502.2 627.1,501.6 633.6,502.5 640.1,502.1 646.5,502.1 653,502.1 659.5,501.9 666,502.4 672.5,502 "/>
<polyline class="st0" points="497.5,537.4 504,536.8 510.5,536.5 516.9,537 523.4,536.8 529.9,537.1 536.4,537.4 542.8,536.7 
	549.3,537.4 555.8,536.7 562.3,537.2 568.8,536.9 575.3,537.4 581.7,536.7 588.2,537.3 594.7,537.2 601.2,537.2 607.7,536.6 
	614.1,537.5 620.6,536.8 627.1,537 633.6,536.5 640.1,536.9 646.5,537.1 653,537 659.5,536.6 666,537.2 672.5,537.1 "/>
<polyline class="st3" points="497.5,537.4 504,536.8 510.5,536.5 516.9,537 523.4,536.8 529.9,537.1 536.4,537.4 542.8,536.7 
	549.3,537.4 555.8,536.7 562.3,537.2 568.8,536.9 575.3,537.4 581.7,536.7 588.2,537.3 594.7,537.2 601.2,537.2 607.7,536.6 
	614.1,537.5 620.6,536.8 627.1,537 633.6,536.5 640.1,536.9 646.5,537.1 653,537 659.5,536.6 666,537.2 672.5,537.1 "/>
<polygon class="st0" points="335.6,472.6 330.1,475.1 327.6,480.6 325.7,486.3 326.3,492.4 327.4,498.8 330.7,504.5 336.9,504.5 
	340.3,499 341.1,491.9 341,484.7 339.8,477.7 "/>
<polygon class="st4" points="335.6,472.6 330.1,475.1 327.6,480.6 325.7,486.3 326.3,492.4 327.4,498.8 330.7,504.5 336.9,504.5 
	340.3,499 341.1,491.9 341,484.7 339.8,477.7 "/>
<polyline class="st0" points="349.7,470 350.3,476.5 351,482.9 351.7,489.3 352,495.8 352,502.3 351.4,507.2 "/>
<polyline class="st4" points="349.7,470 350.3,476.5 351,482.9 351.7,489.3 352,495.8 352,502.3 351.4,507.2 "/>
<polyline class="st0" points="363.7,474.3 359.1,478.3 355.6,483.2 351.4,487.4 355.7,491.4 359.9,495.7 363.5,500.5 365.5,505.4 
	"/>
<polyline class="st4" points="363.7,474.3 359.1,478.3 355.6,483.2 351.4,487.4 355.7,491.4 359.9,495.7 363.5,500.5 365.5,505.4 
	"/>
<polyline class="st0" points="386.3,473.2 379.6,473.4 374,477.5 371.9,484.3 371.9,490.5 373.3,496.6 377.2,501.4 382.9,502.5 
	387.3,498.7 390.1,493.3 "/>
<polyline class="st4" points="386.3,473.2 379.6,473.4 374,477.5 371.9,484.3 371.9,490.5 373.3,496.6 377.2,501.4 382.9,502.5 
	387.3,498.7 390.1,493.3 "/>
<polygon points="331.2,408.2 341,413.2 316.8,411.8 314.3,410.7 "/>
</svg>
