<svg xmlns="http://www.w3.org/2000/svg" viewBox="0 0 800 800"><defs><style>.a{fill:#fff;}.b,.c{fill:none;stroke:#000;stroke-width:13px;}.b{stroke-linecap:round;stroke-linejoin:round;}.c{stroke-miterlimit:10;}</style></defs><title>Asset 2</title><rect class="a" width="800" height="800"/><rect class="a" width="800" height="800"/><polyline class="b" points="369.56 370.15 370.33 376.71 370.74 383.28 370.07 389.89 370.42 396.47 371.6 403.01 371.14 409.62 371.61 416.19 371.42 422.78 371.83 429.36 372.91 435.9 373.08 442.48 373.49 449.05 373.77 455.63 373.61 462.23 373.75 468.81 373.83 475.4 374.05 481.98 374.68 488.54 374.8 495.13 374.77 501.72 375.15 508.29 376.03 514.85 375.62 521.46 376.58 528 376.76 534.59 376.68 541.18 376.74 547.77 377.49 554.32 377.86 560.89 378.26 567.47 378.35 574.05 378.16 580.65 379.45 587.18 379.23 593.78 379.86 600.35 379.56 606.95 379.63 613.54 380.92 620.07 380.2 626.7 380.44 633.28 380.73 639.86 382.06 646.39 382.35 652.97 382.11 659.58 382.42 666.16 383.05 672.73 382.98 679.32 383.41 685.89 383.98 692.46 384.29 699.04 383.64 705.66 384.86 712.21 385.07 718.79 385.45 725.37 384.81 732 385.65 738.57"/><polyline class="b" points="439.87 352.75 438.97 359.23 437.58 365.63 437.04 372.17 436.46 378.69 435.07 385.1 434.71 391.66 433.69 398.12 432.09 404.49 431.02 410.94 430.36 417.46 428.99 423.87 428.04 430.34 428.1 436.96 427.07 443.43 425.44 449.8 425.08 456.35 424.19 462.84 423.14 469.3 421.39 475.65 420.73 482.16 419.61 488.61 418.84 495.11 417.73 501.56 416.6 508 415.71 514.49 415.62 521.09 413.96 527.45 413.68 534.02 411.79 540.36 411.55 546.93 410.22 553.34 408.99 559.78 408.84 566.36 407.76 572.82 406.5 579.24 405.47 585.7 404.76 592.21 404.13 598.73 402.78 605.15 401.35 611.55 400.62 618.06 400.08 624.59 398.94 631.04 398.38 637.57 397.18 644.01 396.04 650.46 394.74 656.88 393.92 663.37 393.3 669.89 391.97 676.31 391.06 682.79 389.75 689.22 388.77 695.69 388.29 702.24 387.16 708.69 386.02 715.15 385.57 721.71"/><polyline class="b" points="403.88 361.47 403.39 367.95 402.4 374.4 402.56 380.93 402.27 387.42 401.2 393.87 401.21 400.38 401.13 406.89 400.73 413.38 399.62 419.83 399.44 426.33 399.76 432.86 398.49 439.3 398.09 445.79 398.19 452.31 398.04 458.81 397.02 465.26 396.55 471.75 396.56 478.26 395.82 484.73 395.48 491.23 394.89 497.7 394.79 504.21 394.38 510.7 394.62 517.22 394.25 523.71 393.03 530.15 392.92 536.65 392.7 543.15 391.8 549.61 392.24 556.15 391.24 562.61 390.79 569.09 391.1 575.63 390.33 582.09 390.14 588.6 389.14 595.05 388.86 601.55 388.96 608.08 388.39 614.56 388.17 621.06 387.01 627.51 387.12 634.02 386.52 640.5 386.39 647.01 385.98 653.5 385.02 659.96 384.67 666.46 385.09 673 384.24 679.47 384.26 686 383.57 692.48"/><polygon class="b" points="454.16 300.68 447.81 302.2 441.33 303.45 434.95 305.11 428.52 306.55 422.08 307.97 415.68 309.52 409.22 310.83 402.8 312.33 396.41 313.97 389.98 315.39 383.55 316.87 377.12 318.29 370.66 319.67 364.27 321.32 357.91 322.82 357.51 329.19 357.03 335.61 356.43 342.04 355.9 348.46 355.51 354.9 355.22 361.35 354.72 367.71 361.06 366.19 367.54 364.94 373.95 363.41 380.33 361.74 386.81 360.52 393.18 358.82 399.65 357.58 406.04 355.94 412.49 354.58 418.93 353.15 425.35 351.67 431.75 350.08 438.19 348.65 444.6 347.07 451.03 345.64 451.36 339.22 451.99 332.8 452.5 326.37 452.97 319.95 453.32 313.5 453.61 307.06 454.16 300.68"/><polyline class="b" points="369.7 319.93 369.34 313.3 368.92 306.68 368.34 300.06 368.14 293.42 367.65 286.8 367.38 280.17 366.9 273.54 366.58 266.91 366.36 260.27 366.42 253.62 365.66 247.01 365.62 240.37 364.94 233.75 364.59 227.12 364.46 220.47 364.4 213.82 363.89 207.2 363.23 200.58 363.24 193.93 363 187.3 362.61 180.67 362.11 174.04 361.67 167.41 361.69 160.76 361.12 154.13 360.83 147.5 360.34 140.86 359.93 134.22 359.56 127.49 364.92 124.13 370.39 121.11 375.41 117.39 380.61 113.96 385.97 110.77 391.13 107.28 396.63 104.3 401.71 100.66 407.03 97.08 412.35 101.15 417.67 104.95 423.13 108.52 428.49 112.27 434.25 115.41 439.42 119.37 439.79 125.91 439.81 132.5 439.64 139.1 439.56 145.69 439.37 152.28 439.42 158.88 439.57 165.47 439.52 172.06 439.21 178.66 439.52 185.25 439.18 191.84 439.41 198.44 439.71 205.03 439.33 211.63 439.72 218.23 439.33 224.82 439.43 231.42 439.43 238.02 439.57 244.61 439.34 251.2 439.58 257.8 439.69 264.4 439.32 270.99 439.45 277.59 439.71 284.19 439.56 290.79 439.31 297.39 439.33 304"/><polyline class="b" points="407.05 97.4 407.26 103.91 406.87 110.41 407.06 116.91 406.99 123.41 406.89 129.91 406.94 136.41 406.6 142.91 406.52 149.41 406.22 155.91 406.34 162.42 406.52 168.92 406 175.42 406.07 181.93 405.91 188.43 405.7 194.93 406 201.44 405.77 207.94 405.57 214.44 405.56 220.95 405.66 227.46 405.75 233.97 405.51 240.47 405.11 246.97 405.19 253.47 404.83 259.97 405.05 266.48 404.81 272.99 405.17 279.5 405.06 286.01 404.92 292.51 404.88 299.02 404.74 305.54 404.51 312.05"/><polyline class="b" points="367.25 118.3 366.32 111.76 366 105.16 366.07 98.55 367.06 92.02 368.79 85.64 371.66 79.69 375.82 74.58 381.02 70.54 387.01 67.75 393.5 66.47 400.09 66.02 406.92 66.43 413.6 67.88 419.88 70.54 425.4 74.57 429.51 80.04 432.14 86.34 433.71 92.99 434.2 99.82 433.7 106.64 432.61 113.38"/><polygon points="416.41 309.47 411.14 304.96 406.06 300.51 406.3 294.13 406.13 287.62 406.44 281.13 406.49 274.63 406.65 268.12 407.12 261.63 407.21 255.13 407.2 248.62 407.3 242.12 407.64 235.62 407.75 229.11 407.94 222.61 408.05 216.1 408.54 209.61 408.72 203.1 408.88 196.6 408.77 190.09 409.24 183.59 409.06 177.07 409.32 170.57 409.63 164.07 410 157.58 409.78 151.06 409.85 144.55 410.14 138.05 410.53 131.54 410.36 125.03 410.75 118.53 411.19 112.02 411.13 105.48 416.75 109.61 422.63 113.34 428.16 117.58 434.1 121.23 440.01 125.13 439.38 131.66 439.37 138.09 439.25 144.52 438.99 150.94 438.75 157.37 438.31 163.79 438.54 170.22 438.29 176.65 437.88 183.07 437.48 189.49 437.39 195.92 437.63 202.36 437.38 208.79 437.23 215.22 436.81 221.64 436.75 228.07 436.17 234.49 436 240.92 435.89 247.34 435.73 253.77 435.5 260.2 435.62 266.64 435.19 273.06 434.73 279.48 434.77 285.92 434.6 292.35 434.18 298.79 434.25 305.3 428.21 306.36 422.31 307.72 416.41 309.47"/><polygon class="a" points="660.43 556.03 653.92 556.65 647.3 556.57 640.96 558.29 634.51 559.26 628.09 560.55 621.59 561.25 615.15 562.28 608.67 563.13 602.22 564.16 595.71 564.76 589.2 565.39 582.87 567.25 576.23 567.03 569.78 568.05 563.42 569.69 556.91 570.34 550.49 571.63 543.99 572.34 537.6 573.79 531.13 574.73 524.62 575.33 518.15 576.3 511.78 577.88 505.33 578.93 498.8 579.4 492.3 580.16 485.95 581.91 479.48 582.81 472.93 583.17 466.43 583.95 459.91 584.53 453.41 585.29 447.01 586.77 440.66 588.53 434.86 588.64 429.18 587.58 423.53 586.84 417.37 584.53 410.94 583.15 404.53 581.67 398.4 579.28 391.99 577.83 385.93 575.19 379.41 574.11 373.31 571.6 366.71 570.78 360.83 567.54 354.44 566 347.9 565 341.81 562.44 335.39 561.06 328.98 559.61 322.76 557.5 316.44 555.75 310.48 552.76 304 551.55 297.87 549.15 291.5 547.58 284.93 546.66 278.95 543.75 272.57 542.2 266.12 540.88 260.06 538.24 253.57 537.01 247.35 534.92 241.25 532.42 234.88 530.8 228.54 529.12 222.05 527.9 215.7 526.24 209.5 524.05 203.1 522.57 196.93 520.29 190.59 518.58 184.39 516.41 178.28 513.93 171.62 513.29 165.61 510.47 159.37 508.44 152.78 507.54 146.84 504.46 140.43 502.96 141.09 498.98 147.56 498.08 154.09 497.63 160.5 496.35 166.94 495.27 173.48 494.81 180 494.26 186.43 493.1 192.79 491.52 199.2 490.2 205.81 490.23 212.21 488.83 218.76 488.5 225.22 487.53 231.64 486.3 238.2 485.98 244.66 484.97 251.1 483.89 257.4 481.82 263.98 481.66 270.34 480 276.94 479.9 283.44 479.18 289.75 477.18 296.25 476.51 302.65 475.13 309.11 474.12 315.74 474.3 322.02 472.1 328.67 472.36 335.05 470.77 341.58 470.31 347.89 468.26 354.45 467.88 361.02 467.56 366.64 466.48 372.34 467.14 377.74 468.85 384.03 470.7 390.68 471.36 396.93 473.36 402.94 476.14 409.52 477.05 415.62 479.55 421.91 481.4 428.19 483.3 434.51 485.06 440.81 486.9 447.1 488.76 453.47 490.35 459.67 492.52 466.19 493.59 472.56 495.18 478.76 497.34 484.81 499.99 491 502.19 497.53 503.25 504 504.49 509.92 507.6 516.22 509.44 522.8 510.32 528.86 512.96 535.32 514.26 541.62 516.09 547.95 517.79 554.33 519.35 560.51 521.62 566.93 523.02 572.88 526.07 579.26 527.64 585.7 529 591.83 531.41 598.14 533.21 604.35 535.37 610.79 536.7 616.86 539.33 623.37 540.46 629.67 542.31 636.02 544 642.15 546.42 648.64 547.63 654.74 550.19 661.15 551.67 660.43 556.03"/><polygon class="c" points="660.43 556.03 653.92 556.65 647.3 556.57 640.96 558.29 634.51 559.26 628.09 560.55 621.59 561.25 615.15 562.28 608.67 563.13 602.22 564.16 595.71 564.76 589.2 565.39 582.87 567.25 576.23 567.03 569.78 568.05 563.42 569.69 556.91 570.34 550.49 571.63 543.99 572.34 537.6 573.79 531.13 574.73 524.62 575.33 518.15 576.3 511.78 577.88 505.33 578.93 498.8 579.4 492.3 580.16 485.95 581.91 479.48 582.81 472.93 583.17 466.43 583.95 459.91 584.53 453.41 585.29 447.01 586.77 440.66 588.53 434.86 588.64 429.18 587.58 423.53 586.84 417.37 584.53 410.94 583.15 404.53 581.67 398.4 579.28 391.99 577.83 385.93 575.19 379.41 574.11 373.31 571.6 366.71 570.78 360.83 567.54 354.44 566 347.9 565 341.81 562.44 335.39 561.06 328.98 559.61 322.76 557.5 316.44 555.75 310.48 552.76 304 551.55 297.87 549.15 291.5 547.58 284.93 546.66 278.95 543.75 272.57 542.2 266.12 540.88 260.06 538.24 253.57 537.01 247.35 534.92 241.25 532.42 234.88 530.8 228.54 529.12 222.05 527.9 215.7 526.24 209.5 524.05 203.1 522.57 196.93 520.29 190.59 518.58 184.39 516.41 178.28 513.93 171.62 513.29 165.61 510.47 159.37 508.44 152.78 507.54 146.84 504.46 140.43 502.96 141.09 498.98 147.56 498.08 154.09 497.63 160.5 496.35 166.94 495.27 173.48 494.81 180 494.26 186.43 493.1 192.79 491.52 199.2 490.2 205.81 490.23 212.21 488.83 218.76 488.5 225.22 487.53 231.64 486.3 238.2 485.98 244.66 484.97 251.1 483.89 257.4 481.82 263.98 481.66 270.34 480 276.94 479.9 283.44 479.18 289.75 477.18 296.25 476.51 302.65 475.13 309.11 474.12 315.74 474.3 322.02 472.1 328.67 472.36 335.05 470.77 341.58 470.31 347.89 468.26 354.45 467.88 361.02 467.56 366.64 466.48 372.34 467.14 377.74 468.85 384.03 470.7 390.68 471.36 396.93 473.36 402.94 476.14 409.52 477.05 415.62 479.55 421.91 481.4 428.19 483.3 434.51 485.06 440.81 486.9 447.1 488.76 453.47 490.35 459.67 492.52 466.19 493.59 472.56 495.18 478.76 497.34 484.81 499.99 491 502.19 497.53 503.25 504 504.49 509.92 507.6 516.22 509.44 522.8 510.32 528.86 512.96 535.32 514.26 541.62 516.09 547.95 517.79 554.33 519.35 560.51 521.62 566.93 523.02 572.88 526.07 579.26 527.64 585.7 529 591.83 531.41 598.14 533.21 604.35 535.37 610.79 536.7 616.86 539.33 623.37 540.46 629.67 542.31 636.02 544 642.15 546.42 648.64 547.63 654.74 550.19 661.15 551.67 660.43 556.03"/><polygon points="410.52 511.96 410.52 512.06 404.03 511.71 397.53 511.78 391.05 512.08 384.58 512.64 378.19 513.86 373.08 517.46 372.63 519.43 364.24 518.77 357.75 518.37 351.25 518.46 344.74 518.59 338.28 519.38 331.96 520.87 326.88 524.32 330.65 528.51 336.48 530.45 342.42 532.03 348.48 533.13 354.6 533.83 360.75 534.26 367.14 534.81 373.56 535.04 379.95 535.54 386.35 536.07 392.76 536.26 399.17 536.71 405.56 537.23 411.99 537.37 418.39 537.86 424.8 538.29 431.21 538.72 437.62 539.08 439.82 539.25 440.8 538.67 441.96 533.07 443.3 527.51 444.4 521.89 440.56 517.82 434.8 515.7 428.83 514.27 422.8 513 416.67 512.39 410.52 511.96"/><polyline class="b" points="231.51 514.05 225.9 511.31 220.33 508.47 214.7 505.73 209.05 502.97 215.96 504.34 222.84 505.69 229.71 507.13 236.6 508.44 243.47 509.89 250.37 511.24"/><polyline class="b" points="208.02 510.35 214.47 509.44 220.91 508.46 227.36 507.5"/><polyline class="b" points="577.71 540.07 583.32 542.82 588.96 545.51 594.55 548.32 600.15 551.02 593.31 549.65 586.43 548.27 579.54 546.97 572.67 545.51 565.78 544.19 558.88 542.87"/><polyline class="b" points="587.08 545.84 580.64 546.82 574.19 547.75 567.75 548.75"/><polygon class="a" points="369.96 459.78 371.21 466.12 372.36 472.39 373.51 478.67 374.79 484.93 375.94 491.21 377.01 497.5 378.21 503.77 379.36 510.05 380.63 516.31 381.87 522.58 382.99 528.88 388.23 527.67 393.27 525.8 391.87 519.4 392.25 512.62 392.71 505.87 392.93 499.11 393.43 492.36 393.81 485.61 393.98 478.84 394.32 472.08 394.67 465.32 395.07 458.61 389.19 458.71 383.25 459.06 377.31 459.2 369.96 459.78"/><polygon class="a" points="402.85 461.98 402.54 468.74 402.11 475.48 401.77 482.22 401.37 488.96 400.93 495.7 400.49 502.44 400.17 509.19 399.8 515.94 399.36 522.69 397.92 523.83 404.52 522.5 411.33 522.47 413.04 516.89 414.89 511.37 416.84 505.87 418.66 500.33 418.9 493.94 419.2 487.55 419.61 481.17 419.78 474.78 420.15 468.39 420.43 462.01 414.59 461.96 408.73 461.96 402.85 461.98"/><path d="M446.3,352.76l6.14-1.06,5.61-5.55-.31-6.48.62-6.42.77-6.41.7-6.41-.07-6.47.87-6.41.6-6.43-2.42-5.86-6-.59-7.18,1.63.56-7-.25-6.54.14-6.53-.56-6.53.64-6.54-.59-6.53.69-6.54-.24-6.53.47-6.54-.85-6.54L445.6,224l-.13-6.54.73-6.54.12-6.54-.21-6.54-.1-6.54.32-6.54.06-6.53-1-6.54,1.18-6.54-.77-6.54L446,152l-.22-6.54,0-6.54.29-6.54v-6.55l-.42-6.55-2.26-5.74-3.71-2,.56-6.68V98.24L440,91.54l-1.28-6.6-2.94-6-3.55-5.59-3.68-4.86-5.14-3.27L418,62.38l-5.74-2.22-6.08-1-6.14.09-7.09.58L386,61l-6.8,2.31-5.64,4.44L369,73.16l-3.69,5.7-3,6.17-2.18,6.58-.08,6.94-.8,6.87,1,6.85.61,6.86-4.34,3.43-2.6,5.31-.26,6.47.47,6.44.26,6.45,0,6.46-.11,6.47.7,6.43.25,6.45.36,6.44.56,6.44-.28,6.48.76,6.43.52,6.44.38,6.45.25,6.45.58,6.44.5,6.44-.49,6.49,1.32,6.4.3,6.45.43,6.44.3,6.45.13,6.46-.2,6.48,1.08,6.41-1,6.52.81,6.43,1.17,6.41-.81,6.52,1,6.6-6.7.92-5.48,6.22-.09,6.45-.63,6.42.09,6.47-1,6.39-.46,6.43-.44,6.44.42,6.5,2,5.07,4,2,1.46-.26,7.35-2,.57,7-.8,6.72.85,6.65.36,6.67v6.69l1,6.64-.29,6.7.07,6.68,1.07,6.64-.21,6.7.64,6.66-.11,6.69-.07,6.69,1.21,6.64-.17,6.69,0,6.69,1.16,6.64-.64,6.72.28,6.68,1.17,6.64-.88,6.73.12,6.69,1.59,6.53,5.82,2.19,7,.86-1-6.7,0-6.63.28-6.65-1.25-6.58.31-6.65-.24-6.63-.47-6.61.11-6.64-1.28-6.58,1.06-6.68L380,456l-.15-6.63,0-6.64-1-6.6-.2-6.62-.36-6.62v-6.64l-.2-6.63-.94-6.6.14-6.65.21-6.65-.28-6.63-.92-6.61-.39-6.63.16-.76,6.89-1.78,6.93-1.63,7.38-1.37-.77,6.94-.83,6.52.27,6.59-.61,6.53-.12,6.56L394,404l.73,6.62-1,6.51-.69,6.53,0,6.57-.83,6.52-.3,6.56.08,6.58-.08,6.57-1.54,6.48.49,6.6-.11,6.57-.3,6.56-1,6.52-1,6.51-.21,6.56v6.57l-.56,6.54,0,6.58-.2,6.34,7.37-1.92,5.64-1.91,0-6.6.55-6.49.18-6.51.26-6.5.92-6.47-.18-6.53.42-6.5,1.07-6.46-.56-6.56,1.23-6.45.34-6.5.08-6.52.65-6.48.92-6.47-.09-6.53.62-6.48.54-6.49,0-6.52.24-6.51.41-6.5.45-6.5-.31-6.54.37-6.51.64-6.49.29-6.52.49-.09,5.55-1.85,6-.12,5.6-1.67,5.66-1.63-.76,6.49-.5,6.48-1.8,6.29-.15,6.54-2.14,6.24-.09,6.55-1.27,6.37-1.36,6.36-.26,6.52-.92,6.42L422.09,427l-1.23,6.38,0,6.56-.66,6.46-1.48,6.34-1.21,6.38-.59,6.47L415.77,472l-1.19,6.39-.93,6.42-1.37,6.36.1,6.58-1.3,6.37-1.33,6.37-1,6.43-1,6.58,7,.56,6.4,2.5.58-6.51,1.25-6.35.73-6.43.51-6.46,2-6.24.78-6.42.26-6.5,1.85-6.26L430,469l0-6.54,1.46-6.32.64-6.44,1.23-6.36.21-6.51,1.27-6.35,1.75-6.28.59-6.45.27-6.49,1-6.39,1.72-6.29.82-6.42.38-6.48,1.86-6.27.3-6.49,1.08-6.38,1.23-6.37,1.34-6.35ZM378.23,80.55l4.66-3.9,5.65-1.93,5.58-2.09,6-.22,6.12.7,5.89,1.56,5.72,2.15L422,81.24l2.74,5,1.62,5.53L428,97.51l-.63,6.44-5.06-4.36-5.52-3.42-5.29-3.75-2.44-.73-5.64,0-4.8,3.76-5.49,2.69-5,3.46-5.37,2.87-4.66,4-5.19,3.4-1-6.74.94-6.36,1.07-6.24,1.72-6.09Zm22.62,28.11-.08,7.16-.9,6.57.68,6.59-.25,6.58-.41,6.58-.33,6.58.44,6.59-.51,6.58-.23,6.58-.11,6.59.87,6.6.1,6.59-.88,6.58.17,6.59-.23,6.58.47,6.6-.73,6.58.5,6.6-.77,6.58.15,6.59-.56,6.58.77,6.6v6.59l0,6.59-.82,6.58-.21,6.59.12,6.59v6.59l-.41,6.59-.07,6.37-5.13,2.13-5.86.13-5.42,2L375.61,312l-.56-6.48-.3-6.46,0-6.48-.33-6.46-.74-6.44.46-6.5-.76-6.44-.57-6.45-.48-6.45,0-6.48-.16-6.47-.87-6.44-.37-6.46.32-6.5-.69-6.45-.1-6.48.18-6.49-.31-6.47-.71-6.44-.49-6.45-.09-6.48V169.8l-1-6.43-.85-6.44-.33-6.46,0-6.49.17-6.5L366,130.8l6.18-3.27,5.38-4.12,5.9-3.29,5.39-4.1,5.61-3.74ZM361.36,360l.54-6.81,1.25-6.23-.32-6.35.61-6.29.71-6.13,6.52-1.2,6.47-2,6.68-1.1,6.62-1.37L397,321l6.39-2.44.93-.12.08.8,3.47-1.33,6.56-1.36,6.41-2,6.67-.87,6.4-2.07,6.69-.83,6.43-1.74-.94,6.2.41,6.35-.35,6.3-.32,6.31-1.12,6.13-6.31,1.28-6.35,1.67-6.37,1.56-6.46,1.15-6.4,1.41-6.17,2.46-6.66.32-6.22,2.21-6.43,1.3L381,355.32l-6.4,1.44L368.15,358Z"/><polygon class="a" points="334.99 597.03 330.85 601.96 326.91 607.09 322.77 612.08 319.21 617.49 315.28 622.64 312 628.22 308.35 633.57 305.19 639.22 301.89 644.78 298.72 650.43 296.08 656.34 293.5 662.27 290.91 668.21 288.71 674.29 287.1 680.56 285.67 686.87 284.6 693.24 284.16 699.69 284.27 706.17 285.45 712.53 287.39 718.68 290.06 724.54 293.53 730.01 298.11 734.58 303.05 738.87 308.51 742.49 314.95 743.61 319.96 739.56 322.48 733.54 323.9 727.16 324.87 720.68 325.2 714.13 325.72 707.59 326.04 701.04 325.98 694.48 326.05 687.92 325.97 681.37 326.3 674.82 326.25 668.26 326.34 661.7 326.32 655.14 326.87 648.6 327.15 642.05 327.57 635.5 328.02 628.95 328.73 622.43 329.86 615.96 331.41 609.59 332.83 603.18 334.99 597.03"/><polygon class="b" points="334.99 597.03 330.85 601.96 326.91 607.09 322.77 612.08 319.21 617.49 315.28 622.64 312 628.22 308.35 633.57 305.19 639.22 301.89 644.78 298.72 650.43 296.08 656.34 293.5 662.27 290.91 668.21 288.71 674.29 287.1 680.56 285.67 686.87 284.6 693.24 284.16 699.69 284.27 706.17 285.45 712.53 287.39 718.68 290.06 724.54 293.53 730.01 298.11 734.58 303.05 738.87 308.51 742.49 314.95 743.61 319.96 739.56 322.48 733.54 323.9 727.16 324.87 720.68 325.2 714.13 325.72 707.59 326.04 701.04 325.98 694.48 326.05 687.92 325.97 681.37 326.3 674.82 326.25 668.26 326.34 661.7 326.32 655.14 326.87 648.6 327.15 642.05 327.57 635.5 328.02 628.95 328.73 622.43 329.86 615.96 331.41 609.59 332.83 603.18 334.99 597.03"/><polygon points="454.19 621.09 457.06 626.81 459.8 632.67 462.5 638.55 464.8 644.61 467.18 650.63 469.45 656.7 471.22 662.93 473.13 669.12 474.68 675.41 476.02 681.75 476.89 688.18 477.11 694.65 477.05 701.12 475.99 707.5 474.28 713.74 470.97 719.32 466.27 723.74 460.69 726.97 454.47 728.8 448.05 728.7 443.87 723.91 442.55 717.57 442.81 711.07 443.36 704.59 444.42 698.16 445.42 691.73 446.74 685.35 447.95 678.96 449.38 672.6 450.81 666.24 451.98 659.83 453.12 653.42 453.91 646.95 454.71 640.48 454.88 633.97 454.81 627.47 454.19 621.09"/><polygon class="b" points="454.19 621.09 457.06 626.81 459.8 632.67 462.5 638.55 464.8 644.61 467.18 650.63 469.45 656.7 471.22 662.93 473.13 669.12 474.68 675.41 476.02 681.75 476.89 688.18 477.11 694.65 477.05 701.12 475.99 707.5 474.28 713.74 470.97 719.32 466.27 723.74 460.69 726.97 454.47 728.8 448.05 728.7 443.87 723.91 442.55 717.57 442.81 711.07 443.36 704.59 444.42 698.16 445.42 691.73 446.74 685.35 447.95 678.96 449.38 672.6 450.81 666.24 451.98 659.83 453.12 653.42 453.91 646.95 454.71 640.48 454.88 633.97 454.81 627.47 454.19 621.09"/><path d="M359.09,170.37l-6.5-1-6.5-1.15a6.55,6.55,0,0,0-1.57-.09l-13.27.84-.24,0-1.75.17,1.95-3,.16-.27,3.2-5.49,3.29-5.29,3.49-5.15,3.72-5.14.1-.15,3.63-5.33a6.5,6.5,0,1,0-10.74-7.32l-3.58,5.26-3.73,5.15-.11.16L327,148l-.14.21-3.28,5.27-.23-5.52q0-.22,0-.43l-.72-6.62q0-.25-.08-.5l-1.24-6.54a6.46,6.46,0,0,0-.23-.88l-2.14-6.31a6.5,6.5,0,1,0-12.31,4.17l2,5.88,1.11,5.84.67,6.15.27,6.3v6.52c0,.06,0,.12,0,.18l.3,10.37a6.51,6.51,0,0,0-1.34.33l-6.28,2.31a6.5,6.5,0,0,0-1,.47l-5.73,3.3L291,181.81l-5.54,3.39a6.46,6.46,0,0,0-.58.4l-5.17,4a6.5,6.5,0,0,0-1,1l-4.24,5.1-4.07,5.06-.09.12-4,5.2-3.9,5.19q-.16.21-.3.43l-3.48,5.49a6.39,6.39,0,0,0-.32.56l-2.81,5.59-3.06,5.08-3.71,5a6.49,6.49,0,0,0-.87,1.61l-2,5.33-3.31,4.58a6.55,6.55,0,0,0-.4.62l-3.21,5.7-3.13,5.67-3.23,5.22L228.83,267l-4.22,4.89a6.46,6.46,0,0,0-.53.7L221,277.27l-4.43,3.5a6.58,6.58,0,0,0-.75.7l-4.35,4.74-4.13,4-5,3.14,3.93-9.93.08-.22,2.17-6.13.05-.15,2-6.07,2.2-6,.11-.31,1.95-6.26,1.88-6.23a6.5,6.5,0,1,0-12.45-3.76l-1.86,6.18-1.88,6.05-2.19,5.95-.08.23-2,6.11-2.1,5.94L190,289.3l-3.46-2.49-5.2-3.88-5.13-4.06a6.5,6.5,0,1,0-8.07,10.19l5.2,4.12.14.11,5.32,4,.1.07,5.39,3.87.34.23.27.17-.39.88-.08.19-.81,2-2.9,1.62-5.45,1.26L169,308.7l-.53.12-6,1.65-5.91,1.14-6.09.72-6.19.46-6.4.17-6.27.22-5.71-.22L120,311.7a6.67,6.67,0,0,0-.67-.11l-6.3-.7-5.8-1-5.63-1.8L95.82,306l-5.5-2.4-5.52-3.13a6.49,6.49,0,0,0-1-.47l-6.06-2.18,4.61-3,.26-.18,5.31-3.83q.22-.16.43-.34l5-4.26.28-.26,4.71-4.55a6.5,6.5,0,0,0-9-9.35l-4.57,4.42-4.61,4-5,3.57-5.27,3.41-3.44,2.07-.18-1-.88-5.89-.55-5.78-.06-5.49.77-5.71a6.5,6.5,0,0,0-12.88-1.73l-.83,6.17a6.49,6.49,0,0,0-.06.93l.07,6.24c0,.18,0,.37,0,.55l.6,6.22q0,.17,0,.34l.92,6.18c0,.08,0,.17,0,.25l.36,1.89-4.25-.24L43,292a6.45,6.45,0,0,0-1,0l-6.3.52-6.33-.19a6.31,6.31,0,0,0-1.13.06l-13.24,1.91-.36.06-6.47,1.31L1.6,296.77a6.42,6.42,0,0,0-1.08.29l-.52.19v13.81l4.39-1.58,6-1.05.17,0L17,307.11l12.49-1.81,5.39.17-11,5.43-.36.19-5.67,3.26a6.5,6.5,0,1,0,6.48,11.27l5.5-3.16,11.63-5.71,5.76-2.92L53,311l4.28-2.11.12.49.06.23,1.67,6.09,1.71,6a6.5,6.5,0,0,0,12.5-3.57l-1.7-5.94-.85-3.11,2.17.82.1,0,5.76,2.07,5.33,3a6.43,6.43,0,0,0,.61.31l6,2.61.35.14,6.12,2.26.27.09,6.22,2a6.54,6.54,0,0,0,.92.22l6.44,1.06.34,0,6.13.68,6.07,1.32a6.43,6.43,0,0,0,1.13.14l6.52.25h.48l6.45-.23,6.5-.17.31,0,6.49-.49.28,0,6.46-.77.46-.07,6.39-1.23.49-.11,6-1.65,5-.93-2.57,5.88A6.5,6.5,0,1,0,186,331.6l5.19-11.88,2.48-5.4,3.73-1.37a6.52,6.52,0,0,0,1.49-.78l1.93-1.35,1.64.81.48.21,6.16,2.45.35.13,6.29,2.1.29.09,6.38,1.8.4.1,6.49,1.39A6.5,6.5,0,1,0,232,307.2l-6.29-1.35-6-1.7-6-2-.54-.21,1.68-1.06a6.5,6.5,0,0,0,1.07-.84l4.75-4.63.25-.26,4.12-4.49,4.86-3.84a6.5,6.5,0,0,0,1.42-1.55l3.4-5.23,4-4.69.22-.27,4.07-5.25a6.43,6.43,0,0,0,.39-.56l3.49-5.65.16-.27,3.18-5.76,3-5.33,3.62-5a6.5,6.5,0,0,0,.83-1.55l2-5.29,3.35-4.52q.18-.25.34-.51l3.35-5.56q.13-.22.24-.44l2.77-5.53,3.16-5,3.71-4.93,3.9-5.08,4-4.92,3.72-4.47,4.32-3.34,5.17-3.16,4.75-2.82-1.63,3-.09.16-2.84,5.56-3.19,5.37-.1.18-9.22,16.88-3.22,5.36-3.43,5.45-3.38,5.49a6.5,6.5,0,1,0,11.07,6.82l3.35-5.44,3.43-5.46.07-.12,3.32-5.53.13-.22,6.15-11.31,3.06-5.55,3.24-5.46.2-.36,2.89-5.66,2.7-4.94.78,2.18a6.49,6.49,0,0,0,.52,1.1l3.38,5.74a6.5,6.5,0,1,0,11.21-6.59l-3.07-5.22-1.9-5.29-.74-3.47.91-.22,6.08-.58,12.45-.78,5.81,1,.18,0,6.59,1a6.5,6.5,0,0,0,1.9-12.86Z"/><path d="M800,128.28l-1.78.38-6.17.59-.45.06-6.48,1.08a6.46,6.46,0,0,0-.72.16l-5.57,1.59-5.84.18a6.51,6.51,0,0,0-1.9.35l-6,2.06-6,1.53-6.23,1.36-6.38,1.24-.31.07-6.37,1.57-.47.13-5.72,1.87-6,.89a6.51,6.51,0,0,0-1.2.3l-6.21,2.18-.5.2-5.81,2.59-5.85,2.1-6.14,2-.13,0-6.2,2.15-.36.14-2.27.94,3.3-5.64,3.41-5.71,3.51-5.65a6.5,6.5,0,1,0-11-6.85l-3.54,5.7-.06.1-3.46,5.81-3.35,5.73-3.48,5.66-.07.12L674.8,161l-1.56,2.53-3.82-.44-.18,0-6.56-.57-6.19-.45-6.13-1L650,161l-19.22-2.07-6.34-.87-.16,0-12.91-1.45a6.5,6.5,0,1,0-1.44,12.92L622.71,171l6.35.87.19,0,12.95,1.44,6.26.63,3,.49-4.66,2.39a6.53,6.53,0,0,0-.86.53l-5.19,3.79-5.08,3.29-5.58,2.87a6.59,6.59,0,0,0-.8.48L624,191.57l-.42.32-4.77,4-5.3,3.55-.38.28-5.24,4.09-5.36,4.07a6.58,6.58,0,0,0-.9.83l-4,4.43-4.95,3.26a6.58,6.58,0,0,0-.74.57l-5,4.42-5.07,4.32-.24.21L577,230.32,572.13,234l-5.47,3.43a6.39,6.39,0,0,0-.63.45l-4.93,4-5.37,3.34a6.5,6.5,0,0,0-.55.38l-4.87,3.77-5.46,2.83-.45.26-5.11,3.19h0l.25-1.15L544,235.19a6.5,6.5,0,0,0-12.67-2.89l-2.91,12.85-1.51,6.44,0,.11-.21,1-6.09-3.8-4.71-3.6-4.59-3.86-4.32-4.19-4.3-4.53a6.5,6.5,0,1,0-9.43,9l4.39,4.63.19.19,4.58,4.44.34.3,4.88,4.11.24.19,5.07,3.87q.24.18.49.34l5.45,3.4-3.26.89-12.23,1.33L498,265l-5.62-1.75-5.94-2L481,258.81l-4.85-3-9.45-8.65-.27-.23-5-4.07-4.5-4.32-4.4-4.78-.09-.09-4.35-4.54-3.78-5.06a6.35,6.35,0,0,0-.55-.64l-4.52-4.66L435,213.82a6.45,6.45,0,0,0-.58-.6l-5-4.48-.18-.15-.77-.65-1.1-5.9c0-.1,0-.19-.06-.28l-1.53-6.53,0-.17-3.45-13a6.5,6.5,0,0,0-12.55,3.37l2.65,10a6.5,6.5,0,0,0-6.21,11.41l5.07,2.86,4.07,4.15q.22.23.47.43l.85.71.53,2.64,1.14,6.52,0,.19,1.32,6.39.95,6.37.9,6.64,0,.22,1.11,6.49.87,6.52,0,.12,2,13.24a6.5,6.5,0,1,0,12.86-1.89l-2-13.24-.87-6.58c0-.08,0-.16,0-.24l-1.11-6.5-.9-6.62-.66-4.43,1.3,1.34,3.76,5a6.49,6.49,0,0,0,.52.61l4.59,4.78,4.49,4.87.28.28,4.83,4.64.39.35,5.06,4.12,9.73,8.9a6.5,6.5,0,0,0,1,.74l5.71,3.54a6.42,6.42,0,0,0,.69.37l6.09,2.82a6.32,6.32,0,0,0,.7.28l6.34,2.09.1,0,6.42,2a6.48,6.48,0,0,0,1.51.28l6.71.44h.42a6.46,6.46,0,0,0,.7,0l13.3-1.44a6.52,6.52,0,0,0,1-.19l3.21-.87-.37,1.76,0,.16-1.18,6.44-1.31,6.41a6.5,6.5,0,1,0,12.74,2.6l1.32-6.48,0-.13,1.18-6.42,1.32-6.33.41-1.81.57.27q.28.14.58.24l6,2.2.16.06,12.12,4.07.28.09,6.14,1.74.42.1,6.16,1.31,6.12,1.47.21,0,6.25,1.29a6.5,6.5,0,0,0,2.63-12.73l-6.15-1.27-6.1-1.47-.17,0-6-1.29-5.79-1.64-8.28-2.78.16-.1,5.75-3a6.5,6.5,0,0,0,1-.63l5.07-3.93,5.43-3.38a6.45,6.45,0,0,0,.65-.46l4.94-4,5.39-3.38q.25-.16.48-.33l5.36-4.07a6.64,6.64,0,0,0,.52-.44l4.79-4.51,5-4.26.09-.08,4.68-4.15,5.26-3.46a6.49,6.49,0,0,0,1.26-1.09l4.13-4.6,4.93-3.75,5.11-4,5.4-3.61a6.64,6.64,0,0,0,.57-.43l4.84-4.07,4.76-3.39,5.46-2.8q.29-.15.57-.33l5.51-3.57.29-.2,4.92-3.59,5.4-2.77.18-.1,2.18-1.21-3.48,5.7-6.87,11.49a6.5,6.5,0,1,0,11.14,6.69l6.86-11.47,3.54-5.78,3.46-5.81,3.36-5.75,1-1.72.87.1,6.38.68,6.37.82.46,0,6.21.36,6.15.9.49.05,6.21.42,6.16.94.44.05,6.24.52,6.18,1,.43.05,6.47.58.59,0a6.5,6.5,0,0,0,.57-13L734,170.4l-6.2-1-.47-.06-6.25-.52-6.2-.94-.53-.06-6.23-.43-6.18-.9h-.06l4.13-1.43,6.17-2,.19-.07,6.17-2.22.45-.18,5.79-2.58,5.37-1.88,5.94-.88a6.47,6.47,0,0,0,1.07-.25l6-2,6-1.48,6.29-1.23.14,0,6.41-1.4.21-.05,6.36-1.62.5-.15,5.34-1.83,5.67-.18a6.52,6.52,0,0,0,1.58-.25l6-1.71,5.89-1,6.32-.6.16,0Z"/></svg>