<svg xmlns="http://www.w3.org/2000/svg" viewBox="0 0 800 800"><defs><style>.a{fill:#fff;}.b,.c,.d,.e{fill:none;stroke:#000;stroke-linejoin:bevel;}.b{stroke-width:13px;}.c,.d{stroke-linecap:square;stroke-width:10px;}.d{stroke-dasharray:0.02 23.63;}.e{stroke-width:4px;}</style></defs><title>canvas (52)</title><polyline class="a" points="600.17 141.54 599.8 148.74 599 155.9 597.37 162.93 595.61 169.92 592.89 176.59 590.09 183.22 587.18 189.81 583.29 195.88 579.75 202.16 574.93 207.56 570.74 213.41 565.62 218.46 561.08 224.08 555.63 228.79 550 233.27 544.25 237.59 538.76 241.96 538.07 249.64 538.77 257.38 538.1 265.12 538.74 272.86 538.88 280.7 532.01 283.74 525.84 287.46 519.49 290.86 513.06 294.13 506.88 297.85 500.81 301.72 494.76 305.63 488.45 309.13 482.6 313.34 476.24 316.81 470.67 321.42 464.71 325.49 458.91 329.78 453.53 334.59 447.79 338.98 443.05 344.46 437.39 349 432.68 354.48 428.43 360.37 428.17 367.67 428.63 374.94 428.7 382.2 428.23 389.47 428.67 396.73 428.26 404 429.18 411.26 429.31 418.53 428.68 425.81 429.58 433.06 428.95 440.34 429.47 447.6 429.75 454.86 429.65 462.14 430.33 469.39 430.93 476.65 431.26 483.91 431.06 491.2 431.53 498.46 432.03 505.71 432.9 512.94 433.16 520.21 433.79 527.45 434.01 534.74 435.38 541.89 436.39 549.09 437.17 556.41 442.37 561.22 446.87 566.64 451.06 572.31 455.82 577.49 460.88 582.41 465.47 587.73 465.63 594.57 465.35 601.42 465.25 608.26 465.39 615.12 465.47 621.97 465.52 628.82 472.85 629.39 480.17 630.26 487.44 631.47 494.66 632.91 501.83 634.59 509.13 635.68 516.31 637.36 523.5 639.03 530.54 641.24 537.6 643.41 544.5 646.04 550.94 649.71 557.5 653.01 563.69 656.96 569.48 661.43 574.75 666.66 567.46 667.82 560.15 667.99 552.89 668.52 545.65 669.48 538.34 669.45 531.11 670.47 523.82 670.64 516.54 671.02 509.3 671.99 502.01 672.07 494.75 672.77 487.47 673.28 480.2 673.95 472.89 673.57 465.61 673.83 458.33 674.24 451.06 675.08 443.76 675.26 436.46 674.55 429.18 675.14 421.88 675.37 414.59 675.52 407.29 675.29 399.99 674.99 392.69 675.57 385.4 674.93 378.11 674.75 370.8 675.51 363.51 674.87 356.21 675.29 348.93 674.44 341.65 673.89 334.34 674.25 327.05 673.9 319.76 673.49 312.47 673.12 305.19 672.83 297.9 672.43 290.63 671.77 283.35 671.41 276.06 671.05 268.82 670.05 261.51 670.02 254.22 669.63 246.94 669.11 239.73 667.9 232.41 667.81 225.62 666.41 230.15 661.14 236.26 657.03 242.35 652.92 248.92 649.6 255.71 646.78 262.55 644.05 269.57 641.83 276.6 639.62 283.64 637.39 290.96 636.32 298.1 634.48 305.22 632.46 312.56 631.56 319.82 630.27 327.21 629.9 334.2 628.71 334.56 621.98 334.92 615.13 334.52 608.28 334.64 601.43 334.7 594.58 334.93 587.89 339.36 582.63 344.26 577.57 348.79 572.2 353.27 566.76 357.7 561.28 363.03 556.53 363.98 549.13 364.45 541.87 366.05 534.74 366.55 527.48 366.76 520.21 367.93 513.01 368.28 505.75 368.27 498.47 368.56 491.21 369.7 483.99 369.5 476.7 369.51 469.43 369.85 462.17 370.07 454.9 371.09 447.65 370.72 440.36 371.29 433.1 371.54 425.83 370.78 418.54 371.75 411.28 371.26 404 371.7 396.74 371.22 389.46 371.41 382.19 371.38 374.92 371.98 367.66 371.5 360.45 367.11 354.89 362.82 349.12 357.69 344.09 352.3 339.36 346.99 334.54 341.29 330.19 335.64 325.77 329.88 321.5 323.87 317.58 318.35 312.95 312.31 309.06 306.08 305.48 300.26 301.24 293.68 298.27 287.86 294.01 281.4 290.85 275.04 287.53 268.77 284.07 262.57 280.58 262.2 272.86 262.26 265.12 262.91 257.39 262.68 249.65 262.27 241.96 256.65 237.71 251.18 233.02 245.4 228.72 239.82 224.13 235.39 218.39 230.3 213.3 225.63 207.81 221.57 201.85 217.56 195.88 213.68 189.79 210.79 183.18 207.57 176.71 205.94 169.64 203.36 162.9 202.35 155.76 200.42 148.77 200.67 141.55"/><polyline class="b" points="600.17 141.54 599.8 148.74 599 155.9 597.37 162.93 595.61 169.92 592.89 176.59 590.09 183.22 587.18 189.81 583.29 195.88 579.75 202.16 574.93 207.56 570.74 213.41 565.62 218.46 561.08 224.08 555.63 228.79 550 233.27 544.25 237.59 538.76 241.96 538.07 249.64 538.77 257.38 538.1 265.12 538.74 272.86 538.88 280.7 532.01 283.74 525.84 287.46 519.49 290.86 513.06 294.13 506.88 297.85 500.81 301.72 494.76 305.63 488.45 309.13 482.6 313.34 476.24 316.81 470.67 321.42 464.71 325.49 458.91 329.78 453.53 334.59 447.79 338.98 443.05 344.46 437.39 349 432.68 354.48 428.43 360.37 428.17 367.67 428.63 374.94 428.7 382.2 428.23 389.47 428.67 396.73 428.26 404 429.18 411.26 429.31 418.53 428.68 425.81 429.58 433.06 428.95 440.34 429.47 447.6 429.75 454.86 429.65 462.14 430.33 469.39 430.93 476.65 431.26 483.91 431.06 491.2 431.53 498.46 432.03 505.71 432.9 512.94 433.16 520.21 433.79 527.45 434.01 534.74 435.38 541.89 436.39 549.09 437.17 556.41 442.37 561.22 446.87 566.64 451.06 572.31 455.82 577.49 460.88 582.41 465.47 587.73 465.63 594.57 465.35 601.42 465.25 608.26 465.39 615.12 465.47 621.97 465.52 628.82 472.85 629.39 480.17 630.26 487.44 631.47 494.66 632.91 501.83 634.59 509.13 635.68 516.31 637.36 523.5 639.03 530.54 641.24 537.6 643.41 544.5 646.04 550.94 649.71 557.5 653.01 563.69 656.96 569.48 661.43 574.75 666.66 567.46 667.82 560.15 667.99 552.89 668.52 545.65 669.48 538.34 669.45 531.11 670.47 523.82 670.64 516.54 671.02 509.3 671.99 502.01 672.07 494.75 672.77 487.47 673.28 480.2 673.95 472.89 673.57 465.61 673.83 458.33 674.24 451.06 675.08 443.76 675.26 436.46 674.55 429.18 675.14 421.88 675.37 414.59 675.52 407.29 675.29 399.99 674.99 392.69 675.57 385.4 674.93 378.11 674.75 370.8 675.51 363.51 674.87 356.21 675.29 348.93 674.44 341.65 673.89 334.34 674.25 327.05 673.9 319.76 673.49 312.47 673.12 305.19 672.83 297.9 672.43 290.63 671.77 283.35 671.41 276.06 671.05 268.82 670.05 261.51 670.02 254.22 669.63 246.94 669.11 239.73 667.9 232.41 667.81 225.62 666.41 230.15 661.14 236.26 657.03 242.35 652.92 248.92 649.6 255.71 646.78 262.55 644.05 269.57 641.83 276.6 639.62 283.64 637.39 290.96 636.32 298.1 634.48 305.22 632.46 312.56 631.56 319.82 630.27 327.21 629.9 334.2 628.71 334.56 621.98 334.92 615.13 334.52 608.28 334.64 601.43 334.7 594.58 334.93 587.89 339.36 582.63 344.26 577.57 348.79 572.2 353.27 566.76 357.7 561.28 363.03 556.53 363.98 549.13 364.45 541.87 366.05 534.74 366.55 527.48 366.76 520.21 367.93 513.01 368.28 505.75 368.27 498.47 368.56 491.21 369.7 483.99 369.5 476.7 369.51 469.43 369.85 462.17 370.07 454.9 371.09 447.65 370.72 440.36 371.29 433.1 371.54 425.83 370.78 418.54 371.75 411.28 371.26 404 371.7 396.74 371.22 389.46 371.41 382.19 371.38 374.92 371.98 367.66 371.5 360.45 367.11 354.89 362.82 349.12 357.69 344.09 352.3 339.36 346.99 334.54 341.29 330.19 335.64 325.77 329.88 321.5 323.87 317.58 318.35 312.95 312.31 309.06 306.08 305.48 300.26 301.24 293.68 298.27 287.86 294.01 281.4 290.85 275.04 287.53 268.77 284.07 262.57 280.58 262.2 272.86 262.26 265.12 262.91 257.39 262.68 249.65 262.27 241.96 256.65 237.71 251.18 233.02 245.4 228.72 239.82 224.13 235.39 218.39 230.3 213.3 225.63 207.81 221.57 201.85 217.56 195.88 213.68 189.79 210.79 183.18 207.57 176.71 205.94 169.64 203.36 162.9 202.35 155.76 200.42 148.77 200.67 141.55"/><polygon class="a" points="599.08 144.17 594.27 148.6 587.29 150.45 580.45 152.96 573.3 154.19 566.16 155.49 558.89 155.8 551.68 156.42 544.57 158.1 537.3 158.22 530.09 158.85 522.86 159.31 515.64 159.83 508.46 161.04 501.2 160.83 493.97 161.36 486.76 162.2 479.49 161.69 472.28 162.76 465.02 162.35 457.79 162.97 450.56 163.57 443.31 163.56 436.06 163.63 428.81 163.22 421.56 163.61 414.32 164.09 407.07 163.61 399.81 163.86 392.57 163.69 385.32 163.83 378.07 163.32 370.82 163.67 363.57 163.88 356.32 163.69 349.1 162.66 341.84 162.93 334.61 162.38 327.37 162.4 320.11 162.42 312.88 161.99 305.65 161.38 298.43 160.9 291.18 160.62 283.98 159.74 276.73 159.65 269.51 159.02 262.33 158.02 255.14 157.22 247.86 157.1 240.71 155.97 233.46 155.45 226.3 154.31 219.2 152.81 212.08 151.37 205.22 148.91 199.66 144.17 205.23 139.43 212.22 137.45 219.17 135.31 226.34 134.21 233.55 133.46 240.73 132.51 247.91 131.5 255.07 130.36 262.33 130.19 269.51 129.18 276.72 128.4 283.95 127.96 291.17 127.45 298.39 126.89 305.64 126.67 312.89 126.69 320.13 126.4 327.35 125.66 334.6 125.9 341.84 125.39 349.09 125.65 356.33 125.14 363.57 124.94 370.82 125.23 378.07 125.19 385.31 124.86 392.56 124.48 399.81 124.73 407.06 124.44 414.31 124.38 421.56 124.58 428.8 124.88 436.05 124.9 443.29 125.37 450.54 125.44 457.78 125.59 465.02 125.84 472.27 125.65 479.48 126.69 486.72 126.98 494 126.48 501.2 127.4 508.41 128.24 515.64 128.61 522.87 129.06 530.11 129.45 537.32 130.1 544.58 130.3 551.73 131.51 558.96 132.05 566.09 133.41 573.21 134.75 580.29 136.21 587.43 137.41 594.25 139.8 599.08 144.17"/><polygon class="b" points="599.08 144.17 594.27 148.6 587.29 150.45 580.45 152.96 573.3 154.19 566.16 155.49 558.89 155.8 551.68 156.42 544.57 158.1 537.3 158.22 530.09 158.85 522.86 159.31 515.64 159.83 508.46 161.04 501.2 160.83 493.97 161.36 486.76 162.2 479.49 161.69 472.28 162.76 465.02 162.35 457.79 162.97 450.56 163.57 443.31 163.56 436.06 163.63 428.81 163.22 421.56 163.61 414.32 164.09 407.07 163.61 399.81 163.86 392.57 163.69 385.32 163.83 378.07 163.32 370.82 163.67 363.57 163.88 356.32 163.69 349.1 162.66 341.84 162.93 334.61 162.38 327.37 162.4 320.11 162.42 312.88 161.99 305.65 161.38 298.43 160.9 291.18 160.62 283.98 159.74 276.73 159.65 269.51 159.02 262.33 158.02 255.14 157.22 247.86 157.1 240.71 155.97 233.46 155.45 226.3 154.31 219.2 152.81 212.08 151.37 205.22 148.91 199.66 144.17 205.23 139.43 212.22 137.45 219.17 135.31 226.34 134.21 233.55 133.46 240.73 132.51 247.91 131.5 255.07 130.36 262.33 130.19 269.51 129.18 276.72 128.4 283.95 127.96 291.17 127.45 298.39 126.89 305.64 126.67 312.89 126.69 320.13 126.4 327.35 125.66 334.6 125.9 341.84 125.39 349.09 125.65 356.33 125.14 363.57 124.94 370.82 125.23 378.07 125.19 385.31 124.86 392.56 124.48 399.81 124.73 407.06 124.44 414.31 124.38 421.56 124.58 428.8 124.88 436.05 124.9 443.29 125.37 450.54 125.44 457.78 125.59 465.02 125.84 472.27 125.65 479.48 126.69 486.72 126.98 494 126.48 501.2 127.4 508.41 128.24 515.64 128.61 522.87 129.06 530.11 129.45 537.32 130.1 544.58 130.3 551.73 131.51 558.96 132.05 566.09 133.41 573.21 134.75 580.29 136.21 587.43 137.41 594.25 139.8 599.08 144.17"/><polyline points="240.95 156.41 248.1 155.3 255.33 154.95 262.5 153.91 269.74 153.71 276.88 152.28 284.15 152.6 291.32 151.41 298.55 151.16 305.78 150.78 313 150.5 320.22 149.87 327.45 149.8 334.7 150.11 341.93 149.72 349.16 149.6 356.39 149.34 363.63 149.37 370.86 149.12 378.1 149.35 385.33 148.93 392.57 148.42 399.81 148.77 407.08 149.09 414.34 149.08 421.6 149.26 428.87 148.6 436.13 148.55 443.38 149.42 450.64 149.75 457.92 149.09 465.16 149.68 472.42 149.9 479.67 150.26 486.95 149.87 494.18 150.71 501.44 150.76 508.7 150.86 515.92 151.72 523.19 151.85 530.38 153.08 537.67 152.85 544.82 154.41 552.07 154.78 559.27 155.53 551.96 155.96 544.64 156.34 537.36 157.12 530.04 157.51 522.72 157.81 515.39 157.99 508.08 158.49 500.82 159.74 493.51 160.16 486.14 159.74 478.88 160.99 471.52 160.72 464.26 161.91 456.91 161.82 449.64 162.97 442.28 162.83 434.99 163.77"/><polyline class="b" points="240.95 156.41 248.1 155.3 255.33 154.95 262.5 153.91 269.74 153.71 276.88 152.28 284.15 152.6 291.32 151.41 298.55 151.16 305.78 150.78 313 150.5 320.22 149.87 327.45 149.8 334.7 150.11 341.93 149.72 349.16 149.6 356.39 149.34 363.63 149.37 370.86 149.12 378.1 149.35 385.33 148.93 392.57 148.42 399.81 148.77 407.08 149.09 414.34 149.08 421.6 149.26 428.87 148.6 436.13 148.55 443.38 149.42 450.64 149.75 457.92 149.09 465.16 149.68 472.42 149.9 479.67 150.26 486.95 149.87 494.18 150.71 501.44 150.76 508.7 150.86 515.92 151.72 523.19 151.85 530.38 153.08 537.67 152.85 544.82 154.41 552.07 154.78 559.27 155.53 551.96 155.96 544.64 156.34 537.36 157.12 530.04 157.51 522.72 157.81 515.39 157.99 508.08 158.49 500.82 159.74 493.51 160.16 486.14 159.74 478.88 160.99 471.52 160.72 464.26 161.91 456.91 161.82 449.64 162.97 442.28 162.83 434.99 163.77"/><polyline class="a" points="261.99 242.29 269.09 243.14 276 244.91 283.11 245.51 290.13 246.66 297.2 247.43 304.17 249.01 311.21 250.05 318.26 251.01 325.42 250.95 332.43 252.33 339.52 252.95 346.67 252.81 353.7 254.21 360.83 254.16 367.92 255.05 375.06 254.6 382.16 254.84 389.25 255.67 396.37 255.87 403.49 255.65 410.61 255.77 417.71 254.95 424.83 255.18 431.96 255.32 439.05 254.46 446.15 254.09 453.23 253.44 460.4 253.8 467.48 253.04 474.57 252.43 481.65 251.6 488.7 250.6 495.76 249.7 502.76 248.34 509.83 247.47 516.85 246.27 523.9 245.23 530.85 243.61 537.8 242.09"/><polyline class="b" points="261.99 242.29 269.09 243.14 276 244.91 283.11 245.51 290.13 246.66 297.2 247.43 304.17 249.01 311.21 250.05 318.26 251.01 325.42 250.95 332.43 252.33 339.52 252.95 346.67 252.81 353.7 254.21 360.83 254.16 367.92 255.05 375.06 254.6 382.16 254.84 389.25 255.67 396.37 255.87 403.49 255.65 410.61 255.77 417.71 254.95 424.83 255.18 431.96 255.32 439.05 254.46 446.15 254.09 453.23 253.44 460.4 253.8 467.48 253.04 474.57 252.43 481.65 251.6 488.7 250.6 495.76 249.7 502.76 248.34 509.83 247.47 516.85 246.27 523.9 245.23 530.85 243.61 537.8 242.09"/><polyline class="a" points="262.1 280.51 268.9 282.78 276.06 283.47 282.92 285.6 289.9 287.14 297.05 287.72 304.06 289.12 311.17 289.82 318.21 291.01 325.26 292.14 332.29 293.45 339.47 293.55 346.53 294.69 353.61 295.72 360.79 295.57 367.89 296.38 375.02 296.78 382.13 297.51 389.27 297.86 396.42 297.57 403.56 297.65 410.7 297.7 417.85 297.76 424.98 297.09 432.14 297.44 439.25 296.51 446.39 296.4 453.54 296.08 460.67 295.54 467.68 293.97 474.78 293.23 481.87 292.33 488.94 291.3 495.98 290.11 503.03 288.93 510.06 287.66 517.05 286.14 523.96 284.31 530.98 282.87 537.66 280.23"/><polyline class="b" points="262.1 280.51 268.9 282.78 276.06 283.47 282.92 285.6 289.9 287.14 297.05 287.72 304.06 289.12 311.17 289.82 318.21 291.01 325.26 292.14 332.29 293.45 339.47 293.55 346.53 294.69 353.61 295.72 360.79 295.57 367.89 296.38 375.02 296.78 382.13 297.51 389.27 297.86 396.42 297.57 403.56 297.65 410.7 297.7 417.85 297.76 424.98 297.09 432.14 297.44 439.25 296.51 446.39 296.4 453.54 296.08 460.67 295.54 467.68 293.97 474.78 293.23 481.87 292.33 488.94 291.3 495.98 290.11 503.03 288.93 510.06 287.66 517.05 286.14 523.96 284.31 530.98 282.87 537.66 280.23"/><polyline class="b" points="437 557.84 429.6 557.52 422.21 557.14 414.81 557.78 407.41 557.26 400.01 557.88 392.61 557.41 385.21 557.03 377.81 557.7 370.4 557.31 363 557.1"/><polyline class="b" points="371.48 409.18 375.15 415.1 379.41 420.6 383.34 426.33 387.45 431.93 392.05 437.19 396.07 442.86 399.92 449.06 404.31 443.28 407.81 437.25 412.42 432.02 416.18 426.18 420.38 420.65 424.45 415.02 428.57 409.43"/><polyline class="b" points="428.05 360.68 423.8 366.18 420.37 372.27 416.05 377.73 411.62 383.11 407.58 388.76 403.51 394.4 399.79 400.46 395.38 394.93 391.39 389.25 387.44 383.55 383.99 377.49 379.6 372.09 375.3 366.63 371.18 361.04"/><polyline class="b" points="428.46 457.71 424.29 463.27 420.18 468.87 415.89 474.35 412.23 480.27 407.8 485.65 403.54 491.16 399.79 497.05 395.86 491.32 391.78 485.71 387.74 480.07 383.5 474.57 379.67 468.78 375.33 463.34 371.1 457.82"/><polyline class="b" points="369.22 502.67 373.55 508.82 377.64 515.12 382.12 521.16 386.38 527.35 390.87 533.38 395.64 539.22 399.93 545.22 403.9 539.61 408.04 533.92 411.88 528.03 416.29 522.54 420.46 516.88 424.51 511.14 428.71 505.49 433 499.91"/><polyline class="a" points="283.9 265.85 290.88 267.39 297.91 268.66 305.03 269.43 312.07 270.75 319.08 272.24 326.22 272.79 333.35 273.41 340.49 273.86 347.57 274.93 354.65 276.06 361.82 276.11 368.95 276.84 376.12 276.68 383.25 277.5 390.4 277.85 397.56 277.89 404.72 277.64 411.88 277.96 419.03 277.37 426.19 277.64 433.32 276.77 440.46 276.49 447.64 276.63 454.79 276.13 461.92 275.43 468.95 273.81 476.15 273.74 483.22 272.62 490.25 271.2 497.37 270.37 504.42 269.11 511.47 267.83 518.41 266.05"/><line class="c" x1="283.9" y1="265.85" x2="283.91" y2="265.85"/><polyline class="d" points="307.18 269.83 312.07 270.75 319.08 272.24 326.22 272.79 333.35 273.41 340.49 273.86 347.57 274.93 354.65 276.06 361.82 276.11 368.95 276.84 376.12 276.68 383.25 277.5 390.4 277.85 397.56 277.89 404.72 277.64 411.88 277.96 419.03 277.37 426.19 277.64 433.32 276.77 440.46 276.49 447.64 276.63 454.79 276.13 461.92 275.43 468.95 273.81 476.15 273.74 483.22 272.62 490.25 271.2 497.37 270.37 504.42 269.11 506.88 268.66"/><line class="c" x1="518.4" y1="266.05" x2="518.41" y2="266.05"/><polygon class="a" points="334.05 628.99 341.65 630.53 348.95 631.28 356.23 632.19 363.51 633.05 370.76 634.26 378.11 634.34 385.43 634.67 392.75 635.12 400.07 635.41 407.4 636.16 414.72 635.38 422.08 635.84 429.42 635.38 436.66 634.01 443.98 633.45 451.29 632.58 458.47 630.98 465.29 628.76 465.74 621.98 465.13 615.13 465.3 608.28 465.12 601.43 465.89 594.58 465.36 587.77 458.29 589.06 451.13 590.55 443.95 592.05 436.68 592.98 429.39 593.79 422.07 594.12 414.77 595.01 407.42 594.23 400.08 595.1 392.76 594.26 385.43 594.05 378.09 593.85 370.78 593.21 363.46 592.59 356.18 591.62 348.95 590.35 341.77 588.77 334.5 587.72 334.32 594.57 334.01 601.42 334.82 608.26 334.65 615.12 334.39 621.97 334.05 628.99"/><polygon class="b" points="334.05 628.99 341.65 630.53 348.95 631.28 356.23 632.19 363.51 633.05 370.76 634.26 378.11 634.34 385.43 634.67 392.75 635.12 400.07 635.41 407.4 636.16 414.72 635.38 422.08 635.84 429.42 635.38 436.66 634.01 443.98 633.45 451.29 632.58 458.47 630.98 465.29 628.76 465.74 621.98 465.13 615.13 465.3 608.28 465.12 601.43 465.89 594.58 465.36 587.77 458.29 589.06 451.13 590.55 443.95 592.05 436.68 592.98 429.39 593.79 422.07 594.12 414.77 595.01 407.42 594.23 400.08 595.1 392.76 594.26 385.43 594.05 378.09 593.85 370.78 593.21 363.46 592.59 356.18 591.62 348.95 590.35 341.77 588.77 334.5 587.72 334.32 594.57 334.01 601.42 334.82 608.26 334.65 615.12 334.39 621.97 334.05 628.99"/><polyline class="b" points="279.51 671.42 285.85 668.25 292.17 665.05 298.95 662.86 305.39 659.93 311.88 657.11 318.05 653.55 324.81 651.31 330.96 647.71 337.8 645.65 344.08 642.34 350.46 639.26 357.12 636.78 363.67 633.78 363.06 626.72 363.3 619.78 363.11 612.83 363.8 605.88 363.38 598.93 363.46 591.96 368.44 586.96 373.76 582.35 378.62 577.24 383.84 572.52 389.23 567.98 394.4 563.18 399.37 557.71 405.01 563.01 410.37 568.14 415.39 573.64 421.34 578.13 426.55 583.43 432.36 588.09 437.89 593.29 437.05 600.17 437.11 606.87 437.61 613.56 437.87 620.26 437.98 626.96 437.17 633.9 444.26 636.31 451.04 638.91 457.39 642.51 464.19 645.05 470.89 647.82 477.59 650.62 484.13 653.78 490.68 656.9 497.5 659.4 504.22 662.14 510.96 664.83 517.69 667.57 524.41 670.34"/><polyline class="b" points="401.86 596 401.9 603.53 401.94 611.06 401.61 618.6 401.21 626.13 401.01 633.67 401.03 641.13 401.78 648.6 401.31 656.06 401.97 663.53 401.3 671"/><polyline class="b" points="365 356.94 370.88 353.33 376.6 349.45 382.88 346.51 389.54 344.5 396.47 344.05 403.34 344.05 410.21 344.64 416.94 346.27 423.02 349.61 429 353.01 434.91 356.68"/><polyline class="b" points="445.16 337.16 439.14 333.37 433.43 329.15 427 326.14 420.35 323.72 413.61 321.51 406.58 320.62 399.53 320.26 392.46 320.23 385.42 321.15 378.55 322.99 372.3 326.4 365.94 329.43 360.12 333.4 354.52 337.68"/><polygon points="313.79 204.84 311.68 211.18 308.43 216.9 302.77 220.31 296.36 222.22 289.74 220.82 284.59 216.62 280.65 211.35 279.59 204.84 280.78 197.31 282.74 189.88 285.19 182.59 288.37 175.57 291.04 168.37 293.67 161.15 296.36 153.76 299.57 160.94 302.01 168.24 304.86 175.37 307.2 182.7 309.38 190.07 311.51 197.43 313.79 204.84"/><polygon class="e" points="313.79 204.84 311.68 211.18 308.43 216.9 302.77 220.31 296.36 222.22 289.74 220.82 284.59 216.62 280.65 211.35 279.59 204.84 280.78 197.31 282.74 189.88 285.19 182.59 288.37 175.57 291.04 168.37 293.67 161.15 296.36 153.76 299.57 160.94 302.01 168.24 304.86 175.37 307.2 182.7 309.38 190.07 311.51 197.43 313.79 204.84"/><polygon points="540.85 588.29 539.94 594.81 535.92 600.01 530.82 604.28 524.2 605.72 517.84 603.64 512.19 600.3 508.89 594.63 507.44 588.29 508.57 580.75 510.39 573.27 513.3 566.15 515.92 558.92 518.91 551.84 521.24 544.5 524.2 537.32 526.65 544.7 530.26 551.53 532.48 558.9 535.46 566 537.18 573.54 540.16 580.67 540.85 588.29"/><polygon class="e" points="540.85 588.29 539.94 594.81 535.92 600.01 530.82 604.28 524.2 605.72 517.84 603.64 512.19 600.3 508.89 594.63 507.44 588.29 508.57 580.75 510.39 573.27 513.3 566.15 515.92 558.92 518.91 551.84 521.24 544.5 524.2 537.32 526.65 544.7 530.26 551.53 532.48 558.9 535.46 566 537.18 573.54 540.16 580.67 540.85 588.29"/></svg>