<svg xmlns="http://www.w3.org/2000/svg" viewBox="0 0 800 800"><defs><style>.a{fill:#fff;}.b,.c,.d{fill:none;stroke:#000;stroke-linejoin:bevel;}.b{stroke-width:13px;}.c{stroke-width:7px;}.d{stroke-width:14px;}</style></defs><title>canvas (57)</title><polygon class="a" points="305.84 697.27 298.87 697.47 291.74 697.4 284.6 697.52 277.47 697.66 270.33 697.84 263.2 697.82 256.06 696.94 248.93 697.26 241.79 696.98 234.66 697.02 227.52 697.4 220.38 697.78 213.24 697.74 206.11 697.57 198.97 697.11 191.83 697.4 184.69 697.42 177.55 697.03 170.41 697.33 163.27 697.72 156.13 697.63 149 697.21 141.86 697.41 134.72 697.77 127.58 697.13 120.44 697.26 113.3 697.91 106.15 697.55 98.84 697.58 98.6 690 98.56 682.58 98.82 675.15 98.93 667.72 98.82 660.29 99 652.86 99.2 645.61 106.13 644.99 113.26 645.27 120.4 644.98 127.53 645.43 134.67 645.01 141.8 645.73 148.94 645.37 156.07 645.38 163.21 644.95 170.34 645.44 177.48 645.83 184.62 645.5 191.76 644.96 198.89 645.59 206.03 645.54 213.17 645 220.31 645.54 227.45 645.05 234.59 645.04 241.73 645.3 248.87 644.93 256 645.66 263.14 645.22 270.28 645.26 277.42 645.4 284.56 645.17 291.7 645.09 298.85 645.05 306.02 645.41 305.87 652.85 305.74 660.28 306.13 667.7 305.62 675.13 306.04 682.56 305.87 689.99 305.84 697.27"/><polygon class="b" points="305.84 697.27 298.87 697.47 291.74 697.4 284.6 697.52 277.47 697.66 270.33 697.84 263.2 697.82 256.06 696.94 248.93 697.26 241.79 696.98 234.66 697.02 227.52 697.4 220.38 697.78 213.24 697.74 206.11 697.57 198.97 697.11 191.83 697.4 184.69 697.42 177.55 697.03 170.41 697.33 163.27 697.72 156.13 697.63 149 697.21 141.86 697.41 134.72 697.77 127.58 697.13 120.44 697.26 113.3 697.91 106.15 697.55 98.84 697.58 98.6 690 98.56 682.58 98.82 675.15 98.93 667.72 98.82 660.29 99 652.86 99.2 645.61 106.13 644.99 113.26 645.27 120.4 644.98 127.53 645.43 134.67 645.01 141.8 645.73 148.94 645.37 156.07 645.38 163.21 644.95 170.34 645.44 177.48 645.83 184.62 645.5 191.76 644.96 198.89 645.59 206.03 645.54 213.17 645 220.31 645.54 227.45 645.05 234.59 645.04 241.73 645.3 248.87 644.93 256 645.66 263.14 645.22 270.28 645.26 277.42 645.4 284.56 645.17 291.7 645.09 298.85 645.05 306.02 645.41 305.87 652.85 305.74 660.28 306.13 667.7 305.62 675.13 306.04 682.56 305.87 689.99 305.84 697.27"/><polygon points="365.6 665.61 359.38 669.44 352.81 673.12 345.9 676.16 339.57 680.32 332.58 683.2 325.96 686.79 319.15 690.04 312.46 693.51 305.93 697.54 306.32 690 305.85 682.58 305.91 675.15 305.61 667.72 306.09 660.29 305.83 652.86 306.4 645.67 312.65 641.9 319.21 638.2 325.95 634.83 332.44 630.99 339.34 627.92 346.13 624.65 352.44 620.46 359.47 617.63 365.98 613.88 366.02 621.27 366.35 628.7 365.52 636.13 366.25 643.56 366.03 650.99 366.37 658.43 365.6 665.61"/><polygon class="b" points="365.6 665.61 359.38 669.44 352.81 673.12 345.9 676.16 339.57 680.32 332.58 683.2 325.96 686.79 319.15 690.04 312.46 693.51 305.93 697.54 306.32 690 305.85 682.58 305.91 675.15 305.61 667.72 306.09 660.29 305.83 652.86 306.4 645.67 312.65 641.9 319.21 638.2 325.95 634.83 332.44 630.99 339.34 627.92 346.13 624.65 352.44 620.46 359.47 617.63 365.98 613.88 366.02 621.27 366.35 628.7 365.52 636.13 366.25 643.56 366.03 650.99 366.37 658.43 365.6 665.61"/><polygon class="a" points="305.98 644.84 298.87 644.59 291.74 644.86 284.6 645.35 277.47 644.94 270.33 645.28 263.2 645 256.06 645.32 248.93 644.49 241.79 644.98 234.66 645.2 227.52 644.66 220.38 644.65 213.24 644.69 206.11 644.67 198.97 644.61 191.83 644.93 184.69 644.76 177.55 644.68 170.41 645.27 163.27 644.44 156.13 645.18 149 645.1 141.86 645.16 134.72 644.72 127.58 645.18 120.44 645.29 113.3 645.39 106.15 644.77 99.46 644.85 105.49 641.04 112.33 637.82 119.05 634.37 125.81 630.98 132.28 627.06 139.05 623.71 145.56 619.86 152.32 616.47 158.89 612.5 166.13 612.91 173.26 612.87 180.4 612.49 187.53 613.12 194.67 612.86 201.8 613.36 208.94 613.39 216.07 612.74 223.21 612.8 230.34 613.3 237.48 612.49 244.62 612.64 251.76 612.82 258.89 612.75 266.03 613.14 273.17 613.28 280.31 612.95 287.45 612.74 294.59 612.62 301.73 612.49 308.87 612.81 316 612.59 323.14 612.68 330.28 613.11 337.42 613.08 344.56 612.52 351.7 612.69 358.85 612.42 366.3 612.88 359.49 616.76 352.59 619.87 346.24 624.01 339.34 627.13 332.74 630.81 326.18 634.55 319.12 637.38 312.55 641.12 305.98 644.84"/><polygon class="b" points="305.98 644.84 298.87 644.59 291.74 644.86 284.6 645.35 277.47 644.94 270.33 645.28 263.2 645 256.06 645.32 248.93 644.49 241.79 644.98 234.66 645.2 227.52 644.66 220.38 644.65 213.24 644.69 206.11 644.67 198.97 644.61 191.83 644.93 184.69 644.76 177.55 644.68 170.41 645.27 163.27 644.44 156.13 645.18 149 645.1 141.86 645.16 134.72 644.72 127.58 645.18 120.44 645.29 113.3 645.39 106.15 644.77 99.46 644.85 105.49 641.04 112.33 637.82 119.05 634.37 125.81 630.98 132.28 627.06 139.05 623.71 145.56 619.86 152.32 616.47 158.89 612.5 166.13 612.91 173.26 612.87 180.4 612.49 187.53 613.12 194.67 612.86 201.8 613.36 208.94 613.39 216.07 612.74 223.21 612.8 230.34 613.3 237.48 612.49 244.62 612.64 251.76 612.82 258.89 612.75 266.03 613.14 273.17 613.28 280.31 612.95 287.45 612.74 294.59 612.62 301.73 612.49 308.87 612.81 316 612.59 323.14 612.68 330.28 613.11 337.42 613.08 344.56 612.52 351.7 612.69 358.85 612.42 366.3 612.88 359.49 616.76 352.59 619.87 346.24 624.01 339.34 627.13 332.74 630.81 326.18 634.55 319.12 637.38 312.55 641.12 305.98 644.84"/><polygon points="300.95 625.95 301 618.84 301.13 611.68 300.76 604.52 301.37 597.36 300.94 590.19 301.08 583.03 300.72 575.87 301.32 568.71 300.58 561.55 300.82 554.39 300.62 547.22 300.51 540.06 300.61 532.9 300.83 525.74 300.51 518.58 301.3 511.41 301.48 504.25 301.08 497.09 300.69 489.93 300.51 482.76 300.56 475.6 301.28 468.44 300.68 461.27 300.52 454.11 300.64 446.94 300.81 439.78 301.18 432.62 300.73 425.45 301.45 418.29 300.8 411.13 301.36 403.96 301.5 396.8 300.96 389.63 300.59 382.47 300.91 375.31 300.57 368.14 301.25 360.98 301.08 353.81 301.48 346.65 301.27 339.49 301.46 332.33 301.08 325.17 300.81 318.01 301.32 310.84 300.88 303.68 301.26 296.52 301.19 289.35 300.53 282.19 301.41 275.02 300.83 267.86 301.44 260.69 301.45 253.53 300.73 246.36 301.42 239.19 301.28 232.03 301 224.86 301.25 217.69 301.44 210.52 301.19 203.36 301.23 196.19 301.1 189.03 301.37 181.86 301.41 174.69 301.32 167.52 301.49 160.35 301.09 153.18 300.85 146.42 296.24 151.53 290.84 156.47 286.27 162.17 281.15 167.37 276.25 172.77 271.21 178.05 266.92 184.01 261.52 188.95 256.43 194.19 251.43 199.5 247.13 205.45 241.68 210.35 236.99 215.95 231.76 221.06 227.04 226.63 222.49 232.35 217.1 237.31 212.16 242.67 207.14 247.97 202.33 253.46 197.75 259.16 192.59 264.33 187.71 269.75 183.1 275.44 177.97 280.65 172.68 285.88 172.57 293.23 172.83 300.46 173.46 307.69 172.96 314.93 173.22 322.16 172.76 329.39 172.73 336.63 173.14 343.86 172.81 351.09 172.74 358.32 173.28 365.56 173.03 372.79 173.38 380.02 173.38 387.25 173.2 394.49 173.09 401.72 172.78 408.95 173.37 416.19 173.34 423.42 172.69 430.65 173.19 437.88 173.44 445.11 173.21 452.34 173.28 459.57 172.78 466.81 172.59 474.04 173.17 481.27 173.17 488.5 172.61 495.74 173.29 502.97 173.11 510.2 172.87 517.44 172.96 524.67 172.92 531.91 173.34 539.15 173.45 546.38 173.14 553.62 173.27 560.86 172.81 568.09 173.16 575.33 173.13 582.56 173.42 589.8 173.24 597.03 172.54 604.27 172.95 611.51 172.62 618.76 173.32 625.69 180 625.6 187 625.84 194.21 626.21 193.54 618.77 194.13 611.53 194.48 604.3 194.46 597.06 194.44 589.83 194.2 582.59 194.04 575.36 193.95 568.12 194.07 560.89 194.13 553.65 193.96 546.42 193.61 539.18 193.97 531.95 194.4 524.71 193.85 517.48 194.33 510.25 194.49 503.02 194.4 495.78 193.65 488.55 194 481.31 194.49 474.08 193.7 466.85 193.64 459.61 193.92 452.38 193.64 445.14 194.47 437.9 193.51 430.67 193.86 423.43 194.45 416.19 193.98 408.95 193.95 401.72 194.4 394.48 194.19 387.24 193.54 380 194.06 372.76 193.96 365.53 193.65 358.29 194.06 351.05 193.91 343.81 194.01 336.57 194.05 329.33 194.44 322.08 193.59 314.68 198.69 309.5 203.47 304.23 208.36 299.07 213.17 293.83 217.73 288.36 222.82 283.38 227.78 278.28 231.88 272.41 237.16 267.6 241.75 262.16 246.3 256.69 251.16 251.49 255.89 246.18 260.86 241.08 265.74 235.9 270.28 230.41 274.98 225.06 279.95 220.11 279.57 227.25 280.4 234.49 280.31 241.74 279.55 248.99 280.34 256.24 279.5 263.49 280.13 270.73 280.34 277.98 280.46 285.23 279.63 292.48 279.6 299.73 280.44 306.97 280.39 314.22 279.93 321.47 279.71 328.72 279.75 335.97 280.05 343.22 280.39 350.47 279.91 357.72 279.63 364.97 279.92 372.21 279.9 379.46 280.11 386.71 279.66 393.96 279.96 401.21 279.83 408.46 279.85 415.71 280.23 422.96 280.04 430.2 280.18 437.45 280.3 444.7 279.93 451.95 279.7 459.19 279.6 466.44 280.36 473.69 280.48 480.94 279.96 488.19 280.15 495.44 279.77 502.69 280.45 509.94 280.12 517.19 280.41 524.44 280.35 531.7 280.23 538.95 280.05 546.2 279.58 553.45 280.24 560.71 279.56 567.96 280.07 575.21 280.18 582.46 280.46 589.72 280.19 596.97 279.95 604.23 280.14 611.48 280.43 618.74 279.96 626.03 287 625.96 294 626.23 300.95 625.95"/><polygon class="b" points="300.95 625.95 301 618.84 301.13 611.68 300.76 604.52 301.37 597.36 300.94 590.19 301.08 583.03 300.72 575.87 301.32 568.71 300.58 561.55 300.82 554.39 300.62 547.22 300.51 540.06 300.61 532.9 300.83 525.74 300.51 518.58 301.3 511.41 301.48 504.25 301.08 497.09 300.69 489.93 300.51 482.76 300.56 475.6 301.28 468.44 300.68 461.27 300.52 454.11 300.64 446.94 300.81 439.78 301.18 432.62 300.73 425.45 301.45 418.29 300.8 411.13 301.36 403.96 301.5 396.8 300.96 389.63 300.59 382.47 300.91 375.31 300.57 368.14 301.25 360.98 301.08 353.81 301.48 346.65 301.27 339.49 301.46 332.33 301.08 325.17 300.81 318.01 301.32 310.84 300.88 303.68 301.26 296.52 301.19 289.35 300.53 282.19 301.41 275.02 300.83 267.86 301.44 260.69 301.45 253.53 300.73 246.36 301.42 239.19 301.28 232.03 301 224.86 301.25 217.69 301.44 210.52 301.19 203.36 301.23 196.19 301.1 189.03 301.37 181.86 301.41 174.69 301.32 167.52 301.49 160.35 301.09 153.18 300.85 146.42 296.24 151.53 290.84 156.47 286.27 162.17 281.15 167.37 276.25 172.77 271.21 178.05 266.92 184.01 261.52 188.95 256.43 194.19 251.43 199.5 247.13 205.45 241.68 210.35 236.99 215.95 231.76 221.06 227.04 226.63 222.49 232.35 217.1 237.31 212.16 242.67 207.14 247.97 202.33 253.46 197.75 259.16 192.59 264.33 187.71 269.75 183.1 275.44 177.97 280.65 172.68 285.88 172.57 293.23 172.83 300.46 173.46 307.69 172.96 314.93 173.22 322.16 172.76 329.39 172.73 336.63 173.14 343.86 172.81 351.09 172.74 358.32 173.28 365.56 173.03 372.79 173.38 380.02 173.38 387.25 173.2 394.49 173.09 401.72 172.78 408.95 173.37 416.19 173.34 423.42 172.69 430.65 173.19 437.88 173.44 445.11 173.21 452.34 173.28 459.57 172.78 466.81 172.59 474.04 173.17 481.27 173.17 488.5 172.61 495.74 173.29 502.97 173.11 510.2 172.87 517.44 172.96 524.67 172.92 531.91 173.34 539.15 173.45 546.38 173.14 553.62 173.27 560.86 172.81 568.09 173.16 575.33 173.13 582.56 173.42 589.8 173.24 597.03 172.54 604.27 172.95 611.51 172.62 618.76 173.32 625.69 180 625.6 187 625.84 194.21 626.21 193.54 618.77 194.13 611.53 194.48 604.3 194.46 597.06 194.44 589.83 194.2 582.59 194.04 575.36 193.95 568.12 194.07 560.89 194.13 553.65 193.96 546.42 193.61 539.18 193.97 531.95 194.4 524.71 193.85 517.48 194.33 510.25 194.49 503.02 194.4 495.78 193.65 488.55 194 481.31 194.49 474.08 193.7 466.85 193.64 459.61 193.92 452.38 193.64 445.14 194.47 437.9 193.51 430.67 193.86 423.43 194.45 416.19 193.98 408.95 193.95 401.72 194.4 394.48 194.19 387.24 193.54 380 194.06 372.76 193.96 365.53 193.65 358.29 194.06 351.05 193.91 343.81 194.01 336.57 194.05 329.33 194.44 322.08 193.59 314.68 198.69 309.5 203.47 304.23 208.36 299.07 213.17 293.83 217.73 288.36 222.82 283.38 227.78 278.28 231.88 272.41 237.16 267.6 241.75 262.16 246.3 256.69 251.16 251.49 255.89 246.18 260.86 241.08 265.74 235.9 270.28 230.41 274.98 225.06 279.95 220.11 279.57 227.25 280.4 234.49 280.31 241.74 279.55 248.99 280.34 256.24 279.5 263.49 280.13 270.73 280.34 277.98 280.46 285.23 279.63 292.48 279.6 299.73 280.44 306.97 280.39 314.22 279.93 321.47 279.71 328.72 279.75 335.97 280.05 343.22 280.39 350.47 279.91 357.72 279.63 364.97 279.92 372.21 279.9 379.46 280.11 386.71 279.66 393.96 279.96 401.21 279.83 408.46 279.85 415.71 280.23 422.96 280.04 430.2 280.18 437.45 280.3 444.7 279.93 451.95 279.7 459.19 279.6 466.44 280.36 473.69 280.48 480.94 279.96 488.19 280.15 495.44 279.77 502.69 280.45 509.94 280.12 517.19 280.41 524.44 280.35 531.7 280.23 538.95 280.05 546.2 279.58 553.45 280.24 560.71 279.56 567.96 280.07 575.21 280.18 582.46 280.46 589.72 280.19 596.97 279.95 604.23 280.14 611.48 280.43 618.74 279.96 626.03 287 625.96 294 626.23 300.95 625.95"/><polygon class="a" points="280.1 539.9 272.83 540.49 265.67 539.86 258.5 539.86 251.34 540.21 244.18 540.01 237.01 540.39 229.85 540.26 222.68 539.74 215.52 540.07 208.35 540.15 201.17 539.63 193.72 539.72 194.1 547.16 194.1 554.33 193.84 561.5 194.19 568.66 194.38 575.82 194.31 582.99 194.22 590.15 194.26 597.32 193.89 604.48 193.94 611.65 193.61 618.83 193.94 626.06 201.16 626.48 208.33 626.29 215.5 625.81 222.66 625.67 229.82 626.19 236.99 625.67 244.15 626.46 251.32 625.88 258.48 626.43 265.65 626.34 272.83 626.49 279.74 625.74 280.45 618.84 279.88 611.67 279.57 604.5 279.97 597.34 280.37 590.18 279.74 583.01 279.79 575.85 280.23 568.68 280.39 561.52 280.26 554.35 280.28 547.18 280.1 539.9"/><polygon class="b" points="280.1 539.9 272.83 540.49 265.67 539.86 258.5 539.86 251.34 540.21 244.18 540.01 237.01 540.39 229.85 540.26 222.68 539.74 215.52 540.07 208.35 540.15 201.17 539.63 193.72 539.72 194.1 547.16 194.1 554.33 193.84 561.5 194.19 568.66 194.38 575.82 194.31 582.99 194.22 590.15 194.26 597.32 193.89 604.48 193.94 611.65 193.61 618.83 193.94 626.06 201.16 626.48 208.33 626.29 215.5 625.81 222.66 625.67 229.82 626.19 236.99 625.67 244.15 626.46 251.32 625.88 258.48 626.43 265.65 626.34 272.83 626.49 279.74 625.74 280.45 618.84 279.88 611.67 279.57 604.5 279.97 597.34 280.37 590.18 279.74 583.01 279.79 575.85 280.23 568.68 280.39 561.52 280.26 554.35 280.28 547.18 280.1 539.9"/><polygon class="a" points="254.81 583 252.91 589.59 249.15 595.15 243.75 599.29 237 600.42 230.43 598.86 224.44 595.56 220.49 589.84 219.15 583 221.19 576.45 224.73 570.73 230.25 566.69 237 565.88 243.68 566.88 249.57 570.43 253.28 576.26 254.81 583"/><polygon class="c" points="254.81 583 252.91 589.59 249.15 595.15 243.75 599.29 237 600.42 230.43 598.86 224.44 595.56 220.49 589.84 219.15 583 221.19 576.45 224.73 570.73 230.25 566.69 237 565.88 243.68 566.88 249.57 570.43 253.28 576.26 254.81 583"/><polyline class="a" points="193.73 395.76 198.41 390.4 203.8 385.69 208.55 380.4 213.43 375.23 217.94 369.72 222.76 364.49 227.29 359.01 232.01 353.69 237.34 348.93 241.54 343.13 246.27 337.82 251.54 333 255.98 327.43 261.23 322.58 265.43 316.78 270.37 311.66 275.54 306.73 279.77 300.96"/><polyline class="b" points="193.73 395.76 198.41 390.4 203.8 385.69 208.55 380.4 213.43 375.23 217.94 369.72 222.76 364.49 227.29 359.01 232.01 353.69 237.34 348.93 241.54 343.13 246.27 337.82 251.54 333 255.98 327.43 261.23 322.58 265.43 316.78 270.37 311.66 275.54 306.73 279.77 300.96"/><polyline class="a" points="209.9 379 209.81 371.34 209.93 363.67 209.52 356 209.67 348.34 209.94 340.67 209.55 333"/><polyline class="c" points="209.9 379 209.81 371.34 209.93 363.67 209.52 356 209.67 348.34 209.94 340.67 209.55 333"/><polyline class="a" points="236.81 349 236.96 341.5 236.46 334.01 236.68 326.5 236.64 319.01 236.15 311.5 236.68 304"/><polyline class="c" points="236.81 349 236.96 341.5 236.46 334.01 236.68 326.5 236.64 319.01 236.15 311.5 236.68 304"/><polyline class="a" points="265.43 318 265.03 310.6 265.44 303.2 265.98 295.81 265.86 288.4 265.68 281"/><polyline class="c" points="265.43 318 265.03 310.6 265.44 303.2 265.98 295.81 265.86 288.4 265.68 281"/><polyline class="a" points="251.73 330 251.6 321.67 251.18 313.33 251.2 305"/><polyline class="c" points="251.73 330 251.6 321.67 251.18 313.33 251.2 305"/><polyline class="a" points="223.41 362 223.9 355.51 223.36 349.01 223.7 342.5 223.89 336"/><polyline class="c" points="223.41 362 223.9 355.51 223.36 349.01 223.7 342.5 223.89 336"/><polygon class="a" points="712.95 217.98 705.95 215.75 699.2 212.73 692.09 210.63 685.36 207.57 678.43 205 671.63 202.12 664.4 200.34 657.81 196.92 650.82 194.52 643.73 192.37 636.86 189.65 629.94 187.05 623.33 183.58 616.66 185.6 610.77 189.06 605.06 193.65 599.52 198.46 594.25 203.59 588.22 207.78 582.31 212.13 576.93 217.14 571.03 221.49 565.45 226.25 559.74 230.84 554.29 235.75 548.27 239.97 542.62 244.64 536.96 249.29 531.51 254.21 525.51 258.45 519.92 263.2 513.86 267.39 508.64 272.61 503.49 276.13 498.6 279.97 492.69 284.86 486.92 289.92 483.42 292.49 480.25 295.82 477.14 301.75 475.77 308.21 480.29 313.05 486.81 314.84 493.55 314.37 501.01 314.7 508.4 313.9 515.76 312.88 523.14 312.17 530.53 311.42 537.88 310.3 545.15 308.76 552.42 307.27 559.59 305.33 566.77 303.5 574.12 302.17 580.95 299.16 587.88 296.55 588.03 296.44 595.3 292.55 601.99 289.08 608.53 285.34 615.01 281.48 620.25 278.24 626.2 274.4 632.02 270.33 638.32 267.08 644.23 263.15 650.63 260.05 656.62 256.29 662.75 252.75 668.94 249.31 674.71 245.14 681.13 242.08 687.37 238.72 693.2 234.66 699.5 231.41 705.5 227.62 711.59 223.97 712.95 217.98"/><polygon class="d" points="712.95 217.98 705.95 215.75 699.2 212.73 692.09 210.63 685.36 207.57 678.43 205 671.63 202.12 664.4 200.34 657.81 196.92 650.82 194.52 643.73 192.37 636.86 189.65 629.94 187.05 623.33 183.58 616.66 185.6 610.77 189.06 605.06 193.65 599.52 198.46 594.25 203.59 588.22 207.78 582.31 212.13 576.93 217.14 571.03 221.49 565.45 226.25 559.74 230.84 554.29 235.75 548.27 239.97 542.62 244.64 536.96 249.29 531.51 254.21 525.51 258.45 519.92 263.2 513.86 267.39 508.64 272.61 503.49 276.13 498.6 279.97 492.69 284.86 486.92 289.92 483.42 292.49 480.25 295.82 477.14 301.75 475.77 308.21 480.29 313.05 486.81 314.84 493.55 314.37 501.01 314.7 508.4 313.9 515.76 312.88 523.14 312.17 530.53 311.42 537.88 310.3 545.15 308.76 552.42 307.27 559.59 305.33 566.77 303.5 574.12 302.17 580.95 299.16 587.88 296.55 588.03 296.44 595.3 292.55 601.99 289.08 608.53 285.34 615.01 281.48 620.25 278.24 626.2 274.4 632.02 270.33 638.32 267.08 644.23 263.15 650.63 260.05 656.62 256.29 662.75 252.75 668.94 249.31 674.71 245.14 681.13 242.08 687.37 238.72 693.2 234.66 699.5 231.41 705.5 227.62 711.59 223.97 712.95 217.98"/><polyline class="a" points="621.49 154.32 617.36 149.6 610.29 151.04 603.5 153.56 597.15 157.03 590.96 160.74 584.4 163.85 578.63 168.26 572.43 171.97 566.22 175.68 560.26 179.78 554.43 184.07 548.32 187.95 542.67 192.5 537.18 197.15 531.19 201.14 525.94 206.06 520.33 210.57 515.07 215.47 510.5 221.04 505.18 225.91 501.06 231.82 496.53 237.39 492.29 243.19 488.93 249.55 485.26 255.73 482.71 262.45 479.86 269.05 478.45 276.09 476.88 283.07 475.95 290.17 475.85 297.33 476.69 304.43 477.91 311.47"/><polyline class="d" points="621.49 154.32 617.36 149.6 610.29 151.04 603.5 153.56 597.15 157.03 590.96 160.74 584.4 163.85 578.63 168.26 572.43 171.97 566.22 175.68 560.26 179.78 554.43 184.07 548.32 187.95 542.67 192.5 537.18 197.15 531.19 201.14 525.94 206.06 520.33 210.57 515.07 215.47 510.5 221.04 505.18 225.91 501.06 231.82 496.53 237.39 492.29 243.19 488.93 249.55 485.26 255.73 482.71 262.45 479.86 269.05 478.45 276.09 476.88 283.07 475.95 290.17 475.85 297.33 476.69 304.43 477.91 311.47"/><polyline class="a" points="613.67 150.42 620.91 150.51 628.14 150.88 635.33 151.91 642.53 152.59 649.81 152.53 656.97 153.69 664.2 154.26 671.4 155.11 678.44 157.01 685.66 157.83 692.59 160.02 699.79 161.1 706.41 164.1 713.18 166.83 716.73 173.04 717.04 179.8 716.94 186.56 715.71 193.27 716.19 200.05 715.19 206.76 714.9 213.5 714.38 220 708.43 223.99 702.24 227.73 696.34 231.97 690.11 235.64 683.61 238.9 677.56 242.88 671.36 246.61 665.45 250.81 658.8 253.82 652.97 258.17 646.63 261.68 640.28 265.17 634.52 269.62 628.33 273.4 622.23 277.32 616.01 281.04"/><polyline class="d" points="613.67 150.42 620.91 150.51 628.14 150.88 635.33 151.91 642.53 152.59 649.81 152.53 656.97 153.69 664.2 154.26 671.4 155.11 678.44 157.01 685.66 157.83 692.59 160.02 699.79 161.1 706.41 164.1 713.18 166.83 716.73 173.04 717.04 179.8 716.94 186.56 715.71 193.27 716.19 200.05 715.19 206.76 714.9 213.5 714.38 220 708.43 223.99 702.24 227.73 696.34 231.97 690.11 235.64 683.61 238.9 677.56 242.88 671.36 246.61 665.45 250.81 658.8 253.82 652.97 258.17 646.63 261.68 640.28 265.17 634.52 269.62 628.33 273.4 622.23 277.32 616.01 281.04"/><polygon class="a" points="498.05 265.81 503.24 260.94 509.16 256.82 514.85 252.4 520.63 248.1 526.09 243.39 531.58 238.73 537.41 234.49 542.54 229.37 548.4 225.17 554.34 221.05 559.86 216.42 565.45 211.88 570.59 206.79 576.28 202.38 582.08 198.09 587.86 193.77 593.41 189.18 599.01 184.64 604.85 180.41 610.41 175.83 615.96 171.22 621.46 166.81 627.56 170.13 633.36 174.2 639.28 178.11 644.66 182.26 639.51 186.96 633.97 191.69 628.56 196.58 622.7 200.94 617.38 205.93 612.29 211.18 606.15 215.22 600.9 220.3 595.12 224.75 590.15 230.15 584.55 234.82 578.96 239.49 573.68 244.53 567.54 248.56 562.29 253.63 557.06 258.73 551.1 262.98 545.93 268.15 540.46 272.96 534.53 277.26 529.4 282.48 523.45 286.75 518.21 291.66 514.07 286.69 510.18 281.35 505.69 276.48 502.05 270.93 498.05 265.81"/><polyline class="a" points="716.7 173 710.14 175.64 703.6 178.31 697 180.83 690.42 183.38 683.83 185.94 677.19 188.36 670.72 191.21 664.13 193.78 657.54 196.35 651.16 199.41 644.95 202.82 638.47 205.66 631.95 208.44 625.76 211.89 619.68 215.5 613.4 218.76 607.5 222.66 601.1 225.77 595.29 229.81 589.76 234.23 584.3 238.74 579.83 244.2 574.83 249.13 570.59 254.73 566.42 260.37 562.46 266.15 558.18 271.74 554.89 277.96 551 283.83 547.93 290.15 544.9 296.5 542.38 303.06 540.01 309.89"/><polyline class="c" points="716.7 173 710.14 175.64 703.6 178.31 697 180.83 690.42 183.38 683.83 185.94 677.19 188.36 670.72 191.21 664.13 193.78 657.54 196.35 651.16 199.41 644.95 202.82 638.47 205.66 631.95 208.44 625.76 211.89 619.68 215.5 613.4 218.76 607.5 222.66 601.1 225.77 595.29 229.81 589.76 234.23 584.3 238.74 579.83 244.2 574.83 249.13 570.59 254.73 566.42 260.37 562.46 266.15 558.18 271.74 554.89 277.96 551 283.83 547.93 290.15 544.9 296.5 542.38 303.06 540.01 309.89"/><polyline class="a" points="483.75 311.39 485.78 304.36 489.12 297.86 492.55 291.42 495.14 284.55 498.76 278.2 503.24 272.39 507.17 266.26 511.63 260.51 515.86 254.56 520.45 248.89 525.32 243.44 530.9 238.71 536.58 234.15 542.03 229.29 548.12 225.28 554.13 221.12 560.79 218.12 567.09 214.37"/><polyline class="d" points="483.75 311.39 485.78 304.36 489.12 297.86 492.55 291.42 495.14 284.55 498.76 278.2 503.24 272.39 507.17 266.26 511.63 260.51 515.86 254.56 520.45 248.89 525.32 243.44 530.9 238.71 536.58 234.15 542.03 229.29 548.12 225.28 554.13 221.12 560.79 218.12 567.09 214.37"/><polyline class="d" points="527.61 202.57 534.63 203.58 541.51 205.28 548.29 207.37 554.73 210.39 561.45 212.63 567.81 215.75 574.28 218.67 580.41 222.27 585.91 226.78 591.2 231.49"/><polygon points="543.03 309.26 545.16 301.78 546.7 294.49 549.98 287.49 554.24 280.98 557.97 274.16 562.74 267.96 566.72 261.27 570.15 254.18 575.92 249.37 581.3 244.23 587.11 239.54 592.08 233.96 597.6 228.96 602.92 223.67 609.62 221.26 615.56 217.39 622.03 214.59 628.43 211.66 634.6 208.24 641.02 205.33 647.38 202.32 653.81 199.42 660.14 196.32 666.26 192.77 673.3 190.3 680.49 188.36 687.52 185.93 694.78 184.21 701.72 181.49 708.74 178.98 715.74 177.14 714.96 184.12 714.74 191.38 714.15 198.61 713.96 205.86 712.89 213.06 713.15 220.57 706.66 223.89 700.77 227.78 694.38 230.85 688.68 235.04 682.6 238.63 676.57 242.29 670.36 245.65 664.47 249.55 658.12 252.68 652.16 256.44 645.98 259.85 640.25 264.01 633.75 266.89 627.81 270.71 621.96 274.67 615.94 278.36 610 282.17 603.75 285.48 597.46 288.68 590.23 291.69 582.93 294.62 575.75 297.81 568.37 300.55 561.36 304.21 555.27 305.69 549.16 307.06 543.03 309.26"/><polyline class="b" points="251.39 575.22 244.76 579.16 238.18 583.08 232.2 587.97 227.81 594.32 223.56 600.7 220.3 607.1 217.95 613.88 217 621 215.84 628.08 215.53 635.27 216.03 642.44 216.33 649.62 216.46 656.8 216.98 663.97 217.13 671.17 216.39 678.33 215.26 685.43 214.14 692.55 211.56 699.28 209.69 706.25 206.32 712.63 202.72 718.83 199.46 725.25 195.12 730.99 191.16 737.01 186.72 742.69"/><polyline class="b" points="479.01 314.52 472.41 317.21 466.54 321.23 460.62 325.13 454.7 329.05 449.02 333.33 443.63 337.96 438.72 343.11 433.4 347.84 429.32 353.71 424.9 359.23 420.62 364.87 416.98 370.95 413.43 377.08 410.13 383.38 407.8 390.11 406.37 397.07 404.55 403.91 403.9 410.96 402.77 417.99 402.49 425.13 402.37 432.27 402.11 439.42 401.35 446.53 400.49 453.62 399.59 460.71 399.31 467.88 398.21 474.94 397.03 481.99 395.4 488.96 394.18 496 392.45 502.94 391.06 509.97 388.55 516.69 386.06 523.38 384.02 530.24 381.3 536.86 378.37 543.4 374.63 549.53 370.36 555.29 365.34 560.38 360.06 565.16 353.95 568.79 347.34 571.39 340.35 572.92 333.07 573.17 325.8 573 318.53 573.02 311.27 572.59 304.02 571.93 296.77 571.47 289.49 571.48"/><polyline class="c" points="173.09 740.15 166.5 741.67 159.78 742.61"/><polyline class="c" points="180.24 749.02 174.62 753.6 168.77 757.93"/><polyline class="c" points="189.23 753 189.44 759.5 189.8 766"/></svg>