<svg xmlns="http://www.w3.org/2000/svg" viewBox="0 0 800 800"><defs><style>.a,.c,.d,.e,.g{fill:none;stroke-linejoin:bevel;}.a,.e,.g{stroke:#000;}.a,.d{stroke-width:13px;}.b{fill:#fff;}.c,.d{stroke:#fff;}.c{stroke-width:3px;}.e{stroke-width:7px;}.f{fill:#d1d3d4;}.g{stroke-width:5px;}</style></defs><title>canvas (40)</title><polyline points="605.38 644.17 604.1 651.25 602.25 658.21 600.53 665.22 597.93 671.95 594.38 678.28 591.77 684.98 588.71 691.48 585.68 698.04 581.36 703.84 577.6 709.98 573.15 715.64 568.84 721.4 564.39 727.09 558.73 731.63 553.99 737.11 548.45 741.73 542.17 745.36 536.38 749.61 530.53 753.84 524.05 757 517.63 760.24 510.85 762.79 504.32 766.01 497.31 767.89 490.39 770.03 483.51 772.4 476.43 774.03 469.26 775.17 462.04 775.98 454.95 777.57 447.75 778.44 440.53 779.17 433.29 779.63 426.07 780.34 418.94 781.8 411.67 782.05 404.45 782.72 397.33 784.15 390.18 785.32 383.01 786.46 375.85 787.7 368.95 790.02 362.08 792.42 355.88 796.25 349.77 800.39 342.62 800.5 335.54 800.43 328.46 800.57 321.37 800.13 314.29 800.44 307.21 800 300.12 800.06 293.04 800.09 285.95 799.89 278.87 800.3 271.78 799.77 264.7 800.32 257.61 800.46 250.52 799.73 243.44 800.47 236.35 800.88 229.26 800.07 222.18 800.09 215.09 800.1 208.01 800.26 200.92 800.73 193.83 800.04 186.75 800.53 179.66 799.92 172.56 800.81 165.47 800.48 168.04 793.71 171.2 787.2 174.58 780.8 177.74 774.23 181.7 768.12 186.22 762.41 190.66 756.63 196.01 751.65 201.21 746.56 206.8 741.89 212.9 737.92 218.65 733.46 224.9 729.76 231.19 726.12 237.93 723.39 244.43 720.15 251.32 717.84 258.07 715.18 264.94 712.8 272.08 711.41 279.1 709.51 286.18 707.88 293.43 707.14 300.65 706.34 307.82 704.9 315.1 704.56 322.4 705.17 329.67 704.11 336.85 704.88 344.01 704.35 351.18 703.9 358.24 702.54 365.44 702.3 372.46 700.81 379.61 699.98 386.44 697.7 393.53 696.4 400.35 694.1 407.02 691.44 413.51 688.34 419.92 685.13 425.94 681.21 431.97 677.38 437.97 673.47 443.95 669.45 449.23 664.56 453.9 659.08 458.66 653.72 462.7 647.8 467.15 642.18 471 636.12 473.79 629.5 476.95 623.09 480.02 616.58 481.42 609.52 483.72 602.7"/><polyline class="a" points="605.38 644.17 604.1 651.25 602.25 658.21 600.53 665.22 597.93 671.95 594.38 678.28 591.77 684.98 588.71 691.48 585.68 698.04 581.36 703.84 577.6 709.98 573.15 715.64 568.84 721.4 564.39 727.09 558.73 731.63 553.99 737.11 548.45 741.73 542.17 745.36 536.38 749.61 530.53 753.84 524.05 757 517.63 760.24 510.85 762.79 504.32 766.01 497.31 767.89 490.39 770.03 483.51 772.4 476.43 774.03 469.26 775.17 462.04 775.98 454.95 777.57 447.75 778.44 440.53 779.17 433.29 779.63 426.07 780.34 418.94 781.8 411.67 782.05 404.45 782.72 397.33 784.15 390.18 785.32 383.01 786.46 375.85 787.7 368.95 790.02 362.08 792.42 355.88 796.25 349.77 800.39 342.62 800.5 335.54 800.43 328.46 800.57 321.37 800.13 314.29 800.44 307.21 800 300.12 800.06 293.04 800.09 285.95 799.89 278.87 800.3 271.78 799.77 264.7 800.32 257.61 800.46 250.52 799.73 243.44 800.47 236.35 800.88 229.26 800.07 222.18 800.09 215.09 800.1 208.01 800.26 200.92 800.73 193.83 800.04 186.75 800.53 179.66 799.92 172.56 800.81 165.47 800.48 168.04 793.71 171.2 787.2 174.58 780.8 177.74 774.23 181.7 768.12 186.22 762.41 190.66 756.63 196.01 751.65 201.21 746.56 206.8 741.89 212.9 737.92 218.65 733.46 224.9 729.76 231.19 726.12 237.93 723.39 244.43 720.15 251.32 717.84 258.07 715.18 264.94 712.8 272.08 711.41 279.1 709.51 286.18 707.88 293.43 707.14 300.65 706.34 307.82 704.9 315.1 704.56 322.4 705.17 329.67 704.11 336.85 704.88 344.01 704.35 351.18 703.9 358.24 702.54 365.44 702.3 372.46 700.81 379.61 699.98 386.44 697.7 393.53 696.4 400.35 694.1 407.02 691.44 413.51 688.34 419.92 685.13 425.94 681.21 431.97 677.38 437.97 673.47 443.95 669.45 449.23 664.56 453.9 659.08 458.66 653.72 462.7 647.8 467.15 642.18 471 636.12 473.79 629.5 476.95 623.09 480.02 616.58 481.42 609.52 483.72 602.7"/><polyline class="a" points="536.1 274.63 537.9 281.57 540.14 288.41 541.33 295.5 541.98 302.67 543.57 309.69 543.53 316.9 544.35 324.02 545.47 331.16 544.96 338.35 544.67 345.51 544.71 352.7"/><polyline class="a" points="508.56 553.04 502.95 548.48 497.88 543.28 494.08 537.05 489.87 531.18 485.32 525.5 482.29 518.88 478.56 512.66 475.24 506.21 472.64 499.44 470.64 492.46 467.69 485.82 465.5 478.9 463.59 471.9 462.46 464.73 460.56 457.72 459.89 450.49 459.3 443.26 458.24 436.1 457.3 428.91 456.68 421.68 457.08 414.65 456.53 407.66 454.83 400.81 453.77 393.91 452.82 386.98 451.15 380.19 449.61 373.38 448.58 366.41 446.17 359.82 443.34 353.4 441.3 346.7 439.07 340.06 435.74 333.88 432.91 327.5 429.57 321.36 427.38 314.62"/><polyline class="a" points="548.22 338.19 554.25 334.32 560.03 330.1 566.17 326.44 572.53 323.16 578.96 320.06 585.29 316.76 591.9 314.06 598.28 310.71 605.37 309.39 612.1 306.92 619.08 305.29 626.18 304.35 633.33 303.95 640.46 304.49 647.53 305.16 654.54 306.39 661.53 307.93 667.91 311.17 674.07 314.72 680.35 318.19 685.43 323.25 690.31 328.45 695.46 333.49 698.75 339.88 701.98 346.26 704.36 353.08 704.49 360.3 703.32 367.34 702.06 374.35 699.78 381.18 695.98 387.28 691.67 393.01 687.11 398.54 681.61 403.15 676.84 408.6 670.88 412.62 664.66 416.2 658.76 420.26 652.23 423.22 646.11 426.96 639.62 430.02 633 432.79 626.09 434.73 619.32 437.07 612.41 439.01 605.3 440.01 598.35 441.8 591.34 442.31 584.38 443.28 577.38 444.04 570.33 444.23 563.29 443.65 556.43 442.02 549.38 441.29 543.13 437.93 536.8 434.97 531.14 430.73 527.47 424.69 525.3 418.02 525.29 411.04 526.63 404.22 528.43 397.44 531.73 391.24 535.88 385.58 539.26 379.34 544.15 373.81 549.99 369.26 555.02 363.86 560.99 359.55 567.15 355.54 573.63 352.07 580.2 348.8 586.75 345.51 593.16 341.8 600.3 339.91 607.23 337.5 614.08 334.76 621.17 332.77 628.35 331.15 635.61 329.89"/><polyline class="a" points="704.44 364.58 710.44 368.98 716.61 373.11 722.06 378.14 727.52 383.2 732.18 389.02 736.25 395.28 738.73 402.31 741.34 409.28 741.28 416.72 740.61 424.01 739.49 431.4 736.15 438.08 731.56 443.92 727.37 450.02 722.01 455.13 716.8 460.38 711 465 705.21 469.29 699.34 473.47 693.35 477.48 687.23 481.28 681.31 485.39 674.82 488.56 668.55 492.11 662.43 495.96 655.96 499.18 649.24 501.81 642.3 503.84 635.63 506.59 628.57 508.09 621.63 510.07 614.54 511.38 607.38 512.29 600.15 512.11 592.93 512.28 585.88 510.75 578.87 509.2 572.24 506.49 566.01 502.95 560.39 498.51 555.1 493.64 551.16 487.61 547.34 481.58 544.44 475.02 542.9 468.02 542.12 460.86 543.12 453.71 545.88 447.09 548.76 440.63"/><polyline class="a" points="729.11 447.91 732.84 454.02 736.39 460.12 739.27 466.57 740.86 473.44 742.89 480.29 742.1 487.39 742.07 494.53 739.37 501.15 737.74 508.12 734.18 514.29 730.66 520.5 726.26 526.12 721.62 531.52 716.39 536.36 711.26 541.3 705.44 545.62 699.46 549.69 693.27 553.39 687.36 557.62 680.88 560.9 673.82 562.71 667.08 565.34 660.05 567.08 652.86 567.95 645.63 567.91 638.39 568.87 631.3 567.06 624.21 565.88 617.21 564.22 610.24 562.27 603.87 558.84 597.53 555.44 591.34 551.67 586.17 546.62 581.29 541.22 578.24 534.56 577.01 527.39 576.44 520.15 578.67 513.25 581.9 506.91"/><polyline class="b" points="627.23 610.4 626.36 617.34 623.58 623.79 620.26 629.95 616.17 635.68 610.58 639.95 605.29 644.67 598.71 647.26 591.96 649.15 585.17 650.96 578.2 651.99 571.16 652.36 564.1 652.19 557.15 650.87 550.14 650.16 543.29 648.5 536.23 647.22 529.22 645.54 522.51 642.9 516.2 639.45 510.12 635.64 504.41 631.34 498.43 627.26 494.25 621.34 489.91 615.69 485.81 609.8 483.24 603.1 480.85 596.39 478.28 589.61 477.61 582.4 478.54 575.24 479.32 568.13 482.93 562.13 489.29 561.26"/><polyline class="a" points="627.23 610.4 626.36 617.34 623.58 623.79 620.26 629.95 616.17 635.68 610.58 639.95 605.29 644.67 598.71 647.26 591.96 649.15 585.17 650.96 578.2 651.99 571.16 652.36 564.1 652.19 557.15 650.87 550.14 650.16 543.29 648.5 536.23 647.22 529.22 645.54 522.51 642.9 516.2 639.45 510.12 635.64 504.41 631.34 498.43 627.26 494.25 621.34 489.91 615.69 485.81 609.8 483.24 603.1 480.85 596.39 478.28 589.61 477.61 582.4 478.54 575.24 479.32 568.13 482.93 562.13 489.29 561.26"/><polyline class="a" points="597.22 616.25 604.57 615.45 611.73 613.38 619.07 612.57 626.12 610.37 633.27 608.6 640.18 606.06 647.03 603.37 654.02 600.87 660.34 597 666.1 592.36 672.47 588.52 677.43 583.01 682.67 577.8 687.05 571.84 690.64 565.38 693.43 558.56 697.05 552.04"/><polyline class="a" points="486.48 528.14 484.68 535.02 484.27 542.2 484.79 549.41 486.83 556.34 489.19 563.16 493.34 569.09 497.43 574.93 501.84 580.53 506.58 585.91 512.37 590.15 517.63 595.06"/><polygon points="535.79 274.7 528.51 272.36 521.07 273.58 513.75 275.13 506.31 276.17 499.19 278.56 491.93 280.44 484.77 282.69 477.89 285.72 470.82 288.22 464.14 291.65 457.3 294.67 450.25 297.24 443.41 300.35 437.43 304.96 430.91 308.67 426.57 314.97 433.96 316.65 441.45 316.32 448.82 314.9 456.04 312.92 463.32 311.15 470.23 308.18 477.55 306.45 484.71 304.23 491.69 301.47 498.56 298.49 505.52 295.69 512.07 292.04 519.02 289.19 525.18 284.87 531.4 280.74 535.79 274.7"/><polygon class="a" points="535.79 274.7 528.51 272.36 521.07 273.58 513.75 275.13 506.31 276.17 499.19 278.56 491.93 280.44 484.77 282.69 477.89 285.72 470.82 288.22 464.14 291.65 457.3 294.67 450.25 297.24 443.41 300.35 437.43 304.96 430.91 308.67 426.57 314.97 433.96 316.65 441.45 316.32 448.82 314.9 456.04 312.92 463.32 311.15 470.23 308.18 477.55 306.45 484.71 304.23 491.69 301.47 498.56 298.49 505.52 295.69 512.07 292.04 519.02 289.19 525.18 284.87 531.4 280.74 535.79 274.7"/><polygon class="b" points="497.29 288.89 488.84 289.52 480.38 292.47 471.76 295.16 464.46 301 473.63 300.04 482.04 296.98 490.45 293.89 497.29 288.89"/><polygon class="c" points="497.29 288.89 488.84 289.52 480.38 292.47 471.76 295.16 464.46 301 473.63 300.04 482.04 296.98 490.45 293.89 497.29 288.89"/><polyline class="a" points="356.43 275.13 353.59 268.31 349.91 261.94 346.12 255.64 342.08 249.5 337.89 243.46 334.55 236.88 330.4 230.81 326.74 224.44 322.96 218.11 320.96 211.01 320.21 203.91 320.31 196.79 320.04 189.62 321.27 182.55 323.71 175.81 327.13 169.58 331.23 163.86 336.04 158.67 342.25 155.26 348.67 152.06 355.74 150.72 362.92 150.88 370.04 151.32 377.12 152.33 383.91 154.58 390.87 156.21 397.83 157.97 404.3 161.07 410.65 164.25 417.3 166.91 422.84 171.45 428.77 175.37 434.33 179.84 439.14 185.11 443.58 190.66 448.11 196.14 451.81 202.22 455.58 208.26 458.63 214.68 461.83 221.05 463.79 227.91 465.72 234.75"/><polygon points="465.87 233.1 459.24 231.11 451.74 231.46 444.41 233.04 437.24 235.21 429.78 236.32 422.78 239.05 415.56 241.08 408.42 243.39 401.52 246.36 394.92 249.97 387.9 252.59 381.04 255.58 374.48 259.18 367.62 262.28 361.39 266.55 357.58 273.03 364.67 274.6 372.15 274.4 379.42 272.53 386.82 271.36 393.99 269.18 401.15 266.97 408.15 264.3 415.35 262.19 422.35 259.5 429.33 256.8 436.2 253.8 443.1 250.84 449.59 247.07 456.17 243.49 462.13 238.93 465.87 233.1"/><polygon class="a" points="465.87 233.1 459.24 231.11 451.74 231.46 444.41 233.04 437.24 235.21 429.78 236.32 422.78 239.05 415.56 241.08 408.42 243.39 401.52 246.36 394.92 249.97 387.9 252.59 381.04 255.58 374.48 259.18 367.62 262.28 361.39 266.55 357.58 273.03 364.67 274.6 372.15 274.4 379.42 272.53 386.82 271.36 393.99 269.18 401.15 266.97 408.15 264.3 415.35 262.19 422.35 259.5 429.33 256.8 436.2 253.8 443.1 250.84 449.59 247.07 456.17 243.49 462.13 238.93 465.87 233.1"/><polygon class="b" points="427.77 247.15 419.62 247.97 411.09 250.65 402.48 253.34 395.61 259.01 404.52 258.89 412.81 255.31 421.18 252.11 427.77 247.15"/><polygon class="c" points="427.77 247.15 419.62 247.97 411.09 250.65 402.48 253.34 395.61 259.01 404.52 258.89 412.81 255.31 421.18 252.11 427.77 247.15"/><polyline class="d" points="317.41 724.78 309.92 724.78 302.41 725.07 295 726.28 287.85 728.63 280.85 731.14 274.2 734.52"/><polyline class="d" points="474.25 674.92 469.62 680.71 463.82 685.32 457.99 689.81 452.64 694.96 446.51 699.1 439.78 702.21 433.18 705.44 426.63 708.77 419.84 711.58 412.87 713.92 405.79 715.88 398.75 718.01 391.58 719.69 384.23 720.36 377 721.79 369.67 722.46 362.3 722.42 354.97 723.04"/><polygon class="e" points="665.86 364.65 660.83 362.29 655.53 360.7 653.62 366.25 651.86 371.74 656.84 374.33 662.37 375.13 663.82 369.88 665.86 364.65"/><polyline class="e" points="655.63 361 649.1 363.94 643.06 367.81 636.68 371.05 630.7 375 624.08 377.81"/><polyline class="e" points="661.59 374.61 655.26 378.27 649.09 382.21 642.47 385.38 636.63 389.87 630.15 393.28"/><polygon points="624.34 411.61 621.65 404.8 619.55 398.04 616.68 391.59 614.41 384.9 611.45 378.48 609.73 371.83 614.31 368.51 619.57 366.52 622.33 372.6 624.95 379 627.42 385.46 629.09 392.24 631.62 398.69 634.92 404.93 629.66 408.17 624.34 411.61"/><polygon class="e" points="624.34 411.61 621.65 404.8 619.55 398.04 616.68 391.59 614.41 384.9 611.45 378.48 609.73 371.83 614.31 368.51 619.57 366.52 622.33 372.6 624.95 379 627.42 385.46 629.09 392.24 631.62 398.69 634.92 404.93 629.66 408.17 624.34 411.61"/><polyline class="e" points="615.25 382.98 609.23 386.02 603.57 389.76 597.1 391.86 591.22 395.23 584.77 397.27 578.67 400.24 572.01 401.56 566.67 405.22 561.84 409.44 559.08 415.22"/><polyline class="e" points="621.75 399.79 615.84 403.17 609.52 405.78 603.35 408.63 597.04 411.12 590.84 413.87 584.76 417.06 578.06 418.4 570.59 417.7 563.26 415.55 557.19 410.9"/><polyline class="f" points="564.32 413.55 571.18 411.53 578.16 409.93 584.62 406.79 591.41 404.6 598 401.87 604.51 398.93 611.03 396.01 616.89 391.84"/><polyline class="g" points="564.32 413.55 571.18 411.53 578.16 409.93 584.62 406.79 591.41 404.6 598 401.87 604.51 398.93 611.03 396.01 616.89 391.84"/><polyline class="e" points="693.21 428.23 687.11 431.4 681.08 434.69 674.72 437.37 668.94 441.12 663.1 444.77"/><polyline class="e" points="700.59 450.19 694.34 453.31 688.01 456.28 682.54 460.74 676.12 463.55 670.37 467.55"/><polyline class="e" points="652.53 445.2 655.54 452.65 657.94 460.3 660.47 467.9 662.73 475.59"/><polyline class="e" points="674.6 427.21 676.34 433.52 678.77 439.6 680.76 445.83 682.58 452.11 684.88 458.23"/><polyline class="e" points="660.81 458.93 655.05 462.26 649.08 465.15 642.94 467.66 636.64 469.77 630.56 472.41"/><polyline class="e" points="639.86 459.82 642.83 467.87 644.7 476.27"/><polyline class="e" points="621.05 462.26 614 464.76 606.75 466.78 599.2 466.91 591.77 467.95"/><polyline class="e" points="628.39 485.37 621.17 487.45 613.75 488.66 606.21 488.29 598.74 488.75"/><polyline class="e" points="617.41 463.2 620.25 470.47 622.05 478.07 624.29 485.54"/><polyline class="e" points="604.34 466.04 606.46 473.71 609.13 481.2 611.66 488.73 612.97 496.65"/><polygon class="e" points="696.38 499.84 694.79 506.74 692.37 513.61 689.29 520.22 685.29 526.32 680.77 531.98 675.86 537.23 670.55 542.19 663.8 544.89 656.75 546.68 649.2 545.6 641.94 543.74 637 538.08 639.15 531.09 644.87 526.36 652.41 527.19 659.37 528.33 666.37 527.44 672.71 524.51 678.94 521.3 684.1 516.54 688.91 511.45 693.3 505.94 696.38 499.84"/><polyline class="e" points="636.99 535.03 644.34 536.39 651.75 537.25 659.15 538.25 666.61 537.94 673.95 536.51 680.59 533.08 673.16 536.83 665.72 540.53 657.95 543.1 649.96 541.82 642.03 539.58"/><polyline class="e" points="498.51 489.32 502.69 497.14 508.8 503.52"/><polyline class="e" points="491.72 452 491.46 457.96 491.43 463.99 491.35 470"/><polyline class="e" points="487.42 409.26 489.29 415.98 489.7 422.89 490.18 429.79"/><polyline class="e" points="480.64 375.06 482.38 382 483.13 389.15"/><polyline class="e" points="472.07 392.56 479.02 395.87 486.03 399.04 493.31 401.6 500.34 404.76"/><polyline class="e" points="496.43 387.42 491.68 392.94 486.7 398.29 481.67 403.6 477.31 409.48"/><polyline class="e" points="478.47 429.84 484.6 434.85 490.27 440.42 496.81 444.97 502.72 450.27"/><polyline class="e" points="502.92 428.56 498.25 433.22 494.05 438.3 489.85 443.38 485.11 447.99 480.86 453.03"/><polyline class="e" points="482.74 475.11 489.18 477.61 495.88 479.33 502.38 481.69 508.86 484.11"/><polyline class="e" points="502.75 466.36 498.37 472.6 495.55 479.74 490.94 485.86 487.76 492.8"/><polygon class="b" points="150.71 395.98 156.53 400.47 161.91 405.48 166.58 411.18 171.68 416.48 176.18 422.29 179.84 428.67 183.81 434.83 187.44 441.22 189.52 448.28 191.3 455.33 192.92 462.53 190.84 469.59 188.2 476.38 182.34 480.74 175.42 482.76 168.25 483.5 160.95 483.43 153.84 481.78 147.05 479.12 139.97 477.24 133.74 473.37 126.87 470.79 120.67 466.92 115.06 462.2 108.9 458.3 103.43 453.47 97.71 448.88 92.84 443.38 87.17 438.64 82.84 432.69 78.07 427.12 73.75 421.18 70.66 414.49 66.65 408.31 64.21 401.38 62.4 394.29 61.45 387.02 63.06 379.91 66.14 373.39 71.7 368.78 78.62 366.68 85.82 365.57 93.08 366.34 100.25 367.65 107.15 370.02 113.92 372.7 120.53 375.75 126.74 379.54 133.38 382.64 139.1 387.19 144.87 391.63 150.71 395.98"/><polygon class="a" points="150.71 395.98 156.53 400.47 161.91 405.48 166.58 411.18 171.68 416.48 176.18 422.29 179.84 428.67 183.81 434.83 187.44 441.22 189.52 448.28 191.3 455.33 192.92 462.53 190.84 469.59 188.2 476.38 182.34 480.74 175.42 482.76 168.25 483.5 160.95 483.43 153.84 481.78 147.05 479.12 139.97 477.24 133.74 473.37 126.87 470.79 120.67 466.92 115.06 462.2 108.9 458.3 103.43 453.47 97.71 448.88 92.84 443.38 87.17 438.64 82.84 432.69 78.07 427.12 73.75 421.18 70.66 414.49 66.65 408.31 64.21 401.38 62.4 394.29 61.45 387.02 63.06 379.91 66.14 373.39 71.7 368.78 78.62 366.68 85.82 365.57 93.08 366.34 100.25 367.65 107.15 370.02 113.92 372.7 120.53 375.75 126.74 379.54 133.38 382.64 139.1 387.19 144.87 391.63 150.71 395.98"/><polygon class="b" points="151.18 400.12 156.96 404.8 161.72 410.49 165.86 416.62 170.19 422.64 173 429.53 173.9 436.91 171.04 443.51 165.11 447.39 157.86 447.21 150.53 446.46 143.76 443.56 137.38 439.92 131.08 436.14 125.25 431.64 119.64 426.79 114.58 421.36 110.35 415.26 106.87 408.75 103.42 402.18 102.29 394.76 105.08 387.86 111.44 384.48 118.73 383.73 125.72 386.02 132.46 388.75 139.26 391.53 145.29 395.73 151.18 400.12"/><polygon class="a" points="151.18 400.12 156.96 404.8 161.72 410.49 165.86 416.62 170.19 422.64 173 429.53 173.9 436.91 171.04 443.51 165.11 447.39 157.86 447.21 150.53 446.46 143.76 443.56 137.38 439.92 131.08 436.14 125.25 431.64 119.64 426.79 114.58 421.36 110.35 415.26 106.87 408.75 103.42 402.18 102.29 394.76 105.08 387.86 111.44 384.48 118.73 383.73 125.72 386.02 132.46 388.75 139.26 391.53 145.29 395.73 151.18 400.12"/><polygon points="162.06 409.36 167.04 414.3 171.46 419.72 175.36 425.59 177.21 432.44 175.32 439.22 169.09 442.56 162.22 441.01 155.37 439.46 149.56 435.51 143.66 431.73 139.01 426.42 134.59 421.01 131.17 414.93 129.26 408.28 130.91 401.74 136.93 398.43 143.97 398.97 150.33 401.94 156.66 404.92 162.06 409.36"/><polygon class="a" points="162.06 409.36 167.04 414.3 171.46 419.72 175.36 425.59 177.21 432.44 175.32 439.22 169.09 442.56 162.22 441.01 155.37 439.46 149.56 435.51 143.66 431.73 139.01 426.42 134.59 421.01 131.17 414.93 129.26 408.28 130.91 401.74 136.93 398.43 143.97 398.97 150.33 401.94 156.66 404.92 162.06 409.36"/><polygon class="b" points="326.82 438.89 332.04 444.07 336.93 449.54 342.21 454.61 346.96 460.18 351.43 465.96 355.38 472.11 359.24 478.3 363.46 484.38 366.05 491.29 367.41 498.52 368.79 505.79 367.11 512.98 363.57 519.26 357.91 523.5 351.42 526.9 344.07 526.92 336.87 526.07 329.75 524.7 322.75 522.75 316.18 519.61 309.28 517.2 303.05 513.42 296.71 509.83 290.71 505.71 284.55 501.78 279.42 496.54 273.62 492.04 268.11 487.18 263.05 481.85 258.77 475.86 253.71 470.51 249.58 464.43 246.05 457.98 243 451.32 240.27 444.55 237.71 437.64 237.6 430.27 238.32 422.98 242.03 416.7 247.72 412.39 254.3 409.16 261.64 409.31 268.92 409.46 275.96 411.37 283.04 413.1 289.57 416.36 296.5 418.71 302.5 422.91 308.88 426.4 315.17 430.1 320.81 434.74 326.82 438.89"/><polygon class="a" points="326.82 438.89 332.04 444.07 336.93 449.54 342.21 454.61 346.96 460.18 351.43 465.96 355.38 472.11 359.24 478.3 363.46 484.38 366.05 491.29 367.41 498.52 368.79 505.79 367.11 512.98 363.57 519.26 357.91 523.5 351.42 526.9 344.07 526.92 336.87 526.07 329.75 524.7 322.75 522.75 316.18 519.61 309.28 517.2 303.05 513.42 296.71 509.83 290.71 505.71 284.55 501.78 279.42 496.54 273.62 492.04 268.11 487.18 263.05 481.85 258.77 475.86 253.71 470.51 249.58 464.43 246.05 457.98 243 451.32 240.27 444.55 237.71 437.64 237.6 430.27 238.32 422.98 242.03 416.7 247.72 412.39 254.3 409.16 261.64 409.31 268.92 409.46 275.96 411.37 283.04 413.1 289.57 416.36 296.5 418.71 302.5 422.91 308.88 426.4 315.17 430.1 320.81 434.74 326.82 438.89"/><polygon class="b" points="327.06 443.31 332.79 448.04 337.11 454.12 342.14 459.56 346.18 465.81 348.84 472.78 348.98 480.13 347.33 487.14 340.91 490.52 333.63 490.98 326.53 489.18 319.44 487.12 313.36 482.91 306.74 479.62 300.84 475.18 295.9 469.61 290.71 464.35 286.19 458.5 282.58 452.07 279.93 445.23 278.46 438.02 280.74 430.96 287.1 427 294.55 427.01 301.52 429.34 308.63 431.25 314.72 435.41 321.03 439.11 327.06 443.31"/><polygon class="a" points="327.06 443.31 332.79 448.04 337.11 454.12 342.14 459.56 346.18 465.81 348.84 472.78 348.98 480.13 347.33 487.14 340.91 490.52 333.63 490.98 326.53 489.18 319.44 487.12 313.36 482.91 306.74 479.62 300.84 475.18 295.9 469.61 290.71 464.35 286.19 458.5 282.58 452.07 279.93 445.23 278.46 438.02 280.74 430.96 287.1 427 294.55 427.01 301.52 429.34 308.63 431.25 314.72 435.41 321.03 439.11 327.06 443.31"/><polygon points="337.84 452.67 342.88 457.54 347.79 462.62 351.13 468.87 353.23 475.68 350.54 481.96 344.81 484.69 338.04 484.31 331.33 482.42 325.59 478.45 319.77 474.64 315.07 469.46 310.08 464.5 307.22 458.09 304.84 451.55 307.09 445.28 312.84 442.54 319.65 442.82 326.18 445.14 331.96 448.97 337.84 452.67"/><polygon class="a" points="337.84 452.67 342.88 457.54 347.79 462.62 351.13 468.87 353.23 475.68 350.54 481.96 344.81 484.69 338.04 484.31 331.33 482.42 325.59 478.45 319.77 474.64 315.07 469.46 310.08 464.5 307.22 458.09 304.84 451.55 307.09 445.28 312.84 442.54 319.65 442.82 326.18 445.14 331.96 448.97 337.84 452.67"/></svg>