<svg id="Layer_1" data-name="Layer 1" xmlns="http://www.w3.org/2000/svg" viewBox="0 0 800 800"><defs><style>.cls-1{fill:#fff;}.cls-2{fill:none;stroke:#000;stroke-linejoin:bevel;stroke-width:13px;}</style></defs><title>canvas (80)</title><polygon class="cls-1" points="332.89 403.29 337.54 397.85 342.6 392.6 347.61 387.31 352.9 382.29 357.93 377.02 362.74 371.54 368.05 366.53 372.57 360.78 377.52 355.44 382.9 350.5 387.41 344.75 393.05 340.05 398.06 334.76 402.95 329.36 407.69 323.81 412.54 318.37 417.39 312.93 422.69 307.91 427.39 302.31 432.73 297.14 438.71 301.57 444.42 306.13 450.43 310.3 455.8 315.31 461.48 319.92 467.81 323.67 473.48 328.3 478.88 333.25 485.14 337.11 490.8 341.75 496.29 346.58 502.5 350.49 508.18 355.1 514.07 359.43 519.69 364.12 525.69 368.32 531.28 373.04 537.39 377.09 542.82 382.04 548.57 386.32 542.2 389.21 535.68 392.18 529.08 394.96 522.43 397.64 515.92 400.62 509.59 403.99 503.11 407.03 496.66 410.14 490.09 413 483.63 416.09 476.78 418.32 470.5 421.81 463.94 424.69 457.29 427.39 450.75 430.32 443.81 428.76 436.98 426.67 429.85 425.94 423 423.93 415.96 422.78 409.08 420.96 402.27 418.79 395.26 417.51 388.4 415.58 381.32 414.59 374.32 413.28 367.39 411.64 360.62 409.31 353.6 408.08 346.75 406.08 339.81 404.46 332.89 403.29"/><polygon class="cls-2" points="332.89 403.29 337.54 397.85 342.6 392.6 347.61 387.31 352.9 382.29 357.93 377.02 362.74 371.54 368.05 366.53 372.57 360.78 377.52 355.44 382.9 350.5 387.41 344.75 393.05 340.05 398.06 334.76 402.95 329.36 407.69 323.81 412.54 318.37 417.39 312.93 422.69 307.91 427.39 302.31 432.73 297.14 438.71 301.57 444.42 306.13 450.43 310.3 455.8 315.31 461.48 319.92 467.81 323.67 473.48 328.3 478.88 333.25 485.14 337.11 490.8 341.75 496.29 346.58 502.5 350.49 508.18 355.1 514.07 359.43 519.69 364.12 525.69 368.32 531.28 373.04 537.39 377.09 542.82 382.04 548.57 386.32 542.2 389.21 535.68 392.18 529.08 394.96 522.43 397.64 515.92 400.62 509.59 403.99 503.11 407.03 496.66 410.14 490.09 413 483.63 416.09 476.78 418.32 470.5 421.81 463.94 424.69 457.29 427.39 450.75 430.32 443.81 428.76 436.98 426.67 429.85 425.94 423 423.93 415.96 422.78 409.08 420.96 402.27 418.79 395.26 417.51 388.4 415.58 381.32 414.59 374.32 413.28 367.39 411.64 360.62 409.31 353.6 408.08 346.75 406.08 339.81 404.46 332.89 403.29"/><polygon class="cls-1" points="332.56 403.21 337.28 408.78 341.21 414.7 346.15 419.81 350.04 425.76 354.43 431.32 358.94 436.78 363.77 441.99 367.78 447.85 372.25 453.34 376.55 458.97 381.24 464.28 385.16 470.21 389.81 475.56 394.18 481.13 398.78 486.52 402.83 492.36 407.8 497.45 411.76 503.36 416.49 508.66 420.6 514.75 427.7 512.67 434.67 511.1 441.67 509.72 448.74 508.64 455.64 506.78 462.8 506.14 469.82 504.82 476.67 502.69 483.79 501.89 490.73 500.14 497.73 498.7 504.87 497.38 500.04 491.92 495.94 486.02 491.55 480.36 486.58 475.16 481.94 469.69 478.11 463.57 473.41 458.14 469.04 452.45 464.44 446.95 459.65 441.6 455.38 435.82 450.9 430.09 443.71 429.18 436.86 427.23 429.9 425.71 422.95 424.18 416.06 422.35 409.16 420.6 402.21 419.03 395.13 418.08 388.35 415.8 381.39 414.29 374.4 412.92 367.56 410.91 360.51 409.79 353.5 408.52 346.73 406.18 339.73 404.81 332.56 403.21"/><polygon class="cls-2" points="332.56 403.21 337.28 408.78 341.21 414.7 346.15 419.81 350.04 425.76 354.43 431.32 358.94 436.78 363.77 441.99 367.78 447.85 372.25 453.34 376.55 458.97 381.24 464.28 385.16 470.21 389.81 475.56 394.18 481.13 398.78 486.52 402.83 492.36 407.8 497.45 411.76 503.36 416.49 508.66 420.6 514.75 427.7 512.67 434.67 511.1 441.67 509.72 448.74 508.64 455.64 506.78 462.8 506.14 469.82 504.82 476.67 502.69 483.79 501.89 490.73 500.14 497.73 498.7 504.87 497.38 500.04 491.92 495.94 486.02 491.55 480.36 486.58 475.16 481.94 469.69 478.11 463.57 473.41 458.14 469.04 452.45 464.44 446.95 459.65 441.6 455.38 435.82 450.9 430.09 443.71 429.18 436.86 427.23 429.9 425.71 422.95 424.18 416.06 422.35 409.16 420.6 402.21 419.03 395.13 418.08 388.35 415.8 381.39 414.29 374.4 412.92 367.56 410.91 360.51 409.79 353.5 408.52 346.73 406.18 339.73 404.81 332.56 403.21"/><polygon class="cls-1" points="548.74 386.2 552.63 392.44 556.1 398.8 559.82 405.01 563.75 411.09 567.2 417.46 571.19 423.5 575.25 429.5 579.37 435.46 582.93 441.75 586.33 448.15 590 454.39 593.62 460.66 597.81 466.57 601.99 472.49 605.53 478.81 609.31 484.98 612.92 491.25 616.77 497.38 620.18 503.78 623.82 510.03 627.64 516.18 631.82 522.11 635.82 528.14 638.97 534.7 643.39 540.48 647 546.76 650.64 553.02 654.03 559.44 658.19 565.37 662.34 571.33 665.5 577.87 669.14 584.13 673.4 590.01 677.32 596.1 680.6 602.59 684.41 608.74 688.09 614.98 692.08 621.03 696.24 626.98 699.5 633.33 695.45 639.86 691.36 646.53 687.37 653.26 682.73 659.58 678.83 666.78 673.39 661.62 668.25 656.68 663.57 651.28 658.23 646.54 652.98 641.7 648.17 636.42 642.84 631.68 638.12 626.3 632.76 621.58 627.28 616.99 622.8 611.37 617.33 606.76 612.19 601.82 606.95 596.98 602.22 591.61 597.22 586.51 591.55 582.11 586.54 577.03 581.74 571.73 576.18 567.21 571.3 562 566.52 556.67 560.98 552.15 555.97 547.06 551.09 541.86 546 536.86 540.37 532.41 535.44 527.24 530.33 522.26 525.28 517.2 519.86 512.55 514.81 507.49 509.77 502.42 504.49 497.39 507.77 490.98 510.36 484.45 512.11 477.59 515.06 471.2 517.78 464.73 519.82 457.98 522.67 451.56 525.74 445.23 527.71 438.46 530.91 432.17 533.55 425.66 535.88 419.03 538.35 412.45 540.82 405.88 543.17 399.25 546.44 392.98 548.74 386.2"/><polygon class="cls-2" points="548.74 386.2 552.63 392.44 556.1 398.8 559.82 405.01 563.75 411.09 567.2 417.46 571.19 423.5 575.25 429.5 579.37 435.46 582.93 441.75 586.33 448.15 590 454.39 593.62 460.66 597.81 466.57 601.99 472.49 605.53 478.81 609.31 484.98 612.92 491.25 616.77 497.38 620.18 503.78 623.82 510.03 627.64 516.18 631.82 522.11 635.82 528.14 638.97 534.7 643.39 540.48 647 546.76 650.64 553.02 654.03 559.44 658.19 565.37 662.34 571.33 665.5 577.87 669.14 584.13 673.4 590.01 677.32 596.1 680.6 602.59 684.41 608.74 688.09 614.98 692.08 621.03 696.24 626.98 699.5 633.33 695.45 639.86 691.36 646.53 687.37 653.26 682.73 659.58 678.83 666.78 673.39 661.62 668.25 656.68 663.57 651.28 658.23 646.54 652.98 641.7 648.17 636.42 642.84 631.68 638.12 626.3 632.76 621.58 627.28 616.99 622.8 611.37 617.33 606.76 612.19 601.82 606.95 596.98 602.22 591.61 597.22 586.51 591.55 582.11 586.54 577.03 581.74 571.73 576.18 567.21 571.3 562 566.52 556.67 560.98 552.15 555.97 547.06 551.09 541.86 546 536.86 540.37 532.41 535.44 527.24 530.33 522.26 525.28 517.2 519.86 512.55 514.81 507.49 509.77 502.42 504.49 497.39 507.77 490.98 510.36 484.45 512.11 477.59 515.06 471.2 517.78 464.73 519.82 457.98 522.67 451.56 525.74 445.23 527.71 438.46 530.91 432.17 533.55 425.66 535.88 419.03 538.35 412.45 540.82 405.88 543.17 399.25 546.44 392.98 548.74 386.2"/><polygon class="cls-1" points="548.81 386.26 546.02 392.8 543.82 399.48 540.57 405.75 538.67 412.55 535.59 418.88 533.07 425.44 530.7 432.05 528.07 438.56 525.78 445.21 522.51 451.46 520.71 458.3 518.06 464.81 515.57 471.38 512.7 477.8 510.07 484.31 506.94 490.64 504.68 496.85 499.88 492.05 495.91 486.04 491.16 480.67 487.08 474.75 482.23 469.45 478.08 463.59 473.09 458.4 468.39 452.98 463.99 447.32 460.02 441.3 455.46 435.76 451.03 430.4 457.28 427.41 463.68 424.17 470.44 421.76 476.72 418.25 483.48 415.83 489.92 412.7 496.26 409.36 503.11 407.13 509.46 403.78 516.04 400.96 522.51 397.88 529.3 395.51 535.62 392.11 542.37 389.62 548.81 386.26"/><polygon class="cls-2" points="548.81 386.26 546.02 392.8 543.82 399.48 540.57 405.75 538.67 412.55 535.59 418.88 533.07 425.44 530.7 432.05 528.07 438.56 525.78 445.21 522.51 451.46 520.71 458.3 518.06 464.81 515.57 471.38 512.7 477.8 510.07 484.31 506.94 490.64 504.68 496.85 499.88 492.05 495.91 486.04 491.16 480.67 487.08 474.75 482.23 469.45 478.08 463.59 473.09 458.4 468.39 452.98 463.99 447.32 460.02 441.3 455.46 435.76 451.03 430.4 457.28 427.41 463.68 424.17 470.44 421.76 476.72 418.25 483.48 415.83 489.92 412.7 496.26 409.36 503.11 407.13 509.46 403.78 516.04 400.96 522.51 397.88 529.3 395.51 535.62 392.11 542.37 389.62 548.81 386.26"/><polygon class="cls-1" points="332.72 403.28 333.9 410.36 335.37 417.33 337.53 424.15 338.38 431.25 339.83 438.21 341.19 445.19 342.58 452.17 344.72 459 345.8 466.04 347.27 473 349.13 479.89 349.95 486.99 351.44 493.95 353.37 500.82 354.87 507.78 355.6 514.89 357.66 521.74 359.19 528.69 360.23 535.75 361.39 542.78 363.11 549.7 364.37 556.71 366.43 563.55 368.07 570.49 369.02 577.56 370.65 584.5 372.08 591.47 373.27 598.5 374.6 605.5 376.14 612.45 377.68 619.41 379 626.41 380.53 633.57 388.02 634.99 395.43 635.89 402.74 637.36 410.11 638.47 417.4 640.04 424.7 641.51 432.1 642.49 439.45 643.75 446.66 645.76 454.09 646.57 461.44 647.84 468.72 649.31 466.43 642.52 463.3 636.01 461.23 629.1 458.98 622.26 456.32 615.57 454.14 608.7 450.92 602.22 448.44 595.47 446.53 588.5 443.56 581.92 441.32 575.07 438.7 568.37 435.87 561.75 433.71 554.87 430.94 548.22 429.01 541.26 426.14 534.65 423.82 527.83 421.38 521.05 418.54 514.45 414.69 508.61 410.51 502.96 405.64 497.86 401.3 492.34 396.92 486.86 393.02 481 388.31 475.76 384.22 470.06 380.36 464.17 375.42 459.11 371.57 453.22 367.26 447.68 362.64 442.38 358.92 436.38 354.38 431.01 349.75 425.71 345.71 419.97 341.14 414.62 336.9 409.01 332.72 403.28"/><polygon class="cls-2" points="332.72 403.28 333.9 410.36 335.37 417.33 337.53 424.15 338.38 431.25 339.83 438.21 341.19 445.19 342.58 452.17 344.72 459 345.8 466.04 347.27 473 349.13 479.89 349.95 486.99 351.44 493.95 353.37 500.82 354.87 507.78 355.6 514.89 357.66 521.74 359.19 528.69 360.23 535.75 361.39 542.78 363.11 549.7 364.37 556.71 366.43 563.55 368.07 570.49 369.02 577.56 370.65 584.5 372.08 591.47 373.27 598.5 374.6 605.5 376.14 612.45 377.68 619.41 379 626.41 380.53 633.57 388.02 634.99 395.43 635.89 402.74 637.36 410.11 638.47 417.4 640.04 424.7 641.51 432.1 642.49 439.45 643.75 446.66 645.76 454.09 646.57 461.44 647.84 468.72 649.31 466.43 642.52 463.3 636.01 461.23 629.1 458.98 622.26 456.32 615.57 454.14 608.7 450.92 602.22 448.44 595.47 446.53 588.5 443.56 581.92 441.32 575.07 438.7 568.37 435.87 561.75 433.71 554.87 430.94 548.22 429.01 541.26 426.14 534.65 423.82 527.83 421.38 521.05 418.54 514.45 414.69 508.61 410.51 502.96 405.64 497.86 401.3 492.34 396.92 486.86 393.02 481 388.31 475.76 384.22 470.06 380.36 464.17 375.42 459.11 371.57 453.22 367.26 447.68 362.64 442.38 358.92 436.38 354.38 431.01 349.75 425.71 345.71 419.97 341.14 414.62 336.9 409.01 332.72 403.28"/><polygon class="cls-1" points="468.95 649.17 474.57 653.44 480.95 656.68 486.58 661.08 492.54 664.98 498.64 668.65 504.69 672.41 510.93 675.86 516.69 680.07 522.5 684.18 528.76 687.61 534.64 691.63 540.59 695.55 546.91 698.88 553 702.57 558.51 707.17 564.74 710.65 570.49 714.89 576.73 718.73 583.27 715.39 589.29 711.43 595.93 708.7 602.34 705.53 608.8 702.44 614.82 698.5 621.19 695.25 627.69 692.27 634.01 688.91 640.67 686.22 646.86 682.6 653.13 679.15 659.79 676.46 665.83 672.54 672.54 669.94 678.52 666.33 672.58 662.69 666.15 659.48 660.09 655.64 654.09 651.69 647.82 648.22 641.62 644.62 635.47 640.94 629.43 637.06 623.2 633.5 616.8 630.26 610.67 626.55 604.7 622.57 598.18 619.52 591.98 615.92 585.92 612.09 579.5 608.87 573.42 605.06 567.25 601.41 560.96 597.97 555.12 593.76 548.85 590.27 542.85 586.33 536.22 583.46 530.21 579.53 524.18 575.64 517.68 572.55 511.58 568.78 505.35 565.23 499.05 561.78 493.22 557.55 486.73 554.44 480.94 550.13 474.33 547.23 468.31 543.32 462 539.9 455.84 536.23 449.89 532.17 443.34 529.17 437.37 525.17 431.22 521.47 424.98 517.91 418.45 513.98 420.99 521.17 423.6 527.88 426.24 534.58 428.83 541.29 430.87 548.21 433.73 554.83 436.48 561.48 438.89 568.26 441.6 574.93 443.88 581.77 446.01 588.66 449.15 595.16 451.21 602.08 453.33 608.97 456.58 615.44 458.78 622.3 460.95 629.17 463.66 635.85 466.14 642.62 468.95 649.17"/><polygon class="cls-2" points="468.95 649.17 474.57 653.44 480.95 656.68 486.58 661.08 492.54 664.98 498.64 668.65 504.69 672.41 510.93 675.86 516.69 680.07 522.5 684.18 528.76 687.61 534.64 691.63 540.59 695.55 546.91 698.88 553 702.57 558.51 707.17 564.74 710.65 570.49 714.89 576.73 718.73 583.27 715.39 589.29 711.43 595.93 708.7 602.34 705.53 608.8 702.44 614.82 698.5 621.19 695.25 627.69 692.27 634.01 688.91 640.67 686.22 646.86 682.6 653.13 679.15 659.79 676.46 665.83 672.54 672.54 669.94 678.52 666.33 672.58 662.69 666.15 659.48 660.09 655.64 654.09 651.69 647.82 648.22 641.62 644.62 635.47 640.94 629.43 637.06 623.2 633.5 616.8 630.26 610.67 626.55 604.7 622.57 598.18 619.52 591.98 615.92 585.92 612.09 579.5 608.87 573.42 605.06 567.25 601.41 560.96 597.97 555.12 593.76 548.85 590.27 542.85 586.33 536.22 583.46 530.21 579.53 524.18 575.64 517.68 572.55 511.58 568.78 505.35 565.23 499.05 561.78 493.22 557.55 486.73 554.44 480.94 550.13 474.33 547.23 468.31 543.32 462 539.9 455.84 536.23 449.89 532.17 443.34 529.17 437.37 525.17 431.22 521.47 424.98 517.91 418.45 513.98 420.99 521.17 423.6 527.88 426.24 534.58 428.83 541.29 430.87 548.21 433.73 554.83 436.48 561.48 438.89 568.26 441.6 574.93 443.88 581.77 446.01 588.66 449.15 595.16 451.21 602.08 453.33 608.97 456.58 615.44 458.78 622.3 460.95 629.17 463.66 635.85 466.14 642.62 468.95 649.17"/><polygon points="504.79 497.18 497.62 498.94 490.51 500.64 483.22 501.4 476.09 503 468.96 504.57 461.83 506.19 454.59 507.22 447.35 508.26 440.25 509.98 433.11 511.56 425.9 512.81 418.7 514.32 424.82 518.15 431.06 521.69 437.48 524.91 443.57 528.68 449.81 532.22 455.85 536.11 462.22 539.41 468.26 543.28 474.36 547.05 480.63 550.52 486.63 554.45 492.79 558.12 499.03 561.66 505.46 564.86 511.32 569.03 517.58 572.52 523.7 576.26 530.29 579.18 536.13 583.4 542.34 586.99 548.66 590.38 554.98 593.78 561.33 597.13 567.42 600.91 573.66 604.44 579.73 608.28 586.09 611.6 592.24 615.29 598.39 618.99 604.45 622.83 610.62 626.49 617.05 629.71 623.14 633.49 629.29 637.18 635.59 640.61 641.62 644.52 647.78 648.19 654.17 651.48 660.27 655.26 666.28 659.21 672.59 662.63 678.89 666.45 673.56 661.45 668.47 656.45 663.66 651.18 658.36 646.4 653.02 641.66 648.24 636.35 643.07 631.44 638.05 626.37 632.41 621.94 627.53 616.73 622.74 611.43 617.12 606.98 612.37 601.63 606.95 596.98 602.11 591.72 596.62 587.13 591.57 582.09 586.45 577.13 581.38 572.11 576.72 566.66 570.99 562.32 566.05 557.16 560.96 552.16 556.28 546.75 551.11 541.83 545.8 537.06 540.48 532.29 535.66 527 530.25 522.34 525.01 517.49 520.37 512.02 514.79 507.51 509.7 502.49 504.79 497.18"/><polygon class="cls-2" points="504.79 497.18 497.62 498.94 490.51 500.64 483.22 501.4 476.09 503 468.96 504.57 461.83 506.19 454.59 507.22 447.35 508.26 440.25 509.98 433.11 511.56 425.9 512.81 418.7 514.32 424.82 518.15 431.06 521.69 437.48 524.91 443.57 528.68 449.81 532.22 455.85 536.11 462.22 539.41 468.26 543.28 474.36 547.05 480.63 550.52 486.63 554.45 492.79 558.12 499.03 561.66 505.46 564.86 511.32 569.03 517.58 572.52 523.7 576.26 530.29 579.18 536.13 583.4 542.34 586.99 548.66 590.38 554.98 593.78 561.33 597.13 567.42 600.91 573.66 604.44 579.73 608.28 586.09 611.6 592.24 615.29 598.39 618.99 604.45 622.83 610.62 626.49 617.05 629.71 623.14 633.49 629.29 637.18 635.59 640.61 641.62 644.52 647.78 648.19 654.17 651.48 660.27 655.26 666.28 659.21 672.59 662.63 678.89 666.45 673.56 661.45 668.47 656.45 663.66 651.18 658.36 646.4 653.02 641.66 648.24 636.35 643.07 631.44 638.05 626.37 632.41 621.94 627.53 616.73 622.74 611.43 617.12 606.98 612.37 601.63 606.95 596.98 602.11 591.72 596.62 587.13 591.57 582.09 586.45 577.13 581.38 572.11 576.72 566.66 570.99 562.32 566.05 557.16 560.96 552.16 556.28 546.75 551.11 541.83 545.8 537.06 540.48 532.29 535.66 527 530.25 522.34 525.01 517.49 520.37 512.02 514.79 507.51 509.7 502.49 504.79 497.18"/><polygon points="380.87 633.39 386.51 637.68 392.83 641.2 398.52 645.66 404.85 649.16 411 652.93 417 656.92 422.68 661.4 428.99 664.93 434.98 668.95 440.98 672.95 446.75 677.3 452.96 680.97 458.9 685.07 464.74 689.31 470.58 693.54 476.98 696.94 482.7 701.36 488.64 705.46 494.63 709.47 500.96 712.98 506.96 716.99 512.55 721.62 518.79 725.17 526.05 724.9 533.19 723.14 540.44 722.28 547.73 721.71 555.02 721.23 562.23 720.02 569.46 718.89 576.99 718.4 570.66 714.64 564.62 710.88 558.77 706.81 552.93 702.74 546.54 699.51 540.55 695.67 534.65 691.68 528.73 687.72 522.77 683.84 516.8 679.96 510.97 675.86 505.04 671.92 498.57 668.83 492.56 665 486.71 660.94 480.5 657.42 475 652.78 468.64 649.61 461.44 647.88 454.09 646.65 446.74 645.39 439.49 643.65 432.11 642.59 424.79 641.18 417.47 639.77 410.13 638.51 402.83 636.94 395.46 635.81 388.08 634.73 380.87 633.39"/><polygon class="cls-2" points="380.87 633.39 386.51 637.68 392.83 641.2 398.52 645.66 404.85 649.16 411 652.93 417 656.92 422.68 661.4 428.99 664.93 434.98 668.95 440.98 672.95 446.75 677.3 452.96 680.97 458.9 685.07 464.74 689.31 470.58 693.54 476.98 696.94 482.7 701.36 488.64 705.46 494.63 709.47 500.96 712.98 506.96 716.99 512.55 721.62 518.79 725.17 526.05 724.9 533.19 723.14 540.44 722.28 547.73 721.71 555.02 721.23 562.23 720.02 569.46 718.89 576.99 718.4 570.66 714.64 564.62 710.88 558.77 706.81 552.93 702.74 546.54 699.51 540.55 695.67 534.65 691.68 528.73 687.72 522.77 683.84 516.8 679.96 510.97 675.86 505.04 671.92 498.57 668.83 492.56 665 486.71 660.94 480.5 657.42 475 652.78 468.64 649.61 461.44 647.88 454.09 646.65 446.74 645.39 439.49 643.65 432.11 642.59 424.79 641.18 417.47 639.77 410.13 638.51 402.83 636.94 395.46 635.81 388.08 634.73 380.87 633.39"/><polygon points="450.45 430.12 447.58 423.64 444.14 417.1 440.73 410.53 437.83 403.71 433.81 397.45 430.62 390.79 427.55 384.05 423.91 377.6 421.16 370.7 416.98 364.52 414 357.74 411.11 350.91 407.53 344.43 404.43 337.69 400.72 331.4 395.6 336.13 390.69 341.22 385.87 346.39 381.06 351.58 376.46 356.97 371.52 362.03 366.6 367.12 361.97 372.48 357.31 377.81 352.37 382.89 347.4 387.93 342.16 392.72 337.85 398.4 332.48 403.42 339.64 405.15 346.58 406.7 353.52 408.3 360.62 409.22 367.34 411.75 374.4 412.8 381.35 414.35 388.19 416.37 395.13 417.96 402.21 418.92 409.05 420.96 416.05 422.27 423.05 423.62 429.89 425.65 436.89 427 443.76 428.93 450.45 430.12"/><polygon class="cls-2" points="450.45 430.12 447.58 423.64 444.14 417.1 440.73 410.53 437.83 403.71 433.81 397.45 430.62 390.79 427.55 384.05 423.91 377.6 421.16 370.7 416.98 364.52 414 357.74 411.11 350.91 407.53 344.43 404.43 337.69 400.72 331.4 395.6 336.13 390.69 341.22 385.87 346.39 381.06 351.58 376.46 356.97 371.52 362.03 366.6 367.12 361.97 372.48 357.31 377.81 352.37 382.89 347.4 387.93 342.16 392.72 337.85 398.4 332.48 403.42 339.64 405.15 346.58 406.7 353.52 408.3 360.62 409.22 367.34 411.75 374.4 412.8 381.35 414.35 388.19 416.37 395.13 417.96 402.21 418.92 409.05 420.96 416.05 422.27 423.05 423.62 429.89 425.65 436.89 427 443.76 428.93 450.45 430.12"/><polyline class="cls-2" points="563.51 410.71 560.84 417.17 558.37 423.71 556.46 430.46 553.32 436.74 550.92 443.3 547.98 449.65 545.46 456.16 543.38 462.85 540.64 469.28 538 475.75 535.38 482.23 532.97 488.79 530.88 495.47 527.76 501.76 524.89 508.15 523.11 514.97"/><polyline class="cls-2" points="578.73 433.8 575.95 440.21 573.34 446.69 570.64 453.14 568.53 459.82 565.75 466.23 563.63 472.91 561.24 479.47 558.65 485.95 555.92 492.39 553.51 498.95 550.65 505.33 548.38 511.95 545 518.13 542.52 524.66 539.99 531.19 537.57 537.76"/><polyline class="cls-2" points="592.8 460.83 590.23 467.32 587.61 473.8 585.33 480.41 582.06 486.63 579.6 493.17 577.57 499.88 574.7 506.25 572.43 512.87 569.73 519.32 566.76 525.66 564.99 532.47 561.57 538.63 559.21 545.21 557.32 551.98 554.21 558.27 551.8 564.85"/><polyline class="cls-2" points="606.72 485.8 604.59 492.46 601.48 498.75 598.94 505.26 596.09 511.64 594.36 518.47 591.39 524.81 588.97 531.36 585.98 537.69 583.63 544.27 581.25 550.85 578.79 557.39 575.93 563.77 573.73 570.42 571.06 576.88 568.5 583.39 565.86 589.87"/><polyline class="cls-2" points="620.96 510.89 618.05 517.43 615.47 524.1 612.88 530.76 610 537.3 607.73 544.09 605.04 550.72 602.56 557.43 600.12 564.15 597.26 570.71 594.15 577.17 591.73 583.9 589.25 590.62 586.91 597.4"/><polyline class="cls-2" points="636.83 529.84 634.16 536.47 631.3 543.03 628.82 549.74 626.42 556.47 623.55 563.02 621.21 569.78 618.69 576.48 615.52 582.91 612.9 589.57 610.3 596.23 608.28 603.12 605.46 609.71 602.53 616.25"/><polyline class="cls-2" points="651 553.91 648.12 560.34 645.3 566.8 643.3 573.59 640.26 579.97 637.71 586.54 635.49 593.24 632.95 599.82 629.83 606.16 627.31 612.76 624.91 619.4"/><polyline class="cls-2" points="664.29 578.63 662.37 585.44 659.17 591.75 657.35 598.61 654.65 605.12 652.11 611.7 648.84 617.99 646.71 624.72 643.89 631.19 641.19 637.71 638.49 644.23"/><polyline class="cls-2" points="679.77 600.82 677.13 607.77 674.35 614.68 671.52 621.56 668.68 628.44 666.58 635.61 663.64 642.46 660.37 649.18"/><polyline class="cls-2" points="692.25 623.61 689.89 629.92 687.97 636.4 685.61 642.7 682.48 648.71 680.39 655.13 677.62 661.28"/><polyline class="cls-2" points="344.33 458.85 350.8 461.81 356.9 465.49 363.35 468.51 369.41 472.26 375.65 475.67 381.76 479.32 388.14 482.48 394.69 485.35 400.54 489.5"/><polyline class="cls-2" points="352.35 487.79 358.94 490.85 365.36 494.22 371.76 497.62 378.08 501.17 384.44 504.66 390.52 508.67 397.01 511.91 403.76 514.66 409.74 518.86 416.26 522.07 422.71 525.41"/><polyline class="cls-2" points="355.43 512.65 361.48 516.7 368.04 519.8 374.51 523.06 380.91 526.44 387.23 529.98 393.37 533.86 400.06 536.72 406.23 540.55 412.73 543.76 419.16 547.11 425.35 550.93 431.68 554.47"/><polyline class="cls-2" points="363.3 540.9 369.51 544.41 375.63 548.09 381.88 551.52 388.19 554.86 394.79 557.65 400.77 561.6 407.29 564.54 413.47 568.12 419.47 572.02 425.8 575.31 432.19 578.51 438.64 581.61 444.88 585.1"/><polyline class="cls-2" points="369.36 567.78 375.49 571.39 382.01 574.26 388.28 577.6 394.07 581.84 400.67 584.56 407 587.79 412.97 591.68 419.11 595.27 425.5 598.38 431.59 602.07 437.97 605.2 444.16 608.71 450.56 611.82 456.8 615.24"/><polyline class="cls-2" points="374.38 594.75 380.61 598.7 387.37 601.69 393.56 605.7 400.03 609.21 406.53 612.66 412.87 616.39 419.62 619.4 425.94 623.18 432.55 626.44 438.67 630.6 445.29 633.83 451.94 637.04 458.45 640.5 464.86 644.13"/><polyline class="cls-2" points="380.53 623.75 387.39 626.57 393.97 629.91 400.34 633.64 406.75 637.31 413.06 641.18 419.7 644.43"/><polyline class="cls-2" points="337.45 432.6 343.39 436.56 349.79 439.63 356.06 442.95 362.37 446.22 368.74 449.36"/><polyline class="cls-2" points="422.4 308 424.41 314.83 425.39 321.85 426.95 328.76 428.36 335.71 429.36 342.73 430.26 349.77 432.29 356.6 433.47 363.58 434.89 370.52 436.2 377.48 437.11 384.52 438.8 391.41 439.92 398.41 441.11 405.39 442.74 412.31 443.54 419.37"/><polyline class="cls-2" points="445.33 306.01 447.05 313.22 448.88 320.41 449.44 327.83 451.54 334.97 452.43 342.34 453.98 349.58 455.71 356.79 456.68 364.13 458.01 371.42 459.69 378.63 461.22 385.88 462.33 393.2 463.67 400.49 464.75 407.82 465.99 415.13 468.06 422.27"/><polyline class="cls-2" points="473.99 328.89 475.26 335.93 476.07 343.06 478.08 349.97 479.45 356.99 480.67 364.04 482.15 371.05 483.29 378.11 484.78 385.12 485.99 392.17 486.91 399.29 488.78 406.22 490.19 413.25"/><polyline class="cls-2" points="501.08 347.87 501.83 355.16 503.7 362.24 504.68 369.49 505.78 376.71 507.86 383.75 509.46 390.88 510.59 398.11 512.11 405.26"/><polyline class="cls-2" points="527.39 370 529.02 376.27 529.93 382.69 531.97 388.89 533.04 395.28"/><polyline class="cls-1" points="167.96 348.38 167.29 341.17 166.35 333.99 165.9 326.77 164.38 319.65 164.18 312.4 163.48 305.2 162.94 297.99 162.73 290.75 161.88 283.56 161.57 276.33 160.82 269.12 160.58 261.89 161.07 254.63 160.02 247.42 160.12 240.18 159.92 232.94 160 225.71 160.52 218.47 160.25 211.24 160.8 204.01 160.97 196.78 160.26 189.52 160.47 182.28 161.56 175.08 161.23 167.83 162.03 160.63 161.88 153.37 162.52 146.16 163.38 138.97 163.78 131.75 164.12 124.52 164.6 117.3 165.6 110.12 165.78 102.88 167.11 95.74 167.56 88.52 167.96 81.13 174.85 78.33 181.93 76.8 189.01 75.45 196.21 74.19 203.4 75.56 210.53 76.62 217.37 78.9 224.2 81.33 224.95 88.53 225.94 95.69 226.51 102.91 227.34 110.09 227.63 117.33 227.97 124.56 228.69 131.75 228.87 138.99 229.96 146.16 230.64 153.37 230.51 160.62 230.86 167.85 231.43 175.06 231.69 182.3 231.21 189.55 232.09 196.76 232.44 203.98 231.82 211.22 232.68 218.45 231.77 225.69 232.2 232.92 232.55 240.16 232.4 247.4 231.54 254.62 231.83 261.86 231.64 269.1 230.66 276.3 230.35 283.52 230.33 290.77 229.86 297.99 229.13 305.2 228.31 312.39 228.01 319.63 227.41 326.85 226.42 334.03 225.02 341.14 224.23 348.34"/><polyline class="cls-2" points="167.96 348.38 167.29 341.17 166.35 333.99 165.9 326.77 164.38 319.65 164.18 312.4 163.48 305.2 162.94 297.99 162.73 290.75 161.88 283.56 161.57 276.33 160.82 269.12 160.58 261.89 161.07 254.63 160.02 247.42 160.12 240.18 159.92 232.94 160 225.71 160.52 218.47 160.25 211.24 160.8 204.01 160.97 196.78 160.26 189.52 160.47 182.28 161.56 175.08 161.23 167.83 162.03 160.63 161.88 153.37 162.52 146.16 163.38 138.97 163.78 131.75 164.12 124.52 164.6 117.3 165.6 110.12 165.78 102.88 167.11 95.74 167.56 88.52 167.96 81.13 174.85 78.33 181.93 76.8 189.01 75.45 196.21 74.19 203.4 75.56 210.53 76.62 217.37 78.9 224.2 81.33 224.95 88.53 225.94 95.69 226.51 102.91 227.34 110.09 227.63 117.33 227.97 124.56 228.69 131.75 228.87 138.99 229.96 146.16 230.64 153.37 230.51 160.62 230.86 167.85 231.43 175.06 231.69 182.3 231.21 189.55 232.09 196.76 232.44 203.98 231.82 211.22 232.68 218.45 231.77 225.69 232.2 232.92 232.55 240.16 232.4 247.4 231.54 254.62 231.83 261.86 231.64 269.1 230.66 276.3 230.35 283.52 230.33 290.77 229.86 297.99 229.13 305.2 228.31 312.39 228.01 319.63 227.41 326.85 226.42 334.03 225.02 341.14 224.23 348.34"/><polygon class="cls-1" points="140.56 358.59 147.39 357.38 154.44 355.82 161.57 354.81 168.75 354.12 175.91 353.32 182.99 351.95 190.17 351.24 197.28 350.1 204.36 348.76 211.55 348.18 218.63 346.82 225.78 345.91 232.88 344.67 239.95 343.25 247.06 342 254.02 341.59 254.55 348.83 254.21 356.33 254.09 363.83 254.3 371.38 247.19 372.82 240.03 373.63 232.89 374.58 225.7 375.22 218.62 376.56 211.55 378 204.36 378.6 197.2 379.4 190.21 381.37 183.05 382.19 175.88 382.94 168.75 383.98 161.57 384.68 154.47 385.93 147.41 387.46 140.22 388.37 140.11 380.83 140.39 373.34 139.75 365.82 140.56 358.59"/><polygon class="cls-2" points="140.56 358.59 147.39 357.38 154.44 355.82 161.57 354.81 168.75 354.12 175.91 353.32 182.99 351.95 190.17 351.24 197.28 350.1 204.36 348.76 211.55 348.18 218.63 346.82 225.78 345.91 232.88 344.67 239.95 343.25 247.06 342 254.02 341.59 254.55 348.83 254.21 356.33 254.09 363.83 254.3 371.38 247.19 372.82 240.03 373.63 232.89 374.58 225.7 375.22 218.62 376.56 211.55 378 204.36 378.6 197.2 379.4 190.21 381.37 183.05 382.19 175.88 382.94 168.75 383.98 161.57 384.68 154.47 385.93 147.41 387.46 140.22 388.37 140.11 380.83 140.39 373.34 139.75 365.82 140.56 358.59"/><polygon class="cls-1" points="166.98 387.2 167.38 394.56 168.44 401.71 168.92 408.91 169.6 416.1 169.85 423.32 170.64 430.49 171.89 437.63 172.48 444.82 172.31 452.08 173.51 459.22 174.19 466.4 174.31 473.63 175.05 480.81 175.35 488.03 176.34 495.19 176.58 502.42 177.54 509.58 178.74 516.72 179.22 523.92 179.26 531.15 180.57 538.28 180.62 545.52 181.85 552.65 182.3 559.86 182.84 567.06 182.81 574.3 184.15 581.43 184.96 588.6 184.94 595.85 185.46 603.05 186.64 610.19 186.75 617.43 187.31 624.63 188.36 631.78 188.33 639.03 188.94 646.23 190.23 653.36 190.36 660.6 191.55 667.74 191.61 674.98 192.34 682.17 192.95 689.36 193.99 696.52 194.05 703.76 194.68 710.96 195.44 718.15 196.23 725.73 196.33 718.16 197.03 711.04 197.65 703.91 198.16 696.78 198.97 689.67 199.28 682.51 200.61 675.44 200.92 668.29 201.19 661.14 201.88 654.01 202.59 646.89 203.52 639.79 203.58 632.62 204.05 625.48 204.33 618.32 205.39 611.23 206.12 604.11 206.69 596.98 207.08 589.83 207.53 582.69 208.38 575.58 209.26 568.48 208.89 561.27 209.8 554.17 210.08 547.02 210.88 539.9 211.35 532.76 211.95 525.64 212.98 518.54 213.61 511.41 213.72 504.24 214.18 497.1 215.28 490.01 215.44 482.85 216.24 475.73 216.33 468.56 217.47 461.46 217.8 454.31 218.49 447.19 219.54 440.09 219.94 432.94 220.24 425.78 220.61 418.63 221.55 411.53 222.25 404.4 222.15 397.21 223.25 390.12 223.31 382.93 224.28 375.73 217.03 377.01 209.99 378.89 202.75 379.81 195.71 381.69 188.54 382.9 181.37 384.14 174.38 386.35 166.98 387.2"/><polygon class="cls-2" points="166.98 387.2 167.38 394.56 168.44 401.71 168.92 408.91 169.6 416.1 169.85 423.32 170.64 430.49 171.89 437.63 172.48 444.82 172.31 452.08 173.51 459.22 174.19 466.4 174.31 473.63 175.05 480.81 175.35 488.03 176.34 495.19 176.58 502.42 177.54 509.58 178.74 516.72 179.22 523.92 179.26 531.15 180.57 538.28 180.62 545.52 181.85 552.65 182.3 559.86 182.84 567.06 182.81 574.3 184.15 581.43 184.96 588.6 184.94 595.85 185.46 603.05 186.64 610.19 186.75 617.43 187.31 624.63 188.36 631.78 188.33 639.03 188.94 646.23 190.23 653.36 190.36 660.6 191.55 667.74 191.61 674.98 192.34 682.17 192.95 689.36 193.99 696.52 194.05 703.76 194.68 710.96 195.44 718.15 196.23 725.73 196.33 718.16 197.03 711.04 197.65 703.91 198.16 696.78 198.97 689.67 199.28 682.51 200.61 675.44 200.92 668.29 201.19 661.14 201.88 654.01 202.59 646.89 203.52 639.79 203.58 632.62 204.05 625.48 204.33 618.32 205.39 611.23 206.12 604.11 206.69 596.98 207.08 589.83 207.53 582.69 208.38 575.58 209.26 568.48 208.89 561.27 209.8 554.17 210.08 547.02 210.88 539.9 211.35 532.76 211.95 525.64 212.98 518.54 213.61 511.41 213.72 504.24 214.18 497.1 215.28 490.01 215.44 482.85 216.24 475.73 216.33 468.56 217.47 461.46 217.8 454.31 218.49 447.19 219.54 440.09 219.94 432.94 220.24 425.78 220.61 418.63 221.55 411.53 222.25 404.4 222.15 397.21 223.25 390.12 223.31 382.93 224.28 375.73 217.03 377.01 209.99 378.89 202.75 379.81 195.71 381.69 188.54 382.9 181.37 384.14 174.38 386.35 166.98 387.2"/><polyline class="cls-1" points="167.3 108.69 173.56 104.26 179.24 99.07 185.62 94.8 191.55 89.94 197.63 85.28 204.18 81.22 210.13 76.38"/><polyline class="cls-2" points="167.3 108.69 173.56 104.26 179.24 99.07 185.62 94.8 191.55 89.94 197.63 85.28 204.18 81.22 210.13 76.38"/><polyline class="cls-1" points="163.33 136.44 168.97 131.78 175.19 127.89 180.66 123.01 186.81 119.02 192.39 114.29 198.31 110.01 204.27 105.75 209.74 100.85"/><polyline class="cls-2" points="163.33 136.44 168.97 131.78 175.19 127.89 180.66 123.01 186.81 119.02 192.39 114.29 198.31 110.01 204.27 105.75 209.74 100.85"/><polyline class="cls-1" points="163.49 161.66 168.83 156.6 174.89 152.5 180.83 148.23 186.9 144.15 192.43 139.34 198.06 134.67 204.33 130.83 210.3 126.6"/><polyline class="cls-2" points="163.49 161.66 168.83 156.6 174.89 152.5 180.83 148.23 186.9 144.15 192.43 139.34 198.06 134.67 204.33 130.83 210.3 126.6"/><polyline class="cls-1" points="163.09 186.12 168.99 181.8 174.75 177.32 180.51 172.81 186.56 168.7 192.52 164.47 198.2 159.86 203.99 155.38 210.25 151.53"/><polyline class="cls-2" points="163.09 186.12 168.99 181.8 174.75 177.32 180.51 172.81 186.56 168.7 192.52 164.47 198.2 159.86 203.99 155.38 210.25 151.53"/><polyline class="cls-1" points="162.26 212.35 168.24 207.85 174.1 203.19 179.92 198.49 186.08 194.22 192.28 190.01 197.97 185.13 204.09 180.8 210.28 176.57"/><polyline class="cls-2" points="162.26 212.35 168.24 207.85 174.1 203.19 179.92 198.49 186.08 194.22 192.28 190.01 197.97 185.13 204.09 180.8 210.28 176.57"/><polyline class="cls-1" points="163.05 236.07 168.94 231.74 175.08 227.75 180.57 222.89 186.33 218.4 192.75 214.78 198.33 210.03 203.99 205.38 210.11 201.35"/><polyline class="cls-2" points="163.05 236.07 168.94 231.74 175.08 227.75 180.57 222.89 186.33 218.4 192.75 214.78 198.33 210.03 203.99 205.38 210.11 201.35"/><polyline class="cls-1" points="163.29 261.39 169.09 256.95 175.14 252.83 180.75 248.13 186.35 243.41 192.76 239.78 198.26 234.94 204.3 230.8 210 226.2"/><polyline class="cls-2" points="163.29 261.39 169.09 256.95 175.14 252.83 180.75 248.13 186.35 243.41 192.76 239.78 198.26 234.94 204.3 230.8 210 226.2"/><polyline class="cls-1" points="163.31 286.41 168.93 281.73 174.92 277.54 180.59 272.92 186.64 268.8 192.18 264.02 198.38 260.09 204.08 255.5 209.76 250.88"/><polyline class="cls-2" points="163.31 286.41 168.93 281.73 174.92 277.54 180.59 272.92 186.64 268.8 192.18 264.02 198.38 260.09 204.08 255.5 209.76 250.88"/><polyline class="cls-1" points="167.17 308.52 173.08 303.62 179.55 299.48 185.49 294.63 191.53 289.93 197.88 285.62 203.87 280.81 209.82 275.96"/><polyline class="cls-2" points="167.17 308.52 173.08 303.62 179.55 299.48 185.49 294.63 191.53 289.93 197.88 285.62 203.87 280.81 209.82 275.96"/><polyline class="cls-1" points="167.41 333.83 173.54 329.23 179.16 323.97 185.55 319.71 191.36 314.7 197.78 310.48 203.91 305.86 209.93 301.11"/><polyline class="cls-2" points="167.41 333.83 173.54 329.23 179.16 323.97 185.55 319.71 191.36 314.7 197.78 310.48 203.91 305.86 209.93 301.11"/><polyline class="cls-1" points="175.13 352.17 181.17 348.16 186.55 343.26 192.74 339.44 198.39 334.9 204.18 330.52 209.82 325.96"/><polyline class="cls-2" points="175.13 352.17 181.17 348.16 186.55 343.26 192.74 339.44 198.39 334.9 204.18 330.52 209.82 325.96"/><polygon points="216.85 77.92 215.19 85.1 212.94 91.92 211.78 98.98 210.58 106.02 209.5 113.08 208.94 120.2 208.05 127.28 206.78 134.32 206.6 141.48 205.87 148.58 205.25 155.69 204.87 162.81 204.05 169.92 203.37 177.04 203.48 184.19 203.51 191.33 202.96 198.46 202.78 205.6 202.91 212.75 203.7 219.88 203.75 227.02 204.21 234.14 204.01 241.3 204.88 248.4 204.76 255.56 205.48 262.67 206.3 269.76 206.97 276.86 207.31 284 207.84 291.13 208.83 298.21 209.81 305.29 210.81 312.36 212.12 319.38 212.78 326.51 213.8 333.58 215.24 340.59 216.33 347.55 218.12 340.99 220.56 334.59 222.5 328.04 224.59 321.52 226.77 315.04 229.09 308.54 229.09 301.36 228.7 294.2 229.18 287.06 228.59 279.91 229.29 272.77 228.74 265.62 228.83 258.47 229.18 251.32 228.94 244.17 229.04 237.02 229.11 229.88 229.76 222.73 229.72 215.58 229.27 208.43 229.58 201.28 229.84 194.13 229.51 186.98 229.56 179.83 230.38 172.69 229.81 165.53 229.54 158.37 229.8 151.24 228.82 143.88 227.81 136.51 225.62 129.35 224.43 122.01 222.93 114.72 222.34 107.26 220.6 100.02 219.37 92.68 217.54 85.44 216.85 77.92"/><polygon class="cls-2" points="216.85 77.92 215.19 85.1 212.94 91.92 211.78 98.98 210.58 106.02 209.5 113.08 208.94 120.2 208.05 127.28 206.78 134.32 206.6 141.48 205.87 148.58 205.25 155.69 204.87 162.81 204.05 169.92 203.37 177.04 203.48 184.19 203.51 191.33 202.96 198.46 202.78 205.6 202.91 212.75 203.7 219.88 203.75 227.02 204.21 234.14 204.01 241.3 204.88 248.4 204.76 255.56 205.48 262.67 206.3 269.76 206.97 276.86 207.31 284 207.84 291.13 208.83 298.21 209.81 305.29 210.81 312.36 212.12 319.38 212.78 326.51 213.8 333.58 215.24 340.59 216.33 347.55 218.12 340.99 220.56 334.59 222.5 328.04 224.59 321.52 226.77 315.04 229.09 308.54 229.09 301.36 228.7 294.2 229.18 287.06 228.59 279.91 229.29 272.77 228.74 265.62 228.83 258.47 229.18 251.32 228.94 244.17 229.04 237.02 229.11 229.88 229.76 222.73 229.72 215.58 229.27 208.43 229.58 201.28 229.84 194.13 229.51 186.98 229.56 179.83 230.38 172.69 229.81 165.53 229.54 158.37 229.8 151.24 228.82 143.88 227.81 136.51 225.62 129.35 224.43 122.01 222.93 114.72 222.34 107.26 220.6 100.02 219.37 92.68 217.54 85.44 216.85 77.92"/><polyline points="195.26 381.57 195.41 388.85 195.41 396.12 195.76 403.39 196.01 410.67 195.61 417.94 196.12 425.22 196.1 432.49 195.34 439.77 195.46 447.04 196.16 454.31 196.13 461.59 195.49 468.87 195.5 476.13 195.87 483.4 195.98 490.68 195.43 497.95 195.68 505.22 196.01 512.49 195.56 519.77 195.97 527.04 196.07 534.32 195.54 541.59 195.7 548.87 196.04 556.14 195.88 563.42 195.73 570.69 195.72 577.97 195.37 585.25 196.18 592.52 195.74 599.8 195.32 607.08 196.09 614.36 195.54 621.63 195.91 628.91 195.85 636.18 195.67 643.46 195.93 650.74 195.81 658.02 196.01 665.3 195.43 672.59 196.03 679.87"/><polyline class="cls-2" points="195.26 381.57 195.41 388.85 195.41 396.12 195.76 403.39 196.01 410.67 195.61 417.94 196.12 425.22 196.1 432.49 195.34 439.77 195.46 447.04 196.16 454.31 196.13 461.59 195.49 468.87 195.5 476.13 195.87 483.4 195.98 490.68 195.43 497.95 195.68 505.22 196.01 512.49 195.56 519.77 195.97 527.04 196.07 534.32 195.54 541.59 195.7 548.87 196.04 556.14 195.88 563.42 195.73 570.69 195.72 577.97 195.37 585.25 196.18 592.52 195.74 599.8 195.32 607.08 196.09 614.36 195.54 621.63 195.91 628.91 195.85 636.18 195.67 643.46 195.93 650.74 195.81 658.02 196.01 665.3 195.43 672.59 196.03 679.87"/></svg>