<?xml version="1.0" encoding="utf-8"?>
<!-- Generator: Adobe Illustrator 20.0.0, SVG Export Plug-In . SVG Version: 6.00 Build 0)  -->
<svg version="1.1" id="Layer_1" xmlns="http://www.w3.org/2000/svg" xmlns:xlink="http://www.w3.org/1999/xlink" x="0px" y="0px"
	 viewBox="0 0 801 801" style="enable-background:new 0 0 801 801;" xml:space="preserve">
<style type="text/css">
	.st0{fill:#FFFFFF;}
	.st1{fill:none;stroke:#000000;stroke-width:13;stroke-linecap:round;stroke-linejoin:bevel;}
	.st2{fill:none;stroke:#000000;stroke-width:10;stroke-linecap:round;stroke-linejoin:bevel;}
	.st3{fill:none;stroke:#000000;stroke-width:13;stroke-linecap:round;stroke-linejoin:round;}
</style>
<title>sonic yuth</title>
<rect x="0.5" y="0.5" class="st0" width="800" height="800"/>
<path class="st0" d="M275.3,183.3c-2.5,2.5-0.3,3.3-0.3,6.9s0.3,3.6,0.3,7.1s-0.4,3.6-0.4,7.1s0.2,3.6,0.2,7.1s0.1,3.6,0.1,7.1
	s0.1,3.6,0.1,7.1s0.3,3.6,0.3,7.1s-0.2,3.6-0.2,7.1s-0.7,3.6-0.7,7.1s-0.1,3.6-0.1,7.1c0,3.6,0.3,3.6,0.3,7.1s0.3,3.5,0.3,7.1
	s-0.4,3.5-0.4,7.1s-0.1,3.6-0.1,7.1s0.8,3.5,0.8,7.1s0,3.6,0,7.1s-0.5,3.5-0.5,7.1s-0.1,3.6-0.1,7.1s-0.1,3.5-0.1,7.1
	s0.7,3.6,0.7,7.1s-0.2,3.6-0.2,7.1s-0.1,3.6-0.1,7.1s-0.2,3.6-0.2,7.1s0.3,3.6,0.3,7.1s0.2,3.6,0.2,7.1s-0.4,3.6-0.4,7.1
	s-0.3,3.6-0.3,7.1s0.3,3.5,0.3,7.1s0.1,3.6,0.1,7.1s0.4,3.6,0.4,7.1s-0.1,3.6-0.1,7.1s0.1,3.6,0.1,7.1s-0.9,3.6-0.9,7.1
	s0.1,3.6,0.1,7.1s0,3.6,0,7.1s-2.4,4.7,0.2,7.2s3.7-0.1,7.2-0.1s3.6,0.2,7.1,0.2s3.6,0.1,7.1,0.1s3.6-0.6,7.1-0.6s3.6,0.2,7.1,0.2
	s3.6-0.1,7.1-0.1s3.6,0,7.1,0s3.6-0.2,7.1-0.2s3.6,0.4,7.1,0.4s3.6-0.1,7.1-0.1s3.6,0.3,7.1,0.3s3.6-0.5,7.1-0.5s3.6,0,7.1,0
	s3.6,0.6,7.1,0.6s3.6-0.7,7.1-0.7s3.6,0.2,7.1,0.2s3.6,0.3,7.1,0.3s3.6-0.1,7.1-0.1s3.6-0.1,7.1-0.1h7.1h7.1c3.6,0,3.6,0.2,7.1,0.2
	s3.6-0.2,7.1-0.2s3.6-0.4,7.1-0.4s3.6,0,7.1,0s3.6-0.2,7.1-0.2s3.6,0.3,7.1,0.3s3.6-0.3,7.1-0.3s3.6,0.7,7.1,0.7s3.6-0.5,7.1-0.5
	s3.6,0.3,7.1,0.3s3.6,0.3,7.1,0.3s3.6,0.1,7.1,0.1s3.6-0.4,7.1-0.4s3.6,0.3,7.1,0.3s3.6-0.6,7.1-0.6s3.6,0.4,7.1,0.4
	s3.6-0.1,7.1-0.1s3.6,0.3,7.1,0.3s4.4,1.9,6.9-0.6s-0.2-3.4-0.2-6.9s0.9-3.6,0.9-7.1s-0.5-3.5-0.5-7.1s0.1-3.5,0.1-7.1
	s-0.1-3.5-0.1-7.1s0.2-3.5,0.2-7.1s-0.5-3.6-0.5-7.1s0.1-3.5,0.1-7.1s0.5-3.5,0.5-7.1s-0.3-3.5-0.3-7.1s0.1-3.5,0.1-7.1
	s0.1-3.5,0.1-7.1s-0.5-3.5-0.5-7.1s0.3-3.6,0.3-7.1s0-3.5,0-7.1s0-3.6,0-7.1s0.3-3.5,0.3-7.1s-0.1-3.6-0.1-7.1s-0.4-3.5-0.4-7.1
	s0.7-3.6,0.7-7.1s-0.3-3.6-0.3-7.1s0.1-3.6,0.1-7.1s-0.6-3.6-0.6-7.1s0.9-3.6,0.9-7.1s-0.3-3.6-0.3-7.1s0-3.6,0-7.1s0.2-3.6,0.2-7.1
	s-0.4-3.6-0.4-7.1s-0.3-3.6-0.3-7.1s0.5-3.6,0.5-7.1s-0.7-3.6-0.7-7.1s0.9-3.6,0.9-7.1s-0.1-3.6-0.1-7.1s-0.7-3.6-0.7-7.1
	s-0.2-3.6-0.2-7.1s3.3-4.9,0.8-7.4s-3.8,0-7.4,0s-3.6-0.1-7.1-0.1s-3.6,0.6-7.1,0.6s-3.6,0.1-7.1,0.1s-3.6,0.2-7.1,0.2
	s-3.6-0.2-7.1-0.2s-3.6,0.1-7.1,0.1s-3.6-0.7-7.1-0.7h-7.1c-3.6,0-3.6,0.3-7.1,0.3s-3.6-0.1-7.1-0.1s-3.6-0.1-7.1-0.1
	s-3.6,0.9-7.1,0.9s-3.6-1-7.1-1s-3.6,0.4-7.1,0.4s-3.6,0.1-7.1,0.1h-7.1c-3.6,0-3.6,0.2-7.1,0.2s-3.6-0.2-7.1-0.2s-3.6,0.1-7.1,0.1
	s-3.6,0.1-7.1,0.1s-3.6,0.3-7.1,0.3s-3.6-0.6-7.1-0.6s-3.6,0.3-7.1,0.3s-3.6,0.3-7.1,0.3s-3.6-0.9-7.1-0.9s-3.6,0.3-7.1,0.3
	s-3.6-0.4-7.1-0.4s-3.6,0.3-7.1,0.3s-3.6-0.2-7.1-0.2s-3.6,0.8-7.1,0.8s-3.6-0.3-7.1-0.3s-3.6-0.3-7.1-0.3s-3.6-0.3-7.1-0.3
	s-3.6,0.4-7.1,0.4s-3.6,0.5-7.1,0.5s-3.6-0.6-7.1-0.6s-3.6,0.2-7.1,0.2s-3.7,0.9-7.2,0.2S277.8,180.7,275.3,183.3z"/>
<path class="st1" d="M275.3,183.3c-2.5,2.5-0.3,3.3-0.3,6.9s0.3,3.6,0.3,7.1s-0.4,3.6-0.4,7.1s0.2,3.6,0.2,7.1s0.1,3.6,0.1,7.1
	s0.1,3.6,0.1,7.1s0.3,3.6,0.3,7.1s-0.2,3.6-0.2,7.1s-0.7,3.6-0.7,7.1s-0.1,3.6-0.1,7.1c0,3.6,0.3,3.6,0.3,7.1s0.3,3.5,0.3,7.1
	s-0.4,3.5-0.4,7.1s-0.1,3.6-0.1,7.1s0.8,3.5,0.8,7.1s0,3.6,0,7.1s-0.5,3.5-0.5,7.1s-0.1,3.6-0.1,7.1s-0.1,3.5-0.1,7.1
	s0.7,3.6,0.7,7.1s-0.2,3.6-0.2,7.1s-0.1,3.6-0.1,7.1s-0.2,3.6-0.2,7.1s0.3,3.6,0.3,7.1s0.2,3.6,0.2,7.1s-0.4,3.6-0.4,7.1
	s-0.3,3.6-0.3,7.1s0.3,3.5,0.3,7.1s0.1,3.6,0.1,7.1s0.4,3.6,0.4,7.1s-0.1,3.6-0.1,7.1s0.1,3.6,0.1,7.1s-0.9,3.6-0.9,7.1
	s0.1,3.6,0.1,7.1s0,3.6,0,7.1s-2.4,4.7,0.2,7.2s3.7-0.1,7.2-0.1s3.6,0.2,7.1,0.2s3.6,0.1,7.1,0.1s3.6-0.6,7.1-0.6s3.6,0.2,7.1,0.2
	s3.6-0.1,7.1-0.1s3.6,0,7.1,0s3.6-0.2,7.1-0.2s3.6,0.4,7.1,0.4s3.6-0.1,7.1-0.1s3.6,0.3,7.1,0.3s3.6-0.5,7.1-0.5s3.6,0,7.1,0
	s3.6,0.6,7.1,0.6s3.6-0.7,7.1-0.7s3.6,0.2,7.1,0.2s3.6,0.3,7.1,0.3s3.6-0.1,7.1-0.1s3.6-0.1,7.1-0.1h7.1h7.1c3.6,0,3.6,0.2,7.1,0.2
	s3.6-0.2,7.1-0.2s3.6-0.4,7.1-0.4s3.6,0,7.1,0s3.6-0.2,7.1-0.2s3.6,0.3,7.1,0.3s3.6-0.3,7.1-0.3s3.6,0.7,7.1,0.7s3.6-0.5,7.1-0.5
	s3.6,0.3,7.1,0.3s3.6,0.3,7.1,0.3s3.6,0.1,7.1,0.1s3.6-0.4,7.1-0.4s3.6,0.3,7.1,0.3s3.6-0.6,7.1-0.6s3.6,0.4,7.1,0.4
	s3.6-0.1,7.1-0.1s3.6,0.3,7.1,0.3s4.4,1.9,6.9-0.6s-0.2-3.4-0.2-6.9s0.9-3.6,0.9-7.1s-0.5-3.5-0.5-7.1s0.1-3.5,0.1-7.1
	s-0.1-3.5-0.1-7.1s0.2-3.5,0.2-7.1s-0.5-3.6-0.5-7.1s0.1-3.5,0.1-7.1s0.5-3.5,0.5-7.1s-0.3-3.5-0.3-7.1s0.1-3.5,0.1-7.1
	s0.1-3.5,0.1-7.1s-0.5-3.5-0.5-7.1s0.3-3.6,0.3-7.1s0-3.5,0-7.1s0-3.6,0-7.1s0.3-3.5,0.3-7.1s-0.1-3.6-0.1-7.1s-0.4-3.5-0.4-7.1
	s0.7-3.6,0.7-7.1s-0.3-3.6-0.3-7.1s0.1-3.6,0.1-7.1s-0.6-3.6-0.6-7.1s0.9-3.6,0.9-7.1s-0.3-3.6-0.3-7.1s0-3.6,0-7.1s0.2-3.6,0.2-7.1
	s-0.4-3.6-0.4-7.1s-0.3-3.6-0.3-7.1s0.5-3.6,0.5-7.1s-0.7-3.6-0.7-7.1s0.9-3.6,0.9-7.1s-0.1-3.6-0.1-7.1s-0.7-3.6-0.7-7.1
	s-0.2-3.6-0.2-7.1s3.3-4.9,0.8-7.4s-3.8,0-7.4,0s-3.6-0.1-7.1-0.1s-3.6,0.6-7.1,0.6s-3.6,0.1-7.1,0.1s-3.6,0.2-7.1,0.2
	s-3.6-0.2-7.1-0.2s-3.6,0.1-7.1,0.1s-3.6-0.7-7.1-0.7h-7.1c-3.6,0-3.6,0.3-7.1,0.3s-3.6-0.1-7.1-0.1s-3.6-0.1-7.1-0.1
	s-3.6,0.9-7.1,0.9s-3.6-1-7.1-1s-3.6,0.4-7.1,0.4s-3.6,0.1-7.1,0.1h-7.1c-3.6,0-3.6,0.2-7.1,0.2s-3.6-0.2-7.1-0.2s-3.6,0.1-7.1,0.1
	s-3.6,0.1-7.1,0.1s-3.6,0.3-7.1,0.3s-3.6-0.6-7.1-0.6s-3.6,0.3-7.1,0.3s-3.6,0.3-7.1,0.3s-3.6-0.9-7.1-0.9s-3.6,0.3-7.1,0.3
	s-3.6-0.4-7.1-0.4s-3.6,0.3-7.1,0.3s-3.6-0.2-7.1-0.2s-3.6,0.8-7.1,0.8s-3.6-0.3-7.1-0.3s-3.6-0.3-7.1-0.3s-3.6-0.3-7.1-0.3
	s-3.6,0.4-7.1,0.4s-3.6,0.5-7.1,0.5s-3.6-0.6-7.1-0.6s-3.6,0.2-7.1,0.2s-3.7,0.9-7.2,0.2S277.8,180.7,275.3,183.3z"/>
<path class="st0" d="M214.6,222.8c3-2,3.1-1.9,6.1-3.9s3.1-1.8,6.1-3.8s3-2,6-4s3.1-1.9,6.1-3.9s2.8-2.3,5.9-4.3s3.3-1.6,6.3-3.6
	s3-2.1,6-4.1s3.1-1.8,6.1-3.8s2.7-2.4,5.8-4.4s2.6-3,6-4s3.6-0.4,7.1-0.4s3.5,0.9,7.1,0.9s3.6-0.4,7.1-0.4s3.6-0.3,7.1-0.3
	s3.6,0.6,7.1,0.6s3.6-0.8,7.1-0.8s3.6,0.4,7.1,0.4s3.6,0,7.1,0s3.6,0.4,7.1,0.4s3.6-0.6,7.1-0.6s3.6-0.1,7.1-0.1s3.5,0.2,7.1,0.2
	s3.5-0.2,7.1-0.2s3.5,0.4,7.1,0.4s3.6,0,7.1,0s3.5-0.4,7.1-0.4s3.5-0.1,7.1-0.1s3.6,0.5,7.1,0.5s3.5,0,7.1,0s3.6-0.2,7.1-0.2
	s3.6-0.2,7.1-0.2s3.6,0.1,7.1,0.1s3.6,0.2,7.1,0.2s3.6-0.3,7.1-0.3s3.6-0.2,7.1-0.2s3.6,0.6,7.1,0.6s3.6-0.6,7.1-0.6
	s3.6,0.5,7.1,0.5h7.1c3.6,0,3.6-0.3,7.1-0.3s3.6,0.4,7.1,0.4s3.6-0.3,7.1-0.3s3.6,0.3,7.1,0.3s3.6-0.5,7.1-0.5s3.6,0.4,7.1,0.4
	s3.6-0.6,7.1-0.6s3.6,0.2,7.1,0.2s3.6-0.2,7.1-0.2s3.6,0.4,7.1,0.4s4.5-2.4,7,0.1s0.2,3.4,0.2,7s0.1,3.6,0.2,7.1s-0.7,3.6-0.6,7.1
	s0.6,3.6,0.6,7.1s-0.2,3.6-0.2,7.1s0.6,3.6,0.6,7.1s-0.7,3.6-0.7,7.1s0.7,3.6,0.7,7.1s-0.4,3.6-0.4,7.1s0.4,3.6,0.4,7.1s0,3.5,0,7.1
	s-0.6,3.5-0.6,7.1s0.4,3.5,0.4,7.1s0.2,3.5,0.2,7.1s-0.8,3.6-0.8,7.1s0.4,3.5,0.4,7.1s-0.1,3.5-0.1,7.1s0.1,3.5,0.1,7.1
	s0.2,3.5,0.2,7.1s-0.4,3.6-0.4,7.1s0.7,3.5,0.7,7.1s-0.8,3.6-0.8,7.1s-0.2,3.6-0.2,7.1s0.4,3.6,0.4,7.1s0.4,3.6,0.4,7.1
	s-0.7,3.6-0.7,7.1s0.6,3.6,0.6,7.1s0,3.5,0,7.1s0.1,3.6,0.1,7.1s-0.2,3.6-0.2,7.1s0.5,3.6,0.5,7.1s-0.5,3.6-0.5,7.1s0.2,3.5,0.2,7.1
	s0.3,3.6,0.3,7.1s-0.7,3.6-0.7,7.1s2.4,4.2,0.8,7.4s-3.4,1.8-6.4,3.8s-2.8,2.3-5.8,4.3S545,449,542,451s-2.8,2.3-5.8,4.3
	s-3.1,1.9-6.1,3.9S527,461,524,463s-3.3,1.6-6.3,3.6s-3,2-6,4s-2.9,2.1-5.9,4.1S503,477,500,479"/>
<path class="st1" d="M214.6,222.8c3-2,3.1-1.9,6.1-3.9s3.1-1.8,6.1-3.8s3-2,6-4s3.1-1.9,6.1-3.9s2.8-2.3,5.9-4.3s3.3-1.6,6.3-3.6
	s3-2.1,6-4.1s3.1-1.8,6.1-3.8s2.7-2.4,5.8-4.4s2.6-3,6-4s3.6-0.4,7.1-0.4s3.5,0.9,7.1,0.9s3.6-0.4,7.1-0.4s3.6-0.3,7.1-0.3
	s3.6,0.6,7.1,0.6s3.6-0.8,7.1-0.8s3.6,0.4,7.1,0.4s3.6,0,7.1,0s3.6,0.4,7.1,0.4s3.6-0.6,7.1-0.6s3.6-0.1,7.1-0.1s3.5,0.2,7.1,0.2
	s3.5-0.2,7.1-0.2s3.5,0.4,7.1,0.4s3.6,0,7.1,0s3.5-0.4,7.1-0.4s3.5-0.1,7.1-0.1s3.6,0.5,7.1,0.5s3.5,0,7.1,0s3.6-0.2,7.1-0.2
	s3.6-0.2,7.1-0.2s3.6,0.1,7.1,0.1s3.6,0.2,7.1,0.2s3.6-0.3,7.1-0.3s3.6-0.2,7.1-0.2s3.6,0.6,7.1,0.6s3.6-0.6,7.1-0.6
	s3.6,0.5,7.1,0.5h7.1c3.6,0,3.6-0.3,7.1-0.3s3.6,0.4,7.1,0.4s3.6-0.3,7.1-0.3s3.6,0.3,7.1,0.3s3.6-0.5,7.1-0.5s3.6,0.4,7.1,0.4
	s3.6-0.6,7.1-0.6s3.6,0.2,7.1,0.2s3.6-0.2,7.1-0.2s3.6,0.4,7.1,0.4s4.5-2.4,7,0.1s0.2,3.4,0.2,7s0.1,3.6,0.2,7.1s-0.7,3.6-0.6,7.1
	s0.6,3.6,0.6,7.1s-0.2,3.6-0.2,7.1s0.6,3.6,0.6,7.1s-0.7,3.6-0.7,7.1s0.7,3.6,0.7,7.1s-0.4,3.6-0.4,7.1s0.4,3.6,0.4,7.1s0,3.5,0,7.1
	s-0.6,3.5-0.6,7.1s0.4,3.5,0.4,7.1s0.2,3.5,0.2,7.1s-0.8,3.6-0.8,7.1s0.4,3.5,0.4,7.1s-0.1,3.5-0.1,7.1s0.1,3.5,0.1,7.1
	s0.2,3.5,0.2,7.1s-0.4,3.6-0.4,7.1s0.7,3.5,0.7,7.1s-0.8,3.6-0.8,7.1s-0.2,3.6-0.2,7.1s0.4,3.6,0.4,7.1s0.4,3.6,0.4,7.1
	s-0.7,3.6-0.7,7.1s0.6,3.6,0.6,7.1s0,3.5,0,7.1s0.1,3.6,0.1,7.1s-0.2,3.6-0.2,7.1s0.5,3.6,0.5,7.1s-0.5,3.6-0.5,7.1s0.2,3.5,0.2,7.1
	s0.3,3.6,0.3,7.1s-0.7,3.6-0.7,7.1s2.4,4.2,0.8,7.4s-3.4,1.8-6.4,3.8s-2.8,2.3-5.8,4.3S545,449,542,451s-2.8,2.3-5.8,4.3
	s-3.1,1.9-6.1,3.9S527,461,524,463s-3.3,1.6-6.3,3.6s-3,2-6,4s-2.9,2.1-5.9,4.1S503,477,500,479"/>
<path class="st0" d="M215,223c-2.5,2.5,0.4,3.6,0.4,7.1s-0.4,3.6-0.4,7.1s-0.1,3.6-0.1,7.1s-0.2,3.6-0.2,7.1s0,3.6,0,7.1
	c0,3.6,0.3,3.5,0.3,7.1s-0.6,3.6-0.6,7.1s0.6,3.5,0.6,7.1s-0.5,3.5-0.5,7.1s0.2,3.5,0.2,7.1s0.3,3.5,0.3,7.1s0.2,3.5,0.2,7.1
	s-0.6,3.5-0.6,7.1s-0.1,3.6-0.1,7.1s0.2,3.5,0.2,7.1s0.5,3.6,0.5,7.1s-0.8,3.5-0.8,7.1s0.3,3.6,0.3,7.1s0.5,3.5,0.5,7.1
	s-0.6,3.6-0.6,7.1s0.6,3.6,0.6,7.1s-0.3,3.6-0.3,7.1s0.2,3.6,0.2,7.1s-0.7,3.6-0.7,7.1s-0.1,3.6-0.1,7.1s0.9,3.6,0.9,7.1
	s-0.5,3.5-0.5,7.1s0.5,3.5,0.5,7.1s-0.1,3.6-0.1,7.1s-0.2,3.6-0.2,7.1s0.1,3.6,0.1,7.1s0.2,3.6,0.2,7.1s-0.9,3.6-0.9,7.1
	s0.2,3.6,0.2,7.1s0.6,3.6,0.6,7.1s-2.6,4.4-0.1,6.9s3.4,0.2,6.9,0.2s3.6,0.1,7.1,0.1s3.6-0.5,7.1-0.5s3.6,0.5,7.1,0.5
	s3.6-0.3,7.1-0.3s3.6,0.6,7.1,0.6s3.6-0.4,7.1-0.4s3.6-0.1,7.1-0.1s3.6,0.4,7.1,0.4s3.6-0.8,7.1-0.8s3.6,0.6,7.1,0.6
	s3.6-0.3,7.1-0.3s3.6,0,7.1,0s3.6-0.5,7.1-0.5s3.6,0.9,7.1,0.9s3.6-0.9,7.1-0.9s3.6,0.5,7.1,0.5h7.1c3.6,0,3.6,0,7.1,0
	s3.6,0.2,7.1,0.2s3.6-0.1,7.1-0.1s3.6-0.3,7.1-0.3s3.6,0,7.1,0s3.6,0.2,7.1,0.2s3.6-0.2,7.1-0.2s3.6,0.5,7.1,0.5s3.6-0.5,7.1-0.5
	s3.6-0.2,7.1-0.2s3.6,0.6,7.1,0.6h7.1c3.6,0,3.6-0.1,7.1-0.1s3.6-0.5,7.1-0.5s3.6,0.7,7.1,0.7s3.6,0,7.1,0s3.6,0,7.1,0
	s3.6-0.7,7.1-0.7s3.6,0.4,7.1,0.4s3.6-0.5,7.1-0.5s3.6,0.4,7.1,0.4s4.4,2.3,6.9-0.2s0.6-3.3,0.6-6.9s-0.8-3.6-0.8-7.1
	s0.5-3.5,0.5-7.1s-0.3-3.5-0.3-7.1s0.3-3.6,0.3-7.1s0.2-3.5,0.2-7.1s0-3.6,0-7.1s-0.5-3.5-0.5-7.1s0.5-3.5,0.5-7.1s-0.6-3.5-0.6-7.1
	s0.9-3.5,0.9-7.1s0-3.5,0-7.1s-0.4-3.5-0.4-7.1s-0.1-3.6-0.1-7.1s-0.3-3.5-0.3-7.1s0.6-3.6,0.6-7.1s-0.3-3.5-0.3-7.1
	s0.4-3.6,0.4-7.1s-0.4-3.5-0.4-7.1s0.3-3.6,0.3-7.1s-0.1-3.6-0.1-7.1s0.4-3.6,0.4-7.1s-0.1-3.6-0.1-7.1s-0.6-3.6-0.6-7.1
	s0.3-3.6,0.3-7.1s-0.5-3.6-0.5-7.1s0.4-3.6,0.4-7.1s-0.3-3.5-0.3-7.1s0.4-3.6,0.4-7.1s0.5-3.6,0.5-7.1s-0.9-3.6-0.9-7.1
	s0.6-3.6,0.6-7.1s-0.4-3.6-0.4-7.1s0-3.6,0-7.1s0.1-3.6,0.1-7.1s2.3-4.4-0.2-6.9s-3.3,0.2-6.9,0.2s-3.6-0.4-7.1-0.4s-3.6,0-7.1,0
	s-3.6-0.1-7.1-0.1s-3.6,0.5-7.1,0.5s-3.6-0.6-7.1-0.6s-3.6,0.4-7.1,0.4s-3.6-0.6-7.1-0.6s-3.6,0.6-7.1,0.6s-3.6-0.7-7.1-0.7
	s-3.6,0.2-7.1,0.2s-3.6,0.1-7.1,0.1s-3.6-0.4-7.1-0.4s-3.6,0-7.1,0s-3.6,0.3-7.1,0.3s-3.6-0.1-7.1-0.1s-3.6,0.3-7.1,0.3
	s-3.6-0.5-7.1-0.5s-3.6,0.4-7.1,0.4s-3.6,0.5-7.1,0.5s-3.6-0.5-7.2-0.5s-3.6,0.4-7.1,0.4s-3.6-0.4-7.1-0.4s-3.6,0.1-7.1,0.1
	s-3.6-0.4-7.1-0.4s-3.6,0.4-7.1,0.4s-3.6,0-7.1,0s-3.6-0.2-7.1-0.2s-3.6,0.1-7.1,0.1s-3.6,0.1-7.1,0.1s-3.6,0.1-7.1,0.1
	s-3.6-0.1-7.1-0.1s-3.6-0.3-7.1-0.3s-3.6,0.4-7.1,0.4s-3.6,0.2-7.1,0.2s-3.6-0.3-7.1-0.3s-3.6-0.5-7.1-0.5s-3.6,0-7.1,0
	s-3.6,1-7.1,0.2C218.4,222.2,217.5,220.4,215,223z"/>
<path class="st1" d="M215,223c-2.5,2.5,0.4,3.6,0.4,7.1s-0.4,3.6-0.4,7.1s-0.1,3.6-0.1,7.1s-0.2,3.6-0.2,7.1s0,3.6,0,7.1
	c0,3.6,0.3,3.5,0.3,7.1s-0.6,3.6-0.6,7.1s0.6,3.5,0.6,7.1s-0.5,3.5-0.5,7.1s0.2,3.5,0.2,7.1s0.3,3.5,0.3,7.1s0.2,3.5,0.2,7.1
	s-0.6,3.5-0.6,7.1s-0.1,3.6-0.1,7.1s0.2,3.5,0.2,7.1s0.5,3.6,0.5,7.1s-0.8,3.5-0.8,7.1s0.3,3.6,0.3,7.1s0.5,3.5,0.5,7.1
	s-0.6,3.6-0.6,7.1s0.6,3.6,0.6,7.1s-0.3,3.6-0.3,7.1s0.2,3.6,0.2,7.1s-0.7,3.6-0.7,7.1s-0.1,3.6-0.1,7.1s0.9,3.6,0.9,7.1
	s-0.5,3.5-0.5,7.1s0.5,3.5,0.5,7.1s-0.1,3.6-0.1,7.1s-0.2,3.6-0.2,7.1s0.1,3.6,0.1,7.1s0.2,3.6,0.2,7.1s-0.9,3.6-0.9,7.1
	s0.2,3.6,0.2,7.1s0.6,3.6,0.6,7.1s-2.6,4.4-0.1,6.9s3.4,0.2,6.9,0.2s3.6,0.1,7.1,0.1s3.6-0.5,7.1-0.5s3.6,0.5,7.1,0.5
	s3.6-0.3,7.1-0.3s3.6,0.6,7.1,0.6s3.6-0.4,7.1-0.4s3.6-0.1,7.1-0.1s3.6,0.4,7.1,0.4s3.6-0.8,7.1-0.8s3.6,0.6,7.1,0.6
	s3.6-0.3,7.1-0.3s3.6,0,7.1,0s3.6-0.5,7.1-0.5s3.6,0.9,7.1,0.9s3.6-0.9,7.1-0.9s3.6,0.5,7.1,0.5h7.1c3.6,0,3.6,0,7.1,0
	s3.6,0.2,7.1,0.2s3.6-0.1,7.1-0.1s3.6-0.3,7.1-0.3s3.6,0,7.1,0s3.6,0.2,7.1,0.2s3.6-0.2,7.1-0.2s3.6,0.5,7.1,0.5s3.6-0.5,7.1-0.5
	s3.6-0.2,7.1-0.2s3.6,0.6,7.1,0.6h7.1c3.6,0,3.6-0.1,7.1-0.1s3.6-0.5,7.1-0.5s3.6,0.7,7.1,0.7s3.6,0,7.1,0s3.6,0,7.1,0
	s3.6-0.7,7.1-0.7s3.6,0.4,7.1,0.4s3.6-0.5,7.1-0.5s3.6,0.4,7.1,0.4s4.4,2.3,6.9-0.2s0.6-3.3,0.6-6.9s-0.8-3.6-0.8-7.1
	s0.5-3.5,0.5-7.1s-0.3-3.5-0.3-7.1s0.3-3.6,0.3-7.1s0.2-3.5,0.2-7.1s0-3.6,0-7.1s-0.5-3.5-0.5-7.1s0.5-3.5,0.5-7.1s-0.6-3.5-0.6-7.1
	s0.9-3.5,0.9-7.1s0-3.5,0-7.1s-0.4-3.5-0.4-7.1s-0.1-3.6-0.1-7.1s-0.3-3.5-0.3-7.1s0.6-3.6,0.6-7.1s-0.3-3.5-0.3-7.1
	s0.4-3.6,0.4-7.1s-0.4-3.5-0.4-7.1s0.3-3.6,0.3-7.1s-0.1-3.6-0.1-7.1s0.4-3.6,0.4-7.1s-0.1-3.6-0.1-7.1s-0.6-3.6-0.6-7.1
	s0.3-3.6,0.3-7.1s-0.5-3.6-0.5-7.1s0.4-3.6,0.4-7.1s-0.3-3.5-0.3-7.1s0.4-3.6,0.4-7.1s0.5-3.6,0.5-7.1s-0.9-3.6-0.9-7.1
	s0.6-3.6,0.6-7.1s-0.4-3.6-0.4-7.1s0-3.6,0-7.1s0.1-3.6,0.1-7.1s2.3-4.4-0.2-6.9s-3.3,0.2-6.9,0.2s-3.6-0.4-7.1-0.4s-3.6,0-7.1,0
	s-3.6-0.1-7.1-0.1s-3.6,0.5-7.1,0.5s-3.6-0.6-7.1-0.6s-3.6,0.4-7.1,0.4s-3.6-0.6-7.1-0.6s-3.6,0.6-7.1,0.6s-3.6-0.7-7.1-0.7
	s-3.6,0.2-7.1,0.2s-3.6,0.1-7.1,0.1s-3.6-0.4-7.1-0.4s-3.6,0-7.1,0s-3.6,0.3-7.1,0.3s-3.6-0.1-7.1-0.1s-3.6,0.3-7.1,0.3
	s-3.6-0.5-7.1-0.5s-3.6,0.4-7.1,0.4s-3.6,0.5-7.1,0.5s-3.6-0.5-7.2-0.5s-3.6,0.4-7.1,0.4s-3.6-0.4-7.1-0.4s-3.6,0.1-7.1,0.1
	s-3.6-0.4-7.1-0.4s-3.6,0.4-7.1,0.4s-3.6,0-7.1,0s-3.6-0.2-7.1-0.2s-3.6,0.1-7.1,0.1s-3.6,0.1-7.1,0.1s-3.6,0.1-7.1,0.1
	s-3.6-0.1-7.1-0.1s-3.6-0.3-7.1-0.3s-3.6,0.4-7.1,0.4s-3.6,0.2-7.1,0.2s-3.6-0.3-7.1-0.3s-3.6-0.5-7.1-0.5s-3.6,0-7.1,0
	s-3.6,1-7.1,0.2C218.4,222.2,217.5,220.4,215,223z"/>
<path class="st1" d="M275.2,178.5c0-3.8-0.6-3.8-0.6-7.6s0.1-3.8,0.1-7.6s0.6-3.8,0.6-7.6s-0.7-3.8-0.7-7.6s0.3-3.8,0.3-7.6
	s0.3-3.8,0.3-7.6s-2.4-4.6,0.2-7.3s3.3-0.7,7-0.7h7.3c3.6,0,3.6,0.2,7.3,0.2s3.6,0.2,7.3,0.2s3.6-0.4,7.3-0.4h7.3
	c3.6,0,3.6,0.4,7.3,0.4s3.6,0.2,7.3,0.2s3.6,0.1,7.3,0.1s3.6,0,7.3,0s3.6-0.2,7.3-0.2s3.6-0.3,7.3-0.3s3.6-0.3,7.3-0.3
	s3.6,0.7,7.3,0.7s3.6-0.4,7.3-0.4s3.6,0.1,7.3,0.1s3.6,0.3,7.3,0.3h7.2c3.6,0,3.6-0.7,7.3-0.7s3.6,0.1,7.3,0.1s3.6,0.4,7.3,0.4
	s3.6-0.3,7.3-0.3h7.3c3.6,0,3.6,0.2,7.3,0.2s3.6,0.5,7.3,0.5s3.6-0.4,7.3-0.4s3.6-0.1,7.3-0.1s3.6,0.3,7.3,0.3s3.6,0.1,7.3,0.1
	s3.6-0.6,7.3-0.6s3.6,0.6,7.3,0.6s3.6-0.3,7.3-0.3s3.6-0.6,7.3-0.6s3.6,0.2,7.3,0.2s3.6,0.6,7.3,0.6s3.6-0.8,7.3-0.8
	s3.6,0.7,7.3,0.7s3.7-0.1,7.3-0.1s4.6-2.7,7.2-0.1s0.3,3.5,0.3,7.2s-0.2,3.6-0.2,7.3s0,3.6,0,7.3s-0.5,3.6-0.5,7.3s0.5,3.6,0.5,7.3
	s-0.1,3.6-0.1,7.3s0.2,3.6,0.2,7.3s1.3,4-0.4,7.2s-3.1,1.7-6,3.7s-2.9,2.1-5.8,4.1s-3,2-6,4s-2.7,2.4-5.7,4.4s-3,1.9-6,3.9
	s-2.7,2.4-5.7,4.4s-3.3,1.5-6.3,3.5s-2.9,2.1-5.9,4.1s-3.2,1.6-6.2,3.6l-5.9,4"/>
<path class="st1" d="M436.9,340.5c0,2.4-0.2,4.7-0.4,7s-0.7,4.6-1.1,7s-0.2,4.8-0.9,7s-1.2,4.6-2,6.8s-2.1,4.2-3.1,6.4
	s-1.8,4.4-3,6.4s-3.1,3.6-4.4,5.5s-2.3,4.1-3.8,6s-3.2,3.5-4.9,5.1s-3.3,3.4-5.1,4.9s-3.6,3.1-5.5,4.5s-4.1,2.4-6.1,3.6
	s-4.4,1.8-6.5,2.8s-4.1,2.4-6.3,3.2s-4.5,1.5-6.8,2.1s-4.6,0.8-7,1.2s-4.6,1.1-7,1.3s-4.7,0.6-7.1,0.6s-4.7-0.7-7-0.9
	s-4.7-0.4-7-0.8s-4.7-0.7-6.9-1.3s-4.7-1-6.9-1.8s-4.4-1.9-6.5-2.9s-4-2.5-6-3.7s-4.4-2-6.3-3.3s-3.5-3.2-5.3-4.7s-3.8-2.8-5.5-4.5
	s-3.2-3.5-4.7-5.3s-2.9-3.8-4.2-5.7s-2.2-4.2-3.4-6.2s-2.9-3.8-3.9-5.9s-1.6-4.5-2.4-6.7s-1.5-4.4-2.1-6.7s-1.1-4.6-1.5-6.9
	s-0.6-4.6-0.8-7s-0.4-4.7-0.4-7s0.2-4.7,0.4-7s0-4.8,0.4-7.1s1.4-4.5,2-6.8s1.2-4.6,2-6.8s1.4-4.5,2.4-6.7s2.6-4,3.8-6
	s2.5-4,3.8-5.9s2.8-3.8,4.3-5.6s2.7-4,4.3-5.6s3.5-3.3,5.3-4.8s3.7-3,5.6-4.3s4.2-2.3,6.2-3.4s4.2-2,6.4-3s4.1-2.5,6.3-3.3
	s4.5-1.3,6.8-1.9s4.6-1.1,6.9-1.6s4.6-0.7,7-0.9s4.7-0.5,7.1-0.5s4.8,0,7.1,0.2s4.7,0.5,7,0.9s4.5,1.6,6.8,2.2s4.8,0.5,7,1.3
	s4.4,1.8,6.6,2.7s4.3,2.1,6.3,3.2s3.8,2.8,5.8,4.2s3.5,3.2,5.3,4.7s3.5,3.1,5.2,4.7s3.2,3.4,4.7,5.2s3.5,3.3,4.8,5.2s2.6,3.9,3.8,6
	s2,4.3,3,6.4s2.1,4.2,2.9,6.5s1.5,4.5,2.1,6.8s1.3,4.5,1.7,6.9s0,4.7,0.1,7.1S436.9,338.1,436.9,340.5z"/>
<path class="st1" d="M416.8,340.5c0.1,2.4,0,4.9-0.2,7.3c-0.4,2.4-0.9,4.8-1.6,7.2c-0.5,2.4-1.1,4.8-1.9,7.1c-1,2.2-2.1,4.4-3.4,6.5
	c-8.3,15.2-22.3,26.4-39,31.1c-2.4,0.6-4.9,0.1-7.4,0.4s-4.8,1.3-7.2,1.3s-4.9-0.8-7.3-1.1c-2.4-0.3-4.8-0.8-7.1-1.4
	c-2.4-0.6-5-0.5-7.2-1.4c-2.3-0.9-4.5-1.9-6.7-3.1c-2.2-1.1-4-2.9-6-4.3c-3.8-3-7.5-6.2-11-9.6c-7-7-11.9-15.8-14-25.4
	c-0.6-2.4-0.2-4.9-0.5-7.3c-0.4-2.4-0.6-4.8-0.7-7.3c0.1-2.4,0.3-4.9,0.6-7.3c0.3-4.9,1.3-9.7,2.9-14.3c2.1-4.4,4.5-8.6,7.2-12.7
	c1.4-2,2.8-3.9,4.4-5.8c1.5-1.9,3.2-3.7,4.9-5.4c1.8-1.6,4.1-2.7,6.1-4c4-2.7,8.3-5,12.8-6.8c2.2-1,4.5-1.9,6.8-2.6
	c4.8-0.9,9.7-1.3,14.5-1.2c2.5,0,5-0.7,7.4-0.4s4.7,1.4,7.1,1.9c2.4,0.5,4.7,1.2,7,2c2.3,0.7,4.6,1.6,6.9,2.6
	c4.3,2.3,8.3,5.2,11.7,8.7c1.8,1.7,3.4,3.4,5,5.3c3.6,3.3,6.5,7.3,8.6,11.7c2.2,4.4,3.8,9,4.6,13.8c0.6,2.4,1.5,4.6,1.8,7.1
	C416.5,335.7,416.7,338.1,416.8,340.5z"/>
<path class="st1" d="M415.8,328.7c-3.4,1.8-2.7,0.7-7.3,2.1c-2.4,0.8-4.8,1.5-7.3,2c-2.3,0.4-4.7,1.3-7.5,1.5
	c-2.4,0.2-4.9,0.1-7.6,0c-2.4,0-4.9-0.4-7.6-0.7c-2.4-0.3-5-0.3-7.6-0.8c-2.4-0.5-4.8-1.5-7.3-2.2c-2.4-0.6-4.9-1.1-7.3-2
	c-2.2-0.8-4.2-2.1-6.4-2.6c-2.3-0.6-4.6-1-6.8-1.4c-2.3-0.4-4.7-0.6-6.9-0.8c-2.3,0-4.6,0.1-6.9,0.3c-2.4,0.1-4.7-0.3-6.9,0
	c-2.3,0.5-4.5,1.1-6.7,1.8c-2.2,0.7-4.3,1.5-6.4,2.4c-2.1,0.7-4.2,1.6-6.3,2.6c-3.8,1.9-3.1,1.4-5.8,3.5"/>
<path class="st1" d="M413.7,356.2c-3.2,1.8-2.3,1.3-6.8,2.7c-2,0.6-4.2,2-7,2.5c-2.4,0.5-4.9,0.8-7.4,1c-2.3,0.2-4.8-0.7-7.4-0.8
	c-2.3,0-4.8,0.7-7.4,0.4c-2.3-0.3-4.7-1.4-7.2-1.9c-2.3-0.5-4.7-1-7.1-1.7c-2.3-0.6-4.8-0.9-7.2-1.8s-4.8-1.4-7.1-2
	c-2.3-0.7-4.7-1.3-7.1-1.7c-2.4-0.4-4.9-0.6-7.3-0.8c-2.5-0.2-4.9-0.3-7.4-0.2c-2.6,0.2-4.9,1.2-7.2,1.6c-2.4,0.4-4.8,0.9-7.2,1.5
	c-2.3,0.9-4.5,2-6.6,3.2c-4,2.1-3.6,1.3-6.4,3.6"/>
<path d="M356.2,280.2c-3.5,0-3.4,0.8-6.8,2s-3.2,1.7-6.5,2.9s-3.4,1-6.7,2.2s-3.1,1.8-6.4,3s-3.6,0.6-6.9,1.8s-3.6,0.8-6.3,3
	c-3,2.4-2.6,2.8-4.8,6s-1.9,3.4-4,6.6s-1.9,3.4-4,6.6s-3.8,2.4-4.5,6.2c-0.7,3.6,1.1,3.5,2,7s-1.7,5.5,1.4,7.5s3.7-0.7,7.2-1.4
	s3.5-0.5,7-1.1s3.4-1.1,6.9-1.8s3.6-0.3,7.1-0.9s3.4-1.4,6.9-1.3s3.6,0.4,7.2,1.2s3.5,1.1,7.1,2s3.6,1,7.2,1.9s3.6,0.9,7.2,1.7
	s3.7,0.5,7.3,1.3s3.5,1.4,7.3,1.3s3.5-0.4,7-1.4s3.3-1.5,6.7-2.5s3.3-1.3,6.8-2.3s3.5-0.6,7-1.6s5.2,1.1,6.7-2.1s-1.4-3.1-2.8-6.3
	s-1.1-3.3-2.5-6.5s-1.3-3.3-2.7-6.5s-1.8-3-3.3-6.2s-0.2-4.1-2.8-6.5s-3.4-0.8-6.6-2s-3.1-1.3-6.4-2.5s-3.3-0.9-6.5-2.1
	s-3.3-1-6.5-2.1s-3-1.7-6.2-2.9s-3.6-0.3-6.7-1.8S359.6,280.1,356.2,280.2z"/>
<path d="M310.6,352.6c-3.3,2.1-2.4,3.3-4.9,6.2s-4.7,2-4.6,5.9c0.1,3.7,2.5,2.4,5.1,4.9s2.2,3,4.9,5.6s3.1,2.1,5.8,4.7
	s2.6,2.6,5.3,5.2s1.9,3.5,4.9,5.7s3.5,1.2,6.6,2.9s3.1,1.8,6.2,3.5s2.6,2.8,6.1,3.5c3.7,0.7,3.7-0.5,7.5-0.9s3.9,0.4,7.6,0
	s3.7-0.8,7.5-1.2s3.7-0.8,7.5-1.2s3.8-0.6,7.5-1s4.1,1.3,7.4-0.7c3.1-1.9,1.8-2.9,3.6-6s2.3-2.8,4.2-5.9s1.9-3,3.8-6.1s2.1-3,4-6
	s1.7-3.2,3.6-6.3s5.2-3,3.6-6.3s-3.6-0.5-7.3-1s-3.6-1.1-7.3-1.4c-3.4-0.3-3.4,0.2-6.8,0.2s-3.4-0.4-6.8-0.5s-3.4-0.3-6.8-0.4
	s-3.4,0.2-6.8,0.1s-3.4,0.3-6.8-0.1c-3.6-0.4-3.6-0.1-7.2-0.8s-3.4-1.6-6.9-2.3s-3.6-0.3-7.1-1s-3.5-1-7-1.7s-3.5-0.9-7.1-1
	c-2.2-0.1-4.3,0.1-6.4,0.7c-3.2,0.6-3,1.4-6.3,1.5S313.3,350.8,310.6,352.6z"/>
<path class="st0" d="M530.9,152.8c0,3.1-1.8,5.6-3.9,7.6c-1.9,2.2-4.7,3.5-7.6,3.6c-3.1,0-5.6-1.6-7.6-3.6c-2.2-1.9-3.5-4.7-3.6-7.6
	c0.1-2.9,1.3-5.7,3.4-7.7c4.3-4.3,11.2-4.3,15.5,0c0,0,0,0,0,0C529.4,147.1,530.7,149.9,530.9,152.8z"/>
<path class="st1" d="M530.9,152.8c0,3.1-1.8,5.6-3.9,7.6c-1.9,2.2-4.7,3.5-7.6,3.6c-3.1,0-5.6-1.6-7.6-3.6c-2.2-1.9-3.5-4.7-3.6-7.6
	c0.1-2.9,1.3-5.7,3.4-7.7c4.3-4.3,11.2-4.3,15.5,0c0,0,0,0,0,0C529.4,147.1,530.7,149.9,530.9,152.8z"/>
<path class="st0" d="M521.2,157.1c0.2,5.1-3.8,9.3-8.9,9.4c-0.2,0-0.3,0-0.5,0c-2.6,0.1-5.1-0.7-7-2.4c-3.6-4-3.6-10,0-14
	c4.1-3.3,9.9-3.3,13.9,0.1C520.5,152.1,521.4,154.6,521.2,157.1z"/>
<path class="st2" d="M521.2,157.1c0.2,5.1-3.8,9.3-8.9,9.4c-0.2,0-0.3,0-0.5,0c-2.6,0.1-5.1-0.7-7-2.4c-3.6-4-3.6-10,0-14
	c4.1-3.3,9.9-3.3,13.9,0.1C520.5,152.1,521.4,154.6,521.2,157.1z"/>
<path d="M502.2,473.6c3.3,1.7,3.1-2.2,6.4-4.1s3.2-1.9,6.5-3.8s3.2-2,6.4-3.9s3.3-1.8,6.5-3.8s3-2.2,6.3-4.1s3.5-1.4,6.7-3.4
	s3.3-1.8,6.5-3.7l6.4-3.9c3.2-1.9,4.1-1,6-4.2c1.8-3.1-0.1-3.4-0.1-6.9s0.1-3.6,0.1-7.1s0.1-3.6,0.1-7.1s-0.2-3.5-0.2-7.1
	s0.5-3.6,0.5-7.1s-0.3-3.5-0.3-7.1s0.3-3.6,0.3-7.1s-0.5-3.5-0.5-7.1s0.4-3.5,0.4-7.1s-0.7-3.5-0.7-7.1s0.7-3.6,0.7-7.1
	s-0.7-3.5-0.7-7.1s0.1-3.5,0.1-7.1s0.3-3.6,0.3-7.1s0.2-3.5,0.2-7.1s-0.6-3.5-0.6-7.1s0.3-3.6,0.2-7.1s-0.3-3.5-0.4-7.1
	s0.6-3.6,0.5-7.1s-0.3-3.5-0.3-7.1s-0.2-3.5-0.2-7.1s0.7-3.6,0.7-7.1s-0.1-3.6-0.1-7.1s-0.4-3.5-0.4-7.1s-0.2-3.6-0.2-7.1
	s0.1-3.6,0.1-7.1s-0.1-3.6-0.1-7.1s-0.1-3.6-0.1-7.1s0.2-3.6,0.2-7.1s0.1-3.6,0.1-7.1s-0.5-3.6-0.6-7.1s0-3.6,0-7.1s0.7-3.6,0.7-7.1
	s-0.8-3.6-0.8-7.1s-0.1-3.6-0.1-7.1s3.9-6.1,0.6-7.5s-3,2.9-5.9,5.2s-3.3,1.8-6.3,4.1s-3,2.2-5.9,4.5s-2.8,2.4-5.8,4.7
	s-2.7,2.6-5.6,4.9s-3.2,1.9-6.2,4.2s-3,2.1-6,4.4s-2.5,2.8-5.5,5.1s-3,2.2-6,4.4s-4.2,1.1-5.9,4.4s0.3,3.5,0.3,7.1s0,3.6,0,7.2
	s-0.6,3.6-0.6,7.2s0.4,3.6,0.5,7.2s0.1,3.6,0.2,7.2s0.1,3.6,0.1,7.2s0,3.6,0.1,7.2s0.1,3.6,0.2,7.2s-0.1,3.6,0,7.2s-0.6,3.6-0.5,7.2
	s-0.1,3.6,0,7.2s0.7,3.6,0.8,7.2s-0.5,3.6-0.5,7.2s0.6,3.6,0.7,7.2s-0.5,3.6-0.5,7.2s0.5,3.6,0.5,7.2s0.2,3.6,0.2,7.2
	s0.1,3.6,0.1,7.2s0,3.6,0,7.2s-0.6,3.6-0.6,7.2s0,3.6,0,7.2s0.5,3.6,0.5,7.2s0.5,3.6,0.5,7.2s-0.2,3.6-0.2,7.2s-0.3,3.6-0.3,7.2
	s-0.1,3.6,0,7.2s0.1,3.6,0.1,7.2s-0.2,3.6-0.2,7.2s0.7,3.6,0.7,7.2s-0.3,3.6-0.3,7.2s-0.2,3.6-0.2,7.2s0.1,3.6,0.2,7.2
	s1.3,3.7,0.4,7.2C501.3,470.2,499,471.9,502.2,473.6z"/>
<path class="st0" d="M477.8,152.8c0,3-1.3,5.8-3.4,7.9c-2,2-4.9,2.8-7.9,2.8s-6-0.7-8-2.7c-2.1-2.1-3.2-5-3.2-8
	c0.1-2.9,1.4-5.7,3.5-7.6c3.8-4.2,10.4-4.5,14.6-0.6c0.2,0.2,0.4,0.4,0.6,0.6C476,147.3,477.8,149.7,477.8,152.8z"/>
<path class="st1" d="M477.8,152.8c0,3-1.3,5.8-3.4,7.9c-2,2-4.9,2.8-7.9,2.8s-6-0.7-8-2.7c-2.1-2.1-3.2-5-3.2-8
	c0.1-2.9,1.4-5.7,3.5-7.6c3.8-4.2,10.4-4.5,14.6-0.6c0.2,0.2,0.4,0.4,0.6,0.6C476,147.3,477.8,149.7,477.8,152.8z"/>
<path class="st0" d="M468.3,157.1c0.1,2.5-0.9,5-2.7,6.8c-1.8,1.7-4.3,2.6-6.8,2.5c-2.7,0-5.4-0.4-7.1-2.1s-2.3-4.5-2.3-7.1
	c-0.1-2.6,0.8-5.1,2.5-6.9c1.9-1.8,4.4-2.8,7-2.7c2.6-0.1,5.1,0.9,7,2.6C467.6,151.8,468.3,154.5,468.3,157.1z"/>
<path class="st2" d="M468.3,157.1c0.1,2.5-0.9,5-2.7,6.8c-1.8,1.7-4.3,2.6-6.8,2.5c-2.7,0-5.4-0.4-7.1-2.1s-2.3-4.5-2.3-7.1
	c-0.1-2.6,0.8-5.1,2.5-6.9c1.9-1.8,4.4-2.8,7-2.7c2.6-0.1,5.1,0.9,7,2.6C467.6,151.8,468.3,154.5,468.3,157.1z"/>
<path class="st2" d="M274.8,125.1c3.5-1.9,3.5-1.8,6.9-3.8s3.6-1.6,7-3.5s3.6-1.6,7-3.5s3.5-1.8,6.9-3.7s3-3,6.8-4
	c3.5-0.9,3.6-0.5,7.2-0.5s3.6,0.8,7.2,0.8s3.6-0.7,7.2-0.7s3.6,0.2,7.2,0.2h7.2c3.6,0,3.6,0.3,7.2,0.3s3.6,0.3,7.2,0.3
	s3.6-0.8,7.2-0.8s3.6,0.1,7.2,0.1s3.6,0.4,7.2,0.4s3.6-0.4,7.2-0.4s3.6,0.8,7.2,0.8s3.6-0.2,7.2-0.2s3.6-0.1,7.2-0.1
	s3.6-0.1,7.2-0.1s3.6,0,7.2,0s3.6-0.4,7.2-0.4s3.6,0.1,7.2,0.1s3.6,0.3,7.2,0.3s3.6-0.4,7.2-0.4s3.6,0,7.2,0s3.6,0.3,7.2,0.3
	s3.6-0.4,7.2-0.4s3.6,0.6,7.2,0.6s3.6,0.3,7.2,0.3s3.6-0.6,7.2-0.6s3.6-0.2,7.2-0.2s3.6,0.2,7.2,0.2s3.6,0.2,7.2,0.2
	s3.6,0.3,7.2,0.3h7.2c3.6,0,3.6-0.7,7.2-0.7s3.6,0.7,7.2,0.7s3.6-0.3,7.2-0.3s3.6,0.1,7.2,0.1s3.6-0.1,7.2-0.1s3.6-0.3,7.2-0.3
	s3.6,0.4,7.2,0.4s5.9-3.5,6.8,0s-2.8,1.6-5.9,3.5s-3.3,1.6-6.4,3.5s-3.1,2-6.2,3.8s-2.9,2.3-6.1,4.1s-3.4,1.5-6.5,3.3"/>
<path class="st2" d="M590.8,106.5c0,3.6-0.2,3.6-0.2,7.3s-0.2,3.6-0.2,7.3s-0.3,3.6-0.3,7.3c0,3.6,0.6,3.6,0.6,7.3s-0.1,3.6-0.1,7.3
	s0.1,3.6,0.1,7.3s-0.1,3.6-0.1,7.3s-0.1,3.6-0.1,7.3s-0.4,3.6-0.4,7.3s0.6,3.6,0.6,7.3s-0.6,3.6-0.6,7.3s0.7,3.6,0.7,7.3
	s-0.2,3.6-0.2,7.3s-0.5,3.6-0.5,7.3s-0.1,3.6-0.1,7.3s0,3.6,0,7.3s0.2,3.6,0.2,7.3s0.5,3.6,0.5,7.3s0.1,3.6,0.1,7.3
	s-0.6,3.6-0.6,7.3s0.6,3.6,0.6,7.3c0,3.6-0.5,3.6-0.5,7.3v7.3c0,3.6,0.6,3.6,0.6,7.3s-0.6,3.6-0.6,7.3s0.2,3.6,0.2,7.3s0,3.6,0,7.3
	s-0.5,3.6-0.5,7.3s-0.1,3.6-0.1,7.3s-0.1,3.6-0.1,7.3s0.6,3.6,0.6,7.3s-0.3,3.6-0.3,7.3s0.3,3.6,0.3,7.3s-0.6,3.6-0.6,7.3
	s0.8,3.6,0.8,7.3s-0.5,3.6-0.5,7.3s-0.3,3.6-0.3,7.3s0.8,3.6,0.8,7.3s-0.5,3.6-0.5,7.3s0.1,3.6,0.1,7.3s0.4,3.6,0.4,7.3
	s-0.3,3.6-0.3,7.3s1.3,3.9-0.4,7.1s-2.6,2.4-5.6,4.5s-3.1,1.9-6.1,4s-2.8,2.4-5.8,4.5s-3.1,2-6.1,4.1s-3,2-6,4.1s-3,2.1-6,4.2
	s-3.2,1.8-6.2,3.9s-2.9,2.3-5.9,4.4s-2.9,2.3-5.9,4.4s-2.9,2.2-5.9,4.3"/>
<path d="M558.9,129.8c1.4-2.8,2.4-2.1,5-3.9s2.7-1.7,5.2-3.5s2.8-1.5,5.4-3.2s2.8-1.2,5.4-2.6s2.4-1.9,5.1-3.3s3.2-4.8,5.5-2.9
	c2.8,2.2-0.1,3.7-0.1,7.3s-0.2,3.6-0.2,7.1c0,3.6,0.5,3.6,0.5,7.1s-0.2,3.6-0.2,7.1s0,3.6,0,7.1s0,3.6,0,7.1s-0.1,3.6-0.1,7.1
	s0.1,3.6,0.1,7.1s-0.2,3.6-0.2,7.1s-0.3,3.6-0.3,7.1s0.4,3.6,0.4,7.1s-0.5,3.6-0.5,7.1s0.8,3.6,0.8,7.1s-0.8,3.6-0.8,7.1
	s0.1,3.6,0.1,7.1s0.4,3.6,0.4,7.1s0.2,3.6,0.2,7.1s-0.4,3.6-0.4,7.1s-0.3,3.6-0.3,7.1s0.2,3.6,0.2,7.1c0,3.6,0.8,3.6,0.8,7.1
	s-0.9,3.6-0.9,7.1s0.2,3.6,0.2,7.1s0.5,3.6,0.5,7.1s-0.5,3.6-0.5,7.1s0.3,3.6,0.3,7.1s-0.6,3.6-0.6,7.1s0.6,3.6,0.6,7.1s0,3.6,0,7.1
	s0.2,3.6,0.2,7.1s-0.6,3.6-0.6,7.1s0.2,3.6,0.2,7.1s0.6,3.6,0.6,7.1s-0.5,3.6-0.5,7.1s0.5,3.6,0.5,7.1s-0.2,3.6-0.2,7.1
	s0.1,3.6,0.1,7.1s-0.1,3.6-0.1,7.1s-0.8,3.6-0.8,7.1s0.7,3.6,0.7,7.1s-0.7,3.6-0.7,7.1s1.7,3.8,0.6,7.2c-1.3,4-2.6,3.4-4.8,7
	s-1.3,4.3-4.4,7.1c-2.6,2.4-3.1,1.7-6.3,3.1s-3.3,1.2-6.5,2.7s-3,2-6.2,3.5s-3.5,4.3-6.5,2.4s0-3.4,0-6.9s-0.4-3.6-0.4-7.1
	s0.9-3.6,0.9-7.1s0.1-3.6,0.1-7.1s-0.4-3.6-0.4-7.1s-0.4-3.6-0.4-7.1s0.9-3.6,1-7.1s0.1-3.6,0.1-7.1s-0.4-3.6-0.3-7.1
	s-0.3-3.6-0.3-7.1s-0.2-3.6-0.2-7.1s0.5-3.6,0.6-7.1s0-3.6,0-7.1s0.3-3.6,0.3-7.1s0.1-3.6,0.1-7.1s0.1-3.6,0.1-7.1s-0.6-3.6-0.6-7.1
	s0.6-3.6,0.6-7.1s0-3.6,0-7.1s0.4-3.6,0.4-7.1s-0.4-3.6-0.4-7.1s0.4-3.6,0.4-7.1s0-3.6,0-7.1s-0.2-3.6-0.1-7.1s0.3-3.6,0.4-7.1
	s-0.1-3.6-0.1-7.1s-0.4-3.6-0.4-7.1s-0.1-3.6-0.1-7.1s0.1-3.6,0.1-7.1s0.7-3.6,0.7-7.1s-0.2-3.6-0.2-7.1s-0.1-3.6-0.1-7.1
	s0.6-3.6,0.7-7.1s-0.3-3.6-0.2-7.1s0-3.6,0-7.1s0.2-3.6,0.2-7.1s-0.3-3.6-0.3-7.1s0.6-3.6,0.6-7.1s-0.5-3.6-0.4-7.1s0.7-3.6,0.7-7.1
	s-0.8-3.6-0.8-7.1s1.2-3.6,0.8-7.2S557.4,133,558.9,129.8z"/>
<path class="st0" d="M414.2,142.5c0,3.7-0.6,3.7-0.6,7.3s0.2,3.7,0.2,7.3s-0.1,3.7-0.1,7.3"/>
<path class="st1" d="M414.2,142.5c0,3.7-0.6,3.7-0.6,7.3s0.2,3.7,0.2,7.3s-0.1,3.7-0.1,7.3"/>
<path class="st0" d="M299.5,145.4c3.6,0,3.6-0.8,7.3-0.8s3.6,0.6,7.3,0.6s3.6,0.1,7.3,0.1s3.6-0.3,7.3-0.3s3.6-0.3,7.3-0.3
	s3.6-0.1,7.3-0.1s3.6,0,7.3,0h7.3c3.6,0,3.6,0.9,7.3,0.9s3.6-0.4,7.3-0.4s3.6-0.2,7.3-0.2"/>
<path class="st1" d="M299.5,145.4c3.6,0,3.6-0.8,7.3-0.8s3.6,0.6,7.3,0.6s3.6,0.1,7.3,0.1s3.6-0.3,7.3-0.3s3.6-0.3,7.3-0.3
	s3.6-0.1,7.3-0.1s3.6,0,7.3,0h7.3c3.6,0,3.6,0.9,7.3,0.9s3.6-0.4,7.3-0.4s3.6-0.2,7.3-0.2"/>
<path class="st0" d="M299.5,163.9c3.6,0,3.6,0,7.3,0s3.6,0.4,7.3,0.4s3.6-0.5,7.3-0.5s3.6-0.3,7.3-0.3s3.6,0.3,7.3,0.3
	s3.6,0.4,7.3,0.4s3.6-0.7,7.3-0.7s3.6,0.8,7.3,0.8s3.6-0.6,7.3-0.6h7.3c3.6,0,3.6,0.6,7.3,0.6"/>
<path class="st1" d="M299.5,163.9c3.6,0,3.6,0,7.3,0s3.6,0.4,7.3,0.4s3.6-0.5,7.3-0.5s3.6-0.3,7.3-0.3s3.6,0.3,7.3,0.3
	s3.6,0.4,7.3,0.4s3.6-0.7,7.3-0.7s3.6,0.8,7.3,0.8s3.6-0.6,7.3-0.6h7.3c3.6,0,3.6,0.6,7.3,0.6"/>
<path class="st0" d="M219.5,455.6c3.6,0,3.6,0.5,7.2,0.5s3.6,0.3,7.2,0.3s3.6-0.2,7.2-0.2s3.6-0.6,7.2-0.6s3.6,0.6,7.2,0.6
	s3.6,0.1,7.2,0.1s3.6-0.4,7.2-0.4s3.6,0.4,7.2,0.4h7.2c3.6,0,3.6-0.1,7.2-0.1s3.6-0.3,7.2-0.3s3.6,0.4,7.2,0.4s3.6-0.2,7.2-0.2
	s3.6-0.6,7.2-0.6s3.6,0.6,7.2,0.6s3.6-0.3,7.2-0.3s3.6,0.2,7.2,0.2s3.6,0,7.2,0h7.2c3.6,0,3.6,0.2,7.2,0.2s3.6-0.7,7.2-0.7
	s3.6-0.1,7.2-0.1s3.6,0.5,7.2,0.5s3.6,0.3,7.2,0.3s3.6-0.8,7.2-0.8s3.6,0.4,7.2,0.4s3.6,0,7.2,0s3.6-0.5,7.2-0.5s3.6,0.2,7.2,0.2
	s3.6,0.2,7.2,0.2s3.6,0.4,7.2,0.4s3.6-0.5,7.2-0.5h7.2c3.6,0,3.6,0.3,7.2,0.3s3.6-0.3,7.2-0.3s3.6,0.2,7.2,0.2s3.6,0.3,7.2,0.3
	s3.6-0.5,7.2-0.5s3.6-0.1,7.2-0.1"/>
<path class="st1" d="M219.5,455.6c3.6,0,3.6,0.5,7.2,0.5s3.6,0.3,7.2,0.3s3.6-0.2,7.2-0.2s3.6-0.6,7.2-0.6s3.6,0.6,7.2,0.6
	s3.6,0.1,7.2,0.1s3.6-0.4,7.2-0.4s3.6,0.4,7.2,0.4h7.2c3.6,0,3.6-0.1,7.2-0.1s3.6-0.3,7.2-0.3s3.6,0.4,7.2,0.4s3.6-0.2,7.2-0.2
	s3.6-0.6,7.2-0.6s3.6,0.6,7.2,0.6s3.6-0.3,7.2-0.3s3.6,0.2,7.2,0.2s3.6,0,7.2,0h7.2c3.6,0,3.6,0.2,7.2,0.2s3.6-0.7,7.2-0.7
	s3.6-0.1,7.2-0.1s3.6,0.5,7.2,0.5s3.6,0.3,7.2,0.3s3.6-0.8,7.2-0.8s3.6,0.4,7.2,0.4s3.6,0,7.2,0s3.6-0.5,7.2-0.5s3.6,0.2,7.2,0.2
	s3.6,0.2,7.2,0.2s3.6,0.4,7.2,0.4s3.6-0.5,7.2-0.5h7.2c3.6,0,3.6,0.3,7.2,0.3s3.6-0.3,7.2-0.3s3.6,0.2,7.2,0.2s3.6,0.3,7.2,0.3
	s3.6-0.5,7.2-0.5s3.6-0.1,7.2-0.1"/>
<path class="st0" d="M112.5,603.7c3.5,0,3.5-1.4,7-1.4s3.5,0.7,7,0.7s3.5-0.4,7-0.4s3.5-0.3,7-0.3s3.5,1.3,7,1.3s3.5-0.5,7-0.5
	s3.5,0.5,7,0.5s3.5-0.6,7-0.6s3.5-0.3,7-0.3s3.5,1.2,7,1.2s3.5-1.4,7-1.4"/>
<path class="st1" d="M112.5,603.7c3.5,0,3.5-1.4,7-1.4s3.5,0.7,7,0.7s3.5-0.4,7-0.4s3.5-0.3,7-0.3s3.5,1.3,7,1.3s3.5-0.5,7-0.5
	s3.5,0.5,7,0.5s3.5-0.6,7-0.6s3.5-0.3,7-0.3s3.5,1.2,7,1.2s3.5-1.4,7-1.4"/>
<path class="st0" d="M252.5,603.5c3.6,0,3.6-0.4,7.3-0.4s3.7,0.4,7.3,0.4s3.7-0.5,7.3-0.5s3.7-0.9,7.3-0.9s3.7,0.6,7.3,0.6
	s3.7,0.7,7.3,0.7s3.7-0.3,7.3-0.3s3.6,0.2,7.3,0.2s3.7-0.2,7.3-0.2s3.7,0.4,7.3,0.4s3.7-0.8,7.3-0.8s3.7,0.1,7.3,0.1
	s3.7-0.6,7.3-0.6s3.7,0.2,7.3,0.2s3.7,0.5,7.3,0.5s3.7-0.1,7.3-0.1"/>
<path class="st1" d="M252.5,603.5c3.6,0,3.6-0.4,7.3-0.4s3.7,0.4,7.3,0.4s3.7-0.5,7.3-0.5s3.7-0.9,7.3-0.9s3.7,0.6,7.3,0.6
	s3.7,0.7,7.3,0.7s3.7-0.3,7.3-0.3s3.6,0.2,7.3,0.2s3.7-0.2,7.3-0.2s3.7,0.4,7.3,0.4s3.7-0.8,7.3-0.8s3.7,0.1,7.3,0.1
	s3.7-0.6,7.3-0.6s3.7,0.2,7.3,0.2s3.7,0.5,7.3,0.5s3.7-0.1,7.3-0.1"/>
<path class="st0" d="M432.5,602.7c3.6,0,3.6,0.9,7.3,0.9s3.7-0.4,7.3-0.4s3.7,0.3,7.3,0.3s3.7-0.7,7.3-0.7s3.7-0.1,7.3-0.1
	s3.7,0.4,7.3,0.4s3.7-0.7,7.3-0.7s3.6-0.2,7.3-0.2s3.7,0.4,7.3,0.4h7.3c3.7,0,3.7,0.5,7.3,0.5c3.6,0,3.7-1.1,7.3-1.1
	s3.7,0.9,7.3,0.9s3.7,0.2,7.3,0.2s3.7-0.3,7.3-0.3s3.7,0.1,7.3,0.1"/>
<path class="st1" d="M432.5,602.7c3.6,0,3.6,0.9,7.3,0.9s3.7-0.4,7.3-0.4s3.7,0.3,7.3,0.3s3.7-0.7,7.3-0.7s3.7-0.1,7.3-0.1
	s3.7,0.4,7.3,0.4s3.7-0.7,7.3-0.7s3.6-0.2,7.3-0.2s3.7,0.4,7.3,0.4h7.3c3.7,0,3.7,0.5,7.3,0.5c3.6,0,3.7-1.1,7.3-1.1
	s3.7,0.9,7.3,0.9s3.7,0.2,7.3,0.2s3.7-0.3,7.3-0.3s3.7,0.1,7.3,0.1"/>
<path class="st0" d="M612.5,602.9c3.5,0,3.5,0.6,7,0.6s3.5,0.2,7,0.2s3.5,0.1,7,0.1s3.5-0.9,7-0.9s3.5,0.4,7,0.4s3.5-0.3,7-0.3
	s3.5-0.6,7-0.6s3.5,0.2,7,0.2s3.5,0.3,7,0.3s3.5,0,7,0s3.5,0.6,7,0.6"/>
<path class="st1" d="M612.5,602.9c3.5,0,3.5,0.6,7,0.6s3.5,0.2,7,0.2s3.5,0.1,7,0.1s3.5-0.9,7-0.9s3.5,0.4,7,0.4s3.5-0.3,7-0.3
	s3.5-0.6,7-0.6s3.5,0.2,7,0.2s3.5,0.3,7,0.3s3.5,0,7,0s3.5,0.6,7,0.6"/>
<path class="st0" d="M197.8,577.5c2.4,2.9,2.5,2.8,5,5.7s2.2,3.1,4.6,6s2.4,2.9,4.9,5.8s3.4,2.1,5.8,5s2.3,3,4.8,5.9s2.3,3,4.7,5.9
	s2.6,2.8,5,5.7s2.3,3,4.8,5.9s2.5,2.8,5,5.7"/>
<path class="st1" d="M197.8,577.5c2.4,2.9,2.5,2.8,5,5.7s2.2,3.1,4.6,6s2.4,2.9,4.9,5.8s3.4,2.1,5.8,5s2.3,3,4.8,5.9s2.3,3,4.7,5.9
	s2.6,2.8,5,5.7s2.3,3,4.8,5.9s2.5,2.8,5,5.7"/>
<path class="st0" d="M421.7,576.8c-2.4,2.9-1.9,3.4-4.3,6.3s-2.9,2.5-5.3,5.4s-2.7,2.6-5.2,5.5s-1.7,3.5-4.1,6.4s-2.2,3.1-4.6,6
	l-4.9,5.8c-2.5,2.9-2.9,2.5-5.4,5.4s-1.9,3.4-4.3,6.3s-2.7,2.7-5.2,5.5"/>
<path class="st1" d="M421.7,576.8c-2.4,2.9-1.9,3.4-4.3,6.3s-2.9,2.5-5.3,5.4s-2.7,2.6-5.2,5.5s-1.7,3.5-4.1,6.4s-2.2,3.1-4.6,6
	l-4.9,5.8c-2.5,2.9-2.9,2.5-5.4,5.4s-1.9,3.4-4.3,6.3s-2.7,2.7-5.2,5.5"/>
<path class="st0" d="M557.4,577.8c2.4,2.9,3.6,1.9,6.1,4.8s1.6,3.6,4,6.5s2.9,2.5,5.3,5.4s2.7,2.7,5.1,5.6s2.5,2.9,4.9,5.8
	s2.4,2.9,4.8,5.8s1.9,3.3,4.4,6.2s3.4,2.1,5.8,5s1.6,3.6,4,6.5"/>
<path class="st1" d="M557.4,577.8c2.4,2.9,3.6,1.9,6.1,4.8s1.6,3.6,4,6.5s2.9,2.5,5.3,5.4s2.7,2.7,5.1,5.6s2.5,2.9,4.9,5.8
	s2.4,2.9,4.8,5.8s1.9,3.3,4.4,6.2s3.4,2.1,5.8,5s1.6,3.6,4,6.5"/>
<path class="st0" d="M241.4,576.5c-2.4,2.9-1.6,3.6-4.1,6.5s-2.8,2.6-5.3,5.5s-1.9,3.4-4.3,6.3s-2.3,3-4.7,5.9s-2.5,2.8-5,5.7
	s-3.1,2.3-5.6,5.2s-2.3,3-4.7,5.9s-2,3.2-4.5,6.1s-3,2.5-5.4,5.4"/>
<path class="st1" d="M241.4,576.5c-2.4,2.9-1.6,3.6-4.1,6.5s-2.8,2.6-5.3,5.5s-1.9,3.4-4.3,6.3s-2.3,3-4.7,5.9s-2.5,2.8-5,5.7
	s-3.1,2.3-5.6,5.2s-2.3,3-4.7,5.9s-2,3.2-4.5,6.1s-3,2.5-5.4,5.4"/>
<path class="st0" d="M377.6,577.6c2.4,2.9,2.6,2.7,5.1,5.6s2.9,2.5,5.3,5.4s2.5,2.8,5,5.7s2.8,2.6,5.2,5.5s2,3.2,4.5,6.1
	s1.9,3.4,4.3,6.3s2.6,2.8,5,5.7s2.7,2.7,5.1,5.6s2.7,2.7,5.1,5.6"/>
<path class="st1" d="M377.6,577.6c2.4,2.9,2.6,2.7,5.1,5.6s2.9,2.5,5.3,5.4s2.5,2.8,5,5.7s2.8,2.6,5.2,5.5s2,3.2,4.5,6.1
	s1.9,3.4,4.3,6.3s2.6,2.8,5,5.7s2.7,2.7,5.1,5.6s2.7,2.7,5.1,5.6"/>
<path class="st0" d="M602.2,577.2c-2.4,2.9-2.5,2.8-4.9,5.7s-2.5,2.8-5,5.7s-2,3.3-4.5,6.2s-2.3,3-4.7,5.9s-3.1,2.3-5.6,5.2
	s-2.4,3-4.8,5.8s-2.5,2.9-4.9,5.8s-2.4,3-4.8,5.9s-2,3.3-4.4,6.2"/>
<path class="st1" d="M602.2,577.2c-2.4,2.9-2.5,2.8-4.9,5.7s-2.5,2.8-5,5.7s-2,3.3-4.5,6.2s-2.3,3-4.7,5.9s-3.1,2.3-5.6,5.2
	s-2.4,3-4.8,5.8s-2.5,2.9-4.9,5.8s-2.4,3-4.8,5.9s-2,3.3-4.4,6.2"/>
<path class="st0" d="M235.6,694.1c0,2,0.1,4.1-0.6,5.9c-2.1,3.4-4.9,6.2-8.3,8.3c-1.8,0.7-3.8,0.3-5.9,0.3s-4.1,0.4-5.9-0.3
	s-3.1-2.4-4.5-3.8c-1.5-1.3-2.7-2.8-3.6-4.6c-0.7-1.8-0.6-3.8-0.6-5.8c0-2,0.3-4,0.9-5.9c0.5-1.8,0.6-3.9,1.3-6
	c0.7-1.8,1.9-3.6,2.7-5.5s1.6-3.8,2.4-5.6s1.5-3.9,2.3-5.7c0.9-2.1,1.9-3.9,2.7-5.5c1.5-3.4-0.8-5.7,2.3-5.7s0.9,2.2,2.5,5.6
	c0.7,1.6,1.3,3.7,2.2,5.7c0.8,1.8,2.2,3.4,3.1,5.3s1.3,3.9,2,5.8s1.7,3.8,2.4,5.7c0.8,2.1,1.5,4,2,5.8
	C235.4,690.1,235.6,692.1,235.6,694.1z"/>
<path class="st3" d="M236.1,694.1c-0.1,2-0.6,3.9-1.5,5.7c-0.8,1.8-1.9,3.4-3.3,4.7c-1.3,1.5-2.9,2.7-4.7,3.5
	c-1.8,0.7-3.7,0.4-5.8,0.4s-4.1,0.6-5.9-0.1c-1.8-0.9-3.4-2.2-4.6-3.7c-1.4-1.4-2.4-3.1-3.1-4.9c-0.8-1.8-1.1-3.7-1.1-5.7
	c0-2,0.3-4.1,0.9-6c0.5-1.8,1.1-3.8,1.8-5.8c0.7-1.8,1.3-3.8,2-5.8s2.3-3.5,3-5.4s1.1-4.1,1.9-5.8c0.9-2.1,2-3.9,2.7-5.5
	c1.5-3.4-0.6-5.9,2.4-5.9s1.3,2.4,2.8,5.8c0.7,1.6,1.2,3.7,2.1,5.7c0.8,1.8,2.2,3.4,3,5.3s1.1,4,1.8,5.9s1.7,3.8,2.3,5.7
	c0.8,2.1,1.9,3.9,2.4,5.7C235.8,690,236.1,692,236.1,694.1z"/>
<path class="st0" d="M386.3,694.1c0,2-0.5,4.1,0.3,5.9c0.9,1.8,2.1,3.4,3.6,4.7c1.4,1.4,3.1,2.4,4.9,3.2c1.8,0.7,3.8,0.9,5.7,0.8
	c1.9,0,3.8-0.3,5.6-1c1.8-0.8,3.9-1.3,5.3-2.7c1.3-1.5,2.3-3.3,2.9-5.2c0.7-1.8,1-3.8,0.9-5.7c-0.2-2-0.6-4-1.2-5.9
	c-0.5-1.8-1.1-3.7-1.8-5.8c-0.7-1.8-1.6-3.7-2.4-5.6s-1.5-3.8-2.2-5.7s-1.4-3.9-2.2-5.7c-0.9-2.1-1.5-4-2.3-5.7
	c-1.5-3.4,0.4-5.6-2.6-5.6s-0.9,2.3-2.5,5.7c-0.7,1.6-1.4,3.6-2.3,5.7c-0.8,1.8-2,3.5-2.9,5.4s-1.7,3.7-2.5,5.6s-1,4-1.7,5.9
	c-0.8,2.1-1.1,4.1-1.6,5.9C386.8,690.2,386.4,692.1,386.3,694.1z"/>
<path class="st3" d="M386.2,694.1c0,2-0.6,4.2,0.2,6c0.9,1.9,2.1,3.5,3.5,5c1.5,1.3,3.3,2.3,5.2,3c1.8,0.7,3.7,0.4,5.8,0.4
	c1.9,0.1,3.8-0.2,5.6-0.9c1.8-0.8,3.9-1.2,5.3-2.6s1.9-3.5,2.6-5.3c0.9-1.7,1.4-3.6,1.5-5.6c-0.2-2-0.7-4-1.4-6
	c-0.5-1.8-1.1-3.7-1.9-5.8c-0.7-1.8-1.6-3.7-2.4-5.6s-1.8-3.7-2.5-5.6s-0.9-4.2-1.7-5.9c-0.9-2.1-1.5-4.1-2.2-5.7
	c-1.5-3.4,0-5.4-3-5.4s-1,2.3-2.6,5.6c-0.7,1.6-0.8,3.9-1.7,5.9c-0.8,1.8-2.2,3.4-3,5.3s-1.9,3.6-2.7,5.5s-1.1,4-1.8,5.9
	c-0.8,2.1-1,4.2-1.5,5.9C386.9,690.2,386.4,692.1,386.2,694.1z"/>
<path class="st0" d="M596.1,694.1c0,2-0.4,4-1.1,5.9c-0.8,1.8-2.3,3.2-3.7,4.6c-1.3,1.5-2.9,2.7-4.6,3.6c-1.8,0.8-3.8,1.3-5.8,1.4
	c-2,0-3.9-0.9-5.7-1.7c-1.9-0.7-3.6-1.7-5.1-3c-1.4-1.4-2.6-3.1-3.3-4.9c-0.7-1.9-0.9-3.9-0.8-5.8c0-2,0.3-4.1,0.9-6
	c0.5-1.8,1.6-3.6,2.4-5.7c0.7-1.8,1.5-3.7,2.3-5.7s1.1-4,1.9-5.8s1.5-3.9,2.2-5.7c0.9-2.1,1.8-3.9,2.5-5.6c1.5-3.4-0.3-5.3,2.7-5.3
	s0.6,2.2,2.2,5.5c0.7,1.6,1.5,3.5,2.4,5.6c0.8,1.8,2,3.5,2.8,5.4s1.9,3.6,2.7,5.5s0.8,4.2,1.4,6c0.8,2.1,1.7,3.9,2.2,5.7
	C595.3,690.7,596.1,692.7,596.1,694.1z"/>
<path class="st3" d="M595.8,694.1c0,2-0.5,3.9-1.3,5.7c-1.2,3.9-4.2,6.9-8.1,8c-1.8,0.7-3.7,2-5.7,2s-3.8-1.5-5.6-2.2
	s-3.9-1.3-5.2-2.7s-2.1-3.3-2.8-5.2c-0.8-1.8-1.3-3.7-1.3-5.7c0-2.1,0.2-4.1,0.8-6.1c0.5-1.8,1.4-3.7,2.1-5.7
	c0.7-1.8,1.9-3.6,2.7-5.5s1.2-3.9,2-5.8s1-4.1,1.8-5.9c0.9-2.1,2.2-3.8,3-5.4c1.5-3.4-0.4-5.3,2.7-5.3s0.9,2,2.4,5.4
	c0.7,1.6,1.3,3.7,2.2,5.7c0.8,1.8,1.7,3.6,2.5,5.6s2.1,3.5,2.8,5.4s1,4.1,1.6,5.9c0.8,2.1,1.4,4,1.9,5.8
	C594.9,690.8,595.8,692.7,595.8,694.1z"/>
</svg>
