<svg xmlns="http://www.w3.org/2000/svg" viewBox="0 0 800 800"><defs><style>.a,.c{fill:none;stroke:#000;stroke-linejoin:bevel;}.a{stroke-width:13px;}.b{fill:#fff;}.c{stroke-width:7px;}</style></defs><title>canvas (54)</title><polyline points="215.23 554.93 214.88 562.01 214.91 569.19 214.67 576.36 215.52 583.53 215.15 590.7 215.14 597.87 214.56 605.04 215.21 612.22 214.64 619.39 214.49 626.55 215 633.73 215.05 640.9 214.98 648.07 215.13 655.25 214.78 662.42 215.12 669.6 214.38 676.78 214.82 683.96 214.54 691.13 214.62 698.31 214.57 705.48 214.41 712.66 214.32 719.83 214.8 727 214.59 734.42 214.27 726.97 214.55 719.78 215.03 712.6 214.63 705.4 214.64 698.21 215.01 691.02 215.31 683.83 215.62 676.64 215.66 669.45 215.03 662.25 214.97 655.06 215.65 647.87 215.83 640.68 215.92 633.48 215.02 626.28 215.92 619.09 215.42 611.89 215.14 604.68 215.54 597.49 215.25 590.29 215.62 583.1 215.95 575.91 215.47 568.71 216.35 561.53 216.34 554.69"/><polyline class="a" points="215.23 554.93 214.88 562.01 214.91 569.19 214.67 576.36 215.52 583.53 215.15 590.7 215.14 597.87 214.56 605.04 215.21 612.22 214.64 619.39 214.49 626.55 215 633.73 215.05 640.9 214.98 648.07 215.13 655.25 214.78 662.42 215.12 669.6 214.38 676.78 214.82 683.96 214.54 691.13 214.62 698.31 214.57 705.48 214.41 712.66 214.32 719.83 214.8 727 214.59 734.42 214.27 726.97 214.55 719.78 215.03 712.6 214.63 705.4 214.64 698.21 215.01 691.02 215.31 683.83 215.62 676.64 215.66 669.45 215.03 662.25 214.97 655.06 215.65 647.87 215.83 640.68 215.92 633.48 215.02 626.28 215.92 619.09 215.42 611.89 215.14 604.68 215.54 597.49 215.25 590.29 215.62 583.1 215.95 575.91 215.47 568.71 216.35 561.53 216.34 554.69"/><polygon points="560.42 520.53 560.68 528.05 560.56 535.22 560.59 542.39 559.96 549.56 559.98 556.73 560.59 563.91 560.7 571.08 560.71 578.25 560.14 585.42 560.49 592.59 560.08 599.76 559.8 606.93 560.09 614.11 560.08 621.28 560.45 628.46 559.85 635.63 559.92 642.81 560.43 649.99 560.32 657.17 560.47 664.35 559.75 671.52 560.16 678.69 560.19 685.86 559.42 693.03 559.62 699.8 559.54 693 560.54 685.83 560.18 678.63 559.96 671.43 559.96 664.24 560.61 657.06 560.91 649.87 560.81 642.67 560.13 635.48 560.31 628.29 560.59 621.1 560.51 613.9 560.37 606.71 560.58 599.51 560.65 592.32 560.55 585.12 560.62 577.92 561.18 570.72 561.04 563.52 561.4 556.33 560.95 549.13 561.41 541.94 561.41 534.75 561.4 527.56 561.68 520.79 560.43 517.67 553.46 517.5 546.5 517.02 539.56 516.6 532.34 516.5 525.11 517.1 517.9 516.89 510.68 516.46 503.49 517.3 496.26 517.13 489.06 517.48 481.83 517.41 474.66 518.38 467.4 517.92 460.25 519.13 452.99 518.83 445.83 519.92 438.65 520.74 431.44 521.17 424.58 521.78 417.66 521.85 410.91 523.4 404.08 524.27 397.28 525.37 396.85 525.7 389.8 526.87 382.97 528.9 375.95 530.14 369.11 532.22 362.15 533.75 355.01 534.33 347.99 535.51 341.05 537.13 334.02 538.27 327.06 539.89 320.03 541.06 312.91 541.6 305.94 543.23 298.78 543.49 291.81 545.07 284.77 546.19 277.69 547.03 270.56 547.41 263.56 548.84 256.48 549.64 249.44 550.78 242.41 551.98 235.33 552.85 228.19 553.22 221.12 554.15 214.07 555.21 206.99 556.06 199.91 556.89 192.91 558.3 185.79 558.81 178.75 559.93 171.8 561.59 164.65 562.02 157.66 563.45 150.6 564.5 143.61 565.88 136.6 567.17 129.6 568.47 122.62 569.92 115.63 571.26 108.64 572.69 101.83 574.81 94.79 576.06 88.08 578.48 84.01 583.57 90.13 588.03 97.18 590.71 104.57 591.85 111.77 592.36 118.98 592.58 126.19 592.75 133.37 593.71 140.58 593.87 147.8 594 155.01 594.33 162.22 593.75 169.44 594.4 176.64 593.55 183.85 593.48 191.05 593.07 198.28 593.18 205.48 592.59 212.65 591.72 219.56 591.45 226.4 590.61 233.23 589.59 240.08 588.8 246.89 587.66 244.94 591.84 251.97 590.34 258.9 588.38 266.05 587.37 273.02 585.62 279.92 583.6 286.9 581.87 293.99 580.64 300.96 578.9 307.9 576.99 315.07 576.12 322.07 574.48 329.05 572.74 336.11 571.4 343.24 570.38 350.25 568.79 357.22 566.98 364.35 565.94 371.36 564.32 378.36 562.67 385.38 561.13 392.34 559.27 399.5 558.38 406.56 557.02 413.45 554.79 420.61 553.92 427.73 552.8 434.6 550.51 441.71 549.39 448.81 548.2 455.76 546.3 462.75 544.62 469.79 543.15 476.87 541.89 483.91 540.42 490.89 538.66 497.86 536.89 504.89 535.34 511.94 533.89 518.92 532.2 525.76 529.9 532.81 528.47 539.81 526.86 546.71 524.82 553.73 523.22 560.42 520.53"/><polygon class="a" points="560.42 520.53 560.68 528.05 560.56 535.22 560.59 542.39 559.96 549.56 559.98 556.73 560.59 563.91 560.7 571.08 560.71 578.25 560.14 585.42 560.49 592.59 560.08 599.76 559.8 606.93 560.09 614.11 560.08 621.28 560.45 628.46 559.85 635.63 559.92 642.81 560.43 649.99 560.32 657.17 560.47 664.35 559.75 671.52 560.16 678.69 560.19 685.86 559.42 693.03 559.62 699.8 559.54 693 560.54 685.83 560.18 678.63 559.96 671.43 559.96 664.24 560.61 657.06 560.91 649.87 560.81 642.67 560.13 635.48 560.31 628.29 560.59 621.1 560.51 613.9 560.37 606.71 560.58 599.51 560.65 592.32 560.55 585.12 560.62 577.92 561.18 570.72 561.04 563.52 561.4 556.33 560.95 549.13 561.41 541.94 561.41 534.75 561.4 527.56 561.68 520.79 560.43 517.67 553.46 517.5 546.5 517.02 539.56 516.6 532.34 516.5 525.11 517.1 517.9 516.89 510.68 516.46 503.49 517.3 496.26 517.13 489.06 517.48 481.83 517.41 474.66 518.38 467.4 517.92 460.25 519.13 452.99 518.83 445.83 519.92 438.65 520.74 431.44 521.17 424.58 521.78 417.66 521.85 410.91 523.4 404.08 524.27 397.28 525.37 396.85 525.7 389.8 526.87 382.97 528.9 375.95 530.14 369.11 532.22 362.15 533.75 355.01 534.33 347.99 535.51 341.05 537.13 334.02 538.27 327.06 539.89 320.03 541.06 312.91 541.6 305.94 543.23 298.78 543.49 291.81 545.07 284.77 546.19 277.69 547.03 270.56 547.41 263.56 548.84 256.48 549.64 249.44 550.78 242.41 551.98 235.33 552.85 228.19 553.22 221.12 554.15 214.07 555.21 206.99 556.06 199.91 556.89 192.91 558.3 185.79 558.81 178.75 559.93 171.8 561.59 164.65 562.02 157.66 563.45 150.6 564.5 143.61 565.88 136.6 567.17 129.6 568.47 122.62 569.92 115.63 571.26 108.64 572.69 101.83 574.81 94.79 576.06 88.08 578.48 84.01 583.57 90.13 588.03 97.18 590.71 104.57 591.85 111.77 592.36 118.98 592.58 126.19 592.75 133.37 593.71 140.58 593.87 147.8 594 155.01 594.33 162.22 593.75 169.44 594.4 176.64 593.55 183.85 593.48 191.05 593.07 198.28 593.18 205.48 592.59 212.65 591.72 219.56 591.45 226.4 590.61 233.23 589.59 240.08 588.8 246.89 587.66 244.94 591.84 251.97 590.34 258.9 588.38 266.05 587.37 273.02 585.62 279.92 583.6 286.9 581.87 293.99 580.64 300.96 578.9 307.9 576.99 315.07 576.12 322.07 574.48 329.05 572.74 336.11 571.4 343.24 570.38 350.25 568.79 357.22 566.98 364.35 565.94 371.36 564.32 378.36 562.67 385.38 561.13 392.34 559.27 399.5 558.38 406.56 557.02 413.45 554.79 420.61 553.92 427.73 552.8 434.6 550.51 441.71 549.39 448.81 548.2 455.76 546.3 462.75 544.62 469.79 543.15 476.87 541.89 483.91 540.42 490.89 538.66 497.86 536.89 504.89 535.34 511.94 533.89 518.92 532.2 525.76 529.9 532.81 528.47 539.81 526.86 546.71 524.82 553.73 523.22 560.42 520.53"/><polygon class="b" points="325.69 352.54 318.61 352.68 311.4 353.2 304.17 353.46 296.99 354.45 289.75 354.52 282.55 355.23 275.33 355.69 268.13 356.29 260.92 356.85 253.74 357.84 246.49 357.84 239.31 358.82 232.04 358.44 224.88 359.67 217.65 360.04 210.46 360.83 203.25 361.36 196.01 361.43 188.81 362.13 181.61 362.8 174.35 362.7 167.16 363.54 159.93 363.76 152.71 364.15 145.48 364.43 138.28 365.17 131.12 366.3 123.86 366.18 116.63 366.43 109.29 367.28 111.38 374.37 111.7 381.62 112.54 388.78 112.89 396.01 112.35 403.23 110.69 410.28 110.03 417.51 108.22 424.51 105.46 431.22 103.89 438.29 101.26 445.02 98.8 451.8 96.11 458.5 93.67 465.31 90.06 471.62 88.08 478.61 84.76 485.05 82.82 492.03 80.4 498.82 77.89 505.59 75.63 512.45 74.08 519.5 73.16 526.66 71.77 533.74 71.95 540.97 71.09 548.2 71.81 555.41 73.84 562.38 75.3 569.44 77.26 576.41 80.27 583.02 85.31 587.79 91.37 591.07 98.01 592.86 104.69 594.48 111.44 596.03 118.35 596.35 125.22 597.05 132.11 597.26 138.99 597.37 146.29 597.05 153.54 597.34 160.79 598.05 168.06 597.94 175.32 598.32 182.59 598.43 189.85 597.8 197.12 597.7 204.39 597.57 211.59 596.36 218.89 596.31 226.05 594.95 233.18 593.5 240.46 592.96 247.5 591.14 254.6 589.6 261.78 588.37 268.8 586.46 275.83 584.57 282.43 582.31 288.72 579.29 294.45 575.62 298.14 569.83 298.06 569.76 296.83 562.59 295.04 555.5 295 548.2 294.48 540.9 294.99 533.62 296.77 526.51 297.98 519.34 299.17 512.14 301.59 505.25 303.83 498.32 305.76 491.27 309.11 484.75 311.59 477.9 314.25 471.11 316.94 464.34 320.1 457.76 322.6 450.91 324.88 443.98 327.15 437.06 330.07 430.34 331.33 423.13 333.27 416.11 334.67 408.96 335.14 401.69 335.73 394.44 335.25 387.18 334.36 379.98 332.92 372.88 331.3 365.79 328.8 358.95 325.69 352.54"/><polygon class="a" points="325.69 352.54 318.61 352.68 311.4 353.2 304.17 353.46 296.99 354.45 289.75 354.52 282.55 355.23 275.33 355.69 268.13 356.29 260.92 356.85 253.74 357.84 246.49 357.84 239.31 358.82 232.04 358.44 224.88 359.67 217.65 360.04 210.46 360.83 203.25 361.36 196.01 361.43 188.81 362.13 181.61 362.8 174.35 362.7 167.16 363.54 159.93 363.76 152.71 364.15 145.48 364.43 138.28 365.17 131.12 366.3 123.86 366.18 116.63 366.43 109.29 367.28 111.38 374.37 111.7 381.62 112.54 388.78 112.89 396.01 112.35 403.23 110.69 410.28 110.03 417.51 108.22 424.51 105.46 431.22 103.89 438.29 101.26 445.02 98.8 451.8 96.11 458.5 93.67 465.31 90.06 471.62 88.08 478.61 84.76 485.05 82.82 492.03 80.4 498.82 77.89 505.59 75.63 512.45 74.08 519.5 73.16 526.66 71.77 533.74 71.95 540.97 71.09 548.2 71.81 555.41 73.84 562.38 75.3 569.44 77.26 576.41 80.27 583.02 85.31 587.79 91.37 591.07 98.01 592.86 104.69 594.48 111.44 596.03 118.35 596.35 125.22 597.05 132.11 597.26 138.99 597.37 146.29 597.05 153.54 597.34 160.79 598.05 168.06 597.94 175.32 598.32 182.59 598.43 189.85 597.8 197.12 597.7 204.39 597.57 211.59 596.36 218.89 596.31 226.05 594.95 233.18 593.5 240.46 592.96 247.5 591.14 254.6 589.6 261.78 588.37 268.8 586.46 275.83 584.57 282.43 582.31 288.72 579.29 294.45 575.62 298.14 569.83 298.06 569.76 296.83 562.59 295.04 555.5 295 548.2 294.48 540.9 294.99 533.62 296.77 526.51 297.98 519.34 299.17 512.14 301.59 505.25 303.83 498.32 305.76 491.27 309.11 484.75 311.59 477.9 314.25 471.11 316.94 464.34 320.1 457.76 322.6 450.91 324.88 443.98 327.15 437.06 330.07 430.34 331.33 423.13 333.27 416.11 334.67 408.96 335.14 401.69 335.73 394.44 335.25 387.18 334.36 379.98 332.92 372.88 331.3 365.79 328.8 358.95 325.69 352.54"/><polygon class="b" points="131.21 352.14 138.33 350.6 145.41 348.99 152.43 347.1 159.6 345.91 166.66 344.18 173.94 343.64 181.01 341.85 188.29 341.51 195.46 340.25 202.69 339.53 209.98 339.54 217.21 338.79 224.48 338.87 231.73 338.06 238.99 338.18 246.26 338.14 253.53 338.45 260.76 339.35 268.02 339.5 275.31 340.25 282.62 339.98 289.89 340.64 297.19 341.01 304.43 342.04 311.45 344.06 318.25 346.45 323.81 350.78 324.61 358.01 318.36 362.39 311.09 364.81 303.74 367.11 296.7 368.65 289.65 370.11 282.75 372.21 275.76 373.99 268.56 374.69 261.49 376.02 254.38 377.12 247.27 378.31 240.09 378.94 232.9 379.32 225.72 379.8 218.54 380.24 211.36 380.91 204.18 381.63 196.97 380.86 189.77 381.32 182.59 380.79 175.36 381.37 168.21 380.35 160.99 380.43 153.46 380.01 145.92 379.5 138.39 378.91 130.84 378.24 123.61 375.9 116.58 373.46 110.67 369.06 111.09 361.85 117.06 357.26 124.26 355.1 131.21 352.14"/><polygon class="a" points="131.21 352.14 138.33 350.6 145.41 348.99 152.43 347.1 159.6 345.91 166.66 344.18 173.94 343.64 181.01 341.85 188.29 341.51 195.46 340.25 202.69 339.53 209.98 339.54 217.21 338.79 224.48 338.87 231.73 338.06 238.99 338.18 246.26 338.14 253.53 338.45 260.76 339.35 268.02 339.5 275.31 340.25 282.62 339.98 289.89 340.64 297.19 341.01 304.43 342.04 311.45 344.06 318.25 346.45 323.81 350.78 324.61 358.01 318.36 362.39 311.09 364.81 303.74 367.11 296.7 368.65 289.65 370.11 282.75 372.21 275.76 373.99 268.56 374.69 261.49 376.02 254.38 377.12 247.27 378.31 240.09 378.94 232.9 379.32 225.72 379.8 218.54 380.24 211.36 380.91 204.18 381.63 196.97 380.86 189.77 381.32 182.59 380.79 175.36 381.37 168.21 380.35 160.99 380.43 153.46 380.01 145.92 379.5 138.39 378.91 130.84 378.24 123.61 375.9 116.58 373.46 110.67 369.06 111.09 361.85 117.06 357.26 124.26 355.1 131.21 352.14"/><polygon points="314.89 363.24 308.45 361.81 301.53 360.79 294.67 359.35 287.66 359.04 280.67 358.9 273.59 358.23 266.5 357.64 259.38 357.45 252.27 357.72 245.16 357.01 238.06 357.79 230.94 357.59 223.84 358.01 216.76 358.71 209.63 358.87 202.56 359.63 195.51 360.62 188.53 362.02 181.49 363 174.4 363.7 167.34 364.65 160.51 366.76 153.6 368.4 146.55 369.47 139.61 371.07 133.67 372.99 127.37 375.26 134.26 375.84 140.73 376.4 147.11 377.66 153.56 378.3 160.01 378.7 167.24 378.77 174.51 379.15 181.76 378.74 189.01 378.22 196.26 377.97 203.53 378.34 210.78 378 218.03 377.7 225.32 378.05 232.36 376.61 239.36 375.09 246.55 374.71 253.51 372.87 260.59 371.8 267.62 370.47 274.43 369.41 281.29 368.72 288.09 367.6 294.86 366.34 301.75 365.78 308.57 364.82 314.89 363.24"/><polygon class="a" points="314.89 363.24 308.45 361.81 301.53 360.79 294.67 359.35 287.66 359.04 280.67 358.9 273.59 358.23 266.5 357.64 259.38 357.45 252.27 357.72 245.16 357.01 238.06 357.79 230.94 357.59 223.84 358.01 216.76 358.71 209.63 358.87 202.56 359.63 195.51 360.62 188.53 362.02 181.49 363 174.4 363.7 167.34 364.65 160.51 366.76 153.6 368.4 146.55 369.47 139.61 371.07 133.67 372.99 127.37 375.26 134.26 375.84 140.73 376.4 147.11 377.66 153.56 378.3 160.01 378.7 167.24 378.77 174.51 379.15 181.76 378.74 189.01 378.22 196.26 377.97 203.53 378.34 210.78 378 218.03 377.7 225.32 378.05 232.36 376.61 239.36 375.09 246.55 374.71 253.51 372.87 260.59 371.8 267.62 370.47 274.43 369.41 281.29 368.72 288.09 367.6 294.86 366.34 301.75 365.78 308.57 364.82 314.89 363.24"/><polyline points="349.16 568.94 349.12 576.17 349.44 583.34 348.94 590.51 349.14 597.68 348.61 604.85 349 612.02 348.7 619.19 349 626.37 349.33 633.54 348.91 640.71 349.02 647.88 348.83 655.05 348.38 662.22 348.45 669.4 349.16 676.58 348.33 683.75 349 690.93 348.43 698.11 348.95 705.29 348.37 712.46 349.07 719.64 348.21 726.81 348.4 733.98 348.88 741.15 348.33 748.04 348.4 741.13 349.02 733.94 348.6 726.75 349.3 719.56 348.48 712.36 348.86 705.17 348.77 697.98 348.88 690.79 349.36 683.6 349.35 676.41 349.21 669.22 349.05 662.02 349.69 654.83 348.99 647.63 349.33 640.43 349.17 633.24 349.66 626.04 349.5 618.84 349.63 611.64 349.8 604.45 349.52 597.25 349.36 590.05 349.51 582.86 350.29 575.68 350.14 568.31"/><polyline class="a" points="349.16 568.94 349.12 576.17 349.44 583.34 348.94 590.51 349.14 597.68 348.61 604.85 349 612.02 348.7 619.19 349 626.37 349.33 633.54 348.91 640.71 349.02 647.88 348.83 655.05 348.38 662.22 348.45 669.4 349.16 676.58 348.33 683.75 349 690.93 348.43 698.11 348.95 705.29 348.37 712.46 349.07 719.64 348.21 726.81 348.4 733.98 348.88 741.15 348.33 748.04 348.4 741.13 349.02 733.94 348.6 726.75 349.3 719.56 348.48 712.36 348.86 705.17 348.77 697.98 348.88 690.79 349.36 683.6 349.35 676.41 349.21 669.22 349.05 662.02 349.69 654.83 348.99 647.63 349.33 640.43 349.17 633.24 349.66 626.04 349.5 618.84 349.63 611.64 349.8 604.45 349.52 597.25 349.36 590.05 349.51 582.86 350.29 575.68 350.14 568.31"/><polyline points="420.91 522.85 420.42 529.93 420.45 537.11 420.82 544.28 420.32 551.45 420.68 558.62 420.57 565.79 420.51 572.96 421.04 580.14 420.79 587.31 420.18 594.47 420.51 601.64 420.06 608.82 420.42 615.99 420.58 623.17 420.35 630.35 420.12 637.52 420.26 644.7 420.59 651.88 420.02 659.05 420.03 666.23 420.58 673.41 420.48 680.58 420.77 687.75 420.25 694.92 420.09 701.93 420.32 694.9 420.18 687.7 420.31 680.51 420.13 673.32 420.28 666.13 421.11 658.95 421.21 651.75 421.21 644.56 420.96 637.37 421.07 630.18 420.6 622.98 421.17 615.79 420.73 608.6 420.73 601.4 421.28 594.2 421.2 587.01 421.71 579.81 421.39 572.61 421.48 565.41 421.74 558.22 420.99 551.02 421.2 543.83 421.95 536.64 422.09 529.45 421.92 522.29"/><polyline class="a" points="420.91 522.85 420.42 529.93 420.45 537.11 420.82 544.28 420.32 551.45 420.68 558.62 420.57 565.79 420.51 572.96 421.04 580.14 420.79 587.31 420.18 594.47 420.51 601.64 420.06 608.82 420.42 615.99 420.58 623.17 420.35 630.35 420.12 637.52 420.26 644.7 420.59 651.88 420.02 659.05 420.03 666.23 420.58 673.41 420.48 680.58 420.77 687.75 420.25 694.92 420.09 701.93 420.32 694.9 420.18 687.7 420.31 680.51 420.13 673.32 420.28 666.13 421.11 658.95 421.21 651.75 421.21 644.56 420.96 637.37 421.07 630.18 420.6 622.98 421.17 615.79 420.73 608.6 420.73 601.4 421.28 594.2 421.2 587.01 421.71 579.81 421.39 572.61 421.48 565.41 421.74 558.22 420.99 551.02 421.2 543.83 421.95 536.64 422.09 529.45 421.92 522.29"/><polygon points="149.57 595.05 146.72 587.98 144.48 581.14 141.97 574.33 140.85 567.18 140.78 559.94 140.04 552.74 140.73 545.54 141.51 538.36 142.63 531.22 144.9 524.34 146.99 517.44 149.08 510.54 151.22 503.64 154.38 497.13 156.5 490.21 159.51 483.65 162.12 476.92 164.94 470.27 167.12 463.38 170.47 456.93 172.37 449.94 174.35 443.01 176.33 436.09 178.74 429.26 179.65 422.09 180.61 414.95 181.52 407.79 181.87 400.56 180.89 393.38 179.94 386.22 178.21 379.55 171.49 378.72 164.65 379.26 157.81 379.46 150.83 378.83 152.51 386.24 153.46 393.38 154.04 400.57 153.84 407.78 153.37 414.97 152.56 422.14 151.51 429.29 149.15 436.14 147.71 443.24 144.74 449.86 143.14 456.95 140.46 463.65 137.38 470.2 134.86 476.96 131.53 483.39 129.06 490.18 127 497.13 124.41 503.86 121.33 510.42 119.25 517.33 117.43 524.32 115.89 531.36 114.45 538.41 113.75 545.58 112.91 552.75 112.85 559.98 113.86 567.13 115.27 574.19 116.74 581.25 119.56 587.9 122.09 594.55 128.9 594.65 135.74 594.49 142.59 594.37 149.57 595.05"/><polygon class="a" points="149.57 595.05 146.72 587.98 144.48 581.14 141.97 574.33 140.85 567.18 140.78 559.94 140.04 552.74 140.73 545.54 141.51 538.36 142.63 531.22 144.9 524.34 146.99 517.44 149.08 510.54 151.22 503.64 154.38 497.13 156.5 490.21 159.51 483.65 162.12 476.92 164.94 470.27 167.12 463.38 170.47 456.93 172.37 449.94 174.35 443.01 176.33 436.09 178.74 429.26 179.65 422.09 180.61 414.95 181.52 407.79 181.87 400.56 180.89 393.38 179.94 386.22 178.21 379.55 171.49 378.72 164.65 379.26 157.81 379.46 150.83 378.83 152.51 386.24 153.46 393.38 154.04 400.57 153.84 407.78 153.37 414.97 152.56 422.14 151.51 429.29 149.15 436.14 147.71 443.24 144.74 449.86 143.14 456.95 140.46 463.65 137.38 470.2 134.86 476.96 131.53 483.39 129.06 490.18 127 497.13 124.41 503.86 121.33 510.42 119.25 517.33 117.43 524.32 115.89 531.36 114.45 538.41 113.75 545.58 112.91 552.75 112.85 559.98 113.86 567.13 115.27 574.19 116.74 581.25 119.56 587.9 122.09 594.55 128.9 594.65 135.74 594.49 142.59 594.37 149.57 595.05"/><polyline class="a" points="172.54 594.8 169.9 588.07 167.48 581.26 166.13 574.17 164.96 567.08 163.58 559.97 163.98 552.75 164.43 545.57 165.32 538.42 166.72 531.36 168.32 524.34 170.32 517.42 172.44 510.53 174.88 503.74 177.68 497.09 179.98 490.24 182.41 483.44 185.49 476.9 188.64 470.39 190.94 463.54 193.99 456.97 195.49 449.85 197.78 443.02 200.63 436.33 202.37 429.31 203.65 422.18 204.77 415.03 204.74 407.78 204.44 400.58 204.52 393.35 203.47 386.2 201.69 379.2"/><polyline class="c" points="102.51 594.45 99.04 588.11 96.74 581.26 95.25 574.19 93.36 567.2 93.3 559.95 93.44 552.75 93.33 545.53 93.89 538.32 95.21 531.2 97.27 524.26 99.35 517.35 101.69 510.53 103.68 503.58 106.58 496.96 109.09 490.19 111.94 483.56 115.08 477.05 117.31 470.16 120.34 463.6 122.61 456.74 124.97 449.93 127.68 443.22 129.45 436.22 130.71 429.11 133 422.2 133.28 414.95 133.69 407.77 134.25 400.56 133.6 393.37 132.24 386.29 131.4 379.08"/><polyline class="c" points="152.42 326.39 150.16 319.6 148.37 312.69 147.83 305.55 148.11 298.37 150.29 291.51 152.21 284.66 154.67 277.96 156.79 271.12 159.71 264.6 162.56 258.04 165.29 251.41 166.55 244.34 168.06 237.39 169.21 230.33 168.5 223.22 167.6 216.13"/><polyline class="c" points="179.92 321.14 177.87 314.38 176.28 307.5 176.4 300.42 178.26 293.6 179.91 286.77 182.59 280.26 184.66 273.51 187.7 267.15 190 260.51 191.58 253.69 192.96 246.84 193.72 239.79 192 232.92"/><polyline class="c" points="123.34 333.38 120.78 326.66 118.87 319.75 117.28 312.66 118.07 305.44 118.82 298.3 120.5 291.31 122.02 284.25 124.81 277.59 127.25 270.81 129.41 263.89 132.25 257.25 134.83 250.52 137.37 243.77 139.98 237.03 141.22 229.91 142.49 222.81 143.09 215.6 141.89 208.47 140.48 201.44"/><polyline class="c" points="695.34 143.39 690.19 148.18 684.46 152.23 679.81 157.49 674.84 162.39 670.16 167.59 666.49 173.54 663.7 179.92 661.54 186.49 660.22 193.32 660.89 200.25 661.93 207.12 664.1 213.73 666.09 220.44 668.62 226.96 671.51 233.34 673.58 240.01 675.53 246.71 676.2 254.37 673.89 261.72 666.96 264.89 659.37 264.62 651.92 262.93 644.41 261.13 637.72 258.78 630.94 256.66 624.3 254.08 617.47 252.11 610.52 250.56 603.88 247.94 597.11 245.79 590.2 244.1 583.38 242.09 576.46 240.41 569.92 237.49 563.02 235.76 556.28 233.51 549.52 231.3 542.53 229.84 535.73 227.79 528.86 225.95 522.16 223.53 515.29 221.67 508.4 219.58 508.43 212.33 509.52 205.41 510.5 198.47 512.97 191.92 515.39 185.39 518.81 179.31 521.76 172.92 525.94 167.28 530.79 162.21 535.8 157.31 541.64 153.78 548.49 154.97 555.23 157.23 562.04 159.25 568.72 161.72 575.78 162.91 582.43 165.46 589.38 167.04 596.03 169.6 602.74 171.96 609.63 173.76 616.43 175.81 623.27 177.78 629.99 180.14 636.73 182.41 643.56 184.38 650.52 185.96 657.15 188.57 663.96 190.62 670.92 192.15 677.54 194.75 684.78 197.41 692.35 198.77 700 199.16 706.65 195.52 708.95 188.36 708.94 180.63 706.69 173.97 704.75 167.24 701.61 160.97 699.54 154.26 696.75 147.85 694.86 141.13 693.71 134.26 693.05 127.31 694.13 120.39 696.41 113.79 699.36 107.47 702.92 101.41 707.9 96.44 712.63 91.32 717.42 86.19 723.23 82.23 728.32 77.36"/><polygon class="b" points="708.83 192.06 705.38 198.46 702.47 205.12 699.52 211.77 696.05 218.17 692.47 224.5 689.29 231.04 686.49 237.76 682.86 244.08 680.24 250.9 676.93 257.42 672.78 263 676.27 257.59 677.16 251 675.99 244.44 674.23 237.97 671.12 232.03 668.22 225.48 665.37 218.92 662.38 212.38 660.76 205.39 659.53 198.32 660.08 191.19 661.14 184.14 664.28 177.73 668.42 171.83 673.6 166.81 678.41 161.42 683.9 156.72 689.4 152.06 694.53 147.41 697.96 152.95 701.02 159.05 703.86 165.27 705.42 171.93 707.07 178.53 708.06 185.25 708.83 192.06"/><polygon class="c" points="708.83 192.06 705.38 198.46 702.47 205.12 699.52 211.77 696.05 218.17 692.47 224.5 689.29 231.04 686.49 237.76 682.86 244.08 680.24 250.9 676.93 257.42 672.78 263 676.27 257.59 677.16 251 675.99 244.44 674.23 237.97 671.12 232.03 668.22 225.48 665.37 218.92 662.38 212.38 660.76 205.39 659.53 198.32 660.08 191.19 661.14 184.14 664.28 177.73 668.42 171.83 673.6 166.81 678.41 161.42 683.9 156.72 689.4 152.06 694.53 147.41 697.96 152.95 701.02 159.05 703.86 165.27 705.42 171.93 707.07 178.53 708.06 185.25 708.83 192.06"/><polygon points="695.36 143.71 698.95 137.25 702.38 130.71 704.93 123.72 708.74 117.37 712.14 110.81 715.71 104.33 718.77 97.61 721.89 90.9 725.26 84.32 728.71 77.37 722.67 83 717.69 89.21 711.56 94.28 706 99.93 700.51 105.66 697.42 112.17 694.19 118.59 690.85 124.96 687.94 131.55 684.59 137.92 681.01 144.18 677.94 150.68 674.85 157.18 671.13 163.37 668.43 170.08 665.29 176.56 669.04 170.11 673.39 164 678.28 158.31 683.51 152.94 689.13 147.93 695.36 143.71"/><polygon class="c" points="695.36 143.71 698.95 137.25 702.38 130.71 704.93 123.72 708.74 117.37 712.14 110.81 715.71 104.33 718.77 97.61 721.89 90.9 725.26 84.32 728.71 77.37 722.67 83 717.69 89.21 711.56 94.28 706 99.93 700.51 105.66 697.42 112.17 694.19 118.59 690.85 124.96 687.94 131.55 684.59 137.92 681.01 144.18 677.94 150.68 674.85 157.18 671.13 163.37 668.43 170.08 665.29 176.56 669.04 170.11 673.39 164 678.28 158.31 683.51 152.94 689.13 147.93 695.36 143.71"/><polyline class="c" points="508.65 236.95 515.41 239.81 522.39 241.96 529.49 243.68 536.57 245.47 543.41 248.06 550.56 249.62 557.6 251.56 564.59 253.66 571.55 255.84 578.43 258.31 585.4 260.48 592.45 262.4 599.42 264.58 606.4 266.73 613.56 268.22 620.36 270.98 627.41 272.87 634.41 274.96 641.41 277.01 648.53 278.68 655.45 281.04 662.52 282.92 669.56 284.88"/><polyline class="c" points="554.9 250.19 551.36 244.79 547.4 239.67 543.64 234.4 540.4 228.78"/><polyline class="c" points="634.41 274.56 631.07 267.97 627.63 261.43 624.41 254.78"/></svg>