<svg xmlns="http://www.w3.org/2000/svg" viewBox="0 0 801.24 801.24"><defs><style>.a{fill:#fff;}</style></defs><title>shake</title><path class="a" d="M800.88,800.88c-2.4,0-5.07-.23-7.47-.23s-4.8.14-7.21.14-4.8.18-7.21.18-4.8-.65-7.21-.65l-7.21,0c-2.4,0-4.8.4-7.21.4s-4.8-.57-7.21-.57-4.8,1.08-7.21,1.08-4.8-.37-7.21-.37-4.8.25-7.21.25-4.8-.78-7.21-.78-4.8.69-7.21.69-4.8-.93-7.21-.93-4.8,1-7.21,1-4.8-.22-7.21-.22-4.8-.38-7.21-.38-4.8.07-7.21.07-4.8-.14-7.21-.14-4.8.45-7.21.45-4.8.16-7.21.16-4.8-.1-7.21-.1-4.8-.8-7.21-.8-4.8.34-7.21.34-4.8.73-7.21.73-4.8,0-7.21,0-4.8-.34-7.21-.34l-7.21,0c-2.4,0-4.8-.45-7.21-.45s-4.8.49-7.21.49-4.8-.54-7.21-.54l-7.21,0c-2.4,0-4.8.43-7.21.43s-4.8-.52-7.21-.52-4.8.85-7.21.85-4.8-1.07-7.21-1.07-4.8.34-7.21.34-4.8-.31-7.21-.31-4.8.09-7.21.09-4.8.25-7.21.25-4.8-.07-7.21-.07-4.8-.31-7.21-.31-4.8.42-7.21.42h-7.21c-2.4,0-4.8.72-7.21.72s-4.8-1.07-7.21-1.07-4.8.76-7.21.76-4.8.28-7.21.28-4.8-.22-7.21-.22-4.8.19-7.21.19-4.8-.39-7.21-.39-4.8.48-7.21.48-4.8-.49-7.21-.49-4.8-.37-7.21-.37-4.8.58-7.21.58-4.8-.52-7.21-.52-4.8-.28-7.21-.28h-7.21c-2.4,0-4.8.4-7.21.4s-4.8.09-7.21.09-4.8-.62-7.21-.62-4.8,1.24-7.21,1.24-4.8-.65-7.21-.65-4.8.21-7.21.21-4.8.39-7.21.39-4.8-1.05-7.21-1.05-4.8.22-7.21.22-4.8,0-7.21,0-4.8.75-7.21.75-4.8-.14-7.21-.14-4.8-.63-7.21-.63l-7.21,0c-2.4,0-4.8.63-7.21.63s-4.8-.12-7.21-.12-4.8-.29-7.21-.29-4.8-.51-7.21-.51-4.8.06-7.21.06-4.8.08-7.21.08-4.8.49-7.21.49-4.8-.41-7.21-.41-4.8.46-7.21.46h-7.21c-2.4,0-4.8-.06-7.21-.06s-4.8.24-7.21.24-4.8-.09-7.21-.09-4.8-.21-7.21-.21-4.8-.58-7.21-.58-4.8,1.15-7.21,1.15-4.8-.4-7.21-.4-4.8-.69-7.21-.69-4.8.12-7.21.12-4.8.25-7.21.25-4.8-.19-7.21-.19-4.8.81-7.21.81-4.8-.3-7.21-.3-4.8.17-7.21.17-4.8-.75-7.21-.75-4.8.76-7.21.76-4.8-.14-7.21-.14-4.8.45-7.21.45S82.3,800,79.9,800s-4.8,1.19-7.21,1.19-4.8-.15-7.21-.15-4.8.06-7.21.06-4.8-.66-7.21-.66-4.8-.14-7.21-.14-4.8.64-7.21.64-4.8.28-7.21.28S24.64,800,22.24,800s-4.8.83-7.21.83-4.8-.43-7.21-.43-4.69.11-7.1.11c0-2.4-.22-4.69-.22-7.1s.1-4.8.1-7.21S.1,781.4.1,779s1-4.8,1-7.21-.75-4.8-.75-7.21-.08-4.8-.08-7.21.9-4.8.9-7.21,0-4.8,0-7.21-.2-4.8-.2-7.21-.3-4.8-.3-7.21S0,723.74,0,721.34s1-4.8,1-7.21-.8-4.8-.8-7.21,1-4.8,1-7.21-.44-4.8-.44-7.21-.62-4.8-.62-7.21.69-4.8.69-7.21-.53-4.8-.53-7.21,0-4.8,0-7.21.66-4.8.66-7.21,0-4.8,0-7.21.16-4.8.16-7.21-.48-4.8-.48-7.21S1,630,1,627.65s-.81-4.8-.81-7.21.24-4.8.24-7.21.7-4.8.7-7.21-.46-4.8-.46-7.21-.45-4.8-.45-7.21,0-4.8,0-7.21.28-4.8.28-7.21S1,572.39,1,570s-.17-4.8-.17-7.21S0,558,0,555.57s.41-4.8.41-7.21-.35-4.8-.35-7.21,0-4.8,0-7.21.63-4.8.63-7.21-.37-4.8-.37-7.21.08-4.8.08-7.21.05-4.8.05-7.21.43-4.8.43-7.21.12-4.8.12-7.21-.26-4.8-.26-7.21.32-4.8.32-7.21S0,471.49,0,469.09s1.18-4.8,1.18-7.21-.26-4.8-.26-7.21-.21-4.8-.21-7.21-.63-4.8-.63-7.21.58-4.8.58-7.21.27-4.8.27-7.21S1,421,1,418.64s.06-4.8.06-7.21,0-4.8,0-7.21-1-4.8-1-7.21.35-4.8.35-7.21S.24,385,.24,382.6s.83-4.8.83-7.21.15-4.8.15-7.21S.1,363.38.1,361s.74-4.8.74-7.21,0-4.8,0-7.21-.08-4.8-.08-7.21.26-4.8.26-7.21-.19-4.8-.19-7.21-.28-4.8-.28-7.21.53-4.8.53-7.21-.48-4.8-.48-7.21.44-4.8.44-7.21S1,291.31,1,288.91s-.28-4.8-.28-7.21.39-4.8.39-7.21-.47-4.8-.47-7.21-.58-4.8-.58-7.21.29-4.8.29-7.21.15-4.8.15-7.21-.31-4.8-.31-7.21.54-4.8.54-7.21.49-4.8.49-7.21S1,219.24,1,216.83s-.14-4.8-.14-7.21-.54-4.8-.54-7.21-.24-4.8-.24-7.21.2-4.8.2-7.21.14-4.8.14-7.21.34-4.8.34-7.21-.62-4.8-.62-7.21,1-4.8,1-7.21S.19,154.37.19,152s.21-4.8.21-7.21,0-4.8,0-7.21-.35-4.8-.35-7.21.34-4.8.34-7.21.7-4.8.7-7.21-.45-4.8-.45-7.21.38-4.8.38-7.21,0-4.8,0-7.21S.55,89.51.55,87.1,1,82.3,1,79.9s.13-4.8.13-7.21-.47-4.8-.47-7.21.15-4.8.15-7.21.35-4.8.35-7.21-1-4.8-1-7.21.71-4.8.71-7.21-.34-4.8-.34-7.21.26-4.8.26-7.21.44-4.8.44-7.21S.79,10.23.79,7.83.34,2.74.34.34C2.74.34,5.42,1,7.82,1s4.8.22,7.21.22S19.84.1,22.24.1s4.8.64,7.21.64,4.8.07,7.21.07,4.8.11,7.21.11,4.8-.9,7.21-.9,4.8.93,7.21.93,4.8-.44,7.21-.44,4.8.49,7.21.49,4.8.17,7.21.17S84.7.61,87.1.61,91.91.3,94.31.3s4.8-.06,7.21-.06,4.8-.1,7.21-.1,4.8-.14,7.21-.14,4.8.11,7.21.11,4.8.94,7.21.94,4.8.09,7.21.09,4.8-.63,7.21-.63,4.8.65,7.21.65,4.8-.65,7.21-.65,4.8.09,7.21.09l7.21,0c2.4,0,4.8.42,7.21.42s4.8-1,7.21-1,4.8.94,7.21.94,4.8-.36,7.21-.36,4.8.55,7.21.55,4.8-.66,7.21-.66,4.8-.43,7.21-.43,4.8,1.09,7.21,1.09,4.8-.83,7.21-.83,4.8.55,7.21.55,4.8.24,7.21.24,4.8-.47,7.21-.47,4.8.43,7.21.43,4.8-.09,7.21-.09,4.8.13,7.21.13,4.8-.34,7.21-.34,4.8-.36,7.21-.36,4.8-.21,7.21-.21,4.8-.1,7.21-.1,4.8.55,7.21.55,4.8.4,7.21.4,4.8-.77,7.21-.77h7.21c2.4,0,4.8.15,7.21.15s4.8.62,7.21.62,4.8-.9,7.21-.9,4.8,1,7.21,1,4.8-.71,7.21-.71S380.2,0,382.6,0s4.8,1.05,7.21,1.05,4.8.1,7.21.1,4.8-.68,7.21-.68,4.8.41,7.21.41,4.8.32,7.21.32,4.8-.77,7.21-.77,4.8-.4,7.21-.4,4.8.33,7.21.33,4.8.18,7.21.18,4.8-.15,7.21-.15,4.8.09,7.21.09,4.8.18,7.21.18,4.8.56,7.21.56,4.8-.37,7.21-.37,4.8-.78,7.21-.78,4.8.82,7.21.82,4.8-.16,7.21-.16,4.8-.27,7.21-.27,4.8-.38,7.21-.38,4.8.49,7.21.49,4.8-.1,7.21-.1,4.8-.48,7.21-.48,4.8.7,7.21.7,4.8.49,7.21.49,4.8-.34,7.21-.34,4.8-.5,7.21-.5,4.8.62,7.21.62S582,.67,584.4.67s4.8-.32,7.21-.32,4.8.82,7.21.82,4.8-.77,7.21-.77,4.8.06,7.21.06S618,1,620.44,1s4.8-.45,7.21-.45,4.8-.54,7.21-.54,4.8.35,7.21.35,4.8.17,7.21.17,4.8.39,7.21.39,4.8-.11,7.21-.11,4.8-.44,7.21-.44,4.8.16,7.21.16,4.8.38,7.21.38,4.8,0,7.21,0,4.8.24,7.21.24S704.52,0,706.92,0s4.8,1.13,7.21,1.13,4.8-.84,7.21-.84,4.8.77,7.21.77,4.8-1,7.21-1,4.8.18,7.21.18,4.8.31,7.21.31l7.21,0c2.4,0,4.8-.5,7.21-.5s4.8,1.1,7.21,1.1,4.8-.29,7.21-.29,4.8.3,7.21.3S791,1,793.41,1s5-.58,7.42-.58c0,2.4-.42,5-.42,7.42S800,12.63,800,15s1.1,4.8,1.1,7.21-.83,4.8-.83,7.21.61,4.8.61,7.21-.8,4.8-.8,7.21.45,4.8.45,7.21-.5,4.8-.5,7.21.65,4.8.65,7.21.23,4.8.23,7.21.14,4.8.14,7.21,0,4.8,0,7.21-1,4.8-1,7.21,1,4.8,1,7.21-.41,4.8-.41,7.21-.56,4.8-.56,7.21.61,4.8.61,7.21-.35,4.8-.35,7.21.66,4.8.66,7.21-.81,4.8-.81,7.21-.25,4.8-.25,7.21.66,4.8.66,7.21-.5,4.8-.5,7.21.49,4.8.49,7.21-.11,4.8-.11,7.21.58,4.8.58,7.21.07,4.8.07,7.21,0,4.8,0,7.21-.06,4.8-.06,7.21-1,4.8-1,7.21.46,4.8.46,7.21.08,4.8.08,7.21-.43,4.8-.43,7.21.91,4.8.91,7.21-.63,4.8-.63,7.21.6,4.8.6,7.21-.1,4.8-.1,7.21,0,4.8,0,7.21.07,4.8.07,7.21-.75,4.8-.75,7.21.67,4.8.67,7.21-.26,4.8-.26,7.21-.78,4.8-.78,7.21.67,4.8.67,7.21,0,4.8,0,7.21-.11,4.8-.11,7.21.29,4.8.29,7.21-.6,4.8-.6,7.21.31,4.8.31,7.21.23,4.8.23,7.21-.86,4.8-.86,7.21.71,4.8.71,7.21.24,4.8.24,7.21-.12,4.8-.12,7.21,0,4.8,0,7.21-.33,4.8-.33,7.21-.09,4.8-.09,7.21.6,4.8.6,7.21-.19,4.8-.19,7.21.26,4.8.26,7.21-.65,4.8-.65,7.21.61,4.8.61,7.21-.3,4.8-.3,7.21,0,4.8,0,7.21.09,4.8.09,7.21-.48,4.8-.48,7.21-.17,4.8-.17,7.21.61,4.8.61,7.21-.59,4.8-.59,7.21.92,4.8.92,7.21.05,4.8.05,7.21-.15,4.8-.15,7.21.07,4.8.07,7.21-.42,4.8-.42,7.21.47,4.8.47,7.21-.61,4.8-.61,7.21-.11,4.8-.11,7.21-.25,4.8-.25,7.21.51,4.8.51,7.21-.24,4.8-.24,7.21.15,4.8.15,7.21.18,4.8.18,7.21-.08,4.8-.08,7.21-.46,4.8-.46,7.21-.14,4.8-.14,7.21,0,4.8,0,7.21.48,4.8.48,7.21.26,4.8.26,7.21-.22,4.8-.22,7.21-.22,4.8-.22,7.21.58,4.8.58,7.21-1.07,4.8-1.07,7.21.74,4.8.74,7.21.49,4.8.49,7.21-1.08,4.8-1.08,7.21,1,4.8,1,7.21-1.16,4.8-1.16,7.21,1.24,4.8,1.24,7.21-.44,4.8-.44,7.21-.72,4.8-.72,7.21,1,4.8,1,7.21-.37,4.8-.37,7.21-.54,4.8-.54,7.21.65,4.8.65,7.21-.55,4.8-.55,7.21.35,4.8.35,7.21-.32,4.8-.32,7.21.77,4.8.77,7.21.15,4.8.15,7.21,0,4.8,0,7.21S800.88,798.48,800.88,800.88ZM190,592.5a22.28,22.28,0,0,0-5.8-3.57,27.69,27.69,0,0,0-6.52-1.38,33.18,33.18,0,0,0-6.65.11c-2.22.19-4.55,0-6.7.56a34.73,34.73,0,0,0-6.31,2.42,29.15,29.15,0,0,0-5.39,4c-1.74,1.47-3.82,2.58-5.44,4.14s-2.44,4-4,5.63-3.26,3.15-4.67,4.91-2.56,3.72-3.85,5.58-3.19,3.32-4.37,5.25-1.72,4.24-2.79,6.23-2.92,3.61-3.88,5.66-.95,4.53-1.8,6.63-1.83,4.17-2.54,6.36-1.69,4.27-2.26,6.49-1,4.47-1.44,6.72-1,4.49-1.34,6.74-.23,4.6-.51,6.86a67.93,67.93,0,0,0-.37,7.59,63.09,63.09,0,0,0,.24,7.58c.27,2.55-.09,5.2.49,7.67a60.36,60.36,0,0,0,2.56,7.24c.89,2.37,2.59,4.36,3.78,6.63a63.19,63.19,0,0,0,3.88,6.49,68.58,68.58,0,0,0,4.39,6.21,31.69,31.69,0,0,0,5.49,5.1c2.11,1.51,4.24,3,6.68,3.46s4.77-.26,7.35-1.34a13.3,13.3,0,0,1,7.3-.6,23.55,23.55,0,0,1,6.93,2.28,45.38,45.38,0,0,0,7.17,2.19c2.49.68,4.88,1.61,7.31,1.73s4.9-.93,7.34-1.5,5.08-.45,7.35-1.71a34.64,34.64,0,0,0,5.94-4.69,55.33,55.33,0,0,0,5.53-5.45c1.65-2,3.18-4,4.87-6,1-1.07,1.57-2.66,2.79-3.08a31.63,31.63,0,0,0,7.13-3.42,32.57,32.57,0,0,0,6.22-5,42.28,42.28,0,0,0,4.37-6.62,64,64,0,0,0,3.62-7,8.58,8.58,0,0,1,3.15-4c2.48-1.31,5.47-1.63,8-2.86s4.74-3.11,7.3-4.27c1.27-.58,3.47-1.17,4.66-.66,2.28,1,4.46,2.25,6.71,3.33s4.57,2,6.82,3,4.36,2.41,6.67,3.33,4.7,1.34,7,2.22,4.36,2.21,6.64,3.07,4.42,2.07,6.7,2.93,4.76,1.16,7,2,4.38,2.18,6.66,3,4.46,2,6.74,2.81,4.5,1.66,6.76,2.45,4.67,1.16,6.94,1.88,4.6,1.32,6.9,2,4.48,1.85,6.8,2.41,4.93-.14,7.27.31,4.58,1.5,6.95,1.85,4.76.43,7.14.65,4.76,0,7.16.09,4.76,1.17,7.16,1.13,4.78-.37,7.18-.55a10.07,10.07,0,0,1,2.82.49c2.36.5,4.89.37,7.24,1s4.67,1.31,7,1.79,4.7,1.49,7.11,1.65a36,36,0,0,0,6.54-.17c2.16-.25,4.15-1.3,6.22-1.93a38,38,0,0,0,6-2.26,41.2,41.2,0,0,0,5.7-3.08c3-2.14,5.1-2.55,8.72-1.46a59.31,59.31,0,0,0,6.47,1.5,51.35,51.35,0,0,0,6.6.69,46.47,46.47,0,0,0,6.59-.63,44.24,44.24,0,0,0,6.57-.7,47.09,47.09,0,0,0,6.13-2.49c1-.39,2.5.21,3.65.6,2.35.79,4.67,1.66,7,2.48s4.75,1.42,7.09,2.23,4.65,1.69,7,2.46,4.65,1.71,7,2.4a37.8,37.8,0,0,0,6.8,1.84c2.32.23,4.73-.84,7-.81,2.71,0,4.85-.21,6.5-1.58A9.65,9.65,0,0,0,532.1,714a39,39,0,0,0,.18-6.69c-.05-2.13-.46-4.2-.46-6.48,2.64-1,5.33-1.68,8-2.66s5.07-2.71,7.72-3.78a20.66,20.66,0,0,1,7.77-1.66,9,9,0,0,1,7,3.44c.78.92,2.06,2.23,3.3,2.31,4.19.29,5.44,2.57,6.51,6a34.61,34.61,0,0,0,3.14,7.39,30.41,30.41,0,0,0,5.28,6c1.91,1.87,3.33,4.44,5.7,5.83s5.21,1.37,7.85,2.28c2.09.73,4.11,1.48,6.23,2s4.26.91,6.43,1.27,4.25,1.27,6.45,1.46,4.39.44,6.59.48,4.38-.63,6.58-.73a38.52,38.52,0,0,0,7.66-1.34c2.64-.65,5.53-.41,7.79-1.6s4-3.44,6-5.22a34.64,34.64,0,0,0,5.47-5.66,46.15,46.15,0,0,0,3.84-6.9,17.21,17.21,0,0,1,3.1-4.29c1.72-1.86,3.61-3.58,5.43-5.37s3.26-3.93,5-5.79,4.11-3.25,5.51-5.36c1.5-2.26,2.19-5,3.36-7.38a61.43,61.43,0,0,0,3-7.45c.84-2.53,2.41-4.9,3-7.56a81.09,81.09,0,0,0,1.24-8c.25-2.41.21-4.83.27-7.16s-.28-4.8-.42-7.14-1-4.67-1.42-7,.1-4.89-.51-7.17-2.13-4.3-3-6.52-1-4.79-2.06-6.9a69.67,69.67,0,0,0-4-5.94c-1.3-1.95-3.2-3.48-4.74-5.34s-2.55-4-4.25-5.75c-1.54-1.57-3.51-2.6-5.22-3.89a43.36,43.36,0,0,0-5.41-3.52c-1.9-1-3.61-2.55-5.64-3.3A47.42,47.42,0,0,0,644,587a50.19,50.19,0,0,0-6.45-1.14,48.66,48.66,0,0,0-7.91.44,46.67,46.67,0,0,0-7.86.91c-2.53.64-4.74,2.26-7.17,3.34a47.49,47.49,0,0,0-7,3.54c-1.13.74-3.23-.27-4.77-.61-2.72-.61-5.51-.89-8.2-1.59s-5.48-.94-8.22-1.44a30,30,0,0,0-7.48-.38c-2.52.16-5,.27-7.55.68s-5.05.39-7.57.67c-2.13.23-4.21.73-6.24,1.13s-3.93,1.65-5.94,2.23-4.12.86-6.09,1.62-3.72,1.89-5.65,2.8c-1.1.52-3.57.06-4.74-.63-2-1.16-3.64-2.87-5.62-4.05s-4.12-2.06-6.09-3.26-3.88-2.46-5.85-3.65-3.91-2.42-5.88-3.6-3.74-2.7-5.74-3.85-3.95-2.37-6-3.47-4.18-1.95-6.23-3-3.85-2.18-5.92-3-4.47-.47-6.59-1.07-4-2.24-6.16-2.61a53.18,53.18,0,0,0-6.63-.46c-2.56-.11-5.13,0-7.7,0s-5.13.54-7.7.53-5.13-.58-7.69-.55-5.13-.18-7.7-.12-5.13,0-7.7.13-5.13.15-7.69.27-5.12.29-7.68.42-5,1.28-7.48,1.48-5,.09-7.55.41-5,.87-7.43,1.34-5.13.23-7.56.91-4.91,1.33-7.28,2.25-4.16,3-6.42,4.15c-.78.41-2.11-.27-3-.43-1.88-.34-3.74-.74-5.61-1.13s-3.75-.72-5.62-1.08c-2.25-.44-4.48-1-6.71-1.3s-4.57-.23-6.83-.29-4.55.26-6.81.39-4.59-.16-6.85.18-4.39,1.24-6.62,1.76-4.51.71-6.69,1.42-4.49,1.51-6.74,2.25-4.42,1.73-6.67,2.46-4.62,1.09-6.88,1.83-4.35,1.92-6.6,2.66-4.32,2-6.57,2.76-4.59,1.2-6.84,1.93-4.55,1.33-6.8,2.07c-2,.67-4,1.14-5.67.67s-2.87-1.95-4.33-3.66-3-3.93-4.74-5.41a29.56,29.56,0,0,0-6.16-3.79,23.64,23.64,0,0,0-6.94-1.94c-2.24-.3-4.59.26-7.09.66a71.73,71.73,0,0,0-7.58,2c-2.53.69-5.09,1.27-7.6,2s-4.85,1.28-7.26,2-4.88,1.11-7.31,1.85-4.59,2-7,2.78S192.41,591.76,190,592.5ZM513.76,184.16c.41,0,1.15,0,1.56-.08-.25-2.17-.64-4.32-.89-6.49s-.67-4.32-.92-6.5.15-4.42-.1-6.59-.49-4.35-.76-6.52-.94-4.29-1.23-6.46-.12-4.55-.59-6.72-2.09-4.08-2.74-6.21-1-4.35-1.85-6.42-1.95-4-2.93-6-1.35-4.34-2.48-6.27-2.91-3.44-4.17-5.29-1.85-4.19-3.24-5.95c-1.55-2-3.92-3.19-5.58-5s-3.24-3.73-5-5.42-3.42-3.61-5.34-5.16-4-3-6-4.38-4.06-2.84-6.2-4.09-4.52-2-6.76-3.09-4.51-1.92-6.83-2.85-4.54-1.84-6.92-2.62-4.36-2.2-6.65-2.82-4.74-.88-7.06-1.37-4.82-.22-7.17-.58-4.71-.7-7.08-.91-4.73-.68-7.12-.73-4.77,0-7.15.12-4.8-.12-7.18.17-4.64,1.16-7,1.63-4.78.49-7.1,1.13-4.57,1.38-6.85,2.19-4.2,2-6.35,2.91-4.49,1.33-6.62,2.27-3.9,2.67-6,3.6-4.68.87-6.83,1.75-4.18,2-6.37,2.8c-2.39.84-4.85,1.47-7.11,2.43s-4.58,2.14-6.78,3.25-4.33,2.59-6.44,3.87-4.28,2.63-6.29,4.08-4.22,2.78-6.11,4.39-3.46,3.65-5.22,5.42-3.43,3.63-5,5.55-2.53,4.31-4,6.36-3.67,3.53-5,5.7-1.78,4.68-2.91,6.95-1.86,4.57-2.82,6.91-2,4.45-2.77,6.75-1.31,4.68-2,7-1.58,4.62-2.07,7-.43,4.85-.78,7.27-1.1,4.76-1.3,7.2-.7,4.84-.77,7.29c-.07,2.62.47,5.26.44,7.88s-.56,5.24-.57,7.87-.29,5.25-.29,7.87,0,5.25,0,7.87.38,5.25.35,7.87c0,2.43,0,4.87,0,7.3s-.69,4.86-.72,7.29,1.16,4.88,1.13,7.32-.73,4.85-.76,7.29.14,4.87.11,7.3.33,4.87.31,7.3-1.1,4.86-1.11,7.29.19,4.87.19,7.3,0,4.86,0,7.28.87,4.83.95,7.25,0,4.85.11,7.28-.48,4.87-.42,7.29.11,4.84.12,7.27.64,4.82.64,7.23-.12,4.82-.12,7.24-.29,4.82-.3,7.23-.52,4.82-.52,7.23,0,4.82,0,7.23.06,4.82.05,7.23.47,4.83.46,7.24-.44,4.82-.45,7.23.43,4.83.42,7.24,0,4.82,0,7.24-.09,4.82-.11,7.23.21,4.82.19,7.24A72,72,0,0,1,273.9,417a10.34,10.34,0,0,0,1.87,8c1.73,2.22,4.37,4.27,7.35,4.24,2.14,0,4.26-1.23,6.41-1.29s4.3.26,6.44.2,4.29.58,6.44.57c2.5,0,5-.15,7.49-.16s5-.28,7.49-.29,5,.17,7.49.16,5-.83,7.48-.84,5,.28,7.49.27,5-.18,7.49-.19,5,.73,7.49.72,5-.77,7.48-.78,5,.12,7.49.11,5-.47,7.49-.48,4.8,1.18,7.2,1.16,4.79-1.22,7.18-1.24,4.8.12,7.19.1,4.79-.09,7.19-.1,4.8.63,7.19.62,4.79.13,7.19.12,4.79-.64,7.19-.64,4.82-.28,7.23-.29,4.82,1.23,7.24,1.22,4.82-.83,7.23-.82,4.82.46,7.23.5,4.82,0,7.23.11,4.83-.09,7.24,0c2.65.14,5.22.33,7.73.22a31.18,31.18,0,0,0,7.48-1.67c2.36-.7,5.08-.88,7.36-2.45,1.94-1.34,3.68-3.15,5.87-4.16a51.64,51.64,0,0,1,6.75-2.58c2.27-.67,4.57-.81,6-2a10.22,10.22,0,0,0,3.44-5.49,15.42,15.42,0,0,0-.35-6.39,24.5,24.5,0,0,1-.78-5.37c0-2.16-.61-4.33-.58-6.5s1.07-4.31,1.11-6.47-.74-4.33-.72-6.5,1-4.32,1-6.48-.45-4.58-.46-6.87-.64-4.58-.65-6.87.66-4.58.65-6.87-.56-4.58-.57-6.87,0-4.58,0-6.87.64-4.58.63-6.87-.07-4.58-.08-6.87.14-4.58.14-6.87-.49-4.58-.49-6.87c0-2.11.44-4.2.53-6.31s-.61-4.25-.53-6.35.38-4.2.36-6.3c0-2.35.64-4.7.61-7.05s-.53-4.69-.57-7-.53-4.69-.57-7-.06-4.69-.11-7,.19-4.7.15-7,.38-4.7.34-7-.25-4.69-.28-7-.83-4.69-.85-7,.37-4.85.36-7.27-.37-4.84-.38-7.26,0-4.84,0-7.26.63-4.84.63-7.26-.35-4.84-.35-7.26.09-4.84.1-7.26S513.76,186.58,513.76,184.16Zm-440,263c1.27.53,1.66,1,2.44,1.22a21.88,21.88,0,0,0,5.94,1.12c2.26.07,3.54-.74,5-2.54a21.49,21.49,0,0,0,3.54-4.94,72.71,72.71,0,0,1,4.9-8.05c1.3-2.06,2.26-4.33,3.58-6.38s3.12-3.78,4.44-5.83,1.75-4.67,3.07-6.72,3-3.88,4.29-5.93,2.43-4.23,3.74-6.28,3.27-3.7,4.56-5.76,2-4.5,3.24-6.58,3.3-3.71,4.53-5.81,1.56-4.72,2.74-6.85,2.42-4,3.5-6,2.49-3.93,3.53-6,2-4.18,3-6.27,2.11-4.13,3.07-6.23,1.49-4.41,2.41-6.53,1.67-4.31,2.55-6.46,1.83-4.25,2.66-6.41,2.4-4,3.2-6.22,1.25-4.47,2-6.66.79-4.61,1.5-6.82,1.44-4.39,2.1-6.61,1.63-4.34,2.25-6.57,1.21-4.46,1.79-6.71,1.55-4.3,2.07-6.51.53-4.54,1-6.76,1.43-4.35,1.84-6.59.76-4.49,1.12-6.73.24-4.56.54-6.81,1.07-4.45,1.31-6.71-.42-4.6-.25-6.86,1.38-4.47,1.48-6.74-.16-4.56-.12-6.84c.07-3.95-.06-6.72-1.39-8.1s-4-1.82-8.07-1.77c-2.11,0-4.21.29-6.37.29s-4.16-.07-6.38-.08c-2,0-3.75-.17-6-.17,0-2-.23-3.68-.23-5.89s0-4.2,0-6.34c0-2.48-.72-5-.72-7.43s1.07-5,1.07-7.43-.77-5-.77-7.43-.28-5-.28-7.43.22-5,.23-7.43-.18-5-.16-7.43.43-4.95.45-7.42-.42-5-.38-7.43.57-4.75.62-7.13.47-4.75.54-7.12-.44-4.77-.35-7.15.72-4.73.85-7.1.56-4.72.75-7.09.4-4.73.64-7.09a67.32,67.32,0,0,1,.69-6.88c.47-2.26.94-4.53,1.52-6.77s1.8-4.31,2.38-6.55-.05-4.77.42-7,1.23-4.46,1-6.69a22.63,22.63,0,0,0-1.89-6.54,23.26,23.26,0,0,0-3.81-5.54c-1.44-1.75-2.42-4.07-4.32-5.37A25,25,0,0,0,136,55.43a63.33,63.33,0,0,0-6.52-1.81c-2.21-.47-4.54-.08-6.76-.33s-4.44-.53-6.68-.58-4.5-.65-6.74-.53-4.49.32-6.73.56S98.2,53.9,96,54.24a26.13,26.13,0,0,0-6.75,1.82,26.66,26.66,0,0,0-11.15,8.59,25.74,25.74,0,0,0-2.86,6.62,28.15,28.15,0,0,0-.94,7.12c0,2.39.43,4.79.41,7.18s-.45,4.78-.46,7.17.44,4.78.44,7.17,0,4.78,0,7.17-.05,4.78,0,7.17.25,4.78.26,7.17-.08,4.78-.07,7.17-.2,4.78-.21,7.17-.6,4.78-.61,7.17,1.12,4.79,1.09,7.18-.45,4.95-.48,7.42-.76,4.94-.8,7.42,0,5,0,7.43.16,5,.12,7.43-.29,4.95-.34,7.42.7,5,.65,7.44-.4,4.94-.46,7.42.06,5,0,7.43-.85,4.94-.9,7.41.66,5,.62,7.44a15.38,15.38,0,0,0,.32,3.42c.47,2.25,1.39,4.4,1.87,6.65s-.19,4.75.3,7,2.16,4.23,2.66,6.48.85,4.52,1.33,6.77,1,4.49,1.49,6.74.27,4.64.71,6.89.71,4.54,1.1,6.81,1.39,4.43,1.73,6.71.94,4.55,1.24,6.84-.66,4.74-.41,7,1.31,4.51,1.51,6.82,0,4.64.12,6.95.35,4.61.46,6.92.46,4.61.52,6.92,0,4.62,0,6.94.52,4.63.48,6.94-1.07,4.6-1.14,6.91.57,4.65.44,7-.2,4.75-.35,7.12-1.22,4.67-1.4,7-.37,4.73-.58,7.09-.23,4.74-.46,7.1-.2,4.75-.47,7.11.08,4.8-.24,7.15-1.64,4.56-2,6.91.07,4.82-.33,7.16-1.8,4.5-2.25,6.83-.49,4.73-1,7.06-.41,4.77-1,7.09c-.49,2.07-1.65,4-2.15,6.07s-.47,4.26-1,6.36S74.22,445.09,73.72,447.2ZM206.17,499s0-.42,0-.46c-.67,0-1.32.21-2,.26a12.74,12.74,0,0,0-6.59,2.37c-2.08,1.5-3.73,3.36-3.66,5.89a7.56,7.56,0,0,0,3.53,6c1.7,1.1,4.13,1.43,6.81,1.55,1.82.08,3.65.67,5.47.67s3.65-1.12,5.47-1.12c2.39,0,4.79.34,7.18.33s4.78-.29,7.18-.3,4.79.74,7.18.73,4.78-.72,7.18-.73,4.79.91,7.18.91,5.09-1,7.63-1,5.09.23,7.63.24,5.08.4,7.63.41,5.09-.05,7.63,0,5.09.15,7.63.16,5.09-.45,7.63-.45,5.08-.17,7.63-.18,4.93.07,7.39,0,4.94.74,7.4.71,4.92-.41,7.39-.45,4.92-.8,7.38-.83,4.93,0,7.4,0,4.93.31,7.4.31h6.88c2.29,0,4.59.46,6.88.47s4.59-.47,6.88-.46,4.58.57,6.88.59l6.88,0c2.29,0,4.59-.4,6.88-.39s4.58.56,6.88.57,4.59-.82,6.89-.81,4.58,1.1,6.88,1.11,4.59-.31,6.88-.3c2.53,0,5.07.31,7.6.3s5.07-.12,7.6-.14,5.06-.29,7.59-.3,5.06.06,7.59.08,5.09.36,7.64.4,5.1-.35,7.65-.31L471,515c2.55,0,5.11-.64,7.66-.6s5.09,1.14,7.64,1.16,5.1-.72,7.65-.72,4.88-.32,7.33-.38,4.89.07,7.34,0,4.89-.37,7.33-.44,4.91.27,7.35.26,4.94-.5,7.41-.5,4.94.49,7.41.49,4.94.38,7.41.38,4.94-.57,7.41-.56,4.94.53,7.41.54,4.94.29,7.41.3l7.41,0c2.47,0,4.94-.39,7.41-.39,2.14,0,4.72.06,6.29-1,2.23-1.54,5.64-4,5.77-6.3s-3.06-5.23-5.24-6.33a21.86,21.86,0,0,0-9.86-2.16c-2.23,0-4.46.26-6.69.31s-4.45.5-6.67.57-4.49-.92-6.72-.85-4.45.33-6.68.37-4.45,0-6.68,0c-2.39,0-4.79.73-7.18.7s-4.78-.19-7.18-.23-4.77-.71-7.16-.75l-7.18-.11c-2.39,0-4.79.55-7.19.51s-4.78-.2-7.17-.22-4.78-.33-7.17-.34c-2.65,0-5.32-.49-8-.44s-5.31.19-8,.26-5.3.24-8,.32-5.29.64-7.94.68c-2.15,0-4.3-.36-6.45-.36s-4.3.45-6.45.43l-6.45-.06c-2.29,0-4.58-.12-6.87-.16s-4.58.16-6.87.12-4.58-.16-6.87-.2-4.58-.27-6.87-.29-4.58-.62-6.87-.62c-2.69,0-5.36,1.17-8,1.22s-5.37-.3-8.06-.24-5.38-.58-8.06-.54-5.36.18-8,.18c-2.32,0-4.64.23-7,.2s-4.64-.25-7-.29-4.65.73-7,.69-4.64-.38-7-.42-4.64.1-7,.07-4.64-.79-7-.79-4.69.77-7,.81-4.69-.06-7,0-4.68.56-7,.61-4.71-1.1-7.06-1.07-4.69,1.24-7,1.23-4.77-.18-7.15-.22-4.77,0-7.15-.1-4.74-.79-7.12-.85-4.76-.27-7.14-.31-4.77.55-7.15.54-4.94.25-7.42.24-4.94-1.26-7.41-1.26-4.94.83-7.42.83-4.94-.43-7.42-.43-4.94.06-7.42.07-4.94.27-7.42.28-4.94-.09-7.42-.09S208.64,499,206.17,499ZM613.56,154c-1.67,1.65-3.69,3.32-5.37,5s-3.25,3.4-4.92,5-3.22,3.43-4.89,5.08-3.8,2.84-5.48,4.49-3.36,3.29-5,4.95-3.05,3.6-4.72,5.26c-1.48,1.47-2.85,3-3,4.62-.22,1.82,1.27,3.23,2.63,4.63s2.69,2.36,4.47,2.23c1.6-.11,3-1,4.55-2.48,1.4-1.3,3.27-2.13,4.58-3.53s2.11-3.29,3.48-4.63c1.78-1.76,4.22-2.84,6-4.61s2.87-4.17,4.73-6,4-3.31,5.88-5.13c0,2.87-.28,5.62-.29,8,0,2.75.06,5.26.12,7.76,0,2.12-.05,4.24,0,6.36s.53,4.23.59,6.35.29,4.22.38,6.34.12,4.23.28,6.34c.2,2.53,1.09,4.94,2.93,5.92a6,6,0,0,0,6.62-1c1.75-1.57,2-5,2.07-7.5s.14-4.93.17-7.4.37-4.92.38-7.41,0-4.92,0-7.41.44-4.91.43-7.41-.27-5.16-.27-7.66c2.7,2.32,4.6,4.37,6.46,6.2,1.63,1.61,3.26,3.2,4.88,4.82s3.53,2.94,5.15,4.56,2.86,3.61,4.48,5.22,3.85,2.61,5.49,4.2c2.85,2.77,6.32,3.32,9,.66a6.67,6.67,0,0,0-.07-9.57c-1.58-1.62-2.95-3.45-4.54-5.06s-3.26-3.15-4.86-4.74-3.39-3-5-4.59-3.19-3.21-4.81-4.79-3-3.38-4.66-4.95-3.42-2.51-5.09-3.86-3.2-2.45-4.88-3.85c1.84-1.74,2.88-3.65,4.3-5,1.77-1.67,4-2.34,5.57-3.81,1.92-1.84,3.31-4.21,5.24-6s3.65-3.86,5.57-5.69,4-3.51,5.88-5.36,3.65-3.85,5.51-5.74,2.91-3.14,3.13-4.77c.27-2-.79-3.33-2.47-4.82S661,111,659,111.47a10.88,10.88,0,0,0-5.16,2.91c-1.62,1.66-2.82,3.72-4.45,5.37s-3.63,2.93-5.27,4.56-3.5,3-5.17,4.64c-1.51,1.44-3.09,2.75-4.84,4.18-1.53,1.25-2.83,2.88-4.63,4.39,0-3-.07-4.94-.06-6.88,0-2.22.64-4.45.66-6.67s-1.21-4.46-1.2-6.68.68-4.45.69-6.67-.19-4.45-.19-6.67S629,99.5,629,97.27c0-2.41.42-4.61-.56-6a6.68,6.68,0,0,0-5.59-2.4,6,6,0,0,0-5.26,2.77c-.83,1.38-.55,3.47-.56,5.9s-.19,4.66-.22,7-.69,4.66-.7,7,0,4.4,0,6.61.63,4.38.63,6.61-.12,4.37-.12,6.61-.22,4.28-.22,6.53a58.61,58.61,0,0,1-3.9-4.4c-1.58-1.65-3.2-3.27-4.77-4.93s-3.2-3.27-4.77-4.94-3.5-3-5.09-4.64-2.88-3.59-4.48-5.22a10.13,10.13,0,0,0-5.31-2.82,5.68,5.68,0,0,0-5.38,1.83c-1.74,1.7-2.38,3.5-1.89,5.53.39,1.62,1.66,3.18,3.42,5s3.19,3.44,4.81,5.13,3.09,3.53,4.71,5.22,2.81,3.79,4.42,5.49,4.07,2.61,5.68,4.3,2.94,3.67,4.55,5.36S611.95,152.35,613.56,154ZM711,352.44c-.47.17-1.32.3-1.79.47-1.85-1.85-3.8-3.6-5.65-5.44s-3.83-3.56-5.68-5.41-3.23-4.16-5.07-6-3.66-3.73-5.49-5.59a10.14,10.14,0,0,0-5.06-2.62c-1.92-.45-4.11-.47-5.59,1s-1.45,3.5-1.47,5.15a6.34,6.34,0,0,0,1.75,4.76c1.33,1.48,2.84,2.79,4.2,4.24s2.18,3.43,3.61,4.81,3.61,2.52,5.19,4,2.5,3.66,4.1,5.17,3.83,2.24,5.44,3.76,3,3.13,4.6,4.65,2.83,3.13,4.45,4.67c-1.71,1.65-3.32,3.25-5,4.89s-3.51,3.2-5.2,4.83-3.1,3.62-4.79,5.25-3.3,3.4-5,5-3.47,3.21-5.17,4.85-4,2.71-5.66,4.35a11.33,11.33,0,0,0-3,5.22c-.53,2,.53,3.49,2,5.16a4.84,4.84,0,0,0,4.82,1.93,9.08,9.08,0,0,0,5.13-2.4c1.41-1.29,2.74-2.64,4.08-4s3-2.43,4.31-3.8c1.63-1.67,2.91-3.68,4.54-5.35s3.65-3,5.28-4.63,2.94-3.3,4.57-5c.38,2.57.91,4.81,1.08,7.26s-.25,5.09-.2,7.57.9,5,.9,7.55c0,2.16-1.1,4.31-1.13,6.48s.29,4.33.3,6.49-.25,4.35-.14,6.5c.2,3.88,3.51,6.44,7.39,6.22,3.61-.21,6-2.86,6.2-6.57.1-1.65-.1-3.34-.1-5,0-2.49.31-5,.31-7.5s-.43-5-.43-7.5,0-5,0-7.5-.72-5-.72-7.5.52-4.45.52-7c3.35,2.87,6,4.07,8.26,6.23,2,1.94,4.15,3.7,6.11,5.67s3.76,4.09,5.72,6,4.07,3.77,6.07,5.69c1.5,1.44,2.88,2.45,4.53,2.54,1.84.11,3.13-.88,4.4-2.38,2.7-3.19,2.77-5.94-.15-8.87-1.73-1.74-3.21-3.74-4.94-5.48s-3.88-3.06-5.62-4.8-3.11-3.83-4.86-5.56-3.29-3.66-5-5.38-3.71-3.6-5.69-5.46c-1.81-1.7-4-3.13-6-5.06,1.6-1.52,3.07-3,4.58-4.41s3.57-2.51,5.09-4,2.23-3.85,3.74-5.35,3.65-2.7,5.24-4.29,3-3.32,4.61-4.92,2.87-3.47,4.43-5.08,3.88-2.51,5.42-4.14a6.55,6.55,0,0,0-.3-9.47c-3-2.92-6.69-2.69-9.76,0-1,.88-1.19,2.6-2.13,3.53-1.53,1.52-3.16,3-4.7,4.48s-3.51,2.59-5.06,4.13-3,3-4.59,4.58-2.62,3.48-4.17,5-3.34,3-4.9,4.54c-.12-2-.1-3.13-.1-4.09,0-2.33.54-4.65.57-7s0-4.66,0-7,0-4.66,0-7-.45-4.66-.43-7,.45-4.66.47-7a9,9,0,0,0-1.76-5.2,5.25,5.25,0,0,0-4.64-2.29,6.67,6.67,0,0,0-5,1.76c-1.15,1.18-1.52,2.9-1.64,5.05-.1,1.83-.23,3.65-.26,5.48s-.23,3.66-.24,5.49c0,2.27-.59,4.55-.6,6.82s1.14,4.55,1.15,6.82-.39,4.55-.39,6.82S711,350.16,711,352.44Z"/><path d="M190,592.13c2.46-.74,4.76-1.78,7.12-2.5s5-1.12,7.32-1.83,5-1,7.36-1.68,4.53-2.43,6.93-3.13,5.28-.62,7.81-1.32,4.92-2.08,7.5-2.5a24.24,24.24,0,0,1,7.17.14,22.66,22.66,0,0,1,6.65,2.42c2.12,1,4.51,1.69,6.38,3.24a42.72,42.72,0,0,1,4.91,5.23c1.46,1.71,2.71,3.1,4.3,3.55s3.44-.26,5.48-.93c2.25-.74,4.47-1.57,6.72-2.31s4.63-1.09,6.88-1.83,4.36-1.91,6.61-2.64,4.63-1.07,6.88-1.8l6.76-2.19c2.25-.73,4.53-1.38,6.78-2.11s4.38-1.85,6.63-2.58,4.44-1.13,6.63-1.65,4.57-.24,6.81-.57,4.4-1.64,6.66-1.78,4.56.46,6.84.52,4.58-.41,6.85-.15,4.38,1.35,6.62,1.79c1.87.37,3.74.74,5.61,1.14s3.79.52,5.67.86a5,5,0,0,0,2.92,0,66.62,66.62,0,0,1,6.83-3.2,75.07,75.07,0,0,1,7.18-2.32c2.43-.68,4.74-1.92,7.22-2.39s5-.88,7.5-1.19,5.08,0,7.6-.16,5-.51,7.54-.64,5.14.26,7.71.14,5.11-.42,7.67-.51,5.11-.69,7.67-.76,5.14.29,7.7.26,5.13,0,7.69,0,5.14-.77,7.71-.71,5.14.24,7.7.35a53.7,53.7,0,0,1,6.63.67c2.15.37,4.19,1.5,6.31,2.11s4.19,1.34,6.23,2.14,4.28,1.3,6.22,2.28,3.63,3,5.65,4.06,4.09,2.08,6.08,3.23,4.21,1.9,6.18,3.07,3.77,2.64,5.74,3.84,4.33,1.72,6.29,2.91,3.48,3.13,5.45,4.32,4,2.36,5.93,3.52c1.17.68,3.13.25,4.23-.26,1.93-.91,4.23-.9,6.18-1.64s3.79-1.91,5.82-2.5,4.06-1.11,6.15-1.53,4.16-.44,6.29-.68c2.52-.28,4.93-1.26,7.44-1.67s5.08-.55,7.6-.72a31,31,0,0,1,7.59.54c2.74.5,5.57.69,8.27,1.39s5.19,2.2,7.91,2.81c1.54.34,3.65.36,4.78-.38a49,49,0,0,1,6.84-4c2.43-1.08,5.18-1.08,7.7-1.72a45,45,0,0,1,7.66-1.34c2.6-.2,5.21-1,7.85-.77a49.56,49.56,0,0,1,6.36,1.44,46.9,46.9,0,0,1,6.31,1.54,45.05,45.05,0,0,1,5.94,2.67c1.89,1,3.31,2.78,5,4.1a43.67,43.67,0,0,1,5.17,3.89c1.7,1.73,3.32,3.47,4.8,5.27s2.74,3.92,4,5.86,3.1,3.73,4.19,5.81a65.88,65.88,0,0,1,2.95,6.54c.87,2.21,1.07,4.66,1.69,7a67.44,67.44,0,0,1,1.69,6.92c.37,2.32.15,4.71.3,7.11s.65,4.68.59,7.1-.12,4.71-.37,7.12a79.63,79.63,0,0,1-1.36,7.95c-.55,2.66-.63,5.46-1.48,8a63,63,0,0,1-3.35,7.4,60.59,60.59,0,0,1-3.86,7.13,50.32,50.32,0,0,1-4.76,6c-1.71,1.87-3.64,3.57-5.46,5.37s-3.68,3.52-5.4,5.37c-1.21,1.3-2.73,2.43-3.45,4a47.36,47.36,0,0,1-3.58,7.06c-1.55,2.23-3.83,3.73-5.72,5.46a30,30,0,0,1-6.3,4.59c-2.26,1.19-4.53,2.7-7.17,3.34a41.45,41.45,0,0,1-7.89.85c-2.21.1-4.4-.51-6.59-.55s-4.39.08-6.57-.11-4.32-.66-6.49-1-4.24-1-6.38-1.49-4.57,0-6.66-.72c-2.64-.92-4.63-3.06-6.89-4.39a32.3,32.3,0,0,1-6.32-4.82c-1.91-1.87-4.05-3.54-5.46-5.9a35,35,0,0,1-3.42-7.37c-1.07-3.38-1.75-6.48-5.95-6.77a4.94,4.94,0,0,1-3.25-1.74,9.24,9.24,0,0,0-7.09-3.49c-2.44,0-5,1.16-7.6,2.21s-5.43,1.81-8.1,2.78-5.6,1.94-8.24,2.91c0,2.28.65,4.68.7,6.81a37.36,37.36,0,0,1-.75,6.57c-.41,2.7-1.17,5-2.82,6.32s-4,1.48-6.73,1.44c-2.3,0-4.68.53-7,.31a37.39,37.39,0,0,1-6.84-1.47c-2.38-.7-4.69-1.58-7-2.35s-4.66-1.67-7-2.48-4.84-1.16-7.18-2-4.5-2.16-6.84-3c-1.15-.39-2.87-1.1-3.83-.7-2.08.85-3.91,2.32-6,2.84a45.13,45.13,0,0,1-6.54,1.21c-2.19.21-4.41-.74-6.6-.85s-4.47.62-6.65.22a59.7,59.7,0,0,1-6.39-1.75c-3.62-1.09-5.81-.49-8.84,1.66a41,41,0,0,1-5.77,2.92c-2,1-3.64,2.58-5.71,3.2a37.11,37.11,0,0,1-6.45,1.14,35.85,35.85,0,0,1-6.5-.22,55.57,55.57,0,0,1-7.2-.94c-2.37-.48-4.81-.71-7.17-1.3s-4.75-.91-7.12-1.42a10,10,0,0,0-2.75-.68c-2.4.19-4.83-.59-7.2-.55s-4.76,0-7.14-.12-4.82.43-7.19.21-4.76-.58-7.12-.93-4.61-1.36-7-1.82-4.84-.2-7.17-.76-4.71-.94-7-1.58-4.28-2.37-6.56-3.09-4.68-1-6.94-1.81-4.41-1.83-6.65-2.67-4.5-1.85-6.78-2.7-4.61-1.56-6.89-2.41-4.75-1.18-7-2-4.58-1.66-6.85-2.52-4.48-1.9-6.75-2.78-4.31-2.33-6.57-3.23-4.79-1.42-7.05-2.47-4.74-1.63-7-2.71-4.34-2.47-6.62-3.45c-1.19-.51-2.89,0-4.16.54-2.56,1.16-5.22,2.09-7.74,3.32s-5,2.55-7.49,3.86a7.6,7.6,0,0,0-3.2,3.52c-1.1,2.44-2.81,4.52-4.15,6.71s-2.36,4.87-4.1,6.78-4.36,2.93-6.59,4.4a30.22,30.22,0,0,1-6.8,3.85,9.13,9.13,0,0,0-3.33,2.7c-1.7,1.92-3.44,3.84-5.09,5.81s-2.63,4.63-4.53,6.34a33.64,33.64,0,0,1-6.21,4.34c-2.27,1.26-4.85,1.56-7.22,2.11a26.48,26.48,0,0,1-7.36.31c-2.42-.11-5,.49-7.52-.2a47.67,47.67,0,0,1-7-2.79,23.42,23.42,0,0,0-6.93-2.24,13.18,13.18,0,0,0-7.25.64c-2.58,1.08-5.09,1.94-7.44,1.52s-4.51-2.25-6.62-3.76a31.59,31.59,0,0,1-5.33-5.23,71.45,71.45,0,0,1-5-5.74,65.31,65.31,0,0,1-4.19-6.41c-1.2-2.27-1.56-4.89-2.45-7.25a59,59,0,0,1-2.47-7.18,60.09,60.09,0,0,1-1.24-7.5,63.47,63.47,0,0,1-.1-7.59,67.82,67.82,0,0,1,.37-7.58c.28-2.26.16-4.59.52-6.86s.83-4.51,1.28-6.75,1-4.47,1.57-6.69,1.47-4.34,2.17-6.51.66-4.65,1.52-6.76,2.84-3.71,3.8-5.76,1-4.56,2.09-6.55,2.09-4.07,3.27-6,3.09-3.41,4.39-5.27,2.06-4.13,3.48-5.9,3.73-2.77,5.26-4.45,2.37-4,4-5.58,3.52-2.87,5.26-4.35a29.38,29.38,0,0,1,5.84-3.28,33.67,33.67,0,0,1,6.14-2.59,36.68,36.68,0,0,1,6.53-1.69,34.26,34.26,0,0,1,6.77.13c2.27.26,4.32,1.39,6.37,2.15A21.39,21.39,0,0,1,190,592.13ZM460.06,700.31a10.47,10.47,0,0,0-2.12-1.49c-2.08-1.37-4-3-6.05-4.4s-3.89-3.16-6-4.52-4.74-1.86-6.83-3.22-3.67-3.5-5.76-4.86-4.6-2.07-6.69-3.44-4-3-6.1-4.33-3.93-3.09-6-4.47c-1.71-1.14-3.83-1.68-5.5-2.88s-3.19-2.61-4.82-3.85-3-2.87-4.58-4.14-3.09-2.63-3.41-4.25a6.47,6.47,0,0,1,1.47-5.43c2.8-3,6.33-2.74,9.71-.45,2,1.38,4.32,2.37,6.36,3.75s3.83,3.1,5.87,4.48l6.1,4.14c2,1.37,4,2.82,6.06,4.2s4.3,2.41,6.34,3.78,4,2.91,6,4.28,3.67,3.34,5.71,4.72,4.68,1.85,6.72,3.22,3.72,3.27,5.76,4.64,4.18,2,6.12,3.24,3.52,3.07,5.51,4.22,4,2.26,6.06,3.32,4.22,1.86,6.31,2.83,4.09,2.15,6.22,3,4.33,1.58,6.51,2.32,4.37,1.46,6.6,2.06,4.6.44,6.87.89,4,.65,6.8,1a26.42,26.42,0,0,0-2.38-5.75,19.87,19.87,0,0,0-4.5-4.93,20.43,20.43,0,0,0-5.62-3.74c-2.43-.9-4.84-1.71-7.14-2.8s-4.84-1.85-7-3.14-4.17-3-6.29-4.47-4.16-3-6.18-4.58-4.5-2.63-6.43-4.34-3.75-3.54-5.59-5.34-3.79-3.57-5.7-5.36-3.38-4-5.3-5.8-3.82-3.56-5.74-5.33-4.15-3.21-6-5-3.12-4.28-5-6.11a67.5,67.5,0,0,1-5.68-6,54.33,54.33,0,0,1-5.08-6.61c-1.68-3-3-4.16-6.29-4.12-2.74,0-5.56.91-8.35.83s-5.5-1.19-8.15-1.85a18.94,18.94,0,0,1-7.33-3.46c-2-1.57-4.22-1.59-6-2-2.15-.49-4.15-1.1-6.2-.39-1.83.63-3.5,2.08-5.51,3.17a69.53,69.53,0,0,1-6.31,3.08,43.57,43.57,0,0,1-6.74,1.93c-2.27.54-4.56,1.4-6.91,1.42a27.62,27.62,0,0,1-7-1.1c-2.52-.65-5-1.53-7.47-2.26s-5.13-1-7.61-1.81-4.7-2.35-7.17-3.17-5-1.31-7.51-2.13a7.23,7.23,0,0,1-4.85-4.53c-.56-2,.69-3.91,2.58-5.74a22.69,22.69,0,0,1,4.54-3.4c1.68-1,3.07-2.54,4.8-3.36,2-.93,4.15-1.42,6.13-2.32s3.85-2.07,5.84-3,4-1.79,6-2.67,4.38-1.18,6.37-2.07c-.17-.48-.65-1.42-.82-1.89-2.28-.53-4.57-.9-6.83-1.2a66,66,0,0,0-6.9-.79c-2.32-.06-4.6.65-6.9.85a60.62,60.62,0,0,0-6.82.94c-2.25.45-4.62.48-6.84,1.19a66,66,0,0,0-6.42,2.66c-2.2,1-4.58,1.44-6.81,2.31s-4.31,2.14-6.57,2.92-4.51,1.63-6.8,2.33-4.63,1.25-6.94,1.88-4.47,1.86-6.8,2.43-4.74.81-7.08,1.33-4.65,1.2-7,1.67a29.23,29.23,0,0,0-7.57,2.54,18.22,18.22,0,0,0-6.26,4.83,24.16,24.16,0,0,0-3.92,7,42.77,42.77,0,0,0-2.1,6.71,40.34,40.34,0,0,0-.37,7c0,2.37-.64,4.75-.32,7.08a56.84,56.84,0,0,0,1.55,6.92c.6,2.24,1.92,4.28,2.75,6.53,1.12,3,2.52,6.51,5,8.19,2.33,1.56,4.53,3.45,7.11,4.64s5.28,2.07,7.87,3.15c2.22.93,4.38,2,6.62,2.9s4.42,1.91,6.67,2.78,4.93.62,7.16,1.52,4,2.87,6.21,3.85,4.21,1.85,6.32,2.73,4.49,1.13,6.62,2,4.32,1.51,6.47,2.28,4.17,1.94,6.34,2.66,4.29,1.63,6.48,2.31,4.43,1.18,6.63,1.81,4.48,1,6.7,1.55,4.37,1.4,6.6,1.94,4.44,1.15,6.67,1.65a34.38,34.38,0,0,0,4.35.21c-2.11-2.08-3.89-4.16-6.07-5.92s-4.79-3.21-7.06-4.94a8,8,0,0,1-2.58-4.69c-.47-1.79-.74-3.72.47-5.24,2.57-3.26,6-3.47,9.49-1.25a44.41,44.41,0,0,1,4.85,3.48c1.82,1.54,3.6,3.14,5.48,4.59s4.1,2.46,6,3.82,3.64,3.13,5.67,4.36,4.07,2.52,6.18,3.61,4.61,1.36,6.8,2.3,4.39,1.69,6.66,2.45c2.12.71,4,2.31,6.12,2.79s4.51-.15,6.7,0a26.48,26.48,0,0,0,6.53-.25A24.13,24.13,0,0,0,422.2,705c-2-1.13-3.81-2.64-5.83-3.75s-4.47-1.45-6.49-2.57-3.94-2.41-5.94-3.56-3.81-2.63-5.77-3.83-4.17-2.51-6.2-3.87-4.24-2.45-6.21-3.87-4.11-2.66-6-4.13c-3.27-2.48-3.46-6.87-.79-10,2.5-2.93,5.79-2.34,9-.19,1.66,1.11,3.3,2.23,5,3.34s3.68,1.68,5.29,2.86c2,1.51,4.08,3,6.18,4.4s3.95,3.27,6.12,4.55,4.79,1.83,7,3,4.61,2,6.92,3.08,4.23,3,6.59,3.93,4.92,1.32,7.33,2.1,4.77,1.74,7.23,2.39,4.89,1.39,7.38,1.91C454.94,701.22,457.21,700.31,460.06,700.31Zm15-44.92a33.87,33.87,0,0,0,4.31,5.54c1.67,1.56,3.11,3.37,4.83,4.86s3.17,3.36,5,4.76,4.26,1.91,6.16,3.17,3.37,3.23,5.39,4.32,4.39,1.35,6.52,2.23a68.4,68.4,0,0,1,6.14,3.35c2.05,1.11,4,2.58,6.12,3.4a14.7,14.7,0,0,0,8.72.3c2.5-.71,5-1.27,7.51-2.1s5.07-1.29,7.5-2.22,4.64-2.44,7-3.42a6.72,6.72,0,0,0,3.6-4.58c.42-2.22,1.18-4.38,1.51-6.62s.16-4.53.43-6.78,1-4.44,1.22-6.69a38.47,38.47,0,0,0,.19-7.32,38,38,0,0,0-1.15-7.24,41.94,41.94,0,0,0-2.92-6.71,49.52,49.52,0,0,0-3.43-6.45c-.81-1.22-1.33-3-2.5-3.84-1.94-1.46-4.51-2.08-6.43-3.56s-3.44-3.48-5.36-5-4.23-2.45-6.17-3.9-3.46-3.49-5.45-4.88-4-2.72-6.08-4-4.53-2.5-6.76-3.81-4.33-2.84-6.59-4.1-4.58-2.4-6.87-3.6S493,588.1,490.65,587s-4.95-1.64-7.29-2.73a42,42,0,0,0-6.55-2.39c-2.28-.64-4.44-1.68-6.76-2s-4.69-.36-7-.47-4.7-.64-7.06-.62-4.71.28-7.06.34-4.7.63-7,.64c-2.57,0-5.14-.37-7.7-.32s-5.13.11-7.7.22-5.08,1.05-7.63,1.23-5.1.3-7.66.55-5.07.62-7.61,1-5.16.12-7.69.59-5,1-7.54,1.55a46.3,46.3,0,0,0-5.78,2.2c-2,.77-4.35.91-5.92,2.15-1.91,1.5-3.71,3.14-5.61,4.64s-3.53,3.37-5.47,4.8-4.12,2.55-6.16,3.85-3.77,3.18-5.95,4.26-4.71,1.2-7,2c-.77.26-1.56,1.64-2.43,2.26,2.43,1,5.24,1,7.56,1.55,2.53.62,4.86,1.88,7.28,2a33.46,33.46,0,0,0,7.47-1A33.86,33.86,0,0,0,373.4,611a39.85,39.85,0,0,0,6.72-3.34c2-1.34,3.63-3.3,5.56-5a10.44,10.44,0,0,1,7.7-2.32,8.35,8.35,0,0,1,6.52,4.25A13,13,0,0,0,404.7,609c1.9,1.23,3.76,2.6,6,2.76s4.61-.1,6.91-.08,4.58-.23,6.88-.36,4.69.54,7,.24c3.19-.43,5.14-.37,6.67.75s2.9,2.89,2.72,6.24.11,6.26,1.68,8.5,4.15,3.66,7.33,4.72a16.75,16.75,0,0,1,3.41,2c2.31,1.47,4.26,4.45,6.76,5s5.21.52,7.78,1,5.14.87,7.71,1.31,5.1,1.1,7.67,1.52,5.25.21,7.82.64c2,.32,4,.15,6,.58,3.61.8,5.1,3.65,4.76,7.27s-2.34,5.84-6.1,5.67c-2.28-.1-4.52-.72-6.83-.87s-4.54.15-6.89,0S477.45,655.55,475.08,655.39ZM180.91,602.8c-.16-.43-.43-.56-.59-1-2.07-.34-4-1.16-6.11-1.35-2.58-.24-5.1-.43-7.24.27s-3.88,2.83-5.81,4.29-4.19,2.4-5.85,4.18-2.73,4.2-4.3,6.09-3.3,3.69-4.74,5.68-3.19,3.82-4.5,5.9-1.92,4.6-3.09,6.77-2.47,4.26-3.49,6.51-2.38,4.36-3.24,6.68-1.06,4.83-1.76,7.22-1.18,4.75-1.71,7.18-1.35,4.67-1.7,7-.14,4.83-.26,7.23a56.39,56.39,0,0,0-.32,7.21,47.43,47.43,0,0,0,1.1,7.15,45,45,0,0,0,2.19,6.94c2.25-2,4.1-3.57,5.83-3.94,2.24-.47,4.36.63,6.3,2.75s3.33,4.83,5.29,7,4.77,3.43,7,5.25c1.6,1.31,2.86,3.1,4.56,4.33s3.76,1.86,5.55,2.93,3.31,2.71,5.21,3.52a28.89,28.89,0,0,0,6.67,2,14.27,14.27,0,0,0,6.87-.7,16.35,16.35,0,0,0,6-3.37,39.66,39.66,0,0,0,4.59-5.36c-2.09-1-4.24-2.12-6.34-3.1s-4.49-1.33-6.58-2.32-4.19-2-6.25-3a8.4,8.4,0,0,1-3.65-4.5,5.76,5.76,0,0,1,.33-5.5,5.93,5.93,0,0,1,4.42-2.68,7.69,7.69,0,0,1,5.08.87c2.07,1,4.35,1.71,6.43,2.76a51.36,51.36,0,0,0,6.24,3.16,42.1,42.1,0,0,0,7.63,2c2.85.4,5.25-.49,7.57-1.31a12,12,0,0,0,5.93-4.44,23.69,23.69,0,0,0,3.51-6.41c-2.41-1-3.92-2.47-5.74-3.89a23.52,23.52,0,0,1-4.95-5.34,28,28,0,0,1-3.68-6.37c-.78-2.21-.42-4.8-.81-7.32-.37-2.33-.84-4.61-1.12-6.94s-1-4.62-1.14-7,.06-4.7,0-7-.77-4.72-.64-7.06,1.21-4.6,1.51-6.93.7-4.59,1.2-6.9.14-4.8.85-7.06c.84-2.68,2.65-5,3.68-7.86.93-2.52,1.51-5.16,2.56-8.08-3.41,1.54-5.86,2.26-7.92,3.75s-4.08,2.67-6,4.19-3.35,3.53-5.07,5.22a53,53,0,0,0-5,5.22,42.28,42.28,0,0,0-4.1,6,40.09,40.09,0,0,0-2.32,6.85c-.69,2.18-2.46,3.36-3.83,4.27a5.83,5.83,0,0,1-5.38.85,6.32,6.32,0,0,1-4.19-4.15c-.43-1.64.59-3.48,1.46-5.68s1.57-4.19,2.47-6.24,1.17-4.44,2.29-6.37a38.51,38.51,0,0,1,4.24-5.25A30.25,30.25,0,0,1,180.91,602.8Zm402.52.53c.5.74,1,1,1.29,1.34,1.5,2,2.63,4.21,4,6.24s2.2,4.41,3.4,6.55,3.23,3.89,4.23,6.14,1,4.87,1.79,7.22,2.16,4.49,2.66,6.92a67.41,67.41,0,0,1,.85,7.36c.22,2.36-.06,4.72,0,7.06s.73,4.74.58,7.07-.62,4.69-.94,7-1.17,4.57-1.64,6.87-.44,4.72-1.06,7a49.58,49.58,0,0,1-2.42,7.35,27.07,27.07,0,0,1-4.4,6.35,21.58,21.58,0,0,1-5.71,5.23,3.25,3.25,0,0,0-.87,3.27,18.06,18.06,0,0,0,4.9,7,24.22,24.22,0,0,0,7.39,4.47,55.93,55.93,0,0,0,7,1.77,63.15,63.15,0,0,0,7.06,1.5c2.39.3,4.76,1.2,7.18,1.28s4.81-1,7.24-1.14,4.68.08,6.75-.65,3.84-2.4,5.59-3.81,3.81-2.61,5-4.59a21.84,21.84,0,0,0,2.55-6.39c.59-2.54,1-5.12,1.5-7.66a57,57,0,0,0,1.44-7.68,32.73,32.73,0,0,0-.42-7.82c-.46-2.69-.66-5.39-.88-8.12s-1.08-5.37-1.36-8.08c-.41-3.9,1.52-7.2,5.27-8.1,3.5-.84,6.51,1.14,7.51,4.68a49.05,49.05,0,0,1,1.35,5.52c.3,1.87,0,3.82.17,5.7.22,2.28.52,4.53.61,6.82s.66,4.51.77,6.79c.52.18,1,.52,1.49.7,1.23-2.33,2.7-4.61,4-6.91s1.79-5,2.5-7.51c.62-2.2,1.24-4.34,1.71-6.53s.79-4.42,1.06-6.66,1.09-4.44,1.13-6.7a57,57,0,0,0-.24-6.79,54.42,54.42,0,0,0-1.55-6.61c-.5-2.16-.23-4.61-1-6.79-.86-2.34-2-4.56-3-6.69a55.27,55.27,0,0,0-4-6.14,44.54,44.54,0,0,0-4.22-6c-1.65-1.78-4-2.81-5.92-4.26s-3.54-3.39-5.8-4.45A43.63,43.63,0,0,0,641,600c-2.17-.6-4.46,0-6.56-.11s-4.41-.91-6.52-.55-4.12,1.46-6.14,2.26a34,34,0,0,0-5.67,2.86c1,2.28,1.82,4.39,2.8,6.47,1.06,2.24,2.5,4.3,3,6.59.41,2.06.53,4.2.85,6.28s.42,4.2.68,6.29,1,4.13,1.23,6.22-.33,4.28-.1,6.37c.26,2.37.26,4.36-.58,5.83a6.25,6.25,0,0,1-5,3.19c-2.15.17-3.4-1.19-4.61-2.7a9.35,9.35,0,0,1-1.88-5c-.32-2.51-1.43-4.93-1.72-7.45s-.12-5.09-.44-7.6-1-5-1.38-7.48a17.14,17.14,0,0,0-2.58-6.26c-1.16-1.85-2.15-4.12-3.88-5.75a29.28,29.28,0,0,0-5.86-3.72,22.24,22.24,0,0,0-6.41-2.41A16.17,16.17,0,0,0,583.43,603.32Z"/><path d="M513.82,184.17c0,2.42.11,4.89.11,7.31s.2,4.84.2,7.26-.23,4.84-.24,7.26.67,4.84.67,7.26-.5,4.84-.49,7.26-.37,4.84-.35,7.26-.15,4.84-.13,7.26,1,4.68,1.07,7-.25,4.7-.21,7-.39,4.7-.35,7,1,4.68,1,7-.43,4.7-.39,7.05-.15,4.7-.11,7-.17,4.7-.14,7,0,4.69,0,7c0,2.11.58,4.22.5,6.32s-.85,4.18-.94,6.29.88,4.24.89,6.34c0,2.29.11,4.58.12,6.87s-.89,4.58-.88,6.87.76,4.58.77,6.87-1,4.59-1,6.88,0,4.58.05,6.87.4,4.58.41,6.87.7,4.58.71,6.87-.78,4.58-.77,6.87.55,4.58.56,6.87-.44,4.32-.46,6.49.48,4.33.45,6.49-.06,4.32-.09,6.49-.7,4.32-.71,6.48a25.57,25.57,0,0,0,.48,5.52c.51,2.34,1.32,4.42.91,6.21a9.82,9.82,0,0,1-3.52,5.27,16.06,16.06,0,0,1-5.59,3,50.28,50.28,0,0,0-6.82,2.14,41,41,0,0,0-6.32,3.4,24.61,24.61,0,0,1-6.86,3.57,31.91,31.91,0,0,1-7.68,1c-2.51.11-5.06-.41-7.71-.55-2.41-.13-4.85.46-7.26.38s-4.82.2-7.23.16-4.81-1.24-7.22-1.25-4.82,1.22-7.24,1.22-4.82-1.15-7.24-1.15-4.82.65-7.23.65-4.79-.46-7.19-.46-4.79.14-7.19.15-4.79.52-7.19.53-4.8-.36-7.19-.35-4.79.44-7.19.46-4.8-.34-7.19-.32-4.79.61-7.19.62-5-.17-7.49-.16-5-.46-7.49-.45-5,.8-7.48.81-5-1-7.49-1-5,.58-7.49.59-5,.23-7.49.24-5-.75-7.49-.74-5,.59-7.48.6-5-.72-7.49-.71-5,1-7.48,1c-2.14,0-4.3-.63-6.44-.57s-4.28.32-6.42.38-4.28,0-6.43.06a8.47,8.47,0,0,1-6.93-3.7,9.43,9.43,0,0,1-1.85-7.59,72.51,72.51,0,0,0,.81-10.44c0-2.41-.07-4.82-.05-7.24s-.13-4.82-.12-7.24-.65-4.83-.63-7.24,1-4.82,1.06-7.23-1-4.83-1-7.24,0-4.82,0-7.23,1.07-4.82,1.08-7.23.08-4.82.09-7.24-.56-4.82-.56-7.24-.32-4.82-.32-7.24,0-4.82,0-7.23.92-4.82.91-7.24-.9-4.84-1-7.27-.46-4.84-.54-7.26.89-4.88.81-7.31-.46-4.84-.51-7.26-.49-4.85-.49-7.27.17-4.87.18-7.3.19-4.86.21-7.3.11-4.86.14-7.3-.57-4.87-.53-7.31,1.19-4.85,1.23-7.28-.68-4.88-.65-7.31,0-4.87,0-7.3.53-4.86.56-7.29c0-2.62-.19-5.25-.19-7.88s.52-5.25.52-7.87-.82-5.25-.82-7.87-.12-5.25-.09-7.88.88-5.23.94-7.86c.06-2.45.11-4.87.31-7.3s.65-4.82,1-7.23.83-4.78,1.32-7.17.17-5,.81-7.33,1.67-4.6,2.46-6.91,1.35-4.71,2.28-7,2.47-4.41,3.56-6.61,1.66-4.83,2.92-6.95,3.16-4,4.58-6,3-4,4.59-5.91,2.82-4.22,4.57-6,3.92-3.15,5.82-4.77,4.27-2.6,6.3-4.07,3.88-3.09,6-4.4,4.31-2.42,6.56-3.56,4.34-2.39,6.67-3.38,4.38-2.45,6.77-3.29c2.19-.77,4.54-1.08,6.7-2s4.43-1.47,6.56-2.41,4-2.34,6.17-3.28,4.12-2.22,6.26-3.1,4.51-1.26,6.7-2,4.44-2,6.72-2.59,4.71-1.08,7-1.55,4.79-.46,7.15-.75,4.76-.46,7.14-.58,4.77-.11,7.16-.06,4.79-.14,7.18.07,4.69.95,7.06,1.31,4.83.11,7.18.61,4.65,1.15,7,1.78,4.54,1.5,6.83,2.24,4.73,1.59,7,2.51,4.46,2.2,6.67,3.28,4.63,1.88,6.76,3.12,4.2,2.67,6.23,4.07,3.58,3.46,5.51,5,4.39,2.48,6.2,4.18,3.48,3.54,5.16,5.37,3.4,3.62,5,5.57c1.39,1.76,2.08,4,3.35,5.87s2.49,3.69,3.62,5.62,2.69,3.64,3.67,5.64,1.74,4.14,2.56,6.22,1.1,4.33,1.76,6.48,1.21,4.26,1.69,6.46,1.39,4.27,1.69,6.5.35,4.36.62,6.53,1.14,4.27,1.39,6.44-.29,4.44,0,6.61.46,4.35.7,6.52.7,4.32,1,6.49C514.92,184.13,514.22,184.12,513.82,184.17ZM474,414.5c0-2.71-.05-5.58-.05-8.23s-.21-5.35-.18-8,.34-5.15.41-7.73-.54-5.16-.55-7.74c0-2.42.46-4.85.44-7.27s.33-4.85.3-7.27.13-4.84.1-7.26-1.05-4.83-1.08-7.25.27-4.85.24-7.27.43-4.84.41-7.27-.94-4.84-.94-7.26.51-4.63.51-6.94.23-4.63.23-6.94.25-4.62.25-6.94.05-4.62.05-6.94-.61-4.63-.61-6.94.67-4.62.67-6.94-1-4.63-1-6.94-.09-4.63-.09-6.94.91-4.62.91-6.94-.73-4.63-.73-6.94,1-4.62,1-6.94,0-4.71,0-7.07-.37-4.71-.37-7.07-.67-4.71-.68-7.07.79-4.72.78-7.07-.57-4.71-.59-7.07.38-4.72.35-7.08c0-2.52-.57-5-.57-7.57s0-5,0-7.57.62-5.06.55-7.58-.16-5.07-.33-7.58-1.2-5-1.54-7.45-.5-4.77-.95-7.11-1.16-4.65-1.74-7-.89-4.73-1.63-7-1.44-4.58-2.35-6.79-2.16-4.28-3.25-6.41-2.07-4.32-3.35-6.35-2.31-4.24-3.79-6.15-3.53-3.26-5.19-5-3.54-3.13-5.36-4.74-2.89-4-4.85-5.43-4.72-1.84-6.79-3.16-3.62-3.57-5.79-4.72-4.68-1.68-6.93-2.67-4.38-2.33-6.7-3.15-4.73-1.43-7.11-2.07c-2.22-.59-4.56-.64-6.81-1.11s-4.44-1.24-6.71-1.55-4.59-.13-6.88-.27-4.56-.56-6.86-.51-4.51.78-6.81,1c-2.49.27-5,.43-7.41.85s-5,.45-7.42,1-4.62,2-7,2.74-5.06.65-7.37,1.58-4.37,2.46-6.61,3.57-4.29,2.48-6.44,3.77-4.63,2-6.66,3.49-3.48,3.35-5.25,4.88-4.08,2.68-5.72,4.36-2.56,4.13-4,6-3.47,3.36-4.79,5.33-2.41,4.13-3.55,6.21-2.27,4.2-3.23,6.38-2.06,4.32-2.84,6.58-1.59,4.51-2.2,6.83-.93,4.68-1.37,7-.71,4.7-1,7.08-.36,4.73-.51,7.13.38,4.87.26,7.28-1.23,4.79-1.31,7.21.84,4.87.79,7.29-.07,4.84-.1,7.26-1.12,4.83-1.14,7.25-.11,4.84-.13,7.26.54,4.84.52,7.26.3,5,.28,7.53,0,5,0,7.53-.93,5-.93,7.53.85,5,.86,7.53.33,5,.33,7.53-1.05,5-1,7.53.32,5,.32,7.53.42,5,.42,7.53-.15,5-.14,7.53-.14,5-.14,7.53,0,4.87,0,7.31.64,4.87.64,7.31-1.11,4.87-1.11,7.31.77,4.87.77,7.31.08,4.87.09,7.31-.47,4.87-.46,7.31.24,4.87.25,7.31-.5,4.87-.5,7.31.84,4.87.84,7.3.15,4.87.16,7.31-.79,4.87-.79,7.31.09,4.6.09,6.92-.18,4.59-.18,6.92-.07,4.58-.07,6.92.79,4.29.79,6.64c2.39,0,4.5.22,6.89.22s4.78-.32,7.16-.32,4.78.51,7.16.51,4.77-.75,7.16-.75,4.77.6,7.16.6,4.77,0,7.16,0,4.77-.65,7.16-.65,4.77.47,7.16.47,4.77.69,7.16.69,4.77-.34,7.16-.34,4.77.07,7.16.07,4.77-.25,7.16-.25,4.77-.62,7.16-.62,4.77.57,7.16.57,4.77.36,7.16.36,4.77-.5,7.16-.5,4.77-.38,7.16-.38,4.77.51,7.15.51,4.77-.45,7.15-.45,4.77.12,7.15.12,4.77.4,7.15.4,4.77,0,7.15,0,4.77,0,7.15,0,4.77-.32,7.16-.32,4.77.45,7.16.45S471.57,414.5,474,414.5Z"/><path d="M72.89,447.45c.5-2.11.9-4.45,1.39-6.51s1.07-4.15,1.56-6.21,1.31-4.08,1.8-6.16c.55-2.31,1.2-4.59,1.7-6.91s1-4.64,1.46-7,1-4.65,1.39-7,1.09-4.64,1.44-7-.08-4.81.24-7.16,1.53-4.6,1.8-7,.52-4.73.76-7.09-.59-4.82-.38-7.19.79-4.69,1-7.06-.21-4.77-.06-7.14,1.39-4.67,1.52-7-.47-4.66-.39-7,.72-4.61.76-6.92-.8-4.63-.81-6.94-.2-4.61-.26-6.92.61-4.65.5-7-.67-4.59-.83-6.9-.06-4.63-.26-6.93-.07-4.64-.32-6.94-.32-4.63-.62-6.92-1.18-4.51-1.52-6.8-.67-4.55-1.06-6.82-.92-4.51-1.36-6.76-.88-4.51-1.34-6.77-.62-4.57-1.11-6.82-1.48-4.38-2-6.63-.2-4.67-.69-6.91-1-4.48-1.51-6.73-1-4.49-1.42-6.74a15.32,15.32,0,0,1-.68-3.34c0-2.48-.5-5-.45-7.44s.18-4.95.23-7.42,0-5,0-7.43.22-4.95.27-7.42.23-4.95.28-7.42.19-4.95.23-7.42.35-4.95.39-7.42-.56-5-.53-7.44.87-4.94.91-7.41.21-5,.24-7.43-.21-4.79-.2-7.18-.55-4.78-.54-7.17-.05-4.78-.05-7.17-.15-4.78-.15-7.17.6-4.78.59-7.17.4-4.78.39-7.17-1-4.78-1-7.17,0-4.78,0-7.17,1-4.77,1-7.16-1.12-4.79-1.08-7.18,1.13-4.73,1.75-6.93a23.91,23.91,0,0,1,3-6.27,23.23,23.23,0,0,1,4.29-5.51c1.76-1.51,4-2.3,6.16-3.28s4.1-2.3,6.52-2.67c2.22-.34,4.49-.32,6.72-.56s4.48-.1,6.72-.21,4.47-.7,6.71-.65,4.5.09,6.74.34,4.28,1.4,6.5,1.87,4.56.15,6.72.87a24.46,24.46,0,0,1,6.05,3.27,24.13,24.13,0,0,1,4.82,4.8,23.2,23.2,0,0,1,3.3,5.87c.89,2.09,2.4,4.09,2.63,6.38s-.65,4.51-1.13,6.81-1.16,4.46-1.75,6.7-1.06,4.51-1.64,6.75-.58,4.62-1.05,6.88a66.86,66.86,0,0,0-.84,6.84c-.24,2.37-1.37,4.65-1.55,7s-.24,4.76-.38,7.13-.5,4.74-.6,7.12-.22,4.76-.29,7.14.93,4.78.89,7.16-.19,4.75-.23,7.13-.09,4.95-.11,7.42-.9,4.94-.92,7.42.51,5,.5,7.43-.58,5-.58,7.43.64,5,.64,7.43.33,5,.33,7.43-.85,5-.85,7.43-.07,5-.08,7.43c0,2.13.38,4.27.38,6.34s.18,4.26.18,6.25c2.24,0,4.28.17,6.3.18,2.22,0,4.33-.19,6.38-.19s4.27-.19,6.38-.21c4-.05,6.38.61,7.69,2s1.21,3.78,1.14,7.72c0,2.28.08,4.55,0,6.81s-.5,4.52-.67,6.78.29,4.59.06,6.85-.9,4.47-1.19,6.73-.72,4.48-1.07,6.73-.58,4.51-1,6.74-.21,4.59-.67,6.82-1.77,4.26-2.28,6.48-.77,4.49-1.34,6.69-1.49,4.39-2.11,6.62-.42,4.7-1.09,6.92-1.94,4.25-2.65,6.46-.8,4.62-1.56,6.81-2.3,4.1-3.09,6.28-1.1,4.53-1.94,6.69-2.36,4-3.24,6.18-1.75,4.28-2.67,6.4-1.47,4.41-2.44,6.51-2.1,4.13-3.1,6.22-2.27,4-3.32,6.1-1.36,4.51-2.44,6.56-2.3,4-3.42,6.05-2.84,4-4.07,6.1-2.62,4.1-3.88,6.19-2.14,4.4-3.43,6.47-2.46,4.21-3.77,6.26-2.82,4-4.14,6-3.14,3.77-4.46,5.81-2.09,4.45-3.42,6.49-2.35,4.28-3.67,6.33-3,3.84-4.33,5.9a73.53,73.53,0,0,0-5,8.08,22.1,22.1,0,0,1-3.33,5,5.06,5.06,0,0,1-4.83,2.27,19.94,19.94,0,0,1-5.91-.86A25.25,25.25,0,0,1,72.89,447.45ZM89.68,234.59c.58,2.31,1.33,4.17,1.87,6.48s1,4.66,1.48,7,.66,4.72,1.11,7,.76,4.69,1.17,7,.76,4.69,1.13,7,.6,4.71.93,7.06.33,4.74.61,7.09,1.32,4.63,1.57,7-.45,4.81-.24,7.17.4,4.72.57,7.08,1.37,4.67,1.49,7-.16,4.76-.08,7.13.71,4.73.76,7.1-1,4.76-1,7.13.7,4.74.67,7.12-.67,4.73-.73,7.1.68,4.77.58,7.14-.08,4.75-.22,7.12-1.06,4.69-1.23,7.05.06,4.76-.15,7.13-.72,4.7-1,7.06-.86,4.67-1.14,7-.77,4.68-1.08,7-.07,4.77-.41,7.12-.7,4.73-1.07,7.08c1.28-2,2.51-4.1,3.77-6.11s2.52-4,3.76-6.07,2.75-3.9,4-5.94,2-4.36,3.17-6.42,3.08-3.73,4.25-5.8,2.29-4.18,3.43-6.27,2.27-4.2,3.37-6.3,2-4.33,3.07-6.46,1.6-4.52,2.63-6.66,2.13-4.25,3.13-6.41,1.87-4.37,2.83-6.55,2-4.31,2.92-6.51,1.93-4.35,2.81-6.56,1.8-4.4,2.63-6.63,1.87-4.39,2.65-6.64.91-4.71,1.64-7,2.19-4.3,2.87-6.58,1.47-4.54,2.09-6.84,1-4.67,1.53-7,.55-4.75,1.05-7.08.93-4.66,1.37-7,.72-4.69,1.11-7,1.34-4.6,1.66-7,1-4.67,1.28-7-.51-4.82-.31-7.2.44-4.43.57-6.81c-2.33-.15-4.29-1.16-6.6-1.31s-4.72.86-7,.71-4.59-1.06-6.91-1.21-4.63-.55-6.94-.7-4.66.05-7-.1-4.6-.81-6.92-1-4.68.46-7,.31-4.61-.62-6.93-.77-4.61-.63-6.94-.78S92,234.74,89.68,234.59Z"/><path d="M206.17,499.16c2.47,0,5-.75,7.42-.75s4.94.38,7.42.38,4.94.25,7.42.25,4.94-.06,7.42-.06,4.94-.09,7.42-.09h7.41c2.47,0,4.94.36,7.41.37s4.94-.42,7.42-.4,4.77-.46,7.15-.41,4.76.31,7.14.37,4.76.31,7.14.37,4.76.15,7.14.2,4.76.15,7.14.16,4.7.11,7,.07,4.69-.5,7-.55,4.71.57,7.05.52,4.68-.56,7-.59,4.69.37,7,.37,4.65-.85,7-.82,4.64.44,7,.48,4.64.28,7,.32,4.65-.7,7-.66,4.63.48,7,.51,4.64.55,7,.55c2.69,0,5.37-.65,8.05-.69s5.38.54,8.06.48,5.36-.5,8-.54,5.37-.47,8.05-.47c2.29,0,4.58.91,6.87.93s4.59-.94,6.88-.91,4.57.92,6.86,1,4.59-.65,6.88-.61,4.58.24,6.87.27,4.3.13,6.45.15,4.3.74,6.45.74,4.3-.22,6.45-.25c2.65,0,5.29-.82,7.94-.9s5.32.33,8,.26,5.31.06,8,0,5.3-.58,8-.57c2.39,0,4.79-.46,7.18-.43s4.77.91,7.17.95,4.79-.29,7.18-.24,4.77.66,7.16.71,4.79-.46,7.19-.43,4.78,0,7.18,0,4.78-.23,7.18-.22c2.23,0,4.46.21,6.69.17s4.48.64,6.71.58,4.43-1,6.66-1.1,4.46-.09,6.69-.14,4.46-.33,6.69-.34a22.67,22.67,0,0,1,10,2.46c2.17,1.11,5.1,4.31,5,6.59s-3.1,5.2-5.34,6.74c-1.57,1.09-4.46.41-6.59.42-2.47,0-4.94.66-7.41.66s-4.94-.72-7.41-.73-4.94.16-7.41.15-4.94.11-7.41.1-4.94-.37-7.41-.38-4.94-.41-7.41-.41-4.94,1.14-7.41,1.14-4.94-.47-7.41-.46-4.89.09-7.34.16-4.89.07-7.34.16-4.88.65-7.32.71-4.91,0-7.35,0-5.1-.11-7.65-.13-5.1-.09-7.65-.13-5.09-.57-7.64-.62-5.1-.2-7.65-.24-5.11.93-7.66.9-5.09-.84-7.64-.87-5.07,0-7.6,0-5.06.79-7.59.81-5.07-1-7.6-1-5.06.06-7.59,0c-2.29,0-4.59.63-6.88.62s-4.58-.8-6.88-.82-4.59,1-6.89,1-4.58-.51-6.88-.53-4.59.32-6.88.31-4.58-1-6.88-1-4.59.1-6.88.09-4.59,1.08-6.89,1.07-4.59-.27-6.88-.28-4.59-.84-6.88-.84c-2.47,0-4.93,0-7.4,0s-4.92.83-7.39.86-4.94-.74-7.41-.7-4.92.42-7.39.45-4.93.37-7.39.39-4.93.33-7.39.33-5.09-.19-7.63-.19-5.09,0-7.63,0-5.08-.48-7.63-.49-5.09.66-7.63.65-5.08-.76-7.63-.76-5.09.59-7.63.59-5.09-.83-7.63-.82-4.79.28-7.18.29-4.78.47-7.18.48-4.79-.27-7.18-.25-4.78.4-7.18.42-4.79.15-7.18.17c-1.83,0-3.65-.52-5.48-.51s-3.67.52-5.49.43a14.1,14.1,0,0,1-6.85-2,7.41,7.41,0,0,1-3.22-6.12,7.13,7.13,0,0,1,3.24-6.11,13.38,13.38,0,0,1,6.7-2.83c.66-.05,1.37.74,2,.7C206.17,498.85,206.17,499.12,206.17,499.16Z"/><path d="M613.36,154c-1.61-1.69-3.53-3.27-5.15-5s-2.81-3.79-4.42-5.49-3.25-3.37-4.86-5.07-3.71-2.93-5.33-4.62-3.21-3.41-4.83-5.1-2.89-3.72-4.52-5.41-3.34-3.34-3.73-5c-.49-2,.81-3.58,2.55-5.28s3-2.31,5-1.89a9.71,9.71,0,0,1,4.81,3.09c1.6,1.63,3.58,2.9,5.17,4.55s3.22,3.25,4.79,4.92,3.39,3.1,5,4.76,3,3.5,4.53,5.16c1.13,1.18,2.21,2.66,4.18,4.5,0-2.25-.54-4.67-.54-6.83s.86-4.44.86-6.61-.9-4.43-.9-6.61-.07-4.41-.07-6.61.33-4.66.36-7,.53-4.66.55-7,0-4.54.8-5.93c1-1.74,3-2.21,5.31-2.25a5.19,5.19,0,0,1,4.7,2.54A8.57,8.57,0,0,1,629,97.27c0,2.22.72,4.45.72,6.67s.4,4.45.39,6.68-.94,4.45-1,6.67-.12,4.45-.13,6.67.89,4.45.88,6.68c0,1.95-.06,3.42-.06,6.47,1.81-1.51,3.37-2,4.9-3.22,1.75-1.43,3-3.24,4.46-4.68,1.68-1.6,3.19-3.36,4.83-5s3.64-2.91,5.27-4.56,3.12-3.44,4.73-5.1a10.45,10.45,0,0,1,5-2.88c2-.52,3.87-.5,5.54,1s2.8,3.47,2.53,5.45a10.17,10.17,0,0,1-2.92,5.46c-1.87,1.89-4.38,3.12-6.28,5s-3.45,4.07-5.37,5.9-3.72,3.79-5.65,5.62-4.49,3-6.41,4.82c-1.53,1.46-2.41,3.59-4.18,5.26-1.42,1.34-3.44,2.53-5.29,4.28,1.68,1.4,3.76,2.4,5.35,3.7s3.31,2.72,4.81,4.17,2.93,3.48,4.56,5.05,3.66,2.74,5.27,4.32,2.92,3.49,4.53,5.08,2.75,3.65,4.34,5.26,3.69,2.71,5.27,4.33c2.67,2.74,2.28,6.24-.45,8.93s-6,3.14-8.87.37c-1.64-1.59-2.94-3.53-4.56-5.14s-3.14-3.33-4.75-4.95-3.31-3.16-4.93-4.78-3.41-3.06-5-4.67c-1.86-1.83-4-3.36-6.73-5.68,0,2.5.17,5,.17,7.43s-.48,5-.47,7.41,0,5,0,7.41.4,5,.37,7.41-.36,4.93-.42,7.4-.39,6.21-2.15,7.78-4.75,1.51-6.73.47-2.65-3.12-2.85-5.65c-.16-2.11-1-4.18-1-6.3s-.49-4.23-.55-6.35.32-4.25.28-6.37.42-4.25.37-6.37c-.06-2.5-1.08-5-1.07-7.75,0-2.35.7-5.11.7-8-1.88,1.82-4,3.59-5.75,5.28s-3.35,3.85-5.12,5.56-4.18,3-6,4.71c-1.36,1.34-1.94,3.46-3.25,4.86s-2.51,3-3.92,4.25c-1.59,1.47-3.7,1.25-5.3,1.37-1.79.13-3.65.17-5.07-1.3s-1.4-3.31-1.18-5.14a7.59,7.59,0,0,1,2.25-4.69c1.67-1.66,3.38-3.26,5.05-4.92s2.79-3.86,4.46-5.51,3.92-2.73,5.59-4.38,3.2-3.45,4.88-5.1,3.27-3.38,4.94-5S611.69,155.68,613.36,154Z"/><path d="M710.78,352.4c0-2.27-.45-4.58-.45-6.86s0-4.55,0-6.82-.27-4.55-.27-6.82.71-4.55.71-6.82c0-1.83-.32-3.66-.3-5.49s.23-3.66.33-5.49a6.82,6.82,0,0,1,2.28-4.64c1.15-1.18,2.39-2.78,4.62-2.78a6.36,6.36,0,0,1,5.12,2.59c.88,1.29,1.15,3.34,1.13,5.52,0,2.33-.1,4.66-.12,7s-.19,4.66-.21,7-.15,4.66-.17,7-.06,4.66-.08,7,.16,4.66.14,7c0,1-.06,2.34.06,4.31,1.56-1.55,3-3.72,4.5-5.22s3.46-2.69,5-4.19,3.31-2.83,4.84-4.35,2.76-3.37,4.29-4.89,3.36-2.77,4.89-4.29c.94-.94,1.39-2.38,2.37-3.26,3.06-2.74,6.07-2.81,9,.11,2.79,2.75,3,5.84.33,8.62-1.54,1.63-2.8,3.54-4.36,5.15s-3.65,2.71-5.23,4.31-2.57,3.78-4.16,5.37-3.17,3.19-4.77,4.77-3.7,2.29-5.26,3.78-2.7,3.29-4.29,4.79-3.47,2.9-5.07,4.43c2,1.93,4.26,3.7,6.07,5.4,2,1.86,4.3,3.17,6.14,5s3.08,3.87,4.83,5.6,3.49,3.45,5.23,5.19,3.55,3.4,5.29,5.14,3.44,3.51,5.17,5.25c2.92,2.93,3,6,.28,9.21-1.27,1.51-2.85,2.89-4.69,2.79a8.78,8.78,0,0,1-5.23-2.4c-2-1.92-4-3.89-5.93-5.85s-3.38-4.47-5.34-6.43-4.1-3.75-6.08-5.69c-2.21-2.15-4.71-3.55-8.06-6.42,0,2.54.22,4.52.22,7s.25,5,.25,7.5-.54,5-.54,7.5.17,5,.17,7.5-.65,5-.65,7.5c0,1.66.71,3.32.61,5-.24,3.71-2.22,6-5.83,6.26-3.87.22-7.18-2-7.37-5.88-.11-2.16.91-4.35.9-6.51s-1-4.32-1-6.48.27-4.31.27-6.47c0-2.51.1-5,.05-7.55s.2-5,0-7.56-.38-5.31-.76-7.88c-1.63,1.67-3.16,4-4.79,5.64s-3.79,2.82-5.42,4.49-2.83,3.76-4.46,5.42c-1.34,1.36-3.11,2.3-4.45,3.67s-2.1,3.33-3.51,4.62a10.75,10.75,0,0,1-5.43,2.8,6.44,6.44,0,0,1-5.66-2.15,5.89,5.89,0,0,1-1-5.72c.42-1.59,1.66-3,3.38-4.63s3.34-3.34,5-5,3.54-3.13,5.25-4.77,3.22-3.46,4.93-5.11,2.83-3.86,4.54-5.51,3.83-2.83,5.54-4.48,3.09-3.38,4.8-5c-1.62-1.53-2.6-3.44-4.15-4.9s-4-2.17-5.56-3.64-2.64-3.59-4.2-5.07-3.16-3-4.73-4.51-3.24-2.92-4.81-4.42-2.88-2.74-4.24-4.2-2.78-2.86-4.11-4.33a6.68,6.68,0,0,1-1.57-5,6,6,0,0,1,2.11-4.58c1.49-1.44,3.25-2.53,5.17-2.09a11.13,11.13,0,0,1,4.91,3.2c1.83,1.87,3.4,4,5.24,5.83s3.46,3.93,5.31,5.77,4,3.37,5.87,5.21,3.67,3.71,5.52,5.56C709.68,352.69,710.31,352.57,710.78,352.4Z"/><path class="a" d="M460.28,700.71a32.48,32.48,0,0,1-7.11-.94c-2.49-.52-5-.72-7.46-1.37s-4.89-1.33-7.29-2.1-4.83-1.53-7.19-2.44-4.83-1.61-7.13-2.64-4.47-2.39-6.73-3.56-4.31-2.64-6.5-3.93-4.32-2.59-6.44-4-4-3-6.09-4.51c-1.6-1.18-3.8-1.51-5.46-2.63s-3.19-2.39-4.85-3.49c-3.21-2.15-6.18-2.23-8.68.7-2.67,3.13-2.74,7,.53,9.43,1.94,1.47,4.43,2.19,6.41,3.62s3.76,3.11,5.78,4.46,4.29,2.31,6.36,3.58,3.59,3,5.59,4.13,3.93,2.42,6,3.54,4.1,2.12,6.12,3.24,3.94,2.1,6,3.23c-2.08,1-3.91,2.24-6,2.66s-4.51,0-6.71-.07a38.22,38.22,0,0,1-6.6-.78,64.16,64.16,0,0,1-6.46-1.66c-2.27-.76-4.23-2.27-6.41-3.2s-4.49-1.62-6.59-2.71-4.48-1.77-6.52-3-3.59-3.22-5.54-4.58-3.65-3-5.54-4.48-4-2.58-5.82-4.13c-1.51-1.28-3.58-1.83-5.26-2.9-3.47-2.22-6-1.93-8.62,1.32a4.89,4.89,0,0,0-1,4.73c.43,1.62.72,3.68,2.32,4.9,2.27,1.72,5,2.86,7.26,4.68s4,3.89,6.11,6a34.59,34.59,0,0,1-4.33-.8c-2.24-.5-4.49-.89-6.71-1.43s-4.45-1.07-6.66-1.65-4.6-.54-6.8-1.17-4.09-2.31-6.28-3-4.37-1.33-6.54-2.05-4.39-1.29-6.54-2.07-4.43-1.21-6.57-2-4.14-2-6.26-2.84-4.25-1.68-6.35-2.61-4.33-2.13-6.57-3-4.78-1-7-1.87-4.27-2.31-6.51-3.19-4.72-1.18-6.94-2.11c-2.59-1.09-5-2.77-7.51-4a54.47,54.47,0,0,1-7.51-3.87c-2.51-1.68-3.78-5.38-4.9-8.41-.83-2.24-1.55-4.45-2.15-6.69s-2-4.43-2.3-6.75a46.16,46.16,0,0,1,.07-7.11c0-2.32-.3-4.77.16-7.13a44.85,44.85,0,0,1,2.41-6.71,23.47,23.47,0,0,1,4.4-6.73c1.75-2.16,3.3-4.38,5.76-5.63a30.56,30.56,0,0,1,7.74-2.73c2.35-.48,4.85-.21,7.19-.73s4.56-1.55,6.89-2.12,4.54-1.54,6.85-2.18,4.66-1.08,6.95-1.79,4.7-1,7-1.81,4.32-2.1,6.56-3,4.33-2,6.53-3a65.69,65.69,0,0,1,6.62-2.23c2.22-.71,4.6-.77,6.85-1.22s4.48-1.46,6.78-1.66a63.37,63.37,0,0,1,7-.3,66.41,66.41,0,0,1,7,.6c2.27.3,4.24,1.77,6.52,2.3.17.48.67.52.83,1-2,.89-4.26,1.22-6.26,2.1s-3.59,2.66-5.59,3.54-4.39.87-6.37,1.77-3.62,2.56-5.59,3.5c-1.73.82-4,.81-5.65,1.78s-3,2.67-4.34,4a6.17,6.17,0,0,0-2,6.08c.55,2,2.34,3.4,4.79,4.22s5,1.4,7.48,2.22,4.76,2.17,7.23,3,5.05,1.24,7.55,2,4.8,2.14,7.32,2.79c2.34.6,4.76.15,7,.13a31.13,31.13,0,0,0,7-.48,44,44,0,0,0,6.76-2c2.15-.89,4-2.53,6-3.64a38.29,38.29,0,0,1,5.83-2.47,10.57,10.57,0,0,1,6.1.08,13,13,0,0,1,5.72,2.3c2.27,1.77,4.9,2.42,7.59,3.09s5.31,1.8,8.13,1.87,5.61-.74,8.35-.78c3.24,0,5.08.88,6.77,3.83a53.26,53.26,0,0,0,4.4,7c1.74,2.19,3,4.83,5,6.76s4.39,3,6.29,4.76,3.21,4.22,5.13,6,4.13,3.23,6,5,3.95,3.42,5.85,5.21,3.55,3.83,5.42,5.66,4,3.22,6,4.92,3.71,3.59,5.72,5.17,4.53,2.5,6.64,4,4,3.28,6.19,4.57,4.72,2,7.05,3.08,4.24,3.09,6.67,4c2.22.82,4.38,1.36,6,2.71s2.72,3.36,3.95,5.32a24.83,24.83,0,0,1,2.86,5.5c-2.81-.32-4.77.08-7-.36s-4.41-1.41-6.62-2-4.54-.9-6.71-1.64-4.32-1.61-6.45-2.47-4.19-1.89-6.28-2.87-4.47-1.37-6.51-2.44-3.88-2.52-5.88-3.67-3.74-2.7-5.69-3.93-3.73-2.68-5.64-4-4-2.89-6-4.26l-6.1-4.12c-2-1.37-4.36-2.32-6.4-3.69s-4-2.85-6-4.23-4.35-2.33-6.39-3.7-3.71-3.28-5.75-4.66-4.33-2.36-6.37-3.73-4.17-2.61-6.2-4-3.84-3.09-5.87-4.47c-3.39-2.29-6.88-2.41-9.68.64a6,6,0,0,0-1.22,5.28,7.87,7.87,0,0,0,2.75,4.71c1.6,1.28,3.31,2.43,4.95,3.67s3.48,2.2,5.15,3.39,3.38,2.31,5.09,3.45c2.08,1.38,3.86,3.2,5.94,4.57s4.59,2.09,6.67,3.46,3.7,3.45,5.79,4.81,4.19,2.7,6.27,4.07,4.48,2.25,6.57,3.61,4,2.94,6.12,4.3,4.18,2.71,6.27,4.08C458.64,698.85,459.24,699.76,460.28,700.71Z"/><path class="a" d="M475.61,655.56c2.37.16,4.15-.32,6.36-.16s4.62.19,6.86.34,4.55.89,6.82,1c3.77.17,5.63-2,6-5.68s-1-6.58-4.61-7.38c-1.93-.43-4.11.38-6.07.05-2.57-.43-5.1-1.09-7.67-1.52s-5.23-.31-7.8-.75-5-1.47-7.6-1.94-5-1.35-7.59-1.87a22.86,22.86,0,0,1-7.36-3.28c-1.11-.71-1.81-2.25-3-2.66a13.33,13.33,0,0,1-7-4.88,13.17,13.17,0,0,1-2.86-8.33c.18-3.35.33-5.82-1.28-7s-4.06-.44-7.25,0c-2.27.3-4.64-.09-6.94,0s-4.6.71-6.9.69-4.62-.41-6.9-.57a13.33,13.33,0,0,1-6.22-2.38c-1.77-1.14-3.86-2.34-5.07-4.49-1.4-2.48-3.43-4.13-6.08-4.36a9.52,9.52,0,0,0-7.09,2.85,51.47,51.47,0,0,1-6.11,4.46,41.79,41.79,0,0,1-6.49,3.93,35,35,0,0,1-7.34,2,33.92,33.92,0,0,1-7.53.11,37.42,37.42,0,0,1-7.46-.85,48.73,48.73,0,0,1-7.31-2.28c.86-.61,1.52-2.05,2.28-2.31,2.33-.78,4.86-.94,7-2a68.78,68.78,0,0,0,6.21-3.82c2-1.3,4.24-2.41,6.2-3.85s4-2.77,5.9-4.28,3.2-3.77,5.11-5.27a21.8,21.8,0,0,1,5.54-3,46.14,46.14,0,0,1,6-1.75c2.5-.59,5-1.13,7.54-1.59s5.19-.06,7.72-.42,5-1,7.59-1.22,5.07-.94,7.63-1.12,5.11-.62,7.68-.72,5.15.38,7.71.33,5.13-.38,7.69-.39c2.34,0,4.71.67,7.07.61s4.69-.88,7-.91,4.72.16,7.07.26,4.76,0,7.09.29,4.49,1.52,6.77,2.15a42.49,42.49,0,0,1,6.62,2.33c2.34,1.09,4.73,2.07,7.05,3.22s4.56,2.42,6.85,3.62,4.38,2.76,6.64,4,4.8,2,7,3.33,4.66,2.31,6.84,3.69,4.16,2.55,6.15,3.94,3.85,3,5.8,4.42,3.83,3,5.75,4.46,3.73,3.11,5.64,4.6,3.42,3.52,5.35,5a12.41,12.41,0,0,1,2.8,3.22c1.38,2.08,3.43,3.72,4.46,5.89a42.15,42.15,0,0,1,2.18,7,37.8,37.8,0,0,1,1.09,7.23c.17,2.39.87,4.89.57,7.39-.27,2.24-1,4.44-1.25,6.68s-.89,4.44-1.22,6.68.11,4.61-.32,6.83a8.73,8.73,0,0,1-4.33,5.08c-2.41,1-5,1.66-7.39,2.59s-4.77,2.15-7.24,3-5.22.76-7.72,1.47a14.73,14.73,0,0,1-8.73-.26c-2.16-.82-3.86-2.68-5.92-3.78a68.62,68.62,0,0,0-6.26-3.17c-2.13-.88-4.47-1.24-6.46-2.31s-3.78-2.58-5.67-3.84-3.48-2.93-5.28-4.33-4-2.32-5.7-3.82-3.7-2.72-5.37-4.28C477.35,660.12,477.27,657.94,475.61,655.56Z"/><path class="a" d="M181.24,603.1a31.59,31.59,0,0,0-5.19,4.34,38.24,38.24,0,0,0-4,5.41c-1.13,1.93-1.56,4.21-2.47,6.28s-2,4-2.85,6.09-1.5,4.23-1.07,5.87a6.57,6.57,0,0,0,10,3.77,9.12,9.12,0,0,0,3.61-4.72c.75-2.39,1.07-4.82,2.18-6.91a43.65,43.65,0,0,1,3.62-6.37,54.47,54.47,0,0,1,5.24-5.12c1.72-1.69,3.91-2.84,5.8-4.38s3.77-3,5.74-4.42,4.13-2.24,7.54-3.77c-1,2.92-2.29,5-3.22,7.51-1,2.81-1.36,5.68-2.2,8.36-.71,2.27-1.77,4.42-2.26,6.7s-.35,4.72-.66,7-.46,4.66-.58,7-.76,4.68-.73,7,0,4.71.18,7.06.32,4.7.6,7,.61,4.67,1,7a40,40,0,0,0,2.22,7,27.69,27.69,0,0,0,3.47,6.42,23.49,23.49,0,0,0,4.82,5.46,26.93,26.93,0,0,0,6.31,3.64,27,27,0,0,1-3.69,6.85,12.94,12.94,0,0,1-6.1,4.66,16.06,16.06,0,0,1-7.74.77,43.51,43.51,0,0,1-7.52-2.24,51,51,0,0,1-6.6-2.33c-2.08-1.05-3.94-2.54-6-3.59-1.9-1-3.78-1.63-5.39-1.34s-3,1.62-4.23,3.5a6.1,6.1,0,0,0-.73,5.62,9,9,0,0,0,4,4.44c2.07,1,4.66,1,6.75,2s4.14,2.05,6.24,3,3.74,2.42,5.82,3.41a35.19,35.19,0,0,1-4.41,5,15.91,15.91,0,0,1-5.88,3.42c-2.11.69-4.17.47-6.67.07-2-.32-4.34-.28-6.75-1.3a47.44,47.44,0,0,1-5.35-3.26c-1.79-1.06-3.58-2.1-5.27-3.33s-3.74-2-5.35-3.33a62.83,62.83,0,0,1-6-6.34c-2-2.13-4.19-4-6.14-6.18s-3.44-2.95-5.68-2.48c-1.73.37-3.78,1.74-6,3.75-1-2.29-1.22-5.26-1.77-7.56a46.51,46.51,0,0,1-1-7.1,56.23,56.23,0,0,1-.56-7.19c.11-2.4-.26-4.89.09-7.29s1.74-4.58,2.25-7,.66-4.94,1.34-7.29,1.86-4.59,2.71-6.9,2-4.49,3-6.73,1.57-4.71,2.74-6.89,2.5-4.25,3.82-6.35,2.29-4.42,3.75-6.42,2.94-4,4.52-5.91,3.7-3.31,5.39-5.13,2.89-4,4.75-5.46A22.25,22.25,0,0,1,167,600.7c2.15-.69,4.61,0,7.2.25,2.09.19,4,.67,6.1,1C180.42,602.39,181.08,602.67,181.24,603.1Z"/><path class="a" d="M583.67,603.66a14.72,14.72,0,0,1,6.5.08c2.21.46,4.66.54,6.68,1.69a29,29,0,0,1,5.44,4.31,28.64,28.64,0,0,1,4.61,5.19,17.85,17.85,0,0,1,2.46,6.52c.4,2.5.21,5.09.53,7.6s.87,5,1.16,7.51,1.16,5,1.49,7.47c.29,2.29.62,4,1.6,5.19a5.51,5.51,0,0,0,4.87,2.45c2.21-.17,3.52-1.67,4.52-3.41a8.72,8.72,0,0,0,.86-5.55c-.23-2.09.47-4.29.24-6.38s-1.39-4.08-1.65-6.17.11-4.27-.21-6.35-1.23-4.06-1.65-6.12a28.78,28.78,0,0,0-2.16-6.75c-1-2.08-2.48-4.35-3.46-6.62a39.7,39.7,0,0,1,6.22-2.93c2-.81,4.22-.87,6.37-1.24a28,28,0,0,1,6.39-.26c2.1.12,4.3-.19,6.48.41a42.62,42.62,0,0,1,6.8,2.62,38,38,0,0,1,6.31,3.63c2,1.45,3.4,3.44,5,5.22a42.91,42.91,0,0,1,4.41,5.69c1.3,2,3.12,3.73,4.2,6s2,4.39,2.84,6.73a54.58,54.58,0,0,1,1.93,6.54,53.48,53.48,0,0,1,.93,6.75,56.65,56.65,0,0,1-.06,6.78,65.39,65.39,0,0,1,0,6.8c-.27,2.23-1.07,4.39-1.54,6.62s-.34,4.56-1,6.76c-.71,2.52-2.83,4.5-4.18,6.84s-2.65,4.54-3.88,6.87c-.52-.18-1.25.09-1.78-.08-.11-2.29-.09-4.7-.19-7s.15-4.58-.07-6.86c-.18-1.88-.47-3.75-.77-5.62a50,50,0,0,0-.75-5.65c-1-3.54-4.1-4.41-7.6-3.57-3.76.9-5.82,3.17-5.41,7.07.28,2.71.77,5.4,1,8.12s.77,5.39,1.23,8.08a32.39,32.39,0,0,1,.1,7.82,56.59,56.59,0,0,1-1.24,7.69c-.54,2.54-.51,5.22-1.09,7.75a22.28,22.28,0,0,1-2.76,6.4,20.13,20.13,0,0,1-4.81,4.94,20.34,20.34,0,0,1-6,3.09,23,23,0,0,1-6.62,1.77c-2.42.11-4.85-.54-7.25-.61s-4.85.17-7.24-.13a64,64,0,0,1-7.17-1.13,57,57,0,0,1-7-2,24.65,24.65,0,0,1-7.29-4.8,18.11,18.11,0,0,1-4.76-7.13c-.41-1-.25-3.37.48-3.78a21.57,21.57,0,0,0,6.09-4.62c1.68-2,2.47-4.43,3.52-6.78a48.18,48.18,0,0,0,2.92-7.07c.61-2.28.56-4.69,1-7s2.06-4.42,2.38-6.75-.59-4.78-.44-7.14.27-4.65.23-7,.11-4.67-.11-7a40.78,40.78,0,0,0-2.93-14.41,71.74,71.74,0,0,0-2.71-6.85c-1-2.25-1.92-4.52-3.12-6.68s-2-4.58-3.32-6.65-3.15-3.81-4.65-5.79A8.72,8.72,0,0,1,583.67,603.66Z"/><path class="a" d="M473.68,414.25c-2.39,0-4.73-.12-7.12-.12s-4.77-.27-7.16-.27-4.77.75-7.16.75-4.77-.38-7.16-.38-4.77-.26-7.16-.26-4.77.43-7.16.43-4.77.5-7.16.5-4.77-.43-7.16-.43-4.77.35-7.16.35-4.77-.41-7.16-.41-4.77-.7-7.16-.7-4.77.91-7.16.91-4.77-.07-7.16-.07-4.77-.87-7.16-.87-4.77.58-7.16.58-4.77.24-7.16.24-4.77.14-7.16.14-4.77-.2-7.16-.2h-7.15c-2.38,0-4.77-.5-7.16-.5s-4.77.52-7.16.52-4.77.31-7.16.31-4.77-.9-7.16-.9-4.77,0-7.16,0-4.77,1-7.16,1-4.69-.65-7.08-.65c0-2.35.11-4.56.11-6.83s.28-4.64.28-6.92-.27-4.63-.27-6.92-.64-4.62-.65-6.92.67-4.87.66-7.31,0-4.87,0-7.31-.53-4.87-.53-7.31.15-4.87.14-7.31-.1-4.87-.11-7.31.42-4.87.41-7.31-.32-4.87-.33-7.31,0-4.87,0-7.31-.25-4.87-.25-7.31S287,316,287,313.55s.06-4.87.06-7.31.24-5,.24-7.53-.11-5-.12-7.53.43-5,.42-7.53-.49-5-.49-7.53-.18-5-.18-7.53.34-5,.34-7.53.43-5,.43-7.53-.33-5-.33-7.53.08-5,.09-7.53.34-5,.35-7.53-.83-4.85-.81-7.27,1.19-4.83,1.22-7.25-.23-4.84-.2-7.26-.32-4.85-.27-7.27.22-4.84.3-7.26-.43-4.87-.31-7.28,1.22-4.78,1.38-7.2-.54-4.86-.25-7.19,1.51-4.61,1.94-6.92.36-4.81,1-7.1,2-4.38,2.75-6.61.7-4.85,1.66-7,2.19-4.27,3.33-6.36,2.66-4,4-5.95,2.35-4.2,3.85-6.06,3.31-3.43,5-5.16,3.21-3.53,5-5.11,4.31-2.16,6.26-3.58,4-3,6.09-4.28,4-3,6.25-4.15,4.83-1.39,7.15-2.32,4.39-2.49,6.77-3.24,4.72-1.73,7.15-2.31,5-.29,7.5-.71,4.87-1.06,7.36-1.33c2.3-.25,4.6-.26,6.87-.31s4.59,0,6.87.12,4.53.71,6.8,1,4.54.54,6.79,1,4.46,1,6.68,1.59c2.38.64,4.85,1,7.16,1.81s4.68,1.6,6.93,2.6,4.47,2.11,6.64,3.27,4.09,2.74,6.18,4.06,4.24,2.49,6.24,4,3.65,3.17,5.41,4.73,3.48,3.32,5.09,5,3.57,3.28,5,5.16,2.79,3.93,4.06,5.95,1.83,4.46,2.92,6.58,3,3.87,3.93,6.09,1.28,4.64,2,6.93,1.95,4.42,2.54,6.76.37,4.81.82,7.19,1.32,4.62,1.64,7,.36,5,.54,7.57.37,5,.43,7.56-.34,5-.34,7.57.54,5,.54,7.57-.66,5.06-.62,7.57c0,2.36.6,4.71.62,7.06s-.16,4.72-.15,7.07.39,4.71.4,7.07.26,4.71.26,7.07-.81,4.71-.82,7.07,0,4.71,0,7.07-.09,4.63-.1,6.94,0,4.63,0,6.94.84,4.63.84,6.94-1,4.62-1,6.94.46,4.63.45,6.94.16,4.63.16,6.94-.23,4.62-.24,6.94.65,4.63.65,6.94-.93,4.62-.92,6.94.3,4.63.3,6.94,0,4.63.05,6.94-.51,4.85-.5,7.27.81,4.84.84,7.26-.77,4.85-.74,7.27.17,4.84.2,7.26.24,4.84.27,7.26.56,4.84.58,7.26,0,4.84.06,7.26c0,2.58-.63,5.15-.7,7.72s.35,5.17.32,7.74.09,5.33.09,8S473.68,411.54,473.68,414.25Z"/><path class="a" d="M89.17,234.18c2.32.15,4.78.26,7.09.41s4.67-.14,7,0,4.62.66,6.94.81,4.62.61,6.94.76,4.67-.27,7-.12,4.62.58,6.93.73,4.63.35,7,.5,4.59,1,6.91,1.1l7,.47c2.31.15,4.86-.37,7.19-.22-.13,2.39-.65,4.92-.84,7.28s-.8,4.7-1.06,7.06-.23,4.76-.55,7.11-.21,4.79-.59,7.13-1.36,4.6-1.81,6.93-1.08,4.63-1.59,6.95-.07,4.87-.63,7.18-1.84,4.45-2.46,6.74-1.45,4.53-2.13,6.81-1.32,4.56-2,6.83-1.66,4.45-2.43,6.7-1.37,4.55-2.2,6.79-1,4.7-1.91,6.91-2.12,4.28-3,6.47-1.9,4.36-2.86,6.54-2.19,4.22-3.19,6.38-1.79,4.41-2.83,6.55-1.8,4.42-2.87,6.55-2.54,4-3.65,6.15-2,4.32-3.14,6.42-2.55,4-3.72,6.1-2.13,4.26-3.32,6.32-2.84,3.84-4.06,5.89-1.81,4.46-3.05,6.49-2.62,4-3.88,6-2.42,3.48-3.7,5.49c.37-2.35.46-4.21.79-6.55s1.15-4.64,1.45-7,.7-4.7,1-7.06-.17-4.8.08-7.15,1.21-4.66,1.42-7-.77-4.82-.59-7.19,1.4-4.66,1.54-7,.13-4.75.23-7.12-.3-4.76-.23-7.13.71-4.73.74-7.1-.49-4.75-.5-7.12-.37-4.74-.42-7.11.74-4.77.65-7.14-1-4.71-1.08-7.08,0-4.75-.21-7.11.17-4.77,0-7.14-.3-4.74-.55-7.1-1-4.66-1.31-7-1.19-4.62-1.52-7-.36-4.73-.73-7.08-.09-4.79-.51-7.13-1.11-4.62-1.56-7-1.13-4.61-1.63-6.93-1.11-4.61-1.65-6.92S89.76,236.49,89.17,234.18Z"/></svg>