<svg xmlns="http://www.w3.org/2000/svg" viewBox="0 0 800 800"><defs><style>.a,.c{fill:none;stroke-linejoin:bevel;}.a{stroke:#000;stroke-width:13px;}.b{fill:#fff;}.c{stroke:#fff;stroke-width:47px;}</style></defs><title>canvas35</title><polygon points="102.57 328.93 102.56 336.11 102.78 343.29 102.06 350.45 101.96 357.63 101.81 364.81 101.64 371.98 101.68 379.16 101.95 386.34 101.57 393.51 101.09 400.68 101.07 407.86 101.23 415.04 100.75 422.21 100.91 429.39 100.39 436.56 100.24 443.74 99.81 450.92 99.72 458.1 99.76 465.28 99.69 472.46 99.84 479.64 100.36 486.81 100.39 493.99 99.73 501.18 99.87 508.36 100.08 515.54 100.28 522.72 100.23 529.9 101.49 537.04 101.35 544.24 101.46 551.42 102.31 558.57 103.14 565.7 103.57 572.87 103.66 580.07 104.52 587.21 105.94 594.27 106.45 601.44 107.25 608.58 108.89 615.59 109.45 622.78 111.32 629.73 112.47 636.83 114.16 643.81 116.34 650.66 118.29 657.56 119.86 664.59 122.39 671.32 125.43 677.84 127.38 684.81 130.54 691.27 134.37 697.37 137.78 703.67 141.17 710.01 145.53 715.73 150.01 721.32 154.29 727.12 159.79 731.78 164.86 736.87 170.46 741.38 176.65 745.04 182.49 749.27 189.07 752.21 195.76 754.81 202.44 757.46 209.52 758.77 216.5 760.35 223.5 762 230.62 763 237.8 763.37 244.99 763.04 252.21 763.44 259.41 762.64 266.65 762.97 273.81 761.73 281.06 761.82 288.19 760.63 295.46 760.66 302.53 758.97 309.76 758.59 316.86 757.27 323.96 755.93 331.17 755.27 338.33 754.31 345.31 752.33 352.41 751.04 359.56 749.96 366.55 748.08 373.57 746.41 380.78 745.49 387.76 743.63 394.66 741.44 401.56 739.29 408.77 738.26 415.52 735.59 422.49 733.68 429.5 731.9 436.33 729.53 443.17 727.22 450 724.87 456.85 722.59 463.71 720.31 470.46 717.75 477.35 715.55 484.27 713.41 490.94 710.61 497.7 708.06 504.2 704.87 510.74 701.77 517.62 699.49 524.07 696.21 530.79 693.54 537.23 690.24 543.8 687.25 550.13 683.75 556.78 680.88 563.37 677.89 569.79 674.57 575.71 670.33 582.17 667.09 588.62 663.79 594.94 660.29 601.08 656.47 607.25 652.71 613.1 648.44 619.04 644.32 625.25 640.62 631.28 636.62 636.97 632.16 642.77 627.86 648.24 623.12 654 618.77 659.67 614.29 664.98 609.4 670.43 604.66 675.66 599.69 681.18 595.01 686.3 589.92 690.95 584.37 696.12 579.31 700.52 573.58 705.29 568.14 709.83 562.52 713.49 556.26 718.25 550.76 721.77 544.43 725.76 538.38 728.62 531.71 731.5 525.1 734.44 518.51 737.38 511.9 739.97 505.14 741.74 498.11 743.18 491.02 744.15 483.86 745.06 476.71 745.44 469.51 745.84 462.31 745.9 455.07 745.31 447.85 745.01 440.62 744.14 433.44 743.6 426.22 743.25 418.96 741.55 411.89 740.98 404.64 739.19 397.61 737.93 390.47 736.11 383.46 734.01 376.52 732.56 369.41 730.11 362.58 728.29 355.57 725.74 348.78 724.1 341.69 721.48 334.93 719.09 328.09 715.58 321.69 713.63 314.66 709.94 308.36 707.62 301.47 704.72 294.83 701.21 288.48 698.25 281.86 694.93 275.42 691.5 269.04 688.1 262.65 684.53 256.34 680.74 250.16 677.06 243.93 673.34 237.71 669.02 231.87 664.97 225.87 660.79 219.96 657.1 213.71 652.48 208.11 648.34 202.16 643.85 196.49 639.69 190.54 634.75 185.22 630.42 179.41 625.67 173.94 620.48 168.86 616.27 162.9 610.87 158.03 605.67 153 601.05 147.38 595.32 142.88 590.15 137.82 585.03 132.69 579.21 128.34 573.94 123.37 568.3 118.83 562.78 114.14 556.69 110.19 550.78 106.01 544.91 101.78 538.92 97.72 533.11 93.38 526.81 89.8 520.32 86.56 514.18 82.7 507.56 79.74 501.34 75.98 494.7 73.06 487.77 70.88 481.36 67.39 474.36 65.44 467.41 63.41 460.6 60.93 453.64 58.87 446.56 57.32 439.41 56.15 432.18 55.52 425.1 53.78 417.87 53.3 410.63 52.77 403.38 52.92 396.18 52.82 388.97 52.84 381.77 53.09 374.61 54.02 367.4 54.24 360.29 55.51 353.15 56.32 345.93 56.63 338.87 58.09 331.77 59.27 324.69 60.53 317.5 61.34 310.69 63.84 303.66 65.37 296.57 66.74 289.79 69.22 282.79 70.96 276.23 74.03 269.26 75.9 262.5 78.43 256.17 81.92 249.6 84.84 242.79 87.3 236.56 90.95 230.06 94.08 223.88 97.79 218.21 102.32 211.76 105.61 206.17 110.17 200.56 114.68 194.67 118.82 189.29 123.61 184.04 128.52 178.68 133.31 173.1 137.92 168.46 143.44 163.46 148.64 159.44 154.66 154.39 159.85 150.56 165.97 146.47 171.89 142.13 177.66 139 184.18 135.1 190.23 132.27 196.87 128.9 203.22 125.95 209.78 122.53 216.15 120.62 223.13 117.78 229.76 115.24 236.51 113.56 243.53 111.48 250.43 109.78 257.43 108.7 264.56 107.61 271.67 105.68 278.65 104.69 285.79 104.53 293.02 103.14 300.12 102.77 307.32 102.27 314.51 102.33 321.73 102.57 328.93"/><polygon class="a" points="102.57 328.93 102.56 336.11 102.78 343.29 102.06 350.45 101.96 357.63 101.81 364.81 101.64 371.98 101.68 379.16 101.95 386.34 101.57 393.51 101.09 400.68 101.07 407.86 101.23 415.04 100.75 422.21 100.91 429.39 100.39 436.56 100.24 443.74 99.81 450.92 99.72 458.1 99.76 465.28 99.69 472.46 99.84 479.64 100.36 486.81 100.39 493.99 99.73 501.18 99.87 508.36 100.08 515.54 100.28 522.72 100.23 529.9 101.49 537.04 101.35 544.24 101.46 551.42 102.31 558.57 103.14 565.7 103.57 572.87 103.66 580.07 104.52 587.21 105.94 594.27 106.45 601.44 107.25 608.58 108.89 615.59 109.45 622.78 111.32 629.73 112.47 636.83 114.16 643.81 116.34 650.66 118.29 657.56 119.86 664.59 122.39 671.32 125.43 677.84 127.38 684.81 130.54 691.27 134.37 697.37 137.78 703.67 141.17 710.01 145.53 715.73 150.01 721.32 154.29 727.12 159.79 731.78 164.86 736.87 170.46 741.38 176.65 745.04 182.49 749.27 189.07 752.21 195.76 754.81 202.44 757.46 209.52 758.77 216.5 760.35 223.5 762 230.62 763 237.8 763.37 244.99 763.04 252.21 763.44 259.41 762.64 266.65 762.97 273.81 761.73 281.06 761.82 288.19 760.63 295.46 760.66 302.53 758.97 309.76 758.59 316.86 757.27 323.96 755.93 331.17 755.27 338.33 754.31 345.31 752.33 352.41 751.04 359.56 749.96 366.55 748.08 373.57 746.41 380.78 745.49 387.76 743.63 394.66 741.44 401.56 739.29 408.77 738.26 415.52 735.59 422.49 733.68 429.5 731.9 436.33 729.53 443.17 727.22 450 724.87 456.85 722.59 463.71 720.31 470.46 717.75 477.35 715.55 484.27 713.41 490.94 710.61 497.7 708.06 504.2 704.87 510.74 701.77 517.62 699.49 524.07 696.21 530.79 693.54 537.23 690.24 543.8 687.25 550.13 683.75 556.78 680.88 563.37 677.89 569.79 674.57 575.71 670.33 582.17 667.09 588.62 663.79 594.94 660.29 601.08 656.47 607.25 652.71 613.1 648.44 619.04 644.32 625.25 640.62 631.28 636.62 636.97 632.16 642.77 627.86 648.24 623.12 654 618.77 659.67 614.29 664.98 609.4 670.43 604.66 675.66 599.69 681.18 595.01 686.3 589.92 690.95 584.37 696.12 579.31 700.52 573.58 705.29 568.14 709.83 562.52 713.49 556.26 718.25 550.76 721.77 544.43 725.76 538.38 728.62 531.71 731.5 525.1 734.44 518.51 737.38 511.9 739.97 505.14 741.74 498.11 743.18 491.02 744.15 483.86 745.06 476.71 745.44 469.51 745.84 462.31 745.9 455.07 745.31 447.85 745.01 440.62 744.14 433.44 743.6 426.22 743.25 418.96 741.55 411.89 740.98 404.64 739.19 397.61 737.93 390.47 736.11 383.46 734.01 376.52 732.56 369.41 730.11 362.58 728.29 355.57 725.74 348.78 724.1 341.69 721.48 334.93 719.09 328.09 715.58 321.69 713.63 314.66 709.94 308.36 707.62 301.47 704.72 294.83 701.21 288.48 698.25 281.86 694.93 275.42 691.5 269.04 688.1 262.65 684.53 256.34 680.74 250.16 677.06 243.93 673.34 237.71 669.02 231.87 664.97 225.87 660.79 219.96 657.1 213.71 652.48 208.11 648.34 202.16 643.85 196.49 639.69 190.54 634.75 185.22 630.42 179.41 625.67 173.94 620.48 168.86 616.27 162.9 610.87 158.03 605.67 153 601.05 147.38 595.32 142.88 590.15 137.82 585.03 132.69 579.21 128.34 573.94 123.37 568.3 118.83 562.78 114.14 556.69 110.19 550.78 106.01 544.91 101.78 538.92 97.72 533.11 93.38 526.81 89.8 520.32 86.56 514.18 82.7 507.56 79.74 501.34 75.98 494.7 73.06 487.77 70.88 481.36 67.39 474.36 65.44 467.41 63.41 460.6 60.93 453.64 58.87 446.56 57.32 439.41 56.15 432.18 55.52 425.1 53.78 417.87 53.3 410.63 52.77 403.38 52.92 396.18 52.82 388.97 52.84 381.77 53.09 374.61 54.02 367.4 54.24 360.29 55.51 353.15 56.32 345.93 56.63 338.87 58.09 331.77 59.27 324.69 60.53 317.5 61.34 310.69 63.84 303.66 65.37 296.57 66.74 289.79 69.22 282.79 70.96 276.23 74.03 269.26 75.9 262.5 78.43 256.17 81.92 249.6 84.84 242.79 87.3 236.56 90.95 230.06 94.08 223.88 97.79 218.21 102.32 211.76 105.61 206.17 110.17 200.56 114.68 194.67 118.82 189.29 123.61 184.04 128.52 178.68 133.31 173.1 137.92 168.46 143.44 163.46 148.64 159.44 154.66 154.39 159.85 150.56 165.97 146.47 171.89 142.13 177.66 139 184.18 135.1 190.23 132.27 196.87 128.9 203.22 125.95 209.78 122.53 216.15 120.62 223.13 117.78 229.76 115.24 236.51 113.56 243.53 111.48 250.43 109.78 257.43 108.7 264.56 107.61 271.67 105.68 278.65 104.69 285.79 104.53 293.02 103.14 300.12 102.77 307.32 102.27 314.51 102.33 321.73 102.57 328.93"/><path class="b" d="M655.25,329.54l4.27-5.85L664,318l3.79-6.2,2.8-6.71,3.55-6.35,2.18-6.93,2.13-6.92,2.62-6.82.6-7.28,1.07-7.15,1.11-7.19-.56-7.25.08-7.27-1.47-7.12-1.15-7.18-2.31-6.9-2.88-6.68L672,207.69l-4.64-5.6-4.17-6-5.28-5-5.9-4.26-6.13-3.87-.08-.65h0l-6.59-3.44-7-2.44.33-.6-7.05-2.58L618.77,170l-7.06-2.45-6.88-3-7.38-1.46-7.21-2L583.06,159l-7.16-2.25-7.51-.63L561.18,154l-7.5-.65L547,151.52l-6.82-1.44-7-.29-6.93-.6-6.94-.53-7-.25-7,0-7,0-7.27.53-7.29.19-7.24,1-7.31,0-7.23,1-7.21,1.12-7.28.41-7.19,1.17-7.22,1-7.29.46-7.1,1.79-7.3.48-7.2,1.13-7.06,1.9L390.08,162l-7.24.95-7.17,1.33-7,2L361.59,168l-7.19,1.27-6.88,2.49-7,1.95-7.16,1.46-6.84,2.55-7,2.06-7,2-6.89,2.36-6.89,2.37-6.67,3L285,191.38l-6.61,3.1-6.92,2.31-6.75,2.75L258,202.46l-6.61,3.07-6.35,3.59-6.48,3.3-6.9,2.49-6.23,3.8-6.21,3.8-6.66,3-5.9,4.27L201,234.29,195.42,239l-5.63,4.68-4.91,5.44-4,6.16L177,261.44l-3.77,6.29-2.43,6.92-2,7-.6,6.29.26.38L168.1,296l.2,7.62.55,7.67,1.91,7.45,2.43,7.3,3.4,6.89-.12.17L177,333l2.78,6.23,3.3,6,4.49,5.18,4,5.47,4.09,5.48,4.89,4.76,4.95,4.69,5,4.64,5.68,3.83.27.77.88.09,5.54,4.36,5.83,4,6.31,3.14,6.11,3.52,6.56,2.58v.43l1.49.56,7,4.37,7.71,3.28,7.74,3-6.18.61-.07,0,6.71,1.46,6.52,2.14,6.54,2.16,6.68,1.63,6.73,1.39,6.74,1.37,6.89.51,6.76,1.19,6.77,1.1,6.76,1.22,7.74.79,7.76.17,6.9.17,6.9-.3,6.77-1.55,6.8-.94,6.77-1.18,6.65-1.77,6.63-1.92,6.26-2.87,6.2-3,.91,0,.42-.08,6.39-3.73,6.39-3.8,5.65-4.83,5.59-4.86,5-5.45,5.2-5.26,4.84-5.6,4.72-5.7,5.16-5.38,4.21-6.12,4.46-5.91L471.3,349l4.46-5.39L481,339l4.54-5.37,6.94-2.17,7.14.29,7.09.54,7,1.27,7.08,1,6.79,2.25,7,1.52,6.89,1.87,6.7,2.57,7,1.64,6.95,1.66,7.12.85,6.85,2.18,7.1.91,7.14.43,7.11.71,7.14.11,7.17,0,7.08-1.13,7-1.39,6.78-2.29,6.79-3.12,6-4.45,5.53-5.25,1.32,1.26ZM595.69,166.9l-8.36-.55L583.5,164l6.06,1.58Zm-314,240.26,5.73.32,5.67.79,5.07,2.71,5.24,2.65L296.29,411l-7.39-1.58Z"/><path class="c" d="M655.25,329.54l4.27-5.85L664,318l3.79-6.2,2.8-6.71,3.55-6.35,2.18-6.93,2.13-6.92,2.62-6.82.6-7.28,1.07-7.15,1.11-7.19-.56-7.25.08-7.27-1.47-7.12-1.15-7.18-2.31-6.9-2.88-6.68L672,207.69l-4.64-5.6-4.17-6-5.28-5-5.9-4.26-6.13-3.87-.08-.65h0l-6.59-3.44-7-2.44.33-.6-7.05-2.58L618.77,170l-7.06-2.45-6.88-3-7.38-1.46-7.21-2L583.06,159l-7.16-2.25-7.51-.63L561.18,154l-7.5-.65L547,151.52l-6.82-1.44-7-.29-6.93-.6-6.94-.53-7-.25-7,0-7,0-7.27.53-7.29.19-7.24,1-7.31,0-7.23,1-7.21,1.12-7.28.41-7.19,1.17-7.22,1-7.29.46-7.1,1.79-7.3.48-7.2,1.13-7.06,1.9L390.08,162l-7.24.95-7.17,1.33-7,2L361.59,168l-7.19,1.27-6.88,2.49-7,1.95-7.16,1.46-6.84,2.55-7,2.06-7,2-6.89,2.36-6.89,2.37-6.67,3L285,191.38l-6.61,3.1-6.92,2.31-6.75,2.75L258,202.46l-6.61,3.07-6.35,3.59-6.48,3.3-6.9,2.49-6.23,3.8-6.21,3.8-6.66,3-5.9,4.27L201,234.29,195.42,239l-5.63,4.68-4.91,5.44-4,6.16L177,261.44l-3.77,6.29-2.43,6.92-2,7-.6,6.29.26.38L168.1,296l.2,7.62.55,7.67,1.91,7.45,2.43,7.3,3.4,6.89-.12.17L177,333l2.78,6.23,3.3,6,4.49,5.18,4,5.47,4.09,5.48,4.89,4.76,4.95,4.69,5,4.64,5.68,3.83.27.77.88.09,5.54,4.36,5.83,4,6.31,3.14,6.11,3.52,6.56,2.58v.43l1.49.56,7,4.37,7.71,3.28,7.74,3-6.18.61-.07,0,6.71,1.46,6.52,2.14,6.54,2.16,6.68,1.63,6.73,1.39,6.74,1.37,6.89.51,6.76,1.19,6.77,1.1,6.76,1.22,7.74.79,7.76.17,6.9.17,6.9-.3,6.77-1.55,6.8-.94,6.77-1.18,6.65-1.77,6.63-1.92,6.26-2.87,6.2-3,.91,0,.42-.08,6.39-3.73,6.39-3.8,5.65-4.83,5.59-4.86,5-5.45,5.2-5.26,4.84-5.6,4.72-5.7,5.16-5.38,4.21-6.12,4.46-5.91L471.3,349l4.46-5.39L481,339l4.54-5.37,6.94-2.17,7.14.29,7.09.54,7,1.27,7.08,1,6.79,2.25,7,1.52,6.89,1.87,6.7,2.57,7,1.64,6.95,1.66,7.12.85,6.85,2.18,7.1.91,7.14.43,7.11.71,7.14.11,7.17,0,7.08-1.13,7-1.39,6.78-2.29,6.79-3.12,6-4.45,5.53-5.25,1.32,1.26ZM595.69,166.9l-8.36-.55L583.5,164l6.06,1.58Zm-314,240.26,5.73.32,5.67.79,5.07,2.71,5.24,2.65L296.29,411l-7.39-1.58Z"/><polygon class="b" points="206.37 229.34 212.59 225.5 219.3 222.56 225.44 218.62 231.77 215.01 238.2 211.57 244.88 208.66 251.54 205.69 258.24 202.85 264.99 200.12 271.59 197.06 278.17 193.91 285.15 191.76 292.07 189.48 298.85 186.82 305.55 183.9 312.65 182.2 319.33 179.17 326.32 177.11 333.34 175.14 340.32 173.05 347.5 171.71 354.54 169.88 361.67 168.37 368.6 166.04 375.68 164.31 382.78 162.67 390 161.66 397.24 160.72 404.39 159.35 411.46 157.49 418.75 157.04 425.9 155.65 433.04 154.08 440.27 153.12 447.61 153.18 454.84 152.34 462.06 151.28 469.34 151 476.59 150.2 483.86 149.74 491.15 149.57 498.43 149.31 505.6 148.62 512.78 149.03 519.98 148.65 527.17 149.01 534.34 149.55 541.47 150.59 548.52 152.02 555.64 153.09 562.37 155.76 569.48 157.16 576.17 159.85 582.52 163.26 588.49 167.27 594.92 170.6 599.9 175.84 605.5 180.38 609.54 186.35 614.06 191.94 617.28 198.37 619.8 205.08 622.36 211.79 624.05 218.78 624.53 225.96 625.62 233.09 625.45 240.3 624.27 247.41 623.69 254.57 622.32 261.63 620.55 268.6 618.3 275.44 615.55 282.09 612.51 288.6 609.54 295.16 605.53 301.14 601.84 307.34 597.19 312.85 592.22 318.06 586.52 322.44 580.54 326.33 574.23 329.65 567.51 332.08 560.51 333.52 553.4 334.31 546.26 334.15 539.13 334.76 532.01 334.1 524.88 333.57 517.85 332.28 510.8 331.14 503.83 329.53 496.88 327.89 490.05 325.8 483.09 324.2 476.16 322.47 469.43 320.02 462.57 318.03 455.58 316.54 448.52 315.43 441.42 314.55 434.32 315.24 427.46 317.1 422.13 321.75 417.46 327.04 413.16 332.64 408.54 338.03 404.81 344.08 400.55 349.75 395.88 355.1 391.58 360.74 387.2 366.32 382.17 371.33 376.79 375.96 371.56 380.72 366.12 385.23 360.75 389.91 354.76 393.74 348.14 396.41 341.99 400 335.25 402.26 328.31 403.77 321.46 405.44 314.5 406.61 307.5 407.66 300.42 407.79 293.34 408.12 286.23 407.67 279.2 406.6 272.08 405.87 265.24 403.83 258.46 401.64 251.74 399.29 244.97 397 238.87 393.24 232.52 390.02 226.59 386.1 220.25 382.77 214.47 378.58 209.22 373.73 203.7 369.22 198.88 363.97 194.28 358.54 189.42 353.33 185.39 347.46 181.29 341.64 178.11 335.26 174.8 328.97 172.56 322.21 170.1 315.53 168.97 308.5 167.94 301.47 167.42 294.35 167.98 287.23 169.71 280.31 171.9 273.56 173.78 266.65 177.43 260.5 181.23 254.47 185.89 249.08 190.54 243.71 195.28 238.37 201.1 234.2 206.37 229.34"/><polygon class="a" points="206.37 229.34 212.59 225.5 219.3 222.56 225.44 218.62 231.77 215.01 238.2 211.57 244.88 208.66 251.54 205.69 258.24 202.85 264.99 200.12 271.59 197.06 278.17 193.91 285.15 191.76 292.07 189.48 298.85 186.82 305.55 183.9 312.65 182.2 319.33 179.17 326.32 177.11 333.34 175.14 340.32 173.05 347.5 171.71 354.54 169.88 361.67 168.37 368.6 166.04 375.68 164.31 382.78 162.67 390 161.66 397.24 160.72 404.39 159.35 411.46 157.49 418.75 157.04 425.9 155.65 433.04 154.08 440.27 153.12 447.61 153.18 454.84 152.34 462.06 151.28 469.34 151 476.59 150.2 483.86 149.74 491.15 149.57 498.43 149.31 505.6 148.62 512.78 149.03 519.98 148.65 527.17 149.01 534.34 149.55 541.47 150.59 548.52 152.02 555.64 153.09 562.37 155.76 569.48 157.16 576.17 159.85 582.52 163.26 588.49 167.27 594.92 170.6 599.9 175.84 605.5 180.38 609.54 186.35 614.06 191.94 617.28 198.37 619.8 205.08 622.36 211.79 624.05 218.78 624.53 225.96 625.62 233.09 625.45 240.3 624.27 247.41 623.69 254.57 622.32 261.63 620.55 268.6 618.3 275.44 615.55 282.09 612.51 288.6 609.54 295.16 605.53 301.14 601.84 307.34 597.19 312.85 592.22 318.06 586.52 322.44 580.54 326.33 574.23 329.65 567.51 332.08 560.51 333.52 553.4 334.31 546.26 334.15 539.13 334.76 532.01 334.1 524.88 333.57 517.85 332.28 510.8 331.14 503.83 329.53 496.88 327.89 490.05 325.8 483.09 324.2 476.16 322.47 469.43 320.02 462.57 318.03 455.58 316.54 448.52 315.43 441.42 314.55 434.32 315.24 427.46 317.1 422.13 321.75 417.46 327.04 413.16 332.64 408.54 338.03 404.81 344.08 400.55 349.75 395.88 355.1 391.58 360.74 387.2 366.32 382.17 371.33 376.79 375.96 371.56 380.72 366.12 385.23 360.75 389.91 354.76 393.74 348.14 396.41 341.99 400 335.25 402.26 328.31 403.77 321.46 405.44 314.5 406.61 307.5 407.66 300.42 407.79 293.34 408.12 286.23 407.67 279.2 406.6 272.08 405.87 265.24 403.83 258.46 401.64 251.74 399.29 244.97 397 238.87 393.24 232.52 390.02 226.59 386.1 220.25 382.77 214.47 378.58 209.22 373.73 203.7 369.22 198.88 363.97 194.28 358.54 189.42 353.33 185.39 347.46 181.29 341.64 178.11 335.26 174.8 328.97 172.56 322.21 170.1 315.53 168.97 308.5 167.94 301.47 167.42 294.35 167.98 287.23 169.71 280.31 171.9 273.56 173.78 266.65 177.43 260.5 181.23 254.47 185.89 249.08 190.54 243.71 195.28 238.37 201.1 234.2 206.37 229.34"/><polygon class="b" points="265.21 246.7 271.31 242.77 277.37 238.71 283.63 234.99 290.2 231.83 296.91 228.96 303.48 225.83 309.75 222.07 316.5 219.32 323.24 216.55 329.75 213.24 336.58 210.71 343.6 208.68 350.28 205.75 357.19 203.47 363.92 200.63 370.94 198.67 377.78 196.14 384.85 194.35 391.89 192.5 398.9 190.55 405.73 187.92 412.87 186.44 419.9 184.57 426.91 182.52 434.14 181.48 441.27 180.03 448.27 177.9 455.49 176.82 462.66 175.56 469.78 173.98 477.05 173.36 484.29 172.57 491.45 171.19 498.69 170.3 505.94 169.65 513.21 169.09 520.37 167.46 527.66 167.19 534.97 167.19 542.21 166.36 549.49 165.93 556.78 165.87 563.96 165.8 571.14 165.19 578.34 165.24 585.5 165.93 592.63 166.87 599.84 167.11 606.88 168.66 613.98 169.83 620.77 172.29 627.61 174.44 634.39 176.83 640.82 180.05 647.33 183.16 652.74 187.98 658.5 192.24 663.78 197.12 668.64 202.46 672.7 208.44 675.59 215.06 678.71 221.55 680.3 228.57 682.58 235.42 683.6 242.56 683.91 249.77 683.22 256.94 683.03 264.12 682.45 271.31 680.85 278.34 678.9 285.28 676.67 292.12 673.66 298.66 670.52 305.1 667.81 311.78 663.67 317.67 659.97 323.84 655.65 329.61 650.16 334.3 644.79 339.01 639.24 343.6 632.52 346.13 625.73 348.23 618.85 350.14 611.77 351.12 604.63 351.72 597.5 350.83 590.39 350.53 583.24 350.22 576.31 348.31 569.2 347.57 562.36 345.46 555.24 344.56 548.28 342.92 541.46 340.81 534.61 338.8 527.65 337.18 520.71 335.55 513.93 333.23 506.92 331.75 499.76 331.37 492.69 332.04 485.96 334.03 480.25 338.19 475.91 343.79 470.95 348.89 466.93 354.72 462.51 360.27 458.39 366.04 454.38 371.88 449.92 377.39 445.02 382.52 440.63 388.1 435.59 393.1 429.92 397.4 424.51 401.95 418.99 406.41 412.88 410.02 406.78 413.65 400.13 416.17 393.5 418.63 386.86 421.13 379.93 422.66 372.96 424.09 365.88 424.7 358.79 425 351.69 424.85 344.6 424.21 337.53 423.39 330.5 422.25 323.7 420.11 316.64 418.83 309.98 416.27 303.55 413.18 297.19 409.97 290.82 406.79 284.63 403.26 278.62 399.42 273.24 394.71 267.49 390.5 262.37 385.56 256.98 380.88 252.3 375.5 247.89 369.91 243.46 364.33 239.91 358.15 236.36 352 232.84 345.77 230.89 338.89 228.75 332.13 227.41 325.16 226.28 318.15 226.49 311.05 226.81 303.96 227.53 296.85 230.2 290.22 232.71 283.59 235.75 277.15 239.53 271.1 244.22 265.74 248.69 260.19 254.07 255.52 259.33 250.72 265.21 246.7"/><polygon class="a" points="265.21 246.7 271.31 242.77 277.37 238.71 283.63 234.99 290.2 231.83 296.91 228.96 303.48 225.83 309.75 222.07 316.5 219.32 323.24 216.55 329.75 213.24 336.58 210.71 343.6 208.68 350.28 205.75 357.19 203.47 363.92 200.63 370.94 198.67 377.78 196.14 384.85 194.35 391.89 192.5 398.9 190.55 405.73 187.92 412.87 186.44 419.9 184.57 426.91 182.52 434.14 181.48 441.27 180.03 448.27 177.9 455.49 176.82 462.66 175.56 469.78 173.98 477.05 173.36 484.29 172.57 491.45 171.19 498.69 170.3 505.94 169.65 513.21 169.09 520.37 167.46 527.66 167.19 534.97 167.19 542.21 166.36 549.49 165.93 556.78 165.87 563.96 165.8 571.14 165.19 578.34 165.24 585.5 165.93 592.63 166.87 599.84 167.11 606.88 168.66 613.98 169.83 620.77 172.29 627.61 174.44 634.39 176.83 640.82 180.05 647.33 183.16 652.74 187.98 658.5 192.24 663.78 197.12 668.64 202.46 672.7 208.44 675.59 215.06 678.71 221.55 680.3 228.57 682.58 235.42 683.6 242.56 683.91 249.77 683.22 256.94 683.03 264.12 682.45 271.31 680.85 278.34 678.9 285.28 676.67 292.12 673.66 298.66 670.52 305.1 667.81 311.78 663.67 317.67 659.97 323.84 655.65 329.61 650.16 334.3 644.79 339.01 639.24 343.6 632.52 346.13 625.73 348.23 618.85 350.14 611.77 351.12 604.63 351.72 597.5 350.83 590.39 350.53 583.24 350.22 576.31 348.31 569.2 347.57 562.36 345.46 555.24 344.56 548.28 342.92 541.46 340.81 534.61 338.8 527.65 337.18 520.71 335.55 513.93 333.23 506.92 331.75 499.76 331.37 492.69 332.04 485.96 334.03 480.25 338.19 475.91 343.79 470.95 348.89 466.93 354.72 462.51 360.27 458.39 366.04 454.38 371.88 449.92 377.39 445.02 382.52 440.63 388.1 435.59 393.1 429.92 397.4 424.51 401.95 418.99 406.41 412.88 410.02 406.78 413.65 400.13 416.17 393.5 418.63 386.86 421.13 379.93 422.66 372.96 424.09 365.88 424.7 358.79 425 351.69 424.85 344.6 424.21 337.53 423.39 330.5 422.25 323.7 420.11 316.64 418.83 309.98 416.27 303.55 413.18 297.19 409.97 290.82 406.79 284.63 403.26 278.62 399.42 273.24 394.71 267.49 390.5 262.37 385.56 256.98 380.88 252.3 375.5 247.89 369.91 243.46 364.33 239.91 358.15 236.36 352 232.84 345.77 230.89 338.89 228.75 332.13 227.41 325.16 226.28 318.15 226.49 311.05 226.81 303.96 227.53 296.85 230.2 290.22 232.71 283.59 235.75 277.15 239.53 271.1 244.22 265.74 248.69 260.19 254.07 255.52 259.33 250.72 265.21 246.7"/><polyline class="a" points="645.85 182.58 649.41 188.94 652.95 195.31 655.76 202.06 657.09 209.26 659.01 216.33 659.15 223.65 658.88 230.93 658.47 238.17 657.64 245.39 656.75 252.64 654.42 259.56 652.23 266.49 650.23 273.54 647.23 280.21 643.06 286.25 639.42 292.54 635.47 298.66 630.54 304.03 625.81 309.57 620.02 313.98 614.18 318.29 607.67 321.58 600.81 323.57 593.79 324.82 586.76 326.12 579.61 325.76 572.49 325.98 565.38 325.44 558.31 324.61 551.15 324.2 544.26 322.2 537.22 321 530.34 319.11 523.34 317.68 516.38 316.05 509.7 313.41 502.82 311.52 495.88 309.83 488.78 308.88 481.82 307.34 474.74 306.79 467.67 306.93 461 309.1 455.22 313.16 450.9 318.78 446.49 324.29 441.91 329.71 437.88 335.54 433.57 341.16 429.06 346.63 424.84 352.32 420.36 357.82 415.44 362.92 410.54 368.05 405.19 372.71 399.88 377.44 393.98 381.4 387.96 385.17 381.43 387.96 375.18 391.3 368.67 394.14 361.84 396.09 354.81 397.13 347.88 398.57 340.88 399.81 333.77 399.59 326.68 399.95 319.62 398.85 312.56 397.92 305.63 396.27 298.55 395.1 291.83 392.66 284.92 390.78 278.31 388.04 271.67 385.38 265.42 381.87 258.75 379.21 252.86 375.12"/><polyline class="a" points="247.68 397.68 254.1 400.52 260.7 402.95 267.3 405.35 273.81 408.01 280.56 409.98 287.35 411.84 293.96 414.24 300.74 416.12 307.58 417.71 314.4 419.41 321.33 420.58 328.11 422.6 335.1 423.44 342.13 423.79"/><polyline class="a" points="632.33 176.28 625.86 172.78 619.12 169.81 612.12 167.52 605.01 165.61 598.13 162.96 590.95 161.33 583.88 159.34 576.7 157.77 569.59 155.86 562.28 154.89 555.1 153.28 547.87 151.89 540.49 151.58 533.2 150.66 525.95 149.14"/><polygon points="167.85 287.88 173.87 291.02 180.02 294.06 186.22 297.1 192.84 299.06 199.57 300.51 206.22 302.4 213.15 302.3 219.99 302.52 226.83 302.09 228.86 295.1 230.64 288.01 233.62 281.3 227.77 277.7 221.59 274.79 215.25 272.23 208.57 270.68 202.06 268.57 195.37 267.17 188.61 266.04 181.78 265.5 174.65 264.82 172.22 272.71 169.19 280.18 167.85 287.88"/><polygon class="a" points="167.85 287.88 173.87 291.02 180.02 294.06 186.22 297.1 192.84 299.06 199.57 300.51 206.22 302.4 213.15 302.3 219.99 302.52 226.83 302.09 228.86 295.1 230.64 288.01 233.62 281.3 227.77 277.7 221.59 274.79 215.25 272.23 208.57 270.68 202.06 268.57 195.37 267.17 188.61 266.04 181.78 265.5 174.65 264.82 172.22 272.71 169.19 280.18 167.85 287.88"/><polyline class="a" points="488.15 333.02 482.69 328.21 477.06 323.62 471.84 318.54 466.6 313.47 460.78 309.06"/><polyline points="409.69 411.82 404.53 407.41 399.95 402.39 395.01 397.75 390.27 392.89 384.96 388.27 390.45 384.05 396.22 380.66 401.77 376.97 407.05 372.87 412.38 368.85 417.95 365.17 422.43 360.07 426.51 354.67 430.2 348.97 434.05 343.38 438.78 338.46 442.19 332.54 446.2 327.43 450.3 322.35 453.66 316.77 457.37 311.43 464.68 316.06 471.81 320.96 477.21 324.76 482.97 328.05 485.79 333.99"/><polygon points="623.06 312.23 628.57 316.92 634.26 321.77 640.78 325.56 646.2 330.78 652.35 335 655.83 329.08 658.75 322.82 661.81 316.64 665.37 310.72 668.52 304.59 671.49 298.36 674.92 292.36 677.99 286.16 678.95 278.29 679.74 270.41 681.21 262.61 681.66 254.75 680.77 246.88 679.56 239 677.54 231.26 676.73 223.27 672.85 216.6 668.66 210.16 665.13 203.34 659.79 200.97 654.54 199.23 655.05 205.93 656.56 212.73 658.35 219.49 659.01 226.4 658.14 234.3 657.24 242.23 656.14 250.15 654.74 257.94 651.92 264.33 647.76 270.01 644.49 276.24 641.06 282.36 637.3 288.3 633.64 294.29 630.04 300.31 626.71 306.5 623.06 312.23"/><polygon points="171.09 293.27 172.18 299.55 172.6 306.31 173.95 312.93 174.29 319.71 175.55 326.36 176.21 333.21 181.05 338.23 185.32 343.58 189.8 348.76 194.55 353.7 198.86 359.01 203.43 364.11 207.32 369.79 212.05 374.76 216.35 380.18 223.01 382.64 229.26 385.84 235.49 389.07 241.91 391.9 248.15 395.13 254.53 398.05 260.81 401.17 267.46 403.52 273.65 406.88 280.2 410.08 280.41 400.47 275.12 395.58 269.57 391.24 265.13 385.75 259.81 381.17 254.89 376.17 249.73 371.4 244.28 366.89 241.21 359.65 236.67 353.27 233.46 346.16 229.31 339.55 226.33 332.41 225.73 325.69 224.91 318.89 224.44 312.06 224.09 305.21 223.96 298.22 216.22 297.86 208.64 297.19 201.15 295.56 193.54 295.09 185.9 294.94 178.39 293.45 171.09 293.27"/><polygon class="b" points="270.83 317.26 275.57 311.81 280.33 306.38 285.5 301.32 291.17 296.81 296.96 292.47 303.09 288.6 309.49 285.19 316.24 282.56 322.99 280.01 329.91 277.98 336.82 275.77 343.96 274.47 351.19 273.89 358.44 273.98 365.66 274.05 372.88 274.44 380.04 275.46 387.18 276.66 394.15 278.42 389.91 284.24 384.74 289.32 379.63 294.45 374.38 299.5 368.02 303.07 361.87 306.87 355.7 310.65 349.15 313.78 342.31 316.19 335.39 318.33 328.37 320.2 321.09 320.56 313.93 321.62 306.69 322.22 299.45 321.58 292.25 320.89 284.96 320.69 277.96 318.61 270.83 317.26"/><polygon class="a" points="270.83 317.26 275.57 311.81 280.33 306.38 285.5 301.32 291.17 296.81 296.96 292.47 303.09 288.6 309.49 285.19 316.24 282.56 322.99 280.01 329.91 277.98 336.82 275.77 343.96 274.47 351.19 273.89 358.44 273.98 365.66 274.05 372.88 274.44 380.04 275.46 387.18 276.66 394.15 278.42 389.91 284.24 384.74 289.32 379.63 294.45 374.38 299.5 368.02 303.07 361.87 306.87 355.7 310.65 349.15 313.78 342.31 316.19 335.39 318.33 328.37 320.2 321.09 320.56 313.93 321.62 306.69 322.22 299.45 321.58 292.25 320.89 284.96 320.69 277.96 318.61 270.83 317.26"/><polygon class="b" points="495.44 257.13 499.81 251.78 504.71 246.5 509.76 241.32 515.73 237.2 521.29 232.57 527.37 228.63 533.93 225.56 540.53 222.66 547.12 219.67 554.03 217.49 561.06 215.73 568.31 215.24 575.43 213.77 582.68 214.08 589.93 213.54 597.16 214.07 604.28 215.48 611.39 216.81 618.31 218.43 613.69 223.82 609.23 229.54 603.68 234.21 598.35 239.12 592.55 243.48 586.28 247.13 580 250.76 573.21 253.29 566.6 256.3 559.74 258.71 552.63 260.27 545.43 261.28 538.15 261.31 530.93 261.49 523.67 262.17 516.51 260.7 509.32 259.95 502.23 258.47 495.44 257.13"/><polygon class="a" points="495.44 257.13 499.81 251.78 504.71 246.5 509.76 241.32 515.73 237.2 521.29 232.57 527.37 228.63 533.93 225.56 540.53 222.66 547.12 219.67 554.03 217.49 561.06 215.73 568.31 215.24 575.43 213.77 582.68 214.08 589.93 213.54 597.16 214.07 604.28 215.48 611.39 216.81 618.31 218.43 613.69 223.82 609.23 229.54 603.68 234.21 598.35 239.12 592.55 243.48 586.28 247.13 580 250.76 573.21 253.29 566.6 256.3 559.74 258.71 552.63 260.27 545.43 261.28 538.15 261.31 530.93 261.49 523.67 262.17 516.51 260.7 509.32 259.95 502.23 258.47 495.44 257.13"/><polyline class="b" points="302.71 323.9 303.86 330.75 304.53 337.68 306.29 344.42 308 351.18 308.94 358.48 300.49 354.6 291.93 351.14 294.44 358.39 296.81 365.38 299.87 372.13 302.19 379.14"/><polyline class="a" points="302.71 323.9 303.86 330.75 304.53 337.68 306.29 344.42 308 351.18 308.94 358.48 300.49 354.6 291.93 351.14 294.44 358.39 296.81 365.38 299.87 372.13 302.19 379.14"/><polyline class="b" points="345.2 330.13 348.35 338.45 351.56 346.97 344.69 347.1 337.65 346.64 342.54 353.39 347.57 359.55 352.48 365.82 357.43 372.06"/><polyline class="a" points="345.2 330.13 348.35 338.45 351.56 346.97 344.69 347.1 337.65 346.64 342.54 353.39 347.57 359.55 352.48 365.82 357.43 372.06"/><polyline class="b" points="376.07 302.26 381.25 308.33 386.26 314.55 391.46 320.62 396.73 326.93 388.95 328.64 381.53 329.86 385.99 335.21 391.63 339.76 396.62 344.94 401.57 350.17"/><polyline class="a" points="376.07 302.26 381.25 308.33 386.26 314.55 391.46 320.62 396.73 326.93 388.95 328.64 381.53 329.86 385.99 335.21 391.63 339.76 396.62 344.94 401.57 350.17"/><polyline points="553.02 257.37 556.25 251.39 560.17 245.87 565.05 241.14 570.97 237.75 577.6 236.17 584.34 236.75 591.13 237.52 597.24 240.58"/><polyline class="a" points="553.02 257.37 556.25 251.39 560.17 245.87 565.05 241.14 570.97 237.75 577.6 236.17 584.34 236.75 591.13 237.52 597.24 240.58"/><polygon class="b" points="238.93 387.46 231.88 387.41 224.76 387.29 217.64 387.35 210.52 387.52 203.39 387.44 196.29 386.7 189.21 386.04 182.07 386.09 174.99 385.3 167.87 385.02 160.83 383.84 153.68 383.7 146.72 382.03 139.61 381.4 132.55 380.43 125.61 378.77 118.6 377.51 111.5 376.62 104.59 374.81 97.81 372.59 91.24 370.3 90.13 363.08 88.87 355.72 87.99 348.3 88.17 340.81 88.27 333.35 88.26 325.87 89.42 318.48 90.77 311.14 91.63 303.66 94.63 296.75 97.01 289.68 104.21 291 111.3 292.81 118.4 294.6 125.66 295.7 132.82 297.17 139.91 299.07 147.16 300.11 154.33 301.64 161.59 302.71 168.65 304.81 175.99 305.39 183.22 306.51 190.47 307.55 197.75 308.27 205.45 307.62 204.52 314.7 204.7 321.63 205.12 328.56 206.25 335.43 208.42 342.04 210.29 348.75 213.8 354.79 216.8 361.04 220.42 366.96 224.87 372.28 228.84 378.01 233.58 383.12 238.93 387.46"/><polygon class="a" points="238.93 387.46 231.88 387.41 224.76 387.29 217.64 387.35 210.52 387.52 203.39 387.44 196.29 386.7 189.21 386.04 182.07 386.09 174.99 385.3 167.87 385.02 160.83 383.84 153.68 383.7 146.72 382.03 139.61 381.4 132.55 380.43 125.61 378.77 118.6 377.51 111.5 376.62 104.59 374.81 97.81 372.59 91.24 370.3 90.13 363.08 88.87 355.72 87.99 348.3 88.17 340.81 88.27 333.35 88.26 325.87 89.42 318.48 90.77 311.14 91.63 303.66 94.63 296.75 97.01 289.68 104.21 291 111.3 292.81 118.4 294.6 125.66 295.7 132.82 297.17 139.91 299.07 147.16 300.11 154.33 301.64 161.59 302.71 168.65 304.81 175.99 305.39 183.22 306.51 190.47 307.55 197.75 308.27 205.45 307.62 204.52 314.7 204.7 321.63 205.12 328.56 206.25 335.43 208.42 342.04 210.29 348.75 213.8 354.79 216.8 361.04 220.42 366.96 224.87 372.28 228.84 378.01 233.58 383.12 238.93 387.46"/><polygon class="b" points="706.63 511.76 705.04 519.29 699.5 524.76 692 527.1 684.59 524.6 679.23 519.14 676.94 511.76 678.69 504.69 681.17 497.8 684.7 491.37 688.39 485.06 692 478.76 695.32 485.22 699.02 491.52 702.04 498.16 705.37 504.67 706.63 511.76"/><polygon class="a" points="706.63 511.76 705.04 519.29 699.5 524.76 692 527.1 684.59 524.6 679.23 519.14 676.94 511.76 678.69 504.69 681.17 497.8 684.7 491.37 688.39 485.06 692 478.76 695.32 485.22 699.02 491.52 702.04 498.16 705.37 504.67 706.63 511.76"/><polygon class="b" points="626.48 511.76 624.14 519.35 618.58 524.9 611 526.73 603.31 525.09 597.72 519.43 596.35 511.76 597.59 504.66 600.35 497.88 603.59 491.31 607.07 484.88 611 478.26 614.39 485.19 618.17 491.44 621.71 497.85 624.39 504.66 626.48 511.76"/><polygon class="a" points="626.48 511.76 624.14 519.35 618.58 524.9 611 526.73 603.31 525.09 597.72 519.43 596.35 511.76 597.59 504.66 600.35 497.88 603.59 491.31 607.07 484.88 611 478.26 614.39 485.19 618.17 491.44 621.71 497.85 624.39 504.66 626.48 511.76"/><polygon class="b" points="706.92 439.98 705.04 447.5 699.6 453.13 692 454.97 684.42 453.11 678.83 447.58 677.14 439.98 678.93 433 681.56 426.19 685.2 419.85 688.13 413.13 692 406.78 695.33 413.43 699.33 419.57 702.71 426.06 705.32 432.9 706.92 439.98"/><polygon class="a" points="706.92 439.98 705.04 447.5 699.6 453.13 692 454.97 684.42 453.11 678.83 447.58 677.14 439.98 678.93 433 681.56 426.19 685.2 419.85 688.13 413.13 692 406.78 695.33 413.43 699.33 419.57 702.71 426.06 705.32 432.9 706.92 439.98"/><polygon class="b" points="666.48 475.87 664.65 483.46 659.15 489.12 651.5 491.24 643.82 489.17 638.68 483.27 636.85 475.87 637.84 468.67 641.07 462.09 644.35 455.55 647.41 448.9 651.5 442.85 655.55 448.92 658.31 455.73 662 462.05 664.44 468.93 666.48 475.87"/><polygon class="a" points="666.48 475.87 664.65 483.46 659.15 489.12 651.5 491.24 643.82 489.17 638.68 483.27 636.85 475.87 637.84 468.67 641.07 462.09 644.35 455.55 647.41 448.9 651.5 442.85 655.55 448.92 658.31 455.73 662 462.05 664.44 468.93 666.48 475.87"/><polygon class="b" points="626.22 439.98 624.08 447.52 618.39 452.77 611 455.05 603.52 452.94 597.82 447.58 596.41 439.98 597.3 432.76 600.54 426.18 603.66 419.56 606.92 413.01 611 406.69 614.7 413.23 618.17 419.65 621.67 426.07 624.21 432.94 626.22 439.98"/><polygon class="a" points="626.22 439.98 624.08 447.52 618.39 452.77 611 455.05 603.52 452.94 597.82 447.58 596.41 439.98 597.3 432.76 600.54 426.18 603.66 419.56 606.92 413.01 611 406.69 614.7 413.23 618.17 419.65 621.67 426.07 624.21 432.94 626.22 439.98"/><polygon class="b" points="706.52 583.55 704.74 590.9 699.43 596.41 692 599.03 684.69 596.21 679.35 590.86 677.29 583.55 679.09 576.63 681.28 569.63 684.72 563.17 688.27 556.78 692 550.55 695.64 556.83 699.14 563.24 702.04 569.95 704.85 576.65 706.52 583.55"/><polygon class="a" points="706.52 583.55 704.74 590.9 699.43 596.41 692 599.03 684.69 596.21 679.35 590.86 677.29 583.55 679.09 576.63 681.28 569.63 684.72 563.17 688.27 556.78 692 550.55 695.64 556.83 699.14 563.24 702.04 569.95 704.85 576.65 706.52 583.55"/><polygon class="b" points="626.01 583.55 623.7 590.88 618.28 596.16 611 598.29 603.27 596.95 598.39 590.83 595.61 583.55 597.46 576.39 600.2 569.6 603.58 563.1 607.7 557.02 611 550.31 615.03 556.62 618.44 563.09 621.06 569.94 624.38 576.45 626.01 583.55"/><polygon class="a" points="626.01 583.55 623.7 590.88 618.28 596.16 611 598.29 603.27 596.95 598.39 590.83 595.61 583.55 597.46 576.39 600.2 569.6 603.58 563.1 607.7 557.02 611 550.31 615.03 556.62 618.44 563.09 621.06 569.94 624.38 576.45 626.01 583.55"/><polygon class="b" points="706.95 511.76 704.8 519.16 699.32 524.44 692 526.93 684.48 524.79 678.66 519.47 676.77 511.76 678.8 504.74 681.57 497.98 684.75 491.4 688.76 485.27 692 479.18 695.63 485.05 699.56 491.24 702.15 498.11 704.93 504.83 706.95 511.76"/><polygon class="a" points="706.95 511.76 704.8 519.16 699.32 524.44 692 526.93 684.48 524.79 678.66 519.47 676.77 511.76 678.8 504.74 681.57 497.98 684.75 491.4 688.76 485.27 692 479.18 695.63 485.05 699.56 491.24 702.15 498.11 704.93 504.83 706.95 511.76"/><polygon class="b" points="666.06 547.66 664.82 555.35 659.18 560.97 651.5 562.24 643.92 560.79 638.78 555 636.58 547.66 637.86 540.46 641.21 533.94 644.06 527.19 648.26 521.16 651.5 514.26 654.77 521.14 658.46 527.45 661.86 533.9 664.64 540.65 666.06 547.66"/><polygon class="a" points="666.06 547.66 664.82 555.35 659.18 560.97 651.5 562.24 643.92 560.79 638.78 555 636.58 547.66 637.86 540.46 641.21 533.94 644.06 527.19 648.26 521.16 651.5 514.26 654.77 521.14 658.46 527.45 661.86 533.9 664.64 540.65 666.06 547.66"/><polygon class="b" points="625.93 511.76 623.67 519.08 618.75 525.18 611 526.47 603.62 524.55 597.61 519.5 595.86 511.76 597.35 504.57 600.91 498.14 603.47 491.25 607.13 484.91 611 478.45 614.96 484.87 618.18 491.43 621.31 498.04 623.94 504.83 625.93 511.76"/><polygon class="a" points="625.93 511.76 623.67 519.08 618.75 525.18 611 526.47 603.62 524.55 597.61 519.5 595.86 511.76 597.35 504.57 600.91 498.14 603.47 491.25 607.13 484.91 611 478.45 614.96 484.87 618.18 491.43 621.31 498.04 623.94 504.83 625.93 511.76"/><polygon class="b" points="625.9 655.34 624 662.85 618.53 668.38 611 669.91 603.58 668.19 598.26 662.7 595.6 655.34 597.91 648.35 600.75 641.64 603.92 635.06 607.14 628.5 611 621.82 614.27 628.83 617.88 635.17 620.96 641.78 624.59 648.16 625.9 655.34"/><polygon class="a" points="625.9 655.34 624 662.85 618.53 668.38 611 669.91 603.58 668.19 598.26 662.7 595.6 655.34 597.91 648.35 600.75 641.64 603.92 635.06 607.14 628.5 611 621.82 614.27 628.83 617.88 635.17 620.96 641.78 624.59 648.16 625.9 655.34"/><polygon class="b" points="706.9 583.55 704.65 590.85 699.65 596.81 692 598.35 684.38 596.75 679.26 590.91 677.08 583.55 678.7 576.49 681.98 569.97 685.03 563.33 688.54 556.94 692 550.38 695.98 556.65 699.45 563.08 702.47 569.75 705.45 576.43 706.9 583.55"/><polygon class="a" points="706.9 583.55 704.65 590.85 699.65 596.81 692 598.35 684.38 596.75 679.26 590.91 677.08 583.55 678.7 576.49 681.98 569.97 685.03 563.33 688.54 556.94 692 550.38 695.98 556.65 699.45 563.08 702.47 569.75 705.45 576.43 706.9 583.55"/><polygon class="b" points="666.37 619.45 664.07 626.7 658.76 632.03 651.5 634.54 644.21 632.07 638.17 627.14 636.96 619.45 637.82 612.24 641.48 605.86 644.49 599.21 648.05 592.84 651.5 586.68 654.97 592.82 658.69 599.11 661.9 605.67 664.44 612.51 666.37 619.45"/><polygon class="a" points="666.37 619.45 664.07 626.7 658.76 632.03 651.5 634.54 644.21 632.07 638.17 627.14 636.96 619.45 637.82 612.24 641.48 605.86 644.49 599.21 648.05 592.84 651.5 586.68 654.97 592.82 658.69 599.11 661.9 605.67 664.44 612.51 666.37 619.45"/><polygon class="b" points="626.08 583.55 624.18 591.16 618.49 596.52 611 598.08 603.43 596.67 598.24 590.92 596.44 583.55 598.01 576.6 600.64 569.81 603.79 563.21 607.68 557.01 611 550.04 614.25 557.05 617.88 563.38 621.17 569.89 624.09 576.56 626.08 583.55"/><polygon class="a" points="626.08 583.55 624.18 591.16 618.49 596.52 611 598.08 603.43 596.67 598.24 590.92 596.44 583.55 598.01 576.6 600.64 569.81 603.79 563.21 607.68 557.01 611 550.04 614.25 557.05 617.88 563.38 621.17 569.89 624.09 576.56 626.08 583.55"/><polygon class="b" points="626.05 655.34 623.96 662.82 618.35 668.08 611 670.3 603.64 668.09 597.88 662.91 596.39 655.34 597.59 648.23 600.49 641.52 603.83 635.01 607.24 628.55 611 622.64 614.57 628.66 618.55 634.82 621.11 641.7 624.04 648.37 626.05 655.34"/><polygon class="a" points="626.05 655.34 623.96 662.82 618.35 668.08 611 670.3 603.64 668.09 597.88 662.91 596.39 655.34 597.59 648.23 600.49 641.52 603.83 635.01 607.24 628.55 611 622.64 614.57 628.66 618.55 634.82 621.11 641.7 624.04 648.37 626.05 655.34"/><polygon class="b" points="626.44 511.76 624.11 519.33 618.73 525.15 611 527.16 603.25 525.18 598.18 519.16 596.42 511.76 597.55 504.64 600.87 498.13 603.63 491.33 607.05 484.87 611 478.66 614.35 485.21 618.2 491.43 621.35 498.02 624.22 504.73 626.44 511.76"/><polygon class="a" points="626.44 511.76 624.11 519.33 618.73 525.15 611 527.16 603.25 525.18 598.18 519.16 596.42 511.76 597.55 504.64 600.87 498.13 603.63 491.33 607.05 484.87 611 478.66 614.35 485.21 618.2 491.43 621.35 498.02 624.22 504.73 626.44 511.76"/><polygon class="b" points="544.86 511.76 542.67 519.08 537.27 524.35 530 527.13 522.54 524.68 516.97 519.29 514.58 511.76 517.04 504.82 519.32 497.87 523.24 491.65 525.99 484.84 530 478.45 533.52 485.12 537.34 491.35 540.71 497.85 542.87 504.86 544.86 511.76"/><polygon class="a" points="544.86 511.76 542.67 519.08 537.27 524.35 530 527.13 522.54 524.68 516.97 519.29 514.58 511.76 517.04 504.82 519.32 497.87 523.24 491.65 525.99 484.84 530 478.45 533.52 485.12 537.34 491.35 540.71 497.85 542.87 504.86 544.86 511.76"/><polygon class="b" points="625.78 439.98 624.17 447.58 618.35 452.71 611 455.28 603.72 452.58 598.19 447.37 595.95 439.98 597.52 432.84 601.03 426.41 604.28 419.89 607.77 413.48 611 406.84 614.46 413.36 618.17 419.65 621.59 426.11 624.22 432.94 625.78 439.98"/><polygon class="a" points="625.78 439.98 624.17 447.58 618.35 452.71 611 455.28 603.72 452.58 598.19 447.37 595.95 439.98 597.52 432.84 601.03 426.41 604.28 419.89 607.77 413.48 611 406.84 614.46 413.36 618.17 419.65 621.59 426.11 624.22 432.94 625.78 439.98"/><polygon class="b" points="585.94 475.87 583.41 483.32 578.01 488.87 570.5 490.79 562.97 488.9 557.65 483.29 555.23 475.87 557.55 468.93 560.36 462.23 563.62 455.7 567.1 449.29 570.5 442.9 574 449.23 577.89 455.43 581.17 461.97 583.66 468.85 585.94 475.87"/><polygon class="a" points="585.94 475.87 583.41 483.32 578.01 488.87 570.5 490.79 562.97 488.9 557.65 483.29 555.23 475.87 557.55 468.93 560.36 462.23 563.62 455.7 567.1 449.29 570.5 442.9 574 449.23 577.89 455.43 581.17 461.97 583.66 468.85 585.94 475.87"/><polygon class="b" points="544.65 439.98 543.34 447.68 537.36 452.73 530 454.54 522.55 452.87 516.77 447.61 515.43 439.98 516.38 432.79 519.67 426.24 522.7 419.58 526.54 413.36 530 406.8 533.91 413.1 537.04 419.72 540.07 426.36 543.33 432.9 544.65 439.98"/><polygon class="a" points="544.65 439.98 543.34 447.68 537.36 452.73 530 454.54 522.55 452.87 516.77 447.61 515.43 439.98 516.38 432.79 519.67 426.24 522.7 419.58 526.54 413.36 530 406.8 533.91 413.1 537.04 419.72 540.07 426.36 543.33 432.9 544.65 439.98"/><polygon class="b" points="625.75 583.55 624.31 591.24 618.57 596.67 611 598.19 603.33 596.84 598.11 590.99 595.96 583.55 598.03 576.61 600.85 569.9 604.01 563.32 607.21 556.75 611 550.09 614.96 556.65 618.34 563.14 621.76 569.61 624.64 576.36 625.75 583.55"/><polygon class="a" points="625.75 583.55 624.31 591.24 618.57 596.67 611 598.19 603.33 596.84 598.11 590.99 595.96 583.55 598.03 576.61 600.85 569.9 604.01 563.32 607.21 556.75 611 550.09 614.96 556.65 618.34 563.14 621.76 569.61 624.64 576.36 625.75 583.55"/><polygon class="b" points="545.4 583.55 542.88 590.99 537.27 596.15 530 598.45 522.34 596.82 516.6 591.29 514.75 583.55 516.56 576.43 519.46 569.72 523.11 563.38 526.54 556.93 530 550.32 533.51 556.9 536.74 563.45 540.24 569.86 543.69 576.34 545.4 583.55"/><polygon class="a" points="545.4 583.55 542.88 590.99 537.27 596.15 530 598.45 522.34 596.82 516.6 591.29 514.75 583.55 516.56 576.43 519.46 569.72 523.11 563.38 526.54 556.93 530 550.32 533.51 556.9 536.74 563.45 540.24 569.86 543.69 576.34 545.4 583.55"/><polygon class="b" points="625.52 511.76 623.76 519.13 618.5 524.75 611 526.69 603.37 524.98 597.79 519.39 595.9 511.76 597.56 504.65 600.14 497.78 603.42 491.23 607.4 485.07 611 478.77 614.83 484.94 618.42 491.31 621.43 497.98 624.02 504.8 625.52 511.76"/><polygon class="a" points="625.52 511.76 623.76 519.13 618.5 524.75 611 526.69 603.37 524.98 597.79 519.39 595.9 511.76 597.56 504.65 600.14 497.78 603.42 491.23 607.4 485.07 611 478.77 614.83 484.94 618.42 491.31 621.43 497.98 624.02 504.8 625.52 511.76"/><polygon class="b" points="585.63 547.66 583.41 555.11 578.12 560.86 570.5 563.09 563.01 560.63 557.3 555.28 555.76 547.66 557.2 540.59 559.85 533.77 563.57 527.46 566.68 520.84 570.5 514.96 574.44 520.77 577.29 527.53 580.84 533.91 583.93 540.54 585.63 547.66"/><polygon class="a" points="585.63 547.66 583.41 555.11 578.12 560.86 570.5 563.09 563.01 560.63 557.3 555.28 555.76 547.66 557.2 540.59 559.85 533.77 563.57 527.46 566.68 520.84 570.5 514.96 574.44 520.77 577.29 527.53 580.84 533.91 583.93 540.54 585.63 547.66"/><polygon class="b" points="545.25 511.76 542.87 519.19 537.31 524.43 530 526.4 522.72 524.37 517.33 519.08 514.61 511.76 517.16 504.87 519.61 498 522.48 491.26 526.15 484.93 530 478.61 534.04 484.82 537.55 491.24 540.49 497.95 543.65 504.56 545.25 511.76"/><polygon class="a" points="545.25 511.76 542.87 519.19 537.31 524.43 530 526.4 522.72 524.37 517.33 519.08 514.61 511.76 517.16 504.87 519.61 498 522.48 491.26 526.15 484.93 530 478.61 534.04 484.82 537.55 491.24 540.49 497.95 543.65 504.56 545.25 511.76"/><polygon class="b" points="625.76 655.34 623.95 662.82 618.45 668.25 611 670.02 603.38 668.54 597.9 662.9 595.76 655.34 597.47 648.19 600.49 641.52 603.77 634.98 607.59 628.75 611 621.97 614.62 628.63 618.41 634.89 621.07 641.72 624.46 648.21 625.76 655.34"/><polygon class="a" points="625.76 655.34 623.95 662.82 618.45 668.25 611 670.02 603.38 668.54 597.9 662.9 595.76 655.34 597.47 648.19 600.49 641.52 603.77 634.98 607.59 628.75 611 621.97 614.62 628.63 618.41 634.89 621.07 641.72 624.46 648.21 625.76 655.34"/><polygon class="b" points="545.26 655.34 542.82 662.74 537.58 668.47 530 670.32 522.36 668.57 516.69 663.02 514.66 655.34 516.7 648.27 519.68 641.61 522.43 634.81 526.12 628.49 530 622.39 534.01 628.42 537.35 634.92 540.45 641.55 543.12 648.34 545.26 655.34"/><polygon class="a" points="545.26 655.34 542.82 662.74 537.58 668.47 530 670.32 522.36 668.57 516.69 663.02 514.66 655.34 516.7 648.27 519.68 641.61 522.43 634.81 526.12 628.49 530 622.39 534.01 628.42 537.35 634.92 540.45 641.55 543.12 648.34 545.26 655.34"/><polygon class="b" points="625.97 583.55 623.68 590.87 618.33 596.25 611 598.15 603.6 596.38 597.75 591.2 595.54 583.55 597.61 576.45 600.33 569.66 604.13 563.39 607.23 556.76 611 550.09 614.85 556.72 617.72 563.47 621.53 569.72 624.67 576.34 625.97 583.55"/><polygon class="a" points="625.97 583.55 623.68 590.87 618.33 596.25 611 598.15 603.6 596.38 597.75 591.2 595.54 583.55 597.61 576.45 600.33 569.66 604.13 563.39 607.23 556.76 611 550.09 614.85 556.72 617.72 563.47 621.53 569.72 624.67 576.34 625.97 583.55"/><polygon class="b" points="585.1 619.45 583.26 626.81 577.87 632.21 570.5 634.05 563.13 632.21 557.08 627.19 555.55 619.45 557.38 612.45 560.32 605.78 563.64 599.28 566.59 592.58 570.5 586.64 573.91 592.86 577.51 599.2 580.77 605.73 584.11 612.26 585.1 619.45"/><polygon class="a" points="585.1 619.45 583.26 626.81 577.87 632.21 570.5 634.05 563.13 632.21 557.08 627.19 555.55 619.45 557.38 612.45 560.32 605.78 563.64 599.28 566.59 592.58 570.5 586.64 573.91 592.86 577.51 599.2 580.77 605.73 584.11 612.26 585.1 619.45"/><polygon class="b" points="545.22 583.55 542.75 590.91 537.33 596.25 530 598.06 522.68 596.22 517.36 590.85 515.36 583.55 516.99 576.59 519.42 569.7 523.19 563.42 526.18 556.73 530 550.96 533.56 556.88 536.98 563.33 540.57 569.7 542.92 576.63 545.22 583.55"/><polygon class="a" points="545.22 583.55 542.75 590.91 537.33 596.25 530 598.06 522.68 596.22 517.36 590.85 515.36 583.55 516.99 576.59 519.42 569.7 523.19 563.42 526.18 556.73 530 550.96 533.56 556.88 536.98 563.33 540.57 569.7 542.92 576.63 545.22 583.55"/><polygon class="b" points="626.13 655.34 624 662.84 618.26 667.92 611 669.9 603.73 667.94 598.3 662.67 596.28 655.34 597.68 648.27 600.76 641.65 603.66 634.92 607.67 628.8 611 621.81 614.92 628.47 618.32 634.94 621.43 641.55 624.47 648.21 626.13 655.34"/><polygon class="a" points="626.13 655.34 624 662.84 618.26 667.92 611 669.9 603.73 667.94 598.3 662.67 596.28 655.34 597.68 648.27 600.76 641.65 603.66 634.92 607.67 628.8 611 621.81 614.92 628.47 618.32 634.94 621.43 641.55 624.47 648.21 626.13 655.34"/><polygon class="b" points="585.25 691.23 583.6 698.8 578.05 704.32 570.5 706.41 563.02 704.19 557.91 698.5 555.92 691.23 557.12 684.14 560.1 677.47 563.21 670.85 567.12 664.66 570.5 658.46 574.15 664.51 578 670.74 580.95 677.44 584.23 684.01 585.25 691.23"/><polygon class="a" points="585.25 691.23 583.6 698.8 578.05 704.32 570.5 706.41 563.02 704.19 557.91 698.5 555.92 691.23 557.12 684.14 560.1 677.47 563.21 670.85 567.12 664.66 570.5 658.46 574.15 664.51 578 670.74 580.95 677.44 584.23 684.01 585.25 691.23"/><polygon class="b" points="545.49 655.34 543.1 662.9 537.37 668.11 530 670.64 522.71 667.97 516.83 662.95 515.3 655.34 517.05 648.4 519.44 641.5 522.47 634.83 526.72 628.82 530 621.99 533.95 628.45 536.97 635.12 540.04 641.74 542.84 648.44 545.49 655.34"/><polygon class="a" points="545.49 655.34 543.1 662.9 537.37 668.11 530 670.64 522.71 667.97 516.83 662.95 515.3 655.34 517.05 648.4 519.44 641.5 522.47 634.83 526.72 628.82 530 621.99 533.95 628.45 536.97 635.12 540.04 641.74 542.84 648.44 545.49 655.34"/><polygon class="b" points="544.6 511.76 542.93 519.23 537.61 524.94 530 526.52 522.35 525.01 516.79 519.39 515.44 511.76 516.5 504.63 519.9 498.14 523.1 491.58 525.92 484.8 530 478.31 533.55 485.1 537.27 491.39 539.98 498.19 542.9 504.85 544.6 511.76"/><polygon class="a" points="544.6 511.76 542.93 519.23 537.61 524.94 530 526.52 522.35 525.01 516.79 519.39 515.44 511.76 516.5 504.63 519.9 498.14 523.1 491.58 525.92 484.8 530 478.31 533.55 485.1 537.27 491.39 539.98 498.19 542.9 504.85 544.6 511.76"/><polygon class="b" points="464.1 511.76 461.76 519.13 456.31 524.42 449 526.43 441.5 524.76 435.91 519.32 433.53 511.76 436.13 504.86 438.91 498.14 442.03 491.55 444.92 484.8 449 478.87 452.9 484.9 456.03 491.51 459.52 497.93 462.63 504.57 464.1 511.76"/><polygon class="a" points="464.1 511.76 461.76 519.13 456.31 524.42 449 526.43 441.5 524.76 435.91 519.32 433.53 511.76 436.13 504.86 438.91 498.14 442.03 491.55 444.92 484.8 449 478.87 452.9 484.9 456.03 491.51 459.52 497.93 462.63 504.57 464.1 511.76"/><polygon class="b" points="544.58 439.98 543.3 447.65 537.62 453.17 530 454.77 522.26 453.38 517.39 447.25 514.55 439.98 516.77 432.94 519.66 426.24 522.97 419.72 525.97 413.04 530 406.53 533.77 413.18 536.75 419.87 540.37 426.22 543.72 432.75 544.58 439.98"/><polygon class="a" points="544.58 439.98 543.3 447.65 537.62 453.17 530 454.77 522.26 453.38 517.39 447.25 514.55 439.98 516.77 432.94 519.66 426.24 522.97 419.72 525.97 413.04 530 406.53 533.77 413.18 536.75 419.87 540.37 426.22 543.72 432.75 544.58 439.98"/><polygon class="b" points="504.65 475.87 502.19 483.19 497.2 489.21 489.5 490.81 481.87 489.09 476.5 483.37 474.37 475.87 476.61 468.95 479.19 462.15 482.37 455.57 486.05 449.26 489.5 442.66 493.06 449.2 496.85 455.45 499.66 462.21 502.5 468.91 504.65 475.87"/><polygon class="a" points="504.65 475.87 502.19 483.19 497.2 489.21 489.5 490.81 481.87 489.09 476.5 483.37 474.37 475.87 476.61 468.95 479.19 462.15 482.37 455.57 486.05 449.26 489.5 442.66 493.06 449.2 496.85 455.45 499.66 462.21 502.5 468.91 504.65 475.87"/><polygon class="b" points="545.27 583.55 542.83 590.96 537.72 596.92 530 598.83 522.72 596.16 517.07 591.01 515.39 583.55 516.71 576.49 519.31 569.65 522.55 563.08 525.96 556.61 530 550.55 533.37 556.99 536.98 563.33 540.59 569.69 542.83 576.66 545.27 583.55"/><polygon class="a" points="545.27 583.55 542.83 590.96 537.72 596.92 530 598.83 522.72 596.16 517.07 591.01 515.39 583.55 516.71 576.49 519.31 569.65 522.55 563.08 525.96 556.61 530 550.55 533.37 556.99 536.98 563.33 540.59 569.69 542.83 576.66 545.27 583.55"/><polygon class="b" points="463.63 583.55 461.86 590.98 456.71 596.91 449 598.34 441.46 596.61 435.84 591.15 433.68 583.55 435.32 576.34 438.32 569.65 442.05 563.34 445.51 556.92 449 550.82 452.83 556.73 456.51 563.05 459.44 569.76 462.62 576.36 463.63 583.55"/><polygon class="a" points="463.63 583.55 461.86 590.98 456.71 596.91 449 598.34 441.46 596.61 435.84 591.15 433.68 583.55 435.32 576.34 438.32 569.65 442.05 563.34 445.51 556.92 449 550.82 452.83 556.73 456.51 563.05 459.44 569.76 462.62 576.36 463.63 583.55"/><polygon class="b" points="545.04 511.76 542.86 519.19 537.58 524.89 530 526.33 522.54 524.69 516.6 519.5 515.06 511.76 516.63 504.67 519.49 497.95 522.84 491.44 525.96 484.82 530 478.99 533.35 485.21 536.92 491.57 540.1 498.13 543.33 504.69 545.04 511.76"/><polygon class="a" points="545.04 511.76 542.86 519.19 537.58 524.89 530 526.33 522.54 524.69 516.6 519.5 515.06 511.76 516.63 504.67 519.49 497.95 522.84 491.44 525.96 484.82 530 478.99 533.35 485.21 536.92 491.57 540.1 498.13 543.33 504.69 545.04 511.76"/><polygon class="b" points="504.79 547.66 502.88 555.38 497 560.65 489.5 562.93 481.76 561.05 476.85 554.96 474.29 547.66 476.49 540.7 479.03 533.86 482.22 527.28 485.78 520.89 489.5 514.34 492.73 521.17 496.25 527.55 500.08 533.8 502.9 540.55 504.79 547.66"/><polygon class="a" points="504.79 547.66 502.88 555.38 497 560.65 489.5 562.93 481.76 561.05 476.85 554.96 474.29 547.66 476.49 540.7 479.03 533.86 482.22 527.28 485.78 520.89 489.5 514.34 492.73 521.17 496.25 527.55 500.08 533.8 502.9 540.55 504.79 547.66"/><polygon class="b" points="464.05 511.76 462.13 519.34 456.37 524.52 449 527.21 441.39 524.95 436.03 519.25 434.12 511.76 435.93 504.78 438.22 497.82 441.91 491.48 445 484.84 449 478.96 452.23 485.27 456.02 491.52 459.64 497.88 462.55 504.6 464.05 511.76"/><polygon class="a" points="464.05 511.76 462.13 519.34 456.37 524.52 449 527.21 441.39 524.95 436.03 519.25 434.12 511.76 435.93 504.78 438.22 497.82 441.91 491.48 445 484.84 449 478.96 452.23 485.27 456.02 491.52 459.64 497.88 462.55 504.6 464.05 511.76"/><polygon class="b" points="544.69 655.34 542.77 662.71 537.74 668.75 530 670.24 522.64 668.08 517.12 662.77 515.49 655.34 516.75 648.29 519.43 641.5 522.66 634.93 526.32 628.6 530 622.12 534.03 628.4 537.57 634.81 540.32 641.61 542.99 648.39 544.69 655.34"/><polygon class="a" points="544.69 655.34 542.77 662.71 537.74 668.75 530 670.24 522.64 668.08 517.12 662.77 515.49 655.34 516.75 648.29 519.43 641.5 522.66 634.93 526.32 628.6 530 622.12 534.03 628.4 537.57 634.81 540.32 641.61 542.99 648.39 544.69 655.34"/><polygon class="b" points="464.22 655.34 461.65 662.64 456.27 667.93 449 670.45 441.31 668.65 436.12 662.77 433.6 655.34 436.17 648.45 438.52 641.54 441.6 634.89 445.08 628.47 449 622.79 452.67 628.61 456.4 634.89 459.82 641.37 462.62 648.15 464.22 655.34"/><polygon class="a" points="464.22 655.34 461.65 662.64 456.27 667.93 449 670.45 441.31 668.65 436.12 662.77 433.6 655.34 436.17 648.45 438.52 641.54 441.6 634.89 445.08 628.47 449 622.79 452.67 628.61 456.4 634.89 459.82 641.37 462.62 648.15 464.22 655.34"/><polygon class="b" points="545.14 583.55 543.13 591.13 537.64 596.78 530 598.1 522.3 596.88 516.81 591.17 514.56 583.55 517.08 576.63 519.26 569.63 522.62 563.12 526.18 556.73 530 550.45 533.51 556.91 536.85 563.4 540.76 569.61 542.91 576.63 545.14 583.55"/><polygon class="a" points="545.14 583.55 543.13 591.13 537.64 596.78 530 598.1 522.3 596.88 516.81 591.17 514.56 583.55 517.08 576.63 519.26 569.63 522.62 563.12 526.18 556.73 530 550.45 533.51 556.91 536.85 563.4 540.76 569.61 542.91 576.63 545.14 583.55"/><polygon class="b" points="504.78 619.45 502.67 627.05 496.99 632.42 489.5 634.58 482.2 632.09 476.29 627.07 474.51 619.45 476.48 612.48 479.32 605.78 481.97 598.93 485.69 592.63 489.5 586.55 493.3 592.64 496.5 599.21 500.12 605.57 503.07 612.28 504.78 619.45"/><polygon class="a" points="504.78 619.45 502.67 627.05 496.99 632.42 489.5 634.58 482.2 632.09 476.29 627.07 474.51 619.45 476.48 612.48 479.32 605.78 481.97 598.93 485.69 592.63 489.5 586.55 493.3 592.64 496.5 599.21 500.12 605.57 503.07 612.28 504.78 619.45"/><polygon class="b" points="463.75 583.55 462.24 591.2 456.4 596.36 449 598.07 441.33 596.84 436.34 590.86 434.23 583.55 435.71 576.49 438.43 569.7 442.12 563.38 445.26 556.78 449 550.52 452.54 556.89 456.36 563.13 459.78 569.6 462.63 576.36 463.75 583.55"/><polygon class="a" points="463.75 583.55 462.24 591.2 456.4 596.36 449 598.07 441.33 596.84 436.34 590.86 434.23 583.55 435.71 576.49 438.43 569.7 442.12 563.38 445.26 556.78 449 550.52 452.54 556.89 456.36 563.13 459.78 569.6 462.63 576.36 463.75 583.55"/><polygon class="b" points="544.72 655.34 543.1 662.9 537.25 667.9 530 669.86 522.31 668.65 517.13 662.77 515.31 655.34 517.02 648.39 519.73 641.64 522.96 635.08 526.28 628.58 530 622.25 533.87 628.49 537.1 635.05 540.52 641.51 543.33 648.26 544.72 655.34"/><polygon class="a" points="544.72 655.34 543.1 662.9 537.25 667.9 530 669.86 522.31 668.65 517.13 662.77 515.31 655.34 517.02 648.39 519.73 641.64 522.96 635.08 526.28 628.58 530 622.25 533.87 628.49 537.1 635.05 540.52 641.51 543.33 648.26 544.72 655.34"/><polygon class="b" points="504.9 691.23 502.4 698.68 497.25 704.66 489.5 706.73 482.15 703.97 476.85 698.54 474.71 691.23 475.87 684.04 479.15 677.49 482.24 670.86 485.56 664.35 489.5 657.75 493.13 664.52 496.64 670.93 500.13 677.35 503.14 684.04 504.9 691.23"/><polygon class="a" points="504.9 691.23 502.4 698.68 497.25 704.66 489.5 706.73 482.15 703.97 476.85 698.54 474.71 691.23 475.87 684.04 479.15 677.49 482.24 670.86 485.56 664.35 489.5 657.75 493.13 664.52 496.64 670.93 500.13 677.35 503.14 684.04 504.9 691.23"/><polygon class="b" points="463.82 655.34 461.73 662.69 456.29 667.97 449 670.03 441.26 668.75 435.93 662.89 433.95 655.34 436.12 648.43 438.97 641.75 441.6 634.89 445.27 628.57 449 622.5 452.53 628.68 455.93 635.14 459.57 641.49 462.71 648.12 463.82 655.34"/><polygon class="a" points="463.82 655.34 461.73 662.69 456.29 667.97 449 670.03 441.26 668.75 435.93 662.89 433.95 655.34 436.12 648.43 438.97 641.75 441.6 634.89 445.27 628.57 449 622.5 452.53 628.68 455.93 635.14 459.57 641.49 462.71 648.12 463.82 655.34"/><polygon class="b" points="463.77 511.76 461.89 519.21 456.44 524.65 449 526.37 441.55 524.66 435.64 519.48 433.67 511.76 435.83 504.75 438.84 498.11 441.6 491.32 444.93 484.81 449 478.41 452.53 485.11 456.46 491.29 459.16 498.11 462.22 504.73 463.77 511.76"/><polygon class="a" points="463.77 511.76 461.89 519.21 456.44 524.65 449 526.37 441.55 524.66 435.64 519.48 433.67 511.76 435.83 504.75 438.84 498.11 441.6 491.32 444.93 484.81 449 478.41 452.53 485.11 456.46 491.29 459.16 498.11 462.22 504.73 463.77 511.76"/><polygon class="b" points="463.63 583.55 462.36 591.26 456.35 596.28 449 598.99 441.51 596.53 435.99 591.06 433.83 583.55 436.17 576.66 438.63 569.8 441.43 563.01 445.05 556.66 449 550.35 452.52 556.9 456.16 563.23 459.39 569.79 462.54 576.39 463.63 583.55"/><polygon class="a" points="463.63 583.55 462.36 591.26 456.35 596.28 449 598.99 441.51 596.53 435.99 591.06 433.83 583.55 436.17 576.66 438.63 569.8 441.43 563.01 445.05 556.66 449 550.35 452.52 556.9 456.16 563.23 459.39 569.79 462.54 576.39 463.63 583.55"/><polygon class="b" points="383.3 583.55 381.26 591.21 375.72 596.92 368 598.91 360.7 596.2 355.04 591.03 353.26 583.55 355.11 576.64 357.2 569.6 360.79 563.21 364.19 556.74 368 550.65 371.25 557.05 375.53 563.04 378.58 569.7 381.5 576.41 383.3 583.55"/><polygon class="a" points="383.3 583.55 381.26 591.21 375.72 596.92 368 598.91 360.7 596.2 355.04 591.03 353.26 583.55 355.11 576.64 357.2 569.6 360.79 563.21 364.19 556.74 368 550.65 371.25 557.05 375.53 563.04 378.58 569.7 381.5 576.41 383.3 583.55"/><polygon class="b" points="464 511.76 461.92 519.22 456.7 525.11 449 526.75 441.39 524.94 435.7 519.44 434.33 511.76 436.17 504.87 438.85 498.11 441.46 491.25 445.37 485.05 449 479.08 452.96 484.87 456.29 491.37 459.08 498.14 462.43 504.65 464 511.76"/><polygon class="a" points="464 511.76 461.92 519.22 456.7 525.11 449 526.75 441.39 524.94 435.7 519.44 434.33 511.76 436.17 504.87 438.85 498.11 441.46 491.25 445.37 485.05 449 479.08 452.96 484.87 456.29 491.37 459.08 498.14 462.43 504.65 464 511.76"/><polygon class="b" points="423.72 547.66 421.83 555.35 415.87 560.42 408.5 562.33 401.1 560.48 395.72 555.04 393.58 547.66 394.81 540.45 398.36 534.01 401.76 527.56 404.76 520.88 408.5 514.81 412.41 520.79 415.64 527.35 418.47 534.09 422.15 540.46 423.72 547.66"/><polygon class="a" points="423.72 547.66 421.83 555.35 415.87 560.42 408.5 562.33 401.1 560.48 395.72 555.04 393.58 547.66 394.81 540.45 398.36 534.01 401.76 527.56 404.76 520.88 408.5 514.81 412.41 520.79 415.64 527.35 418.47 534.09 422.15 540.46 423.72 547.66"/><polygon class="b" points="463.54 655.34 461.99 662.84 456.63 668.56 449 670.3 441.61 668.14 435.6 663.08 434.31 655.34 436.18 648.45 438.2 641.39 441.6 634.89 445.19 628.53 449 622.17 452.48 628.71 456.4 634.89 459.23 641.65 461.97 648.39 463.54 655.34"/><polygon class="a" points="463.54 655.34 461.99 662.84 456.63 668.56 449 670.3 441.61 668.14 435.6 663.08 434.31 655.34 436.18 648.45 438.2 641.39 441.6 634.89 445.19 628.53 449 622.17 452.48 628.71 456.4 634.89 459.23 641.65 461.97 648.39 463.54 655.34"/><polygon class="b" points="382.55 655.34 380.57 662.6 375.68 668.64 368 670.22 360.61 668.13 355 662.85 352.72 655.34 354.42 648.17 357.59 641.57 360.93 635.07 364.4 628.64 368 622.06 371.37 628.77 375.52 634.83 378.52 641.51 381.69 648.13 382.55 655.34"/><polygon class="a" points="382.55 655.34 380.57 662.6 375.68 668.64 368 670.22 360.61 668.13 355 662.85 352.72 655.34 354.42 648.17 357.59 641.57 360.93 635.07 364.4 628.64 368 622.06 371.37 628.77 375.52 634.83 378.52 641.51 381.69 648.13 382.55 655.34"/><polygon class="b" points="463.67 583.55 461.65 590.86 456.43 596.42 449 598.94 441.71 596.18 435.66 591.25 434.06 583.55 435.45 576.39 438.21 569.6 441.56 563.09 445.21 556.75 449 550.57 452.56 556.88 456.25 563.19 459.09 569.92 462.55 576.39 463.67 583.55"/><polygon class="a" points="463.67 583.55 461.65 590.86 456.43 596.42 449 598.94 441.71 596.18 435.66 591.25 434.06 583.55 435.45 576.39 438.21 569.6 441.56 563.09 445.21 556.75 449 550.57 452.56 556.88 456.25 563.19 459.09 569.92 462.55 576.39 463.67 583.55"/><polygon class="b" points="423.57 619.45 421.67 627.05 415.95 632.35 408.5 634.15 400.99 632.46 395.87 626.74 393.72 619.45 395.21 612.39 398.52 605.88 401.76 599.35 404.47 592.51 408.5 586.74 411.75 592.95 415.47 599.23 418.87 605.69 422.05 612.28 423.57 619.45"/><polygon class="a" points="423.57 619.45 421.67 627.05 415.95 632.35 408.5 634.15 400.99 632.46 395.87 626.74 393.72 619.45 395.21 612.39 398.52 605.88 401.76 599.35 404.47 592.51 408.5 586.74 411.75 592.95 415.47 599.23 418.87 605.69 422.05 612.28 423.57 619.45"/><polygon class="b" points="382.55 583.55 380.87 590.98 375.41 596.39 368 598.26 360.6 596.37 355.17 590.96 353.38 583.55 355.09 576.63 357.77 569.86 360.86 563.24 364.21 556.75 368 550.74 371.32 557.01 375.18 563.22 378.31 569.82 381.64 576.36 382.55 583.55"/><polygon class="a" points="382.55 583.55 380.87 590.98 375.41 596.39 368 598.26 360.6 596.37 355.17 590.96 353.38 583.55 355.09 576.63 357.77 569.86 360.86 563.24 364.21 556.75 368 550.74 371.32 557.01 375.18 563.22 378.31 569.82 381.64 576.36 382.55 583.55"/><polygon class="b" points="464.36 655.34 462.12 662.91 456.51 668.34 449 670.64 441.3 668.67 436.02 662.84 434.11 655.34 435.56 648.22 438.32 641.44 441.89 635.05 445.06 628.45 449 622.3 452.65 628.62 456.02 635.1 459.85 641.36 462.06 648.36 464.36 655.34"/><polygon class="a" points="464.36 655.34 462.12 662.91 456.51 668.34 449 670.64 441.3 668.67 436.02 662.84 434.11 655.34 435.56 648.22 438.32 641.44 441.89 635.05 445.06 628.45 449 622.3 452.65 628.62 456.02 635.1 459.85 641.36 462.06 648.36 464.36 655.34"/><polygon class="b" points="423.65 691.23 421.51 698.74 415.91 704.07 408.5 706 401.05 704.14 395.45 698.76 393.02 691.23 395.14 684.15 397.66 677.26 401.44 670.97 404.45 664.28 408.5 658.44 412.35 664.4 415.75 670.87 418.7 677.56 422.01 684.09 423.65 691.23"/><polygon class="a" points="423.65 691.23 421.51 698.74 415.91 704.07 408.5 706 401.05 704.14 395.45 698.76 393.02 691.23 395.14 684.15 397.66 677.26 401.44 670.97 404.45 664.28 408.5 658.44 412.35 664.4 415.75 670.87 418.7 677.56 422.01 684.09 423.65 691.23"/><polygon class="b" points="382.78 655.34 381.16 662.94 375.69 668.65 368 670.53 360.51 668.31 354.67 663.04 353.37 655.34 354.34 648.14 357.5 641.53 360.99 635.1 363.98 628.41 368 622.74 372.06 628.39 375.11 635.05 378.15 641.69 380.92 648.41 382.78 655.34"/><polygon class="a" points="382.78 655.34 381.16 662.94 375.69 668.65 368 670.53 360.51 668.31 354.67 663.04 353.37 655.34 354.34 648.14 357.5 641.53 360.99 635.1 363.98 628.41 368 622.74 372.06 628.39 375.11 635.05 378.15 641.69 380.92 648.41 382.78 655.34"/><polygon class="b" points="383.23 583.55 380.57 590.81 375.26 596.13 368 598.35 360.69 596.22 354.89 591.12 353.2 583.55 354.47 576.4 357.49 569.74 361.04 563.34 364.03 556.65 368 550.12 371.9 556.69 375.2 563.21 378.45 569.75 381.34 576.47 383.23 583.55"/><polygon class="a" points="383.23 583.55 380.57 590.81 375.26 596.13 368 598.35 360.69 596.22 354.89 591.12 353.2 583.55 354.47 576.4 357.49 569.74 361.04 563.34 364.03 556.65 368 550.12 371.9 556.69 375.2 563.21 378.45 569.75 381.34 576.47 383.23 583.55"/><polygon class="b" points="383.47 655.34 381.29 663.01 375.34 668.05 368 670.69 360.42 668.47 355.34 662.65 353.45 655.34 354.52 648.21 357.15 641.36 360.82 635.01 364.75 628.84 368 622.23 371.32 628.8 375.27 634.96 378.57 641.49 381.74 648.11 383.47 655.34"/><polygon class="a" points="383.47 655.34 381.29 663.01 375.34 668.05 368 670.69 360.42 668.47 355.34 662.65 353.45 655.34 354.52 648.21 357.15 641.36 360.82 635.01 364.75 628.84 368 622.23 371.32 628.8 375.27 634.96 378.57 641.49 381.74 648.11 383.47 655.34"/><polygon class="b" points="383.31 583.55 380.92 591.01 375.34 596.26 368 599.03 360.5 596.54 355.27 590.9 352.6 583.55 355.09 576.63 357.45 569.71 361.21 563.43 364.17 556.72 368 550.89 371.31 557.02 375.36 563.13 378.44 569.76 381.21 576.52 383.31 583.55"/><polygon class="a" points="383.31 583.55 380.92 591.01 375.34 596.26 368 599.03 360.5 596.54 355.27 590.9 352.6 583.55 355.09 576.63 357.45 569.71 361.21 563.43 364.17 556.72 368 550.89 371.31 557.02 375.36 563.13 378.44 569.76 381.21 576.52 383.31 583.55"/><polygon class="b" points="342.83 619.45 340.27 626.82 334.83 632.15 327.5 634.57 320.2 632.09 314.38 627.02 312.78 619.45 314.23 612.39 317.25 605.75 320.77 599.35 324.26 592.95 327.5 586.74 331.54 592.5 334.75 599.08 337.87 605.69 340.7 612.41 342.83 619.45"/><polygon class="a" points="342.83 619.45 340.27 626.82 334.83 632.15 327.5 634.57 320.2 632.09 314.38 627.02 312.78 619.45 314.23 612.39 317.25 605.75 320.77 599.35 324.26 592.95 327.5 586.74 331.54 592.5 334.75 599.08 337.87 605.69 340.7 612.41 342.83 619.45"/><polygon class="b" points="382.69 655.34 380.96 662.82 375.51 668.34 368 670.19 360.35 668.6 354.97 662.86 353.39 655.34 354.29 648.12 357.71 641.63 360.52 634.85 364.03 628.43 368 622.52 371.92 628.47 374.84 635.19 378.01 641.75 381.14 648.33 382.69 655.34"/><polygon class="a" points="382.69 655.34 380.96 662.82 375.51 668.34 368 670.19 360.35 668.6 354.97 662.86 353.39 655.34 354.29 648.12 357.71 641.63 360.52 634.85 364.03 628.43 368 622.52 371.92 628.47 374.84 635.19 378.01 641.75 381.14 648.33 382.69 655.34"/></svg>