<svg xmlns="http://www.w3.org/2000/svg" viewBox="0 0 800 800"><defs><style>.a{fill:#fff;}.b,.c{fill:none;stroke:#000;stroke-linejoin:bevel;}.b{stroke-width:13px;}.c{stroke-width:7px;}</style></defs><title>canvas (64)</title><polygon class="a" points="346.64 702.42 339.39 702.23 332.13 702.62 324.88 702.63 317.62 702.37 310.36 702.78 303.1 702.28 295.84 702.38 288.58 702.32 281.32 702.91 274.07 702.91 266.81 702.63 259.55 702.71 252.3 702.83 245.04 702.25 237.78 702.89 230.53 702.24 223.27 702.11 216.01 702.41 208.76 702.1 201.5 702.32 194.24 702 186.98 702.81 179.72 702.82 172.46 702.35 165.2 702.53 157.94 702.58 150.68 702.51 143.42 702.46 136.16 702.3 128.9 702.65 121.63 702.01 114.38 702.16 107.11 702.84 99.85 701.97 92.59 702.37 85.33 702.56 78.06 702.59 70.8 701.96 63.53 702.26 56.2 702.45 62.95 699.82 69.31 696.46 76.13 694.14 82.55 690.91 88.89 687.52 95.63 685.01 102.22 682.16 108.65 678.97 115.12 675.86 121.83 673.28 128.33 670.24 134.81 667.14 141.72 665.03 148.19 661.9 154.58 658.62 161.15 655.74 167.66 652.72 174.37 650.14 180.74 646.8 187.61 644.59 194.05 641.4 200.58 638.43 207.16 635.55 213.71 632.62 220.13 629.4 226.88 626.92 233.34 623.78 240.11 621.35 246.7 618.51 253.15 615.37 259.51 612 266.03 609.01 272.75 606.47 279.13 603.16 285.76 600.39 292.36 597.57 298.78 594.35 305.58 591.98 311.92 588.57 318.6 585.91 325.03 582.7 331.62 579.85 338.22 577.04 345.08 574.79 351.58 571.73 357.9 568.28 364.49 565.43 371.06 562.53 377.59 559.57 384.13 556.59 390.85 554.02 397.61 551.56 404.05 548.36 410.52 545.25 417.21 542.6 423.53 539.13 430.32 536.83 437.52 536.95 444.78 536.35 452.04 536.83 459.3 537 466.55 536.8 473.81 537.02 481.07 536.48 488.33 536.3 495.59 536.94 502.85 536.89 510.11 536.27 517.36 536.36 524.61 536.68 531.87 536.75 539.13 536.64 546.38 536.69 553.64 536.8 560.9 536.11 568.15 536.84 575.41 536.14 582.67 536.81 589.93 536.46 597.19 536.87 604.45 537.06 611.71 536.76 618.97 536.79 626.23 536.19 633.49 536.82 640.75 536.8 648.01 536.11 655.28 536.75 662.53 536.12 669.8 536.78 677.06 536.91 684.32 536.76 691.58 536.92 698.85 536.86 706.11 536.23 713.38 536.74 720.88 536.51 714.02 539.33 707.58 542.49 701.12 545.64 694.53 548.48 687.98 551.38 681.37 554.21 674.74 556.94 668.27 560.05 661.75 563.05 655.05 565.64 648.46 568.49 641.92 571.45 635.27 574.14 628.64 576.91 622.32 580.36 615.6 582.9 609.1 585.94 602.72 589.27 595.85 591.47 589.43 594.71 583.06 598.05 576.28 600.45 569.96 603.91 563.19 606.36 556.6 609.19 549.99 612 543.44 614.93 537.06 618.23 530.35 620.8 523.75 623.61 517.49 627.19 510.79 629.79 504 632.19 497.5 635.22 491.14 638.58 484.36 640.99 477.73 643.76 471.43 647.25 464.92 650.28 458.2 652.84 451.65 655.77 445.19 658.91 438.59 661.73 431.97 664.52 425.45 667.53 418.86 670.38 412.19 673.05 405.64 675.98 399.18 679.12 392.8 682.44 386.21 685.31 379.46 687.8 373.11 691.2 366.47 693.94 359.71 696.41 353.39 699.91 346.64 702.42"/><polygon class="b" points="346.64 702.42 339.39 702.23 332.13 702.62 324.88 702.63 317.62 702.37 310.36 702.78 303.1 702.28 295.84 702.38 288.58 702.32 281.32 702.91 274.07 702.91 266.81 702.63 259.55 702.71 252.3 702.83 245.04 702.25 237.78 702.89 230.53 702.24 223.27 702.11 216.01 702.41 208.76 702.1 201.5 702.32 194.24 702 186.98 702.81 179.72 702.82 172.46 702.35 165.2 702.53 157.94 702.58 150.68 702.51 143.42 702.46 136.16 702.3 128.9 702.65 121.63 702.01 114.38 702.16 107.11 702.84 99.85 701.97 92.59 702.37 85.33 702.56 78.06 702.59 70.8 701.96 63.53 702.26 56.2 702.45 62.95 699.82 69.31 696.46 76.13 694.14 82.55 690.91 88.89 687.52 95.63 685.01 102.22 682.16 108.65 678.97 115.12 675.86 121.83 673.28 128.33 670.24 134.81 667.14 141.72 665.03 148.19 661.9 154.58 658.62 161.15 655.74 167.66 652.72 174.37 650.14 180.74 646.8 187.61 644.59 194.05 641.4 200.58 638.43 207.16 635.55 213.71 632.62 220.13 629.4 226.88 626.92 233.34 623.78 240.11 621.35 246.7 618.51 253.15 615.37 259.51 612 266.03 609.01 272.75 606.47 279.13 603.16 285.76 600.39 292.36 597.57 298.78 594.35 305.58 591.98 311.92 588.57 318.6 585.91 325.03 582.7 331.62 579.85 338.22 577.04 345.08 574.79 351.58 571.73 357.9 568.28 364.49 565.43 371.06 562.53 377.59 559.57 384.13 556.59 390.85 554.02 397.61 551.56 404.05 548.36 410.52 545.25 417.21 542.6 423.53 539.13 430.32 536.83 437.52 536.95 444.78 536.35 452.04 536.83 459.3 537 466.55 536.8 473.81 537.02 481.07 536.48 488.33 536.3 495.59 536.94 502.85 536.89 510.11 536.27 517.36 536.36 524.61 536.68 531.87 536.75 539.13 536.64 546.38 536.69 553.64 536.8 560.9 536.11 568.15 536.84 575.41 536.14 582.67 536.81 589.93 536.46 597.19 536.87 604.45 537.06 611.71 536.76 618.97 536.79 626.23 536.19 633.49 536.82 640.75 536.8 648.01 536.11 655.28 536.75 662.53 536.12 669.8 536.78 677.06 536.91 684.32 536.76 691.58 536.92 698.85 536.86 706.11 536.23 713.38 536.74 720.88 536.51 714.02 539.33 707.58 542.49 701.12 545.64 694.53 548.48 687.98 551.38 681.37 554.21 674.74 556.94 668.27 560.05 661.75 563.05 655.05 565.64 648.46 568.49 641.92 571.45 635.27 574.14 628.64 576.91 622.32 580.36 615.6 582.9 609.1 585.94 602.72 589.27 595.85 591.47 589.43 594.71 583.06 598.05 576.28 600.45 569.96 603.91 563.19 606.36 556.6 609.19 549.99 612 543.44 614.93 537.06 618.23 530.35 620.8 523.75 623.61 517.49 627.19 510.79 629.79 504 632.19 497.5 635.22 491.14 638.58 484.36 640.99 477.73 643.76 471.43 647.25 464.92 650.28 458.2 652.84 451.65 655.77 445.19 658.91 438.59 661.73 431.97 664.52 425.45 667.53 418.86 670.38 412.19 673.05 405.64 675.98 399.18 679.12 392.8 682.44 386.21 685.31 379.46 687.8 373.11 691.2 366.47 693.94 359.71 696.41 353.39 699.91 346.64 702.42"/><polygon class="a" points="339.54 667.32 332.32 666.74 325.18 666.61 318.05 667.13 310.92 667.26 303.78 666.7 296.65 667.12 289.52 666.52 282.38 667.06 275.25 666.6 268.12 666.47 260.99 666.92 253.86 667.21 246.73 666.51 239.6 666.87 232.46 666.83 225.33 667.16 218.2 666.63 211.06 667.02 203.93 667.06 196.8 667.13 189.66 666.53 182.53 667.33 175.39 666.49 168.25 666.78 161.12 666.69 153.98 667.36 146.85 666.6 139.71 666.93 132.57 666.98 125.44 666.56 118.3 666.96 111.17 666.68 104.03 666.66 96.89 666.43 89.75 667.33 82.61 667.2 75.63 666.86 81.99 663.97 88.71 661.5 94.88 657.76 101.54 655.16 107.97 652.01 114.87 649.93 121.24 646.65 127.63 643.43 134.46 641.19 141.03 638.35 147.2 634.63 153.74 631.73 160.57 629.49 167.02 626.41 173.53 623.44 180.01 620.42 186.4 617.18 193.26 615 199.54 611.53 206.3 609.13 212.78 606.09 219.26 603.07 225.65 599.85 232.28 597.15 239.08 594.85 245.44 591.58 252.08 588.9 258.58 585.91 264.92 582.58 271.69 580.2 277.97 576.72 284.76 574.4 291.21 571.3 297.9 568.73 304.07 565.01 310.98 562.94 317.2 559.33 323.91 556.81 330.39 553.77 336.76 550.49 343.49 548 349.93 544.87 356.76 542.64 362.98 539.04 369.69 536.5 376.24 533.61 382.59 530.29 389.25 527.66 395.69 524.52 402.42 522.05 408.96 519.12 415.46 516.09 422.6 515.98 429.73 515.62 436.86 516.15 444 515.65 451.13 515.63 458.26 515.77 465.4 515.83 472.53 515.85 479.66 515.65 486.79 516 493.92 516.12 501.05 515.67 508.18 516.56 515.32 516.18 522.45 516.53 529.58 516.19 536.72 516.08 543.85 516.59 550.98 516.41 558.12 516.6 565.25 515.84 572.38 515.67 579.52 516.3 586.66 515.65 593.79 516.12 600.93 516.03 608.07 515.88 615.2 515.61 622.34 516.59 629.47 515.64 636.61 516.49 643.75 516.3 650.88 516.08 658.02 516.41 665.16 516.6 672.3 516.36 679.32 516.13 672.93 519.05 666.25 521.63 659.79 524.68 653.29 527.68 646.92 530.94 640.36 533.79 633.68 536.37 627.28 539.59 620.66 542.29 614.24 545.44 607.43 547.73 600.84 550.53 594.62 554.12 588.11 557.09 581.26 559.3 574.87 562.52 568.47 565.74 561.93 568.62 555.35 571.43 548.88 574.48 542.16 576.97 535.58 579.77 529.21 583.04 522.7 586.01 516.05 588.64 509.32 591.1 502.86 594.16 496.33 597.09 489.89 600.21 483.5 603.44 476.72 605.78 470.2 608.72 463.75 611.81 457.25 614.8 450.56 617.36 444.1 620.43 437.53 623.27 431.01 626.22 424.55 629.3 418.13 632.48 411.31 634.73 405.06 638.29 398.25 640.58 391.94 644 385.3 646.68 378.87 649.82 372.25 652.53 365.57 655.15 358.94 657.84 352.72 661.47 345.81 663.59 339.54 667.32"/><polygon class="b" points="339.54 667.32 332.32 666.74 325.18 666.61 318.05 667.13 310.92 667.26 303.78 666.7 296.65 667.12 289.52 666.52 282.38 667.06 275.25 666.6 268.12 666.47 260.99 666.92 253.86 667.21 246.73 666.51 239.6 666.87 232.46 666.83 225.33 667.16 218.2 666.63 211.06 667.02 203.93 667.06 196.8 667.13 189.66 666.53 182.53 667.33 175.39 666.49 168.25 666.78 161.12 666.69 153.98 667.36 146.85 666.6 139.71 666.93 132.57 666.98 125.44 666.56 118.3 666.96 111.17 666.68 104.03 666.66 96.89 666.43 89.75 667.33 82.61 667.2 75.63 666.86 81.99 663.97 88.71 661.5 94.88 657.76 101.54 655.16 107.97 652.01 114.87 649.93 121.24 646.65 127.63 643.43 134.46 641.19 141.03 638.35 147.2 634.63 153.74 631.73 160.57 629.49 167.02 626.41 173.53 623.44 180.01 620.42 186.4 617.18 193.26 615 199.54 611.53 206.3 609.13 212.78 606.09 219.26 603.07 225.65 599.85 232.28 597.15 239.08 594.85 245.44 591.58 252.08 588.9 258.58 585.91 264.92 582.58 271.69 580.2 277.97 576.72 284.76 574.4 291.21 571.3 297.9 568.73 304.07 565.01 310.98 562.94 317.2 559.33 323.91 556.81 330.39 553.77 336.76 550.49 343.49 548 349.93 544.87 356.76 542.64 362.98 539.04 369.69 536.5 376.24 533.61 382.59 530.29 389.25 527.66 395.69 524.52 402.42 522.05 408.96 519.12 415.46 516.09 422.6 515.98 429.73 515.62 436.86 516.15 444 515.65 451.13 515.63 458.26 515.77 465.4 515.83 472.53 515.85 479.66 515.65 486.79 516 493.92 516.12 501.05 515.67 508.18 516.56 515.32 516.18 522.45 516.53 529.58 516.19 536.72 516.08 543.85 516.59 550.98 516.41 558.12 516.6 565.25 515.84 572.38 515.67 579.52 516.3 586.66 515.65 593.79 516.12 600.93 516.03 608.07 515.88 615.2 515.61 622.34 516.59 629.47 515.64 636.61 516.49 643.75 516.3 650.88 516.08 658.02 516.41 665.16 516.6 672.3 516.36 679.32 516.13 672.93 519.05 666.25 521.63 659.79 524.68 653.29 527.68 646.92 530.94 640.36 533.79 633.68 536.37 627.28 539.59 620.66 542.29 614.24 545.44 607.43 547.73 600.84 550.53 594.62 554.12 588.11 557.09 581.26 559.3 574.87 562.52 568.47 565.74 561.93 568.62 555.35 571.43 548.88 574.48 542.16 576.97 535.58 579.77 529.21 583.04 522.7 586.01 516.05 588.64 509.32 591.1 502.86 594.16 496.33 597.09 489.89 600.21 483.5 603.44 476.72 605.78 470.2 608.72 463.75 611.81 457.25 614.8 450.56 617.36 444.1 620.43 437.53 623.27 431.01 626.22 424.55 629.3 418.13 632.48 411.31 634.73 405.06 638.29 398.25 640.58 391.94 644 385.3 646.68 378.87 649.82 372.25 652.53 365.57 655.15 358.94 657.84 352.72 661.47 345.81 663.59 339.54 667.32"/><polygon class="a" points="74.29 665.86 71.55 672.04 67.63 677.48 64.47 683.33 61.7 689.4 58.1 695.02 55.35 701.08 62.58 700.71 69.83 700.94 77.08 701.42 84.33 701.45 91.58 701.59 98.83 700.95 106.08 701.19 113.33 700.72 120.59 701.5 127.84 701.04 135.09 700.92 142.34 700.74 149.58 701.03 156.83 701.41 164.08 701.32 171.33 700.81 178.57 701.55 185.83 701.09 193.07 700.88 200.33 701.12 207.58 701.24 214.83 700.88 222.08 701.39 229.33 701.02 236.58 700.67 243.83 701.46 251.09 701.03 258.34 701.54 265.59 700.75 272.85 700.74 280.1 701.19 287.35 701.22 294.61 700.65 301.86 701.29 309.11 701.05 316.37 701.59 323.63 700.97 330.88 701.08 338.14 700.97 345.46 701.38 352.16 698.64 358.55 695.36 365.04 692.29 371.58 689.34 378.27 686.73 384.94 684.07 391.32 680.76 398.05 678.25 404.69 675.51 410.91 671.83 417.5 668.99 424.28 666.6 430.72 663.42 437.44 660.87 444.01 657.99 450.31 654.49 456.99 651.84 463.68 649.25 469.97 645.72 476.72 643.24 483.31 640.4 489.75 637.22 496.56 634.89 502.89 631.45 509.43 628.5 516.17 626 522.72 623.07 529.07 619.69 535.6 616.72 542.54 614.69 548.99 611.52 555.38 608.22 562.19 605.9 568.54 602.53 575.34 600.16 581.59 596.53 588.32 594.01 594.86 591.05 601.64 588.65 608.08 585.46 614.55 582.35 621.16 579.56 627.69 576.57 634.48 574.17 640.89 570.92 647.35 567.76 654.13 565.35 660.46 561.93 667.11 559.23 673.67 556.31 680.45 553.88 686.88 550.68 693.52 547.93 700.18 545.26 706.42 541.59 713.16 539.06 719.98 536.1 712.79 532.88 705.86 529.64 699.26 525.74 692.17 522.82 685.51 519.01 678.5 516.35 672.17 519.21 665.31 521.36 658.87 524.47 652.4 527.51 645.8 530.27 639.44 533.58 632.88 536.43 626.41 539.47 619.62 541.79 613.13 544.8 606.79 548.15 599.89 550.22 593.54 553.54 587.02 556.48 580.33 559.02 574.02 562.44 567.28 564.87 560.94 568.23 554.27 570.83 547.88 574.05 541.23 576.69 534.8 579.84 528.11 582.38 521.62 585.38 515.12 588.36 508.62 591.32 501.98 593.99 495.53 597.08 489.06 600.14 482.31 602.56 475.99 605.92 469.54 609.03 462.63 611.1 456.46 614.81 449.88 617.61 442.98 619.72 436.65 623.08 430 625.74 423.7 629.17 417.12 631.98 410.3 634.24 403.94 637.56 397.21 640.01 390.97 643.57 384.42 646.46 377.71 648.98 371.09 651.69 364.64 654.82 357.97 657.42 351.52 660.52 344.93 663.34 338.49 666.41 331.38 666.84 324.25 666.2 317.11 666.24 309.97 666.98 302.83 666.03 295.69 666.6 288.56 666.95 281.42 666.15 274.28 665.93 267.15 665.93 260.02 666.06 252.88 665.98 245.74 666.37 238.61 665.9 231.47 666.63 224.33 666.02 217.2 665.97 210.06 666.24 202.92 666.3 195.78 666.74 188.64 666.24 181.5 665.89 174.36 666.5 167.22 666.67 160.08 666.09 152.94 665.76 145.8 666.63 138.66 666.48 131.52 665.73 124.38 666.37 117.24 666.26 110.1 666.51 102.96 665.65 95.82 666.3 88.67 666.36 81.52 666.1 74.29 665.86"/><polygon class="b" points="74.29 665.86 71.55 672.04 67.63 677.48 64.47 683.33 61.7 689.4 58.1 695.02 55.35 701.08 62.58 700.71 69.83 700.94 77.08 701.42 84.33 701.45 91.58 701.59 98.83 700.95 106.08 701.19 113.33 700.72 120.59 701.5 127.84 701.04 135.09 700.92 142.34 700.74 149.58 701.03 156.83 701.41 164.08 701.32 171.33 700.81 178.57 701.55 185.83 701.09 193.07 700.88 200.33 701.12 207.58 701.24 214.83 700.88 222.08 701.39 229.33 701.02 236.58 700.67 243.83 701.46 251.09 701.03 258.34 701.54 265.59 700.75 272.85 700.74 280.1 701.19 287.35 701.22 294.61 700.65 301.86 701.29 309.11 701.05 316.37 701.59 323.63 700.97 330.88 701.08 338.14 700.97 345.46 701.38 352.16 698.64 358.55 695.36 365.04 692.29 371.58 689.34 378.27 686.73 384.94 684.07 391.32 680.76 398.05 678.25 404.69 675.51 410.91 671.83 417.5 668.99 424.28 666.6 430.72 663.42 437.44 660.87 444.01 657.99 450.31 654.49 456.99 651.84 463.68 649.25 469.97 645.72 476.72 643.24 483.31 640.4 489.75 637.22 496.56 634.89 502.89 631.45 509.43 628.5 516.17 626 522.72 623.07 529.07 619.69 535.6 616.72 542.54 614.69 548.99 611.52 555.38 608.22 562.19 605.9 568.54 602.53 575.34 600.16 581.59 596.53 588.32 594.01 594.86 591.05 601.64 588.65 608.08 585.46 614.55 582.35 621.16 579.56 627.69 576.57 634.48 574.17 640.89 570.92 647.35 567.76 654.13 565.35 660.46 561.93 667.11 559.23 673.67 556.31 680.45 553.88 686.88 550.68 693.52 547.93 700.18 545.26 706.42 541.59 713.16 539.06 719.98 536.1 712.79 532.88 705.86 529.64 699.26 525.74 692.17 522.82 685.51 519.01 678.5 516.35 672.17 519.21 665.31 521.36 658.87 524.47 652.4 527.51 645.8 530.27 639.44 533.58 632.88 536.43 626.41 539.47 619.62 541.79 613.13 544.8 606.79 548.15 599.89 550.22 593.54 553.54 587.02 556.48 580.33 559.02 574.02 562.44 567.28 564.87 560.94 568.23 554.27 570.83 547.88 574.05 541.23 576.69 534.8 579.84 528.11 582.38 521.62 585.38 515.12 588.36 508.62 591.32 501.98 593.99 495.53 597.08 489.06 600.14 482.31 602.56 475.99 605.92 469.54 609.03 462.63 611.1 456.46 614.81 449.88 617.61 442.98 619.72 436.65 623.08 430 625.74 423.7 629.17 417.12 631.98 410.3 634.24 403.94 637.56 397.21 640.01 390.97 643.57 384.42 646.46 377.71 648.98 371.09 651.69 364.64 654.82 357.97 657.42 351.52 660.52 344.93 663.34 338.49 666.41 331.38 666.84 324.25 666.2 317.11 666.24 309.97 666.98 302.83 666.03 295.69 666.6 288.56 666.95 281.42 666.15 274.28 665.93 267.15 665.93 260.02 666.06 252.88 665.98 245.74 666.37 238.61 665.9 231.47 666.63 224.33 666.02 217.2 665.97 210.06 666.24 202.92 666.3 195.78 666.74 188.64 666.24 181.5 665.89 174.36 666.5 167.22 666.67 160.08 666.09 152.94 665.76 145.8 666.63 138.66 666.48 131.52 665.73 124.38 666.37 117.24 666.26 110.1 666.51 102.96 665.65 95.82 666.3 88.67 666.36 81.52 666.1 74.29 665.86"/><polygon class="a" points="252.97 569.44 260.07 568.98 267.23 569.44 274.4 568.71 281.56 568.97 288.73 569.21 295.89 569.18 303.06 569.26 310.22 569.17 317.38 569.26 324.55 569.05 331.71 568.82 338.87 568.84 346.04 569.12 353.2 568.96 360.37 569.45 367.53 569.59 374.7 569.25 381.86 568.77 389.03 569.15 396.19 569.19 403.36 569.4 410.53 568.72 417.7 569.46 424.87 569.51 432.03 568.68 439.2 569.06 446.37 568.66 453.54 569.45 460.7 569.34 467.87 569.07 475.04 569.02 482.21 569.17 489.38 568.77 496.55 569.38 503.73 568.96 510.97 569.03 510.78 576.27 511 583.45 511.23 590.63 510.63 597.82 510.52 604.77 505.06 608.19 499.09 611.14 492.93 613.71 486.63 616.9 486.2 608.7 486.29 600.83 486.12 592.96 485.82 585.17 478.75 585.39 471.59 585.39 464.44 585.41 457.28 585.59 450.12 584.66 442.96 584.8 435.81 584.99 428.65 585.06 421.49 585.04 414.34 585.48 407.19 585.1 400.04 584.75 392.88 585.06 385.73 585.49 378.57 585.07 371.41 585.21 364.26 585.02 357.1 584.83 349.95 584.72 342.79 585.38 335.63 585.4 328.47 585.11 321.32 585.06 314.16 584.89 307 585.1 299.84 585.13 292.68 584.8 285.52 584.83 278.36 585.08 271.2 584.69 264.04 585.58 256.88 584.84 249.72 584.6 242.56 584.89 235.41 585.17 228.24 584.81 221.07 584.61 213.77 585.13 220.51 582.7 227 580.02 233.58 577.56 240.01 574.73 246.49 572.01 252.97 569.44"/><polygon class="b" points="252.97 569.44 260.07 568.98 267.23 569.44 274.4 568.71 281.56 568.97 288.73 569.21 295.89 569.18 303.06 569.26 310.22 569.17 317.38 569.26 324.55 569.05 331.71 568.82 338.87 568.84 346.04 569.12 353.2 568.96 360.37 569.45 367.53 569.59 374.7 569.25 381.86 568.77 389.03 569.15 396.19 569.19 403.36 569.4 410.53 568.72 417.7 569.46 424.87 569.51 432.03 568.68 439.2 569.06 446.37 568.66 453.54 569.45 460.7 569.34 467.87 569.07 475.04 569.02 482.21 569.17 489.38 568.77 496.55 569.38 503.73 568.96 510.97 569.03 510.78 576.27 511 583.45 511.23 590.63 510.63 597.82 510.52 604.77 505.06 608.19 499.09 611.14 492.93 613.71 486.63 616.9 486.2 608.7 486.29 600.83 486.12 592.96 485.82 585.17 478.75 585.39 471.59 585.39 464.44 585.41 457.28 585.59 450.12 584.66 442.96 584.8 435.81 584.99 428.65 585.06 421.49 585.04 414.34 585.48 407.19 585.1 400.04 584.75 392.88 585.06 385.73 585.49 378.57 585.07 371.41 585.21 364.26 585.02 357.1 584.83 349.95 584.72 342.79 585.38 335.63 585.4 328.47 585.11 321.32 585.06 314.16 584.89 307 585.1 299.84 585.13 292.68 584.8 285.52 584.83 278.36 585.08 271.2 584.69 264.04 585.58 256.88 584.84 249.72 584.6 242.56 584.89 235.41 585.17 228.24 584.81 221.07 584.61 213.77 585.13 220.51 582.7 227 580.02 233.58 577.56 240.01 574.73 246.49 572.01 252.97 569.44"/><polyline class="a" points="213.52 607.6 213.94 599.24 213.77 590.87 213.7 582.07 219.51 588.25 225.39 593.74"/><polyline class="b" points="213.52 607.6 213.94 599.24 213.77 590.87 213.7 582.07 219.51 588.25 225.39 593.74"/><polyline class="a" points="510.84 567.91 505.1 571.91 499.2 575.69 493.93 580.39 487.83 583.9"/><polyline class="b" points="510.84 567.91 505.1 571.91 499.2 575.69 493.93 580.39 487.83 583.9"/><polygon points="338.82 667.28 340.06 674.08 341.58 681.05 342.96 688.04 343.88 695.14 345.53 701.88 351.86 698.97 358.63 696.53 365.2 693.65 371.75 690.72 378.15 687.44 384.76 684.62 391.28 681.61 397.88 678.8 404.34 675.66 411.21 673.45 417.48 669.86 424.22 667.37 430.62 664.08 437.25 661.32 443.74 658.25 450.45 655.69 456.86 652.43 463.59 649.89 469.99 646.61 476.61 643.84 483.31 641.22 489.93 638.45 496.5 635.56 502.78 632 509.37 629.15 516.18 626.79 522.72 623.85 529.26 620.88 535.61 617.48 542.2 614.66 548.85 611.95 555.3 608.78 561.98 606.14 568.45 603.02 575.05 600.2 581.59 597.24 588.2 594.43 594.81 591.62 601.35 588.66 608.15 586.29 614.61 583.13 621.1 580.06 627.55 576.89 634.45 574.72 640.83 571.4 647.33 568.34 653.89 565.4 660.65 562.95 667.25 560.11 673.76 557.09 680.37 554.26 686.77 550.98 693.56 548.56 699.88 545.09 706.51 542.32 712.99 539.19 720.19 536.6 712.79 533.34 706.05 529.68 699.2 526.25 692.35 522.78 685.38 519.57 678.51 516.28 671.88 519.13 665.05 521.68 658.38 524.61 651.8 527.74 644.95 530.26 638.41 533.48 631.74 536.41 625.07 539.35 618.29 542.02 611.53 544.75 604.69 547.28 598.26 550.77 591.26 552.95 584.59 555.87 577.87 558.69 571.24 561.74 564.41 564.3 558.01 567.86 551.11 570.25 544.31 572.9 537.63 575.8 531.2 579.3 524.23 581.53 517.61 584.63 510.59 587.3 511.15 594.83 510.67 602.17 510.84 609.45 502.93 612.07 494.85 614.31 487.05 616.77 486.97 609.15 486.54 601.11 479.88 604.75 473.08 607.56 466.13 610.04 459.39 612.97 452.68 615.97 446.28 619.7 439.18 621.84 432.74 625.45 426.05 628.52 419.04 630.87 412.4 634.03 405.9 637.52 399.22 640.6 392.45 643.49 385.74 646.5 378.96 649.38 372.34 652.58 365.26 654.77 358.63 657.97 351.97 661.1 345.21 664.05 338.82 667.28"/><polygon class="b" points="338.82 667.28 340.06 674.08 341.58 681.05 342.96 688.04 343.88 695.14 345.53 701.88 351.86 698.97 358.63 696.53 365.2 693.65 371.75 690.72 378.15 687.44 384.76 684.62 391.28 681.61 397.88 678.8 404.34 675.66 411.21 673.45 417.48 669.86 424.22 667.37 430.62 664.08 437.25 661.32 443.74 658.25 450.45 655.69 456.86 652.43 463.59 649.89 469.99 646.61 476.61 643.84 483.31 641.22 489.93 638.45 496.5 635.56 502.78 632 509.37 629.15 516.18 626.79 522.72 623.85 529.26 620.88 535.61 617.48 542.2 614.66 548.85 611.95 555.3 608.78 561.98 606.14 568.45 603.02 575.05 600.2 581.59 597.24 588.2 594.43 594.81 591.62 601.35 588.66 608.15 586.29 614.61 583.13 621.1 580.06 627.55 576.89 634.45 574.72 640.83 571.4 647.33 568.34 653.89 565.4 660.65 562.95 667.25 560.11 673.76 557.09 680.37 554.26 686.77 550.98 693.56 548.56 699.88 545.09 706.51 542.32 712.99 539.19 720.19 536.6 712.79 533.34 706.05 529.68 699.2 526.25 692.35 522.78 685.38 519.57 678.51 516.28 671.88 519.13 665.05 521.68 658.38 524.61 651.8 527.74 644.95 530.26 638.41 533.48 631.74 536.41 625.07 539.35 618.29 542.02 611.53 544.75 604.69 547.28 598.26 550.77 591.26 552.95 584.59 555.87 577.87 558.69 571.24 561.74 564.41 564.3 558.01 567.86 551.11 570.25 544.31 572.9 537.63 575.8 531.2 579.3 524.23 581.53 517.61 584.63 510.59 587.3 511.15 594.83 510.67 602.17 510.84 609.45 502.93 612.07 494.85 614.31 487.05 616.77 486.97 609.15 486.54 601.11 479.88 604.75 473.08 607.56 466.13 610.04 459.39 612.97 452.68 615.97 446.28 619.7 439.18 621.84 432.74 625.45 426.05 628.52 419.04 630.87 412.4 634.03 405.9 637.52 399.22 640.6 392.45 643.49 385.74 646.5 378.96 649.38 372.34 652.58 365.26 654.77 358.63 657.97 351.97 661.1 345.21 664.05 338.82 667.28"/><polygon class="a" points="314.24 626.98 322.01 623.9 328.9 619.21 324.66 615.37 317.72 616.38 310.8 617.19 303.95 618.45 297.06 619.66 290.32 621.52 283.53 623.18 276.8 625.14 268.96 628.05 262.31 633.02 266.34 636.57 273.37 636.56 280.26 635.24 287.2 634.3 293.9 632.18 300.85 631.13 307.6 629.22 314.24 626.98"/><polygon class="c" points="314.24 626.98 322.01 623.9 328.9 619.21 324.66 615.37 317.72 616.38 310.8 617.19 303.95 618.45 297.06 619.66 290.32 621.52 283.53 623.18 276.8 625.14 268.96 628.05 262.31 633.02 266.34 636.57 273.37 636.56 280.26 635.24 287.2 634.3 293.9 632.18 300.85 631.13 307.6 629.22 314.24 626.98"/><polygon class="a" points="314.18 623.81 321.79 620.42 329.14 616.47 324.66 612.42 317.65 612.65 310.69 613.5 303.9 615.22 297.01 616.43 290.38 618.71 283.68 620.68 276.8 622.14 269.01 625.15 262.3 630.01 266.33 633.76 273.31 632.94 280.31 632.55 287.19 631.2 293.86 629.01 300.7 627.58 307.36 625.44 314.18 623.81"/><polygon class="c" points="314.18 623.81 321.79 620.42 329.14 616.47 324.66 612.42 317.65 612.65 310.69 613.5 303.9 615.22 297.01 616.43 290.38 618.71 283.68 620.68 276.8 622.14 269.01 625.15 262.3 630.01 266.33 633.76 273.31 632.94 280.31 632.55 287.19 631.2 293.86 629.01 300.7 627.58 307.36 625.44 314.18 623.81"/><polyline class="b" points="310.5 570.06 314.25 564.38 318.61 559.11 323.81 554.65 329.52 550.8 336.29 549.39 342.75 551.35 348.19 555.22"/><polyline class="b" points="342.81 570.25 346.21 564.34 351.11 559.59 356.03 554.94 361.7 551.21 368.3 549.76 374.81 551.23 380.56 554.84"/><polyline class="b" points="374.24 569.9 378.35 564.45 382.72 559.21 388.17 555.12 393.9 551.66 400.29 549.2 406.73 551.41 412.21 555.19"/><polyline class="b" points="406.56 570.09 410.11 564.26 414.78 559.27 419.95 554.84 425.57 550.91 432.29 549.33 438.86 551.12 444.67 554.73"/><polyline class="b" points="438.02 569.77 442.12 564.27 446.84 559.33 452.07 555 457.82 551.47 464.3 549.65 470.76 551.33 476.16 555.24"/><polyline class="b" points="470.39 569.99 474.52 564.58 478.92 559.41 484.17 555.12 489.91 551.67 496.28 549.18 502.99 550.84 508.72 554.68"/><polyline class="b" points="502.14 569.84 506.36 564.46 510.73 559.22 516.03 554.93 521.7 551.21 528.29 549.51 534.8 551.25 540.15 555.26"/><polyline class="b" points="232.13 576.16 238.75 573.47 245.43 570.96 251.97 568.1 258.6 565.46 265.02 562.29 271.65 559.66 278.5 557.55 284.97 554.51 291.69 552.12 298.32 549.49 304.73 546.3 311.51 544.02 317.94 540.89 324.74 538.69 331.13 535.44 337.77 532.84 344.49 530.4 351.06 527.61 357.67 524.91 364.35 522.39 370.85 519.43 377.51 516.87 384.26 514.52 390.81 511.66 397.38 508.87 404 506.2 410.61 503.5 417.32 501.06 423.78 498 430.44 495.4 436.99 492.57 443.49 489.59 450.34 487.47 456.8 484.4 463.35 481.55 469.98 478.86 476.69 476.33 483.88 477.66 491.1 477.96 498.28 478.9 505.48 479.49 512.7 479.65 519.92 479.81 527.14 479.98 534.35 480.3 541.54 481.24 548.76 481.53 555.98 481.86 563.21 481.32 570.43 481.72 577.65 481.94 584.88 481.72 592.1 481.48 599.33 481.92 606.55 482.04 613.78 481.93 621 481.71 628.23 481.94 635.45 481.43 642.67 481.48 649.88 480.51 657.11 480.76 664.35 480.87 671.53 479.85 678.79 480.42 686 479.8 693.19 478.98 700.44 479.23 707.66 478.95 714.84 477.83 722.08 477.85 729.28 477.06 736.49 476.52 743.86 476.71 736.99 478.86 730.42 481.64 723.89 484.52 717.36 487.41 710.5 489.49 704.19 492.94 697.41 495.2 690.93 498.21 684.39 501.06 677.66 503.45 670.96 505.92 664.57 509.15 657.75 511.3 651.17 514.08 644.69 517.1 638.11 519.85 631.46 522.44 624.84 525.12 618.29 527.95 611.5 530.2 604.85 532.79 598.23 535.47 591.78 538.57 585.25 541.46 578.34 543.42 571.87 546.47 565.22 549.07 558.52 551.53 552.18 554.88 545.39 557.15 538.74 559.74 532.06 562.29 525.58 565.31 518.97 568 512.48 571.01 505.68 573.28 499.25 576.44"/><polygon class="a" points="578.23 97.6 577.54 104.65 578.21 112.06 578.13 119.48 578.01 126.92 578.31 134.36 578 141.81 578.01 149.27 578.28 156.72 578.19 164.18 578.36 171.64 577.68 179.3 584.5 178.99 591.1 179.1 597.7 178.98 604.3 178.91 610.95 179.14 611.25 171.64 610.96 164.19 610.71 156.74 610.64 149.29 610.67 141.84 610.86 134.38 611.22 126.93 610.82 119.47 611.08 112.02 611.03 104.56 610.87 97.13 604.31 97.22 597.71 97.28 591.11 97.07 584.51 97.6 578.23 97.6"/><polygon class="b" points="578.23 97.1 577.54 104.4 578.21 111.93 578.13 119.42 578.01 126.89 578.31 134.35 578 141.81 578.01 149.26 578.28 156.72 578.19 164.18 578.36 171.64 577.68 179.3 584.5 178.99 591.1 179.1 597.7 178.98 604.3 178.91 610.95 179.14 611.25 171.64 610.96 164.19 610.71 156.74 610.64 149.29 610.67 141.84 610.86 134.38 611.22 126.93 610.82 119.47 611.08 112.02 611.03 104.56 610.87 97.13 604.31 97.22 597.71 97.28 591.11 96.82 584.51 97.1 578.23 97.1"/><polyline class="a" points="577.94 203.6 577.57 210.75 577.67 217.89 577.85 225.04 577.87 232.19 577.43 239.34 577.88 246.48 578.14 253.63 577.7 260.78 577.54 267.93 578.09 275.08 578 282.23 577.68 289.38 577.47 296.54 577.97 303.69 577.88 310.84 577.98 317.99 578.29 325.14 577.63 332.29 577.61 339.44 577.78 346.59 577.69 353.75 578.26 360.9 578.27 367.92 583.74 374.1 588.75 380.86 594.38 387.43 598.58 381.36 602.5 375.47 606.61 369.7 611.07 364.12 610.75 356.78 611.01 349.48 611.23 342.19 610.44 334.9 610.83 327.61 610.44 320.32 611.32 313.03 611.29 305.73 610.45 298.44 610.81 291.14 611.23 283.85 610.45 276.56 610.96 269.26 610.84 261.97 610.44 254.68 610.63 247.38 610.86 240.09 611.34 232.79 611.4 225.5 611.28 218.2 610.5 210.9 610.66 203.6"/><polyline class="b" points="577.94 203.6 577.57 210.75 577.67 217.89 577.85 225.04 577.87 232.19 577.43 239.34 577.88 246.48 578.14 253.63 577.7 260.78 577.54 267.93 578.09 275.08 578 282.23 577.68 289.38 577.47 296.54 577.97 303.69 577.88 310.84 577.98 317.99 578.29 325.14 577.63 332.29 577.61 339.44 577.78 346.59 577.69 353.75 578.26 360.9 578.27 367.92 583.74 374.1 588.75 380.86 594.38 387.43 598.58 381.36 602.5 375.47 606.61 369.7 611.07 364.12 610.75 356.78 611.01 349.48 611.23 342.19 610.44 334.9 610.83 327.61 610.44 320.32 611.32 313.03 611.29 305.73 610.45 298.44 610.81 291.14 611.23 283.85 610.45 276.56 610.96 269.26 610.84 261.97 610.44 254.68 610.63 247.38 610.86 240.09 611.34 232.79 611.4 225.5 611.28 218.2 610.5 210.9 610.66 203.6"/><polygon points="549.99 179.17 556.98 179.49 564.05 179.32 571.13 179.42 578.21 178.64 585.28 179.09 592.35 178.99 599.43 179.08 606.5 179.28 613.58 179.1 620.65 178.6 627.74 178.65 634.82 179.37 641.73 179.25 642.05 187.09 642.14 195.09 641.61 202.84 634.83 202.77 627.75 202.61 620.68 203.54 613.6 203.1 606.53 203.3 599.45 203.36 592.38 203.21 585.3 202.92 578.23 202.65 571.15 202.8 564.07 203.04 556.99 203.4 549.54 203.41 550.24 195.1 549.64 187.1 549.99 179.17"/><polygon class="b" points="549.99 179.17 556.98 179.49 564.05 179.32 571.13 179.42 578.21 178.64 585.28 179.09 592.35 178.99 599.43 179.08 606.5 179.28 613.58 179.1 620.65 178.6 627.74 178.65 634.82 179.37 641.73 179.25 642.05 187.09 642.14 195.09 641.61 202.84 634.83 202.77 627.75 202.61 620.68 203.54 613.6 203.1 606.53 203.3 599.45 203.36 592.38 203.21 585.3 202.92 578.23 202.65 571.15 202.8 564.07 203.04 556.99 203.4 549.54 203.41 550.24 195.1 549.64 187.1 549.99 179.17"/><polyline class="b" points="577.65 171.82 582.65 167.32 587.52 162.7 592.24 157.92 596.9 153.08 601.42 148.09 606.12 143.28"/><polyline class="b" points="578.07 129.34 584.07 125.5 589.9 121.36 596.27 118.14 602.35 114.42 608.51 110.81 614.43 106.82"/></svg>