<svg xmlns="http://www.w3.org/2000/svg" xmlns:xlink="http://www.w3.org/1999/xlink" viewBox="0 0 800 800"><defs><style>.a,.d,.e,.f{fill:none;}.b{fill:#fff;}.c{clip-path:url(#a);}.d,.e{stroke:#000;}.d,.f{stroke-linejoin:bevel;}.d,.e,.f{stroke-width:13px;}.e{stroke-miterlimit:10;}.f{stroke:#fff;}</style><clipPath id="a"><polygon class="a" points="750.39 679.17 745.08 683.98 739.45 688.45 733.42 692.45 726.82 695.4 719.99 697.77 713.25 700.29 706.52 702.85 699.57 704.74 692.78 707.2 685.84 709.19 678.79 710.72 671.71 712.05 664.86 714.5 657.75 715.73 650.7 717.27 643.63 718.69 636.39 719.15 629.27 720.26 622.24 722 615.09 722.88 607.95 723.87 600.75 724.45 593.63 725.55 586.44 726.16 579.37 727.73 572.12 727.74 564.98 728.75 557.83 729.69 550.67 730.61 543.48 731.03 536.29 731.56 529.04 731.25 521.86 731.85 514.67 732.42 507.49 733 500.28 733.2 493.09 733.72 485.88 733.86 478.69 734.62 471.46 734.06 464.27 734.72 457.07 735.22 449.85 735.02 442.65 735.35 435.44 735.21 428.23 735.84 421.02 734.97 413.81 735 406.59 735.66 399.38 735.47 392.17 735.73 384.95 735.66 377.73 735.63 370.55 734.35 363.33 734.55 356.12 734.1 348.89 734.13 341.67 734.03 334.46 733.58 327.24 733.47 320.07 732.37 312.82 732.57 305.68 731.22 298.43 731.39 291.23 730.87 284.04 730.18 276.88 729.21 269.65 728.99 262.46 728.31 255.35 726.89 248.11 726.68 241.04 725.03 233.8 724.73 226.68 723.51 219.55 722.45 212.32 721.98 205.22 720.67 198.08 719.59 190.94 718.46 183.94 716.62 176.88 715.14 169.87 713.39 162.75 712.16 155.74 710.45 148.84 708.3 141.63 707.29 134.74 705.12 127.9 702.8 121 700.63 114.51 697.4 108 694.32 101.59 691.04 95.35 687.46 89.88 682.81 85.06 677.57 81.84 671.14 83.19 664.14 86.31 657.67 91.86 653.04 97.28 648.24 103.61 644.72 110.41 642.2 116.76 638.72 123.81 637 130.6 634.65 137.15 631.43 144.07 629.37 151.28 628.42 158.17 626.25 165.11 624.29 172.31 623.43 179.39 622.09 186.46 620.72 193.47 619.03 200.55 617.63 207.59 616.05 214.7 614.83 221.95 614.51 229.06 613.38 236.21 612.43 243.3 611.06 250.53 610.83 257.72 610.29 264.83 608.98 272.04 608.67 279.21 607.97 286.35 606.9 293.58 606.89 300.7 605.61 307.92 605.5 315.08 604.54 322.3 604.4 329.51 604.26 336.69 603.62 343.89 603.17 351.12 603.54 358.31 602.75 365.52 602.75 372.73 602.75 379.92 601.85 387.13 601.46 394.35 601.94 401.55 601.66 408.76 601.48 415.97 601.9 423.18 601.76 430.39 602.07 437.61 601.3 444.82 601.38 452.02 602.36 459.25 601.79 466.45 602.14 473.67 602.32 480.89 602.28 488.1 602.88 495.33 602.75 502.51 603.8 509.71 604.42 516.93 604.56 524.16 604.62 531.36 605.04 538.54 605.84 545.78 605.93 552.95 606.88 560.14 607.51 567.36 607.81 574.53 608.74 581.73 609.36 588.86 610.53 596.09 610.89 603.19 612.33 610.33 613.38 617.41 614.85 624.57 615.75 631.85 615.94 638.8 618.16 645.93 619.26 653.17 619.84 660.14 621.79 667.32 622.74 674.25 624.87 681.23 626.7 688.34 628.04 695.36 629.77 702.2 632.1 708.96 634.67 715.81 636.92 722.7 639.14 729 642.74 735.62 645.65 742 649.1 747.15 654.22 751.65 659.7 754.65 666.02 754.04 673.03 750.39 679.17"/></clipPath></defs><title>canvas (36)</title><polygon class="b" points="750.51 679.27 745.63 684.65 739.17 688 733.29 692.21 726.88 695.54 719.89 697.52 713.48 700.91 706.54 702.91 699.73 705.3 692.71 706.94 685.91 709.46 678.85 710.96 671.92 713 664.72 713.86 657.61 715.05 650.72 717.34 643.63 718.7 636.33 718.81 629.38 720.97 622.28 722.2 615.04 722.59 607.97 724.08 600.83 725.06 593.68 725.97 586.52 726.85 579.36 727.71 572.11 727.68 564.98 728.77 557.76 728.98 550.67 730.56 543.42 730.33 536.24 730.85 529.1 732.14 521.86 731.88 514.67 732.36 507.52 733.66 500.31 733.7 493.09 733.78 485.88 733.93 478.69 734.68 471.49 735.05 464.26 734.52 457.06 734.78 449.84 734.68 442.64 735.12 435.44 735.94 428.23 735.77 421.02 734.96 413.81 735.07 406.6 735.21 399.38 735.08 392.18 734.74 384.95 735.74 377.75 734.78 370.54 734.52 363.31 735.16 356.09 734.96 348.87 734.66 341.7 733.3 334.46 733.54 327.28 732.63 320.07 732.31 312.86 731.99 305.68 731.27 298.41 731.66 291.25 730.59 284.05 730.09 276.87 729.37 269.62 729.32 262.44 728.48 255.25 727.82 248.13 726.53 240.99 725.41 233.77 724.97 226.62 723.96 219.5 722.78 212.38 721.61 205.24 720.5 198.14 719.21 191.01 718.05 183.91 716.75 176.87 715.18 169.64 714.44 162.67 712.52 155.69 710.63 148.81 708.43 141.61 707.38 134.7 705.26 127.79 703.11 121.06 700.48 114.59 697.2 108.03 694.25 101.36 691.45 94.99 687.99 89.83 682.87 84.37 678.03 81.71 671.16 82.86 664.02 86.47 657.8 91.54 652.65 97.69 648.88 103.59 644.67 110.33 642.03 116.73 638.66 123.5 636.16 130.43 634.11 137.14 631.4 144.37 630.45 151.18 628.01 158.32 626.89 165.29 625.05 172.34 623.61 179.34 621.86 186.29 619.81 193.46 618.95 200.55 617.65 207.76 617.08 214.87 615.9 221.9 614.21 229.02 613.07 236.13 611.84 243.39 611.8 250.49 610.44 257.65 609.59 264.82 608.88 271.99 608.14 279.18 607.64 286.39 607.34 293.59 607.03 300.71 605.65 307.93 605.52 315.14 605.35 322.28 604.07 329.53 604.59 336.72 604.05 343.88 603 351.08 602.52 358.3 602.45 365.51 602.57 372.73 602.47 379.93 602.25 387.13 601.93 394.33 601.18 401.54 601.22 408.75 601.13 415.97 601.06 423.18 601.74 430.39 601.34 437.61 601.12 444.82 601.7 452.04 601.58 459.25 601.87 466.44 602.55 473.67 602.22 480.89 602.32 488.08 603.39 495.32 603.05 502.54 603.32 509.73 604.04 516.94 604.36 524.16 604.54 531.37 604.89 538.52 606.21 545.76 606.2 552.91 607.27 560.16 607.29 567.33 608.2 574.49 609.14 581.64 610.09 588.88 610.36 595.99 611.69 603.18 612.39 610.41 612.75 617.5 614.2 624.61 615.47 631.84 615.96 638.88 617.66 646.07 618.47 653.07 620.34 660.04 622.26 667.15 623.51 674.38 624.3 681.28 626.49 688.4 627.81 695.36 629.76 702.22 632.04 708.89 634.88 715.63 637.41 722.6 639.4 729.07 642.61 735.27 646.27 741.71 649.52 747.28 654.09 751.76 659.63 755 665.97 753.68 672.9 750.51 679.27"/><g class="c"><polygon points="748.99 733.09 743.33 737.6 737.48 741.71 731.26 745.29 725.03 748.92 718.46 751.91 711.59 754.12 704.73 756.3 697.96 758.78 691.1 761.04 683.97 762.26 677.01 764.13 669.95 765.57 662.96 767.31 655.96 769.08 648.92 770.63 641.83 771.92 634.74 773.28 627.5 773.69 620.54 775.82 613.32 776.24 606.28 777.96 599.08 778.54 591.91 779.25 584.76 780.16 577.58 780.8 570.4 781.46 563.3 782.94 556.09 783.16 548.92 783.96 541.7 784 534.55 785.03 527.32 784.99 520.14 785.61 512.97 786.4 505.78 787.04 498.54 786.63 491.37 787.52 484.18 788.23 476.96 788.17 469.74 787.94 462.53 788.14 455.34 788.92 448.14 789.38 440.92 789.32 433.71 789.14 426.5 789.4 419.29 789.06 412.08 789.58 404.87 789 397.66 788.7 390.44 789.52 383.24 788.42 376.03 788.16 368.79 789.06 361.58 788.82 354.37 788.27 347.18 787.42 339.94 787.7 332.76 786.78 325.52 786.99 318.32 786.38 311.14 785.52 303.9 785.69 296.71 784.92 289.55 783.9 282.33 783.69 275.1 783.47 267.94 782.43 260.8 781.34 253.62 780.57 246.38 780.38 239.24 779.24 232.04 778.68 224.99 776.92 217.71 776.84 210.6 775.56 203.6 773.65 196.38 773.06 189.35 771.36 182.29 769.88 175.19 768.57 168.09 767.28 160.99 765.98 154.07 763.86 146.95 762.58 140.02 760.55 133.06 758.63 126.27 756.16 119.3 754.21 112.55 751.6 106.11 748.31 99.73 744.93 93.6 741.14 88.17 736.44 83.25 731.27 80.95 724.65 80.71 717.51 84.5 711.25 89.88 706.38 95.59 701.94 102.26 699.07 108.61 695.7 115.23 692.87 121.77 689.79 128.64 687.58 135.59 685.65 142.64 684.08 149.54 682.01 156.33 679.47 163.57 678.73 170.4 676.23 177.65 675.67 184.65 673.94 191.67 672.27 198.81 671.25 205.94 670.14 213 668.63 220.28 668.59 227.38 667.33 234.47 666.01 241.63 665.16 248.74 663.9 256 663.99 263.07 662.3 270.24 661.53 277.46 661.39 284.59 660.21 291.83 660.26 299.01 659.67 306.19 659.11 313.37 658.38 320.59 658.41 327.78 657.88 334.96 657.14 342.15 656.45 349.39 656.97 356.6 656.89 363.78 655.9 370.98 655.64 378.19 655.17 385.4 655.11 392.62 655.99 399.82 655.38 407.03 654.93 414.24 654.73 421.45 654.84 428.66 655.64 435.88 655.48 443.09 655.47 450.3 655.67 457.53 655.15 464.72 656.13 471.93 656.39 479.15 656.52 486.35 657.17 493.6 656.46 500.81 656.98 508.02 657.33 515.2 658.18 522.44 658.04 529.63 658.71 536.85 659.11 544.01 660.05 551.23 660.37 558.34 661.88 565.6 661.88 572.76 662.77 579.91 663.83 587.17 663.85 594.26 665.38 601.53 665.43 608.56 667.32 615.81 667.6 622.97 668.58 629.93 670.77 637.21 670.96 644.32 672.3 651.32 674.12 658.43 675.38 665.56 676.53 672.5 678.62 679.65 679.75 686.6 681.74 693.49 683.9 700.26 686.43 707.45 687.69 714.2 690.26 720.81 693.18 727.23 696.48 734.08 698.95 739.96 703.21 745.54 707.74 750.58 712.91 753.04 719.65 751.94 726.54 748.99 733.09"/><polygon class="d" points="748.99 733.09 743.33 737.6 737.48 741.71 731.26 745.29 725.03 748.92 718.46 751.91 711.59 754.12 704.73 756.3 697.96 758.78 691.1 761.04 683.97 762.26 677.01 764.13 669.95 765.57 662.96 767.31 655.96 769.08 648.92 770.63 641.83 771.92 634.74 773.28 627.5 773.69 620.54 775.82 613.32 776.24 606.28 777.96 599.08 778.54 591.91 779.25 584.76 780.16 577.58 780.8 570.4 781.46 563.3 782.94 556.09 783.16 548.92 783.96 541.7 784 534.55 785.03 527.32 784.99 520.14 785.61 512.97 786.4 505.78 787.04 498.54 786.63 491.37 787.52 484.18 788.23 476.96 788.17 469.74 787.94 462.53 788.14 455.34 788.92 448.14 789.38 440.92 789.32 433.71 789.14 426.5 789.4 419.29 789.06 412.08 789.58 404.87 789 397.66 788.7 390.44 789.52 383.24 788.42 376.03 788.16 368.79 789.06 361.58 788.82 354.37 788.27 347.18 787.42 339.94 787.7 332.76 786.78 325.52 786.99 318.32 786.38 311.14 785.52 303.9 785.69 296.71 784.92 289.55 783.9 282.33 783.69 275.1 783.47 267.94 782.43 260.8 781.34 253.62 780.57 246.38 780.38 239.24 779.24 232.04 778.68 224.99 776.92 217.71 776.84 210.6 775.56 203.6 773.65 196.38 773.06 189.35 771.36 182.29 769.88 175.19 768.57 168.09 767.28 160.99 765.98 154.07 763.86 146.95 762.58 140.02 760.55 133.06 758.63 126.27 756.16 119.3 754.21 112.55 751.6 106.11 748.31 99.73 744.93 93.6 741.14 88.17 736.44 83.25 731.27 80.95 724.65 80.71 717.51 84.5 711.25 89.88 706.38 95.59 701.94 102.26 699.07 108.61 695.7 115.23 692.87 121.77 689.79 128.64 687.58 135.59 685.65 142.64 684.08 149.54 682.01 156.33 679.47 163.57 678.73 170.4 676.23 177.65 675.67 184.65 673.94 191.67 672.27 198.81 671.25 205.94 670.14 213 668.63 220.28 668.59 227.38 667.33 234.47 666.01 241.63 665.16 248.74 663.9 256 663.99 263.07 662.3 270.24 661.53 277.46 661.39 284.59 660.21 291.83 660.26 299.01 659.67 306.19 659.11 313.37 658.38 320.59 658.41 327.78 657.88 334.96 657.14 342.15 656.45 349.39 656.97 356.6 656.89 363.78 655.9 370.98 655.64 378.19 655.17 385.4 655.11 392.62 655.99 399.82 655.38 407.03 654.93 414.24 654.73 421.45 654.84 428.66 655.64 435.88 655.48 443.09 655.47 450.3 655.67 457.53 655.15 464.72 656.13 471.93 656.39 479.15 656.52 486.35 657.17 493.6 656.46 500.81 656.98 508.02 657.33 515.2 658.18 522.44 658.04 529.63 658.71 536.85 659.11 544.01 660.05 551.23 660.37 558.34 661.88 565.6 661.88 572.76 662.77 579.91 663.83 587.17 663.85 594.26 665.38 601.53 665.43 608.56 667.32 615.81 667.6 622.97 668.58 629.93 670.77 637.21 670.96 644.32 672.3 651.32 674.12 658.43 675.38 665.56 676.53 672.5 678.62 679.65 679.75 686.6 681.74 693.49 683.9 700.26 686.43 707.45 687.69 714.2 690.26 720.81 693.18 727.23 696.48 734.08 698.95 739.96 703.21 745.54 707.74 750.58 712.91 753.04 719.65 751.94 726.54 748.99 733.09"/></g><polygon class="e" points="750.89 679.59 745.33 684.28 739.25 688.13 733.01 691.69 726.49 694.69 720.02 697.85 713.34 700.51 706.6 703.09 699.67 705.08 692.84 707.42 685.69 708.6 678.68 710.26 671.82 712.54 664.65 713.5 657.69 715.44 650.62 716.84 643.53 718.13 636.45 719.53 629.38 720.95 622.11 721.14 615.13 723.21 607.88 723.41 600.8 724.84 593.68 726 586.54 727.02 579.26 726.72 572.21 728.59 565.02 729.2 557.8 729.39 550.63 730.07 543.49 731.13 536.24 730.95 529.05 731.38 521.88 732.17 514.67 732.34 507.47 732.65 500.3 733.56 493.07 733.35 485.88 734.03 478.7 734.74 471.46 734.1 464.27 734.78 457.05 734.56 449.85 735.06 442.64 734.79 435.44 735.48 428.23 735.35 421.02 735.72 413.81 735.56 406.6 734.93 399.38 735.09 392.18 734.77 384.96 735.22 377.75 734.95 370.54 734.77 363.33 734.46 356.1 734.55 348.87 734.59 341.67 734.1 334.44 734.04 327.25 733.17 320.04 732.85 312.81 732.74 305.64 731.82 298.41 731.68 291.23 730.85 284.04 730.24 276.86 729.5 269.71 728.37 262.51 727.89 255.3 727.36 248.15 726.34 240.98 725.51 233.84 724.42 226.67 723.6 219.53 722.57 212.44 721.18 205.24 720.52 198.03 719.88 190.96 718.37 183.81 717.29 176.77 715.66 169.76 713.91 162.71 712.35 155.73 710.5 148.64 709.06 141.82 706.63 134.84 704.79 127.81 703.05 121.07 700.43 114.38 697.71 107.65 695.05 101.49 691.22 95.3 687.52 89.72 682.98 85.02 677.6 81.8 671.15 82.9 664.03 86.78 658.07 91.75 652.91 97.64 648.8 103.94 645.32 110.25 641.85 116.99 639.3 123.65 636.56 130.45 634.17 137.26 631.82 144.24 629.99 151.23 628.22 158.18 626.3 165.12 624.32 172.22 623.01 179.22 621.26 186.46 620.71 193.47 618.98 200.51 617.4 207.63 616.3 214.79 615.42 222 614.9 229.07 613.44 236.22 612.48 243.39 611.77 250.47 610.31 257.64 609.51 264.81 608.76 272.02 608.49 279.18 607.65 286.38 607.26 293.57 606.78 300.76 606.36 307.91 605.29 315.07 604.34 322.29 604.19 329.51 604.25 336.71 603.87 343.87 602.73 351.1 603.01 358.32 603.05 365.52 602.71 372.72 602.44 379.92 601.85 387.13 601.66 394.33 601.34 401.55 601.36 408.75 601.24 415.97 601.75 423.18 601.55 430.4 601.12 437.61 601.72 444.82 601.74 452.04 601.49 459.23 602.58 466.45 602.36 473.65 602.88 480.9 602.17 488.11 602.67 495.3 603.45 502.5 604.08 509.76 603.43 516.97 603.92 524.12 605.24 531.37 604.88 538.5 606.38 545.74 606.42 552.97 606.6 560.13 607.64 567.27 608.77 574.5 608.97 581.66 609.91 588.85 610.64 596.01 611.5 603.21 612.19 610.36 613.14 617.47 614.45 624.59 615.64 631.74 616.63 638.77 618.29 646 618.85 653.17 619.82 660.13 621.83 667.3 622.83 674.38 624.3 681.43 625.9 688.37 627.96 695.19 630.34 702.25 631.95 709.07 634.33 715.67 637.31 722.72 639.09 729.26 642.19 735.55 645.76 741.41 649.96 747 654.39 752.47 659.15 755.28 665.92 754.23 673.1 750.89 679.59"/><polygon points="590.72 316.42 590.27 323.6 589.94 330.77 589.52 337.94 588.46 345.04 587.63 352.18 586.32 359.24 584.8 366.26 582.42 373.05 581.13 380.15 577.92 386.64 575.89 393.52 573.61 400.34 569.89 406.54 567.01 413.09 564.06 419.64 560.43 425.83 556.85 432.06 552.45 437.75 548.88 444.01 543.96 449.29 539.86 455.2 534.6 460.13 530.3 465.94 525.09 470.89 519.66 475.6 514.16 480.2 508.63 484.75 503.11 489.35 497 493.13 491.13 497.25 484.89 500.78 478.89 504.71 472.4 507.79 466.1 511.23 459.55 514.16 452.64 516.18 445.99 518.84 439.41 521.79 432.39 523.36 425.48 525.24 418.42 526.54 411.34 527.66 404.27 528.78 397.22 530.25 390.02 530.25 382.89 531.11 375.71 531.03 368.54 530.89 361.39 530.27 354.23 529.83 347.17 528.6 340.06 527.75 332.93 526.86 325.91 525.38 319.05 523.25 311.97 521.89 305.48 518.66 298.64 516.53 291.79 514.32 285.43 510.96 278.97 507.86 272.74 504.33 266.16 501.38 260.21 497.36 254.43 493.1 248.68 488.82 242.94 484.55 237.07 480.4 231.65 475.69 226.2 471.01 221.13 465.92 216.95 460 212.13 454.72 207.69 449.09 203.13 443.57 199.25 437.54 195.25 431.61 191.45 425.55 187.92 419.32 184.64 412.97 180.84 406.85 178.42 400.08 175 393.72 173.13 386.76 171.22 379.86 168.71 373.13 166.67 366.24 165.17 359.22 164.51 352.05 162.98 345.04 162.16 337.91 161.94 330.74 160.84 323.61 161.68 316.42 161.3 309.25 162 302.11 161.73 294.89 162.61 287.76 163.64 280.65 165.05 273.6 166.65 266.6 168.45 259.64 171.24 252.99 172.86 245.99 175.66 239.37 178.32 232.72 180.83 225.99 184.75 219.93 187.46 213.26 190.73 206.86 195.31 201.26 198.77 194.96 203.13 189.27 207.3 183.43 212.12 178.12 216.81 172.71 221.93 167.7 226.27 161.9 231.62 157.1 237.34 152.75 243.04 148.41 248.66 143.98 254.12 139.29 260.34 135.69 266.43 131.92 272.84 128.71 279.12 125.26 285.25 121.47 291.91 118.8 298.52 116.01 305.48 114.18 312.17 111.61 319.03 109.52 325.9 107.45 333 106.31 339.96 104.53 347.14 104.06 354.21 102.76 361.38 102.47 368.54 102.17 375.71 102.4 382.89 101.71 390.04 102.32 397.15 103.29 404.3 103.87 411.34 105.19 418.34 106.69 425.58 107.15 432.38 109.56 439.24 111.62 446.11 113.68 452.99 115.78 459.65 118.46 466.09 121.65 472.44 125 478.69 128.5 484.74 132.34 491.45 135.11 497.01 139.71 502.98 143.68 508.49 148.28 514.17 152.65 519.37 157.58 524.87 162.19 530.26 166.96 535.1 172.27 539.8 177.7 543.73 183.75 548.4 189.19 552.07 195.37 556.57 200.97 560.24 207.13 563.62 213.45 567.15 219.69 570.15 226.2 572.99 232.77 576.42 239.12 578.24 246.09 580.4 252.93 583.15 259.6 584.66 266.62 585.91 273.69 587.73 280.66 588.15 287.85 588.85 294.98 589.49 302.11 590.31 309.25 590.72 316.42"/><polygon class="b" points="418.71 498.28 411.52 498.25 404.41 497 397.27 496.46 390.19 495.45 383.07 494.65 376.01 493.48 368.87 492.55 362.03 490.32 355.07 488.56 348.13 486.66 341.75 483.22 335.04 480.73 328.63 477.53 321.93 474.94 315.61 471.55 309.36 468.04 302.96 464.73 297.4 460.13 291.38 456.24 285.73 451.82 280.32 447.1 275.08 442.22 269.65 437.55 264.55 432.5 259.62 427.31 254.49 422.25 250.29 416.41 246.47 410.32 241.87 404.81 237.4 399.16 234.41 392.57 230.7 386.45 227.65 379.96 224.59 373.5 221.33 367.12 218.81 360.41 216.23 353.73 214.34 346.82 211.9 340.08 210.03 333.15 207.94 326.27 206.95 319.15 206.37 311.98 205.56 304.87 204.89 297.74 204.37 290.59 204.79 283.42 204.7 276.17 204.22 268.86 205.16 261.63 205.65 254.36 206.94 247.19 208.82 240.14 209.94 232.94 212.41 226.07 213.6 218.84 216.1 212.57 213.07 218.4 209.87 224.73 206.09 230.78 203.31 237.33 200.28 243.78 198.29 250.63 195.74 257.28 194.4 264.29 192.33 271.09 191.28 278.13 189.24 285 189.23 292.17 187.6 299.17 188.19 306.33 187.56 313.42 188.09 320.63 187.78 327.88 188.82 335.05 190.06 342.16 191.49 349.23 192.66 356.35 194.32 363.37 195.76 370.48 198.1 377.32 201.15 383.9 203.83 390.59 207 397.08 210.3 403.49 213.12 410.18 217.13 416.2 221.2 422.17 225.85 427.71 229.78 433.79 234.51 439.24 238.78 445.11 243.98 450.15 249.81 454.5 254.71 459.85 260.48 464.19 265.94 468.94 271.82 473.13 277.7 477.37 284.29 480.43 290.53 484.05 296.9 487.46 303.66 490.02 310.05 493.45 317.11 495.18 323.67 498.34 330.78 499.74 337.69 501.88 344.78 503.31 351.99 503.92 359.09 505.25 366.27 506.03 373.49 506.18 380.71 506.51 387.57 506.63 394.38 505.53 401.27 505.62 408.14 505.12 414.88 503.74 421.48 501.78 428.23 500.54 434.84 498.73 441.75 496.45 433.84 497.2 426.28 497.62 418.71 498.28"/><polygon class="f" points="418.71 498.28 411.52 498.25 404.41 497 397.27 496.46 390.19 495.45 383.07 494.65 376.01 493.48 368.87 492.55 362.03 490.32 355.07 488.56 348.13 486.66 341.75 483.22 335.04 480.73 328.63 477.53 321.93 474.94 315.61 471.55 309.36 468.04 302.96 464.73 297.4 460.13 291.38 456.24 285.73 451.82 280.32 447.1 275.08 442.22 269.65 437.55 264.55 432.5 259.62 427.31 254.49 422.25 250.29 416.41 246.47 410.32 241.87 404.81 237.4 399.16 234.41 392.57 230.7 386.45 227.65 379.96 224.59 373.5 221.33 367.12 218.81 360.41 216.23 353.73 214.34 346.82 211.9 340.08 210.03 333.15 207.94 326.27 206.95 319.15 206.37 311.98 205.56 304.87 204.89 297.74 204.37 290.59 204.79 283.42 204.7 276.17 204.22 268.86 205.16 261.63 205.65 254.36 206.94 247.19 208.82 240.14 209.94 232.94 212.41 226.07 213.6 218.84 216.1 212.57 213.07 218.4 209.87 224.73 206.09 230.78 203.31 237.33 200.28 243.78 198.29 250.63 195.74 257.28 194.4 264.29 192.33 271.09 191.28 278.13 189.24 285 189.23 292.17 187.6 299.17 188.19 306.33 187.56 313.42 188.09 320.63 187.78 327.88 188.82 335.05 190.06 342.16 191.49 349.23 192.66 356.35 194.32 363.37 195.76 370.48 198.1 377.32 201.15 383.9 203.83 390.59 207 397.08 210.3 403.49 213.12 410.18 217.13 416.2 221.2 422.17 225.85 427.71 229.78 433.79 234.51 439.24 238.78 445.11 243.98 450.15 249.81 454.5 254.71 459.85 260.48 464.19 265.94 468.94 271.82 473.13 277.7 477.37 284.29 480.43 290.53 484.05 296.9 487.46 303.66 490.02 310.05 493.45 317.11 495.18 323.67 498.34 330.78 499.74 337.69 501.88 344.78 503.31 351.99 503.92 359.09 505.25 366.27 506.03 373.49 506.18 380.71 506.51 387.57 506.63 394.38 505.53 401.27 505.62 408.14 505.12 414.88 503.74 421.48 501.78 428.23 500.54 434.84 498.73 441.75 496.45 433.84 497.2 426.28 497.62 418.71 498.28"/><polygon points="559.22 197.89 559.92 204.93 558.63 211.92 555.22 218.13 550.52 223.21 544.93 227.16 538.57 230.06 531.58 231.22 524.5 230.7 517.74 228.59 511.2 226.05 504.55 223.26 498.23 219.74 492.46 215.38 486.89 210.77 481.53 205.91 477.2 200.09 473.14 194.15 469.15 188.2 465.3 182.13 461.79 175.8 459.89 168.82 457.81 161.92 457.53 154.72 456.93 147.7 458.7 140.9 461 134.21 466.15 129.4 471.76 125.49 478.12 122.65 485.1 122.33 492.13 122.21 498.85 124.28 505.45 126.6 511.94 129.69 518.49 132.8 524.37 137.04 529.95 141.66 535.02 146.82 539.85 152.21 544.38 157.85 547.59 164.37 551.08 170.64 554.88 176.81 556.97 183.73 559.05 190.66 559.22 197.89"/><polygon class="f" points="559.22 197.89 559.92 204.93 558.63 211.92 555.22 218.13 550.52 223.21 544.93 227.16 538.57 230.06 531.58 231.22 524.5 230.7 517.74 228.59 511.2 226.05 504.55 223.26 498.23 219.74 492.46 215.38 486.89 210.77 481.53 205.91 477.2 200.09 473.14 194.15 469.15 188.2 465.3 182.13 461.79 175.8 459.89 168.82 457.81 161.92 457.53 154.72 456.93 147.7 458.7 140.9 461 134.21 466.15 129.4 471.76 125.49 478.12 122.65 485.1 122.33 492.13 122.21 498.85 124.28 505.45 126.6 511.94 129.69 518.49 132.8 524.37 137.04 529.95 141.66 535.02 146.82 539.85 152.21 544.38 157.85 547.59 164.37 551.08 170.64 554.88 176.81 556.97 183.73 559.05 190.66 559.22 197.89"/><polyline points="542.45 221.42 547.76 216.75 552.97 211.96 558.01 206.97 563.37 202.35 568.9 197.93 574.76 193.9 579.56 188.62 585.66 184.39 580.14 179.52 576.17 173.65 571.08 168.79 565.88 164.04 561.84 158.24 557.09 153.09 552.11 148.14 547.64 142.73 542.21 138.19 537.36 133.12 533.02 127.57 527.9 122.75 523.03 117.7 518.66 112.18 514.22 106.72 509.19 101.64 504.25 106.57 498.78 110.7 493.58 115.14 488.54 119.77 482.76 123.52 477.79 128.25 472.43 132.51 467.29 137.04"/><polygon points="597.85 165.04 597.85 172.07 596.88 179.1 593.07 185.08 589.39 191.08 583.61 195.23 576.7 196.79 569.81 198.2 562.78 197.52 555.97 195.76 549.39 193.32 542.79 190.4 536.52 186.81 531 182.14 525.14 177.91 520.32 172.54 515.15 167.49 510.89 161.67 507.31 155.41 503.73 149.2 500.72 142.69 497.68 136.13 495.99 129.1 494.84 121.94 495.8 114.94 496.95 108.08 499.26 101.41 504.21 96.4 510.01 92.7 516.45 90.29 523.33 89.61 530.38 89.22 537.06 91.52 543.6 93.97 550.34 96.56 556.5 100.3 562.13 104.81 568.03 109 573.14 114.1 578.22 119.26 582.33 125.23 586.53 131.11 589.68 137.62 592.95 144.05 594.87 151 596.48 157.98 597.85 165.04"/><polygon class="f" points="597.85 165.04 597.85 172.07 596.88 179.1 593.07 185.08 589.39 191.08 583.61 195.23 576.7 196.79 569.81 198.2 562.78 197.52 555.97 195.76 549.39 193.32 542.79 190.4 536.52 186.81 531 182.14 525.14 177.91 520.32 172.54 515.15 167.49 510.89 161.67 507.31 155.41 503.73 149.2 500.72 142.69 497.68 136.13 495.99 129.1 494.84 121.94 495.8 114.94 496.95 108.08 499.26 101.41 504.21 96.4 510.01 92.7 516.45 90.29 523.33 89.61 530.38 89.22 537.06 91.52 543.6 93.97 550.34 96.56 556.5 100.3 562.13 104.81 568.03 109 573.14 114.1 578.22 119.26 582.33 125.23 586.53 131.11 589.68 137.62 592.95 144.05 594.87 151 596.48 157.98 597.85 165.04"/><polygon class="b" points="663.17 370.48 662.22 370.07 656.46 367.06 653.36 359.08 655.9 352.09 656.03 351.77 658.81 345.23 661.37 339.06 663.2 332.58 663.43 331.9 665.88 325.87 667.1 319.48 667.15 319.25 668.69 312.53 669.78 305.71 669.96 304.91 671.76 298.77 672.08 292.38 672.11 292.01 672.88 284.94 672.96 284.41 674.16 278.15 673.83 271.79 673.82 271.32 673.96 264.37 673.75 257.42 673.74 257.17 673.81 250.43 673.07 243.91 671.92 237.05 671.86 236.6 671.24 230.14 669.34 223.92 669.16 223.19 667.97 216.63 665.88 210.41 663.44 203.83 663.29 203.39 661.42 196.95 658.89 191.38 655.14 185.93 654.92 185.58 651.34 179.59 647.4 173.56 643.39 167.61 639.28 161.73 635.49 156.74 630.24 153.02 629.38 152.29 624.65 147.53 619.32 143.97 613.5 140.79 607.64 138.61 601.15 137.63 594.86 136.97 589.24 137.18 583.42 138.99 583 139.11 576.86 140.57 571.46 142.97 565.9 146.31 565.45 146.56 559.89 149.34 555.4 152.98 547.28 153.04 542.12 148.97 540.91 147.73 537.04 142.47 537.84 133.86 543.15 128.91 544.39 128 550.89 124.34 551.26 124.14 557.76 121.02 564.06 117.49 564.68 117.18 571.55 114.25 572.56 113.91 579.82 112.14 580.87 111.97 588.32 111.4 588.57 111.39 595.99 111.11 596.34 111.1 603.81 111.22 605.06 111.36 612.05 112.84 612.86 113.07 619.59 115.44 620.2 115.69 626.62 118.72 627.33 119.11 633.13 122.79 639.17 126.1 640.26 126.85 645.77 131.54 651.08 136.25 651.32 136.48 656.38 141.47 657.2 142.45 660.9 147.91 665.45 152.69 666.03 153.4 670.16 159.19 670.57 159.84 673.95 165.99 677.58 172.16 677.82 172.61 680.95 179.05 684.27 185.39 684.69 186.38 686.9 193.11 689.42 199.55 692.33 206.09 692.69 207.15 694.46 214.2 694.52 214.5 695.96 221.62 696.03 222.02 697.03 229.32 697.89 236.52 698.73 243.73 698.75 243.96 699.32 251.1 700.09 258.42 700.64 265.67 700.58 267.16 699.57 273.67 700.03 280.24 699.92 281.94 698.61 288.63 698.3 295.41 698.19 296.33 696.88 303.23 696.03 310.47 695.72 311.82 693.41 318.54 692.09 325.45 691.93 326.09 689.79 333.22 687.8 340.26 686.06 347.45 685.94 347.85 683.7 355.03 683.31 356 680.05 362.51 677.45 368.86 669.37 372.56 663.17 370.48"/><path d="M596.24,117.6l7.47.11,7,1.48,6.72,2.37,6.42,3,6,3.79,6.23,3.41,5.4,4.6,5.3,4.71,5.06,5,4,5.9,4.92,5.17,4.13,5.79,3.43,6.24,3.68,6.25,3.17,6.52,3.37,6.43,2.27,6.91,2.64,6.74,3,6.67,1.77,7.06,1.44,7.12,1,7.19.86,7.19.84,7.19.57,7.21.76,7.22.56,7.26L693,273.4l.5,7.29-1.41,7.16-.33,7.26-1.36,7.13-.88,7.47-2.45,7.15-1.41,7.36-2.15,7.18-2,7.21-1.77,7.31-2.24,7.17-3.37,6.73-2.69,6.57-6.2-2.07-5.76-3,2.54-7,2.78-6.54,2.73-6.58,1.93-6.85,2.69-6.63,1.34-7,1.59-6.94,1.13-7,2-6.88.36-7.15.77-7.07,1.36-7-.38-7.15.14-7.11-.21-7.11.07-7.14-.8-7.08-1.18-7-.69-7.11L675.56,222l-1.28-7L672,208.24l-2.48-6.68-2-6.89-3-6.51-4.07-5.93-3.64-6.11-4-6.14-4.1-6.07-4.21-6L640.07,152l-6.07-4.3-5.19-5.23-6.13-4.09-6.48-3.53-6.93-2.59-7.3-1.1-6.89-.73-6.95.25-6.65,2.07-6.71,1.61-6.32,2.8-5.91,3.56-6.21,3.1-5,4.1-5.16-4.07-3.88-5.26,5.31-4.95,6.5-3.66,6.68-3.21,6.48-3.63,6.86-2.93,7.26-1.78,7.45-.56,7.42-.28m.2-13h-.69l-7.42.28-.49,0-7.45.56-2.1.33L571,107.6l-2,.67-6.86,2.93-1.25.62-6.12,3.43-6.31,3-.75.39-6.5,3.66-2.48,1.81-5.31,4.95-1.6,17.23,3.88,5.26,2.41,2.49,5.16,4.07L559.5,158l3.93-3.19,4.92-2.46.9-.49,5.21-3.14,4.49-2,5.56-1.33.85-.23,5-1.56,4.29-.16,5.69.6,5.67.85,4.79,1.79,5.16,2.81,4.55,3,4.26,4.3,1.72,1.46,4.43,3.14,3.1,4.09,4,5.73,4,5.91,3.81,5.84,3.51,5.88.45.7,3.42,5,2.1,4.62,1.74,6,.3.89,2.41,6.48,1.9,5.68,1.11,6.11.35,1.46,1.7,5.6.56,5.82.12.89,1.12,6.69.68,6-.06,6.34v.51l.2,6.79-.13,6.79,0,.94.29,5.56-1.06,5.47-.16,1.06-.77,7.07-.06.75-.28,5.62-1.58,5.41-.36,1.58-1.06,6.61-1.49,6.52-.1.46-1.1,5.76-2.21,5.44-.47,1.36-1.72,6.11-2.42,5.81L650,349.23l-.26.65-2.54,7,6.19,16,5.76,3,1.91.81,6.2,2.07,16.15-7.4L686,365.2l3.15-6.3.78-1.94,2.24-7.17.22-.81,1.72-7.07L696,335l2.12-7.08.31-1.28,1.24-6.46,2.16-6.28.62-2.7.82-7,1.27-6.68.22-1.84.28-6.29,1.22-6.21.21-3.41-.4-5.84.9-5.79.12-3-.56-7.26,0-.36-.74-7.05-.56-7.05,0-.47-.84-7.19-.87-7.24,0-.22-1-7.19-.14-.8-1.44-7.12-.13-.59L699,205.57l-.73-2.13-2.85-6.4-2.4-6.13-2.15-6.56-.83-2-3.28-6.26-3.09-6.35-.49-.91-3.58-6.08-3.33-6.07-.81-1.29-4.13-5.79-1.16-1.41L666,143.82l-3.39-5-1.64-2-5.06-5-.49-.46-5.3-4.71-.21-.18-5.4-4.6-2.18-1.5-5.86-3.21-5.62-3.57-1.42-.78-6.42-3-1.23-.5L615,106.94l-1.63-.46-7-1.48-2.49-.28-7.47-.11Z"/><polyline class="d" points="659.2 363.66 664.11 359.38 669.17 355.29 674.65 351.74 679.94 347.92 685.23 343.65 682.5 337.06 679.84 330.73 676.49 324.68 674.61 318.01 672.01 312.02 676.75 305.98 682.27 300.28 688.03 294.81 693.71 289.22 690.18 282.03 685.33 275.62 682.16 268.23 677.82 261.55 681.98 256.55 686.18 251.56 690.15 246.36 694.35 241.36 698.53 236.58 693 232.83 687.58 228.66 682.59 223.89 677.05 219.84 671.95 215.78 674.52 208.85 677.57 201.8 681.2 195.01 684.87 188.18 678.1 185.84 671.07 184.76 664.3 182.69 657.3 181.03 658.26 173.52 659.3 166.15 661.14 158.89 662.03 151.57 654.87 151.51 647.62 151.4 640.37 151.1 633.42 151.13 631.6 143.99 629.07 136.75 627.09 129.36 625.42 121.92 619.33 125.71 612.66 128.56 606.78 132.81 600.42 136.3 595.71 131.69 591.96 126.3 587.62 121.43 583.03 116.76 579.06 111.47 576.02 117.57 574.26 124.16 570.94 130.07 568.53 136.38 565.63 142.22 560.27 137.84 554.66 133.4 548.29 129.94 542.98 125.1"/></svg>