<svg xmlns="http://www.w3.org/2000/svg" viewBox="0 0 800 800"><defs><style>.a{fill:#fff;}.b,.c,.d{fill:none;stroke:#000;stroke-linejoin:bevel;}.b{stroke-width:13px;}.c{stroke-width:7px;}.d{stroke-width:3px;}</style></defs><title>cavnas (39)</title><polygon points="257.47 483.29 264.61 483.14 271.76 483.8 278.91 483.47 286.06 483.1 293.21 483.84 300.36 482.89 307.51 483.65 314.99 483.14 309.89 489.34 305.66 495.78 300.84 501.81 296.72 508.32 292.04 514.2 285.05 514.88 277.83 514.3 270.61 515.04 263.4 514.93 256.18 514.35 248.96 514.93 241.75 514.11 234.53 514.41 227.32 514.02 219.99 514.65 225.21 509.86 230.52 505.35 235.89 500.91 241.71 497.01 246.93 492.4 252.43 488.12 257.47 483.29"/><polygon class="a" points="314.89 483.72 321.81 483.46 328.96 482.71 336.11 483.12 343.26 483.01 350.41 482.93 357.56 483.24 364.71 483.29 372.31 482.97 369.5 490.99 368.48 499.02 366.29 506.77 364.28 514.43 357.21 514.06 350 514.81 342.78 514.02 335.56 514.26 328.35 514.95 321.13 514.84 313.91 515.02 306.69 514.71 299.48 514.25 292.39 514.55 296.59 508.23 301.46 502.25 305.92 495.96 310.18 489.55 314.89 483.72"/><polygon points="372.06 483.51 378.95 483.37 386.05 483.32 393.14 483.54 400.24 482.85 407.34 483.85 414.43 483.62 421.53 482.86 428.94 482.92 431.06 490.97 432.58 498.88 433.62 506.91 436.09 514.63 428.89 514.47 421.73 514.45 414.56 514.07 407.4 514.2 400.24 514.48 393.08 514.38 385.92 515.16 378.75 515.07 371.59 515.06 364.64 514.46 366.1 506.73 368.55 499.04 369.46 490.98 372.06 483.51"/><polygon class="a" points="428.52 483.21 435.77 482.96 442.92 483.26 450.07 483.33 457.22 483.79 464.37 483.86 471.52 482.74 478.67 482.88 485.7 483.51 490.32 489.53 494.81 495.79 499.3 502.05 503.39 508.59 508.72 514.83 501 514.86 493.79 514.56 486.57 514.77 479.35 514.39 472.13 515.14 464.92 514.13 457.7 514.23 450.49 514.47 443.27 514.19 435.76 514.94 434 506.82 432.15 498.99 430.16 491.19 428.52 483.21"/><polygon points="485.4 483.1 492.97 482.94 500.12 483.18 507.27 483.86 514.42 483.37 521.57 483.69 528.72 483.69 535.87 483.24 543.16 482.89 548.73 487.31 553.89 491.99 559.03 496.71 564.43 501.11 569.49 505.91 575.31 509.82 579.89 514.4 573.16 514.32 565.95 514.54 558.73 514.63 551.52 514.59 544.3 514.31 537.08 514.03 529.87 514.17 522.65 515.15 515.43 514.74 507.95 515.11 503.73 508.35 499.62 501.82 495.13 495.56 490.3 489.55 485.4 483.1"/><polygon class="a" points="220.08 514.55 227.32 514.49 234.53 514.23 241.75 514.35 248.96 515.05 256.18 514.95 263.4 514.31 270.61 515.16 277.83 514.69 285.05 515.11 291.94 514.75 287.63 520.77 283.24 527.09 279.24 533.71 273.99 539.42 269.62 545.47 262.6 545.73 255.34 546.51 248.08 546.48 240.82 546.28 233.56 545.84 226.3 546.02 219.04 545.61 211.78 545.9 204.52 545.44 197.25 546.15 189.99 545.95 182.29 546.13 188.25 541.67 193.71 537.34 198.38 532.08 203.96 527.88 209.65 523.83 214.86 519.2 220.08 514.55"/><polygon points="292.45 514.95 299.48 514.96 306.69 514.62 313.91 514.48 321.13 514.26 328.35 514.26 335.56 514.17 342.78 514.83 350 514.04 357.21 514.11 364.82 514.34 362.68 522.47 361.17 530.38 358.85 538.1 357.23 546.2 349.74 546.22 342.48 546.24 335.22 545.83 327.95 545.55 320.69 546.11 313.43 546.14 306.17 546 298.91 546 291.65 545.93 284.39 545.53 277.13 546.27 269.77 546 274.32 539.67 279.1 533.61 283.2 527.07 288.08 521.09 292.45 514.95"/><polygon class="a" points="364.23 514.37 371.59 514.99 378.75 514.51 385.92 514.06 393.08 514.07 400.24 514.27 407.4 515 414.56 514.92 421.73 514.86 428.89 514.04 436.18 514.46 437.66 522.5 439.32 530.38 441.59 538.11 443.15 545.71 436.27 545.38 429.07 545.41 421.86 545.61 414.65 546.23 407.45 546.22 400.24 545.35 393.03 545.82 385.83 545.95 378.62 545.99 371.41 546.51 364.21 545.74 356.6 546.21 358.96 538.13 360.3 530.17 362.95 522.53 364.23 514.37"/><polygon points="436.25 514.74 443.27 515.12 450.49 515.01 457.7 514.57 464.92 514.5 472.13 514.24 479.35 514.57 486.57 514.46 493.79 514.52 501 514.97 508.33 514.4 512.86 520.75 517.39 526.99 521.36 533.62 525.93 539.82 530.38 545.83 523.36 545.9 516.09 545.94 508.83 545.4 501.57 546.22 494.31 546.23 487.05 546.01 479.79 545.67 472.53 545.89 465.26 545.45 458 545.71 450.74 545.7 443.62 545.77 441.77 538.07 439.2 530.4 437.33 522.58 436.25 514.74"/><polygon class="a" points="508.06 514.54 515.43 514.75 522.65 514.35 529.87 514.72 537.08 514.16 544.3 514.34 551.52 514.87 558.73 515.01 565.95 515.04 573.16 514.77 580.46 514.39 585.42 519.44 590.98 523.64 596.76 527.6 601.7 532.55 607.41 536.58 612.52 541.33 617.32 545.75 610.49 546.5 603.23 546.03 595.97 546.33 588.7 545.36 581.44 545.9 574.18 546.44 566.92 545.67 559.66 546.32 552.4 545.85 545.14 545.58 537.88 546.18 530.81 545.58 526.4 539.48 522.09 533.1 517.53 526.89 512.63 520.92 508.06 514.54"/><polygon points="182.59 545.53 189.99 545.52 197.25 545.98 204.52 545.61 211.78 546.36 219.04 545.35 226.3 545.91 233.56 546.45 240.82 546.02 248.08 546.07 255.34 546.44 262.6 545.85 269.52 546.09 265.59 552.28 260.93 558.34 256.44 564.53 252.46 571.09 247.73 577.21 240.35 577.22 233.07 576.98 225.78 576.96 218.5 577.26 211.21 577.16 203.93 576.67 196.64 577.16 189.36 576.96 182.07 576.78 174.79 576.96 167.5 577.05 160.22 576.96 152.93 577.52 145.94 576.9 151.12 572.79 156.62 568.59 161.47 563.62 166.57 558.94 172.06 554.72 177.35 550.27 182.59 545.53"/><polygon class="a" points="270.02 546.23 277.13 545.64 284.39 546.53 291.65 545.76 298.91 546.01 306.17 546.13 313.43 546.26 320.69 546.21 327.95 545.71 335.22 545.54 342.48 545.46 349.74 545.65 356.99 545.95 354.93 553.66 352.74 561.35 351.36 569.23 349.97 577.43 342.34 577.53 335.06 576.5 327.77 576.47 320.49 577.35 313.2 576.69 305.92 576.98 298.63 576.67 291.35 577.48 284.06 577.3 276.78 577.16 269.49 577.07 262.21 576.7 254.92 576.65 247.63 577.03 251.97 570.73 256.87 564.84 260.89 558.31 265.62 552.3 270.02 546.23"/><polygon points="356.61 545.49 364.21 545.72 371.41 545.37 378.62 545.5 385.83 545.61 393.03 546.02 400.24 546.31 407.45 545.59 414.65 546.05 421.86 546.31 429.07 546.07 436.27 545.74 443.51 545.9 445.01 553.78 447.51 561.4 449.12 569.23 451.22 577.29 443.62 577.42 436.39 577.27 429.16 577.59 421.93 577.63 414.7 576.71 407.47 576.44 400.24 576.88 393.01 576.7 385.78 576.5 378.55 576.53 371.32 577.11 364.09 577.43 356.86 576.66 349.42 577.18 351.11 569.17 353.21 561.46 355.46 553.78 356.61 545.49"/><polygon class="a" points="443.15 545.71 450.74 546.25 458 546.5 465.26 545.42 472.53 545.34 479.79 545.46 487.05 546.01 494.31 546.05 501.57 546.23 508.83 546.34 516.09 545.45 523.36 546.03 530.84 545.52 535.46 551.87 539.16 558.63 543.56 564.88 548.65 570.63 552.41 576.83 545.56 577.08 538.27 577.55 530.99 576.56 523.7 577.48 516.42 576.53 509.13 576.85 501.85 577.53 494.56 577.15 487.28 577.57 479.99 577.52 472.71 576.56 465.42 576.48 458.14 577.31 450.67 577.25 449.26 569.2 447.34 561.44 444.77 553.84 443.15 545.71"/><polygon points="530.79 546.01 537.88 546.35 545.14 546.45 552.4 546.53 559.66 545.78 566.92 546.33 574.18 546.41 581.44 546.39 588.7 545.5 595.97 545.92 603.23 546.51 610.49 545.78 617.55 546.5 622.75 550.73 628.32 554.85 633.31 559.65 638.78 563.89 644.06 568.35 649.27 572.9 654.52 576.89 647.55 576.92 640.26 576.48 632.98 576.97 625.69 577.41 618.41 576.73 611.12 577.44 603.84 577.29 596.55 577.05 589.27 577.4 581.98 577.18 574.7 577.37 567.41 576.97 560.13 576.81 552.81 577.1 548.67 570.62 543.79 564.71 539.15 558.63 534.94 552.24 530.79 546.01"/><polygon class="a" points="145.71 577.21 152.93 577.04 160.22 577.53 167.5 577.19 174.79 576.92 182.07 577.32 189.36 577.33 196.64 577.59 203.93 577.36 211.21 576.77 218.5 577.07 225.78 576.96 233.07 577.52 240.35 577.3 247.87 576.93 243.15 583.29 238.84 589.68 234.12 595.77 230.09 602.36 225.38 608.63 217.93 608.21 210.62 608.93 203.31 607.9 196 608.4 188.69 608.56 181.38 608.12 174.07 607.92 166.76 608.83 159.45 608.38 152.14 608.3 144.83 608.54 137.52 608.11 130.21 608.66 122.9 607.8 115.59 608.2 108.65 608.2 113.33 603.54 118.68 599.08 124.17 594.78 129.45 590.23 134.74 585.71 140.63 581.89 145.71 577.21"/><polygon points="247.67 577.09 254.92 577.15 262.21 576.93 269.49 576.84 276.78 577.61 284.06 576.52 291.35 577.3 298.63 577.36 305.92 576.93 313.2 577.52 320.49 576.63 327.77 576.83 335.06 577.31 342.34 577.43 349.36 577.22 347.89 584.89 345.55 592.61 344.21 600.56 342.23 608.4 334.89 608.37 327.58 608.76 320.27 608.78 312.96 607.87 305.65 608.19 298.34 607.99 291.03 607.8 283.72 608.46 276.41 608.32 269.1 608.82 261.79 608.23 254.48 608.59 247.17 608.68 239.86 608.79 232.55 607.88 225.7 608.15 229.9 602.22 233.8 595.55 239.1 589.86 243.52 583.56 247.67 577.09"/><polygon class="a" points="349.85 577.29 356.86 577.19 364.09 576.45 371.32 576.54 378.55 577.19 385.78 576.86 393.01 577.16 400.24 576.69 407.47 577.59 414.7 577.09 421.93 577.15 429.16 577.05 436.39 576.62 443.62 576.84 450.74 577.16 452.87 584.82 454.98 592.6 456.61 600.48 458.33 608.4 451.02 607.84 443.77 608.32 436.51 608.66 429.26 607.8 422 608.14 414.75 608.71 407.5 608.14 400.24 608.02 392.99 608.72 385.73 608.82 378.48 608.13 371.22 607.97 363.96 608.7 356.71 608.75 349.46 608.33 342.24 608.34 344.14 600.55 346.47 592.83 347.26 584.74 349.85 577.29"/><polygon points="451.29 577.33 458.14 577.25 465.42 577.24 472.71 576.79 479.99 576.58 487.28 576.53 494.56 576.87 501.85 577.14 509.13 576.57 516.42 576.58 523.7 577.02 530.99 576.46 538.27 576.88 545.56 576.79 552.87 576.99 557.79 582.96 561.66 589.66 566.58 595.62 570.32 602.41 575.09 608.29 567.93 607.98 560.62 608.39 553.31 608.36 546 608.48 538.69 608.89 531.38 608.93 524.07 608.49 516.76 608.11 509.45 608.68 502.14 608.24 494.83 608.41 487.52 608.83 480.21 608.13 472.9 607.88 465.59 608.18 458.53 608.06 455.94 600.64 454.29 592.76 453.13 584.76 451.29 577.33"/><polygon class="a" points="552.41 576.84 560.13 576.91 567.41 576.82 574.7 577.18 581.98 577.03 589.27 576.52 596.55 577.37 603.84 576.82 611.12 577.27 618.41 576.98 625.69 576.56 632.98 576.59 640.26 576.93 647.55 576.92 654.7 577.41 660.1 581.6 665.39 586.12 671.19 590.05 676.22 594.88 681.67 599.23 687.21 603.47 692.2 608.36 684.89 608.86 677.58 607.79 670.27 608.33 662.96 608.78 655.65 608.76 648.34 607.94 641.03 608.91 633.72 608.65 626.41 608.52 619.1 608.3 611.79 608.93 604.48 607.98 597.17 608.53 589.86 608.4 582.55 608.37 575.15 608.53 571.22 601.77 566.65 595.56 561.47 589.8 557.48 583.19 552.41 576.84"/><polygon points="108.33 608.5 115.59 608.63 122.9 608.47 130.21 607.81 137.52 607.9 144.83 608.25 152.14 608.04 159.45 608.08 166.76 608.66 174.07 608.85 181.38 608.55 188.69 607.9 196 608.93 203.31 608.59 210.62 608.21 217.93 608.04 225.51 608.24 221.07 614.85 216.13 620.78 212.14 627.4 207.1 633.26 202.68 639.38 195.51 639.72 188.18 640.05 180.85 640.24 173.53 640.16 166.2 639.1 158.87 639.56 151.54 639.1 144.21 639.75 136.88 640.14 129.55 639.43 122.22 639.91 114.89 639.33 107.56 640.28 100.24 639.1 92.91 640.05 85.58 639.88 78.25 640.2 71.45 639.45 76.55 635.56 81.59 630.74 86.86 626.17 92.4 621.94 97.9 617.66 103.21 613.16 108.33 608.5"/><polygon class="a" points="225.5 608.86 232.55 608.53 239.86 608.66 247.17 608.74 254.48 608.05 261.79 608.92 269.1 607.91 276.41 607.98 283.72 608.36 291.03 608.45 298.34 608.09 305.65 608.38 312.96 607.81 320.27 608.94 327.58 608.68 334.89 608.94 342.14 608.4 340.24 616.17 338.1 623.93 336.06 631.72 334.62 639.51 327.44 639.86 320.11 639.72 312.78 639.13 305.45 639.39 298.13 639.16 290.8 639.67 283.47 639.49 276.14 639.5 268.81 640.1 261.48 639.82 254.15 639.58 246.82 639.7 239.49 639.87 232.16 639.48 224.83 639.28 217.5 639.93 210.17 639.7 203.35 639.46 206.88 633.1 211.94 627.25 216.43 621 220.48 614.42 225.5 608.86"/><polygon points="342.04 608.17 349.46 608.46 356.71 608.83 363.96 608.59 371.22 608.48 378.48 607.91 385.73 608.65 392.99 608.75 400.24 608.54 407.5 608.65 414.75 607.92 422 607.97 429.26 608.26 436.51 608.35 443.77 608.14 451.02 608.29 458.41 608.21 460.35 616.14 461.73 624.09 463.62 631.91 465.47 639.53 458.43 639.9 451.16 639.65 443.88 639.89 436.61 639.23 429.34 639.52 422.06 639.65 414.79 640.02 407.51 639.55 400.24 640.27 392.97 639.89 385.69 640.23 378.42 640.06 371.14 639.19 363.87 640.25 356.6 639.85 349.32 639.67 342.05 639.92 334.71 639.73 336.24 631.76 338.15 623.95 340.76 616.29 342.04 608.17"/><polygon class="a" points="457.99 608.16 465.59 608.32 472.9 608.23 480.21 607.97 487.52 608.17 494.83 608.38 502.14 608.82 509.45 608.92 516.76 607.99 524.07 607.96 531.38 608.23 538.69 608.26 546 608.3 553.31 607.79 560.62 608.29 567.93 608.06 575.36 608.14 579.6 614.71 584.45 620.72 588.88 627.02 593.49 633.19 597.95 639.83 590.31 640.05 582.98 639.41 575.65 639.55 568.32 639.38 560.99 639.21 553.66 639.78 546.33 640.2 539 639.88 531.67 639.93 524.34 639.68 517.01 639.53 509.69 639.27 502.36 639.36 495.03 639.42 487.7 639.49 480.37 639.83 473.04 639.51 465.8 639.58 463.81 631.87 461.53 624.13 459.83 616.27 457.99 608.16"/><polygon points="575.41 608.43 582.55 608.55 589.86 608.92 597.17 608.69 604.48 607.92 611.79 607.83 619.1 608.11 626.41 608.78 633.72 608.45 641.03 608.45 648.34 608.4 655.65 608.4 662.96 608.22 670.27 607.92 677.58 607.84 684.89 608.61 692.3 608.07 697.34 613.07 702.73 617.48 708.06 621.97 713.63 626.16 718.6 631.08 724.4 635.01 729.54 639.68 722.23 639.14 714.9 639.34 707.57 639.42 700.25 639.7 692.92 639.59 685.59 640.27 678.26 640.02 670.93 639.1 663.6 639.68 656.27 639.85 648.94 639.35 641.61 639.35 634.28 639.75 626.96 639.26 619.63 640.1 612.3 639.53 604.97 639.93 597.83 639.34 593.45 633.22 588.88 627.02 583.84 621.15 579.83 614.55 575.41 608.43"/><polygon class="b" points="729.33 639.71 721.9 640.21 714.67 639.77 707.43 639.88 700.2 639.81 692.97 639.25 685.74 639.65 678.5 639.5 671.27 639.62 664.04 639.07 656.81 639.4 649.58 639.03 642.34 639.34 635.11 639.64 627.88 639.18 620.65 639.51 613.41 639.82 606.18 639.45 598.95 639.37 591.72 640.14 584.49 640.01 577.25 639.13 570.02 640.1 562.79 639.24 555.56 639.49 548.32 639.45 541.09 640.11 533.86 639.43 526.63 639.76 519.39 639.15 512.16 639.77 504.93 639.08 497.7 639.12 490.46 639.23 483.23 639.47 476 639.5 468.77 639.97 461.54 639.98 454.3 639.66 447.07 639.06 439.84 639.16 432.61 639.68 425.37 639.63 418.14 640.08 410.91 639.59 403.68 639.43 396.44 640.05 389.21 639.81 381.98 639.27 374.75 640.02 367.52 639.25 360.28 639.65 353.05 639.55 345.82 640.19 338.59 639.09 331.35 640.21 324.12 639.58 316.89 639.13 309.66 639.5 302.43 639.79 295.19 639.57 287.96 639.16 280.73 639.91 273.5 639.82 266.26 639.03 259.03 639.5 251.8 640.09 244.57 639.88 237.33 639.34 230.1 639.94 222.87 639.14 215.64 639.22 208.41 639.32 201.17 639.27 193.94 639.64 186.71 639.3 179.48 639.16 172.24 640.08 165.01 639.06 157.78 639.18 150.55 639.98 143.31 639.99 136.08 639.16 128.85 639.7 121.62 639.04 114.39 640.16 107.15 640.11 99.92 640.04 92.69 640.15 85.45 639.04 78.22 639.15 70.44 639.84 76.45 635 81.78 630.22 87.13 625.47 92.65 620.91 98.15 616.33 103.58 611.67 109.29 607.35 114.54 602.46 120.51 598.45 126.2 594.09 131.69 589.5 136.68 584.32 142.46 580.07 147.63 575.1 153.39 570.84 159.04 566.44 163.83 561.01 169.61 556.77 175.08 552.15 180.63 547.63 186.52 543.53 191.51 538.34 196.85 533.57 202.93 529.68 208.31 524.95 213.68 520.23 218.8 515.19 224.43 510.77 229.72 505.94 235.53 501.73 240.72 496.78 246.32 492.33 251.87 487.81 257.5 483.48 264.57 483.7 271.71 482.84 278.84 483.45 285.98 483.65 293.12 483.13 300.25 482.94 307.39 482.71 314.52 483.58 321.66 483.59 328.8 483.43 335.93 482.77 343.07 482.79 350.21 483.24 357.34 483.89 364.48 482.87 371.62 482.92 378.75 482.94 385.89 483.07 393.03 482.88 400.16 483.85 407.3 482.93 414.44 483.19 421.57 483.17 428.71 483.59 435.85 483.46 442.98 483.6 450.12 482.99 457.25 483.88 464.39 483.79 471.53 483.26 478.66 483.48 485.8 483.77 492.94 483 500.07 483.85 507.21 482.92 514.35 483.78 521.48 483 528.62 483.08 535.76 483.42 542.69 483.86 548.73 487.48 553.7 492.67 559.28 497.15 564.58 501.96 570.31 506.26 575.42 511.29 581.11 515.64 586.77 520.02 592.44 524.38 597.58 529.39 603.32 533.67 608.94 538.1 613.79 543.44 619.38 547.91 625.21 552.09 630.59 556.81 635.81 561.71 641.6 565.94 646.94 570.7 652.51 575.18 658.3 579.41 663.7 584.11 668.77 589.18 674.74 593.19 679.46 598.69 685.42 602.71 690.99 607.21 696.4 611.88 701.63 616.78 707.17 621.3 712.66 625.88 718.17 630.44 723.58 635.12 729.33 639.71"/><polygon points="70.96 639.96 78.33 639.66 85.66 640.12 92.99 640.07 100.32 640.06 107.65 640.29 114.99 639.89 122.32 640.44 129.66 639.91 137.14 639.84 136.46 646.6 137.18 653.19 137.57 659.79 136.74 666.4 136.83 672.81 129.67 672.73 122.34 672.88 115.01 673.33 107.68 672.62 100.35 673.09 93.01 672.46 85.68 673.33 78.34 672.98 71.13 672.85 71.45 666.4 71.49 659.81 70.81 653.21 70.66 646.61 70.96 639.96"/><polygon class="a" points="137.06 640.07 144.33 640.46 151.66 639.78 158.99 640.23 166.32 640.11 173.65 639.52 180.99 639.47 188.32 639.72 195.66 640.14 203.25 639.72 203.28 646.6 203.14 653.19 202.79 659.79 202.72 666.4 203.28 673.31 195.67 672.86 188.34 672.66 181.01 673.11 173.68 673.14 166.35 672.9 159.01 672.46 151.68 672.72 144.34 672.52 136.85 673.17 136.6 666.4 136.52 659.81 136.61 653.21 136.49 646.6 137.06 640.07"/><polygon points="202.87 639.86 210.22 640.57 217.44 640.25 224.66 639.41 231.88 639.99 239.1 640.11 246.32 639.62 253.54 639.99 260.77 639.84 268.08 639.91 268.56 646.6 268.37 653.19 267.44 659.79 267.8 666.4 267.97 672.97 260.78 673.48 253.56 672.79 246.34 673.08 239.12 672.85 231.9 673.12 224.68 673.56 217.46 672.67 210.23 673.45 202.72 673.3 203.52 666.4 203.31 659.81 202.78 653.21 203.16 646.6 202.87 639.86"/><polygon class="a" points="268.08 640.09 275.33 639.62 282.66 640.14 289.99 640.54 297.32 640.26 304.65 639.9 311.99 639.68 319.32 640.48 326.66 640.54 334.24 639.73 334.4 646.6 334.13 653.19 334.38 659.79 334.28 666.4 333.63 672.59 326.67 672.85 319.34 673.49 312.01 673.11 304.68 672.72 297.35 673.35 290.01 673.26 282.68 673.57 275.34 672.41 268.07 672.92 268.27 666.4 267.69 659.81 267.93 653.21 268.47 646.61 268.08 640.09"/><polygon points="334.28 640.32 341.33 639.64 348.66 639.82 355.99 639.93 363.32 640.29 370.65 640.51 377.99 640.37 385.32 639.49 392.66 640.28 399.84 640.18 400.4 646.6 400.5 653.19 400.49 659.79 400.44 666.4 399.75 672.72 392.67 673.18 385.34 673.49 378.01 672.6 370.68 672.64 363.35 673.41 356.01 672.73 348.68 673.16 341.34 673.42 333.89 673.13 334.44 666.4 333.78 659.81 333.68 653.21 333.62 646.6 334.28 640.32"/><polygon class="a" points="400.39 640.44 407.33 639.96 414.66 639.81 421.99 639.69 429.32 640.17 436.65 639.94 443.99 639.84 451.32 640.41 458.66 639.87 465.79 640.23 465.97 646.6 466.36 653.19 466.54 659.79 466.38 666.4 465.78 672.76 458.67 673.55 451.34 672.5 444.01 672.96 436.68 673.43 429.35 673.04 422.01 673.05 414.68 672.75 407.34 672.59 399.9 673.11 400.02 666.4 400.51 659.81 399.48 653.21 399.55 646.59 400.39 640.44"/><polygon points="465.88 639.86 473.33 639.9 480.66 640.27 487.99 641 495.32 641 502.65 640.65 509.99 639.99 517.32 640.45 524.66 640.56 532.14 639.86 531.66 646.61 531.51 653.2 532.35 659.79 531.72 666.4 532.03 673.04 524.67 673.56 517.34 673.02 510.01 672.43 502.68 672.92 495.35 673.43 488.01 673.15 480.68 672.99 473.34 673.16 466.28 672.68 465.42 666.4 465.85 659.81 466.4 653.21 466.02 646.6 465.88 639.86"/><polygon class="a" points="531.81 639.79 539.33 640.18 546.66 639.72 553.99 640.32 561.32 640.15 568.65 640.26 575.99 640.07 583.32 639.89 590.66 639.56 597.86 640.15 597.99 646.6 598.17 653.19 598.09 659.79 598.45 666.4 598.17 673.19 590.67 672.4 583.34 672.49 576.01 673.19 568.68 672.76 561.35 673.07 554.01 672.96 546.68 672.66 539.34 672.41 532.23 672.75 532.48 666.4 531.62 659.81 532.59 653.21 531.96 646.61 531.81 639.79"/><polygon points="597.66 639.62 605.33 639.44 612.66 640.17 619.99 639.56 627.32 640.35 634.65 640.35 641.99 639.43 649.32 639.66 656.66 640.42 664.06 639.93 663.72 646.6 664.07 653.19 664 659.79 663.93 666.4 663.92 672.92 656.67 672.79 649.34 672.62 642.01 672.99 634.68 672.46 627.35 672.58 620.01 673.24 612.68 673.42 605.34 673.22 598.23 672.75 597.83 666.4 598.31 659.81 597.92 653.21 597.84 646.61 597.66 639.62"/><polygon class="a" points="663.31 640.35 670.33 639.67 677.66 639.51 684.99 640.41 692.32 639.91 699.65 639.78 706.99 639.98 714.32 640.51 721.66 639.45 728.61 640.43 728.5 646.6 728.66 653.19 729.14 659.79 728.61 666.4 728.83 672.81 721.67 673.21 714.34 672.9 707.01 673.43 699.68 673.33 692.35 672.78 685.01 673.24 677.68 672.63 670.34 672.7 662.69 673.34 663.01 666.4 662.59 659.81 662.8 653.21 662.43 646.59 663.31 640.35"/><polygon class="b" points="728.69 672.68 721.85 673.09 714.61 672.75 707.37 672.52 700.14 672.84 692.9 673.7 685.67 673.29 678.44 673.09 671.21 673.31 663.97 672.58 656.74 672.52 649.51 672.86 642.27 673.4 635.03 672.87 627.79 673.38 620.56 672.8 613.33 673 606.09 673.03 598.86 673.36 591.63 672.93 584.39 672.95 577.15 672.83 569.91 672.83 562.68 672.58 555.45 672.98 548.21 672.8 540.98 673.13 533.74 673.6 526.5 672.83 519.26 672.86 512.03 672.9 504.79 673.12 497.56 673.47 490.32 672.79 483.08 673.11 475.85 673.05 468.61 673.53 461.38 673.15 454.14 672.97 446.9 672.66 439.66 673.42 432.43 673.42 425.19 673.05 417.95 672.6 410.71 672.55 403.48 673.01 396.24 672.67 389 673.47 381.76 673.51 374.52 673.05 367.29 673.1 360.05 673.21 352.81 672.54 345.57 672.94 338.33 673.55 331.09 673.03 323.86 672.77 316.62 673.61 309.38 672.79 302.14 673.22 294.9 673.52 287.66 673.22 280.42 672.97 273.18 673.29 265.95 673.05 258.71 673.31 251.47 673.16 244.24 673.54 237 672.93 229.76 672.61 222.53 673.32 215.28 673.25 208.05 673.51 200.81 672.63 193.57 672.53 186.33 673.31 179.09 673.69 171.85 673.26 164.6 672.68 157.36 672.58 150.12 673.06 142.88 673.24 135.63 672.53 128.4 672.95 121.16 672.63 113.91 672.51 106.67 673.05 99.43 672.87 92.18 673.53 84.94 673.57 77.69 672.91 70.81 672.71 69.98 666.54 70.67 659.97 71.01 653.39 70.36 646.82 70.66 640.48 77.67 640.53 84.91 640.26 92.15 640.49 99.38 639.66 106.62 640.32 113.85 640.64 121.08 640.55 128.31 640.37 135.55 640.59 142.78 640.05 150.01 640.69 157.25 640.01 164.49 640.18 171.72 639.9 178.96 640.33 186.19 640.54 193.43 640.83 200.66 640.53 207.89 640.81 215.13 639.92 222.37 639.79 229.6 639.95 236.84 640.3 244.07 639.65 251.31 640.3 258.54 640.74 265.78 640.73 273.02 639.73 280.25 640.29 287.49 639.77 294.73 640.03 301.96 639.87 309.2 639.94 316.44 640.71 323.67 640.45 330.91 639.77 338.14 640.69 345.38 640.05 352.62 640.48 359.86 640.45 367.09 640.19 374.33 639.72 381.57 640.8 388.81 640.7 396.04 640.19 403.28 640.54 410.52 640.44 417.76 640.14 425 640.81 432.23 639.85 439.47 640.36 446.71 640.7 453.95 640.35 461.19 640.13 468.43 640.01 475.67 639.95 482.9 640.63 490.14 640.37 497.38 640.74 504.62 640.36 511.86 639.9 519.1 639.94 526.34 640.31 533.57 640.5 540.81 640.66 548.04 639.78 555.28 640.76 562.52 640.71 569.76 640.24 576.99 640.75 584.23 640.69 591.47 639.71 598.71 639.86 605.95 640.71 613.19 640.22 620.43 640.64 627.67 639.92 634.91 639.74 642.16 640.54 649.4 640.54 656.64 640.45 663.88 640.81 671.12 639.81 678.36 640.69 685.61 639.83 692.85 640.79 700.09 639.79 707.34 640.12 714.58 639.73 721.83 639.82 729.4 639.88 729.26 646.81 729.48 653.38 729.13 659.95 728.87 666.53 728.69 672.68"/><polygon class="a" points="552.53 332.44 552.97 324.6 552.76 316.97 551.8 309.35 552.48 301.72 552.53 294.09 551.88 286.46 552.41 278.83 552.4 272.69 552.59 266.54 551.42 259.48 551.16 252.29 548.68 245.56 546.81 238.65 543.29 232.41 540.63 225.74 536.4 219.96 532.58 213.91 527.65 208.73 522.92 203.41 517.83 198.43 512.66 193.49 506.64 189.63 500.67 185.7 494.07 182.97 487.76 179.29 480.77 177.11 474.48 173.38 467.61 170.92 460.91 168.1 454.27 165.13 448 161.34 441.38 158.36 434.43 156.09 427.83 153.03 421.21 150.02 414.56 147.09 407.81 144.37 401.45 140.78 394.47 138.58 387.98 135.24 381.44 132.04 374.55 129.08 367.15 127.81 359.77 126.75 352.39 127.63 344.99 128.62 338.61 132.49 332.55 136.82 328.66 143.18 325.64 149.9 324.24 157.16 322.77 164.52 323.78 170.66 323.8 176.8 323.55 184.43 323.11 192.05 323.8 199.68 323.2 207.3 322.88 214.93 323.75 222.56 323.67 229.92 329.65 233.37 336.09 236.52 342.73 239.23 349.28 242.12 355.78 245.14 362.26 248.21 368.94 250.81 375.56 253.55 381.89 256.94 388.65 259.37 395.2 262.27 401.56 265.61 408.26 268.17 414.99 270.67 421.62 273.4 427.92 276.85 434.24 280.28 440.8 283.17 447.64 285.44 454.24 288.23 460.6 291.57 467.41 293.89 473.95 296.83 480.49 299.77 486.68 303.49 493.37 306.07 499.76 309.34 506.68 311.42 513.1 314.62 519.71 317.41 526.18 320.5 532.57 323.77 539.21 326.51 545.95 329.01 552.53 332.44"/><polygon class="b" points="552.53 332.44 552.97 324.6 552.76 316.97 551.8 309.35 552.48 301.72 552.53 294.09 551.88 286.46 552.41 278.83 552.4 272.69 552.59 266.54 551.42 259.48 551.16 252.29 548.68 245.56 546.81 238.65 543.29 232.41 540.63 225.74 536.4 219.96 532.58 213.91 527.65 208.73 522.92 203.41 517.83 198.43 512.66 193.49 506.64 189.63 500.67 185.7 494.07 182.97 487.76 179.29 480.77 177.11 474.48 173.38 467.61 170.92 460.91 168.1 454.27 165.13 448 161.34 441.38 158.36 434.43 156.09 427.83 153.03 421.21 150.02 414.56 147.09 407.81 144.37 401.45 140.78 394.47 138.58 387.98 135.24 381.44 132.04 374.55 129.08 367.15 127.81 359.77 126.75 352.39 127.63 344.99 128.62 338.61 132.49 332.55 136.82 328.66 143.18 325.64 149.9 324.24 157.16 322.77 164.52 323.78 170.66 323.8 176.8 323.55 184.43 323.11 192.05 323.8 199.68 323.2 207.3 322.88 214.93 323.75 222.56 323.67 229.92 329.65 233.37 336.09 236.52 342.73 239.23 349.28 242.12 355.78 245.14 362.26 248.21 368.94 250.81 375.56 253.55 381.89 256.94 388.65 259.37 395.2 262.27 401.56 265.61 408.26 268.17 414.99 270.67 421.62 273.4 427.92 276.85 434.24 280.28 440.8 283.17 447.64 285.44 454.24 288.23 460.6 291.57 467.41 293.89 473.95 296.83 480.49 299.77 486.68 303.49 493.37 306.07 499.76 309.34 506.68 311.42 513.1 314.62 519.71 317.41 526.18 320.5 532.57 323.77 539.21 326.51 545.95 329.01 552.53 332.44"/><polygon points="476.63 388.71 477.2 381.3 476.52 373.67 476.26 366.05 476.46 358.42 476.34 350.79 476.74 343.16 476.91 335.53 476.88 329.38 476.68 323.24 476.41 316.11 475.42 309.02 473.84 302.02 470.77 295.52 467.93 288.99 464.24 282.89 460.65 276.76 456.48 271 452.22 265.29 447.24 260.19 442.44 254.9 437.07 250.18 431.21 246.06 424.81 242.88 418.63 239.34 412.2 235.89 405.42 233.26 398.57 230.78 392.2 227.19 385.42 224.55 379.01 221.08 372.21 218.47 365.7 215.23 358.81 212.84 352.11 210.02 345.45 207.09 338.83 204.08 332.12 201.27 325.75 197.71 318.87 195.27 312.54 191.6 305.94 188.52 298.6 186.85 291.52 184.64 284.18 183.16 276.65 183.28 269.6 185.91 262.54 188.47 257.33 193.87 252.76 199.7 250.04 206.6 248.31 213.81 247.72 221.22 247.48 227.36 247.28 233.5 247.19 241.12 247.54 248.75 247.67 256.37 247.69 264 247.55 271.63 247.49 279.26 247.44 287.01 254.4 289.28 260.94 292.21 267.22 295.73 273.58 299.05 280.38 301.4 286.93 304.31 293.39 307.39 300.09 309.96 306.41 313.37 312.91 316.39 319.63 318.91 326 322.21 332.86 324.43 339.34 327.48 345.81 330.57 352.21 333.81 358.87 336.46 365.23 339.81 371.98 342.27 378.54 345.14 385.05 348.15 391.5 351.29 397.98 354.37 404.67 356.96 411.05 360.25 417.96 362.35 424.34 365.64 430.85 368.64 437.36 371.65 443.78 374.86 450.72 376.89 457.33 379.66 463.9 382.56 470.19 386.08 476.63 388.71"/><polygon class="b" points="476.63 388.71 477.2 381.3 476.52 373.67 476.26 366.05 476.46 358.42 476.34 350.79 476.74 343.16 476.91 335.53 476.88 329.38 476.68 323.24 476.41 316.11 475.42 309.02 473.84 302.02 470.77 295.52 467.93 288.99 464.24 282.89 460.65 276.76 456.48 271 452.22 265.29 447.24 260.19 442.44 254.9 437.07 250.18 431.21 246.06 424.81 242.88 418.63 239.34 412.2 235.89 405.42 233.26 398.57 230.78 392.2 227.19 385.42 224.55 379.01 221.08 372.21 218.47 365.7 215.23 358.81 212.84 352.11 210.02 345.45 207.09 338.83 204.08 332.12 201.27 325.75 197.71 318.87 195.27 312.54 191.6 305.94 188.52 298.6 186.85 291.52 184.64 284.18 183.16 276.65 183.28 269.6 185.91 262.54 188.47 257.33 193.87 252.76 199.7 250.04 206.6 248.31 213.81 247.72 221.22 247.48 227.36 247.28 233.5 247.19 241.12 247.54 248.75 247.67 256.37 247.69 264 247.55 271.63 247.49 279.26 247.44 287.01 254.4 289.28 260.94 292.21 267.22 295.73 273.58 299.05 280.38 301.4 286.93 304.31 293.39 307.39 300.09 309.96 306.41 313.37 312.91 316.39 319.63 318.91 326 322.21 332.86 324.43 339.34 327.48 345.81 330.57 352.21 333.81 358.87 336.46 365.23 339.81 371.98 342.27 378.54 345.14 385.05 348.15 391.5 351.29 397.98 354.37 404.67 356.96 411.05 360.25 417.96 362.35 424.34 365.64 430.85 368.64 437.36 371.65 443.78 374.86 450.72 376.89 457.33 379.66 463.9 382.56 470.19 386.08 476.63 388.71"/><polygon class="a" points="476.37 388.17 481.57 383.9 487.65 379.94 493.7 375.93 499.53 371.63 504.89 366.72 510.95 362.72 516.48 358.02 522.8 354.36 528.31 349.64 533.92 345.05 540.2 341.34 545.49 336.3 551.72 332.33 551.82 324.88 551.7 317.53 551.15 310.19 551.74 302.84 551.54 295.49 551.71 288.14 551.99 280.79 550.94 273.44 551.37 266.08 550.77 258.99 549.58 251.98 549.09 244.77 546.77 237.98 543.78 231.47 541.21 224.76 537.68 218.5 532.89 213.11 528.2 207.76 523.3 202.62 518.62 197.14 512.58 193.27 506.93 188.84 500.49 185.69 493.87 182.97 487.6 179.18 480.69 176.82 474.13 173.68 467.33 171.09 460.99 167.47 454.37 164.48 447.52 161.99 440.83 159.16 434.25 156.07 427.8 152.7 421.05 149.99 414.39 147.08 407.86 143.87 401.04 141.33 394.42 138.35 387.87 135.21 381.14 132.52 374.05 130.43 366.65 129.96 359.3 129.52 351.98 130.05 344.77 131.34 338.09 134.28 331.99 137.76 325.88 141.34 320.82 146.39 314.69 149.96 309.41 154.67 303.58 158.66 297.86 162.81 292.24 167.08 286.19 170.79 280.88 175.48 275.52 180.09 269.77 184.19 263.89 187.83 270.39 184.72 277.53 182.86 284.9 182.45 291.99 184.44 299.09 185.96 305.72 188.98 312.29 192.11 319.02 194.86 325.88 197.31 332.43 200.5 338.81 204.03 345.58 206.71 352.35 209.37 358.75 212.86 365.56 215.43 372.36 218.04 378.9 221.23 385.44 224.41 392.06 227.43 398.59 230.64 405.22 233.64 412.14 235.99 418.68 239.2 424.82 242.85 431.07 246.38 436.32 251.3 442.08 255.54 447.08 260.64 452.1 265.7 457.24 270.69 461.7 276.3 465.49 282.39 469.3 288.48 471.5 295.34 474.42 301.91 475 309.11 477.05 316.05 476.73 323.24 476.05 330.5 476.92 337.78 476.18 345.05 476.01 352.31 476.16 359.59 475.96 366.86 476.63 374.14 476.27 381.41 476.37 388.17"/><polygon class="b" points="476.37 388.17 481.57 383.9 487.65 379.94 493.7 375.93 499.53 371.63 504.89 366.72 510.95 362.72 516.48 358.02 522.8 354.36 528.31 349.64 533.92 345.05 540.2 341.34 545.49 336.3 551.72 332.33 551.82 324.88 551.7 317.53 551.15 310.19 551.74 302.84 551.54 295.49 551.71 288.14 551.99 280.79 550.94 273.44 551.37 266.08 550.77 258.99 549.58 251.98 549.09 244.77 546.77 237.98 543.78 231.47 541.21 224.76 537.68 218.5 532.89 213.11 528.2 207.76 523.3 202.62 518.62 197.14 512.58 193.27 506.93 188.84 500.49 185.69 493.87 182.97 487.6 179.18 480.69 176.82 474.13 173.68 467.33 171.09 460.99 167.47 454.37 164.48 447.52 161.99 440.83 159.16 434.25 156.07 427.8 152.7 421.05 149.99 414.39 147.08 407.86 143.87 401.04 141.33 394.42 138.35 387.87 135.21 381.14 132.52 374.05 130.43 366.65 129.96 359.3 129.52 351.98 130.05 344.77 131.34 338.09 134.28 331.99 137.76 325.88 141.34 320.82 146.39 314.69 149.96 309.41 154.67 303.58 158.66 297.86 162.81 292.24 167.08 286.19 170.79 280.88 175.48 275.52 180.09 269.77 184.19 263.89 187.83 270.39 184.72 277.53 182.86 284.9 182.45 291.99 184.44 299.09 185.96 305.72 188.98 312.29 192.11 319.02 194.86 325.88 197.31 332.43 200.5 338.81 204.03 345.58 206.71 352.35 209.37 358.75 212.86 365.56 215.43 372.36 218.04 378.9 221.23 385.44 224.41 392.06 227.43 398.59 230.64 405.22 233.64 412.14 235.99 418.68 239.2 424.82 242.85 431.07 246.38 436.32 251.3 442.08 255.54 447.08 260.64 452.1 265.7 457.24 270.69 461.7 276.3 465.49 282.39 469.3 288.48 471.5 295.34 474.42 301.91 475 309.11 477.05 316.05 476.73 323.24 476.05 330.5 476.92 337.78 476.18 345.05 476.01 352.31 476.16 359.59 475.96 366.86 476.63 374.14 476.27 381.41 476.37 388.17"/><polygon class="a" points="448.23 233.51 441.72 230.21 435.18 227.54 428.74 224.66 422.24 221.89 416.04 218.45 409.29 216.25 402.95 213.14 396.29 210.74 389.83 207.87 383.49 204.75 377.19 201.57 370.51 199.2 364.15 196.14 357.82 192.98 351.43 189.98 344.76 187.58 338.37 184.58 331.92 181.69 325.32 179.13 319.44 175.9 324.21 172.67 328.71 168.29 334.07 164.94 340.58 167.9 346.81 171.29 353.33 173.99 359.98 176.41 366.31 179.55 372.75 182.44 379.09 185.56 385.85 187.75 392.21 190.82 398.81 193.35 405.38 195.94 411.63 199.26 418.08 202.15 424.49 205.12 430.99 207.88 437.55 210.51 444.08 213.19 450.14 216.96 456.98 218.99 463.56 222.09 458.17 225.61 453.49 229.72 448.23 233.51"/><polygon class="c" points="448.23 233.51 441.72 230.21 435.18 227.54 428.74 224.66 422.24 221.89 416.04 218.45 409.29 216.25 402.95 213.14 396.29 210.74 389.83 207.87 383.49 204.75 377.19 201.57 370.51 199.2 364.15 196.14 357.82 192.98 351.43 189.98 344.76 187.58 338.37 184.58 331.92 181.69 325.32 179.13 319.44 175.9 324.21 172.67 328.71 168.29 334.07 164.94 340.58 167.9 346.81 171.29 353.33 173.99 359.98 176.41 366.31 179.55 372.75 182.44 379.09 185.56 385.85 187.75 392.21 190.82 398.81 193.35 405.38 195.94 411.63 199.26 418.08 202.15 424.49 205.12 430.99 207.88 437.55 210.51 444.08 213.19 450.14 216.96 456.98 218.99 463.56 222.09 458.17 225.61 453.49 229.72 448.23 233.51"/><polygon points="448.25 233.44 441.88 229.83 435.21 227.46 428.88 224.32 422.29 221.78 416.07 218.39 409.27 216.31 403.06 212.89 396.46 210.34 389.93 207.65 383.8 204.05 377.02 201.93 370.68 198.82 364.25 195.91 357.68 193.29 351.46 189.9 344.85 187.37 338.36 184.59 332.01 181.49 325.33 179.1 318.88 176.02 324.68 171.33 331.18 174.43 337.63 177.31 344.1 180.12 350.4 183.34 357.18 185.47 363.4 188.85 369.81 191.83 376.43 194.3 382.61 197.79 389.52 199.62 395.6 203.34 402.34 205.54 408.79 208.43 415.07 211.68 421.68 214.19 428.03 217.3 434.35 220.47 441.14 222.59 447.46 225.77 454.18 228.58 448.25 233.44"/><polygon class="c" points="448.25 233.44 441.88 229.83 435.21 227.46 428.88 224.32 422.29 221.78 416.07 218.39 409.27 216.31 403.06 212.89 396.46 210.34 389.93 207.65 383.8 204.05 377.02 201.93 370.68 198.82 364.25 195.91 357.68 193.29 351.46 189.9 344.85 187.37 338.36 184.59 332.01 181.49 325.33 179.1 318.88 176.02 324.68 171.33 331.18 174.43 337.63 177.31 344.1 180.12 350.4 183.34 357.18 185.47 363.4 188.85 369.81 191.83 376.43 194.3 382.61 197.79 389.52 199.62 395.6 203.34 402.34 205.54 408.79 208.43 415.07 211.68 421.68 214.19 428.03 217.3 434.35 220.47 441.14 222.59 447.46 225.77 454.18 228.58 448.25 233.44"/><polygon class="a" points="477.51 211.6 470.96 208.58 464.72 205.25 458.11 202.74 451.83 199.47 445.03 197.4 438.67 194.32 432.31 191.24 425.74 188.65 419.27 185.82 412.72 183.16 406.26 180.34 399.94 177.17 393.63 173.97 386.89 171.76 380.39 168.98 374.08 165.8 367.74 162.66 361.08 160.25 354.91 156.72 348.79 154.16 353.2 150.51 358.37 147.06 363.38 143.43 370.02 145.84 376.53 148.59 382.76 151.94 389.38 154.43 395.83 157.3 402.04 160.73 408.58 163.38 415.19 165.9 421.38 169.37 427.81 172.29 434.64 174.29 440.67 178.11 447.48 180.16 453.81 183.31 460.14 186.47 466.66 189.2 473.33 191.56 479.73 194.57 485.97 197.93 493.01 200.32 487.3 203.66 482.84 208.07 477.51 211.6"/><polygon class="c" points="477.51 211.6 470.96 208.58 464.72 205.25 458.11 202.74 451.83 199.47 445.03 197.4 438.67 194.32 432.31 191.24 425.74 188.65 419.27 185.82 412.72 183.16 406.26 180.34 399.94 177.17 393.63 173.97 386.89 171.76 380.39 168.98 374.08 165.8 367.74 162.66 361.08 160.25 354.91 156.72 348.79 154.16 353.2 150.51 358.37 147.06 363.38 143.43 370.02 145.84 376.53 148.59 382.76 151.94 389.38 154.43 395.83 157.3 402.04 160.73 408.58 163.38 415.19 165.9 421.38 169.37 427.81 172.29 434.64 174.29 440.67 178.11 447.48 180.16 453.81 183.31 460.14 186.47 466.66 189.2 473.33 191.56 479.73 194.57 485.97 197.93 493.01 200.32 487.3 203.66 482.84 208.07 477.51 211.6"/><polygon points="477.46 211.03 470.85 208.85 464.63 205.45 458.03 202.91 451.71 199.75 445.35 196.69 438.52 194.68 432.37 191.12 425.72 188.69 419.44 185.44 412.81 182.97 406.62 179.51 399.84 177.4 393.72 173.76 387.13 171.2 380.49 168.76 374.18 165.56 367.64 162.88 361.24 159.9 354.76 157.06 347.88 154.31 353.97 149.54 360.55 152.52 367.16 155.04 373.25 158.71 380.08 160.74 386.3 164.13 392.96 166.52 399.16 169.96 405.63 172.78 412.07 175.69 418.55 178.49 425.03 181.29 431.66 183.74 438.18 186.47 444.39 189.88 451.06 192.26 457.41 195.37 464.05 197.81 470.37 201 476.66 204.26 483.58 206.83 477.46 211.03"/><polygon class="c" points="477.46 211.03 470.85 208.85 464.63 205.45 458.03 202.91 451.71 199.75 445.35 196.69 438.52 194.68 432.37 191.12 425.72 188.69 419.44 185.44 412.81 182.97 406.62 179.51 399.84 177.4 393.72 173.76 387.13 171.2 380.49 168.76 374.18 165.56 367.64 162.88 361.24 159.9 354.76 157.06 347.88 154.31 353.97 149.54 360.55 152.52 367.16 155.04 373.25 158.71 380.08 160.74 386.3 164.13 392.96 166.52 399.16 169.96 405.63 172.78 412.07 175.69 418.55 178.49 425.03 181.29 431.66 183.74 438.18 186.47 444.39 189.88 451.06 192.26 457.41 195.37 464.05 197.81 470.37 201 476.66 204.26 483.58 206.83 477.46 211.03"/><polyline class="a" points="493.43 233.42 498.44 238.64 501.74 245.16 504.94 251.71 507.42 258.58 510.04 265.42 511 272.71 512.93 279.76 514.46 286.92 515.44 294.17 515.52 301.5 516.79 308.73 517.11 316.03 517.02 323.35 516.8 330.66"/><polyline class="d" points="493.43 233.42 498.44 238.64 501.74 245.16 504.94 251.71 507.42 258.58 510.04 265.42 511 272.71 512.93 279.76 514.46 286.92 515.44 294.17 515.52 301.5 516.79 308.73 517.11 316.03 517.02 323.35 516.8 330.66"/><polygon points="523.69 330.73 516.98 334.92 510.97 339.83 510.83 332.72 510.85 325.63 510.66 318.55 509.71 311.52 508.83 304.5 507.74 297.52 506.93 290.49 506.34 283.39 503.91 276.69 502.73 269.65 500 263.09 496.56 256.89 493.49 250.52 489.68 244.49 484.14 240.4 489.24 235.84 494.31 231.28 499.86 235.14 504.73 240.23 509.44 245.75 512.41 252.34 514.39 259.28 517.07 266 518.09 273.15 519.24 280.25 520.03 287.38 522 294.39 522.05 301.61 522.29 308.79 522.74 315.96 523.13 323.15 523.69 330.73"/><polygon class="d" points="523.69 330.73 516.98 334.92 510.97 339.83 510.83 332.72 510.85 325.63 510.66 318.55 509.71 311.52 508.83 304.5 507.74 297.52 506.93 290.49 506.34 283.39 503.91 276.69 502.73 269.65 500 263.09 496.56 256.89 493.49 250.52 489.68 244.49 484.14 240.4 489.24 235.84 494.31 231.28 499.86 235.14 504.73 240.23 509.44 245.75 512.41 252.34 514.39 259.28 517.07 266 518.09 273.15 519.24 280.25 520.03 287.38 522 294.39 522.05 301.61 522.29 308.79 522.74 315.96 523.13 323.15 523.69 330.73"/><polygon class="a" points="530.25 304.14 524.14 307.16 518.65 311.28 512.97 315.08 506.6 317.72 501.07 321.78 494.84 325.5 494.71 318.99 495.54 313.27 500.8 309.29 506.86 306.12 512.63 302.48 518.63 299.22 524.18 295.17 530.15 292.49 530.77 298.15 530.25 304.14"/><polygon class="c" points="530.25 304.14 524.14 307.16 518.65 311.28 512.97 315.08 506.6 317.72 501.07 321.78 494.84 325.5 494.71 318.99 495.54 313.27 500.8 309.29 506.86 306.12 512.63 302.48 518.63 299.22 524.18 295.17 530.15 292.49 530.77 298.15 530.25 304.14"/><polygon class="a" points="540.87 306.15 534.7 309.62 528.92 313.25 522.49 315.77 516.62 319.26 510.88 322.99 505.04 326.93 505.53 320.67 505.1 314.62 511.26 311.58 516.75 307.46 522.99 304.61 528.59 300.67 534.8 297.76 540.2 294.29 540.27 299.84 540.87 306.15"/><polygon class="c" points="540.87 306.15 534.7 309.62 528.92 313.25 522.49 315.77 516.62 319.26 510.88 322.99 505.04 326.93 505.53 320.67 505.1 314.62 511.26 311.58 516.75 307.46 522.99 304.61 528.59 300.67 534.8 297.76 540.2 294.29 540.27 299.84 540.87 306.15"/><polygon class="a" points="505.44 314.29 504.92 320.66 505.34 326.81 495.98 324.27 495.7 318.49 495.24 312.97 505.44 314.29"/><polygon class="c" points="505.44 314.29 504.92 320.66 505.34 326.81 495.98 324.27 495.7 318.49 495.24 312.97 505.44 314.29"/><polygon points="495.02 313.01 500.7 308.93 506.83 305.91 512.74 302.54 518.68 299.23 524.44 295.57 530.36 292.55 540.72 293.55 534.47 297.17 528.95 301.24 522.48 303.7 516.69 307.32 510.95 311.04 505.21 315.2 495.02 313.01"/><polygon class="c" points="495.02 313.01 500.7 308.93 506.83 305.91 512.74 302.54 518.68 299.23 524.44 295.57 530.36 292.55 540.72 293.55 534.47 297.17 528.95 301.24 522.48 303.7 516.69 307.32 510.95 311.04 505.21 315.2 495.02 313.01"/></svg>