<svg xmlns="http://www.w3.org/2000/svg" viewBox="0 0 800 800"><defs><style>.a,.c{fill:none;stroke:#000;stroke-linejoin:bevel;}.a{stroke-width:13px;}.b{fill:#fff;}.c{stroke-width:6px;}</style></defs><title>canvas (44)</title><polyline class="a" points="600.3 556.07 595.22 561.71 588.61 565.14 581.29 566.63 574.5 569.66 567.25 571.11 560.03 572.66 552.67 573.35 545.34 574.18 538.16 575.22 530.91 575.7 523.77 577.16 516.53 577.77 509.31 578.54 502.1 579.36 494.84 579.63 487.54 579.33 480.34 580.42 473.07 580.58 465.82 580.89 458.6 581.85 451.33 581.83 444.06 581.89 436.8 581.87 429.56 582.73 422.31 583.09 415.04 582.77 407.79 583.45 400.52 583.03 393.26 582.66 386 582.93 378.74 582.77 371.47 583.2 364.21 582.77 356.95 582.52 349.68 583.19 342.43 582.88 335.17 582.64 327.9 582.88 320.65 582.23 313.38 582.28 306.14 581.46 298.86 581.71 291.61 581.26 284.35 581.15 277.13 580.12 269.89 579.75 262.67 578.93 255.41 578.7 248.24 577.4 240.98 577.16 234.16 576.55 227.43 575.32 220.62 574.55 213.85 573.41 207.22 571.61 201.1 568.37 194.74 565.94 189.66 561.57 187.99 555.76"/><polygon class="a" points="544.68 514.04 537.48 514.96 530.3 516.05 523.06 516.6 515.84 517.37 508.59 517.76 501.36 518.34 494.11 518.76 486.87 519.2 479.63 519.72 472.4 520.55 465.12 520.36 457.86 520.46 450.65 521.65 443.36 521.09 436.11 521.57 428.88 522.56 421.6 521.66 414.35 522.13 407.09 522.29 399.83 522.83 392.57 522.35 385.31 522.89 378.05 522.39 370.78 522.27 363.52 522.66 356.26 522.13 349 522.23 341.74 522.13 334.48 522.23 327.22 521.92 319.97 521.55 312.69 521.83 305.46 520.85 298.2 520.63 290.91 521.13 283.71 519.83 276.41 520.2 269.18 519.55 261.93 519.21 254.74 518.06 247.48 517.73 240.3 516.66 233.23 515.59 226.16 514.57 219 514.21 211.96 512.93 205.03 511.18 198.13 509.36 191.64 506.49 186.02 502.21 189.97 496.56 196.31 493.37 202.85 490.43 209.74 488.5 216.71 486.87 223.74 485.58 230.85 484.77 237.8 482.98 244.88 482.02 252.03 481.53 259.04 479.94 266.24 479.36 273.43 478.65 280.65 478.4 287.76 476.84 295.04 477.27 302.17 475.7 309.38 475.31 316.59 474.91 323.8 474.52 331.04 474.64 338.23 473.82 345.46 473.98 352.68 473.84 359.91 474.43 367.13 474.06 374.35 473.48 381.57 473.42 388.79 473.89 396 474.36 403.23 473.86 410.44 474.39 417.66 474.61 424.9 474.28 432.1 475.08 439.34 474.75 446.55 475.19 453.71 476.5 460.94 476.65 468.2 476.32 475.41 476.74 482.58 477.79 489.73 478.91 496.98 478.95 504.15 479.72 511.31 480.78 518.49 481.45 525.75 481.41 532.76 482.3 539.78 483.06 546.69 484.71 553.8 484.83 560.78 485.91 567.65 487.63 574.68 488.48 581.63 489.86 588.44 491.87 594.61 495.39 598.96 500.48 592.78 503.94 586.51 507.3 579.49 508.36 572.52 509.46 565.64 511.02 558.62 511.8 551.63 512.74 544.68 514.04"/><polygon points="652.46 463.98 645.37 464.94 638.16 464.87 631.05 465.61 623.98 466.85 616.87 467.7 609.78 468.74 602.67 469.53 595.45 469.18 588.34 470.02 581.23 470.84 574.1 471.49 566.91 471.22 559.83 472.54 552.63 472.13 545.49 472.64 538.36 473.22 531.2 473.35 524.08 474.11 516.94 474.75 509.8 475.12 502.64 475.37 495.5 475.87 488.36 476.44 481.2 476.63 474.02 476.04 466.9 477.2 459.73 476.57 452.58 477.12 445.44 477.65 438.28 477.78 431.12 477.66 423.96 477.75 416.81 477.97 409.65 477.8 402.49 478.24 395.33 478.07 388.17 478.24 381.01 478.24 373.85 478.17 366.69 478.03 359.53 477.85 352.38 477.88 345.22 477.54 338.06 477.41 330.9 477.26 323.74 477.32 316.58 477.47 309.41 477.83 302.26 477.42 295.1 477.27 287.95 476.63 280.78 476.84 273.65 475.93 266.45 476.84 259.34 475.53 252.15 475.97 245 475.63 237.89 474.53 230.69 475.01 223.55 474.5 216.43 473.47 209.22 474.09 202.13 472.75 194.95 472.9 187.85 471.9 180.69 471.56 173.6 470.46 166.46 470.01 159.32 469.54 152.2 468.86 145.08 468.16 137.75 468 130.58 466.4 123.26 466.07 116.02 465.04 108.92 463.19 101.76 461.79 94.44 461.17 87.36 459.36 80.3 457.51 73.43 455.06 66.36 453.13 59.98 449.53 55.1 444.11 56.88 437.02 63.35 433.46 69.51 429.57 76.16 426.48 83.08 424.08 90.32 422.84 97.18 420.23 104.32 418.67 111.56 417.6 118.75 416.39 125.87 414.78 133 413.17 140.16 411.7 147.49 411.31 154.67 409.99 161.89 408.92 169.1 407.73 176.4 407.19 183.53 406.32 190.72 406.06 197.77 404.44 204.91 403.72 212.14 403.82 219.23 402.55 226.36 401.66 233.52 401.03 240.68 400.52 247.86 400.24 255.04 399.98 262.22 399.68 269.35 398.52 276.56 398.95 283.73 398.47 290.92 398.59 298.07 397.86 305.25 397.65 312.42 397.14 319.6 397.05 326.78 397.02 333.97 397.34 341.15 397.21 348.31 395.95 355.5 395.86 362.68 396.08 369.86 396.04 377.05 396.98 384.23 396.94 391.41 396.87 398.6 396.27 405.79 396.12 412.97 396.37 420.13 397.48 427.31 397.38 434.49 397.8 441.69 397.16 448.88 397.25 456.03 398.48 463.23 398.15 470.43 398.05 477.61 398.35 484.77 398.86 491.93 399.59 499.1 400.15 506.27 400.52 513.43 401.04 520.59 401.67 527.81 401.33 534.99 401.62 542.12 402.72 549.32 402.71 556.44 403.91 563.62 404.2 570.74 405.24 577.94 405.29 585.04 406.61 592.24 406.76 599.42 407.05 606.5 408.48 613.67 408.87 620.77 409.99 627.93 410.89 635.18 410.95 642.35 411.78 649.45 413.14 656.7 413.34 663.7 415.39 670.9 416 677.99 417.36 685.15 418.23 692.26 419.46 699.3 421.04 706.46 422.06 713.44 423.88 720.28 426.21 727.12 428.46 733.78 431.12 739.87 434.82 741.5 440.75 736.43 445.26 730.19 448.84 723.47 451.5 716.51 453.44 709.44 454.94 702.34 456.25 695.18 457.17 688.13 458.7 680.95 459.37 673.91 461.04 666.75 461.94 659.67 463.43 652.46 463.98"/><polygon class="a" points="652.46 463.98 645.37 464.94 638.16 464.87 631.05 465.61 623.98 466.85 616.87 467.7 609.78 468.74 602.67 469.53 595.45 469.18 588.34 470.02 581.23 470.84 574.1 471.49 566.91 471.22 559.83 472.54 552.63 472.13 545.49 472.64 538.36 473.22 531.2 473.35 524.08 474.11 516.94 474.75 509.8 475.12 502.64 475.37 495.5 475.87 488.36 476.44 481.2 476.63 474.02 476.04 466.9 477.2 459.73 476.57 452.58 477.12 445.44 477.65 438.28 477.78 431.12 477.66 423.96 477.75 416.81 477.97 409.65 477.8 402.49 478.24 395.33 478.07 388.17 478.24 381.01 478.24 373.85 478.17 366.69 478.03 359.53 477.85 352.38 477.88 345.22 477.54 338.06 477.41 330.9 477.26 323.74 477.32 316.58 477.47 309.41 477.83 302.26 477.42 295.1 477.27 287.95 476.63 280.78 476.84 273.65 475.93 266.45 476.84 259.34 475.53 252.15 475.97 245 475.63 237.89 474.53 230.69 475.01 223.55 474.5 216.43 473.47 209.22 474.09 202.13 472.75 194.95 472.9 187.85 471.9 180.69 471.56 173.6 470.46 166.46 470.01 159.32 469.54 152.2 468.86 145.08 468.16 137.75 468 130.58 466.4 123.26 466.07 116.02 465.04 108.92 463.19 101.76 461.79 94.44 461.17 87.36 459.36 80.3 457.51 73.43 455.06 66.36 453.13 59.98 449.53 55.1 444.11 56.88 437.02 63.35 433.46 69.51 429.57 76.16 426.48 83.08 424.08 90.32 422.84 97.18 420.23 104.32 418.67 111.56 417.6 118.75 416.39 125.87 414.78 133 413.17 140.16 411.7 147.49 411.31 154.67 409.99 161.89 408.92 169.1 407.73 176.4 407.19 183.53 406.32 190.72 406.06 197.77 404.44 204.91 403.72 212.14 403.82 219.23 402.55 226.36 401.66 233.52 401.03 240.68 400.52 247.86 400.24 255.04 399.98 262.22 399.68 269.35 398.52 276.56 398.95 283.73 398.47 290.92 398.59 298.07 397.86 305.25 397.65 312.42 397.14 319.6 397.05 326.78 397.02 333.97 397.34 341.15 397.21 348.31 395.95 355.5 395.86 362.68 396.08 369.86 396.04 377.05 396.98 384.23 396.94 391.41 396.87 398.6 396.27 405.79 396.12 412.97 396.37 420.13 397.48 427.31 397.38 434.49 397.8 441.69 397.16 448.88 397.25 456.03 398.48 463.23 398.15 470.43 398.05 477.61 398.35 484.77 398.86 491.93 399.59 499.1 400.15 506.27 400.52 513.43 401.04 520.59 401.67 527.81 401.33 534.99 401.62 542.12 402.72 549.32 402.71 556.44 403.91 563.62 404.2 570.74 405.24 577.94 405.29 585.04 406.61 592.24 406.76 599.42 407.05 606.5 408.48 613.67 408.87 620.77 409.99 627.93 410.89 635.18 410.95 642.35 411.78 649.45 413.14 656.7 413.34 663.7 415.39 670.9 416 677.99 417.36 685.15 418.23 692.26 419.46 699.3 421.04 706.46 422.06 713.44 423.88 720.28 426.21 727.12 428.46 733.78 431.12 739.87 434.82 741.5 440.75 736.43 445.26 730.19 448.84 723.47 451.5 716.51 453.44 709.44 454.94 702.34 456.25 695.18 457.17 688.13 458.7 680.95 459.37 673.91 461.04 666.75 461.94 659.67 463.43 652.46 463.98"/><polygon class="b" points="654.52 443.77 647.38 444.34 640.37 446.06 633.26 446.87 626.02 446.46 619 448.15 611.88 448.94 604.69 448.9 597.6 450 590.47 450.62 583.34 451.18 576.2 451.74 569.07 452.3 561.87 451.99 554.76 452.82 547.59 452.79 540.5 454.15 533.3 453.71 526.16 454.05 519.05 455.17 511.87 454.76 504.72 455.1 497.61 456.3 490.44 456.23 483.28 456.22 476.12 456.3 468.99 457 461.84 457.33 454.66 456.78 447.51 457.03 440.35 456.93 433.2 457.39 426.06 458.25 418.9 458.13 411.73 457.38 404.57 457.58 397.42 457.81 390.26 457.8 383.1 457.58 375.94 458.72 368.78 457.91 361.63 457.82 354.46 458.64 347.3 458.63 340.14 458.55 332.99 457.42 325.83 457.91 318.68 457.25 311.52 457.21 304.36 457.19 297.2 456.78 290.02 457.5 282.88 456.78 275.72 456.65 268.57 456.31 261.39 456.68 254.24 456.26 247.08 456.06 239.95 455.24 232.81 454.62 225.63 454.7 218.49 454.25 211.35 453.65 204.21 453.08 197.07 452.62 189.94 452 182.79 451.56 175.66 451.01 168.54 450.23 161.34 450.35 154.26 449.32 147.16 448.38 139.95 447.17 132.59 447.21 125.34 446.23 118.09 445.29 110.91 443.96 103.82 442.05 96.66 440.65 89.41 439.63 82.23 438.21 75.48 435.28 68.33 433.52 61.91 429.87 57.43 424.14 59.32 417.44 65.01 412.85 71.75 410.01 78.27 406.66 85.38 404.89 92.23 402.28 99.31 400.5 106.48 399.12 113.5 397.01 120.87 396.64 127.93 394.72 135.23 394.09 142.39 392.7 149.62 391.69 156.79 390.35 163.93 388.66 171.24 388.16 178.48 387.2 185.68 386.95 192.8 386.08 199.87 384.68 207 383.82 214.13 382.85 221.36 383.06 228.47 381.95 235.62 381.32 242.79 380.83 249.95 380.31 257.13 380.01 264.32 379.9 271.5 379.78 278.63 378.59 285.82 378.63 293.01 378.63 300.15 377.51 307.35 378.19 314.52 377.8 321.68 376.9 328.86 376.56 336.04 376.62 343.23 376.87 350.41 376.89 357.59 376.78 364.77 376.57 371.95 375.92 379.14 376.07 386.32 376.06 393.51 376.07 400.68 376.83 407.87 376.5 415.06 376.34 422.23 376.97 429.42 376.89 436.6 377.21 443.76 377.93 450.96 377.62 458.15 377.72 465.3 378.79 472.5 378.44 479.69 378.68 486.85 379.36 494.03 379.63 501.21 379.75 508.39 380.02 515.52 381.24 522.72 381.12 529.86 382.06 537.07 381.93 544.22 382.67 551.37 383.42 558.52 384.16 565.72 384.2 572.84 385.26 580.01 385.66 587.22 385.7 594.33 386.79 601.46 387.68 608.67 387.74 615.76 388.97 622.95 389.26 630.07 390.57 637.17 391.9 644.37 392.5 651.63 392.58 658.72 394.03 665.93 394.54 673.06 395.61 680.16 396.94 687.17 398.76 694.24 400.16 701.45 400.84 708.44 402.64 715.35 404.74 722.45 406.04 729.26 408.41 735.79 411.4 742.17 414.7 743.64 420.88 739.06 426.32 732.27 428.9 725.53 431.53 718.42 432.86 711.51 434.97 704.4 436.18 697.33 437.6 690.25 438.97 683.08 439.76 675.93 440.72 668.76 441.46 661.73 443.3 654.52 443.77"/><polygon class="a" points="654.52 443.77 647.38 444.34 640.37 446.06 633.26 446.87 626.02 446.46 619 448.15 611.88 448.94 604.69 448.9 597.6 450 590.47 450.62 583.34 451.18 576.2 451.74 569.07 452.3 561.87 451.99 554.76 452.82 547.59 452.79 540.5 454.15 533.3 453.71 526.16 454.05 519.05 455.17 511.87 454.76 504.72 455.1 497.61 456.3 490.44 456.23 483.28 456.22 476.12 456.3 468.99 457 461.84 457.33 454.66 456.78 447.51 457.03 440.35 456.93 433.2 457.39 426.06 458.25 418.9 458.13 411.73 457.38 404.57 457.58 397.42 457.81 390.26 457.8 383.1 457.58 375.94 458.72 368.78 457.91 361.63 457.82 354.46 458.64 347.3 458.63 340.14 458.55 332.99 457.42 325.83 457.91 318.68 457.25 311.52 457.21 304.36 457.19 297.2 456.78 290.02 457.5 282.88 456.78 275.72 456.65 268.57 456.31 261.39 456.68 254.24 456.26 247.08 456.06 239.95 455.24 232.81 454.62 225.63 454.7 218.49 454.25 211.35 453.65 204.21 453.08 197.07 452.62 189.94 452 182.79 451.56 175.66 451.01 168.54 450.23 161.34 450.35 154.26 449.32 147.16 448.38 139.95 447.17 132.59 447.21 125.34 446.23 118.09 445.29 110.91 443.96 103.82 442.05 96.66 440.65 89.41 439.63 82.23 438.21 75.48 435.28 68.33 433.52 61.91 429.87 57.43 424.14 59.32 417.44 65.01 412.85 71.75 410.01 78.27 406.66 85.38 404.89 92.23 402.28 99.31 400.5 106.48 399.12 113.5 397.01 120.87 396.64 127.93 394.72 135.23 394.09 142.39 392.7 149.62 391.69 156.79 390.35 163.93 388.66 171.24 388.16 178.48 387.2 185.68 386.95 192.8 386.08 199.87 384.68 207 383.82 214.13 382.85 221.36 383.06 228.47 381.95 235.62 381.32 242.79 380.83 249.95 380.31 257.13 380.01 264.32 379.9 271.5 379.78 278.63 378.59 285.82 378.63 293.01 378.63 300.15 377.51 307.35 378.19 314.52 377.8 321.68 376.9 328.86 376.56 336.04 376.62 343.23 376.87 350.41 376.89 357.59 376.78 364.77 376.57 371.95 375.92 379.14 376.07 386.32 376.06 393.51 376.07 400.68 376.83 407.87 376.5 415.06 376.34 422.23 376.97 429.42 376.89 436.6 377.21 443.76 377.93 450.96 377.62 458.15 377.72 465.3 378.79 472.5 378.44 479.69 378.68 486.85 379.36 494.03 379.63 501.21 379.75 508.39 380.02 515.52 381.24 522.72 381.12 529.86 382.06 537.07 381.93 544.22 382.67 551.37 383.42 558.52 384.16 565.72 384.2 572.84 385.26 580.01 385.66 587.22 385.7 594.33 386.79 601.46 387.68 608.67 387.74 615.76 388.97 622.95 389.26 630.07 390.57 637.17 391.9 644.37 392.5 651.63 392.58 658.72 394.03 665.93 394.54 673.06 395.61 680.16 396.94 687.17 398.76 694.24 400.16 701.45 400.84 708.44 402.64 715.35 404.74 722.45 406.04 729.26 408.41 735.79 411.4 742.17 414.7 743.64 420.88 739.06 426.32 732.27 428.9 725.53 431.53 718.42 432.86 711.51 434.97 704.4 436.18 697.33 437.6 690.25 438.97 683.08 439.76 675.93 440.72 668.76 441.46 661.73 443.3 654.52 443.77"/><polyline class="b" points="57.25 423.79 56.09 432.21 55.6 440.71"/><polyline class="a" points="57.25 423.79 56.09 432.21 55.6 440.71"/><polyline class="b" points="745.32 419.69 744.22 426.61 743.71 433.59 742.6 440.51"/><polyline class="a" points="745.32 419.69 744.22 426.61 743.71 433.59 742.6 440.51"/><polyline class="a" points="123.29 465.48 129.46 469.27 135.53 473.27 142.34 475.96 148.56 479.68 154.73 483.51 160.84 487.44 167.6 490.21 173.63 494.28 179.87 497.99 186.44 501.33 186.25 508.69 185.96 515.95 186.67 523.2 187.24 530.44 186.32 537.72 187.15 544.96 187.43 552.22 186.63 559.49"/><polyline class="a" points="652.13 463.29 646.47 467.64 640.35 471.27 634.16 474.79 628.56 479.24 622.17 482.44 616.6 486.94 610.07 489.92 604.43 494.33 598.61 498 597.78 505.22 598.97 512.63 599.09 520.07 598.77 527.51 599.11 534.95 599.65 542.37 599.32 549.82 600.08 557.25"/><polyline class="a" points="404.08 522.58 404.75 515.9 405.89 509.27 406 502.54 406.89 495.88 407.47 489.19 408.56 482.55 408.98 475.84"/><polyline class="a" points="293.17 520.78 290.18 514.42 286.52 508.37 284.17 501.69 281.16 495.34 277.99 489.05 275.26 482.55 271.28 476.65"/><polyline class="a" points="509.06 517.58 512.44 511.73 514.4 505.31 516.48 498.95 518.77 492.66 521.31 486.48 524.47 480.53 526.71 474.21"/><polyline class="a" points="598.4 526.92 593.85 532.03 587.43 535.61 580.38 537.74 573.46 540.32 566.26 541.93 559.05 543.52 551.72 544.46 544.47 545.94 537.26 546.83 530 547.23 522.77 547.85 515.54 548.48 508.28 548.73 501.07 549.57 493.8 549.66 486.63 551.14 479.38 551.57 472.12 551.72 464.88 552.4 457.59 551.9 450.35 552.44 443.09 552.72 435.86 553.52 428.59 553.58 421.33 553.52 414.06 553.21 406.81 553.56 399.56 554.47 392.29 553.61 385.03 554.62 377.77 553.72 370.5 554.07 363.24 554.41 355.98 554.12 348.72 553.96 341.45 554.24 334.21 553.06 326.95 553.14 319.68 553.3 312.42 553.01 305.14 553.14 297.92 551.92 290.63 552.5 283.37 552.15 276.16 551.17 268.88 551.22 261.69 550.03 254.45 549.47 247.23 548.85 239.98 548.37 233.25 547.1 226.47 546.23 219.67 545.39 212.91 544.26 206.52 541.68 200.15 539.29 193.65 537.1 188.11 533.04 186.58 526.43"/><polygon class="b" points="61.79 427.34 61.98 434.58 62.15 441.58 62.13 448.58 62.25 455.58 61.47 462.58 62.5 469.58 61.86 476.58 62.59 483.58 62.22 490.57 62.02 497.57 62.08 504.57 61.92 511.57 61.81 518.57 62.58 525.57 62.12 532.57 62.28 539.58 61.78 546.75 68.99 548.47 75.77 551.06 82.74 553 89.77 554.74 96.77 556.59 103.48 559.41 110.57 560.95 117.62 562.64 124.46 565.03 131.26 567.55 138.19 569.63 145.3 571.12 152.32 572.89 159.21 575.13 166.07 577.47 172.85 579.37 173.11 572.54 172.59 565.49 173.14 558.44 173.38 551.39 172.47 544.34 173.44 537.28 173.55 530.23 172.46 523.18 172.49 516.13 172.78 509.07 173.35 502.02 172.76 494.97 173.34 487.92 172.75 480.87 172.95 473.81 173.36 466.76 172.71 459.71 172.96 452.65 173.32 445.31 166.07 444.43 159.07 443.71 152.19 442.24 145.31 440.74 138.38 439.61 131.34 439.1 124.45 437.69 117.46 436.91 110.65 434.98 103.57 434.79 96.67 433.45 89.85 431.54 82.82 431.01 75.95 429.44 69.04 428.16 61.79 427.34"/><polygon class="c" points="61.79 427.34 61.98 434.58 62.15 441.58 62.13 448.58 62.25 455.58 61.47 462.58 62.5 469.58 61.86 476.58 62.59 483.58 62.22 490.57 62.02 497.57 62.08 504.57 61.92 511.57 61.81 518.57 62.58 525.57 62.12 532.57 62.28 539.58 61.78 546.75 68.99 548.47 75.77 551.06 82.74 553 89.77 554.74 96.77 556.59 103.48 559.41 110.57 560.95 117.62 562.64 124.46 565.03 131.26 567.55 138.19 569.63 145.3 571.12 152.32 572.89 159.21 575.13 166.07 577.47 172.85 579.37 173.11 572.54 172.59 565.49 173.14 558.44 173.38 551.39 172.47 544.34 173.44 537.28 173.55 530.23 172.46 523.18 172.49 516.13 172.78 509.07 173.35 502.02 172.76 494.97 173.34 487.92 172.75 480.87 172.95 473.81 173.36 466.76 172.71 459.71 172.96 452.65 173.32 445.31 166.07 444.43 159.07 443.71 152.19 442.24 145.31 440.74 138.38 439.61 131.34 439.1 124.45 437.69 117.46 436.91 110.65 434.98 103.57 434.79 96.67 433.45 89.85 431.54 82.82 431.01 75.95 429.44 69.04 428.16 61.79 427.34"/><polygon class="b" points="254.84 432.68 248.12 431.27 240.93 430.25 233.96 428.12 226.91 426.43 219.75 425.25 212.57 424.18 205.45 422.8 198.41 421.07 191.21 420.09 184.18 418.28 177.07 416.85 169.9 415.77 162.84 414.11 155.7 412.81 148.66 411 141.57 410.05 134.33 411.12 127.07 412.64 119.73 413.79 112.53 415.56 105.49 418.11 98.03 418.69 90.82 420.46 83.74 422.82 76.38 423.89 69.25 426.05 61.86 427.11 69.63 429.6 76.53 430.91 83.37 432.37 90.14 434.18 96.92 435.98 103.83 437.15 110.8 437.95 117.58 439.85 124.57 440.5 131.56 441.11 138.38 442.9 145.3 444.01 152.3 444.42 159.28 444.99 166.28 445.12 173.27 446.29 180.13 445.24 186.97 444.14 193.72 442.51 200.52 441.25 207.41 440.52 214.27 439.59 221.05 438.17 227.84 436.81 234.78 436.38 241.6 435.15 248.48 434.27 254.84 432.68"/><polygon class="c" points="254.84 432.68 248.12 431.27 240.93 430.25 233.96 428.12 226.91 426.43 219.75 425.25 212.57 424.18 205.45 422.8 198.41 421.07 191.21 420.09 184.18 418.28 177.07 416.85 169.9 415.77 162.84 414.11 155.7 412.81 148.66 411 141.57 410.05 134.33 411.12 127.07 412.64 119.73 413.79 112.53 415.56 105.49 418.11 98.03 418.69 90.82 420.46 83.74 422.82 76.38 423.89 69.25 426.05 61.86 427.11 69.63 429.6 76.53 430.91 83.37 432.37 90.14 434.18 96.92 435.98 103.83 437.15 110.8 437.95 117.58 439.85 124.57 440.5 131.56 441.11 138.38 442.9 145.3 444.01 152.3 444.42 159.28 444.99 166.28 445.12 173.27 446.29 180.13 445.24 186.97 444.14 193.72 442.51 200.52 441.25 207.41 440.52 214.27 439.59 221.05 438.17 227.84 436.81 234.78 436.38 241.6 435.15 248.48 434.27 254.84 432.68"/><polygon points="620.04 429.72 627.18 427.91 634.08 424.89 641.33 422.95 648.3 420.18 655.51 418.14 662.72 416.07 669.75 413.49 676.84 411.07 684.17 409.38 691.14 406.57 698.34 404.47 705.91 401.82 698.1 400.47 690.82 399.17 683.72 397.05 676.45 395.7 669.18 394.29 662.04 392.31 654.78 390.92 647.45 389.11 640.24 392.99 632.85 396.08 624.93 398.52 624.2 406.62 622.68 414.34 621.38 422.1 620.04 429.72"/><polygon class="c" points="620.04 429.72 627.18 427.91 634.08 424.89 641.33 422.95 648.3 420.18 655.51 418.14 662.72 416.07 669.75 413.49 676.84 411.07 684.17 409.38 691.14 406.57 698.34 404.47 705.91 401.82 698.1 400.47 690.82 399.17 683.72 397.05 676.45 395.7 669.18 394.29 662.04 392.31 654.78 390.92 647.45 389.11 640.24 392.99 632.85 396.08 624.93 398.52 624.2 406.62 622.68 414.34 621.38 422.1 620.04 429.72"/><polygon class="b" points="619.86 429.26 612.95 428.94 605.96 429.08 598.98 429.59 591.99 428.95 584.99 429.61 578.19 429.15 577.5 422.11 577.62 414.88 578.34 407.66 577.64 400.43 578.54 393.21 578.54 385.98 577.44 378.75 577.4 371.52 578.37 364.3 577.95 357.06 577.73 349.57 584.99 350.17 591.97 350.29 598.95 350.31 605.94 349.93 612.94 349.76 620.27 349.5 620.52 357.06 619.77 364.28 619.9 371.51 619.9 378.73 620.38 385.96 619.75 393.18 619.49 400.41 620.04 407.64 619.62 414.87 619.65 422.1 619.86 429.26"/><polygon class="c" points="619.86 429.26 612.95 428.94 605.96 429.08 598.98 429.59 591.99 428.95 584.99 429.61 578.19 429.15 577.5 422.11 577.62 414.88 578.34 407.66 577.64 400.43 578.54 393.21 578.54 385.98 577.44 378.75 577.4 371.52 578.37 364.3 577.95 357.06 577.73 349.57 584.99 350.17 591.97 350.29 598.95 350.31 605.94 349.93 612.94 349.76 620.27 349.5 620.52 357.06 619.77 364.28 619.9 371.51 619.9 378.73 620.38 385.96 619.75 393.18 619.49 400.41 620.04 407.64 619.62 414.87 619.65 422.1 619.86 429.26"/><polygon points="631.75 334.01 627.96 339.23 623.72 344.36 620.15 349.9 620.2 357.1 619.54 364.38 620.15 371.64 619.34 378.91 619.95 386.18 619.69 393.45 619.63 400.73 620.23 408 620.05 415.27 620.16 422.55 620.09 429.5 624.02 424.59 628.05 419.3 632.3 413.98 631.96 406.56 632 399.29 632.36 392.02 631.41 384.75 631.52 377.48 631.62 370.21 631.35 362.94 631.98 355.66 632.14 348.39 632.14 341.11 631.75 334.01"/><polygon class="c" points="631.75 334.01 627.96 339.23 623.72 344.36 620.15 349.9 620.2 357.1 619.54 364.38 620.15 371.64 619.34 378.91 619.95 386.18 619.69 393.45 619.63 400.73 620.23 408 620.05 415.27 620.16 422.55 620.09 429.5 624.02 424.59 628.05 419.3 632.3 413.98 631.96 406.56 632 399.29 632.36 392.02 631.41 384.75 631.52 377.48 631.62 370.21 631.35 362.94 631.98 355.66 632.14 348.39 632.14 341.11 631.75 334.01"/><polygon class="b" points="632.31 333.56 624.85 333.31 617.86 334 610.88 333.88 603.89 334.23 596.9 334.27 590.15 334.34 585.52 338.85 581.89 344.44 577.73 349.98 584.99 349.82 591.97 349.62 598.95 349.72 605.94 349.45 612.94 350.14 619.78 349.52 624.32 344.82 627.74 339.07 632.31 333.56"/><polygon class="c" points="632.31 333.56 624.85 333.31 617.86 334 610.88 333.88 603.89 334.23 596.9 334.27 590.15 334.34 585.52 338.85 581.89 344.44 577.73 349.98 584.99 349.82 591.97 349.62 598.95 349.72 605.94 349.45 612.94 350.14 619.78 349.52 624.32 344.82 627.74 339.07 632.31 333.56"/><polygon class="b" points="617.89 316.99 611.6 316.77 605.38 317.25 598.9 316.5 595.46 321.74 592.15 326.55 598.23 326.82 604.46 326.62 610.77 326.82 613.97 321.62 617.89 316.99"/><polygon class="c" points="617.89 316.99 611.6 316.77 605.38 317.25 598.9 316.5 595.46 321.74 592.15 326.55 598.23 326.82 604.46 326.62 610.77 326.82 613.97 321.62 617.89 316.99"/><polygon class="b" points="617.79 297.05 611.6 297.33 605.38 297.62 599.34 297.4 595.88 302.05 591.61 306.85 598.23 306.98 604.46 306.86 610.71 306.69 614.45 301.98 617.79 297.05"/><polygon class="c" points="617.79 297.05 611.6 297.33 605.38 297.62 599.34 297.4 595.88 302.05 591.61 306.85 598.23 306.98 604.46 306.86 610.71 306.69 614.45 301.98 617.79 297.05"/><polygon class="b" points="578.05 349.97 581.83 344.24 584.54 337.82 588.26 331.98 591.78 325.78 598.25 325.81 604.45 326.8 610.48 326.99 614.07 334.38 616.99 342.19 620.05 350.06 612.95 349.77 605.96 349.97 598.98 349.73 591.99 350.5 584.99 349.74 578.05 349.97"/><polygon class="c" points="578.05 349.97 581.83 344.24 584.54 337.82 588.26 331.98 591.78 325.78 598.25 325.81 604.45 326.8 610.48 326.99 614.07 334.38 616.99 342.19 620.05 350.06 612.95 349.77 605.96 349.97 598.98 349.73 591.99 350.5 584.99 349.74 578.05 349.97"/><polygon class="b" points="631.92 333.82 627.43 328.01 622.47 322.65 617.77 317.51 614.44 321.97 610.4 326.62 613.46 334.48 616.76 342.13 619.8 350.2 623.84 344.46 627.72 339.06 631.92 333.82"/><polygon class="c" points="631.92 333.82 627.43 328.01 622.47 322.65 617.77 317.51 614.44 321.97 610.4 326.62 613.46 334.48 616.76 342.13 619.8 350.2 623.84 344.46 627.72 339.06 631.92 333.82"/><polygon class="b" points="592.11 325.89 591.68 319.61 591.84 313.22 592.31 307.13 598.33 306.26 604.66 306.38 611.01 306.62 610.5 313.08 610.44 319.54 611.29 326.28 604.67 326.4 598.33 326.07 592.11 325.89"/><polygon class="c" points="592.11 325.89 591.68 319.61 591.84 313.22 592.31 307.13 598.33 306.26 604.66 306.38 611.01 306.62 610.5 313.08 610.44 319.54 611.29 326.28 604.67 326.4 598.33 326.07 592.11 325.89"/><polygon points="617.9 297.04 617.9 303.5 617.42 310.16 618.12 316.87 614.91 322.02 611.05 326.53 610.62 320.03 610.5 313.43 610.43 306.66 614.23 301.64 617.9 297.04"/><polygon class="c" points="617.9 297.04 617.9 303.5 617.42 310.16 618.12 316.87 614.91 322.02 611.05 326.53 610.62 320.03 610.5 313.43 610.43 306.66 614.23 301.64 617.9 297.04"/></svg>