<svg xmlns="http://www.w3.org/2000/svg" xmlns:xlink="http://www.w3.org/1999/xlink" viewBox="0 0 800 800"><defs><style>.a,.c,.d,.f{fill:none;}.b{fill:#fff;}.c,.d{stroke:#000;}.c{stroke-miterlimit:10;}.c,.d,.f{stroke-width:13px;}.d,.f{stroke-linejoin:bevel;}.e{clip-path:url(#a);}.f{stroke:#fff;}</style><clipPath id="a"><path class="a" d="M700.58,552.07c-1.27,2-2.46,4.09-3.83,6s-2.59,4-4.09,5.86-3.25,3.51-4.87,5.23-3.08,3.68-4.82,5.29-3.7,3-5.55,4.52-3.84,2.82-5.79,4.18-3.8,2.9-5.84,4.13-4.33,2-6.46,3.09-4.1,2.45-6.29,3.4-4.41,1.79-6.66,2.61-4.54,1.41-6.83,2.1-4.49,1.61-6.83,2.16-4.66,1-7,1.41-4.67.94-7.06,1.25-4.8-.29-7.19-.1-4.71.55-7.11.62-4.74-.07-7.14-.1-4.76.36-7.15.23-4.69-.82-7.08-1-4.79.18-7.17-.13-4.65-1-7-1.38-4.76-.41-7.11-.89-4.63-1.11-7-1.66-4.55-1.38-6.87-2-4.51-1.48-6.81-2.17-4.59-1.22-6.86-2-4.51-1.5-6.76-2.32-4.31-2-6.53-2.91-4.58-1.35-6.78-2.29-4.19-2.26-6.37-3.26-4.31-2-6.46-3-4.43-1.77-6.55-2.88-4.35-2-6.45-3.11-4-2.59-6.08-3.79-4-2.66-6.06-3.93-4.22-2.34-6.23-3.66-4.15-2.48-6.11-3.86-3.58-3.28-5.51-4.71-3.69-3.09-5.58-4.57-3.8-2.94-5.65-4.48-3.81-2.95-5.61-4.53-3.56-3.25-5.31-4.88-3.4-3.41-5.1-5.1-3.52-3.29-5.18-5-3.49-3.34-5.09-5.12-2.9-3.87-4.44-5.7-3.44-3.41-4.93-5.29-2.83-3.91-4.26-5.83-3.15-3.68-4.52-5.64-2.25-4.3-3.56-6.3-3.11-3.74-4.36-5.78-2-4.43-3.16-6.51-2.33-4.22-3.43-6.34-2.35-4.22-3.37-6.38-2.42-4.21-3.36-6.41-1.65-4.55-2.49-6.78-1.62-4.56-2.37-6.82-1.74-4.53-2.39-6.82-.51-4.86-1-7.18-1.21-4.67-1.63-7-1.41-4.68-1.7-7,0-4.86-.16-7.24-.33-4.82-.33-7.2-.45-4.86-.29-7.24.53-4.83.85-7.19.61-4.82,1.11-7.16,1.62-4.57,2.31-6.87,1.14-4.71,2-6.94,2.08-4.35,3.16-6.51,2.46-4.12,3.73-6.17,2.45-4.1,3.86-6,3-3.74,4.52-5.54,3.25-3.48,4.94-5.16,3.35-3.39,5.18-4.93,3.84-2.81,5.78-4.21,3.66-3.08,5.7-4.34,4.3-2.06,6.42-3.18,4.21-2.17,6.4-3.16,4.11-2.49,6.36-3.35,4.53-1.48,6.83-2.21,4.71-.78,7-1.39,4.56-1.28,6.92-1.76,4.68-.73,7.06-1.1,4.62-1.22,7-1.49,4.76,0,7.16-.19,4.74-.14,7.14-.2,4.75-.91,7.15-.87,4.74.71,7.14.84,4.71.58,7.11.79,4.79-.14,7.17.16,4.69.78,7.06,1.15,4.74.5,7.1,1,4.54,1.5,6.89,2,4.7.77,7,1.37,4.61,1.19,6.91,1.86,4.52,1.47,6.81,2.21,4.4,1.83,6.66,2.63,4.61,1.24,6.85,2.1,4.36,1.9,6.57,2.83,4.49,1.61,6.67,2.6,4.29,2.06,6.45,3.11,4.47,1.71,6.6,2.81,3.94,2.74,6,3.89,4.07,2.46,6.14,3.67,4.43,1.88,6.46,3.14,3.9,2.79,5.88,4.09,3.75,3,5.7,4.34,3.9,2.75,5.81,4.16,3.92,2.72,5.8,4.18,3.76,2.94,5.6,4.44,3.66,3.07,5.46,4.62,3.51,3.24,5.26,4.84,3.64,3.1,5.34,4.75,3.76,3,5.42,4.7,3.34,3.44,4.95,5.18,2.88,3.85,4.43,5.64,3.51,3.31,5,5.15,2.87,3.85,4.31,5.73,2.9,3.82,4.28,5.75,2.54,4.07,3.85,6,2.57,4,3.81,6.06,2.71,4,3.88,6,1.82,4.45,2.91,6.56,2.27,4.21,3.27,6.35,1.77,4.44,2.68,6.62,2.41,4.19,3.23,6.41,1,4.73,1.69,7,1.63,4.5,2.24,6.78,1.07,4.66,1.56,7,.93,4.68,1.29,7,.89,4.7,1.12,7.06.76,4.75.85,7.12-.07,4.8-.13,7.17-.26,4.78-.48,7.14-.37,4.78-.76,7.12-1.36,4.59-1.92,6.9-1,4.67-1.73,6.93-1.21,4.65-2.13,6.85-2.15,4.27-3.24,6.4S701.85,550,700.58,552.07Z"/></clipPath></defs><title>canvas (23)</title><path class="b" d="M375.32,727.2c-3.34.66-2.77-2.23-5.67-4s-3-1.71-5.85-3.5-3-1.66-5.88-3.46-3.12-1.44-6-3.24-5.18-.52-5.65-3.9c-.5-3.57,2.55-2.62,4.81-5.44s1.67-3.29,3.93-6.1,2.57-2.57,4.83-5.38,2.46-2.66,4.72-5.47,2.22-2.85,4.48-5.66,2.47-2.64,4.73-5.46,2.09-3,4.35-5.77,2-3,4.24-5.85,2.22-2.84,4.48-5.66,2.09-2.95,4.35-5.76,2.93-2.28,5.19-5.1,1.57-3.37,3.83-6.19,2.43-2.68,4.69-5.49,2.76-2.42,5-5.23,1.82-3.17,4.08-6,2.3-2.78,4.56-5.6,2.42-2.68,4.68-5.5,2.2-2.86,4.46-5.68,2-3,4.27-5.83,2.56-2.57,4.82-5.39,2.4-2.7,4.66-5.51,1.91-3.1,4.17-5.91,2.17-2.89,4.43-5.7,2.67-2.48,4.93-5.3,2.05-3,4.31-5.79,2.38-2.72,4.64-5.54,2.08-3,4.34-5.77,2.61-2.53,4.87-5.35,1.7-3.26,4-6.08,2.64-2.51,4.9-5.33,2.1-2.94,4.36-5.75l4.51-5.63c2.26-2.82,2.37-2.73,4.63-5.55s2.41-2.7,4.67-5.51,2-3,4.3-5.81,2.55-2.58,4.81-5.4,1.9-3.1,4.16-5.92,2.38-2.72,4.64-5.54,2.36-2.74,4.62-5.56,2.41-2.69,4.67-5.51,2.16-2.89,4.43-5.71,2.38-2.72,4.65-5.54,2.18-2.88,4.45-5.69,2.29-2.79,4.56-5.61,1.94-3.07,4.2-5.89,2.1-2.95,4.36-5.76,2.65-2.5,4.91-5.32,2.29-2.79,4.55-5.61,2.44-2.68,4.7-5.49,1.89-3.11,4.15-5.93,2.28-2.81,4.54-5.62,2.18-2.88,4.44-5.7l4.52-5.64c2.26-2.82,2.17-2.9,4.43-5.72s1.25-4.41,4.8-5.11c3.34-.66,3,1.19,5.86,3l5.79,3.59c2.9,1.79,2.84,1.89,5.74,3.69s3,1.6,5.92,3.4,5.06.54,5.53,3.92c.5,3.57-2.25,2.76-4.51,5.57s-2,3-4.3,5.8-2.49,2.63-4.75,5.45-1.91,3.09-4.17,5.91-2.78,2.39-5,5.21-2,3-4.24,5.85-2.29,2.79-4.55,5.61-2.6,2.54-4.87,5.35-1.68,3.28-3.94,6.1-2.44,2.67-4.7,5.48-2.1,2.94-4.36,5.76-2.41,2.69-4.68,5.51-2.34,2.75-4.61,5.56-2.34,2.75-4.6,5.57-2.18,2.88-4.44,5.7-2.24,2.84-4.5,5.65-2.17,2.89-4.43,5.7-2.23,2.84-4.49,5.66l-4.53,5.63c-2.26,2.81-2.67,2.48-4.93,5.29s-1.9,3.1-4.16,5.92-2.59,2.55-4.85,5.36-2,3-4.22,5.86-2.57,2.56-4.83,5.37-1.72,3.25-4,6.06-2.68,2.48-4.94,5.29-2.35,2.74-4.61,5.56-2,3-4.27,5.83-2.3,2.78-4.56,5.6-2.55,2.58-4.81,5.4-1.93,3.08-4.19,5.89-2.52,2.61-4.78,5.42-1.86,3.14-4.12,6-2.3,2.78-4.56,5.6-2.52,2.61-4.78,5.42-2.21,2.85-4.48,5.67-1.89,3.11-4.15,5.93-2.57,2.57-4.83,5.39-2.57,2.57-4.83,5.38l-4.52,5.63c-2.26,2.82-2,3-4.28,5.83s-2.45,2.67-4.71,5.48-2,3-4.26,5.84-2.13,2.92-4.39,5.74-2.29,2.79-4.55,5.61-2.32,2.77-4.58,5.58-2.37,2.73-4.63,5.55-2.2,2.86-4.46,5.68-2.58,2.56-4.84,5.38-2.16,2.9-4.43,5.71-1.89,3.11-4.16,5.93-2.31,2.78-4.57,5.59-2.48,2.64-4.75,5.46-2.77,2.52-4.42,5.74C378,724.83,378.86,726.5,375.32,727.2Z"/><path class="c" d="M375.32,727.2c-3.34.66-2.77-2.23-5.67-4s-3-1.71-5.85-3.5-3-1.66-5.88-3.46-3.12-1.44-6-3.24-5.18-.52-5.65-3.9c-.5-3.57,2.55-2.62,4.81-5.44s1.67-3.29,3.93-6.1,2.57-2.57,4.83-5.38,2.46-2.66,4.72-5.47,2.22-2.85,4.48-5.66,2.47-2.64,4.73-5.46,2.09-3,4.35-5.77,2-3,4.24-5.85,2.22-2.84,4.48-5.66,2.09-2.95,4.35-5.76,2.93-2.28,5.19-5.1,1.57-3.37,3.83-6.19,2.43-2.68,4.69-5.49,2.76-2.42,5-5.23,1.82-3.17,4.08-6,2.3-2.78,4.56-5.6,2.42-2.68,4.68-5.5,2.2-2.86,4.46-5.68,2-3,4.27-5.83,2.56-2.57,4.82-5.39,2.4-2.7,4.66-5.51,1.91-3.1,4.17-5.91,2.17-2.89,4.43-5.7,2.67-2.48,4.93-5.3,2.05-3,4.31-5.79,2.38-2.72,4.64-5.54,2.08-3,4.34-5.77,2.61-2.53,4.87-5.35,1.7-3.26,4-6.08,2.64-2.51,4.9-5.33,2.1-2.94,4.36-5.75l4.51-5.63c2.26-2.82,2.37-2.73,4.63-5.55s2.41-2.7,4.67-5.51,2-3,4.3-5.81,2.55-2.58,4.81-5.4,1.9-3.1,4.16-5.92,2.38-2.72,4.64-5.54,2.36-2.74,4.62-5.56,2.41-2.69,4.67-5.51,2.16-2.89,4.43-5.71,2.38-2.72,4.65-5.54,2.18-2.88,4.45-5.69,2.29-2.79,4.56-5.61,1.94-3.07,4.2-5.89,2.1-2.95,4.36-5.76,2.65-2.5,4.91-5.32,2.29-2.79,4.55-5.61,2.44-2.68,4.7-5.49,1.89-3.11,4.15-5.93,2.28-2.81,4.54-5.62,2.18-2.88,4.44-5.7l4.52-5.64c2.26-2.82,2.17-2.9,4.43-5.72s1.25-4.41,4.8-5.11c3.34-.66,3,1.19,5.86,3l5.79,3.59c2.9,1.79,2.84,1.89,5.74,3.69s3,1.6,5.92,3.4,5.06.54,5.53,3.92c.5,3.57-2.25,2.76-4.51,5.57s-2,3-4.3,5.8-2.49,2.63-4.75,5.45-1.91,3.09-4.17,5.91-2.78,2.39-5,5.21-2,3-4.24,5.85-2.29,2.79-4.55,5.61-2.6,2.54-4.87,5.35-1.68,3.28-3.94,6.1-2.44,2.67-4.7,5.48-2.1,2.94-4.36,5.76-2.41,2.69-4.68,5.51-2.34,2.75-4.61,5.56-2.34,2.75-4.6,5.57-2.18,2.88-4.44,5.7-2.24,2.84-4.5,5.65-2.17,2.89-4.43,5.7-2.23,2.84-4.49,5.66l-4.53,5.63c-2.26,2.81-2.67,2.48-4.93,5.29s-1.9,3.1-4.16,5.92-2.59,2.55-4.85,5.36-2,3-4.22,5.86-2.57,2.56-4.83,5.37-1.72,3.25-4,6.06-2.68,2.48-4.94,5.29-2.35,2.74-4.61,5.56-2,3-4.27,5.83-2.3,2.78-4.56,5.6-2.55,2.58-4.81,5.4-1.93,3.08-4.19,5.89-2.52,2.61-4.78,5.42-1.86,3.14-4.12,6-2.3,2.78-4.56,5.6-2.52,2.61-4.78,5.42-2.21,2.85-4.48,5.67-1.89,3.11-4.15,5.93-2.57,2.57-4.83,5.39-2.57,2.57-4.83,5.38l-4.52,5.63c-2.26,2.82-2,3-4.28,5.83s-2.45,2.67-4.71,5.48-2,3-4.26,5.84-2.13,2.92-4.39,5.74-2.29,2.79-4.55,5.61-2.32,2.77-4.58,5.58-2.37,2.73-4.63,5.55-2.2,2.86-4.46,5.68-2.58,2.56-4.84,5.38-2.16,2.9-4.43,5.71-1.89,3.11-4.16,5.93-2.31,2.78-4.57,5.59-2.48,2.64-4.75,5.46-2.77,2.52-4.42,5.74C378,724.83,378.86,726.5,375.32,727.2Z"/><path class="b" d="M624.38,415.33a23.87,23.87,0,0,1-7.32-1.57c-.5-.17-1-.33-1.59-.49a27.53,27.53,0,0,1-6.94-2.84,28.13,28.13,0,0,1-5.62-4.87l-.9-.93c-5-5.06-6.22-9.29-3.58-12.58a7,7,0,0,1,5.79-2.46,23.34,23.34,0,0,1,7.12,1.44,39.4,39.4,0,0,1,8.27,3.83,37.53,37.53,0,0,1,7,5.24c6.79,6.86,4.59,11.26,3.33,12.83A6.71,6.71,0,0,1,624.38,415.33Z"/><path d="M604.21,394.09a19.71,19.71,0,0,1,5.69,1.21,34.85,34.85,0,0,1,7.33,3.39,33.86,33.86,0,0,1,6.13,4.58c2.68,2.7,4.11,5.48,3,6.85a2.45,2.45,0,0,1-2,.71,21.15,21.15,0,0,1-5.9-1.34c-2.27-.76-5.07-1.33-7.58-2.88a30.9,30.9,0,0,1-5.69-5.14c-2.68-2.7-4.37-5.23-3.27-6.6a2.81,2.81,0,0,1,2.28-.78m0-9h0a11.5,11.5,0,0,0-9.3,4.15c-2.83,3.53-3.08,8.29-.66,12.73a26.55,26.55,0,0,0,4.56,5.83l.83.87a32.37,32.37,0,0,0,6.52,5.59,31.79,31.79,0,0,0,8,3.33c.5.15,1,.29,1.45.44a27.4,27.4,0,0,0,8.74,1.8,11.2,11.2,0,0,0,9-4.08c1.57-2,6-9.11-3.64-18.81A41.14,41.14,0,0,0,622,391a43.86,43.86,0,0,0-9.22-4.27,27.2,27.2,0,0,0-8.54-1.67Z"/><path class="b" d="M366.54,735.48a21.63,21.63,0,0,1-6.69-1.35,39.23,39.23,0,0,1-8.24-3.82,38.14,38.14,0,0,1-7-5.2c-6.38-6.44-4.74-10.64-3.19-12.57,1-1.23,2.94-2.7,6.57-2.7a20.26,20.26,0,0,1,6.24,1.13,41.24,41.24,0,0,1,8.2,4.13l1.28.78a30.51,30.51,0,0,1,5.92,4.26c4.3,4.34,5.39,9.5,2.71,12.84A7.09,7.09,0,0,1,366.54,735.48Z"/><path d="M348,714.33a15.75,15.75,0,0,1,4.81.9,36.57,36.57,0,0,1,7.25,3.68c2.42,1.5,4.81,2.81,6.37,4.38,2.68,2.7,3.5,5.49,2.4,6.85a2.84,2.84,0,0,1-2.33.84,18,18,0,0,1-5.26-1.12,34.61,34.61,0,0,1-7.29-3.38,33.75,33.75,0,0,1-6.13-4.54c-2.68-2.7-4-5.23-2.88-6.59a3.85,3.85,0,0,1,3.06-1m0-9h0c-5.71,0-8.76,2.75-10.08,4.39-1.56,1.95-5.93,9,3.5,18.56a42.16,42.16,0,0,0,7.79,5.86,43.71,43.71,0,0,0,9.19,4.27,25.8,25.8,0,0,0,8.11,1.58,11.58,11.58,0,0,0,9.35-4.2c3.48-4.33,3.89-11.83-3-18.82a33.82,33.82,0,0,0-6.78-4.94l-1.24-.76a45.33,45.33,0,0,0-9.14-4.57,24.41,24.41,0,0,0-7.66-1.36Z"/><path d="M684.94,743.15a32.33,32.33,0,0,1-7,1.71c-2.19.28-4.63-.36-7.21-.37-2.24,0-4.63.23-7.16,0-2.27-.19-4.62-.57-7.1-.92-2.27-.32-4.72-.21-7.16-.66-2.27-.42-4.61-1-7-1.48s-4.47-1.56-6.85-2.16-4.72-.6-7.08-1.24-4.46-1.59-6.8-2.28-4.62-1.06-6.95-1.8-4.39-1.83-6.69-2.6-4.49-1.51-6.78-2.31-4.58-1.29-6.86-2.11-4.49-1.55-6.76-2.4-4.44-1.69-6.7-2.56-4.38-1.86-6.62-2.76-4.23-2.21-6.47-3.12-4.41-1.77-6.63-2.7-4.5-1.57-6.71-2.52S550,709,547.79,708s-4.32-2-6.52-3-4.35-1.94-6.54-2.94-4.35-1.94-6.53-3-4.15-2.37-6.32-3.4-4.63-1.35-6.8-2.4-4.28-2.1-6.44-3.16-4.25-2.18-6.4-3.24-4.09-2.48-6.24-3.56-4.49-1.7-6.62-2.8-4-2.64-6.14-3.75-4.2-2.26-6.32-3.38-4.28-2.11-6.4-3.23-4.22-2.22-6.33-3.36-4.22-2.22-6.33-3.38-4.18-2.31-6.28-3.47-4.07-2.5-6.16-3.68-4.5-1.74-6.59-2.93-3.81-3-5.89-4.15-4.44-1.87-6.51-3.07-3.77-3-5.84-4.23-4.18-2.32-6.24-3.55-4.29-2.14-6.34-3.37-3.89-2.81-5.93-4.06-4-2.6-6-3.86-4.52-1.92-6.56-3.2-3.76-3.14-5.8-4.43-4.35-2.21-6.38-3.51-3.94-2.86-6-4.17-4.28-2.33-6.29-3.66-3.83-3-5.83-4.36-4.1-2.62-6.08-4-4.15-2.54-6.13-3.9-4-2.83-5.92-4.21-4.12-2.6-6.07-4-3.87-3-5.82-4.35-3.55-3.38-5.49-4.8-4-2.84-5.88-4.27-4.07-2.69-6-4.14-4-2.83-5.87-4.29-3.68-3.21-5.55-4.69-4.1-2.67-6-4.17-3.49-3.43-5.33-5-4-2.86-5.79-4.4-3.36-3.58-5.16-5.15-3.93-2.93-5.7-4.52-3.79-3.11-5.52-4.72-3.32-3.61-5-5.25-3.48-3.45-5.14-5.12-3.83-3.13-5.44-4.84-3.31-3.65-4.87-5.41-2.87-4-4.35-5.84c-1.61-2-2.92-4-4.28-5.85-1.52-2.06-2.84-4.06-4.06-6-1.39-2.2-2.91-4.1-3.89-6.11a40.21,40.21,0,0,1-2.77-6.71,19.86,19.86,0,0,1-.88-7.23,11.58,11.58,0,0,1,2.88-6.72,16.2,16.2,0,0,1,6.27-3.78,31.75,31.75,0,0,1,7-1.8c2.19-.28,4.62.2,7.2.2,2.24,0,4.64-.22,7.17,0,2.27.19,4.62.64,7.1,1,2.27.32,4.59.91,7,1.36,2.27.42,4.68.56,7.09,1.09s4.6,1,7,1.58,4.55,1.26,6.91,1.9,4.66.88,7,1.57,4.45,1.62,6.78,2.35,4.37,1.86,6.68,2.62,4.51,1.45,6.8,2.24,4.52,1.43,6.8,2.26,4.48,1.56,6.75,2.41,4.43,1.71,6.69,2.58,4.33,2,6.57,2.87,4.52,1.49,6.76,2.4,4.48,1.6,6.7,2.53,4.26,2.13,6.48,3.08,4.41,1.79,6.61,2.76,4.36,1.9,6.56,2.88,4.21,2.23,6.4,3.23,4.32,2,6.51,3,4.32,2,6.49,3,4.32,2,6.49,3.05,4.49,1.67,6.65,2.73,4,2.68,6.15,3.75,4.57,1.53,6.71,2.61,4.13,2.41,6.27,3.5,4.14,2.38,6.27,3.49,4.44,1.81,6.56,2.92,4.35,2,6.47,3.11,3.92,2.79,6,3.93,4.25,2.17,6.36,3.32,4.33,2,6.43,3.19,4.21,2.25,6.3,3.43,3.84,2.91,5.93,4.09,4.13,2.4,6.2,3.6,4.15,2.37,6.22,3.57,4.53,1.72,6.59,2.94,3.83,2.92,5.88,4.15,4.33,2.07,6.38,3.3,4.15,2.39,6.19,3.64,3.85,2.88,5.88,4.14,4.34,2.22,6.38,3.5,3.69,3.26,5.72,4.55,4.53,1.92,6.56,3.23,3.83,3,5.85,4.34,4.22,2.43,6.23,3.75,3.85,3,5.85,4.32,4.29,2.34,6.28,3.69,4,2.8,6,4.17,3.73,3.16,5.7,4.53,4,2.8,5.93,4.19,4.1,2.63,6,4,4.14,2.59,6.07,4,3.93,2.88,5.85,4.31,3.63,3.27,5.54,4.72,3.73,3.14,5.63,4.6,4.18,2.57,6.05,4,3.8,3.06,5.66,4.55,3.51,3.41,5.35,4.93,4.1,2.71,5.92,4.25,3.71,3.18,5.51,4.74,3.45,3.48,5.22,5.07,3.9,3,5.64,4.59,3.47,3.46,5.17,5.1,3.3,3.64,5,5.31,3.47,3.47,5.08,5.18,3.71,3.28,5.26,5,3.09,3.86,4.57,5.66c1.61,2,3.13,3.85,4.5,5.71,1.52,2.06,2.44,4.36,3.66,6.29a70.24,70.24,0,0,1,3.73,6.2,40.26,40.26,0,0,1,2.8,6.68,18.92,18.92,0,0,1,.6,7.17,10.77,10.77,0,0,1-2.85,6.44A15.24,15.24,0,0,1,684.94,743.15Z"/><path class="d" d="M684.94,743.15a32.33,32.33,0,0,1-7,1.71c-2.19.28-4.63-.36-7.21-.37-2.24,0-4.63.23-7.16,0-2.27-.19-4.62-.57-7.1-.92-2.27-.32-4.72-.21-7.16-.66-2.27-.42-4.61-1-7-1.48s-4.47-1.56-6.85-2.16-4.72-.6-7.08-1.24-4.46-1.59-6.8-2.28-4.62-1.06-6.95-1.8-4.39-1.83-6.69-2.6-4.49-1.51-6.78-2.31-4.58-1.29-6.86-2.11-4.49-1.55-6.76-2.4-4.44-1.69-6.7-2.56-4.38-1.86-6.62-2.76-4.23-2.21-6.47-3.12-4.41-1.77-6.63-2.7-4.5-1.57-6.71-2.52S550,709,547.79,708s-4.32-2-6.52-3-4.35-1.94-6.54-2.94-4.35-1.94-6.53-3-4.15-2.37-6.32-3.4-4.63-1.35-6.8-2.4-4.28-2.1-6.44-3.16-4.25-2.18-6.4-3.24-4.09-2.48-6.24-3.56-4.49-1.7-6.62-2.8-4-2.64-6.14-3.75-4.2-2.26-6.32-3.38-4.28-2.11-6.4-3.23-4.22-2.22-6.33-3.36-4.22-2.22-6.33-3.38-4.18-2.31-6.28-3.47-4.07-2.5-6.16-3.68-4.5-1.74-6.59-2.93-3.81-3-5.89-4.15-4.44-1.87-6.51-3.07-3.77-3-5.84-4.23-4.18-2.32-6.24-3.55-4.29-2.14-6.34-3.37-3.89-2.81-5.93-4.06-4-2.6-6-3.86-4.52-1.92-6.56-3.2-3.76-3.14-5.8-4.43-4.35-2.21-6.38-3.51-3.94-2.86-6-4.17-4.28-2.33-6.29-3.66-3.83-3-5.83-4.36-4.1-2.62-6.08-4-4.15-2.54-6.13-3.9-4-2.83-5.92-4.21-4.12-2.6-6.07-4-3.87-3-5.82-4.35-3.55-3.38-5.49-4.8-4-2.84-5.88-4.27-4.07-2.69-6-4.14-4-2.83-5.87-4.29-3.68-3.21-5.55-4.69-4.1-2.67-6-4.17-3.49-3.43-5.33-5-4-2.86-5.79-4.4-3.36-3.58-5.16-5.15-3.93-2.93-5.7-4.52-3.79-3.11-5.52-4.72-3.32-3.61-5-5.25-3.48-3.45-5.14-5.12-3.83-3.13-5.44-4.84-3.31-3.65-4.87-5.41-2.87-4-4.35-5.84c-1.61-2-2.92-4-4.28-5.85-1.52-2.06-2.84-4.06-4.06-6-1.39-2.2-2.91-4.1-3.89-6.11a40.21,40.21,0,0,1-2.77-6.71,19.86,19.86,0,0,1-.88-7.23,11.58,11.58,0,0,1,2.88-6.72,16.2,16.2,0,0,1,6.27-3.78,31.75,31.75,0,0,1,7-1.8c2.19-.28,4.62.2,7.2.2,2.24,0,4.64-.22,7.17,0,2.27.19,4.62.64,7.1,1,2.27.32,4.59.91,7,1.36,2.27.42,4.68.56,7.09,1.09s4.6,1,7,1.58,4.55,1.26,6.91,1.9,4.66.88,7,1.57,4.45,1.62,6.78,2.35,4.37,1.86,6.68,2.62,4.51,1.45,6.8,2.24,4.52,1.43,6.8,2.26,4.48,1.56,6.75,2.41,4.43,1.71,6.69,2.58,4.33,2,6.57,2.87,4.52,1.49,6.76,2.4,4.48,1.6,6.7,2.53,4.26,2.13,6.48,3.08,4.41,1.79,6.61,2.76,4.36,1.9,6.56,2.88,4.21,2.23,6.4,3.23,4.32,2,6.51,3,4.32,2,6.49,3,4.32,2,6.49,3.05,4.49,1.67,6.65,2.73,4,2.68,6.15,3.75,4.57,1.53,6.71,2.61,4.13,2.41,6.27,3.5,4.14,2.38,6.27,3.49,4.44,1.81,6.56,2.92,4.35,2,6.47,3.11,3.92,2.79,6,3.93,4.25,2.17,6.36,3.32,4.33,2,6.43,3.19,4.21,2.25,6.3,3.43,3.84,2.91,5.93,4.09,4.13,2.4,6.2,3.6,4.15,2.37,6.22,3.57,4.53,1.72,6.59,2.94,3.83,2.92,5.88,4.15,4.33,2.07,6.38,3.3,4.15,2.39,6.19,3.64,3.85,2.88,5.88,4.14,4.34,2.22,6.38,3.5,3.69,3.26,5.72,4.55,4.53,1.92,6.56,3.23,3.83,3,5.85,4.34,4.22,2.43,6.23,3.75,3.85,3,5.85,4.32,4.29,2.34,6.28,3.69,4,2.8,6,4.17,3.73,3.16,5.7,4.53,4,2.8,5.93,4.19,4.1,2.63,6,4,4.14,2.59,6.07,4,3.93,2.88,5.85,4.31,3.63,3.27,5.54,4.72,3.73,3.14,5.63,4.6,4.18,2.57,6.05,4,3.8,3.06,5.66,4.55,3.51,3.41,5.35,4.93,4.1,2.71,5.92,4.25,3.71,3.18,5.51,4.74,3.45,3.48,5.22,5.07,3.9,3,5.64,4.59,3.47,3.46,5.17,5.1,3.3,3.64,5,5.31,3.47,3.47,5.08,5.18,3.71,3.28,5.26,5,3.09,3.86,4.57,5.66c1.61,2,3.13,3.85,4.5,5.71,1.52,2.06,2.44,4.36,3.66,6.29a70.24,70.24,0,0,1,3.73,6.2,40.26,40.26,0,0,1,2.8,6.68,18.92,18.92,0,0,1,.6,7.17,10.77,10.77,0,0,1-2.85,6.44A15.24,15.24,0,0,1,684.94,743.15Z"/><path class="b" d="M713.9,695.52a31,31,0,0,1-6.91,1.74,55.17,55.17,0,0,1-7.14.58c-2.24,0-4.62-.34-7.15-.55-2.27-.19-4.64-.43-7.12-.78-2.27-.32-4.68-.4-7.12-.85-2.27-.42-4.52-1.33-6.94-1.86s-4.62-.89-7-1.48-4.65-.85-7-1.49-4.55-1.29-6.89-2-4.46-1.58-6.79-2.31-4.64-1-7-1.8-4.45-1.64-6.75-2.43-4.36-1.89-6.64-2.71-4.45-1.64-6.72-2.49-4.52-1.49-6.77-2.36-4.45-1.67-6.7-2.56-4.34-2-6.57-2.87-4.42-1.75-6.64-2.68-4.44-1.71-6.65-2.66-4.43-1.75-6.63-2.71-4.06-2.59-6.26-3.57-4.56-1.47-6.75-2.47-4.4-1.83-6.58-2.84-4.07-2.54-6.24-3.57-4.58-1.46-6.75-2.5-4-2.76-6.12-3.81-4.62-1.41-6.77-2.48-4.21-2.25-6.35-3.34-4.25-2.17-6.39-3.26-4.14-2.39-6.27-3.49-4-2.56-6.17-3.68-4.27-2.13-6.39-3.26-4.31-2.06-6.42-3.2-4.22-2.24-6.32-3.39-4.14-2.38-6.24-3.54-4.34-2-6.43-3.2-4.1-2.46-6.18-3.65-4-2.56-6.12-3.75-4.42-1.9-6.49-3.11-4.11-2.45-6.17-3.66-4-2.69-6-3.92-3.84-2.88-5.89-4.12-4.26-2.19-6.3-3.44-4-2.61-6-3.87-4-2.69-6.08-4-4.23-2.4-6.26-3.69-4-2.81-6-4.11-4.5-2-6.51-3.31-3.68-3.25-5.69-4.57-4.47-2.06-6.46-3.4-4-2.7-6-4.05-3.75-3.13-5.73-4.49-4-2.78-6-4.16-4-2.83-5.91-4.22-3.9-2.9-5.85-4.31-4.17-2.54-6.1-4-3.69-3.2-5.61-4.64-3.92-2.89-5.82-4.34-4.21-2.52-6.1-4-3.56-3.35-5.44-4.84-4.15-2.62-6-4.12-3.26-3.71-5.1-5.23-4.28-2.49-6.1-4-3.54-3.38-5.34-4.94-3.6-3.31-5.37-4.9-3.86-3-5.6-4.64-3.57-3.36-5.27-5-3.35-3.6-5-5.27-3.49-3.46-5.1-5.17-3.51-3.47-5.06-5.22-2.66-4.22-4.13-6c-1.61-2-3.3-3.7-4.66-5.55-1.52-2.06-3.15-3.88-4.37-5.81-1.39-2.2-2-4.61-3-6.62a40.55,40.55,0,0,1-2.89-6.6c-.73-2.63-1.48-5-1.25-7.16.27-2.53,1.82-4.43,3.49-6.22a14.8,14.8,0,0,1,5.74-4.3,33.31,33.31,0,0,1,7.06-1.34,55.15,55.15,0,0,1,7.14-.58c2.24,0,4.67-.17,7.19,0,2.27.19,4.59,1,7.07,1.34,2.27.32,4.65.55,7.1,1,2.27.42,4.68.59,7.09,1.12s4.6,1,7,1.64,4.41,1.78,6.77,2.43,4.51,1.37,6.85,2.06,4.77.56,7.1,1.29,4.43,1.71,6.73,2.47,4.53,1.4,6.82,2.2,4.44,1.69,6.72,2.51,4.3,2,6.57,2.89,4.7,1,7,1.86,4.38,1.85,6.63,2.75,4.32,2,6.55,2.92,4.53,1.49,6.75,2.42,4.07,2.59,6.28,3.54,4.66,1.2,6.87,2.17,4.12,2.44,6.32,3.42,4.32,2,6.51,3,4.48,1.66,6.66,2.67,4.29,2.07,6.46,3.1,4.43,1.79,6.59,2.83,4.28,2.1,6.44,3.15,4.06,2.55,6.21,3.62,4.43,1.81,6.57,2.89,4.17,2.33,6.31,3.42,4.25,2.17,6.38,3.27,4.24,2.19,6.36,3.31,4.33,2,6.45,3.15,4.29,2.1,6.4,3.24,3.94,2.75,6,3.9,4.1,2.45,6.2,3.61,4.32,2,6.42,3.22,4.26,2.17,6.35,3.35,4.18,2.31,6.26,3.51,3.82,2.93,5.89,4.14,4.38,2,6.44,3.19,4.08,2.49,6.14,3.72,4,2.55,6.1,3.78,4.17,2.34,6.22,3.59,3.82,2.91,5.86,4.17,4.24,2.37,6.28,3.65,4.3,2.28,6.33,3.58,3.88,2.94,5.91,4.24,4.05,2.68,6.07,4,4.22,2.43,6.23,3.75,4,2.75,6,4.09,4.24,2.41,6.23,3.76,4,2.82,5.94,4.18,3.9,2.91,5.87,4.28,3.83,3,5.79,4.39,4.25,2.42,6.19,3.82,3.8,3.05,5.73,4.47,3.93,2.88,5.85,4.31,4.13,2.61,6,4.06,3.72,3.16,5.61,4.63,3.68,3.2,5.56,4.68,4.15,2.61,6,4.11,3.31,3.65,5.15,5.17,4.2,2.58,6,4.12,3.61,3.3,5.41,4.86,3.55,3.37,5.32,5,3.4,3.52,5.14,5.13,4.1,2.79,5.8,4.44,3,4,4.62,5.66,3.48,3.45,5.1,5.16,3.88,3.12,5.43,4.87,2.77,4.12,4.25,5.92c1.61,2,3.49,3.56,4.86,5.42,1.52,2.06,3,4,4.2,5.95,1.39,2.2,1.94,4.67,2.92,6.68,1.18,2.39,2.49,4.46,3.08,6.56a19.42,19.42,0,0,1,.73,7.21,11,11,0,0,1-3,6.43A15.3,15.3,0,0,1,713.9,695.52Z"/><path class="d" d="M713.9,695.52a31,31,0,0,1-6.91,1.74,55.17,55.17,0,0,1-7.14.58c-2.24,0-4.62-.34-7.15-.55-2.27-.19-4.64-.43-7.12-.78-2.27-.32-4.68-.4-7.12-.85-2.27-.42-4.52-1.33-6.94-1.86s-4.62-.89-7-1.48-4.65-.85-7-1.49-4.55-1.29-6.89-2-4.46-1.58-6.79-2.31-4.64-1-7-1.8-4.45-1.64-6.75-2.43-4.36-1.89-6.64-2.71-4.45-1.64-6.72-2.49-4.52-1.49-6.77-2.36-4.45-1.67-6.7-2.56-4.34-2-6.57-2.87-4.42-1.75-6.64-2.68-4.44-1.71-6.65-2.66-4.43-1.75-6.63-2.71-4.06-2.59-6.26-3.57-4.56-1.47-6.75-2.47-4.4-1.83-6.58-2.84-4.07-2.54-6.24-3.57-4.58-1.46-6.75-2.5-4-2.76-6.12-3.81-4.62-1.41-6.77-2.48-4.21-2.25-6.35-3.34-4.25-2.17-6.39-3.26-4.14-2.39-6.27-3.49-4-2.56-6.17-3.68-4.27-2.13-6.39-3.26-4.31-2.06-6.42-3.2-4.22-2.24-6.32-3.39-4.14-2.38-6.24-3.54-4.34-2-6.43-3.2-4.1-2.46-6.18-3.65-4-2.56-6.12-3.75-4.42-1.9-6.49-3.11-4.11-2.45-6.17-3.66-4-2.69-6-3.92-3.84-2.88-5.89-4.12-4.26-2.19-6.3-3.44-4-2.61-6-3.87-4-2.69-6.08-4-4.23-2.4-6.26-3.69-4-2.81-6-4.11-4.5-2-6.51-3.31-3.68-3.25-5.69-4.57-4.47-2.06-6.46-3.4-4-2.7-6-4.05-3.75-3.13-5.73-4.49-4-2.78-6-4.16-4-2.83-5.91-4.22-3.9-2.9-5.85-4.31-4.17-2.54-6.1-4-3.69-3.2-5.61-4.64-3.92-2.89-5.82-4.34-4.21-2.52-6.1-4-3.56-3.35-5.44-4.84-4.15-2.62-6-4.12-3.26-3.71-5.1-5.23-4.28-2.49-6.1-4-3.54-3.38-5.34-4.94-3.6-3.31-5.37-4.9-3.86-3-5.6-4.64-3.57-3.36-5.27-5-3.35-3.6-5-5.27-3.49-3.46-5.1-5.17-3.51-3.47-5.06-5.22-2.66-4.22-4.13-6c-1.61-2-3.3-3.7-4.66-5.55-1.52-2.06-3.15-3.88-4.37-5.81-1.39-2.2-2-4.61-3-6.62a40.55,40.55,0,0,1-2.89-6.6c-.73-2.63-1.48-5-1.25-7.16.27-2.53,1.82-4.43,3.49-6.22a14.8,14.8,0,0,1,5.74-4.3,33.31,33.31,0,0,1,7.06-1.34,55.15,55.15,0,0,1,7.14-.58c2.24,0,4.67-.17,7.19,0,2.27.19,4.59,1,7.07,1.34,2.27.32,4.65.55,7.1,1,2.27.42,4.68.59,7.09,1.12s4.6,1,7,1.64,4.41,1.78,6.77,2.43,4.51,1.37,6.85,2.06,4.77.56,7.1,1.29,4.43,1.71,6.73,2.47,4.53,1.4,6.82,2.2,4.44,1.69,6.72,2.51,4.3,2,6.57,2.89,4.7,1,7,1.86,4.38,1.85,6.63,2.75,4.32,2,6.55,2.92,4.53,1.49,6.75,2.42,4.07,2.59,6.28,3.54,4.66,1.2,6.87,2.17,4.12,2.44,6.32,3.42,4.32,2,6.51,3,4.48,1.66,6.66,2.67,4.29,2.07,6.46,3.1,4.43,1.79,6.59,2.83,4.28,2.1,6.44,3.15,4.06,2.55,6.21,3.62,4.43,1.81,6.57,2.89,4.17,2.33,6.31,3.42,4.25,2.17,6.38,3.27,4.24,2.19,6.36,3.31,4.33,2,6.45,3.15,4.29,2.1,6.4,3.24,3.94,2.75,6,3.9,4.1,2.45,6.2,3.61,4.32,2,6.42,3.22,4.26,2.17,6.35,3.35,4.18,2.31,6.26,3.51,3.82,2.93,5.89,4.14,4.38,2,6.44,3.19,4.08,2.49,6.14,3.72,4,2.55,6.1,3.78,4.17,2.34,6.22,3.59,3.82,2.91,5.86,4.17,4.24,2.37,6.28,3.65,4.3,2.28,6.33,3.58,3.88,2.94,5.91,4.24,4.05,2.68,6.07,4,4.22,2.43,6.23,3.75,4,2.75,6,4.09,4.24,2.41,6.23,3.76,4,2.82,5.94,4.18,3.9,2.91,5.87,4.28,3.83,3,5.79,4.39,4.25,2.42,6.19,3.82,3.8,3.05,5.73,4.47,3.93,2.88,5.85,4.31,4.13,2.61,6,4.06,3.72,3.16,5.61,4.63,3.68,3.2,5.56,4.68,4.15,2.61,6,4.11,3.31,3.65,5.15,5.17,4.2,2.58,6,4.12,3.61,3.3,5.41,4.86,3.55,3.37,5.32,5,3.4,3.52,5.14,5.13,4.1,2.79,5.8,4.44,3,4,4.62,5.66,3.48,3.45,5.1,5.16,3.88,3.12,5.43,4.87,2.77,4.12,4.25,5.92c1.61,2,3.49,3.56,4.86,5.42,1.52,2.06,3,4,4.2,5.95,1.39,2.2,1.94,4.67,2.92,6.68,1.18,2.39,2.49,4.46,3.08,6.56a19.42,19.42,0,0,1,.73,7.21,11,11,0,0,1-3,6.43A15.3,15.3,0,0,1,713.9,695.52Z"/><path class="b" d="M574.95,609.44a16.73,16.73,0,0,1-6.92,1.27c-2.08-.11-4.36-1-6.95-1.49-2.14-.41-4.41-1-6.86-1.65-2.15-.58-4.44-1.14-6.81-1.9-2.15-.69-4.45-1.26-6.76-2.09-2.15-.77-4.2-2-6.46-2.9s-4.6-1-6.83-2-4.21-2-6.41-3-4.21-2-6.39-3.06-4.27-1.94-6.42-3-4.14-2.2-6.27-3.28-4.41-1.71-6.52-2.82-4.08-2.33-6.17-3.47-3.86-2.74-5.94-3.9-4.42-1.75-6.48-2.94-4.1-2.34-6.13-3.56-4.07-2.39-6.09-3.64-3.91-2.94-5.91-4.22-4.1-2.64-6.08-3.95-3.81-3.06-5.77-4.41-4.36-2.29-6.28-3.66-3.87-3-5.76-4.4-4.1-2.72-5.95-4.16-3.42-3.59-5.21-5.08c-1.94-1.61-3.8-3.15-5.51-4.68-1.9-1.7-3.69-3.32-5.3-4.92-1.86-1.83-3.46-3.62-4.92-5.29a54.52,54.52,0,0,1-4.49-5.63,16.5,16.5,0,0,1-2.71-6.5c-.43-2.69.13-4.75,2.86-5.76a18.62,18.62,0,0,1,7.07-.67,52.28,52.28,0,0,1,7,.88c2.14.41,4.34,1.36,6.79,2,2.15.58,4.6.63,7,1.39,2.15.69,4.27,1.82,6.58,2.65,2.15.77,4.48,1.29,6.75,2.18s4.2,2,6.44,3,4.23,2,6.43,3,4.36,1.72,6.53,2.74,4.22,2,6.37,3.08,4,2.44,6.15,3.52,4.33,1.85,6.44,3,4.06,2.37,6.15,3.51,4,2.4,6.12,3.57,4.27,2,6.32,3.21,4.27,2,6.3,3.27,3.86,2.73,5.87,4,4.33,2.26,6.34,3.54,3.83,3.06,5.81,4.37,4.07,2.69,6,4,4,2.81,5.92,4.18,4.06,2.74,5.95,4.14,4.16,2.64,6,4.09,3.61,3.37,5.4,4.86c1.94,1.61,4,2.91,5.75,4.45,1.9,1.7,3.26,3.81,4.88,5.4,1.86,1.83,3.72,3.4,5.18,5.07a53.16,53.16,0,0,1,4.4,5.76,16.13,16.13,0,0,1,2.48,6.65C578.4,606.8,577.68,608.44,574.95,609.44Z"/><path class="d" d="M574.95,609.44a16.73,16.73,0,0,1-6.92,1.27c-2.08-.11-4.36-1-6.95-1.49-2.14-.41-4.41-1-6.86-1.65-2.15-.58-4.44-1.14-6.81-1.9-2.15-.69-4.45-1.26-6.76-2.09-2.15-.77-4.2-2-6.46-2.9s-4.6-1-6.83-2-4.21-2-6.41-3-4.21-2-6.39-3.06-4.27-1.94-6.42-3-4.14-2.2-6.27-3.28-4.41-1.71-6.52-2.82-4.08-2.33-6.17-3.47-3.86-2.74-5.94-3.9-4.42-1.75-6.48-2.94-4.1-2.34-6.13-3.56-4.07-2.39-6.09-3.64-3.91-2.94-5.91-4.22-4.1-2.64-6.08-3.95-3.81-3.06-5.77-4.41-4.36-2.29-6.28-3.66-3.87-3-5.76-4.4-4.1-2.72-5.95-4.16-3.42-3.59-5.21-5.08c-1.94-1.61-3.8-3.15-5.51-4.68-1.9-1.7-3.69-3.32-5.3-4.92-1.86-1.83-3.46-3.62-4.92-5.29a54.52,54.52,0,0,1-4.49-5.63,16.5,16.5,0,0,1-2.71-6.5c-.43-2.69.13-4.75,2.86-5.76a18.62,18.62,0,0,1,7.07-.67,52.28,52.28,0,0,1,7,.88c2.14.41,4.34,1.36,6.79,2,2.15.58,4.6.63,7,1.39,2.15.69,4.27,1.82,6.58,2.65,2.15.77,4.48,1.29,6.75,2.18s4.2,2,6.44,3,4.23,2,6.43,3,4.36,1.72,6.53,2.74,4.22,2,6.37,3.08,4,2.44,6.15,3.52,4.33,1.85,6.44,3,4.06,2.37,6.15,3.51,4,2.4,6.12,3.57,4.27,2,6.32,3.21,4.27,2,6.3,3.27,3.86,2.73,5.87,4,4.33,2.26,6.34,3.54,3.83,3.06,5.81,4.37,4.07,2.69,6,4,4,2.81,5.92,4.18,4.06,2.74,5.95,4.14,4.16,2.64,6,4.09,3.61,3.37,5.4,4.86c1.94,1.61,4,2.91,5.75,4.45,1.9,1.7,3.26,3.81,4.88,5.4,1.86,1.83,3.72,3.4,5.18,5.07a53.16,53.16,0,0,1,4.4,5.76,16.13,16.13,0,0,1,2.48,6.65C578.4,606.8,577.68,608.44,574.95,609.44Z"/><path class="b" d="M720.76,691.54c-1.82,2.94-2.19,2.71-4,5.66s-1.37,3.22-3.19,6.17-1.62,3.07-3.44,6-2.16,2.74-4,5.68-1.51,3.13-3.33,6.08-2.14,2.75-4,5.69-2,2.85-3.8,5.8-1.65,3.05-3.48,6"/><path class="d" d="M720.76,691.54c-1.82,2.94-2.19,2.71-4,5.66s-1.37,3.22-3.19,6.17-1.62,3.07-3.44,6-2.16,2.74-4,5.68-1.51,3.13-3.33,6.08-2.14,2.75-4,5.69-2,2.85-3.8,5.8-1.65,3.05-3.48,6"/><path class="b" d="M257.68,421.56c-2,3.17-1.58,3.4-3.54,6.57s-1.92,3.19-3.89,6.36-2.28,3-4.24,6.14L242.08,447c-2,3.17-1.67,3.35-3.63,6.52s-2.48,2.85-4.44,6-1.76,3.3-3.72,6.47-2.19,3-4.15,6.21"/><path class="d" d="M257.68,421.56c-2,3.17-1.58,3.4-3.54,6.57s-1.92,3.19-3.89,6.36-2.28,3-4.24,6.14L242.08,447c-2,3.17-1.67,3.35-3.63,6.52s-2.48,2.85-4.44,6-1.76,3.3-3.72,6.47-2.19,3-4.15,6.21"/><path d="M254.48,435.62c3.62-.49,1.78,3.49,3.76,6.56s2.38,2.82,4.35,5.89,3.58,2.59,3.52,6.24c-.05,3.15-1.73,2.43-3.8,4.8s-2.33,2.15-4.41,4.52-.8,4.76-3.95,4.72c-4.62,0-6.11-.38-8.13-4.53-1.59-3.26,1.28-3.62,2.33-7.09s1.21-3.42,2.26-6.9,1.45-3.37,1.61-7C252.2,438.64,250.88,436.1,254.48,435.62Z"/><path class="d" d="M254.48,435.62c3.62-.49,1.78,3.49,3.76,6.56s2.38,2.82,4.35,5.89,3.58,2.59,3.52,6.24c-.05,3.15-1.73,2.43-3.8,4.8s-2.33,2.15-4.41,4.52-.8,4.76-3.95,4.72c-4.62,0-6.11-.38-8.13-4.53-1.59-3.26,1.28-3.62,2.33-7.09s1.21-3.42,2.26-6.9,1.45-3.37,1.61-7C252.2,438.64,250.88,436.1,254.48,435.62Z"/><path d="M708.51,700.49c-3.37-2.45-4,1.46-7.95,2.94s-3.81,1.72-7.71,3.2-5.91-.85-7.49,3c-1.5,3.68,1.69,3.27,3.56,6.78s-.31,6.14,3.6,6.8c3.44.58,2.23-2.35,4.22-5.21s1.41-3.27,3.4-6.13,1.58-3.31,4.21-5.61C707.49,703.53,711.33,702.54,708.51,700.49Z"/><path class="d" d="M708.51,700.49c-3.37-2.45-4,1.46-7.95,2.94s-3.81,1.72-7.71,3.2-5.91-.85-7.49,3c-1.5,3.68,1.69,3.27,3.56,6.78s-.31,6.14,3.6,6.8c3.44.58,2.23-2.35,4.22-5.21s1.41-3.27,3.4-6.13,1.58-3.31,4.21-5.61C707.49,703.53,711.33,702.54,708.51,700.49Z"/><g class="e"><path class="b" d="M375.27,727c-3.34.66-3.1-1.42-6-3.22s-2.8-1.95-5.7-3.74-2.69-2.13-5.59-3.93-3.19-1.33-6.09-3.12-4.92-.55-5.39-3.93c-.5-3.57,2.1-2.74,4.35-5.56s2-3.05,4.22-5.87,2.25-2.83,4.51-5.64,2.32-2.77,4.58-5.58,2.73-2.43,5-5.25,2.18-2.88,4.43-5.7,2-3,4.27-5.83,2.57-2.57,4.83-5.39,2.09-2.95,4.35-5.76,2.19-2.87,4.45-5.68,2.1-2.94,4.36-5.76,2.34-2.75,4.6-5.56,2.49-2.63,4.75-5.45,2-3,4.26-5.84,2.63-2.52,4.89-5.33,2.15-2.91,4.41-5.72,2-3.06,4.22-5.87,2.14-2.91,4.4-5.73,2.59-2.55,4.85-5.37,2.43-2.68,4.69-5.49,1.84-3.15,4.1-6,2.72-2.44,5-5.26,2.17-2.89,4.43-5.7,1.81-3.17,4.07-6,2.36-2.73,4.62-5.54,2.33-2.76,4.59-5.58,2.15-2.9,4.41-5.72,2.58-2.55,4.84-5.37,1.79-3.19,4.05-6,2.89-2.31,5.15-5.13,1.85-3.15,4.11-6,2.23-2.84,4.49-5.65,2.14-2.92,4.4-5.73,2.65-2.5,4.91-5.32,2-3,4.28-5.83,2.21-2.86,4.47-5.67,2.47-2.65,4.73-5.47,2.33-2.76,4.59-5.58,2.29-2.79,4.55-5.61l4.52-5.63c2.26-2.82,2.41-2.7,4.67-5.52s1.69-3.28,4-6.09,2.34-2.75,4.61-5.57,2.33-2.76,4.59-5.58,2.56-2.58,4.82-5.39,2.37-2.73,4.63-5.54,2-3.06,4.22-5.87,2.07-3,4.33-5.79,2.68-2.48,4.94-5.3,2.08-3,4.34-5.78,2.22-2.85,4.49-5.67,2.58-2.56,4.84-5.38,1.85-3.15,4.11-6,2.21-2.86,4.48-5.68,1.14-5,4.69-5.75c3.34-.66,3,2,5.92,3.75s3,1.69,5.86,3.48,2.54,2.38,5.44,4.17,3,1.68,5.87,3.47,5.45,0,5.92,3.35c.5,3.57-2,3-4.28,5.79s-2.65,2.5-4.91,5.31-2.42,2.69-4.68,5.5-2,3-4.27,5.83-2.17,2.88-4.43,5.7-2.42,2.69-4.68,5.5-2,3.06-4.21,5.88-2.63,2.52-4.89,5.33-2.23,2.84-4.49,5.65-1.79,3.19-4.05,6-2.57,2.56-4.83,5.38-2,3-4.3,5.81-2.49,2.63-4.75,5.45-1.94,3.07-4.2,5.89-2.51,2.62-4.77,5.43-2,3-4.3,5.81-2.63,2.52-4.89,5.33-2.25,2.83-4.51,5.64-2.11,2.94-4.37,5.75-2.61,2.53-4.87,5.34-1.68,3.28-3.94,6.09-2.41,2.69-4.67,5.51-2.29,2.79-4.55,5.6-2.11,2.93-4.37,5.74-2.8,2.38-5.06,5.19-1.91,3.1-4.17,5.91-2,3-4.26,5.84-2.92,2.28-5.18,5.1-1.93,3.08-4.19,5.9-2.15,2.91-4.41,5.72-2.63,2.52-4.89,5.33-1.93,3.08-4.19,5.89-2.5,2.62-4.76,5.44-1.92,3.09-4.18,5.9-2.52,2.61-4.78,5.42-2.19,2.87-4.45,5.68l-4.53,5.63c-2.26,2.82-2.09,3-4.35,5.77s-2.09,3-4.35,5.77-2.47,2.65-4.73,5.46-2.14,2.92-4.4,5.73-2.32,2.77-4.58,5.59-2.74,2.43-5,5.25-1.81,3.18-4.07,6-2.74,2.43-5,5.25-1.6,3.35-3.86,6.16-2.49,2.63-4.75,5.45-2.58,2.56-4.84,5.38-2.15,2.91-4.41,5.73l-4.52,5.64c-2.26,2.82-2.46,2.66-4.72,5.48s-2.06,3-4.32,5.79-1.84,3.16-4.11,6-3,2.27-4.68,5.48C378.22,724.85,378.82,726.29,375.27,727Z"/><path class="c" d="M375.27,727c-3.34.66-3.1-1.42-6-3.22s-2.8-1.95-5.7-3.74-2.69-2.13-5.59-3.93-3.19-1.33-6.09-3.12-4.92-.55-5.39-3.93c-.5-3.57,2.1-2.74,4.35-5.56s2-3.05,4.22-5.87,2.25-2.83,4.51-5.64,2.32-2.77,4.58-5.58,2.73-2.43,5-5.25,2.18-2.88,4.43-5.7,2-3,4.27-5.83,2.57-2.57,4.83-5.39,2.09-2.95,4.35-5.76,2.19-2.87,4.45-5.68,2.1-2.94,4.36-5.76,2.34-2.75,4.6-5.56,2.49-2.63,4.75-5.45,2-3,4.26-5.84,2.63-2.52,4.89-5.33,2.15-2.91,4.41-5.72,2-3.06,4.22-5.87,2.14-2.91,4.4-5.73,2.59-2.55,4.85-5.37,2.43-2.68,4.69-5.49,1.84-3.15,4.1-6,2.72-2.44,5-5.26,2.17-2.89,4.43-5.7,1.81-3.17,4.07-6,2.36-2.73,4.62-5.54,2.33-2.76,4.59-5.58,2.15-2.9,4.41-5.72,2.58-2.55,4.84-5.37,1.79-3.19,4.05-6,2.89-2.31,5.15-5.13,1.85-3.15,4.11-6,2.23-2.84,4.49-5.65,2.14-2.92,4.4-5.73,2.65-2.5,4.91-5.32,2-3,4.28-5.83,2.21-2.86,4.47-5.67,2.47-2.65,4.73-5.47,2.33-2.76,4.59-5.58,2.29-2.79,4.55-5.61l4.52-5.63c2.26-2.82,2.41-2.7,4.67-5.52s1.69-3.28,4-6.09,2.34-2.75,4.61-5.57,2.33-2.76,4.59-5.58,2.56-2.58,4.82-5.39,2.37-2.73,4.63-5.54,2-3.06,4.22-5.87,2.07-3,4.33-5.79,2.68-2.48,4.94-5.3,2.08-3,4.34-5.78,2.22-2.85,4.49-5.67,2.58-2.56,4.84-5.38,1.85-3.15,4.11-6,2.21-2.86,4.48-5.68,1.14-5,4.69-5.75c3.34-.66,3,2,5.92,3.75s3,1.69,5.86,3.48,2.54,2.38,5.44,4.17,3,1.68,5.87,3.47,5.45,0,5.92,3.35c.5,3.57-2,3-4.28,5.79s-2.65,2.5-4.91,5.31-2.42,2.69-4.68,5.5-2,3-4.27,5.83-2.17,2.88-4.43,5.7-2.42,2.69-4.68,5.5-2,3.06-4.21,5.88-2.63,2.52-4.89,5.33-2.23,2.84-4.49,5.65-1.79,3.19-4.05,6-2.57,2.56-4.83,5.38-2,3-4.3,5.81-2.49,2.63-4.75,5.45-1.94,3.07-4.2,5.89-2.51,2.62-4.77,5.43-2,3-4.3,5.81-2.63,2.52-4.89,5.33-2.25,2.83-4.51,5.64-2.11,2.94-4.37,5.75-2.61,2.53-4.87,5.34-1.68,3.28-3.94,6.09-2.41,2.69-4.67,5.51-2.29,2.79-4.55,5.6-2.11,2.93-4.37,5.74-2.8,2.38-5.06,5.19-1.91,3.1-4.17,5.91-2,3-4.26,5.84-2.92,2.28-5.18,5.1-1.93,3.08-4.19,5.9-2.15,2.91-4.41,5.72-2.63,2.52-4.89,5.33-1.93,3.08-4.19,5.89-2.5,2.62-4.76,5.44-1.92,3.09-4.18,5.9-2.52,2.61-4.78,5.42-2.19,2.87-4.45,5.68l-4.53,5.63c-2.26,2.82-2.09,3-4.35,5.77s-2.09,3-4.35,5.77-2.47,2.65-4.73,5.46-2.14,2.92-4.4,5.73-2.32,2.77-4.58,5.59-2.74,2.43-5,5.25-1.81,3.18-4.07,6-2.74,2.43-5,5.25-1.6,3.35-3.86,6.16-2.49,2.63-4.75,5.45-2.58,2.56-4.84,5.38-2.15,2.91-4.41,5.73l-4.52,5.64c-2.26,2.82-2.46,2.66-4.72,5.48s-2.06,3-4.32,5.79-1.84,3.16-4.11,6-3,2.27-4.68,5.48C378.22,724.85,378.82,726.29,375.27,727Z"/><path class="b" d="M623.24,415.61a20.79,20.79,0,0,1-6.42-1.15,28.23,28.23,0,0,1-6.28-3.37c-.57-.37-1.15-.75-1.74-1.11a36.84,36.84,0,0,1-6.81-5.34c-4.68-4.73-5.7-8.82-3-12.15a7.36,7.36,0,0,1,6.06-2.61,20.25,20.25,0,0,1,6.27,1.22,39.33,39.33,0,0,1,8.26,3.82l.66.41a34,34,0,0,1,6.44,4.68c4.63,4.67,5.86,9.62,3.21,12.92C628.9,414.14,626.95,415.61,623.24,415.61Z"/><path d="M605,394.38a16.24,16.24,0,0,1,4.85,1,34.7,34.7,0,0,1,7.31,3.38,35.1,35.1,0,0,1,6.27,4.42c2.68,2.7,4,5.57,2.9,6.93a4,4,0,0,1-3.13,1,16.37,16.37,0,0,1-5-.92c-2.27-.76-4.56-2.48-7.07-4a32.5,32.5,0,0,1-6-4.68c-2.68-2.7-3.81-4.8-2.72-6.16a3.11,3.11,0,0,1,2.55-.93m0-9h0a11.86,11.86,0,0,0-9.57,4.3c-2,2.45-5.58,9.12,3.34,18.13a41.39,41.39,0,0,0,7.64,6c.56.35,1.12.71,1.66,1.06a32.1,32.1,0,0,0,7.3,3.86,25.31,25.31,0,0,0,7.84,1.38c5.49,0,8.55-2.38,10.15-4.37,3.29-4.09,4.09-11.21-3.53-18.9a37.85,37.85,0,0,0-7.28-5.34l-.65-.4a43.8,43.8,0,0,0-9.2-4.26,24.56,24.56,0,0,0-7.69-1.46Z"/><path class="b" d="M365.91,735.39a19.55,19.55,0,0,1-6.09-1.17,39.27,39.27,0,0,1-8.13-4c-.7-.43-1.46-.85-2.2-1.25a21.36,21.36,0,0,1-5.15-3.51c-5.22-5.27-4.67-10.13-2.62-12.68a7.49,7.49,0,0,1,6.18-2.64,20.1,20.1,0,0,1,6.26,1.2,39.63,39.63,0,0,1,8.16,4,36.29,36.29,0,0,1,6.72,5.42c1.73,1.74,7,7.06,3,12A7.5,7.5,0,0,1,365.91,735.39Z"/><path d="M347.9,714.6a16.1,16.1,0,0,1,4.84,1,35.6,35.6,0,0,1,7.21,3.59,31.83,31.83,0,0,1,5.89,4.76c2.68,2.7,3.82,4.63,2.73,6a3.24,3.24,0,0,1-2.66,1,15.48,15.48,0,0,1-4.66-.94,35.52,35.52,0,0,1-7.19-3.6c-2.42-1.5-5-2.53-6.52-4.1-2.68-2.7-3.41-5.33-2.31-6.7a3.27,3.27,0,0,1,2.67-1m0-9h0a12,12,0,0,0-9.69,4.32c-3.47,4.32-3.9,11.76,2.93,18.66a25.23,25.23,0,0,0,6.2,4.29c.72.39,1.39.76,2,1.13a43.49,43.49,0,0,0,9.08,4.48,23.87,23.87,0,0,0,7.51,1.4,12,12,0,0,0,9.68-4.35,11.09,11.09,0,0,0,1.12-12.08,22.44,22.44,0,0,0-4.47-5.88,40.7,40.7,0,0,0-7.55-6.07,44,44,0,0,0-9.11-4.47,24.42,24.42,0,0,0-7.69-1.43Z"/></g><path class="b" d="M266.43,421.61l6.23,3.72c3.12,1.86,3.13,1.83,6.25,3.69s3.17,1.77,6.28,3.63,2.81,2.37,5.93,4.23,3.28,1.58,6.4,3.44,2.94,2.16,6.06,4,3.39,1.39,6.51,3.25,2.84,2.33,6,4.19,3.13,1.84,6.25,3.7,3.27,1.6,6.39,3.46,2.95,2.14,6.07,4,3.3,1.55,6.42,3.41,3.17,1.77,6.28,3.63,2.94,2.16,6.05,4,3.06,2,6.18,3.81,3.4,1.39,6.52,3.25,3.24,1.65,6.36,3.51,3,2.09,6.1,3.95,3.16,1.79,6.28,3.65,3.11,1.88,6.23,3.74,3.26,1.64,6.38,3.5,3,2,6.15,3.88"/><path class="d" d="M266.43,421.61l6.23,3.72c3.12,1.86,3.13,1.83,6.25,3.69s3.17,1.77,6.28,3.63,2.81,2.37,5.93,4.23,3.28,1.58,6.4,3.44,2.94,2.16,6.06,4,3.39,1.39,6.51,3.25,2.84,2.33,6,4.19,3.13,1.84,6.25,3.7,3.27,1.6,6.39,3.46,2.95,2.14,6.07,4,3.3,1.55,6.42,3.41,3.17,1.77,6.28,3.63,2.94,2.16,6.05,4,3.06,2,6.18,3.81,3.4,1.39,6.52,3.25,3.24,1.65,6.36,3.51,3,2.09,6.1,3.95,3.16,1.79,6.28,3.65,3.11,1.88,6.23,3.74,3.26,1.64,6.38,3.5,3,2,6.15,3.88"/><path class="b" d="M324.75,510.17c3.65.67,3.58,1,7.24,1.72l7.31,1.35c3.65.67,3.61.92,7.26,1.6s3.68.52,7.33,1.2,3.78,0,7.43.66,3.57,1.13,7.22,1.8,3.64.72,7.3,1.4l7.31,1.34c3.66.68,3.64.78,7.29,1.46s3.77.05,7.42.73,3.61.93,7.27,1.61,3.7.42,7.36,1.1"/><path class="d" d="M324.75,510.17c3.65.67,3.58,1,7.24,1.72l7.31,1.35c3.65.67,3.61.92,7.26,1.6s3.68.52,7.33,1.2,3.78,0,7.43.66,3.57,1.13,7.22,1.8,3.64.72,7.3,1.4l7.31,1.34c3.66.68,3.64.78,7.29,1.46s3.77.05,7.42.73,3.61.93,7.27,1.61,3.7.42,7.36,1.1"/><path class="b" d="M424.77,580c2.57-2.37,2.77-2.15,5.34-4.51s2.72-2.2,5.29-4.57,2.41-2.54,5-4.91,2.44-2.51,5-4.88,2.81-2.11,5.38-4.48"/><path class="d" d="M424.77,580c2.57-2.37,2.77-2.15,5.34-4.51s2.72-2.2,5.29-4.57,2.41-2.54,5-4.91,2.44-2.51,5-4.88,2.81-2.11,5.38-4.48"/><path d="M578.77,655.92c-.73-3.41-1.81-3.1-3.06-6.35s-.9-3.39-2.14-6.64-1.22-3.26-2.47-6.52-1.64-3.1-2.88-6.35-.9-3.39-2.14-6.64-1-3.36-2.23-6.61-4.24-3.14-3-6.41c1.1-3,3.08-1.16,6-2.43s2.93-1.24,5.85-2.51,4.64.37,5.41-2.73c.81-3.31-1.41-2.79-3.32-5.61s-2-2.76-3.91-5.57-1.77-2.92-3.68-5.73-2.09-2.7-4-5.52-1.5-3.15-3.75-5.7-2.64-2-5.14-4.24-2.65-2-5.15-4.21-2.54-2.14-5-4.34-2-2.77-4.49-5-2.56-2.13-5.06-4.33-4.17-1-5-4.25c-1.06-4.36.72-4.34,1.61-8.74s-2-6.31,1.69-8.87c3-2.11,3.57,1.2,7,2.59s3.18,2,6.6,3.41l6.85,2.81c3.43,1.4,3.48,1.27,6.9,2.66s3.65.86,7.08,2.26,3.18,2,6.62,3.4,3.91.43,7,2.42,2.42,2.78,5.09,5.27,2.92,2.22,5.59,4.72,2.49,2.69,5.16,5.18,3,2.13,5.68,4.62,2.26,2.94,4.93,5.43,3.14,2,5.81,4.49,2.15,3.05,4.82,5.55,2.66,2.5,5.33,5,2.92,2.22,5.6,4.72,3,2.15,5.66,4.65,2.65,2.51,5.33,5,2.49,2.69,5.16,5.18,2.65,2.51,5.33,5,2.55,2.62,5.23,5.11,2.9,2.25,5.57,4.75,2.56,2.61,5.23,5.11,2.73,2.43,5.41,4.92,2.56,2.61,5.24,5.1,2.87,2.28,5.54,4.78,2.51,2.67,5.18,5.17,2.62,2.55,5.3,5,2.46,2.72,5.13,5.21,3.06,2.08,5.74,4.58,2.4,2.79,5.08,5.29,4.27,1.43,5.5,4.88c1.68,4.71,1,5.14-.06,10-.76,3.41-2.15,2.79-3.93,5.79S709.2,694,707.43,697s-1.75,3-3.53,6-1.59,3.12-3.37,6.13-.37,5.2-3.72,6.21-3.29-2-6.57-3.52-3.54-.93-6.82-2.41-3-2.17-6.25-3.66l-6.57-3c-3.28-1.49-3.42-1.19-6.7-2.68s-3.39-1.25-6.67-2.73-3.19-1.7-6.47-3.18-3.33-1.39-6.61-2.88-3.42-1.19-6.7-2.67-3.14-1.79-6.43-3.28-3.06-2-6.35-3.46-3.51-1-6.79-2.47-3.3-1.45-6.59-2.93-3.38-1.27-6.67-2.75-2.95-2.22-6.23-3.71l-6.57-3c-3.29-1.49-3.58-.85-6.87-2.34s-3.92-.67-6.43-3.26C576.54,659.49,579.36,658.65,578.77,655.92Z"/><path class="d" d="M578.77,655.92c-.73-3.41-1.81-3.1-3.06-6.35s-.9-3.39-2.14-6.64-1.22-3.26-2.47-6.52-1.64-3.1-2.88-6.35-.9-3.39-2.14-6.64-1-3.36-2.23-6.61-4.24-3.14-3-6.41c1.1-3,3.08-1.16,6-2.43s2.93-1.24,5.85-2.51,4.64.37,5.41-2.73c.81-3.31-1.41-2.79-3.32-5.61s-2-2.76-3.91-5.57-1.77-2.92-3.68-5.73-2.09-2.7-4-5.52-1.5-3.15-3.75-5.7-2.64-2-5.14-4.24-2.65-2-5.15-4.21-2.54-2.14-5-4.34-2-2.77-4.49-5-2.56-2.13-5.06-4.33-4.17-1-5-4.25c-1.06-4.36.72-4.34,1.61-8.74s-2-6.31,1.69-8.87c3-2.11,3.57,1.2,7,2.59s3.18,2,6.6,3.41l6.85,2.81c3.43,1.4,3.48,1.27,6.9,2.66s3.65.86,7.08,2.26,3.18,2,6.62,3.4,3.91.43,7,2.42,2.42,2.78,5.09,5.27,2.92,2.22,5.59,4.72,2.49,2.69,5.16,5.18,3,2.13,5.68,4.62,2.26,2.94,4.93,5.43,3.14,2,5.81,4.49,2.15,3.05,4.82,5.55,2.66,2.5,5.33,5,2.92,2.22,5.6,4.72,3,2.15,5.66,4.65,2.65,2.51,5.33,5,2.49,2.69,5.16,5.18,2.65,2.51,5.33,5,2.55,2.62,5.23,5.11,2.9,2.25,5.57,4.75,2.56,2.61,5.23,5.11,2.73,2.43,5.41,4.92,2.56,2.61,5.24,5.1,2.87,2.28,5.54,4.78,2.51,2.67,5.18,5.17,2.62,2.55,5.3,5,2.46,2.72,5.13,5.21,3.06,2.08,5.74,4.58,2.4,2.79,5.08,5.29,4.27,1.43,5.5,4.88c1.68,4.71,1,5.14-.06,10-.76,3.41-2.15,2.79-3.93,5.79S709.2,694,707.43,697s-1.75,3-3.53,6-1.59,3.12-3.37,6.13-.37,5.2-3.72,6.21-3.29-2-6.57-3.52-3.54-.93-6.82-2.41-3-2.17-6.25-3.66l-6.57-3c-3.28-1.49-3.42-1.19-6.7-2.68s-3.39-1.25-6.67-2.73-3.19-1.7-6.47-3.18-3.33-1.39-6.61-2.88-3.42-1.19-6.7-2.67-3.14-1.79-6.43-3.28-3.06-2-6.35-3.46-3.51-1-6.79-2.47-3.3-1.45-6.59-2.93-3.38-1.27-6.67-2.75-2.95-2.22-6.23-3.71l-6.57-3c-3.29-1.49-3.58-.85-6.87-2.34s-3.92-.67-6.43-3.26C576.54,659.49,579.36,658.65,578.77,655.92Z"/><path class="f" d="M734.12,695.11c-1.93.71-4.45.45-7.18.64a53.18,53.18,0,0,1-7.13.21c-2.22-.13-4.59-.3-7.12-.64-2.24-.3-4.53-1-7-1.48-2.25-.42-4.59-.82-7-1.37-2.25-.51-4.61-.85-7-1.46s-4.66-.78-7-1.45-4.5-1.44-6.84-2.14-4.48-1.51-6.8-2.25-4.51-1.44-6.81-2.21-4.31-2-6.6-2.83-4.6-1.18-6.88-2-4.35-1.91-6.61-2.76-4.61-1.23-6.86-2.11-4.4-1.79-6.64-2.68-4.36-1.88-6.59-2.8-4.36-1.89-6.58-2.81-4.54-1.46-6.75-2.41-4.14-2.4-6.35-3.36-4.35-1.92-6.55-2.89-4.31-2-6.5-3-4.49-1.62-6.67-2.63-4.3-2-6.48-3.05-4.2-2.25-6.37-3.28-4.53-1.59-6.69-2.63-4.34-2-6.49-3-4-2.69-6.14-3.76-4.42-1.83-6.56-2.92"/><path class="d" d="M390.4-52.4c2.38,2.66,1.7,1.94,4.59,5.49,1.27,1.56,3,3.26,4.68,5.42,1.33,1.72,2.56,3.8,4.1,5.88,1.34,1.8,2.53,3.89,4,5.94,1.32,1.86,2.78,3.75,4.18,5.8s2.91,3.7,4.25,5.76,2.23,4.17,3.52,6.24,2.74,3.86,4,6S425.83-1.67,427,.44s2.07,4.26,3.22,6.39,2.55,4,3.64,6.17,1.77,4.42,2.8,6.59,2.56,4,3.54,6.24,2,4.32,2.91,6.54,1.24,4.63,2.09,6.87,2.36,4.21,3.14,6.47,1.22,4.62,1.92,6.91,1.56,4.52,2.18,6.82.61,4.76,1.15,7.09,1.6,4.53,2,6.88.9,4.7,1.25,7.06.76,4.73,1,7.1-.39,4.81-.27,7.2.45,4.75.45,7.13-.3,4.75-.43,7.13,0,4.77-.23,7.15-.94,4.67-1.34,7-.92,4.65-1.47,7-.41,4.82-1.11,7.11-1.47,4.55-2.31,6.8-2.43,4.14-3.41,6.33-1.91,4.33-3,6.46-1.92,4.5-3,6.64-2.54,4.2-3.52,6.38-1.37,4.72-2.28,6.93-2.42,4.29-3.24,6.54-.87,4.86-1.62,7.13-1.66,4.58-2.32,6.88-1.58,4.62-2.15,6.94-.65,4.84-1.13,7.18-1.42,4.69-1.8,7-.71,4.82-1,7.2-.77,4.83-.95,7.22-.12,4.88-.19,7.27-.38,4.88-.35,7.27.66,4.85.79,7.25,0,4.88.29,7.26.84,4.8,1.19,7.17.71,4.81,1.16,7.17,1,4.75,1.59,7.09,1.42,4.65,2.07,7,1,4.77,1.78,7,1.63,4.59,2.46,6.83,2,4.43,2.93,6.64,1.78,4.53,2.78,6.7,2.24,4.32,3.33,6.45,2.21,4.34,3.37,6.42,2.23,4.35,3.46,6.38,2.68,4.09,4,6.07,2.44,4.27,3.8,6.2,2.68,4.15,4.09,6,3,3.91,4.51,5.71c1.61,2,3.58,3.51,5.08,5.22,1.72,2,2.91,4.19,4.42,5.8,1.9,2,3.87,3.52,5.34,4.95,3.31,3.24,2.78,2.32,5.52,4.71s2.62,2.46,5.3,4.84,2.74,2.32,5.42,4.7,2.56,2.52,5.24,4.91,2.59,2.49,5.27,4.87,2.58,2.5,5.27,4.88,3.13,1.88,5.82,4.26,2.2,3,5.19,5-1.21-2-2.26-6.61A45.84,45.84,0,0,1,519,401.4c-.19-2.09,0-4.47,0-7.09,0-2.16-.1-4.53.1-7.08.17-2.2,1.07-4.46,1.42-7,.3-2.2.59-4.52,1-7,.42-2.21.88-4.5,1.44-6.91"/><path class="d" d="M522.83,371.55a49.55,49.55,0,0,1-5.35-4.72c-1.47-1.38-3.25-3-5.16-4.94-1.52-1.56-3.07-3.38-4.8-5.3-1.5-1.67-3.45-3.15-5.05-5.08-1.46-1.76-2.94-3.64-4.45-5.61S495.32,342,493.9,340s-2.52-4-3.85-6-2.86-3.78-4.11-5.87-2.11-4.24-3.27-6.38-1.94-4.31-3-6.49-2.19-4.19-3.17-6.41-1.85-4.35-2.73-6.6-1.5-4.49-2.28-6.77-1.68-4.43-2.36-6.75-1.06-4.61-1.64-7-1.73-4.47-2.2-6.84-.72-4.7-1.09-7.08-.75-4.69-1-7.09-.63-4.72-.78-7.13-.07-4.76-.11-7.17.46-4.74.53-7.15.22-4.72.39-7.13-.38-4.8-.1-7.2.81-4.69,1.18-7.07.61-4.72,1.07-7.09,1.36-4.56,1.91-6.92.81-4.69,1.45-7,1.66-4.46,2.39-6.76,1.12-4.63,1.93-6.91,1.69-4.44,2.57-6.69,2.07-4.27,3-6.5,1.84-4.37,2.86-6.57,1.93-4.34,3-6.5,2.12-4.25,3-6.41,2.2-4.25,3-6.47.86-4.71,1.51-7,1.29-4.55,1.81-6.85.93-4.63,1.31-7,1.07-4.63,1.32-7,.32-4.73.44-7.09-.21-4.73-.21-7.09.74-4.75.63-7.11-.63-4.71-.85-7.06-.72-4.68-1-7-.36-4.73-.77-7.06-1-4.63-1.49-6.94-1.45-4.52-2-6.81-.64-4.73-1.3-7-1.78-4.41-2.51-6.65-1.26-4.58-2.06-6.8-1.37-4.56-2.23-6.75-2.19-4.24-3.11-6.4-1.27-4.63-2.24-6.77-2.3-4.18-3.32-6.29-2.13-4.26-3.19-6.35-2.29-4.18-3.39-6.24-2.15-4.27-3.29-6.29-2.6-4-3.78-6-2.17-4.29-3.38-6.25-2.72-4-4-5.89-2.86-3.9-4.13-5.78c-1.4-2.07-2.32-4.32-3.6-6.14-1.48-2.1-3.24-3.75-4.52-5.49-1.61-2.19-3.18-4-4.4-5.56-2.78-3.59-1.78-3.1-4.08-5.81"/><path class="d" d="M478.08,20.57c1.79,3.25.87,2.4,1.83,7.27a74,74,0,0,1,.51,7.39c.16,2.2,1,4.64,1,7.39,0,2.27-.44,4.74-.67,7.41-.19,2.31-.7,4.73-1.07,7.35-.33,2.32-.23,4.84-.72,7.41-.44,2.32-1.58,4.6-2.17,7.13-.54,2.31-.57,4.85-1.24,7.34-.62,2.3-1.92,4.5-2.67,7-.7,2.29-.87,4.83-1.69,7.25s-2.19,4.4-3.06,6.79-1.57,4.62-2.49,7-1.21,4.78-2.19,7.13-2.27,4.35-3.29,6.67-1.84,4.54-2.9,6.85-2.4,4.29-3.5,6.57"/><path class="d" d="M429.71,193.36c3.17-1.87,2.36-1.39,6.22-4,1.75-1.16,3.69-2.71,6-4.34,1.85-1.32,4.22-2.26,6.31-3.86,1.86-1.41,3.43-3.42,5.43-5s4.08-2.68,6-4.34,3.29-3.62,5.13-5.33,3.84-3.06,5.59-4.83,3.49-3.46,5.15-5.3,2.83-4.05,4.38-6,3.16-3.77,4.58-5.77,2.78-4.07,4-6.15,2.74-4.13,3.82-6.32a70.08,70.08,0,0,0,2.88-6.8"/><path class="d" d="M429.75,296.25c-.09-3.65,0-2.55.64-7.25.26-2,.93-4.36,1.49-7.13.44-2.15.77-4.55,1.45-7.13.58-2.19,1.21-4.53,2-7,.71-2.19,1.52-4.47,2.42-6.87.81-2.18,1.55-4.5,2.54-6.84.91-2.15,2.21-4.23,3.29-6.51,1-2.13,1.68-4.5,2.84-6.73s2.51-4.09,3.74-6.27,2.61-4,3.91-6.16,1.89-4.48,3.25-6.57,2.58-4.08,4-6.12,3.31-3.56,4.78-5.56"/><path class="d" d="M465.89,361.58c-1.07-3.59-1.05-2.53-2-7.24-.42-2.06-.48-4.61-.92-7.46-.35-2.25-.91-4.71-1.22-7.4-.27-2.33-.12-4.86-.32-7.5-.18-2.38-.85-4.85-1-7.46-.1-2.41.4-4.92.39-7.51,0-2.43-.37-4.93-.29-7.5s.49-4.92.66-7.47.08-5,.33-7.5.55-4.92.89-7.45.73-4.91,1.16-7.42.92-4.88,1.44-7.37"/><path class="d" d="M449.53,50.57c.87-3.38.29-2.6,1.22-6.89.42-1.95,1.59-4.11,2.08-6.71.4-2.12.48-4.49.89-6.95.36-2.19.44-4.54.78-7,.32-2.24.7-4.54,1-6.92s.58-4.58.78-6.95.45-4.62.57-7,.13-4.66.16-7,.48-4.69.4-7-.5-4.68-.71-7"/><path class="d" d="M488.88,333c-.22,3.53-.19,2.74-.25,7.09,0,2,.32,4.44.37,7.08,0,2.21-.16,4.61,0,7.09.12,2.28.48,4.65.71,7.05s1,4.62,1.33,7,.76,4.67,1.25,6.95,1,4.67,1.68,6.85a45.09,45.09,0,0,0,2.63,6.53c1.14,2.25,2.1,4.47,3.61,6.09"/><path class="d" d="M46.38,175c.23-3.58.19-3.58.19-7.17s-.11-3.59-.11-7.18-.29-3.59-.29-7.18.63-3.59.63-7.18-.23-3.59-.23-7.18-.4-3.59-.4-7.18.72-3.59.72-7.18-.81-3.59-.81-7.18.47-3.59.47-7.18-.38-3.59-.38-7.19.26-3.59.26-7.18.44-3.59.44-7.18-.5-3.59-.5-7.18.41-3.59.41-7.18,0-3.59,0-7.19-.08-3.59-.08-7.18-.17-3.59-.17-7.19-.13-3.6-.13-7.19-2.19-4.43.34-7,3.34-.36,6.88-.36,3.54-.18,7.08-.18,3.54.43,7.08.43,3.54-.33,7.08-.33,3.54.6,7.07.6,3.54-.46,7.08-.46,3.54,0,7.08,0,3.54,0,7.08,0,3.54.39,7.08.39,3.54-.1,7.07-.1,3.54.12,7.08.12,3.54-.22,7.08-.22,4.34-2.35,6.82.18.07,3.35.07,6.95.5,3.6.5,7.21-.44,3.6-.44,7.21.38,3.6.38,7.21,0,3.6,0,7.21-.19,3.61-.19,7.21-.16,3.6-.16,7.21-.1,3.6-.1,7.21-.22,3.61-.22,7.21.8,3.61.8,7.21-.18,3.6-.18,7.21-.19,3.6-.19,7.21-.18,3.6-.18,7.21.18,3.6.18,7.21-.3,3.61-.3,7.21-.1,3.6-.1,7.21.64,3.61.64,7.21-.05,3.61-.05,7.22,2.1,4.42-.44,7-3.33.31-6.88.31-3.56-.47-7.11-.47-3.56.17-7.11.17-3.56.52-7.12.52-3.56-.42-7.11-.42-3.56.16-7.11.16-3.56-.08-7.11-.08H81.59c-3.56,0-3.56,0-7.12,0s-3.56-.35-7.11-.35H60.25c-3.56,0-3.56.74-7.12.74s-3.57.13-7.13,0C45.66,175.85,46.35,175.34,46.38,175Z"/><path class="b" d="M63,195.51c3.45,1,3.6.09,7.19.09s3.6-.39,7.19-.39,3.6.08,7.19.08,3.6.43,7.19.43,3.59-.66,7.19-.66,3.6.7,7.19.7,3.6-.3,7.19-.3,3.6.45,7.19.45,3.6-.7,7.19-.7,3.59.6,7.19.6,3.6-.17,7.19-.17,3.6-.2,7.2-.2,4.7,2.65,7.24.1-.13-3.65-.13-7.25-.1-3.6-.1-7.21.06-3.6.06-7.21.22-3.6.22-7.21-.44-3.6-.44-7.21.68-3.61.68-7.21-.08-3.6-.08-7.21-.18-3.6-.18-7.21.33-3.61.33-7.21-.47-3.61-.47-7.21-.3-3.6-.3-7.21.34-3.6.34-7.21.25-3.6.25-7.21.18-3.6.18-7.21-.22-3.61-.22-7.21-.58-3.6-.58-7.21.15-3.61.15-7.21.57-3.61.57-7.22,2.08-4.52-.49-7-3.5,0-7.16,0h-7.33c-3.67,0-3.67.19-7.33.19s-3.66-.58-7.33-.58-3.67.47-7.33.47-3.67-.14-7.33-.14-3.67.2-7.33.2-3.67-.38-7.33-.38-3.67.51-7.34.51-3.67-.23-7.33-.23-3.67,0-7.34,0-4.45-2.52-7.08,0,.08,3.32.08,6.91-.43,3.59-.43,7.18S68.1,76.45,68.1,80s.21,3.59.21,7.18.13,3.59.13,7.18.37,3.59.37,7.18.12,3.59.12,7.18-.26,3.59-.26,7.18-.13,3.59-.13,7.18.06,3.59.06,7.19.09,3.59.09,7.18-.25,3.59-.25,7.18.42,3.59.42,7.18-.11,3.59-.11,7.18.06,3.59.06,7.19-.17,3.59-.17,7.18.22,3.59.22,7.19,0,3.6,0,7.19,2.69,5.2,0,7.53C66.23,197.51,60.35,194.73,63,195.51Z"/><path class="d" d="M63,195.51c3.45,1,3.6.09,7.19.09s3.6-.39,7.19-.39,3.6.08,7.19.08,3.6.43,7.19.43,3.59-.66,7.19-.66,3.6.7,7.19.7,3.6-.3,7.19-.3,3.6.45,7.19.45,3.6-.7,7.19-.7,3.59.6,7.19.6,3.6-.17,7.19-.17,3.6-.2,7.2-.2,4.7,2.65,7.24.1-.13-3.65-.13-7.25-.1-3.6-.1-7.21.06-3.6.06-7.21.22-3.6.22-7.21-.44-3.6-.44-7.21.68-3.61.68-7.21-.08-3.6-.08-7.21-.18-3.6-.18-7.21.33-3.61.33-7.21-.47-3.61-.47-7.21-.3-3.6-.3-7.21.34-3.6.34-7.21.25-3.6.25-7.21.18-3.6.18-7.21-.22-3.61-.22-7.21-.58-3.6-.58-7.21.15-3.61.15-7.21.57-3.61.57-7.22,2.08-4.52-.49-7-3.5,0-7.16,0h-7.33c-3.67,0-3.67.19-7.33.19s-3.66-.58-7.33-.58-3.67.47-7.33.47-3.67-.14-7.33-.14-3.67.2-7.33.2-3.67-.38-7.33-.38-3.67.51-7.34.51-3.67-.23-7.33-.23-3.67,0-7.34,0-4.45-2.52-7.08,0,.08,3.32.08,6.91-.43,3.59-.43,7.18S68.1,76.45,68.1,80s.21,3.59.21,7.18.13,3.59.13,7.18.37,3.59.37,7.18.12,3.59.12,7.18-.26,3.59-.26,7.18-.13,3.59-.13,7.18.06,3.59.06,7.19.09,3.59.09,7.18-.25,3.59-.25,7.18.42,3.59.42,7.18-.11,3.59-.11,7.18.06,3.59.06,7.19-.17,3.59-.17,7.18.22,3.59.22,7.19,0,3.6,0,7.19,2.69,5.2,0,7.53C66.23,197.51,60.35,194.73,63,195.51Z"/><path class="d" d="M130.17,219.94c.78,3.62.26,3.73,1,7.35s1.35,3.49,2.13,7.11.4,3.7,1.18,7.32.8,3.61,1.58,7.23,1.07,3.55,1.85,7.17.34,3.71,1.12,7.33,1.1,3.55,1.88,7.17.65,3.65,1.43,7.26.58,3.66,1.36,7.27,1.37,3.49,2.15,7.11.72,3.63,1.5,7.25.25,3.73,1,7.35,1.05,3.56,1.83,7.18,1,3.57,1.78,7.19.22,3.74,1,7.36.73,3.63,1.51,7.25,1,3.57,1.82,7.19"/><path class="d" d="M174.27,219.77c2.14,2.78,2.22,2.71,4.36,5.49s2,2.89,4.14,5.66,1.85,3,4,5.78,2.53,2.48,4.67,5.25,1.89,3,4,5.75,1.8,3,3.93,5.82,2.47,2.52,4.61,5.3,1.83,3,4,5.79,2.57,2.44,4.71,5.22,2.3,2.65,4.44,5.43,1.9,3,4,5.74,1.68,3.13,3.82,5.91,2.21,2.72,4.35,5.5,2.33,2.63,4.47,5.41,2.53,2.47,4.67,5.25,2.1,2.81,4.24,5.59l4.29,5.56c2.14,2.78,1.78,3.06,3.92,5.84"/><path class="d" d="M198.11,173.65c3.1,2,2.83,2.42,5.93,4.42s3,2.18,6.08,4.18,3,2.08,6.14,4.08,3.46,1.44,6.56,3.44,2.86,2.36,6,4.36,3.36,1.59,6.46,3.59,2.7,2.62,5.8,4.62,3.43,1.48,6.53,3.48,3,2.11,6.12,4.11,3.23,1.8,6.32,3.8,2.79,2.47,5.89,4.47,3.16,1.91,6.26,3.91,3,2.21,6.07,4.21,3.46,1.45,6.56,3.46"/><path class="d" d="M156.27,58.48c-2.22-2.5-2.25-2.46-4.47-5s-2.27-2.45-4.49-5-2.32-2.41-4.54-4.91-1.35-3.47-4.42-4.8c-3.26-1.41-3.4-.41-7-.41s-3.56.3-7.11.3-3.56-.42-7.11-.42-3.56.48-7.12.48-3.56-.25-7.11-.25-3.56.19-7.11.19-3.56-.46-7.11-.46-3.56.62-7.11.62-3.56-.82-7.12-.82-3.56.26-7.11.26-3.56.4-7.12.4-3.56-.09-7.12-.09-4.83-2.9-7.38-.41-.21,3.82-.31,7.38.15,3.57,0,7.13.39,3.58.3,7.14S45,63.44,44.93,67s.09,3.57,0,7.14-.14,3.56-.24,7.13-.34,3.56-.44,7.12.23,3.57.13,7.14-.15,3.56-.25,7.13-.12,3.57-.21,7.13-.32,3.56-.42,7.12-.12,3.56-.22,7.13.07,3.57,0,7.14.26,3.58.17,7.14-.21,3.56-.31,7.13,0,3.57-.13,7.13-.39,3.56-.49,7.13.17,3.58.08,7.15-1.91,4-.46,7.23c1.36,3.06,2.77,2.08,5.38,4.18S50.4,180,53,182.12s2.46,2.3,5.07,4.4,2.37,2.42,5,4.52,3,1.65,5.6,3.75"/><path class="d" d="M68.62,58.37c-2.81-2.5-3-2.24-5.84-4.74s-2.9-2.4-5.71-4.9S54.47,46,51.65,43.47s-2.56-2.79-5.37-5.29"/><path class="d" d="M108.33,87.22c-3.46,0-1.37,3-3,6s-2.08,2.8-3.75,5.83-1.81,3-3.48,6-1.18,3.3-2.85,6.34-3.66,2.48-3.78,5.94c-.13,3.76,1.24,3.65,2.68,7.12s1.58,3.41,3,6.89,1.63,3.4,3.06,6.87,1.08,3.62,2.51,7.09,2.13,3.19,3.56,6.67,1.2,3.57,2.64,7.05-.94,7.06,2.83,7.07,1.21-3.67,2.65-7.14,1.49-3.46,2.94-6.93,2-3.24,3.46-6.71.83-3.73,2.28-7.2,1.7-3.37,3.15-6.85,1.31-3.54,2.76-7,3.82-3.21,3.3-6.95-2.62-3-5-6l-4.73-6.06c-2.37-3-2.27-3.11-4.64-6.14s-3.16-2.52-4.81-6C111.38,89.35,112.18,87.22,108.33,87.22Z"/></svg>