<svg xmlns="http://www.w3.org/2000/svg" viewBox="0 0 800 800"><defs><style>.a{fill:none;}.a,.c,.d{stroke:#000;stroke-linejoin:bevel;stroke-width:13px;}.b,.d{fill:#fff;}</style></defs><title>canvas (42)</title><polyline class="a" points="333.99 536.81 336.24 529.96 338.27 523.01 339.13 515.83 340.5 508.74 341.48 501.59 342.41 494.44 343.04 487.25 343.78 480.08 344.75 472.93 345.47 465.75 345.87 458.54 346.83 451.37 346.56 444.12 346.56 436.89 347.51 429.71 347.31 422.48 347.45 415.26 347.58 408.04 348.03 400.84 348.66 393.63 348.3 386.4 348.55 379.19 349.2 371.98 348.3 364.76 348.47 357.55 348.74 350.33 349.19 343.12 349.13 335.91"/><polyline points="359.72 551.16 361.43 544.25 363.35 537.4 365.47 530.58 366.63 523.54 368.08 516.57 368.62 509.45 369.72 502.42 370.62 495.36 371.55 488.3 371.95 481.19 372.32 474.08 373.12 467.01 373.41 459.9 374.42 452.84 374.8 445.73 374.89 438.6 375.71 431.51 375.68 424.38 376.26 417.29 376.55 410.18 376.9 403.07 377.56 395.96 377.5 388.84 377.42 381.72 377.74 374.61 377.8 367.49 378.04 360.38 377.92 353.27 377.73 346.35 383.75 349.54 390.17 352.02 396.63 354.44 402.75 357.58 409.09 360.26 415.22 363.39 421.33 366.55 427.57 369.44 433.73 372.52 440.18 375.14 439.75 382.54 439.96 389.75 440.43 396.97 440.15 404.18 439.97 411.38 440.17 418.6 439.42 425.79 439.33 433 438.99 440.21 438.72 447.41 438.97 454.64 438.29 461.83 437.71 469.03 437.58 476.24 437.08 483.44 436.49 490.63 436.3 497.85 435.4 505.01 434.9 512.21 434.14 519.39 433.41 526.57 432.11 533.67 430.63 540.72 428.99 547.73"/><polyline class="a" points="359.72 551.16 361.43 544.25 363.35 537.4 365.47 530.58 366.63 523.54 368.08 516.57 368.62 509.45 369.72 502.42 370.62 495.36 371.55 488.3 371.95 481.19 372.32 474.08 373.12 467.01 373.41 459.9 374.42 452.84 374.8 445.73 374.89 438.6 375.71 431.51 375.68 424.38 376.26 417.29 376.55 410.18 376.9 403.07 377.56 395.96 377.5 388.84 377.42 381.72 377.74 374.61 377.8 367.49 378.04 360.38 377.92 353.27 377.73 346.35 383.75 349.54 390.17 352.02 396.63 354.44 402.75 357.58 409.09 360.26 415.22 363.39 421.33 366.55 427.57 369.44 433.73 372.52 440.18 375.14 439.75 382.54 439.96 389.75 440.43 396.97 440.15 404.18 439.97 411.38 440.17 418.6 439.42 425.79 439.33 433 438.99 440.21 438.72 447.41 438.97 454.64 438.29 461.83 437.71 469.03 437.58 476.24 437.08 483.44 436.49 490.63 436.3 497.85 435.4 505.01 434.9 512.21 434.14 519.39 433.41 526.57 432.11 533.67 430.63 540.72 428.99 547.73"/><polyline class="b" points="455.84 145.37 455.88 152.48 457.04 159.52 457.83 166.59 457.57 173.71 458.38 180.78 458.75 187.88 459.03 194.98 458.9 202.09 458.5 209.2 458.99 216.3 458.79 223.4 458.07 230.5 458.82 237.62 458.37 244.72 457.72 251.8 456.76 258.86 456.18 265.94 456.5 273.1 455.75 280.18 454.55 287.19 453.38 294.2 451.97 301.16 451.01 308.2 449.93 315.24 447.95 322.08 445.45 328.74 443.11 335.43"/><polyline class="a" points="455.84 145.37 455.88 152.48 457.04 159.52 457.83 166.59 457.57 173.71 458.38 180.78 458.75 187.88 459.03 194.98 458.9 202.09 458.5 209.2 458.99 216.3 458.79 223.4 458.07 230.5 458.82 237.62 458.37 244.72 457.72 251.8 456.76 258.86 456.18 265.94 456.5 273.1 455.75 280.18 454.55 287.19 453.38 294.2 451.97 301.16 451.01 308.2 449.93 315.24 447.95 322.08 445.45 328.74 443.11 335.43"/><polyline class="b" points="350.4 306.16 353.21 299.51 354.17 292.36 354.88 285.25 356.08 278.17 355.69 271.01 355.23 263.89 354.38 256.81 353.47 249.72 352.39 242.62 350 235.84 348.13 228.74 346.97 221.49 344.62 214.47 343.73 207.18 343.39 199.84 343.74 192.51 344.15 185.24 344.11 177.85 345.59 170.65 347.92 163.68 350.52 156.83 353.52 150.15"/><polyline class="a" points="350.4 306.16 353.21 299.51 354.17 292.36 354.88 285.25 356.08 278.17 355.69 271.01 355.23 263.89 354.38 256.81 353.47 249.72 352.39 242.62 350 235.84 348.13 228.74 346.97 221.49 344.62 214.47 343.73 207.18 343.39 199.84 343.74 192.51 344.15 185.24 344.11 177.85 345.59 170.65 347.92 163.68 350.52 156.83 353.52 150.15"/><polyline class="b" points="376.54 308.57 378.42 301.64 380.14 294.71 381.27 287.65 382.32 280.58 382.8 273.45 383.48 266.31 383.02 259.15 381.89 252.08 381.34 244.93 379.79 237.93 377.54 231.13 376.42 223.82 374.28 216.82 373.15 209.58 371.14 202.47 370.71 195.12 371.01 187.78 371.64 180.5 371.54 173.1 373.1 165.9 375.94 159.09 377.6 151.9 381.28 145.49"/><polyline class="a" points="376.54 308.57 378.42 301.64 380.14 294.71 381.27 287.65 382.32 280.58 382.8 273.45 383.48 266.31 383.02 259.15 381.89 252.08 381.34 244.93 379.79 237.93 377.54 231.13 376.42 223.82 374.28 216.82 373.15 209.58 371.14 202.47 370.71 195.12 371.01 187.78 371.64 180.5 371.54 173.1 373.1 165.9 375.94 159.09 377.6 151.9 381.28 145.49"/><polyline points="380.65 145.26 379.95 152.11 378.75 158.89 377.13 165.61 376.31 172.45 375.04 179.22 374.57 186.11 373.43 192.9 372.4 199.71 371.25 206.54 372.84 213.78 374.4 220.98 375.47 228.27 377 235.48 377.76 242.82 379.1 250.07 380.68 257.27 381.5 264.61 383.12 271.81 384.1 279.15 383.02 286.27 381.84 293.35 380.32 300.37 379.48 307.51 378.62 314.59 385.72 317.44 392.93 320.09 400.07 322.95 407.33 325.51 414.53 328.22 421.63 331.21 429.01 333.45 434.66 334.44 439.88 336.24 442.59 329.56 445.84 322.94 449.13 316.35 449.83 309.43 450.74 302.53 451.1 295.57 452.36 288.7 452.86 281.76 453.08 274.78 454.01 267.88 454.82 260.97 455.25 254.01 456.57 247.15 457.22 240.22 458.1 233.3 458.87 226.36 458.02 218.88 458.07 211.37 457.98 203.87 457.39 196.39 457.13 188.9 456.92 181.4 456.23 173.93 456.19 166.42 455.66 158.93 455.28 151.44 454.75 143.95"/><polygon class="b" points="502.75 314.57 497.75 320.15 492.65 325.43 486.53 329.49 479.87 332.51 473.29 335.79 466.05 337.02 458.79 337.55 451.52 338.01 444.3 337.04 437.22 335.41 429.93 334.38 423.18 331.51 416.52 328.5 409.95 325.27 403.98 321.54 397.87 318 391.08 315.92 384.72 312.88 377.87 311.18 371.38 308.38 364.42 307.18 357.63 305.37 350.81 303.56 343.86 302.38 336.77 302.61 329.8 301.45 322.75 301.63 315.72 301.85 308.75 302.64 301.76 303.33 295.2 304.39 294.33 312.28 295.09 320.15 294.73 328.04 295.23 335.81 301.85 334.89 308.81 334.17 315.77 332.9 322.81 332.81 329.85 332.72 336.88 333.21 343.81 334.51 350.76 335.53 357.8 336.14 364.41 338.76 371.31 340.14 377.97 342.36 384.53 344.87 391.26 346.98 397.81 349.57 404.16 352.65 410.14 356.39 416.56 359.86 423.17 362.98 430.15 365.13 437.2 366.88 444.32 368.25 451.52 369.05 458.77 369.15 466 368.4 473.13 366.84 480.11 364.6 486.59 361.12 492.25 356.46 498.05 351.98 502.82 346.17 503.08 338.29 501.94 330.41 502.86 322.53 502.75 314.57"/><polygon class="a" points="502.75 314.57 497.75 320.15 492.65 325.43 486.53 329.49 479.87 332.51 473.29 335.79 466.05 337.02 458.79 337.55 451.52 338.01 444.3 337.04 437.22 335.41 429.93 334.38 423.18 331.51 416.52 328.5 409.95 325.27 403.98 321.54 397.87 318 391.08 315.92 384.72 312.88 377.87 311.18 371.38 308.38 364.42 307.18 357.63 305.37 350.81 303.56 343.86 302.38 336.77 302.61 329.8 301.45 322.75 301.63 315.72 301.85 308.75 302.64 301.76 303.33 295.2 304.39 294.33 312.28 295.09 320.15 294.73 328.04 295.23 335.81 301.85 334.89 308.81 334.17 315.77 332.9 322.81 332.81 329.85 332.72 336.88 333.21 343.81 334.51 350.76 335.53 357.8 336.14 364.41 338.76 371.31 340.14 377.97 342.36 384.53 344.87 391.26 346.98 397.81 349.57 404.16 352.65 410.14 356.39 416.56 359.86 423.17 362.98 430.15 365.13 437.2 366.88 444.32 368.25 451.52 369.05 458.77 369.15 466 368.4 473.13 366.84 480.11 364.6 486.59 361.12 492.25 356.46 498.05 351.98 502.82 346.17 503.08 338.29 501.94 330.41 502.86 322.53 502.75 314.57"/><polyline class="a" points="412.28 346.14 418.84 349.31 425.39 352.45 432.25 354.82 439.03 357.6 446.3 358.37 453.48 359.82 460.78 359.32 467.95 358.12 475.2 357.07 482.07 354.52 488.1 350.32 494.38 346.61 500.1 342.03 504.96 336.49"/><polyline class="a" points="296.81 325.58 303.73 324.1 310.79 323.87 317.79 323.43 324.81 323.22 331.84 322.96 338.8 324.11 345.84 324.27 352.77 325.46 359.65 326.86 366.53 328.28 373.18 330.56 379.95 332.44 386.61 334.65 393.16 337.21 399.84 339.5 405.84 343.27 412.33 346.05"/><path class="a" d="M371.81,773C312.69,697.33,289,609,306.39,549.93"/><path class="c" d="M401,560.72c-11.82,38.07-13.4,84.58-8.67,105.08,0,0-35.47,27.59-21.28,104"/><path class="c" d="M331.59,564.11C314,618.29,342.25,699.69,367.67,729.65c0,0,1.94-54,24.63-63.85,0,0-1.57-83.8,9.56-103.8"/><path class="d" d="M389.2,138c8.6-20.17.68-59.08-6.53-75.65S472.05,35.71,480,50.84c3.24,6.19,8.69,39.67,12,82.53"/><path class="d" d="M416.79,133.28c8.6-20.17-2.47-66.17-9.68-82.74"/><polyline points="490.9 131.94 490.36 120.08 489.9 110.19 476.02 46 413.37 46 409.19 55.62 419.92 107.04 416.79 133.28"/></svg>