<svg id="Layer_1" data-name="Layer 1" xmlns="http://www.w3.org/2000/svg" viewBox="0 0 800 800"><defs><style>.cls-1{fill:#fff;}.cls-2,.cls-3,.cls-4{fill:none;stroke:#000;}.cls-2,.cls-3{stroke-linejoin:bevel;}.cls-2,.cls-4{stroke-width:13px;}.cls-3{stroke-width:26px;}.cls-4{stroke-miterlimit:10;}</style></defs><title>canvas (81)</title><polygon class="cls-1" points="629.76 624.35 624.78 629.48 617.75 631.37 610.5 631.03 603.34 631.51 596.22 630.51 588.99 630.64 581.86 629.66 574.87 627.88 567.77 626.83 560.69 625.6 553.77 623.64 546.7 622.36 539.62 621.04 532.79 618.78 525.89 616.77 518.95 614.91 512.1 612.75 505.13 611.01 498.13 609.3 491.32 606.99 484.69 604.15 477.71 602.38 471.05 599.65 464.23 597.37 457.41 595.12 450.66 592.63 443.91 590.14 437 588.09 430.51 584.94 423.63 582.77 416.97 580.07 410.54 576.8 403.85 574.2 397.33 571.16 390.63 568.55 384.3 565.11 377.51 562.69 370.95 559.74 364.53 556.5 357.98 553.53 351.55 550.32 345.53 546.32 338.84 543.6 332.87 539.55 326.7 535.87 320.28 532.6 314.42 528.44 308.57 524.28 302.31 520.68 296.67 516.2 291.2 511.53 286.69 505.92 282.45 500.2 281.37 493.19 286.86 488.72 293.79 487.2 300.89 486.44 308.05 486.32 315.21 486.77 322.34 487.61 329.49 488.32 336.62 489.24 343.68 490.57 350.73 491.97 357.78 493.33 364.66 495.48 371.67 497.04 378.76 498.31 385.59 500.57 392.48 502.64 399.36 504.67 406.33 506.44 413.29 508.27 420.14 510.45 426.93 512.82 433.72 515.16 440.44 517.72 447.34 519.79 454 522.5 460.64 525.28 467.63 527.13 474.35 529.68 480.96 532.51 487.83 534.71 494.18 538.17 500.89 540.75 507.66 543.2 514.32 545.9 520.6 549.46 527.36 551.95 533.86 555.02 540.14 558.54 546.66 561.56 553.06 564.82 559.59 567.84 566.15 570.78 572.12 574.85 578.62 577.94 585 581.26 591 585.22 597.13 588.97 603.09 592.99 608.83 597.31 614.71 601.46 619.77 606.57 625.16 611.34 629.05 617.39 629.76 624.35"/><polygon class="cls-2" points="629.76 624.35 624.78 629.48 617.75 631.37 610.5 631.03 603.34 631.51 596.22 630.51 588.99 630.64 581.86 629.66 574.87 627.88 567.77 626.83 560.69 625.6 553.77 623.64 546.7 622.36 539.62 621.04 532.79 618.78 525.89 616.77 518.95 614.91 512.1 612.75 505.13 611.01 498.13 609.3 491.32 606.99 484.69 604.15 477.71 602.38 471.05 599.65 464.23 597.37 457.41 595.12 450.66 592.63 443.91 590.14 437 588.09 430.51 584.94 423.63 582.77 416.97 580.07 410.54 576.8 403.85 574.2 397.33 571.16 390.63 568.55 384.3 565.11 377.51 562.69 370.95 559.74 364.53 556.5 357.98 553.53 351.55 550.32 345.53 546.32 338.84 543.6 332.87 539.55 326.7 535.87 320.28 532.6 314.42 528.44 308.57 524.28 302.31 520.68 296.67 516.2 291.2 511.53 286.69 505.92 282.45 500.2 281.37 493.19 286.86 488.72 293.79 487.2 300.89 486.44 308.05 486.32 315.21 486.77 322.34 487.61 329.49 488.32 336.62 489.24 343.68 490.57 350.73 491.97 357.78 493.33 364.66 495.48 371.67 497.04 378.76 498.31 385.59 500.57 392.48 502.64 399.36 504.67 406.33 506.44 413.29 508.27 420.14 510.45 426.93 512.82 433.72 515.16 440.44 517.72 447.34 519.79 454 522.5 460.64 525.28 467.63 527.13 474.35 529.68 480.96 532.51 487.83 534.71 494.18 538.17 500.89 540.75 507.66 543.2 514.32 545.9 520.6 549.46 527.36 551.95 533.86 555.02 540.14 558.54 546.66 561.56 553.06 564.82 559.59 567.84 566.15 570.78 572.12 574.85 578.62 577.94 585 581.26 591 585.22 597.13 588.97 603.09 592.99 608.83 597.31 614.71 601.46 619.77 606.57 625.16 611.34 629.05 617.39 629.76 624.35"/><polygon points="614.86 631.37 609.77 625.87 603.92 621.68 598.41 617.1 592.33 613.3 586.86 608.59 580.38 605.42 574.5 601.28 568.37 597.54 561.84 594.53 555.72 590.78 549.28 587.63 542.75 584.66 536.41 581.3 530.16 577.75 523.61 574.8 517.12 571.75 510.45 569.09 503.96 566.02 497.41 563.1 490.77 560.38 483.91 558.2 477.3 555.42 470.78 552.39 464.04 549.91 457.35 547.3 450.77 544.74 444.04 542.61 437.51 539.9 430.64 538.15 424.15 535.32 417.32 533.45 410.53 531.5 403.96 528.86 397.29 526.51 390.28 525.3 383.63 522.86 376.85 520.87 370.09 518.82 363.26 517.05 356.29 515.83 349.46 514.02 342.49 512.86 335.72 510.74 328.78 509.46 321.7 508.97 314.75 507.77 307.75 506.86 300.7 506.67 293.67 506.05 286.21 506.24 291.65 511.53 297.27 515.96 302.9 520.37 308.48 524.9 314.56 528.69 320.88 532.12 326.88 536.03 333.09 539.61 339.24 543.3 345.39 547.01 352.04 549.75 358.45 552.97 364.7 556.5 371.33 559.25 377.49 563.02 384.08 565.86 390.87 568.24 397.13 571.83 403.89 574.27 410.34 577.43 416.96 580.21 423.84 582.34 430.33 585.43 437.03 588.02 443.76 590.53 450.6 592.4 457.12 595.11 463.61 597.95 470.4 599.92 477.15 601.99 483.75 604.51 490.47 606.7 497.32 608.48 503.95 610.95 510.82 612.63 517.67 614.36 524.39 616.56 531.19 618.45 537.91 620.63 544.84 622.04 551.82 623.19 558.59 625.27 565.5 626.7 572.48 627.78 579.37 629.35 586.48 629.45 593.47 630.4 600.49 630.84 607.51 631.38 614.86 631.37"/><polygon class="cls-2" points="614.86 631.37 609.77 625.87 603.92 621.68 598.41 617.1 592.33 613.3 586.86 608.59 580.38 605.42 574.5 601.28 568.37 597.54 561.84 594.53 555.72 590.78 549.28 587.63 542.75 584.66 536.41 581.3 530.16 577.75 523.61 574.8 517.12 571.75 510.45 569.09 503.96 566.02 497.41 563.1 490.77 560.38 483.91 558.2 477.3 555.42 470.78 552.39 464.04 549.91 457.35 547.3 450.77 544.74 444.04 542.61 437.51 539.9 430.64 538.15 424.15 535.32 417.32 533.45 410.53 531.5 403.96 528.86 397.29 526.51 390.28 525.3 383.63 522.86 376.85 520.87 370.09 518.82 363.26 517.05 356.29 515.83 349.46 514.02 342.49 512.86 335.72 510.74 328.78 509.46 321.7 508.97 314.75 507.77 307.75 506.86 300.7 506.67 293.67 506.05 286.21 506.24 291.65 511.53 297.27 515.96 302.9 520.37 308.48 524.9 314.56 528.69 320.88 532.12 326.88 536.03 333.09 539.61 339.24 543.3 345.39 547.01 352.04 549.75 358.45 552.97 364.7 556.5 371.33 559.25 377.49 563.02 384.08 565.86 390.87 568.24 397.13 571.83 403.89 574.27 410.34 577.43 416.96 580.21 423.84 582.34 430.33 585.43 437.03 588.02 443.76 590.53 450.6 592.4 457.12 595.11 463.61 597.95 470.4 599.92 477.15 601.99 483.75 604.51 490.47 606.7 497.32 608.48 503.95 610.95 510.82 612.63 517.67 614.36 524.39 616.56 531.19 618.45 537.91 620.63 544.84 622.04 551.82 623.19 558.59 625.27 565.5 626.7 572.48 627.78 579.37 629.35 586.48 629.45 593.47 630.4 600.49 630.84 607.51 631.38 614.86 631.37"/><polyline class="cls-2" points="281.7 493.73 280.93 500.9 280.31 508.08 278.95 515.18 278.24 522.35 277.87 529.56 276.43 536.64 276.25 543.88 275.27 551.02 273.84 558.09 273.23 565.28 272.38 572.43 271.4 579.58 270.13 586.67 268.47 593.7 267.2 600.79 266.12 607.91 264.93 615.02 263.42 622.07 262.43 629.21 260.5 636.17 259.48 643.32 257.76 650.33 256.37 657.4 255.05 664.5 252.65 671.33 250.97 678.34 249.39 685.38 247.89 692.45 245 699.12 243.56 706.22 241.02 712.98 239.09 719.94 236.34 726.62 233.7 733.32 231.29 740.13 227.77 746.46 224.92 753.09 221.22 759.28 217.54 765.2 210.59 766.59 203.68 768.88 196.6 770.48 189.87 773.24 183.1 775.8 176.04 777.64 169.55 780.9 163.12 784.26 156.56 787.33 150.31 791.01 144.17 794.85 138.15 798.87 131.94 802.68 126.28 807.24 121.12 812.36 115.89 817.38 110.75 822.52 106.52 828.44 101.99 834.1 98 840.16 94.23 846.37 91.41 853.07 88.18 859.56 85.77 866.4 83.93 873.41 81.32 880.23 80.55 887.48 79.79 894.69 78.72 901.86"/><polyline class="cls-2" points="629.34 624.32 626.8 631.16 623.04 637.41 621.35 644.5 618.73 651.25 616.46 658.13 614.96 665.22 613.12 672.22 611.85 679.35 610.71 686.49 609.34 693.6 608.54 700.79 607.29 707.94 607.42 715.22 606.73 722.42 605.84 729.62 605.72 736.87 605.42 744.1 606.11 751.35 605.81 758.59 605.79 765.83 605.96 773.07 606.5 780.3 607.13 787.52 607.94 794.72 609 801.89 609.19 809.16"/><polygon points="612.33 677.31 604.97 676.65 597.75 676.26 590.5 676.03 583.32 675.1 576.15 674.1 568.89 673.83 561.74 672.68 554.64 671.2 547.54 669.8 540.45 668.4 533.29 667.33 526.14 666.17 519 664.96 512.07 662.79 505.13 660.76 498.04 659.26 491.11 657.19 483.99 655.76 477.32 652.81 470.39 650.76 463.51 648.51 456.49 646.68 449.67 644.25 442.94 641.58 436.41 638.4 429.61 635.94 422.73 633.63 416.11 630.69 409.8 627.07 402.94 624.66 396.45 621.44 389.86 618.44 383.82 614.36 377.3 611.23 370.97 607.72 364.33 604.78 358.28 600.78 352.19 596.86 345.9 593.29 339.65 589.64 333.82 585.34 327.39 581.94 321.4 577.89 315.92 573.1 309.68 569.4 304.06 564.83 298.35 560.4 292.9 555.63 287.03 551.4 281.42 546.83 276.15 541.83 278.16 549.08 278.36 556.56 278.01 564.03 276.45 571.35 273.26 578.11 270.34 584.83 274.88 590.25 279.84 595.45 285.08 600.38 290.04 605.59 295.1 610.73 300.79 615.16 306.31 619.78 312.06 624.1 317.44 628.91 323.01 633.49 329.29 637.08 335.18 641.21 341.26 645.05 346.93 649.54 353.1 653.24 359.28 656.94 365.66 660.28 371.81 664.04 378.04 667.66 384.52 670.81 391.13 673.7 397.6 676.85 404.21 679.71 410.73 682.76 417.33 685.63 423.96 688.44 430.85 690.61 437.55 693.24 444.35 695.58 451.1 698.08 457.98 700.18 464.68 702.88 471.78 704.26 478.7 706.21 485.47 708.77 492.48 710.44 499.46 712.22 506.43 714.07 513.63 714.84 520.7 716.2 527.62 718.3 534.69 719.66 541.91 720.16 548.9 722.07 556.1 722.69 563.2 723.91 570.39 724.48 577.5 725.74 584.75 725.7 591.92 726.32 599.11 726.82 606.63 727.92 605.13 720.81 604.43 713.87 604.85 706.9 606.08 700.03 607.32 693.08 610.48 686.77 612.33 677.31"/><polygon class="cls-2" points="612.33 677.31 604.97 676.65 597.75 676.26 590.5 676.03 583.32 675.1 576.15 674.1 568.89 673.83 561.74 672.68 554.64 671.2 547.54 669.8 540.45 668.4 533.29 667.33 526.14 666.17 519 664.96 512.07 662.79 505.13 660.76 498.04 659.26 491.11 657.19 483.99 655.76 477.32 652.81 470.39 650.76 463.51 648.51 456.49 646.68 449.67 644.25 442.94 641.58 436.41 638.4 429.61 635.94 422.73 633.63 416.11 630.69 409.8 627.07 402.94 624.66 396.45 621.44 389.86 618.44 383.82 614.36 377.3 611.23 370.97 607.72 364.33 604.78 358.28 600.78 352.19 596.86 345.9 593.29 339.65 589.64 333.82 585.34 327.39 581.94 321.4 577.89 315.92 573.1 309.68 569.4 304.06 564.83 298.35 560.4 292.9 555.63 287.03 551.4 281.42 546.83 276.15 541.83 278.16 549.08 278.36 556.56 278.01 564.03 276.45 571.35 273.26 578.11 270.34 584.83 274.88 590.25 279.84 595.45 285.08 600.38 290.04 605.59 295.1 610.73 300.79 615.16 306.31 619.78 312.06 624.1 317.44 628.91 323.01 633.49 329.29 637.08 335.18 641.21 341.26 645.05 346.93 649.54 353.1 653.24 359.28 656.94 365.66 660.28 371.81 664.04 378.04 667.66 384.52 670.81 391.13 673.7 397.6 676.85 404.21 679.71 410.73 682.76 417.33 685.63 423.96 688.44 430.85 690.61 437.55 693.24 444.35 695.58 451.1 698.08 457.98 700.18 464.68 702.88 471.78 704.26 478.7 706.21 485.47 708.77 492.48 710.44 499.46 712.22 506.43 714.07 513.63 714.84 520.7 716.2 527.62 718.3 534.69 719.66 541.91 720.16 548.9 722.07 556.1 722.69 563.2 723.91 570.39 724.48 577.5 725.74 584.75 725.7 591.92 726.32 599.11 726.82 606.63 727.92 605.13 720.81 604.43 713.87 604.85 706.9 606.08 700.03 607.32 693.08 610.48 686.77 612.33 677.31"/><polyline class="cls-2" points="261.8 632.07 266.75 637.27 272.12 642.02 277.68 646.55 283.34 650.95 289.05 655.28 294.52 659.9 300.24 664.21 306.01 668.45 311.65 672.87 317.46 677.08 323.6 680.79 329.53 684.81 335.63 688.57 341.84 692.14 347.71 696.27 353.75 700.14 360.37 702.99 366.38 706.93 372.57 710.56 379.02 713.69 385.61 716.55 392.15 719.46 398.31 723.2 405.05 725.69 411.6 728.59 418.29 731.16 424.87 734 431.31 737.21 437.96 739.88 444.72 742.27 451.74 743.92 458.37 746.67 465.24 748.7 472.01 751.07 479 752.71 485.89 754.7 492.83 756.49 499.81 758.12 506.65 760.33 513.7 761.65 520.74 762.95 527.69 764.78 534.7 766.3 541.8 767.35 548.87 768.53 555.97 769.6 563.09 770.52 570.23 771.21 577.39 771.65 584.54 772.18 591.68 772.87 598.84 773.34 606.02 773.34"/><polyline class="cls-2" points="286.79 655.95 283.96 662.77 282.11 669.88 280.36 677.04 278.17 684.05 275.67 690.97 273.91 698.12 271.25 704.99 268.93 711.96 266.64 718.95 264.92 726.11 262.85 733.16 260.49 740.13 258.44 747.18 256.4 754.25 253.62 761.08 251.73 768.19 249.92 775.32 247.08 782.15 244.8 789.15"/><polyline class="cls-2" points="322.67 680.37 320.28 687.1 318.71 694.07 316.97 701 314.65 707.75 312.51 714.56 310.48 721.4 308.44 728.24 307.01 735.25 305.26 742.17 303.12 748.98 300.87 755.76 299.29 762.73 297.16 769.54 294.96 776.33 292.79 783.13 291.44 790.17 289.15 796.94 287.26 803.83 284.82 810.56"/><polyline class="cls-2" points="372.07 712.82 369.77 719.46 368.07 726.27 365.89 732.95 364.48 739.85 362.59 746.61 360.03 753.17 357.9 759.86 356.59 766.8 354.44 773.48 352.32 780.17 350.27 786.88 348.34 793.63 346.86 800.52 344.14 807.04 342.59 813.89 340.73 820.67 338.42 827.32 336.35 834.03"/><polyline class="cls-2" points="422.86 733.51 421.43 740.65 419.56 747.68 418.03 754.79 416.69 761.94 414.78 768.96 412.54 775.91 411.69 783.18 409.79 790.21 407.6 797.16 405.96 804.24 404.64 811.4 402.99 818.48 401.14 825.52 400.03 832.73 397.67 839.65 396.06 846.75 394.63 853.89"/><polyline class="cls-2" points="473.49 751.31 471.87 758.1 471.38 765.08 470.04 771.92 468.32 778.69 467.13 785.55 466.19 792.46 465.63 799.42 463.97 806.21 463.03 813.11 461.63 819.94 460.49 826.81 459.33 833.67 458.46 840.6 456.71 847.37 455.47 854.24"/><polyline class="cls-2" points="523.67 763.78 522.3 770.83 521.79 778 521.04 785.13 520.24 792.25 518.99 799.32 517.85 806.4 517.11 813.53 516.1 820.63 514.86 827.69 514.19 834.84 513.16 841.94 512.94 849.15"/><polyline class="cls-2" points="570.75 771.08 570.65 778.54 570.37 786 569.5 793.42 568.81 800.85 568.88 808.33 568.23 815.77 567.36 823.19 567.31 830.67 566.75 838.12"/><polyline points="217.55 763.7 223.56 767.62 228.89 772.46 234.65 776.72 241.02 780.1 246.67 784.51 252.54 788.61 258.54 792.52 264.99 795.71 270.71 800.08 276.96 803.58 283.21 807.08 289.4 810.68 295.74 814 302.02 817.44 308.36 820.77 314.58 824.34 320.89 827.74 327.33 830.89 333.96 833.61 340.41 836.74 346.86 839.86 353.75 841.97 360.34 844.77 366.87 847.73 373.59 850.2 380.35 852.57 387.07 855.05 393.84 857.37 400.48 860.12 407.49 861.72 414.24 864.16 421.35 865.33 428.1 867.86 435.23 868.89"/><polyline class="cls-2" points="217.55 763.7 223.56 767.62 228.89 772.46 234.65 776.72 241.02 780.1 246.67 784.51 252.54 788.61 258.54 792.52 264.99 795.71 270.71 800.08 276.96 803.58 283.21 807.08 289.4 810.68 295.74 814 302.02 817.44 308.36 820.77 314.58 824.34 320.89 827.74 327.33 830.89 333.96 833.61 340.41 836.74 346.86 839.86 353.75 841.97 360.34 844.77 366.87 847.73 373.59 850.2 380.35 852.57 387.07 855.05 393.84 857.37 400.48 860.12 407.49 861.72 414.24 864.16 421.35 865.33 428.1 867.86 435.23 868.89"/><polygon points="97.6 840.73 104.65 840.64 111.69 839.63 118.72 838.64 125.86 838.73 132.92 837.9 139.95 836.85 147.02 836.18 154.11 835.68 161.19 835.17 168.25 834.38 175.34 833.87 182.45 833.7 189.51 832.87 196.55 831.84 203.67 831.77 210.68 830.36 217.81 830.32 224.9 829.77 231.96 829.04 239.02 828.13 246.1 827.52 253.21 827.26 260.2 825.76 267.28 825.09 274.38 824.7 281.48 824.31 288.57 823.9 295.58 822.46 302.67 821.88 310.01 821.66 303.27 818.66 296.98 815.26 291.04 811.22 284.82 807.7 278.14 805.02 272.05 801.25 265.87 797.66 259.6 794.23 253.31 790.83 246.92 787.63 240.38 784.69 234.03 781.39 227.91 777.69 221.51 774.49 215.38 770.78 209.1 767.29 203.09 771.13 196.6 773.96 190.61 777.66 184.69 781.48 178.76 785.27 172.76 788.96 166.79 792.68 160.86 796.48 154.75 799.99 148.84 803.79 142.91 807.61 137.39 812.01 131.73 816.19 125.92 820.16 120.16 824.21 114.28 828.1 108.82 832.56 103.14 836.74 97.6 840.73"/><polygon class="cls-2" points="97.6 840.73 104.65 840.64 111.69 839.63 118.72 838.64 125.86 838.73 132.92 837.9 139.95 836.85 147.02 836.18 154.11 835.68 161.19 835.17 168.25 834.38 175.34 833.87 182.45 833.7 189.51 832.87 196.55 831.84 203.67 831.77 210.68 830.36 217.81 830.32 224.9 829.77 231.96 829.04 239.02 828.13 246.1 827.52 253.21 827.26 260.2 825.76 267.28 825.09 274.38 824.7 281.48 824.31 288.57 823.9 295.58 822.46 302.67 821.88 310.01 821.66 303.27 818.66 296.98 815.26 291.04 811.22 284.82 807.7 278.14 805.02 272.05 801.25 265.87 797.66 259.6 794.23 253.31 790.83 246.92 787.63 240.38 784.69 234.03 781.39 227.91 777.69 221.51 774.49 215.38 770.78 209.1 767.29 203.09 771.13 196.6 773.96 190.61 777.66 184.69 781.48 178.76 785.27 172.76 788.96 166.79 792.68 160.86 796.48 154.75 799.99 148.84 803.79 142.91 807.61 137.39 812.01 131.73 816.19 125.92 820.16 120.16 824.21 114.28 828.1 108.82 832.56 103.14 836.74 97.6 840.73"/><polyline class="cls-3" points="242.88 708.37 248.88 712.14 254.5 716.52 260.53 720.29 266.47 724.19 272.9 727.28 278.83 731.21 284.96 734.79 291.24 738.11 297.06 742.25 303.7 744.92 309.69 748.78 315.79 752.44 322.14 755.63 328.5 758.82 334.92 761.86 341.31 764.96 347.78 767.9 354.11 771.13 360.63 773.95 367.29 776.47 373.54 779.92 380.07 782.73 386.75 785.2 393.31 787.92 400.26 789.64 406.8 792.43 413.32 795.33 420.18 797.25 427.09 798.95 433.88 801.03 440.69 803.07 447.42 805.42 454.29 807.23 461.2 808.94 468.13 810.55 475.21 811.4 482.25 812.38"/><polyline class="cls-1" points="337.79 217.37 344.1 220.74 351.92 222.03 359.37 224.03 366.58 226.81 373.32 230.56 380.19 234.03 386.84 237.87 393.67 240.53 400.73 242.85 408.17 242.97 415.52 242.45 422.85 241.56 429.82 238.91 434.32 233.1 435.81 226.1 435.88 226.62 436.39 226.63 436.38 219.65 435.44 212.67 435.61 205.7 435.83 198.73 435.99 191.75 435.58 184.78 436.39 177.8 436.41 170.82 435.57 163.84 436.34 156.86 435.58 150.19 428.93 148.73 421.86 148.56 414.8 148.19 407.75 147.7 400.78 146.42 393.73 146.03 386.71 145.2 379.7 144.4 372.66 143.8 365.61 143.41 358.57 142.86 351.58 141.65 344.51 141.38 337.23 140.41 337.24 147.99 337.37 155.31 337.42 162.63 337.6 169.94 337.68 177.26 337.11 184.58 337.57 191.91 337.54 199.23 337.48 206.55 337.91 213.88 337.38 221.21"/><polyline class="cls-4" points="337.79 217.37 344.1 220.74 351.92 222.03 359.37 224.03 366.58 226.81 373.32 230.56 380.19 234.03 386.84 237.87 393.67 240.53 400.73 242.85 408.17 242.97 415.52 242.45 422.85 241.56 429.82 238.91 434.32 233.1 435.81 226.1 435.88 226.62 436.39 226.63 436.38 219.65 435.44 212.67 435.61 205.7 435.83 198.73 435.99 191.75 435.58 184.78 436.39 177.8 436.41 170.82 435.57 163.84 436.34 156.86 435.58 150.19 428.93 148.73 421.86 148.56 414.8 148.19 407.75 147.7 400.78 146.42 393.73 146.03 386.71 145.2 379.7 144.4 372.66 143.8 365.61 143.41 358.57 142.86 351.58 141.65 344.51 141.38 337.23 140.41 337.24 147.99 337.37 155.31 337.42 162.63 337.6 169.94 337.68 177.26 337.11 184.58 337.57 191.91 337.54 199.23 337.48 206.55 337.91 213.88 337.38 221.21"/><polygon class="cls-1" points="337.3 140.45 338.89 133.36 343.8 127.94 350.71 125.29 358.02 124.54 365.36 124.07 372.64 125.07 379.75 126.79 386.69 129.17 393.24 133.19 400.2 136.5 407.16 139.74 414.27 142.55 421.5 145.13 429.48 146.22 436.05 150.1 434.3 157.08 429.28 162.05 422.77 165.41 415.43 166.19 408.05 166.91 400.8 165.37 393.44 164.46 386.92 160.97 379.86 157.87 373.11 154.21 366.5 150.23 359.29 147.51 351.91 145.35 343.94 144.18 337.3 140.45"/><polygon class="cls-4" points="337.3 140.45 338.89 133.36 343.8 127.94 350.71 125.29 358.02 124.54 365.36 124.07 372.64 125.07 379.75 126.79 386.69 129.17 393.24 133.19 400.2 136.5 407.16 139.74 414.27 142.55 421.5 145.13 429.48 146.22 436.05 150.1 434.3 157.08 429.28 162.05 422.77 165.41 415.43 166.19 408.05 166.91 400.8 165.37 393.44 164.46 386.92 160.97 379.86 157.87 373.11 154.21 366.5 150.23 359.29 147.51 351.91 145.35 343.94 144.18 337.3 140.45"/><polygon points="401.11 170.64 400.75 177.65 401.32 184.84 400.49 192.04 401.33 199.25 400.51 206.45 401.35 213.65 400.54 220.85 400.53 228.05 400.59 235.26 401.12 242.05 408.08 239.7 414.91 236.11 421.9 232.88 429.08 230.03 435.56 226.22 436.36 218.98 435.62 211.51 435.73 204.04 435.56 196.56 436.04 189.09 436.18 181.61 436.01 174.13 435.79 166.78 428.89 167.22 421.93 168.36 414.89 168.75 407.92 169.85 401.11 170.64"/><polygon class="cls-2" points="401.11 170.64 400.75 177.65 401.32 184.84 400.49 192.04 401.33 199.25 400.51 206.45 401.35 213.65 400.54 220.85 400.53 228.05 400.59 235.26 401.12 242.05 408.08 239.7 414.91 236.11 421.9 232.88 429.08 230.03 435.56 226.22 436.36 218.98 435.62 211.51 435.73 204.04 435.56 196.56 436.04 189.09 436.18 181.61 436.01 174.13 435.79 166.78 428.89 167.22 421.93 168.36 414.89 168.75 407.92 169.85 401.11 170.64"/><polyline class="cls-4" points="367.5 191.92 360.2 191.85 352.97 192.94 345.96 195.09 338.93 196.94 331.82 198.72 325.27 202 318.76 205.24 311.91 207.96 306.18 212.56 300.42 217.01 294.52 221.33 289.34 226.5 284.27 231.79 280.28 237.93 276.33 244.06 272.14 250.08 269.11 256.74 266.74 263.66 263.52 270.27 261.82 277.4 259.86 284.46 258.85 291.71 257.47 298.9 257.08 306.21 256.45 313.5 256.21 320.63 256.43 327.76 256.86 334.89 258.09 341.93 260.02 348.8 261.78 355.7 263.58 362.61 266.81 369 268.95 375.84 272.9 381.84 276.09 388.2 279.3 394.58 283.18 400.57 287.65 406.14 291.75 411.96 296.1 417.6 300.01 423.6 305.22 428.54 309.24 434.47 314 439.78 318.68 445.15 323.44 450.45 328.66 455.33 333.52 460.55 338.01 466.09 343.36 470.86 348.04 476.24 352.77 481.56 357.17 487.19 362.5 491.98 367.03 497.5 371.87 502.73 376.07 508.51 381.25 513.48 385.25 519.41 389.8 524.9 394.43 530.34 398.11 536.48 402.36 542.2 406.49 548.01 410.43 553.95 414.41 559.88 417.61 566.27"/><polygon points="595 154.43 594.43 154.93 594.47 154.17 594.27 154.08 591.83 155.69 585.01 159.18 578.23 162.79 571.63 166.58 571 173.87 571.34 181.25 571.88 188.62 571.88 195.99 571.5 203.37 571.71 210.74 571.37 218.12 571.9 225.49 571.98 232.86 571.36 240.23 571.79 247.61 571.18 254.98 571.35 262.36 571.4 269.74 571.68 277.12 571.27 284.8 577.33 281.67 582.85 278.23 588.71 275.42 594.35 272.22 594.54 272.69 595 272.45 600.32 268.39 603.21 262.01 604.89 255.21 606.47 248.4 607.86 241.52 608.16 234.5 608.7 227.51 609.72 220.53 609.4 213.5 609.8 206.47 609.53 199.44 608.73 192.45 608.21 185.43 606.49 178.59 605.48 171.63 603.49 164.88 600.53 158.48 595 154.43"/><polygon class="cls-2" points="595 154.43 594.43 154.93 594.47 154.17 594.27 154.08 591.83 155.69 585.01 159.18 578.23 162.79 571.63 166.58 571 173.87 571.34 181.25 571.88 188.62 571.88 195.99 571.5 203.37 571.71 210.74 571.37 218.12 571.9 225.49 571.98 232.86 571.36 240.23 571.79 247.61 571.18 254.98 571.35 262.36 571.4 269.74 571.68 277.12 571.27 284.8 577.33 281.67 582.85 278.23 588.71 275.42 594.35 272.22 594.54 272.69 595 272.45 600.32 268.39 603.21 262.01 604.89 255.21 606.47 248.4 607.86 241.52 608.16 234.5 608.7 227.51 609.72 220.53 609.4 213.5 609.8 206.47 609.53 199.44 608.73 192.45 608.21 185.43 606.49 178.59 605.48 171.63 603.49 164.88 600.53 158.48 595 154.43"/><polygon class="cls-1" points="586.02 225.5 586.86 232.53 586.12 239.54 585.96 246.57 584.8 253.51 583.3 260.37 581.86 267.21 580.65 274.18 577.16 280.3 572 284.3 565.32 282.22 559.29 278.45 553.88 273.85 548.74 268.97 543.86 263.84 539.46 258.27 535.34 252.49 532.18 246.12 529.5 239.53 528.15 232.56 527.5 225.5 527.84 218.4 529.26 211.4 532.65 205.1 535.66 198.71 539.45 192.72 543.51 186.88 548.86 182.16 554.02 177.32 559.56 172.93 565.39 168.9 572 166.76 577 170.81 580.09 177.03 582.54 183.63 583.24 190.65 584.6 197.52 585.65 204.46 585.93 211.47 586.32 218.48 586.02 225.5"/><polygon class="cls-4" points="586.02 225.5 586.86 232.53 586.12 239.54 585.96 246.57 584.8 253.51 583.3 260.37 581.86 267.21 580.65 274.18 577.16 280.3 572 284.3 565.32 282.22 559.29 278.45 553.88 273.85 548.74 268.97 543.86 263.84 539.46 258.27 535.34 252.49 532.18 246.12 529.5 239.53 528.15 232.56 527.5 225.5 527.84 218.4 529.26 211.4 532.65 205.1 535.66 198.71 539.45 192.72 543.51 186.88 548.86 182.16 554.02 177.32 559.56 172.93 565.39 168.9 572 166.76 577 170.81 580.09 177.03 582.54 183.63 583.24 190.65 584.6 197.52 585.65 204.46 585.93 211.47 586.32 218.48 586.02 225.5"/><polyline class="cls-2" points="556.55 225.9 549.55 226.92 542.63 228.44 535.51 229.06 528.7 231.14 521.71 232.47 515.06 235.02 508.25 236.99 501.46 239.07 494.86 241.7 488.43 244.71 481.71 247.05 475.14 249.75 469.18 253.69 462.55 256.38 456.88 260.71 451.1 264.8 444.9 268.37 439.7 273.23 434.56 278.13 430 283.57 425.55 289.08 421.45 294.89 418.6 301.41 415.95 307.95 413.72 314.67 411.95 321.58 411.89 328.7 411.89 335.79 412.79 342.81 413.77 349.82 415.02 356.83 417.6 363.47 420.22 370.21 422.41 377.12 425.26 383.78 428.06 390.46 431.64 396.77 434.49 403.45 438.44 409.55 441.81 415.95 445.67 422.07 449.43 428.25 453.47 434.25 456.88 440.66 460.79 446.75 465.02 452.62 469.25 458.49 473.18 464.57 477.77 470.18 481.93 476.11 486.19 481.96 490.13 488.04 494.87 493.55 498.76 499.67 502.66 505.77 507.06 511.53 511.55 517.23 514.98 523.64 519.2 529.52 522.72 535.85 525.9 542.35 529.2 548.77 532.3 555.29 535.46 561.8 537.93 568.6 539.64 575.63 541 582.72 542.23 589.83 542.35 597.04 542.99 604.28 542.3 611.51 540.7 618.6 538.32 625.44"/><polyline class="cls-4" points="258.38 190.23 253.92 184.72 248.96 179.62 243.75 174.79 238.45 170.02 232.79 165.71 226.79 161.88 220.78 158.06 214.48 154.76 208.32 151.1 201.43 149.09 194.76 146.59 187.77 145.17 180.96 142.93 173.82 142.41 166.76 141.38 159.62 141.31 152.5 141.67 145.34 141.61"/><polyline class="cls-4" points="235.31 237.9 228.82 234.74 221.88 232.71 215.14 229.98 207.94 228.98 200.89 227.37 193.67 226.81 186.46 226.31 179.25 226.82 172.08 227.44 164.99 228.63 157.89 229.98 150.92 232.04 144.35 235.16 138.13 238.92 132.62 243.65"/><polyline class="cls-4" points="220.52 295.44 213.48 294.63 206.34 294.03 199.48 296.06 192.5 297.58 186.38 301.26 180.66 305.52 176.06 310.98 171.63 316.59 168.58 323.06 166.03 329.72 163.64 336.44 162.13 343.43"/><polygon class="cls-2" points="640.58 284.57 643.38 290.96 645.15 297.83 647.59 304.45 650.01 311.11 651.64 318 653.08 324.93 654.08 331.93 654.92 338.94 655.75 345.96 655.71 353.03 655.29 360.07 655 367.12 654.08 374.16 652.18 381.01 649.39 387.56 645.89 393.76 642.17 399.97 639.17 406.68 639.18 414.04 641.52 420.92 645.91 426.77 652.45 430.03 659.44 431.74 666.72 432.54 673.67 430.25 680.25 427.18 685.47 422.12 689.56 416.16 692.29 409.44 694.61 402.69 695.44 395.6 696.16 388.51 695.85 381.39 695.32 374.28 693.84 367.31 692.18 360.37 689.6 353.71 687.04 347.06 683.14 341.05 679.66 334.87 676.66 328.37 672.34 322.7 668.03 317.05 663.73 311.39 659.67 305.53 654.6 300.5 650.33 294.8 645.03 290.01 640.58 284.57"/><polygon points="645.37 393.41 642.64 399.48 640.31 405.6 639.46 411.75 646.43 411.95 653.54 410.41 659.88 406.87 665.59 402.34 669.54 396.19 672.81 389.59 674.47 382.51 675.25 375.29 676 368.07 675.53 360.84 674.99 353.6 673.22 346.57 671.59 339.5 668.86 332.77 666.04 326.09 662.56 319.73 659.46 313.15 655.59 307 651.48 301.01 646.87 295.39 642.54 289.65 644.58 296.44 647.22 303.11 649.09 310.03 650.66 317.02 652.95 323.86 653.86 330.99 655.28 338.04 655.8 345.2 656.12 352.38 655.23 359.53 655.04 366.7 654.18 373.85 651.36 380.5 649.05 387.27 645.37 393.41"/><polygon class="cls-2" points="645.37 393.41 642.64 399.48 640.31 405.6 639.46 411.75 646.43 411.95 653.54 410.41 659.88 406.87 665.59 402.34 669.54 396.19 672.81 389.59 674.47 382.51 675.25 375.29 676 368.07 675.53 360.84 674.99 353.6 673.22 346.57 671.59 339.5 668.86 332.77 666.04 326.09 662.56 319.73 659.46 313.15 655.59 307 651.48 301.01 646.87 295.39 642.54 289.65 644.58 296.44 647.22 303.11 649.09 310.03 650.66 317.02 652.95 323.86 653.86 330.99 655.28 338.04 655.8 345.2 656.12 352.38 655.23 359.53 655.04 366.7 654.18 373.85 651.36 380.5 649.05 387.27 645.37 393.41"/></svg>