<svg id="Layer_1" data-name="Layer 1" xmlns="http://www.w3.org/2000/svg" viewBox="0 0 800 800"><defs><style>.cls-1,.cls-2{fill:none;stroke:#000;stroke-linejoin:bevel;}.cls-1{stroke-width:13px;}.cls-2{stroke-width:7px;}.cls-3{fill:#fff;}</style></defs><title>canvas (71)</title><polyline class="cls-1" points="165.05 602.63 164.76 595.39 165.28 588.16 165.34 580.93 165.24 573.69 165.2 566.46 164.75 559.23 164.57 551.99 165.38 544.76 164.7 537.52 164.72 530.29 164.84 523.05 164.82 515.81 164.92 508.58 164.9 501.34 165.13 494.1 165.04 486.86 164.77 479.63 164.66 472.39 164.44 465.15 165.14 457.91 165.24 450.67 164.8 443.43 164.9 436.19 164.75 428.96 165.38 421.72 165.19 414.47 165.22 407.23 165.34 399.99 164.52 392.74"/><polyline class="cls-1" points="184.79 392.74 184.74 399.97 184.5 407.2 184.43 414.44 184.18 421.67 184.65 428.9 184.57 436.14 184.33 443.37 184.33 450.61 184.1 457.84 184.23 465.08 185 472.32 184.66 479.55 184.93 486.79 184.83 494.02 184.36 501.26 184.47 508.5 184.28 515.74 184.37 522.98 184.25 530.22 184.38 537.46 184.85 544.69 184.81 551.93 184.28 559.17 184.83 566.41 184.53 573.65 184.71 580.89 184.97 588.13 184.78 595.38 184.65 602.63"/><polygon points="196.54 392.63 189.28 392.92 182.02 392.46 174.75 392.83 167.49 392.83 160.22 393.09 152.95 392.96 148.04 387.74 147.82 379.88 152.95 374.63 160.22 374.58 167.48 374.48 174.74 374.71 182.01 375.04 189.27 374.89 196.54 374.89 201.43 379.88 201.13 387.74 196.54 392.63"/><polygon class="cls-1" points="196.54 392.63 189.28 392.92 182.02 392.46 174.75 392.83 167.49 392.83 160.22 393.09 152.95 392.96 148.04 387.74 147.82 379.88 152.95 374.63 160.22 374.58 167.48 374.48 174.74 374.71 182.01 375.04 189.27 374.89 196.54 374.89 201.43 379.88 201.13 387.74 196.54 392.63"/><polygon class="cls-1" points="179.57 373.92 169.92 373.94 165.33 368.99 164.48 359.34 169.92 354.33 179.57 354.28 184.08 359.34 184.22 368.99 179.57 373.92"/><polygon class="cls-1" points="179.57 354.39 169.92 354.36 165.13 349.34 164.59 339.69 169.92 334.87 179.57 334.74 184.34 339.69 184.26 349.34 179.57 354.39"/><polyline class="cls-1" points="164.78 337.3 167.68 330.18 169.49 322.69 170.74 315.04 166.92 309.01 160.84 305.26 155.31 300.89 151.14 295.14 149.53 288.19 148.66 281.1"/><polyline class="cls-1" points="199.42 281.1 198.94 288.17 197.51 295.16 193.14 300.75 188 305.65 182.01 309.48 177.82 315.04 179.43 322.63 180.61 330.28 183.64 337.39"/><polygon class="cls-1" points="273.32 266.47 272.85 264.25 269.48 258 266.22 251.69 262.42 245.69 258.67 239.65 255.48 233.3 251.89 227.18 248.41 220.99 244.83 214.85 240.84 209.12 233.78 209.7 226.37 210.6 219.02 211.86 211.68 213.25 204.25 214.02 196.85 215.09 189.34 214.84 181.94 216.19 174.47 215.74 167.01 215.72 159.6 214.85 152.15 214.46 144.74 213.62 137.31 212.88 129.85 212.41 122.53 210.85 115.18 209.61 107.45 208.4 104.6 215 100.53 220.72 97.28 226.91 94.11 233.15 90.33 239.05 86.43 244.86 83.22 251.08 79.69 257.13 76.61 263.45 74.45 265.92 79.94 270.45 86.75 273.1 93.88 274.81 101.09 276.23 108.4 276.93 115.66 278.07 122.91 279.29 130.25 279.7 137.56 280.44 144.93 280.29 152.27 280.56 159.6 280.9 166.96 280.66 174.3 280.77 181.65 280.91 188.99 280.99 196.34 280.85 203.68 280.53 210.98 279.54 218.35 279.67 225.69 279.26 232.99 278.47 240.32 277.75 247.44 275.75 254.78 275.08 261.82 272.97 268.59 270.27 273.49 265.84 274 265.69 273.32 266.47"/><polyline class="cls-1" points="229.24 210.53 224.79 205.13 220.2 199.86 216.01 194.25 210.95 189.38 207.12 183.47 202.21 178.47 197.88 172.98 193.03 167.91 188.85 162.25 181.25 163.42 173.63 164.42 174.75 164.43 167.06 163.97 159.38 162 154.89 167.51 150.21 172.71 146.02 178.31 141.36 183.52 137.02 189.01 132.43 194.28 128.33 199.97 123.59 205.12 119.28 210.65"/><polyline class="cls-1" points="174.85 337.37 174.79 330.34 174.89 323.31 174.94 316.27 175.18 309.24 174.27 302.21 175.04 295.18 174.91 288.14 174.41 281.1"/><polygon class="cls-1" points="173.94 602.21 181.08 603.13 188.17 603.89 195.24 604.82 202.36 605.89 208.82 609.04 214.83 612.83 220 617.68 222.76 624.07 222.68 630.31 223.14 636.52 229.05 641.13 234.22 646.65 239.91 651.56 246.1 655.89 251.23 661.45 257.49 665.72 263.22 670.59 268.75 675.78 261.44 676.99 254.37 678.72 247.2 679.88 239.94 680.39 232.8 681.85 225.59 682.73 218.31 682.96 211.11 683.9 203.88 684.71 196.63 685.2 189.35 685.02 182.1 685.65 174.83 685.55 173.85 686.09 166.6 685.53 159.35 685.05 152.1 684.74 144.86 684.26 137.61 683.71 130.34 683.41 123.12 682.55 115.91 681.68 108.74 680.44 101.58 679.26 94.3 678.78 87.15 677.55 79.81 675.71 85.74 670.92 91.48 666.06 97.01 660.97 102.87 656.25 108.78 651.6 114.04 646.18 119.86 641.4 125.53 636.52 125.31 630.31 125.2 624.04 129.03 617.94 133.49 612.35 139.67 608.64 146.54 606.56 153.46 604.88 160.44 603.26 167.56 602.39 174.72 602.5 173.94 602.21"/><polygon points="222.62 636.5 216.22 638.59 209.47 640.73 202.4 641.38 195.46 642.65 188.45 643.63 181.36 643.16 174.32 643.57 167.27 643.28 160.24 642.81 153.27 641.79 146.26 641.04 139.22 640.31 132.44 638.31 125.97 636.58 128.69 631.09 131.24 625.37 133.3 619.28 139.5 616 145.16 612.16 150.47 607.77 158.34 608.01 166.19 607.52 174.04 608.05 181.84 608.47 188.62 609.41 195.36 610.79 202.03 612.49 208.85 613.88 213.29 618.3 218.36 621.79 222.77 625.91 222.62 636.5"/><polygon class="cls-1" points="222.62 636.5 216.22 638.59 209.47 640.73 202.4 641.38 195.46 642.65 188.45 643.63 181.36 643.16 174.32 643.57 167.27 643.28 160.24 642.81 153.27 641.79 146.26 641.04 139.22 640.31 132.44 638.31 125.97 636.58 128.69 631.09 131.24 625.37 133.3 619.28 139.5 616 145.16 612.16 150.47 607.77 158.34 608.01 166.19 607.52 174.04 608.05 181.84 608.47 188.62 609.41 195.36 610.79 202.03 612.49 208.85 613.88 213.29 618.3 218.36 621.79 222.77 625.91 222.62 636.5"/><polyline class="cls-2" points="109.16 679.04 114.4 674.66 119.42 670.04 123.89 664.85 129.16 660.48 133.94 655.62 139.28 651.33 144.17 646.56 149.19 641.93"/><polyline class="cls-2" points="150.15 682.87 153.27 676.46 155.76 669.79 158.96 663.43 161.97 656.98 164.58 650.35 167.46 643.84"/><polyline class="cls-2" points="239.89 679.31 235.24 674.3 230.22 669.69 224.99 665.29 220.31 660.31 215.28 655.7 210.12 651.23 204.96 646.74 200.41 641.63"/><polyline class="cls-2" points="198.98 682.94 195.93 676.51 193.15 669.96 190.5 663.37 187.7 656.82 184.62 650.39 182.14 643.71"/><polyline points="169.84 255.32 177.11 255.06 184.38 255.04 191.67 255.15 198.89 253.88 206.14 253.44 213.44 253.38 220.67 252.61 227.82 251.21 235.04 250.36 242.28 249.49 249.36 247.75 256.23 245.33 262.95 242.71"/><polyline class="cls-2" points="169.84 255.32 177.11 255.06 184.38 255.04 191.67 255.15 198.89 253.88 206.14 253.44 213.44 253.38 220.67 252.61 227.82 251.21 235.04 250.36 242.28 249.49 249.36 247.75 256.23 245.33 262.95 242.71"/><polyline points="84.56 245.47 91.47 247.4 98.41 249.28 105.56 250.03 112.66 250.99 119.79 251.75 126.84 253.17 133.96 254.17 141.15 254.19 148.32 254.45 155.49 254.61 162.65 255.41 170.17 255.33 169.65 248.95 170.01 242.63 162.47 242.57 155.13 241.93 147.75 242.3 140.44 241.22 133.06 241.29 125.75 240.32 118.42 239.66 111.1 238.8 103.84 237.51 96.68 235.76 89.72 234.74 86.1 240.87 83.19 247.74 88.42 246.37"/><polyline class="cls-2" points="84.56 245.47 91.47 247.4 98.41 249.28 105.56 250.03 112.66 250.99 119.79 251.75 126.84 253.17 133.96 254.17 141.15 254.19 148.32 254.45 155.49 254.61 162.65 255.41 170.17 255.33 169.65 248.95 170.01 242.63 162.47 242.57 155.13 241.93 147.75 242.3 140.44 241.22 133.06 241.29 125.75 240.32 118.42 239.66 111.1 238.8 103.84 237.51 96.68 235.76 89.72 234.74 86.1 240.87 83.19 247.74 88.42 246.37"/><polyline points="260.71 244.14 258.91 238.02 256.18 232.26 249.19 234.22 242.13 235.95 234.96 237.16 227.75 238.05 220.68 239.99 213.41 240.48 206.15 240.97 198.89 241.34 191.64 241.87 184.38 242.15 177.11 242.23 170.07 242.75 171.06 248.93 171.67 255.27"/><polyline class="cls-2" points="260.71 244.14 258.91 238.02 256.18 232.26 249.19 234.22 242.13 235.95 234.96 237.16 227.75 238.05 220.68 239.99 213.41 240.48 206.15 240.97 198.89 241.34 191.64 241.87 184.38 242.15 177.11 242.23 170.07 242.75 171.06 248.93 171.67 255.27"/><polyline class="cls-2" points="139.41 186.22 146.29 187.53 153.16 189.05 160.12 190.12 167.13 190.97 174.19 191.11 181.2 190.15 188.23 189.97 195.3 189.7 202.24 188.34 208.9 185.95"/><polygon class="cls-1" points="658.12 683.31 651.16 682.31 644.2 679.8 636.94 678.5 629.69 677.14 622.65 674.89 615.5 673.14 608.4 671.17 601.24 669.43 593.99 668.04 586.73 666.35 586.35 659.03 586.58 651.79 587.02 644.54 586.43 637.3 586.59 630.06 586.66 622.81 587.05 615.56 586.38 608.32 586.73 601.07 586.34 593.83 587.02 586.59 587.2 579.34 586.63 572.09 587.17 564.85 587.2 557.6 586.55 550.36 587.22 543.11 586.91 535.86 587.09 528.62 587.04 521.37 586.82 514.13 587.2 506.88 586.45 499.63 586.57 492.38 586.99 485.14 587.31 477.89 587.26 470.64 586.56 463.4 586.57 456.15 587.14 448.9 587.06 441.65 586.38 434.41 587.27 427.16 586.41 419.91 586.72 412.66 587.33 405.42 587.28 398.17 586.44 390.92 587.01 383.67 586.43 376.42 586.44 369.18 587.24 361.94 586.99 354.69 586.56 347.44 586.34 340.2 587.26 332.95 586.65 325.7 587 318.46 586.92 311.21 586.83 303.96 586.9 296.71 587.06 289.47 586.98 282.22 586.34 274.97 587.12 267.72 586.8 260.47 587.02 253.22 587.3 245.97 586.54 238.72 586.55 231.46 587.06 224.22 586.37 216.96 586.71 209.71 587.1 202.46 586.61 195.21 586.4 187.96 587.04 180.7 586.46 173.44 586.71 166.04 594.02 167.79 601.09 169.89 608.24 171.63 615.5 172.96 622.71 174.45 629.69 176.94 636.88 178.54 644.15 179.81 651.13 182.34 658.05 183.88 658.63 190.84 658.59 198.09 658 205.33 658.38 212.57 658.6 219.82 658.65 227.06 658.74 234.31 658.34 241.55 658.71 248.8 658.24 256.04 658.83 263.29 658.48 270.54 658.28 277.78 658.16 285.03 658.86 292.27 658.56 299.52 658.15 306.76 658.12 314.01 658.55 321.26 657.95 328.5 658.33 335.75 658.58 343 658.89 350.24 658.87 357.49 658.37 364.73 658.72 371.98 658.51 379.23 658.28 386.48 658.87 393.72 658.75 400.97 658.7 408.22 657.97 415.46 658.11 422.71 658.48 429.96 658.53 437.21 657.94 444.46 658.07 451.7 658.22 458.95 658.45 466.2 658.53 473.45 658.82 480.69 658.03 487.94 658.73 495.18 658.41 502.43 658.79 509.67 658.44 516.92 658.26 524.17 658.86 531.41 658.57 538.66 658.45 545.91 658 553.16 658.45 560.41 658.91 567.66 658.17 574.9 658.53 582.15 658.67 589.4 658.66 596.66 658.74 603.91 658.15 611.16 658.42 618.41 658.14 625.66 657.98 632.91 658.86 640.16 658.02 647.41 658.81 654.66 658.39 661.92 658.63 669.17 658.75 676.43 658.12 683.31"/><polygon points="484.26 683.64 477.2 681.7 469.96 680.33 462.83 678.46 455.73 676.5 448.51 675 441.27 673.63 434.23 671.42 427.07 669.65 419.83 668.24 412.5 666.45 412.82 659.03 413.19 651.79 412.9 644.54 412.3 637.3 412.32 630.06 412.33 622.81 413.03 615.56 412.76 608.32 413.19 601.07 413.13 593.83 412.33 586.59 412.68 579.34 412.65 572.09 413.09 564.85 413.18 557.6 412.55 550.36 413.06 543.11 412.94 535.86 413.05 528.62 412.43 521.37 412.87 514.13 412.83 506.88 412.47 499.63 413.17 492.38 412.77 485.14 412.74 477.89 412.34 470.64 413.21 463.4 412.56 456.15 412.28 448.9 413.11 441.65 412.8 434.41 412.51 427.16 412.3 419.91 412.27 412.66 413.01 405.42 412.98 398.17 412.58 390.92 412.5 383.67 412.34 376.42 412.97 369.18 413.11 361.94 412.24 354.69 412.27 347.44 412.23 340.2 413.03 332.95 412.7 325.7 412.67 318.46 412.91 311.21 412.91 303.96 412.33 296.71 412.29 289.47 413.13 282.22 412.34 274.97 412.69 267.72 412.29 260.47 412.51 253.22 412.55 245.97 412.57 238.72 413.09 231.46 413.11 224.22 413.09 216.96 412.62 209.71 412.36 202.46 412.69 195.21 413.16 187.96 413.03 180.7 412.59 173.44 412.84 166.34 419.88 167.9 427.01 169.74 434.11 171.69 441.45 172.69 448.47 174.98 455.63 176.74 462.7 178.83 469.85 180.59 477.14 181.83 484.34 183.56 483.82 190.84 484.15 198.09 484.52 205.33 484.01 212.57 484.31 219.82 484.01 227.06 484.6 234.31 484.39 241.55 484.25 248.8 483.98 256.04 484.57 263.29 484.75 270.54 484.29 277.78 483.98 285.03 484.02 292.27 484.34 299.52 484 306.76 484.16 314.01 484.14 321.26 484.4 328.5 484.75 335.75 484.07 343 484.18 350.24 484.02 357.49 484.5 364.73 484.4 371.98 483.88 379.23 484.19 386.48 484.14 393.72 484.61 400.97 484.64 408.22 484.66 415.46 484.54 422.71 484.61 429.96 483.92 437.21 484.17 444.46 483.92 451.7 483.95 458.95 484.77 466.2 484.53 473.45 484.75 480.69 484.56 487.94 483.9 495.18 484.02 502.43 484.79 509.67 484.63 516.92 484.17 524.17 483.83 531.41 484.5 538.66 484.57 545.91 483.85 553.16 483.87 560.41 484.41 567.66 484.65 574.9 484.77 582.15 484.6 589.4 484.57 596.66 484.36 603.91 484.49 611.16 484.34 618.41 483.89 625.66 483.9 632.91 484.56 640.16 484.75 647.41 484.35 654.66 484.04 661.92 484.31 669.17 484.68 676.43 484.26 683.64"/><polygon class="cls-1" points="484.26 683.64 477.2 681.7 469.96 680.33 462.83 678.46 455.73 676.5 448.51 675 441.27 673.63 434.23 671.42 427.07 669.65 419.83 668.24 412.5 666.45 412.82 659.03 413.19 651.79 412.9 644.54 412.3 637.3 412.32 630.06 412.33 622.81 413.03 615.56 412.76 608.32 413.19 601.07 413.13 593.83 412.33 586.59 412.68 579.34 412.65 572.09 413.09 564.85 413.18 557.6 412.55 550.36 413.06 543.11 412.94 535.86 413.05 528.62 412.43 521.37 412.87 514.13 412.83 506.88 412.47 499.63 413.17 492.38 412.77 485.14 412.74 477.89 412.34 470.64 413.21 463.4 412.56 456.15 412.28 448.9 413.11 441.65 412.8 434.41 412.51 427.16 412.3 419.91 412.27 412.66 413.01 405.42 412.98 398.17 412.58 390.92 412.5 383.67 412.34 376.42 412.97 369.18 413.11 361.94 412.24 354.69 412.27 347.44 412.23 340.2 413.03 332.95 412.7 325.7 412.67 318.46 412.91 311.21 412.91 303.96 412.33 296.71 412.29 289.47 413.13 282.22 412.34 274.97 412.69 267.72 412.29 260.47 412.51 253.22 412.55 245.97 412.57 238.72 413.09 231.46 413.11 224.22 413.09 216.96 412.62 209.71 412.36 202.46 412.69 195.21 413.16 187.96 413.03 180.7 412.59 173.44 412.84 166.34 419.88 167.9 427.01 169.74 434.11 171.69 441.45 172.69 448.47 174.98 455.63 176.74 462.7 178.83 469.85 180.59 477.14 181.83 484.34 183.56 483.82 190.84 484.15 198.09 484.52 205.33 484.01 212.57 484.31 219.82 484.01 227.06 484.6 234.31 484.39 241.55 484.25 248.8 483.98 256.04 484.57 263.29 484.75 270.54 484.29 277.78 483.98 285.03 484.02 292.27 484.34 299.52 484 306.76 484.16 314.01 484.14 321.26 484.4 328.5 484.75 335.75 484.07 343 484.18 350.24 484.02 357.49 484.5 364.73 484.4 371.98 483.88 379.23 484.19 386.48 484.14 393.72 484.61 400.97 484.64 408.22 484.66 415.46 484.54 422.71 484.61 429.96 483.92 437.21 484.17 444.46 483.92 451.7 483.95 458.95 484.77 466.2 484.53 473.45 484.75 480.69 484.56 487.94 483.9 495.18 484.02 502.43 484.79 509.67 484.63 516.92 484.17 524.17 483.83 531.41 484.5 538.66 484.57 545.91 483.85 553.16 483.87 560.41 484.41 567.66 484.65 574.9 484.77 582.15 484.6 589.4 484.57 596.66 484.36 603.91 484.49 611.16 484.34 618.41 483.89 625.66 483.9 632.91 484.56 640.16 484.75 647.41 484.35 654.66 484.04 661.92 484.31 669.17 484.68 676.43 484.26 683.64"/><polygon class="cls-1" points="412.99 166.2 419.97 165.74 427.22 165.71 434.47 166.28 441.72 166.26 448.98 166.05 456.23 166.46 463.48 166.09 470.73 166.42 477.99 165.79 485.24 166.35 492.5 166.57 499.75 166.01 507 166.44 514.26 166.51 521.52 165.88 528.77 166.13 536.02 166.54 543.28 165.91 550.53 166.33 557.79 166.34 565.05 165.78 572.31 166.59 579.57 166.07 586.82 166.31 593.95 168.09 601.03 170.13 608.34 171.21 615.49 173.01 622.58 175.02 629.8 176.47 636.98 178.11 644.04 180.25 651.15 182.25 658.23 183.74 658.48 190.84 658.54 198.09 658.25 205.33 658.68 212.57 658.71 219.82 658.64 227.06 657.98 234.31 658.08 241.55 658.23 248.8 658.26 256.04 657.97 263.29 658.84 270.54 658.06 277.78 658.1 285.03 658.83 292.27 658.42 299.52 658.42 306.76 658.36 314.01 658.82 321.26 658.1 328.5 658.46 335.75 658.28 343 658.55 350.24 658.34 357.49 658.21 364.73 658.43 371.98 658.15 379.23 658.64 386.48 658.31 393.72 658.87 400.97 658.76 408.22 658.3 415.46 658.86 422.71 658.89 429.96 658.16 437.21 657.98 444.46 658.28 451.7 658.36 458.95 658.2 466.2 658.51 473.45 658.32 480.69 658.57 487.94 657.95 495.18 658.79 502.43 658.02 509.67 658.41 516.92 658.3 524.17 658.18 531.41 658.04 538.66 658.88 545.91 658.68 553.16 658.39 560.41 657.92 567.66 658.81 574.9 657.95 582.15 658.17 589.4 658.8 596.66 658.61 603.91 658.86 611.16 658.78 618.41 658.11 625.66 658.13 632.91 658.3 640.16 658.51 647.41 658.77 654.66 658.34 661.92 658.72 669.17 658.39 676.43 658.46 683.74 651.16 683.2 643.91 684.06 636.66 683.58 629.4 683.84 622.15 683.79 614.9 684.1 607.65 683.68 600.39 683.19 593.14 683.91 585.89 683.42 578.63 683.72 571.38 683.85 564.12 683.38 556.87 683.91 549.61 683.96 542.36 683.83 535.1 683.3 527.85 684.02 520.6 684.16 513.34 683.55 506.08 683.2 498.82 683.67 491.56 683.67 484.37 683.61 484.36 676.44 483.87 669.2 484.21 661.96 483.91 654.71 484.19 647.47 484.76 640.22 484.52 632.97 484.36 625.73 484.65 618.49 484.64 611.24 484.12 604 484.2 596.75 483.95 589.5 483.87 582.26 484.67 575.01 483.86 567.77 484.54 560.52 484.6 553.27 484.6 546.03 483.95 538.78 484.72 531.54 484.26 524.29 484.01 517.04 483.92 509.8 484.47 502.55 484.4 495.3 484.37 488.05 483.89 480.81 483.85 473.56 484.43 466.31 483.91 459.07 483.82 451.82 484.69 444.57 484.11 437.32 484.37 430.07 483.88 422.83 484.01 415.58 484.35 408.33 484.19 401.08 484.03 393.83 484.05 386.59 484.27 379.35 484.75 372.1 484.76 364.86 484.1 357.61 483.92 350.37 484.75 343.12 484 335.87 484.14 328.62 484.78 321.37 484.25 314.13 484.1 306.88 484.57 299.63 484.3 292.38 484.64 285.13 483.89 277.88 484.79 270.63 484.69 263.38 483.91 256.13 483.82 248.87 484.15 241.63 484.15 234.38 484.48 227.13 484.08 219.87 483.94 212.62 483.84 205.37 484.16 198.11 484.69 190.85 483.98 183.85 477.24 181.46 469.97 180.19 462.91 178.06 455.59 176.98 448.55 174.78 441.37 173.11 434.3 171.03 427.13 169.32 419.99 167.51 412.99 166.2"/><polygon class="cls-3" points="484.28 183.74 491.55 183.18 498.8 183.79 506.05 183.6 513.3 183.53 520.55 183.19 527.81 183.33 535.06 183.2 542.31 183.23 549.57 183.46 556.82 183.58 564.08 183.92 571.33 183.5 578.58 183.46 585.84 183.6 593.1 183.32 600.35 183.61 607.6 183.17 614.86 183.14 622.11 183.54 629.37 183.98 636.63 184.05 643.89 183.57 651.15 184.07 658.4 183.6 651.31 181.62 644.03 180.41 636.91 178.5 629.88 176.27 622.56 175.18 615.43 173.34 608.37 171.2 601.1 169.92 593.91 168.28 586.82 166.28 579.58 165.77 572.33 166.27 565.08 165.94 557.83 166.31 550.57 166.12 543.32 165.74 536.07 165.89 528.82 166.67 521.56 165.97 514.31 166.33 507.05 166.19 499.8 166.45 492.54 166.52 485.29 165.97 478.03 166.11 470.78 165.75 463.52 166.21 456.27 166.19 449.01 166.08 441.76 165.69 434.5 166.18 427.24 165.72 419.98 165.77 412.52 166.17 419.84 168.09 427.12 169.28 434.25 171.12 441.46 172.67 448.49 174.91 455.75 176.25 462.9 178 469.88 180.45 477.23 181.48 484.28 183.74"/><polygon class="cls-1" points="484.28 183.74 491.55 183.18 498.8 183.79 506.05 183.6 513.3 183.53 520.55 183.19 527.81 183.33 535.06 183.2 542.31 183.23 549.57 183.46 556.82 183.58 564.08 183.92 571.33 183.5 578.58 183.46 585.84 183.6 593.1 183.32 600.35 183.61 607.6 183.17 614.86 183.14 622.11 183.54 629.37 183.98 636.63 184.05 643.89 183.57 651.15 184.07 658.4 183.6 651.31 181.62 644.03 180.41 636.91 178.5 629.88 176.27 622.56 175.18 615.43 173.34 608.37 171.2 601.1 169.92 593.91 168.28 586.82 166.28 579.58 165.77 572.33 166.27 565.08 165.94 557.83 166.31 550.57 166.12 543.32 165.74 536.07 165.89 528.82 166.67 521.56 165.97 514.31 166.33 507.05 166.19 499.8 166.45 492.54 166.52 485.29 165.97 478.03 166.11 470.78 165.75 463.52 166.21 456.27 166.19 449.01 166.08 441.76 165.69 434.5 166.18 427.24 165.72 419.98 165.77 412.52 166.17 419.84 168.09 427.12 169.28 434.25 171.12 441.46 172.67 448.49 174.91 455.75 176.25 462.9 178 469.88 180.45 477.23 181.48 484.28 183.74"/><polygon class="cls-3" points="484.52 183.82 491.55 183.86 498.8 183.35 506.05 183.16 513.3 183.7 520.55 183.52 527.81 183.85 535.06 183.62 542.31 183.91 549.57 183.54 556.82 183.84 564.08 183.32 571.33 183.73 578.58 183.22 585.84 183.85 593.1 183.24 600.35 183.32 607.6 183.88 614.86 184.08 622.11 183.17 629.37 183.74 636.63 183.68 643.89 183.72 651.15 183.27 658.47 183.53 658.35 190.84 658.25 198.09 658.53 205.33 658.02 212.57 657.94 219.82 657.95 227.06 658.36 234.31 657.98 241.55 658.07 248.8 658.69 256.04 658.87 263.29 658.88 270.54 658.13 277.78 658.57 285.03 658.57 292.27 658.42 299.52 658.06 306.76 658.14 314.01 658.33 321.26 658.19 328.5 658.18 335.75 658.36 343 658.24 350.24 658.62 357.49 658.15 364.73 658.47 371.98 658.4 379.23 658.19 386.48 658.53 393.72 658.89 400.97 658.41 408.22 658.12 415.46 658.65 422.71 658.88 429.96 658.44 437.21 658.63 444.46 658.17 451.7 658.13 458.95 658.63 466.2 658.11 473.45 658.85 480.69 658.78 487.94 658.52 495.18 657.99 502.43 658.24 509.67 658.24 516.92 658.45 524.17 657.97 531.41 658.6 538.66 658.34 545.91 658.49 553.16 658.26 560.41 658.72 567.66 657.93 574.9 657.99 582.15 658.39 589.4 658.12 596.66 658.72 603.91 658.12 611.16 658.45 618.41 658.23 625.66 658.4 632.91 658.68 640.16 658.15 647.41 658.87 654.66 658.79 661.92 658.42 669.17 658.65 676.43 658.1 683.38 651.16 683.3 643.91 683.42 636.66 683.78 629.4 683.79 622.15 683.91 614.9 683.28 607.65 684 600.39 684.09 593.14 683.79 585.89 683.35 578.63 683.5 571.38 683.38 564.12 683.81 556.87 683.93 549.61 683.97 542.36 683.75 535.1 684.13 527.85 683.71 520.6 683.49 513.34 683.54 506.08 683.98 498.82 683.26 491.56 683.89 484.01 683.97 483.97 676.44 484.08 669.2 483.91 661.96 484.04 654.71 484.15 647.47 484.5 640.22 484.49 632.97 484.39 625.73 484.01 618.49 483.87 611.24 484.1 604 484.27 596.75 484.09 589.5 484.65 582.26 484.59 575.01 484.07 567.77 483.85 560.52 484.16 553.27 484.6 546.03 483.85 538.78 484.59 531.54 483.88 524.29 484.1 517.04 484.42 509.8 484.43 502.55 484.63 495.3 483.97 488.05 484.65 480.81 484.57 473.56 484.21 466.31 484.56 459.07 484.25 451.82 484.76 444.57 484.36 437.32 484.03 430.07 484.74 422.83 484.29 415.58 484.63 408.33 484.29 401.08 484.75 393.83 484.32 386.59 483.98 379.35 484.46 372.1 484.47 364.86 483.93 357.61 484.74 350.37 484.63 343.12 484.43 335.87 484.78 328.62 484.72 321.37 484.78 314.13 484.27 306.88 484.54 299.63 484.18 292.38 484.68 285.13 483.89 277.88 484.19 270.63 484.31 263.38 484.71 256.13 484.44 248.87 484.33 241.63 484.01 234.38 484.29 227.13 484.59 219.87 484.45 212.62 484.73 205.37 483.9 198.11 484.73 190.86 484.52 183.82"/><polygon class="cls-1" points="484.52 183.82 491.55 183.86 498.8 183.35 506.05 183.16 513.3 183.7 520.55 183.52 527.81 183.85 535.06 183.62 542.31 183.91 549.57 183.54 556.82 183.84 564.08 183.32 571.33 183.73 578.58 183.22 585.84 183.85 593.1 183.24 600.35 183.32 607.6 183.88 614.86 184.08 622.11 183.17 629.37 183.74 636.63 183.68 643.89 183.72 651.15 183.27 658.47 183.53 658.35 190.84 658.25 198.09 658.53 205.33 658.02 212.57 657.94 219.82 657.95 227.06 658.36 234.31 657.98 241.55 658.07 248.8 658.69 256.04 658.87 263.29 658.88 270.54 658.13 277.78 658.57 285.03 658.57 292.27 658.42 299.52 658.06 306.76 658.14 314.01 658.33 321.26 658.19 328.5 658.18 335.75 658.36 343 658.24 350.24 658.62 357.49 658.15 364.73 658.47 371.98 658.4 379.23 658.19 386.48 658.53 393.72 658.89 400.97 658.41 408.22 658.12 415.46 658.65 422.71 658.88 429.96 658.44 437.21 658.63 444.46 658.17 451.7 658.13 458.95 658.63 466.2 658.11 473.45 658.85 480.69 658.78 487.94 658.52 495.18 657.99 502.43 658.24 509.67 658.24 516.92 658.45 524.17 657.97 531.41 658.6 538.66 658.34 545.91 658.49 553.16 658.26 560.41 658.72 567.66 657.93 574.9 657.99 582.15 658.39 589.4 658.12 596.66 658.72 603.91 658.12 611.16 658.45 618.41 658.23 625.66 658.4 632.91 658.68 640.16 658.15 647.41 658.87 654.66 658.79 661.92 658.42 669.17 658.65 676.43 658.1 683.38 651.16 683.3 643.91 683.42 636.66 683.78 629.4 683.79 622.15 683.91 614.9 683.28 607.65 684 600.39 684.09 593.14 683.79 585.89 683.35 578.63 683.5 571.38 683.38 564.12 683.81 556.87 683.93 549.61 683.97 542.36 683.75 535.1 684.13 527.85 683.71 520.6 683.49 513.34 683.54 506.08 683.98 498.82 683.26 491.56 683.89 484.01 683.97 483.97 676.44 484.08 669.2 483.91 661.96 484.04 654.71 484.15 647.47 484.5 640.22 484.49 632.97 484.39 625.73 484.01 618.49 483.87 611.24 484.1 604 484.27 596.75 484.09 589.5 484.65 582.26 484.59 575.01 484.07 567.77 483.85 560.52 484.16 553.27 484.6 546.03 483.85 538.78 484.59 531.54 483.88 524.29 484.1 517.04 484.42 509.8 484.43 502.55 484.63 495.3 483.97 488.05 484.65 480.81 484.57 473.56 484.21 466.31 484.56 459.07 484.25 451.82 484.76 444.57 484.36 437.32 484.03 430.07 484.74 422.83 484.29 415.58 484.63 408.33 484.29 401.08 484.75 393.83 484.32 386.59 483.98 379.35 484.46 372.1 484.47 364.86 483.93 357.61 484.74 350.37 484.63 343.12 484.43 335.87 484.78 328.62 484.72 321.37 484.78 314.13 484.27 306.88 484.54 299.63 484.18 292.38 484.68 285.13 483.89 277.88 484.19 270.63 484.31 263.38 484.71 256.13 484.44 248.87 484.33 241.63 484.01 234.38 484.29 227.13 484.59 219.87 484.45 212.62 484.73 205.37 483.9 198.11 484.73 190.86 484.52 183.82"/><polygon class="cls-1" points="658.85 350.31 651.47 350.09 644.22 350.05 636.98 349.77 629.73 350.38 622.49 350.63 615.24 350.26 607.99 350.36 600.74 349.74 593.49 350 586.24 349.78 578.99 350.19 571.74 349.96 564.49 349.75 557.24 350.48 549.99 349.81 542.74 349.73 535.49 350.06 528.24 350.36 520.99 350.2 513.74 350 506.49 349.74 499.23 349.96 491.98 350.51 484.96 349.94 484.27 342.95 484.58 335.71 484.31 328.48 484.76 321.24 484.31 314.01 485.12 306.77 485.17 299.53 484.94 292.29 484.68 285.06 484.29 277.82 484.66 270.58 484.51 263.34 485.12 256.1 485.02 248.86 484.59 241.62 484.94 234.38 484.35 227.14 484.5 219.91 485.1 212.66 484.46 205.42 485.13 198.18 484.69 190.93 484.6 183.57 491.96 184.02 499.21 184.16 506.46 183.33 513.71 183.38 520.95 184.13 528.2 184.09 535.45 183.37 542.7 183.76 549.94 183.31 557.19 183.44 564.44 183.22 571.69 183.82 578.94 183.84 586.2 183.26 593.45 183.25 600.69 183.82 607.94 183.47 615.19 183.34 622.44 184.04 629.7 184.02 636.95 183.25 644.2 183.23 651.46 183.21 658.51 183.9 658.64 190.92 658.95 198.16 658.53 205.39 658.55 212.63 658.8 219.87 658.46 227.1 659.08 234.34 658.46 241.58 659.02 248.82 658.29 256.06 658.36 263.3 658.3 270.53 659.15 277.77 658.91 285.01 658.81 292.25 658.92 299.49 658.28 306.73 658.81 313.97 658.86 321.21 658.42 328.45 658.89 335.69 658.7 342.94 658.85 350.31"/><polygon class="cls-1" points="658.54 516.51 651.47 516.79 644.22 516.95 636.98 516.63 629.73 517.04 622.49 516.27 615.24 517.01 607.99 516.84 600.74 516.93 593.49 516.89 586.24 517.07 578.99 516.88 571.74 516.3 564.49 516.55 557.24 517.06 549.99 516.22 542.74 517.11 535.49 517.01 528.24 517.04 520.99 517.05 513.74 516.53 506.49 516.34 499.23 516.72 491.98 516.61 484.4 517 484.97 509.45 484.39 502.21 484.27 494.98 485.16 487.74 484.54 480.51 484.87 473.27 484.4 466.03 485.07 458.79 484.4 451.56 484.53 444.32 484.22 437.08 484.55 429.84 484.86 422.6 484.75 415.36 484.97 408.12 484.89 400.88 485.14 393.64 484.25 386.4 485.08 379.16 485.14 371.92 485.09 364.68 484.89 357.43 484.76 350.23 491.96 349.9 499.21 350.07 506.46 350.42 513.71 349.85 520.95 350.67 528.2 349.9 535.45 349.73 542.7 350.08 549.94 349.88 557.19 350.17 564.44 350.27 571.69 350.48 578.94 349.83 586.2 350.18 593.45 349.84 600.69 350.33 607.94 349.73 615.19 349.81 622.44 350.48 629.7 350.14 636.95 350.47 644.2 350.24 651.46 350.08 658.86 350.04 659.08 357.42 658.77 364.66 658.96 371.89 659.06 379.13 658.26 386.37 658.76 393.6 658.24 400.84 658.51 408.08 658.88 415.32 659.17 422.56 658.64 429.8 658.82 437.03 658.62 444.27 658.57 451.51 659.16 458.75 658.82 465.99 658.35 473.23 659.19 480.47 658.8 487.71 658.83 494.95 659.09 502.19 658.29 509.44 658.54 516.51"/><polygon class="cls-1" points="659.01 683.48 651.47 683.08 644.22 682.99 636.98 682.83 629.73 683.25 622.49 682.83 615.24 683.19 607.99 682.72 600.74 683.33 593.49 683.53 586.24 683.08 578.99 682.69 571.74 683.38 564.49 683.21 557.24 683.5 549.99 682.93 542.74 683.55 535.49 682.94 528.24 682.77 520.99 683.19 513.74 682.79 506.49 682.9 499.23 683.18 491.98 683.25 484.67 683.24 484.49 675.95 485.08 668.72 484.89 661.48 484.92 654.24 484.46 647.01 485.15 639.77 484.87 632.53 484.35 625.29 484.29 618.06 485 610.82 485.13 603.58 485.17 596.34 484.66 589.1 484.38 581.86 484.6 574.62 484.83 567.38 484.49 560.14 485.17 552.9 485.11 545.66 484.7 538.42 485.18 531.18 484.92 523.93 484.45 516.41 491.96 516.95 499.21 516.3 506.46 517.06 513.71 516.91 520.95 517.08 528.2 516.24 535.45 516.94 542.7 517.09 549.94 516.54 557.19 516.29 564.44 517.01 571.69 517.15 578.94 516.33 586.2 516.44 593.45 516.68 600.69 516.49 607.94 517.01 615.19 517.17 622.44 517.06 629.7 516.61 636.95 516.67 644.2 517.03 651.46 516.95 658.95 516.46 658.83 523.92 658.51 531.16 658.98 538.39 658.22 545.63 658.42 552.87 659.03 560.1 659.08 567.34 658.84 574.58 658.62 581.82 659.03 589.06 658.25 596.29 659 603.53 658.91 610.77 658.25 618.01 658.95 625.25 658.9 632.49 659.06 639.73 658.3 646.97 659.11 654.21 658.44 661.45 658.61 668.69 659 675.93 659.01 683.48"/><polygon class="cls-1" points="525.02 220 524.75 226.68 525.09 233.69 524.91 240.49 531.97 241.09 539.22 240.37 546.47 240.25 553.71 240.68 560.96 240.54 568.21 240.9 575.45 240.95 582.7 240.58 589.96 240.27 597.21 241.08 604.46 240.24 611.94 240.92 611.47 233.69 611.58 226.69 611.61 219.79 604.47 219.59 597.22 219.55 589.97 220.11 582.73 219.3 575.48 220.1 568.23 219.58 560.98 219.73 553.73 220.08 546.48 219.56 539.23 220.17 531.98 219.76 525.02 220"/><polygon class="cls-3" points="531.68 221.64 532.04 228.68 531.58 235.69 531.7 242.7 538.97 243.17 546.22 242.56 553.47 243.15 560.71 242.32 567.96 242.85 575.21 243.05 582.45 243.16 589.7 242.5 596.96 242.9 604.21 242.27 611.46 242.79 618.98 242.96 618.82 235.69 618.58 228.69 618.6 221.81 611.47 222 604.22 222.1 596.97 222.03 589.73 221.19 582.48 221.62 575.23 221.69 567.98 221.88 560.73 221.39 553.48 221.38 546.23 221.73 538.97 221.84 531.68 221.64"/><polygon class="cls-1" points="531.68 221.64 532.04 228.68 531.58 235.69 531.7 242.7 538.97 243.17 546.22 242.56 553.47 243.15 560.71 242.32 567.96 242.85 575.21 243.05 582.45 243.16 589.7 242.5 596.96 242.9 604.21 242.27 611.46 242.79 618.98 242.96 618.82 235.69 618.58 228.69 618.6 221.81 611.47 222 604.22 222.1 596.97 222.03 589.73 221.19 582.48 221.62 575.23 221.69 567.98 221.88 560.73 221.39 553.48 221.38 546.23 221.73 538.97 221.84 531.68 221.64"/><polyline class="cls-2" points="547.72 284.14 554.47 283.57 561.21 283.83 567.96 283.6 574.71 283.39 581.46 284.03 588.21 284.18 594.96 284.11 601.72 283.83"/><polyline class="cls-2" points="547.72 299.49 554.47 299.5 561.21 299.56 567.96 299.65 574.71 300.06 581.46 299.55 588.21 299.4 594.96 299.25 601.72 299.79"/><polyline class="cls-2" points="547.72 316.07 554.47 315.97 561.21 315.29 567.96 315.37 574.71 315.66 581.46 315.74 588.21 315.23 594.96 315.32 601.72 315.42"/><polygon class="cls-1" points="524.96 387.94 524.39 394.68 524.91 401.69 524.64 408.76 531.97 408.51 539.22 408.39 546.47 409.12 553.71 408.47 560.96 408.86 568.21 408.88 575.45 408.91 582.7 408.83 589.96 408.6 597.21 408.5 604.46 408.55 611.76 408.73 611.54 401.69 611.82 394.69 611.71 387.69 604.47 388.09 597.22 387.93 589.97 387.48 582.73 387.94 575.48 387.3 568.23 388.16 560.98 387.58 553.73 387.37 546.48 388.17 539.23 387.51 531.98 387.93 524.96 387.94"/><polygon class="cls-3" points="531.44 389.4 531.23 396.68 531.62 403.69 531.63 410.78 538.97 411.02 546.22 410.23 553.47 410.83 560.71 411.16 567.96 410.63 575.21 410.3 582.45 410.55 589.7 410.44 596.96 410.76 604.21 410.82 611.46 410.25 618.6 410.56 618.35 403.69 618.38 396.69 618.94 389.46 611.47 389.84 604.22 389.44 596.97 390 589.73 389.22 582.48 389.69 575.23 389.48 567.98 389.7 560.73 389.62 553.48 389.35 546.23 390.14 538.98 389.42 531.44 389.4"/><polygon class="cls-1" points="531.44 389.4 531.23 396.68 531.62 403.69 531.63 410.78 538.97 411.02 546.22 410.23 553.47 410.83 560.71 411.16 567.96 410.63 575.21 410.3 582.45 410.55 589.7 410.44 596.96 410.76 604.21 410.82 611.46 410.25 618.6 410.56 618.35 403.69 618.38 396.69 618.94 389.46 611.47 389.84 604.22 389.44 596.97 390 589.73 389.22 582.48 389.69 575.23 389.48 567.98 389.7 560.73 389.62 553.48 389.35 546.23 390.14 538.98 389.42 531.44 389.4"/><polyline class="cls-2" points="547.72 451.98 554.47 452.06 561.21 451.74 567.96 451.51 574.71 451.71 581.46 452.05 588.21 451.63 594.96 451.75 601.72 451.64"/><polyline class="cls-2" points="547.72 467.5 554.47 467.27 561.21 467.55 567.96 467.23 574.71 468.12 581.46 468.08 588.21 467.32 594.96 467.82 601.72 467.72"/><polyline class="cls-2" points="547.72 483.89 554.47 483.87 561.21 484.13 567.96 483.57 574.71 484.05 581.46 483.64 588.21 483.97 594.96 483.38 601.72 483.33"/><polygon class="cls-1" points="524.59 554.55 524.43 561.68 524.67 568.68 524.95 575.45 531.97 575.64 539.22 575.86 546.47 575.22 553.71 576.11 560.96 575.95 568.21 575.61 575.45 575.43 582.7 576.08 589.96 575.52 597.21 576.18 604.46 575.82 611.73 575.7 611.62 568.69 612.05 561.69 611.95 554.45 604.47 554.87 597.22 554.22 589.97 554.86 582.73 554.22 575.48 554.88 568.23 554.93 560.98 554.92 553.73 554.51 546.48 554.62 539.23 554.21 531.97 554.65 524.59 554.55"/><polygon class="cls-3" points="531.43 556.38 532.04 563.68 531.53 570.68 531.75 577.65 538.97 578 546.22 577.63 553.47 577.74 560.71 577.21 567.96 577.56 575.21 577.41 582.45 577.68 589.7 578.06 596.96 577.37 604.21 577.61 611.46 577.76 618.75 577.72 618.26 570.69 618.32 563.69 618.83 556.57 611.47 556.81 604.22 557.15 596.97 557.09 589.73 556.4 582.48 556.3 575.23 556.46 567.98 557.09 560.73 556.53 553.48 556.57 546.23 556.21 538.98 556.26 531.43 556.38"/><polygon class="cls-1" points="531.43 556.38 532.04 563.68 531.53 570.68 531.75 577.65 538.97 578 546.22 577.63 553.47 577.74 560.71 577.21 567.96 577.56 575.21 577.41 582.45 577.68 589.7 578.06 596.96 577.37 604.21 577.61 611.46 577.76 618.75 577.72 618.26 570.69 618.32 563.69 618.83 556.57 611.47 556.81 604.22 557.15 596.97 557.09 589.73 556.4 582.48 556.3 575.23 556.46 567.98 557.09 560.73 556.53 553.48 556.57 546.23 556.21 538.98 556.26 531.43 556.38"/><polyline class="cls-2" points="547.72 618.88 554.47 618.48 561.21 618.51 567.96 619.09 574.71 618.82 581.46 618.34 588.21 618.43 594.96 618.82 601.72 618.54"/><polyline class="cls-2" points="547.72 635.1 554.47 634.64 561.21 635.16 567.96 634.68 574.71 635.12 581.46 635.1 588.21 635.18 594.96 634.54 601.72 635.11"/><polyline class="cls-2" points="547.72 650.34 554.47 650.21 561.21 650.53 567.96 650.32 574.71 650.81 581.46 650.23 588.21 650.51 594.96 651.07 601.72 650.67"/><polyline class="cls-1" points="234.72 646.72 241.43 646.43 248.12 646.2 254.87 646.28 261.51 645.12 268.03 643.47 274.4 641.36 281.03 639.12 287.72 637.05 294.43 635.02 301.25 633.4 307.96 631.38 314.88 630.2 321.78 629.04 328.66 627.85 335.51 626.5 342.43 625.44 349.42 625.16 356.4 625.46 363.14 627.16 362.43 632.32 356.67 636.55 350.59 640.36 344.63 644.42 338.09 647.5 333.06 652.51 337.82 655.59 345.01 655.76 352.2 655.8 359.33 654.64 366.5 654.15 373.66 653.65 380.85 653.32 387.97 652.34 395.17 652.17 402.27 650.96 409.45 650.53 416.62 649.91 423.73 648.8"/><polyline class="cls-1" points="658.63 660.71 665.33 663.57 672.08 666.31 678.79 669.14 685.47 672.07 692.21 674.89 698.22 679.12 704.88 682.16 711.09 686.03 716.79 690.63 721.8 695.94 725.05 702.36 722.93 708.88 717.27 713.31 710.32 715.5 703.31 717.38 696.17 718.83 689.03 720.38 681.69 720.4 674.62 721.22 667.53 721.85 660.43 722.43 653.32 722.88 646.2 722.99 639.07 722.55 631.95 722.57 624.84 722.79 617.72 723.57 610.6 723 603.48 723.18 596.36 723.11 589.26 722.13 582.11 722.79 574.99 722.55 567.88 722.16 560.76 721.87 553.65 721.56 546.56 720.75 539.44 720.58 532.35 719.8 525.25 719.21 518.14 718.73 510.99 719.05 503.92 718.07 496.8 717.83 489.67 717.85 482.59 716.86 475.45 717.28 468.36 716.5 461.24 716.59 454.15 715.59 447.08 715.74 440.02 716.19 432.95 715.95 425.88 716.19 418.85 716.93 411.85 717.96 404.89 719.15 397.96 720.48 391.02 721.74 384.05 722.86 377.19 724.51 370.34 726.21 363.57 728.23 356.91 730.54"/><polyline class="cls-1" points="349.22 721.41 342.78 719.61 336.44 717.45 329.93 715.89"/><polyline class="cls-1" points="346.68 735.71 341.17 738.12 335.55 740.25 330 742.55"/><polyline class="cls-1" points="357.11 744.5 355.25 752.28 352.75 759.92"/></svg>