<svg xmlns="http://www.w3.org/2000/svg" viewBox="0 0 800 800"><defs><style>.a{fill:none;stroke:#000;stroke-linejoin:bevel;stroke-width:13px;}.b{fill:#fff;}</style></defs><title>canvas (38)</title><polygon class="a" points="207.38 709.98 200.5 710.63 193.56 710.06 186.61 710.49 179.66 710.53 172.71 709.91 165.77 710.64 158.82 710.63 151.88 710.42 144.93 710.38 137.98 710.32 131.04 710.48 124.09 710.22 117.13 710.01 109.71 710.33 116.83 707.1 123.58 704.12 130.53 701.6 137.1 698.22 144.17 695.96 150.77 692.63 157.49 689.59 164.05 686.18 170.98 683.59 177.61 680.02 184.67 680.16 191.62 680.49 198.57 681.08 205.51 681.06 212.46 680.37 219.41 680.82 226.35 680.43 233.3 680.18 240.25 680.66 247.19 680.35 254.14 680.92 261.09 681.09 268.04 680.71 275.2 680.56 268.44 683.99 261.62 686.79 254.74 689.49 248.16 692.85 241.11 695.13 234.28 697.94 227.67 701.24 221.06 704.53 214.17 707.22 207.38 709.98"/><polygon points="207.35 655.29 200.5 656.17 193.56 655.7 186.61 656.23 179.66 655.9 172.71 656.15 165.77 655.13 158.82 655.25 151.88 656.1 144.93 655.41 137.98 655.22 131.04 656.14 124.09 655.95 117.13 655.4 109.98 655.74 117.12 653.17 123.5 649.37 130.6 647.19 136.99 643.4 143.99 640.98 150.72 637.95 157.63 635.35 164.19 631.93 171.03 629.12 177.76 626.16 184.67 625.69 191.62 626.33 198.57 626.57 205.51 625.99 212.46 625.89 219.41 626.18 226.35 626.59 233.3 625.68 240.25 625.77 247.19 625.97 254.14 626.34 261.09 626.27 268.04 626.21 275.24 625.98 268.22 628.91 261.39 631.7 254.59 634.58 247.9 637.68 241.04 640.42 234.61 644.13 227.96 647.32 221.12 650.11 214.33 653.04 207.35 655.29"/><polygon class="a" points="207.35 655.29 200.5 656.17 193.56 655.7 186.61 656.23 179.66 655.9 172.71 656.15 165.77 655.13 158.82 655.25 151.88 656.1 144.93 655.41 137.98 655.22 131.04 656.14 124.09 655.95 117.13 655.4 109.98 655.74 117.12 653.17 123.5 649.37 130.6 647.19 136.99 643.4 143.99 640.98 150.72 637.95 157.63 635.35 164.19 631.93 171.03 629.12 177.76 626.16 184.67 625.69 191.62 626.33 198.57 626.57 205.51 625.99 212.46 625.89 219.41 626.18 226.35 626.59 233.3 625.68 240.25 625.77 247.19 625.97 254.14 626.34 261.09 626.27 268.04 626.21 275.24 625.98 268.22 628.91 261.39 631.7 254.59 634.58 247.9 637.68 241.04 640.42 234.61 644.13 227.96 647.32 221.12 650.11 214.33 653.04 207.35 655.29"/><polygon class="b" points="109.4 656.39 109.2 663.25 110.03 670 109.39 676.74 109.51 683.49 109.39 690.24 109.59 696.99 109.85 703.74 109.2 710.81 116.5 710.29 123.49 710.38 130.48 710.59 137.48 710.61 144.48 710.72 151.47 710.69 158.46 710.35 165.46 710.56 172.45 710.06 179.45 710.3 186.44 710.02 193.44 711.08 200.44 710.92 207.35 710.03 214.05 707.27 221.01 704.88 227.35 701.07 234.43 698.92 241.12 695.89 247.44 692.03 254.38 689.58 261.13 686.69 267.78 683.54 274.19 680.36 274.77 673.75 274.9 666.93 274.81 660.12 274.61 653.29 274.12 646.48 275 639.65 274.07 632.83 274.3 626.35 267.95 629.4 261.3 632.54 254.27 634.89 247.88 638.61 240.75 640.72 234.3 644.33 227.48 647.13 220.63 649.87 214.19 653.51 207.5 656.72 200.45 657 193.46 656.19 186.46 656.22 179.47 656.57 172.47 656.22 165.48 655.96 158.49 657.03 151.49 656.05 144.5 656.14 137.5 656.9 130.51 656.78 123.51 656.6 116.5 656.65 109.4 656.39"/><polygon class="a" points="109.4 656.39 109.2 663.25 110.03 670 109.39 676.74 109.51 683.49 109.39 690.24 109.59 696.99 109.85 703.74 109.2 710.81 116.5 710.29 123.49 710.38 130.48 710.59 137.48 710.61 144.48 710.72 151.47 710.69 158.46 710.35 165.46 710.56 172.45 710.06 179.45 710.3 186.44 710.02 193.44 711.08 200.44 710.92 207.35 710.03 214.05 707.27 221.01 704.88 227.35 701.07 234.43 698.92 241.12 695.89 247.44 692.03 254.38 689.58 261.13 686.69 267.78 683.54 274.19 680.36 274.77 673.75 274.9 666.93 274.81 660.12 274.61 653.29 274.12 646.48 275 639.65 274.07 632.83 274.3 626.35 267.95 629.4 261.3 632.54 254.27 634.89 247.88 638.61 240.75 640.72 234.3 644.33 227.48 647.13 220.63 649.87 214.19 653.51 207.5 656.72 200.45 657 193.46 656.19 186.46 656.22 179.47 656.57 172.47 656.22 165.48 655.96 158.49 657.03 151.49 656.05 144.5 656.14 137.5 656.9 130.51 656.78 123.51 656.6 116.5 656.65 109.4 656.39"/><polyline class="b" points="206.64 657 206.86 663.87 206.35 670.74 207.08 677.62 206.07 684.49 206.49 691.36 207.08 698.24 206.88 705.12 206.27 712"/><polyline class="a" points="206.64 657 206.86 663.87 206.35 670.74 207.08 677.62 206.07 684.49 206.49 691.36 207.08 698.24 206.88 705.12 206.27 712"/><polygon class="a" points="635.51 682.59 628.5 682.21 621.56 682.57 614.61 682.63 607.66 681.84 600.71 682.84 593.77 682.12 586.82 682.82 579.88 681.75 572.93 682.85 565.98 682.08 559.04 681.79 552.09 682.56 545.13 682.21 538.66 682.26 544.74 678.9 551.66 676.31 558.42 673.36 564.98 669.93 572.12 667.84 578.74 664.57 585.67 662.01 592.03 658.14 599.08 655.82 605.79 652.87 612.67 652.09 619.62 653.1 626.57 653.17 633.51 652.15 640.46 652.06 647.4 652.91 654.35 652.71 661.3 652.42 668.25 653.11 675.19 652.62 682.14 652.25 689.09 652.48 696.04 652.7 703 652.57 696.15 655.33 689.25 657.97 682.73 661.46 676.17 664.88 669.29 667.55 662.32 670.04 655.85 673.64 649.05 676.51 642.38 679.67 635.51 682.59"/><polygon points="635.56 628.25 628.5 627.45 621.56 627.45 614.61 627.39 607.66 628.17 600.71 628.04 593.77 627.13 586.82 628.29 579.88 628.28 572.93 628.1 565.98 627.94 559.04 627.73 552.09 628.23 545.13 628.13 538.75 627.68 545.15 625.26 551.82 622.1 558.36 618.64 564.97 615.35 571.79 612.53 578.64 609.77 585.56 607.18 592.41 604.41 599.21 601.52 605.85 598.57 612.67 598.27 619.62 597.66 626.57 598.11 633.51 597.77 640.46 598.49 647.4 598.36 654.35 597.5 661.3 597.77 668.25 598.05 675.19 598.49 682.14 597.57 689.09 598.08 696.04 598.33 702.47 598.04 696.16 600.79 689.38 603.69 682.98 607.46 676.15 610.26 669.13 612.61 662.29 615.4 655.82 619 648.87 621.54 642.32 624.98 635.56 628.25"/><polygon class="a" points="635.56 628.25 628.5 627.45 621.56 627.45 614.61 627.39 607.66 628.17 600.71 628.04 593.77 627.13 586.82 628.29 579.88 628.28 572.93 628.1 565.98 627.94 559.04 627.73 552.09 628.23 545.13 628.13 538.75 627.68 545.15 625.26 551.82 622.1 558.36 618.64 564.97 615.35 571.79 612.53 578.64 609.77 585.56 607.18 592.41 604.41 599.21 601.52 605.85 598.57 612.67 598.27 619.62 597.66 626.57 598.11 633.51 597.77 640.46 598.49 647.4 598.36 654.35 597.5 661.3 597.77 668.25 598.05 675.19 598.49 682.14 597.57 689.09 598.08 696.04 598.33 702.47 598.04 696.16 600.79 689.38 603.69 682.98 607.46 676.15 610.26 669.13 612.61 662.29 615.4 655.82 619 648.87 621.54 642.32 624.98 635.56 628.25"/><polygon class="b" points="537.53 628.53 537.85 635.25 537.96 642 538.03 648.74 537.25 655.49 537.81 662.24 537.81 668.99 536.93 675.74 537.89 682.1 544.5 682.07 551.49 682.75 558.48 682.33 565.48 682.09 572.48 682.32 579.47 682.86 586.46 681.94 593.46 682.38 600.45 682.03 607.45 682.37 614.44 682.6 621.44 682.58 628.45 681.95 635.34 681.99 641.91 678.96 648.61 675.97 655.52 673.44 662.12 670.22 668.76 667.08 675.8 664.85 682.29 661.37 689.19 658.81 695.73 655.43 702.17 652.34 702.93 645.75 702.15 638.93 703.05 632.12 702.49 625.29 702.66 618.48 702.49 611.65 702.65 604.83 702.46 598.07 695.57 600.54 689.11 604.14 682.24 606.81 675.52 609.82 668.96 613.2 662.15 616.01 655.38 618.91 648.98 622.62 642.24 625.62 635.44 628.47 628.45 628.83 621.46 628.81 614.46 628.53 607.47 628.23 600.47 628.59 593.48 628.87 586.49 628.29 579.49 628.86 572.5 628.77 565.5 628.35 558.51 628.87 551.51 628 544.5 627.93 537.53 628.53"/><polygon class="a" points="537.53 628.53 537.85 635.25 537.96 642 538.03 648.74 537.25 655.49 537.81 662.24 537.81 668.99 536.93 675.74 537.89 682.1 544.5 682.07 551.49 682.75 558.48 682.33 565.48 682.09 572.48 682.32 579.47 682.86 586.46 681.94 593.46 682.38 600.45 682.03 607.45 682.37 614.44 682.6 621.44 682.58 628.45 681.95 635.34 681.99 641.91 678.96 648.61 675.97 655.52 673.44 662.12 670.22 668.76 667.08 675.8 664.85 682.29 661.37 689.19 658.81 695.73 655.43 702.17 652.34 702.93 645.75 702.15 638.93 703.05 632.12 702.49 625.29 702.66 618.48 702.49 611.65 702.65 604.83 702.46 598.07 695.57 600.54 689.11 604.14 682.24 606.81 675.52 609.82 668.96 613.2 662.15 616.01 655.38 618.91 648.98 622.62 642.24 625.62 635.44 628.47 628.45 628.83 621.46 628.81 614.46 628.53 607.47 628.23 600.47 628.59 593.48 628.87 586.49 628.29 579.49 628.86 572.5 628.77 565.5 628.35 558.51 628.87 551.51 628 544.5 627.93 537.53 628.53"/><polyline class="b" points="634.96 629 634.87 635.87 635.07 642.74 633.99 649.62 634.73 656.49 634.93 663.36 634.86 670.24 634.75 677.12 634.37 684"/><polyline class="a" points="634.96 629 634.87 635.87 635.07 642.74 633.99 649.62 634.73 656.49 634.93 663.36 634.86 670.24 634.75 677.12 634.37 684"/><polygon class="a" points="160.43 396.21 153.5 395.74 146.56 396.69 139.61 396.35 132.66 396.74 125.71 396.28 118.77 396.16 111.82 396 104.88 396.44 97.93 396 90.98 396.27 84.04 396.04 77.09 396.3 70.13 396.43 63.27 396.29 69.81 393.04 76.85 390.73 83.62 387.8 90.4 384.9 96.75 381 103.7 378.47 110.67 376 117.27 372.67 123.85 369.28 130.78 366.83 137.67 366.09 144.62 366.62 151.57 366.35 158.51 366.8 165.46 366.8 172.41 366.29 179.35 366.71 186.3 366.34 193.25 366.31 200.19 367.13 207.14 366.29 214.09 366.07 221.04 366.97 228.09 366.56 221.25 369.56 214.71 372.99 207.93 375.91 200.91 378.26 194.24 381.44 187.35 384.1 180.81 387.54 174.13 390.7 167.21 393.31 160.43 396.21"/><polygon points="160.54 342.14 153.5 341.17 146.56 342.17 139.61 341.9 132.66 342.29 125.71 342.18 118.77 341.81 111.82 342.28 104.88 341.94 97.93 341.4 90.98 341.73 84.04 341.71 77.09 342.25 70.13 341.47 62.98 341.74 70.05 339.03 76.66 335.73 83.3 332.51 90.41 330.34 97.02 327.05 103.86 324.27 110.55 321.15 117.3 318.16 123.79 314.59 130.63 311.54 137.67 312.59 144.62 312.12 151.57 311.5 158.51 312.23 165.46 311.84 172.41 312.53 179.35 311.45 186.3 311.41 193.25 312.04 200.19 311.61 207.14 312.11 214.09 311.9 221.04 311.78 228.06 312 221.06 314.54 214.51 317.98 207.7 320.81 201.19 324.35 194.11 326.57 187.4 329.63 180.9 333.18 173.77 335.32 167.16 338.64 160.54 342.14"/><polygon class="a" points="160.54 342.14 153.5 341.17 146.56 342.17 139.61 341.9 132.66 342.29 125.71 342.18 118.77 341.81 111.82 342.28 104.88 341.94 97.93 341.4 90.98 341.73 84.04 341.71 77.09 342.25 70.13 341.47 62.98 341.74 70.05 339.03 76.66 335.73 83.3 332.51 90.41 330.34 97.02 327.05 103.86 324.27 110.55 321.15 117.3 318.16 123.79 314.59 130.63 311.54 137.67 312.59 144.62 312.12 151.57 311.5 158.51 312.23 165.46 311.84 172.41 312.53 179.35 311.45 186.3 311.41 193.25 312.04 200.19 311.61 207.14 312.11 214.09 311.9 221.04 311.78 228.06 312 221.06 314.54 214.51 317.98 207.7 320.81 201.19 324.35 194.11 326.57 187.4 329.63 180.9 333.18 173.77 335.32 167.16 338.64 160.54 342.14"/><polygon class="b" points="62.89 342.91 63.01 349.25 62.76 356 61.98 362.74 62.73 369.49 61.9 376.24 62.11 382.99 62.88 389.74 62.2 396.81 69.5 396.29 76.49 396.03 83.48 396.62 90.48 396.25 97.48 396.64 104.47 395.93 111.46 396.93 118.46 396.3 125.45 396.78 132.45 396.38 139.44 396.24 146.44 396.94 153.44 396.91 160.47 396.6 167.16 393.52 174.02 390.89 180.65 387.74 187.32 384.68 194.07 381.79 200.59 378.37 207.61 376.1 213.87 372.1 221 370.03 227.49 366.57 227.27 359.75 227.75 352.93 227.4 346.12 227.52 339.3 227.08 332.48 227.28 325.65 227.04 318.83 227.49 312.02 220.63 314.68 213.86 317.59 207.29 320.92 200.88 324.63 193.85 326.95 187.19 330.1 180.7 333.61 173.95 336.57 167.14 339.4 160.32 341.93 153.45 342.6 146.46 342.11 139.46 342.2 132.47 342.57 125.47 342.11 118.48 343.01 111.49 342.08 104.49 342.69 97.5 342.27 90.5 342.48 83.51 342.15 76.51 342.02 69.51 342.76 62.89 342.91"/><polygon class="a" points="62.89 342.91 63.01 349.25 62.76 356 61.98 362.74 62.73 369.49 61.9 376.24 62.11 382.99 62.88 389.74 62.2 396.81 69.5 396.29 76.49 396.03 83.48 396.62 90.48 396.25 97.48 396.64 104.47 395.93 111.46 396.93 118.46 396.3 125.45 396.78 132.45 396.38 139.44 396.24 146.44 396.94 153.44 396.91 160.47 396.6 167.16 393.52 174.02 390.89 180.65 387.74 187.32 384.68 194.07 381.79 200.59 378.37 207.61 376.1 213.87 372.1 221 370.03 227.49 366.57 227.27 359.75 227.75 352.93 227.4 346.12 227.52 339.3 227.08 332.48 227.28 325.65 227.04 318.83 227.49 312.02 220.63 314.68 213.86 317.59 207.29 320.92 200.88 324.63 193.85 326.95 187.19 330.1 180.7 333.61 173.95 336.57 167.14 339.4 160.32 341.93 153.45 342.6 146.46 342.11 139.46 342.2 132.47 342.57 125.47 342.11 118.48 343.01 111.49 342.08 104.49 342.69 97.5 342.27 90.5 342.48 83.51 342.15 76.51 342.02 69.51 342.76 62.89 342.91"/><polyline class="b" points="159.45 343 159.28 349.87 159.83 356.74 159.1 363.62 159.52 370.49 159.21 377.36 159.87 384.24 160.03 391.12 159.48 398"/><polyline class="a" points="159.45 343 159.28 349.87 159.83 356.74 159.1 363.62 159.52 370.49 159.21 377.36 159.87 384.24 160.03 391.12 159.48 398"/><polygon class="a" points="431.49 503.48 424.5 503.26 417.56 503.4 410.61 503.57 403.66 502.86 396.71 503.78 389.77 502.74 382.82 503.89 375.88 503.45 368.93 503.06 361.98 502.98 355.04 503.6 348.09 503.66 341.13 503.36 333.71 503.32 341.09 500.68 347.85 497.73 354.48 494.47 361.19 491.41 368.08 488.75 374.62 485.29 381.47 482.55 388.16 479.42 394.91 476.42 401.65 473.23 408.67 473.49 415.62 473.09 422.57 473.81 429.51 473.13 436.46 472.99 443.4 473.13 450.35 473.75 457.3 474 464.25 473.08 471.19 473.1 478.14 473 485.09 473.58 492.04 473.35 499.17 473.56 492.27 476.59 485.3 479.06 478.85 482.74 471.76 484.94 465.09 488.1 458.26 490.91 451.49 493.82 445.21 497.89 438.05 499.97 431.49 503.48"/><polygon points="431.35 448.26 424.5 449.15 417.56 449.1 410.61 448.63 403.66 448.93 396.71 448.5 389.77 448.97 382.82 449.13 375.88 448.75 368.93 449.06 361.98 448.13 355.04 448.44 348.09 448.15 341.13 448.34 333.88 448.74 341.08 446.1 347.67 442.75 354.31 439.52 361.33 437.16 368.13 434.29 374.54 430.55 381.58 428.22 388.07 424.65 395.05 422.17 401.8 419.32 408.67 419.44 415.62 419.57 422.57 418.75 429.51 419.48 436.46 419.2 443.4 419.47 450.35 418.69 457.3 419.5 464.25 418.71 471.19 419.49 478.14 419.33 485.09 419.31 492.04 419.34 498.96 419 492.2 421.87 485.37 424.66 478.92 428.33 471.96 430.82 465.35 434.12 458.56 437 451.73 439.8 444.81 442.41 438.24 445.82 431.35 448.26"/><polygon class="a" points="431.35 448.26 424.5 449.15 417.56 449.1 410.61 448.63 403.66 448.93 396.71 448.5 389.77 448.97 382.82 449.13 375.88 448.75 368.93 449.06 361.98 448.13 355.04 448.44 348.09 448.15 341.13 448.34 333.88 448.74 341.08 446.1 347.67 442.75 354.31 439.52 361.33 437.16 368.13 434.29 374.54 430.55 381.58 428.22 388.07 424.65 395.05 422.17 401.8 419.32 408.67 419.44 415.62 419.57 422.57 418.75 429.51 419.48 436.46 419.2 443.4 419.47 450.35 418.69 457.3 419.5 464.25 418.71 471.19 419.49 478.14 419.33 485.09 419.31 492.04 419.34 498.96 419 492.2 421.87 485.37 424.66 478.92 428.33 471.96 430.82 465.35 434.12 458.56 437 451.73 439.8 444.81 442.41 438.24 445.82 431.35 448.26"/><polygon class="b" points="333.15 449.13 333.09 456.25 334.06 463 334.06 469.74 333.37 476.49 333.41 483.24 333.11 489.99 333.85 496.74 333.25 503.76 340.5 503.76 347.49 503.61 354.48 503.98 361.48 503.7 368.48 503.31 375.47 502.92 382.46 503.71 389.46 503.95 396.45 503.34 403.45 503.87 410.44 503.74 417.44 503.24 424.44 503.45 431.37 503.13 438.04 500.25 444.86 497.54 451.38 494.12 458.38 491.81 465.06 488.75 471.73 485.7 478.31 482.42 485.09 479.58 491.88 476.77 498.46 473.54 498.36 466.75 498.41 459.93 498.42 453.12 498.73 446.3 498.76 439.48 498.2 432.65 498.57 425.83 498.4 419.19 491.76 421.98 485.21 425.35 478.45 428.28 471.67 431.15 465.1 434.5 458.34 437.43 451.64 440.48 444.8 443.23 438.4 446.97 431.53 449.88 424.45 449.65 417.46 449.99 410.46 449.26 403.47 449.14 396.47 449.56 389.48 449.81 382.49 449.17 375.49 449.16 368.5 448.96 361.5 450.06 354.51 449.69 347.51 449.03 340.51 449.3 333.15 449.13"/><polygon class="a" points="333.15 449.13 333.09 456.25 334.06 463 334.06 469.74 333.37 476.49 333.41 483.24 333.11 489.99 333.85 496.74 333.25 503.76 340.5 503.76 347.49 503.61 354.48 503.98 361.48 503.7 368.48 503.31 375.47 502.92 382.46 503.71 389.46 503.95 396.45 503.34 403.45 503.87 410.44 503.74 417.44 503.24 424.44 503.45 431.37 503.13 438.04 500.25 444.86 497.54 451.38 494.12 458.38 491.81 465.06 488.75 471.73 485.7 478.31 482.42 485.09 479.58 491.88 476.77 498.46 473.54 498.36 466.75 498.41 459.93 498.42 453.12 498.73 446.3 498.76 439.48 498.2 432.65 498.57 425.83 498.4 419.19 491.76 421.98 485.21 425.35 478.45 428.28 471.67 431.15 465.1 434.5 458.34 437.43 451.64 440.48 444.8 443.23 438.4 446.97 431.53 449.88 424.45 449.65 417.46 449.99 410.46 449.26 403.47 449.14 396.47 449.56 389.48 449.81 382.49 449.17 375.49 449.16 368.5 448.96 361.5 450.06 354.51 449.69 347.51 449.03 340.51 449.3 333.15 449.13"/><polyline class="b" points="431.06 450 429.99 456.87 430.69 463.74 430.19 470.62 430.54 477.49 430.05 484.36 430.07 491.24 431.06 498.12 430.09 505"/><polyline class="a" points="431.06 450 429.99 456.87 430.69 463.74 430.19 470.62 430.54 477.49 430.05 484.36 430.07 491.24 431.06 498.12 430.09 505"/><polygon class="a" points="662.37 291.93 655.5 291.99 648.56 292.53 641.61 291.73 634.66 291.98 627.71 292.38 620.77 292.32 613.82 292.4 606.88 292.18 599.93 292.38 592.98 292.4 586.04 292.25 579.09 292.76 572.13 291.86 565.57 292.27 571.95 289.36 578.75 286.5 585.37 283.23 592.22 280.48 598.71 276.92 605.79 274.68 612.69 272.04 619.03 268.13 625.97 265.57 632.76 262.74 639.67 262.18 646.62 262.1 653.57 262.92 660.51 262.65 667.46 263.09 674.4 262.16 681.35 262.29 688.3 262.57 695.25 262.02 702.19 263.13 709.14 262.6 716.09 262.54 723.04 262 729.68 262.59 723.07 265.15 716.62 268.79 709.63 271.22 702.98 274.44 696.34 277.67 689.57 280.61 682.69 283.29 675.81 285.98 669.12 289.1 662.37 291.93"/><polygon points="662.39 237.47 655.5 238.32 648.56 238.12 641.61 238.3 634.66 237.72 627.71 237.91 620.77 237.7 613.82 238.32 606.88 238.2 599.93 237.64 592.98 237.13 586.04 237.68 579.09 237.78 572.13 237.53 564.8 237.75 571.7 234.22 578.67 231.75 585.31 228.52 592.17 225.79 598.78 222.5 605.87 220.3 612.57 217.21 619.28 214.12 625.74 210.47 632.64 207.62 639.67 208.29 646.62 208.26 653.57 208.43 660.51 207.97 667.46 207.54 674.4 208.24 681.35 208.25 688.3 208.51 695.25 207.83 702.19 208.18 709.14 207.58 716.09 207.71 723.04 207.81 729.67 208.02 723.04 210.51 716.46 213.85 709.65 216.7 703 219.9 696.09 222.52 689.4 225.65 682.68 228.68 675.93 231.69 669.13 234.54 662.39 237.47"/><polygon class="a" points="662.39 237.47 655.5 238.32 648.56 238.12 641.61 238.3 634.66 237.72 627.71 237.91 620.77 237.7 613.82 238.32 606.88 238.2 599.93 237.64 592.98 237.13 586.04 237.68 579.09 237.78 572.13 237.53 564.8 237.75 571.7 234.22 578.67 231.75 585.31 228.52 592.17 225.79 598.78 222.5 605.87 220.3 612.57 217.21 619.28 214.12 625.74 210.47 632.64 207.62 639.67 208.29 646.62 208.26 653.57 208.43 660.51 207.97 667.46 207.54 674.4 208.24 681.35 208.25 688.3 208.51 695.25 207.83 702.19 208.18 709.14 207.58 716.09 207.71 723.04 207.81 729.67 208.02 723.04 210.51 716.46 213.85 709.65 216.7 703 219.9 696.09 222.52 689.4 225.65 682.68 228.68 675.93 231.69 669.13 234.54 662.39 237.47"/><polygon class="b" points="564.14 238.13 564.35 245.25 564.56 252 564.59 258.74 564.11 265.49 564.47 272.24 564.47 278.99 564.38 285.74 564.47 292.54 571.5 292.69 578.49 292.04 585.48 292.73 592.48 292.92 599.48 292.54 606.47 292.38 613.46 292.42 620.46 291.92 627.45 292.78 634.45 292.71 641.44 292.55 648.44 292.38 655.45 292.17 662.34 292.01 668.98 289.12 675.98 286.8 682.45 283.29 689.41 280.87 696 277.63 702.8 274.84 709.61 272.1 715.84 268.04 722.73 265.44 729.8 262.77 730.09 255.75 729.42 248.93 729.99 242.12 729.22 235.29 729.54 228.48 729.34 221.66 729.39 214.83 729.57 207.87 722.81 211.09 716.15 214.22 709.25 216.83 702.69 220.2 696.12 223.54 689.26 226.26 682.8 229.83 675.73 232.09 669.21 235.55 662.35 238.07 655.45 238.24 648.46 238.62 641.46 239.1 634.47 238.31 627.47 237.98 620.48 238.59 613.49 239.06 606.49 238.13 599.5 238.04 592.5 238.79 585.51 238.57 578.51 238.06 571.49 239 564.14 238.13"/><polygon class="a" points="564.14 238.13 564.35 245.25 564.56 252 564.59 258.74 564.11 265.49 564.47 272.24 564.47 278.99 564.38 285.74 564.47 292.54 571.5 292.69 578.49 292.04 585.48 292.73 592.48 292.92 599.48 292.54 606.47 292.38 613.46 292.42 620.46 291.92 627.45 292.78 634.45 292.71 641.44 292.55 648.44 292.38 655.45 292.17 662.34 292.01 668.98 289.12 675.98 286.8 682.45 283.29 689.41 280.87 696 277.63 702.8 274.84 709.61 272.1 715.84 268.04 722.73 265.44 729.8 262.77 730.09 255.75 729.42 248.93 729.99 242.12 729.22 235.29 729.54 228.48 729.34 221.66 729.39 214.83 729.57 207.87 722.81 211.09 716.15 214.22 709.25 216.83 702.69 220.2 696.12 223.54 689.26 226.26 682.8 229.83 675.73 232.09 669.21 235.55 662.35 238.07 655.45 238.24 648.46 238.62 641.46 239.1 634.47 238.31 627.47 237.98 620.48 238.59 613.49 239.06 606.49 238.13 599.5 238.04 592.5 238.79 585.51 238.57 578.51 238.06 571.49 239 564.14 238.13"/><polyline class="b" points="661.41 239 661.46 245.87 662.02 252.74 661.49 259.62 661.79 266.49 661.16 273.36 662.02 280.24 662.05 287.12 661.93 294"/><polyline class="a" points="661.41 239 661.46 245.87 662.02 252.74 661.49 259.62 661.79 266.49 661.16 273.36 662.02 280.24 662.05 287.12 661.93 294"/><polygon class="a" points="265.47 191.39 258.5 190.75 251.56 190.76 244.61 191.85 237.66 190.96 230.71 191.86 223.77 191.03 216.82 190.81 209.88 190.76 202.93 191.67 195.98 190.88 189.04 191 182.09 191.32 175.13 191.42 168.06 191.3 175.04 188.57 181.89 185.84 188.24 181.95 195.2 179.44 201.92 176.4 208.74 173.56 215.48 170.57 221.97 166.99 228.74 164.03 235.8 161.9 242.67 161.97 249.62 161.9 256.57 162.12 263.51 161.59 270.46 162.12 277.4 161.03 284.35 161.47 291.3 162.03 298.25 161.22 305.19 162.17 312.14 161.42 319.09 161.87 326.04 161.01 332.53 161.6 326.11 164.23 319.44 167.38 312.78 170.58 306.08 173.65 299.1 176.13 292.28 178.94 285.78 182.48 278.92 185.22 272.08 188.03 265.47 191.39"/><polygon points="265.41 136.54 258.5 136.31 251.56 137.23 244.61 136.24 237.66 136.69 230.71 136.4 223.77 136.79 216.82 136.79 209.88 136.78 202.93 136.47 195.98 137.14 189.04 136.16 182.09 136.22 175.13 136.99 168.76 136.68 174.79 133.44 181.53 130.45 188.22 127.33 195.21 124.89 202.06 122.14 208.92 119.41 215.35 115.7 222.21 112.98 228.81 109.63 235.74 107.08 242.67 107.01 249.62 107.1 256.57 107.48 263.51 106.61 270.46 107.42 277.4 107.58 284.35 106.67 291.3 107.39 298.25 107.34 305.19 106.9 312.14 107.53 319.09 107.07 326.04 107.4 333.25 106.98 326.33 110.17 319.49 112.92 312.88 116.23 305.78 118.41 299.28 121.96 292.5 124.86 285.55 127.39 278.78 130.33 272.12 133.53 265.41 136.54"/><polygon class="a" points="265.41 136.54 258.5 136.31 251.56 137.23 244.61 136.24 237.66 136.69 230.71 136.4 223.77 136.79 216.82 136.79 209.88 136.78 202.93 136.47 195.98 137.14 189.04 136.16 182.09 136.22 175.13 136.99 168.76 136.68 174.79 133.44 181.53 130.45 188.22 127.33 195.21 124.89 202.06 122.14 208.92 119.41 215.35 115.7 222.21 112.98 228.81 109.63 235.74 107.08 242.67 107.01 249.62 107.1 256.57 107.48 263.51 106.61 270.46 107.42 277.4 107.58 284.35 106.67 291.3 107.39 298.25 107.34 305.19 106.9 312.14 107.53 319.09 107.07 326.04 107.4 333.25 106.98 326.33 110.17 319.49 112.92 312.88 116.23 305.78 118.41 299.28 121.96 292.5 124.86 285.55 127.39 278.78 130.33 272.12 133.53 265.41 136.54"/><polygon class="b" points="167.88 137.9 168.01 144.25 167.99 151 167.16 157.74 167.44 164.49 167.17 171.24 167.98 177.99 167.52 184.74 167.53 191.47 174.5 191.6 181.49 190.99 188.48 191.77 195.48 191.61 202.48 191.72 209.47 192.06 216.46 191.56 223.46 191.78 230.45 191.43 237.45 191.96 244.44 191.29 251.44 191.16 258.44 191.87 265.46 191.53 271.94 188.03 278.88 185.59 285.49 182.38 292.39 179.82 299.03 176.69 305.7 173.61 312.28 170.35 319 167.39 326 165.05 332.69 161.7 332.54 154.75 332.45 147.93 331.95 141.12 332.11 134.29 331.95 127.48 332.06 120.66 332.11 113.83 332.51 106.99 325.56 109.54 319.29 113.52 312.37 116.1 305.51 118.81 299.07 122.42 292.37 125.5 285.79 128.81 279.08 131.86 272 134.1 265.46 137.56 258.45 137.11 251.46 137.11 244.46 137.19 237.47 137.03 230.47 137.76 223.48 137.52 216.49 137.46 209.49 137.62 202.5 137.76 195.5 137.72 188.51 137.28 181.51 137.17 174.5 137.22 167.88 137.9"/><polygon class="a" points="167.88 137.9 168.01 144.25 167.99 151 167.16 157.74 167.44 164.49 167.17 171.24 167.98 177.99 167.52 184.74 167.53 191.47 174.5 191.6 181.49 190.99 188.48 191.77 195.48 191.61 202.48 191.72 209.47 192.06 216.46 191.56 223.46 191.78 230.45 191.43 237.45 191.96 244.44 191.29 251.44 191.16 258.44 191.87 265.46 191.53 271.94 188.03 278.88 185.59 285.49 182.38 292.39 179.82 299.03 176.69 305.7 173.61 312.28 170.35 319 167.39 326 165.05 332.69 161.7 332.54 154.75 332.45 147.93 331.95 141.12 332.11 134.29 331.95 127.48 332.06 120.66 332.11 113.83 332.51 106.99 325.56 109.54 319.29 113.52 312.37 116.1 305.51 118.81 299.07 122.42 292.37 125.5 285.79 128.81 279.08 131.86 272 134.1 265.46 137.56 258.45 137.11 251.46 137.11 244.46 137.19 237.47 137.03 230.47 137.76 223.48 137.52 216.49 137.46 209.49 137.62 202.5 137.76 195.5 137.72 188.51 137.28 181.51 137.17 174.5 137.22 167.88 137.9"/><polyline class="b" points="264.34 138 264.51 144.87 264.98 151.74 264.24 158.62 264.59 165.49 264.02 172.36 264.38 179.24 264.72 186.12 264.19 193"/><polyline class="a" points="264.34 138 264.51 144.87 264.98 151.74 264.24 158.62 264.59 165.49 264.02 172.36 264.38 179.24 264.72 186.12 264.19 193"/><polyline class="b" points="377.78 477.25 372.48 482.22 366.85 486.81 361.82 492.09 355.97 496.43 350.53 501.26 344.96 505.93 339.58 510.8 334.27 515.76 328.64 520.37 323.56 525.59 318.19 530.49 312.47 534.98 307.03 539.8 302.01 545.1 296.43 549.75 291.17 554.77 285.28 559.09 280.15 564.26 274.37 568.69 268.63 573.17 263.81 578.7 257.76 582.83 252.32 587.66 246.91 592.51 241.76 597.65 236.54 602.72 231.05 607.49 225.18 611.83 220.18 617.14 214.28 621.46 209.34 626.85 203.63 631.37 198.2 636.22 192.82 641.12"/><polyline class="a" points="377.78 477.25 372.48 482.22 366.85 486.81 361.82 492.09 355.97 496.43 350.53 501.26 344.96 505.93 339.58 510.8 334.27 515.76 328.64 520.37 323.56 525.59 318.19 530.49 312.47 534.98 307.03 539.8 302.01 545.1 296.43 549.75 291.17 554.77 285.28 559.09 280.15 564.26 274.37 568.69 268.63 573.17 263.81 578.7 257.76 582.83 252.32 587.66 246.91 592.51 241.76 597.65 236.54 602.72 231.05 607.49 225.18 611.83 220.18 617.14 214.28 621.46 209.34 626.85 203.63 631.37 198.2 636.22 192.82 641.12"/><polyline class="b" points="192.54 354.4 199.29 356.8 206.21 358.71 212.97 361.07 219.8 363.25 226.49 365.8 233.15 368.45 240.11 370.24 246.82 372.75 253.54 375.23 260.42 377.26 267.04 380.03 274.01 381.79 280.62 384.61 287.64 386.19 294.41 388.56 301.27 390.61 308.01 393.06 314.8 395.34 321.53 397.82 328.4 399.87 334.96 402.86 341.94 404.6 348.81 406.63 355.28 409.88 362.07 412.17 369.04 413.92 375.97 415.81 382.78 418.04 389.34 421.03 396.25 422.94 403.16 424.9 409.88 427.42 416.62 429.92"/><polyline class="a" points="192.54 354.4 199.29 356.8 206.21 358.71 212.97 361.07 219.8 363.25 226.49 365.8 233.15 368.45 240.11 370.24 246.82 372.75 253.54 375.23 260.42 377.26 267.04 380.03 274.01 381.79 280.62 384.61 287.64 386.19 294.41 388.56 301.27 390.61 308.01 393.06 314.8 395.34 321.53 397.82 328.4 399.87 334.96 402.86 341.94 404.6 348.81 406.63 355.28 409.88 362.07 412.17 369.04 413.92 375.97 415.81 382.78 418.04 389.34 421.03 396.25 422.94 403.16 424.9 409.88 427.42 416.62 429.92"/><polyline class="b" points="583.66 657.2 580.27 650.93 577.07 644.55 572.95 638.71 569.02 632.76 566.07 626.24 561.76 620.51 558.89 613.92 554.31 608.37 551.27 601.89 547.87 595.61 543.89 589.69 539.77 583.85 536.45 577.54 532.6 571.54 529.41 565.14 525.5 559.18 522.06 552.93 518.25 546.91 514.54 540.82 510.41 534.98 507.13 528.64 504.09 522.15 499.51 516.59 495.88 510.45 492.54 504.15 489.32 497.77 484.81 492.16 482.01 485.52 477.67 479.81 473.87 473.78 471.08 467.13 466.87 461.33"/><polyline class="a" points="583.66 657.2 580.27 650.93 577.07 644.55 572.95 638.71 569.02 632.76 566.07 626.24 561.76 620.51 558.89 613.92 554.31 608.37 551.27 601.89 547.87 595.61 543.89 589.69 539.77 583.85 536.45 577.54 532.6 571.54 529.41 565.14 525.5 559.18 522.06 552.93 518.25 546.91 514.54 540.82 510.41 534.98 507.13 528.64 504.09 522.15 499.51 516.59 495.88 510.45 492.54 504.15 489.32 497.77 484.81 492.16 482.01 485.52 477.67 479.81 473.87 473.78 471.08 467.13 466.87 461.33"/><polyline class="b" points="300.15 148.85 306.87 151.57 313.57 154.32 320.3 157 327.17 159.32 333.95 161.87 340.56 164.86 347.31 167.51 354.27 169.57 361.01 172.22 367.71 174.99 374.45 177.65 381.22 180.25 388.27 182.07 394.8 185.28 401.71 187.51 408.36 190.4 415.29 192.55 422.08 195.07 428.87 197.59 435.64 200.15 442.54 202.38 449.35 204.86 455.92 207.96 462.77 210.34 469.51 212.97 476.46 215.09 483.24 217.63 489.94 220.39 496.85 222.6 503.52 225.47 510.02 228.76 516.99 230.81 523.91 233 530.37 236.41 537.46 238.16 544.05 241.23 550.79 243.9 557.82 245.79 564.46 248.71 571.13 251.57 577.86 254.27 585.02 255.83 591.8 258.39 598.23 261.89 605.24 263.87 612.03 266.42"/><polyline class="a" points="300.15 148.85 306.87 151.57 313.57 154.32 320.3 157 327.17 159.32 333.95 161.87 340.56 164.86 347.31 167.51 354.27 169.57 361.01 172.22 367.71 174.99 374.45 177.65 381.22 180.25 388.27 182.07 394.8 185.28 401.71 187.51 408.36 190.4 415.29 192.55 422.08 195.07 428.87 197.59 435.64 200.15 442.54 202.38 449.35 204.86 455.92 207.96 462.77 210.34 469.51 212.97 476.46 215.09 483.24 217.63 489.94 220.39 496.85 222.6 503.52 225.47 510.02 228.76 516.99 230.81 523.91 233 530.37 236.41 537.46 238.16 544.05 241.23 550.79 243.9 557.82 245.79 564.46 248.71 571.13 251.57 577.86 254.27 585.02 255.83 591.8 258.39 598.23 261.89 605.24 263.87 612.03 266.42"/><polyline class="b" points="371.2 293.52 377.79 296.41 383.99 300.19 390.96 302.18 397.21 305.83 403.86 308.58 410.78 310.67 417.47 313.31 424.03 316.24 430.56 319.27 437 322.5 443.65 325.21 450.47 327.54 456.67 331.32 463.39 333.87 470.33 335.92 476.68 339.36 483.33 342.08 490.14 344.43 496.56 347.7 503.23 350.39 509.76 353.4 516.3 356.38 523.19 358.56 529.43 362.24 536.2 364.71 542.74 367.71 549.21 370.87 556.07 373.11 562.64 376.04 569.28 378.81 575.8 381.83 582.61 384.21 588.85 387.88 595.93 389.63 602.21 393.22 608.73 396.29 615.7 398.29 622.3 401.13 628.9 404 635.44 407.03 641.81 410.44"/><polyline class="a" points="371.2 293.52 377.79 296.41 383.99 300.19 390.96 302.18 397.21 305.83 403.86 308.58 410.78 310.67 417.47 313.31 424.03 316.24 430.56 319.27 437 322.5 443.65 325.21 450.47 327.54 456.67 331.32 463.39 333.87 470.33 335.92 476.68 339.36 483.33 342.08 490.14 344.43 496.56 347.7 503.23 350.39 509.76 353.4 516.3 356.38 523.19 358.56 529.43 362.24 536.2 364.71 542.74 367.71 549.21 370.87 556.07 373.11 562.64 376.04 569.28 378.81 575.8 381.83 582.61 384.21 588.85 387.88 595.93 389.63 602.21 393.22 608.73 396.29 615.7 398.29 622.3 401.13 628.9 404 635.44 407.03 641.81 410.44"/></svg>