<svg id="Layer_1" data-name="Layer 1" xmlns="http://www.w3.org/2000/svg" viewBox="0 0 800 800"><defs><style>.cls-1{fill:#fff;}.cls-2{fill:none;stroke:#000;stroke-linejoin:bevel;stroke-width:13px;}</style></defs><title>canvas (69)</title><polygon class="cls-1" points="603.88 617.52 603.88 617.37 611.19 615.77 607.11 611.37 600 609.35 592.74 607.91 585.38 607.01 578.08 605.65 570.68 605.09 563.26 604.78 555.9 603.87 548.51 603.23 541.08 603.14 540.88 602.46 534.44 602.4 528.03 601.9 521.77 600.34 515.8 598.13 509.99 594.31 503.43 591.74 496.69 589.67 489.84 587.92 482.81 587.14 475.84 586.12 468.97 584.47 462.01 583.28 454.95 582.9 447.92 582.38 440.92 581.61 433.89 580.99 426.94 579.53 419.89 579.29 412.87 578.55 405.83 577.98 398.8 577.44 391.5 577.78 384.27 576.96 377.03 576.2 369.75 576.45 362.48 576.38 355.22 576.02 347.96 575.91 340.7 575.64 333.45 574.88 326.17 575.37 318.9 575.22 311.64 574.65 304.37 575.07 297.1 574.55 289.83 574.21 282.56 574.43 275.29 574.37 268.03 574.85 260.76 574.97 253.49 574.83 246.21 574.69 238.95 575.53 231.68 575.58 224.41 575.69 217.14 576.02 209.87 576.06 202.6 576.5 195.36 577.16 188.09 577.35 180.82 577.56 173.61 578.6 166.33 578.79 159.09 579.41 151.86 580.1 144.56 580.11 137.37 581.28 130.12 581.87 122.95 583.11 115.71 583.79 108.59 585.28 101.42 586.42 94.26 587.59 93.69 587.44 87.33 589.68 82.42 594.3 80.08 600.47 81.02 607 87.18 608.97 93.97 611.03 100.93 612.41 107.81 614.13 114.87 614.93 121.9 615.82 128.91 616.79 135.97 617.44 142.93 618.89 150 619.39 157.05 620.14 164.09 620.98 171.21 620.91 178.23 622.13 185.34 622.09 192.2 622.38 199.04 623.12 205.89 623.7 212.79 623.2 219.63 623.93 226.51 623.95 233.55 624.67 234.36 627.69 234.1 627.06 227.09 629.33 219.77 630.43 212.95 633.24 206.68 636.94 204.47 642.88 210.3 647.15 217.03 650.05 224.16 651.8 231.17 654.03 238.28 655.93 245.66 656.42 252.84 658.06 260.07 659.34 267.38 660.14 274.7 660.8 281.96 662.02 289.27 662.69 296.62 663 303.87 664.4 311.21 664.89 318.55 665.31 325.91 665.5 333.21 666.56 340.55 667.08 347.69 667.15 354.83 667.5 361.94 668.19 369.06 668.91 376.23 668.37 383.36 668.77 390.48 669.32 397.63 669.46 404.75 670.06 411.91 669.53 419.03 670.17 426.18 670.06 433.32 670.4 440.45 670.99 447.6 671.02 454.75 670.8 461.89 671.06 469.04 670.5 476.19 671 483.33 670.38 490.48 670.87 497.62 670.64 504.77 670.83 511.91 670.2 519.05 670.24 526.19 669.86 533.34 669.71 540.47 669.21 547.64 669.63 554.76 668.96 561.89 668.24 569.06 668.6 576.21 668.44 583.3 667.15 590.43 666.81 597.58 666.62 604.73 666.6 611.84 665.77 618.95 665.13 626.08 664.58 633.23 664.38 640.33 663.58 647.39 662.39 654.48 661.53 661.53 660.42 668.64 659.66 675.72 658.73 682.73 657.39 689.64 655.56 696.65 654.47 703.35 652.18 710.27 650.56 716.49 647.17 719.58 641.7 714.91 637.02 708.76 633.47 701.89 631.64 695.04 629.84 688.03 628.77 681.1 627.42 674.16 626.07 667.22 624.64 660.26 623.25 653.2 622.61 646.14 622.01 639.08 621.42 632.03 620.8 625.08 619.13 617.95 619.33 610.95 618.05 603.88 617.52"/><polygon class="cls-2" points="603.88 617.52 603.88 617.37 611.19 615.77 607.11 611.37 600 609.35 592.74 607.91 585.38 607.01 578.08 605.65 570.68 605.09 563.26 604.78 555.9 603.87 548.51 603.23 541.08 603.14 540.88 602.46 534.44 602.4 528.03 601.9 521.77 600.34 515.8 598.13 509.99 594.31 503.43 591.74 496.69 589.67 489.84 587.92 482.81 587.14 475.84 586.12 468.97 584.47 462.01 583.28 454.95 582.9 447.92 582.38 440.92 581.61 433.89 580.99 426.94 579.53 419.89 579.29 412.87 578.55 405.83 577.98 398.8 577.44 391.5 577.78 384.27 576.96 377.03 576.2 369.75 576.45 362.48 576.38 355.22 576.02 347.96 575.91 340.7 575.64 333.45 574.88 326.17 575.37 318.9 575.22 311.64 574.65 304.37 575.07 297.1 574.55 289.83 574.21 282.56 574.43 275.29 574.37 268.03 574.85 260.76 574.97 253.49 574.83 246.21 574.69 238.95 575.53 231.68 575.58 224.41 575.69 217.14 576.02 209.87 576.06 202.6 576.5 195.36 577.16 188.09 577.35 180.82 577.56 173.61 578.6 166.33 578.79 159.09 579.41 151.86 580.1 144.56 580.11 137.37 581.28 130.12 581.87 122.95 583.11 115.71 583.79 108.59 585.28 101.42 586.42 94.26 587.59 93.69 587.44 87.33 589.68 82.42 594.3 80.08 600.47 81.02 607 87.18 608.97 93.97 611.03 100.93 612.41 107.81 614.13 114.87 614.93 121.9 615.82 128.91 616.79 135.97 617.44 142.93 618.89 150 619.39 157.05 620.14 164.09 620.98 171.21 620.91 178.23 622.13 185.34 622.09 192.2 622.38 199.04 623.12 205.89 623.7 212.79 623.2 219.63 623.93 226.51 623.95 233.55 624.67 234.36 627.69 234.1 627.06 227.09 629.33 219.77 630.43 212.95 633.24 206.68 636.94 204.47 642.88 210.3 647.15 217.03 650.05 224.16 651.8 231.17 654.03 238.28 655.93 245.66 656.42 252.84 658.06 260.07 659.34 267.38 660.14 274.7 660.8 281.96 662.02 289.27 662.69 296.62 663 303.87 664.4 311.21 664.89 318.55 665.31 325.91 665.5 333.21 666.56 340.55 667.08 347.69 667.15 354.83 667.5 361.94 668.19 369.06 668.91 376.23 668.37 383.36 668.77 390.48 669.32 397.63 669.46 404.75 670.06 411.91 669.53 419.03 670.17 426.18 670.06 433.32 670.4 440.45 670.99 447.6 671.02 454.75 670.8 461.89 671.06 469.04 670.5 476.19 671 483.33 670.38 490.48 670.87 497.62 670.64 504.77 670.83 511.91 670.2 519.05 670.24 526.19 669.86 533.34 669.71 540.47 669.21 547.64 669.63 554.76 668.96 561.89 668.24 569.06 668.6 576.21 668.44 583.3 667.15 590.43 666.81 597.58 666.62 604.73 666.6 611.84 665.77 618.95 665.13 626.08 664.58 633.23 664.38 640.33 663.58 647.39 662.39 654.48 661.53 661.53 660.42 668.64 659.66 675.72 658.73 682.73 657.39 689.64 655.56 696.65 654.47 703.35 652.18 710.27 650.56 716.49 647.17 719.58 641.7 714.91 637.02 708.76 633.47 701.89 631.64 695.04 629.84 688.03 628.77 681.1 627.42 674.16 626.07 667.22 624.64 660.26 623.25 653.2 622.61 646.14 622.01 639.08 621.42 632.03 620.8 625.08 619.13 617.95 619.33 610.95 618.05 603.88 617.52"/><polygon points="603.85 644.9 603.95 644.66 611.15 642.71 607.14 638.28 600.12 635.8 592.79 634.61 585.44 633.55 578.04 633 570.63 632.55 563.27 631.76 555.91 630.75 548.54 629.75 541.09 629.96 540.89 629.34 534.45 629.37 528.07 628.57 521.77 627.32 516.02 624.95 510.2 620.85 503.39 618.88 496.56 617.17 489.71 615.56 482.83 614 475.85 613.05 469 611.22 461.94 610.82 455.01 609.36 447.98 608.81 440.91 608.7 433.93 607.63 426.87 607.38 419.89 606.22 412.86 605.66 405.82 605.26 398.77 604.8 391.54 604.05 384.25 604.22 377 603.76 369.76 603.22 362.51 602.54 355.25 602.34 347.96 602.73 340.72 601.79 333.45 601.62 326.18 601.79 318.92 601.41 311.64 601.68 304.37 601.8 297.1 601.48 289.83 601.19 282.57 601.98 275.29 601.29 268.03 601.74 260.76 602.09 253.49 601.84 246.21 601.87 238.93 601.72 231.66 601.95 224.42 603.11 217.13 602.83 209.88 603.45 202.59 603.19 195.33 603.55 188.06 603.76 180.84 604.89 173.56 604.9 166.34 605.9 159.1 606.58 151.8 606.43 144.65 607.99 137.33 607.84 130.18 609.4 122.96 610.17 115.66 610.42 108.58 612.16 101.32 612.85 94.31 614.83 93.73 614.62 87.31 616.66 82.23 621.15 79.93 627.46 80.71 634.15 87.25 635.73 94.09 637.52 100.96 639.26 107.89 640.7 114.8 642.36 121.94 642.58 128.83 644.45 135.97 644.44 142.97 645.52 149.99 646.57 157.04 647.22 164.15 647.28 171.21 647.86 178.23 649.14 185.32 649.37 192.17 649.95 199.06 649.72 205.89 650.75 212.77 650.56 219.64 650.72 226.49 651.58 233.5 651.95 234.18 653.8 234.07 653.87 227.06 656.23 219.97 658.08 212.97 660.28 206.18 663.28 204.5 669.86 210.19 674.38 216.98 677.18 224.14 678.88 231.2 680.87 238.44 682.12 245.63 683.63 252.78 685.39 260.14 685.85 267.36 687.29 274.71 687.7 281.99 688.68 289.24 690.03 296.54 690.88 303.87 691.46 311.25 691.4 318.52 692.76 325.85 693.36 333.2 693.66 340.57 693.72 347.66 694.82 354.83 694.51 361.95 694.94 369.06 695.81 376.21 695.71 383.36 695.82 390.48 696.5 397.62 696.66 404.75 697.02 411.9 696.89 419.02 697.56 426.17 697.6 433.32 696.99 440.46 697.3 447.6 697.88 454.75 697.86 461.89 698.17 469.04 697.79 476.19 697.63 483.33 697.53 490.47 697.1 497.63 697.88 504.77 697.46 511.9 696.86 519.06 697.63 526.18 696.59 533.34 696.97 540.48 696.37 547.62 696.04 554.75 695.59 561.91 695.69 569.07 695.83 576.21 695.45 583.32 694.48 590.48 694.64 597.57 693.5 604.74 693.7 611.8 692.3 618.99 692.51 626.07 691.54 633.22 691.24 640.29 690.17 647.42 689.68 654.44 688.19 661.63 688.12 668.7 687.08 675.75 685.91 682.75 684.49 689.64 682.58 696.64 681.45 703.53 679.77 710.25 677.5 716.3 673.89 719.87 668.62 714.88 664.07 708.78 660.39 702.01 658.23 695.06 656.76 688.12 655.36 681.18 654 674.17 652.96 667.19 651.8 660.22 650.55 653.16 649.93 646.21 648.46 639.16 647.76 632.09 647.23 625 646.91 617.99 645.87 610.9 645.56 603.85 644.9"/><polygon class="cls-2" points="603.85 644.9 603.95 644.66 611.15 642.71 607.14 638.28 600.12 635.8 592.79 634.61 585.44 633.55 578.04 633 570.63 632.55 563.27 631.76 555.91 630.75 548.54 629.75 541.09 629.96 540.89 629.34 534.45 629.37 528.07 628.57 521.77 627.32 516.02 624.95 510.2 620.85 503.39 618.88 496.56 617.17 489.71 615.56 482.83 614 475.85 613.05 469 611.22 461.94 610.82 455.01 609.36 447.98 608.81 440.91 608.7 433.93 607.63 426.87 607.38 419.89 606.22 412.86 605.66 405.82 605.26 398.77 604.8 391.54 604.05 384.25 604.22 377 603.76 369.76 603.22 362.51 602.54 355.25 602.34 347.96 602.73 340.72 601.79 333.45 601.62 326.18 601.79 318.92 601.41 311.64 601.68 304.37 601.8 297.1 601.48 289.83 601.19 282.57 601.98 275.29 601.29 268.03 601.74 260.76 602.09 253.49 601.84 246.21 601.87 238.93 601.72 231.66 601.95 224.42 603.11 217.13 602.83 209.88 603.45 202.59 603.19 195.33 603.55 188.06 603.76 180.84 604.89 173.56 604.9 166.34 605.9 159.1 606.58 151.8 606.43 144.65 607.99 137.33 607.84 130.18 609.4 122.96 610.17 115.66 610.42 108.58 612.16 101.32 612.85 94.31 614.83 93.73 614.62 87.31 616.66 82.23 621.15 79.93 627.46 80.71 634.15 87.25 635.73 94.09 637.52 100.96 639.26 107.89 640.7 114.8 642.36 121.94 642.58 128.83 644.45 135.97 644.44 142.97 645.52 149.99 646.57 157.04 647.22 164.15 647.28 171.21 647.86 178.23 649.14 185.32 649.37 192.17 649.95 199.06 649.72 205.89 650.75 212.77 650.56 219.64 650.72 226.49 651.58 233.5 651.95 234.18 653.8 234.07 653.87 227.06 656.23 219.97 658.08 212.97 660.28 206.18 663.28 204.5 669.86 210.19 674.38 216.98 677.18 224.14 678.88 231.2 680.87 238.44 682.12 245.63 683.63 252.78 685.39 260.14 685.85 267.36 687.29 274.71 687.7 281.99 688.68 289.24 690.03 296.54 690.88 303.87 691.46 311.25 691.4 318.52 692.76 325.85 693.36 333.2 693.66 340.57 693.72 347.66 694.82 354.83 694.51 361.95 694.94 369.06 695.81 376.21 695.71 383.36 695.82 390.48 696.5 397.62 696.66 404.75 697.02 411.9 696.89 419.02 697.56 426.17 697.6 433.32 696.99 440.46 697.3 447.6 697.88 454.75 697.86 461.89 698.17 469.04 697.79 476.19 697.63 483.33 697.53 490.47 697.1 497.63 697.88 504.77 697.46 511.9 696.86 519.06 697.63 526.18 696.59 533.34 696.97 540.48 696.37 547.62 696.04 554.75 695.59 561.91 695.69 569.07 695.83 576.21 695.45 583.32 694.48 590.48 694.64 597.57 693.5 604.74 693.7 611.8 692.3 618.99 692.51 626.07 691.54 633.22 691.24 640.29 690.17 647.42 689.68 654.44 688.19 661.63 688.12 668.7 687.08 675.75 685.91 682.75 684.49 689.64 682.58 696.64 681.45 703.53 679.77 710.25 677.5 716.3 673.89 719.87 668.62 714.88 664.07 708.78 660.39 702.01 658.23 695.06 656.76 688.12 655.36 681.18 654 674.17 652.96 667.19 651.8 660.22 650.55 653.16 649.93 646.21 648.46 639.16 647.76 632.09 647.23 625 646.91 617.99 645.87 610.9 645.56 603.85 644.9"/><polyline points="719.73 644.77 720.11 652.89 719.69 661.01 720.3 669.13"/><polyline class="cls-2" points="719.73 644.77 720.11 652.89 719.69 661.01 720.3 669.13"/><polyline points="80.01 628.02 79.86 621.41 80.11 614.79 80.14 608.17 80.12 601.55"/><polyline class="cls-2" points="80.01 628.02 79.86 621.41 80.11 614.79 80.14 608.17 80.12 601.55"/><polygon class="cls-1" points="720.08 375.19 719.8 368.02 719.65 360.81 718.05 353.76 717.28 346.61 715.43 339.66 713.71 332.68 711.9 325.69 709.23 318.98 706.02 312.52 702.92 306.01 698.82 300.07 695.31 293.77 690.59 288.3 686.45 282.4 681.47 277.19 676.51 271.95 670.73 267.62 665.14 263.09 659.06 259.25 652.88 255.58 646.34 252.6 640 249.18 639.97 249.43 633.09 247.3 626.59 244.13 619.92 241.43 612.86 239.75 606.15 237.15 599.51 234.38 592.93 231.42 586.09 229.18 579.32 226.72 572.61 224.15 566.03 221.19 559.26 218.75 552.37 216.62 545.62 214.12 538.81 211.78 532.16 209.04 525.48 206.36 518.7 203.95 511.79 201.88 505.21 198.92 498.3 196.85 491.79 193.71 484.95 191.46 478.09 189.25 471.38 186.65 464.89 183.45 458.03 181.27 451.29 178.75 444.38 176.68 437.64 174.16 430.95 171.52 424.33 168.69 417.72 165.81 410.88 163.56 404.05 161.28 397.24 158.96 390.45 156.55 384.06 153.1 377.02 151.38 370.51 148.21 363.73 145.81 356.74 143.94 350.32 140.56 343.37 138.59 336.68 135.91 329.97 133.3 323.1 131.14 316.32 128.7 309.72 125.8 302.81 123.72 296.2 120.84 289.33 118.66 282.7 115.81 275.82 113.63 269.21 110.73 262.83 108.1 256.3 105.85 249.55 104.39 242.73 103.39 235.87 102.78 228.99 102.38 222.11 102.77 215.25 103.46 208.52 105 201.49 106.35 194.62 108.37 188.09 111.33 181.45 114 175.24 117.56 168.75 120.63 162.64 124.39 156.83 128.61 151.22 133.1 145.82 137.81 140.77 142.91 135.35 147.63 131.09 153.45 126.52 158.94 121.42 164.03 117.61 170.13 113.6 176.05 109.51 181.93 105.5 187.88 102.66 194.49 98.7 200.51 95.73 207.04 92.99 213.68 90.46 220.38 88.05 227.14 86.37 234.12 84.47 241.02 82.52 247.94 81.39 255.03 80.65 262.16 80.12 269.31 80.33 276.45 80.17 276.74 86.68 279.77 93.41 282.35 100 285.23 106.51 288.32 112.96 291.5 119.86 293.71 126.21 297.13 132.95 299.69 139.35 302.98 145.75 306.31 152.67 308.47 159.18 311.52 165.61 314.77 172.1 317.89 178.75 320.65 185.49 323.2 191.74 326.85 198.37 329.65 205.01 332.43 211.44 335.67 218.3 337.95 224.77 341.12 231.15 344.49 237.63 347.61 244.57 349.71 251 352.95 257.38 356.31 263.99 359.15 270.43 362.37 277.01 365.27 283.9 367.5 290.13 371.18 296.76 373.99 303.56 376.4 310.03 379.56 316.39 382.98 323.27 385.23 329.65 388.59 336.41 391.09 343.03 393.93 349.52 397.04 355.98 400.24 362.42 403.46 368.93 406.55 375.71 409 382.21 412.11 388.69 415.25 395.32 418.06 401.94 420.9 408.68 423.46 414.93 427.13 421.5 430.08 428.28 432.56 434.89 435.44 434.29 435.69 434.76 435.71 441.79 434.58 448.75 433.12 455.72 431.71 462.71 430.39 469.65 428.81 476.55 427.04 483.45 425.32 490.45 424.04 497.37 422.38 504.37 421.08 511.28 419.41 518.38 418.58 525.32 417.04 532.24 415.43 539.24 414.12 546.1 412.21 553.05 410.73 560.03 409.35 567.02 408.04 573.99 406.63 580.84 404.64 587.76 402.96 594.71 401.44 601.84 400.8 608.71 398.88 615.69 397.51 622.62 395.91 629.48 393.95 636.56 393.02 643.55 391.71 650.55 390.38 657.33 388.03 664.42 387.22 671.25 385.11 678.31 384.12 685.34 382.97 692.18 380.9 699.27 380.02 706.14 378.12 713.06 376.4 720.08 375.19"/><polygon class="cls-2" points="720.08 375.19 719.8 368.02 719.65 360.81 718.05 353.76 717.28 346.61 715.43 339.66 713.71 332.68 711.9 325.69 709.23 318.98 706.02 312.52 702.92 306.01 698.82 300.07 695.31 293.77 690.59 288.3 686.45 282.4 681.47 277.19 676.51 271.95 670.73 267.62 665.14 263.09 659.06 259.25 652.88 255.58 646.34 252.6 640 249.18 639.97 249.43 633.09 247.3 626.59 244.13 619.92 241.43 612.86 239.75 606.15 237.15 599.51 234.38 592.93 231.42 586.09 229.18 579.32 226.72 572.61 224.15 566.03 221.19 559.26 218.75 552.37 216.62 545.62 214.12 538.81 211.78 532.16 209.04 525.48 206.36 518.7 203.95 511.79 201.88 505.21 198.92 498.3 196.85 491.79 193.71 484.95 191.46 478.09 189.25 471.38 186.65 464.89 183.45 458.03 181.27 451.29 178.75 444.38 176.68 437.64 174.16 430.95 171.52 424.33 168.69 417.72 165.81 410.88 163.56 404.05 161.28 397.24 158.96 390.45 156.55 384.06 153.1 377.02 151.38 370.51 148.21 363.73 145.81 356.74 143.94 350.32 140.56 343.37 138.59 336.68 135.91 329.97 133.3 323.1 131.14 316.32 128.7 309.72 125.8 302.81 123.72 296.2 120.84 289.33 118.66 282.7 115.81 275.82 113.63 269.21 110.73 262.83 108.1 256.3 105.85 249.55 104.39 242.73 103.39 235.87 102.78 228.99 102.38 222.11 102.77 215.25 103.46 208.52 105 201.49 106.35 194.62 108.37 188.09 111.33 181.45 114 175.24 117.56 168.75 120.63 162.64 124.39 156.83 128.61 151.22 133.1 145.82 137.81 140.77 142.91 135.35 147.63 131.09 153.45 126.52 158.94 121.42 164.03 117.61 170.13 113.6 176.05 109.51 181.93 105.5 187.88 102.66 194.49 98.7 200.51 95.73 207.04 92.99 213.68 90.46 220.38 88.05 227.14 86.37 234.12 84.47 241.02 82.52 247.94 81.39 255.03 80.65 262.16 80.12 269.31 80.33 276.45 80.17 276.74 86.68 279.77 93.41 282.35 100 285.23 106.51 288.32 112.96 291.5 119.86 293.71 126.21 297.13 132.95 299.69 139.35 302.98 145.75 306.31 152.67 308.47 159.18 311.52 165.61 314.77 172.1 317.89 178.75 320.65 185.49 323.2 191.74 326.85 198.37 329.65 205.01 332.43 211.44 335.67 218.3 337.95 224.77 341.12 231.15 344.49 237.63 347.61 244.57 349.71 251 352.95 257.38 356.31 263.99 359.15 270.43 362.37 277.01 365.27 283.9 367.5 290.13 371.18 296.76 373.99 303.56 376.4 310.03 379.56 316.39 382.98 323.27 385.23 329.65 388.59 336.41 391.09 343.03 393.93 349.52 397.04 355.98 400.24 362.42 403.46 368.93 406.55 375.71 409 382.21 412.11 388.69 415.25 395.32 418.06 401.94 420.9 408.68 423.46 414.93 427.13 421.5 430.08 428.28 432.56 434.89 435.44 434.29 435.69 434.76 435.71 441.79 434.58 448.75 433.12 455.72 431.71 462.71 430.39 469.65 428.81 476.55 427.04 483.45 425.32 490.45 424.04 497.37 422.38 504.37 421.08 511.28 419.41 518.38 418.58 525.32 417.04 532.24 415.43 539.24 414.12 546.1 412.21 553.05 410.73 560.03 409.35 567.02 408.04 573.99 406.63 580.84 404.64 587.76 402.96 594.71 401.44 601.84 400.8 608.71 398.88 615.69 397.51 622.62 395.91 629.48 393.95 636.56 393.02 643.55 391.71 650.55 390.38 657.33 388.03 664.42 387.22 671.25 385.11 678.31 384.12 685.34 382.97 692.18 380.9 699.27 380.02 706.14 378.12 713.06 376.4 720.08 375.19"/><polyline class="cls-1" points="577.54 245.36 570.38 246.65 563.51 249 556.63 251.36 550.08 254.49 543.25 257.09 537.21 261.19 530.57 264.27 524.77 268.69 519.1 273.25 513.23 277.55 507.8 282.39 502.37 287.23 497.5 292.64 492.18 297.62 487.1 302.86 483.17 309.04 478.4 314.55 474 320.36 470.12 326.51 466.48 332.81 462.48 338.9 459.1 345.35 456.19 352.03 452.45 358.31 449.72 365.06 447.22 371.9 445.13 378.87 442.41 385.64 440.41 392.64 439.07 399.81 437.69 406.94 436.24 414.08 435.03 421.27 435.36 428.59 435.08 435.85"/><polyline class="cls-2" points="577.54 245.36 570.38 246.65 563.51 249 556.63 251.36 550.08 254.49 543.25 257.09 537.21 261.19 530.57 264.27 524.77 268.69 519.1 273.25 513.23 277.55 507.8 282.39 502.37 287.23 497.5 292.64 492.18 297.62 487.1 302.86 483.17 309.04 478.4 314.55 474 320.36 470.12 326.51 466.48 332.81 462.48 338.9 459.1 345.35 456.19 352.03 452.45 358.31 449.72 365.06 447.22 371.9 445.13 378.87 442.41 385.64 440.41 392.64 439.07 399.81 437.69 406.94 436.24 414.08 435.03 421.27 435.36 428.59 435.08 435.85"/><polyline class="cls-1" points="719.83 375.2 720.32 368.03 719.35 360.92 718.69 353.79 717.1 346.81 715.82 339.77 713.5 332.99 711.32 326.19 708.93 319.46 706.25 312.82 703.13 306.36 699.32 300.29 695.25 294.4 691.21 288.49 686.64 282.99 682 277.52 676.75 272.65 671.59 267.66 665.67 263.61 659.65 259.74 653.52 256.09 647.06 253.06 640.77 249.62 633.95 247.43 627.09 245.4 620.13 243.69 612.97 243.29 605.89 242.05 598.72 242.49 591.6 243.01 584.46 243.49 577.37 244.55"/><polyline class="cls-2" points="719.83 375.2 720.32 368.03 719.35 360.92 718.69 353.79 717.1 346.81 715.82 339.77 713.5 332.99 711.32 326.19 708.93 319.46 706.25 312.82 703.13 306.36 699.32 300.29 695.25 294.4 691.21 288.49 686.64 282.99 682 277.52 676.75 272.65 671.59 267.66 665.67 263.61 659.65 259.74 653.52 256.09 647.06 253.06 640.77 249.62 633.95 247.43 627.09 245.4 620.13 243.69 612.97 243.29 605.89 242.05 598.72 242.49 591.6 243.01 584.46 243.49 577.37 244.55"/><polyline class="cls-1" points="504.8 284.69 511.27 287.73 517.74 290.74 524.57 292.84 531.27 295.27 537.86 298 544.52 300.53 551.12 303.23 557.52 306.41 564.37 308.46 570.98 311.13 577.42 314.21 584.23 316.4 590.67 319.5 597.17 322.44 603.86 324.89 610.45 327.63 617.22 329.89 623.86 332.5 630.38 335.39 636.9 338.3 643.77 340.33 650.33 343.13 656.9 345.88 663.55 348.47 670.08 351.35 676.74 353.89 683.47 356.26 690.02 359.1 696.56 361.96 703.39 364.09 709.9 367.04 716.55 369.64"/><polyline class="cls-2" points="504.8 284.69 511.27 287.73 517.74 290.74 524.57 292.84 531.27 295.27 537.86 298 544.52 300.53 551.12 303.23 557.52 306.41 564.37 308.46 570.98 311.13 577.42 314.21 584.23 316.4 590.67 319.5 597.17 322.44 603.86 324.89 610.45 327.63 617.22 329.89 623.86 332.5 630.38 335.39 636.9 338.3 643.77 340.33 650.33 343.13 656.9 345.88 663.55 348.47 670.08 351.35 676.74 353.89 683.47 356.26 690.02 359.1 696.56 361.96 703.39 364.09 709.9 367.04 716.55 369.64"/><polyline class="cls-2" points="577.44 244.88 570.4 246.69 563.49 248.95 556.67 251.44 550.02 254.37 543.57 257.69 537.02 260.87 530.65 264.39 524.92 268.91 518.66 272.69 513.49 277.86 507.6 282.17 502.15 287 497.35 292.5 492.18 297.62 487.32 303.04 482.62 308.61 478.08 314.31 474.27 320.54 470.06 326.48 466.62 332.9 462.36 338.84 458.65 345.11 455.47 351.68 452.37 358.27 450.29 365.3 446.98 371.81 444.76 378.75 442.25 385.59 440.81 392.75 439.07 399.81 437.47 406.9 436.55 414.12 435.02 421.27 434.98 428.57 435.17 435.85"/><polyline class="cls-2" points="614.35 243.31 606.97 242.66 599.55 242.43 592.16 243.01 584.76 243.63 577.52 245.26"/><polyline class="cls-2" points="503.67 217.09 496.67 218.47 489.74 220.21 483.04 222.72 476.59 225.81 470 228.59 464.08 232.62 458.02 236.36 452.01 240.19 446.23 244.36 440.38 248.47 435.56 253.8 429.72 257.99 425.31 263.67 420.25 268.68 415.31 273.84 410.8 279.37 406.9 285.36 402.73 291.13 398.12 296.62 394.52 302.79 390.77 308.87 387.89 315.42 384.06 321.48 381.5 328.16 378.81 334.75 375.64 341.18 373.44 347.97 370.96 354.68 369.09 361.57 368.17 368.69 366.72 375.66 365.4 382.66 364.02 389.69 364.06 396.85 363.72 403.97"/><polyline class="cls-2" points="539.86 214.69 532.54 214.83 525.28 214.59 517.97 214.22 510.8 215.72 503.54 216.49"/><polyline class="cls-2" points="429.71 188.45 422.86 190.71 415.98 192.75 409.17 195.05 402.42 197.58 395.99 200.85 390.02 204.92 383.53 208.1 377.6 212.2 372.04 216.78 366.3 221.14 361.15 226.18 356.08 231.28 350.86 236.23 345.81 241.37 341.75 247.35 336.71 252.53 332.74 258.54 328.85 264.59 324.64 270.42 320.82 276.52 317.01 282.64 313.71 289.05 311.43 295.93 308.03 302.28 305.65 309.07 302.64 315.63 300.41 322.47 298.25 329.35 297.21 336.51 295.3 343.46 294.63 350.63 293.89 357.77 292.6 364.89 293.32 372.1"/><polyline class="cls-2" points="465.23 187.17 458.11 186.94 451.01 186.23 443.88 186.57 436.8 187.49 429.78 188.76"/><polyline class="cls-2" points="355.91 160.5 348.81 162.1 341.99 164.62 335.05 166.79 328.65 170.28 322.13 173.44 315.86 177.07 309.49 180.58 303.84 185.16 297.7 189.08 292.23 193.87 286.87 198.77 281.94 204.11 277.21 209.61 272.35 214.97 267.44 220.32 262.66 225.8 259 232.11 254.46 237.8 251.07 244.23 247.34 250.46 243.76 256.77 240.42 263.22 237.24 269.75 234.96 276.66 232.61 283.52 230.28 290.38 228.05 297.28 226.52 304.37 224.27 311.31 223.64 318.56 222.19 325.7 221.9 332.97 222.34 340.22"/><polyline class="cls-2" points="390.67 159.07 383.7 158.84 376.74 158.22 369.77 158.71 362.8 159.26 355.9 160.48"/><polyline class="cls-2" points="282.13 132.66 275.26 134.44 268.53 136.68 261.89 139.17 255.44 142.1 249.19 145.43 242.85 148.62 236.69 152.16 231.19 156.68 225.16 160.48 220.23 165.65 214.58 169.98 209.37 174.82 204.85 180.32 199.93 185.44 195.34 190.87 190.91 196.43 186.66 202.13 183.15 208.34 179.25 214.27 176.13 220.66 172.18 226.6 168.8 232.86 165.98 239.4 163.25 245.96 161.57 252.91 158.66 259.42 156.87 266.3 154.81 273.11 153.87 280.17 152.65 287.15 151.61 294.18 151.3 301.27 150.42 308.35"/><polyline class="cls-2" points="316.08 131.24 309.29 130.63 302.47 130.42 295.67 130.97 288.86 131.51 282.21 133.04"/><polyline class="cls-2" points="208.25 104.36 201.24 105.96 194.62 108.78 187.9 111.2 181.18 113.73 174.79 117 168.66 120.72 162.56 124.49 156.95 128.96 151.39 133.48 145.76 137.91 140.68 142.97 135.89 148.28 130.41 152.97 125.77 158.44 121.7 164.36 117.22 169.95 113.03 175.77 109.23 181.84 105.9 188.19 101.91 194.17 98.96 200.71 96.16 207.3 93.4 213.9 90.51 220.45 87.97 227.16 86.4 234.17 83.96 240.94 82.33 247.93 81.76 255.1 80.51 262.16 79.98 269.31 80.11 276.48"/><polyline class="cls-2" points="241.58 102.67 234.89 102.22 228.2 102.45 221.53 102.8 214.95 103.9 208.26 104.41"/><polygon points="209.33 105.42 215.69 107.65 222.47 109.99 228.85 113.4 235.86 115.14 242.58 117.64 248.97 121.01 255.83 123.15 262.45 125.91 269.42 127.75 275.95 130.76 282.55 133.57 289.33 135.92 295.96 138.67 302.67 141.21 309.55 143.28 316.27 145.78 322.89 148.55 329.64 150.98 336.42 153.32 343.02 156.13 349.64 158.92 356.3 161.57 363.24 163.5 369.7 166.69 376.41 169.23 383.31 171.25 390.07 173.64 396.66 176.49 403.26 179.3 410.18 181.28 416.7 184.3 423.66 186.18 430.13 189.35 436.99 191.48 443.74 193.9 450.2 197.09 457.2 198.86 463.63 202.12 470.35 204.66 477.17 206.88 484.02 209.04 490.78 211.47 497.26 214.6 504.01 217.03 510.92 219.06 517.41 222.19 524.09 224.79 530.95 226.94 537.51 229.88 544.45 231.81 551.11 234.5 557.78 237.13 564.54 239.54 571.25 242.11 577.88 245.03 585.01 243.1 592.05 241.03 598.99 238.56 606.08 236.69 599.36 234.3 592.78 231.49 585.87 229.55 579.4 226.44 572.48 224.54 565.93 221.64 559.16 219.32 552.43 216.92 545.84 214.15 538.98 212.07 532.54 208.87 525.76 206.6 519 204.27 512.36 201.6 505.49 199.58 498.97 196.58 492.35 193.88 485.62 191.45 478.69 189.58 472.13 186.69 465.49 184.03 458.81 181.47 451.79 179.85 445.12 177.27 438.67 174.11 432 171.53 425.28 169.1 418.33 167.28 411.88 164.12 405.2 161.58 398.33 159.53 391.55 157.24 385.01 154.31 378.31 151.83 371.42 149.83 364.94 146.75 358.25 144.23 351.42 142.07 344.81 139.31 338.1 136.85 331.35 134.47 324.76 131.66 317.8 129.85 311.25 126.93 304.37 124.92 297.85 121.94 291.06 119.68 284.52 116.74 277.69 114.58 270.87 112.41 264.41 109.22 257.41 107.51 250.93 104.13 243.85 104.33 236.88 105.31 229.88 104.89 222.89 105.13 215.89 105.5 209.33 105.42"/><polygon class="cls-2" points="209.33 105.42 215.69 107.65 222.47 109.99 228.85 113.4 235.86 115.14 242.58 117.64 248.97 121.01 255.83 123.15 262.45 125.91 269.42 127.75 275.95 130.76 282.55 133.57 289.33 135.92 295.96 138.67 302.67 141.21 309.55 143.28 316.27 145.78 322.89 148.55 329.64 150.98 336.42 153.32 343.02 156.13 349.64 158.92 356.3 161.57 363.24 163.5 369.7 166.69 376.41 169.23 383.31 171.25 390.07 173.64 396.66 176.49 403.26 179.3 410.18 181.28 416.7 184.3 423.66 186.18 430.13 189.35 436.99 191.48 443.74 193.9 450.2 197.09 457.2 198.86 463.63 202.12 470.35 204.66 477.17 206.88 484.02 209.04 490.78 211.47 497.26 214.6 504.01 217.03 510.92 219.06 517.41 222.19 524.09 224.79 530.95 226.94 537.51 229.88 544.45 231.81 551.11 234.5 557.78 237.13 564.54 239.54 571.25 242.11 577.88 245.03 585.01 243.1 592.05 241.03 598.99 238.56 606.08 236.69 599.36 234.3 592.78 231.49 585.87 229.55 579.4 226.44 572.48 224.54 565.93 221.64 559.16 219.32 552.43 216.92 545.84 214.15 538.98 212.07 532.54 208.87 525.76 206.6 519 204.27 512.36 201.6 505.49 199.58 498.97 196.58 492.35 193.88 485.62 191.45 478.69 189.58 472.13 186.69 465.49 184.03 458.81 181.47 451.79 179.85 445.12 177.27 438.67 174.11 432 171.53 425.28 169.1 418.33 167.28 411.88 164.12 405.2 161.58 398.33 159.53 391.55 157.24 385.01 154.31 378.31 151.83 371.42 149.83 364.94 146.75 358.25 144.23 351.42 142.07 344.81 139.31 338.1 136.85 331.35 134.47 324.76 131.66 317.8 129.85 311.25 126.93 304.37 124.92 297.85 121.94 291.06 119.68 284.52 116.74 277.69 114.58 270.87 112.41 264.41 109.22 257.41 107.51 250.93 104.13 243.85 104.33 236.88 105.31 229.88 104.89 222.89 105.13 215.89 105.5 209.33 105.42"/><polygon points="513.03 288.56 507.1 291.09 500.96 293.22 494.58 294.86 490.81 301.04 486.65 306.88 482.75 312.89 478.54 318.69 474.5 324.61 469.68 329.98 465.64 335.91 461.61 341.84 458.01 348.04 455.15 354.76 453.03 361.79 450.62 368.72 448.28 375.67 445.35 382.41 443.45 389.52 440.97 396.44 438.55 403.27 439.56 410.94 440.5 418.71 441.03 426.53 442 434.57 449.17 432.32 456.19 430.89 463.39 430.27 470.26 428.06 477.31 426.75 484.25 424.95 491.44 424.27 498.3 422.05 505.42 421.05 512.39 419.38 519.34 417.59 526.37 416.21 533.52 415.36 540.54 413.88 547.54 412.36 554.37 409.97 561.39 408.56 568.44 407.21 575.6 406.39 582.6 404.86 589.62 403.38 596.6 401.71 603.55 399.92 610.63 398.75 617.69 397.44 624.61 395.48 631.69 394.3 638.7 392.79 645.75 391.46 652.72 389.75 659.75 388.33 666.68 386.42 673.81 385.46 680.71 383.39 687.72 381.9 694.88 381.07 701.73 378.73 709.15 377.92 708.61 372.15 708.81 366.62 702.14 363.59 695.34 361.05 688.32 359.04 681.59 356.29 675 353.21 668.19 350.69 661.66 347.45 654.61 345.51 648.13 342.14 641.15 340.02 634.58 336.88 627.93 333.95 621.09 331.49 614.3 328.9 607.65 325.94 600.94 323.16 593.88 321.24 587.38 317.92 580.65 315.17 573.78 312.77 567.22 309.61 560.17 307.66 553.46 304.86 546.86 301.78 540 299.38 533.4 296.29 526.71 293.44 519.83 291.05 513.03 288.56"/><polygon class="cls-2" points="513.03 288.56 507.1 291.09 500.96 293.22 494.58 294.86 490.81 301.04 486.65 306.88 482.75 312.89 478.54 318.69 474.5 324.61 469.68 329.98 465.64 335.91 461.61 341.84 458.01 348.04 455.15 354.76 453.03 361.79 450.62 368.72 448.28 375.67 445.35 382.41 443.45 389.52 440.97 396.44 438.55 403.27 439.56 410.94 440.5 418.71 441.03 426.53 442 434.57 449.17 432.32 456.19 430.89 463.39 430.27 470.26 428.06 477.31 426.75 484.25 424.95 491.44 424.27 498.3 422.05 505.42 421.05 512.39 419.38 519.34 417.59 526.37 416.21 533.52 415.36 540.54 413.88 547.54 412.36 554.37 409.97 561.39 408.56 568.44 407.21 575.6 406.39 582.6 404.86 589.62 403.38 596.6 401.71 603.55 399.92 610.63 398.75 617.69 397.44 624.61 395.48 631.69 394.3 638.7 392.79 645.75 391.46 652.72 389.75 659.75 388.33 666.68 386.42 673.81 385.46 680.71 383.39 687.72 381.9 694.88 381.07 701.73 378.73 709.15 377.92 708.61 372.15 708.81 366.62 702.14 363.59 695.34 361.05 688.32 359.04 681.59 356.29 675 353.21 668.19 350.69 661.66 347.45 654.61 345.51 648.13 342.14 641.15 340.02 634.58 336.88 627.93 333.95 621.09 331.49 614.3 328.9 607.65 325.94 600.94 323.16 593.88 321.24 587.38 317.92 580.65 315.17 573.78 312.77 567.22 309.61 560.17 307.66 553.46 304.86 546.86 301.78 540 299.38 533.4 296.29 526.71 293.44 519.83 291.05 513.03 288.56"/><polyline class="cls-2" points="649.63 343.24 647.96 336.1 646.3 328.93 643.08 322.29 641.02 315.19 636.99 308.99 634.25 302.12 630 296.1 625.72 290.14 620.81 284.67 616.08 279.09 611.1 273.71 605.83 268.58 599.66 264.56 593.88 260.04 587.74 256 581.26 252.51 574.49 249.63 567.34 247.83"/><polyline class="cls-2" points="565.57 309.95 561.64 303.85 557.97 297.63 554.02 291.57 549.4 286.01 544.52 280.71 539.62 275.42 534.29 270.56 528.94 265.68"/></svg>