<svg xmlns="http://www.w3.org/2000/svg" viewBox="0 0 800 800"><defs><style>.a{fill:none;stroke:#000;stroke-linejoin:bevel;stroke-width:13px;}.b{fill:#fff;}</style></defs><title>canvas (66)</title><polygon points="596.68 442.36 590.6 447.27 585.23 452.36 579.49 457.01 573.94 461.89 568.52 466.93 562.96 471.79 557.31 476.56 551.66 481.34 546.46 486.61 540.83 491.42 534.99 495.98 529.62 501.38 522.32 499.86 515.39 497.66 508.27 496.32 501.17 494.87 494.13 493.17 486.94 492.12 480.04 489.78 472.88 488.62 465.83 486.92 458.7 485.62 451.58 484.26 444.51 482.65 437.56 480.55 430.28 479.89 423.32 477.79 416.12 476.8 409.21 474.45 402.03 473.37 394.89 472.08 387.82 470.46 380.71 469.06 373.64 467.49 366.64 465.53 359.54 464.11 352.36 463.02 345.34 461.16 338.17 460.02 331.17 458.1 324.19 456.02 317.1 454.94 324.28 454.24 331.53 453.23 338.83 452.63 346.07 451.62 353.27 450.25 360.59 449.79 367.89 449.23 375.16 448.37 382.43 447.56 389.63 446.1 396.94 445.65 404.23 444.93 411.46 443.77 418.73 442.94 426.02 442.21 433.19 440.5 440.46 439.7 447.79 439.32 455.09 438.69 462.35 437.74 469.53 436.14 476.87 435.87 484.14 435.07 491.38 433.91 498.62 432.76 505.92 432.14 513.18 431.12 520.48 430.67 527.33 431.76 534.29 432.36 541.12 433.78 548.01 434.85 554.9 435.9 561.81 436.79 568.61 438.42 575.5 439.45 582.37 440.7 589.39 440.91 596.68 442.36"/><polygon class="a" points="596.68 442.36 590.6 447.27 585.23 452.36 579.49 457.01 573.94 461.89 568.52 466.93 562.96 471.79 557.31 476.56 551.66 481.34 546.46 486.61 540.83 491.42 534.99 495.98 529.62 501.38 522.32 499.86 515.39 497.66 508.27 496.32 501.17 494.87 494.13 493.17 486.94 492.12 480.04 489.78 472.88 488.62 465.83 486.92 458.7 485.62 451.58 484.26 444.51 482.65 437.56 480.55 430.28 479.89 423.32 477.79 416.12 476.8 409.21 474.45 402.03 473.37 394.89 472.08 387.82 470.46 380.71 469.06 373.64 467.49 366.64 465.53 359.54 464.11 352.36 463.02 345.34 461.16 338.17 460.02 331.17 458.1 324.19 456.02 317.1 454.94 324.28 454.24 331.53 453.23 338.83 452.63 346.07 451.62 353.27 450.25 360.59 449.79 367.89 449.23 375.16 448.37 382.43 447.56 389.63 446.1 396.94 445.65 404.23 444.93 411.46 443.77 418.73 442.94 426.02 442.21 433.19 440.5 440.46 439.7 447.79 439.32 455.09 438.69 462.35 437.74 469.53 436.14 476.87 435.87 484.14 435.07 491.38 433.91 498.62 432.76 505.92 432.14 513.18 431.12 520.48 430.67 527.33 431.76 534.29 432.36 541.12 433.78 548.01 434.85 554.9 435.9 561.81 436.79 568.61 438.42 575.5 439.45 582.37 440.7 589.39 440.91 596.68 442.36"/><polyline class="a" points="167.08 442.09 167.07 449.25 167.06 456.41 166.8 463.56 166.55 470.72 166.81 477.88 166.36 485.04 167.09 492.19 167.08 499.35 166.5 506.5 166.8 513.66 166.54 520.82 166.67 527.97 167.18 535.13 166.4 542.3 167.03 549.23 173.59 551.49 180.39 553.75 187.39 555.34 194.14 557.74 200.95 559.95 207.88 561.77 214.68 564.04 221.59 565.9 228.41 568.1 235.29 570.09 242 572.64 248.99 574.25 255.67 576.89 262.66 578.53 269.35 581.15 276.39 582.59 283.15 584.97 290.11 586.72 296.77 589.43 303.59 591.61 310.6 593.19 317.4 595.43 324.34 597.23 331.08 599.67 337.79 602.2 344.79 603.78 351.62 605.95 358.4 608.27 365.31 610.14 372.23 612 379.09 614.05 385.71 616.89 392.83 618.1 399.5 620.78 406.37 622.78 413.23 624.86 420.18 626.63 426.87 629.23 433.91 630.71 440.63 633.22 447.4 635.58 454.28 637.61 461.22 639.41 468.1 641.4 474.79 644.03 481.8 645.59 488.58 647.93 495.48 649.87 502.29 652.1 509.19 654.04 515.94 656.47 522.78 658.63 529.66 660.39 530.1 653.24 529.54 646.02 530.12 638.8 529.58 631.57 529.33 624.35 529.83 617.12 529.59 609.89 529.44 602.67 529.68 595.44 529.51 588.21 529.63 580.99 529.59 573.76 529.67 566.53 530.04 559.31 529.51 552.08 529.92 544.85 530.21 537.63 529.79 530.4 529.89 523.16 530.02 515.93 529.66 508.7 529.83 501.38 522.66 500.4 515.85 498.11 508.81 496.94 501.77 495.76 494.83 494.1 487.73 493.23 480.88 491.15 473.92 489.61 466.93 488.21 459.86 487.2 452.96 485.33 445.84 484.55 438.96 482.58 431.99 481.08 425.04 479.49 417.95 478.55 411.07 476.6 404.02 475.48 397 474.18 390.03 472.64 383.1 470.95 375.98 470.16 369.18 467.81 362.17 466.43 355.06 465.62 348.22 463.47 341.04 462.93 334.17 460.94 327.21 459.36 320.08 458.63 313.1 457.13 306.22 455.12 299.17 453.94"/><polygon class="a" points="527.73 662.12 532.85 657.49 537.65 652.16 543.12 647.52 548.38 642.66 553.32 637.48 558.61 632.64 563.39 627.29 568.93 622.73 573.85 617.52 579 612.54 584.29 607.71 589.16 602.45 594.19 597.36 599.35 592.39 604.79 587.73 609.89 582.7 614.71 577.38 619.92 572.47 625.15 567.58 630.22 562.51 635.14 557.3 640.5 552.54 645.78 547.68 650.37 542.32 650.86 535.15 651.05 527.84 650.28 520.53 650.96 513.21 650.49 505.9 650.84 498.58 651.01 491.27 650.27 483.95 650.87 476.64 650.38 469.32 650.36 462.01 650.43 454.69 650.95 447.38 650.88 440.06 650.43 432.75 650.4 425.43 650.52 418.11 650.87 410.79 650.76 403.39 645.3 407.99 639.91 412.57 634.48 417.08 628.99 421.51 622.94 425.26 617.95 430.33 612.12 434.35 606.82 439.04 601.37 443.53 595.75 447.81 590.37 452.39 584.93 456.9 579.11 460.93 573.9 465.72 568.1 469.79 563 474.72 557.45 479.08 551.82 483.37 546.08 487.5 540.47 491.8 534.96 496.24 529.38 500.81 529.43 508.28 529.63 515.62 529.38 522.95 529.51 530.28 529.17 537.62 529.57 544.96 529.48 552.29 529.25 559.63 528.6 566.96 528.93 574.3 528.42 581.63 528.85 588.98 528.46 596.31 528.24 603.64 528.01 610.98 527.83 618.32 528.28 625.66 528.29 633 527.86 640.34 527.74 647.68 528.15 655.02 527.73 662.12"/><polyline class="b" points="309.98 293.75 302.86 293.19 295.73 292.91 288.59 292.6 281.45 292.73 274.31 292.55 267.18 292.94 260.05 293.39 252.9 293.45 245.79 294.19 238.71 295.13 231.65 296.28 224.64 297.66 217.73 299.46 210.84 301.49 204.89 305.52 199.25 309.72 194.03 314.82 190.36 321.15 185.78 326.86 182.01 333.1 178.78 339.65 175.46 346.14 171.99 352.55 168.47 358.94 164.98 365.35 162.3 372.16 159.11 378.71 155.26 384.96 152.36 391.66 149.73 398.48 146.63 405.08 143.63 411.73 140.67 418.4 137.49 424.96 134.68 431.69 131.9 438.52 139.21 439.17 146.35 440.44 153.49 441.67 160.79 441.62 167.93 442.87 175.13 443.69 182.34 444.35 189.58 444.76 196.69 446.39 203.93 446.72 211.16 447.21 218.39 447.68 225.6 448.28 232.78 449.34 240 449.78 247.23 450.19 254.42 451.22 261.62 452.05 268.86 452.37 276.1 452.56 283.32 453.16 290.57 453.22 297.8 453.73 305 454.68 312.26 454.52 319.51 454.57 326.74 455.06 333.97 455.45 341.2 455.94 348.45 455.79 355.68 456.51 362.92 456.66 370.18 456.13 377.42 456.73 384.66 456.38 391.91 456.77 399.15 457.16 406.4 456.92 413.64 456.23 420.88 455.91 428.12 455.82 435.37 455.82 442.59 455.2 449.86 455.41 457.05 454.3 464.33 454.59 471.53 453.64 478.77 453.32 485.92 451.97 493.18 451.75 500.31 450.38 507.58 450.08 514.78 449.27 521.85 447.59 529.04 446.67"/><polyline class="a" points="309.98 293.75 302.86 293.19 295.73 292.91 288.59 292.6 281.45 292.73 274.31 292.55 267.18 292.94 260.05 293.39 252.9 293.45 245.79 294.19 238.71 295.13 231.65 296.28 224.64 297.66 217.73 299.46 210.84 301.49 204.89 305.52 199.25 309.72 194.03 314.82 190.36 321.15 185.78 326.86 182.01 333.1 178.78 339.65 175.46 346.14 171.99 352.55 168.47 358.94 164.98 365.35 162.3 372.16 159.11 378.71 155.26 384.96 152.36 391.66 149.73 398.48 146.63 405.08 143.63 411.73 140.67 418.4 137.49 424.96 134.68 431.69 131.9 438.52 139.21 439.17 146.35 440.44 153.49 441.67 160.79 441.62 167.93 442.87 175.13 443.69 182.34 444.35 189.58 444.76 196.69 446.39 203.93 446.72 211.16 447.21 218.39 447.68 225.6 448.28 232.78 449.34 240 449.78 247.23 450.19 254.42 451.22 261.62 452.05 268.86 452.37 276.1 452.56 283.32 453.16 290.57 453.22 297.8 453.73 305 454.68 312.26 454.52 319.51 454.57 326.74 455.06 333.97 455.45 341.2 455.94 348.45 455.79 355.68 456.51 362.92 456.66 370.18 456.13 377.42 456.73 384.66 456.38 391.91 456.77 399.15 457.16 406.4 456.92 413.64 456.23 420.88 455.91 428.12 455.82 435.37 455.82 442.59 455.2 449.86 455.41 457.05 454.3 464.33 454.59 471.53 453.64 478.77 453.32 485.92 451.97 493.18 451.75 500.31 450.38 507.58 450.08 514.78 449.27 521.85 447.59 529.04 446.67"/><polyline class="b" points="507.99 300.22 515.3 299.9 522.62 300.04 529.92 300.34 537.24 299.91 544.55 300.17 551.86 300.14 559.18 300.12 566.48 300.43 573.77 301.18 581.09 301.3 588.38 302.01 595.71 302.07 602.97 303.07 610.25 303.8 617.5 304.81 624.5 307.06 631.63 308.72 637.02 313.46 639.29 320.3 640.84 327.35 643.06 334.2 645.3 341.05 646.48 348.2 648.72 355.05 650.29 362.09 652.99 368.82 654.27 375.94 656.12 382.9 658.61 389.69 659.92 396.81 662.44 403.58 664.27 410.56 665.65 417.64 667.75 424.36 661.26 426.78 654.42 428.81 647.63 431.02 640.58 432.2 633.63 433.78 626.73 435.65 619.77 437.24 612.62 437.74 605.55 438.67 598.53 440.01 591.44 440.8 584.29 440.98 577.19 441.6 570.1 442.4 562.96 442.43 555.85 443 548.71 442.65 541.58 442.78 534.44 443.35 527.32 442.63 520.17 442.98 513.05 442.54 505.94 441.84 498.84 441.09 491.7 440.74 484.6 440.03 477.62 438.32 470.45 438.1 463.48 436.42 456.45 435.2 449.32 434.52"/><polyline class="a" points="507.99 300.22 515.3 299.9 522.62 300.04 529.92 300.34 537.24 299.91 544.55 300.17 551.86 300.14 559.18 300.12 566.48 300.43 573.77 301.18 581.09 301.3 588.38 302.01 595.71 302.07 602.97 303.07 610.25 303.8 617.5 304.81 624.5 307.06 631.63 308.72 637.02 313.46 639.29 320.3 640.84 327.35 643.06 334.2 645.3 341.05 646.48 348.2 648.72 355.05 650.29 362.09 652.99 368.82 654.27 375.94 656.12 382.9 658.61 389.69 659.92 396.81 662.44 403.58 664.27 410.56 665.65 417.64 667.75 424.36 661.26 426.78 654.42 428.81 647.63 431.02 640.58 432.2 633.63 433.78 626.73 435.65 619.77 437.24 612.62 437.74 605.55 438.67 598.53 440.01 591.44 440.8 584.29 440.98 577.19 441.6 570.1 442.4 562.96 442.43 555.85 443 548.71 442.65 541.58 442.78 534.44 443.35 527.32 442.63 520.17 442.98 513.05 442.54 505.94 441.84 498.84 441.09 491.7 440.74 484.6 440.03 477.62 438.32 470.45 438.1 463.48 436.42 456.45 435.2 449.32 434.52"/><polyline class="a" points="278.81 325.25 284.4 320.65 289.16 315.17 294.95 310.73 299.6 305.14 305.05 300.34 309.77 294.84 314.38 289.25 319.18 283.84 323.83 278.3 328.62 272.87 333.51 267.49 337.56 261.47 341.07 255.12 344.98 249.04 347.92 242.29 355.16 244.05 362.51 244.26 369.75 245.24 376.96 246.59 384.24 247.27 391.54 247.73 398.87 247.77 406.16 248.22 413.44 248.88 420.75 248.99 428.06 249.19 435.36 249.71 442.68 249.46 450 249.78 457.32 249.42 464.57 248.24 471.87 247.82 479.14 247.03 486.49 246.91 493.59 244.93 500.86 244.03 508.2 242.37 509.17 249.66 509.32 256.98 510.67 264.16 511.95 271.34 512.67 278.6 512.93 285.91 513.65 293.16 515.09 300.33"/><polyline class="a" points="500.37 334.23 496.39 328.22 492.84 321.95 488.69 316.01 485.21 309.69 481.98 303.23 477.94 297.22 475.35 290.42 471.18 284.44 468.43 277.74 465.78 271.02 463.08 264.35 461.23 257.43"/><polyline class="a" points="515.15 305.21 508.77 302.1 502.67 298.52 496.65 294.8 490.69 290.97 484.77 287.07 478.55 283.66 472.66 279.71 467.11 275.23"/><polyline points="347.9 242.21 354.79 240.29 361.51 237.89 368.44 236.18 375.41 234.68 382.37 233.15 389.34 231.64 396.32 230.04 403.48 229.8 410.55 228.88 417.65 228.11 424.79 228.08 431.92 228.15 439.05 228.3 446.18 228.58 453.28 229.25 460.32 230.37 467.43 231.09 474.28 233.16 481.35 234.28 488.08 236.69 494.97 238.62 501.55 241.4 507.91 244.66"/><polyline class="a" points="347.9 242.21 354.79 240.29 361.51 237.89 368.44 236.18 375.41 234.68 382.37 233.15 389.34 231.64 396.32 230.04 403.48 229.8 410.55 228.88 417.65 228.11 424.79 228.08 431.92 228.15 439.05 228.3 446.18 228.58 453.28 229.25 460.32 230.37 467.43 231.09 474.28 233.16 481.35 234.28 488.08 236.69 494.97 238.62 501.55 241.4 507.91 244.66"/><polyline class="a" points="237.65 451.29 240.96 445.08 244.19 438.84 247.84 432.81 250.94 426.5 253.82 420.07 257 413.79 260.47 407.66 263.26 401.19 267.19 395.28 270.14 388.89 272.76 382.36"/><polyline class="a" points="572.83 441.55 569.85 435.12 566.35 428.94 563.71 422.33 560.3 416.1 557.77 409.47 555.3 402.84 552.84 396.2 551.03 389.35 549.76 382.36"/><polyline class="a" points="317.04 334.8 324.1 333.6 331.24 333.98 338.37 333.59 345.48 334.45 352.57 335.04 359.73 335.24 366.67 337.04 373.64 338.47 380.68 339.75 387.25 342.6 394.17 344.46 400.7 347.39 406.79 351.15 412.88 354.9 418.03 359.88 423.04 364.9 427.44 370.45 431.78 376.1 435.3 382.33"/><polyline class="a" points="461.05 334.23 456.64 338.49 454.2 344.7 453.71 351.42 453.84 358.13"/><polygon class="a" points="414.29 208.85 413.17 201.13 411.87 193.87 409.54 186.85 408.47 179.49 405.81 172.58 402.29 166.08 399.5 159.21 394.52 153.73 389.12 148.78 382.35 145.86 374.91 145.77 368.01 148.49 361.4 151.63 356.78 157.12 357.79 163.36 363.26 167.97 368.99 172.5 375.4 175.96 381.54 179.88 387.64 183.82 393.49 188.11 399.47 192.27 404.53 197.49 409.98 202.37 414.29 208.85"/><polygon class="a" points="464.38 196.46 466.25 189.21 468.82 182.15 471.36 175.09 473.98 168.04 477.13 161.2 481.42 155.02 485.52 148.72 490.9 143.45 497.35 139.64 504.52 137.19 511.96 138.59 518.96 141.23 519.82 148.35 515.01 154.01 509.57 159.07 503.45 163.27 497.54 167.74 491.41 171.91 484.94 175.6 478.98 180.04 473.46 185.01 468.4 190.4 464.38 196.46"/><polygon class="a" points="512.1 211.37 519.46 209.66 526.62 208.74 533.55 206.6 540.8 206.35 547.93 205.4 555.1 204.81 562.28 203.85 569.5 204.16 576.73 204.7 583.55 207.14 589.92 210.26 594.79 215.39 596.44 222.39 595.34 229.57 592.22 236.14 589.36 242.84 582.66 243.27 576.9 239.05 571.19 234.58 565.72 229.87 560.34 225 553.97 221.56 547.79 217.79 541.12 214.96 534.04 213.38 526.9 212.36 519.73 211.28 512.1 211.37"/><polyline class="a" points="166.48 486.55 173.53 488.28 180.53 490.18 187.59 491.88 194.57 493.85 201.49 496.08 208.58 497.66 215.56 499.61 222.59 501.44 229.58 503.38 236.49 505.65 243.61 507.11 250.63 508.94 257.71 510.57 264.57 512.98 271.65 514.62 278.75 516.15 285.62 518.56 292.71 520.13 299.59 522.5 306.55 524.58 313.61 526.28 320.75 527.67 327.71 529.74 334.76 531.47 341.76 533.34 348.58 535.91 355.75 537.23 362.62 539.61 369.73 541.12 376.86 542.53 383.67 545.15 390.72 546.91 397.81 548.46 404.86 550.23 411.68 552.81 418.79 554.32 425.77 556.32 432.81 558.08 439.92 559.61 446.83 561.87 453.76 564.04 460.74 566.06 468 567.03 474.89 569.34 481.78 571.68 488.95 572.98 495.81 575.42 502.86 577.18 509.99 578.64 516.84 581.12 524.08 582.21 530.91 584.05 536.5 579.97 542.12 575.6 547.07 570.45 552.83 566.24 558.16 561.54 563.41 556.74 569.2 552.57 574.16 547.43 579.64 542.89 585.44 538.73 590.84 534.1 596.1 529.31 601.34 524.5 607.22 520.45 612.25 515.37 617.91 511.05 623.61 506.78 628.85 501.95 634.19 497.26 639.72 492.77 645 487.99 650.23 483.14"/><polygon class="a" points="323.02 528.54 317.14 525.03 310.6 523 303.7 522.45 296.85 523.66 290.33 526.04 284.56 529.88 278.3 532.85 272.98 537.25 267.62 541.59 262.45 546.17 257.63 551.13 253.24 556.61 248.77 562.04 245.75 568.42 241.88 574.28 239.8 581 237.74 587.66 236.86 594.56 236.35 601.49 236.94 608.43 238.46 615.29 242 621.4 247.37 625.94 254.16 626.7 260.34 624.07 265.52 619.48 269 613.34 272.15 607.02 274.56 600.36 275.77 593.37 277.38 586.48 278.85 579.55 280.46 572.64 282.98 566.01 286.18 559.71 289.43 553.46 293.79 547.9 298.98 543.15 304.49 538.8 310.1 534.45 316.58 531.57 323.02 528.54"/><polygon class="a" points="322.89 528.35 328.19 533.48 332.5 539.25 336.74 545.04 341.51 550.43 345.48 556.42 348.51 562.96 352.52 568.96 355.45 575.55 356.94 582.62 359.2 589.47 359.8 596.66 359.48 603.86 357.84 610.87 355.09 617.51 351.64 624.13 346.46 629.51 341.08 634.45 334.27 636.72 328.35 632.85 325.3 626.23 323.39 619.1 322.4 611.74 322.34 604.3 322.14 596.87 323.15 589.48 323.73 581.87 324.29 574.26 324.14 566.62 324.1 558.99 324.76 551.35 324.05 543.74 323.84 536.11 322.89 528.35"/><polyline class="a" points="283.3 641.51 283.84 634.42 285.46 627.5 286.64 620.5 288.15 613.57 290.34 606.8 291.38 599.74 293.58 592.99 296.14 586.35 297.46 579.33 300.4 572.82 302.6 566.07 304.59 559.26 307.19 552.66 309.67 546.01 312.23 539.41 313.89 532.45 316.93 526.27 315.32 533.03 314.8 540.18 313.91 547.27 312.68 554.32 311.76 561.4 310.49 568.45 309.83 575.57 308.29 582.58 308.16 589.76 306.92 596.82 305.99 603.9 305.32 611.02 305.03 618.18 304.37 625.3 304.17 632.46 303.82 639.59 302.73 646.71 303.39 653.88 303.1 661.03 303.01 668.19 304.39 675.25 304.92 682.38"/><polyline class="a" points="299.04 520.6 306.06 519.63 313.1 519.74 320.06 521.13 325.8 525.27 330.35 530.64"/></svg>