<svg id="Layer_1" data-name="Layer 1" xmlns="http://www.w3.org/2000/svg" viewBox="0 0 800 800"><defs><style>.cls-1,.cls-2{stroke:#000;stroke-linejoin:bevel;stroke-width:13px;}.cls-2{fill:#fff;}</style></defs><title>canvas (76)</title><polygon class="cls-1" points="720.99 472.96 240 621.3 79.01 515.11 549.72 370.2 720.99 472.96"/><polygon class="cls-2" points="549.72 400.2 687.97 483.15 720.99 472.96 549.72 370.2 79.01 515.11 110.02 535.57 549.72 400.2"/><polygon class="cls-2" points="188.18 139.3 141.01 108.7 141.01 367.97 188.18 398.58 188.18 139.3"/><polygon class="cls-2" points="282.51 110.2 188.18 140.31 188.18 399.58 282.51 369.47 282.51 110.2"/><polygon class="cls-2" points="282.01 110.7 188.01 139.7 141.01 108.7 232.01 80.7 282.01 110.7"/><polygon class="cls-2" points="237.18 359.3 190.01 328.7 190.01 587.97 237.18 618.58 237.18 359.3"/><polygon class="cls-2" points="331.51 330.2 237.18 360.31 237.18 619.58 331.51 589.47 331.51 330.2"/><polygon class="cls-2" points="331.01 330.7 237.01 359.7 190.01 328.7 281.01 300.7 331.01 330.7"/><polygon class="cls-2" points="237.01 359.7 141.01 296.2 141.01 367.7 237.01 428.7 237.01 359.7"/><line class="cls-2" x1="187.01" y1="167.7" x2="140.01" y2="136.7"/><line class="cls-2" x1="187.01" y1="193.7" x2="140.01" y2="162.7"/><line class="cls-2" x1="187.01" y1="219.7" x2="140.01" y2="188.7"/><line class="cls-2" x1="187.01" y1="245.7" x2="140.01" y2="214.7"/><line class="cls-2" x1="187.01" y1="271.7" x2="140.01" y2="240.7"/><line class="cls-2" x1="187.01" y1="297.7" x2="140.01" y2="266.7"/><line class="cls-2" x1="237.01" y1="459.7" x2="190.01" y2="428.7"/><line class="cls-2" x1="237.01" y1="485.7" x2="190.01" y2="454.7"/><line class="cls-2" x1="237.01" y1="511.7" x2="190.01" y2="480.7"/><line class="cls-2" x1="237.01" y1="537.7" x2="190.01" y2="506.7"/><line class="cls-2" x1="237.01" y1="563.7" x2="190.01" y2="532.7"/><line class="cls-2" x1="237.01" y1="589.7" x2="190.01" y2="558.7"/><line class="cls-2" x1="159.23" y1="304.93" x2="159.23" y2="376.5"/><line class="cls-2" x1="179.23" y1="319.93" x2="179.23" y2="391.5"/><line class="cls-2" x1="199.23" y1="331.93" x2="199.23" y2="403.5"/><line class="cls-2" x1="219.23" y1="347.93" x2="219.23" y2="419.5"/><line class="cls-1" x1="527.81" y1="606.78" x2="527.81" y2="641.22"/><polygon class="cls-2" points="577.19 674.84 551.09 702.86 489.05 713.41 515.16 685.38 577.19 674.84 577.19 674.84"/><polygon class="cls-2" points="577.19 655.11 551.09 683.13 489.05 693.68 515.16 665.65 577.19 655.11 577.19 655.11"/><polygon class="cls-2" points="577.19 634.34 551.09 662.36 489.05 672.91 515.16 644.88 577.19 634.34 577.19 634.34"/><polygon class="cls-2" points="577.19 613.57 551.09 641.59 489.05 652.14 515.16 624.11 577.19 613.57 577.19 613.57"/><polygon class="cls-2" points="577.19 592.8 551.09 620.82 489.05 631.37 515.16 603.34 577.19 592.8 577.19 592.8"/><polygon class="cls-2" points="577.19 572.03 551.09 600.05 489.05 610.6 515.16 582.57 577.19 572.03 577.19 572.03"/><polygon class="cls-2" points="577.19 551.26 551.09 579.28 489.05 589.83 515.16 561.8 577.19 551.26 577.19 551.26"/><polygon class="cls-2" points="577.19 530.49 551.09 558.51 489.05 569.06 515.16 541.03 577.19 530.49 577.19 530.49"/><polygon class="cls-2" points="577.19 509.72 551.09 537.74 489.05 548.29 515.16 520.26 577.19 509.72 577.19 509.72"/><polygon class="cls-2" points="577.19 488.95 551.09 516.97 489.05 527.52 515.16 499.5 577.19 488.95 577.19 488.95"/><polygon class="cls-2" points="577.19 468.18 551.09 496.2 489.05 506.75 515.16 478.73 577.19 468.18 577.19 468.18"/><polygon class="cls-2" points="577.19 447.41 551.09 475.43 489.05 485.98 515.16 457.95 577.19 447.41 577.19 447.41"/><line class="cls-2" x1="575.73" y1="451.99" x2="575.73" y2="680.11"/><line class="cls-2" x1="490.3" y1="480.64" x2="490.3" y2="719.3"/></svg>