<svg xmlns="http://www.w3.org/2000/svg" viewBox="0 0 800 800"><defs><style>.a{fill:#fff;}.b{fill:none;stroke:#000;stroke-linecap:round;stroke-linejoin:round;stroke-width:13px;}</style></defs><title>house</title><rect class="a" width="800" height="800"/><path d="M525.2,216.73l-37-10A6.5,6.5,0,0,0,480,213v45a6.5,6.5,0,0,0,4.83,6.28l37.5,10a6.5,6.5,0,0,0,8.17-6.35l-.5-45A6.5,6.5,0,0,0,525.2,216.73ZM493,221.49l8,2.16v31.49L493,253Z"/><path d="M740.71,155.66,634.31,81.73l0,0-.06,0-.05,0a6.45,6.45,0,0,0-.69-.41l-.15-.08a6.46,6.46,0,0,0-.79-.32l-.13,0-.46-.13-105.5-24a6.49,6.49,0,0,0-4.19.45l-15,7-.12.06-.29.15-.31.18-.1.06-75.6,49.63a6.49,6.49,0,0,0-2.08,1.37l-53.31,35a6.5,6.5,0,0,0,1.83,11.7L395,167.18V291a6.5,6.5,0,0,0,4.82,6.28l213,57a6.5,6.5,0,0,0,1.68.22l.21,0,.3,0a6.47,6.47,0,0,0,3.83-1.25l105.5-77A6.5,6.5,0,0,0,727,271V174.41l13.29-7.8a6.5,6.5,0,0,0,.42-10.94Zm-124.56,12.1a6.49,6.49,0,0,0-.83,1.42L598.69,209l-19.31-5.17,33.31-73.2ZM610,101.21l.37,4a6.5,6.5,0,0,0-1,1.59l-42.65,93.7-19.57-5.24,43.7-98.72Zm-51-11.52a6.51,6.51,0,0,0,.33-.92L578,93.36l-43.59,98.47-18.68-5L556.1,95.9Zm-29.64-8.27,17.2,4.22-1.37,3c-.05.1-.11.2-.16.31l-.7,1.58L502.13,183.2l-17.2-4.6Zm-37.73,8.47L511.2,77l5.22,1.28-44.18,96.82-18.4-5.1,37.5-79.6C491.42,90.23,491.49,90.06,491.55,89.89Zm-53.35,35,32.59-21.39-29.66,63-20.85-5.78Zm-43.65,28.65,22-14.43-9,18ZM608,339.53,408,286V171.47l31.67,8.47a6.38,6.38,0,0,0,6.06,1.62l34.56,9.25L598.8,223.65a6.32,6.32,0,0,0,3,.84L608,226.2Zm11.54-123.62a6.47,6.47,0,0,0-3.36-2.19l-4.81-1.29,7.31-17.52,2,21.3ZM714,267.7l-93,67.88V306.85l93-58.12Zm0-34.3-93,58.13V278.58l93-58.78Zm0-29L621,263.2v-33.4l5.26,1.46h0c.19.05.39.09.58.12l.25,0a6,6,0,0,0,1.87,0l.26-.05a6.43,6.43,0,0,0,.75-.2l.28-.1a6.51,6.51,0,0,0,.77-.36l.17-.08,0,0L714,182Z"/><path d="M432.34,635.75l0-.14a6.49,6.49,0,0,0,.08-.91c0-.05,0-.11,0-.16a6.54,6.54,0,0,0-.07-.93v0a6.53,6.53,0,0,0-.23-.95s0-.06,0-.09L385.89,492.38a6.5,6.5,0,0,0-3.1-4.68L318.24,433a6.44,6.44,0,0,0-4.66-4l-66-55.94a6.38,6.38,0,0,0-2.91-2.47L200.3,333h0l-.18-.14-.25-.19-.12-.09-.08,0-.14-.09-.22-.13-.35-.18-.13-.07-.11,0-.43-.17-.19-.07-.06,0-.48-.12-.1,0h0l-.18,0-.14,0q-.32,0-.64-.07h-.4s-.05.24-.08.24-.32.26-.47.26h0s-.06-.23-.09-.22-.13-.1-.19-.09-.31,0-.47,0-.06,0-.08,0l-.14,0-.42.11-.21.07-.1,0,0,0-.29.12-.2.09-.24.12-.1.06-.07,0-.17.1-.34.23-.13.09-.06,0-.1.07h0L97.37,405.68A6.5,6.5,0,0,0,95,409.22L67,518.9s0,.09,0,.14,0,.2-.06.3,0,.11,0,.17,0,.12,0,.17,0,.21,0,.32v.06s0,.08,0,.12,0,.1,0,.15,0,.2,0,.3,0,.22,0,.33,0,.21,0,.31,0,.18,0,.27v.06c0,.1,0,.2.06.31s0,.19.07.28v.06h0c0,.09.06.18.09.27l.09.27.13.32.12.27.08.16.08.15.16.27.08.13,50,76.34a6.45,6.45,0,0,0,3.43,5.25l26.13,39.91,38.39,89,0,0c.07.15.14.3.22.45l.06.11,0,0h0l.11.17.1.15.21.31.06.08.11.13.07.09.06.08.17.18.15.16.11.11.08.07,0,0,.18.16.08.07.05,0,.26.19.14.1.11.08.05,0,0,0,.16.1.38.21.12.06.09,0,.09,0a6.45,6.45,0,0,0,.61.23s0-.08.06-.07,0-.09,0-.09h0s0,.11.07.12,0,.05,0,.05a6.55,6.55,0,0,0,.66.18l.11,0,.1,0,.13,0,.42,0h.12l157.94,7.27c.09,0,.19.26.28.26h0c.25,0,.49-.26.73-.29.05,0,.1-.14.15-.15s.38-.12.57-.16.16-.08.25-.1l.45-.15.3-.13.37-.16.32-.17.32-.18.3-.21.3-.22.27-.23.29-.28.23-.25.14-.15.13-.18.12-.15L431.14,638.5h0l.06-.08a6.53,6.53,0,0,0,.45-.72l.09-.17A6.44,6.44,0,0,0,432.34,635.75ZM132.8,599.6l25.31-32.13,7,3.29-28,35.5Zm-13-19.79,18.71-21.51,7.47,3.5-20.74,26.32Zm-28.6-43.68,13.62,6.39-4.89,7ZM249.12,391.45l-9.74,12.2-4.25-7.78,7.72-9.74ZM266.29,406,250,423.17,246.13,416l.22-.24L259,399.86Zm17.19,14.57-22.41,22.77-4.48-8.19,19.63-20.72ZM301.68,436l-30.13,26.54-4-7.27L293.43,429Zm16.41,13.9-31.4,29-6.51-.55-2.23-4.08L311.7,444.5Zm17.35,14.71-14.78,17.14-16.42-1.39,23.83-22Zm16.31,13.82-3.61,5.65-11.48-1,8.7-10.09Zm-77,127.49,77-17.11-19.48,76Zm-41.34,35.3a6.52,6.52,0,0,0-.81,1.5L197.29,708l-5.22-135.08v0c0-.07,0-.15,0-.22s0-.05,0-.08l-5.81-63.91,68,94ZM92.45,522.33l79.33-29,6.29,69.17Zm129.19-124,0,0,21.26,38.92,0,0,10.87,19.88,0,0L265.19,478H183.45l-.11-1.21,7.26-52.12a6.5,6.5,0,0,0,.69-5l8.54-61.33ZM139,434.44l6.56-9.74,27.83,29.08-1.52,10.9Zm36.68,2.92L153,413.65l5.33-7.92,19.3,17.69Zm4.12-29.57-14.13-13,5.41-8L181.2,396c.08.07.16.12.24.18Zm-66.22,93-11.66-11.2,4.2-6.24,16.83,14Zm-13.59,5-11.9,4.35,6.45-9.58Zm37.06-13.57-23.64-19.69,5.36-8,27.17,24.4Zm22.7-8.31-33.66-30.23,5.57-8.27,37.94,34.9ZM183.6,380.6l-5.18-4.71L185.78,365Zm21.87,339.58,5.12-9.48,2.81,6.66Zm22.88-336.7-9.79-17.92,14.36,12.17ZM107.64,561.17l9.18-13.06,9.49,4.45-13.87,15.94Zm37.53,55.94,31.17-39.56L169.55,592l-22.13,29.9-2.78-4.24A6.56,6.56,0,0,0,145.17,617.11ZM225.68,713l-7.15-17,5.64-10.43,10.17,24.3Zm20.93-7.45-14.49-34.63,5.61-10.38,16.57,42.28Zm19.94-7.1-20.73-52.9,5.63-10.41L276.16,695Zm21.88-7.78-29-70.28,4-7.42,10.69,10.94c0,.06,0,.13.06.19l23.7,63.2Zm21.71-7.72-13.49-36,17.17,17.57,5,15.34Zm55-107.44-73.43-83.16,28.42,2.41a6.34,6.34,0,0,0,4.8.41l22.71,1.93a6.44,6.44,0,0,0,5.83.5l21,1.78,38.16,115.68ZM225.2,727,331.6,689.1l9.82,43Z"/><polyline class="b" points="252.61 344.26 254.46 337.19 256.66 330.22 259.11 323.34 260.96 316.26 263.64 309.44 265.87 302.49 267.42 295.31 269.72 288.37 272.38 281.54"/><polyline class="b" points="304.94 377.72 308.67 371.59 313.18 366.04 317.44 360.31 321.81 354.65 325.73 348.67 329.85 342.83 334.19 337.14 338.57 331.5 342.67 325.63 346.97 319.92 350.73 313.81"/><polyline class="b" points="359.25 421.62 364.12 416.2 369.43 411.24 374.48 406 379.81 401.06 385.02 395.98 390.89 391.6 396.14 386.57 401.3 381.44 406.3 376.15 411.3 370.85 417.17 366.45 422.13 361.1"/><polyline class="b" points="406.65 471.01 412.92 467.62 419.45 464.74 425.72 461.32 432.14 458.23 438.3 454.61 445.01 452.08 451.44 448.98 457.74 445.64 464.18 442.55 470.2 438.66 476.95 436.2 483.05 432.42 489.64 429.64"/><polygon points="235.13 737.25 347.38 735.88 344 743.13 237.88 740.38 235.13 737.25"/></svg>