<svg xmlns="http://www.w3.org/2000/svg" viewBox="0 0 800 800"><defs><style>.a{fill:#fff;}.b,.c{fill:none;stroke:#000;stroke-linecap:round;stroke-linejoin:round;}.b{stroke-width:13px;}.c{stroke-width:28px;}</style></defs><title>butta</title><rect class="a" width="800" height="800"/><path class="b" d="M114,687.85"/><path class="b" d="M174,769.58"/><path class="b" d="M314,691.31"/><path class="b" d="M414,691.35"/><path class="b" d="M687,23.34"/><path class="b" d="M607,2.75"/><polyline class="b" points="320.21 184.96 318.21 178.02 316.63 170.96 314.54 164.04 311.6 157.43 308.6 150.88 305.76 144.24 302.52 137.78 298.34 131.87 294.64 125.7 290.22 120 285.64 114.47 281.42 108.55 275.62 104.17 270.19 99.48 264.33 95.32 258.26 91.47 251.8 88.34 245.46 84.82 238.5 82.87 231.58 80.74 224.36 80.14 217.17 79.7 209.96 78.75 202.73 79.19 195.64 80.72 188.51 81.75 181.48 83.31 174.55 85.26 167.54 86.99 160.84 89.69 154.07 92.18 147.26 94.5 141 98.11 134.46 101.05 127.67 103.53 121.76 107.71 115.31 110.88 109.3 114.81 103.22 118.69 98.27 123.94 93.43 129.19 88.93 134.87 87.12 141.89 87.25 149.03 89.29 155.87 93.19 161.85 97.15 167.85 102.51 172.64 107.7 177.59 113.52 181.78 118.97 186.47 125.03 190.32 130.78 194.62 136.46 199.04 142.82 202.44 148.84 206.33 154.7 210.5 160.9 214.13 166.78 218.26 173.14 221.62 179.24 225.41 185.3 229.27 190.85 233.88 196.64 238.13 202.55 242.2 208.38 246.38 213.89 250.98 219.63 255.29 224.89 260.17 230.42 264.74 235.68 269.63 240.31 275.12 245.47 280.14 249.78 285.88 253.91 291.75 257.9 297.73 260.86 304.28 263.6 310.89 266.23 317.56 267.33 324.66 269.38 331.61 269.71 338.82 269.35 346.03 268.98 353.17 267.68 360.25 267.81 367.42 267.83 374.57 267.31 381.74 268.39 388.86 268.35 396.05 270.15 403.01 271.19 410.14 274.38 416.59 278.65 422.24 284.77 425.95 291.96 425.48 298.41 422.42 304.8 419.13 310.4 414.63 315.15 409.23 319.95 403.96"/><polyline class="b" points="272.75 412.94 265.85 414.95 258.94 416.98 251.96 418.7 245.03 420.69 237.83 421.37 230.82 423.01 223.79 424.56 216.62 425.26 209.53 426.4 202.4 427.49 195.18 427.32 188.03 428.25 180.83 428 173.62 428.32 166.52 426.88 159.31 426.55 152.4 424.47 145.43 422.7 139.11 419.26 132.46 416.41 126.79 411.89 122.09 406.38 118.38 400.18 115.77 393.47 114.4 386.43 112.76 379.4 113.5 372.2 113.04 364.98 114.47 357.92 115.57 350.82 117.77 343.97 118.75 336.78 121.79 330.21 123.82 323.3 126.61 316.68 129.02 309.89 132.42 303.53 135.08 296.84 138.23 290.37 141.74 284.09 145.59 278 148.49 271.37 152.75 265.53 155.87 259.03 159.54 252.84 163.99 247.15 167.34 240.75 172.24 235.4 175.6 228.98"/><polyline class="b" points="345.88 141.87 341.16 147.41 337.32 153.58 333.1 159.5 329.79 165.97 326.54 172.47 323.56 179.1 321.71 186.16 319.33 193.01 317.41 200 314.85 206.83 313.14 213.89 311.87 221.05 311.45 228.33 309.69 235.41 309.5 242.7 308.94 249.92 307.49 257.1 307.32 264.37 307.52 271.64 307.29 278.9 307.53 286.16 307.3 293.44 308.51 300.65 308.23 307.95 309.61 315.12 309.97 322.38 311.19 329.55 311.48 336.82 312.29 344.04 313.63 351.18 314.35 358.42 316.68 365.38 317.74 372.57 319.12 379.7 320.2 386.9 321.57 394.04 323.49 401.05 325.43 408.05 327.44 415.03 329.14 422.08 331.29 429.02 333.35 435.98 335.54 442.9 336.83 450.11 339.5 456.88 341.38 463.91 343.67 470.81 346.65 477.47 348.1 484.66 351.32 491.22 353.55 498.15 355.88 505.05"/><polyline class="b" points="265.99 372.78 259.65 375.99 252.93 378.42 246.71 381.84 240.56 385.43 233.82 387.83 227.54 391.14 221.08 394.09 214.97 397.75 208.59 400.87 201.95 403.46 195.64 406.71 189.6 410.52 183.04 413.28 176.59 416.25 170.34 419.65 163.94 422.74 157.6 426.1 152.19 421.3 147.9 415.67 146.05 408.79 144.77 401.77 144.5 394.61 145.22 387.48 146.73 380.48 148.38 373.55 150.15 366.65 151.49 359.63 153.4 352.75 155.37 345.88 157.94 339.21 160.76 332.64 162.96 325.83 166.28 319.48 169.03 312.89 171.47 306.17 174.84 299.86 177.72 293.32 180.19 286.59 183.51 280.26 187.22 274.13 189.52 267.29 193.61 261.37 196.6 254.88 199.88 248.54 203.41 242.35"/><polyline class="b" points="105.15 175.47 110.1 170.27 116.28 166.54 121.95 162.22 127.38 157.48 133.49 153.72 140.02 150.73 146.1 146.94 152.64 144.03 159.19 141.18 165.71 138.26 172.45 135.89 179.09 133.22 185.92 131.1 192.86 129.38 199.78 127.55 206.77 126.02 213.88 125.11 220.95 123.87 228.13 123.66 235.29 123.61 242.44 123.91 249.58 124.04 256.73 124.31 263.88 124.72 270.92 126.04 278.02 126.98 284.98 128.69 292.05 129.9 298.81 132.34"/><polyline class="b" points="265.97 316.3 260.19 311.68 253.97 307.63 248.56 302.54 242.38 298.44 236.99 293.32 230.53 289.58 224.71 285.02 219.06 280.22 213.22 275.69 207.29 271.26 201.32 266.87 195.76 261.95"/><polyline class="b" points="269.06 337.3 262.16 335.76 255.16 334.93 248.08 334.69 241.1 333.72 234.16 332.46 227.13 331.83 220.13 331.03 213.19 329.71 206.19 328.91 199.21 327.92 192.24 326.9 185.22 326.21 178.18 325.69 171.23 324.37 164.26 323.29"/><polyline class="b" points="268.12 360.49 261.09 361.74 254.39 364.18 247.41 365.57 240.7 367.96 233.71 369.36 227 371.72 220.15 373.63 213.18 375.06 206.59 377.87 199.49 378.89 192.84 381.45 185.99 383.34 179.17 385.36 172.37 387.4 165.5 389.21 158.72 391.36 151.79 393 144.86 394.65"/><polyline class="b" points="268.34 384.33 262.62 388.42 257.08 392.72 252.05 397.62 246.62 402.05 241.36 406.68 235.47 410.56 230.09 415.06 225.1 420.03"/><polyline class="b" points="269.06 348.65 261.87 349.85 254.59 349.93 247.33 350.19 240.07 350.47 232.87 351.76 225.62 352.25 218.35 352.34 211.07 352.25 203.88 353.67 196.59 353.54 189.37 354.39 182.1 354.65 174.84 354.96 167.56 354.94 160.31 355.61 153.09 356.59"/><polyline class="b" points="265.92 325.28 259.39 322.41 252.51 320.4 246.09 317.24 239.47 314.59 232.69 312.32 226.23 309.26 219.36 307.22 212.96 304.02 206.15 301.81 199.53 299.15 193.22 295.72 186.42 293.46 179.7 291.03"/><line class="b" x1="131.5" y1="365" x2="131.5" y2="364"/><line class="b" x1="139.5" y1="337" x2="139.5" y2="337"/><line class="b" x1="150.5" y1="308" x2="150.5" y2="308"/><line class="b" x1="164.5" y1="279" x2="164.5" y2="278"/><line class="b" x1="180.5" y1="251" x2="180.5" y2="252"/><line class="b" x1="130.5" y1="392" x2="130.5" y2="392"/><polyline class="b" points="122.08 161.6 117.58 155.72 113.79 149.35 109.64 143.23 105.23 137.27 100.45 131.57 96.74 125.13"/><polyline class="b" points="142.5 148.87 138.99 141.94 134.94 135.33 130.8 128.77 127.3 121.83 123.13 115.28 118.86 108.79"/><polyline class="b" points="164.94 138.22 162.7 131.78 159.78 125.63 156.47 119.65 154.5 113.09 151.73 106.88 148.54 100.83 146.44 94.32"/><polyline class="b" points="188.38 130.36 187.19 123.66 185.33 117.11 183.7 110.5 182.75 103.75 181.26 97.12 179.88 90.45 178.36 83.82"/><path class="b" d="M213.62,125.06"/><polyline class="b" points="218.57 123.52 217.87 116.06 216.66 108.69 215.15 101.37 213.45 94.08 212.42 86.67 211.66 79.22"/><polyline class="b" points="249.56 123.42 248.91 115.71 247.39 108.09 246.23 100.44 246.29 92.64 244.56 85.04"/><polyline class="b" points="318.88 377.4 317.14 370.44 315.81 363.4 313.78 356.51 311.88 349.61 309.83 342.74 307.65 335.92 305.82 328.98 302.53 322.54 300.89 315.51 297.61 309.11 294.9 302.49 292.57 295.68 288.78 289.55 286.14 282.86 282.06 276.92 278.93 270.48 275.45 264.21 271.74 258.07 267.13 252.54 262.89 246.78 259.13 240.66 254.78 234.97 250.24 229.42 245.01 224.49 240.09 219.32 235.66 213.63 230.22 208.96 225.27 203.75 219.65 199.28 213.47 195.57 208.08 190.83 202.16 186.78 195.72 183.67"/><polyline class="b" points="257.2 161.7 261.07 167.72 265.15 173.6 268.68 179.82 272.32 185.97 275.92 192.17 279.29 198.49 281.56 205.33 284.52 211.84 287.47 218.37 289.71 225.17 291.84 232 294.89 238.53 296.89 245.41 298.12 252.49 300.14 259.36 302.1 266.25 303.52 273.26 304.94 280.28 305.87 287.38 307.89 294.3 308.27 301.49 309.15 308.59 309.58 315.74 310.43 322.84 311.55 329.94 312.11 337.09"/><line class="c" x1="193" y1="180" x2="193" y2="180"/><line class="c" x1="258" y1="160" x2="258" y2="160"/><line class="b" x1="290.5" y1="400" x2="290.5" y2="399"/><polyline class="b" points="324.1 404.6 322.56 411.53 320.95 418.44 320.26 425.55 318.87 432.51 317.43 439.45 315.64 446.33 314.25 453.28 313.01 460.27 311.5 467.21 310.04 474.16 309.1 481.2 308.23 488.24 307.23 495.27 306.83 502.36 306.15 509.41 306.09 516.48 306.13 523.57 309.51 529.48 316 528.07 321.32 523.6 325.71 518.02 329.88 512.28 333.64 506.25 338.51 501.12 343.82 496.38 350.58 494.19"/><polyline class="b" points="355.8 155.53 354.51 148.37 353.55 141.16 352 134.05 350.14 127 349.17 119.77 347.69 112.64 346.08 105.53 343.47 98.69 342.06 91.53 340.01 84.53 337.58 77.66 334.51 71.03 332.66 63.92 328.86 57.64 326.09 50.9 322.62 44.49 318.31 38.62"/><polyline class="b" points="347.86 114.55 340.73 116.65 334.12 120.14 328.77 125.31 324.45 131.52 324.5 139.08 325.4 146.44 328.43 153.26 331.55 160.12"/><polyline class="b" points="392 185 393.68 177.99 395.4 170.97 398.28 164.33 400.64 157.53 403.7 151.01 406.1 144.17 410.13 138.15 413.17 131.58 417.16 125.56 421.52 119.81 425.67 113.87 431.11 109.06 436.04 103.8 441.53 99.11 447.23 94.65 453.81 91.59 460.12 88.17 466.72 85.32 473.45 82.71 480.51 81.2 487.58 79.67 494.79 78.92 502.02 79.54 509.26 79.25 516.37 80.7 523.57 81.34 530.55 83.18 537.62 84.69 544.44 87.06 551.44 88.92 558.08 91.81 564.8 94.36 571.02 98.06 577.61 100.91 583.94 104.29 590.45 107.32 596.66 110.93 602.9 114.52 608.43 119.12 614.09 123.57 618.75 129.05 623.07 134.87 624.63 141.93 625.13 149.09 622.46 155.76 619.04 162.01 614.73 167.73 609.62 172.77 604.25 177.53 598.91 182.34 592.74 186.07 587.41 190.96 581.08 194.42 575.35 198.76 569.11 202.32 563.39 206.7 557.36 210.59 551.16 214.21 544.98 217.87 539.07 221.96 532.64 225.23 527.01 229.73 520.73 233.26 514.95 237.55 509.01 241.59 503.53 246.26 497.59 250.32 492.01 254.85 486.58 259.57 481.59 264.76 476.6 269.9 471.29 274.75 466.88 280.43 462.47 286.06 457.63 291.44 454.46 297.93 451.11 304.26 448.46 310.91 445.84 317.58 443.75 324.48 442.86 331.63 442.34 338.82 443.28 345.98 443.74 353.12 444.18 360.26 444.28 367.42 444.3 374.57 443.82 381.72 444.22 388.9 442.73 395.94 442.62 403.17 440.48 410.04 437.93 416.75 433.16 422.04 427.17 425.66 419.96 425.77 413.34 422.87 407.23 419.09 402.12 414.04 396.67 409.4 391.74 404.21"/><polyline class="b" points="439.17 413.27 445.95 415.74 452.94 417.45 459.95 419.08 467.17 419.78 474.06 421.96 481.24 422.69 488.17 424.84 495.33 425.59 502.53 425.91 509.64 426.94 516.81 427.49 523.99 427.85 531.16 427.64 538.38 428.22 545.55 427.53 552.67 426.42 559.56 424.33 566.44 422.33 573.16 419.79 579.01 415.65 585 411.67 589.78 406.28 593.25 399.99 595.68 393.29 597.66 386.44 599.04 379.38 599.54 372.18 598.88 364.99 597.83 357.87 596.2 350.87 594.99 343.77 592.48 337.01 590.66 330.05 588.3 323.26 585.73 316.54 582.44 310.13 579.65 303.5 576.98 296.81 573.9 290.3 570.27 284.08 566.96 277.69 563.51 271.37 559.58 265.34 555.87 259.19 551.67 253.33 547.84 247.26 544.53 240.84 540.21 235.09 535.81 229.42"/><polyline class="b" points="366.32 141.65 370.79 147.45 374.82 153.49 378.8 159.56 382.13 166.01 385.34 172.52 387.75 179.38 390.46 186.1 392.47 193.07 394.86 199.92 397.35 206.78 398.16 214.04 399.8 221.11 401.21 228.23 401.6 235.5 403.17 242.63 403.44 249.89 403.75 257.14 404.14 264.39 404.74 271.64 404.66 278.9 404.61 286.16 404.46 293.43 403.65 300.66 403.73 307.94 402.27 315.11 402.44 322.42 400.75 329.54 400.79 336.86 398.98 343.94 397.89 351.11 396.79 358.27 395.38 365.39 394.82 372.68 393.08 379.74 391.65 386.86 389.67 393.86 388.79 401.11 386.23 407.96 385.2 415.2 382.49 421.99 381.31 429.19 379.22 436.15 376.39 442.88 374.52 449.9 372.3 456.82 370.14 463.75 368.15 470.74 366.25 477.77 363.44 484.5 361.26 491.43 358.12 498.03 356.13 505.05"/><polyline class="b" points="446.36 372.09 452.68 375.32 458.93 378.7 465.39 381.64 471.71 384.89 478.16 387.87 484.32 391.43 490.74 394.45 497.2 397.4 503.6 400.47 509.91 403.74 516.29 406.86 522.48 410.37 529.14 412.92 535.44 416.19 541.73 419.51 548.04 422.78 554.51 425.63 559.86 421.34 563.81 415.54 565.81 408.76 566.7 401.74 566.85 394.63 566.4 387.52 565.86 380.38 564.26 373.41 562.01 366.61 560.61 359.6 558.95 352.64 556.08 346.06 554.26 339.14 551.08 332.7 549.25 325.75 546.54 319.14 542.94 312.9 540.38 306.23 537.97 299.49 534.61 293.17 531.81 286.58 528.03 280.48 525.34 273.85 522.48 267.29 518.26 261.44 515.72 254.71 512.11 248.55 508.88 242.19"/><polyline class="b" points="606.85 175.46 601.87 170.3 596.36 165.71 590.25 161.93 584.25 158.03 578.62 153.55 571.96 150.76 565.97 146.82 559.41 143.92 553.13 140.46 546.54 137.63 539.77 135.28 533.07 132.74 526.1 131.03 519.29 128.78 512.11 128.09 505.11 126.71 498.11 125.17 491.02 124.11 483.88 123.42 476.7 123.86 469.55 123.45 462.4 123.66 455.27 124.25 448.12 124.68 441.07 125.99 433.95 126.83 426.87 128.01 419.97 129.98 412.97 131.59"/><polyline class="b" points="445.92 316.16 452.12 312.08 458.02 307.62 463.33 302.41 469.2 297.92 475.22 293.6 481.25 289.3 487.05 284.71 493.11 280.45 498.4 275.21 504.6 271.12 510.27 266.35 516.47 262.25"/><polyline class="b" points="442.9 336.99 449.88 336.01 456.88 335.24 463.87 334.31 470.9 333.76 477.83 332.36 484.91 332.14 491.85 330.87 498.83 329.89 505.75 328.47 512.86 328.5 519.84 327.46 526.79 326.27 533.71 324.84 540.75 324.25 547.77 323.52"/><polyline class="b" points="444.11 359.69 450.81 362.11 457.63 364.08 464.43 366.15 471.25 368.12 478.3 369.33 485.12 371.3 491.8 373.79 498.6 375.87 505.39 377.94 512.4 379.27 519.18 381.38 526.09 383.09 533 384.75 539.61 387.49 546.46 389.35 553.43 390.85 560.13 393.3 567.1 394.78"/><polyline class="b" points="443.7 384.29 449.61 388.14 455.04 392.57 459.92 397.65 465.72 401.64 470.57 406.76 475.95 411.26 481.94 415.02 487.2 419.66"/><polyline class="b" points="442.93 348.81 450.13 349.9 457.44 349.46 464.67 350.22 471.88 351.29 479.17 351.14 486.42 351.56 493.63 352.74 500.87 353.25 508.18 352.7 515.43 353.21 522.68 353.69 529.92 354.27 537.16 354.88 544.43 355.12 551.64 356.3 558.93 356.31"/><polyline class="b" points="446 325.09 452.6 322.38 459.32 319.98 465.92 317.26 472.6 314.77 479.38 312.51 485.72 309.14 492.46 306.77 499.25 304.53 505.76 301.59 512.28 298.7 519.04 296.36 525.53 293.36 532.18 290.74"/><line class="b" x1="579.5" y1="365" x2="579.5" y2="364"/><line class="b" x1="571.5" y1="336" x2="571.5" y2="337"/><line class="b" x1="560.5" y1="307" x2="560.5" y2="308"/><line class="b" x1="546.5" y1="279" x2="546.5" y2="278"/><line class="b" x1="530.5" y1="251" x2="530.5" y2="251"/><line class="b" x1="580.5" y1="393" x2="580.5" y2="392"/><polyline class="b" points="590.12 161.74 594.31 155.64 598.23 149.36 602.73 143.48 606.81 137.3 610.8 131.05 614.99 124.95"/><polyline class="b" points="569.7 148.99 572.77 141.8 577.56 135.62 581.52 128.96 585.45 122.27 588.49 115.05 592.41 108.35"/><polyline class="b" points="547 138.2 549.58 131.9 552.45 125.73 555.57 119.67 557.35 113.03 560.5 106.97 562.88 100.58 566.1 94.55"/><polyline class="b" points="524.32 130.51 525.19 123.74 527.31 117.25 528.1 110.46 529.64 103.84 531.45 97.27 533.11 90.67 534.11 83.92"/><path class="b" d="M498.38,125.78"/><polyline class="b" points="492.58 123.37 494.29 116.09 495.71 108.76 497.18 101.43 498.52 94.08 499.46 86.65 500.89 79.31"/><polyline class="b" points="462.7 123.45 464.03 115.81 464.77 108.11 464.83 100.33 465.8 92.65 466.54 84.94"/><polyline class="b" points="393.64 377.5 395.4 370.56 396.24 363.41 398.1 356.48 400.25 349.64 402.32 342.79 404.2 335.87 406.14 328.96 408.9 322.34 411.87 315.81 414.31 309.08 416.73 302.32 419.84 295.87 422.56 289.23 426.02 282.94 429.55 276.71 433.37 270.65 436.92 264.44 440.46 258.2 444.74 252.45 448.82 246.56 453.37 241.04 457.8 235.43 461.99 229.62 466.84 224.35 471.84 219.25 476.5 213.79 481.82 209 486.83 203.86 492.25 199.16 498.48 195.5 504.23 191.28 509.73 186.61 516.3 183.71"/><polyline class="b" points="455.09 161.94 450.56 167.48 447.18 173.81 443.46 179.9 439.41 185.83 436 192.13 433.12 198.69 429.75 205.02 426.93 211.61 425.2 218.63 422.61 225.29 419.59 231.8 417.91 238.78 415.88 245.63 413.84 252.48 411.24 259.2 409.84 266.24 408.14 273.19 406.91 280.25 405.47 287.27 404.15 294.31 403.19 301.41 403.17 308.63 401.7 315.67 401.73 322.86 400.28 329.93 400.6 337.13"/><line class="c" x1="519" y1="180" x2="519" y2="180"/><line class="c" x1="454" y1="160" x2="454" y2="160"/><line class="b" x1="420.5" y1="399" x2="420.5" y2="399"/><polyline class="b" points="387.18 404.77 389.5 411.51 391.1 418.43 391.75 425.55 393.56 432.42 395.21 439.32 396.09 446.38 398.38 453.16 399.05 460.26 400.26 467.25 402.25 474.11 402.98 481.19 404.25 488.18 404.5 495.3 405.39 502.34 406.47 509.38 406.46 516.49 406.11 523.61 402.35 529.03 395.68 528.58 390.71 523.57 386.3 518.02 382.36 512.11 378.71 505.98 373.94 500.65 367.81 497.02 361.43 494.11"/><polyline class="b" points="356.51 155.58 357.25 148.33 358.19 141.11 359.58 133.96 361.84 127 363.17 119.85 364.07 112.58 366.79 105.76 368.68 98.74 370.16 91.59 372.04 84.55 374.99 77.86 377.55 71.05 379.8 64.12 383.06 57.6 386.21 51.05 389.94 44.83 393.67 38.61"/><polyline class="b" points="364.14 114.54 371.17 116.89 377.88 120.15 383.88 124.78 387.28 131.61 388.17 139.1 386.25 146.33 384.06 153.5 380.45 160.12"/><polyline class="b" points="315.62 443.36 315.9 450.31 315.83 457.23 316.73 464.12 318.65 470.81 321.96 476.93 325.93 482.58 331.44 486.71 337.55 489.83 344.32 490.95 351.16 491.92"/><polyline class="b" points="395.81 443.43 395.82 450.31 395.69 457.18 395.24 464.11 393.29 470.78 390.43 477.14 385.67 482.19 380.6 486.75 374.66 490.39 367.71 491.01 360.86 492.17"/><polyline class="b" points="327.24 171.78 330.67 177.91 334.32 183.9 337.78 190 341.07 196.21 345.27 201.87 349.1 207.75 352.8 213.73 356.32 219.81"/><polyline class="b" points="315.83 213.95 319.14 220.16 322.82 226.14 326.95 231.85 330.7 237.79 333.62 244.24 337.89 249.87 341.45 255.93 344.93 262.04 348.83 267.89 351.96 274.22 355.72 280.17"/><polyline class="b" points="311.94 265.16 315.1 271.7 319.35 277.59 322.49 284.13 326.33 290.26 330.02 296.49 333.91 302.6 337.28 309.01 341.32 315.03 345.17 321.15 348.34 327.69 352.22 333.81 356.29 339.83"/><polyline class="b" points="311.52 325.58 315.75 331.47 319.48 337.65 322.93 344 326.5 350.27 329.94 356.63 333.69 362.81 337.61 368.88 341.24 375.13 344.5 381.6 348.63 387.55 351.84 394.06 355.87 400.08"/><polyline class="b" points="385.96 172.12 381.7 177.74 378.55 184.03 375.21 190.21 370.96 195.84 367.09 201.69 363.61 207.79 359.82 213.71 357.08 220.26"/><polyline class="b" points="356.53 279.93 360.69 274.24 364.01 268.04 367.74 262.09 371.18 255.95 374.74 249.9 378.33 243.85 382.1 237.92 386.33 232.27 389.37 225.89 392.91 219.81 396.84 213.96"/><polyline class="b" points="400.62 265.11 397.52 271.68 393.41 277.65 390.2 284.16 386.52 290.39 382.53 296.43 378.44 302.42 374.98 308.78 371.75 315.28 367.57 321.21 363.73 327.35 360.11 333.63 356.63 339.99"/><polyline class="b" points="401.41 325.75 397.63 331.9 393.71 337.98 389.68 343.97 386.01 350.19 382.44 356.47 379.09 362.89 375.19 368.98 371.72 375.32 367.93 381.47 364.42 387.79 360.7 394 356.83 400.11"/><polyline class="b" points="525.33 644.34 518.37 644.53 511.42 643.89 504.46 643.68 497.52 643.34 490.55 643.27 483.7 641.92 476.73 641.41 469.97 639.69 463.45 637.28 457.46 633.86 451.94 629.7 450.27 622.9 451.52 615.82 453.25 608.8 454.29 601.62 456.58 594.75 459.27 588.03 461.36 581.11 464.54 574.62 467.19 567.89 471.12 561.81 474.18 555.24 477.8 548.97 482.61 543.52 486.7 537.56 491.18 531.89 496.08 526.58 501.12 521.42 506.6 516.71 511.46 511.31 517.05 506.73 522.98 502.59 529.02 498.64 534.88 494.44 540.59 489.94 546.89 486.39 553.26 482.96 559.97 480.26 566.42 477.2 573.33 475.28 580.06 472.93 586.83 470.7 593.71 468.79 600.67 467.26 607.58 465.35 614.71 464.67 621.85 464.34 628.92 463.39 636.06 463.13 643.18 463.68 650.34 463.64 657.34 465.12 664.34 466.36 671.48 467.21 678.22 469.64 684.7 472.65 691.45 475.01 697.51 478.8 703.76 482.26 709.58 486.39 714.81 491.25 720.15 495.96 725.56 500.69 729.56 506.66 734 512.23 737.97 518.16 741.47 524.37 745.02 530.55 748.82 536.64 751.39 543.33 753.52 550.16 756.46 556.68 758.85 563.42 760.15 570.48 762.14 577.33 763.96 584.22 765.97 591.09 766.77 598.2 768.34 605.18 769.21 612.28 769.77 619.41 770.32 626.54 769.87 633.69 769.51 640.81 768.42 647.87 767.63 654.96 766.48 662.02 763.71 668.64 761.41 675.39 758.23 681.77 754.49 687.81 750.95 694.03 746.21 699.38 741.07 704.32 735.77 709.08 730.21 713.57 724.31 717.63 717.87 720.79 711.16 723.26 704.6 726.06 697.68 727.8 690.92 730.1 683.88 731.29 676.95 733.15 669.82 733.86 662.66 734.07"/><polyline class="b" points="651.03 524.6 655.32 530.23 660 535.45 664.49 540.86 668.02 546.94 671.56 552.99 674.49 559.35 677.57 565.66 679.34 572.46 681.67 579.08 683.02 585.97 683.98 592.93 683.88 599.96 684.12 606.98 682.87 613.9 681.9 620.85 680.51 627.75 678 634.33 671.92 638.18 665.64 641.63 659.34 645.18 652.47 647.41 645.59 649.6 638.53 651.14 631.32 651.68 624.16 652.49 616.96 653.09 609.73 653.12 602.53 652.36 595.33 651.7"/><polyline class="b" points="688.73 693.03 685.8 699.69 682.1 705.95 677.31 711.45 673.48 717.67 667.97 722.46 663.06 727.8 657.28 732.19 651.86 737.08 645.48 740.58 638.87 743.56 632.45 746.96 625.55 749.2 618.46 750.71 611.4 752.21 604.35 754.11 597.1 754.61 589.84 754.13 582.57 754.61 575.38 753.57 568.19 752.67 561.05 751.42 553.85 749.92 546.76 748.01 539.79 745.68 532.89 743.13 526.37 739.74 519.69 736.59 513.47 732.6 507.83 727.82 502.88 722.35 498.18 716.73 493.3 711.21 488.99 705.21 486.39 698.27 483.5 691.54 480.44 684.82 479.08 677.56 477.26 670.42 476.27 663.13 475.63 655.78 475.35 648.41 476.13 641.07"/><polygon class="b" points="551.02 521.2 545.71 525.38 540.27 530.16 534.59 534.66 529.3 539.61 523.92 544.46 518.51 549.31 514.23 555.22 508.94 560.22 504.27 565.78 500.49 572 495.65 577.48 492.06 583.8 489.15 590.47 486.05 596.99 483.11 603.61 481.21 610.4 488.36 611.59 495.63 613.09 502.95 614.31 510.35 614.86 517.78 614.79 525.17 614.49 532.6 614.5 539.72 612.45 546.23 608.92 548.7 601.9 547.97 594.44 547.52 586.94 546.49 579.52 545.47 572.11 543.98 564.72 544.21 557.21 543.86 549.7 545.2 542.31 546.78 535.02 548.21 527.64 551.02 521.2"/><polygon class="b" points="623.36 528.26 627.29 534.64 631.31 540.65 634.64 547.07 638.35 553.27 641.8 559.64 644.4 566.41 647.34 573.02 649.16 580.04 651.69 586.84 652.77 594 654.55 601.06 653.95 608.33 653.93 615.35 647.19 616.58 640.18 616.62 633.24 617.38 626.26 617.93 619.25 617.81 612.25 617.7 605.35 616.33 598.42 615.58 592.27 612.55 590.51 606.75 593.02 600.01 597.2 594.14 600.64 587.87 603.96 581.52 608.03 575.6 611.07 569.11 614.47 562.8 617.87 556.47 620.28 549.7 622.18 542.78 622.95 535.67 623.36 528.26"/><polyline class="b" points="481 685.39 488.14 685.11 495.29 685.12 502.43 684.5 509.54 685.56 516.66 685.96 523.82 686.12 530.89 687.18 537.99 688.01 544.98 689.45 552.05 690.58 559 692.28 565.82 694.43 572.64 696.56 579.54 698.51 586.24 701.05 592.68 704.2 599.08 707.39 605.69 710.21 611.89 713.81 617.74 717.96 623.57 722.1 629.15 726.58 634.6 731.17 640.2 735.62 645.76 740.17"/><polyline class="b" points="497.18 712.48 504.38 712.75 511.54 712.32 518.73 712.46 525.85 713.42 533.04 713.9 540.11 715.21 547.14 716.74 554.13 718.41 560.87 720.96 567.88 722.6 574.85 724.41 581.53 727.07 587.96 730.36 594.79 732.64 601.35 735.57 607.94 738.45 614.28 741.84 620.66 745.18 626.9 748.75"/><polyline class="b" points="491.71 684.89 494.95 690.64 497.21 696.79 499.61 702.89 502.05 708.98"/><polyline class="b" points="548.32 689.88 549.23 697.04 550.09 704.23 551.97 711.24 553.05 718.39"/><polyline class="b" points="582.31 704 582.45 712 582.68 720 582.23 728"/><polyline class="b" points="622.08 723.63 619.14 730.86 615.3 737.65"/><polygon class="b" points="567.1 627.6 562.29 632.53 557.36 637.68 552.49 642.91 548.31 648.79 546.96 655.81 549.89 661.71 556.01 665.02 563.07 665.9 568.8 661.86 571.63 655.29 571.6 648.12 570.4 641.1 568.64 634.23 567.1 627.6"/><polygon points="542.18 556.89 536.31 561.84 531.44 567.51 525.71 572.37 521.12 578.28 516.7 584.3 512.09 590.15 507.15 595.81 503.68 602.46 500.14 608.9 507.42 609.46 514.7 610.33 521.87 612.11 529.17 612.83 536.34 613.25 539.95 608.39 543.53 603.26 547.78 598.5 546.25 591.58 546.09 584.58 544.9 577.71 543.63 570.85 542.4 563.97 542.18 556.89"/><polygon class="b" points="542.18 556.89 536.31 561.84 531.44 567.51 525.71 572.37 521.12 578.28 516.7 584.3 512.09 590.15 507.15 595.81 503.68 602.46 500.14 608.9 507.42 609.46 514.7 610.33 521.87 612.11 529.17 612.83 536.34 613.25 539.95 608.39 543.53 603.26 547.78 598.5 546.25 591.58 546.09 584.58 544.9 577.71 543.63 570.85 542.4 563.97 542.18 556.89"/><polyline points="649 615.05 647.13 608.27 646.73 601.23 645.69 594.3 643.54 587.56 642.34 580.66 641.12 573.76 640.13 566.82 639.6 559.8 637.72 553.11 636.12 559.51 633.37 565.85 631.55 572.49 628.92 578.85 627.22 585.57 623.91 591.66 621.15 597.95 618.63 604.38 614.69 610.03 610.04 614.82"/><polyline class="b" points="649 615.05 647.13 608.27 646.73 601.23 645.69 594.3 643.54 587.56 642.34 580.66 641.12 573.76 640.13 566.82 639.6 559.8 637.72 553.11 636.12 559.51 633.37 565.85 631.55 572.49 628.92 578.85 627.22 585.57 623.91 591.66 621.15 597.95 618.63 604.38 614.69 610.03 610.04 614.82"/><polyline class="b" points="563.31 657.04 565.28 651.62 567.82 646.46"/><polyline class="b" points="615.21 495.44 609.35 500.13 603.53 504.82 597.87 509.77 593.19 515.66 588.91 521.85 585.87 528.74 583.43 535.8 581.17 542.93 579.69 550.3"/><polyline class="b" points="567.98 531.27 575 530.61 582.03 530.96 588.8 532.78 595.47 535.05 601.25 539.11"/><polygon class="b" points="733.18 583.01 731.52 591.19 725.43 597.02 717.34 599.49 709.1 597.28 703.28 591.13 701.41 583.01 702.13 575.74 703.79 568.63 706.04 561.67 707.97 554.63 710.63 547.82 713.06 540.94 714.54 533.75 717.34 526.61 719.36 534.01 721.72 540.9 724.28 547.74 726.42 554.71 727.94 561.87 730.68 568.68 732.07 575.86 733.18 583.01"/><polygon class="b" points="118.31 544.02 36.88 682.45 221.38 641.1 326.75 684.17 368.44 613.3 241 599.01 118.31 544.02"/><polyline class="b" points="36.88 682.45 155.02 765.9 238.16 599.16"/><line class="b" x1="326.75" y1="684.18" x2="155.02" y2="765.9"/><polyline class="b" points="118.31 544.02 265.75 552.94 368.44 613.3"/><line class="b" x1="265.75" y1="552.94" x2="219.09" y2="637.42"/></svg>