<svg xmlns="http://www.w3.org/2000/svg" viewBox="0 0 800 800"><defs><style>.a{fill:#fff;}.b{fill:none;stroke:#000;stroke-linejoin:bevel;stroke-width:13px;}</style></defs><title>canvas (63)</title><polyline class="a" points="436.99 612.68 433.77 618.7 430.45 624.66 427.75 630.93 425.17 637.26 423.48 643.89 422.7 650.65 422.65 657.43 424 664.13 427.95 669.75 431.1 676.17 431.38 683.42 429.39 690.53 426.24 697.23 422.44 703.57 418.71 710.01 413.88 715.67 409.8 721.92 404.41 727.08 399.2 732.49 400.87 732.45 395.41 727.24 390.45 721.71 386.04 715.74 381.41 709.93 377.4 703.68 373.41 697.41 370.39 690.61 368.56 683.43 368.45 676.07 371.74 669.44 375.7 663.99 377.99 657.5 377.35 650.63 376.19 643.94 375.09 637.15 372.08 630.97 369.21 624.79 366.73 618.37 362.83 612.74"/><polyline class="b" points="436.99 612.68 433.77 618.7 430.45 624.66 427.75 630.93 425.17 637.26 423.48 643.89 422.7 650.65 422.65 657.43 424 664.13 427.95 669.75 431.1 676.17 431.38 683.42 429.39 690.53 426.24 697.23 422.44 703.57 418.71 710.01 413.88 715.67 409.8 721.92 404.41 727.08 399.2 732.49 400.87 732.45 395.41 727.24 390.45 721.71 386.04 715.74 381.41 709.93 377.4 703.68 373.41 697.41 370.39 690.61 368.56 683.43 368.45 676.07 371.74 669.44 375.7 663.99 377.99 657.5 377.35 650.63 376.19 643.94 375.09 637.15 372.08 630.97 369.21 624.79 366.73 618.37 362.83 612.74"/><polygon class="a" points="457.9 611.76 455.05 618.64 449.83 623.88 443.19 627.15 436.54 630.41 429.43 632.53 422.2 634.21 414.78 634.69 407.44 635.98 400 636.09 392.57 635.84 385.21 634.82 377.78 634.34 370.66 632.15 363.35 630.7 356.6 627.57 350.37 623.59 344.65 618.85 342.22 611.76 345.29 605.13 350.31 599.84 356.39 595.52 363.44 593.06 370.46 590.59 377.78 589.21 385.18 588.44 392.56 587.53 400 588.09 407.41 588.01 414.79 588.68 422.17 589.46 429.34 591.38 436.69 592.7 443.6 595.55 449.81 599.68 455.31 604.7 457.9 611.76"/><polygon class="b" points="457.9 611.76 455.05 618.64 449.83 623.88 443.19 627.15 436.54 630.41 429.43 632.53 422.2 634.21 414.78 634.69 407.44 635.98 400 636.09 392.57 635.84 385.21 634.82 377.78 634.34 370.66 632.15 363.35 630.7 356.6 627.57 350.37 623.59 344.65 618.85 342.22 611.76 345.29 605.13 350.31 599.84 356.39 595.52 363.44 593.06 370.46 590.59 377.78 589.21 385.18 588.44 392.56 587.53 400 588.09 407.41 588.01 414.79 588.68 422.17 589.46 429.34 591.38 436.69 592.7 443.6 595.55 449.81 599.68 455.31 604.7 457.9 611.76"/><polygon class="a" points="357.72 605.47 363 609.14 368.14 612.68 369.45 605.04 369.99 597.28 371.47 589.67 372.18 581.93 373.27 574.54 367.71 573.17 361.8 571.72 355.74 570.48 355.7 578.9 355.61 587.25 355.06 595.59 357.72 605.47"/><polyline class="a" points="514.82 271.85 512.85 278.96 509.94 285.74 506.37 292.18 502.6 298.5 497.83 304.12 492.86 309.49 487.84 314.82 482.13 319.39 476.71 324.42 470.44 328.28 463.78 331.43 457.11 334.49 450.09 336.68 443.33 339.67 436.1 341.09 428.92 342.73 421.63 343.76 414.25 343.75 406.95 344.73 399.6 344.93 400 344.48 392.67 344.17 385.28 344.59 377.96 343.75 370.81 341.9 363.46 341.22 356.37 339.26 349.5 336.67 342.58 334.23 335.73 331.57 329.44 327.75 323.19 323.91 317.46 319.35 311.92 314.59 306.54 309.62 301.85 303.99 297.4 298.17 293.6 291.91 290.34 285.35 286.94 278.83 285 271.36"/><polyline class="b" points="514.82 271.85 512.85 278.96 509.94 285.74 506.37 292.18 502.6 298.5 497.83 304.12 492.86 309.49 487.84 314.82 482.13 319.39 476.71 324.42 470.44 328.28 463.78 331.43 457.11 334.49 450.09 336.68 443.33 339.67 436.1 341.09 428.92 342.73 421.63 343.76 414.25 343.75 406.95 344.73 399.6 344.93 400 344.48 392.67 344.17 385.28 344.59 377.96 343.75 370.81 341.9 363.46 341.22 356.37 339.26 349.5 336.67 342.58 334.23 335.73 331.57 329.44 327.75 323.19 323.91 317.46 319.35 311.92 314.59 306.54 309.62 301.85 303.99 297.4 298.17 293.6 291.91 290.34 285.35 286.94 278.83 285 271.36"/><polyline points="485.73 266.07 482.88 272.75 479.95 279.35 475.66 285.16 471.9 291.39 466.69 296.45 460.75 300.58 455.11 305.1 448.83 308.7 442.19 311.59 435.17 313.34 428.42 316.02 421.2 316.73 414.13 318.46 406.89 318.91 399.65 318.89 399.95 318.67 392.67 318.82 385.4 318.43 378.31 316.64 371.18 315.36 364.18 313.5 357.32 311.14 350.66 308.25 344.33 304.68 338.57 300.28 332.91 295.75 327.84 290.55 323.8 284.52 319.75 278.52 316.11 272.2 314.5 265.1"/><polyline class="b" points="485.73 266.07 482.88 272.75 479.95 279.35 475.66 285.16 471.9 291.39 466.69 296.45 460.75 300.58 455.11 305.1 448.83 308.7 442.19 311.59 435.17 313.34 428.42 316.02 421.2 316.73 414.13 318.46 406.89 318.91 399.65 318.89 399.95 318.67 392.67 318.82 385.4 318.43 378.31 316.64 371.18 315.36 364.18 313.5 357.32 311.14 350.66 308.25 344.33 304.68 338.57 300.28 332.91 295.75 327.84 290.55 323.8 284.52 319.75 278.52 316.11 272.2 314.5 265.1"/><polygon class="a" points="524.77 270.88 517.42 271.36 510.08 271.86 502.78 272.9 495.41 272.94 488.09 273.73 480.73 273.99 473.39 274.54 466.08 275.5 458.74 275.91 451.38 276.12 444.08 277.25 436.71 277.23 429.37 277.86 422.04 278.49 414.69 278.98 407.34 279.38 400 280.42 392.63 279.94 385.31 279.16 378.01 278.04 370.67 277.59 363.31 277.34 355.94 277.31 348.6 276.78 341.25 276.33 333.98 274.92 326.62 274.69 319.25 274.62 311.95 273.56 304.6 273.16 297.27 272.42 289.9 272.33 282.58 271.43 275.2 271.36 268.66 267.17 262.12 262.79 256.7 257.06 250.58 252.09 245.73 246.05 249.91 240.14 257.67 237.98 264.78 238.79 271.9 238.64 279.01 238.59 286.13 238.38 293.24 238.6 300.36 238.41 307.47 238.57 314.59 238.4 321.7 237.97 328.82 238.61 335.94 238.48 343.05 238.76 350.16 238.49 357.27 238.4 364.39 238.7 371.5 237.91 378.61 238.66 385.73 238.71 392.84 238.14 399.96 238.41 407.07 238.59 414.19 238.7 421.3 238.27 428.42 238.31 435.54 238.13 442.66 238.42 449.77 237.97 456.89 238.4 464.01 238.29 471.13 238.35 478.25 237.97 485.37 238.69 492.48 238.46 499.6 237.89 506.72 238.21 513.84 237.91 520.96 238.35 528.08 238.37 535.21 238.62 542.33 238.43 550.24 239.83 554.29 246.06 548.79 251.47 543.41 257.18 537.35 262.17 531.71 267.66 524.77 270.88"/><polygon class="b" points="524.77 270.88 517.42 271.36 510.08 271.86 502.78 272.9 495.41 272.94 488.09 273.73 480.73 273.99 473.39 274.54 466.08 275.5 458.74 275.91 451.38 276.12 444.08 277.25 436.71 277.23 429.37 277.86 422.04 278.49 414.69 278.98 407.34 279.38 400 280.42 392.63 279.94 385.31 279.16 378.01 278.04 370.67 277.59 363.31 277.34 355.94 277.31 348.6 276.78 341.25 276.33 333.98 274.92 326.62 274.69 319.25 274.62 311.95 273.56 304.6 273.16 297.27 272.42 289.9 272.33 282.58 271.43 275.2 271.36 268.66 267.17 262.12 262.79 256.7 257.06 250.58 252.09 245.73 246.05 249.91 240.14 257.67 237.98 264.78 238.79 271.9 238.64 279.01 238.59 286.13 238.38 293.24 238.6 300.36 238.41 307.47 238.57 314.59 238.4 321.7 237.97 328.82 238.61 335.94 238.48 343.05 238.76 350.16 238.49 357.27 238.4 364.39 238.7 371.5 237.91 378.61 238.66 385.73 238.71 392.84 238.14 399.96 238.41 407.07 238.59 414.19 238.7 421.3 238.27 428.42 238.31 435.54 238.13 442.66 238.42 449.77 237.97 456.89 238.4 464.01 238.29 471.13 238.35 478.25 237.97 485.37 238.69 492.48 238.46 499.6 237.89 506.72 238.21 513.84 237.91 520.96 238.35 528.08 238.37 535.21 238.62 542.33 238.43 550.24 239.83 554.29 246.06 548.79 251.47 543.41 257.18 537.35 262.17 531.71 267.66 524.77 270.88"/><polygon class="a" points="584.32 238.33 577.78 241.03 570.66 241.54 563.61 242.53 556.47 242.49 549.41 243.48 542.32 244.14 535.21 244.37 528.12 245.09 520.99 244.91 513.87 244.92 506.79 245.94 499.65 245.4 492.55 245.88 485.43 246.12 478.32 246.62 471.19 245.94 464.09 246.8 456.97 246.7 449.85 247.15 442.73 246.64 435.61 246.98 428.49 246.97 421.37 247.14 414.25 247.31 407.13 247.51 400 247.49 392.88 246.6 385.76 246.91 378.64 246.6 371.52 246.58 364.4 246.91 357.27 247.22 350.16 247.09 343.04 246.81 335.94 246.24 328.81 246.4 321.69 246.27 314.59 245.7 307.46 245.82 300.34 246 293.23 245.68 286.13 245.01 279.01 244.92 271.88 244.97 264.81 243.99 257.7 243.73 250.56 243.94 243.47 243.08 236.37 242.59 229.27 242.03 222.2 241.08 215.6 238.33 222.27 235.94 229.31 234.84 236.41 234.29 243.52 233.97 250.56 232.76 257.68 232.6 264.77 231.93 271.9 232.03 279 231.3 286.13 231.73 293.23 231.12 300.34 230.91 307.44 230.27 314.57 230.56 321.69 230.79 328.81 230.31 335.91 229.63 343.04 230.15 350.15 229.99 357.27 229.37 364.39 229.83 371.5 229.28 378.63 229.22 385.75 229.45 392.87 229.06 400 229.79 407.12 229.36 414.24 229.41 421.36 229.59 428.49 229.41 435.61 229.38 442.73 229.42 449.84 229.85 456.95 230.11 464.07 230.36 471.19 230.1 478.3 230.76 485.42 230.51 492.54 230.87 499.65 231.2 506.77 230.96 513.89 231.08 521.01 231.31 528.08 232.51 535.21 232.42 542.3 232.93 549.4 233.45 556.55 233.28 563.6 234.44 570.67 235.1 577.72 236.01 584.32 238.33"/><polygon class="b" points="584.32 238.33 577.78 241.03 570.66 241.54 563.61 242.53 556.47 242.49 549.41 243.48 542.32 244.14 535.21 244.37 528.12 245.09 520.99 244.91 513.87 244.92 506.79 245.94 499.65 245.4 492.55 245.88 485.43 246.12 478.32 246.62 471.19 245.94 464.09 246.8 456.97 246.7 449.85 247.15 442.73 246.64 435.61 246.98 428.49 246.97 421.37 247.14 414.25 247.31 407.13 247.51 400 247.49 392.88 246.6 385.76 246.91 378.64 246.6 371.52 246.58 364.4 246.91 357.27 247.22 350.16 247.09 343.04 246.81 335.94 246.24 328.81 246.4 321.69 246.27 314.59 245.7 307.46 245.82 300.34 246 293.23 245.68 286.13 245.01 279.01 244.92 271.88 244.97 264.81 243.99 257.7 243.73 250.56 243.94 243.47 243.08 236.37 242.59 229.27 242.03 222.2 241.08 215.6 238.33 222.27 235.94 229.31 234.84 236.41 234.29 243.52 233.97 250.56 232.76 257.68 232.6 264.77 231.93 271.9 232.03 279 231.3 286.13 231.73 293.23 231.12 300.34 230.91 307.44 230.27 314.57 230.56 321.69 230.79 328.81 230.31 335.91 229.63 343.04 230.15 350.15 229.99 357.27 229.37 364.39 229.83 371.5 229.28 378.63 229.22 385.75 229.45 392.87 229.06 400 229.79 407.12 229.36 414.24 229.41 421.36 229.59 428.49 229.41 435.61 229.38 442.73 229.42 449.84 229.85 456.95 230.11 464.07 230.36 471.19 230.1 478.3 230.76 485.42 230.51 492.54 230.87 499.65 231.2 506.77 230.96 513.89 231.08 521.01 231.31 528.08 232.51 535.21 232.42 542.3 232.93 549.4 233.45 556.55 233.28 563.6 234.44 570.67 235.1 577.72 236.01 584.32 238.33"/><polyline class="a" points="299.29 206.06 305.02 210.91 311.74 214.28 318.22 216.67 316.9 210.25 313.12 203.81 309.69 197.16 305.42 191 302.19 184.24 298.71 177.6 296 170.6 294.12 163.34 293.73 155.86 294.02 148.35 291.96 141.11 290.1 133.83 286.24 127.37 282.03 121.19 277.16 115.55 272.24 109.94 266.88 104.72 261.02 100.29 264.87 105.79 266.08 112.53 265.86 119.31 264.36 125.94 262.93 132.58 261 139.11 259.54 145.75 258.31 152.46 256.73 159.35 256.91 166.43 257.29 173.51 258.88 180.42 259.86 187.5 262.51 194.12 265.23 200.68 267.54 207.42 270.57 213.85 273.86 220.16 277.3 226.39 280.89 232.53 285.01 238.32 289.32 245.45 296.51 245.93 303.61 245.64 310.67 246.75 317.78 246.26 324.86 246.57 331.94 246.73 339.02 247.37 346.11 247.07 353.2 247.12 360.29 247.15 367.37 247.88 374.46 248.29 381.56 247.54 388.64 247.98 395.74 248.13 402.83 248.34 409.92 247.92 417.01 248.11 424.11 247.74 431.19 247.87 438.28 247.34 445.37 247.66 452.46 247.49 459.55 246.94 466.66 247.39 473.74 246.92 480.85 247.18 487.94 246.95 495 246 502.1 245.74 509.21 245.89 516.34 244.71 521 242.83 520.97 237.04 518.95 230.32 518.27 223.33 518.04 216.35 517.96 209.35 518.58 202.35 519.8 195.43 521.5 188.6 524.07 182.04 526.52 175.45 529.62 169.13 532.98 163 535.46 156.46 536.87 149.61 538.31 142.82 538.5 135.89 538.18 128.98 536.54 122.26 534.16 115.71 530.13 110.64 530.31 117.87 529.98 125.52 528.75 133.09 525.53 140.05 522.16 146.84 517.34 152.68 512.92 157.89 508 162.6 502.49 166.65 497.83 171.66 492.48 175.91 488.4 181.39 485.49 187.61 484.88 194.49 485.43 201.13 483.49 207.43 478.9 211.72"/><polyline class="b" points="299.29 206.06 305.02 210.91 311.74 214.28 318.22 216.67 316.9 210.25 313.12 203.81 309.69 197.16 305.42 191 302.19 184.24 298.71 177.6 296 170.6 294.12 163.34 293.73 155.86 294.02 148.35 291.96 141.11 290.1 133.83 286.24 127.37 282.03 121.19 277.16 115.55 272.24 109.94 266.88 104.72 261.02 100.29 264.87 105.79 266.08 112.53 265.86 119.31 264.36 125.94 262.93 132.58 261 139.11 259.54 145.75 258.31 152.46 256.73 159.35 256.91 166.43 257.29 173.51 258.88 180.42 259.86 187.5 262.51 194.12 265.23 200.68 267.54 207.42 270.57 213.85 273.86 220.16 277.3 226.39 280.89 232.53 285.01 238.32 289.32 245.45 296.51 245.93 303.61 245.64 310.67 246.75 317.78 246.26 324.86 246.57 331.94 246.73 339.02 247.37 346.11 247.07 353.2 247.12 360.29 247.15 367.37 247.88 374.46 248.29 381.56 247.54 388.64 247.98 395.74 248.13 402.83 248.34 409.92 247.92 417.01 248.11 424.11 247.74 431.19 247.87 438.28 247.34 445.37 247.66 452.46 247.49 459.55 246.94 466.66 247.39 473.74 246.92 480.85 247.18 487.94 246.95 495 246 502.1 245.74 509.21 245.89 516.34 244.71 521 242.83 520.97 237.04 518.95 230.32 518.27 223.33 518.04 216.35 517.96 209.35 518.58 202.35 519.8 195.43 521.5 188.6 524.07 182.04 526.52 175.45 529.62 169.13 532.98 163 535.46 156.46 536.87 149.61 538.31 142.82 538.5 135.89 538.18 128.98 536.54 122.26 534.16 115.71 530.13 110.64 530.31 117.87 529.98 125.52 528.75 133.09 525.53 140.05 522.16 146.84 517.34 152.68 512.92 157.89 508 162.6 502.49 166.65 497.83 171.66 492.48 175.91 488.4 181.39 485.49 187.61 484.88 194.49 485.43 201.13 483.49 207.43 478.9 211.72"/><polyline class="a" points="302.58 225.61 300.54 219.09 300.88 212.28 302.35 205.65 303.61 199 306.09 192.69 309.35 186.55 311.77 180.03 313.54 173.31 316.17 166.88 317.96 160.18 319.26 153.37 320.94 146.65 321.67 139.76 322.08 132.85 321.05 126.09 326.44 130.8 332.31 135.06 336.97 140.6 341.42 146.28 345.25 152.39 348.61 158.75 351.64 165.3 353.28 172.33 354.31 179.43 355.7 186.56 355.14 193.91 356.33 195.39 356.98 188.09 358.06 180.83 359.04 173.56 360.46 166.36 361.89 159.17 363.03 151.92 364.58 144.74 366.88 137.76 369.35 130.86 371.12 123.69 373.85 116.94 376.94 110.29 378.22 103.06 380.64 96.13 381.04 88.81 381.01 81.55 379.86 74.44 377.66 67.49 380.73 72.69 385.37 78.19 388.97 84.38 391.89 90.92 394.65 97.5 397.2 104.15 399.45 110.93 401.04 117.93 400.85 125.1 399.63 132.09 398.46 139.72 397.78 147.39 398.34 155.06 399.53 162.68 402.84 169.66 407.04 176.12 412.17 181.84 415.71 187.41 417.06 193.92 417.88 200.51 418.13 207.15 417.47 213.76"/><polyline class="b" points="302.58 225.61 300.54 219.09 300.88 212.28 302.35 205.65 303.61 199 306.09 192.69 309.35 186.55 311.77 180.03 313.54 173.31 316.17 166.88 317.96 160.18 319.26 153.37 320.94 146.65 321.67 139.76 322.08 132.85 321.05 126.09 326.44 130.8 332.31 135.06 336.97 140.6 341.42 146.28 345.25 152.39 348.61 158.75 351.64 165.3 353.28 172.33 354.31 179.43 355.7 186.56 355.14 193.91 356.33 195.39 356.98 188.09 358.06 180.83 359.04 173.56 360.46 166.36 361.89 159.17 363.03 151.92 364.58 144.74 366.88 137.76 369.35 130.86 371.12 123.69 373.85 116.94 376.94 110.29 378.22 103.06 380.64 96.13 381.04 88.81 381.01 81.55 379.86 74.44 377.66 67.49 380.73 72.69 385.37 78.19 388.97 84.38 391.89 90.92 394.65 97.5 397.2 104.15 399.45 110.93 401.04 117.93 400.85 125.1 399.63 132.09 398.46 139.72 397.78 147.39 398.34 155.06 399.53 162.68 402.84 169.66 407.04 176.12 412.17 181.84 415.71 187.41 417.06 193.92 417.88 200.51 418.13 207.15 417.47 213.76"/><polyline class="a" points="416.69 190.92 421.64 185.09 426.87 179.52 430.93 173.02 435.36 166.84 439.55 160.5 443.44 153.91 445.42 146.53 447.5 139.21 448.78 132.2 450.26 125.26 452.39 118.49 455.07 111.92 458.77 105.9 462.06 111.77 465.07 117.84 468.01 123.93 471 130 473.95 136.12 475.94 142.61 477.29 149.23 478.23 155.89 475.51 163.1 472.48 170.18 469.67 177.37 467.82 184.89 465.7 192.28 465.25 200.05 469.92 206.06 474.65 209.93 478.12 214.96 478.51 221.01"/><polyline class="b" points="416.69 190.92 421.64 185.09 426.87 179.52 430.93 173.02 435.36 166.84 439.55 160.5 443.44 153.91 445.42 146.53 447.5 139.21 448.78 132.2 450.26 125.26 452.39 118.49 455.07 111.92 458.77 105.9 462.06 111.77 465.07 117.84 468.01 123.93 471 130 473.95 136.12 475.94 142.61 477.29 149.23 478.23 155.89 475.51 163.1 472.48 170.18 469.67 177.37 467.82 184.89 465.7 192.28 465.25 200.05 469.92 206.06 474.65 209.93 478.12 214.96 478.51 221.01"/><polyline class="b" points="328.88 245.01 329.9 238.36 331.53 231.89 332.97 225.35 333.7 218.69 333.85 212 332.84 206.01 331.9 200.04 331.25 193.9 334.94 200.33 337.97 207.03 341.6 213.41 344.74 220.05 347.88 226.71 349.35 233.99"/><polyline class="b" points="377.54 247.94 375.22 241.52 372.94 235.04 372.15 228.22 371.7 221.35 372.87 214.53 375.87 207.32 379.5 200.44 383.06 193.52 383.58 185.87 381.28 178.98 384.55 185.28 388.51 191.6 392.05 198.16 394.88 205.07 397.44 212.08 397.54 219.39 399.19 224.8 404.63 227.44 407.19 233.03"/><polyline class="b" points="435.36 245.11 439.79 238.47 443.03 231.17 444.65 223.39 444.91 215.49 443.97 208.95 443.34 202.33 444.03 195.73 445 189.53 446.27 196.76 448.23 204.16 450.64 211.43 452.11 218.94 454.48 226.2 456.42 233.61 459.22 240.75 463.55 247"/><polyline class="a" points="399.98 168.11 406.17 163.41 410.95 157.23 414.93 150.51 417.19 143.02 420.21 135.83 421.99 128.6 425.18 134.78 428.45 141.4 429.01 148.76 429.31 156.08 427.63 163.2 425.93 171.85 427.73 177.34"/><polyline class="b" points="399.98 168.11 406.17 163.41 410.95 157.23 414.93 150.51 417.19 143.02 420.21 135.83 421.99 128.6 425.18 134.78 428.45 141.4 429.01 148.76 429.31 156.08 427.63 163.2 425.93 171.85 427.73 177.34"/><polyline class="b" points="492.36 174.02 491.13 167.38 489.89 160.72 489.3 153.97 488.91 147.2 489.3 140.44 489.91 133.7 490.85 127 492.37 119.92 485.77 123.27 480.95 128.27 477.2 134.03 474.82 140.66"/><polyline class="b" points="293.77 153.35 293.81 145.71 295.22 138.19 296.18 130.64 298.21 123.31 300.42 116.06 304.3 109.66 307.84 103.98 310.66 97.96 313.35 91.85 314.29 85.37 313.17 91.97 312.54 98.75 312.62 105.58 311.33 112.32 311.71 119.15 311.2 125.98 311.84 132.8 314.5 139.06 316.67 144.94 318.41 150.86 318.78 157.03"/><polygon class="a" points="399.68 618.09 407.97 616.99 415.89 615.77 423.67 614.82 426.33 610.53 427.34 603.21 427.05 595.75 427.2 588.3 427.63 580.86 428.16 573.57 421.57 574.57 414.97 576.33 408.14 576.94 401.7 578.82 400.87 586.49 400.43 594.29 400.65 602.12 400.72 609.95 399.68 618.09"/><polyline class="b" points="338.85 146.49 339.31 139.39 339.82 132.28 341.92 125.46 343.82 118.61 347.43 112.49 350.86 106.77 354.64 101.23 356.75 94.87 359.45 88.59 359.9 95.57 360.53 102.35 361.34 109.1 362.57 115.8 365.05 122.12 367.74 128.41"/><polyline class="b" points="400.88 128.28 402.14 121.6 404.84 115.34 406.43 108.74 409.38 102.63 412.24 96.54 416.56 91.84 422.71 87.61 429.36 84.25 435.2 79.5 430.52 86.19 425.86 92.78 422.21 100.03 422.61 107.95 426.77 112.9 432 117 437.48 120.76 442.59 124.91 446.19 130.35 447.71 136.74"/><polyline class="b" points="256.51 238.8 264.76 238.52 273.02 237.94 281.27 237.71"/><polyline class="b" points="546.22 237.92 539.78 237.49 533.37 236.67 526.91 236.49"/><polyline class="b" points="454.17 331.88 454.38 339.06 453.65 346.19 453.54 353.34 453.26 360.5 453.12 367.65 452.32 374.78 452.54 381.95 451.88 389.08 451.37 396.23 451.21 403.38 451.02 410.53 451.12 417.69 450.78 424.84 450.23 431.98 450.31 439.14 449.58 446.27 448.72 453.39 448.52 460.55 448.38 467.7 447.93 474.85 447.47 481.99 447.65 489.16 447.11 496.3 446.83 503.46 446.99 510.63 446.15 517.76 445.61 524.9 445.38 532.05 444.94 539.2 445.03 546.37 444.56 553.51 443.97 560.65 444.04 567.82 444.13 575 443.95 582.15 442.8 589.27 442.51 596.43 442.05 603.55 437.41 609.34 430.57 612.96 423.24 615.57 415.57 617.03 407.76 616.99 400 617.99 399.8 618.06 392.03 617.18 384.24 616.92 376.71 614.92 369.06 613.36 362.29 609.47 357.74 603.55 356.68 596.47 356.36 589.32 356.63 582.15 356.35 575 355.58 567.87 355.47 560.72 355.41 553.55 354.49 546.43 354.06 539.29 353.76 532.14 354.18 524.97 353.63 517.83 353.01 510.7 353.22 503.53 352.57 496.4 351.92 489.26 351.76 482.11 351.7 474.95 350.75 467.83 351.06 460.65 350.74 453.51 350.06 446.37 349.95 439.22 349.25 432.08 349.06 424.93 349.26 417.75 348.61 410.62 348.21 403.47 348.41 396.29 348.11 389.14 347.3 382.01 346.98 374.86 346.92 367.7 346.26 360.56 345.74 353.42 345.49 346.26 345.26 339.1 344.9 331.94"/><polyline class="b" points="347.3 377.01 353.91 379.88 360.72 382.33 367.7 384.21 374.75 385.87 381.85 387.27 389.07 387.86 396.31 387.81 403.52 388.32 410.72 387.64 417.96 387.51 425.07 386.17 432.14 384.65 439.14 382.8 445.71 379.72 452.58 377.39"/><polyline class="b" points="348.71 424.37 355.18 427.09 362.02 428.73 368.57 431.37 375.48 432.73 382.44 433.64 389.39 434.63 396.38 435.34 403.42 435.45 410.43 434.89 417.41 434.13 424.27 432.7 431.1 431.16 438.05 429.92 444.42 426.88 450.88 424.15"/><polyline class="b" points="350.25 471.48 357.03 474.15 364.08 476.02 371 478.35 378.17 479.67 385.3 481.34 392.64 481.29 399.9 481.71 407.18 481.51 414.44 480.95 421.67 480.1 428.85 478.81 435.88 476.85 442.59 473.98 449.48 471.55"/><polyline class="b" points="352.01 518.1 358.23 521.54 365 523.6 371.81 525.6 378.74 527.07 385.78 527.9 392.87 527.93 399.9 528.76 406.98 528.98 414 527.93 421.05 527.26 427.93 525.62 434.75 523.74 441.26 521 447.94 518.65"/><polyline class="b" points="353.5 565.31 360.17 568.39 367.07 571.06 374.33 572.46 381.5 574.26 388.89 574.67 396.2 575.66 403.59 575.68 410.98 575.54 418.18 573.75 425.57 573.18 432.63 571.02 439.41 568.11 446.17 565.26"/><polyline class="b" points="372.43 613.19 372.76 605.95 371.98 598.71 371.98 591.47 371.82 584.23 371.89 576.98 372.51 569.74 372.38 562.5 372.34 555.26 372.55 548.02 372.26 540.78 372.01 533.54 372.68 526.3 371.99 519.06 372.25 511.82 372.61 504.58 372.59 497.34 372.41 490.1 372.79 482.86 372.42 475.61 371.97 468.37 372.55 461.13 372.15 453.88 372.51 446.64 372.59 439.4 371.95 432.15 372.63 424.91 372.02 417.66 372.27 410.42 372.51 403.17 372.09 395.93 372.46 388.68 372.04 381.44 372.44 374.19 371.86 366.94 372.04 359.7 372.19 352.44 372.18 345.19"/><polyline class="b" points="426.12 345.19 426.4 352.44 426.18 359.68 426.74 366.92 426.19 374.16 426 381.4 426.31 388.64 426.42 395.88 425.94 403.13 425.88 410.37 426.64 417.6 426.27 424.84 426.59 432.08 426.74 439.32 425.98 446.56 426.48 453.81 425.82 461.05 426.64 468.29 425.99 475.53 426.77 482.77 426.32 490.01 426.7 497.26 426.8 504.5 425.83 511.74 426.63 518.99 426 526.23 426.13 533.48 425.96 540.72 426.27 547.97 426.22 555.21 426.77 562.46 426.65 569.7 426.03 576.95 426.27 584.19 426.22 591.44 426.73 598.69 425.82 605.94 426.49 613.19"/><polyline class="b" points="399.98 345.19 400.02 352.44 400.77 359.68 400.65 366.92 400.35 374.16 400.11 381.4 400.2 388.64 400.24 395.88 399.88 403.13 399.97 410.37 400.09 417.6 400.02 424.84 400.7 432.08 400.52 439.32 400.55 446.56 399.92 453.81 400.25 461.05 400.21 468.29 400.37 475.53 399.83 482.77 400.14 490.01 400.78 497.26 399.83 504.5 400.24 511.74 399.83 518.99 400.66 526.23 400.53 533.48 400.42 540.72 400.77 547.97 399.81 555.21 400.21 562.46 400.65 569.7 399.98 576.95 400.51 584.19 400.57 591.44 399.94 598.69 400.54 605.94 399.88 613.19"/><polygon points="348.56 342.82 349.03 349.88 349.87 356.7 350.81 363.51 351.04 370.4 352.13 376.94 359.37 379.34 367.05 381.48 367.82 374.56 367.97 367.77 368.19 360.97 368.94 354.21 368.67 347.66 362.24 345.96 355.6 344.01 348.56 342.82"/><polygon points="400.11 350.26 401.27 357.64 402.51 364.91 403.22 372.24 404.49 379.51 404.77 387.15 412.28 385.79 419.51 384.26 426.98 383.02 426.07 376.11 426.17 369.36 425.55 362.64 425.14 355.91 424.86 349.42 417.97 347.72 410.69 346.81 403.38 344.99 400.11 350.26"/><polygon points="371.72 391.1 372.05 398.87 371.5 406.54 372.23 414.21 371.77 421.89 371.77 429.6 378.98 430.81 386.16 432.05 393.31 433.49 400.15 435.03 399.47 427.96 399.09 420.59 398.31 413.26 397.89 405.89 397.53 398.51 396.63 391.02 388.27 391.46 380.04 391.25 371.72 391.1"/><polygon points="428.03 390.95 428.29 398.72 428.52 406.48 429.32 414.22 429.07 422 429.11 430.04 435.71 427.48 442.2 425.69 449.06 424.51 448.98 417.16 449.21 410 448.83 402.83 448.6 395.67 448.4 388.49 448.84 381.26 441.74 384.19 435.01 387.83 428.03 390.95"/><polygon points="350.22 427.44 357.36 430.43 364.6 432.94 371.68 435.5 371.57 442.13 371.07 449.07 371.51 456.06 370.9 463.01 370.02 469.92 368.88 476.21 362.96 474.25 357.21 471.05 351.51 467.39 351.94 460.65 351.25 454.04 351.19 447.41 350.51 440.8 350.13 434.17 350.22 427.44"/><polygon points="404.48 439.8 404.23 446.33 404.75 453.14 404.31 459.98 405.18 466.78 405.34 473.61 405.47 480.19 411.88 479.17 418.45 477.58 425.31 476.82 424.89 469.77 424.83 462.85 423.9 455.96 424.47 449.01 423.94 442.09 423.3 435.3 417.01 436.85 410.64 438.51 404.48 439.8"/><polygon points="377.36 483.66 383.43 484.52 389.49 485.53 395.37 486.19 396.1 493.52 396.57 501.03 396.5 508.57 396.94 516.09 396.65 523.54 395.03 525.5 386.17 524.79 377.53 523.41 376.55 516.28 375.02 509.05 373.86 501.79 374.75 495.72 376.5 489.78 377.36 483.66"/><polygon points="428.53 483.83 429.54 491.45 429.33 499.23 430.05 506.93 431.44 514.58 431.64 522.33 439.2 519.82 447.17 517.76 446.61 510.71 446.73 503.96 446.51 497.21 447.29 490.45 446.43 483.7 446.78 476.97 440.64 479.09 434.65 481.71 428.53 483.83"/><polygon points="358.16 523.64 364.15 526.59 369.57 530.28 370.19 537.76 369.73 545.36 369.44 552.96 370 560.57 369.71 568.03 363.32 565.38 356.69 562.27 357.04 554.34 357.94 546.68 358.22 539 357.58 531.29 358.16 523.64"/><polygon points="406.18 530.82 405.17 536.64 404.77 543.78 404.32 550.97 404.97 558.16 404.87 565.36 404.8 572.56 412.2 571.51 419.51 569.93 426.99 569.3 426.82 561.65 426.18 554.05 425.89 546.43 425.75 538.8 425.07 531.26 418.91 531.56 412.67 531.33 406.18 530.82"/><polygon points="376.91 575.32 377.27 582.38 377.15 589.57 376.99 596.76 376.58 603.96 376.75 611.21 383.77 612.42 390.87 613.42 397.81 614.17 397.81 607.59 397.98 600.81 397.8 594.03 397.95 587.24 398.14 580.19 390.93 578.23 383.85 576.81 376.91 575.32"/><polygon points="431.03 576.96 438.95 572.24 439.07 580.45 439.03 588.34 438.68 596.24 438.88 604.19 430.81 609.37 430.44 602.88 430.96 596.37 431.24 589.85 430.75 583.32 431.03 576.96"/><polygon points="430.88 672.81 424.71 676.86 417.83 679.16 411.04 681.54 403.88 682.45 396.69 682.04 389.62 680.8 382.72 678.83 375.92 676.41 369.2 672.78 372.23 679.22 374.4 685.78 376.39 692.4 378.7 698.91 380.7 705.54 382.6 712.33 388.97 709.89 395.25 707.96 401.82 708.12 408.34 709.01 414.32 712.26 417.13 705.65 419.67 699.01 422.23 692.38 425.15 685.89 428.09 679.41 430.88 672.81"/><polygon class="b" points="430.88 672.81 424.71 676.86 417.83 679.16 411.04 681.54 403.88 682.45 396.69 682.04 389.62 680.8 382.72 678.83 375.92 676.41 369.2 672.78 372.23 679.22 374.4 685.78 376.39 692.4 378.7 698.91 380.7 705.54 382.6 712.33 388.97 709.89 395.25 707.96 401.82 708.12 408.34 709.01 414.32 712.26 417.13 705.65 419.67 699.01 422.23 692.38 425.15 685.89 428.09 679.41 430.88 672.81"/><polyline points="399.04 636.19 399.25 643.76 399.61 651.33 399.67 658.9 399.45 666.47 398.89 674.04 399.72 681.62 399.72 689.19"/><polyline class="b" points="399.04 636.19 399.25 643.76 399.61 651.33 399.67 658.9 399.45 666.47 398.89 674.04 399.72 681.62 399.72 689.19"/></svg>