<svg xmlns="http://www.w3.org/2000/svg" viewBox="0 0 800 800"><defs><style>.a{fill:#fff;}.b,.c,.d,.e{fill:none;stroke-linejoin:bevel;}.b,.e{stroke:#000;}.b,.c,.d{stroke-width:13px;}.c,.d{stroke:#fff;}.d,.e{stroke-linecap:square;}.d{stroke-dasharray:0.02 42.52;}.e{stroke-width:7px;stroke-dasharray:0 33;}</style></defs><title>canvas (60)</title><polygon class="a" points="629.81 354.05 623.17 356.92 616.88 360.52 610.39 363.71 603.86 366.82 597.01 369.21 590.25 371.78 583.91 375.35 577.08 377.75 570.34 380.34 563.54 382.81 556.95 385.8 550.12 388.17 543.46 391.01 536.62 393.35 529.99 396.24 523.05 398.33 516.27 400.83 509.61 403.67 502.6 405.55 495.9 408.28 488.95 410.31 482.16 412.8 475.63 415.96 468.85 418.48 461.93 420.63 455.51 424.03 448.75 426.6 442 429.19 435.38 432.07 428.59 434.6 421.94 437.44 415.51 440.77 409.08 444.06 402.66 447.37 396.28 450.77 389.75 453.88 383.53 457.56 377.22 461.07 370.79 464.4 364.66 468.24 358.91 472.64 352.83 476.55 347.09 480.93 341.17 485.07 335.48 489.51 329.54 493.67 324.39 498.71 318.44 502.77 312.81 507.25 307.16 511.68 300.85 515.2 295.08 519.47 289.02 523.33 283.34 527.75 277.39 531.78 271.03 535.15 265.28 539.52 258.75 542.6 252.6 546.3 246.22 549.61 239.94 553.09 233.94 557.08 227.42 560.11 221.31 563.92 214.94 567.23 208.72 570.82 202.12 573.7 195.85 577.21 189.17 579.91 182.99 583.6 176.68 587.04 170.2 590.14 163.96 593.72 157.34 596.52 150.81 599.53 144.77 603.49 138.03 606.08 131.78 609.63 125.44 613 119.25 616.65 112.52 619.31 106.56 623.38 100.17 626.66 94.07 630.47 87.45 633.77 94.93 633.76 102.21 633.93 109.49 633.89 116.77 633.85 124.06 633.76 131.33 633.88 138.6 634.86 145.88 634.63 153.16 635 160.44 635.06 167.72 634.77 175.01 634.49 182.29 634.62 189.56 634.88 196.84 635.43 204.12 635.24 211.4 635.31 218.67 635.8 225.96 635.59 233.24 635.3 240.52 635.48 247.79 635.99 255.07 635.89 262.36 635.62 269.63 636.35 276.91 636.32 284.2 635.75 291.47 636.21 298.75 636.2 306.03 636.12 313.31 636.17 320.59 636.53 327.87 636.73 335.15 636.71 342.42 636.99 349.7 637.35 356.99 636.74 364.26 637.11 371.55 636.91 378.81 637.45 379.31 644.95 378.68 652.46 379.12 659.97 379.19 667.48 379.71 674.98 379.31 682.49 379 690 379.41 697.51 380.03 705.01 379.6 712.68 383.24 706.06 386.3 699.3 390.32 693.07 393.48 686.37 397.08 679.91 400.95 673.6 404.29 666.99 408.61 660.94 411.94 654.31 415.69 647.94 419.55 641.63 423.12 635.14 426.81 628.74 430.57 622.37 434.56 616.63 438.58 610.95 442.75 605.37 446.63 599.56 451.32 594.39 455.34 588.68 459.84 583.37 464.31 578.02 468.27 572.26 472.42 566.67 476.52 561.05 481.25 555.85 484.71 549.78 488.42 543.87 491.82 537.78 494.3 531.06 497.59 524.72 500.05 518.02 502.3 511.25 504.81 504.56 506.95 497.76 509.08 490.95 510.73 483.99 513.44 477.38 515.63 470.59 518.55 464.09 521.48 457.61 524.49 451.07 528.44 445.06 532.95 439.46 537.11 433.56 542.43 428.7 547.54 423.65 552.86 418.82 558.43 414.27 564.17 409.94 569.62 405.23 575.4 400.95 581.39 396.96 587.56 393.23 593.31 388.91 598.87 384.33 604.17 379.46 609.64 374.82 614.87 369.91 620.57 365.45 625.15 359.88 629.26 353.97 629.71 354.28 629.81 354.05"/><polygon class="b" points="629.81 354.05 623.17 356.92 616.88 360.52 610.39 363.71 603.86 366.82 597.01 369.21 590.25 371.78 583.91 375.35 577.08 377.75 570.34 380.34 563.54 382.81 556.95 385.8 550.12 388.17 543.46 391.01 536.62 393.35 529.99 396.24 523.05 398.33 516.27 400.83 509.61 403.67 502.6 405.55 495.9 408.28 488.95 410.31 482.16 412.8 475.63 415.96 468.85 418.48 461.93 420.63 455.51 424.03 448.75 426.6 442 429.19 435.38 432.07 428.59 434.6 421.94 437.44 415.51 440.77 409.08 444.06 402.66 447.37 396.28 450.77 389.75 453.88 383.53 457.56 377.22 461.07 370.79 464.4 364.66 468.24 358.91 472.64 352.83 476.55 347.09 480.93 341.17 485.07 335.48 489.51 329.54 493.67 324.39 498.71 318.44 502.77 312.81 507.25 307.16 511.68 300.85 515.2 295.08 519.47 289.02 523.33 283.34 527.75 277.39 531.78 271.03 535.15 265.28 539.52 258.75 542.6 252.6 546.3 246.22 549.61 239.94 553.09 233.94 557.08 227.42 560.11 221.31 563.92 214.94 567.23 208.72 570.82 202.12 573.7 195.85 577.21 189.17 579.91 182.99 583.6 176.68 587.04 170.2 590.14 163.96 593.72 157.34 596.52 150.81 599.53 144.77 603.49 138.03 606.08 131.78 609.63 125.44 613 119.25 616.65 112.52 619.31 106.56 623.38 100.17 626.66 94.07 630.47 87.45 633.77 94.93 633.76 102.21 633.93 109.49 633.89 116.77 633.85 124.06 633.76 131.33 633.88 138.6 634.86 145.88 634.63 153.16 635 160.44 635.06 167.72 634.77 175.01 634.49 182.29 634.62 189.56 634.88 196.84 635.43 204.12 635.24 211.4 635.31 218.67 635.8 225.96 635.59 233.24 635.3 240.52 635.48 247.79 635.99 255.07 635.89 262.36 635.62 269.63 636.35 276.91 636.32 284.2 635.75 291.47 636.21 298.75 636.2 306.03 636.12 313.31 636.17 320.59 636.53 327.87 636.73 335.15 636.71 342.42 636.99 349.7 637.35 356.99 636.74 364.26 637.11 371.55 636.91 378.81 637.45 379.31 644.95 378.68 652.46 379.12 659.97 379.19 667.48 379.71 674.98 379.31 682.49 379 690 379.41 697.51 380.03 705.01 379.6 712.68 383.24 706.06 386.3 699.3 390.32 693.07 393.48 686.37 397.08 679.91 400.95 673.6 404.29 666.99 408.61 660.94 411.94 654.31 415.69 647.94 419.55 641.63 423.12 635.14 426.81 628.74 430.57 622.37 434.56 616.63 438.58 610.95 442.75 605.37 446.63 599.56 451.32 594.39 455.34 588.68 459.84 583.37 464.31 578.02 468.27 572.26 472.42 566.67 476.52 561.05 481.25 555.85 484.71 549.78 488.42 543.87 491.82 537.78 494.3 531.06 497.59 524.72 500.05 518.02 502.3 511.25 504.81 504.56 506.95 497.76 509.08 490.95 510.73 483.99 513.44 477.38 515.63 470.59 518.55 464.09 521.48 457.61 524.49 451.07 528.44 445.06 532.95 439.46 537.11 433.56 542.43 428.7 547.54 423.65 552.86 418.82 558.43 414.27 564.17 409.94 569.62 405.23 575.4 400.95 581.39 396.96 587.56 393.23 593.31 388.91 598.87 384.33 604.17 379.46 609.64 374.82 614.87 369.91 620.57 365.45 625.15 359.88 629.26 353.97 629.71 354.28 629.81 354.05"/><polygon points="379.29 637.59 383.22 631.89 386.81 625.74 391.4 620.32 396.18 615.08 400.06 609.1 404.57 603.64 409.39 598.44 413.82 592.9 419.12 588.13 423.06 582.17 428 577.08 433.09 572.12 437.35 566.44 441.89 561.01 446.74 555.82 450.98 550.14 454.78 544.14 459.39 538.75 463.38 532.89 467.04 526.83 471.13 521.04 474.57 514.85 478.04 508.68 481.24 502.36 484.55 496.08 486.54 489.43 489.7 483.3 492.69 477.09 495.95 471.02 499.29 465.01 502.56 458.94 506.67 453.4 510.88 447.97 514.49 442.04 519.62 437.39 524.36 432.4 529.66 427.36 535.42 422.85 541.22 418.4 547.33 414.38 553.45 410.41 559.39 406.15 565.5 402.14 571.92 398.63 578.26 395 583.98 390.38 590.14 386.47 596.61 383 602.1 378.12 608.43 374.39 613.71 369.29 619.04 364.31 624.19 359.16 629.33 354.48 624.73 359.53 620.57 365.45 615.46 370.53 609.85 375.06 604.25 379.56 598.66 384.07 593.14 388.68 587.56 393.23 581.45 397.05 575.45 401.03 569.82 405.5 564.05 409.79 558.5 414.37 552.66 418.59 547.46 423.57 542.18 428.45 537.25 433.7 532.92 439.44 528.51 445.11 524.78 451.24 521.49 457.61 518.18 463.93 515.28 470.46 512.74 477.14 511.19 484.14 509.15 490.97 506.56 497.64 504.63 504.51 502.08 511.18 500.4 518.15 497.57 524.71 495.06 531.4 491.9 537.82 488.46 543.9 484.7 549.78 480.5 555.34 477.04 561.42 472.34 566.61 468.49 572.44 464.25 577.97 460.1 583.57 455.52 588.83 450.99 594.13 446.84 599.73 442.88 605.47 438.43 610.84 434.61 616.67 430.69 622.44 427.03 628.86 423.06 635.1 419.53 641.61 416.21 648.24 412.13 654.42 408.72 660.99 404.8 667.26 401.42 673.85 397.05 679.88 393.87 686.58 390.47 693.15 386.45 699.38 382.91 705.88 379.71 712.3 379.82 705.01 379.8 697.5 379.39 690 379.48 682.49 379.48 674.98 378.8 667.48 379.54 659.96 378.72 652.46 378.71 644.96 379.29 637.59"/><polygon class="b" points="379.29 637.59 383.22 631.89 386.81 625.74 391.4 620.32 396.18 615.08 400.06 609.1 404.57 603.64 409.39 598.44 413.82 592.9 419.12 588.13 423.06 582.17 428 577.08 433.09 572.12 437.35 566.44 441.89 561.01 446.74 555.82 450.98 550.14 454.78 544.14 459.39 538.75 463.38 532.89 467.04 526.83 471.13 521.04 474.57 514.85 478.04 508.68 481.24 502.36 484.55 496.08 486.54 489.43 489.7 483.3 492.69 477.09 495.95 471.02 499.29 465.01 502.56 458.94 506.67 453.4 510.88 447.97 514.49 442.04 519.62 437.39 524.36 432.4 529.66 427.36 535.42 422.85 541.22 418.4 547.33 414.38 553.45 410.41 559.39 406.15 565.5 402.14 571.92 398.63 578.26 395 583.98 390.38 590.14 386.47 596.61 383 602.1 378.12 608.43 374.39 613.71 369.29 619.04 364.31 624.19 359.16 629.33 354.48 624.73 359.53 620.57 365.45 615.46 370.53 609.85 375.06 604.25 379.56 598.66 384.07 593.14 388.68 587.56 393.23 581.45 397.05 575.45 401.03 569.82 405.5 564.05 409.79 558.5 414.37 552.66 418.59 547.46 423.57 542.18 428.45 537.25 433.7 532.92 439.44 528.51 445.11 524.78 451.24 521.49 457.61 518.18 463.93 515.28 470.46 512.74 477.14 511.19 484.14 509.15 490.97 506.56 497.64 504.63 504.51 502.08 511.18 500.4 518.15 497.57 524.71 495.06 531.4 491.9 537.82 488.46 543.9 484.7 549.78 480.5 555.34 477.04 561.42 472.34 566.61 468.49 572.44 464.25 577.97 460.1 583.57 455.52 588.83 450.99 594.13 446.84 599.73 442.88 605.47 438.43 610.84 434.61 616.67 430.69 622.44 427.03 628.86 423.06 635.1 419.53 641.61 416.21 648.24 412.13 654.42 408.72 660.99 404.8 667.26 401.42 673.85 397.05 679.88 393.87 686.58 390.47 693.15 386.45 699.38 382.91 705.88 379.71 712.3 379.82 705.01 379.8 697.5 379.39 690 379.48 682.49 379.48 674.98 378.8 667.48 379.54 659.96 378.72 652.46 378.71 644.96 379.29 637.59"/><polygon class="a" points="378.51 712.21 371.63 712.33 364.44 712.29 357.25 712.42 350.06 712.15 342.87 712.11 335.68 712.2 328.49 712.03 321.3 712.43 314.11 712.97 306.92 712.74 299.73 712.09 292.54 712.56 285.34 712.29 278.15 712.32 270.96 712.16 263.77 713.01 256.58 712.36 249.39 712.14 242.2 712.04 235.01 712.88 227.82 712.16 220.63 712.48 213.44 712.06 206.25 712.34 199.06 712.84 191.87 712.22 184.68 712.18 177.49 712.05 170.3 712.21 163.11 712.68 155.92 712.35 148.73 712.41 141.54 712.85 134.35 712.58 127.16 712.18 119.97 712.09 112.78 712.35 105.59 712.98 98.4 712.48 91.05 712.68 91.45 705.36 91.48 698.2 91.06 691.04 91.4 683.88 91.47 676.72 90.92 669.56 91.18 662.4 90.83 655.24 90.82 648.08 91.01 640.92 91.14 633.69 98.4 633.98 105.59 633.39 112.78 633.42 119.97 634.07 127.16 633.57 134.35 633.32 141.54 633.54 148.73 633.48 155.92 633.98 163.11 634.17 170.3 633.59 177.49 633.59 184.68 634.15 191.87 633.47 199.06 633.65 206.25 633.89 213.44 633.8 220.63 633.84 227.82 633.41 235.01 633.3 242.2 633.61 249.39 633.49 256.58 633.95 263.77 633.6 270.96 633.62 278.15 633.34 285.34 633.52 292.54 634.22 299.73 633.81 306.92 634.14 314.11 633.32 321.3 633.36 328.49 633.6 335.68 634.06 342.87 633.3 350.06 633.89 357.25 634.24 364.44 634.22 371.63 634.2 378.68 633.9 378.77 640.92 378.87 648.08 378.74 655.24 378.69 662.4 378.86 669.56 379.21 676.72 378.85 683.88 378.42 691.04 378.97 698.2 378.49 705.36 378.51 712.21"/><polygon class="b" points="378.51 712.21 371.63 712.33 364.44 712.29 357.25 712.42 350.06 712.15 342.87 712.11 335.68 712.2 328.49 712.03 321.3 712.43 314.11 712.97 306.92 712.74 299.73 712.09 292.54 712.56 285.34 712.29 278.15 712.32 270.96 712.16 263.77 713.01 256.58 712.36 249.39 712.14 242.2 712.04 235.01 712.88 227.82 712.16 220.63 712.48 213.44 712.06 206.25 712.34 199.06 712.84 191.87 712.22 184.68 712.18 177.49 712.05 170.3 712.21 163.11 712.68 155.92 712.35 148.73 712.41 141.54 712.85 134.35 712.58 127.16 712.18 119.97 712.09 112.78 712.35 105.59 712.98 98.4 712.48 91.05 712.68 91.45 705.36 91.48 698.2 91.06 691.04 91.4 683.88 91.47 676.72 90.92 669.56 91.18 662.4 90.83 655.24 90.82 648.08 91.01 640.92 91.14 633.69 98.4 633.98 105.59 633.39 112.78 633.42 119.97 634.07 127.16 633.57 134.35 633.32 141.54 633.54 148.73 633.48 155.92 633.98 163.11 634.17 170.3 633.59 177.49 633.59 184.68 634.15 191.87 633.47 199.06 633.65 206.25 633.89 213.44 633.8 220.63 633.84 227.82 633.41 235.01 633.3 242.2 633.61 249.39 633.49 256.58 633.95 263.77 633.6 270.96 633.62 278.15 633.34 285.34 633.52 292.54 634.22 299.73 633.81 306.92 634.14 314.11 633.32 321.3 633.36 328.49 633.6 335.68 634.06 342.87 633.3 350.06 633.89 357.25 634.24 364.44 634.22 371.63 634.2 378.68 633.9 378.77 640.92 378.87 648.08 378.74 655.24 378.69 662.4 378.86 669.56 379.21 676.72 378.85 683.88 378.42 691.04 378.97 698.2 378.49 705.36 378.51 712.21"/><polygon points="335.07 589.2 328 588.94 320.75 589.39 313.5 588.67 306.25 589.32 298.99 588.76 291.74 588.63 284.49 589.16 277.23 589.53 269.97 589.21 262.82 589.54 256.81 592.37 251.12 595.98 245.14 599.11 239.47 602.75 233.59 606.05 227.97 609.95 235.3 609.74 242.55 610.24 249.8 609.8 257.05 610.19 264.3 610.11 271.56 609.45 278.81 610.33 286.06 609.75 293.32 610.36 300.7 610.35 306.22 606.23 312.35 603.35 318.05 599.77 323.69 596.06 329.6 592.81 335.07 589.2"/><polygon class="b" points="335.07 589.2 328 588.94 320.75 589.39 313.5 588.67 306.25 589.32 298.99 588.76 291.74 588.63 284.49 589.16 277.23 589.53 269.97 589.21 262.82 589.54 256.81 592.37 251.12 595.98 245.14 599.11 239.47 602.75 233.59 606.05 227.97 609.95 235.3 609.74 242.55 610.24 249.8 609.8 257.05 610.19 264.3 610.11 271.56 609.45 278.81 610.33 286.06 609.75 293.32 610.36 300.7 610.35 306.22 606.23 312.35 603.35 318.05 599.77 323.69 596.06 329.6 592.81 335.07 589.2"/><polygon points="335.68 252.56 327.98 251.96 320.7 251.41 313.49 250.14 306.29 248.88 298.96 248.64 291.71 247.73 284.51 246.42 277.28 245.4 270 244.66 262.63 243.78 256.99 249.01 251.16 253.87 245.31 258.67 239.77 263.87 233.59 268.31 228.11 273.49 235.3 273.58 242.55 273.23 249.8 273.83 257.05 273.09 264.3 273.32 271.56 273.12 278.81 273.01 286.06 273.12 293.32 273.34 300.46 273.04 306.51 270.3 312.38 266.98 317.94 263.18 323.52 259.38 329.22 255.75 335.68 252.56"/><polygon class="b" points="335.68 252.56 327.98 251.96 320.7 251.41 313.49 250.14 306.29 248.88 298.96 248.64 291.71 247.73 284.51 246.42 277.28 245.4 270 244.66 262.63 243.78 256.99 249.01 251.16 253.87 245.31 258.67 239.77 263.87 233.59 268.31 228.11 273.49 235.3 273.58 242.55 273.23 249.8 273.83 257.05 273.09 264.3 273.32 271.56 273.12 278.81 273.01 286.06 273.12 293.32 273.34 300.46 273.04 306.51 270.3 312.38 266.98 317.94 263.18 323.52 259.38 329.22 255.75 335.68 252.56"/><polygon points="323.18 235.72 316.21 235.86 309.18 235.35 302.15 235.32 295.11 235.81 288.08 235.81 281.04 235.56 274 235.9 267.06 236.08 260.39 240.01 253.62 243.97 246.91 248.04 239.94 251.87 247.08 251.92 254.12 252.25 261.15 251.94 268.19 252.33 275.22 252.15 282.26 251.66 289.3 251.53 296.39 252.04 302.89 247.54 310.03 244.19 316.46 239.65 323.18 235.72"/><polygon class="b" points="323.18 235.72 316.21 235.86 309.18 235.35 302.15 235.32 295.11 235.81 288.08 235.81 281.04 235.56 274 235.9 267.06 236.08 260.39 240.01 253.62 243.97 246.91 248.04 239.94 251.87 247.08 251.92 254.12 252.25 261.15 251.94 268.19 252.33 275.22 252.15 282.26 251.66 289.3 251.53 296.39 252.04 302.89 247.54 310.03 244.19 316.46 239.65 323.18 235.72"/><polygon points="228.64 601.36 228.5 594.37 228.53 587.25 228.14 580.11 228.64 572.99 228.56 565.86 228.51 558.73 228.1 551.6 228.58 544.47 228.39 537.34 228.94 530.21 228.16 523.08 228.27 515.95 228.19 508.82 228.19 501.69 228.35 494.56 228.56 487.44 228.58 480.31 228.12 473.18 228.64 466.06 228.55 458.93 228.64 451.8 228.03 444.67 228.84 437.54 228.66 430.41 228.38 423.29 228.53 416.16 228.77 409.03 228.78 401.9 228.51 394.77 228.46 387.64 228.13 380.51 228.13 373.37 228.9 366.24 228.21 359.11 228.3 351.98 228.25 344.85 228.43 337.71 228.6 330.58 228.57 323.45 228.65 316.32 228.83 309.18 228.55 302.05 228.01 294.92 228.42 287.78 228.04 280.64 228.59 273.59 235.7 273.44 242.89 273.52 250.09 273.7 257.29 273.05 264.49 273.68 271.69 273.96 278.88 273.44 286.09 273.84 293.29 273.64 300.44 273.56 300.59 280.63 300.1 287.75 300.64 294.89 300.3 302.01 300.11 309.14 300.27 316.27 300.4 323.4 300.82 330.53 300.8 337.66 300.57 344.79 300.97 351.92 300.56 359.05 300.02 366.18 300.14 373.31 300.32 380.44 300.19 387.56 300.05 394.69 300.54 401.82 300.32 408.94 300.36 416.07 300.85 423.2 300.32 430.33 300.1 437.46 300.19 444.59 300.07 451.71 300.48 458.84 300.33 465.97 300.06 473.1 300.45 480.23 300.86 487.36 301 494.49 300.17 501.63 300.2 508.76 300.06 515.89 300.42 523.02 300.36 530.15 300.68 537.29 300.76 544.42 300.01 551.55 300.8 558.68 300.87 565.82 300.2 572.95 300.65 580.08 300.01 587.22 300.8 594.36 300.56 601.56 293.3 601.07 286.11 601.8 278.91 601.81 271.71 601.21 264.51 601.18 257.31 601.63 250.12 601.42 242.91 601.16 235.7 601.76 228.64 601.36"/><polygon class="c" points="228.64 601.36 228.5 594.37 228.53 587.25 228.14 580.11 228.64 572.99 228.56 565.86 228.51 558.73 228.1 551.6 228.58 544.47 228.39 537.34 228.94 530.21 228.16 523.08 228.27 515.95 228.19 508.82 228.19 501.69 228.35 494.56 228.56 487.44 228.58 480.31 228.12 473.18 228.64 466.06 228.55 458.93 228.64 451.8 228.03 444.67 228.84 437.54 228.66 430.41 228.38 423.29 228.53 416.16 228.77 409.03 228.78 401.9 228.51 394.77 228.46 387.64 228.13 380.51 228.13 373.37 228.9 366.24 228.21 359.11 228.3 351.98 228.25 344.85 228.43 337.71 228.6 330.58 228.57 323.45 228.65 316.32 228.83 309.18 228.55 302.05 228.01 294.92 228.42 287.78 228.04 280.64 228.59 273.59 235.7 273.44 242.89 273.52 250.09 273.7 257.29 273.05 264.49 273.68 271.69 273.96 278.88 273.44 286.09 273.84 293.29 273.64 300.44 273.56 300.59 280.63 300.1 287.75 300.64 294.89 300.3 302.01 300.11 309.14 300.27 316.27 300.4 323.4 300.82 330.53 300.8 337.66 300.57 344.79 300.97 351.92 300.56 359.05 300.02 366.18 300.14 373.31 300.32 380.44 300.19 387.56 300.05 394.69 300.54 401.82 300.32 408.94 300.36 416.07 300.85 423.2 300.32 430.33 300.1 437.46 300.19 444.59 300.07 451.71 300.48 458.84 300.33 465.97 300.06 473.1 300.45 480.23 300.86 487.36 301 494.49 300.17 501.63 300.2 508.76 300.06 515.89 300.42 523.02 300.36 530.15 300.68 537.29 300.76 544.42 300.01 551.55 300.8 558.68 300.87 565.82 300.2 572.95 300.65 580.08 300.01 587.22 300.8 594.36 300.56 601.56 293.3 601.07 286.11 601.8 278.91 601.81 271.71 601.21 264.51 601.18 257.31 601.63 250.12 601.42 242.91 601.16 235.7 601.76 228.64 601.36"/><polygon points="299.75 273.74 305.83 270.67 311.45 266.9 316.9 262.84 323.18 260.14 328.75 256.28 334.25 253.11 334.85 259.83 334.73 266.95 334.61 274.08 334.96 281.2 334.01 288.32 334.4 295.45 334.85 302.57 334.17 309.69 334.7 316.82 334.76 323.94 334.14 331.07 334.73 338.19 334.07 345.31 334.31 352.44 334.59 359.56 334.38 366.69 334.93 373.81 334.38 380.93 334.19 388.05 334.5 395.18 334.61 402.3 334.13 409.42 334.07 416.54 334.84 423.67 334.47 430.79 334.79 437.91 334.94 445.04 334.17 452.16 334.68 459.29 334.01 466.41 334.84 473.54 334.18 480.67 334.96 487.79 334.51 494.92 334.9 502.05 334.99 509.17 334.02 516.3 334.83 523.43 334.2 530.55 334.32 537.68 334.15 544.81 334.46 551.94 334.42 559.06 334.96 566.19 334.84 573.33 334.26 580.34 328.73 583.95 322.94 587.41 317.45 591.35 311.23 594.09 305.81 598.18 300.02 601.43 300.6 594.41 300 587.29 300 580.16 299.64 573.04 299.62 565.92 300.18 558.79 300.03 551.67 299.97 544.55 300.17 537.42 299.88 530.3 299.62 523.17 300.29 516.05 299.59 508.93 299.85 501.8 300.21 494.68 300.19 487.55 300 480.43 300.38 473.31 300 466.19 299.55 459.07 300.13 451.94 299.72 444.82 300.08 437.7 300.16 430.57 299.52 423.45 300.2 416.32 299.58 409.2 299.83 402.08 300.06 394.95 299.64 387.83 300.01 380.7 299.58 373.57 299.98 366.45 299.4 359.32 299.58 352.19 299.72 345.07 299.71 337.94 299.49 330.81 299.88 323.69 300.32 316.56 299.88 309.43 300.27 302.3 299.68 295.18 300.11 288.05 300.02 280.91 299.75 273.74"/><polygon class="c" points="299.75 273.74 305.83 270.67 311.45 266.9 316.9 262.84 323.18 260.14 328.75 256.28 334.25 253.11 334.85 259.83 334.73 266.95 334.61 274.08 334.96 281.2 334.01 288.32 334.4 295.45 334.85 302.57 334.17 309.69 334.7 316.82 334.76 323.94 334.14 331.07 334.73 338.19 334.07 345.31 334.31 352.44 334.59 359.56 334.38 366.69 334.93 373.81 334.38 380.93 334.19 388.05 334.5 395.18 334.61 402.3 334.13 409.42 334.07 416.54 334.84 423.67 334.47 430.79 334.79 437.91 334.94 445.04 334.17 452.16 334.68 459.29 334.01 466.41 334.84 473.54 334.18 480.67 334.96 487.79 334.51 494.92 334.9 502.05 334.99 509.17 334.02 516.3 334.83 523.43 334.2 530.55 334.32 537.68 334.15 544.81 334.46 551.94 334.42 559.06 334.96 566.19 334.84 573.33 334.26 580.34 328.73 583.95 322.94 587.41 317.45 591.35 311.23 594.09 305.81 598.18 300.02 601.43 300.35 594.41 299.5 587.29 299.5 580.16 299.39 573.04 299.49 565.92 300.12 558.79 300 551.67 299.95 544.55 300.17 537.42 299.88 530.3 299.62 523.17 300.29 516.05 299.59 508.93 299.85 501.8 300.21 494.68 300.19 487.55 300 480.43 300.38 473.31 300 466.19 299.55 459.07 300.13 451.94 299.72 444.82 300.08 437.7 300.16 430.57 299.52 423.45 300.2 416.32 299.58 409.2 299.83 402.08 300.06 394.95 299.64 387.83 300.01 380.7 299.58 373.57 299.98 366.45 299.4 359.32 299.58 352.19 299.72 345.07 299.71 337.94 299.49 330.81 299.88 323.69 300.32 316.56 299.88 309.43 300.27 302.3 299.68 295.18 300.11 288.05 300.02 280.91 299.75 273.74"/><polygon points="227.91 274 231.49 266.66 236.01 259.72 240.15 252.66 247.08 252.95 254.11 252.7 261.14 252.5 268.17 252.85 275.2 252.07 282.24 252.47 289.27 252.98 296.1 252.74 297.28 259.81 299.26 266.96 300.31 274.53 292.82 274.33 285.6 274.06 278.37 274.13 271.15 274.14 263.92 273.76 256.69 273.82 249.46 273.91 242.23 273.82 235 274.48 227.91 274"/><polygon class="c" points="227.91 274 231.49 266.66 236.01 259.72 240.15 252.66 247.08 252.95 254.11 252.7 261.14 252.5 268.17 252.85 275.2 252.07 282.24 252.47 289.27 252.98 296.1 252.74 297.28 259.81 299.26 266.96 300.31 274.53 292.82 274.33 285.6 274.06 278.37 274.13 271.15 274.14 263.92 273.76 256.69 273.82 249.46 273.91 242.23 273.82 235 274.48 227.91 274"/><polygon points="323.29 235.45 327.21 241.34 331.43 246.79 334.64 252.64 329.02 255.98 323.3 259.65 317.37 262.98 311.89 267.06 305.85 270.21 299.93 273.99 298.48 266.5 297.18 259.18 296.46 251.86 302.94 247.61 309.97 244.08 316.64 239.95 323.29 235.45"/><polygon class="c" points="323.29 235.45 327.21 241.34 331.43 246.79 334.64 252.64 329.02 255.98 323.3 259.65 317.37 262.98 311.89 267.06 305.85 270.21 299.93 273.99 298.48 266.5 297.18 259.18 296.46 251.86 302.94 247.61 309.97 244.08 316.64 239.95 323.29 235.45"/><polygon points="712.8 141.57 711.98 148.64 710.15 155.48 707.93 162.15 704.75 168.41 701.02 174.39 696.18 179.5 691.35 184.7 685.32 188.44 678.83 191.25 672.13 193.36 665.33 195.3 658.25 195.94 651.15 195.51 644.35 193.46 637.53 191.6 631.28 188.3 625.16 184.7 619.73 180.1 615.36 174.48 611.42 168.61 608.32 162.25 605.53 155.7 604.66 148.63 604.54 141.57 604.14 134.44 605.55 127.45 608.55 120.98 611.55 114.61 615.66 108.88 620.02 103.34 625.2 98.49 631 94.37 637.58 91.64 644.35 89.67 651.18 87.85 658.25 87.61 665.35 87.7 672.18 89.6 679.12 91.2 685.29 94.75 691.15 98.69 696.63 103.19 701.48 108.41 705.43 114.33 708.56 120.73 710.77 127.5 711.88 134.51 712.8 141.57"/><polygon class="d" points="712.8 141.57 711.98 148.64 710.15 155.48 707.93 162.15 704.75 168.41 701.02 174.39 696.18 179.5 691.35 184.7 685.32 188.44 678.83 191.25 672.13 193.36 665.33 195.3 658.25 195.94 651.15 195.51 644.35 193.46 637.53 191.6 631.28 188.3 625.16 184.7 619.73 180.1 615.36 174.48 611.42 168.61 608.32 162.25 605.53 155.7 604.66 148.63 604.54 141.57 604.14 134.44 605.55 127.45 608.55 120.98 611.55 114.61 615.66 108.88 620.02 103.34 625.2 98.49 631 94.37 637.58 91.64 644.35 89.67 651.18 87.85 658.25 87.61 665.35 87.7 672.18 89.6 679.12 91.2 685.29 94.75 691.15 98.69 696.63 103.19 701.48 108.41 705.43 114.33 708.56 120.73 710.77 127.5 711.88 134.51 712.8 141.57"/><polyline class="a" points="281.79 219.91 288.45 217.01 295.42 215.18 302.22 212.75 309.37 211.47 316.25 209.32 322.93 206.51 329.96 204.85 336.84 202.69 343.89 201.13 350.6 198.41 357.54 196.44 364.38 194.14 371.5 192.8 378.16 189.89 385.16 188.13 392.11 186.22 398.9 183.79 405.86 181.91 412.79 179.91 419.75 178.04 426.65 175.96 433.41 173.4 440.26 171.14 447.26 169.41 454.12 167.18 461.2 165.66 467.97 163.14 474.8 160.84 481.86 159.24 488.8 157.31 495.62 154.92 502.54 152.9 509.35 150.49 516.41 148.92 523.07 146.02 530.12 144.44 536.93 142.05 544.02 140.58 550.73 137.84 557.65 135.79 564.53 133.65 571.53 131.85 578.35 129.44 585.42 127.9"/><polyline class="e" points="281.79 219.91 288.45 217.01 295.42 215.18 302.22 212.75 309.37 211.47 316.25 209.32 322.93 206.51 329.96 204.85 336.84 202.69 343.89 201.13 350.6 198.41 357.54 196.44 364.38 194.14 371.5 192.8 378.16 189.89 385.16 188.13 392.11 186.22 398.9 183.79 405.86 181.91 412.79 179.91 419.75 178.04 426.65 175.96 433.41 173.4 440.26 171.14 447.26 169.41 454.12 167.18 461.2 165.66 467.97 163.14 474.8 160.84 481.86 159.24 488.8 157.31 495.62 154.92 502.54 152.9 509.35 150.49 516.41 148.92 523.07 146.02 530.12 144.44 536.93 142.05 544.02 140.58 550.73 137.84 557.65 135.79 564.53 133.65 571.53 131.85 578.35 129.44 585.42 127.9"/><polyline class="a" points="338.72 228.79 345.65 226.53 352.7 224.67 359.76 222.83 366.88 221.25 373.86 219.13 380.9 217.26 387.89 215.21 394.81 212.86 401.85 210.97 408.92 209.23 415.9 207.12 422.95 205.3 430.05 203.6 437.07 201.69 443.99 199.38 451.09 197.69 457.88 194.93 465.01 193.33 472.14 191.79 478.98 189.17 486.02 187.29 493.05 185.38 500.08 183.44 506.96 180.98 514.11 179.46 521.17 177.65 528.11 175.4 535.15 173.49 542.23 171.73 549.15 169.42 556.1 167.18 563.17 165.42 570.23 163.59 577.15 161.25 584.33 159.86 591.17 157.25 598.33 155.71 605.43 154"/><polyline class="e" points="338.72 228.79 345.65 226.53 352.7 224.67 359.76 222.83 366.88 221.25 373.86 219.13 380.9 217.26 387.89 215.21 394.81 212.86 401.85 210.97 408.92 209.23 415.9 207.12 422.95 205.3 430.05 203.6 437.07 201.69 443.99 199.38 451.09 197.69 457.88 194.93 465.01 193.33 472.14 191.79 478.98 189.17 486.02 187.29 493.05 185.38 500.08 183.44 506.96 180.98 514.11 179.46 521.17 177.65 528.11 175.4 535.15 173.49 542.23 171.73 549.15 169.42 556.1 167.18 563.17 165.42 570.23 163.59 577.15 161.25 584.33 159.86 591.17 157.25 598.33 155.71 605.43 154"/><polyline class="a" points="342.31 258.64 349.08 256.37 355.8 253.97 362.62 251.85 369.51 250 376.5 248.47 383.09 245.61 389.92 243.55 396.92 242.04 403.62 239.55 410.66 238.18 417.36 235.71 424.19 233.65 431.1 231.85 437.96 229.91 444.78 227.82 451.5 225.36 458.47 223.77 465.05 220.9 471.89 218.85 478.78 217 485.58 214.82 492.47 212.96 499.41 211.26 506.19 209.03 512.86 206.4 519.78 204.65 526.52 202.26 533.54 200.83 540.38 198.79 547.14 196.49 553.91 194.22 560.8 192.33 567.69 190.45 574.56 188.5 581.21 185.84 588.07 183.85 594.92 181.82 601.87 180.09"/><polyline class="e" points="342.31 258.64 349.08 256.37 355.8 253.97 362.62 251.85 369.51 250 376.5 248.47 383.09 245.61 389.92 243.55 396.92 242.04 403.62 239.55 410.66 238.18 417.36 235.71 424.19 233.65 431.1 231.85 437.96 229.91 444.78 227.82 451.5 225.36 458.47 223.77 465.05 220.9 471.89 218.85 478.78 217 485.58 214.82 492.47 212.96 499.41 211.26 506.19 209.03 512.86 206.4 519.78 204.65 526.52 202.26 533.54 200.83 540.38 198.79 547.14 196.49 553.91 194.22 560.8 192.33 567.69 190.45 574.56 188.5 581.21 185.84 588.07 183.85 594.92 181.82 601.87 180.09"/></svg>