<?xml version="1.0" encoding="utf-8"?>
<!-- Generator: Adobe Illustrator 20.0.0, SVG Export Plug-In . SVG Version: 6.00 Build 0)  -->
<svg version="1.1" id="Layer_1" xmlns="http://www.w3.org/2000/svg" xmlns:xlink="http://www.w3.org/1999/xlink" x="0px" y="0px"
	 viewBox="0 0 801 801" style="enable-background:new 0 0 801 801;" xml:space="preserve">
<style type="text/css">
	.st0{fill:#FFFFFF;}
	.st1{fill:none;stroke:#000000;stroke-width:13;stroke-linecap:round;stroke-linejoin:round;}
	.st2{fill:none;stroke:#000000;stroke-width:11;stroke-linecap:round;stroke-linejoin:round;}
</style>
<title>outlook</title>
<rect x="0.5" y="0.5" class="st0" width="800" height="800"/>
<path class="st1" d="M177.2,275.8c2.2,2.1,2.6,1.7,4.7,3.8s2.2,2.1,4.4,4.2s2,2.3,4.2,4.4s1.8,2.5,3.9,4.6s2.3,2,4.4,4.1
	s2,2.3,4.2,4.4s2.6,1.7,4.8,3.8s4.3,1.4,4.1,4.4s-2.4,1.8-5,3.6s-2.3,2.2-4.8,4s-2.6,1.7-5.1,3.5s-2.5,1.9-5,3.7s-2.9,1.4-5.4,3.2
	s-2.3,2.1-4.8,4s-2.6,1.8-5.1,3.6s-2.3,2.1-4.8,4s-2.9,1.2-5.5,3s-2.4,2-4.9,3.9s-2.3,2.3-5.2,3.3c-2.5,0.9-2.8,1.5-5.3,0.6
	c-2.8-1-2.5-1.8-4.9-3.6s-1.9-2.4-4.3-4.2s-2.6-1.5-5-3.3s-2.4-1.8-4.8-3.6s-2.5-1.7-4.8-3.5s-2.6-1.5-5-3.3s-2.1-2.1-4.5-4
	s-2.1-2.1-4.5-4s-2.5-1.6-4.9-3.4s-2.2-2-4.6-3.8s-4.8-0.4-5-3.4s2.2-2.1,4.3-4.2s2.1-2.1,4.3-4.3s1.9-2.4,4-4.5s2.1-2.1,4.3-4.3
	s2.8-1.5,4.9-3.6s2-2.3,4.1-4.5s2.2-2.1,4.3-4.2s2.1-2.1,4.3-4.3"/>
<path class="st1" d="M132.8,275.4c-2.2,2.1-2,2.3-4.2,4.4s-2.2,2-4.4,4.2s-1.9,2.4-4.1,4.5s-2.4,1.9-4.5,4s-2.1,2.2-4.2,4.3
	s-2.2,2.1-4.4,4.2s-2.3,2-4.5,4.1s-4.2,1.5-3.9,4.5s2.2,2,4.6,3.8s2.4,1.8,4.9,3.6s2.5,1.8,4.9,3.6l4.9,3.6c2.5,1.8,2.8,1.4,5.2,3.2
	s2.5,1.8,4.9,3.6s2.5,1.8,4.9,3.6s2.4,1.9,4.9,3.7s2.4,1.9,4.9,3.7s2.2,2.1,4.7,3.9s2,2.8,4.9,3.8c2.5,0.9,2.9,0.5,5.4-0.4
	c2.9-1,2.5-1.8,4.9-3.6s2.3-2,4.8-3.8s2.3-2,4.8-3.8s2.8-1.4,5.2-3.2s2.7-1.5,5.2-3.3s2.3-2.1,4.7-3.9s2.2-2.2,4.6-4
	s2.7-1.5,5.1-3.3s2.4-1.9,4.9-3.7s2.7-1.5,5.2-3.3s4.1-0.9,4.4-4s-2.1-1.8-4.3-3.9s-1.7-2.6-3.9-4.7s-2.6-1.7-4.8-3.8
	s-2-2.3-4.1-4.4s-2.1-2.2-4.2-4.3s-1.8-2.5-4-4.6s-2.4-1.9-4.6-4s-2.2-2.1-4.4-4.2"/>
<path class="st1" d="M99.2,309.2c0,3.3-0.5,3.3-0.5,6.6s-0.1,3.3-0.1,6.6s0.8,3.3,0.8,6.6s-0.4,3.3-0.4,6.6s-1.6,3.7-0.2,6.7
	c1.3,2.7,2.7,1.6,5.2,3.4s2.5,1.7,4.9,3.5s2.5,1.7,5,3.5s2.2,2.1,4.7,3.9s2.3,2,4.8,3.8s2.6,1.6,5.1,3.4s2,2.4,4.5,4.2
	s2.8,1.4,5.2,3.2s2.1,2.3,4.6,4.1s2.7,1.5,5.1,3.3s2.1,2.4,5,3.4c2.5,0.9,2.8,1.3,5.3,0.4c2.9-1,2.2-2.3,4.6-4.1s2.7-1.5,5.2-3.3
	s2.2-2.1,4.7-4s2.6-1.6,5-3.5s2.4-1.9,4.8-3.7s2.8-1.4,5.2-3.2s2.6-1.7,5-3.5s2.1-2.4,4.5-4.2s2.6-1.6,5.1-3.5s2.3-2,4.8-3.8
	s3.3-0.8,4.7-3.6c1.4-3,0.8-3.1,0.8-6.4s-0.7-3.3-0.7-6.6s-0.1-3.3-0.1-6.6s0.4-3.3,0.4-6.6s-0.3-3.3-0.3-6.6"/>
<path class="st0" d="M175.3,86.8c-2.7,1.3-0.3,3.2-0.3,6.2s-0.1,3-0.1,6s0.9,3,0.9,6s-0.1,3-0.1,6s-0.1,3-0.1,6s0.1,3,0.1,6
	s-0.4,3-0.4,6s0.5,3,0.5,6s-0.5,3-0.5,6s-0.3,3-0.3,6s0.3,3,0.3,6s0.3,3,0.3,6s0.1,3,0.1,6s-0.3,3-0.3,6s-0.3,3-0.3,6s0.2,3,0.2,6
	s0.3,3,0.3,6s-0.1,3-0.1,6s0,3,0,6s0.2,3,0.2,6s-0.7,3-0.7,6s0.7,3,0.7,6s-0.4,3-0.4,6s-0.4,3-0.4,6s0.2,3,0.2,6s0.4,3,0.4,6
	s0.1,3,0.1,6s-0.4,3-0.4,6s-0.3,3-0.3,6s0.8,3,0.8,6s-0.3,3-0.3,6s-0.2,3-0.2,6s0.2,3,0.2,6s0,3,0,6s-0.5,3-0.5,6s0.4,3,0.4,6
	s1.1,3.1-0.3,5.8c-1.6,3-2.1,2.4-4.8,4.5s-2.8,1.8-5.5,3.8s-2.8,1.9-5.4,3.9s-1.8,3.9-5.1,3.9s-2.4-1.9-5.1-3.9s-2.8-1.8-5.5-3.9
	s-2.9-1.7-5.6-3.7s-3.1-1.4-4.7-4.4c-1.4-2.7-0.7-2.8-0.7-5.8s0.6-3,0.6-6s0-3,0-6s-0.2-3-0.2-6s-0.1-3-0.1-6s-0.1-3-0.1-6
	s0.5-3,0.5-6s-0.8-3-0.8-6s0.1-3,0.1-6s-0.1-3-0.1-6s0.2-3,0.2-6s0.2-3,0.2-6s0.2-3,0.2-6s0.1-3,0.1-6s-0.3-3-0.3-6s0-3,0-6
	s0.4-3,0.4-6s-0.6-3-0.6-6s0-3,0-6s-0.2-3-0.2-6s0.6-3,0.6-6s0.3-3,0.3-6s-0.9-3-0.9-6s0.5-3,0.5-6s-0.3-3-0.3-6s0.6-3,0.6-6
	s-0.4-3-0.4-6s0.3-3,0.3-6s-0.5-3-0.5-6s-0.2-3-0.2-6s-0.1-3-0.1-6s0.9-3,0.9-6s0-3,0-6s-0.2-3-0.2-6s0-3,0-6s-0.6-3-0.6-6
	s0.5-3,0.5-6c0-3.3-0.1-3.3-0.1-6.7s0.4-3.4,0.4-6.7s-0.3-3.4-0.3-6.7s-1.8-3.8,0-6.6s2.8-1.4,5.7-2.6s3-1.2,5.9-2.5
	s2.8-1.6,5.7-2.9s2.9-1.4,5.8-2.7s2.9-2.3,6-2.1c2.9,0.2,2.3,1.8,4.7,3.5s2.6,1.3,5.1,3s2.2,2,4.6,3.7s2.3,1.8,4.8,3.4
	s2.7,1.3,5.1,2.9c2.4,1.7,2.5,1.6,4.9,3.2s2.3,1.8,4.8,3.4s2.5,1.5,4.9,3.2s2.3,1.9,4.7,3.5s2.7,1.2,5.1,2.9s2,2.3,4.4,3.9
	s2.8,1.1,5.2,2.8s2.3,1.8,4.8,3.4s2.3,1.8,4.7,3.5s2.3,1.8,4.7,3.5s2.6,1.3,5,3s2.3,1.8,4.8,3.4s2.4,1.7,4.8,3.4s2.3,1.9,4.7,3.5
	c2.4,1.7,5.7,0.1,5.2,3c-0.5,3.1-3.1,1-6,2.2s-2.8,1.4-5.7,2.7s-3.1,0.8-6,2s-2.6,1.9-5.6,3.1s-2.7,2.1-5.9,1.8s-2.6-1.3-5-3.1
	s-2.7-1.4-5.2-3.2s-1.9-2.5-4.4-4.3s-2.6-1.7-5-3.4s-2.6-1.6-5.1-3.4s-2.7-1.5-5.2-3.3s-2.2-2.2-4.7-3.9s-2.7-1.5-5.1-3.3
	s-2.3-2.1-4.7-3.9s-2.9-1.2-4.9-3.6C178.3,87.7,178,85.5,175.3,86.8z"/>
<path class="st1" d="M175.3,86.8c-2.7,1.3-0.3,3.2-0.3,6.2s-0.1,3-0.1,6s0.9,3,0.9,6s-0.1,3-0.1,6s-0.1,3-0.1,6s0.1,3,0.1,6
	s-0.4,3-0.4,6s0.5,3,0.5,6s-0.5,3-0.5,6s-0.3,3-0.3,6s0.3,3,0.3,6s0.3,3,0.3,6s0.1,3,0.1,6s-0.3,3-0.3,6s-0.3,3-0.3,6s0.2,3,0.2,6
	s0.3,3,0.3,6s-0.1,3-0.1,6s0,3,0,6s0.2,3,0.2,6s-0.7,3-0.7,6s0.7,3,0.7,6s-0.4,3-0.4,6s-0.4,3-0.4,6s0.2,3,0.2,6s0.4,3,0.4,6
	s0.1,3,0.1,6s-0.4,3-0.4,6s-0.3,3-0.3,6s0.8,3,0.8,6s-0.3,3-0.3,6s-0.2,3-0.2,6s0.2,3,0.2,6s0,3,0,6s-0.5,3-0.5,6s0.4,3,0.4,6
	s1.1,3.1-0.3,5.8c-1.6,3-2.1,2.4-4.8,4.5s-2.8,1.8-5.5,3.8s-2.8,1.9-5.4,3.9s-1.8,3.9-5.1,3.9s-2.4-1.9-5.1-3.9s-2.8-1.8-5.5-3.9
	s-2.9-1.7-5.6-3.7s-3.1-1.4-4.7-4.4c-1.4-2.7-0.7-2.8-0.7-5.8s0.6-3,0.6-6s0-3,0-6s-0.2-3-0.2-6s-0.1-3-0.1-6s-0.1-3-0.1-6
	s0.5-3,0.5-6s-0.8-3-0.8-6s0.1-3,0.1-6s-0.1-3-0.1-6s0.2-3,0.2-6s0.2-3,0.2-6s0.2-3,0.2-6s0.1-3,0.1-6s-0.3-3-0.3-6s0-3,0-6
	s0.4-3,0.4-6s-0.6-3-0.6-6s0-3,0-6s-0.2-3-0.2-6s0.6-3,0.6-6s0.3-3,0.3-6s-0.9-3-0.9-6s0.5-3,0.5-6s-0.3-3-0.3-6s0.6-3,0.6-6
	s-0.4-3-0.4-6s0.3-3,0.3-6s-0.5-3-0.5-6s-0.2-3-0.2-6s-0.1-3-0.1-6s0.9-3,0.9-6s0-3,0-6s-0.2-3-0.2-6s0-3,0-6s-0.6-3-0.6-6
	s0.5-3,0.5-6c0-3.3-0.1-3.3-0.1-6.7s0.4-3.4,0.4-6.7s-0.3-3.4-0.3-6.7s-1.8-3.8,0-6.6s2.8-1.4,5.7-2.6s3-1.2,5.9-2.5
	s2.8-1.6,5.7-2.9s2.9-1.4,5.8-2.7s2.9-2.3,6-2.1c2.9,0.2,2.3,1.8,4.7,3.5s2.6,1.3,5.1,3s2.2,2,4.6,3.7s2.3,1.8,4.8,3.4
	s2.7,1.3,5.1,2.9c2.4,1.7,2.5,1.6,4.9,3.2s2.3,1.8,4.8,3.4s2.5,1.5,4.9,3.2s2.3,1.9,4.7,3.5s2.7,1.2,5.1,2.9s2,2.3,4.4,3.9
	s2.8,1.1,5.2,2.8s2.3,1.8,4.8,3.4s2.3,1.8,4.7,3.5s2.3,1.8,4.7,3.5s2.6,1.3,5,3s2.3,1.8,4.8,3.4s2.4,1.7,4.8,3.4s2.3,1.9,4.7,3.5
	c2.4,1.7,5.7,0.1,5.2,3c-0.5,3.1-3.1,1-6,2.2s-2.8,1.4-5.7,2.7s-3.1,0.8-6,2s-2.6,1.9-5.6,3.1s-2.7,2.1-5.9,1.8s-2.6-1.3-5-3.1
	s-2.7-1.4-5.2-3.2s-1.9-2.5-4.4-4.3s-2.6-1.7-5-3.4s-2.6-1.6-5.1-3.4s-2.7-1.5-5.2-3.3s-2.2-2.2-4.7-3.9s-2.7-1.5-5.1-3.3
	s-2.3-2.1-4.7-3.9s-2.9-1.2-4.9-3.6C178.3,87.7,178,85.5,175.3,86.8z"/>
<path class="st0" d="M154.6,322.2c0-3-0.8-3-0.8-6s-0.1-3-0.1-6s1-3,1-6s-0.7-3-0.7-6s0.6-3,0.6-6s-0.1-3-0.1-6s-0.5-3-0.5-6
	s0.6-3,0.6-6s-0.3-3-0.3-6s0.1-3,0.1-6s-0.1-3-0.1-6s0.1-3,0.1-6s-0.1-3-0.1-6s-0.4-3-0.4-6s0.6-3,0.6-6s0.2-3,0.2-6s0-3,0-6
	s-0.8-3-0.8-6s0.5-3,0.5-6s-0.2-3-0.2-6s0.4-3,0.4-6s-0.6-3-0.6-6s0.5-3,0.5-6s-0.2-3-0.2-6s0-3,0-6s0.3-3,0.3-6s-0.3-3-0.3-6
	s0.6-3,0.6-6s-0.6-3-0.6-6s0-3,0-6s-0.2-3-0.2-6s0.6-3,0.6-6s0.1-3,0.1-6s-0.8-3-0.8-6s0.6-3,0.6-6s-0.2-3-0.2-6"/>
<path class="st1" d="M154.6,322.2c0-3-0.8-3-0.8-6s-0.1-3-0.1-6s1-3,1-6s-0.7-3-0.7-6s0.6-3,0.6-6s-0.1-3-0.1-6s-0.5-3-0.5-6
	s0.6-3,0.6-6s-0.3-3-0.3-6s0.1-3,0.1-6s-0.1-3-0.1-6s0.1-3,0.1-6s-0.1-3-0.1-6s-0.4-3-0.4-6s0.6-3,0.6-6s0.2-3,0.2-6s0-3,0-6
	s-0.8-3-0.8-6s0.5-3,0.5-6s-0.2-3-0.2-6s0.4-3,0.4-6s-0.6-3-0.6-6s0.5-3,0.5-6s-0.2-3-0.2-6s0-3,0-6s0.3-3,0.3-6s-0.3-3-0.3-6
	s0.6-3,0.6-6s-0.6-3-0.6-6s0-3,0-6s-0.2-3-0.2-6s0.6-3,0.6-6s0.1-3,0.1-6s-0.8-3-0.8-6s0.6-3,0.6-6s-0.2-3-0.2-6"/>
<path class="st0" d="M133.3,90.5c1.3,2.6,2,2,4.4,3.7s2.8,1.1,5.2,2.8s2,2.2,4.5,3.9s2.5,1.6,4.9,3.3s2.5,1.6,4.9,3.3s2.6,1.5,5,3.2
	s2.5,1.5,5,3.2s2.3,1.8,4.7,3.5s2,2.3,4.4,4s2.9,1,5.3,2.7s2.2,2,4.6,3.7c2.4,1.7,2.2,2,4.6,3.7s2.9,1,5.3,2.7s2,2.3,4.4,4
	s2.7,1.2,5.1,2.9s2.5,1.6,4.9,3.3s2,2.4,4.4,4s2.8,1.2,5.2,2.9s2.2,2.1,4.6,3.8s2.1,2.5,5,2.8c3.1,0.3,3-0.4,6-1.6s2.8-1.6,5.7-2.8
	s2.8-1.4,5.8-2.6s3.3-0.4,6.2-1.5s3.6-0.4,5.3-3s0.8-3,0.8-6.2s-0.1-3.3-0.1-6.5s0.2-3.3,0.2-6.5s-0.1-3.3-0.1-6.5s0.9-3.4-0.6-6.3
	c-1.3-2.6-2.2-1.7-4.6-3.4s-2.1-2.2-4.5-3.8s-2.6-1.4-5-3.1s-2.5-1.6-4.9-3.2s-2.3-1.9-4.7-3.6s-2.8-1.1-5.2-2.8s-2.1-2.2-4.5-3.8
	s-2.4-1.7-4.8-3.4s-2.8-1.1-5.2-2.8s-2-2.3-4.4-4s-2.9-1-5.3-2.6s-2.3-1.8-4.7-3.5s-2.1-2.2-4.5-3.8s-2.9-1-5.3-2.7s-2.2-2-4.6-3.6
	s-2.2-1.9-4.6-3.6s-2.5-1.5-5-3.2l-4.9-3.4c-2.4-1.7-2.8-1.1-5.2-2.8s-1.6-3.6-4.6-3.8c-3.2-0.2-3,1.2-6,2.4s-2.9,1.4-5.8,2.7
	s-2.7,1.7-5.7,3s-3,1-6,2.3s-4.2-0.3-6,2.4s-0.1,3.1-0.1,6.1s0.1,3,0.1,6.1s-0.2,3-0.2,6.1s0.5,3.1,0.1,6.1S131.9,87.8,133.3,90.5z"
	/>
<path class="st1" d="M133.3,90.5c1.3,2.6,2,2,4.4,3.7s2.8,1.1,5.2,2.8s2,2.2,4.5,3.9s2.5,1.6,4.9,3.3s2.5,1.6,4.9,3.3s2.6,1.5,5,3.2
	s2.5,1.5,5,3.2s2.3,1.8,4.7,3.5s2,2.3,4.4,4s2.9,1,5.3,2.7s2.2,2,4.6,3.7c2.4,1.7,2.2,2,4.6,3.7s2.9,1,5.3,2.7s2,2.3,4.4,4
	s2.7,1.2,5.1,2.9s2.5,1.6,4.9,3.3s2,2.4,4.4,4s2.8,1.2,5.2,2.9s2.2,2.1,4.6,3.8s2.1,2.5,5,2.8c3.1,0.3,3-0.4,6-1.6s2.8-1.6,5.7-2.8
	s2.8-1.4,5.8-2.6s3.3-0.4,6.2-1.5s3.6-0.4,5.3-3s0.8-3,0.8-6.2s-0.1-3.3-0.1-6.5s0.2-3.3,0.2-6.5s-0.1-3.3-0.1-6.5s0.9-3.4-0.6-6.3
	c-1.3-2.6-2.2-1.7-4.6-3.4s-2.1-2.2-4.5-3.8s-2.6-1.4-5-3.1s-2.5-1.6-4.9-3.2s-2.3-1.9-4.7-3.6s-2.8-1.1-5.2-2.8s-2.1-2.2-4.5-3.8
	s-2.4-1.7-4.8-3.4s-2.8-1.1-5.2-2.8s-2-2.3-4.4-4s-2.9-1-5.3-2.6s-2.3-1.8-4.7-3.5s-2.1-2.2-4.5-3.8s-2.9-1-5.3-2.7s-2.2-2-4.6-3.6
	s-2.2-1.9-4.6-3.6s-2.5-1.5-5-3.2l-4.9-3.4c-2.4-1.7-2.8-1.1-5.2-2.8s-1.6-3.6-4.6-3.8c-3.2-0.2-3,1.2-6,2.4s-2.9,1.4-5.8,2.7
	s-2.7,1.7-5.7,3s-3,1-6,2.3s-4.2-0.3-6,2.4s-0.1,3.1-0.1,6.1s0.1,3,0.1,6.1s-0.2,3-0.2,6.1s0.5,3.1,0.1,6.1S131.9,87.8,133.3,90.5z"
	/>
<path class="st0" d="M258.9,113.9c-2.9,1.2-2.7,1.7-5.6,2.9s-3,0.9-5.9,2.1s-3,1-5.9,2.2s-2.8,1.5-5.7,2.7s-4.3-0.4-6,2.2
	c-1.8,2.6-0.4,3.2-0.4,6.5s0,3.2,0,6.4s0.8,3.2,0.8,6.4s-0.8,3.2-0.8,6.4s0.3,3.2,0.3,6.4"/>
<path class="st1" d="M258.9,113.9c-2.9,1.2-2.7,1.7-5.6,2.9s-3,0.9-5.9,2.1s-3,1-5.9,2.2s-2.8,1.5-5.7,2.7s-4.3-0.4-6,2.2
	c-1.8,2.6-0.4,3.2-0.4,6.5s0,3.2,0,6.4s0.8,3.2,0.8,6.4s-0.8,3.2-0.8,6.4s0.3,3.2,0.3,6.4"/>
<path class="st0" d="M132.8,60.5c2.4,1.7,2.8,1.1,5.2,2.7c2.4,1.7,2.3,1.8,4.7,3.5s2.2,1.9,4.6,3.6s2.5,1.5,5,3.1s2.3,1.8,4.7,3.4
	s2.8,1.1,5.2,2.7s2,2.2,4.5,3.8s2.8,1.1,5.2,2.8s2.2,1.9,4.6,3.6s2.6,1.4,5,3s2.3,1.8,4.7,3.4s2.2,2,4.6,3.6s2.6,1.4,5,3
	s2,2.2,4.5,3.9s2.9,1,5.3,2.6s2.4,1.7,4.8,3.4s2,2.2,4.4,3.9s2.9,0.9,5.3,2.6s2.4,1.7,4.8,3.4s2.3,1.8,4.8,3.4"/>
<path class="st1" d="M132.8,60.5c2.4,1.7,2.8,1.1,5.2,2.7c2.4,1.7,2.3,1.8,4.7,3.5s2.2,1.9,4.6,3.6s2.5,1.5,5,3.1s2.3,1.8,4.7,3.4
	s2.8,1.1,5.2,2.7s2,2.2,4.5,3.8s2.8,1.1,5.2,2.8s2.2,1.9,4.6,3.6s2.6,1.4,5,3s2.3,1.8,4.7,3.4s2.2,2,4.6,3.6s2.6,1.4,5,3
	s2,2.2,4.5,3.9s2.9,1,5.3,2.6s2.4,1.7,4.8,3.4s2,2.2,4.4,3.9s2.9,0.9,5.3,2.6s2.4,1.7,4.8,3.4s2.3,1.8,4.8,3.4"/>
<path class="st1" d="M154.8,381.6c0-3.2,0.6-3.2,0.6-6.3s-0.5-3.2-0.5-6.3s-0.4-3.2-0.4-6.4s0.3-3.2,0.3-6.4s-0.2-3.2-0.2-6.4"/>
<path class="st1" d="M241.3,154.6c0,2.9,0.1,2.9,0.1,5.7s0,2.9,0,5.7s-0.2,2.9-0.2,5.7s-0.2,2.9-0.2,5.7s0.3,2.9,0.3,5.7
	s0.1,2.9,0.1,5.7s-0.3,2.9-0.3,5.7s0,2.9,0,5.7"/>
<path class="st1" d="M236.9,201.6c2.4-0.9,2.3-1.2,4.7-2.1s2.3-1.1,4.7-2"/>
<path class="st1" d="M237.3,209.7c2.4-0.9,2.3-1.2,4.7-2.1s2.2-1.4,4.6-2.3"/>
<path class="st1" d="M237.7,217.8c2.4-0.9,2.4-1.1,4.8-2s2.3-1.3,4.7-2.2"/>
<path class="st1" d="M242.1,217.8c-1.8,2.7-1.2,2.4-3.2,5.7c-1,1.7-1.9,3.7-3,5.8c-1,1.9-1.7,4-2.6,6c-0.9,1.9-1.7,3.9-2.4,6
	c-0.7,2.1-0.9,4.3-0.8,6.5c0.4,2,1,4,1.9,5.8c0.8,1.9,2,3.5,3.5,4.8c1.6,1.6,3.1,2.8,5,3.2c2,0.3,4.1,0,5.9-0.8
	c1.7-0.6,3.3-1.6,4.7-2.9c1.5-1.1,2.8-2.5,3.8-4.1c0.8-1.7,1.3-3.6,1.4-5.4c0.3-1.9,0.3-3.7,0.1-5.6c-0.2-1.9-0.6-3.7-1.1-5.5
	c-0.6-1.8-1.2-3.6-2-5.3c-0.7-1.6-1.9-3.1-2.9-4.9c-0.9-1.6-1.1-3.6-2.2-5.3c-1-1.5-2.8-2.6-3.9-4.2"/>
<path d="M506.4,673.2c0.1-0.1,0.6,0.2,0.7,0.1s0.4-0.1,0.5-0.3s0.2-0.2,0.3-0.3s-0.1-0.6,0-0.7s0-0.3,0.1-0.4s0.6-0.1,0.7-0.2
	s0.2-0.2,0.3-0.2s-0.1-0.6,0-0.8s0.5,0,0.5-0.1c0.1-0.3-0.4-0.8-0.3-1.1c0,0,0,0,0-0.1c0.1-0.3,0.3-0.6,0.4-0.9c0-0.1,0.4,0,0.4-0.1
	c0.1-0.2,0.1-0.5,0.1-0.8s0.4-0.1,0.4-0.2s0.3-0.4,0.4-0.6s-0.7-0.5-0.7-0.6s1-0.2,1-0.4s-0.5-0.4-0.5-0.6s0.5-0.4,0.5-0.6
	s0-0.3,0-0.5s-0.2-0.5-0.1-0.7s0.3-0.2,0.3-0.4s0.4-0.4,0.4-0.7s-0.6-0.4-0.6-0.5s0.7-0.4,0.8-0.7s-0.7-0.4-0.7-0.5s0.8-0.4,0.9-0.7
	s-0.2-0.3-0.1-0.4c0.3-1.4,0.5-2.8,0.8-4.2c0.1-0.4-0.3-0.9-0.2-1.3c0-0.1,0.3-0.1,0.3-0.2c0.1-0.4,0.1-0.8,0.2-1.2
	c0-0.1-0.3-0.2-0.3-0.3c0.1-0.4,1-0.7,1-1.1c0,0-0.9-0.2-0.9-0.2c0.1-0.4,0.3-0.8,0.3-1.2c0-0.1,0.5-0.1,0.5-0.2
	c0.1-0.4,0.1-0.8,0.1-1.2c0-0.1-0.2-0.2-0.2-0.3c0-0.4,0.1-0.8,0.2-1.3c0,0,0.5,0,0.5,0c0-0.4-0.2-0.8-0.2-1.3
	c0-0.1,0.1-0.2,0.1-0.2c0-0.4-0.3-0.8-0.3-1.3c0-0.1,0.3-0.2,0.3-0.3c0-0.4-0.3-0.9-0.3-1.3c0,0-0.3,0-0.3-0.1
	c0-0.4-0.3-0.8-0.3-1.2c0-0.1,0.4-0.2,0.4-0.3c-0.1-0.4-0.1-0.9-0.1-1.3c0-0.1,0.3-0.3,0.3-0.3c-0.1-0.5-0.6-0.8-0.7-1.3
	c0,0-0.1-0.1-0.1-0.1c-0.1-0.4-0.5-0.8-0.7-1.3l-0.1-0.2c-0.2-0.5-0.3-0.9-0.5-1.4c0-0.1,0.5-0.4,0.5-0.5c-0.2-0.5-1.2-0.6-1.4-1.1
	c0,0,0.8-0.5,0.7-0.5c-0.2-0.5-0.8-0.8-1.1-1.3c0,0-0.3,0-0.3-0.1s-0.2-0.2-0.1-0.3s0.8,0,0.8-0.1c0-0.3-0.2-0.6-0.2-0.9h-0.2
	c0-0.3-0.2-0.5-0.3-0.8c0-0.1-0.1-0.1-0.1-0.2c-0.1-0.3,0.3-0.7,0.2-0.9l-0.7,0.3c-0.1-0.2-0.2-0.4-0.3-0.7c0-0.1,0.2-0.3,0.2-0.3
	c-0.1-0.2-0.2-0.6-0.4-0.8l-0.2,0.1c-0.1-0.2,0-0.5-0.1-0.8s-0.9-0.6-1-1.2c0,0,0.6-0.2,0.6-0.2s-0.5,0-0.5,0
	c-0.1-1.9,0.5-3.7,1.6-5.2c0.3-0.5,0.6-1,0.8-1.5c1.4-2.4,2.4-4.6,2.3-7c0-2.3-0.4-4.5-1.2-6.6c-0.8-2.2-2.5-4-3.4-5.8
	c-0.2-0.3-0.3-0.6-0.5-0.9c0-0.1,0.6-0.6,0.6-0.7s-0.8-0.1-0.9-0.3s-0.2-0.2-0.2-0.3s0.3-0.7,0.2-0.9s-0.1-0.2-0.1-0.3
	c-0.1-0.3-0.5-0.5-0.6-0.8l-0.2,0.1c-0.1-0.3,0.3-0.8,0.2-1.1c0-0.1-0.2-0.1-0.2-0.2s-0.5-0.3-0.5-0.5s0.3-0.3,0.3-0.4
	s-0.3-0.3-0.3-0.4c0.4,0,0.4-0.2,0.9-0.2c2.4,0.1,4.5-1.6,5-3.9c0.6-2.8,1.1-5.1,0.8-7.2c-0.4-2.4-1-4.8-2-7
	c-0.7-1.5-1.2-3.1-1.6-4.8c-0.4-1.8-0.6-3.7-0.7-5.6c0-1.1-0.2-2.4-0.2-3.8h-0.1c0-0.4-0.3-0.9-0.2-1.4c0,0,0.2,0,0.2-0.1
	c0.2-1.2,0.3-2.4,0.3-3.5c0.8-0.6,1.5-1.3,2.1-2.1c0.1-0.1,0.1-0.3,0.2-0.4s0.5,0.3,0.5,0.2s-0.4-0.6-0.3-0.8s0.6-0.2,0.8-0.4
	c0,0,0.1,0,0.1-0.1s-0.4-0.4-0.4-0.5s0.2-0.3,0.3-0.5s0.7,0.2,0.7,0.1c0.3-0.8,0.4-1.7,0.5-2.5c0,0-0.2-0.1-0.2-0.1
	c0-0.2,0-0.5,0-0.8c0-0.1-0.1-0.2-0.1-0.3s0-0.4,0-0.7s-0.2-0.3-0.2-0.5s-0.5-0.2-0.5-0.4c-0.1-0.3,0.7-0.9,0.6-1.2
	c-0.3-0.9-1.3-1.6-1.6-2.6c-0.5-1.7-0.6-3.7-1.2-5.5s-1-3.6-1.4-5.4c-0.6-1.8-1-3.6-1.3-5.5c-0.2-1.9,0-3.8,0.5-5.7
	c0.9-2.4,1.8-4.8,1.7-7.1s-1.4-4.7-2.6-6.8c-0.2-0.4-0.5-0.9-0.8-1.3c-0.1-0.1-0.2-0.2-0.3-0.4s-0.1-0.8-0.4-1.1s-0.6,0-0.7-0.1
	s-0.6-0.2-0.8-0.4s0-0.6-0.1-0.8s-0.2-0.7-0.5-0.8c-0.1,0-0.1,0.1-0.2,0.1s-0.6,0.1-0.6,0s0.1-0.3,0.1-0.4s0.1-0.3,0.1-0.4
	s-0.1-0.3-0.1-0.4s-0.1-0.2-0.1-0.3s-0.5-0.1-0.5-0.2s0.2-0.3,0.1-0.4s-0.5-0.1-0.6-0.2s0.3-0.4,0.2-0.5s0-0.4,0-0.5
	s-0.1-0.2-0.1-0.3s-0.2-0.3-0.3-0.5s-0.3-0.1-0.4-0.1s0-0.5-0.1-0.6s0.3-0.4,0.2-0.5c-0.1-0.3-0.5-0.4-0.7-0.7
	c-0.7-1.2-2.6-3.2-3.8-5.6c-1-2-1.5-4.3-1.3-6.5c0.4-2,0.3-4.1-0.3-6.1c-0.7-1.9-1.6-3.7-2.7-5.4c-1.1-1.7-2.3-3.3-3.6-4.8
	c-1.3-1.6-2.5-3.2-3.9-4.6c-1.6-1.5-2.9-3.1-4.3-4.3c-1.5-1.3-3.3-2.3-5.2-3.1c-0.3-0.2-0.4-0.5-0.6-0.6c-0.1,0-0.2,0-0.3,0
	s-0.3-0.2-0.5-0.3s-0.1-0.6-0.2-0.6s-0.5,0-0.8-0.1s-0.3,0.2-0.5,0.2s-0.4,0.4-0.5,0.3s-0.1-0.7-0.3-0.7s-0.5-0.2-0.7-0.3
	c0,0-0.1,0.4-0.1,0.4c-0.3,0-0.5,0.3-0.8,0.3c0,0,0.4-0.5,0.3-0.5s-0.5,0.1-0.6,0s-0.3-0.4-0.4-0.6s-0.6,0.1-0.7,0l-0.5-0.5
	c-0.1-0.1,0.2-0.6,0.1-0.7s-0.2-0.5-0.4-0.6s-0.7,0.3-0.8,0.2s-0.2-0.5-0.4-0.6s-0.1-0.4-0.2-0.5s-0.6,0.1-0.8-0.1s0-0.6-0.1-0.7
	s-0.4-0.2-0.6-0.3s-0.2-0.3-0.3-0.4s-0.8,0.4-1,0.3s-0.2-0.3-0.4-0.4s-0.2-0.7-0.4-0.8s-0.4,0.1-0.6,0.1s-0.4-0.1-0.6-0.2
	s-0.3-0.1-0.4-0.2s-0.5-0.1-0.7-0.2s-0.2-0.5-0.3-0.5s-0.6,0.5-0.8,0.5s-0.3,0-0.4,0s-0.4-0.3-0.6-0.3s-0.3,0.1-0.4,0.1
	s-0.4-0.6-0.7-0.6s-0.3,0.3-0.4,0.3s-0.5,0-0.8,0.1c-0.1,0-0.2,0.3-0.3,0.3c-0.3,0-0.7,0-1,0.1c-1.3,0.3-3.4-1.1-5.7-2.8
	c-1.5-1.1-3.3-2.5-4.9-4s-3.3-2.9-4.7-4.2c-0.3-0.3,0-1.1-0.3-1.3s-0.9,0.2-1.1,0.1s-0.2,0-0.3,0c-1.6-1.5-3.4-2.7-5.4-3.5
	c-2-0.9-4.2-1.3-6.4-1.4c-0.8-0.3-1.7,0-2.5-0.2c-0.2-0.1-0.4-0.2-0.7-0.3c-0.6-0.2-1.3,0.2-1.9,0c-0.3-0.1-0.5-0.5-0.8-0.6
	c-0.5-0.1-1,0-1.5-0.1c-0.3-0.1-0.7,0-1-0.1s-0.9-0.4-1.4-0.5s-0.6-0.2-1-0.3s-0.9,0.1-1.4,0s-0.6-0.7-0.9-0.8s-1,0.7-1.4,0.6
	s-0.6-0.4-0.9-0.4s-0.9,0.1-1.3,0s-0.6-0.4-0.9-0.4s-0.8-0.2-1.2-0.3s-0.6,0-0.9,0s-0.8,0.2-1.2,0.2s-0.5-0.7-0.8-0.7
	s-0.8,0.1-1.2,0.1s-0.5,0.7-0.8,0.7c-0.4,0-0.8-0.3-1.2-0.3h-0.7c-0.5,0-1-0.1-1.5-0.1h-0.4c-0.6,0-1.2-0.1-1.8-0.1
	c-0.2,0-0.3,0.5-0.5,0.5c-0.4,0-0.9-0.4-1.3-0.3h-0.7c-0.3,0-0.6,0.6-1,0.6s-0.5-0.5-0.8-0.5s-0.6,0.3-0.9,0.3s-0.5,0.2-0.7,0.2
	s-0.5,0-0.8,0.1s-0.5-0.1-0.7-0.1s-0.5,0.3-0.7,0.3s-0.5,0-0.7,0s-0.4,0.4-0.6,0.5s-0.5-0.2-0.7-0.2s-0.4,0.1-0.6,0.2
	s-0.5-0.3-0.7-0.3s-0.3,0.7-0.5,0.8s-0.5-0.3-0.6-0.2s-0.4,0.1-0.5,0.2s-0.5-0.5-0.7-0.5s-0.2,0.6-0.4,0.7s-0.5-0.4-0.6-0.4
	s-0.2,0.5-0.3,0.6s-0.2,0.5-0.4,0.6s-0.3-0.8-0.4-0.7l-1.1,0.3c-0.1,0-0.1,0.3-0.2,0.3s-0.4-0.2-0.5-0.2s0,0.6-0.1,0.6
	s-0.3,0-0.4,0.1s-0.2-0.2-0.3-0.1s0,0.5-0.1,0.5s-0.4-0.7-0.5-0.7s0.1,0.7,0,0.8h-0.2c-0.1,0-0.1-0.3-0.2-0.3c-0.5,0-1,0.1-1.5,0
	c-0.2,0-0.4,0.2-0.6,0.2s-0.7-0.1-1-0.2s-0.5-0.1-0.7-0.1s-0.7-0.1-1.1-0.1c-0.2,0-0.4-0.1-0.6-0.1c-0.5,0-1,0.6-1.5,0.6
	c-0.1,0-0.1-0.2-0.2-0.2c-1.3,0.1-2.6,0.1-4,0.3c0,0,0-0.2,0-0.1c-1.4,0.1-2.8-0.1-4.2,0s-3,0.7-4.5,0.8c-0.8,0.1-1.5,0.3-2.2,0.4
	c-2.2,0.1-4.3,0.6-6.3,1.4c-2,0.9-3.8,2.1-5.3,3.7c-1.5,1.7-2.2,3.9-3.2,5.6c-0.3,0.5-0.8,0.9-1.1,1.4c-0.6,1.2-1.3,2.4-2.1,3.5
	c-0.7-0.4-1.5-0.7-2.4-0.9c-2-0.2-4,0.1-5.9,0.9c-1.9,0.7-3.7,1.6-5.4,2.6c-1.7,1-3,2.7-4.5,3.9s-3.1,2.6-4.4,3.9
	c-1.5,1.3-2.9,2.7-4.2,4.1c-1.2,1.8-2.1,3.7-2.8,5.8c-0.7,1.8-1,3.9-1.8,6.1c-0.5,1.6-1.4,3.2-2,4.9s-1.5,3.2-2.2,4.8
	c-0.7,1.6-1.4,3.2-2.3,4.7c-0.2,0.4,0.3,1.2,0.1,1.6c0,0.1-0.5,0.1-0.5,0.2c-0.1,0.3-0.5,0.5-0.6,0.8c0,0.1,0.5,0.5,0.4,0.6
	c-0.1,0.3-0.5,0.6-0.5,0.9c0,0.1,0.5,0.3,0.5,0.4c-0.3,0.8-0.5,1.6-0.6,2.5c0,0.1-0.5,0.2-0.5,0.3c0,0.3,0.4,0.7,0.4,1
	c0,0.1,0,0.2,0,0.3s-0.1-0.1-0.1,0c-1.1,1-2,2.2-2.6,3.5c0,0-0.5-0.2-0.5-0.1c-0.3,0.4,0,1.1-0.2,1.6c-1.1,2.3-2.7,4.4-4.2,6.8
	c-0.8,1.3-1.6,2.8-2.4,4.2c-0.8,1.4-1.1,3-1.8,4.4c-1,1.8-1.7,3.8-2.3,5.8c-0.4,2-0.6,4.1-0.5,6.1c-0.1,2.3,0.2,4.5,0.8,6.7
	c0.3,1.2,0.4,2.4,0.3,3.7c0,1.4-0.2,2.8-0.6,4.1c-0.3,1.1-1.2,2-1.6,3c-0.6,1.5-0.4,3.3-0.7,4.9c-0.4,1.5-0.4,3.2,0.1,4.7
	c0.1,0.2,0.4,0.2,0.5,0.4s0.1,0.1,0.1,0.1s0,0.3,0,0.5s-0.3,0.4-0.3,0.5s0.5,0,0.6,0.1s0.2,0,0.3,0.1s0,0.4,0.1,0.5h-0.5
	c-0.3,1.5-0.4,3.1-0.4,4.6c0,0,0.5,0,0.5,0.1c0,0.4,0.1,0.7,0.1,1.1c0,0,0,0.1,0,0.1c0,0.4-0.5,0.8-0.5,1.2h0.4
	c0,0.4-0.6,0.9-0.5,1.4c0.2,1.9,0.8,4.2,1,6.7c0.2,2.2,0.3,4.5,0.5,6.7s0.3,4.6,0.5,6.7c0.2,2.7,1,5.1,1,6.7c0,0.5-0.5,1-0.5,1.4
	c0,0.1-0.3,0.2-0.3,0.3s-0.1,0.5-0.1,0.7s0.1,0.2,0.1,0.3c0,0.3,0.7,0.5,0.8,0.8c0,0-0.1,0-0.1,0c0.1,1.4,0.4,2.7,0.9,3.9
	c-0.7,1.7-0.8,3.8-1.6,6.1l-0.6-0.1c0,0.4,0.9,0.8,0.9,1.2c0,0.1,0,0.2-0.1,0.3c0,0.3-0.2,0.6-0.2,0.8s-0.1,0.9-0.1,1.3
	s-0.4,1-0.4,1.5c-0.1,1.7-0.3,3.3-0.6,4.9c-0.3,1.6-0.9,3.2-1.2,4.8c-0.2,1,0.3,2.2,0.1,3.2c0,0-0.5,0-0.5,0c-0.1,0.5,0,1,0,1.4
	c0,0.1,0.3,0.2,0.2,0.3c-0.1,0.4-0.5,0.8-0.6,1.2c0,0.1,0.2,0.1,0.2,0.2c-0.4,2.1-0.6,4.2-0.5,6.3c0.1,2.2,0.9,4.2,2.1,6
	c-0.1,0.2,0,0.3-0.1,0.4s-0.6,0.4-0.7,0.7s0.6,1,0.5,1.4c-0.1,0.2-0.4,0.4-0.4,0.6s-0.5,0.6-0.5,0.9s0.3,0.5,0.2,0.8
	c-0.1,0.5-0.7,0.8-0.8,1.3c0,0.2,0.7,0.5,0.7,0.7c0,0.5-0.4,0.9-0.5,1.4c0,0.2,0.1,0.5,0.1,0.7c0,0.4,0.3,0.9,0.3,1.3
	c0,0.2-0.7,0.4-0.7,0.6c0,0.7-0.1,1.3,0,2c0,0.2,0.7,0.3,0.7,0.5c0,0.5,0,1.1,0,1.7c0,0.2,0,0.5,0.1,0.7c0.1,0.6-0.2,1.3-0.1,1.9
	c0,0.1,0.2,0.3,0.2,0.4c0.1,0.8,0.1,1.6,0.2,2.4c0,0.2,0.1,0.4,0.1,0.6c0.1,0.6,0.9,1.1,1,1.8c0,0.2-0.5,0.6-0.4,0.8
	c0.2,0.8,0.9,1.6,1.1,2.5c0.1,1.4,0.1,3.7,1.9,5.6c0.1,0.1,0.5,0.1,0.7,0.2c-0.1,0.1-0.4-0.1-0.5,0s-0.3,0.3-0.5,0.5l-0.4,0.5
	c0,0,0.6,0.6,0.6,0.6c-0.2,0.3-0.6,0.4-0.8,0.8c0,0,0,0.1,0,0.1s-0.6-0.3-0.7-0.3s0.7,0.5,0.6,0.6s-0.5,0.1-0.6,0.3s-0.4-0.1-0.4,0
	s0.5,0.7,0.4,0.8s-0.7-0.2-0.7-0.1s-0.4,0.2-0.4,0.4s0.1,0.3,0.1,0.4s0,0.3,0,0.5c-0.2,0.9-0.4,1.8-0.5,2.7c0,0,0.1,0.1,0.1,0.1
	c0,0.2-0.2,0.5-0.2,0.7c0,0-0.8,0-0.8,0c0,0.3-0.1,0.5-0.1,0.8c0,0.1,0.5,0.2,0.5,0.3c0,0.3-0.3,0.5-0.3,0.7c0,0.1,0.2,0.2,0.2,0.3
	c0,0.3-0.2,0.5-0.2,0.8c0,0.1-0.1,0.2-0.1,0.3c0,0.3-0.1,0.5-0.1,0.8s0,0.3,0,0.4s0.2,0.5,0.2,0.8s-0.1,0.3-0.1,0.5s0.7,0.4,0.7,0.6
	s0.2,0.4,0.3,0.7s-0.8,0.4-0.8,0.5c-0.2,1.6,0.3,4.4,0.8,7.3c0.4,2.3,0.6,4.9,2.1,7c1.1,1.3,2.5,2.3,4.1,3c1.4,0.9,3,1.6,4.7,1.9
	c1.3,0.1,3.1,0.4,5.1,0.7s4.3,0.6,6.3,0.8c2.2,0.2,4.3,0,6.4,0.1c2.2,0.2,4.3,0.3,6.3,0.3c2.2,0,4.4-0.2,6.5-0.6
	c2.5-0.4,4.8-0.5,6.4-1.5c1.9-1.3,3.3-3.2,3.8-5.4c0.6-2.3,1.1-4.6,1.5-7c0.3-2.1,0.8-4.5,1-7.1c0.1-2.3,0-4.5-0.1-6.8
	c-0.1-2.3-0.3-4.5-0.9-6.7c0-0.2-0.3-0.4-0.3-0.6c0,0,0.4-0.2,0.4-0.3c-0.3-1.1-1.4-1.8-1.9-2.8l0.4-0.3c0,0,0-0.1,0.1-0.1
	s0.2-0.1,0.2-0.3s-0.4-0.2-0.4-0.3s0-0.2,0.1-0.3s0-0.1,0-0.2s0.1-0.3,0.1-0.4s0.5,0.1,0.5,0.1s0.4-0.2,0.5-0.3s-0.5-0.3-0.5-0.3
	s0.7-0.1,0.8-0.3c0,0-0.1-0.1-0.1-0.1c0.2-0.4-0.1-1,0.1-1.3c1-2.4,2.1-5,3.1-7.8c0.4-1.1,1.3-2,1.6-3.2c0.1-0.3-0.4-0.7-0.4-1
	c0.6-2.1,0.9-4.3,1-6.5c0-2.2-0.7-4.4-1.8-6.4l0,0c-0.1-0.2,0.4-0.7,0.3-0.8s-0.2,0-0.2-0.1s-0.3-0.2-0.4-0.3s-0.2,0-0.2-0.1
	s-0.5-0.2-0.6-0.3c0,0-0.1,0.1-0.1,0.1c-0.1-0.2,0.3-0.9,0.1-1s-0.6,0.4-0.7,0.4s0.2-0.8,0.1-0.9s-0.3,0.2-0.4,0.1s-0.6,0-0.9-0.1
	c0,0,0.2-0.4,0.2-0.4c-0.2-0.1-0.3-0.6-0.5-0.7c-0.1,0-0.5,0.5-0.5,0.5s-0.2-0.5-0.4-0.6h0.1c0.1-0.2-0.5-0.5-0.4-0.6
	c0.9-2.2,2.3-4,2.9-6c0.6-2.2,0.9-4.4,1-6.6c0.2-2.2,0-4.4-0.4-6.6c-0.3-2.2-0.9-4.3-1.7-6.4c-0.7-2-0.5-3.8-0.7-5.2
	c-0.2-1.7-0.2-3.4,0-5.1c0.1-1-0.5-2.1-0.5-3.3c0-0.2,0.4-0.3,0.4-0.5c0-1.5-0.4-3-1.3-4.2c0-0.2-0.7-0.3-0.6-0.5s0.6-0.4,0.6-0.6
	s0-0.7,0.1-1s0.8-0.4,0.8-0.7s0.1-0.7,0.1-1s-0.5-0.7-0.4-1s0.3-0.6,0.4-1s-0.3-0.7-0.2-1s0.4-0.7,0.4-1s0.6-0.5,0.6-0.8
	s-0.5-0.8-0.4-1.2s0.9-0.5,0.9-0.8s-0.4-0.8-0.4-1.2s0.2-0.6,0.3-1s0.3-0.8,0.3-1.1s0.1-0.7,0.1-1s-0.2-0.8-0.1-1.2s0.5-0.7,0.5-1
	s-0.3-0.8-0.3-1.3s-0.1-0.7-0.1-1s0.3-0.8,0.3-1.3s-0.5-0.7-0.5-1s-0.1-0.8-0.1-1.3s0.5-0.7,0.5-1.1s0-0.9,0-1.3s-0.3-0.7-0.4-1
	s0.3-1,0.2-1.4s-0.8-0.6-0.9-0.9c-0.1-0.5,0.5-1.1,0.4-1.6c-0.1-0.3-0.2-0.6-0.3-0.9c-0.1-0.7-0.9-1.2-1.1-1.9
	c0-0.1,0.4-0.4,0.4-0.5c-0.4-1.3-0.9-2.5-1.1-3.8c-0.1-0.6-0.5-1.1-0.7-1.8c0-0.1,0.1-0.2,0.1-0.3s0-0.4,0-0.6s-0.3-0.2-0.4-0.4
	s0.2-0.4,0.2-0.5s0-0.4-0.1-0.5s0.2-0.4,0.2-0.5s-0.4-0.3-0.4-0.5s-0.2-0.3-0.2-0.4s-0.8,0-0.8-0.2s0.5-0.7,0.4-0.9
	s-0.3-0.2-0.4-0.3c-0.2-0.3-0.5-0.5-0.6-0.8c0,0-0.2-0.5-0.1-0.5s0.2-0.1,0.3-0.2s0.3,0,0.4,0s0.4,0.1,0.5,0s-0.1-0.4,0-0.5
	s0.3,0,0.4-0.1s0.4,0.1,0.5,0s-0.4-0.8-0.3-0.8l0.2-0.2c0.1-0.1,0.3-0.1,0.3-0.2s0.8,0.3,0.8,0.2s-0.2-0.5-0.1-0.6s-0.1-0.4-0.1-0.5
	s0.2-0.2,0.3-0.3s-0.1-0.3,0-0.4s0.1-0.2,0.2-0.3s0.4,0,0.5-0.1s0.7,0,0.7-0.1s-0.5-0.5-0.4-0.6s-0.1-0.3,0-0.5s0.9,0.1,0.9,0
	s-0.4-0.5-0.4-0.6s0.4-0.1,0.4-0.2s0.4-0.2,0.4-0.4s0-0.3,0-0.4s-0.7-0.5-0.7-0.7s0.3-0.2,0.3-0.3s0.5-0.3,0.5-0.4s-0.3-0.3-0.3-0.4
	s-0.4-0.4-0.3-0.6s0.5-0.2,0.5-0.3c0-0.3,0.3-0.6,0.3-0.9s-0.5-0.7-0.5-1.1c0-2,0.2-3.7,0.1-5c0-0.2,0-0.5,0-0.7
	c-0.3-3.1-0.4-3.9,1.5-7.7c0.1-0.3,0-0.8,0.1-1.1c0-0.1,0-0.3,0.1-0.4s0.1-0.4,0.2-0.6s0.3-0.2,0.4-0.3s0.2-0.3,0.3-0.5
	s0.3-0.2,0.4-0.3s0.1-0.3,0.1-0.5s-0.3-0.4-0.3-0.5s-0.1-0.3,0-0.5s-0.2-0.3-0.2-0.4s0.6-0.2,0.6-0.4s-0.4-0.3-0.4-0.4
	s0-0.3,0.1-0.5s0.2-0.2,0.2-0.3s0.5-0.3,0.5-0.5s-0.3-0.1-0.3-0.2s0.3,0.3,0.4,0.3s0.3,0,0.4-0.1s0.2-0.4,0.4-0.5s0-0.5,0-0.5
	s0.6,0.1,0.8,0s0.2-0.1,0.2-0.1c0.2-0.2,0.1-0.8,0.4-1c0.1-0.1,0.5,0.3,0.6,0.2s0-0.7,0.1-0.9s0.7,0.2,0.7,0.1s-0.2-0.7,0-0.9
	s-0.1-0.4,0-0.5s0.9,0.1,1-0.1s-0.6-0.7-0.5-0.8s0.6-0.2,0.7-0.4s-0.1-0.3,0-0.4c0.2-0.3,0.8-0.4,1-0.7c0-0.1-0.5-0.5-0.5-0.5
	c0.1-0.3,1.1-0.1,1.2-0.4s-0.6-0.6-0.5-0.8s0.3-0.4,0.4-0.6s0.7,0,0.8-0.1s0.3-0.4,0.4-0.6s0-0.3,0.1-0.5s0.3-0.4,0.4-0.6
	s-0.4-0.5-0.4-0.6c0.1-0.3,0.7-0.5,0.9-0.8c0.7-1.6,0.9-3.6,1.8-5.2c0.9-1.6,1.8-3.2,2.9-4.7c1-1.5,2.4-2.8,4-3.7
	c2.4-1.2,4.5-3,6-5.2c0.9,0.4,1.9,0.6,2.9,0.6c0.1,0,0.3-0.3,0.4-0.3s0.1,0.2,0.1,0.2s0.2,0.2,0.3,0.2s0.2,0,0.3,0s0.1-0.5,0.2-0.5
	s0.3,0.2,0.4,0.2s0.3,0.5,0.4,0.5s0.2-0.4,0.3-0.4s0.2,0,0.3,0s0.2-0.2,0.3-0.2s0-0.3,0.1-0.4s0.3,0.1,0.4,0s0.3,0.2,0.3,0.2
	s0.4,0.1,0.5,0s-0.1-0.5,0-0.5s0.5,0.3,0.6,0.2s0.1-0.1,0.1-0.2s-0.1-0.8,0-0.8l0.2-0.1c0.1-0.1,0.4,0,0.5,0s0-0.2,0-0.3
	s0.5,0.2,0.7,0.1s-0.1-0.3,0-0.3l0.4-0.3c0,0,0-0.2,0-0.2s0.2-0.3,0.3-0.4s0.2,0.1,0.2,0s0.6,0.3,0.8,0.2s0-0.2,0-0.3
	s0.3-0.1,0.5-0.2s-0.3-0.5-0.3-0.6l0.4-0.4c1.6-1.6,3.4-1.6,5.5-1.6c0.7,0,1.5-0.5,2.3-0.5c0.4,0,0.8,0.2,1.2,0.2v0.1
	c0.4,0,0.8,0.2,1.2,0.2c0,0,0.1-0.1,0.1-0.1c0.4,0,0.8-0.4,1.1-0.4c0,0,0.1,0.6,0.2,0.6c0.4,0,0.8-0.4,1.2-0.5c0,0-0.1,0,0,0
	c1.6,1,3.9,1.5,6.3,2.4c0.1,0,0,0.3,0.1,0.4c0.2,0.1,0.5,0.2,0.7,0.3s0.7,0.3,1,0.4s0.6,0.1,0.9,0.2c2.3,0.4,4.6,0.3,6.8-0.3
	c2.2-0.6,4.3-1.4,6.4-2.4c0.1-0.1,0.4,0.3,0.6,0.2s-0.1,0.1-0.1,0.1s-0.1,0.2-0.1,0.2c0.4,0.4,1.2,0.3,1.5,0.7
	c0.1,0.1-0.2,0.7-0.1,0.8c0.5,0.5,1.2,0.6,1.7,1c0.1,0.1,0,0.4,0.1,0.5c0.4,0.3,0.5,0.9,0.9,1.1c0.2,0.1,0.5,0,0.7,0.1
	s0.5,0.7,0.8,0.9s0.7-0.3,0.9-0.1s0.6,0.3,0.9,0.5s0.1,0.8,0.3,0.9s1-0.5,1.3-0.4s0.1,0.8,0.3,0.9s0.7,0,1,0.1s0.3,0.4,0.5,0.4
	s0.7,0.3,1,0.4c0.2,0,0.3,0.1,0.5,0.1c0.5,0.1,1.1-0.3,1.5-0.2c0,0-0.1,0.7-0.1,0.7c0.5,0.1,1,0.2,1.5,0.3c0.2,0,0.3,0.2,0.5,0.2
	c0.3,0,0.7,0,1,0.1s0.4,0.2,0.6,0.2h0.9c0.2,0,0.4-0.6,0.6-0.6s0.3,0.2,0.5,0.2s0.2-0.3,0.3-0.3c0.6,0,1.3,0.2,1.9,0.1l0,0
	c0.6,0,1.3,0,1.9-0.1c0.2,0,0.3-0.3,0.5-0.3s0.3,0.4,0.5,0.4c0,0,0.3-0.3,0.3-0.3c0,0.3,0.1,0.5,0.1,0.8c0,0-0.6,0.1-0.6,0.1
	c0,0.3,0.6,0.4,0.6,0.7c0,0.1-0.5,0.2-0.5,0.3c0,0.2-0.1,0.5,0,0.8c0,0,0.3,0,0.3,0c0.1,0.2,0.3,0.3,0.4,0.5c0,0-0.2,0.2-0.2,0.2
	c0.1,0.2,0.3,0.3,0.4,0.5s-0.2,0.2-0.2,0.3s0.2,0.4,0.3,0.5l0.4-0.2c0.1,0.2-0.1,0.6,0,0.8s0.5-0.3,0.5-0.2s-0.1,0.6,0,0.8
	s0.6-0.4,0.6-0.4s-0.2,0.6,0,0.8s0.1,0,0.1,0s0.3,0.2,0.5,0.3s-0.1,0.2-0.1,0.3c0.3,0.3,1,0,1.3,0.2c0,0-0.1,0.3-0.1,0.3
	s0.5-0.1,0.6,0s-0.1,0.2-0.1,0.2s0.3,0.1,0.5,0.2l0,0c0.3,0.2,0.6,0.2,0.9,0.4c1.2,0.7,2,2.2,3.4,3.5c1,0.9,2.7,1.6,3.7,3.3
	c0.3,0.5,0.4,1.2,0.8,1.7c0.1,0.1,0.1,0.3,0.2,0.4c0.3,0.4,0.6,0.8,0.9,1.2c0.1,0.2,0.5,0.2,0.7,0.3s-0.1,0.7,0,0.8
	c1.5,2.1,3.3,4.1,5.4,5.7c-0.1,0.5,0.4,0.9,0.3,1.4c-0.1,0.3-0.3,0.5-0.3,0.7c-0.3,1-0.3,2-0.5,3c0,0.2-0.6,0.3-0.7,0.5
	c-0.2,0.8-0.6,1.5-0.8,2.3c0,0.3,0.1,0.6,0.1,0.9c-0.1,0.7,0.1,1.5,0,2.2c0,0.2-0.5,0.4-0.5,0.6c-0.1,0.9,0,1.8-0.1,2.6
	c0,0.2,0,0.3,0,0.5c0,0.7,0.2,1.4,0.1,2c0,0.3-0.3,0.5-0.3,0.7c0,0.6,0.5,1.2,0.5,1.8c0,0.2-0.9,0.4-0.9,0.6c0,0.8,0.7,1.5,0.8,2.2
	c0,0.1,0,0.3,0,0.4c0.1,0.6,0.3,1.1,0.4,1.7c0,0.2,0.3,0.4,0.3,0.6c0.1,0.5-0.7,1.2-0.6,1.7c0,0.2,1,0.1,1,0.3
	c0.2,0.6-0.1,1.4,0.1,2c0,0.1,0.4,0,0.5,0.2c0.2,0.5,0.2,1,0.5,1.5c0.1,0.2,0.3,0.2,0.4,0.4s0.3,0.4,0.4,0.6s-0.1,0.5-0.1,0.6
	s-0.3,0.1-0.3,0.2c-0.1,0.4-0.5,0.7-0.6,1.1c0,0.1,0.5,0.2,0.5,0.3c-0.1,0.3-0.3,0.7-0.3,1c0,0.1-0.1,0.3-0.1,0.4
	c0,0.3-0.4,0.6-0.4,0.9s0.4,1,0.4,1.4h-1c0,1.6,0.7,3.4,0.9,5.3c0.1,1.6,0.5,3.4,0.7,5.2c0.2,1.7-0.1,3.5,0.1,5.3s0.2,3.7,0.4,5.4
	s0.4,3.7,0.5,5.4c0.1,2,0.6,3.8,0.5,5.4c0,0.4-0.1,0.8-0.1,1.2h0.4c0,0.5-0.5,1-0.5,1.4c0,0.2-0.4,0.4-0.3,0.6s0.5,0.5,0.6,0.8
	s0.1,0.4,0.2,0.6s-0.7,0.7-0.7,0.9s0.2,0.4,0.3,0.6s0.8,0.3,0.9,0.5c0,0,0,0.3,0,0.3c-0.1,0.2-0.3,0.3-0.4,0.5s0.1,0.2,0.1,0.3
	c-0.1,0.5-0.5,0.8-0.6,1.3c0,0,0.1,0.1,0.1,0.1s-0.2,0.1-0.2,0.1c-0.3,1.1-0.5,2.3-0.6,3.4c-0.3,2.1-0.5,4.1-0.6,6.2
	c-0.1,1.9-0.3,4-0.2,6.3c0,2,0.5,4.1,0.6,6.2s-0.2,4.3,0.2,6.3s1.5,4.1,2.1,5.9c0.6,2,1.6,3.8,2.8,5.5c-0.1,0.1-0.8,0.4-0.9,0.5
	s0.1,0.5,0,0.6s-0.5,0.3-0.7,0.5s-0.6-0.2-0.7,0s0.4,1,0.3,1.3s-0.6-0.1-0.6,0s-0.4,0.2-0.5,0.4s0.1,0.4,0.1,0.6s-0.3,0.3-0.4,0.5
	s-0.3,0.2-0.4,0.3s-0.1,0.4-0.1,0.5s0.1,0.4,0.1,0.5s-0.2,0.3-0.3,0.5s-0.6,0.1-0.7,0.3s0,0.4-0.1,0.6s0.7,0.5,0.6,0.7
	s-0.4,0.3-0.5,0.4s-0.4,0.2-0.5,0.4s0.1,0.4,0.1,0.6s-0.1,0.3-0.1,0.5s0.1,0.4,0.1,0.6s-0.7,0.2-0.8,0.4s0.8,0.5,0.7,0.7
	s-0.3,0.3-0.4,0.5s-0.6,0.3-0.6,0.5s0.6,0.4,0.6,0.5s-0.3,0.4-0.3,0.6s-0.2,0.3-0.2,0.5s0.6,0.5,0.6,0.7s-0.5,0.3-0.5,0.4
	c0,0.3,0.6,0.7,0.6,1c0,0-0.4,0.1-0.4,0.2c0,0.3-0.2,0.7-0.2,1.1c0,0.1,0.6,0.3,0.6,0.4s-0.6,0.5-0.5,0.7s0,0.3,0,0.5
	s0.4,0.4,0.5,0.6s-0.2,0.3-0.2,0.5s0.5,0.4,0.5,0.6s-0.9,0.4-0.9,0.6s0.9,0.3,0.9,0.5s-0.6,0.4-0.6,0.6s0.8,0.3,0.9,0.5s0,0.3,0,0.5
	s-0.4,0.5-0.4,0.7s-0.1,0.4-0.1,0.5s0.1,0.4,0.1,0.6s0.5,0.3,0.5,0.4s-0.6,0.5-0.6,0.7s0.8,0.2,0.8,0.3s-0.7,0.5-0.7,0.8l0.1,0.5
	c0,0.2,0.9,0.2,1,0.4s-0.5,0.4-0.5,0.5s0.3,0.4,0.4,0.6s0.4,0.2,0.5,0.3s-0.5,0.6-0.5,0.8c0,0.1-0.1,0.2,0,0.3
	c0.1,0.3,0.4,0.6,0.5,0.9s0.4,0.6,0.5,1c0.3,2,0.5,4,0.5,6.1c0.1,0.4,0.2,0.7,0.3,1.1c0,0-0.2,0-0.2,0c-0.6,0.7-1.1,1.5-1.6,2.2
	c-1.3,1.4-2.4,3.1-3.2,4.9c-0.6,1.8-0.4,3.8-0.6,5.8c-0.2,1.8-0.8,3.8-0.6,5.8c0,0,0.5,0,0.5,0.1c0.1,0.6-0.1,1.2,0,1.8
	c0,0.1-0.3,0.3-0.3,0.5c0.1,0.7,1.1,1.2,1.2,1.9s-0.7,1.7-0.6,2.8c0,0.1,0.6,0.1,0.6,0.2s-0.8,0.2-0.8,0.3c0.3,1.6,0.7,3.1,1.3,4.6
	c0.5,1.6,1.2,3,2.2,4.3c0.9,0.8,1.9,1.5,3,2c2.1,1.2,4.5,1.7,6.9,1.6c1.8,0,3.9-0.5,6.4-0.8c1.9-0.2,4-0.6,6.4-0.9s4.8-0.1,7.1-0.3
	c2.9-0.2,5.5-0.7,7.1-0.6s3.4,0.9,5,0.5c1.7-0.4,3.3-1.1,4.8-2c1.4-0.9,2.1-2.7,3.1-4.1c0.2-0.3,1-0.3,1.2-0.6
	c1.1-1.7,1.9-3.5,2.4-5.5c0.4-2,0.5-4,0.3-5.9c0-2-0.4-3.9-1-5.8c-0.1-0.3-0.6-0.5-0.7-0.8c0-0.1,0.2-0.4,0.2-0.5s-0.7-0.2-0.7-0.4
	s-0.2-0.3-0.3-0.5s0.1-0.3,0-0.5c-0.2-0.4-0.4-0.8-0.5-1.2c0-0.1,0.5-0.4,0.4-0.4c-0.1-0.2-0.6-0.3-0.7-0.5c0-0.1-0.2-0.1-0.2-0.2
	c-0.3-0.7-0.6-1.5-1-2.2c-0.1-0.1,0.2-0.4,0.2-0.5s-0.5-0.2-0.6-0.4s0.2-0.6,0.1-0.8s-0.7,0-0.8-0.1S506.4,673.3,506.4,673.2z
	 M502.8,653c-0.3,1.4-1.1,2.8-1.4,4.4h-0.2c-0.4,2.4-1.1,6.5-1.8,7.8c-1.1,0.2-2.2,0.1-3.3-0.2c-0.1,0-0.2,0.1-0.2,0.1
	c-2.6-1.1-5.3-1.8-8.1-1.9c-1.7,0-3.7-0.2-5.8-0.1c-1.8,0-3.8,0.6-5.8,0.8c-1.9,0.1-3.9,0.3-5.8,0.7c0-0.2-0.4,0-0.4-0.3
	s-0.1-0.4-0.1-0.7c-0.1-0.4-0.1-0.8-0.2-1.2c0-0.2,0.2-0.5,0.2-0.7c-0.1-0.6-0.3-1.2-0.5-1.9c-0.2-1-0.1-2.2-0.3-3.4
	c0-0.1,0.1-0.2,0.1-0.2c-0.1-0.4-1-0.7-1-1.1c0-0.1,0.8-0.3,0.8-0.5s-0.6-0.1-0.6-0.3s0.3-0.3,0.3-0.5s-0.1-0.2-0.1-0.3
	s-0.3-0.3-0.4-0.5s0.2-0.1,0.2-0.1c-0.1-0.5,0.1-1,0.1-1.5h-0.7c-0.2-1.7,0.3-3.5,0.2-5c0-1.9-0.7-3.7-0.3-5.1l0.7,0.2
	c0-0.2-0.1-0.4,0-0.6l0,0c0.1-0.2-0.3-0.5-0.2-0.6s0.3,0.1,0.3,0.1s0.1-0.3,0.2-0.4s-0.3-0.2-0.3-0.3s0.9,0.2,0.9,0.1
	s-0.7-0.6-0.7-0.6s0.3-0.1,0.4-0.2s0.5,0.3,0.5,0.2s0.1-0.2,0.2-0.3s0-0.2,0-0.2s0.2-0.1,0.3-0.2c0.7-0.4,3.5-1.4,7.2-2.9
	c2.3-0.4,4.5-1,6.6-1.7c2.2-0.7,4.4-1.4,6.5-2.3c1.5-0.3,3-0.4,4.5-0.4c1.5,0.6,3,1.4,4.2,2.5c1.5,1.7,2.7,3.6,3.7,5.7
	c0.9,2.1,1.3,4.5,1.2,6.8C503.6,648.5,503.3,650.7,502.8,653z M497.7,621c-1.6-0.8-1.3-1.3-2.9-2.1c-1.4-0.8-3.2-0.8-4.7-0.2
	c0,0-0.1,0-0.2,0l0.2,0.4c-0.1,0.1-0.2,0.3-0.4,0.3c-0.5,0.3-1.6,0.3-2.9,0.8c-2.2,0.3-4.3,0.8-6.4,1.4c-2.2,0.7-4.2,1.8-6.1,2.6
	c-1.1,0.1-2.3-0.2-3.3-0.8c0,0-0.5,0.6-0.5,0.6l-0.1-0.1c0,0,0-0.1,0-0.2s0.2-0.3,0.1-0.4s-0.1,0-0.1,0s0.2-0.3,0.2-0.4
	s0.1-0.2,0.1-0.3s-0.8,0.2-0.9,0.1s0.7-0.5,0.7-0.6s-0.6,0.1-0.6,0s0.2-0.5,0.2-0.7c0,0,0.1,0,0.1-0.1c-0.1-0.2-0.3-0.4-0.3-0.7h0.2
	c-0.5-2.1-0.9-4.2-1.1-6.3c-0.3-1.9-1.2-3.9-1.3-6.4c0-0.4,0.5-0.8,0.5-1.2c-0.1-2.2-0.8-4.2-0.8-5.9c0.1-2.4,0.8-4,1.1-5.5
	c1.7,0.6,3.4,0.9,5.2,1.2c1.9,0.3,3.7,0.3,5.6,0.1c0,0,0-0.4,0-0.4c0.3,0,0.6,0.2,0.9,0.1s0.3-0.1,0.4-0.2s0.3-0.5,0.5-0.5
	s0.8,0.6,1,0.5c0.1,0-0.2-0.9-0.1-1c0.3-0.1,0.7-0.1,1-0.3c0,0,0.2,0.5,0.3,0.5c0.3-0.2,0.6-0.3,0.9-0.5c2-0.3,3.8-0.8,5.6-1.2
	c2.1-0.5,4-0.9,5.5-1.3c0.2,2,0.6,3.9,1.3,5.8c0.8,1.9,1.9,3.6,2.8,5.3c1,1.9,1.6,3.4,2.1,4.6c0.9,2.3,1.2,3.5,0.3,4.7
	c-1.8,2.2-3.1,4.8-3.8,7.6C497.8,620.5,497.8,621,497.7,621z M464.2,528.9c0-0.3,0.6-0.5,0.6-0.8c0-0.1,0.2-0.1,0.2-0.2
	c0-0.2,0.1-0.5,0.1-0.7s-0.5-0.3-0.5-0.4s-0.1-0.5-0.1-0.7s0.5-0.2,0.5-0.4s0.2-0.4,0.2-0.6s-0.4-0.4-0.3-0.6s0.5-0.3,0.5-0.5
	s-0.7-0.5-0.6-0.7s0-0.4,0.1-0.6s0.1-0.5,0.2-0.7s0.4-0.3,0.4-0.5s0-0.6,0.1-0.9s0.4-0.3,0.5-0.4s0.3-0.6,0.4-0.9
	c0-0.1-0.7-0.5-0.7-0.6c0.1-0.3,1-0.5,1.1-0.8c0-0.1-0.5-0.4-0.5-0.5c0.1-0.4,0.5-0.7,0.6-1.1c0-0.1,0-0.2,0-0.3
	c0.1-0.4,0-0.9,0.1-1.3c0.4-0.1,0.5,0.3,0.9,0.3s0.6,0.4,0.9,0.5c0.2,0,0.5-0.6,0.6-0.5c0.3,0.1,0.5,0.8,0.9,0.9
	c0,0,0.3-0.7,0.3-0.7c0.3,0.1,0.5,0.9,0.9,1c1.7,0.4,3.4,0.7,5.1,0.8c1.7,0.2,3.5,0,5.1-0.5c2-0.8,3.6-2.2,4.7-4.1
	c1.8-2.1,2-2,4.1-3.8c0.7-0.1,1.3-0.2,1.9-0.3c1.3,0.1,2.5,0,2.8,0.1c0,0-0.2,0.8-0.2,0.8s0.5-0.8,0.6-0.8s0,0.2,0.1,0.2
	s0.2,0.6,0.4,0.6c0.7,0.3,1.2,0.8,1.5,1.5c0.7,1.3,0.7,2.9,0.2,4.2c-0.7,1.9-1,3.9-1.2,5.9c-0.3,2-0.4,4-0.3,6c0.3,2,0.8,4,1.3,5.9
	c0.5,2,0.9,3.9,1.5,5.8s1.5,3.8,2.1,5.6c0,0,0.1-0.3,0.1-0.3c-3-0.6-6.1,0.8-8.5,1.8c-0.5,0.2-1,0.7-1.5,0.9c-3.5,0-6.6,0-7.7-0.1
	c-2.2-0.6-4.5-1.9-6.9-2.8s-4.9-2.1-6.7-2.9c-0.7-0.7-1.5-1.3-2.3-1.9c0,0-0.2,0.4-0.2,0.4s-0.1,0-0.1-0.1s-0.3,0.1-0.4,0.1
	l-0.1-0.1c0,0,0-0.1-0.1-0.2s0.4-0.5,0.4-0.5s-0.7,0.5-0.7,0.4s0.6-0.7,0.5-0.7s-0.6-0.2-0.7-0.4c0,0-0.2,0.1-0.2,0.1
	s-0.3-0.2-0.4-0.3l0.7-0.4c-0.9-1.7-1.5-3.7-1.6-5.7h-0.2c0-0.2-0.2-0.5-0.2-0.7c0,0-0.1-0.1-0.1-0.1c0-0.2,0.5-0.5,0.5-0.8
	c0,0-0.7-0.1-0.7-0.1c0-0.3,0-0.5,0-0.8C464.2,528.9,464.2,528.9,464.2,528.9L464.2,528.9z M498.1,558.5c-0.2,2.4-0.8,4.6-0.6,6.5
	c0.1,2.2,0.3,4.4,0.7,6.5c0.5,2.1,1.2,4.2,2,6.3c0.5,1.3,1.2,2.3,1.5,3.3c-2.4,0.5-2.5,0.3-5,0.2c-1.7-0.4-3.5-0.6-5.2-0.4
	c-1.7,0.2-3.4,0.6-5.1,1.1c-1.5,0.5-3,1.5-4.7,2.3c-0.3,0-0.6-0.4-0.8-0.3s-0.4,0.8-0.6,0.8l-0.7,0.1c-0.3,0-0.5,0-0.8,0
	s-0.3-0.3-0.4-0.3c-2.1,0.2-4.3,0.3-6.4,0.1c-0.1,0-0.1-0.4-0.2-0.4s-0.1-0.2-0.2-0.2s-0.5,0.7-0.6,0.7c-0.7-0.7-0.7-1.5-1.4-1.9
	c0.1-1.9-0.5-4-0.6-6.3c-0.1-2,0.1-4.2-0.1-6.4s-0.5-4.3-0.8-6.4c-0.1-1.1-0.5-2.3-0.7-3.6c0-0.1,0.2-0.2,0.2-0.3
	c-0.1-0.5,0.2-1.1,0.1-1.7c0-0.1-0.7-0.1-0.7-0.2c0-0.3,0.6-0.6,0.6-0.9s-0.8-0.2-0.8-0.4c0-0.4,0.7-1,0.6-1.4
	c0-0.2-0.2-0.3-0.3-0.5s0-0.5-0.1-0.8s-0.5-0.5-0.5-0.8s0.3-0.5,0.2-0.8s-0.1-0.3-0.1-0.5s0.2-0.4,0.2-0.4c1.7,0.9,2.9,2.5,4.5,3.1
	c1.8,0.8,3.9,0.5,5.4,0.9c1.7,0.5,3.4,0.9,5.1,1.3c0.1,0,0.2,0.6,0.4,0.6s0.1,0,0.1,0c0.5,0.1,1,0,1.4,0.2c0,0,0,0,0.1,0
	c0.5,0.1,0.8,0.7,1.2,0.7c0,0,0.1-0.2,0.2-0.2c0.4,0.1,0.8,0,1.2,0s0.9-0.4,1.3-0.4l-0.3,0.1c0.4,0.8,1,0.2,1.4,0.2
	c0.1,0,0.2-0.2,0.3-0.2c0.3,0,0.5-0.2,0.8-0.2c0.1,0,0.2,0.5,0.3,0.4c0.4,0,0.7,0,1-0.1c0,0,0.2,0.3,0.2,0.3
	c0.3-0.1,0.6-0.6,0.9-0.6c0,0,0-0.1,0.1-0.1s0.2-0.3,0.3-0.4c1.6,0,3.3-0.1,4.9-0.3c0,0.1,0.2,0.4,0.2,0.5
	C497.9,557.7,498.1,558.1,498.1,558.5L498.1,558.5z M484.4,480.6c0,0.1-0.6,0.2-0.6,0.3s-0.2,0.5-0.3,0.7s0,0.3,0,0.5
	s0.5,0.4,0.5,0.6s0.2,0.3,0.2,0.5s-0.5,0.4-0.4,0.6s0,0.4,0,0.6s0.5,0.3,0.5,0.5s-0.4,0.5-0.3,0.6s0.8,0.2,0.9,0.4s0.1,0.4,0.2,0.5
	s0,0.4,0.1,0.6s-0.2,0.5-0.1,0.6s0.2,0.4,0.3,0.5s-0.2,0.5-0.1,0.7s0,0.5,0,0.6s0.9,0.1,1,0.3s-0.6,0.7-0.6,0.9s0.7,0.2,0.8,0.4
	s-0.2,0.5-0.1,0.8s0.3,0.4,0.3,0.5s0.4,0.3,0.5,0.5s0,0.5,0.1,0.7s-0.1,0.5,0,0.8s0.8,0.1,0.9,0.3s-0.4,0.7-0.3,0.9s0.9,0,1,0.2
	s-0.4,0.8-0.3,1s0.4,0.3,0.5,0.5s0.2-0.1,0.3,0c-2.3,0.4-4.4,1.4-6.2,2.8c-1.9,1.2-3.5,2.9-4.5,4.9c-2.5,0.7-2.6-0.3-5.2-0.6
	c-1.8-0.2-1.8,0.2-3.6,0c-1.1-0.2-2.1-1.2-3.2-1.2c-0.2,0-0.4,0.9-0.6,0.9s-0.2-0.1-0.4-0.1c0,0-0.1-0.5-0.2-0.5s-0.1,0-0.1,0
	s-0.1,0.1-0.2,0.1s-0.1-0.1-0.1-0.1s0-0.5,0-0.5s-0.2,0.2-0.2,0.2s-0.1-0.1-0.2-0.1s-0.2,0.2-0.3,0.2s0-0.4-0.1-0.4S464,503,464,503
	s-0.3,0.2-0.4,0.1s-0.3,0.1-0.4,0s0-0.5-0.1-0.6s-0.1-0.2-0.2-0.2s0-0.4-0.1-0.5s-0.4,0.2-0.5,0.1s-0.3-0.1-0.4-0.2s-0.4,0-0.5,0
	l-0.4-0.3c-0.1-0.1-0.2-0.3-0.3-0.4s0.2-0.7,0.1-0.8s-0.8,0.4-1,0.3s0.4-0.9,0.3-1s-0.5,0-0.6-0.1s-0.5-0.2-0.6-0.4
	s-0.4-0.2-0.5-0.3s0.3-0.9,0.1-1.2s-0.4-0.1-0.5-0.3c-0.3-0.4-0.7-0.7-1-1.1c-1.1-1.6-2.3-3.1-3.6-4.5c-1.3-1.4-2.8-2.7-4.4-3.7
	c0,0,0.2-0.4,0.2-0.4s-0.7,0.4-0.9,0.3l-0.1-0.1c-0.1-0.1-0.1-0.5-0.2-0.5s0-0.2-0.1-0.3s-0.3,0-0.5,0s0-0.4-0.1-0.4
	s-0.5,0.4-0.6,0.4s0.2-0.7,0.1-0.7s-0.4,0.3-0.4,0.3s-0.3-0.4-0.4-0.5c0.4-1.2,1-2.3,1.6-3.4c0,0,0.5,0.2,0.5,0.1
	c3.8-1,3.9-0.9,7.7-1.9c0.6-0.1,0.9-1,1.5-1.1c1.6-0.4,1.6-0.4,3.2-0.8s3.1-0.8,3.9-2.2c-0.1-0.8,0-1.5,0.3-2.2
	c0.7-0.9,1.3-1.9,1.9-2.9c0,0,0.5,0.2,0.5,0.2s0.1,0,0.1-0.1c0.1-0.3,0.1-0.7,0.2-1c0-0.1-0.1-0.2-0.1-0.2l0.6,0.1
	c0-0.1-0.1-0.3,0-0.4c0.1-0.8,0.3-1.7,0.5-2.5c0.8-1.5,1.8-2.7,2.4-3.8c0.3,0.2,0.5,0,0.8,0.3c0.1,0.1,0.4,0,0.5,0.1s0.3,0.7,0.5,1
	s0,0.6,0.1,0.8s0.4,0.4,0.6,0.6s0.4,0.3,0.6,0.5l0.5,0.5c0.2,0.2,0.7,0.2,0.9,0.4s0.3,0.1,0.4,0.2c0.3,0.3,0.8,0.3,1.1,0.6
	c0,0-0.1,0.2-0.1,0.2c0.4,0.4,0.5,1,0.8,1.4c0.1,0.1,0.3,0,0.4,0c0.7,0.7,1.4,1.3,2,2l-0.4,0.4c0.3,0.4,1.2,0.3,1.5,0.6
	c0,0-0.3,0.3-0.3,0.3c0.3,0.4,0.5,0.8,0.8,1.1c0,0.1,0.5-0.2,0.6-0.1c0.2,0.3,0.4,0.6,0.6,0.9c0,0.1-0.5,0.5-0.5,0.6
	c0.2,0.3,0.4,0.5,0.6,0.7s0.3,0.1,0.4,0.2s0.3,0.4,0.3,0.5s0.2,0.1,0.2,0.3s0.1,0.4,0.2,0.5s0.2,0.2,0.2,0.3s0.6,0.2,0.6,0.3
	s-0.8,0.5-0.8,0.6C483.6,479.7,484.5,480.2,484.4,480.6L484.4,480.6z M456.1,455.4c0.1,0,0.4,0.5,0.6,0.6s0.1,0.2,0.2,0.3
	s0.2,0.1,0.3,0.1s0.4-0.3,0.5-0.3s0.3,0,0.4,0s0,0.5,0.1,0.6s0.2,0.2,0.3,0.3s0.5-0.2,0.6-0.1s0,0.5,0.1,0.6s0.7-0.4,0.8-0.4
	s0.3,0.2,0.4,0.3s0.1,0.2,0.2,0.3s0,0.4,0.1,0.5s0.2,0.1,0.3,0.2s-0.3,0-0.2,0c-0.9,1.4-1.7,2.9-2.4,4.5c-0.1,0.2,0.5,0.8,0.4,1
	s-0.9-0.2-0.9-0.1c-0.1,0.3,0.2,0.9,0.1,1.1c-0.5,1-1.4,1.9-1.8,2.8c-0.5,0.6-1.2,1.1-1.9,1.4c0,0,0,0.3,0,0.3s-0.1-0.2-0.1-0.2
	c-0.3,0.1-0.5-0.2-0.9-0.3c-2-0.5-3.9,0.2-5.6,0.8s-3.7,1-5.1,2.3c-0.4,0.2-0.1,0.8-0.5,0.9s-1.1-0.4-1.5-0.2
	c-0.1,0-0.1,0.3-0.2,0.3c-0.6,0.3-1.1,0.7-1.8,0.9l0.2,0.4c-0.1,0-0.3-0.1-0.5-0.1s-0.1,0.1-0.2,0.1s0,0.4,0,0.4s-0.6-0.7-0.7-0.6
	s0.3,0.9,0.3,0.9c-1.9,0.7-3.8,1.1-5.8,1.2c-2,0-3.9-0.4-5.7-1.1c-1.8-0.6-3.5-1.5-5-2.7c0,0-0.1,0.1-0.1,0.1
	c-0.3-0.2-0.5-0.5-0.8-0.7c0,0,0.2-0.4,0.2-0.5c-0.2-0.2-0.6-0.3-0.9-0.5c-0.1-0.1-0.1-0.2-0.1-0.2c-0.2-0.2-0.6-0.3-0.8-0.5
	c0,0,0.3,0,0.3,0c0.4-3.2,0.2-3.2,0.6-6.4s0.1-3.2,0.6-6.4s0.2-3.2,0.7-6.4c0,0,0.5,0,0.5-0.1c1.5-2.8,1.5-2.8,3-5.6
	s1.7-2.7,3.3-5.5c0.1,0-0.2-0.1-0.1-0.1c1.2,0.2,2.3,0.7,3.3,1.4c0.1,0.1,0.4-0.1,0.5,0l0.4,0.3c0.3,0.2,0.5,0.5,0.7,0.7
	c1.4,1.4,2.4,3.1,3.8,4.4s3.5,2,4.9,3.1s2.6,3.1,4.2,4.1c1.7,0.9,3.5,1.6,5.4,2C452.3,456.2,454.1,455.7,456.1,455.4L456.1,455.4z
	 M407.4,468.4c-0.1,0.1-0.5-0.4-0.6-0.3s-0.3-0.1-0.4,0s-0.3,0.1-0.4,0.1s0,0.5-0.1,0.6s-0.3,0.3-0.5,0.3s-0.3-0.4-0.4-0.4
	c-0.2,0.1-0.5,0.1-0.7,0.1c-0.1,0,0,0.4-0.1,0.5s-0.5-0.3-0.6-0.3s0.1,0.8,0,0.8L403,470c-0.1,0-0.2,0-0.2,0s-0.4-0.2-0.6-0.2
	s-0.1,0.1-0.1,0.1c-0.2,0-0.5-0.3-0.7-0.2c0,0-0.1-0.2-0.1-0.2s-0.2,0.9-0.4,0.9s-0.2-0.9-0.2-0.8s-0.2,0.6-0.3,0.6
	s-0.1-0.4-0.2-0.4s-0.2,0.1-0.3,0.1s-0.1,0.3-0.2,0.3s-0.2-0.3-0.3-0.3s0.1-0.3,0.1-0.3c-0.3-0.1-0.9,0.5-1.2,0.4
	c-0.1,0,0.1-0.7,0-0.7c-0.3-0.1-0.8,0.5-1,0.4c0,0,0.2-0.7,0.2-0.7c-0.3-0.1-0.6,0-0.8-0.1l-0.2-0.1c-0.2-0.1-0.5,0.2-0.7,0.1
	s0-0.3,0-0.3c-0.2-0.1-0.4-0.1-0.6-0.2s-0.3,0.3-0.3,0.3s0.5-0.4,0.5-0.5c-0.3-2.5-2.2-4.6-3-6.6c-0.6-1.5-1.2-3-1.6-4.5
	c-0.4-1.6-0.4-3.2-0.2-4.8c0.1-1.7,0.1-3.5,0-5.2c-0.2-1.7-0.6-3.4-1.1-5.1c-0.5-1.7-1-3.4-1.7-5c0.1,0,0.4,0.4,0.5,0.4
	s0.2-0.3,0.3-0.3s0.5,0,0.7-0.1s0.2-0.3,0.3-0.4s0.6,0.3,0.8,0.2c0.1,0,0.1-0.3,0.3-0.3c0.4,0,0.7-0.4,1.1-0.5V436
	c0.4,0,0.9,0.3,1.3,0.3c0.1,0,0.1,0.1,0.2,0c0.3,0,0.7,0.3,1,0.2c0.1,0,0.2-0.5,0.3-0.5c0.3,0,0.6-0.1,0.9-0.1
	c0.1,0,0.3-0.3,0.4-0.3l1,0c0.1,0,0.3,0,0.4,0c0.4,0,0.8,0.6,1.1,0.6c0.1,0,0.2-0.9,0.3-0.9c1,0,2,0.9,3,0.9c0.1,0,0.3-0.4,0.4-0.4
	c0.4,0,0.8-0.2,1.2-0.2c0.2,0,0.3-0.2,0.5-0.1c0.4,0,0.7,0.8,1,0.9c0.2,0,0.4-0.2,0.5-0.2c0.4,0,0.8-0.1,1.1-0.1
	c0.2,0,0.4-0.1,0.5-0.1c0.5,0,0.9,0,1.4,0c0.1,0,0.1,0.5,0.2,0.5c0.6,0.1,1.2-0.6,1.8-0.5h0.3c0.5,0.1,0.9,0.5,1.4,0.6
	c0.2,0,0.4,0.2,0.5,0.3c0.4,0.1,0.8-0.1,1.3,0c0.1,0,0.1,0.2,0.2,0.2c-0.6,3.3-1,6.8-1.7,8.5c-0.2,0.5-0.9,0.2-1.1,0.7
	c0,0.1,0.4,0.4,0.3,0.4c-0.5,0.5-1.5,1.5-2.3,4.7c-0.4,1.8-0.6,3.6-0.8,5.4c-0.2,1.6-0.8,3.3-0.9,5.4c0,1.6-0.2,3.5-0.2,5.5
	c-0.1,0,0.3,0.5,0.3,0.5S407.5,468.3,407.4,468.4L407.4,468.4z M292.8,545.2c0-0.2,0.6-0.2,0.7-0.3s0.3-0.2,0.3-0.4s0.1-0.3,0.2-0.5
	s-0.4-0.4-0.3-0.6s0-0.4,0-0.6s0.5-0.2,0.6-0.4s0.2-0.4,0.2-0.5s-0.3-0.4-0.3-0.6s0.5-0.3,0.5-0.5s-0.7-0.4-0.7-0.6s0-0.4,0-0.6
	s0.1-0.3,0.1-0.5s0.3-0.4,0.4-0.6s-0.1-0.3-0.1-0.5s0.4-0.4,0.4-0.7s0.2-0.4,0.2-0.5s-0.8-0.4-0.9-0.7s0.8-0.4,0.8-0.6
	s-0.6-0.4-0.7-0.7s0.3-0.4,0.3-0.6s-0.2-0.5-0.2-0.8s-0.3-0.3-0.4-0.5s0.1-0.6,0-0.9c0-0.1,0.2-0.4,0.2-0.5
	c-0.1-0.4-0.9-0.7-1.1-1.1c-0.3-1,0.1-2.1,0.1-3.1c-0.2-2.9,0.3-5.9,1.6-8.5c1-1.9,2.9-3.6,4.3-6c1.5-2.5,2.8-5.1,4.1-7.9
	c1.8,1.6,3.9,3,6.1,4.2c0.5,0.5,1.1,0.6,1.2,0.8c0,0-0.1,0.3-0.1,0.3s0.1,0,0.1,0c1.1,1.2,2.6,1.8,4.2,1.6c3-0.1,5.4,0.7,7.4,0.9
	c4.7,0.3,6.9,0.3,7.6,0.7c-0.2,0.8-0.4,1.5-0.8,2.2c-1.3,2.7-2.5,4.7-2.9,6.6c-0.4,2.4-0.4,4.8-0.1,7.2c0.3,1.8,0.4,3.6,0.5,5.4
	c0,3-4.9,3.5-5.1,3.5c-0.5,0-1.2-0.3-1.6-0.1c-0.2,0.1-0.3,0.4-0.5,0.5c-1,0.3-3,1-5.6,2c-1.7,0.6-3.5,1.5-5.6,2.2
	c-1.7,0.3-3.6,0.3-5.5,0.7c-1.7,0.3-3.5,1-5.4,1.4c-1.4,0.2-2.7,0.6-4,1c0-0.1-0.4-0.5-0.3-0.6S292.8,545.4,292.8,545.2z
	 M292.9,661.4c0-0.2,0.5-0.6,0.4-0.8s0.1-0.5,0-0.7c-0.1-0.4-0.1-0.8-0.2-1.2c0,0-0.5,0-0.5-0.1c-0.4-1.9-0.8-3.7-1-5.2
	c-0.1-1.8,0-3.5,0.2-5.3c0-1.7,0.3-3.4,0.9-5c0.3,0,0.4-0.2,0.7-0.3c2-0.1,4.1,0.4,6.4,0.5s4.3-0.5,6.4-0.4c1.7,0.1,3.5,0.2,5.2,0.3
	s3.5,0.2,5.1,0.2c1,0,1.9,0.3,2.8,0.3c0,0,0.1-0.1,0.1-0.1c0.3,0.1,0.5,0.5,0.8,0.6s0.4,0.3,0.7,0.4s0.9-0.6,1.2-0.5s0.2,1,0.4,1
	s0.8-0.4,1.1-0.3s0.3,0.5,0.5,0.5s0.6,0.1,1,0.2s0.4-0.2,0.6-0.1s0.6,0.4,0.9,0.4s0.3,0.4,0.5,0.4s0.7-0.6,1-0.6
	c0.1,0,0.2,0.7,0.4,0.7c0.4,0,0.9-0.7,1.3-0.6s0.2,0.6,0.4,0.6c0.2,1.6,0,3.3-0.6,4.8c-0.5,1.6-1.1,3.2-1.6,4.8
	c-0.7,1.9-1.1,3.8-1.5,4.8c-0.2,0.4-0.6,0.7-0.8,1.1c-0.1,0.1-0.1,0.3-0.1,0.4s0.1,0.6,0,0.9s-0.6-0.3-0.6-0.2c-0.4,0-0.6,0.9-1,0.8
	c-1.8-0.1-3.9-0.4-6.3-0.4c-2,0-4.1-0.6-6.3-0.5s-4.2,0.2-6.3,0.5c-0.7,0-1.4,0.3-2.2,0.3c-1.5,0.1-3.1,0.2-4.6,0.1
	c-1.5,0-2.9-0.4-4.2-1.1C294,661.9,293.1,661.9,292.9,661.4L292.9,661.4z M323.6,552.6c0.3,0.5,0.2,2.4,0.4,3.6
	c0.3,1.4,0.4,3,0.9,4.8c0.6,2.1,1,4.3,1.1,6.6c0.3,2.2,0.5,4.5,0.4,6.7c-0.1,2.2-0.4,4.5-0.8,6.7c-0.4,2.3-1.3,4.3-1.8,6.3
	c-1.9-0.4-3.8-0.6-5.8-0.7c-1.9-0.1-4,0.3-6,0.5c-2,0-4,0.1-6,0.3c-2,0.4-3.8,1.6-5.6,2.2c-2,0.6-3.8,1.5-5.6,2.5
	c-0.1-1.5-0.4-3.7-0.5-5.9c-0.1-1.7,0.1-3.5-0.1-5.6c-0.1-1.7-0.4-3.6-0.6-5.6c-0.2-1.7,0-3.6-0.2-5.6c-0.2-1.8-0.2-3.6-0.4-5.6
	c-0.3-2.3-0.7-4.3,0-5.4c1.4-0.3,3.4,0.2,5.3-0.3c1.5-0.4,2.9-1.4,4.7-1.9c1.5-0.4,3.2-0.6,5-1.2c0.9-0.3,1.7-0.6,2.6-0.9
	c1.9-0.3,3.4-0.9,4.8-1C321,552.1,323.1,552.3,323.6,552.6L323.6,552.6z M325.1,601.1c0,0.1-0.6,0.2-0.6,0.3s-0.2,0.3-0.2,0.5
	s0,0.2,0,0.3s0.5,0.3,0.5,0.5s0.1,0.2,0.1,0.3s-0.5,0.4-0.5,0.6s-0.1,0.2-0.1,0.3s0.4,0.3,0.5,0.5s-0.4,0.2-0.4,0.3s0.8,0.3,0.8,0.5
	s0,0.2,0.1,0.3s0,0.4,0,0.7s-0.3,0.3-0.3,0.4s0.2,0.4,0.2,0.6s-0.3,0.3-0.3,0.5s-0.1,0.5,0,0.7s0.9,0.1,0.9,0.3s-0.7,0.6-0.7,0.9
	s0.6,0.2,0.7,0.3s-0.2,0.5-0.2,0.8s0.2,0.3,0.2,0.5s0.4,0.4,0.5,0.6s-0.1,0.5-0.1,0.6c0.1,0.4,0,1,0.2,1.4c0.4,1.2,1.4,2.1,1.6,3.2
	c0.5,2.5-0.2,4.7-0.9,7.3c-0.5,2-0.6,4.4-1.8,7.2c0,0-0.9,0.8-4.9,0.8v0.2c-0.1,0-0.3,0-0.4-0.1c-1.8-0.6-3.9-0.8-5.8-1.3
	s-3.8-1.3-5.7-1.8c-1.9-0.4-3.9-0.7-5.9-0.9c-2-0.1-3.9,0-5.9,0.3c-2,0.2-3.7-0.1-5.5,0.7c0.2-2.1,0.1-4.7,0.5-6.7
	c0.5-2.2,1.1-4.5,1.5-6.9s1.1-4.7,1-7c0-0.3,0-0.7,0-1c0-0.1-0.2-0.2-0.2-0.3c0-0.2,0-0.5,0.1-0.7c0,0,0.5-0.1,0.5-0.1
	c0-0.3-0.2-0.5-0.2-0.7c0-0.1,0.1-0.1,0.1-0.2s-0.3-0.3-0.2-0.5c1.3,0,3.1,0.3,5.3,0.1c1.6-0.1,3.4-0.5,5.3-0.6
	c1.7-0.2,3.5-0.7,5.3-0.9c2.6-0.4,5-1,7.2-1.5c2.4-0.4,4.8-0.9,7.1-1.7h-0.2C324.5,600.7,325.1,601,325.1,601.1L325.1,601.1z
	 M299.8,695.8c-2.1-0.3-3.9-1.1-5.4-1.2c-0.8-0.1-0.7-0.4-0.8-0.5c-0.9-1.3-0.8-4.5-0.5-6.5c0-0.1-0.4-0.4-0.4-0.5s-0.1-0.1-0.1-0.2
	s0.5-0.3,0.5-0.4s0.1-0.1,0.1-0.2s-0.4-0.2-0.4-0.3s0.4-0.2,0.4-0.3s-0.8-0.3-0.8-0.5c-0.1-0.4-0.2-0.8-0.3-1.2c0,0,0.1-0.1,0-0.1
	c0-0.3,0.2-0.7,0.2-1c0-0.1-0.1-0.1-0.1-0.2c0-0.3,0.4-0.5,0.4-0.7c0-0.1,0.2-0.1,0.2-0.2c0-0.3-0.8-0.6-0.7-0.8
	c0,0,0.9,0.1,0.9,0.1c0.1-0.7-0.2-1.4,0.1-1.8c0,0,0.3,0.2,0.3,0.2s0.1-0.3,0.2-0.4s-0.2-0.2-0.1-0.3s0.4,0,0.5-0.2
	c0.9-1,2.6-1.8,5.7-2.7c1.7-0.5,3.6-1.6,6.3-2c0.2,0,0.4,0.6,0.5,0.6c2.3-0.1,4.4-0.8,6.3-0.6c2.3,0.2,4.3,1.2,6.2,1.4
	c1.9,0.2,3.8,0.3,5.7,0.3c0.4,0,0.5-0.1,0.9-0.1c0.6,2.2,0.9,4.4,0.9,6.7c0,2.1-0.5,4.4-0.7,6.7c0,0,0,0,0,0c0,0.3,0.3,0.5,0.3,0.8
	H325c0,0.2,0.9,0.6,0.8,0.8c0,0-0.2,0.1-0.2,0.1c0,0.2-0.6,0.4-0.6,0.6c0,0.1,0,0.1,0,0.2c0,0.2,0.1,0.4,0.1,0.7s0,0.1-0.1,0.2
	s-0.5,0.3-0.6,0.5s0.2,0.2,0.2,0.3s-0.1,0.4-0.2,0.5s0.3,0.2,0.2,0.3s-0.4,0.3-0.4,0.5s0.2,0.2,0.2,0.3s0.2,0.4,0.2,0.6
	s0.2,0.2,0.1,0.3c-0.1,0.2-0.5,0.3-0.6,0.6c-1.2,0.6-3.5,0.7-6.3,0.7c-1.8,0-3.7-0.4-5.6-0.6s-3.9,0.1-5.7-0.1
	c-2.2-0.2-4.2-0.4-5.7-0.6C300.5,695.4,300.1,695.8,299.8,695.8z M353.5,478.4c-1.8,0.9-3.6,1.6-5,3c-1.4,1.4-2.7,2.9-3.9,4.5
	c-1.1,1.7-2.1,3.4-3,5.2c-0.9,1.8-1.3,3.9-2.1,5.6s-2,4.6-2.8,6c-0.2-0.1-0.6-0.5-0.8-0.5c-0.1,0-0.1-0.1-0.2-0.2s-0.4,0.3-0.6,0.3
	s-0.1-0.5-0.2-0.5s-0.5,0.7-0.6,0.6h-0.3c-0.1,0-0.3-0.1-0.4-0.2s-0.2-0.4-0.3-0.4s-0.3,0-0.5,0s-0.2-0.4-0.3-0.4s-0.3-0.2-0.4-0.3
	s-0.4,0.8-0.5,0.7s-0.1-0.9-0.3-0.9s-0.4,0.5-0.5,0.5s-0.3-0.4-0.4-0.4s-0.3,0-0.4,0s-0.5,0.2-0.7,0.2s-0.2-0.3-0.3-0.3
	s-0.4-0.4-0.6-0.4s-0.4,0.7-0.5,0.6s-0.2-0.7-0.4-0.7s-0.4,0.7-0.5,0.7s-0.2-0.8-0.3-0.8s-0.3,0.2-0.5,0.1l-0.4-0.1
	c-0.1,0-0.4,0.4-0.5,0.3s-0.2-0.3-0.4-0.3s-0.3,0-0.5,0s-0.3,0.3-0.5,0.3s-0.2-0.9-0.3-0.9s-0.4,0.9-0.5,0.9s-0.3-0.2-0.4-0.2
	s-0.2-0.5-0.3-0.5s-0.3,0-0.4,0s-0.2,0.1-0.3,0.1c-0.4,0-0.7-0.1-1-0.2c-0.1,0-0.1-0.5-0.1-0.5s-0.3,0.2-0.5,0.2s-0.2-0.1-0.3-0.1
	s-0.3,0.3-0.4,0.2s-0.2-0.4-0.3-0.4s-0.3,0.2-0.4,0.2s-0.3,0.3-0.4,0.3s-0.3,0.2-0.4,0.2s-0.2-0.5-0.3-0.5s-0.2-0.1-0.3-0.1
	s-0.2-0.4-0.3-0.4s-0.2,0.4-0.3,0.4s-0.3,0-0.4,0s-0.1,0.3-0.2,0.3c-0.3,0-0.7-0.1-1-0.1c-1.8-1.8-4-3.3-6.3-4.5
	c0,0,0.4-0.5,0.4-0.5s-0.8,0.3-0.8,0.2s0.7-0.5,0.7-0.6s-0.4,0-0.4,0l-0.2,0c-0.1-0.2-0.3-0.5-0.2-0.7s0.9-0.3,1.1-0.8
	c0.9-1.8,1.8-3.7,2.5-5.6c0.8-1.9,1.4-3.9,2-5.8s1.2-4,1.8-5.8c1.1-3.3,2.2-7,3.1-8.5c0.1-0.1,0.5,0.1,0.5,0c1-1.7,2.1-3.2,3.5-4.6
	c1.4-1.3,3-2.5,4.5-3.6c1.6-1.1,3.4-2,5.3-2.6c0.6,1.8,1.3,3.6,2.2,5.3c1,1.6,2.1,3.1,3.3,4.5c1.1,1.5,2.4,2.9,3.9,4.1
	c1.5,1.1,3.3,1.5,5.2,2.1c2.7,1,5.2,2.7,7.2,4.7c0.2,0.2,0.7,0.3,0.9,0.4C354.4,477.8,353.9,478.2,353.5,478.4L353.5,478.4z
	 M363.3,468.2c-1.9-1.8-4-3.5-6.3-5c-1.1-0.7-2.7-1.9-4.4-3.1c-1.5-1-3-2.1-4.3-3.2c-1.7-1.3-3.5-2.4-4.2-3.4
	c1.8-2.2,3.4-4.6,4.7-7.2c0.8-1.3,1.7-2.5,2.9-3.5c1-1.1,2-1.4,3.9-1.5c2.3-0.2,4.7-0.9,7.1-1.1c0.9-0.1,2,0.2,2.9,0.1
	c2.2-0.2,4.7-1.2,6.9-1.3h0.3c0.1,0,0.1,0.1,0.2,0.1c1.5,0,3,0.3,4.4,0.7c0.9,1.7,1.6,3.6,2.1,5.5c0.4,1.9,0.4,3.9,0.1,5.9
	c-0.2,1.7-0.2,3.5,0,5.2c0.3,1.8,1.5,3.2,2,4.8c0.6,1.8,0.5,3.7,1.1,5.1c0,0,0.5-0.1,0.5-0.1v-0.1c0,0,0,0.1-0.1,0.1
	c-0.2,0-0.5,0.2-0.7,0.2c0,0-0.1-0.3-0.1-0.3c-0.2,0-0.4-0.3-0.6-0.3s-0.2,0.7-0.2,0.7s-0.4-0.6-0.6-0.6s-0.2,0.8-0.3,0.8
	s-0.4-0.8-0.6-0.7s-0.2,0.2-0.3,0.2H379c-0.1,0-0.2,0.4-0.3,0.4s-0.4-0.2-0.6-0.2s-0.2,0.1-0.4,0.1s-0.3,0.4-0.5,0.5
	s-0.4-0.8-0.6-0.7s-0.2,1-0.4,1s-0.3-0.1-0.4,0s-0.5-0.4-0.8-0.3s-0.3,0.1-0.4,0.2s-0.4,0.3-0.5,0.4s-0.3,0.1-0.4,0.1
	s-0.6-0.2-0.8-0.1s-0.2,0.4-0.3,0.4s-0.5,0.2-0.7,0.3s-0.1,0.4-0.3,0.5s-0.6,0-0.8,0.1s-0.1,0.4-0.3,0.5s-0.3,0.6-0.5,0.8
	s-0.1,0.3-0.2,0.4c-0.3,0.3-1,0.3-1.3,0.6c-0.3,0.3-0.7,0.6-1,0.9c-0.1-0.1,0.2-0.5,0-0.6C366.5,470.1,364.8,469.5,363.3,468.2z
	 M500.5,694.4c-1.1,1.1-2.6,1.6-4.1,1.4c-1.8-0.2-3.6-0.3-5.4-0.3c-1.7,0.1-3.5,0.2-5.4,0.3c-1.7,0.2-3.5,0.8-5.4,1
	c-2,0.2-4.5,0.6-6.8,0.8c-2.2,0.1-4.5,0.1-6.7-0.3c-0.5-1.5-0.7-3.1-0.6-4.7c0-0.1-0.4-0.2-0.4-0.3s0.4-0.3,0.4-0.4
	s-0.8-0.3-0.8-0.6c-0.1-0.7-0.3-1.3-0.4-1.9c0-0.2,0-0.3,0-0.5c-0.1-0.5,0.2-1,0.1-1.4c0-0.2-0.1-0.3-0.1-0.5c0-0.4,0.3-0.8,0.3-1.2
	c0-0.2,0.2-0.3,0.2-0.5c0-0.4-0.8-0.7-0.8-1.1c0-0.2,0.9-0.2,0.9-0.4c0-0.3-0.5-0.7-0.4-1s0.5-0.5,0.5-0.7s0-0.4,0.1-0.6
	s-0.1-0.6,0-0.8s0.3-0.1,0.4-0.2c0.4-0.6,0.8-1.1,1.3-1.6c0.1-0.1-0.3-0.8-0.1-0.9s0.6,0.3,0.7,0.2c0.3-0.2,0-1,0.3-1.2
	c0.1,0,0.4,0.6,0.4,0.5c0.6,0.1,1.2-0.1,1.8-0.1c1.6,0,3.3-0.2,4.9-0.4c1.5-0.2,3.1-0.9,4.7-1.2c2-0.4,4.2-0.5,6.3-0.8
	c2.1-0.4,4.2-0.4,6.3-0.1c2.4,0.9,4.4,2.6,5.8,4.9c0,0.1-0.6,0.6-0.6,0.6c0.1,0.2,1.1,0,1.2,0.3s0,0.3,0,0.4c0.2,0.3-0.1,0.9,0,1.3
	s0.2,0.4,0.3,0.7s0.3,0.3,0.4,0.5s0.2,0.6,0.3,0.9s-0.3,0.5-0.3,0.7c0.2,0.5,0.6,0.9,0.8,1.4C501.6,689.5,501.9,692.5,500.5,694.4z"
	/>
<path d="M351.7,703.3c-0.4,1.3-1.4-2.8-2.1-0.5c2.7,1.3,3.1,0.3,6.1,0.5s3,0.2,6,0.3s3-0.3,6.1-0.2s3,0,6,0.1s3,0.6,6,0.7
	s3,0.2,6,0.4s3-0.3,6.1-0.2s3,0.6,6,0.7s3-0.6,6.1-0.5s3,0.1,6,0.2s3,0.2,6,0.3s3,0.4,6,0.6s3,0,6,0.2s3,0.5,6,0.6s3,0.3,6,0.4
	s3.1-0.7,6.1-0.6s3,1,6,1.1s3.5,1.4,6-0.3c-1-2.6-1.6-5.3-1.9-8c0-0.1-0.1-1.7-0.1-1.7s-0.3-0.9-0.3-1c0-1,0-2.1,0.1-3.1
	c-0.1-0.7,0-1.6-0.1-2.3c0-0.1-0.7-0.3-0.8-0.4c-0.1-0.6,0.5-1.3,0.4-1.9c0,0-0.8,0-0.8,0c-0.2-2,0.5-4,0.7-5.8
	c0.1-1.9,0.4-3.8,1-5.7c0.7-1.8,1.6-3.5,2.8-5c0.6-0.9,1.2-1.7,2-2.4c0,0,0.2,0.1,0.2,0.1c-0.1-0.4-0.1-0.8-0.2-1.1
	c-0.1-1.4-0.9-3.5-1.3-5.9c-0.1-0.3,0.7-0.9,0.6-1.2s-1-0.5-1.1-0.8c0-0.1,0.1-0.2,0.1-0.3c0-0.2,0.4-0.6,0.4-0.8s-0.1-0.3-0.1-0.4
	s-0.3-0.4-0.3-0.6s0-0.3,0-0.4s0.4-0.5,0.4-0.7s-0.3-0.3-0.3-0.4s0-0.4,0-0.6s-0.3-0.3-0.4-0.4s0.3-0.5,0.2-0.7s-0.3-0.3-0.3-0.5
	s-0.4-0.3-0.4-0.5s-0.2-0.3-0.3-0.5s0.4-0.5,0.4-0.7s0-0.3,0-0.5s0.3-0.4,0.3-0.6s-0.5-0.3-0.5-0.5s-0.1-0.4-0.1-0.6
	s-0.3-0.3-0.3-0.5s0-0.4-0.1-0.6s0-0.3,0-0.5s0.6-0.5,0.6-0.7s-0.9-0.3-0.9-0.4s0.9-0.5,0.8-0.8s-0.4-0.3-0.4-0.4
	c0-0.3-0.2-0.7-0.3-1c0,0-0.2-0.1-0.2-0.2c0-0.3,0.8-0.7,0.8-1c0-0.1-0.2-0.3-0.2-0.4s-0.2-0.5-0.2-0.7s-0.1-0.3-0.1-0.5
	s-0.1-0.4-0.1-0.7s0.5-0.3,0.5-0.4s-0.7-0.5-0.7-0.7s0-0.3,0.1-0.5s0.4-0.3,0.4-0.5s0.2-0.3,0.3-0.5s-0.1-0.4-0.1-0.6
	s0.4-0.3,0.4-0.4s-0.5-0.5-0.5-0.7s0.7-0.2,0.8-0.3s-0.4-0.5-0.3-0.7s0.1-0.3,0.1-0.5s0-0.4,0-0.6s0.6-0.1,0.6-0.3s0.3-0.3,0.4-0.5
	s-0.5-0.6-0.5-0.7s0.2-0.3,0.3-0.5s0.9,0.1,0.9,0s-0.4-0.7-0.3-0.8s0.1-0.3,0.2-0.4s0.7-0.1,0.8-0.2s0.2-0.2,0.3-0.3
	s0.1-0.6,0.3-0.8s0-0.3,0.1-0.4s0.8,0,1-0.2s0.1-0.3,0.2-0.4s0-0.3,0.1-0.5c-1.1-1.5-1.6-3.5-2.3-5.8c-0.8-2-1.4-4-1.9-6
	c-0.3-2-0.8-4.1-1-6.2s0.1-4.3,0.1-6.3c0-2.2,0.5-4.3,0.6-6.2c0.1-2.1,0.2-4.1,0.5-6.2c0.1-1.1,0.3-2.3,0.6-3.4c0-0.1,0-0.1,0-0.2
	s-0.3-0.2-0.3-0.2c0.1-0.5,0.1-1,0.3-1.4c0-0.1-0.3-0.2-0.2-0.3s0.3-0.3,0.4-0.5c0,0,0.4-0.1,0.4-0.1c-0.1-0.2-0.4-0.4-0.5-0.6
	s-0.3-0.3-0.3-0.5s0.5-0.6,0.4-0.8s-0.8-0.3-0.8-0.5s0.4-0.6,0.4-0.9s-2.6-0.4-2.6-0.5c0-0.5-3.2-0.9-3.2-1.4h0.1
	c0-0.4,3.5-0.8,3.5-1.2c0.1-1.6,0.1-3.4,0.2-5.4c0.1-1.7-0.1-3.6-0.1-5.4c0-1.8-0.1-3.6-0.3-5.4c-0.2-1.8-0.5-3.6-0.5-5.2
	c-0.1-1.9-0.1-3.6-0.1-5.3c0-1.9-0.1-3.7,0-5.3c0,0-0.1-0.1-0.1-0.1c0-0.5,1.1-0.9,1.1-1.4s-0.6-0.7-0.6-1c0-0.1,0.6-0.2,0.6-0.4
	c0-0.4,0.1-0.7,0.2-1c0-0.1-0.4-0.2-0.3-0.3c0.1-0.4,0.2-0.8,0.3-1.2c0-0.1,0.7,0,0.7-0.1s-0.5-0.4-0.4-0.5s-0.1-0.3-0.2-0.5
	s-0.2-0.3-0.3-0.5c-0.2-0.5,0-1.1-0.2-1.6c0-0.1-0.4,0-0.5-0.1c-0.2-0.6-0.7-1.1-0.9-1.8c0-0.2,0.4-0.5,0.4-0.7
	c-0.1-0.5,0.1-1,0-1.5c0-0.2-0.2-0.4-0.3-0.6c-0.1-0.6-0.8-1-0.9-1.6c0-0.1,0.1-0.3,0.1-0.4c-0.1-0.7,0.1-1.5,0-2.2
	c0-0.2,0-0.4,0-0.6c0-0.6-0.1-1.2,0-1.8c0-0.3-0.4-0.5-0.4-0.8c0-0.7,0.4-1.3,0.4-2c0-0.2-0.4-0.4-0.4-0.5c0.1-0.8,0.5-1.7,0.7-2.6
	c0-0.2,0.3-0.4,0.3-0.7c0.1-0.7,0.3-1.4,0.4-2.1c0-0.3,0.1-0.6,0.1-0.9c0.1-0.8,0-1.6,0.2-2.4c0-0.2,0.3-0.4,0.3-0.6
	c0.2-1,0.9-1.9,1.1-2.9c0.1-0.3-0.1-0.6-0.1-0.8c0.1-0.5-0.3-0.8-0.1-1.3c-1.9-1.3-3.3-3.5-5.3-6l-0.4-0.5c-0.1-0.2-0.5-0.2-0.7-0.4
	c-0.3-0.4-0.7-0.7-1-1.1c-0.1-0.1,0.1-0.4,0-0.5c-0.3-0.5-0.4-1.2-0.7-1.7c-1-1.7-2.6-2.5-3.6-3.4c-1.1-1.1-2.4-2.2-3.8-3
	c-0.3-0.1-0.6-0.2-0.9-0.4l0,0c-0.1-0.1,0-0.6-0.2-0.7s-0.1,0.1-0.1,0.1s-0.4,0-0.6-0.1s-0.3,0.3-0.3,0.3c-0.3-0.2-0.2-1-0.5-1.2
	c0,0,0.1-0.2,0.1-0.2s-0.6,0.1-0.7,0s-0.2,0.1-0.2,0.1s0.3-0.7,0.1-0.9s-0.4,0.3-0.4,0.2s-0.2-0.3-0.3-0.5s-0.5,0.2-0.5,0.2
	s-0.3-0.4-0.4-0.5l0.5-0.3c-0.1-0.2,0-0.4-0.1-0.6s-0.7,0.2-0.7,0.2s0-0.5-0.1-0.7c0,0,0.3-0.2,0.2-0.2c-0.1-0.2-0.5-0.3-0.6-0.5
	c0,0,0.5-0.2,0.5-0.3c-0.1-0.2-0.2-0.4-0.2-0.7c0-0.1,0.1-0.1,0.1-0.2c0-0.3-0.8-0.4-0.8-0.7c0,0,0.1,0,0.1-0.1
	c0-0.3,0.5-0.5,0.5-0.8c0,0-0.3-0.1-0.3-0.1c-0.2,0-0.3,0.1-0.5,0.1s-0.3,0-0.5,0c-0.6,0.1-1.2,0.2-1.9,0.3c0,0-0.1-0.4-0.1-0.4
	c-0.6,0-1.2,0.7-1.9,0.7c-0.1,0-0.2,0.1-0.3,0.1s-0.3-0.2-0.5-0.2s-0.4,0.1-0.6,0.1s-0.6-0.6-0.9-0.6s-0.4,0.3-0.6,0.3s-0.7,0-1-0.1
	c-0.2,0-0.4,0.2-0.5,0.2c-0.5-0.1-1-0.3-1.5-0.4c0,0,0-0.2,0-0.2c-0.5-0.1-1-0.2-1.4-0.3c-0.2,0-0.4,0-0.5-0.1
	c-0.3-0.1-0.4-0.9-0.8-1s-0.6,0.6-0.8,0.5s-0.7-0.1-1-0.2s-0.2-0.6-0.4-0.7s-0.4-0.7-0.7-0.9s-0.6,0.3-0.9,0.1s-0.5-0.4-0.8-0.6
	s-0.7,0.2-0.9,0.1s-0.4-0.8-0.7-1s-0.5-0.1-0.6-0.2c-0.4-0.3-0.8-0.5-1.2-0.8c-0.1-0.1-0.1-0.3-0.2-0.4c-0.5-0.4-0.9-0.9-1.4-1.4
	c-0.1-0.1-0.4-0.1-0.5-0.2c-0.4-0.4-0.3-1.2-0.6-1.5c0,0-0.6,0.5-0.6,0.5l0.3-0.2c-0.1,0.1-0.2,0.3-0.3,0.4c-3.8,1.7,7.1,3,2.7,2.1
	c-0.3-0.1-0.5-0.3-0.8-0.4s-0.7-0.2-1.1-0.3s-0.6,0.1-0.8,0c-0.1,0,0.1-0.7,0-0.7c-2.1-0.7-4.1-1.6-6-2.7c0,0-0.1,0.7-0.1,0.7
	c-0.4,0.1-0.9-0.1-1.2-0.1c0,0-0.1,0.4-0.1,0.4c-0.4,0-0.8,0.3-1.2,0.3h-0.1c-0.4,0-0.8-0.5-1.2-0.5c0,0,0,0.3-0.1,0.3
	c-0.4,0-0.8-0.6-1.1-0.6c-0.8,0-1.6-0.1-2.3-0.1c-2.1,0-3.4-0.1-5.1,1.5c-0.1,0.1-0.6-0.1-0.8,0s0,0.2,0,0.3s-0.1,0.3-0.2,0.4
	s-0.1,0-0.1,0.1s-0.3,0.1-0.5,0.2s0,0.2,0,0.2s-0.3,0.1-0.4,0.2s0.1,0.3,0.1,0.4s-0.4,0-0.6,0.1s0,0.1-0.1,0.1s-0.5-0.1-0.6,0
	s0.3,0.6,0.3,0.6s-0.5-0.1-0.6,0s-0.1,0.1-0.1,0.1s-0.6-0.4-0.7-0.3s0.2,0.5,0.1,0.6s-0.5-0.3-0.6-0.2s0.1,0.5,0,0.5
	s-0.1,0.5-0.2,0.6s-0.5-0.7-0.5-0.7L387,482c-0.1,0-0.1,0.3-0.2,0.3s-0.3-0.2-0.5-0.2s0,0.6-0.1,0.6s-0.3,0-0.4,0s-0.2-0.2-0.3-0.2
	s-0.2,0.5-0.3,0.5s-0.3-0.8-0.4-0.8s-0.2,0.7-0.3,0.8s-0.2,0-0.3,0s-0.1-0.3-0.1-0.3s-0.3,0.2-0.4,0.2c-0.9,0-1.8-0.2-2.6-0.5
	c-1.5,2.5-3.6,4.5-6.1,5.9c-1.6,0.9-3,2.1-4,3.7c-1.1,1.5-2,3.1-2.9,4.7c-0.8,1.7-1.7,3.3-2.4,4.9c-0.1,0.3,0.2,0.9,0.1,1.2
	c0,0.1-0.3,0.2-0.3,0.3s-0.3,0.4-0.4,0.6s-0.3,0.2-0.3,0.3s-0.6,0.2-0.7,0.5s0.2,0.4,0.1,0.6s0,0.5-0.2,0.7s-0.3,0.2-0.3,0.3
	s-0.6,0.4-0.7,0.6c0,0.1,0.3,0.4,0.3,0.4c-0.2,0.3-0.6,0.5-0.8,0.8c-0.1,0.1,0.1,0.3,0,0.4s-0.5,0.3-0.7,0.5s-0.2,0.2-0.3,0.3
	s-0.3,0.3-0.5,0.5s0.3,0.6,0.2,0.7s-0.3,0.3-0.4,0.5s-0.4,0-0.5,0.1s-0.3,0.4-0.4,0.6s0.1,0.3,0,0.4c-0.2,0.2-0.7,0.2-0.9,0.4
	c-0.1,0.1-0.3-0.2-0.4-0.1s-0.4,0.2-0.5,0.4s0.2,0.8,0.1,0.8s-0.5-0.1-0.7,0s-0.3-0.2-0.4-0.1s0.1,0.6,0.1,0.6s-0.2-0.1-0.2-0.1
	s0.5,0.3,0.5,0.5s-0.4,0.2-0.4,0.3s-0.5,0.3-0.5,0.4s0.3,0.3,0.3,0.4s-0.1,0.3-0.1,0.5s-0.3,0.2-0.3,0.3s0.4,0.4,0.3,0.6
	s-0.5,0.1-0.6,0.3s0.5,0.5,0.4,0.7s-0.4,0.2-0.4,0.3s0,0.4-0.1,0.5s0.3,0.4,0.3,0.5s-0.4,0.3-0.4,0.5s0.2,0.3,0.1,0.5
	c-0.1,0.3-0.5,0.5-0.7,0.8c-1.8,3.8-2,4.7-1.7,7.8c0,0.2,0.2,0.4,0.2,0.6c0.1,1.3-0.2,3-0.2,5c0,0.3,0.8,0.7,0.8,1.1
	s-0.3,0.6-0.4,0.9c0,0.1,0.3,0.2,0.3,0.3s0,0.4,0,0.6s-0.2,0.2-0.2,0.3s-0.5,0.3-0.6,0.4s0.4,0.3,0.4,0.5s0.1,0.4,0.1,0.5
	s-0.4,0.2-0.4,0.3s-0.6,0.1-0.6,0.3s0.2,0.3,0.2,0.4s0.3,0.4,0.2,0.5s-0.1,0.2-0.2,0.3s-0.1,0.3-0.2,0.4s-0.5,0-0.6,0.1
	s0.2,0.4,0.2,0.5s-0.6-0.1-0.6,0s0.1,0.4,0.1,0.5s-0.2,0.1-0.3,0.2s-0.2,0.2-0.3,0.3s0.4,0.6,0.3,0.7s-0.5-0.1-0.6,0s-0.3,0-0.4,0.1
	s-0.2,0.2-0.3,0.2s-0.1,0.2-0.1,0.3s0.4,0.7,0.3,0.8s-0.3,0.1-0.4,0.1s-0.1,0.2-0.2,0.3s-0.3,0.1-0.3,0.1s-0.6-0.3-0.7-0.3
	s0.4,0.8,0.3,0.9s-0.3,0.1-0.4,0.2s-0.2-0.3-0.2-0.3c0.2,0.3,0.3,0.6,0.5,0.9c0.1,0.1-0.2,0.5-0.2,0.6s0.2,0.3,0.3,0.5s0,0.4,0,0.6
	s0.8,0,0.9,0.1s-0.3,0.5-0.2,0.7s0.3,0.2,0.4,0.3s0.4,0.3,0.4,0.4s-0.3,0.4-0.2,0.6s0.3,0.3,0.3,0.4s-0.1,0.4,0,0.6s-0.1,0.2,0,0.3
	c0.1,0.6,0.4,1.2,0.5,1.8c0.3,1.2,0.1,2.6,0.5,4c0,0.1,0.9,0,0.9,0.2c0.2,0.7,0.1,1.4,0.3,2.1c0.1,0.3-0.2,0.7-0.1,1
	c0.1,0.5,0.6,0.9,0.6,1.4c0.1,0.3-0.5,0.8-0.5,1.1s0.9,0.8,0.9,1.3s-0.3,0.7-0.3,1.1s0.2,0.9,0.3,1.3s0.3,0.7,0.4,1
	s-0.6,0.9-0.6,1.3s-0.1,0.7-0.1,1s0.7,0.8,0.7,1.3s-0.1,0.7-0.1,1s0,0.8,0,1.2s-0.4,0.7-0.5,1s0.1,0.8,0.1,1.2s-0.2,0.7-0.3,1
	s-0.1,0.8-0.1,1.2s0.5,0.8,0.5,1.1s-0.7,0.7-0.8,1s0.5,0.7,0.4,1.1s-0.8,0.6-0.9,1s0.2,0.7,0.1,1s-0.5,0.6-0.6,1s-0.2,0.6-0.2,0.9
	s-0.1,0.7-0.2,1s0.7,0.8,0.6,1s-0.4,0.6-0.4,0.9s-0.1,0.5-0.2,0.8s-0.9,0.5-0.9,0.8s0.7,0.7,0.6,0.9s-0.5,0.3-0.5,0.5
	c0.9,1.1,1.4,2.6,1.3,4c0,0.2,0.8,0.3,0.8,0.5c0,1.2-0.8,2.3-0.9,3.3c-0.3,1.7-0.4,3.5-0.2,5.3c0.4,1.7,0.9,3.4,1.6,5
	c0.8,2.1,1.4,4.2,1.8,6.4c0.4,2.2,0.6,4.4,0.5,6.7c-0.2,2.2-0.6,4.5-1.3,6.6c-0.6,2-1.5,4.1-2.4,6.3c-0.1,0.2-0.9,0.1-1,0.3
	s0.3,0.5,0.4,0.5s0.6-0.3,0.8-0.2s0,0.3,0.1,0.3c0.2,0.1,0.6,0.1,0.8,0.2c0,0-0.1,0.2-0.1,0.2c0.2,0.2,0.3,0.4,0.5,0.6
	s0,0.2,0.1,0.2s0.3,0.2,0.4,0.4s0.2,0,0.3,0s0.2,0.4,0.4,0.5c0,0,0.5-0.4,0.5-0.4c0.1,0.2,0.4,0.2,0.6,0.4s-0.6,0.7-0.6,0.7
	s0.8-0.2,0.9-0.1s-0.4,0.4-0.3,0.5s0.6,0,0.7,0.2s-0.4,0.2-0.4,0.2c1.1,2,1.6,4.2,1.6,6.4c0,2.2-0.4,4.3-0.9,6.5
	c-0.1,0.3,0.3,0.7,0.2,1c-0.3,1.1-0.7,2.2-1,3.3c-1,2.7-1.9,5.5-2.9,7.9c-0.2,0.4-1,0.5-1.1,0.9c0,0,0.1,0.1,0.1,0.1
	c-0.1,0.2-0.2,0.3-0.2,0.5s-0.1,0-0.2,0.1s0.1,0.4,0.1,0.5s-0.1,0.1-0.1,0.1s0.1,0.3,0,0.4s-0.5-0.1-0.5,0s0.6,0.5,0.6,0.6
	s-0.4-0.1-0.4,0s-0.1,0.2-0.1,0.3s-0.1,0-0.1,0.1s0.4-0.1,0.4-0.1c0.5,1,0.9,2,1.3,3.1c0,0,0.1,0.1,0.1,0.1c0.1,0.2,0.1,0.4,0.2,0.6
	c0.4,1.4,0.1,3.3,0.3,5.1c0.1,1.6-0.1,3.3-0.1,5s0.5,3.5,0.4,5c-0.1,1.7-0.9,3.4-1.1,5.2s-0.4,3.6-0.6,5.2
	C351.6,700.3,351.9,702.4,351.7,703.3z"/>
<path class="st1" d="M351.7,703.3c-0.4,1.3-1.4-2.8-2.1-0.5c2.7,1.3,3.1,0.3,6.1,0.5s3,0.2,6,0.3s3-0.3,6.1-0.2s3,0,6,0.1
	s3,0.6,6,0.7s3,0.2,6,0.4s3-0.3,6.1-0.2s3,0.6,6,0.7s3-0.6,6.1-0.5s3,0.1,6,0.2s3,0.2,6,0.3s3,0.4,6,0.6s3,0,6,0.2s3,0.5,6,0.6
	s3,0.3,6,0.4s3.1-0.7,6.1-0.6s3,1,6,1.1s3.5,1.4,6-0.3c-1-2.6-1.6-5.3-1.9-8c0-0.1-0.1-1.7-0.1-1.7s-0.3-0.9-0.3-1
	c0-1,0-2.1,0.1-3.1c-0.1-0.7,0-1.6-0.1-2.3c0-0.1-0.7-0.3-0.8-0.4c-0.1-0.6,0.5-1.3,0.4-1.9c0,0-0.8,0-0.8,0c-0.2-2,0.5-4,0.7-5.8
	c0.1-1.9,0.4-3.8,1-5.7c0.7-1.8,1.6-3.5,2.8-5c0.6-0.9,1.2-1.7,2-2.4c0,0,0.2,0.1,0.2,0.1c-0.1-0.4-0.1-0.8-0.2-1.1
	c-0.1-1.4-0.9-3.5-1.3-5.9c-0.1-0.3,0.7-0.9,0.6-1.2s-1-0.5-1.1-0.8c0-0.1,0.1-0.2,0.1-0.3c0-0.2,0.4-0.6,0.4-0.8s-0.1-0.3-0.1-0.4
	s-0.3-0.4-0.3-0.6s0-0.3,0-0.4s0.4-0.5,0.4-0.7s-0.3-0.3-0.3-0.4s0-0.4,0-0.6s-0.3-0.3-0.4-0.4s0.3-0.5,0.2-0.7s-0.3-0.3-0.3-0.5
	s-0.4-0.3-0.4-0.5s-0.2-0.3-0.3-0.5s0.4-0.5,0.4-0.7s0-0.3,0-0.5s0.3-0.4,0.3-0.6s-0.5-0.3-0.5-0.5s-0.1-0.4-0.1-0.6
	s-0.3-0.3-0.3-0.5s0-0.4-0.1-0.6s0-0.3,0-0.5s0.6-0.5,0.6-0.7s-0.9-0.3-0.9-0.4s0.9-0.5,0.8-0.8s-0.4-0.3-0.4-0.4
	c0-0.3-0.2-0.7-0.3-1c0,0-0.2-0.1-0.2-0.2c0-0.3,0.8-0.7,0.8-1c0-0.1-0.2-0.3-0.2-0.4s-0.2-0.5-0.2-0.7s-0.1-0.3-0.1-0.5
	s-0.1-0.4-0.1-0.7s0.5-0.3,0.5-0.4s-0.7-0.5-0.7-0.7s0-0.3,0.1-0.5s0.4-0.3,0.4-0.5s0.2-0.3,0.3-0.5s-0.1-0.4-0.1-0.6
	s0.4-0.3,0.4-0.4s-0.5-0.5-0.5-0.7s0.7-0.2,0.8-0.3s-0.4-0.5-0.3-0.7s0.1-0.3,0.1-0.5s0-0.4,0-0.6s0.6-0.1,0.6-0.3s0.3-0.3,0.4-0.5
	s-0.5-0.6-0.5-0.7s0.2-0.3,0.3-0.5s0.9,0.1,0.9,0s-0.4-0.7-0.3-0.8s0.1-0.3,0.2-0.4s0.7-0.1,0.8-0.2s0.2-0.2,0.3-0.3
	s0.1-0.6,0.3-0.8s0-0.3,0.1-0.4s0.8,0,1-0.2s0.1-0.3,0.2-0.4s0-0.3,0.1-0.5c-1.1-1.5-1.6-3.5-2.3-5.8c-0.8-2-1.4-4-1.9-6
	c-0.3-2-0.8-4.1-1-6.2s0.1-4.3,0.1-6.3c0-2.2,0.5-4.3,0.6-6.2c0.1-2.1,0.2-4.1,0.5-6.2c0.1-1.1,0.3-2.3,0.6-3.4c0-0.1,0-0.1,0-0.2
	s-0.3-0.2-0.3-0.2c0.1-0.5,0.1-1,0.3-1.4c0-0.1-0.3-0.2-0.2-0.3s0.3-0.3,0.4-0.5c0,0,0.4-0.1,0.4-0.1c-0.1-0.2-0.4-0.4-0.5-0.6
	s-0.3-0.3-0.3-0.5s0.5-0.6,0.4-0.8s-0.8-0.3-0.8-0.5s0.4-0.6,0.4-0.9s-2.6-0.4-2.6-0.5c0-0.5-3.2-0.9-3.2-1.4h0.1
	c0-0.4,3.5-0.8,3.5-1.2c0.1-1.6,0.1-3.4,0.2-5.4c0.1-1.7-0.1-3.6-0.1-5.4c0-1.8-0.1-3.6-0.3-5.4c-0.2-1.8-0.5-3.6-0.5-5.2
	c-0.1-1.9-0.1-3.6-0.1-5.3c0-1.9-0.1-3.7,0-5.3c0,0-0.1-0.1-0.1-0.1c0-0.5,1.1-0.9,1.1-1.4s-0.6-0.7-0.6-1c0-0.1,0.6-0.2,0.6-0.4
	c0-0.4,0.1-0.7,0.2-1c0-0.1-0.4-0.2-0.3-0.3c0.1-0.4,0.2-0.8,0.3-1.2c0-0.1,0.7,0,0.7-0.1s-0.5-0.4-0.4-0.5s-0.1-0.3-0.2-0.5
	s-0.2-0.3-0.3-0.5c-0.2-0.5,0-1.1-0.2-1.6c0-0.1-0.4,0-0.5-0.1c-0.2-0.6-0.7-1.1-0.9-1.8c0-0.2,0.4-0.5,0.4-0.7
	c-0.1-0.5,0.1-1,0-1.5c0-0.2-0.2-0.4-0.3-0.6c-0.1-0.6-0.8-1-0.9-1.6c0-0.1,0.1-0.3,0.1-0.4c-0.1-0.7,0.1-1.5,0-2.2
	c0-0.2,0-0.4,0-0.6c0-0.6-0.1-1.2,0-1.8c0-0.3-0.4-0.5-0.4-0.8c0-0.7,0.4-1.3,0.4-2c0-0.2-0.4-0.4-0.4-0.5c0.1-0.8,0.5-1.7,0.7-2.6
	c0-0.2,0.3-0.4,0.3-0.7c0.1-0.7,0.3-1.4,0.4-2.1c0-0.3,0.1-0.6,0.1-0.9c0.1-0.8,0-1.6,0.2-2.4c0-0.2,0.3-0.4,0.3-0.6
	c0.2-1,0.9-1.9,1.1-2.9c0.1-0.3-0.1-0.6-0.1-0.8c0.1-0.5-0.3-0.8-0.1-1.3c-1.9-1.3-3.3-3.5-5.3-6l-0.4-0.5c-0.1-0.2-0.5-0.2-0.7-0.4
	c-0.3-0.4-0.7-0.7-1-1.1c-0.1-0.1,0.1-0.4,0-0.5c-0.3-0.5-0.4-1.2-0.7-1.7c-1-1.7-2.6-2.5-3.6-3.4c-1.1-1.1-2.4-2.2-3.8-3
	c-0.3-0.1-0.6-0.2-0.9-0.4l0,0c-0.1-0.1,0-0.6-0.2-0.7s-0.1,0.1-0.1,0.1s-0.4,0-0.6-0.1s-0.3,0.3-0.3,0.3c-0.3-0.2-0.2-1-0.5-1.2
	c0,0,0.1-0.2,0.1-0.2s-0.6,0.1-0.7,0s-0.2,0.1-0.2,0.1s0.3-0.7,0.1-0.9s-0.4,0.3-0.4,0.2s-0.2-0.3-0.3-0.5s-0.5,0.2-0.5,0.2
	s-0.3-0.4-0.4-0.5l0.5-0.3c-0.1-0.2,0-0.4-0.1-0.6s-0.7,0.2-0.7,0.2s0-0.5-0.1-0.7c0,0,0.3-0.2,0.2-0.2c-0.1-0.2-0.5-0.3-0.6-0.5
	c0,0,0.5-0.2,0.5-0.3c-0.1-0.2-0.2-0.4-0.2-0.7c0-0.1,0.1-0.1,0.1-0.2c0-0.3-0.8-0.4-0.8-0.7c0,0,0.1,0,0.1-0.1
	c0-0.3,0.5-0.5,0.5-0.8c0,0-0.3-0.1-0.3-0.1c-0.2,0-0.3,0.1-0.5,0.1s-0.3,0-0.5,0c-0.6,0.1-1.2,0.2-1.9,0.3c0,0-0.1-0.4-0.1-0.4
	c-0.6,0-1.2,0.7-1.9,0.7c-0.1,0-0.2,0.1-0.3,0.1s-0.3-0.2-0.5-0.2s-0.4,0.1-0.6,0.1s-0.6-0.6-0.9-0.6s-0.4,0.3-0.6,0.3s-0.7,0-1-0.1
	c-0.2,0-0.4,0.2-0.5,0.2c-0.5-0.1-1-0.3-1.5-0.4c0,0,0-0.2,0-0.2c-0.5-0.1-1-0.2-1.4-0.3c-0.2,0-0.4,0-0.5-0.1
	c-0.3-0.1-0.4-0.9-0.8-1s-0.6,0.6-0.8,0.5s-0.7-0.1-1-0.2s-0.2-0.6-0.4-0.7s-0.4-0.7-0.7-0.9s-0.6,0.3-0.9,0.1s-0.5-0.4-0.8-0.6
	s-0.7,0.2-0.9,0.1s-0.4-0.8-0.7-1s-0.5-0.1-0.6-0.2c-0.4-0.3-0.8-0.5-1.2-0.8c-0.1-0.1-0.1-0.3-0.2-0.4c-0.5-0.4-0.9-0.9-1.4-1.4
	c-0.1-0.1-0.4-0.1-0.5-0.2c-0.4-0.4-0.3-1.2-0.6-1.5c0,0-0.6,0.5-0.6,0.5l0.3-0.2c-0.1,0.1-0.2,0.3-0.3,0.4c-3.8,1.7,7.1,3,2.7,2.1
	c-0.3-0.1-0.5-0.3-0.8-0.4s-0.7-0.2-1.1-0.3s-0.6,0.1-0.8,0c-0.1,0,0.1-0.7,0-0.7c-2.1-0.7-4.1-1.6-6-2.7c0,0-0.1,0.7-0.1,0.7
	c-0.4,0.1-0.9-0.1-1.2-0.1c0,0-0.1,0.4-0.1,0.4c-0.4,0-0.8,0.3-1.2,0.3h-0.1c-0.4,0-0.8-0.5-1.2-0.5c0,0,0,0.3-0.1,0.3
	c-0.4,0-0.8-0.6-1.1-0.6c-0.8,0-1.6-0.1-2.3-0.1c-2.1,0-3.4-0.1-5.1,1.5c-0.1,0.1-0.6-0.1-0.8,0s0,0.2,0,0.3s-0.1,0.3-0.2,0.4
	s-0.1,0-0.1,0.1s-0.3,0.1-0.5,0.2s0,0.2,0,0.2s-0.3,0.1-0.4,0.2s0.1,0.3,0.1,0.4s-0.4,0-0.6,0.1s0,0.1-0.1,0.1s-0.5-0.1-0.6,0
	s0.3,0.6,0.3,0.6s-0.5-0.1-0.6,0s-0.1,0.1-0.1,0.1s-0.6-0.4-0.7-0.3s0.2,0.5,0.1,0.6s-0.5-0.3-0.6-0.2s0.1,0.5,0,0.5
	s-0.1,0.5-0.2,0.6s-0.5-0.7-0.5-0.7L387,482c-0.1,0-0.1,0.3-0.2,0.3s-0.3-0.2-0.5-0.2s0,0.6-0.1,0.6s-0.3,0-0.4,0s-0.2-0.2-0.3-0.2
	s-0.2,0.5-0.3,0.5s-0.3-0.8-0.4-0.8s-0.2,0.7-0.3,0.8s-0.2,0-0.3,0s-0.1-0.3-0.1-0.3s-0.3,0.2-0.4,0.2c-0.9,0-1.8-0.2-2.6-0.5
	c-1.5,2.5-3.6,4.5-6.1,5.9c-1.6,0.9-3,2.1-4,3.7c-1.1,1.5-2,3.1-2.9,4.7c-0.8,1.7-1.7,3.3-2.4,4.9c-0.1,0.3,0.2,0.9,0.1,1.2
	c0,0.1-0.3,0.2-0.3,0.3s-0.3,0.4-0.4,0.6s-0.3,0.2-0.3,0.3s-0.6,0.2-0.7,0.5s0.2,0.4,0.1,0.6s0,0.5-0.2,0.7s-0.3,0.2-0.3,0.3
	s-0.6,0.4-0.7,0.6c0,0.1,0.3,0.4,0.3,0.4c-0.2,0.3-0.6,0.5-0.8,0.8c-0.1,0.1,0.1,0.3,0,0.4s-0.5,0.3-0.7,0.5s-0.2,0.2-0.3,0.3
	s-0.3,0.3-0.5,0.5s0.3,0.6,0.2,0.7s-0.3,0.3-0.4,0.5s-0.4,0-0.5,0.1s-0.3,0.4-0.4,0.6s0.1,0.3,0,0.4c-0.2,0.2-0.7,0.2-0.9,0.4
	c-0.1,0.1-0.3-0.2-0.4-0.1s-0.4,0.2-0.5,0.4s0.2,0.8,0.1,0.8s-0.5-0.1-0.7,0s-0.3-0.2-0.4-0.1s0.1,0.6,0.1,0.6s-0.2-0.1-0.2-0.1
	s0.5,0.3,0.5,0.5s-0.4,0.2-0.4,0.3s-0.5,0.3-0.5,0.4s0.3,0.3,0.3,0.4s-0.1,0.3-0.1,0.5s-0.3,0.2-0.3,0.3s0.4,0.4,0.3,0.6
	s-0.5,0.1-0.6,0.3s0.5,0.5,0.4,0.7s-0.4,0.2-0.4,0.3s0,0.4-0.1,0.5s0.3,0.4,0.3,0.5s-0.4,0.3-0.4,0.5s0.2,0.3,0.1,0.5
	c-0.1,0.3-0.5,0.5-0.7,0.8c-1.8,3.8-2,4.7-1.7,7.8c0,0.2,0.2,0.4,0.2,0.6c0.1,1.3-0.2,3-0.2,5c0,0.3,0.8,0.7,0.8,1.1
	s-0.3,0.6-0.4,0.9c0,0.1,0.3,0.2,0.3,0.3s0,0.4,0,0.6s-0.2,0.2-0.2,0.3s-0.5,0.3-0.6,0.4s0.4,0.3,0.4,0.5s0.1,0.4,0.1,0.5
	s-0.4,0.2-0.4,0.3s-0.6,0.1-0.6,0.3s0.2,0.3,0.2,0.4s0.3,0.4,0.2,0.5s-0.1,0.2-0.2,0.3s-0.1,0.3-0.2,0.4s-0.5,0-0.6,0.1
	s0.2,0.4,0.2,0.5s-0.6-0.1-0.6,0s0.1,0.4,0.1,0.5s-0.2,0.1-0.3,0.2s-0.2,0.2-0.3,0.3s0.4,0.6,0.3,0.7s-0.5-0.1-0.6,0s-0.3,0-0.4,0.1
	s-0.2,0.2-0.3,0.2s-0.1,0.2-0.1,0.3s0.4,0.7,0.3,0.8s-0.3,0.1-0.4,0.1s-0.1,0.2-0.2,0.3s-0.3,0.1-0.3,0.1s-0.6-0.3-0.7-0.3
	s0.4,0.8,0.3,0.9s-0.3,0.1-0.4,0.2s-0.2-0.3-0.2-0.3c0.2,0.3,0.3,0.6,0.5,0.9c0.1,0.1-0.2,0.5-0.2,0.6s0.2,0.3,0.3,0.5s0,0.4,0,0.6
	s0.8,0,0.9,0.1s-0.3,0.5-0.2,0.7s0.3,0.2,0.4,0.3s0.4,0.3,0.4,0.4s-0.3,0.4-0.2,0.6s0.3,0.3,0.3,0.4s-0.1,0.4,0,0.6s-0.1,0.2,0,0.3
	c0.1,0.6,0.4,1.2,0.5,1.8c0.3,1.2,0.1,2.6,0.5,4c0,0.1,0.9,0,0.9,0.2c0.2,0.7,0.1,1.4,0.3,2.1c0.1,0.3-0.2,0.7-0.1,1
	c0.1,0.5,0.6,0.9,0.6,1.4c0.1,0.3-0.5,0.8-0.5,1.1s0.9,0.8,0.9,1.3s-0.3,0.7-0.3,1.1s0.2,0.9,0.3,1.3s0.3,0.7,0.4,1
	s-0.6,0.9-0.6,1.3s-0.1,0.7-0.1,1s0.7,0.8,0.7,1.3s-0.1,0.7-0.1,1s0,0.8,0,1.2s-0.4,0.7-0.5,1s0.1,0.8,0.1,1.2s-0.2,0.7-0.3,1
	s-0.1,0.8-0.1,1.2s0.5,0.8,0.5,1.1s-0.7,0.7-0.8,1s0.5,0.7,0.4,1.1s-0.8,0.6-0.9,1s0.2,0.7,0.1,1s-0.5,0.6-0.6,1s-0.2,0.6-0.2,0.9
	s-0.1,0.7-0.2,1s0.7,0.8,0.6,1s-0.4,0.6-0.4,0.9s-0.1,0.5-0.2,0.8s-0.9,0.5-0.9,0.8s0.7,0.7,0.6,0.9s-0.5,0.3-0.5,0.5
	c0.9,1.1,1.4,2.6,1.3,4c0,0.2,0.8,0.3,0.8,0.5c0,1.2-0.8,2.3-0.9,3.3c-0.3,1.7-0.4,3.5-0.2,5.3c0.4,1.7,0.9,3.4,1.6,5
	c0.8,2.1,1.4,4.2,1.8,6.4c0.4,2.2,0.6,4.4,0.5,6.7c-0.2,2.2-0.6,4.5-1.3,6.6c-0.6,2-1.5,4.1-2.4,6.3c-0.1,0.2-0.9,0.1-1,0.3
	s0.3,0.5,0.4,0.5s0.6-0.3,0.8-0.2s0,0.3,0.1,0.3c0.2,0.1,0.6,0.1,0.8,0.2c0,0-0.1,0.2-0.1,0.2c0.2,0.2,0.3,0.4,0.5,0.6
	s0,0.2,0.1,0.2s0.3,0.2,0.4,0.4s0.2,0,0.3,0s0.2,0.4,0.4,0.5c0,0,0.5-0.4,0.5-0.4c0.1,0.2,0.4,0.2,0.6,0.4s-0.6,0.7-0.6,0.7
	s0.8-0.2,0.9-0.1s-0.4,0.4-0.3,0.5s0.6,0,0.7,0.2s-0.4,0.2-0.4,0.2c1.1,2,1.6,4.2,1.6,6.4c0,2.2-0.4,4.3-0.9,6.5
	c-0.1,0.3,0.3,0.7,0.2,1c-0.3,1.1-0.7,2.2-1,3.3c-1,2.7-1.9,5.5-2.9,7.9c-0.2,0.4-1,0.5-1.1,0.9c0,0,0.1,0.1,0.1,0.1
	c-0.1,0.2-0.2,0.3-0.2,0.5s-0.1,0-0.2,0.1s0.1,0.4,0.1,0.5s-0.1,0.1-0.1,0.1s0.1,0.3,0,0.4s-0.5-0.1-0.5,0s0.6,0.5,0.6,0.6
	s-0.4-0.1-0.4,0s-0.1,0.2-0.1,0.3s-0.1,0-0.1,0.1s0.4-0.1,0.4-0.1c0.5,1,0.9,2,1.3,3.1c0,0,0.1,0.1,0.1,0.1c0.1,0.2,0.1,0.4,0.2,0.6
	c0.4,1.4,0.1,3.3,0.3,5.1c0.1,1.6-0.1,3.3-0.1,5s0.5,3.5,0.4,5c-0.1,1.7-0.9,3.4-1.1,5.2s-0.4,3.6-0.6,5.2
	C351.6,700.3,351.9,702.4,351.7,703.3z"/>
<path class="st0" d="M548.7,746c-2.2,2.1-3.3-0.2-6.3-0.2s-3-0.3-6-0.3s-3,0.3-6,0.3s-3,0.4-6,0.4s-3-1-6-1s-3,0.5-6,0.5
	s-3,0.2-6,0.2s-3-0.6-6-0.6s-3-0.2-6-0.2s-3,0.8-6,0.8s-3-0.2-6-0.2s-3,1-6,1s-3-0.8-6-0.8s-3-0.4-6-0.4s-3-0.1-6-0.1s-3-0.2-6-0.2
	s-3,0.8-6,0.8s-3-0.5-6-0.5s-3-0.1-6-0.1s-3,0.6-6,0.6s-3,0.3-6,0.3s-3-0.4-6-0.4s-3,0.2-6,0.2s-3-1-6-1s-3,0.8-6,0.8h-6
	c-3,0-3,0.1-6,0.1s-3-1.3-6-1.3s-3,1.5-6,1.5s-3-0.3-6-0.3s-3,0.5-6,0.5s-3-0.9-6-0.9s-3,0.5-6,0.5s-3,0.5-6,0.5s-3-0.9-6-0.9
	s-3,0.1-6,0.1h-6c-3,0-3,0.6-6,0.6s-3-0.7-6-0.7s-3,0.2-6,0.2s-3,0.1-6,0.1s-3-0.5-6-0.5s-3,0.5-6,0.5s-3-0.2-6-0.2s-3,0.7-6,0.7
	s-3-0.4-6-0.4s-3-0.3-6-0.3s-3,0.3-6,0.3s-3.9,1.8-6.1-0.2s-0.5-2.9-0.5-5.7s0.6-2.8,0.6-5.6s0.7-2.8,0.7-5.6s-0.1-2.8-0.1-5.6
	s-1.3-2.8-1.3-5.6s1-2.8,1-5.6s-2.5-3.7-0.4-5.7c2-1.9,3-0.7,6-0.7s3,1.3,5.9,1.3s3-0.5,5.9-0.5s3,1,5.9,1s3-0.8,5.9-0.8
	s3-0.6,5.9-0.6s3-0.2,5.9-0.2s3,1,5.9,1s3-0.2,5.9-0.2s3,0.5,5.9,0.5s2.2-1.2,5.2-1.2s3-0.5,5.9-0.5s3,1.5,5.9,1.5s3-0.7,5.9-0.7
	s3-0.7,5.9-0.7s3,0.2,5.9,0.2s3,1,5.9,1s3-0.5,5.9-0.5s3,0.5,5.9,0.5s3-1.7,5.9-1.7s3,0.8,5.9,0.8s3,0.2,5.9,0.2s3,0.3,5.9,0.3
	s3-0.4,5.9-0.4s3,0.3,5.9,0.3s3,0.3,5.9,0.3s3-1,5.9-1s3,0.9,5.9,0.9s3,0.3,5.9,0.3s3-0.2,5.9-0.2s3-1,5.9-1s3,1,5.9,1
	s3,0.6,5.9,0.6s3-0.4,5.9-0.4s3-0.8,6-0.8s3,0.7,5.9,0.7s3,0.1,6,0.1h6c3,0,3-0.3,5.9-0.6c3.2-0.3,3.1-0.8,6.2-1.5s3.2-1.2,6.4-0.9
	c4.3,0.4,4,2,8.3,2.7c3,0.5,3,0.3,6,0.3s3,0.1,6,0.1s3,0.2,6,0.2s3-0.9,6-0.9s3,0.1,6,0.1s3-0.5,6-0.5s4.3-1.9,6.5,0.2
	s-0.4,3.3-0.4,6.1s-0.8,2.8-0.8,5.6s1,2.8,1,5.6s0,2.8,0,5.6s-0.5,2.8-0.5,5.6s-0.9,3-0.2,5.8C548.6,743.3,550.7,744.1,548.7,746z"
	/>
<path class="st2" d="M286.7,701.3c-2.5-1.3-2.5-0.5-5.7-1c-1.9-0.4-3.8-0.6-5.7-0.8c-1.9,0-3.8,0.2-5.7,0.7c-1.9,0.4-3.6,1.3-5,2.7
	c-1.4,1.4-2.3,3.3-2.4,5.2c0,1.6,0.9,3.4,1.7,5.5c0.6,1.8,1,3.7,1.4,5.5c0.4,1.9,0.6,3.8,0.8,5.7c0.1,2.1-0.8,3.9-1,5.6
	c-0.2,2.1,1,4.2,0.5,5.9c-0.6,2.1-1.3,3.9-1.8,5.4c-0.8,2.4-2.1,3.9-1.1,5.2c0.9,1.2,2.9,2.2,5.6,2.7c2.1,0.2,4.2,0.3,6.2,0.2
	c2.1,0.1,4.2,0.2,6.2,0.1c2.1-0.2,4.1-0.6,6.2-1c2-0.5,4-1.2,5.9-2.1c1.7-0.6,3.4-0.9,5.2-0.8c1.8,0,3.7-0.4,5.4,0
	c2,0.4,3.6,1.5,5.1,1.6c2,0.1,3.8-0.2,4.2-2.5c0.2-1.1,0.9-3,1.5-5.5c0.4-1.7,0-3.7,0.4-5.7c0.4-1.8,1.1-3.6,1.4-5.5
	s0.5-3.8,0.8-5.6s0.5-3.8,0.6-5.6c0.1-2-0.6-3.8-0.7-5.6c-0.2-2.2,1.2-4.6,0.5-6c-0.9-1.8-3.2-2.4-5.3-2.5c-2.4-0.2-4.5-0.8-6.5-0.7
	c-2.4,0.2-4.4,1.4-6.3,1.6c-2.2,0.1-4.3,0-6.4-0.4C290.3,703.5,288.3,702.6,286.7,701.3z"/>
<path class="st2" d="M312.3,745.2c3.5-0.1,2.8,0.6,6.8,1.3c2,0.4,4.4,1.3,6.9,1.4c2.3,0.1,4.7-0.1,7-0.5c2.6-0.5,4.6-1.3,6.4-1.2
	c2.2,0,4.4,0.3,6.5,0.9c1.8,0.6,3.1,3.3,5.7,3.8c2.2,0.4,4.4-0.8,6-1.4c1.8-0.8,3.2-2.2,3.9-4c0.8-1.6,1.8-3.5,1.4-5.6
	c-0.4-2.4-0.4-3.9,0.7-5.3s2.3-2.4,2.7-4.6c0.3-1.4-0.3-3-0.8-5.3c-0.4-1.8,0.5-4,0.7-6c0.3-2,0.7-3.9,1.2-5.8
	c0.5-2.1,1.6-3.9,1.9-5.7c0.4-2.5,0-4.8-1.3-5.9c-1-0.9-3-1-5.9-0.4c-2,0.4-3.8,0.8-5.6,1.3c-2,0.5-3.8,1.2-5.5,1.6
	c-2,0.5-3.8,1.2-5.5,1.6c-1.9,0.3-3.8,0.4-5.8,0.2c-2.1,0-4.1-0.2-5.6-1.3c-1.8-1.3-3-3.1-4.5-3.6c-1.9-0.7-4.1-0.7-6,0
	c-1.6,0.7-2,3.1-3,4.9c-1,1.5-1.7,3.2-2.3,4.9c-0.5,1.8-0.9,3.6-1.1,5.4c-0.3,1.8-0.6,3.7-0.7,5.5s-0.6,3.8-0.6,5.6
	c-0.1,2.5,0.1,4.6,0,6.4c-0.3,2.1-0.7,4.2-1.2,6.3C313.5,746,309.1,745.3,312.3,745.2z"/>
<path class="st2" d="M391.1,705.6c-2.7-0.4-2.1-1.8-5-2.8c-1.6-0.6-3.1-2.1-5-2.5c-1.8-0.3-3.7-0.3-5.6,0c-2,0.2-4,0.8-5,2.3
	c-0.8,1.2-0.1,3,0,5.4c0,1.9-0.2,3.8-0.5,5.7c-0.2,2.1-1.6,3.6-2,5.3c-0.5,1.9,0.2,3.9-0.2,5.7c-0.5,1.8-0.8,3.6-0.8,5.5
	c0.2,1.8,0.6,3.6,1.3,5.4c0.4,1.6,0.5,3.5,1.3,5.5c1,2.4,1.9,4.2,2,5.4c0.3,4.4-3.3,3.3-1.9,1.8c1.3-1.5,3.1-2.4,5.1-2.4
	c1.5-0.1,3.4,1.2,5.8,1.3s4.5-0.2,6.4,0c2.4,0.3,4.7-0.4,6.5,0c2.1,0.6,4.1,1.4,6,2.4c2.5,0.9,4.2,2.2,5.8,2.7
	c2.2,0.8,4.2,1.4,6.4,0c1.5-1,2.9-2.2,4.4-3.2c1.5-1.1,2.8-2.3,3.9-3.7c1.3-1.3,3.1-2.4,3.3-4.3c0.1-1.5-0.9-3.2-1.8-5.2
	c-0.8-1.7-2.2-3.6-2.7-5.8c-0.5-2,0.4-4.3,0.2-6.5s-0.5-4.2-0.5-6.3c-0.1-2.3-0.4-4.4-0.3-6.3c0-2.1,0.5-4.1,1.4-6
	c0.8-1.4,2.1-4.3-0.9-5c-1.1-0.3-3,0.4-5.7,0.7c-1.5,0.1-3.3,0.6-5.5,1c-1.6,0.3-3.6-0.5-5.7,0c-1.7,0.3-3.2,1.8-5.2,2.3
	C395,704.2,393,705.1,391.1,705.6z"/>
<path class="st2" d="M470.2,705.1c-2.9,1.3-2.5,0.8-6.2,1.5c-1.8,0.4-4.1-0.1-6.4,0.2c-2.1,0.4-4.1,0.8-6.2,1
	c-2.1,0.1-4.4,1-6.4,0.8c-2.2-0.4-4.2-1.1-6.2-2.1c-1.7-0.8-3-2.4-4.6-3.1c-1.6-0.8-3.4-1.6-5.1-2.1c-1.8-0.6-3.8-0.1-5,1.3
	c-0.8,1-2.5,2.5-2.5,5c0,1.5,1.7,3.2,2,5.4c0.3,1.9-0.3,3.8-0.3,5.8s0.6,3.9,0.4,5.8s-1,3.8-1.3,5.6s-0.1,3.9-0.3,5.7
	c-0.3,2.1-1.1,3.9-1.2,5.6c-0.3,1.9-0.2,3.9,0.3,5.8c0.7,1.8,2.2,1.7,4.8,1.1s4.7,0.4,6.5,0.6c2.4,0.2,4.2,1.4,6.1,1.8
	s4-0.2,6.5-0.8c2-0.6,4-1.5,5.8-2.6c1.7-1,3.6-1.6,5.5-1.8c1.9-0.1,3.9,0,5.8,0.5c1.9,0.4,3.7,0.9,5.5,1.6c1.9,0.6,3.8,1.1,5.5,1.8
	c2.1,0.8,3.9,1.9,5.4,2.1c2.1,0.3,3.8-0.7,4-3.5c0.1-2.4,0.4-4.5,0.7-6.4c0.4-2.5,0.7-4.5,1.2-6.3c0.7-2.9,0.8-5,1-6.3
	c0.5-1.9,0.9-3.9,1.3-5.9c0.3-1.8,1-3.8,1.1-6c0.2-2,0.3-4.1,0.2-6.1c-0.3-2-1-4-2-5.8c-1-1.9-2.3-3.9-4.4-4.4
	c-1.6-0.3-3.7,0.4-6.1,1.2C473.8,702.5,472.2,703.9,470.2,705.1z"/>
<path class="st2" d="M527.3,704.4c2.8,0.1,2.8-1,5.4-0.5c1.5,0.3,2.1,1.5,2.8,3.9c0.4,1.3,1.8,2.9,1.6,5.2c-0.1,1.6-1,3.3-1.5,5.4
	s-0.2,4.4-0.3,6.3c-0.1,2.1,0,4.2,0.2,6.3c0.2,2.3-0.2,4.5,0.3,6.3c0.6,2.4,1.9,4.3,2.4,5.9c1.1,3.1,1.3,4.4-1.3,4.6
	c-1.8,0.2-3.5,0.9-5.2,1.2s-3.4,0.8-5.2,1c-1.8,0.3-3.6,0.4-5.4,0.3c-1.6-0.1-3.2-1.2-5.1-1.8c-2-0.4-4.1-0.5-6.1-0.2
	c-2,0.1-4,0.2-6,0.5c-2.1,0.3-4.2,0-6.1,0.3c-2.2,0.3-4.3,1.3-6,1c-2.2-0.3-3.3-1.9-4.4-3.7c-1.1-1.6-1.6-3.6-1.6-5.5
	c0-2.1-0.5-4.2-0.5-6.1c0-2.1,0.3-4.2,0.3-6.1c0-2.2-0.3-4.2-0.3-6.1c0-2.2,0.4-4.2,0.6-6.1c0.3-2,0.8-4,1.5-5.9
	c0.5-2,0.6-4,1.6-5.9c1.2-2,2.6-3.8,4.3-5.4c1.7-1.9,3.3-4,6.1-3.5c1.8,0.3,3.8,1.8,6.6,2.8c2.4,0.9,4.1,1.7,5.6,1.7
	c2.3,0,3.8-0.7,5.8-0.7c1.5,0,3.7-0.7,6,0.7C524.5,701.2,525.5,702.9,527.3,704.4z"/>
<path class="st0" d="M713.5,220.3c-0.1,2-1,3.9-2.4,5.3c-1.3,1.6-2.7,3-4.3,4.3c-1.7,1.1-3.4,2.1-5.3,3.1c-1.7,0.9-3.6,1.6-5.6,2.4
	c-1.8,0.8-3.8,1.1-5.8,1.9c-1.8,0.7-3.6,1.7-5.6,2.3s-3.9,1-5.9,1.5s-3.9,0.7-5.9,1.2s-3.7,1.7-5.7,2.1s-3.9,0.8-6,1.1s-4,0.6-6,0.9
	s-4.1-0.2-6.1,0s-3.9,0.9-6,1.1s-4,0.7-6,0.8s-4,0.2-6,0.3s-4,0.4-6,0.4s-4,0.1-6.1,0.1s-4-0.4-6-0.4s-4-0.8-6-0.9s-4.1,0.4-6,0.3
	s-4-0.1-6-0.4s-3.9-1.3-5.9-1.6s-4.1,0-6-0.4s-3.9-1-5.9-1.4s-3.9-1.1-5.8-1.5s-4-0.8-5.8-1.3s-4.1-0.3-6-0.8s-3.8-1.4-5.7-2
	s-3.7-1.7-5.5-2.4c-2-0.7-3.9-1.2-5.7-2c-2-0.9-4-1.4-5.6-2.2c-1.7-1-3.4-2.2-5-3.4c-1.7-1.1-3.2-2.4-4.6-3.9
	c-1.9-1.8-3.3-3.4-3.3-4.9c0-1.8,1.7-3,4.2-4c1.9-0.7,3.9-1.2,5.8-1.4c1.8-0.3,3.8-0.5,6-0.7c1.9-0.2,3.9-0.6,6-0.7
	c1.9-0.1,3.9-0.2,6.1-0.3c1.9,0,4-0.1,6.1-0.1s4,0.2,6.1,0.2s4,0.1,6.1,0.1s4,0.3,6.1,0.3s4,0,6.1,0s4-0.4,6.1-0.3s4-0.1,6.1-0.1
	s4-0.2,6.1-0.2s4,0.6,6.1,0.6s4-0.4,6.1-0.4h6.1c2,0,4.1,0.1,6.1,0.1s3.9,0.6,5.9,0.6s4.1-0.4,6.1-0.4s4.1,0.4,6.1,0.4
	s4.1,0.1,6.1,0s4.1-0.3,6.1-0.4s4.1-0.5,6.1-0.5s4.1,0.4,6.1,0.4s4.1,0,6.1,0s4.1-0.5,6.1-0.5s4.1,0.6,6.1,0.6
	c2.1,0.1,4.2-0.4,6.1-0.3c2.2,0.1,4.1,0.9,6,1c2.2,0.2,4.3-0.1,6.1,0.2c2,0.2,4,0.6,6,1.2C712.3,216.9,713.5,218.6,713.5,220.3z"/>
<path class="st1" d="M713.5,220.3c-0.1,2-1,3.9-2.4,5.3c-1.3,1.6-2.7,3-4.3,4.3c-1.7,1.1-3.4,2.1-5.3,3.1c-1.7,0.9-3.6,1.6-5.6,2.4
	c-1.8,0.8-3.8,1.1-5.8,1.9c-1.8,0.7-3.6,1.7-5.6,2.3s-3.9,1-5.9,1.5s-3.9,0.7-5.9,1.2s-3.7,1.7-5.7,2.1s-3.9,0.8-6,1.1s-4,0.6-6,0.9
	s-4.1-0.2-6.1,0s-3.9,0.9-6,1.1s-4,0.7-6,0.8s-4,0.2-6,0.3s-4,0.4-6,0.4s-4,0.1-6.1,0.1s-4-0.4-6-0.4s-4-0.8-6-0.9s-4.1,0.4-6,0.3
	s-4-0.1-6-0.4s-3.9-1.3-5.9-1.6s-4.1,0-6-0.4s-3.9-1-5.9-1.4s-3.9-1.1-5.8-1.5s-4-0.8-5.8-1.3s-4.1-0.3-6-0.8s-3.8-1.4-5.7-2
	s-3.7-1.7-5.5-2.4c-2-0.7-3.9-1.2-5.7-2c-2-0.9-4-1.4-5.6-2.2c-1.7-1-3.4-2.2-5-3.4c-1.7-1.1-3.2-2.4-4.6-3.9
	c-1.9-1.8-3.3-3.4-3.3-4.9c0-1.8,1.7-3,4.2-4c1.9-0.7,3.9-1.2,5.8-1.4c1.8-0.3,3.8-0.5,6-0.7c1.9-0.2,3.9-0.6,6-0.7
	c1.9-0.1,3.9-0.2,6.1-0.3c1.9,0,4-0.1,6.1-0.1s4,0.2,6.1,0.2s4,0.1,6.1,0.1s4,0.3,6.1,0.3s4,0,6.1,0s4-0.4,6.1-0.3s4-0.1,6.1-0.1
	s4-0.2,6.1-0.2s4,0.6,6.1,0.6s4-0.4,6.1-0.4h6.1c2,0,4.1,0.1,6.1,0.1s3.9,0.6,5.9,0.6s4.1-0.4,6.1-0.4s4.1,0.4,6.1,0.4
	s4.1,0.1,6.1,0s4.1-0.3,6.1-0.4s4.1-0.5,6.1-0.5s4.1,0.4,6.1,0.4s4.1,0,6.1,0s4.1-0.5,6.1-0.5s4.1,0.6,6.1,0.6
	c2.1,0.1,4.2-0.4,6.1-0.3c2.2,0.1,4.1,0.9,6,1c2.2,0.2,4.3-0.1,6.1,0.2c2,0.2,4,0.6,6,1.2C712.3,216.9,713.5,218.6,713.5,220.3z"/>
<path class="st0" d="M713.7,141c0,2,0.1,4.1,0,6.1s-1,4-1.3,5.9s-0.5,4-0.9,6s-0.9,3.9-1.5,5.8s-1.3,3.8-2,5.7s-1.2,3.9-2,5.7
	s-1.8,3.6-2.7,5.4s-1.8,3.6-2.9,5.3s-2.6,3.1-3.8,4.7s-1.8,3.7-3.1,5.2s-2.9,2.8-4.3,4.2s-2.8,2.8-4.3,4.2s-3.1,2.6-4.6,3.8
	s-2.9,2.8-4.6,4s-3.3,2.3-5,3.4s-3.5,2.1-5.2,3.1s-3.6,1.9-5.4,2.7s-3.9,1.2-5.8,1.9s-3.9,1-5.8,1.6s-3.7,1.7-5.6,2.2s-4,0.3-6,0.6
	s-3.9,0.8-5.9,1s-3.9,0.9-6,1s-4,0.2-6,0.2s-4-0.6-6-0.7s-4.1,0.3-6,0s-4-0.7-5.9-1.1s-4-0.5-6-1s-3.9-1-5.8-1.6s-3.6-1.9-5.5-2.6
	s-3.8-1.4-5.6-2.2s-3.7-1.6-5.5-2.5s-3.6-1.8-5.3-2.9s-3.5-2-5.2-3.1s-3.4-2.3-4.9-3.5s-2.6-3.2-4.1-4.5s-3.4-2.3-4.8-3.7
	s-2.2-3.4-3.5-5s-2.8-2.9-4-4.5s-2.7-3.1-3.7-4.8s-1.7-3.7-2.6-5.5s-1.5-3.7-2.3-5.5s-2.2-3.4-2.9-5.3s-1-3.9-1.5-5.8
	s-0.8-3.9-1.3-5.9s-1.4-3.9-1.7-5.9s0.1-4,0-6.1s-0.7-4-0.7-6s-0.2-4.1,0-6.1s0.3-4,0.6-6s1.3-3.9,1.7-5.8s0.9-3.9,1.5-5.8
	s0.5-4.1,1.2-6s1.9-3.6,2.7-5.4s2.1-3.4,3-5.2s1.3-3.9,2.3-5.6s2.6-3.1,3.8-4.8s2.3-3.3,3.6-4.9s3.1-2.6,4.5-4.1s2.7-2.9,4.2-4.3
	s2.6-3.1,4.2-4.4s3.3-2.3,4.9-3.5s3.1-2.6,4.8-3.7s3.6-1.9,5.4-2.8s3.8-1.4,5.6-2.3s3.4-2.2,5.3-2.9s4-0.6,6-1.2s3.7-1.6,5.7-2.1
	s3.9-0.8,5.9-1.1s4-0.5,6-0.7s4-0.4,6-0.5s4-0.4,6-0.4s4,0.5,6,0.6s4,0,6,0.2s4,0.4,6,0.8s3.9,1.1,5.8,1.6s4,0.5,6,1.1
	s3.8,1.2,5.7,2s3.5,2,5.3,2.8s3.6,1.8,5.3,2.7s3.7,1.7,5.4,2.8s3.2,2.5,4.8,3.6s3.7,1.8,5.3,3s2.6,3.1,4.1,4.5s3,2.7,4.3,4.2
	s3.2,2.6,4.5,4.1s2.1,3.4,3.3,5.1s2.5,3.2,3.6,4.8s2.3,3.3,3.3,5.1s1.7,3.7,2.5,5.5s1.5,3.7,2.2,5.6s1.5,3.7,2.1,5.7
	s0.8,3.9,1.2,5.9s0.7,3.9,1,5.9s0.2,4,0.3,6S713.7,138.9,713.7,141z"/>
<path class="st1" d="M713.7,141c0,2,0.1,4.1,0,6.1s-1,4-1.3,5.9s-0.5,4-0.9,6s-0.9,3.9-1.5,5.8s-1.3,3.8-2,5.7s-1.2,3.9-2,5.7
	s-1.8,3.6-2.7,5.4s-1.8,3.6-2.9,5.3s-2.6,3.1-3.8,4.7s-1.8,3.7-3.1,5.2s-2.9,2.8-4.3,4.2s-2.8,2.8-4.3,4.2s-3.1,2.6-4.6,3.8
	s-2.9,2.8-4.6,4s-3.3,2.3-5,3.4s-3.5,2.1-5.2,3.1s-3.6,1.9-5.4,2.7s-3.9,1.2-5.8,1.9s-3.9,1-5.8,1.6s-3.7,1.7-5.6,2.2s-4,0.3-6,0.6
	s-3.9,0.8-5.9,1s-3.9,0.9-6,1s-4,0.2-6,0.2s-4-0.6-6-0.7s-4.1,0.3-6,0s-4-0.7-5.9-1.1s-4-0.5-6-1s-3.9-1-5.8-1.6s-3.6-1.9-5.5-2.6
	s-3.8-1.4-5.6-2.2s-3.7-1.6-5.5-2.5s-3.6-1.8-5.3-2.9s-3.5-2-5.2-3.1s-3.4-2.3-4.9-3.5s-2.6-3.2-4.1-4.5s-3.4-2.3-4.8-3.7
	s-2.2-3.4-3.5-5s-2.8-2.9-4-4.5s-2.7-3.1-3.7-4.8s-1.7-3.7-2.6-5.5s-1.5-3.7-2.3-5.5s-2.2-3.4-2.9-5.3s-1-3.9-1.5-5.8
	s-0.8-3.9-1.3-5.9s-1.4-3.9-1.7-5.9s0.1-4,0-6.1s-0.7-4-0.7-6s-0.2-4.1,0-6.1s0.3-4,0.6-6s1.3-3.9,1.7-5.8s0.9-3.9,1.5-5.8
	s0.5-4.1,1.2-6s1.9-3.6,2.7-5.4s2.1-3.4,3-5.2s1.3-3.9,2.3-5.6s2.6-3.1,3.8-4.8s2.3-3.3,3.6-4.9s3.1-2.6,4.5-4.1s2.7-2.9,4.2-4.3
	s2.6-3.1,4.2-4.4s3.3-2.3,4.9-3.5s3.1-2.6,4.8-3.7s3.6-1.9,5.4-2.8s3.8-1.4,5.6-2.3s3.4-2.2,5.3-2.9s4-0.6,6-1.2s3.7-1.6,5.7-2.1
	s3.9-0.8,5.9-1.1s4-0.5,6-0.7s4-0.4,6-0.5s4-0.4,6-0.4s4,0.5,6,0.6s4,0,6,0.2s4,0.4,6,0.8s3.9,1.1,5.8,1.6s4,0.5,6,1.1
	s3.8,1.2,5.7,2s3.5,2,5.3,2.8s3.6,1.8,5.3,2.7s3.7,1.7,5.4,2.8s3.2,2.5,4.8,3.6s3.7,1.8,5.3,3s2.6,3.1,4.1,4.5s3,2.7,4.3,4.2
	s3.2,2.6,4.5,4.1s2.1,3.4,3.3,5.1s2.5,3.2,3.6,4.8s2.3,3.3,3.3,5.1s1.7,3.7,2.5,5.5s1.5,3.7,2.2,5.6s1.5,3.7,2.1,5.7
	s0.8,3.9,1.2,5.9s0.7,3.9,1,5.9s0.2,4,0.3,6S713.7,138.9,713.7,141z"/>
<path class="st1" d="M522.8,219.5c0,3,0,3,0,6s0.6,3,0.6,5.9s-0.6,3-0.6,6s0.6,3,0.6,6s-0.7,3-0.7,6s0.3,3,0.3,6c0,3-0.4,3-0.4,6
	s0,3,0,6s0,3,0,6s0.8,3,0.8,6s-0.2,3-0.2,6s0,3,0,6s-0.7,3-0.7,6s0.8,3,0.8,6s-0.4,3-0.4,6s-0.3,3-0.3,6s0.3,3,0.7,5.9
	s0.3-2.6,1.6-5.7c0.8-1.9,1.9-3.6,3.3-5.1c1.4-1.6,2.8-2.8,4.9-3.1c2-0.2,4.1,0.2,5.8,1.3c1.8,0.9,3.6,2.1,5.1,3.5
	c1.5,1.4,2.9,2.9,4.3,4.5c1.2,1.5,2.3,3.2,3.6,5c1.1,1.6,1.5,3.7,2.7,5.6c1,1.6,2,3.4,3.1,5.3s2.5,3.4,3.5,4.9
	c1.2,1.9,2.2,3.7,3.3,5c1.3,1.6,2.8,2.9,4.5,4c2.2,1.5,4.1,1.7,5.7,0.6c1.6-1.3,2.8-3,3.5-5c0.7-1.9,1.3-3.8,1.8-5.8
	c0.4-1.8,0.8-3.9,1-6c0.3-1.9,0.3-3.9,0.5-6s0.4-4,0.6-6s-0.5-4-0.4-6s-0.1-4,0-6s1-4,1-6s-0.8-4.1-0.8-6s0.5-4.1,0.5-6
	c0-2.1-0.6-4.2-0.6-6c0-2.3,0.4-4.4,0.4-6"/>
<path class="st1" d="M713.6,220c0,2.9-0.2,2.9-0.2,5.9s0.1,2.9,0.1,5.9s-0.1,2.9-0.1,5.9s-0.7,2.9-0.7,5.9s0.8,2.9,0.8,5.9
	s-0.1,2.9-0.1,5.9s-0.2,2.9-0.2,5.9s-0.1,2.9-0.1,5.9s-0.4,2.9-0.4,5.9s0,2.9,0,5.9s-0.2,2.9-0.2,5.9s0.8,2.9,0.8,5.9
	s-0.5,2.9-0.5,5.9s0.2,2.9,0.2,5.9s0.3,2.2,0.3,5.8c0,1.7-0.4,3.6-0.4,5.8c0,1.8,0.2,3.8,0.1,5.8c0,1.9-0.3,3.8-0.3,5.8
	s-0.2,3.9-0.3,5.8s0,3.9-0.1,5.8s-0.7,3.9-0.8,5.8c-0.1,2,0.5,4.1,0.3,5.9c-0.2,2.2-0.8,4.1-1.1,5.7c-0.6,3.1-1.5,4.8-2.5,4.8
	c-2.2,0.2-4.5,0.3-6.7,0.2c-2-0.2-4.1-1.1-6.5-1.7c-2-0.5-4.3-0.7-6.5-1.8c-1.9-1.2-3.7-2.5-5.4-4c-1.5-1.3-2.8-2.9-3.6-4.6
	c-1-1.7-1.8-3.6-2.4-5.5c-0.5-1.8-0.4-3.8-0.8-5.9c-0.4-1.8-0.6-3.8-0.9-5.9c-0.3-1.9-1.2-3.8-1.4-5.8c-0.2-1.9-0.3-3.9-0.4-5.9
	s-0.3-3.9-0.3-6s0.2-3.9,0.2-6"/>
<path class="st1" d="M553.2,238.5c0,3.1-0.5,3.1-0.5,6.3s0.3,3.1,0.3,6.3s-0.1,3.1-0.1,6.3s-0.1,3.1-0.1,6.3s0.7,3.1,0.7,6.3
	s-0.4,3.1-0.4,6.3s-0.2,3.1-0.2,6.3s-0.1,3.1-0.1,6.3"/>
<path class="st1" d="M650.8,248.5c0,3,0.5,3,0.5,6s0.2,3,0.2,6s-0.3,3-0.3,6s-0.5,3-0.5,6s0.3,3,0.3,6s0.4,3,0.4,6s0,3,0,6s0,3,0,6"
	/>
<path class="st1" d="M549.7,319.5c0,3,0,3,0,6s-0.1,3-0.1,6s0.6,3,0.6,6s0,3,0,6s-0.3,3-0.3,6s0.1,3,0.1,6s0.3,3,0.3,6s-0.3,3-0.3,6
	s-0.3,3-0.3,6s0,3,0,6s-0.2,3.1,0.8,5.9s2,0.8,5.8,1.3c1.8,0.2,3.8,0.7,6.2,0.9c1.9,0.1,4-0.5,6.2-0.5c2,0,4,0.1,6.2-0.1
	s3.9-1.1,6-1.5c2-0.3,4-0.7,6-1.3c2-0.5,4-1.1,5.9-1.8c1.8-1,3.6-2.1,5.3-3.3c3.5-2.2,6.7-4.8,9.7-7.8c1.2-1.6,2.4-3.3,3.4-5.1
	c1.3-1.6,2.5-3.3,3.5-5c0.9-1.8,1.3-3.9,2.1-5.8s1.8-3.6,2.4-5.6s1.2-3.9,1.7-5.9s0.6-4,1-6s1-3.9,1.4-5.9s0.4-4.1,0.7-6.1
	s0.8-4,1.1-6s0.7-4.1,0.9-6c0.2-2.1,0.2-4.2,0.3-6.1c0.1-2.2,0.7-4.2,0.8-6.1c0.1-2.3-0.7-4.4-0.7-6.1c0-3.8,0.4-3,0.2-6.1"/>
<path class="st1" d="M677.3,340.4c-0.8,2.8-0.7,2.1-2.5,5.2c-1,1.7-2.1,3.2-3.3,4.7c-1.1,1.4-2,3.2-3.5,4.7c-1.5,1.3-3,2.5-4.6,3.6
	c-1.6,1.1-3.2,2.2-4.9,3.2c-1.6,0.9-3.4,1.7-5.3,2.5c-1.7,0.8-3.6,1.1-5.6,1.7c-1.8,0.6-3.5,1.5-5.5,2c-1.8,0.5-3.7,1.1-5.7,1.4
	c-1.8,0.3-3.8,0.5-5.8,0.7s-3.8,0.1-5.8,0.2s-3.8,0.7-5.8,0.7s-3.8-0.3-5.8-0.3s-3.8,0.1-5.8,0"/>
<path class="st1" d="M607.2,248.5c0,3.2-0.3,3.2-0.3,6.3c0,3.2,0.2,3.2,0.2,6.3s0.2,3.2,0.2,6.3"/>
<path class="st1" d="M693.6,238.5c0,3.1,0.5,3.1,0.5,6.2s0.5,3.1,0.5,6.2s-0.8,3.1-0.8,6.2s0,3.1,0,6.2s0.2,3.1,0.2,6.2
	s-0.3,3.1-0.3,6.2s0.6,3.1,0.6,6.2s-0.1,3.1-0.1,6.2s-0.2,3.1-0.2,6.2s0.4,3.1,0.4,6.2s-0.8,3.1-0.8,6.2"/>
<path class="st1" d="M600.8,377.5c0-2.8-0.1-2.8-0.1-5.6s0.4-2.8,0.4-5.6s-0.7-2.8-0.7-5.6s0.4-2.8,0.4-5.6s0-2.8,0-5.6
	s0.6-2.8,0.6-5.6s-0.5-2.8-0.5-5.6"/>
<path class="st1" d="M642.8,368.5c0-3,0.2-3,0.2-6s-0.2-3-0.2-6s0.1-3,0.1-6s-0.3-3-0.3-6"/>
<path class="st1" d="M566.5,386.5c0-3,0.5-3,0.5-6s-0.2-3-0.2-6s-0.2-3-0.2-6"/>
<path class="st1" d="M695.6,354.5c0-2.8,0.4-2.8,0.4-5.5s0-2.8,0-5.5"/>
<path class="st1" d="M526.9,126.8c2-2.3,1.6-1.5,4.3-4.2c1.2-1.2,2.6-2.6,4.3-4.2c1.4-1.2,2.8-2.6,4.5-4c1.5-1.2,3.5-1.9,5.2-3.2
	c1.5-1.2,2.7-3,4.4-4.2s3.2-2.4,4.9-3.5s3.6-1.8,5.3-2.8s3.7-1.6,5.5-2.6s3.3-2.3,5.1-3.2s3.6-1.6,5.5-2.5s3.5-2.1,5.3-2.8
	s3.9-1,5.8-1.7s3.7-1.4,5.7-2s3.8-1.2,5.8-1.7s3.9-0.7,5.9-1.1s3.9-0.6,5.9-0.9s3.9-0.8,5.9-1s4,0.3,6,0.2s4-1,6-1s4,0.3,6,0.4
	s4,0,6,0.2s3.9,0.7,6,1s3.9,0.7,5.9,1.1s3.9,0.7,5.9,1.2s3.9,0.7,5.9,1.2s3.6,1.7,5.6,2.3s3.8,1.1,5.7,1.8s4,0.7,5.9,1.4
	s3.6,1.8,5.4,2.6s3.6,1.6,5.5,2.5s3.5,1.9,5.3,2.9"/>
<path d="M543.5,109.4c-2.3,1.8-1.5,2.6-3.5,4.8s-2.3,1.8-4.3,3.9s-2.1,2-4.1,4.2s-1.6,2.5-3.6,4.6s-3.2,1.3-4,4.1
	c-0.8,3-0.2,3,0.3,6.1s0.6,3,1.1,6.1s0.7,3,1.2,6.1s0.5,3,1.1,6.1s0.6,3,1.2,6.1s0.5,3.1,1,6.1s0.6,3,1.2,6.1s0.2,3.1,1.5,5.9
	c0.7,1.9,1.9,3.7,3.3,5.2c2,2.4,2.6,1.9,4.6,4.2s1.6,2.7,3.7,5.1l4.1,4.7c2,2.4,2.3,2.1,4.4,4.4s2.1,2.3,4.1,4.7s1.2,3.3,3.7,5.2
	c2.7,2,3.3,0.9,6.4,2.3s3,1.5,6,2.9s3,1.4,6.1,2.8c2.7,1.3,2.5,1.6,5.2,2.9s2.8,0.9,5.5,2.1s2.8,1,5.5,2.3s2.3,2.5,5.2,3
	s3,0.1,6-0.1s3-0.4,6-0.6s3-0.9,5.9-1.1s3-0.1,6-0.3s3,0,6-0.3s3-0.2,6-0.4s3-0.3,6-0.5s3,0.1,5.9-0.9s2.6-1.3,5.2-2.8
	s2.3-1.9,4.8-3.5s2.7-1.2,5.3-2.8s2.6-1.4,5.2-2.9s2.6-1.5,5.1-3.1s2.5-1.6,5.1-3.1s2.4-1.8,4.9-3.3s3.1-0.8,5.2-2.9s1.9-2.4,3.5-5
	s1.3-2.8,2.8-5.4s1-2.9,2.5-5.6s2.2-2.2,3.7-4.9l3.1-5.2c1.5-2.6,1.3-2.8,2.8-5.4s1.4-2.7,3-5.3s2.7-2.2,3.3-5.1s0-3.2-0.3-6.3
	s-1-3.1-1.3-6.2s-0.1-3.1-0.4-6.3s-0.4-3.1-0.7-6.3s-0.3-3.1-0.6-6.3s0.2-3.2-0.1-6.3s-0.4-3.1-0.7-6.3s0.5-3.4-0.9-6.3
	c-1.3-2.7-2.5-1.7-4.7-3.7s-1.8-2.5-4-4.5s-2.1-2.2-4.3-4.1c-1.4-1.4-3-2.7-4.7-3.7c-2.4-1.5-2.8-0.7-5.5-1.7s-2.5-1.6-5.1-2.6
	s-2.8-0.6-5.5-1.5s-2.7-1-5.4-2s-2.9-0.5-5.6-1.4s-2.5-1.5-5.3-1.9c-1.9-0.4-3.9-0.5-5.8-0.4c-2.9,0.1-2.9-0.1-5.9,0
	s-2.9,0.8-5.8,0.9s-2.9-0.1-5.9,0s-3-0.2-5.9-0.1s-2.9,0.5-5.9,0.6s-3-0.4-5.9-0.3s-2.9,0.2-5.9,0.2s-2.9-0.1-5.9,0
	s-2.9,0.8-5.8,0.9s-2.9,0-5.9,0s-3.1-1.1-6-0.3c-3.1,0.9-2.7,1.8-5.5,3.3s-2.8,1.6-5.6,3.1s-2.8,1.5-5.6,3s-2.8,1.6-5.5,3.1
	s-3,1.2-5.8,2.7s-2.5,2.1-5.3,3.7s-2.7,1.9-5.6,3.2S546,107.5,543.5,109.4z"/>
<path d="M577.1,220.4c2.9,0.4,2.1,0,5.9,0.3c1.7,0.1,3.6,0.6,5.9,0.8c1.8,0.1,3.8-0.3,5.9-0.2c1.8,0.1,3.8-0.1,5.9-0.1
	c1.9,0,3.8,0.4,5.9,0.4c1.9,0,3.9,0.4,5.9,0.4s3.9-0.1,5.9-0.3s3.9-0.3,5.9-0.4s3.9-0.4,5.9-0.6s3.8-0.7,5.8-1s3.9-0.6,5.8-0.9
	s3.8-0.9,5.8-1.2s3.9-0.4,5.8-0.8s3.9-0.4,5.9-0.8s3.8-1.1,5.7-1.5"/>
<path d="M46.5,623.9c-3.3,2.4-4.5,2.7-7.9,0.3c-2.4-1.7,0-2.8,0-5.7s-0.3-2.9-0.3-5.8s0-2.9,0-5.8s0.1-2.9,0.1-5.8s0.6-2.9,0.6-5.8
	s-0.8-2.9-0.8-5.8s0.9-2.9,0.9-5.8s-0.4-2.9-0.4-5.8s0.4-2.9-0.2-5.8c-1,1.2-2.2,2.3-3.4,3.3c-1.2,0.9-3,1.1-4.5,1.9
	s-2.8,1.8-4.1,2.5c-1.4,0.8-2.8,1.5-4.2,2.1c-0.7-3.9-1.1-4.1-0.2-7.9c2.2-1.1,4.3-2.3,6.3-3.6c2.1-1.2,4.1-2.5,6-4
	c1.6-1.4,2.4-3.3,3.5-4.6c1.3-1.5,2.5-3.2,3.5-4.9c2.5-0.7,3.8-1.6,5.5,0.4c2,2.3-0.2,3.1-0.2,6.2s0.2,3,0.2,6.1s-0.3,3-0.3,6.1
	s0.6,3,0.6,6.1s-0.7,3-0.7,6.1s0.5,3,0.5,6.1s0,3,0,6.1s0.2,3,0.2,6.1s-0.5,3-0.5,6.1s-0.8,3.2-0.2,6.1S48.9,622,46.5,623.9z"/>
<path d="M780.8,616.1c2.5,3,2,5-0.4,8.1c-2,2.5-3.1-0.2-6.2-0.2s-3.2,0-6.3,0s-3.2,0.5-6.3,0.5s-3.2,0.1-6.3,0.1s-3.2-0.5-6.3-0.5
	s-3.2-0.1-6.3-0.1s-3.3,1.3-6.3,0.4c0.1-1.9,0.5-3.9,1.3-5.6c0.6-1.6,0.7-3.5,1.7-5c0.9-1.5,2-2.9,3.1-4.3c1.6-1.9,3.4-3.6,5.2-5.3
	c1.6-1.5,3.7-2.9,5.8-4.6c1.9-1.5,3.6-3.1,5.1-4.5c1.9-1.7,3.8-3,5.2-4.4c1.7-1.6,3.2-3.2,4.7-5c1.2-1.6,1.3-3.5,2-5
	c0.8-1.8,2-3.4,2-5.1s-0.9-3.1-1.4-4.4c-0.5-1.5-1.3-2.8-2.3-4c-1.2-1.1-2.7-2-4.3-2.5c-1.6-0.4-3.3-0.6-4.9-0.5
	c-1.7-0.1-3.5,0.1-5.2,0.6c-1.7,0.5-3.3,1.4-4.6,2.6c-1.3,1.3-1.6,3.2-2.2,4.9c-0.7,1.5-1,3.2-1.1,4.8c-4.2,0.5-4.5,1.2-8.5-0.1
	c0.3-1.9,0.8-3.7,1.5-5.5c0.4-1.7,1-3.4,1.9-5c0.9-1.5,2.1-2.9,3.4-4.1c1.3-1.3,2.7-2.4,4.3-3.3c1.7-0.6,3.5-1.1,5.3-1.3
	c1.8-0.3,3.6-0.5,5.4-0.5c1.8-0.1,3.7-0.1,5.5,0.1c1.9,0.4,3.4,1.7,4.9,2.5s3.7,1.1,5,2.4c1.8,1.8,3.2,3.9,4.2,6.2
	c0.9,2.2,0.9,4.7,0.9,7.3c0,2.7-0.5,5.3-1.6,7.8c-0.6,1.5-1.3,3-2.2,4.4c-0.9,1.3-2,2.6-3.1,3.8c-1,1.2-2.7,2.2-4.3,3.8
	c-1.3,1.2-2.5,2.7-4.1,4c-1.3,1.2-2.8,2.4-4.4,3.7c-1.9,1.6-3.3,3.2-4.6,4.3c-2.2,1.9-4,3.1-4.9,4c-1.2,1.5-2.3,3.1-3.2,4.8
	c3.2,0.8,3.3-0.3,6.6-0.3s3.3-0.2,6.5-0.2s3.3,0.5,6.5,0.5s3.4,0.9,6.6,0.1C777.5,615.6,778.7,613.6,780.8,616.1z"/>
</svg>
