<svg xmlns="http://www.w3.org/2000/svg" xmlns:xlink="http://www.w3.org/1999/xlink" viewBox="0 0 800 800"><defs><style>.a,.c,.d,.f{fill:none;}.b{fill:#fff;}.c,.d{stroke:#000;}.c{stroke-linejoin:round;stroke-width:9px;}.d,.f{stroke-miterlimit:10;stroke-width:10px;}.e{clip-path:url(#a);}.f{stroke:#fff;}</style><clipPath id="a"><polygon class="a" points="663.82 237.46 657.52 237.18 651.13 237.85 644.73 237.99 638.34 237.78 631.94 237.86 625.55 237.11 619.15 237.21 612.76 237.13 606.36 237.05 599.97 237.19 593.57 237.1 587.18 237.22 580.78 237.64 574.39 237.33 567.99 237.77 561.59 237.3 555.2 237.54 548.8 237.32 542.4 237.19 536 237.31 529.25 237.88 529.91 230.97 529.67 224.38 529.88 217.8 529.21 211.22 529.52 204.63 530.08 198.05 529.91 191.46 529.5 184.88 529.38 178.29 529.99 171.71 530.03 165.12 530.03 158.54 529.83 151.95 529.32 145.36 529.69 138.78 530.08 132.19 530 125.61 530 119.02 529.42 112.44 529.55 105.85 529.53 99.26 529.23 92.67 529.93 86.08 530.03 79.49 529.93 73.22 535.98 73.32 542.38 72.62 548.77 73.28 555.16 72.48 561.56 72.61 567.95 73.24 574.35 72.65 580.75 73.39 587.14 72.79 593.54 73.24 599.93 73.3 606.33 73 612.72 73.04 619.12 73.1 625.51 72.52 631.91 72.65 638.31 73.21 644.7 73.36 651.1 73.13 657.51 73.19 664.01 72.79 664.05 79.47 663.64 86.05 664.16 92.64 663.44 99.22 663.92 105.81 663.75 112.39 663.68 118.97 663.95 125.56 663.87 132.14 663.84 138.73 663.45 145.31 663.84 151.9 663.61 158.49 663.53 165.07 663.47 171.66 664.31 178.24 663.72 184.83 663.79 191.41 664.31 198 664.13 204.59 664.32 211.18 663.72 217.76 663.8 224.35 663.79 230.95 663.82 237.46"/></clipPath></defs><title>horse1</title><rect class="b" width="800" height="800"/><polyline class="c" points="311.56 453.97 308.97 460.1 305.67 465.86 302.24 471.55 299.54 477.65 295.74 483.12 292.07 488.64 288.67 494.35 284.55 499.56 280.94 505.15 276.57 510.15 272.6 515.47 268.54 520.77 263.61 525.25 258.24 529.19 253.36 533.7 247.97 537.65 241.81 540.25 235.65 542.25 229.9 545.24 223.9 547.62 217.82 549.8 211.84 552.23 205.69 554.25 199.81 556.94 194.17 560.09 188.6 563.29 183.72 567.46 178.98 571.78 174.74 576.68 170.39 581.49 165.79 586.08 162.09 591.42 158.04 596.48 153.96 601.54 150.73 607.18 147.09 612.94 143.7 618.85 140.88 625.06 138.54 631.46 136.57 637.99 135.56 644.75 135.85 651.56 136.39 658.38 138.78 664.8 141.54 671.06"/><polyline class="c" points="303.42 469.97 309.12 473.13 314.91 476.12 321 478.49 326.96 481.11 333.16 483.13 339.38 485.07 345.51 487.43 351.97 488.53 358.45 489.36 364.87 490.66 371.4 491.01 377.92 491.36 384.46 491.43 390.95 490.54 397.51 490.65 403.92 489.33 410.32 488.12 416.71 486.84 423.1 485.48 429.41 483.71 435.3 480.82 441.54 478.8 447.18 475.45 453.32 473.1 458.89 469.66 464.41 466.17 469.68 462.31 475.12 458.69 480.43 454.86 485.27 450.46 489.93 445.88 494.9 441.63"/><polyline class="c" points="529.2 413.25 535.22 412.11 541.15 410.62 546.96 408.65 552.82 406.91 558.73 405.34 564.82 404.42 570.7 401.72 576.48 398.94 582.12 395.85 587.72 392.65 592.92 388.86 598.67 386.07 604.65 384.07 610.32 386.52 616.43 390.07 622.39 393.88 624.06 400.75 622.73 407.66 621.35 414.55 619.21 421.25 617.9 427.75 616.65 434.24 615.22 440.69 614.6 447.27 614.09 453.85 613.45 460.44 613.88 467.06 613.28 473.68 611.47 480.1 607 485.02 602.87 490.25 598.53 495.23 595.6 501.17 593.24 507.34 590.77 513.84 585.13 509.3 580.84 503.8 576.65 498.22 576.7 491.54 581.89 488.55 586.69 484.73 589.56 479.22 588.49 473.19 589.79 466.47 593.25 460.45 596.28 454.17 599.86 448.18 602.37 441.67 604.76 435.06 605.3 428.05 606.16 421.08 605.02 414.13 600.29 409.68 594.37 412.23 589.63 417.25 584.7 421.91 580.09 426.83 575.2 431.51 569.45 435.1 564.08 439.22 558.42 442.91 552.56 446.28 546.46 449.21 540.07 451.45 533.87 454.07 527.67 456.85 520.92 457.37 514.72 455.36 509.09 451.96 503.93 447.87 498.76 443.78 494.14 439.07 489.41 434.49 484.96 429.66"/><polyline class="c" points="585.85 160.35 579.45 158.68 572.87 157.99 566.29 157.04 559.66 157.37 553.03 157.3 546.47 158.16 539.8 158.46 533.53 160.82 527.18 162.6 520.79 164.38 514.84 167.29 509.14 170.66 503.2 173.66 497.8 177.54 493.33 182.5 488.4 186.91 484.2 192.02 479.59 196.84 476.51 202.76 472.88 208.3 469.92 214.22 467.15 220.23 464.16 226.17 462.3 232.54 459.56 238.59 458.08 245.09 455.61 251.23 453.05 257.34 450.91 263.61 447.74 269.45 445.52 275.69 443.05 281.83 440.11 287.76 436.91 293.55 433.56 299.25 429.97 304.79 426.4 310.35 422.68 315.84 417.91 320.46 412.87 324.74 407.03 327.81 401.09 330.57 394.79 332.39 388.39 334.07 381.8 334.63 375.2 335.14 368.49 335.35 361.77 335.39 355.06 335.6 348.35 335.77 341.64 335.64 334.92 335.46 328.2 335.37 321.49 335.56 314.8 336.26 308.05 335.63 301.34 336.05 294.67 336.89 288 337.67 281.27 337.94 274.58 338.63 268.05 340.37 261.41 341.38 254.76 342.41 248.54 344.27 242.45 346.56 236.96 350.09 231.04 352.74 225.6 356.26 220.56 360.32 215.72 364.59 211.19 369.19 207.02 374.2 204.49 380.2 203.02 386.47 201.48 392.79 202.35 399.23 202.66 405.66 203.35 412.04 204.38 418.38 204.67 424.8 204.94 431.21 205.54 437.6 205.64 444.02 205.85 450.43 205.66 456.85 205.38 463.25 205.16 469.66 204.35 476.02 204.04 482.43 203.01 488.76 201.69 495.02 200.34 501.56 197.77 507.73 194.83 513.71 192.35 519.9 188.68 525.47 185.27 531.18 180.89 536.18 176.96 541.59 172.04 546.11 166.28 549.49 160.43 552.67 154.7 555.46 150.13 559.9 147.43 565.67 145.72 571.84 144.93 578.2 144.41 584.58 143.89 590.98 142.55 597.28 139.93 603.17 136.13 608.92 132.88 615.03 128.35 620.24 123.95 625.53 119.82 631.09 115.24 636.1 117.89 641.82 119.82 647.87 120.44 654.17 121.75 660.43 120.81 666.78 118.07 672.12 124.95 672.69 131.97 672.09 138.98 672.66 145.92 672.59 146.35 679.16 146.87 685.82 147.65 692.45 148.85 699.08 141.53 698.93 134.37 697.99 127.52 695.73 120.61 693.75 115.06 689.15 113.27 683.65 115.26 678.45 119.37 674.58"/><polyline class="c" points="575.71 384.26 581.84 382.74 587.86 380.85 593.87 378.93 599.99 377.31 605.87 374.99 611.6 372.32 617.55 370.15 623.21 367.62 628.95 365.27 634.67 362.84 640.77 361.75 646.96 361.66 651.87 365.16 654.48 370.7 654.24 376.92 653.64 383.09 652.59 389.21 651.08 395.23 649.16 401.13 647.13 407 645.7 413.04 644.57 419.13 643.8 425.24 643.03 431.43 643.54 437.66 642.75 443.88 641.62 450.08 638.57 455.61 635.64 461.11 632.46 466.5 629.05 472.24 627.63 478.79 627.58 485.68 622.86 481.07 617.86 476.92 613.29 472.3"/><polyline class="c" points="603.41 489.07 606.84 494.13 610.72 498.84 614.79 503.39 618.9 507.74 621.65 502.65 624.41 497.19 626.67 491.5 627.91 485.47"/><polyline class="c" points="576.48 491.07 570.62 492.89 566.25 496.92 564.36 502.65 565.67 508.63 567.46 515.66 569.93 522.48 572.88 529.1 576.45 535.33 579.66 529.67 583.39 524.32 587.23 519.02 590.59 513.41"/><polyline class="c" points="339.61 485.44 338.39 491.81 336.33 498 333.49 503.89 330.01 509.43 326.57 515.06 322 519.82 317.32 524.43 311.89 528.17 306.93 532.48 301.68 536.46 295.94 539.67 290.31 543.06 284.2 545.55 278.7 549.2 272.65 551.76 266.75 554.64 260.94 557.69 255.03 560.55 249.6 564.31 243.82 567.41 238.52 571.27 232.84 574.64 228.11 579.23 224.34 584.62 220.07 589.62 216.88 595.4 215.5 601.87 212.78 607.89 211.09 614.21 209.35 620.52 208.34 627.02 207.37 633.48 206.44 639.93 205.1 646.4 205.42 653 207.15 659.07 201.86 662.27 195.57 663.59 189.29 662.35 183.8 659.25 188.14 653.92 189.51 647.09 189.76 640.17 188.74 632.97 194.14 629.92 198.11 625.11 200.49 619.34 202.16 613.34 203.34 607.24 204.16 601.09 204.96 594.95 205.3 588.75 206.04 582.59 206.76 576.4 207.18 570.18 208.18 564.01 210.11 558.07 211.65 552.01"/><polygon class="b" points="305.51 324.45 311.06 327.76 316.97 331.27 323.75 332.44 330.48 333.66 337.33 333.33 344.12 332.48 350.82 331.01 357.04 329.28 363.18 327.31 369.33 325.36 375.25 322.76 381.42 320.8 387.23 317.94 392.24 313.85 395.05 308.17 400 314.27 403.81 320.91 401.7 326.52 398.68 331.87 395.57 337.2 394.72 343.3 395.06 349.4 395.61 355.69 395.4 361.98 394.65 368.22 392.79 374.26 389.5 379.74 384.68 383.94 378.99 386.73 373.12 389.06 366.92 390.43 360.58 390.49 354.26 390.96 347.95 390.42 341.69 389.53 334.92 388.93 328.72 386.11 322.21 384.14 316.88 379.94 312.06 375.28 308.37 369.71 305.22 363.79 303.54 357.29 302.64 350.63 302.39 343.91 302.84 337.19 303.94 330.55 305.51 324.45"/><polygon class="c" points="305.51 324.45 311.06 327.76 316.97 331.27 323.75 332.44 330.48 333.66 337.33 333.33 344.12 332.48 350.82 331.01 357.04 329.28 363.18 327.31 369.33 325.36 375.25 322.76 381.42 320.8 387.23 317.94 392.24 313.85 395.05 308.17 400 314.27 403.81 320.91 401.7 326.52 398.68 331.87 395.57 337.2 394.72 343.3 395.06 349.4 395.61 355.69 395.4 361.98 394.65 368.22 392.79 374.26 389.5 379.74 384.68 383.94 378.99 386.73 373.12 389.06 366.92 390.43 360.58 390.49 354.26 390.96 347.95 390.42 341.69 389.53 334.92 388.93 328.72 386.11 322.21 384.14 316.88 379.94 312.06 375.28 308.37 369.71 305.22 363.79 303.54 357.29 302.64 350.63 302.39 343.91 302.84 337.19 303.94 330.55 305.51 324.45"/><polyline class="c" points="395.85 368.37 397.76 374.8 400.38 380.96 403.35 386.96 405.71 393.24 408.37 399.38 411.66 405.23 415.01 411.02 417.42 417.34 421.02 423 424.75 428.57 428.57 434.07 432.11 439.75 435.88 445.29 440.17 450.43 444.15 455.85 449.26 460.23 453.57 465.42 458.63 469.85"/><polyline class="c" points="370.41 386.48 372.89 392.54 376.63 397.92 379.58 403.78 383.13 409.26 386.9 414.59 391.04 419.66 395.19 424.7 399.13 429.9 403.16 435.03 407.64 439.8 411.63 444.97 415.93 449.89 420.11 454.93 424.64 459.65 429.25 464.29 434.32 468.45 439.26 472.73 443.73 477.53"/><polyline class="c" points="357.78 388.29 358.4 394.76 359.18 401.19 359.4 407.68 360.24 414.11 361.54 420.46 362.96 426.78 364.15 433.15 365.73 439.43 366.45 445.92 368.3 452.14 369.88 458.43 372.05 464.55 373.79 470.8 376.08 476.87 378.39 482.94 380.11 489.22"/><polyline class="c" points="334.62 389.35 334.13 395.63 334.14 402.01 335.25 408.29 336.31 414.56 337.59 420.79 338.51 427.12 340.93 433.05 342.76 439.15 344.49 445.29 346.86 451.2 349.45 457.01 352.12 462.8 354.13 468.89 357.14 474.51 360.48 479.96 362.91 485.89 366.36 491.28"/><path class="c" d="M305.65,364.86"/><polyline class="c" points="572.95 392.02 572.53 385.5 573.05 378.96 572.55 372.44 572.46 365.91 571.99 359.39 572.07 352.85 571.27 346.35 570.77 339.84 570.06 333.34 569.36 326.83 567.85 320.43 566.41 314.43 566.65 308.19 568.2 302.11 568.21 295.84 568.11 289.62 567.28 283.45 566.66 277.2 564.75 271.22 563.02 265 563.03 258.54 563.05 252.06 564.89 245.85 566.75 239.66 569.54 233.83 572.7 228.19 576.82 223.21 580.64 218 585.22 213.41 590.47 209.52 596.88 208.19"/><polyline class="c" points="515.14 167.28 508.6 165.38 501.95 163.65 495.07 163.43 488.23 162.44 481.36 163.01 474.53 163.82 467.7 164.8 461.05 166.64 454.64 169.19 448.29 171.86"/><polyline class="c" points="470.29 208.34 463.73 207.49 457.15 206.87 450.55 206.62 443.91 206.69 437.39 207.91 430.97 209.49 424.74 211.7 419.06 215.05 413.74 218.89"/><polyline class="c" points="452.2 259.51 445.61 258.31 438.91 258.21 432.28 257.74 425.63 258.1 419.01 258.83 412.5 260.35 406.17 262.59 400.67 266.46 395.49 270.64"/><polyline class="d" points="209.73 658.92 211.8 665.51 212.52 672.36 213.45 679.17 215.56 685.91 208.72 686.38 202.24 686.55 195.76 686.24 189.28 685.63 183.1 683.56 179.52 678.84 179.49 672.07 181.62 665.64 183.75 659.28"/><polygon points="118.18 673 146.18 673 148.74 699.04 115.21 689.13 118.18 673"/><polygon points="209.18 686 215.18 676.71 207.48 659.16 179 663.78 179 678.84 197.18 686 209.18 686"/><polygon points="566.18 496.88 565.46 509 572.78 529 581.18 529 587.24 510.1 570.24 492.99 566.18 496.88"/><polygon points="617.47 506.01 625.43 486.84 615.07 479.34 608.68 490.09 617.47 506.01"/><polygon class="b" points="663.67 261.36 657.36 261.64 650.81 261.25 644.25 261.86 637.7 262.03 631.15 261.51 624.59 261.3 618.04 261.72 611.48 262.1 604.93 261.67 598.37 261.11 591.81 262.04 585.26 261.73 578.7 261.31 572.14 261.55 565.59 261.95 559.04 261.96 552.48 261.84 545.92 261.41 539.36 261.9 532.8 261.79 526.25 261.37 519.69 261.48 513.12 261.81 506.79 261.37 507.04 255.1 506.16 248.6 506.64 242.1 506.63 235.59 506.84 229.09 506.4 222.58 506.75 216.08 506.87 209.57 506.8 203.07 506.48 196.56 507.05 190.06 506.31 183.55 506.5 177.04 506.19 170.53 506.06 164.03 507.01 157.52 506.97 151.01 506.22 144.5 506.79 137.99 506.33 131.49 506.2 124.98 506.76 118.47 506.51 111.97 506.18 105.46 506.69 98.95 506.39 92.44 506.63 85.93 506.72 79.41 506.59 72.93 513.11 72.59 519.66 72.45 526.22 73.23 532.77 73.15 539.32 72.91 545.88 72.6 552.43 73.08 558.99 72.49 565.54 72.59 572.1 72.56 578.66 73.33 585.21 72.53 591.77 73.2 598.33 73.36 604.88 73.28 611.43 72.4 617.99 72.95 624.55 72.86 631.11 73.37 637.66 72.66 644.22 72.99 650.78 72.39 657.35 72.4 663.82 72.99 664.21 79.39 664.19 85.89 663.81 92.4 664.04 98.9 664.14 105.41 663.68 111.91 663.7 118.42 664.2 124.92 663.73 131.43 664.34 137.93 663.65 144.44 663.65 150.94 663.64 157.45 663.62 163.96 664.11 170.47 663.48 176.97 663.68 183.48 664.4 189.99 663.63 196.5 663.73 203 664.39 209.51 664.16 216.02 664.2 222.53 663.97 229.04 663.79 235.55 663.49 242.06 664.04 248.57 663.94 255.09 663.67 261.36"/><polygon class="d" points="663.67 261.36 657.36 261.64 650.81 261.25 644.25 261.86 637.7 262.03 631.15 261.51 624.59 261.3 618.04 261.72 611.48 262.1 604.93 261.67 598.37 261.11 591.81 262.04 585.26 261.73 578.7 261.31 572.14 261.55 565.59 261.95 559.04 261.96 552.48 261.84 545.92 261.41 539.36 261.9 532.8 261.79 526.25 261.37 519.69 261.48 513.12 261.81 506.79 261.37 507.04 255.1 506.16 248.6 506.64 242.1 506.63 235.59 506.84 229.09 506.4 222.58 506.75 216.08 506.87 209.57 506.8 203.07 506.48 196.56 507.05 190.06 506.31 183.55 506.5 177.04 506.19 170.53 506.06 164.03 507.01 157.52 506.97 151.01 506.22 144.5 506.79 137.99 506.33 131.49 506.2 124.98 506.76 118.47 506.51 111.97 506.18 105.46 506.69 98.95 506.39 92.44 506.63 85.93 506.72 79.41 506.59 72.93 513.11 72.59 519.66 72.45 526.22 73.23 532.77 73.15 539.32 72.91 545.88 72.6 552.43 73.08 558.99 72.49 565.54 72.59 572.1 72.56 578.66 73.33 585.21 72.53 591.77 73.2 598.33 73.36 604.88 73.28 611.43 72.4 617.99 72.95 624.55 72.86 631.11 73.37 637.66 72.66 644.22 72.99 650.78 72.39 657.35 72.4 663.82 72.99 664.21 79.39 664.19 85.89 663.81 92.4 664.04 98.9 664.14 105.41 663.68 111.91 663.7 118.42 664.2 124.92 663.73 131.43 664.34 137.93 663.65 144.44 663.65 150.94 663.64 157.45 663.62 163.96 664.11 170.47 663.48 176.97 663.68 183.48 664.4 189.99 663.63 196.5 663.73 203 664.39 209.51 664.16 216.02 664.2 222.53 663.97 229.04 663.79 235.55 663.49 242.06 664.04 248.57 663.94 255.09 663.67 261.36"/><polyline class="d" points="663.91 242.19 657.34 242.15 650.76 242.73 644.18 242.01 637.6 242.21 631.02 242.34 624.44 242.31 617.86 242.88 611.28 242.52 604.7 242.13 598.12 242.44 591.54 242.55 584.96 242.01 578.38 242.63 571.8 242.66 565.22 242.46 558.64 242.83 552.06 242.04 545.48 242.18 538.89 242.15 532.3 242.66 526.06 242.09 525.57 235.93 525.64 229.41 525.66 222.89 525.96 216.37 525.37 209.86 526.02 203.34 525.56 196.82 525.97 190.3 526.14 183.78 526.16 177.26 525.65 170.74 526.12 164.22 525.99 157.69 526.01 151.17 525.38 144.65 525.75 138.13 525.9 131.61 525.63 125.09 525.83 118.57 525.59 112.05 525.91 105.52 525.6 99 526.06 92.48 525.67 85.95 526.07 79.42 525.46 72.89"/><path class="d" d="M663.91,72.41"/><polyline class="d" points="506.63 261.68 511.16 256.63 516.38 252.28 521.06 247.38 525.95 242.69"/><path class="d" d="M620.81,255.15"/><path class="d" d="M620.81,73"/><polyline class="d" points="664.12 262.57 669.29 258.89 674.86 255.73 679.95 251.91 685.26 248.17 684.78 241.39 684.97 234.74 685.03 228.08 684.7 221.43 684.93 214.78 685.16 208.12 684.61 201.47 684.59 194.81 685.21 188.16 684.74 181.5 684.62 174.85 684.51 168.19 684.72 161.54 685.16 154.88 685.22 148.23 685.47 141.57 684.7 134.91 685 128.25 684.77 121.59 685.3 114.94 684.7 108.29 685.36 101.63 684.7 94.97 685.24 88.31 685.12 81.65 684.78 75 685.29 68.33 684.96 61.67 684.95 55.05 678.46 54.52 671.92 54.75 665.38 55.27 658.84 55.08 652.29 54.61 645.75 55.02 639.21 54.97 632.66 54.77 626.12 54.91 619.58 54.82 613.03 54.76 606.49 55.28 599.95 55.05 593.41 55.04 586.86 55.37 580.32 55.17 573.77 55.42 567.23 55.1 560.68 54.56 554.13 54.73 547.58 55.08 540.95 54.68 534.89 57.74 529.11 61.24 522.86 63.75 516.73 66.53 510.75 69.62 504.86 72.89"/><polyline class="d" points="664.24 73.26 668.22 68.58 673.01 64.84 677.74 61.01 682.38 57.07 686.43 52.47"/><polygon points="663.65 242.18 657.34 242.85 650.76 242.94 644.18 242.8 637.6 242.07 631.02 242.55 624.44 242.77 617.86 242.44 611.28 242.29 604.7 242.34 598.12 242.01 591.54 242.46 584.96 242.55 578.38 242.44 571.8 242.22 565.22 242.73 558.64 242.86 552.06 242.51 545.48 241.97 538.89 242.41 532.3 242.11 525.85 242.31 525.63 235.93 525.51 229.41 525.45 222.89 525.32 216.37 525.35 209.86 526.19 203.34 525.92 196.82 525.82 190.3 525.32 183.78 525.37 177.26 525.31 170.74 525.79 164.22 525.39 157.69 525.36 151.17 525.57 144.65 525.8 138.13 525.43 131.61 525.71 125.09 525.94 118.57 525.52 112.05 525.61 105.52 525.73 99 525.41 92.48 525.48 85.95 525.48 79.42 525.84 73.02 532.29 73.01 538.87 72.63 545.45 73.17 552.03 73.35 558.61 72.73 565.18 73.31 571.76 73.08 578.35 73.35 584.93 72.98 591.51 73.02 598.09 72.98 604.66 73.35 611.24 73.03 617.82 73.17 624.4 72.48 630.99 73.01 637.57 73.32 644.15 73.17 650.73 72.64 657.32 73.04 664.22 72.58 664.25 79.41 663.57 85.93 663.44 92.44 664.38 98.96 663.82 105.48 663.79 112 663.63 118.52 663.95 125.04 663.9 131.56 664.35 138.08 664.23 144.6 664.12 151.12 664.32 157.64 663.66 164.16 663.92 170.69 663.74 177.21 664.11 183.72 663.42 190.25 664.31 196.77 663.97 203.29 663.72 209.81 663.62 216.34 664.41 222.86 664.35 229.38 663.64 235.91 663.65 242.18"/><g class="e"><polyline class="f" points="551.92 76 552.47 82.58 552.29 89.15 551.64 95.72 552.3 102.3 551.6 108.87 551.72 115.44 552.07 122.02 552.17 128.59 551.55 135.17 551.85 141.74 552.45 148.32 551.69 154.9 551.84 161.47 551.93 168.05 551.58 174.63 551.68 181.21 551.57 187.78 551.91 194.35 551.99 200.93 551.54 207.51 551.81 214.09 551.67 220.67 552.06 227.25 551.97 233.83 551.63 240.41 552.4 247"/><polyline class="f" points="590.5 76 591.27 82.58 590.69 89.15 591.18 95.72 590.69 102.3 590.93 108.87 591.36 115.44 591.05 122.02 591 128.59 590.56 135.17 590.93 141.74 591.45 148.32 590.65 154.9 591.48 161.47 590.68 168.05 590.51 174.63 591.13 181.21 590.88 187.78 590.83 194.35 591.45 200.93 591.03 207.51 591.17 214.09 591.47 220.67 591.5 227.25 591.27 233.83 590.92 240.41 591.47 247"/><polyline class="f" points="632.27 76 632.42 82.58 631.69 89.15 632.13 95.72 631.62 102.3 632.1 108.87 632 115.44 632.3 122.02 631.89 128.59 631.7 135.17 632.5 141.74 632.24 148.32 631.88 154.9 632.07 161.47 631.9 168.05 632.42 174.63 631.69 181.21 631.99 187.78 631.52 194.35 632.08 200.93 632.2 207.51 631.64 214.09 632.12 220.67 632.13 227.25 631.86 233.83 631.5 240.41 632.27 247"/><polyline class="f" points="521 208.93 527.57 209.32 534.14 208.58 540.71 208.62 547.27 208.7 553.85 209.21 560.41 209.22 566.99 209.21 573.56 209.03 580.13 209.24 586.7 209.47 593.27 208.82 599.84 209.07 606.4 209.1 612.98 209.37 619.55 209.1 626.12 208.87 632.69 208.64 639.26 209.32 645.84 208.97 652.42 208.72 659 208.58"/><polyline class="f" points="521 163.54 527.57 163.53 534.14 164.41 540.71 164.11 547.27 163.66 553.85 163.53 560.41 164.31 566.99 164.16 573.56 164.24 580.13 163.67 586.7 163.79 593.27 164.41 599.84 164.48 606.4 164.02 612.98 164.44 619.55 164.26 626.12 163.66 632.69 163.72 639.26 164.5 645.84 164.26 652.42 163.93 659 164.32"/><polyline class="f" points="521 117.19 527.57 117.13 534.14 116.61 540.71 116.79 547.27 116.6 553.85 117.19 560.41 117.12 566.99 117.12 573.56 117.1 580.13 117.17 586.7 116.62 593.27 116.61 599.84 116.98 606.4 116.66 612.98 117.02 619.55 116.67 626.12 116.52 632.69 116.89 639.26 116.64 645.84 116.63 652.42 116.54 659 116.53"/></g><polyline class="c" points="621.63 673.64 617.42 668.77 613.51 663.67 609.07 659.01 604.2 654.78 598.62 651.53 592.97 648.53 587.3 645.51 581.12 643.8 574.94 641.87 568.46 642.18 562.08 642.41 555.59 642.5 549.37 644.26 543.44 646.8 537.41 649.09 531.73 652.16 526.45 655.86 521.33 659.76"/><polyline class="c" points="528.56 657.42 522.72 654.8 516.73 652.51 510.63 650.45 504.26 649.52 497.86 649.04 491.47 649.01 485.02 649 478.86 650.87 472.76 652.75 466.65 654.82 461.51 658.75 456.22 662.36 451.37 666.59 447.18 671.48 443.19 676.54 439.51 681.85 437.09 687.86 433.87 693.46"/><polyline class="c" points="439.62 688.25 433.28 687.06 426.83 687.01 420.42 687.7 414.06 688.59 407.83 690.17 401.73 692.14 396 695 390.53 698.27 384.84 701.4 380.2 705.9 376.6 711.27 372.63 716.34 369.47 721.97 367.39 728.07 365.54 734.22 364.2 740.5 362.73 746.76 362.34 753.19"/><polyline class="c" points="478.29 523.97 474.37 519.3 469.39 515.83 464.02 513.05 458 512.5 451.84 512.66 446.42 515.61 441.14 518.69"/><polyline class="c" points="443.75 518.16 438.24 515.58 432.2 514.35 426 514.73 420.51 517.57 415.79 521.33 411.61 525.8 409.21 531.45"/><polyline class="c" points="411.01 528.9 404.83 528.9 398.88 530.33 393.29 532.65 388.2 536.16 385.26 541.61 383.45 547.41 382.68 553.43"/><polyline class="c" points="382.29 553.4 381.68 559.84 381.32 566.32 379.96 572.68 379.58 579.15 379.4 585.64 377.81 591.99 377.97 598.51 377.1 604.93 376.31 611.36 375.48 617.78 374.62 624.2 374.77 630.72 373.73 637.13 373.5 643.61 372.01 649.97 371.62 656.44 371.01 662.89 370.79 669.38 369.45 675.76 369.12 682.23 368.45 688.68 367.74 695.11 367.48 701.6 366.95 708.05 365.8 714.45 365.16 720.89 364.43 727.34 364.13 733.81 362.97 740.21 362.81 746.72 362.21 753.18"/><polyline class="c" points="411.09 529.25 411.77 535.89 412.6 542.5 413.51 549.1 414.99 555.62 415.99 562.2 417.24 568.75 418.37 575.32 419.01 581.97 419.52 588.63 421.16 595.12 422.15 601.71 423.01 608.32 423.84 614.94 424.94 621.51 425.79 628.12 426.89 634.7 427.64 641.32 428.51 647.93 429.56 654.52 430.88 661.06 431.77 667.67 432.41 674.32 433.88 680.85 435 687.43"/><polyline class="c" points="444.14 517.73 447.43 523.53 450.65 529.37 453.82 535.25 457.51 540.82 460.93 546.54 463.88 552.55 467.66 558.06 470.65 564.04 474.58 569.47 477.41 575.55 481.32 580.99 484.29 586.99 488.26 592.39 491.29 598.35 494.76 604.04 497.79 610 501.38 615.63 505.03 621.23 508.15 627.13 511.64 632.83 515.38 638.37 518.2 644.45 522.26 649.82 524.87 656.04"/><polyline class="c" points="478.26 524.01 482.96 528.47 487.54 533.05 491.62 538.1 496.51 542.38 500.69 547.33 505.11 552.06 509.48 556.84 514.12 561.36 518.61 566.02 523.18 570.61 527.6 575.33 532.18 579.9 536.32 584.9 541.09 589.3 545.75 593.8 550.04 598.66 554.06 603.78 558.85 608.15 563.01 613.14 568.04 617.28 572.53 621.94 576.4 627.2 581.4 631.37 585.85 636.08 589.92 641.15 594.69 645.55 599.32 650.09 603.94 654.63 607.89 659.81 612.6 664.28 616.83 669.21 621.49 673.73"/><polyline class="c" points="370.5 680 374.77 674.64 378.99 669.21 383.9 664.38 389.08 659.85 394.79 656 400.69 652.52 406.78 649.38 413.19 646.96 419.84 645.31 426.62 644.36"/><polyline class="c" points="375.02 629.56 380.25 625.38 385.86 621.64 392.21 619.38 398.75 617.95 405.42 617.29 412.09 618.21 418.05 621.31 423.69 624.85"/><polyline class="c" points="380.56 596.55 383.65 590.74 388.17 585.93 393.64 582.24 399.1 578.64 404.84 575.5 410.92 573.02 417.39 571.79"/><polyline class="c" points="375.11 613.74 379.92 609.21 384.9 604.87 389.84 600.44 395.64 597.18 401.32 593.85 406.89 590.26 413.11 587.97 419.69 587.59"/><polyline class="c" points="414.53 551.12 408.12 549.86 401.8 551.06 396.18 554.19 391.09 558.07 386.29 562.35 382.18 567.31"/><polyline class="c" points="376.61 710.1 379.69 704.49 382.98 699.02 386.73 693.86 389.76 688.21 394.33 683.69 398.26 678.68 402.81 674.23 407.51 669.92 412.78 666.34 418.57 663.74 424.44 661.38 430.64 659.93"/><polyline class="c" points="428.76 651.62 433.37 647.02 438.63 643.13 444.18 639.71 449.57 635.91 455.85 633.92 461.96 631.65 468.21 629.67 474.73 629.05 481.23 628.14 487.76 628.75 494.28 629.28 500.78 630.33 506.97 632.57 513.08 634.99"/><polyline class="c" points="427.53 638.03 429.7 631.61 432.81 625.59 435.66 619.4 439.77 613.97 443.85 608.55 448.8 603.91 453.27 598.73 458.81 594.74 465.2 592.28 471.28 589.34 477.89 587.94 484.59 587.14"/><polyline class="c" points="495.88 606.4 488.99 606.74 482.44 608.9 475.87 610.95 469.71 614.02 463.94 617.74 458.27 621.6 453.22 626.26 448.64 631.44 445.78 637.74"/><polyline class="c" points="422.95 608.61 425.08 602.39 428.43 596.69 430.86 590.6 433.63 584.64 437.3 579.16 440.1 573.2 443.99 567.9 447.52 562.36 451.84 557.41 456.53 552.79 462.23 549.37"/><polyline class="c" points="415.87 561 418.74 555.24 422.03 549.66 425.91 544.45 430.8 540.15 436.12 536.39 442.46 535.01 448.79 535.07 454.76 536.44 456.43 529.54 461.24 524.11 467.74 521.22 474.72 519.93"/><polyline class="c" points="469.88 563.52 469.51 556.96 470.67 550.48 472.87 544.33 476.15 538.81 481 534.62 487.39 533.63"/><polyline class="c" points="535.8 650.54 537.19 644.4 539.18 638.33 542.42 632.8 546.75 628.02 552.07 624.34 558.07 621.96 564.43 621.04 570.83 621.11"/><polyline class="c" points="551.84 599.41 544.97 599.9 538.3 601.65 531.86 604.04 525.24 606.07 519.3 609.61 514.14 614.17 509.88 619.57 508.08 626.16"/><polyline class="c" points="489.49 595.19 495.69 592.78 501.81 590.25 508.31 588.96 514.78 587.64 521.36 586.69 527.98 587.15 534.59 587.72 540.92 589.7"/><polyline class="c" points="475.19 571.27 479.88 566.92 484.59 562.68 490.44 560.21 496.63 559.05 502.9 559.1 509.13 560.13 515.19 562.07"/></svg>