<svg id="Layer_1" data-name="Layer 1" xmlns="http://www.w3.org/2000/svg" viewBox="0 0 800 800"><defs><style>.cls-1{fill:#fff;}.cls-2{fill:none;stroke:#000;stroke-linejoin:bevel;stroke-width:13px;}</style></defs><title>canvas (74)</title><polygon class="cls-1" points="704.41 544.74 697.05 544.62 689.9 543.86 682.77 542.87 675.59 542.62 668.41 542.54 661.25 542.07 654.09 541.46 646.93 540.89 639.76 540.52 632.6 539.94 625.45 539.32 618.28 538.95 611.07 539.21 603.94 538.2 596.76 538.03 589.58 537.72 582.4 537.48 575.27 536.42 568.12 535.81 560.95 535.39 553.74 535.7 546.6 534.84 539.44 534.21 532.25 534.1 525.09 533.68 517.92 533.21 510.74 532.95 503.62 531.7 496.41 532.05 489.27 531.16 482.09 530.86 474.91 530.62 467.75 530.03 460.61 529.19 453.4 529.39 446.23 528.92 439.06 528.47 431.92 527.67 424.73 527.52 417.6 526.43 410.43 526.14 403.24 526.03 396.07 525.54 388.89 525.25 381.77 524.08 374.61 523.56 367.41 523.51 360.23 523.24 353.05 522.96 345.92 521.97 338.72 521.97 331.59 521.08 324.37 521.37 317.26 520.08 310.09 519.61 302.92 519.33 295.74 518.97 288.56 518.84 281.38 518.45 274.21 518.07 267.06 517.26 259.88 517.07 252.72 516.41 245.56 515.75 238.4 515.12 231.21 515.1 224.04 514.59 216.85 514.47 209.69 513.76 202.5 513.64 195.32 513.28 188.16 512.69 180.99 512.24 173.86 511.13 166.66 511.08 159.5 510.42 152.31 510.25 145.12 509.94 138.24 509.06 137.99 502.29 138.18 495.24 138.42 488.19 137.87 481.14 137.53 474.1 138.14 467.05 138.09 459.99 138.09 452.95 138.22 445.9 138.15 438.85 137.78 431.8 137.46 424.75 138.05 417.7 138.04 410.65 137.46 403.59 138.08 396.67 145.13 396.81 152.29 397.34 159.45 397.78 166.61 398.26 173.75 399.1 180.93 399.26 188.12 399.36 195.26 400.15 202.41 401.03 209.57 401.48 216.76 401.5 223.94 401.79 231.09 402.44 238.29 402.37 245.43 403.25 252.58 403.98 259.74 404.56 266.91 404.86 274.11 404.77 281.24 405.7 288.45 405.47 295.6 406.31 302.76 406.76 309.93 407.16 317.07 407.98 324.27 407.9 331.45 408.24 338.6 409.02 345.76 409.47 352.92 410 360.12 409.97 367.27 410.67 374.44 411.05 381.57 412.18 388.74 412.6 395.96 412.26 403.13 412.66 410.28 413.38 417.44 413.93 424.6 414.57 431.8 414.41 438.96 414.96 446.14 415.37 453.28 416.21 460.44 416.8 467.62 417.06 474.76 417.87 481.93 418.43 489.14 418.12 496.28 419.06 503.44 419.56 510.61 419.96 517.82 419.68 524.97 420.46 532.11 421.27 539.32 421.09 546.46 422.1 553.65 422.14 560.78 423.18 567.96 423.47 575.15 423.48 582.31 424.2 589.47 424.85 596.66 424.86 603.82 425.44 610.97 426.32 618.15 426.69 625.3 427.34 632.52 427.05 639.67 427.95 646.84 428.39 654 429.05 661.22 428.59 668.39 429.19 675.52 430.18 682.73 430.13 689.87 431.02 697.04 431.64 704.47 431.55 704.57 438.81 704.51 445.86 704.14 452.91 704.14 459.96 704.37 467.01 703.92 474.06 704.12 481.11 704.59 488.15 704.23 495.2 704.42 502.25 704.47 509.3 704.45 516.35 704.69 523.4 703.94 530.45 704.13 537.51 704.41 544.74"/><polygon class="cls-2" points="704.41 544.74 697.05 544.62 689.9 543.86 682.77 542.87 675.59 542.62 668.41 542.54 661.25 542.07 654.09 541.46 646.93 540.89 639.76 540.52 632.6 539.94 625.45 539.32 618.28 538.95 611.07 539.21 603.94 538.2 596.76 538.03 589.58 537.72 582.4 537.48 575.27 536.42 568.12 535.81 560.95 535.39 553.74 535.7 546.6 534.84 539.44 534.21 532.25 534.1 525.09 533.68 517.92 533.21 510.74 532.95 503.62 531.7 496.41 532.05 489.27 531.16 482.09 530.86 474.91 530.62 467.75 530.03 460.61 529.19 453.4 529.39 446.23 528.92 439.06 528.47 431.92 527.67 424.73 527.52 417.6 526.43 410.43 526.14 403.24 526.03 396.07 525.54 388.89 525.25 381.77 524.08 374.61 523.56 367.41 523.51 360.23 523.24 353.05 522.96 345.92 521.97 338.72 521.97 331.59 521.08 324.37 521.37 317.26 520.08 310.09 519.61 302.92 519.33 295.74 518.97 288.56 518.84 281.38 518.45 274.21 518.07 267.06 517.26 259.88 517.07 252.72 516.41 245.56 515.75 238.4 515.12 231.21 515.1 224.04 514.59 216.85 514.47 209.69 513.76 202.5 513.64 195.32 513.28 188.16 512.69 180.99 512.24 173.86 511.13 166.66 511.08 159.5 510.42 152.31 510.25 145.12 509.94 138.24 509.06 137.99 502.29 138.18 495.24 138.42 488.19 137.87 481.14 137.53 474.1 138.14 467.05 138.09 459.99 138.09 452.95 138.22 445.9 138.15 438.85 137.78 431.8 137.46 424.75 138.05 417.7 138.04 410.65 137.46 403.59 138.08 396.67 145.13 396.81 152.29 397.34 159.45 397.78 166.61 398.26 173.75 399.1 180.93 399.26 188.12 399.36 195.26 400.15 202.41 401.03 209.57 401.48 216.76 401.5 223.94 401.79 231.09 402.44 238.29 402.37 245.43 403.25 252.58 403.98 259.74 404.56 266.91 404.86 274.11 404.77 281.24 405.7 288.45 405.47 295.6 406.31 302.76 406.76 309.93 407.16 317.07 407.98 324.27 407.9 331.45 408.24 338.6 409.02 345.76 409.47 352.92 410 360.12 409.97 367.27 410.67 374.44 411.05 381.57 412.18 388.74 412.6 395.96 412.26 403.13 412.66 410.28 413.38 417.44 413.93 424.6 414.57 431.8 414.41 438.96 414.96 446.14 415.37 453.28 416.21 460.44 416.8 467.62 417.06 474.76 417.87 481.93 418.43 489.14 418.12 496.28 419.06 503.44 419.56 510.61 419.96 517.82 419.68 524.97 420.46 532.11 421.27 539.32 421.09 546.46 422.1 553.65 422.14 560.78 423.18 567.96 423.47 575.15 423.48 582.31 424.2 589.47 424.85 596.66 424.86 603.82 425.44 610.97 426.32 618.15 426.69 625.3 427.34 632.52 427.05 639.67 427.95 646.84 428.39 654 429.05 661.22 428.59 668.39 429.19 675.52 430.18 682.73 430.13 689.87 431.02 697.04 431.64 704.47 431.55 704.57 438.81 704.51 445.86 704.14 452.91 704.14 459.96 704.37 467.01 703.92 474.06 704.12 481.11 704.59 488.15 704.23 495.2 704.42 502.25 704.47 509.3 704.45 516.35 704.69 523.4 703.94 530.45 704.13 537.51 704.41 544.74"/><polygon points="732.37 415.33 724.8 415.34 717.65 414.73 710.51 413.89 703.33 413.62 696.15 413.46 689.02 412.46 681.86 412.03 674.68 411.82 667.51 411.38 660.35 410.85 653.18 410.38 646 410.26 638.87 409.31 631.66 409.53 624.5 408.94 617.35 408.35 610.17 407.94 603.04 407 595.86 406.85 588.68 406.64 581.55 405.5 574.38 405.15 567.22 404.61 560.03 404.53 552.84 404.41 545.7 403.59 538.51 403.54 531.37 402.66 524.18 402.54 517.04 401.71 509.84 401.79 502.69 401.03 495.53 400.4 488.38 399.7 481.2 399.37 474 399.47 466.82 399.26 459.69 398.28 452.54 397.46 445.35 397.34 438.15 397.41 431.02 396.41 423.8 396.65 416.64 396.14 409.53 394.8 402.32 394.93 395.17 394.26 387.99 393.99 380.85 393.06 373.65 393.11 366.5 392.36 359.3 392.45 352.13 392.17 344.99 391.2 337.83 390.68 330.68 389.91 323.48 389.98 316.35 389.04 309.14 389.07 301.97 388.78 294.79 388.49 287.64 387.63 280.44 387.71 273.3 386.88 266.13 386.39 258.96 385.91 251.78 385.52 244.6 385.17 237.43 384.75 230.25 384.48 223.13 383.28 215.93 383.17 208.73 383.17 201.57 382.65 194.42 381.76 187.24 381.44 180.04 381.36 172.89 380.5 165.73 380.22 158.53 383.8 152.06 388.7 144.64 392.01 137.58 396.55 145.09 397.33 152.27 397.69 159.44 397.92 166.63 397.99 173.79 398.44 180.97 398.76 188.09 399.88 195.28 399.98 202.41 400.99 209.62 400.68 216.78 401.28 223.95 401.55 231.08 402.52 238.29 402.31 245.46 402.76 252.57 404.01 259.77 403.92 266.9 404.94 274.1 404.97 281.25 405.61 288.4 406.36 295.6 406.23 302.79 406.35 309.92 407.37 317.07 407.97 324.23 408.53 331.43 408.46 338.57 409.38 345.79 409.06 352.92 410.13 360.12 409.91 367.26 410.86 374.42 411.49 381.62 411.45 388.79 411.75 395.92 412.84 403.1 413.05 410.24 413.92 417.41 414.34 424.58 414.77 431.8 414.43 438.93 415.46 446.11 415.77 453.29 416.01 460.45 416.61 467.6 417.31 474.79 417.53 481.93 418.34 489.13 418.32 496.27 419.24 503.43 419.74 510.63 419.6 517.78 420.3 524.96 420.68 532.15 420.61 539.29 421.56 546.46 422.11 553.66 421.96 560.77 423.32 567.99 423.02 575.11 424.19 582.3 424.25 589.45 425.09 596.63 425.41 603.8 425.86 610.98 426.16 618.15 426.67 625.34 426.76 632.52 427.06 639.68 427.77 646.87 427.84 654.04 428.4 661.17 429.37 668.39 429.06 675.51 430.38 682.73 430.15 689.91 430.38 697.06 431.43 704.29 431.95 711.33 427.93 718.09 423.52 725.13 419.57 732.37 415.33"/><polygon class="cls-2" points="732.37 415.33 724.8 415.34 717.65 414.73 710.51 413.89 703.33 413.62 696.15 413.46 689.02 412.46 681.86 412.03 674.68 411.82 667.51 411.38 660.35 410.85 653.18 410.38 646 410.26 638.87 409.31 631.66 409.53 624.5 408.94 617.35 408.35 610.17 407.94 603.04 407 595.86 406.85 588.68 406.64 581.55 405.5 574.38 405.15 567.22 404.61 560.03 404.53 552.84 404.41 545.7 403.59 538.51 403.54 531.37 402.66 524.18 402.54 517.04 401.71 509.84 401.79 502.69 401.03 495.53 400.4 488.38 399.7 481.2 399.37 474 399.47 466.82 399.26 459.69 398.28 452.54 397.46 445.35 397.34 438.15 397.41 431.02 396.41 423.8 396.65 416.64 396.14 409.53 394.8 402.32 394.93 395.17 394.26 387.99 393.99 380.85 393.06 373.65 393.11 366.5 392.36 359.3 392.45 352.13 392.17 344.99 391.2 337.83 390.68 330.68 389.91 323.48 389.98 316.35 389.04 309.14 389.07 301.97 388.78 294.79 388.49 287.64 387.63 280.44 387.71 273.3 386.88 266.13 386.39 258.96 385.91 251.78 385.52 244.6 385.17 237.43 384.75 230.25 384.48 223.13 383.28 215.93 383.17 208.73 383.17 201.57 382.65 194.42 381.76 187.24 381.44 180.04 381.36 172.89 380.5 165.73 380.22 158.53 383.8 152.06 388.7 144.64 392.01 137.58 396.55 145.09 397.33 152.27 397.69 159.44 397.92 166.63 397.99 173.79 398.44 180.97 398.76 188.09 399.88 195.28 399.98 202.41 400.99 209.62 400.68 216.78 401.28 223.95 401.55 231.08 402.52 238.29 402.31 245.46 402.76 252.57 404.01 259.77 403.92 266.9 404.94 274.1 404.97 281.25 405.61 288.4 406.36 295.6 406.23 302.79 406.35 309.92 407.37 317.07 407.97 324.23 408.53 331.43 408.46 338.57 409.38 345.79 409.06 352.92 410.13 360.12 409.91 367.26 410.86 374.42 411.49 381.62 411.45 388.79 411.75 395.92 412.84 403.1 413.05 410.24 413.92 417.41 414.34 424.58 414.77 431.8 414.43 438.93 415.46 446.11 415.77 453.29 416.01 460.45 416.61 467.6 417.31 474.79 417.53 481.93 418.34 489.13 418.32 496.27 419.24 503.43 419.74 510.63 419.6 517.78 420.3 524.96 420.68 532.15 420.61 539.29 421.56 546.46 422.11 553.66 421.96 560.77 423.32 567.99 423.02 575.11 424.19 582.3 424.25 589.45 425.09 596.63 425.41 603.8 425.86 610.98 426.16 618.15 426.67 625.34 426.76 632.52 427.06 639.68 427.77 646.87 427.84 654.04 428.4 661.17 429.37 668.39 429.06 675.51 430.38 682.73 430.15 689.91 430.38 697.06 431.43 704.29 431.95 711.33 427.93 718.09 423.52 725.13 419.57 732.37 415.33"/><polygon points="732 415.36 731.79 422.63 731.94 429.93 732.14 437.22 731.9 444.51 732.1 451.81 731.95 459.1 731.63 466.39 731.56 473.69 732.46 480.98 732.09 488.28 731.67 495.57 732.34 502.87 732.4 510.16 731.85 517.46 732.17 524.75 731.53 532.05 732.34 539.34 732.12 546.64 731.74 553.94 732.25 561.24 732.09 568.54 731.73 575.73 724.96 579.91 718.1 584.14 711.07 588.11 704.13 592.3 704.22 584.97 703.76 577.67 704.25 570.38 704.03 563.09 704.08 555.8 703.83 548.5 704.5 541.21 704.62 533.92 704.37 526.62 704.18 519.33 704.46 512.03 703.93 504.74 704.59 497.44 703.76 490.15 704.32 482.85 704.15 475.56 704.59 468.26 704.5 460.96 704.1 453.67 704.44 446.37 704.01 439.06 703.89 431.55 711.28 427.84 718.21 423.71 725.21 419.71 732 415.36"/><polygon class="cls-2" points="732 415.36 731.79 422.63 731.94 429.93 732.14 437.22 731.9 444.51 732.1 451.81 731.95 459.1 731.63 466.39 731.56 473.69 732.46 480.98 732.09 488.28 731.67 495.57 732.34 502.87 732.4 510.16 731.85 517.46 732.17 524.75 731.53 532.05 732.34 539.34 732.12 546.64 731.74 553.94 732.25 561.24 732.09 568.54 731.73 575.73 724.96 579.91 718.1 584.14 711.07 588.11 704.13 592.3 704.22 584.97 703.76 577.67 704.25 570.38 704.03 563.09 704.08 555.8 703.83 548.5 704.5 541.21 704.62 533.92 704.37 526.62 704.18 519.33 704.46 512.03 703.93 504.74 704.59 497.44 703.76 490.15 704.32 482.85 704.15 475.56 704.59 468.26 704.5 460.96 704.1 453.67 704.44 446.37 704.01 439.06 703.89 431.55 711.28 427.84 718.21 423.71 725.21 419.71 732 415.36"/><polygon points="118.59 584.57 124.78 579.95 130.58 575.45 136.26 570.82 141.49 565.61 147.31 561.15 153.22 556.8 158.97 552.25 164.86 547.86 170.32 543.09 170.29 536.22 170.47 529.24 170.03 522.26 170.78 515.29 170.44 508.31 170.44 501.34 170.96 494.36 170.27 487.38 170.79 480.4 170.8 473.43 170.4 466.45 170.09 459.46 170.38 452.86 164.95 457.39 159.17 462.06 153.23 466.54 147.59 471.38 142.09 476.39 136 480.67 130.09 485.19 124.46 490.06 119.06 495 118.35 502.31 118.65 509.75 118.47 517.19 118.96 524.63 118.85 532.07 119.17 539.51 119.23 546.95 118.56 554.39 118.56 561.84 118.72 569.28 119.25 576.73 118.59 584.57"/><polygon class="cls-2" points="118.59 584.57 124.78 579.95 130.58 575.45 136.26 570.82 141.49 565.61 147.31 561.15 153.22 556.8 158.97 552.25 164.86 547.86 170.32 543.09 170.29 536.22 170.47 529.24 170.03 522.26 170.78 515.29 170.44 508.31 170.44 501.34 170.96 494.36 170.27 487.38 170.79 480.4 170.8 473.43 170.4 466.45 170.09 459.46 170.38 452.86 164.95 457.39 159.17 462.06 153.23 466.54 147.59 471.38 142.09 476.39 136 480.67 130.09 485.19 124.46 490.06 119.06 495 118.35 502.31 118.65 509.75 118.47 517.19 118.96 524.63 118.85 532.07 119.17 539.51 119.23 546.95 118.56 554.39 118.56 561.84 118.72 569.28 119.25 576.73 118.59 584.57"/><polygon class="cls-1" points="118.8 584.19 111.52 584.15 104.28 583.56 97.02 583.37 89.79 582.44 82.51 582.85 75.28 581.86 67.76 582.24 68.43 574.58 67.66 567.14 68.22 559.7 67.82 552.26 68.3 544.82 67.78 537.38 68.17 529.94 67.79 522.5 67.77 515.05 68.06 507.61 67.9 500.16 68.02 492.74 75.23 493.42 82.5 493.48 89.75 493.88 97.01 494.12 104.27 494.1 111.5 495.05 119.15 494.53 119.19 502.31 118.29 509.75 118.56 517.19 118.64 524.63 118.64 532.07 119.08 539.51 118.43 546.95 118.98 554.39 118.65 561.84 119.04 569.28 118.61 576.73 118.8 584.19"/><polygon class="cls-2" points="118.8 584.19 111.52 584.15 104.28 583.56 97.02 583.37 89.79 582.44 82.51 582.85 75.28 581.86 67.76 582.24 68.43 574.58 67.66 567.14 68.22 559.7 67.82 552.26 68.3 544.82 67.78 537.38 68.17 529.94 67.79 522.5 67.77 515.05 68.06 507.61 67.9 500.16 68.02 492.74 75.23 493.42 82.5 493.48 89.75 493.88 97.01 494.12 104.27 494.1 111.5 495.05 119.15 494.53 119.19 502.31 118.29 509.75 118.56 517.19 118.64 524.63 118.64 532.07 119.08 539.51 118.43 546.95 118.98 554.39 118.65 561.84 119.04 569.28 118.61 576.73 118.8 584.19"/><polygon class="cls-1" points="169.5 454.85 162.46 454.48 155.35 453.97 148.26 453.1 141.11 453.4 134.03 452.46 126.88 452.47 119.7 451.5 113.8 456.01 108.14 460.68 102.29 465.1 96.78 469.96 91.25 474.79 85.38 479.19 79.36 483.4 73.95 488.41 67.95 492.73 75.23 493.45 82.5 493.49 89.77 493.28 97.01 494.13 104.25 494.73 111.52 494.79 118.87 495.15 124.52 490.54 130 485.9 135.56 481.35 141.21 476.91 147 472.65 152.4 467.9 158.13 463.55 163.9 459.25 169.5 454.85"/><polygon class="cls-2" points="169.5 454.85 162.46 454.48 155.35 453.97 148.26 453.1 141.11 453.4 134.03 452.46 126.88 452.47 119.7 451.5 113.8 456.01 108.14 460.68 102.29 465.1 96.78 469.96 91.25 474.79 85.38 479.19 79.36 483.4 73.95 488.41 67.95 492.73 75.23 493.45 82.5 493.49 89.77 493.28 97.01 494.13 104.25 494.73 111.52 494.79 118.87 495.15 124.52 490.54 130 485.9 135.56 481.35 141.21 476.91 147 472.65 152.4 467.9 158.13 463.55 163.9 459.25 169.5 454.85"/><polygon class="cls-1" points="369.01 535.66 361.77 534.51 354.67 533.82 347.53 533.74 340.38 533.66 333.29 532.85 326.2 532.05 319.05 532.04 311.95 531.52 304.83 531.12 297.75 530.05 290.62 529.83 283.48 529.75 276.4 528.77 269.3 528.12 262.13 528.48 255.04 527.53 247.9 527.47 240.78 527 233.67 526.46 226.61 525.25 219.5 524.66 212.32 525.01 205.2 524.58 198.13 523.43 191.02 522.83 183.88 522.61 176.78 521.96 169.62 522.05 162.51 521.5 155.39 521 148.32 519.85 141.16 519.99 134.03 519.6 126.94 518.55 119.93 518.37 125.7 513.69 131.61 508.96 137.33 504.01 142.74 498.7 148.74 494.08 154.06 488.65 160.04 484.01 166.14 479.49 171.76 474.61 178.77 474.68 185.85 475.63 192.98 475.91 200.12 476.03 207.23 476.63 214.33 477.35 221.45 477.6 228.54 478.44 235.65 478.9 242.76 479.47 249.89 479.77 257.01 480.12 264.15 480.25 271.23 481.2 278.37 481.28 285.44 482.39 292.59 482.44 299.7 482.97 306.8 483.69 313.94 483.78 321.05 484.46 328.2 484.41 335.26 485.65 342.42 485.55 349.52 486.36 356.64 486.74 363.78 486.98 370.84 488.22 378.02 487.81 385.1 488.88 392.26 488.73 399.35 489.65 406.5 489.68 413.6 490.54 420.89 491.07 415.25 496.34 409.34 501.07 403.35 505.71 397.58 510.6 391.89 515.58 385.84 520.14 380.14 525.12 374.68 530.38 369.01 535.66"/><polygon class="cls-2" points="369.01 535.66 361.77 534.51 354.67 533.82 347.53 533.74 340.38 533.66 333.29 532.85 326.2 532.05 319.05 532.04 311.95 531.52 304.83 531.12 297.75 530.05 290.62 529.83 283.48 529.75 276.4 528.77 269.3 528.12 262.13 528.48 255.04 527.53 247.9 527.47 240.78 527 233.67 526.46 226.61 525.25 219.5 524.66 212.32 525.01 205.2 524.58 198.13 523.43 191.02 522.83 183.88 522.61 176.78 521.96 169.62 522.05 162.51 521.5 155.39 521 148.32 519.85 141.16 519.99 134.03 519.6 126.94 518.55 119.93 518.37 125.7 513.69 131.61 508.96 137.33 504.01 142.74 498.7 148.74 494.08 154.06 488.65 160.04 484.01 166.14 479.49 171.76 474.61 178.77 474.68 185.85 475.63 192.98 475.91 200.12 476.03 207.23 476.63 214.33 477.35 221.45 477.6 228.54 478.44 235.65 478.9 242.76 479.47 249.89 479.77 257.01 480.12 264.15 480.25 271.23 481.2 278.37 481.28 285.44 482.39 292.59 482.44 299.7 482.97 306.8 483.69 313.94 483.78 321.05 484.46 328.2 484.41 335.26 485.65 342.42 485.55 349.52 486.36 356.64 486.74 363.78 486.98 370.84 488.22 378.02 487.81 385.1 488.88 392.26 488.73 399.35 489.65 406.5 489.68 413.6 490.54 420.89 491.07 415.25 496.34 409.34 501.07 403.35 505.71 397.58 510.6 391.89 515.58 385.84 520.14 380.14 525.12 374.68 530.38 369.01 535.66"/><polygon class="cls-1" points="368.73 535.37 361.75 534.74 354.62 534.53 347.49 534.25 340.43 532.99 333.28 533.03 326.18 532.23 319.07 531.85 311.94 531.57 304.82 531.17 297.75 530.03 290.59 530.28 283.49 529.59 276.38 529.03 269.26 528.65 262.14 528.25 255.04 527.55 247.9 527.54 240.84 526.21 233.69 526.13 226.61 525.23 219.44 525.48 212.32 524.99 205.25 523.8 198.13 523.33 190.98 523.42 183.89 522.51 176.74 522.55 169.62 522.07 162.55 520.89 155.42 520.58 148.26 520.67 141.2 519.35 134.03 519.7 126.95 518.47 119.98 518.61 120.12 525.52 120.09 532.64 119.81 539.77 120.18 546.64 127.04 547.07 134.14 547.79 141.24 548.45 148.39 548.44 155.46 549.64 162.58 550.01 169.74 549.84 176.82 550.69 183.95 550.93 191.06 551.55 198.14 552.49 205.3 552.19 212.38 553.15 219.49 553.68 226.59 554.38 233.71 554.85 240.86 554.86 247.97 555.36 255.06 556.34 262.19 556.49 269.29 557.19 276.44 557.23 283.57 557.52 290.63 558.88 297.77 558.99 304.9 559.32 312.04 559.54 319.1 560.85 326.27 560.56 333.39 561.01 340.5 561.56 347.63 561.92 354.7 563.16 361.82 563.68 369.25 564.02 369.11 556.62 368.97 549.49 369.29 542.36 368.73 535.37"/><polygon class="cls-2" points="368.73 535.37 361.75 534.74 354.62 534.53 347.49 534.25 340.43 532.99 333.28 533.03 326.18 532.23 319.07 531.85 311.94 531.57 304.82 531.17 297.75 530.03 290.59 530.28 283.49 529.59 276.38 529.03 269.26 528.65 262.14 528.25 255.04 527.55 247.9 527.54 240.84 526.21 233.69 526.13 226.61 525.23 219.44 525.48 212.32 524.99 205.25 523.8 198.13 523.33 190.98 523.42 183.89 522.51 176.74 522.55 169.62 522.07 162.55 520.89 155.42 520.58 148.26 520.67 141.2 519.35 134.03 519.7 126.95 518.47 119.98 518.61 120.12 525.52 120.09 532.64 119.81 539.77 120.18 546.64 127.04 547.07 134.14 547.79 141.24 548.45 148.39 548.44 155.46 549.64 162.58 550.01 169.74 549.84 176.82 550.69 183.95 550.93 191.06 551.55 198.14 552.49 205.3 552.19 212.38 553.15 219.49 553.68 226.59 554.38 233.71 554.85 240.86 554.86 247.97 555.36 255.06 556.34 262.19 556.49 269.29 557.19 276.44 557.23 283.57 557.52 290.63 558.88 297.77 558.99 304.9 559.32 312.04 559.54 319.1 560.85 326.27 560.56 333.39 561.01 340.5 561.56 347.63 561.92 354.7 563.16 361.82 563.68 369.25 564.02 369.11 556.62 368.97 549.49 369.29 542.36 368.73 535.37"/><polygon class="cls-1" points="627.15 553.29 619.86 552.74 612.8 551.46 605.65 551.55 598.52 551.19 591.4 550.84 584.3 550.14 577.21 549.29 570.11 548.65 562.99 548.24 555.83 548.5 548.75 547.47 541.63 547.21 534.52 546.62 527.42 545.85 520.28 545.85 513.18 545.15 506.07 544.51 498.91 544.69 491.85 543.36 484.73 542.98 477.57 543.12 470.47 542.46 463.38 541.48 456.27 540.97 449.13 540.73 441.99 540.6 434.91 539.64 427.79 539.1 420.68 538.5 413.52 538.65 406.42 537.97 399.32 537.25 392.19 536.88 385.05 536.57 378.29 535.93 383.94 531.43 389.7 526.53 395 521.09 400.85 516.29 406.52 511.28 412.28 506.38 418.06 501.49 423.99 496.77 429.76 491.84 436.88 492.57 444 492.95 451.15 492.9 458.27 493.32 465.35 494.4 472.5 494.41 479.59 495.23 486.67 496.11 493.81 496.19 500.94 496.44 508.01 497.44 515.14 497.72 522.24 498.46 529.4 498.23 536.47 499.39 543.61 499.48 550.75 499.62 557.82 500.72 564.96 500.98 572.09 501.19 579.18 502 586.33 502.09 593.43 502.73 600.51 503.88 607.64 504.14 614.8 504.09 621.88 505.01 628.99 505.65 636.1 506.17 643.25 506.22 650.35 506.99 657.48 507.3 664.63 507.28 671.75 507.89 678.83 508.74 672.8 513.28 667.57 518.81 661.31 523.13 655.89 528.43 649.79 532.93 644.43 538.29 638.45 542.94 632.84 548.03 627.15 553.29"/><polygon class="cls-2" points="627.15 553.29 619.86 552.74 612.8 551.46 605.65 551.55 598.52 551.19 591.4 550.84 584.3 550.14 577.21 549.29 570.11 548.65 562.99 548.24 555.83 548.5 548.75 547.47 541.63 547.21 534.52 546.62 527.42 545.85 520.28 545.85 513.18 545.15 506.07 544.51 498.91 544.69 491.85 543.36 484.73 542.98 477.57 543.12 470.47 542.46 463.38 541.48 456.27 540.97 449.13 540.73 441.99 540.6 434.91 539.64 427.79 539.1 420.68 538.5 413.52 538.65 406.42 537.97 399.32 537.25 392.19 536.88 385.05 536.57 378.29 535.93 383.94 531.43 389.7 526.53 395 521.09 400.85 516.29 406.52 511.28 412.28 506.38 418.06 501.49 423.99 496.77 429.76 491.84 436.88 492.57 444 492.95 451.15 492.9 458.27 493.32 465.35 494.4 472.5 494.41 479.59 495.23 486.67 496.11 493.81 496.19 500.94 496.44 508.01 497.44 515.14 497.72 522.24 498.46 529.4 498.23 536.47 499.39 543.61 499.48 550.75 499.62 557.82 500.72 564.96 500.98 572.09 501.19 579.18 502 586.33 502.09 593.43 502.73 600.51 503.88 607.64 504.14 614.8 504.09 621.88 505.01 628.99 505.65 636.1 506.17 643.25 506.22 650.35 506.99 657.48 507.3 664.63 507.28 671.75 507.89 678.83 508.74 672.8 513.28 667.57 518.81 661.31 523.13 655.89 528.43 649.79 532.93 644.43 538.29 638.45 542.94 632.84 548.03 627.15 553.29"/><polygon class="cls-1" points="627.07 552.8 619.9 552.12 612.78 551.67 605.65 551.48 598.55 550.74 591.4 550.86 584.32 549.73 577.22 549.13 570.06 549.41 562.97 548.53 555.89 547.61 548.75 547.58 541.64 546.99 534.5 546.94 527.43 545.85 520.26 546.12 513.2 544.8 506.06 544.67 498.97 543.82 491.84 543.6 484.73 543.07 477.57 543.18 470.46 542.55 463.36 541.82 456.27 540.99 449.16 540.38 441.98 540.81 434.87 540.15 427.75 539.72 420.66 538.89 413.54 538.38 406.43 537.74 399.3 537.45 392.16 537.31 385.02 536.97 377.87 535.96 377.56 543.14 377.75 550.26 377.94 557.39 378.38 564.19 385.13 565.35 392.28 565.35 399.37 566.14 406.5 566.35 413.63 566.72 420.72 567.48 427.85 567.7 434.92 568.8 442.06 568.85 449.2 568.96 456.29 569.82 463.42 569.97 470.49 571.21 477.63 571.29 484.77 571.32 491.86 572.23 498.98 572.65 506.07 573.53 513.2 573.77 520.33 574.05 527.45 574.44 534.56 575.13 541.7 575.2 548.79 576.13 555.94 576.08 563 577.51 570.12 577.87 577.25 578.27 584.41 578.01 591.49 579.08 598.63 579.34 605.72 580.09 612.87 580.24 620 580.56 627.13 581.37 626.66 574.24 626.95 567.11 627.21 559.99 627.07 552.8"/><polygon class="cls-2" points="627.07 552.8 619.9 552.12 612.78 551.67 605.65 551.48 598.55 550.74 591.4 550.86 584.32 549.73 577.22 549.13 570.06 549.41 562.97 548.53 555.89 547.61 548.75 547.58 541.64 546.99 534.5 546.94 527.43 545.85 520.26 546.12 513.2 544.8 506.06 544.67 498.97 543.82 491.84 543.6 484.73 543.07 477.57 543.18 470.46 542.55 463.36 541.82 456.27 540.99 449.16 540.38 441.98 540.81 434.87 540.15 427.75 539.72 420.66 538.89 413.54 538.38 406.43 537.74 399.3 537.45 392.16 537.31 385.02 536.97 377.87 535.96 377.56 543.14 377.75 550.26 377.94 557.39 378.38 564.19 385.13 565.35 392.28 565.35 399.37 566.14 406.5 566.35 413.63 566.72 420.72 567.48 427.85 567.7 434.92 568.8 442.06 568.85 449.2 568.96 456.29 569.82 463.42 569.97 470.49 571.21 477.63 571.29 484.77 571.32 491.86 572.23 498.98 572.65 506.07 573.53 513.2 573.77 520.33 574.05 527.45 574.44 534.56 575.13 541.7 575.2 548.79 576.13 555.94 576.08 563 577.51 570.12 577.87 577.25 578.27 584.41 578.01 591.49 579.08 598.63 579.34 605.72 580.09 612.87 580.24 620 580.56 627.13 581.37 626.66 574.24 626.95 567.11 627.21 559.99 627.07 552.8"/><polygon class="cls-1" points="626.93 552.83 632.78 548.29 638.25 543.33 644.27 539.06 649.87 534.26 655.63 529.65 661.09 524.69 667.2 520.51 672.86 515.78 678.3 510.99 678.31 518.7 678.11 526.54 678.86 534.38 678.28 542.13 672.76 546.54 667.35 551.27 661.22 555.07 655.37 559.22 650 564.02 644.19 568.22 638.75 572.93 632.91 577.11 627.16 581.25 627.09 574.24 627.15 567.11 627.27 559.99 626.93 552.83"/><polygon class="cls-2" points="626.93 552.83 632.78 548.29 638.25 543.33 644.27 539.06 649.87 534.26 655.63 529.65 661.09 524.69 667.2 520.51 672.86 515.78 678.3 510.99 678.31 518.7 678.11 526.54 678.86 534.38 678.28 542.13 672.76 546.54 667.35 551.27 661.22 555.07 655.37 559.22 650 564.02 644.19 568.22 638.75 572.93 632.91 577.11 627.16 581.25 627.09 574.24 627.15 567.11 627.27 559.99 626.93 552.83"/><polygon points="627.6 615.82 620.42 615.7 613.26 615.33 606.16 614.08 599 613.82 591.82 613.87 584.71 612.79 577.53 612.79 570.39 612.28 563.24 611.79 556.06 611.82 548.97 610.49 541.81 610.1 534.61 610.43 527.51 609.13 520.31 609.6 513.16 609.1 506.01 608.62 498.88 607.79 491.76 606.95 484.58 606.93 477.41 606.74 470.26 606.32 463.1 605.94 455.98 604.99 448.81 604.96 441.68 604.14 434.52 603.85 427.35 603.68 420.21 602.98 413.09 602.03 405.88 602.47 398.73 602.05 391.6 601.26 384.44 600.86 377.29 600.32 370.13 600.05 363.02 598.96 355.83 599.09 348.66 598.88 341.56 597.55 334.4 597.33 327.21 597.36 320.07 596.86 312.93 596.21 305.77 595.89 298.61 595.67 291.46 595.1 284.33 594.43 277.16 594.17 270.03 593.48 262.87 593.07 255.72 592.57 248.56 592.22 241.39 592.14 234.24 591.55 227.13 590.38 219.92 590.86 212.78 590.13 205.64 589.48 198.47 589.19 191.32 588.67 184.15 588.42 177.02 587.56 169.84 587.52 162.71 586.72 155.54 586.46 148.41 585.54 141.22 585.78 134.06 585.33 126.88 585.09 119.95 583.98 119.73 577.12 119.61 570.08 119.77 563.02 119.44 555.96 119.47 548.61 126.92 548.88 134.04 549.84 141.18 550.43 148.31 551.17 155.47 551.54 162.63 551.72 169.78 552.23 176.95 552.35 184.12 552.48 191.26 553.16 198.39 553.92 205.52 554.55 212.68 554.93 219.87 554.74 227.02 555.26 234.18 555.58 241.33 556.01 248.46 556.7 255.63 556.9 262.75 557.79 269.89 558.41 277.04 558.9 284.22 558.94 291.39 559.14 298.51 560.01 305.67 560.34 312.81 560.95 319.99 561.06 327.14 561.39 334.27 562.19 341.45 562.32 348.59 562.87 355.76 563.12 362.9 563.7 370.02 564.68 377.2 564.71 384.36 565.04 391.5 565.72 398.66 566.06 405.8 566.69 412.95 567.15 420.12 567.32 427.23 568.44 434.42 568.22 441.52 569.4 448.72 569.19 455.87 569.61 463.01 570.25 470.13 571.15 477.3 571.29 484.45 571.85 491.59 572.44 498.78 572.32 505.95 572.58 513.09 573.24 520.23 573.86 527.39 574.24 534.52 575.11 541.69 575.34 548.87 575.31 556 576.18 563.18 576.34 570.32 576.91 577.45 577.89 584.6 578.36 591.8 578.08 598.97 578.43 606.12 578.87 613.26 579.68 620.44 579.86 627.92 580.23 627.1 587.59 627.14 594.64 627.46 601.69 627.93 608.75 627.6 615.82"/><polygon class="cls-2" points="627.6 615.82 620.42 615.7 613.26 615.33 606.16 614.08 599 613.82 591.82 613.87 584.71 612.79 577.53 612.79 570.39 612.28 563.24 611.79 556.06 611.82 548.97 610.49 541.81 610.1 534.61 610.43 527.51 609.13 520.31 609.6 513.16 609.1 506.01 608.62 498.88 607.79 491.76 606.95 484.58 606.93 477.41 606.74 470.26 606.32 463.1 605.94 455.98 604.99 448.81 604.96 441.68 604.14 434.52 603.85 427.35 603.68 420.21 602.98 413.09 602.03 405.88 602.47 398.73 602.05 391.6 601.26 384.44 600.86 377.29 600.32 370.13 600.05 363.02 598.96 355.83 599.09 348.66 598.88 341.56 597.55 334.4 597.33 327.21 597.36 320.07 596.86 312.93 596.21 305.77 595.89 298.61 595.67 291.46 595.1 284.33 594.43 277.16 594.17 270.03 593.48 262.87 593.07 255.72 592.57 248.56 592.22 241.39 592.14 234.24 591.55 227.13 590.38 219.92 590.86 212.78 590.13 205.64 589.48 198.47 589.19 191.32 588.67 184.15 588.42 177.02 587.56 169.84 587.52 162.71 586.72 155.54 586.46 148.41 585.54 141.22 585.78 134.06 585.33 126.88 585.09 119.95 583.98 119.73 577.12 119.61 570.08 119.77 563.02 119.44 555.96 119.47 548.61 126.92 548.88 134.04 549.84 141.18 550.43 148.31 551.17 155.47 551.54 162.63 551.72 169.78 552.23 176.95 552.35 184.12 552.48 191.26 553.16 198.39 553.92 205.52 554.55 212.68 554.93 219.87 554.74 227.02 555.26 234.18 555.58 241.33 556.01 248.46 556.7 255.63 556.9 262.75 557.79 269.89 558.41 277.04 558.9 284.22 558.94 291.39 559.14 298.51 560.01 305.67 560.34 312.81 560.95 319.99 561.06 327.14 561.39 334.27 562.19 341.45 562.32 348.59 562.87 355.76 563.12 362.9 563.7 370.02 564.68 377.2 564.71 384.36 565.04 391.5 565.72 398.66 566.06 405.8 566.69 412.95 567.15 420.12 567.32 427.23 568.44 434.42 568.22 441.52 569.4 448.72 569.19 455.87 569.61 463.01 570.25 470.13 571.15 477.3 571.29 484.45 571.85 491.59 572.44 498.78 572.32 505.95 572.58 513.09 573.24 520.23 573.86 527.39 574.24 534.52 575.11 541.69 575.34 548.87 575.31 556 576.18 563.18 576.34 570.32 576.91 577.45 577.89 584.6 578.36 591.8 578.08 598.97 578.43 606.12 578.87 613.26 579.68 620.44 579.86 627.92 580.23 627.1 587.59 627.14 594.64 627.46 601.69 627.93 608.75 627.6 615.82"/><polygon class="cls-1" points="627.72 615.59 633.08 611.23 638.9 607.1 644.72 602.97 650.52 598.81 656.27 594.57 662.27 590.69 667.81 586.16 673.39 581.69 679.13 577.6 679.34 570.62 679.48 563.53 679.48 556.44 679.25 549.35 679.35 542.26 678.86 535.17 679.67 528.08 679.6 520.99 679.17 513.9 678.91 506.81 679.24 499.72 679.04 492.62 679.37 485.43 673.76 490.29 667.57 494.28 662.2 499.32 656.05 503.36 650.83 508.58 644.99 513.01 638.97 517.23 633.05 521.58 627.97 526.69 627.59 533.95 627.66 541.39 628.08 548.83 627.37 556.27 627.34 563.71 627.89 571.15 627.22 578.59 627.52 586.03 627.31 593.47 627.18 600.92 627.21 608.37 627.72 615.59"/><polygon class="cls-2" points="627.72 615.59 633.08 611.23 638.9 607.1 644.72 602.97 650.52 598.81 656.27 594.57 662.27 590.69 667.81 586.16 673.39 581.69 679.13 577.6 679.34 570.62 679.48 563.53 679.48 556.44 679.25 549.35 679.35 542.26 678.86 535.17 679.67 528.08 679.6 520.99 679.17 513.9 678.91 506.81 679.24 499.72 679.04 492.62 679.37 485.43 673.76 490.29 667.57 494.28 662.2 499.32 656.05 503.36 650.83 508.58 644.99 513.01 638.97 517.23 633.05 521.58 627.97 526.69 627.59 533.95 627.66 541.39 628.08 548.83 627.37 556.27 627.34 563.71 627.89 571.15 627.22 578.59 627.52 586.03 627.31 593.47 627.18 600.92 627.21 608.37 627.72 615.59"/><polygon points="678.18 619.08 683.86 613.74 690.01 609.61 695.86 605.1 701.05 599.77 707.12 595.54 712.91 590.96 718.91 586.63 724.44 581.72 730.09 576.97 729.72 569.54 730.3 562.11 730.01 554.66 730.21 547.23 729.77 539.79 729.9 532.35 729.91 524.9 729.93 517.46 730.6 510.02 729.99 502.58 730.27 495.13 730.11 487.69 724.32 492.25 718.44 496.72 712.96 501.68 707.4 506.54 701.66 511.19 695.66 515.5 689.65 519.81 683.88 524.44 678.59 529.49 677.96 536.82 678.09 544.26 678.65 551.71 678.45 559.14 677.92 566.58 678.23 574.02 678.79 581.46 677.91 588.9 678.64 596.35 678.02 603.79 678.87 611.25 678.18 619.08"/><polygon class="cls-2" points="678.18 619.08 683.86 613.74 690.01 609.61 695.86 605.1 701.05 599.77 707.12 595.54 712.91 590.96 718.91 586.63 724.44 581.72 730.09 576.97 729.72 569.54 730.3 562.11 730.01 554.66 730.21 547.23 729.77 539.79 729.9 532.35 729.91 524.9 729.93 517.46 730.6 510.02 729.99 502.58 730.27 495.13 730.11 487.69 724.32 492.25 718.44 496.72 712.96 501.68 707.4 506.54 701.66 511.19 695.66 515.5 689.65 519.81 683.88 524.44 678.59 529.49 677.96 536.82 678.09 544.26 678.65 551.71 678.45 559.14 677.92 566.58 678.23 574.02 678.79 581.46 677.91 588.9 678.64 596.35 678.02 603.79 678.87 611.25 678.18 619.08"/><polygon class="cls-1" points="678.06 618.37 671.12 618.27 663.85 618.25 656.59 617.89 649.35 617.23 642.12 616.44 634.85 616.26 627.69 615.72 627.88 608.37 627.61 600.93 627.59 593.49 627.17 586.05 627.81 578.61 627.78 571.17 627.4 563.73 627.35 556.29 627.54 548.84 627.3 541.4 627.92 533.95 627.79 526.71 634.86 526.58 642.08 527.56 649.37 527.41 656.63 527.74 663.87 528.28 671.09 529.4 678.36 529.4 678.76 536.82 677.91 544.26 678.35 551.71 678.38 559.14 678.53 566.58 678.03 574.02 678.2 581.46 678.38 588.9 678.75 596.35 678.75 603.79 678.75 611.25 678.06 618.37"/><polygon class="cls-2" points="678.06 618.37 671.12 618.27 663.85 618.25 656.59 617.89 649.35 617.23 642.12 616.44 634.85 616.26 627.69 615.72 627.88 608.37 627.61 600.93 627.59 593.49 627.17 586.05 627.81 578.61 627.78 571.17 627.4 563.73 627.35 556.29 627.54 548.84 627.3 541.4 627.92 533.95 627.79 526.71 634.86 526.58 642.08 527.56 649.37 527.41 656.63 527.74 663.87 528.28 671.09 529.4 678.36 529.4 678.76 536.82 677.91 544.26 678.35 551.71 678.38 559.14 678.53 566.58 678.03 574.02 678.2 581.46 678.38 588.9 678.75 596.35 678.75 603.79 678.75 611.25 678.06 618.37"/><polygon class="cls-1" points="729.45 487.7 721.9 487.57 714.64 487.52 707.39 487.25 700.14 486.72 692.88 486.45 685.64 485.71 678.45 485.85 672.9 490.38 667.05 494.66 661.73 499.6 655.79 503.77 650.33 508.54 644.24 512.51 638.6 517.06 633.06 521.75 627.72 526.46 634.82 527.32 642.11 527.01 649.36 527.5 656.58 528.5 663.86 528.59 671.12 528.84 678.36 529.32 684.14 524.91 689.97 520.53 695.49 515.77 701.09 511.09 706.27 505.91 712.41 501.9 718.14 497.39 723.79 492.76 729.45 487.7"/><polygon class="cls-2" points="729.45 487.7 721.9 487.57 714.64 487.52 707.39 487.25 700.14 486.72 692.88 486.45 685.64 485.71 678.45 485.85 672.9 490.38 667.05 494.66 661.73 499.6 655.79 503.77 650.33 508.54 644.24 512.51 638.6 517.06 633.06 521.75 627.72 526.46 634.82 527.32 642.11 527.01 649.36 527.5 656.58 528.5 663.86 528.59 671.12 528.84 678.36 529.32 684.14 524.91 689.97 520.53 695.49 515.77 701.09 511.09 706.27 505.91 712.41 501.9 718.14 497.39 723.79 492.76 729.45 487.7"/><polyline class="cls-2" points="285.37 404.84 285.94 411.95 285.44 419.07 285.63 426.18 285.3 433.3 285.21 440.42 285.53 447.53 285.54 454.65 286 461.76 285.56 468.88 285.49 476.01 285.64 483.13"/><polyline class="cls-2" points="535.83 422.03 536.15 429.15 536.22 436.27 535.57 443.38 536.09 450.49 536.02 457.61 535.75 464.73 535.27 471.84 535.62 478.96 535.88 486.08 535.69 493.2 535.81 500.32"/><polyline class="cls-2" points="354.5 236.49 360.65 232.51 366.73 228.43 372.46 223.85 378.27 219.38 384.23 215.1"/><polyline class="cls-2" points="377.61 251.65 383.49 246.99 389.57 242.63 396.13 238.94 402.2 234.56 408.18 230.03 414.4 225.85 420.3 221.21"/><polyline class="cls-2" points="410.74 261.84 416.22 257.38 421.89 253.2 427.76 249.31 433.44 245.12 439.57 241.59"/><polyline class="cls-2" points="446.48 257.52 452.97 260.77 459.16 264.6 465.96 267.16 472.68 269.92 479.73 271.71 486.52 274.28 493.46 276.44 500.67 277.49 507.83 278.61 515.03 279.52 522.29 279.74 529.54 280 536.81 280 544.05 279.31 551.26 278.37 558.28 276.43 565.39 274.85 572.22 272.35 578.97 269.68 585.68 266.85"/><polyline class="cls-2" points="346.35 217.96 339.49 215.56 332.41 213.91 325.14 213.27 317.98 212.06 310.72 211.68 303.51 210.55 296.22 210.87 288.97 211.25 281.72 211.73 274.52 212.62 267.32 213.55 260.07 214.47 253.28 217.2 246.42 219.53 239.68 222.2 232.68 224.4 226.39 228.09 220.53 232.43 214.81 236.88"/><polyline class="cls-2" points="362.85 211.2 359.38 205.35 356.55 199.16 352.7 193.5 350.01 187.23 346.41 181.44"/><polyline class="cls-2" points="431.71 266.38 434.8 272.54 437.91 278.68 440.11 285.27 443.67 291.2 446.26 297.61"/></svg>