<?xml version="1.0" encoding="utf-8"?>
<!-- Generator: Adobe Illustrator 20.0.0, SVG Export Plug-In . SVG Version: 6.00 Build 0)  -->
<svg version="1.1" id="Layer_1" xmlns="http://www.w3.org/2000/svg" xmlns:xlink="http://www.w3.org/1999/xlink" x="0px" y="0px"
	 viewBox="0 0 800 800" style="enable-background:new 0 0 800 800;" xml:space="preserve">
<style type="text/css">
	.st0{fill:none;}
	.st1{fill:url(#New_Pattern);}
	.st2{clip-path:url(#SVGID_2_);fill:#FFFFFF;}
	.st3{clip-path:url(#SVGID_2_);}
</style>
<pattern  width="563.26" height="508.68" patternUnits="userSpaceOnUse" id="New_Pattern" viewBox="5.11 -514.15 563.26 508.68" style="overflow:visible;">
	<g>
		<rect x="5.11" y="-514.15" class="st0" width="563.26" height="508.68"/>
		<g>
			<path d="M523.62-175.85c-6,0-6,10,0,10C530.62-165.85,530.62-175.85,523.62-175.85z"/>
			<path d="M552.62-173.96c-6,0-6,10,0,10C559.62-163.96,559.62-173.96,552.62-173.96z"/>
			<path d="M528.62-110.75c-6,0-7,10,0,10C534.62-100.75,534.62-110.75,528.62-110.75z"/>
			<path d="M498.62-137.17c-7,0-7,10,0,10C504.62-127.17,504.62-137.17,498.62-137.17z"/>
			<path d="M493.3-81.18c-7.27,1.35-14.55,2.7-21.82,4.05c-6.32,1.17-3.64,10.81,2.66,9.64c7.27-1.35,14.55-2.7,21.82-4.05
				C502.28-72.71,499.6-82.35,493.3-81.18z"/>
			<path d="M501.65-170.23c-7.88-2.15-15.75-4.29-23.63-6.44c-6.22-1.69-8.87,7.95-2.66,9.64c7.88,2.15,15.75,4.29,23.63,6.44
				C505.21-158.9,507.86-168.54,501.65-170.23z"/>
			<path d="M582.18-215.99c-3.47-2.82-6.93-5.65-10.4-8.47c-2.09-1.7-5.02-2.05-7.07,0c-1.76,1.76-2.1,5.36,0,7.07
				c3.47,2.82,6.93,5.65,10.4,8.47c2.09,1.7,5.02,2.05,7.07,0C583.94-210.68,584.28-214.28,582.18-215.99z"/>
			<path d="M545.31-42.31c-2-1.83-5.09-1.98-7.07,0l-4.72,4.72c-1.85,1.85-1.99,5.24,0,7.07c2,1.83,5.09,1.98,7.07,0l4.72-4.72
				C547.16-37.09,547.3-40.48,545.31-42.31z"/>
			<path d="M447.05-125.67c-6.65,1.6-13.02,4.01-19.12,7.11c-5.74,2.91-0.68,11.54,5.05,8.63c5.35-2.71,10.9-4.69,16.73-6.1
				C455.96-117.54,453.31-127.18,447.05-125.67z"/>
			<path d="M443.62-199.43c-6,0-6,10,0,10S449.62-199.43,443.62-199.43z"/>
			<path d="M517.35-231.61c-0.31-0.94-0.63-1.89-0.94-2.83c-0.41-1.23-1.15-2.32-2.3-2.99c-1.07-0.63-2.65-0.89-3.85-0.5
				c-1.21,0.39-2.38,1.14-2.99,2.3c-0.61,1.15-0.93,2.57-0.5,3.85c0.31,0.94,0.63,1.89,0.94,2.83c0.41,1.23,1.15,2.32,2.3,2.99
				c1.07,0.63,2.65,0.89,3.85,0.5c1.21-0.39,2.38-1.14,2.99-2.3C517.45-228.91,517.77-230.33,517.35-231.61z"/>
			<path d="M426.31-47.73c-2.84-2.19-5.68-4.38-8.52-6.57c-2.14-1.65-5.6-0.33-6.84,1.79c-1.51,2.58-0.35,5.19,1.79,6.84
				c2.84,2.19,5.68,4.38,8.52,6.57c2.14,1.65,5.6,0.33,6.84-1.79C429.61-43.47,428.45-46.07,426.31-47.73z"/>
			<path d="M385.62-99.43c-2.71,0.12-5,2.2-5,5v5.66c0,2.62,2.3,5.12,5,5c2.71-0.12,5-2.2,5-5v-5.66
				C390.62-97.05,388.32-99.56,385.62-99.43z"/>
			<path d="M396.62-177.74c-7,0-7,10,0,10C402.62-167.74,402.62-177.74,396.62-177.74z"/>
			<path d="M410.62-146.6c-6,0-6,10,0,10S416.62-146.6,410.62-146.6z"/>
			<path d="M468.62-15.47c-7,0-7,10,0,10C474.62-5.47,474.62-15.47,468.62-15.47z"/>
			<path d="M467.62-259.81c-7,0-7,10,0,10C473.62-249.81,473.62-259.81,467.62-259.81z"/>
		</g>
		<g>
			<path d="M241.99-48.68c-6,0-6,10,0,10C248.99-38.68,248.99-48.68,241.99-48.68z"/>
			<path d="M270.99-46.79c-6,0-6,10,0,10C277.99-36.79,277.99-46.79,270.99-46.79z"/>
			<path d="M216.99-10c-7,0-7,10,0,10C222.99,0,222.99-10,216.99-10z"/>
			<path d="M353.99-25.09c-7,0-7,10,0,10C359.99-15.09,359.99-25.09,353.99-25.09z"/>
			<path d="M339.01-15.97c-1.48-2.54-4.37-2.9-6.84-1.79c-3.47,1.55-6.94,3.11-10.4,4.66c-2.46,1.1-3.05,4.69-1.79,6.84
				c1.48,2.54,4.37,2.9,6.84,1.79c3.47-1.55,6.94-3.11,10.4-4.66C339.68-10.23,340.27-13.82,339.01-15.97z"/>
			<path d="M220.02-43.06c-7.88-2.15-15.75-4.29-23.63-6.44c-6.22-1.69-8.87,7.95-2.66,9.64c7.88,2.15,15.75,4.29,23.63,6.44
				C223.58-31.73,226.23-41.37,220.02-43.06z"/>
			<path d="M357.99-86.42c-6,0-6,10,0,10C364.99-76.42,364.99-86.42,357.99-86.42z"/>
			<path d="M300.55-88.82c-3.47-2.82-6.93-5.65-10.4-8.47c-2.09-1.7-5.02-2.05-7.07,0c-1.76,1.76-2.1,5.36,0,7.07
				c3.47,2.82,6.93,5.65,10.4,8.47c2.09,1.7,5.02,2.05,7.07,0C302.31-83.51,302.65-87.11,300.55-88.82z"/>
			<path d="M161.99-72.26c-6,0-6,10,0,10S167.99-72.26,161.99-72.26z"/>
			<path d="M235.72-104.44c-0.31-0.94-0.63-1.89-0.94-2.83c-0.41-1.23-1.15-2.32-2.3-2.99c-1.07-0.63-2.65-0.89-3.85-0.5
				c-1.21,0.39-2.38,1.14-2.99,2.3c-0.61,1.15-0.93,2.57-0.5,3.85c0.31,0.94,0.63,1.89,0.94,2.83c0.41,1.23,1.15,2.32,2.3,2.99
				c1.07,0.63,2.65,0.89,3.85,0.5c1.21-0.39,2.38-1.14,2.99-2.3C235.82-101.74,236.14-103.16,235.72-104.44z"/>
			<path d="M452.7-36.52c-0.88-2.73-3.4-4.04-6.15-3.49l-4.72,0.94c-2.57,0.51-4.28,3.71-3.49,6.15c0.88,2.73,3.4,4.04,6.15,3.49
				c1.57-0.31,3.14-0.63,4.72-0.94C451.78-30.88,453.49-34.08,452.7-36.52z"/>
			<path d="M114.99-50.57c-7,0-7,10,0,10C120.99-40.57,120.99-50.57,114.99-50.57z"/>
			<path d="M128.99-19.43c-6,0-6,10,0,10S134.99-19.43,128.99-19.43z"/>
			<path d="M185.99-132.64c-7,0-7,10,0,10C191.99-122.64,191.99-132.64,185.99-132.64z"/>
			<path d="M396.99-53.4c-6,0-7,10,0,10C402.99-43.4,402.99-53.4,396.99-53.4z"/>
			<path d="M415.99-110c-7,0-7,10,0,10C421.99-100,421.99-110,415.99-110z"/>
			<path d="M376.98-105.81c-6.41-5.72-13.4-10.66-20.98-14.71c-5.68-3.03-10.73,5.6-5.05,8.63c6.84,3.65,13.16,7.99,18.96,13.15
				C374.7-94.47,381.8-101.52,376.98-105.81z"/>
		</g>
		<g>
			<path d="M75.36-101.32c-6,0-6,10,0,10C82.36-91.32,82.36-101.32,75.36-101.32z"/>
			<path d="M72.36-152.26c-7,0-7,10,0,10C78.36-142.26,78.36-152.26,72.36-152.26z"/>
			<path d="M57.38-143.14c-1.48-2.54-4.37-2.9-6.84-1.79c-3.47,1.55-6.94,3.11-10.4,4.66c-2.46,1.1-3.05,4.69-1.79,6.84
				c1.48,2.54,4.37,2.9,6.84,1.79c3.47-1.55,6.94-3.11,10.4-4.66C58.05-137.4,58.63-140.99,57.38-143.14z"/>
			<path d="M47.36-60.75c-6,0-6,10,0,10S53.36-60.75,47.36-60.75z"/>
			<path d="M76.36-213.59c-6,0-6,10,0,10C83.36-203.59,83.36-213.59,76.36-213.59z"/>
			<path d="M18.92-215.99c-3.47-2.82-6.93-5.65-10.4-8.47c-2.09-1.7-5.02-2.05-7.07,0c-1.76,1.76-2.1,5.36,0,7.07
				c3.47,2.82,6.93,5.65,10.4,8.47c2.09,1.7,5.02,2.05,7.07,0C20.68-210.68,21.02-214.28,18.92-215.99z"/>
			<path d="M116.36-100.38c-7,0-7,10,0,10C122.36-90.38,122.36-100.38,116.36-100.38z"/>
			<path d="M171.07-163.69c-0.88-2.73-3.4-4.04-6.15-3.49l-4.72,0.94c-2.57,0.51-4.28,3.71-3.49,6.15c0.88,2.73,3.4,4.04,6.15,3.49
				c1.57-0.31,3.14-0.63,4.72-0.94C170.14-158.05,171.86-161.25,171.07-163.69z"/>
			<path d="M26.39-107.4c-2-1.83-5.09-1.98-7.07,0c-1.26,1.26-2.52,2.52-3.77,3.77c-1.85,1.85-1.99,5.24,0,7.07
				c2,1.83,5.09,1.98,7.07,0c1.26-1.26,2.52-2.52,3.77-3.77C28.24-102.18,28.38-105.58,26.39-107.4z"/>
			<path d="M73.36-29.62c-6,0-6,10,0,10C80.36-19.62,80.36-29.62,73.36-29.62z"/>
			<path d="M189.27-105.84c-8.22-1.72-16.52-2.75-24.91-3.07c-6.44-0.24-6.43,9.76,0,10c7.51,0.28,14.89,1.17,22.25,2.71
				C192.89-94.89,195.58-104.53,189.27-105.84z"/>
			<path d="M121.36-70.19c-7,0-7,10,0,10C127.36-60.19,127.36-70.19,121.36-70.19z"/>
			<path d="M115.36-180.57c-6,0-7,10,0,10C121.36-170.57,121.36-180.57,115.36-180.57z"/>
			<path d="M134.36-237.17c-7,0-7,10,0,10C140.36-227.17,140.36-237.17,134.36-237.17z"/>
			<path d="M95.35-232.98c-6.41-5.72-13.4-10.66-20.98-14.71c-5.68-3.03-10.73,5.6-5.05,8.63c6.84,3.65,13.16,7.99,18.96,13.15
				C93.07-221.64,100.17-228.69,95.35-232.98z"/>
		</g>
		<g>
			<path d="M523.62-430.19c-6,0-6,10,0,10C530.62-420.19,530.62-430.19,523.62-430.19z"/>
			<path d="M552.62-428.3c-6,0-6,10,0,10C559.62-418.3,559.62-428.3,552.62-428.3z"/>
			<path d="M528.62-365.09c-6,0-7,10,0,10C534.62-355.09,534.62-365.09,528.62-365.09z"/>
			<path d="M498.62-391.51c-7,0-7,10,0,10C504.62-381.51,504.62-391.51,498.62-391.51z"/>
			<path d="M493.3-335.52c-7.27,1.35-14.55,2.7-21.82,4.05c-6.32,1.17-3.64,10.81,2.66,9.64c7.27-1.35,14.55-2.7,21.82-4.05
				C502.28-327.05,499.6-336.69,493.3-335.52z"/>
			<path d="M501.65-424.57c-7.88-2.15-15.75-4.29-23.63-6.44c-6.22-1.69-8.87,7.95-2.66,9.64c7.88,2.15,15.75,4.29,23.63,6.44
				C505.21-413.24,507.86-422.88,501.65-424.57z"/>
			<path d="M582.18-470.33c-3.47-2.82-6.93-5.65-10.4-8.47c-2.09-1.7-5.02-2.05-7.07,0c-1.76,1.76-2.1,5.36,0,7.07
				c3.47,2.82,6.93,5.65,10.4,8.47c2.09,1.7,5.02,2.05,7.07,0C583.94-465.02,584.28-468.62,582.18-470.33z"/>
			<path d="M545.31-296.65c-2-1.83-5.09-1.98-7.07,0l-4.72,4.72c-1.85,1.85-1.99,5.24,0,7.07c2,1.83,5.09,1.98,7.07,0l4.72-4.72
				C547.16-291.43,547.3-294.82,545.31-296.65z"/>
			<path d="M447.05-380.01c-6.65,1.6-13.02,4.01-19.12,7.11c-5.74,2.91-0.68,11.54,5.05,8.63c5.35-2.71,10.9-4.69,16.73-6.1
				C455.96-371.87,453.31-381.52,447.05-380.01z"/>
			<path d="M443.62-453.77c-6,0-6,10,0,10S449.62-453.77,443.62-453.77z"/>
			<path d="M517.35-485.95c-0.31-0.94-0.63-1.89-0.94-2.83c-0.41-1.23-1.15-2.32-2.3-2.99c-1.07-0.63-2.65-0.89-3.85-0.5
				c-1.21,0.39-2.38,1.14-2.99,2.3c-0.61,1.15-0.93,2.57-0.5,3.85c0.31,0.94,0.63,1.89,0.94,2.83c0.41,1.23,1.15,2.32,2.3,2.99
				c1.07,0.63,2.65,0.89,3.85,0.5c1.21-0.39,2.38-1.14,2.99-2.3C517.45-483.25,517.77-484.67,517.35-485.95z"/>
			<path d="M426.31-302.07c-2.84-2.19-5.68-4.38-8.52-6.57c-2.14-1.65-5.6-0.33-6.84,1.79c-1.51,2.58-0.35,5.19,1.79,6.84
				c2.84,2.19,5.68,4.38,8.52,6.57c2.14,1.65,5.6,0.33,6.84-1.79C429.61-297.81,428.45-300.41,426.31-302.07z"/>
			<path d="M385.62-353.77c-2.71,0.12-5,2.2-5,5v5.66c0,2.62,2.3,5.12,5,5c2.71-0.12,5-2.2,5-5v-5.66
				C390.62-351.39,388.32-353.89,385.62-353.77z"/>
			<path d="M396.62-432.08c-7,0-7,10,0,10C402.62-422.08,402.62-432.08,396.62-432.08z"/>
			<path d="M410.62-400.94c-6,0-6,10,0,10S416.62-400.94,410.62-400.94z"/>
			<path d="M468.62-269.81c-7,0-7,10,0,10C474.62-259.81,474.62-269.81,468.62-269.81z"/>
			<path d="M467.62-514.15c-7,0-7,10,0,10C473.62-504.15,473.62-514.15,467.62-514.15z"/>
		</g>
		<g>
			<path d="M241.99-303.02c-6,0-6,10,0,10C248.99-293.02,248.99-303.02,241.99-303.02z"/>
			<path d="M270.99-301.13c-6,0-6,10,0,10C277.99-291.13,277.99-301.13,270.99-301.13z"/>
			<path d="M246.99-237.92c-6,0-7,10,0,10C252.99-227.92,252.99-237.92,246.99-237.92z"/>
			<path d="M216.99-264.34c-7,0-7,10,0,10C222.99-254.34,222.99-264.34,216.99-264.34z"/>
			<path d="M356.99-228.49c-6,0-6,10,0,10C363.99-218.49,363.99-228.49,356.99-228.49z"/>
			<path d="M353.99-279.43c-7,0-7,10,0,10C359.99-269.43,359.99-279.43,353.99-279.43z"/>
			<path d="M339.01-270.31c-1.48-2.54-4.37-2.9-6.84-1.79c-3.47,1.55-6.94,3.11-10.4,4.66c-2.46,1.1-3.05,4.69-1.79,6.84
				c1.48,2.54,4.37,2.9,6.84,1.79c3.47-1.55,6.94-3.11,10.4-4.66C339.68-264.57,340.27-268.16,339.01-270.31z"/>
			<path d="M211.67-208.35c-7.27,1.35-14.55,2.7-21.82,4.05c-6.32,1.17-3.64,10.81,2.66,9.64c7.27-1.35,14.55-2.7,21.82-4.05
				C220.65-199.88,217.97-209.52,211.67-208.35z"/>
			<path d="M328.99-187.92c-6,0-6,10,0,10S334.99-187.92,328.99-187.92z"/>
			<path d="M220.02-297.4c-7.88-2.15-15.75-4.29-23.63-6.44c-6.22-1.69-8.87,7.95-2.66,9.64c7.88,2.15,15.75,4.29,23.63,6.44
				C223.58-286.07,226.23-295.71,220.02-297.4z"/>
			<path d="M357.99-340.75c-6,0-6,10,0,10C364.99-330.75,364.99-340.75,357.99-340.75z"/>
			<path d="M300.55-343.16c-3.47-2.82-6.93-5.65-10.4-8.47c-2.09-1.7-5.02-2.05-7.07,0c-1.76,1.76-2.1,5.36,0,7.07
				c3.47,2.82,6.93,5.65,10.4,8.47c2.09,1.7,5.02,2.05,7.07,0C302.31-337.85,302.65-341.45,300.55-343.16z"/>
			<path d="M263.68-169.48c-2-1.83-5.09-1.98-7.07,0l-4.72,4.72c-1.85,1.85-1.99,5.24,0,7.07c2,1.83,5.09,1.98,7.07,0l4.72-4.72
				C265.53-164.26,265.67-167.65,263.68-169.48z"/>
			<path d="M165.42-252.84c-6.65,1.6-13.02,4.01-19.12,7.11c-5.74,2.91-0.68,11.54,5.05,8.63c5.35-2.71,10.9-4.69,16.73-6.1
				C174.33-244.71,171.68-254.35,165.42-252.84z"/>
			<path d="M161.99-326.6c-6,0-6,10,0,10S167.99-326.6,161.99-326.6z"/>
			<path d="M235.72-358.78c-0.31-0.94-0.63-1.89-0.94-2.83c-0.41-1.23-1.15-2.32-2.3-2.99c-1.07-0.63-2.65-0.89-3.85-0.5
				c-1.21,0.39-2.38,1.14-2.99,2.3c-0.61,1.15-0.93,2.57-0.5,3.85c0.31,0.94,0.63,1.89,0.94,2.83c0.41,1.23,1.15,2.32,2.3,2.99
				c1.07,0.63,2.65,0.89,3.85,0.5c1.21-0.39,2.38-1.14,2.99-2.3C235.82-356.08,236.14-357.5,235.72-358.78z"/>
			<path d="M397.99-227.55c-7,0-7,10,0,10C403.99-217.55,403.99-227.55,397.99-227.55z"/>
			<path d="M452.7-290.86c-0.88-2.73-3.4-4.04-6.15-3.49l-4.72,0.94c-2.57,0.51-4.28,3.71-3.49,6.15c0.88,2.73,3.4,4.04,6.15,3.49
				c1.57-0.31,3.14-0.63,4.72-0.94C451.78-285.22,453.49-288.42,452.7-290.86z"/>
			<path d="M308.02-234.57c-2-1.83-5.09-1.98-7.07,0c-1.26,1.26-2.52,2.52-3.77,3.77c-1.85,1.85-1.99,5.24,0,7.07
				c2,1.83,5.09,1.98,7.07,0c1.26-1.26,2.52-2.52,3.77-3.77C309.87-229.35,310.01-232.75,308.02-234.57z"/>
			<path d="M144.68-174.9c-2.84-2.19-5.68-4.38-8.52-6.57c-2.14-1.65-5.6-0.33-6.84,1.79c-1.51,2.58-0.35,5.19,1.79,6.84
				c2.84,2.19,5.68,4.38,8.52,6.57c2.14,1.65,5.6,0.33,6.84-1.79C147.98-170.64,146.82-173.24,144.68-174.9z"/>
			<path d="M103.99-226.6c-2.71,0.12-5,2.2-5,5v5.66c0,2.62,2.3,5.12,5,5c2.71-0.12,5-2.2,5-5v-5.66
				C108.99-224.22,106.69-226.72,103.99-226.6z"/>
			<path d="M114.99-304.91c-7,0-7,10,0,10C120.99-294.91,120.99-304.91,114.99-304.91z"/>
			<path d="M128.99-273.77c-6,0-6,10,0,10S134.99-273.77,128.99-273.77z"/>
			<path d="M186.99-142.64c-7,0-7,10,0,10C192.99-132.64,192.99-142.64,186.99-142.64z"/>
			<path d="M354.99-156.79c-6,0-6,10,0,10C361.99-146.79,361.99-156.79,354.99-156.79z"/>
			<path d="M470.9-233.01c-8.22-1.72-16.52-2.75-24.91-3.07c-6.44-0.24-6.43,9.76,0,10c7.51,0.28,14.89,1.17,22.25,2.71
				C474.52-222.06,477.21-231.7,470.9-233.01z"/>
			<path d="M402.99-197.36c-7,0-7,10,0,10C408.99-187.36,408.99-197.36,402.99-197.36z"/>
			<path d="M185.99-386.98c-7,0-7,10,0,10C191.99-376.98,191.99-386.98,185.99-386.98z"/>
			<path d="M396.99-307.74c-6,0-7,10,0,10C402.99-297.74,402.99-307.74,396.99-307.74z"/>
			<path d="M415.99-364.34c-7,0-7,10,0,10C421.99-354.34,421.99-364.34,415.99-364.34z"/>
			<path d="M376.98-360.15c-6.41-5.72-13.4-10.66-20.98-14.71c-5.68-3.03-10.73,5.6-5.05,8.63c6.84,3.65,13.16,7.99,18.96,13.15
				C374.7-348.81,381.8-355.86,376.98-360.15z"/>
		</g>
		<g>
			<path d="M75.36-355.66c-6,0-6,10,0,10C82.36-345.66,82.36-355.66,75.36-355.66z"/>
			<path d="M72.36-406.6c-7,0-7,10,0,10C78.36-396.6,78.36-406.6,72.36-406.6z"/>
			<path d="M57.38-397.48c-1.48-2.54-4.37-2.9-6.84-1.79c-3.47,1.55-6.94,3.11-10.4,4.66c-2.46,1.1-3.05,4.69-1.79,6.84
				c1.48,2.54,4.37,2.9,6.84,1.79c3.47-1.55,6.94-3.11,10.4-4.66C58.05-391.74,58.63-395.33,57.38-397.48z"/>
			<path d="M47.36-315.09c-6,0-6,10,0,10S53.36-315.09,47.36-315.09z"/>
			<path d="M76.36-467.92c-6,0-6,10,0,10C83.36-457.92,83.36-467.92,76.36-467.92z"/>
			<path d="M18.92-470.33c-3.47-2.82-6.93-5.65-10.4-8.47c-2.09-1.7-5.02-2.05-7.07,0c-1.76,1.76-2.1,5.36,0,7.07
				c3.47,2.82,6.93,5.65,10.4,8.47c2.09,1.7,5.02,2.05,7.07,0C20.68-465.02,21.02-468.62,18.92-470.33z"/>
			<path d="M116.36-354.72c-7,0-7,10,0,10C122.36-344.72,122.36-354.72,116.36-354.72z"/>
			<path d="M171.07-418.03c-0.88-2.73-3.4-4.04-6.15-3.49l-4.72,0.94c-2.57,0.51-4.28,3.71-3.49,6.15c0.88,2.73,3.4,4.04,6.15,3.49
				c1.57-0.31,3.14-0.63,4.72-0.94C170.14-412.39,171.86-415.59,171.07-418.03z"/>
			<path d="M26.39-361.74c-2-1.83-5.09-1.98-7.07,0c-1.26,1.26-2.52,2.52-3.77,3.77c-1.85,1.85-1.99,5.24,0,7.07
				c2,1.83,5.09,1.98,7.07,0c1.26-1.26,2.52-2.52,3.77-3.77C28.24-356.52,28.38-359.92,26.39-361.74z"/>
			<path d="M73.36-283.96c-6,0-6,10,0,10C80.36-273.96,80.36-283.96,73.36-283.96z"/>
			<path d="M189.27-360.18c-8.22-1.72-16.52-2.75-24.91-3.07c-6.44-0.24-6.43,9.76,0,10c7.51,0.28,14.89,1.17,22.25,2.71
				C192.89-349.23,195.58-358.87,189.27-360.18z"/>
			<path d="M121.36-324.53c-7,0-7,10,0,10C127.36-314.53,127.36-324.53,121.36-324.53z"/>
			<path d="M115.36-434.91c-6,0-7,10,0,10C121.36-424.91,121.36-434.91,115.36-434.91z"/>
			<path d="M134.36-491.51c-7,0-7,10,0,10C140.36-481.51,140.36-491.51,134.36-491.51z"/>
			<path d="M95.35-487.32c-6.41-5.72-13.4-10.66-20.98-14.71c-5.68-3.03-10.73,5.6-5.05,8.63c6.84,3.65,13.16,7.99,18.96,13.15
				C93.07-475.98,100.17-483.03,95.35-487.32z"/>
		</g>
		<g>
			<path d="M246.99-492.26c-6,0-7,10,0,10C252.99-482.26,252.99-492.26,246.99-492.26z"/>
			<path d="M216.99-518.68c-7,0-7,10,0,10C222.99-508.68,222.99-518.68,216.99-518.68z"/>
			<path d="M356.99-482.83c-6,0-6,10,0,10C363.99-472.83,363.99-482.83,356.99-482.83z"/>
			<path d="M339.01-524.65c-1.48-2.54-4.37-2.9-6.84-1.79c-3.47,1.55-6.94,3.11-10.4,4.66c-2.46,1.1-3.05,4.69-1.79,6.84
				c1.48,2.54,4.37,2.9,6.84,1.79c3.47-1.55,6.94-3.11,10.4-4.66C339.68-518.91,340.27-522.5,339.01-524.65z"/>
			<path d="M211.67-462.69c-7.27,1.35-14.55,2.7-21.82,4.05c-6.32,1.17-3.64,10.81,2.66,9.64c7.27-1.35,14.55-2.7,21.82-4.05
				C220.65-454.22,217.97-463.86,211.67-462.69z"/>
			<path d="M328.99-442.26c-6,0-6,10,0,10S334.99-442.26,328.99-442.26z"/>
			<path d="M263.68-423.82c-2-1.83-5.09-1.98-7.07,0l-4.72,4.72c-1.85,1.85-1.99,5.24,0,7.07c2,1.83,5.09,1.98,7.07,0l4.72-4.72
				C265.53-418.6,265.67-421.99,263.68-423.82z"/>
			<path d="M165.42-507.18c-6.65,1.6-13.02,4.01-19.12,7.11c-5.74,2.91-0.68,11.54,5.05,8.63c5.35-2.71,10.9-4.69,16.73-6.1
				C174.33-499.04,171.68-508.69,165.42-507.18z"/>
			<path d="M397.99-481.89c-7,0-7,10,0,10C403.99-471.89,403.99-481.89,397.99-481.89z"/>
			<path d="M308.02-488.91c-2-1.83-5.09-1.98-7.07,0c-1.26,1.26-2.52,2.52-3.77,3.77c-1.85,1.85-1.99,5.24,0,7.07
				c2,1.83,5.09,1.98,7.07,0c1.26-1.26,2.52-2.52,3.77-3.77C309.87-483.69,310.01-487.09,308.02-488.91z"/>
			<path d="M144.68-429.23c-2.84-2.19-5.68-4.38-8.52-6.57c-2.14-1.65-5.6-0.33-6.84,1.79c-1.51,2.58-0.35,5.19,1.79,6.84
				c2.84,2.19,5.68,4.38,8.52,6.57c2.14,1.65,5.6,0.33,6.84-1.79C147.98-424.98,146.82-427.58,144.68-429.23z"/>
			<path d="M103.99-480.94c-2.71,0.12-5,2.2-5,5v5.66c0,2.62,2.3,5.12,5,5c2.71-0.12,5-2.2,5-5v-5.66
				C108.99-478.56,106.69-481.06,103.99-480.94z"/>
			<path d="M186.99-396.98c-7,0-7,10,0,10C192.99-386.98,192.99-396.98,186.99-396.98z"/>
			<path d="M354.99-411.13c-6,0-6,10,0,10C361.99-401.13,361.99-411.13,354.99-411.13z"/>
			<path d="M470.9-487.35c-8.22-1.72-16.52-2.75-24.91-3.07c-6.44-0.24-6.43,9.76,0,10c7.51,0.28,14.89,1.17,22.25,2.71
				C474.52-476.4,477.21-486.04,470.9-487.35z"/>
			<path d="M402.99-451.7c-7,0-7,10,0,10C408.99-441.7,408.99-451.7,402.99-451.7z"/>
		</g>
	</g>
</pattern>
<rect y="-1.34" class="st1" width="800" height="801.34"/>
<g>
	<defs>
		<rect id="SVGID_1_" y="-1.34" width="800" height="801.34"/>
	</defs>
	<clipPath id="SVGID_2_">
		<use xlink:href="#SVGID_1_"  style="overflow:visible;"/>
	</clipPath>
	<polygon class="st2" points="111.37,6.57 143.56,13.38 157.46,21.08 165,43.67 165,56 164.34,72.33 138.35,84.01 131.26,88.33 
		127.39,109.92 93.77,123.6 86.72,146.29 48.5,155 45,180.32 -35,212.68 -35,224 48,239.35 48,265 70,265 83.08,280.44 
		91.17,301.69 108.91,305.97 121.32,335 164.34,347 164.56,366.8 165,385 159,396.43 131.26,402.19 127.39,428.11 93.77,436.54 
		92.77,459.67 48,470.36 48,495 -36.58,530.82 49.78,557.35 48.5,582.93 167.48,684 164.56,713.28 131.26,718.19 130.32,740.68 
		101.04,754.32 90.33,775.08 51.28,787.87 48.5,816.6 147.01,844.3 355.39,683.28 268.67,658.38 264.45,628.55 222.71,621.07 
		222.67,597.99 187.82,587.51 184.46,560 151.5,551.45 152.55,527.07 355.39,373.67 346.33,363 266.5,339.75 264.45,310.55 
		222.09,301.69 221.95,274.11 185.1,264.93 184.46,242.85 154,236.49 154,199 358.5,47 267.38,21.01 266.5,-1.34 222.71,-13.03 
		221.95,-42.17 115,-13.03 	"/>
	<path class="st3" d="M360.02,483.92c2.92-0.7,4.98-3.32,4.98-6.32V368.77c0.33-0.82,0.52-1.71,0.5-2.63
		c-0.06-2.26-1.29-4.26-3.16-5.38c-0.98-0.72-2.17-1.17-3.46-1.24L273,334.86v-23.82c0-3.15-2.26-5.84-5.35-6.4l-0.89-0.16
		c-0.75-0.29-1.56-0.44-2.39-0.43l-35.67-6.39l0.55-20.48c0.08-2.86-1.73-5.38-4.37-6.3c-0.16-0.06-0.33-0.11-0.49-0.15
		c-0.09-0.02-0.18-0.06-0.27-0.08l-32.24-6.91l3.05-19.01c0.55-3.43-1.69-6.68-5.09-7.39L158,230.68v-17.23l202.02-48.53
		c2.92-0.7,4.98-3.32,4.98-6.32V49.77c0.33-0.82,0.52-1.71,0.5-2.63c-0.06-2.26-1.29-4.26-3.16-5.38c-0.98-0.72-2.17-1.17-3.46-1.24
		L273,15.86V-7.96c0-3.15-2.26-5.84-5.35-6.4l-0.9-0.16c-0.75-0.29-1.55-0.43-2.38-0.43l-35.68-6.39l0.55-20.48
		c0.08-2.86-1.73-5.38-4.38-6.3c-0.15-0.05-0.31-0.1-0.46-0.14c-0.1-0.03-0.19-0.07-0.29-0.09l-32.24-6.91l3.05-19.01
		c0.55-3.43-1.69-6.68-5.09-7.39L158-88.32v-20.3c0-0.76-0.13-1.51-0.39-2.21c0.03-0.28,0.06-0.56,0.05-0.84
		c-0.07-2.9-2.05-5.4-4.85-6.13L51.76-144.29c-1.29-0.34-2.66-0.27-3.92,0.2l-90.43,33.66c-0.3-0.04-0.6-0.07-0.91-0.07
		c-3.59,0-6.5,2.91-6.5,6.5V-0.72c0,3.01,2.06,5.62,4.99,6.32L158,54.16V71l-32.02,6.65c-3.38,0.7-5.63,3.93-5.1,7.35l2.92,19.05
		l-32.37,6.93c-3.05,0.65-5.2,3.37-5.14,6.49l0.41,20.51l-39.34,6.99c-3.1,0.55-5.36,3.25-5.36,6.4v25.73l-84.59,31.49
		c-0.3-0.04-0.6-0.07-0.91-0.07c-3.59,0-6.5,2.91-6.5,6.5v103.28c0,3.01,2.06,5.62,4.99,6.32L158,373.16V390l-32.02,6.65
		c-3.38,0.7-5.63,3.93-5.1,7.35l2.92,19.05l-32.37,6.92c-3.05,0.65-5.2,3.37-5.14,6.49l0.41,20.51l-39.34,6.99
		c-3.1,0.55-5.36,3.25-5.36,6.4v25.34l-84.21,25.93c-0.42-0.08-0.85-0.13-1.29-0.13c-3.59,0-6.5,2.91-6.5,6.5v108.28
		c0,3.01,2.06,5.62,4.99,6.32L158,691.16V708l-32.02,6.65c-3.38,0.7-5.63,3.93-5.1,7.35l2.92,19.05l-32.37,6.92
		c-3.05,0.65-5.2,3.37-5.14,6.49l0.41,20.51l-39.34,6.99c-3.1,0.55-5.36,3.25-5.36,6.4v28.24c0,2.91,1.94,5.47,4.74,6.26
		l100.74,28.33c0.96,0.54,2.05,0.84,3.18,0.84c0.06,0,0.11-0.01,0.17-0.01c0.22,0.02,0.45,0.05,0.67,0.05c1.08,0,2.15-0.28,3.11-0.8
		l205.41-49.35c2.92-0.7,4.98-3.32,4.98-6.32V686.77c0.33-0.82,0.52-1.71,0.5-2.63c-0.06-2.26-1.29-4.26-3.16-5.38
		c-0.98-0.72-2.17-1.17-3.46-1.24L273,652.86v-23.82c0-3.15-2.26-5.84-5.35-6.4l-0.89-0.16c-0.75-0.29-1.56-0.44-2.38-0.43
		l-35.68-6.39l0.55-20.48c0.08-2.87-1.74-5.39-4.4-6.3c-0.14-0.05-0.27-0.09-0.41-0.13c-0.11-0.03-0.21-0.08-0.32-0.1l-32.24-6.91
		l3.05-19.01c0.55-3.43-1.69-6.68-5.09-7.39L158,548.68v-16.23L360.02,483.92z M180.46,570.83l-1.74,10.84l-88.14,25.18l1.35-9.53
		L180.46,570.83z M215.68,616.12l-88.62,25.68l0.44-12.84l88.52-25.29L215.68,616.12z M99.71,775.34l-0.25-12.42l88.71,25.34
		l0.53,12.87L99.71,775.34z M136.94,740.97l-1.66-10.82l88.18,26.4l1.42,9.55L136.94,740.97z M260,733.79l-89-25.43V696.3
		l87.87,24.95l1.13,0.36V733.79z M42,564.34l-0.93-2.87l0.93,0.29V564.34z M260,651.87l-89,24.42v-13.31l89-26.34V651.87z
		 M55,562.52l7.54-2.37L145,536.96v12.01l-90,25.71V562.52z M55,493.68v-15.93l90,26.64v12.84l-60.6-15.28L55,493.68z M99.71,457.34
		l-0.25-12.42l88.71,25.34l0.53,12.87L99.71,457.34z M136.94,422.97l-1.66-10.82l88.18,26.4l1.42,9.55L136.94,422.97z M55,174.67
		v-15.93l90,26.64v13.76l-43.68-11.45L55,174.67z M99.71,138.34l-0.25-12.42l88.71,25.34l0.53,12.87L99.71,138.34z M136.94,103.97
		l-1.66-10.82l88.18,26.4l1.42,9.55L136.94,103.97z M145-100.04v12.01L55-62.32v-12.16l7.52-2.36L145-100.04z M180.46-66.17
		l-1.74,10.84L90.58-30.14l1.35-9.53L180.46-66.17z M215.68-20.88L127.06,4.81l0.44-12.84l88.52-25.29L215.68-20.88z M260,14.87
		l-89,24.42V25.99l89-26.34V14.87z M42-74.66l-0.09-0.29L42-74.92V-74.66z M171,59.3l87.87,24.95l1.13,0.36v12.18l-89-25.43V59.3z
		 M145,218.96v12.01l-90,25.71v-12.16l7.52-2.36L145,218.96z M180.46,252.83l-1.74,10.84l-88.14,25.18l1.35-9.53L180.46,252.83z
		 M215.68,298.12l-88.62,25.68l0.44-12.84l88.52-25.29L215.68,298.12z M260,333.87l-89,24.42v-13.31l89-26.34V333.87z M42,244.34
		l-0.09-0.29l0.09,0.02V244.34z M171,378.3l87.87,24.95l1.13,0.36v12.18l-89-25.43V378.3z M266,391.76l-3.41-0.97l-72.95-22.93
		l76.03-21.59l71.84,20.63L266,391.76z M236.03,312.18l-71.63,21.2l-14.6-2.63l72.54-21.02L236.03,312.18z M195.92,277.9
		l-74.89,21.4l-11.24-2.4l74.91-21.4L195.92,277.9z M161.98,244.79l-73.12,21.89c-0.4-0.17-0.81-0.3-1.25-0.39l-11.03-2.25
		l74.97-21.42L161.98,244.79z M266,72.76l-3.41-0.97l-72.95-22.93l76.03-21.59l71.84,20.63L266,72.76z M236.03-6.82l-71.63,21.2
		l-14.6-2.63l72.54-21.02L236.03-6.82z M195.92-41.1l-74.89,21.4l-11.24-2.4l74.91-21.4L195.92-41.1z M161.98-74.21L88.86-52.32
		c-0.4-0.17-0.81-0.3-1.25-0.39l-11.03-2.25l74.97-21.42L161.98-74.21z M50.45-131.19l77.23,20.24L58.81-89.31l-9.79,2.75
		l-70.49-17.87L50.45-131.19z M164.29,82.97l74.66,21.33l-11.2,2.31c-0.38,0.08-0.74,0.19-1.08,0.33l-72.82-21.8L164.29,82.97z
		 M130.99,115.79l74.9,21.4l-11.23,2.41l-74.91-21.4L130.99,115.79z M93.24,150.01l72.76,21.09l-14.58,2.64l-71.92-21.28
		L93.24,150.01z M50.45,187.81l47.45,12.43l28.83,8.11l-67.91,21.34l-9.79,2.75l-70.49-17.87L50.45,187.81z M164.29,401.97
		l74.66,21.33l-11.21,2.31c-0.38,0.08-0.74,0.19-1.08,0.33l-72.83-21.8L164.29,401.97z M130.99,434.79l74.9,21.4l-11.23,2.41
		l-74.91-21.4L130.99,434.79z M93.24,469l72.76,21.09l-14.58,2.64l-71.92-21.28L93.24,469z M50.28,506.75l30.79,7.76l43.97,12.37
		L58.8,547.7l-9.55,2.69l-70.42-21.63L50.28,506.75z M164.29,719.97l74.66,21.33l-11.21,2.31c-0.38,0.08-0.74,0.19-1.08,0.33
		l-72.83-21.8L164.29,719.97z M130.99,752.79l74.9,21.4l-11.23,2.41l-74.91-21.4L130.99,752.79z M93.24,787l72.76,21.09l-14.58,2.64
		l-71.92-21.28L93.24,787z M55,795.75l90,26.64v14.6l-90-25.31V795.75z M266,709.76l-3.41-0.97l-72.95-22.93l76.03-21.59
		l71.84,20.63L266,709.76z M236.03,630.18l-71.63,21.2l-14.6-2.63l72.54-21.02L236.03,630.18z M195.92,595.9l-74.89,21.4l-11.24-2.4
		l74.91-21.4L195.92,595.9z M161.98,562.79l-73.12,21.89c-0.4-0.17-0.81-0.3-1.25-0.39l-11.03-2.25l74.97-21.42L161.98,562.79z"/>
	<polygon class="st2" points="605.55,481.2 633.91,436.42 632.9,236.02 607.67,153.69 565.55,79.68 558,109.11 558,443 	"/>
	<path class="st3" d="M644.79,324.83l-0.83-6.49l0.15-6.22l0.53-7.01c0.02-0.23,0.03-0.45,0.03-0.68l0.07-7.28
		c0-0.18,0-0.36-0.01-0.55l-0.3-7.2l-0.36-14.1l0.29-6.95c0.01-0.28,0.01-0.57,0-0.85l-0.29-7.28c0-0.05,0-0.1-0.01-0.15l-0.36-6.72
		l0.35-6.73c0.02-0.42,0.02-0.84-0.01-1.25l-0.49-7.27c-0.01-0.09-0.01-0.19-0.02-0.28l-0.68-7.17c-0.01-0.14-0.03-0.27-0.05-0.4
		l-0.96-7.15l-2-14.32c-0.01-0.09-0.03-0.18-0.04-0.27l-1.21-7.13c-0.1-0.59-0.25-1.16-0.44-1.72l-2.39-6.82
		c-0.02-0.06-0.04-0.12-0.06-0.17l-2.5-6.76c-0.03-0.08-0.06-0.15-0.09-0.23l-2.55-6.43l-2.22-6.57c-0.1-0.29-0.21-0.58-0.34-0.86
		l-5.83-13.21c-0.02-0.05-0.04-0.09-0.06-0.14l-3.02-6.55c-0.17-0.37-0.37-0.73-0.58-1.08l-3.72-6.08l-3.36-5.7l-2.87-6.11
		c-0.28-0.59-0.61-1.15-0.99-1.68l-4.22-5.86c-0.02-0.03-0.04-0.05-0.06-0.08l-3.95-5.37l-3.37-5.76c-0.13-0.22-0.27-0.44-0.42-0.65
		l-4.09-5.94c-0.09-0.13-0.19-0.27-0.29-0.4l-4.36-5.75c-0.09-0.12-0.18-0.23-0.27-0.34l-4.48-5.42l-4.29-5.57
		c-0.06-0.07-0.11-0.14-0.17-0.21l-4.55-5.6c-0.21-0.26-0.43-0.51-0.67-0.75l-9.86-10.02l-4.64-5.43
		c-2.99-3.49-7.89-4.64-12.12-2.83c-4.22,1.81-6.78,6.15-6.31,10.73l2.1,21.11l-0.09,6.57c-0.01,0.43,0.02,0.85,0.06,1.28l0.7,6.45
		l-0.13,6.49c-0.01,0.47,0.03,0.93,0.09,1.4l0.78,6.5l0.04,6.54c0,0.07,0,0.14,0,0.21l-0.02,7.16c0,0.24-0.09,0.48-0.07,0.71
		l0.52,6.58l-0.19,6.6c-0.01,0.34,0,0.69,0.02,1.03l0.47,6.86l0.16,13.98c0,0.08,0,0.16,0,0.24l0.23,7.16c0,0.1,0.01,0.21,0.01,0.31
		l0.38,6.32l-0.63,6.33c-0.06,0.58-0.07,1.17-0.03,1.75l0.48,7.09l0.37,6.5l-0.38,6.57c-0.02,0.27-0.02,0.55-0.02,0.82l0.15,7.16
		c0,0.04,0,0.09,0,0.13l0.24,7.08l0.12,6.66l-0.42,6.74c0,0.04,0,0.08-0.01,0.12l-0.36,7.16c-0.02,0.48-0.02,0.95,0.02,1.43
		l0.53,6.17l-0.65,6.16c-0.05,0.48-0.07,0.97-0.05,1.45l0.24,7.01l0.07,14.06l-0.14,7.03c-0.01,0.31,0,0.61,0.02,0.92l0.42,6.23
		l-0.71,6.21c-0.07,0.61-0.09,1.22-0.05,1.83l0.42,6.89l0.05,6.18l-0.82,6.45c-0.06,0.47-0.09,0.94-0.08,1.41l0.05,7l-0.17,7
		c0,0.17,0,0.34,0,0.5l0.17,6.89l-0.2,6.88c-0.01,0.25-0.01,0.5,0,0.75l0.29,6.86l-0.1,6.4l-0.7,6.69
		c-0.05,0.52-0.07,1.05-0.04,1.58l0.32,6.84l-0.11,6.55l-0.48,6.88c-0.01,0.12-0.01,0.23-0.02,0.35l-0.26,7.16
		c-0.01,0.23-0.01,0.46,0,0.68l0.19,6.68l-0.43,6.67c-0.01,0.2-0.02,0.41-0.02,0.61l-0.04,7.16c0,0.12,0,0.24,0,0.36l0.18,6.5
		l-0.65,6.48c-0.04,0.36-0.08,0.73-0.08,1.09l-0.02,7.1l-0.16,7.1c0,0.05,0,0.09,0,0.14l0.17,6.32l-0.86,6.29
		c-0.08,0.52-0.12,1.04-0.12,1.57l-0.15,21.07l-0.53,6.78c-0.03,0.32-0.04,0.64-0.03,0.96l0.09,7.12c0.05,4.1,2.49,7.79,6.24,9.46
		l5.69,2.53l4.69,3.69c-0.45,0.88-0.79,1.82-0.98,2.82c-0.23-0.02-0.46-0.03-0.69-0.03c-5.8,0-10.5,4.7-10.5,10.5v13.1
		c0,4.84,3.31,9.05,8.01,10.2l6.53,1.59c-1.4,1.24-2.46,2.85-3.04,4.66c-0.33-0.03-0.67-0.05-1.01-0.05c-5.8,0-10.5,4.7-10.5,10.5
		v14.18c0,4.87,3.35,9.1,8.09,10.22l6.5,1.53c-1.89,1.65-3.16,3.96-3.5,6.55l-0.11,0.04c-0.16-0.01-0.32-0.02-0.49-0.02
		c-5.8,0-10.5,4.7-10.5,10.5v12.89c0,4.83,3.29,9.03,7.98,10.19l6.55,1.62c-1.69,1.51-2.89,3.54-3.33,5.83
		c-0.23-0.02-0.46-0.04-0.69-0.04c-5.8,0-10.5,4.7-10.5,10.5v13.1c0,4.84,3.31,9.06,8.01,10.2l6.53,1.59
		c-1.4,1.24-2.46,2.84-3.04,4.66c-0.33-0.03-0.67-0.05-1.01-0.05c-5.8,0-10.5,4.7-10.5,10.5v14.19c0,4.87,3.35,9.1,8.09,10.22
		l6.5,1.53c-2.21,1.94-3.59,4.77-3.59,7.9v3.65c0,4.75,3.2,8.92,7.79,10.14l10.11,2.7c1.68,1.1,3.67,1.72,5.74,1.72
		c0.85,0,1.71-0.1,2.58-0.32l26.85-6.77c4.66-1.18,7.93-5.37,7.93-10.18v-5.85c2.78-1.99,4.47-5.27,4.38-8.81
		c-0.13-4.57-3.2-8.54-7.6-9.8l-5.64-1.62c-0.74-1.55-1.82-2.86-3.14-3.86l3.91-0.92c4.74-1.12,8.1-5.35,8.1-10.22v-5.85
		c2.78-2,4.47-5.27,4.38-8.81c-0.13-4.57-3.2-8.54-7.6-9.8l-5.64-1.62c-0.76-1.6-1.89-2.94-3.25-3.94l4.06-0.97
		c4.72-1.13,8.06-5.35,8.06-10.21v-5.85c2.78-1.99,4.47-5.27,4.38-8.81c-0.13-4.57-3.2-8.54-7.6-9.8l-5.64-1.62
		c-0.84-1.77-2.14-3.23-3.71-4.26l4.64-1.17c4.66-1.18,7.93-5.37,7.93-10.18v-5.85c2.78-2,4.47-5.27,4.38-8.81
		c-0.13-4.57-3.2-8.54-7.6-9.8l-5.64-1.62c-0.74-1.55-1.82-2.86-3.14-3.85l3.91-0.92c4.74-1.12,8.09-5.35,8.09-10.22v-5.85
		c2.78-1.99,4.47-5.27,4.38-8.81c-0.13-4.57-3.2-8.54-7.6-9.8l-5.64-1.62c-0.76-1.6-1.89-2.94-3.25-3.94l4.06-0.97
		c4.72-1.13,8.06-5.35,8.06-10.21v-5.85c2.78-1.99,4.47-5.27,4.38-8.81c-0.09-3.43-1.85-6.52-4.57-8.38l0.54-5.35
		c0.03-0.31,0.05-0.62,0.05-0.93l0.07-6.11l1-5.84l1.29-6.28l0.52-1.88c0.79-1.36,1.25-2.88,1.37-4.45l2.17-4.74
		c0.07-0.15,0.14-0.31,0.2-0.46l2.13-5.3l3.28-4.69c0.1-0.14,0.19-0.28,0.28-0.42l3.19-5.07l3.71-4.13l4.73-4.45
		c2.24-2.1,3.44-5.08,3.29-8.15l-0.34-7.04l0.08-6.74l0.38-7.05c0.02-0.33,0.02-0.67,0.01-1.01l-0.28-6.86l0.26-6.51l0.73-6.93
		c0.08-0.75,0.08-1.5-0.01-2.24l-0.72-6.55l0.2-6.54c0.01-0.2,0.01-0.4,0-0.6l-0.19-7.11l0.04-6.97l0.22-7l0.42-7.14
		c0.02-0.27,0.02-0.54,0.02-0.82l-0.14-7.07l0.14-7.07c0-0.11,0-0.22,0-0.32l-0.07-6.87l0.46-6.87
		C644.89,326.19,644.87,325.51,644.79,324.83z M623.45,340.67l-0.15,7.12c0,0.14,0,0.28,0,0.42l0.14,6.87l-0.4,6.87
		c0,0.09-0.01,0.18-0.01,0.27l-0.23,7.28c0,0.09,0,0.19,0,0.28l-0.04,7.28c0,0.11,0,0.22,0,0.33l0.19,6.98l-0.22,6.97
		c-0.01,0.49,0,0.98,0.06,1.47l0.68,6.16l-0.64,6.15c-0.02,0.23-0.04,0.45-0.05,0.68l-0.29,7.27c-0.01,0.28-0.01,0.57,0,0.85
		l0.28,6.78l-0.37,6.77c-0.01,0.15-0.01,0.29-0.01,0.44l-0.09,7.28c0,0.21,0,0.42,0.01,0.64l0.12,2.52l-1.53,1.43
		c-0.21,0.2-0.42,0.41-0.61,0.62l-4.61,5.12c-0.4,0.45-0.76,0.92-1.08,1.43l-3.54,5.62l-3.83,5.48c-0.46,0.66-0.84,1.36-1.14,2.11
		l-2.31,5.76l-3.57-1.28l-5.12-2.95l-5.15-3.76l-4.87-4.24l-4.5-4.72l-4.37-5.29l-4.31-5.48l-3.66-5.2l-2.91-5.72l-2.29-5.02
		l0.17-2.66c0.02-0.32,0.03-0.65,0.02-0.97l-0.2-6.83l0.24-6.64l0.49-6.98c0.01-0.18,0.02-0.37,0.02-0.55l0.12-7.16
		c0-0.22,0-0.44-0.01-0.67l-0.3-6.38l0.66-6.36c0.03-0.31,0.05-0.61,0.06-0.92l0.12-7.16c0-0.2,0-0.41-0.01-0.61l-0.28-6.8l0.2-6.79
		c0.01-0.19,0.01-0.38,0-0.56l-0.17-6.92l0.17-6.91c0-0.11,0-0.22,0-0.33l-0.05-6.46l0.82-6.45c0.06-0.47,0.09-0.94,0.08-1.41
		l-0.05-7.17c0-0.19-0.01-0.37-0.02-0.56l-0.38-6.25l0.71-6.24c0.07-0.63,0.09-1.26,0.04-1.89l-0.45-6.72l0.14-6.71
		c0-0.09,0-0.19,0-0.28l-0.07-14.3c0-0.1,0-0.21-0.01-0.31l-0.22-6.44l0.68-6.43c0.07-0.66,0.08-1.33,0.02-1.99l-0.55-6.45
		l0.32-6.38l0.44-7.1c0.02-0.28,0.02-0.56,0.02-0.84l-0.13-7.16c0-0.05,0-0.11,0-0.16l-0.24-7.09l-0.14-6.68l0.39-6.75
		c0.02-0.4,0.02-0.79,0-1.19l-0.4-7.16c0-0.04,0-0.08-0.01-0.13l-0.43-6.28l0.63-6.29c0.06-0.56,0.07-1.12,0.03-1.68l-0.43-7.01
		l-0.22-6.88l-0.16-14.25c0-0.19-0.01-0.39-0.02-0.58l-0.46-6.64l0.19-6.65c0.01-0.38,0-0.76-0.03-1.13l-0.54-6.79l-0.07-6.7
		l0.06-7.06c0-0.42-0.02-0.84-0.06-1.26l-0.72-6.44l0.14-6.47c0.01-0.45-0.01-0.91-0.06-1.36l-0.54-4.95l2.89,3.75
		c0.08,0.1,0.15,0.19,0.23,0.29l4.46,5.39l4.08,5.38l3.73,5.42l3.45,5.9c0.18,0.31,0.38,0.62,0.6,0.91l4.24,5.77l3.62,5.03
		l2.66,5.68c0.14,0.3,0.29,0.59,0.46,0.87l3.65,6.21c0.03,0.05,0.06,0.1,0.09,0.15l3.45,5.63l2.73,5.92l5.59,12.65l2.16,6.39
		c0.06,0.17,0.12,0.34,0.19,0.51l2.61,6.57l2.43,6.56l2.07,5.89l1.03,6.12l0.99,6.93l1.9,14.02l0.65,6.83l0.44,6.5l-0.35,6.66
		c-0.02,0.37-0.02,0.74,0,1.11l0.39,7.2l0.27,6.78l-0.29,6.86c-0.01,0.22-0.01,0.45-0.01,0.67l0.37,14.62c0,0.05,0,0.1,0.01,0.15
		l0.3,7.01l-0.07,6.67l-0.52,6.94c-0.01,0.18-0.02,0.36-0.03,0.53l-0.17,7.28c-0.01,0.53,0.01,1.06,0.08,1.59l0.8,6.26l-0.42,6.25
		c-0.02,0.27-0.03,0.55-0.02,0.82L623.45,340.67z"/>
</g>
</svg>
