<svg xmlns="http://www.w3.org/2000/svg" viewBox="0 0 800 800"><defs><style>.a{fill:#fff;}.b{fill:none;stroke:#000;stroke-miterlimit:10;stroke-width:13px;}</style></defs><title>25l</title><rect class="a" width="800" height="800"/><path class="b" d="M234.91,373.61c.48-2.53-.69-5.17-.72-7.56,0-2.57.78-5.19.2-7.52a29.55,29.55,0,0,0-2.58-7.16,26.62,26.62,0,0,0-4.78-5.93c-1.76-1.71-4.37-2.39-6.63-3.53s-4.25-2.61-6.78-3.1c-.22,0-.27.2-.49.16a29.45,29.45,0,0,0-6.7-.22c-2.23.09-4.27,1-6.43,1.59s-4.49.58-6.48,1.6a30.86,30.86,0,0,0-5.72,3.55c-1.7,1.42-2.34,3.82-3.7,5.62s-3.28,3.09-4.2,5.18-2.44,4-2.87,6.24c-.65,3.39.9,3.68.25,7.07s-1.19,3.28-1.83,6.67-.46,3.42-1.11,6.81-1.19,3.29-1.84,6.68-1,3.32-1.66,6.71c-.44,2.31.31,4.77.38,7.08s-.43,4.81.12,7.06,1.94,4.34,2.92,6.44a34.73,34.73,0,0,0,3.93,5.73,32.46,32.46,0,0,0,4.38,5.37,29.12,29.12,0,0,0,5.54,4.32,25.56,25.56,0,0,0,6.64,2.55c.22,0,.45-1.13.67-1.09a21.86,21.86,0,0,0,7.61.52,23.62,23.62,0,0,0,7.33-2.39c2.25-1.18,4.93-2.08,6.86-3.9s3.17-4.18,4.64-6.39a38.66,38.66,0,0,0,3.73-6.88,40.93,40.93,0,0,0,2.53-7.46c.65-3.39,0-3.52.63-6.9s.62-3.39,1.26-6.78.57-3.4,1.22-6.79,1.34-3.19,2.28-6.52A53.3,53.3,0,0,0,234.91,373.61Z"/><path class="b" d="M248.79,426.62c.42-2.54,1.3-5.07,1.21-7.46a33.35,33.35,0,0,0-1.37-7.46,28.85,28.85,0,0,0-3.08-6.89,25.91,25.91,0,0,0-4.81-5.77,25,25,0,0,0-6.42-3.77,26.42,26.42,0,0,0-7-2.42c-.22,0-.27.27-.49.23a28.77,28.77,0,0,0-6.62-.1,29.61,29.61,0,0,0-6.47,1.25c-2.14.63-4.53.68-6.49,1.76s-3.36,3-5,4.45-4,2.42-5.31,4.25-1.18,4.4-2,6.51-2,3.92-2.32,6.2c-.56,3.4-.68,3.38-1.24,6.79s.36,3.55-.2,7-2,3.16-2.58,6.57.3,3.55-.26,7-.54,3.41-1.1,6.82c-.38,2.32-1.08,4.63-.95,6.93a34.33,34.33,0,0,0,1.15,6.94,36.19,36.19,0,0,0,2.37,6.64c1.05,2.1,3.38,3.35,4.8,5.17s1.92,4.65,3.69,6.12,4.32,2.08,6.4,3.08a24,24,0,0,0,6.64,1.85c.22,0,.25-.14.47-.11,2.65.43,5.15.91,7.65.44a23.55,23.55,0,0,0,7.06-3,28,28,0,0,0,6.37-4.33,34.1,34.1,0,0,0,4.52-6.27c1.35-2.16,3.27-4.13,4.19-6.61a41.11,41.11,0,0,0,1.66-7.66c.56-3.4-.2-3.53.35-6.93s.45-3.42,1-6.82.76-3.37,1.32-6.78.45-3.43,1.05-6.83S248.23,430,248.79,426.62Z"/><path class="b" d="M218.47,489c.29-2.56,1.33-5,1.13-7.42a32.88,32.88,0,0,0-1.65-7.34c-.79-2.42-2.72-4.22-4.05-6.24s-2-4.88-3.94-6.45-4.41-2.5-6.74-3.46a27.33,27.33,0,0,0-7.31-1.36c-.22,0-.16-.58-.38-.6-2.23-.25-4.47.5-6.68.76s-4.71-.37-6.82.36a32.54,32.54,0,0,0-6.21,2.91c-1.9,1.17-3.29,3.18-4.9,4.74a24.51,24.51,0,0,0-7.8,11,31.06,31.06,0,0,0-1.8,6.64c-.39,3.43-.4,3.42-.79,6.85s1.49,3.64,1.1,7.06-1.29,3.33-1.68,6.75-1.05,3.35-1.44,6.79-.17,3.46-.56,6.89a32,32,0,0,0,.49,7,33.35,33.35,0,0,0,1.87,6.68,34.33,34.33,0,0,0,2.9,6.23,34,34,0,0,0,3.95,5.61c1.54,1.78,2.46,4.22,4.3,5.6a29.85,29.85,0,0,0,6.07,3.74c2.16.91,4.76.37,7.07.63.22,0,.06,1.42.29,1.44a24.2,24.2,0,0,0,8.06-.5,25.52,25.52,0,0,0,7.23-3.43,29.75,29.75,0,0,0,5.77-5.36,34.65,34.65,0,0,0,4.13-6.59,37.88,37.88,0,0,0,3.49-6.95,40.49,40.49,0,0,0,1.71-7.63c.39-3.43.75-3.39,1.13-6.81s-.7-3.55-.31-7,1.22-3.33,1.61-6.76-.66-3.51-.43-7S218.08,492.46,218.47,489Z"/><path class="b" d="M237.23,536.93a38.66,38.66,0,0,0-2.36-7.1,32.14,32.14,0,0,0-4.43-6c-1.63-2-3.09-4.15-5.08-5.54a26.54,26.54,0,0,0-6.74-3.52,25.9,25.9,0,0,0-7.52-1,27.77,27.77,0,0,0-7.38,1.36c-.22.06-.27-.14-.49-.08-2.17.59-3.91,2.2-5.87,3.25a29.24,29.24,0,0,0-5.25,3.91c-1.69,1.46-3.87,2.4-5.21,4.19a30.57,30.57,0,0,0-3,6,21.66,21.66,0,0,0-2.82,12.91,29.6,29.6,0,0,0,.75,6.68c.9,3.33,1.38,3.2,2.28,6.53s.85,3.34,1.75,6.67.63,3.4,1.53,6.73,1,3.31,1.88,6.64.15,3.53,1.06,6.87c.61,2.27,2.57,4.07,3.64,6.11a32.76,32.76,0,0,0,4,5.56,33.86,33.86,0,0,0,5,4.61c1.83,1.48,2.94,4,5,5.06a33.91,33.91,0,0,0,6.58,2.69,29.59,29.59,0,0,0,7.06.88c2.34,0,4.51-1.33,6.76-1.94.22-.06.6,1.35.82,1.3a23.52,23.52,0,0,0,7.05-3.73c2.12-1.49,3.54-3.83,5.09-5.94s3.43-4,4.37-6.51.65-5.15,1-7.78,1.67-5.15,1.48-7.78-1.87-5-2.56-7.5c-.9-3.33.09-3.6-.81-6.93s-1.54-3.15-2.44-6.48-1.71-3.11-2.61-6.44.64-3.74-.22-7.08S238.13,540.27,237.23,536.93Z"/><path class="b" d="M466.2,367.22c-.84-3.48.4-3.13,2.26-6.19s2.33-2.78,4.19-5.84,1.7-3.16,3.56-6.22,2.33-2.78,4.2-5.84,2.18-2.87,4-5.94,1.06-3.55,2.93-6.61,2.59-2.62,4.45-5.69,1.34-3.38,3.2-6.45,1.47-3.3,3.34-6.37,2.2-2.86,4.07-5.92,2.24-2.84,4.1-5.9,2.06-2.95,3.92-6,.84-3.68,2.7-6.75,2.21-2.85,4.07-5.92,1.93-3,3.79-6.09,2.59-2.62,4.45-5.69,1.39-3.35,3.25-6.42,2-3,3.82-6.08,2.15-2.89,4-6,1.28-3.42,3.15-6.49,1.84-3.09,3.7-6.15,1-3.87,3.7-6.22,3.86-.58,7.28-2.07,2.76-3,6.18-4.47,3.71-.82,7.12-2.31,3.38-1.56,6.79-3,3.37-1.58,6.79-3.07,3.39-1.54,6.81-3,3.71-.8,7.13-2.29,3.2-2,6.62-3.46,3.45-1.4,6.87-2.89,3.08-2.25,6.5-3.74,3.75-.72,7.17-2.21,3.21-4.17,6.89-3.56,2.49,3.08,5.13,5.57,3.29,1.81,5.93,4.31,1.63,3.57,4.27,6.07,2.6,2.54,5.25,5,2.6,2.54,5.24,5,3.19,1.92,5.83,4.42,3,2.14,5.63,4.63,2.4,2.76,5,5.25,2.74,2.41,5.38,4.91,4.69,1.52,5.75,5-.81,3.79-1.65,7.21-2,3.12-2.89,6.54-.21,3.58-1.05,7-1.74,3.2-2.59,6.62-.23,3.57-1.07,7-1.51,3.26-2.35,6.68.44,3.74-.4,7.16-1.45,3.27-2.29,6.69-1.36,3.29-2.21,6.72-.38,3.54-1.22,7,.47,3.95-1.85,6.61-3.14,1.47-6.5,2.88-3.14,1.94-6.51,3.36-3.11,2-6.48,3.43-3.55,1-6.92,2.38-3.56,1-6.92,2.37-3.38,1.39-6.74,2.8-3.28,1.63-6.64,3-3.5,1.1-6.87,2.51-3.42,1.29-6.79,2.7-3.23,1.74-6.6,3.15-3.46,1.2-6.82,2.62-3,2.35-6.34,3.76-3.77.46-7.14,1.87-2.94,2.44-6.31,3.86-4-.09-7.37,1.32-2.83,2.68-6.2,4.09-4,0-7.34,1.39-2.77,2.85-6.13,4.26-3.79.41-7.16,1.82-2.93,2.46-6.3,3.87-3.62.81-7,2.22-3,2.21-6.41,3.62-3.74.54-7.11,2-3.05,2.2-6.7,1.94-3.29-.7-6.33-2.56-2.4-2.9-5.44-4.77-3.34-1.37-6.38-3.23-3.26-1.51-6.3-3.38-2.56-2.87-5.87-4.22S467,370.69,466.2,367.22Z"/><path class="b" d="M463.72,368.94c-.19,3.66-.86,3.63-1,7.29s0,3.67-.15,7.34.31,3.69.13,7.35.23,3.68,0,7.35,0,3.67-.23,7.34-2.16,3.77-.43,7c1.64,3.06,2.24,2.44,5.28,4.12s2.94,1.86,6,3.54,3.62.62,6.66,2.3,2.37,2.91,5.41,4.59,3.05,1.66,6.1,3.34,3,3,6.51,3.13c3.64.14,3.44-1.85,6.79-3.29s3.16-1.89,6.51-3.33,3.53-1,6.88-2.47,3.38-1.36,6.74-2.8,3.49-1.11,6.85-2.55,2.92-2.45,6.27-3.89,3.68-.67,7-2.11,2.87-2.55,6.22-4,3.75-.51,7.1-2,3.64-.78,7-2.22,3.25-1.67,6.61-3.12,3.28-1.6,6.64-3,3.31-1.55,6.66-3,3.18-1.86,6.53-3.3,3.45-1.21,6.81-2.65,3.23-1.73,6.59-3.17,3.27-1.64,6.62-3.08,3.31-1.53,6.67-3,3.7-.64,7-2.09,3.05-2.14,6.41-3.58,3.79-.44,7.14-1.88,2.81-2.7,6.16-4.14,3.58-.93,6.93-2.37,3.41-1.33,6.76-2.77,3.62-.75,6-3.5,2.1-2.63,3-6,0-3.59.88-7,.84-3.38,1.7-6.75,1.44-3.22,2.3-6.6l1.72-6.74c.86-3.37,1-3.33,1.87-6.7s-.41-3.69.45-7.07,2.42-3,3.28-6.34,0-3.59.86-7,.61-3.43,1.47-6.8.68-3.42,1.54-6.79,1.38-3.24,2.24-6.62,1.24-3.26,1.3-6.75-.33-3.3-1.07-6.61-1.1-3.24-1.85-6.56.08-3.51-.66-6.83-1.1-3.24-1.84-6.56"/><path class="b" d="M666.41,360.92c-.22-3.9-.19-3.9-.41-7.79s-1-3.85-1.19-7.75.26-3.92,0-7.82-.06-3.91-.28-7.81.05-3.91-.17-7.81"/><path class="b" d="M497.55,433c.31-3.6,1.32-3.52,1.63-7.12s.14-3.62.45-7.22-.65-3.68-.34-7.29,1.68-3.49,2-7.09-.21-3.65.1-7.26-.17-3.65.14-7.26"/><path d="M172,635.29a11.35,11.35,0,0,1,.39,7.93,11.55,11.55,0,0,1-4.37,6.59,12.54,12.54,0,0,1-7.69,2.2,20.64,20.64,0,0,1-7.14-1.16,25.57,25.57,0,0,1-6-4.07,28.69,28.69,0,0,1-5.2-5,26.05,26.05,0,0,1-3.2-6.46,22.33,22.33,0,0,1-1.79-7.27c-.05-2.39.94-4.83,1.43-7.35a54,54,0,0,1,2-7.13c.8-2.33,1.75-4.61,2.78-6.88s1.8-4.7,3-6.84,2.29-4.59,3.52-6.58c1.45-2.35,3-4.38,4.22-6.16,2.56-3.73,1.86-3.29,4.34-6.07.18.05.44,3.56.3,8-.08,2.45-.13,5.21-.11,7.89,0,2.9-.48,5.74-.19,7.91a37.57,37.57,0,0,0,1.84,6.48,53.77,53.77,0,0,0,2.08,6.41c1,2,2.3,3.87,3.38,5.83s1.89,4.07,3,6S171,633.26,172,635.29Z"/><path d="M219.19,691.49c1.26,2.72,1.84,5.36,1.17,7.83a11.63,11.63,0,0,1-4.9,6.23A12.19,12.19,0,0,1,208,708a20.44,20.44,0,0,1-7.08-1.34,25.34,25.34,0,0,1-6.09-3.87,28.15,28.15,0,0,1-4.8-5.32,25.44,25.44,0,0,1-3.32-6.28,22,22,0,0,1-1.9-7.18,35.71,35.71,0,0,1,.9-7.43,54.82,54.82,0,0,1,2-7.19c.8-2.33,2.12-4.49,3.15-6.75s1.9-4.65,3.06-6.78,2.54-4.42,3.77-6.42c1.45-2.35,3-4.37,4.2-6.15,2.56-3.73,1.62-3.44,4.1-6.21.18.05.06,3.47-.08,7.89-.08,2.45-.1,5.22-.09,7.9,0,2.9-.38,5.76-.08,7.93s1.63,4.26,2.31,6.36a52.86,52.86,0,0,0,2.15,6.34c1,2,2,4,3.12,5.95s2.23,3.88,3.3,5.84S218.25,689.46,219.19,691.49Z"/><path class="b" d="M168.63,732.77a9.85,9.85,0,0,1,.66,6.5,10,10,0,0,1-3.85,5.27,10.49,10.49,0,0,1-6.23,1.86c-2.53-.09-4.75-1.57-7-2.76s-4.61-2.25-6.27-4.13a20.82,20.82,0,0,1-3.43-6.69,17.25,17.25,0,0,1-.92-6.46,29.47,29.47,0,0,1,.8-6.56,48.63,48.63,0,0,1,1.58-6.51c.82-2.09,2.11-4,3.1-6s2-4.09,3.11-5.92c1.26-2.12,2.38-4.11,3.48-5.73,2.26-3.34,1.47-3.13,3.69-5.64a37.53,37.53,0,0,1,.11,6.43c-.06,1.93-.21,4.11-.2,6.22a42.06,42.06,0,0,0,.94,6.13,30.84,30.84,0,0,0,1.13,6.47,52.07,52.07,0,0,0,2.32,6.23c1,1.95,2.8,3.49,3.87,5.42S167.71,730.77,168.63,732.77Z"/><path d="M324,164.54c-2.52,2.56-3.63-.47-7.22-.47s-3.59.49-7.18.49h-7.18c-3.59,0-3.59-.43-7.18-.43s-3.59.49-7.18.49-3.59,0-7.18,0-3.59-.38-7.18-.38-3.59.72-7.18.72-3.59-.24-7.18-.24-3.59,0-7.18,0-3.59-.38-7.18-.38-3.59.09-7.18.09-3.59-.2-7.18-.2-3.59-.11-7.18-.11-3.59.62-7.18.62-3.59,0-7.18,0-3.59-.18-7.18-.18-3.59.34-7.18.34-3.59-.71-7.18-.71-3.59.24-7.18.24-3.59-.31-7.18-.31-3.59.53-7.18.53-3.59-.25-7.18-.25-3.59.53-7.18.53-3.59-.07-7.18-.07-3.59-.18-7.18-.18-3.59-.13-7.18-.13-3.59,0-7.19,0-3.59-.12-7.18-.12-3.59-.2-7.18-.2-3.59.86-7.19.86-3.59-1-7.19-1-3.59.73-7.18.73-3.59-.14-7.18-.14-3.59-.59-7.18-.59-3.59.83-7.18.83-3.59-.44-7.19-.44-3.59.15-7.18.15H43.89c-3.6,0-3.6.19-7.19.19s-4.73,2.36-7.25-.2.21-3.71.21-7.37-.5-3.65-.5-7.31.06-3.65.06-7.31.27-3.65.27-7.31-.05-3.65-.05-7.3.44-3.65.44-7.31-.65-3.65-.65-7.31.2-3.65.2-7.31.13-3.65.13-7.31-.22-3.66-.22-7.31.51-3.65.51-7.31,0-3.66,0-7.31-3.24-5-.68-7.64,3.92-.08,7.51-.08,3.59.86,7.18.86,3.59-.78,7.18-.78,3.59-.07,7.18-.07,3.59.4,7.18.4,3.59.32,7.18.32,3.59-.73,7.18-.73,3.59,0,7.18,0,3.59.26,7.18.26,3.59-.23,7.18-.23,3.59.5,7.18.5,3.59,0,7.18,0,3.59-.47,7.18-.47,3.59.72,7.18.72,3.59-.14,7.18-.14,3.59-.08,7.18-.08,3.59-.4,7.18-.4,3.59.41,7.18.41,3.59.18,7.18.18,3.59-.47,7.18-.47,3.59.06,7.18.06,3.59.47,7.18.47,3.59-.31,7.18-.31,3.59-.2,7.18-.2S205.44,69,209,69s3.59.3,7.18.3,3.59.21,7.18.21,3.59.06,7.19.06,3.59-.3,7.18-.3,3.59.3,7.18.3,3.59-.12,7.19-.12,3.59.38,7.19.38,3.59,0,7.18,0,3.59-.08,7.18-.08,3.59-.19,7.18-.19,3.59.27,7.18.27,3.59-.43,7.19-.43,3.59,0,7.18,0,3.59.49,7.19.49,3.6-.31,7.19-.31,4.67-2.71,7.2-.15,0,3.66,0,7.31-.43,3.65-.43,7.31.37,3.65.37,7.31-.25,3.65-.25,7.31.19,3.65.19,7.3.28,3.65.28,7.31-.27,3.65-.27,7.31.55,3.65.55,7.31-.07,3.65-.07,7.31-.17,3.66-.17,7.31.1,3.65.1,7.31-1.16,3.75-.39,7.32C324.8,161,326.6,161.93,324,164.54Z"/><path class="a" d="M107.22,125.79c3,2,4.94,3.23,2.93,6.21s-3.51.43-7.2.43-3.69.11-7.37.11S91.89,132,88.2,132s-3.69.17-7.38.17-3.79.8-7.4.07a14.1,14.1,0,0,1-1.53-4.88,17.13,17.13,0,0,1,1-7.62c1-2.43,3.07-5.14,5.55-8.34,1.59-2.05,3-3.87,4.08-5.57a25,25,0,0,0,3-6.18,11.7,11.7,0,0,0-.37-8.24,16.37,16.37,0,0,0-5.92-7,15.83,15.83,0,0,0-8.93-2.78c-3.3,0-5.29,1.23-6.39,3.21s-1,4.81.55,8.31c-3.34,1.59-3.95.25-7.42-1a20,20,0,0,1-.93-6c-.14-2.39-.35-4.51.75-6.08a9.44,9.44,0,0,1,5.1-3.25,21,21,0,0,1,6-.5,25.79,25.79,0,0,1,14.7,4.22,28.49,28.49,0,0,1,5.53,4.89,23.82,23.82,0,0,1,3.8,6.27,16.22,16.22,0,0,1,1.38,6.48c0,2.16.18,4.51-.88,6.89a34.64,34.64,0,0,1-2.7,5.2c-.93,1.43-2.14,3-3.42,4.73a77.17,77.17,0,0,0-4.95,6.87,13.32,13.32,0,0,0-1.36,3.7c3.36.63,3.42.27,6.84.27s3.42.13,6.84.13a29.91,29.91,0,0,0,6.85-.37C104,125.07,104.38,123.88,107.22,125.79Z"/><path class="a" d="M111.3,117.78c3.08-1.61,3.41-1.74,6.72-.68a22.27,22.27,0,0,0,7.46,7.44,14.23,14.23,0,0,0,8,2.48c3.3,0,5.62-.78,6.8-3.26s.7-5.8-1.13-9.91a23.61,23.61,0,0,0-3.12-5.07,20.41,20.41,0,0,0-4.36-4,18.15,18.15,0,0,0-4.82-2.23,15.79,15.79,0,0,0-5.17-1.23,8.53,8.53,0,0,0-5.29,1.4,6.27,6.27,0,0,0-2.46,3.94c-3.41.37-4.26,1.4-6.78-.93-2.71-2.51-.78-3.58-1.7-7.16s-1-3.57-1.88-7.15-1.26-3.49-2.18-7.08S97.46,80,99.6,77c2-2.82,3.64.23,7.11.23s3.47.35,6.93.35,3.47-.75,6.94-.75,4.09-1.68,7,.24,4.73,3.53,2.7,6.49-3.53,0-7.24,0-3.71.12-7.42.12-5.26-3-7.47-.06.7,3.85,1.62,7.6-.65,4.69,1.76,7.7a13.27,13.27,0,0,1,9.32-4,22.82,22.82,0,0,1,7.82,1.21,31.37,31.37,0,0,1,7,3.79,32.16,32.16,0,0,1,6.22,6,31.08,31.08,0,0,1,4.36,7.36,23.55,23.55,0,0,1,1.69,6.46,13,13,0,0,1-.65,6.46c-.85,2.45-2,4.32-4.21,5.44a15.33,15.33,0,0,1-7,1.53,25.43,25.43,0,0,1-7.34-1.55,27,27,0,0,1-7-2.71,30.56,30.56,0,0,1-6-5A28.56,28.56,0,0,1,111.3,117.78Z"/><path class="a" d="M215.53,125.79c3,2,4.94,3.23,2.93,6.21s-3.51.43-7.2.43-3.69.11-7.37.11-3.69-.52-7.37-.52-3.69.17-7.38.17-3.79.8-7.4.07a14.09,14.09,0,0,1-1.53-4.88,17.13,17.13,0,0,1,1-7.62c1-2.43,3.07-5.14,5.55-8.34,1.59-2.05,3-3.87,4.08-5.57a25,25,0,0,0,3-6.18,11.7,11.7,0,0,0-.37-8.24,16.37,16.37,0,0,0-5.92-7,15.83,15.83,0,0,0-8.93-2.78c-3.3,0-5.29,1.23-6.39,3.21s-1,4.81.55,8.31c-3.34,1.59-3.95.25-7.42-1a20,20,0,0,1-.93-6c-.14-2.39-.35-4.51.75-6.08a9.44,9.44,0,0,1,5.1-3.25,21,21,0,0,1,6-.5,25.79,25.79,0,0,1,14.7,4.22,28.48,28.48,0,0,1,5.53,4.89,23.83,23.83,0,0,1,3.8,6.27,16.22,16.22,0,0,1,1.38,6.48c0,2.16.18,4.51-.88,6.89a34.63,34.63,0,0,1-2.7,5.2c-.93,1.43-2.14,3-3.42,4.73a77.32,77.32,0,0,0-5,6.87,13.33,13.33,0,0,0-1.36,3.7c3.36.63,3.42.27,6.84.27s3.42.13,6.84.13a29.91,29.91,0,0,0,6.85-.37C212.3,125.07,212.7,123.88,215.53,125.79Z"/><path class="a" d="M245,132.86c-2.49-2.67-.61-3.43-1.21-7s-1.1-3.52-1.7-7.12-.7-3.59-1.3-7.19-.08-3.69-.68-7.29-.76-3.58-1.35-7.18-.67-3.59-1.26-7.2-.69-3.59-1.28-7.2-3.24-4.36-1.38-7.5c1.4-2.35,4.13-1.85,6,.16,2.48,2.68.53,3.69,1.13,7.29s.63,3.6,1.22,7.2.49,3.62,1.09,7.22.47,3.62,1.07,7.23.64,3.6,1.24,7.2.95,3.55,1.55,7.15.59,3.61,1.19,7.22,1.75,3.68.88,7.23C249.56,135.8,246.92,134.88,245,132.86Z"/><path class="a" d="M273.29,131.87c-3.51-2.43-5.54-3.72-3.47-7.45,1.89-3.41,4.59-2.57,7.8-.36,3.51,2.43,4.13,3.85,3.72,8.1C281,136.11,276.5,134.09,273.29,131.87Z"/><path class="a" d="M293.57,131.87c-3.14-2.17-1.54-3.32-3.09-6.8s-2-3.27-3.58-6.76-1.65-3.44-3.2-6.92-1.08-3.7-2.63-7.18-1.7-3.42-3.25-6.9-1.62-3.46-3.17-6.94-1.64-3.45-3.19-6.94-5.3-4.07-3.31-7.33,4.8-1.9,7.87.15,1.52,3.61,3.08,7.12,1.59,3.5,3.16,7,1.47,3.56,3,7.07,1.45,3.56,3,7.07,1.61,3.5,3.17,7,1.89,3.37,3.46,6.89-.1,4.73,3,6.95c2.81,2,3.3.28,6.73.28s3.43.35,6.87.35,3.44-.75,6.87-.75,4.06-1.68,6.91.24,4.59,3.46,2.71,6.53-3.3,0-6.79,0-3.48.12-7,.12-3.48-.09-7-.09-3.57-.75-7-.2S296.44,133.85,293.57,131.87Z"/><path d="M718.33,740.36c-.12-3.42-2.11-2.52-4.55-4.91s-2.38-2.46-4.82-4.85-2.57-2.26-5-4.65-2.3-2.54-4.74-4.93-2.39-2.45-4.83-4.85-2.78-2.06-5.23-4.45-3.37-1.73-5.19-4.63a31.21,31.21,0,0,0,5.26-1.69c2.4-1.16,4.12-3.19,6-4.81,2-1.78,4.22-3.28,5.62-5.22a41.86,41.86,0,0,0,3.8-6.63c.38-.5.69-.24.95-.81.16-.35-.56-.31-.5-.69a31.22,31.22,0,0,0,1.33-3.73c-2.19-.75-2.56.24-4.32-1.26-2.63-2.24-2.32-2.49-4.25-5.36s-1.7-3-3.63-5.89-1.85-2.92-3.78-5.79-1.86-2.92-3.79-5.78-2.5-2.48-4.43-5.35-1.71-3-3.65-5.89-2.32-2.64-3.33-6a57.6,57.6,0,0,0,6.22,1.25,66.73,66.73,0,0,0,6.71.23c2.51,0,4.81.24,6.73.07a36.07,36.07,0,0,0,6.88-1.31c-.55-3.2-1.26-3.06-2-6.23s-.22-3.28-1-6.45a40.9,40.9,0,0,1-6.8.93,56.75,56.75,0,0,1-6.69.11,54.26,54.26,0,0,1-6.59-1.11,43.78,43.78,0,0,1-6.41-1.75,37.14,37.14,0,0,1-6.13-2.6,34,34,0,0,1-5.58-3.72c-2.19-2.5-2.31-2.43-4.38-5s-1.83-2.8-3.9-5.4-1.88-2.76-3.94-5.36-1.76-2.85-3.83-5.46-2.52-2.25-4.6-4.86-3.32-2-4.4-5.17c2.41.14,5.09-.11,7.36-.09,2.42,0,4.74-.3,7-.42,2.42-.14,4.75-.18,7-.46,2.42-.3,4.77-.33,7-.76,2.39-.47,4.76-.7,6.93-1.31,2.36-.67,4.61-1.41,6.7-2.2,2.31-.87,4.29-2.22,6.29-3.19,2.24-1.1,4.43-2,6.29-3.16a69.18,69.18,0,0,0,5.94-3.83,55.93,55.93,0,0,0,5.23-4.76,22.07,22.07,0,0,0,4.08-5.44c-2.62-1.93-2.34-2.34-5.07-4.1s-2.86-1.56-5.62-3.28a41.24,41.24,0,0,1-5.06,5.16,51.16,51.16,0,0,1-5.77,4.07,52.41,52.41,0,0,1-6,3.72,60.63,60.63,0,0,1-6.46,3c-2.11.74-4.48,1.06-6.92,1.64-2.19.53-4.5.9-7,1.26-2.24.33-4.53,1-7,1.19-2.27.16-4.64-.33-7.11-.34-2.28,0-4.65.47-7.11.31-2.28-.14-4.62-.56-7.06-.85-2.28-.27-4.69-.21-7.1-.62-4.14-.7-5-4.36-8.1-1.52s-.09,4.06.27,8.25c0,.09.19,2.94,0,7.46-.09,2.16.43,4.76.08,7.54-.29,2.32-1,4.79-1.52,7.37-.51,2.35-1.44,4.7-2.24,7.16s-1,4.93-2.12,7.25a57.19,57.19,0,0,1-4,6.43,49.22,49.22,0,0,1-4.29,6.2,45.73,45.73,0,0,1-5.24,5.18c-1.87,1.54-4.36,2.22-6.48,3.46A48.29,48.29,0,0,1,582,644c-2.21.88-4.35,2.17-6.78,2.79a66.53,66.53,0,0,1-7.2,1.41c-2.34.33-4.8.64-7.3.76-5,.23-7.25-4.14-9.78.2s1.79,4.43,4.05,8.91a35.28,35.28,0,0,1,2.72,6.25,62.42,62.42,0,0,1,2.18,6.5c.48,2.09.2,4.46.48,6.84a51.82,51.82,0,0,1,.5,6.77,43.76,43.76,0,0,1-.57,6.77c-.37,2.21-.42,4.57-1.21,6.75s-2.38,4.2-3.65,6.25a36.62,36.62,0,0,1-4.14,5.88,42.87,42.87,0,0,1-5.21,5,54,54,0,0,1-6.17,3.79,60.45,60.45,0,0,1-6.19,3.13c.13,3.25.76,3.09,2.05,6.07s.61,3.47,2.81,5.85c2.1-.91,4.11-1.79,6-2.82s4-2.07,5.85-3.27A63,63,0,0,0,556,724c1.75-1.45,3-3.44,4.47-5a51.16,51.16,0,0,0,4.6-4.88,48.7,48.7,0,0,0,3.44-5.77c1-2,1.42-4.21,2.18-6.33.88-2.44,2.09-4.72,2.57-7.14s.14-5.12.28-7.59a63,63,0,0,0,.24-7.54c-.16-2.62-.18-5.46-.59-7.85,3.29,1.15,2.89,2.12,5.68,4.21s2.48,2.51,5.27,4.61,2.95,1.89,5.74,4,3.23,1.61,5.78,4c.44,1.46.54,4.1,1.14,7,.42,2,1.43,4.2,1.73,6.67.26,2.17-.32,4.52-.27,6.9a54.72,54.72,0,0,1,.2,6.85,43.61,43.61,0,0,1-1.2,6.76,34.21,34.21,0,0,1-2.81,6.23,28.33,28.33,0,0,1-3.4,5.89,31.69,31.69,0,0,1-5.38,4.88c.89,3.13,2.2,2.62,4.12,5.24s1.14,3.55,3.84,5.37a45.91,45.91,0,0,0,5.2-4.75,29.49,29.49,0,0,0,8.07-10.82,46.48,46.48,0,0,0,2.7-6.25c.69-2.17.37-4.58.76-6.77a61.9,61.9,0,0,0,1.25-6.64c.15-2.3.36-4.57.29-6.77s-.48-4.35-.72-6.5c3.25,1.43,2.61,2.3,5.36,4.54s3.31,1.55,6.07,3.78,2.27,2.83,5,5.07,2.67,2.34,5.42,4.57,2.75,2.25,5.5,4.48,2.86,2.11,5.62,4.35,2.15,4.46,5.69,4.25c3.24-.19.94-5.83,4.11-5.11s-.21,3.62,1.59,6.33a28,28,0,0,0,6.28-2.35,23.31,23.31,0,0,0,5.42-4.05,21.71,21.71,0,0,0,4.37-5.16,26.82,26.82,0,0,0,2.81-7.56c3.21,1.41,2.32,2.75,4.82,5.2s2.83,2.11,5.34,4.56,2.55,2.41,5.05,4.86,2.39,2.57,4.89,5,2.23,2.73,4.74,5.18,2.57,2.39,5.07,4.85,1.57,4.59,5.07,4.68c3.25.09,1.72-2.86,4.42-4.67S718.44,743.61,718.33,740.36ZM609.5,640.18a62.62,62.62,0,0,0,4.86-5.65,66.9,66.9,0,0,0,3.93-6.36,72.62,72.62,0,0,0,3-6.85c1-2.36,2-4.66,2.67-7s1.43-4.88,1.93-7.23c.54-2.55.65-5.18,1-7.5,3,2.08,2.55,2.66,4.81,5.5s1.66,3.32,3.92,6.17,2.79,2.43,5.05,5.27,1.71,3.29,4,6.14,2.77,2.45,4.56,5.61c-.14,2-.3,4.37-.72,7.14-.34,2.25-.71,4.7-1.28,7.23-.52,2.31-1.43,4.61-2.17,7s-1.53,4.61-2.48,6.89-1.52,4.73-2.72,6.84a43.51,43.51,0,0,1-4.37,5.93,31.25,31.25,0,0,1-5.29,5,26,26,0,0,1-6,3.35c-2.1.87-4.17,2.13-6.52,2.45a35,35,0,0,1-7-.06c-2.19-.15-4.24-1-6.63-1.55a38,38,0,0,1-5.42-3.64c-2.62-2-2.71-1.86-5.33-3.83s-2.42-2.25-5-4.22-2.64-2-5.27-3.92-4-.77-5.66-3.58a76.31,76.31,0,0,0,7.57-2.12,63.35,63.35,0,0,0,6.87-3.23,59,59,0,0,0,6.49-3.89,57.78,57.78,0,0,0,6.19-4.37A59.12,59.12,0,0,0,609.5,640.18Zm51,76.37c-1.06,1.89-2.84,3.05-5.11,4-3.39-1.56-2.81-2.4-5.71-4.76s-3-2.22-5.91-4.57-2.77-2.51-5.67-4.87-2.85-2.42-5.75-4.78-3.2-2-6.11-4.34-3.91-1.5-6.1-4.54a46,46,0,0,0,6.71-1.5c2-.69,3.74-2.15,5.64-3.17s4.06-1.57,5.79-2.89a43.89,43.89,0,0,0,5-4.62,50.34,50.34,0,0,0,4.24-5.33,59.43,59.43,0,0,0,3.59-5.77c1.12-2,2.4-3.9,3.3-6s1.77-4.24,2.5-6.34.9-4.53,1.48-6.65c.62-2.27,1.26-4.37,1.7-6.48,2.81,2.52,2,3.17,4.12,6.3s2,3.18,4.14,6.32,2.68,2.75,4.79,5.88,1.89,3.28,4,6.41,1.62,3.46,3.73,6.6,2.39,2.95,4.5,6.09,3.22,2.6,4.34,6.21a17.68,17.68,0,0,1-6.58,5.3,13.07,13.07,0,0,1-6.83,1.25,22.14,22.14,0,0,1-7.06-1.2c-3.22-1.28-3-1.72-6.26-3s-3.92-4.69-6.45-2.32,1.19,3.18,2.26,6.47.77,3.39,1.84,6.69a28.17,28.17,0,0,1,1.12,7.74C661.84,711.43,661.8,714.31,660.54,716.55Z"/><path d="M502.69,724.78c2.1-2.93,3.92.21,7.53.21s3.61,0,7.22,0,3.61-.05,7.22-.05,3.61,0,7.22,0,3.61.38,7.22.38,3.61-.26,7.22-.26,3.61,0,7.22,0,3.61-.42,7.22-.42,3.61.42,7.22.42,3.61-.3,7.22-.3,3.61.31,7.22.31,3.61-.47,7.22-.47,3.61.74,7.22.74,3.61,0,7.22,0,3.61,0,7.22,0,3.61-.39,7.22-.39,3.61-.25,7.22-.25,3.61.18,7.22.18,3.61-.06,7.22-.06,3.61-.2,7.22-.2l7.22,0c3.61,0,3.61.62,7.22.62s3.61-.33,7.22-.33,3.61.46,7.22.46,3.61-.32,7.23-.32,3.62.34,7.23.34,4.5,2,7.06-.59.24-3.42.24-7,.26-3.6.26-7.19-.24-3.59-.24-7.19.13-3.59.13-7.19-.09-3.59-.09-7.19-.29-3.6-.29-7.19-.33-3.59-.33-7.19.24-3.59.24-7.19.25-3.6.25-7.19,0-3.59,0-7.19-.12-3.6-.12-7.19.17-3.6.17-7.19.07-3.6.07-7.19-.18-3.6-.18-7.19.11-3.6.11-7.19-.51-3.6-.51-7.19.52-3.6.52-7.19-.56-3.6-.56-7.2.82-3.6.82-7.19-.69-3.6-.69-7.19.78-3.6.78-7.2-.78-3.6-.78-7.2.54-3.6.54-7.19-.57-3.6-.57-7.19.33-3.6.33-7.19-.43-3.6-.43-7.19.47-3.6.47-7.2.45-3.6.45-7.19-.61-3.6-.61-7.2.61-3.6.61-7.2-3.49-5.3-.36-7.08,2.82,1.81,5.68,3.79,2.7,2.2,5.56,4.18,3,1.75,5.87,3.73,2.83,2,5.68,4l5.71,4c2.86,2,2.78,2.08,5.64,4.07s2.88,1.95,5.74,3.93,3,1.74,5.88,3.72,2.81,2.06,5.66,4,2.92,1.9,5.77,3.88,2.53,2.45,5.39,4.43,3,1.78,5.86,3.76,3.13,1.6,6,3.58,3.48,1.42,5.06,4.52.19,3.42.19,7.06.13,3.64.13,7.28.49,3.64.49,7.28-.79,3.64-.79,7.28.37,3.64.37,7.28,0,3.64,0,7.28,0,3.64,0,7.28.4,3.64.4,7.28-.79,3.64-.79,7.28.67,3.64.67,7.28-.3,3.64-.3,7.28-.17,3.64-.17,7.28-.28,3.64-.28,7.28,0,3.64,0,7.28.91,3.64.91,7.28,0,3.64,0,7.28-.4,3.64-.4,7.29.14,3.64.14,7.28-.66,3.64-.66,7.28.08,3.64.08,7.29.73,3.64.73,7.29-.23,3.64-.23,7.28.13,3.64.13,7.29-.06,3.64-.06,7.29-.28,3.64-.28,7.29-.4,3.64-.4,7.29.85,3.64.85,7.29-.21,3.64-.21,7.29.25,3.65.25,7.29,1.81,4.4-.76,7-3.32-.05-6.94-.05-3.62.33-7.25.33-3.62.34-7.25.34-3.62,0-7.25,0-3.62-.53-7.25-.53-3.62.44-7.25.44-3.63.22-7.25.22-3.62-.18-7.24-.18-3.62.22-7.24.22-3.62-.1-7.25-.1-3.62-.18-7.25-.18S694.65,776,691,776s-3.62-.24-7.25-.24-3.62.57-7.25.57-3.62-.37-7.25-.37-3.62,0-7.25,0-3.62-.46-7.25-.46-3.62.25-7.25.25-3.62-.08-7.25-.08-3.63-.08-7.25-.08-3.62.83-7.25.83-3.63-.26-7.25-.26-3.63.08-7.25.08-3.63-.31-7.25-.31-3.63.37-7.25.37-3.63-.53-7.25-.53-3.63,0-7.25,0-3.62.27-7.25.27-3.63-.18-7.25-.18-3.63-.09-7.25-.09-3.63.66-7.25.66S549.65,776,546,776s-3.63-.26-7.26-.26-3.63.36-7.25.36-3.63-.13-7.26-.13-4.36,2.2-7.21,0-1.09-3.57-2.09-7.21-1.35-3.54-2.35-7.19-.53-3.77-1.53-7.41-1.21-3.59-2.21-7.23-1.25-3.57-2.25-7.22-.21-3.85-2-7.16C502.51,728.81,500.49,727.85,502.69,724.78Z"/><path class="a" d="M755.24,750.47c-2.16,2.43-3.49-.46-6.74-.46s-4.32,2.65-6.48.23c-2.43-2.73-.5-3.63-.5-7.28s.18-3.65.18-7.3.77-3.65.77-7.3,0-3.65,0-7.3-.26-3.65-.26-7.3-.61-3.65-.61-7.3.14-3.65.14-7.29.18-3.65.18-7.3.24-3.65.24-7.3.21-3.65.21-7.3.07-3.65.07-7.3-.8-3.65-.8-7.3.8-3.65.8-7.3.07-3.65.07-7.3-.78-3.65-.78-7.3.31-3.65.31-7.3.4-3.65.4-7.3-.63-3.65-.63-7.3-.08-3.65-.08-7.3.47-3.65.47-7.3-.17-3.65-.17-7.3.27-3.65.27-7.3-.41-3.65-.41-7.3.08-3.65.08-7.3.45-3.65.45-7.3-.1-3.65-.1-7.3-.34-3.65-.34-7.3.43-3.65.43-7.3-.53-3.65-.53-7.3.2-3.65.2-7.3-.35-3.65-.35-7.31.11-3.65.11-7.3.46-3.65.46-7.31-3-4.81-.54-7.54c2.16-2.43,3.51,0,6.76,0s4.23-2.06,6.4.37c2.43,2.73.18,3.56.18,7.21s-.21,3.65-.21,7.3.32,3.65.32,7.3.16,3.65.16,7.3-.41,3.65-.41,7.3-.4,3.65-.4,7.3.16,3.65.16,7.29.12,3.65.12,7.3.12,3.65.12,7.3.21,3.65.21,7.3-.49,3.65-.49,7.3.82,3.65.82,7.3,0,3.65,0,7.3,0,3.65,0,7.3-.48,3.65-.48,7.3-.25,3.65-.25,7.3,0,3.65,0,7.3-.08,3.65-.08,7.3.32,3.65.32,7.3.31,3.65.31,7.3-.12,3.65-.12,7.3-.14,3.65-.14,7.3.19,3.65.19,7.3-.33,3.65-.33,7.3.1,3.65.1,7.3.1,3.65.1,7.3-.29,3.65-.29,7.3-.14,3.65-.14,7.3.58,3.65.58,7.3-.39,3.65-.39,7.3.08,3.65.08,7.31-.2,3.65-.2,7.3a22.18,22.18,0,0,0,.66,7.21C756.33,746.74,757.67,747.73,755.24,750.47Z"/></svg>