<svg xmlns="http://www.w3.org/2000/svg" viewBox="0 0 800 800"><defs><style>.a{fill:none;stroke:#000;stroke-linejoin:bevel;stroke-width:13px;}.b{fill:#fff;}</style></defs><title>canvas (56)</title><polygon points="102.43 272.67 103 273 103 272.26 110.4 273.81 117.44 276.01 118.16 283.2 117.37 290.64 118.04 298.08 117.57 305.52 117.44 313.21 125.09 314.43 132.5 315.6 139.66 317.96 147.09 319.01 154.32 321.06 161.74 322.19 169.07 323.75 176.39 325.39 183.74 326.86 191.13 328.19 198.38 329.96 204.98 327.94 211.53 325.65 217.87 322.74 224.69 321.17 231.15 318.6 237.6 316.02 244.17 313.76 250.64 311.19 257.36 309.35 263.91 306.99 270.58 304.97 276.93 302.04 283.69 300.26 290.27 297.96 296.84 295.62 303.3 292.97 309.92 290.81 316.48 288.43 323.19 286.48 329.77 284.15 336.23 281.46 342.77 279.02 349.41 276.8 355.98 274.41 362.73 272.52 369.02 269.34 375.75 267.42 382.48 265.44 388.9 262.6 395.48 260.26 394.26 260.34 395.23 259.97 395.09 252.42 395.08 244.83 395.99 237.24 395.59 229.65 395.47 222.06 395.35 214.47 395.51 214.69 388.17 213.17 380.81 211.72 373.51 210.08 366.27 208.1 358.9 206.73 351.52 205.4 344.33 203.19 336.83 202.39 329.6 200.36 322.35 198.38 314.9 197.14 308.43 199.84 301.79 201.96 295.33 204.6 288.68 206.71 282.15 209.14 275.54 211.36 268.82 213.26 262.45 216.18 255.75 218.15 249.2 220.73 242.88 219.6 236.83 217.41 230.35 216.66 230.38 209.54 230.71 202.53 230.73 195.52 230.7 188.5 230.73 181.59 234.18 180.25 227.03 178.12 219.59 177.1 212.23 175.68 205.02 173.58 197.52 172.81 190.25 170.97 182.95 169.27 175.56 167.99 168.39 165.64 160.87 164.97 153.64 163.4 147.16 165.69 140.53 167.92 133.69 169.54 127.29 172.41 120.54 174.28 114.15 177.19 107.44 179.2 101.02 182.02 94.16 183.63 87.53 185.87 81.06 188.45 74.38 190.47 67.81 192.8 61.39 195.53 54.78 197.76 48.42 200.68 41.74 202.68 34.98 204.49 28.59 207.35 21.92 209.42 15.52 212.13 8.95 214.39 2.33 216.51 -4.35 218.45 -10.7 221.32 -17.39 223.28 -24.02 225.34 -30.38 228.2 -36.9 230.63 -43.96 232.75 -36.13 233.77 -28.93 235.94 -21.63 237.63 -14.3 239.18 -6.92 240.51 0.49 241.68 7.76 243.52 15.14 244.88 22.46 246.5 29.83 247.89 37.06 249.36 43.73 247.71 50.28 245.34 56.84 242.98 63.41 240.68 69.88 238.04 76.64 236.26 82.97 233.27 89.77 231.57 96.22 228.9 102.88 226.82 103.22 226.58 102.55 227.22 102.57 227.19 96.1 229.66 89.51 231.79 82.8 233.59 76.47 236.47 69.97 238.86 63.33 240.87 56.85 243.32 50.21 245.32 43.66 247.61 37.08 249.6 29.83 247.95 22.45 246.72 15.06 245.49 7.8 243.68 0.56 241.73 -6.86 240.64 -14.24 239.39 -21.45 237.32 -28.88 236.27 -36.18 234.59 -43.23 233.33 -43.21 240.6 -43.23 248.21 -43.63 255.82 -43.15 263.42 -43.76 271.03 -43.95 278.64 -43.97 278.67 -43.51 278.68 -43.43 278.7 -36.25 280.68 -28.9 281.9 -21.61 283.4 -14.39 285.24 -7.1 286.76 0.29 287.76 7.62 289.07 14.9 290.62 22.16 292.31 29.43 293.95 36.63 295.92 36.44 295.47 36.38 295.56 43.01 293.47 49.85 291.87 56.34 289.26 62.73 286.38 69.44 284.38 76.09 282.24 82.58 279.62 89.28 277.58 95.97 275.43 102.43 272.67"/><polygon class="a" points="102.18 272.67 102.5 273 102.5 272.26 110.15 273.81 117.31 276.01 118.1 283.2 117.34 290.64 118.03 298.08 117.57 305.52 117.43 313.21 125.08 314.43 132.5 315.6 139.66 317.96 147.09 319.01 154.32 321.06 161.74 322.19 169.07 323.75 176.39 325.39 183.74 326.86 191.13 328.19 198.38 329.96 204.98 327.94 211.53 325.65 217.87 322.74 224.69 321.17 231.15 318.6 237.6 316.02 244.17 313.76 250.64 311.19 257.36 309.35 263.91 306.99 270.58 304.97 276.93 302.04 283.69 300.26 290.27 297.96 296.84 295.62 303.3 292.97 309.92 290.81 316.48 288.43 323.19 286.48 329.77 284.15 336.23 281.46 342.77 279.02 349.41 276.8 355.98 274.41 362.73 272.52 369.02 269.34 375.75 267.42 382.48 265.44 388.9 262.6 395.48 260.26 394.26 260.34 395.23 259.97 395.09 252.42 395.08 244.83 395.99 237.24 395.59 229.65 395.47 222.06 395.35 214.47 395.51 214.69 388.17 213.17 380.81 211.72 373.51 210.08 366.27 208.1 358.9 206.73 351.52 205.4 344.33 203.19 336.83 202.39 329.6 200.36 322.35 198.38 314.9 197.14 308.43 199.84 301.79 201.96 295.33 204.6 288.68 206.71 282.15 209.14 275.54 211.36 268.82 213.26 262.45 216.18 255.75 218.15 249.2 220.73 242.88 219.6 236.83 217.41 230.35 216.66 230.38 209.54 230.71 202.53 230.73 195.52 230.7 188.5 230.73 181.59 234.18 180.25 227.03 178.12 219.59 177.1 212.23 175.68 205.02 173.58 197.52 172.81 190.25 170.97 182.95 169.27 175.56 167.99 168.39 165.64 160.87 164.97 153.64 163.4 147.16 165.69 140.53 167.92 133.69 169.54 127.29 172.41 120.54 174.28 114.15 177.19 107.44 179.2 101.02 182.02 94.16 183.63 87.53 185.87 81.06 188.45 74.38 190.47 67.81 192.8 61.39 195.53 54.78 197.76 48.42 200.68 41.74 202.68 34.98 204.49 28.59 207.35 21.92 209.42 15.52 212.13 8.95 214.39 2.33 216.51 -4.35 218.45 -10.7 221.32 -17.39 223.28 -24.02 225.34 -30.38 228.2 -36.9 230.63 -43.96 232.75 -36.13 233.77 -28.93 235.94 -21.63 237.63 -14.3 239.18 -6.92 240.51 0.49 241.68 7.76 243.52 15.14 244.88 22.46 246.5 29.83 247.89 37.06 249.36 43.73 247.71 50.28 245.34 56.84 242.98 63.41 240.68 69.88 238.04 76.64 236.26 82.97 233.27 89.77 231.57 96.22 228.9 102.88 226.82 103.22 226.58 102.55 227.22 102.57 227.19 96.1 229.66 89.51 231.79 82.8 233.59 76.47 236.47 69.97 238.86 63.33 240.87 56.85 243.32 50.21 245.32 43.66 247.61 37.08 249.6 29.83 247.95 22.45 246.72 15.06 245.49 7.8 243.68 0.56 241.73 -6.86 240.64 -14.24 239.39 -21.45 237.32 -28.88 236.27 -36.18 234.59 -43.23 233.33 -43.21 240.6 -43.23 248.21 -43.63 255.82 -43.15 263.42 -43.76 271.03 -43.95 278.64 -43.97 278.67 -43.51 278.68 -43.43 278.7 -36.25 280.68 -28.9 281.9 -21.61 283.4 -14.39 285.24 -7.1 286.76 0.29 287.76 7.62 289.07 14.9 290.62 22.16 292.31 29.43 293.95 36.63 295.92 36.44 295.47 36.38 295.56 43.01 293.47 49.85 291.87 56.34 289.26 62.73 286.38 69.44 284.38 76.09 282.24 82.58 279.62 89.28 277.58 95.84 275.43 102.18 272.67"/><path d="M157.33,540.16l-.37.5.43-.25,6.87-2.45,7.19-1.55,6.68-3,6.79-2.7,7.08-1.87,6.72-2.92,7-2.08,6.9-2.39,6.82-2.64,7-2.16,6.81-2.63,6.81-2.66,7.18-1.59,6.69-3,6.82-2.62,7.1-1.81,6.84-2.58,6.87-2.5,6.93-2.24,7.35,1.46,7.36,1.55,7.44,1.18L318,500.7l7.2,2.3,7.36,1.56L340,505.7l7.32,1.77,7.31,1.81,7.43,1.24,7.37,1,7.45-2.41,7.37-2.93,7.48-2.64,7.52-2.56,7.36-2,7.1-2.75,7.15-2.63,7.27-2.28,7.12-2.74-.72-.27,1.32-.26-.84-7.63.27-7.59-.13-7.59-.17-7.59.17-7.59v-7.23l-6.45,1.55-6.4,2.9L415.88,450,409,451.55l-6.46,2.74-6.75,1.92-6.36,3-6.7,2.08-6.62,2.32-6.61,2.22-7.39-1.24-7.29-1.91-7.34-1.63L340,460l-7.28-1.95-7.34-1.63L318,454.89l-7.45-1.14-7.29-1.92-7.44-1.21-7.43-1.31-.22-.88.69,0,7.25,2,7.34,1.51,7.43,1.09,7.29,1.73,7.24,2,7.37,1.35,7.3,1.69,7.33,1.57,7.48.88,7.15,2.45,7.45,1.26,6.6-2.38,6.37-2.87,6.66-2.08,6.63-2.15,6.51-2.49,6.54-2.43,6.69-2L422,446.8l6.7-2,6.1-2.28-6.82-1.88-7.33-1.62-7.3-1.76L406,435.83l-7.36-1.49-7.38-1.4-7.36-1.5-7.4-1.31-7.3-1.76-7.33-1.63-7.47-1-7.14-2.45-7.38-1.34-7.39-1.24-7.26-1.91-7.35-1.46-7.34-1.5-7.35-1.45-7.31-1.69-7.35-1.48-7.26-1.94-7.43-1.11-7.21-2.06-7.52-.63-7.25-1.85-7.3-1.63-7.4-1.16-7.21-2.06-7.33-1.5-7.4-1.2-7.33-1.52-7.29-1.74-7.29-2-6.61,2.25L180.35,396l-6.71,1.81L167.08,400l-6.29,3L154,404.49l-6.53,2.31-6.31,2.94-6.79,1.61L128,414.09l-.6-.1-.33,7.66.37,7.65-.34,7.65.68,7.65-.44,7.65.55,7.9-7.59,2.34-7.42,2.06-7.18,2.75-7.24,2.59-7.13,2.88L84,475.35l-6.91,2.48,6.95,1.36,7.15,2.18,7.47.63,7.15,2.16,7.39,1,7.19,2,7.23,1.82,7.26,1.69,7.42.91,7.27,1.65L157,495l-7.55-1.24-7.21-2-7.36-1.25-7.16-2.23-7.32-1.47-7.4-1.1-7.32-1.46-7.31-1.54-7.26-1.78-7.26-1.76-7.26-1-.48,7.5v7.66l.07,7.67.71,7.66-.11,7.67-.21,7.59,7.2,1.6L91,527.33l7.38,1.12,7.28,1.63,7.38,1.15,7.18,2.1,7.4,1.05,7.34,1.38,7.19,2.09,7.44.88,7.2,2.15ZM193.23,482l-7.31,2.44-6.85,3.33-7.13,2.57L164.48,492l-6.94,3.14-.28-.56,7.35-2,7-3,7.28-2.2,7.17-2.51Z"/><path class="a" d="M157.33,540.16l-.37.5.43-.25,6.87-2.45,7.19-1.55,6.68-3,6.79-2.7,7.08-1.87,6.72-2.92,7-2.08,6.9-2.39,6.82-2.64,7-2.16,6.81-2.63,6.81-2.66,7.18-1.59,6.69-3,6.82-2.62,7.1-1.81,6.84-2.58,6.87-2.5,6.93-2.24,7.35,1.46,7.36,1.55,7.44,1.18L318,500.7l7.2,2.3,7.36,1.56L340,505.7l7.32,1.77,7.31,1.81,7.43,1.24,7.37,1,7.45-2.41,7.37-2.93,7.48-2.64,7.52-2.56,7.36-2,7.1-2.75,7.15-2.63,7.27-2.28,7.12-2.74-.72-.27,1.32-.26-.84-7.63.27-7.59-.13-7.59-.17-7.59.17-7.59v-7.23l-6.45,1.55-6.4,2.9L415.88,450,409,451.55l-6.46,2.74-6.75,1.92-6.36,3-6.7,2.08-6.62,2.32-6.61,2.22-7.39-1.24-7.29-1.91-7.34-1.63L340,460l-7.28-1.95-7.34-1.63L318,454.89l-7.45-1.14-7.29-1.92-7.44-1.21-7.43-1.31-.22-.88.69,0,7.25,2,7.34,1.51,7.43,1.09,7.29,1.73,7.24,2,7.37,1.35,7.3,1.69,7.33,1.57,7.48.88,7.15,2.45,7.45,1.26,6.6-2.38,6.37-2.87,6.66-2.08,6.63-2.15,6.51-2.49,6.54-2.43,6.69-2L422,446.8l6.7-2,6.1-2.28-6.82-1.88-7.33-1.62-7.3-1.76L406,435.83l-7.36-1.49-7.38-1.4-7.36-1.5-7.4-1.31-7.3-1.76-7.33-1.63-7.47-1-7.14-2.45-7.38-1.34-7.39-1.24-7.26-1.91-7.35-1.46-7.34-1.5-7.35-1.45-7.31-1.69-7.35-1.48-7.26-1.94-7.43-1.11-7.21-2.06-7.52-.63-7.25-1.85-7.3-1.63-7.4-1.16-7.21-2.06-7.33-1.5-7.4-1.2-7.33-1.52-7.29-1.74-7.29-2-6.61,2.25L180.35,396l-6.71,1.81L167.08,400l-6.29,3L154,404.49l-6.53,2.31-6.31,2.94-6.79,1.61L128,414.09l-.6-.1-.33,7.66.37,7.65-.34,7.65.68,7.65-.44,7.65.55,7.9-7.59,2.34-7.42,2.06-7.18,2.75-7.24,2.59-7.13,2.88L84,475.35l-6.91,2.48,6.95,1.36,7.15,2.18,7.47.63,7.15,2.16,7.39,1,7.19,2,7.23,1.82,7.26,1.69,7.42.91,7.27,1.65L157,495l-7.55-1.24-7.21-2-7.36-1.25-7.16-2.23-7.32-1.47-7.4-1.1-7.32-1.46-7.31-1.54-7.26-1.78-7.26-1.76-7.26-1-.48,7.5v7.66l.07,7.67.71,7.66-.11,7.67-.21,7.59,7.2,1.6L91,527.33l7.38,1.12,7.28,1.63,7.38,1.15,7.18,2.1,7.4,1.05,7.34,1.38,7.19,2.09,7.44.88,7.2,2.15ZM193.23,482l-7.31,2.44-6.85,3.33-7.13,2.57L164.48,492l-6.94,3.14-.28-.56,7.35-2,7-3,7.28-2.2,7.17-2.51Z"/><path d="M555.26,653.35l.18,0-.21,0,.34-.73-.6.33-7.39-1-7.17-2.11L533,648.72l-7.17-2.08-7.36-1.18-7.33-1.35-7.19-2-7.31-1.44-7.28-1.58-7.23-1.86L474.81,636l-7.38-1.32L460,633.51l-7.16-2.32-7.41-1.2-7.24-2-7.4-1.21-7.38-1.32-7.22-2.08-7.47-.9-7.17-2.35-7.34-1.56-7.38-1.25-7.31-1.59-7.4-1.14-7.25-1.9-7.44-1-7.3-1.62-7.29-1.69-7.32-1.58-7.3-1.65-7.29-1.71-7.32-1.54-6.53,2.44-6.52,2.53-6.7,2-6.65,2.17-6.69,2-6.35,3-6.59,2.32-6.78,1.81-6.36,3-6.88,1.55L241,627.2l-6.56,2.35-6.35,2.94-6.58,2.31-6.81,1.63-6.44,2.69-6.57,2.33-6.6,2.26-6.53,2.47L181.81,648l-6.28,3.06-6.76,1.7L162.19,655l-6.48,2.52-6.46,2.57-6.44,2.63-6.76,1.7L129.6,667l-6.44,2.66-6.7,1.91.51,0-.11,7.66.11,7.66-.26,7.66-.48,7.66.67,7.66-.59,7.66.31,0-.34,0,.23.34,7.3,1.84,7.34,1.65,7.41,1.29,7.45,1.11,7.29,1.91,7.36,1.54,7.3,1.85,7.38,1.48,7.44,1.16,7.38,1.51,7.26,2.14.18-.49,7.52-2.51,7.41-2.85,7.34-3,7.45-2.73,7.1-2.44,7.17-2.24,7.07-2.54,7.14-2.34,7-2.35,7.36.95,7.36,1.72.12,7.53.11,7.48,0,7.48.11,7.48-.15,7.26,7,1.39,7.19,1.6,7.18,1.68,7.29,1.16,7.2,1.58,7.06,2.25,7.29,1.11,7.25,1.37,7.2,1.63,7.25,1.38,8.66,2.31.09-.28,0-.26.27.7,6.47-2.48,6.47-2.49,6.55-2.28,6.61-2.11,6.55-2.28,6.27-3.08,6.81-1.52,6.56-2.26,6.51-2.42,6.6-2.15,6.43-2.7,6.49-2.54,6.69-2,6.42-2.76,6.49-2.55,6.6-2.26,6.6-2.22,6.74-1.87,6.42-2.78,6.66-2.09,6.6-2.29,6.44-2.76,6.88-1.51,6.31-3.13,6.83-1.66,6.42-2.82,6.74-1.89,6.6-2.32,6.62-2.28,6.36-3-.38.42.2-7.66.32-7.66-.5-7.66.6-7.66.07-7.67ZM197.07,688.46l7.07-2.38,7-2.65,7.31-1.91,6.84-3-7.19,3.26-7.65,2.22-7.31,3.13-5.87,1.52-6.92-1.11-7-1.29-6.83-2-7-1.38-6.92-1.53-6.86-1.81-7-1.15-7-1.25-7-1.12-6.77-2.26-7-1.15,6.87,1.79,7,1.12,7,1.23,6.79,2,7,.81,6.74,2.26,6.91,1.47,7,1.16,6.9,1.51,7,1Zm65.42-22.28-.09-.66.42-.31.29.25Z"/><path class="a" d="M555.26,653.35l.18,0-.21,0,.34-.73-.6.33-7.39-1-7.17-2.11L533,648.72l-7.17-2.08-7.36-1.18-7.33-1.35-7.19-2-7.31-1.44-7.28-1.58-7.23-1.86L474.81,636l-7.38-1.32L460,633.51l-7.16-2.32-7.41-1.2-7.24-2-7.4-1.21-7.38-1.32-7.22-2.08-7.47-.9-7.17-2.35-7.34-1.56-7.38-1.25-7.31-1.59-7.4-1.14-7.25-1.9-7.44-1-7.3-1.62-7.29-1.69-7.32-1.58-7.3-1.65-7.29-1.71-7.32-1.54-6.53,2.44-6.52,2.53-6.7,2-6.65,2.17-6.69,2-6.35,3-6.59,2.32-6.78,1.81-6.36,3-6.88,1.55L241,627.2l-6.56,2.35-6.35,2.94-6.58,2.31-6.81,1.63-6.44,2.69-6.57,2.33-6.6,2.26-6.53,2.47L181.81,648l-6.28,3.06-6.76,1.7L162.19,655l-6.48,2.52-6.46,2.57-6.44,2.63-6.76,1.7L129.6,667l-6.44,2.66-6.7,1.91.51,0-.11,7.66.11,7.66-.26,7.66-.48,7.66.67,7.66-.59,7.66.31,0-.34,0,.23.34,7.3,1.84,7.34,1.65,7.41,1.29,7.45,1.11,7.29,1.91,7.36,1.54,7.3,1.85,7.38,1.48,7.44,1.16,7.38,1.51,7.26,2.14.18-.49,7.52-2.51,7.41-2.85,7.34-3,7.45-2.73,7.1-2.44,7.17-2.24,7.07-2.54,7.14-2.34,7-2.35,7.36.95,7.36,1.72.12,7.53.11,7.48,0,7.48.11,7.48-.15,7.26,7,1.39,7.19,1.6,7.18,1.68,7.29,1.16,7.2,1.58,7.06,2.25,7.29,1.11,7.25,1.37,7.2,1.63,7.25,1.38,8.66,2.31.09-.28,0-.26.27.7,6.47-2.48,6.47-2.49,6.55-2.28,6.61-2.11,6.55-2.28,6.27-3.08,6.81-1.52,6.56-2.26,6.51-2.42,6.6-2.15,6.43-2.7,6.49-2.54,6.69-2,6.42-2.76,6.49-2.55,6.6-2.26,6.6-2.22,6.74-1.87,6.42-2.78,6.66-2.09,6.6-2.29,6.44-2.76,6.88-1.51,6.31-3.13,6.83-1.66,6.42-2.82,6.74-1.89,6.6-2.32,6.62-2.28,6.36-3-.38.42.2-7.66.32-7.66-.5-7.66.6-7.66.07-7.67ZM197.07,688.46l7.07-2.38,7-2.65,7.31-1.91,6.84-3-7.19,3.26-7.65,2.22-7.31,3.13-5.87,1.52-6.92-1.11-7-1.29-6.83-2-7-1.38-6.92-1.53-6.86-1.81-7-1.15-7-1.25-7-1.12-6.77-2.26-7-1.15,6.87,1.79,7,1.12,7,1.23,6.79,2,7,.81,6.74,2.26,6.91,1.47,7,1.16,6.9,1.51,7,1Zm65.42-22.28-.09-.66.42-.31.29.25Z"/><polygon class="b" points="602.9 111.14 596.25 113.34 589.83 116.08 583.08 117.9 576.75 120.9 570.08 122.94 563.55 125.39 556.81 127.22 550.25 129.59 543.62 131.77 537.2 134.81 529.94 132.55 522.6 131.03 515.26 129.55 507.77 128.77 500.49 126.98 493.26 124.94 485.82 123.9 478.56 121.97 471.32 120 463.88 118.93 456.2 117.44 463.25 115.45 469.69 112.78 476.18 110.22 482.96 108.5 489.24 105.35 495.88 103.22 502.56 101.21 509.15 98.93 515.56 96.13 522.62 94.08 514.87 92.88 507.6 91.05 500.36 89.09 492.94 87.95 485.66 86.14 478.32 84.65 470.86 83.71 463.52 82.14 456.33 79.94 448.91 78.75 441.62 77.05 435.04 79.34 428.48 81.77 421.83 83.93 415.29 86.4 408.78 88.97 402.03 90.87 395.61 93.68 388.73 95.2 382.18 97.69 375.77 100.56 369.22 102.91 362.7 105.37 355.83 106.84 349.28 109.22 342.75 111.66 336.19 114.03 329.61 116.32 323.04 118.67 316.61 121.41 309.97 123.56 303.57 126.29 296.92 128.29 290.41 130.74 283.74 132.7 277.13 134.84 270.78 137.74 264.05 139.54 257.67 142.34 250.86 143.94 244.05 146.74 251.85 147.87 259.01 150.23 266.45 151.25 273.66 153.37 281.06 154.58 288.45 155.86 295.8 157.36 303.16 158.76 310.4 160.76 317.85 161.8 325.08 163.61 331.72 161.69 338.26 159.29 344.85 157.02 351.36 154.51 357.83 151.91 364.45 149.74 371.08 147.57 377.79 145.64 384.36 143.28 390.81 140.55 398.07 142.51 405.46 143.79 412.86 145.01 420.15 146.75 427.45 148.41 434.83 149.77 442.08 151.68 449.37 153.48 456.83 154.41 464.06 156.5 471.92 157.65 465.01 160.4 458.42 162.63 451.7 164.55 445.09 166.75 438.62 169.36 432.19 172.09 425.57 174.26 419.04 176.73 412.38 178.81 405.75 180.96 413.03 182.68 420.36 184.24 427.66 185.94 435.03 187.29 442.32 189.06 449.62 190.76 457.12 191.52 464.27 193.92 471.63 195.36 479.12 196.2 486.37 197.78 492.9 195.73 499.32 193.04 505.98 191.03 512.43 188.44 519.28 186.99 525.81 184.61 532.22 181.91 538.85 179.79 545.32 177.21 551.98 175.19 558.31 172.22 565.04 170.34 571.75 168.41 578.16 165.63 584.84 163.62 591.35 161.12 597.86 158.64 604.39 156.18 611.08 154.18 617.63 151.75 624.07 149 630.72 146.86 637.43 144.88 643.84 142.01 650.47 139.8 657.1 137.57 663.71 135.29 670.21 132.68 677.08 131.13 683.95 128.38 676.2 127.02 668.86 125.51 661.63 123.51 654.25 122.2 646.92 120.63 639.59 119.09 632.19 117.82 624.91 116 617.59 114.4 610.21 113.06 602.9 111.14"/><polygon class="a" points="602.9 111.14 596.25 113.34 589.83 116.08 583.08 117.9 576.75 120.9 570.08 122.94 563.55 125.39 556.81 127.22 550.25 129.59 543.62 131.77 537.2 134.81 529.94 132.55 522.6 131.03 515.26 129.55 507.77 128.77 500.49 126.98 493.26 124.94 485.82 123.9 478.56 121.97 471.32 120 463.88 118.93 456.2 117.44 463.25 115.45 469.69 112.78 476.18 110.22 482.96 108.5 489.24 105.35 495.88 103.22 502.56 101.21 509.15 98.93 515.56 96.13 522.62 94.08 514.87 92.88 507.6 91.05 500.36 89.09 492.94 87.95 485.66 86.14 478.32 84.65 470.86 83.71 463.52 82.14 456.33 79.94 448.91 78.75 441.62 77.05 435.04 79.34 428.48 81.77 421.83 83.93 415.29 86.4 408.78 88.97 402.03 90.87 395.61 93.68 388.73 95.2 382.18 97.69 375.77 100.56 369.22 102.91 362.7 105.37 355.83 106.84 349.28 109.22 342.75 111.66 336.19 114.03 329.61 116.32 323.04 118.67 316.61 121.41 309.97 123.56 303.57 126.29 296.92 128.29 290.41 130.74 283.74 132.7 277.13 134.84 270.78 137.74 264.05 139.54 257.67 142.34 250.86 143.94 244.05 146.74 251.85 147.87 259.01 150.23 266.45 151.25 273.66 153.37 281.06 154.58 288.45 155.86 295.8 157.36 303.16 158.76 310.4 160.76 317.85 161.8 325.08 163.61 331.72 161.69 338.26 159.29 344.85 157.02 351.36 154.51 357.83 151.91 364.45 149.74 371.08 147.57 377.79 145.64 384.36 143.28 390.81 140.55 398.07 142.51 405.46 143.79 412.86 145.01 420.15 146.75 427.45 148.41 434.83 149.77 442.08 151.68 449.37 153.48 456.83 154.41 464.06 156.5 471.92 157.65 465.01 160.4 458.42 162.63 451.7 164.55 445.09 166.75 438.62 169.36 432.19 172.09 425.57 174.26 419.04 176.73 412.38 178.81 405.75 180.96 413.03 182.68 420.36 184.24 427.66 185.94 435.03 187.29 442.32 189.06 449.62 190.76 457.12 191.52 464.27 193.92 471.63 195.36 479.12 196.2 486.37 197.78 492.9 195.73 499.32 193.04 505.98 191.03 512.43 188.44 519.28 186.99 525.81 184.61 532.22 181.91 538.85 179.79 545.32 177.21 551.98 175.19 558.31 172.22 565.04 170.34 571.75 168.41 578.16 165.63 584.84 163.62 591.35 161.12 597.86 158.64 604.39 156.18 611.08 154.18 617.63 151.75 624.07 149 630.72 146.86 637.43 144.88 643.84 142.01 650.47 139.8 657.1 137.57 663.71 135.29 670.21 132.68 677.08 131.13 683.95 128.38 676.2 127.02 668.86 125.51 661.63 123.51 654.25 122.2 646.92 120.63 639.59 119.09 632.19 117.82 624.91 116 617.59 114.4 610.21 113.06 602.9 111.14"/><polygon class="b" points="602.9 65.1 596.18 67.16 589.63 69.53 583.15 72.1 576.51 74.24 570.19 77.27 563.35 78.84 556.87 81.41 550.22 83.5 543.93 86.66 537.2 88.68 529.83 87.09 522.54 85.33 515.26 83.54 507.77 82.74 500.58 80.54 493.11 79.62 485.94 77.3 478.58 75.87 471.27 74.22 463.9 72.81 456.54 71.37 463.02 68.81 469.84 67.2 476.09 63.98 482.87 62.24 489.47 60.01 496.05 57.71 502.45 54.91 509.05 52.65 515.78 50.76 521.8 48.24 514.9 46.77 507.65 44.78 500.25 43.61 493.04 41.49 485.62 40.33 478.38 38.34 470.98 37.13 463.65 35.55 456.26 34.27 448.95 32.56 441.63 31.16 434.92 33 428.48 35.76 421.81 37.88 415.3 40.43 408.58 42.41 402.04 44.88 395.48 47.3 388.73 49.2 382.37 52.2 375.71 54.38 369.26 57.02 362.65 59.22 355.82 60.81 349.31 63.31 342.82 65.87 336.2 68.04 329.83 70.95 323.03 72.63 316.51 75.11 309.96 77.53 303.54 80.2 296.83 82.04 290.37 84.62 283.83 86.95 277.27 89.25 270.68 91.47 264.07 93.59 257.61 96.19 251.03 98.45 244.22 100.71 251.82 102 259.12 103.72 266.35 105.72 273.83 106.56 281.1 108.42 288.49 109.69 295.68 111.88 303.15 112.83 310.32 115.15 317.77 116.16 325.07 117.48 331.61 115.37 338.28 113.33 344.91 111.19 351.23 108.16 357.86 105.99 364.55 104.01 371.09 101.59 377.68 99.31 384.31 97.15 390.81 94.61 398.21 95.82 405.41 98.02 412.78 99.35 420.14 100.8 427.4 102.65 434.69 104.42 442.21 105.08 449.51 106.8 456.79 108.64 464.22 109.73 471.3 111.78 464.8 113.8 458.26 116.2 451.92 119.15 445.22 121.13 438.76 123.77 432.11 125.87 425.56 128.24 418.77 129.97 412.45 133.03 405.35 135.04 413.14 136.19 420.34 138.34 427.77 139.44 435.09 141.02 442.34 142.98 449.68 144.49 457.14 145.41 464.33 147.68 471.65 149.26 479.14 150.14 486.37 151.81 493.05 150.14 499.39 147.24 505.97 145.01 512.46 142.54 519.14 140.59 525.53 137.8 532.23 135.92 538.83 133.73 545.48 131.68 551.79 128.65 558.61 127.05 565.1 124.5 571.45 121.55 578.25 119.9 584.65 117.1 591.42 115.33 598.05 113.17 604.58 110.73 611.14 108.35 617.78 106.19 624.11 103.13 630.92 101.42 637.39 98.75 644.04 96.6 650.41 93.64 657.23 91.93 663.7 89.27 670.52 87.57 677.02 84.95 683.22 82.51 676.15 81.25 668.87 79.46 661.67 77.3 654.33 75.79 646.82 75.09 639.61 72.98 632.22 71.71 624.93 69.91 617.57 68.48 610.23 66.95 602.9 65.1"/><polygon class="a" points="602.9 65.1 596.18 67.16 589.63 69.53 583.15 72.1 576.51 74.24 570.19 77.27 563.35 78.84 556.87 81.41 550.22 83.5 543.93 86.66 537.2 88.68 529.83 87.09 522.54 85.33 515.26 83.54 507.77 82.74 500.58 80.54 493.11 79.62 485.94 77.3 478.58 75.87 471.27 74.22 463.9 72.81 456.54 71.37 463.02 68.81 469.84 67.2 476.09 63.98 482.87 62.24 489.47 60.01 496.05 57.71 502.45 54.91 509.05 52.65 515.78 50.76 521.8 48.24 514.9 46.77 507.65 44.78 500.25 43.61 493.04 41.49 485.62 40.33 478.38 38.34 470.98 37.13 463.65 35.55 456.26 34.27 448.95 32.56 441.63 31.16 434.92 33 428.48 35.76 421.81 37.88 415.3 40.43 408.58 42.41 402.04 44.88 395.48 47.3 388.73 49.2 382.37 52.2 375.71 54.38 369.26 57.02 362.65 59.22 355.82 60.81 349.31 63.31 342.82 65.87 336.2 68.04 329.83 70.95 323.03 72.63 316.51 75.11 309.96 77.53 303.54 80.2 296.83 82.04 290.37 84.62 283.83 86.95 277.27 89.25 270.68 91.47 264.07 93.59 257.61 96.19 251.03 98.45 244.22 100.71 251.82 102 259.12 103.72 266.35 105.72 273.83 106.56 281.1 108.42 288.49 109.69 295.68 111.88 303.15 112.83 310.32 115.15 317.77 116.16 325.07 117.48 331.61 115.37 338.28 113.33 344.91 111.19 351.23 108.16 357.86 105.99 364.55 104.01 371.09 101.59 377.68 99.31 384.31 97.15 390.81 94.61 398.21 95.82 405.41 98.02 412.78 99.35 420.14 100.8 427.4 102.65 434.69 104.42 442.21 105.08 449.51 106.8 456.79 108.64 464.22 109.73 471.3 111.78 464.8 113.8 458.26 116.2 451.92 119.15 445.22 121.13 438.76 123.77 432.11 125.87 425.56 128.24 418.77 129.97 412.45 133.03 405.35 135.04 413.14 136.19 420.34 138.34 427.77 139.44 435.09 141.02 442.34 142.98 449.68 144.49 457.14 145.41 464.33 147.68 471.65 149.26 479.14 150.14 486.37 151.81 493.05 150.14 499.39 147.24 505.97 145.01 512.46 142.54 519.14 140.59 525.53 137.8 532.23 135.92 538.83 133.73 545.48 131.68 551.79 128.65 558.61 127.05 565.1 124.5 571.45 121.55 578.25 119.9 584.65 117.1 591.42 115.33 598.05 113.17 604.58 110.73 611.14 108.35 617.78 106.19 624.11 103.13 630.92 101.42 637.39 98.75 644.04 96.6 650.41 93.64 657.23 91.93 663.7 89.27 670.52 87.57 677.02 84.95 683.22 82.51 676.15 81.25 668.87 79.46 661.67 77.3 654.33 75.79 646.82 75.09 639.61 72.98 632.22 71.71 624.93 69.91 617.57 68.48 610.23 66.95 602.9 65.1"/><polygon class="b" points="405.56 134.57 412.99 136.52 420.28 138.26 427.75 139.16 434.96 141.29 442.45 142.12 449.58 144.6 456.96 145.93 464.3 147.47 471.66 148.91 478.9 150.91 486.31 151.53 493.1 149.52 500.07 147.63 506.71 144.8 513.45 142.22 520.22 139.76 527.19 137.87 533.98 135.44 540.69 132.8 547.5 130.45 554.17 127.67 560.97 125.3 567.94 123.39 574.76 121.06 581.62 118.84 588.16 115.68 595.15 113.82 602.01 111.59 608.8 109.18 615.64 106.89 622.37 104.28 629 101.41 635.99 99.56 642.72 96.96 649.61 94.81 656.29 92.08 662.97 89.34 669.92 87.35 676.82 85.22 683.35 82.65 683.82 90.04 683.13 97.63 683.48 105.22 683.73 112.81 683.63 120.41 683.72 128.15 676.7 130.4 669.97 132.99 663.27 135.67 656.25 137.44 649.56 140.16 642.78 142.61 635.96 144.95 629.03 146.99 622.3 149.6 615.53 152.08 608.85 154.81 601.87 156.71 595.09 159.19 588.27 161.53 581.59 164.29 574.65 166.3 568.03 169.24 561.17 171.48 554.34 173.8 547.7 176.66 540.69 178.49 533.9 180.92 527.17 183.53 520.49 186.28 513.46 188.05 506.7 190.56 500.14 193.66 493.16 195.6 486.37 197.86 479.06 196.5 471.67 195.24 464.4 193.43 456.99 192.27 449.69 190.52 442.44 188.59 435.02 187.47 427.7 185.86 420.5 183.68 413.01 182.84 405.41 181.23 405.39 173.27 405.32 165.56 405.66 157.86 405.58 150.16 406.17 142.44 405.56 134.57"/><polygon class="a" points="405.56 134.57 412.99 136.52 420.28 138.26 427.75 139.16 434.96 141.29 442.45 142.12 449.58 144.6 456.96 145.93 464.3 147.47 471.66 148.91 478.9 150.91 486.31 151.53 493.1 149.52 500.07 147.63 506.71 144.8 513.45 142.22 520.22 139.76 527.19 137.87 533.98 135.44 540.69 132.8 547.5 130.45 554.17 127.67 560.97 125.3 567.94 123.39 574.76 121.06 581.62 118.84 588.16 115.68 595.15 113.82 602.01 111.59 608.8 109.18 615.64 106.89 622.37 104.28 629 101.41 635.99 99.56 642.72 96.96 649.61 94.81 656.29 92.08 662.97 89.34 669.92 87.35 676.82 85.22 683.35 82.65 683.82 90.04 683.13 97.63 683.48 105.22 683.73 112.81 683.63 120.41 683.72 128.15 676.7 130.4 669.97 132.99 663.27 135.67 656.25 137.44 649.56 140.16 642.78 142.61 635.96 144.95 629.03 146.99 622.3 149.6 615.53 152.08 608.85 154.81 601.87 156.71 595.09 159.19 588.27 161.53 581.59 164.29 574.65 166.3 568.03 169.24 561.17 171.48 554.34 173.8 547.7 176.66 540.69 178.49 533.9 180.92 527.17 183.53 520.49 186.28 513.46 188.05 506.7 190.56 500.14 193.66 493.16 195.6 486.37 197.86 479.06 196.5 471.67 195.24 464.4 193.43 456.99 192.27 449.69 190.52 442.44 188.59 435.02 187.47 427.7 185.86 420.5 183.68 413.01 182.84 405.41 181.23 405.39 173.27 405.32 165.56 405.66 157.86 405.58 150.16 406.17 142.44 405.56 134.57"/><polygon class="b" points="244.79 101.35 244.17 108.66 244.67 116.33 244.32 124 244.71 131.66 244.14 139.33 244.48 147.01 251.82 148.48 259.11 150.1 266.35 151.95 273.72 153.2 281.15 154.17 288.33 156.32 295.63 157.89 302.92 159.53 310.25 160.99 317.53 162.69 324.94 163.99 331.62 161.9 337.92 158.85 344.58 156.84 351.23 154.76 357.71 152.23 364.1 149.45 370.95 147.96 377.38 145.28 383.85 142.68 390.54 140.62 390.59 133 390.71 125.4 390.44 117.8 390.38 110.2 390.43 102.6 390.69 94.76 384.03 97.47 377.27 99.11 370.81 101.63 364.29 103.96 357.95 106.82 351.2 108.49 344.74 111.01 338.03 112.82 331.64 115.53 325.06 117.36 317.83 115.96 310.45 114.69 303.03 113.64 295.74 111.96 288.49 110.08 281.16 108.57 273.74 107.49 266.4 106.03 259.2 103.87 251.86 102.39 244.79 101.35"/><polygon class="a" points="244.79 101.35 244.17 108.66 244.67 116.33 244.32 124 244.71 131.66 244.14 139.33 244.48 147.01 251.82 148.48 259.11 150.1 266.35 151.95 273.72 153.2 281.15 154.17 288.33 156.32 295.63 157.89 302.92 159.53 310.25 160.99 317.53 162.69 324.94 163.99 331.62 161.9 337.92 158.85 344.58 156.84 351.23 154.76 357.71 152.23 364.1 149.45 370.95 147.96 377.38 145.28 383.85 142.68 390.54 140.62 390.59 133 390.71 125.4 390.44 117.8 390.38 110.2 390.43 102.6 390.69 94.76 384.03 97.47 377.27 99.11 370.81 101.63 364.29 103.96 357.95 106.82 351.2 108.49 344.74 111.01 338.03 112.82 331.64 115.53 325.06 117.36 317.83 115.96 310.45 114.69 303.03 113.64 295.74 111.96 288.49 110.08 281.16 108.57 273.74 107.49 266.4 106.03 259.2 103.87 251.86 102.39 244.79 101.35"/><polygon points="325.25 163.63 325.03 156.34 324.51 148.66 324.99 140.97 324.88 133.29 324.59 125.6 325.41 118.13 331.56 115.46 338.31 113.77 344.76 111.22 351.12 108.41 357.8 106.52 364.21 103.86 370.81 101.75 377.45 99.73 384.01 97.47 390.78 94.66 390.31 102.66 390.24 110.33 390.51 118 390.44 125.66 390.25 133.33 390.54 141.02 384.04 143.55 377.23 145.13 370.98 148.28 364.21 149.99 357.77 152.61 351.12 154.65 344.71 157.36 338.06 159.41 331.48 161.66 325.25 163.63"/><polygon class="a" points="325.25 163.63 325.03 156.34 324.51 148.66 324.99 140.97 324.88 133.29 324.59 125.6 325.41 118.13 331.56 115.46 338.31 113.77 344.76 111.22 351.12 108.41 357.8 106.52 364.21 103.86 370.81 101.75 377.45 99.73 384.01 97.47 390.78 94.66 390.31 102.66 390.24 110.33 390.51 118 390.44 125.66 390.25 133.33 390.54 141.02 384.04 143.55 377.23 145.13 370.98 148.28 364.21 149.99 357.77 152.61 351.12 154.65 344.71 157.36 338.06 159.41 331.48 161.66 325.25 163.63"/><polygon points="486.58 197.86 486.45 190.43 486.61 182.75 486.53 175.06 486.74 167.38 485.85 159.69 486.21 151.92 493.08 149.45 500.05 147.58 506.63 144.55 513.61 142.67 520.45 140.4 527.06 137.5 533.84 135.03 540.65 132.69 547.39 130.13 554.3 128.04 560.98 125.31 568.01 123.58 574.66 120.75 581.54 118.59 588.31 116.1 595.11 113.72 601.96 111.45 608.77 109.1 615.4 106.22 622.38 104.32 628.94 101.26 635.8 99.03 642.74 97.01 649.38 94.17 656.17 91.73 663.07 89.63 669.95 87.45 676.85 85.3 683.22 82.81 683.72 90.04 683.82 97.63 683.19 105.22 683.06 112.81 683.02 120.41 683.88 128.26 676.58 130.05 669.97 132.98 663.29 135.71 656.38 137.8 649.7 140.54 642.8 142.67 635.91 144.83 629.31 147.77 622.25 149.44 615.44 151.84 608.61 154.15 602.12 157.41 595.21 159.53 588.27 161.53 581.69 164.58 574.75 166.57 568.14 169.54 561.25 171.68 554.5 174.26 547.59 176.37 540.7 178.51 533.97 181.1 527.32 183.94 520.42 186.09 513.7 188.74 506.78 190.8 499.87 192.9 493.12 195.49 486.58 197.86"/><polygon class="a" points="486.58 197.86 486.45 190.43 486.61 182.75 486.53 175.06 486.74 167.38 485.85 159.69 486.21 151.92 493.08 149.45 500.05 147.58 506.63 144.55 513.61 142.67 520.45 140.4 527.06 137.5 533.84 135.03 540.65 132.69 547.39 130.13 554.3 128.04 560.98 125.31 568.01 123.58 574.66 120.75 581.54 118.59 588.31 116.1 595.11 113.72 601.96 111.45 608.77 109.1 615.4 106.22 622.38 104.32 628.94 101.26 635.8 99.03 642.74 97.01 649.38 94.17 656.17 91.73 663.07 89.63 669.95 87.45 676.85 85.3 683.22 82.81 683.72 90.04 683.82 97.63 683.19 105.22 683.06 112.81 683.02 120.41 683.88 128.26 676.58 130.05 669.97 132.98 663.29 135.71 656.38 137.8 649.7 140.54 642.8 142.67 635.91 144.83 629.31 147.77 622.25 149.44 615.44 151.84 608.61 154.15 602.12 157.41 595.21 159.53 588.27 161.53 581.69 164.58 574.75 166.57 568.14 169.54 561.25 171.68 554.5 174.26 547.59 176.37 540.7 178.51 533.97 181.1 527.32 183.94 520.42 186.09 513.7 188.74 506.78 190.8 499.87 192.9 493.12 195.49 486.58 197.86"/><polygon points="518.72 48.69 518.31 56.2 518.2 63.39 518.99 70.59 518.38 77.8 518.2 84.63 511.54 83.84 504.74 81.95 497.92 80.15 490.95 79.03 484.04 77.67 477.17 76.11 470.34 74.3 463.47 72.7 456.55 71.37 463.37 68.75 470.28 66.34 477.23 64.06 484.12 61.57 490.8 58.54 497.8 56.38 504.76 54.1 511.6 51.45 518.72 48.69"/><polygon class="a" points="518.72 48.69 518.31 56.2 518.2 63.39 518.99 70.59 518.38 77.8 518.2 84.63 511.54 83.84 504.74 81.95 497.92 80.15 490.95 79.03 484.04 77.67 477.17 76.11 470.34 74.3 463.47 72.7 456.55 71.37 463.37 68.75 470.28 66.34 477.23 64.06 484.12 61.57 490.8 58.54 497.8 56.38 504.76 54.1 511.6 51.45 518.72 48.69"/><polygon class="b" points="642.42 339.46 635.1 337.88 627.73 336.47 620.41 334.88 613.19 332.83 605.82 331.46 598.55 329.6 591.12 328.54 583.86 326.59 576.52 325.11 569.16 323.64 561.9 321.73 554.51 320.47 547.13 319.22 539.88 317.38 532.62 315.53 525.28 314.09 517.81 313.22 510.54 311.47 503.32 309.43 495.85 308.56 488.6 306.63 481.3 305.17 474.65 307.13 468.29 310.02 461.43 311.52 455.11 314.57 448.28 316.16 441.89 319.01 435.42 321.6 428.79 323.78 422.22 326.13 415.2 328.31 422.97 329.43 430.27 331.17 437.52 333.06 444.92 334.3 452.13 336.42 459.54 337.59 466.81 339.46 474.27 340.42 481.63 341.85 488.8 344.18 495.76 345.48 489.65 347.62 483.09 349.89 476.7 352.65 470.17 355.01 463.44 356.81 457.08 359.67 450.28 361.25 443.93 364.12 437.42 366.57 430.82 368.76 424.03 370.54 417.6 373.32 410.96 375.53 404.44 378.06 397.93 380.64 391.31 382.91 384.53 384.71 377.93 387.04 371.36 389.48 364.63 391.86 372.04 393.67 379.46 394.81 386.68 396.85 394.03 398.33 401.48 399.3 408.67 401.52 416.06 402.78 423.37 404.47 430.74 405.87 438.08 407.42 445.41 409.02 452 406.64 458.64 404.46 465.29 402.28 471.74 399.53 478.52 397.73 484.95 394.92 491.65 392.88 498.2 390.43 504.77 387.99 511.26 385.33 517.88 383.25 524.39 380.85 530.89 378.39 537.65 376.68 544.16 374.26 550.68 371.86 557.28 369.72 563.62 366.81 570.4 365.13 576.84 362.08 584.26 363.79 591.61 365.25 598.83 367.31 606.18 368.77 613.57 370.06 620.83 371.93 628.2 373.31 635.58 374.68 642.85 376.49 650.16 378.19 657.48 379.2 664.01 377.19 670.51 374.66 677.32 373.01 683.86 370.61 690.3 367.92 696.83 365.48 703.53 363.51 710.04 361.03 716.5 358.36 723.45 356.42 715.91 354.81 708.52 353.48 701.22 351.77 693.97 349.74 686.61 348.29 679.2 347.07 671.94 345.08 664.56 343.67 657.18 342.3 649.81 340.82 642.42 339.46"/><polygon class="a" points="642.42 339.46 635.1 337.88 627.73 336.47 620.41 334.88 613.19 332.83 605.82 331.46 598.55 329.6 591.12 328.54 583.86 326.59 576.52 325.11 569.16 323.64 561.9 321.73 554.51 320.47 547.13 319.22 539.88 317.38 532.62 315.53 525.28 314.09 517.81 313.22 510.54 311.47 503.32 309.43 495.85 308.56 488.6 306.63 481.3 305.17 474.65 307.13 468.29 310.02 461.43 311.52 455.11 314.57 448.28 316.16 441.89 319.01 435.42 321.6 428.79 323.78 422.22 326.13 415.2 328.31 422.97 329.43 430.27 331.17 437.52 333.06 444.92 334.3 452.13 336.42 459.54 337.59 466.81 339.46 474.27 340.42 481.63 341.85 488.8 344.18 495.76 345.48 489.65 347.62 483.09 349.89 476.7 352.65 470.17 355.01 463.44 356.81 457.08 359.67 450.28 361.25 443.93 364.12 437.42 366.57 430.82 368.76 424.03 370.54 417.6 373.32 410.96 375.53 404.44 378.06 397.93 380.64 391.31 382.91 384.53 384.71 377.93 387.04 371.36 389.48 364.63 391.86 372.04 393.67 379.46 394.81 386.68 396.85 394.03 398.33 401.48 399.3 408.67 401.52 416.06 402.78 423.37 404.47 430.74 405.87 438.08 407.42 445.41 409.02 452 406.64 458.64 404.46 465.29 402.28 471.74 399.53 478.52 397.73 484.95 394.92 491.65 392.88 498.2 390.43 504.77 387.99 511.26 385.33 517.88 383.25 524.39 380.85 530.89 378.39 537.65 376.68 544.16 374.26 550.68 371.86 557.28 369.72 563.62 366.81 570.4 365.13 576.84 362.08 584.26 363.79 591.61 365.25 598.83 367.31 606.18 368.77 613.57 370.06 620.83 371.93 628.2 373.31 635.58 374.68 642.85 376.49 650.16 378.19 657.48 379.2 664.01 377.19 670.51 374.66 677.32 373.01 683.86 370.61 690.3 367.92 696.83 365.48 703.53 363.51 710.04 361.03 716.5 358.36 723.45 356.42 715.91 354.81 708.52 353.48 701.22 351.77 693.97 349.74 686.61 348.29 679.2 347.07 671.94 345.08 664.56 343.67 657.18 342.3 649.81 340.82 642.42 339.46"/><polygon class="b" points="642.4 293.58 635.23 291.25 627.75 290.39 620.47 288.63 613.11 287.2 605.78 285.64 598.38 284.41 591.24 281.94 583.73 281.2 576.54 278.97 569.07 278.08 561.73 276.54 554.47 274.69 547.21 272.87 539.86 271.45 532.46 270.29 525.25 268.25 517.8 267.28 510.68 264.78 503.35 263.26 495.87 262.49 488.62 260.57 481.27 258.57 474.62 261.04 468.15 263.64 461.56 265.91 455.11 268.57 448.48 270.71 441.71 272.48 435.24 275.1 428.57 277.15 422.01 279.52 415.34 282.28 423 283.33 430.33 284.87 437.55 286.91 444.93 288.25 452.19 290.15 459.48 291.91 466.89 293.05 474.18 294.82 481.45 296.7 488.92 297.65 495.74 299.49 489.67 301.7 483.27 304.42 476.5 306.1 470.11 308.86 463.57 311.19 456.86 313.03 450.31 315.35 443.69 317.46 437.24 320.06 430.89 322.97 424.25 325.17 417.48 326.97 410.94 329.46 404.21 331.41 397.85 334.43 391.1 336.31 384.68 339.14 378.08 341.47 371.2 343.03 364.44 345.89 372.14 347.17 379.39 349.13 386.72 350.66 394.17 351.67 401.33 354.01 408.71 355.33 416.07 356.77 423.42 358.23 430.67 360.21 438.05 361.56 445.4 362.79 451.88 360.31 458.71 358.66 465.06 355.64 471.76 353.59 478.4 351.38 484.88 348.71 491.56 346.63 498.07 344.05 504.64 341.62 511.23 339.24 517.89 337.26 524.44 334.98 530.88 332.38 537.48 330.2 544.05 327.96 550.59 325.6 557.33 323.85 563.86 321.49 570.21 318.58 576.84 316.11 584.29 317.65 591.5 319.75 598.91 320.94 606.16 322.89 613.43 324.69 620.83 325.95 628.16 327.5 635.58 328.68 642.79 330.81 650.14 332.27 657.49 333.31 663.98 331.09 670.49 328.61 677.29 326.94 683.72 324.2 690.27 321.83 697.08 320.19 703.36 317.04 709.92 314.67 716.8 313.2 723.24 310.47 715.83 309.19 708.48 307.68 701.26 305.54 693.98 303.74 686.6 302.32 679.11 301.48 671.79 299.79 664.49 298 657.12 296.57 649.74 295.19 642.4 293.58"/><polygon class="a" points="642.4 293.58 635.23 291.25 627.75 290.39 620.47 288.63 613.11 287.2 605.78 285.64 598.38 284.41 591.24 281.94 583.73 281.2 576.54 278.97 569.07 278.08 561.73 276.54 554.47 274.69 547.21 272.87 539.86 271.45 532.46 270.29 525.25 268.25 517.8 267.28 510.68 264.78 503.35 263.26 495.87 262.49 488.62 260.57 481.27 258.57 474.62 261.04 468.15 263.64 461.56 265.91 455.11 268.57 448.48 270.71 441.71 272.48 435.24 275.1 428.57 277.15 422.01 279.52 415.34 282.28 423 283.33 430.33 284.87 437.55 286.91 444.93 288.25 452.19 290.15 459.48 291.91 466.89 293.05 474.18 294.82 481.45 296.7 488.92 297.65 495.74 299.49 489.67 301.7 483.27 304.42 476.5 306.1 470.11 308.86 463.57 311.19 456.86 313.03 450.31 315.35 443.69 317.46 437.24 320.06 430.89 322.97 424.25 325.17 417.48 326.97 410.94 329.46 404.21 331.41 397.85 334.43 391.1 336.31 384.68 339.14 378.08 341.47 371.2 343.03 364.44 345.89 372.14 347.17 379.39 349.13 386.72 350.66 394.17 351.67 401.33 354.01 408.71 355.33 416.07 356.77 423.42 358.23 430.67 360.21 438.05 361.56 445.4 362.79 451.88 360.31 458.71 358.66 465.06 355.64 471.76 353.59 478.4 351.38 484.88 348.71 491.56 346.63 498.07 344.05 504.64 341.62 511.23 339.24 517.89 337.26 524.44 334.98 530.88 332.38 537.48 330.2 544.05 327.96 550.59 325.6 557.33 323.85 563.86 321.49 570.21 318.58 576.84 316.11 584.29 317.65 591.5 319.75 598.91 320.94 606.16 322.89 613.43 324.69 620.83 325.95 628.16 327.5 635.58 328.68 642.79 330.81 650.14 332.27 657.49 333.31 663.98 331.09 670.49 328.61 677.29 326.94 683.72 324.2 690.27 321.83 697.08 320.19 703.36 317.04 709.92 314.67 716.8 313.2 723.24 310.47 715.83 309.19 708.48 307.68 701.26 305.54 693.98 303.74 686.6 302.32 679.11 301.48 671.79 299.79 664.49 298 657.12 296.57 649.74 295.19 642.4 293.58"/><polygon points="445.65 408.81 445.2 401.34 445.29 393.67 445.4 386 445.38 378.34 445.08 370.67 445.86 363.25 452.54 360.96 459.25 358.03 466.13 355.52 473.01 353.05 480.12 351.21 486.76 348.07 493.8 346.01 500.68 343.56 507.66 341.34 514.39 338.44 521.43 336.4 528.26 333.77 535.17 331.37 542.03 328.83 548.91 326.34 555.63 323.43 562.7 321.46 569.45 318.56 576.24 316.88 576.79 324.28 576.66 332.02 576.95 339.76 576.97 347.51 576.54 355.25 576.7 363.13 569.74 365.8 562.65 367.66 555.87 370.39 548.89 372.55 541.96 374.87 534.99 377.08 528.17 379.72 521.49 382.75 514.39 384.57 507.41 386.76 500.61 389.44 493.9 392.38 486.77 394.13 479.99 396.89 473.22 399.67 466.32 402.07 459.2 403.84 452.53 406.95 445.65 408.81"/><polygon class="a" points="445.65 408.81 445.2 401.34 445.29 393.67 445.4 386 445.38 378.34 445.08 370.67 445.86 363.25 452.54 360.96 459.25 358.03 466.13 355.52 473.01 353.05 480.12 351.21 486.76 348.07 493.8 346.01 500.68 343.56 507.66 341.34 514.39 338.44 521.43 336.4 528.26 333.77 535.17 331.37 542.03 328.83 548.91 326.34 555.63 323.43 562.7 321.46 569.45 318.56 576.24 316.88 576.79 324.28 576.66 332.02 576.95 339.76 576.97 347.51 576.54 355.25 576.7 363.13 569.74 365.8 562.65 367.66 555.87 370.39 548.89 372.55 541.96 374.87 534.99 377.08 528.17 379.72 521.49 382.75 514.39 384.57 507.41 386.76 500.61 389.44 493.9 392.38 486.77 394.13 479.99 396.89 473.22 399.67 466.32 402.07 459.2 403.84 452.53 406.95 445.65 408.81"/><polygon points="657.64 379.82 657.43 372.34 657.91 364.67 657.39 357 657.66 349.34 657.4 341.67 657.46 333.97 664.25 332.09 670.83 329.68 677.36 327.16 683.83 324.44 690.55 322.41 697.21 320.25 703.69 317.55 710.38 315.43 717.05 313.26 723.57 310.37 723.98 318.05 723.38 325.64 723.53 333.23 723.58 340.81 723.83 348.41 723.61 356.07 716.84 358.21 710.21 360.5 703.6 362.88 697.11 365.57 690.67 368.43 683.77 369.99 677.33 372.82 670.58 374.83 664.25 378 657.64 379.82"/><polygon class="a" points="657.64 379.82 657.43 372.34 657.91 364.67 657.39 357 657.66 349.34 657.4 341.67 657.46 333.97 664.25 332.09 670.83 329.68 677.36 327.16 683.83 324.44 690.55 322.41 697.21 320.25 703.69 317.55 710.38 315.43 717.05 313.26 723.57 310.37 723.98 318.05 723.38 325.64 723.53 333.23 723.58 340.81 723.83 348.41 723.61 356.07 716.84 358.21 710.21 360.5 703.6 362.88 697.11 365.57 690.67 368.43 683.77 369.99 677.33 372.82 670.58 374.83 664.25 378 657.64 379.82"/><polygon class="b" points="576.44 316.93 576.59 324.66 576.73 332.33 576.23 340 576.54 347.66 576.92 355.33 576.23 363.22 583.94 364.19 591.28 365.81 598.68 367.18 606.04 368.75 613.31 370.69 620.68 372.22 628.08 373.61 635.33 375.69 642.66 377.38 650.22 378.02 657.46 379.95 657.59 372.34 657.31 364.67 657.61 357 657.2 349.34 657.88 341.67 657.22 334.23 650.18 332.24 642.72 331.15 635.35 329.68 628.1 327.61 620.66 326.41 613.38 324.52 605.88 323.62 598.54 321.94 591.15 320.52 583.8 318.88 576.44 316.93"/><polygon class="a" points="576.44 316.93 576.59 324.66 576.73 332.33 576.23 340 576.54 347.66 576.92 355.33 576.23 363.22 583.94 364.19 591.28 365.81 598.68 367.18 606.04 368.75 613.31 370.69 620.68 372.22 628.08 373.61 635.33 375.69 642.66 377.38 650.22 378.02 657.46 379.95 657.59 372.34 657.31 364.67 657.61 357 657.2 349.34 657.88 341.67 657.22 334.23 650.18 332.24 642.72 331.15 635.35 329.68 628.1 327.61 620.66 326.41 613.38 324.52 605.88 323.62 598.54 321.94 591.15 320.52 583.8 318.88 576.44 316.93"/><polygon class="b" points="364.48 392.02 364.03 384.34 364.3 376.67 364.58 369 364.56 361.34 364.19 353.67 364.76 346.31 371.92 347.29 379.19 349.26 386.56 350.73 393.98 352.04 401.25 353.99 408.63 355.46 416.03 356.84 423.49 357.91 430.84 359.53 438.11 361.54 445.16 363.27 445.79 370.66 445.9 378.33 445.3 386 445.13 393.66 445.34 401.33 445.2 408.64 438.12 407.53 430.7 406.24 423.44 404.26 416.04 402.89 408.59 401.75 401.28 399.99 394.02 397.91 386.61 396.62 379.17 395.43 371.78 393.97 364.48 392.02"/><polygon class="a" points="364.48 392.02 364.03 384.34 364.3 376.67 364.58 369 364.56 361.34 364.19 353.67 364.76 346.31 371.92 347.29 379.19 349.26 386.56 350.73 393.98 352.04 401.25 353.99 408.63 355.46 416.03 356.84 423.49 357.91 430.84 359.53 438.11 361.54 445.16 363.27 445.79 370.66 445.9 378.33 445.3 386 445.13 393.66 445.34 401.33 445.2 408.64 438.12 407.53 430.7 406.24 423.44 404.26 416.04 402.89 408.59 401.75 401.28 399.99 394.02 397.91 386.61 396.62 379.17 395.43 371.78 393.97 364.48 392.02"/><polygon class="b" points="415.67 282.2 415.24 289.66 415.74 297.33 415.1 305 415.99 312.66 415.66 320.33 415.69 327.76 422.14 325.38 429.01 323.41 435.72 320.96 442.38 318.4 449.03 315.83 455.95 314 462.43 310.91 469.25 308.81 475.91 306.23 482.78 304.26 489.45 301.68 496.19 299.39 488.9 297.72 481.49 296.47 474.11 295.12 466.79 293.45 459.6 291.21 452.16 290.11 444.78 288.72 437.56 286.6 430.19 285.15 422.94 283.13 415.67 282.2"/><polygon class="a" points="415.67 282.2 415.24 289.66 415.74 297.33 415.1 305 415.99 312.66 415.66 320.33 415.69 327.76 422.14 325.38 429.01 323.41 435.72 320.96 442.38 318.4 449.03 315.83 455.95 314 462.43 310.91 469.25 308.81 475.91 306.23 482.78 304.26 489.45 301.68 496.19 299.39 488.9 297.72 481.49 296.47 474.11 295.12 466.79 293.45 459.6 291.21 452.16 290.11 444.78 288.72 437.56 286.6 430.19 285.15 422.94 283.13 415.67 282.2"/><polygon class="b" points="762.82 549.98 755.52 548.3 748.04 547.43 740.74 545.75 733.53 543.59 726.07 542.65 718.8 540.83 711.44 539.39 704.07 538.04 696.86 535.89 689.54 534.23 682.17 532.82 674.79 531.57 667.6 529.41 660.16 528.44 652.9 526.61 645.55 525.22 638.25 523.58 630.82 522.55 623.66 520.19 616.23 519.19 608.84 517.9 601.64 516.37 594.95 518 588.52 520.77 581.93 523.11 575.21 525.08 568.51 527.11 562.08 529.9 555.46 532.14 549.01 534.87 542.12 536.4 535.7 539.25 529.21 541.76 522.42 543.46 515.97 546.12 509.37 548.36 502.82 550.76 496.2 552.93 489.65 555.31 483.12 557.78 476.65 560.41 469.85 562.11 463.5 564.98 456.7 566.58 450.45 569.73 443.87 571.95 437.18 573.86 430.7 576.4 423.95 578.13 417.5 580.74 411.16 583.69 404.91 585.46 411.73 587.32 419.09 588.71 426.46 590.09 433.82 591.51 441.12 593.19 448.49 594.55 455.74 596.52 463.03 598.25 470.44 599.47 477.81 600.87 485.09 602.78 491.52 600 498.18 597.96 504.79 595.72 511.31 593.25 517.84 590.82 524.53 588.84 531.21 586.81 537.76 584.42 544.21 581.72 550.84 579.87 558.14 581.04 565.46 582.68 572.77 584.28 580.22 585.3 587.5 587.08 594.71 589.21 602.11 590.43 609.36 592.41 616.77 593.6 624.14 594.98 631.34 596.65 624.78 598.63 618.27 601.11 611.82 603.76 605.06 605.56 598.5 607.92 592.12 610.78 585.52 613.03 579.06 615.66 572.32 617.53 565.89 619.82 573.08 621.36 580.46 622.69 587.77 624.3 595.15 625.62 602.46 627.26 609.63 629.58 616.95 631.19 624.3 632.69 631.69 633.96 639.02 635.58 646.36 636.63 652.98 634.83 659.36 632.05 665.9 629.69 672.62 627.85 679.13 625.42 685.83 623.53 692.25 620.88 698.82 618.59 705.45 616.47 711.74 613.39 718.35 611.21 725.15 609.53 731.73 607.25 738.18 604.58 744.72 602.17 751.31 599.9 757.76 597.25 764.5 595.37 771 592.82 777.75 590.98 784.2 588.25 790.88 586.19 797.36 583.55 803.84 580.9 810.56 578.95 817.12 576.5 823.76 574.32 830.5 572.4 837.07 569.98 843.17 567.41 836.3 565.37 828.82 564.48 821.6 562.38 814.14 561.35 806.91 559.24 799.42 558.39 792.25 556.02 784.86 554.67 777.41 553.62 770.07 552 762.82 549.98"/><polygon class="a" points="762.82 549.98 755.52 548.3 748.04 547.43 740.74 545.75 733.53 543.59 726.07 542.65 718.8 540.83 711.44 539.39 704.07 538.04 696.86 535.89 689.54 534.23 682.17 532.82 674.79 531.57 667.6 529.41 660.16 528.44 652.9 526.61 645.55 525.22 638.25 523.58 630.82 522.55 623.66 520.19 616.23 519.19 608.84 517.9 601.64 516.37 594.95 518 588.52 520.77 581.93 523.11 575.21 525.08 568.51 527.11 562.08 529.9 555.46 532.14 549.01 534.87 542.12 536.4 535.7 539.25 529.21 541.76 522.42 543.46 515.97 546.12 509.37 548.36 502.82 550.76 496.2 552.93 489.65 555.31 483.12 557.78 476.65 560.41 469.85 562.11 463.5 564.98 456.7 566.58 450.45 569.73 443.87 571.95 437.18 573.86 430.7 576.4 423.95 578.13 417.5 580.74 411.16 583.69 404.91 585.46 411.73 587.32 419.09 588.71 426.46 590.09 433.82 591.51 441.12 593.19 448.49 594.55 455.74 596.52 463.03 598.25 470.44 599.47 477.81 600.87 485.09 602.78 491.52 600 498.18 597.96 504.79 595.72 511.31 593.25 517.84 590.82 524.53 588.84 531.21 586.81 537.76 584.42 544.21 581.72 550.84 579.87 558.14 581.04 565.46 582.68 572.77 584.28 580.22 585.3 587.5 587.08 594.71 589.21 602.11 590.43 609.36 592.41 616.77 593.6 624.14 594.98 631.34 596.65 624.78 598.63 618.27 601.11 611.82 603.76 605.06 605.56 598.5 607.92 592.12 610.78 585.52 613.03 579.06 615.66 572.32 617.53 565.89 619.82 573.08 621.36 580.46 622.69 587.77 624.3 595.15 625.62 602.46 627.26 609.63 629.58 616.95 631.19 624.3 632.69 631.69 633.96 639.02 635.58 646.36 636.63 652.98 634.83 659.36 632.05 665.9 629.69 672.62 627.85 679.13 625.42 685.83 623.53 692.25 620.88 698.82 618.59 705.45 616.47 711.74 613.39 718.35 611.21 725.15 609.53 731.73 607.25 738.18 604.58 744.72 602.17 751.31 599.9 757.76 597.25 764.5 595.37 771 592.82 777.75 590.98 784.2 588.25 790.88 586.19 797.36 583.55 803.84 580.9 810.56 578.95 817.12 576.5 823.76 574.32 830.5 572.4 837.07 569.98 843.17 567.41 836.3 565.37 828.82 564.48 821.6 562.38 814.14 561.35 806.91 559.24 799.42 558.39 792.25 556.02 784.86 554.67 777.41 553.62 770.07 552 762.82 549.98"/><polygon class="b" points="762.86 503.8 755.5 502.37 748.05 501.35 740.84 499.27 733.5 497.77 726.04 496.81 718.82 494.75 711.48 493.19 704.08 491.96 696.83 490.04 689.47 488.56 682.09 487.23 674.89 485.07 667.47 484.03 660.24 482.06 652.81 481.03 645.63 478.83 638.24 477.6 630.95 475.93 623.65 474.27 616.24 473.14 608.93 471.47 601.61 469.75 595.04 472.25 588.58 474.93 581.75 476.58 575.19 479.02 568.77 481.84 561.95 483.52 555.62 486.58 548.83 488.35 542.17 490.53 535.6 492.94 529.26 495.9 522.43 497.48 515.88 499.87 509.24 502.01 502.84 504.82 496.12 506.73 489.62 509.23 483.25 512.15 476.65 514.39 470.09 516.79 463.52 519.01 456.8 520.84 450.39 523.56 443.77 525.67 437.13 527.73 430.8 530.69 424.26 533.01 417.68 535.26 410.97 537.16 404.77 539.48 411.84 540.76 419.04 542.96 426.44 544.17 433.72 545.96 441.18 546.88 448.43 548.86 455.78 550.32 463.18 551.55 470.46 553.38 477.65 555.62 485.08 556.63 491.56 554.13 498.26 552.17 504.75 549.63 511.31 547.25 517.78 544.67 524.63 543.11 531.17 540.71 537.76 538.43 544.15 535.57 550.81 533.43 558.11 535.19 565.38 537.05 572.87 537.81 580.19 539.43 587.42 541.46 594.84 542.6 602.09 544.56 609.36 546.42 616.82 547.34 624.14 548.98 631.22 550.68 625.03 553.33 618.26 555.07 611.6 557.16 605.21 559.98 598.75 562.63 592.18 564.96 585.49 566.92 578.88 569.16 572.26 571.38 566.05 573.79 573.06 575.43 580.43 576.8 587.74 578.47 594.98 580.43 602.43 581.44 609.68 583.36 617.08 584.6 624.43 586.08 631.66 588.12 639.05 589.43 646.36 590.52 653.08 589.12 659.4 586.15 665.91 583.73 672.63 581.91 679.14 579.46 685.58 576.83 692.38 575.22 698.67 572.18 705.32 570.1 711.86 567.74 718.59 565.88 725.18 563.62 731.51 560.63 738.25 558.79 744.83 556.49 751.41 554.16 758 551.92 764.55 549.51 771.13 547.21 777.67 544.76 784.26 542.44 790.93 540.33 797.38 537.62 803.86 534.96 810.57 532.95 817.31 531.04 823.76 528.33 830.52 526.46 836.79 523.19 843.11 521.42 836.31 519.36 828.97 517.78 821.61 516.31 814.3 514.61 806.84 513.58 799.43 512.35 792.21 510.23 784.86 508.68 777.47 507.32 770.23 505.32 762.86 503.8"/><polygon class="a" points="762.86 503.8 755.5 502.37 748.05 501.35 740.84 499.27 733.5 497.77 726.04 496.81 718.82 494.75 711.48 493.19 704.08 491.96 696.83 490.04 689.47 488.56 682.09 487.23 674.89 485.07 667.47 484.03 660.24 482.06 652.81 481.03 645.63 478.83 638.24 477.6 630.95 475.93 623.65 474.27 616.24 473.14 608.93 471.47 601.61 469.75 595.04 472.25 588.58 474.93 581.75 476.58 575.19 479.02 568.77 481.84 561.95 483.52 555.62 486.58 548.83 488.35 542.17 490.53 535.6 492.94 529.26 495.9 522.43 497.48 515.88 499.87 509.24 502.01 502.84 504.82 496.12 506.73 489.62 509.23 483.25 512.15 476.65 514.39 470.09 516.79 463.52 519.01 456.8 520.84 450.39 523.56 443.77 525.67 437.13 527.73 430.8 530.69 424.26 533.01 417.68 535.26 410.97 537.16 404.77 539.48 411.84 540.76 419.04 542.96 426.44 544.17 433.72 545.96 441.18 546.88 448.43 548.86 455.78 550.32 463.18 551.55 470.46 553.38 477.65 555.62 485.08 556.63 491.56 554.13 498.26 552.17 504.75 549.63 511.31 547.25 517.78 544.67 524.63 543.11 531.17 540.71 537.76 538.43 544.15 535.57 550.81 533.43 558.11 535.19 565.38 537.05 572.87 537.81 580.19 539.43 587.42 541.46 594.84 542.6 602.09 544.56 609.36 546.42 616.82 547.34 624.14 548.98 631.22 550.68 625.03 553.33 618.26 555.07 611.6 557.16 605.21 559.98 598.75 562.63 592.18 564.96 585.49 566.92 578.88 569.16 572.26 571.38 566.05 573.79 573.06 575.43 580.43 576.8 587.74 578.47 594.98 580.43 602.43 581.44 609.68 583.36 617.08 584.6 624.43 586.08 631.66 588.12 639.05 589.43 646.36 590.52 653.08 589.12 659.4 586.15 665.91 583.73 672.63 581.91 679.14 579.46 685.58 576.83 692.38 575.22 698.67 572.18 705.32 570.1 711.86 567.74 718.59 565.88 725.18 563.62 731.51 560.63 738.25 558.79 744.83 556.49 751.41 554.16 758 551.92 764.55 549.51 771.13 547.21 777.67 544.76 784.26 542.44 790.93 540.33 797.38 537.62 803.86 534.96 810.57 532.95 817.31 531.04 823.76 528.33 830.52 526.46 836.79 523.19 843.11 521.42 836.31 519.36 828.97 517.78 821.61 516.31 814.3 514.61 806.84 513.58 799.43 512.35 792.21 510.23 784.86 508.68 777.47 507.32 770.23 505.32 762.86 503.8"/><polygon class="b" points="646.81 637.37 646.63 629.34 646.82 621.67 646.97 614 646.33 606.34 646.32 598.67 646.16 591.27 639.13 589.5 631.72 588.15 624.35 586.62 617 585.02 609.72 583.1 602.28 581.9 595.03 579.81 587.63 578.39 580.33 576.52 572.78 575.81 565.79 574.2 565.71 581.54 565.84 589.23 565.05 596.92 565.83 604.61 565.56 612.3 565.54 619.97 572.78 621.95 580.32 622.62 587.58 624.68 595.04 625.73 602.29 627.78 609.6 629.62 617.02 630.88 624.39 632.39 631.78 633.82 639.09 635.63 646.81 637.37"/><polygon class="a" points="646.81 637.37 646.63 629.34 646.82 621.67 646.97 614 646.33 606.34 646.32 598.67 646.16 591.27 639.13 589.5 631.72 588.15 624.35 586.62 617 585.02 609.72 583.1 602.28 581.9 595.03 579.81 587.63 578.39 580.33 576.52 572.78 575.81 565.79 574.2 565.71 581.54 565.84 589.23 565.05 596.92 565.83 604.61 565.56 612.3 565.54 619.97 572.78 621.95 580.32 622.62 587.58 624.68 595.04 625.73 602.29 627.78 609.6 629.62 617.02 630.88 624.39 632.39 631.78 633.82 639.09 635.63 646.81 637.37"/><polygon class="b" points="485.61 603.13 485.88 595.34 485.21 587.67 485.77 580 485.07 572.34 485.27 564.67 485.6 556.93 478.73 555.66 471.91 554.53 465.17 553.02 458.5 551.21 451.66 550.2 444.95 548.54 438.17 547.25 431.53 545.3 424.82 543.68 418.01 542.49 411.31 540.75 404.48 539.53 404.53 547.29 404.82 555.03 404.32 562.77 404.06 570.51 404.06 578.25 404.86 585.72 411.89 587.4 419.25 589 426.49 591.06 433.88 592.51 441.35 593.52 448.59 595.63 455.94 597.26 463.39 598.42 470.76 599.91 478.22 601.05 485.61 603.13"/><polygon class="a" points="485.61 603.13 485.88 595.34 485.21 587.67 485.77 580 485.07 572.34 485.27 564.67 485.6 556.93 478.73 555.66 471.91 554.53 465.17 553.02 458.5 551.21 451.66 550.2 444.95 548.54 438.17 547.25 431.53 545.3 424.82 543.68 418.01 542.49 411.31 540.75 404.48 539.53 404.53 547.29 404.82 555.03 404.32 562.77 404.06 570.51 404.06 578.25 404.86 585.72 411.89 587.4 419.25 589 426.49 591.06 433.88 592.51 441.35 593.52 448.59 595.63 455.94 597.26 463.39 598.42 470.76 599.91 478.22 601.05 485.61 603.13"/><polygon points="485.01 602.98 491.79 600.67 498.17 597.91 504.85 596.02 511.16 593.07 517.72 590.82 524.2 588.33 530.9 586.51 537.45 584.22 543.96 581.79 550.86 579.71 550.65 571.74 550.95 563.99 550.94 556.24 550.31 548.5 550.52 540.75 550.4 533.13 543.88 535.07 537.52 537.81 530.98 540.1 524.55 542.7 517.89 544.65 511.52 547.41 504.91 549.51 498.35 551.74 491.88 554.24 485.38 556.92 485.33 564.62 485.54 572.25 484.91 579.87 484.93 587.5 484.87 595.12 485.01 602.98"/><polygon class="a" points="485.01 602.98 491.79 600.67 498.17 597.91 504.85 596.02 511.16 593.07 517.72 590.82 524.2 588.33 530.9 586.51 537.45 584.22 543.96 581.79 550.86 579.71 550.65 571.74 550.95 563.99 550.94 556.24 550.31 548.5 550.52 540.75 550.4 533.13 543.88 535.07 537.52 537.81 530.98 540.1 524.55 542.7 517.89 544.65 511.52 547.41 504.91 549.51 498.35 551.74 491.88 554.24 485.38 556.92 485.33 564.62 485.54 572.25 484.91 579.87 484.93 587.5 484.87 595.12 485.01 602.98"/><polygon points="646.35 636.95 653.22 634.42 659.93 631.79 666.71 629.36 673.71 627.55 680.53 625.24 687.18 622.45 693.92 619.9 700.87 617.94 707.43 614.91 714.5 613.27 721.31 610.93 727.98 608.18 734.67 605.49 741.64 603.59 748.26 600.68 755 598.13 761.8 595.75 768.63 593.45 775.56 591.43 782.39 589.12 789.12 586.55 795.95 584.25 802.77 581.91 809.36 578.93 816.39 577.19 823.12 574.61 829.92 572.21 836.71 569.78 843.17 567.12 843.39 559.62 843.18 551.89 843.04 544.17 843.51 536.45 843.81 528.73 843.77 520.66 836.85 523.81 829.88 525.71 823.07 528.04 816.18 530.19 809.49 532.87 802.77 535.5 795.97 537.86 789.06 539.96 782.25 542.32 775.75 545.55 768.71 547.26 761.94 549.73 755.2 552.3 748.47 554.88 741.68 557.32 734.85 559.63 728.18 562.4 721.35 564.7 714.43 566.77 707.7 569.37 700.97 571.94 694 573.86 687.41 576.86 680.66 579.38 673.58 581.01 666.82 583.51 660.02 585.91 653.25 588.43 646.54 591.03 646.54 598.63 646.26 606.27 646.59 613.91 646.87 621.55 646.58 629.19 646.35 636.95"/><polygon class="a" points="646.35 636.95 653.22 634.42 659.93 631.79 666.71 629.36 673.71 627.55 680.53 625.24 687.18 622.45 693.92 619.9 700.87 617.94 707.43 614.91 714.5 613.27 721.31 610.93 727.98 608.18 734.67 605.49 741.64 603.59 748.26 600.68 755 598.13 761.8 595.75 768.63 593.45 775.56 591.43 782.39 589.12 789.12 586.55 795.95 584.25 802.77 581.91 809.36 578.93 816.39 577.19 823.12 574.61 829.92 572.21 836.71 569.78 843.17 567.12 843.39 559.62 843.18 551.89 843.04 544.17 843.51 536.45 843.81 528.73 843.77 520.66 836.85 523.81 829.88 525.71 823.07 528.04 816.18 530.19 809.49 532.87 802.77 535.5 795.97 537.86 789.06 539.96 782.25 542.32 775.75 545.55 768.71 547.26 761.94 549.73 755.2 552.3 748.47 554.88 741.68 557.32 734.85 559.63 728.18 562.4 721.35 564.7 714.43 566.77 707.7 569.37 700.97 571.94 694 573.86 687.41 576.86 680.66 579.38 673.58 581.01 666.82 583.51 660.02 585.91 653.25 588.43 646.54 591.03 646.54 598.63 646.26 606.27 646.59 613.91 646.87 621.55 646.58 629.19 646.35 636.95"/></svg>