<svg id="Layer_1" data-name="Layer 1" xmlns="http://www.w3.org/2000/svg" viewBox="0 0 800 800"><defs><style>.cls-1{fill:#fff;}.cls-2{fill:none;stroke:#000;stroke-linejoin:bevel;stroke-width:13px;}</style></defs><title>canvas (79)</title><polygon class="cls-1" points="398.52 97.97 402.12 103.6 406.17 109.5 409.64 115.75 413.11 122.01 416.85 128.1 420.84 134.04 424.22 140.35 428.04 146.39 431.42 152.7 435.8 158.4 438.84 164.92 443.02 170.74 446.52 176.97 450.38 183 453.93 189.21 458.05 195.07 461 201.64 464.66 207.78 468.71 213.68 472.36 219.83 476.28 225.81 479.71 232.09 483.4 238.21 487.15 244.3 490.69 250.52 494.63 256.49 498.16 262.71 501.74 268.9 506.12 274.59 509.69 280.79 512.85 287.23 516.98 293.09 520.69 299.19 523.89 305.61 527.97 311.49 532.04 317.38 535.07 323.91 538.95 329.92 542.94 335.86 546.53 342.04 550.52 347.98 553.62 354.46 557.34 360.57 561.75 366.26 564.78 372.78 569.08 378.54 572.17 385.03 576.12 391 579.75 397.17 584 402.95 587.24 409.35 590.64 415.65 594.77 421.51 598.38 427.69 602.05 433.83 605.8 439.92 609.61 445.98 613.38 452.05 617.13 458.15 620.7 464.36 624.62 470.44 624.45 477.51 624.79 484.5 624.18 491.5 624.02 498.5 624.66 505.5 624.72 512.5 624.87 519.5 624.76 526.5 624.06 533.5 624.05 540.5 624.63 547.49 624.78 554.5 624.62 561.49 624.45 568.5 624.5 575.5 624.42 582.61 618.71 578.06 612.96 573.72 606.8 569.93 601.24 565.34 595.33 561.21 589.32 557.22 584.04 552.27 577.76 548.65 572.48 543.67 566.7 539.37 560.66 535.43 554.89 531.12 548.95 527.05 543.45 522.36 537.59 518.17 531.73 513.99 525.63 510.12 520.08 505.51 514.58 500.83 508.57 496.84 502.64 492.74 497.16 488.03 491.33 483.79 485.59 479.44 479.43 475.65 473.47 471.59 468.19 466.61 462.31 462.43 456.55 458.11 450.76 453.81 444.66 449.95 438.78 445.77 433.02 441.44 427.56 436.7 421.79 432.38 415.99 428.1 409.93 424.16 404.17 419.82 398.47 415.46 398.01 408.28 397.94 401.06 398.25 393.83 398.02 386.61 398.21 379.38 398.2 372.16 398.8 364.93 398.6 357.7 398.62 350.48 398.23 343.25 398.49 336.03 397.96 328.8 398.19 321.57 398.48 314.35 398.12 307.12 398.34 299.9 398.38 292.68 397.94 285.45 398.15 278.23 398.34 271 398.15 263.78 398.67 256.55 398 249.33 398.05 242.1 398.51 234.88 398.86 227.65 398.5 220.42 398.35 213.19 398.64 205.97 398.01 198.74 398.2 191.51 398.63 184.28 398.06 177.05 398.35 169.82 398.74 162.59 398.8 155.37 398.78 148.14 397.89 140.91 397.98 133.68 398.02 126.45 397.88 119.21 398.56 111.98 398.27 104.75 398.52 97.97"/><polygon class="cls-2" points="398.52 97.97 402.12 103.6 406.17 109.5 409.64 115.75 413.11 122.01 416.85 128.1 420.84 134.04 424.22 140.35 428.04 146.39 431.42 152.7 435.8 158.4 438.84 164.92 443.02 170.74 446.52 176.97 450.38 183 453.93 189.21 458.05 195.07 461 201.64 464.66 207.78 468.71 213.68 472.36 219.83 476.28 225.81 479.71 232.09 483.4 238.21 487.15 244.3 490.69 250.52 494.63 256.49 498.16 262.71 501.74 268.9 506.12 274.59 509.69 280.79 512.85 287.23 516.98 293.09 520.69 299.19 523.89 305.61 527.97 311.49 532.04 317.38 535.07 323.91 538.95 329.92 542.94 335.86 546.53 342.04 550.52 347.98 553.62 354.46 557.34 360.57 561.75 366.26 564.78 372.78 569.08 378.54 572.17 385.03 576.12 391 579.75 397.17 584 402.95 587.24 409.35 590.64 415.65 594.77 421.51 598.38 427.69 602.05 433.83 605.8 439.92 609.61 445.98 613.38 452.05 617.13 458.15 620.7 464.36 624.62 470.44 624.45 477.51 624.79 484.5 624.18 491.5 624.02 498.5 624.66 505.5 624.72 512.5 624.87 519.5 624.76 526.5 624.06 533.5 624.05 540.5 624.63 547.49 624.78 554.5 624.62 561.49 624.45 568.5 624.5 575.5 624.42 582.61 618.71 578.06 612.96 573.72 606.8 569.93 601.24 565.34 595.33 561.21 589.32 557.22 584.04 552.27 577.76 548.65 572.48 543.67 566.7 539.37 560.66 535.43 554.89 531.12 548.95 527.05 543.45 522.36 537.59 518.17 531.73 513.99 525.63 510.12 520.08 505.51 514.58 500.83 508.57 496.84 502.64 492.74 497.16 488.03 491.33 483.79 485.59 479.44 479.43 475.65 473.47 471.59 468.19 466.61 462.31 462.43 456.55 458.11 450.76 453.81 444.66 449.95 438.78 445.77 433.02 441.44 427.56 436.7 421.79 432.38 415.99 428.1 409.93 424.16 404.17 419.82 398.47 415.46 398.01 408.28 397.94 401.06 398.25 393.83 398.02 386.61 398.21 379.38 398.2 372.16 398.8 364.93 398.6 357.7 398.62 350.48 398.23 343.25 398.49 336.03 397.96 328.8 398.19 321.57 398.48 314.35 398.12 307.12 398.34 299.9 398.38 292.68 397.94 285.45 398.15 278.23 398.34 271 398.15 263.78 398.67 256.55 398 249.33 398.05 242.1 398.51 234.88 398.86 227.65 398.5 220.42 398.35 213.19 398.64 205.97 398.01 198.74 398.2 191.51 398.63 184.28 398.06 177.05 398.35 169.82 398.74 162.59 398.8 155.37 398.78 148.14 397.89 140.91 397.98 133.68 398.02 126.45 397.88 119.21 398.56 111.98 398.27 104.75 398.52 97.97"/><polyline class="cls-1" points="354.57 498.53 360.9 501.94 367.42 504.96 374.1 507.63 380.63 510.59 387.08 513.77 393.67 516.62 399.96 520.13 406.5 523.12 413.33 525.45 419.55 529.12 426.33 531.55 432.7 534.9 439.35 537.63 446.03 540.31 452.45 543.54 459.08 546.33 465.3 550 471.94 552.77 478.6 555.47 485.26 558.16 491.66 561.47 498.16 564.53 504.75 567.4 511.11 570.76 517.56 573.94 524.12 576.9 530.96 579.23 537.28 582.93 544.62 582.9 551.87 582.38 559.12 582.57 566.37 582.37 573.62 582.44 580.86 582.43 588.11 582.17 595.36 582.04 602.61 582.22 609.86 582.1 617.12 582.39 624.06 582.4 618.57 578.25 612.62 574.17 607.09 569.54 600.97 565.7 595.16 561.45 589.89 556.46 583.93 552.41 578.2 548.05 572.54 543.6 566.49 539.66 560.72 535.35 555.01 530.96 549.14 526.79 543.29 522.59 537.65 518.09 531.74 513.98 525.89 509.76 519.92 505.72 514.47 500.98 508.45 497.01 502.96 492.31 497.21 487.96 490.99 484.25 485.31 479.82 479.63 475.38 473.51 471.52 468.24 466.54 462.28 462.47 456.44 458.25 450.38 454.33 444.83 449.72 439.24 445.15 433.37 440.97 427.45 436.85 421.45 432.83 415.82 428.33 410.03 424.03 404.39 419.51 398.42 415.35 391.29 415.91 384.25 416.76 377.17 417.1 370.1 417.68 363.04 418.21 356 419.04 348.99 420.23 341.93 420.82 334.85 421.25 327.79 421.86 320.74 422.64 313.64 422.74 306.59 423.5 299.52 424.11 292.45 424.6 285.38 425.07 278.33 425.91 271.27 426.55 264.23 427.49 257.13 427.61 250.13 428.95 243.04 429.3 235.98 430.05 228.86 430.02 221.86 431.3 214.82 432.23 207.76 432.86 200.67 433.18 193.63 434.06 186.5 433.99 179.49 435.33 172.22 435.48 178.78 438.56 185.38 441.18 191.85 444.08 198.01 447.68 204.64 450.23 211.08 453.23 217.34 456.62"/><polyline class="cls-2" points="354.57 498.53 360.9 501.94 367.42 504.96 374.1 507.63 380.63 510.59 387.08 513.77 393.67 516.62 399.96 520.13 406.5 523.12 413.33 525.45 419.55 529.12 426.33 531.55 432.7 534.9 439.35 537.63 446.03 540.31 452.45 543.54 459.08 546.33 465.3 550 471.94 552.77 478.6 555.47 485.26 558.16 491.66 561.47 498.16 564.53 504.75 567.4 511.11 570.76 517.56 573.94 524.12 576.9 530.96 579.23 537.28 582.93 544.62 582.9 551.87 582.38 559.12 582.57 566.37 582.37 573.62 582.44 580.86 582.43 588.11 582.17 595.36 582.04 602.61 582.22 609.86 582.1 617.12 582.39 624.06 582.4 618.57 578.25 612.62 574.17 607.09 569.54 600.97 565.7 595.16 561.45 589.89 556.46 583.93 552.41 578.2 548.05 572.54 543.6 566.49 539.66 560.72 535.35 555.01 530.96 549.14 526.79 543.29 522.59 537.65 518.09 531.74 513.98 525.89 509.76 519.92 505.72 514.47 500.98 508.45 497.01 502.96 492.31 497.21 487.96 490.99 484.25 485.31 479.82 479.63 475.38 473.51 471.52 468.24 466.54 462.28 462.47 456.44 458.25 450.38 454.33 444.83 449.72 439.24 445.15 433.37 440.97 427.45 436.85 421.45 432.83 415.82 428.33 410.03 424.03 404.39 419.51 398.42 415.35 391.29 415.91 384.25 416.76 377.17 417.1 370.1 417.68 363.04 418.21 356 419.04 348.99 420.23 341.93 420.82 334.85 421.25 327.79 421.86 320.74 422.64 313.64 422.74 306.59 423.5 299.52 424.11 292.45 424.6 285.38 425.07 278.33 425.91 271.27 426.55 264.23 427.49 257.13 427.61 250.13 428.95 243.04 429.3 235.98 430.05 228.86 430.02 221.86 431.3 214.82 432.23 207.76 432.86 200.67 433.18 193.63 434.06 186.5 433.99 179.49 435.33 172.22 435.48 178.78 438.56 185.38 441.18 191.85 444.08 198.01 447.68 204.64 450.23 211.08 453.23 217.34 456.62"/><polygon points="398.5 415.62 391.35 416.56 384.24 416.64 377.16 417.02 370.1 417.66 363.04 418.18 356.02 419.25 348.98 420.07 341.9 420.52 334.85 421.22 327.78 421.74 320.71 422.3 313.66 422.97 306.62 423.83 299.57 424.65 292.52 425.35 285.45 425.88 278.39 426.56 271.25 426.33 264.25 427.73 257.16 428.01 250.11 428.77 243.05 429.44 236 430.24 228.89 430.35 221.86 431.33 214.8 431.97 207.72 432.43 200.61 432.51 193.61 433.85 186.5 434.06 179.46 435.02 172.4 435.49 172.71 428.26 172.4 421.01 172.35 413.77 172.21 406.52 172.33 399.27 172.82 392.02 171.97 384.77 172.53 377.52 172.78 370.27 172.19 363.03 172.5 355.78 172.42 348.53 172.83 341.28 172.51 334.03 172.5 326.78 172.14 319.53 171.92 312.28 172.43 305.04 172.79 297.79 172.27 290.54 172.66 283.3 172.41 276.05 172.14 268.8 171.92 261.55 172.7 254.31 172.19 247.06 171.9 239.81 172.63 232.56 171.92 225.31 172.05 218.06 172.22 210.81 172.66 203.56 172.33 196.31 172.03 189.06 172.09 181.81 172.24 174.56 172.83 167.31 172.71 160.05 171.96 152.8 172.18 145.55 172.09 138.3 172.6 131.05 172.04 123.79 172.85 116.54 172.65 109.28 172.77 102.03 172.21 94.77 172.54 87.68 179.65 88.15 186.94 88.53 194.24 88.61 201.51 89.17 208.81 89.16 216.1 89.51 223.4 89.49 230.68 89.87 237.96 90.52 245.27 90.27 252.56 90.58 259.81 91.63 267.1 91.94 274.42 91.53 281.69 92.45 288.99 92.41 296.26 93.18 303.59 92.82 310.84 93.94 318.13 94.42 325.42 94.65 332.72 94.89 340.02 94.9 347.31 95.26 354.59 95.91 361.91 95.55 369.17 96.58 376.5 96.21 383.76 97.15 391.06 97.45 398.6 97.29 398.53 104.74 398.5 111.96 397.93 119.19 398.24 126.41 398.51 133.64 398.87 140.86 398.58 148.09 398.28 155.32 398.25 162.54 398 169.77 398.02 176.99 398.68 184.22 398.63 191.45 398 198.67 398.04 205.9 398.84 213.12 398.51 220.34 398.11 227.57 398.23 234.79 398.7 242.02 397.9 249.24 398.31 256.47 397.9 263.69 398.67 270.92 398.17 278.14 398.13 285.37 398.81 292.6 398.3 299.83 398.56 307.05 397.89 314.28 398.18 321.51 397.97 328.74 398.63 335.97 398.68 343.2 397.98 350.43 398.4 357.65 398.72 364.88 398.3 372.11 398.68 379.34 398.21 386.57 398.19 393.81 398.54 401.04 398.56 408.27 398.5 415.62"/><polygon class="cls-2" points="398.5 415.62 391.35 416.56 384.24 416.64 377.16 417.02 370.1 417.66 363.04 418.18 356.02 419.25 348.98 420.07 341.9 420.52 334.85 421.22 327.78 421.74 320.71 422.3 313.66 422.97 306.62 423.83 299.57 424.65 292.52 425.35 285.45 425.88 278.39 426.56 271.25 426.33 264.25 427.73 257.16 428.01 250.11 428.77 243.05 429.44 236 430.24 228.89 430.35 221.86 431.33 214.8 431.97 207.72 432.43 200.61 432.51 193.61 433.85 186.5 434.06 179.46 435.02 172.4 435.49 172.71 428.26 172.4 421.01 172.35 413.77 172.21 406.52 172.33 399.27 172.82 392.02 171.97 384.77 172.53 377.52 172.78 370.27 172.19 363.03 172.5 355.78 172.42 348.53 172.83 341.28 172.51 334.03 172.5 326.78 172.14 319.53 171.92 312.28 172.43 305.04 172.79 297.79 172.27 290.54 172.66 283.3 172.41 276.05 172.14 268.8 171.92 261.55 172.7 254.31 172.19 247.06 171.9 239.81 172.63 232.56 171.92 225.31 172.05 218.06 172.22 210.81 172.66 203.56 172.33 196.31 172.03 189.06 172.09 181.81 172.24 174.56 172.83 167.31 172.71 160.05 171.96 152.8 172.18 145.55 172.09 138.3 172.6 131.05 172.04 123.79 172.85 116.54 172.65 109.28 172.77 102.03 172.21 94.77 172.54 87.68 179.65 88.15 186.94 88.53 194.24 88.61 201.51 89.17 208.81 89.16 216.1 89.51 223.4 89.49 230.68 89.87 237.96 90.52 245.27 90.27 252.56 90.58 259.81 91.63 267.1 91.94 274.42 91.53 281.69 92.45 288.99 92.41 296.26 93.18 303.59 92.82 310.84 93.94 318.13 94.42 325.42 94.65 332.72 94.89 340.02 94.9 347.31 95.26 354.59 95.91 361.91 95.55 369.17 96.58 376.5 96.21 383.76 97.15 391.06 97.45 398.6 97.29 398.53 104.74 398.5 111.96 397.93 119.19 398.24 126.41 398.51 133.64 398.87 140.86 398.58 148.09 398.28 155.32 398.25 162.54 398 169.77 398.02 176.99 398.68 184.22 398.63 191.45 398 198.67 398.04 205.9 398.84 213.12 398.51 220.34 398.11 227.57 398.23 234.79 398.7 242.02 397.9 249.24 398.31 256.47 397.9 263.69 398.67 270.92 398.17 278.14 398.13 285.37 398.81 292.6 398.3 299.83 398.56 307.05 397.89 314.28 398.18 321.51 397.97 328.74 398.63 335.97 398.68 343.2 397.98 350.43 398.4 357.65 398.72 364.88 398.3 372.11 398.68 379.34 398.21 386.57 398.19 393.81 398.54 401.04 398.56 408.27 398.5 415.62"/><polygon class="cls-1" points="365.09 381.26 358.35 382.17 351.33 382.82 344.34 383.79 337.43 385.32 330.34 385.44 323.4 386.77 316.44 387.99 309.4 388.49 302.36 389.06 295.41 390.33 288.39 391.05 281.39 391.88 274.45 393.25 267.41 393.84 260.42 394.74 253.36 395.13 246.34 395.8 239.34 396.67 232.41 398.11 225.36 398.58 218.34 399.32 211.42 400.92 204.66 401.2 204.81 394.23 204.68 386.95 203.92 379.67 204.75 372.39 204.28 365.11 204.24 357.83 203.98 350.55 204.53 343.27 204.1 335.99 204.48 328.7 204.74 321.42 203.99 314.15 204.28 306.87 204.57 299.59 204.43 292.31 204.61 285.03 204.37 277.75 204.75 270.47 203.99 263.19 204.85 255.91 204.21 248.63 203.94 241.35 203.91 234.07 203.93 226.78 204.51 219.5 204.07 212.22 204.21 204.94 204.33 197.65 204.4 190.37 204.15 183.08 204.58 175.8 204.05 168.52 204.48 161.24 203.95 153.95 204.78 146.67 204.1 139.38 204.59 132.09 204.43 124.8 204.41 117.55 211.7 117.72 218.99 118.71 226.3 119.11 233.64 119.19 240.92 120.21 248.29 119.9 255.59 120.52 262.88 121.55 270.2 121.91 277.52 122.25 284.84 122.73 292.2 122.56 299.5 123.35 306.78 124.36 314.11 124.51 321.46 124.58 328.77 125.11 336.11 125.3 343.41 126.02 350.73 126.52 358.03 127.44 365.7 127.2 364.99 134.77 365.12 142.02 365.86 149.28 365.35 156.53 365.65 163.79 365.84 171.05 365.17 178.3 365.83 185.55 365.24 192.8 365.45 200.06 365.11 207.31 365.82 214.56 365.61 221.82 365.01 229.07 365.49 236.33 365.79 243.59 365.62 250.84 365.29 258.1 365.01 265.36 365.27 272.61 365.87 279.87 365.68 287.13 365.61 294.39 365.28 301.64 365.09 308.9 365.84 316.16 364.96 323.42 365.37 330.68 365.36 337.94 365.54 345.19 365.8 352.45 365.25 359.72 365.01 366.98 365.02 374.24 365.09 381.26"/><polygon class="cls-2" points="365.09 381.26 358.35 382.17 351.33 382.82 344.34 383.79 337.43 385.32 330.34 385.44 323.4 386.77 316.44 387.99 309.4 388.49 302.36 389.06 295.41 390.33 288.39 391.05 281.39 391.88 274.45 393.25 267.41 393.84 260.42 394.74 253.36 395.13 246.34 395.8 239.34 396.67 232.41 398.11 225.36 398.58 218.34 399.32 211.42 400.92 204.66 401.2 204.81 394.23 204.68 386.95 203.92 379.67 204.75 372.39 204.28 365.11 204.24 357.83 203.98 350.55 204.53 343.27 204.1 335.99 204.48 328.7 204.74 321.42 203.99 314.15 204.28 306.87 204.57 299.59 204.43 292.31 204.61 285.03 204.37 277.75 204.75 270.47 203.99 263.19 204.85 255.91 204.21 248.63 203.94 241.35 203.91 234.07 203.93 226.78 204.51 219.5 204.07 212.22 204.21 204.94 204.33 197.65 204.4 190.37 204.15 183.08 204.58 175.8 204.05 168.52 204.48 161.24 203.95 153.95 204.78 146.67 204.1 139.38 204.59 132.09 204.43 124.8 204.41 117.55 211.7 117.72 218.99 118.71 226.3 119.11 233.64 119.19 240.92 120.21 248.29 119.9 255.59 120.52 262.88 121.55 270.2 121.91 277.52 122.25 284.84 122.73 292.2 122.56 299.5 123.35 306.78 124.36 314.11 124.51 321.46 124.58 328.77 125.11 336.11 125.3 343.41 126.02 350.73 126.52 358.03 127.44 365.7 127.2 364.99 134.77 365.12 142.02 365.86 149.28 365.35 156.53 365.65 163.79 365.84 171.05 365.17 178.3 365.83 185.55 365.24 192.8 365.45 200.06 365.11 207.31 365.82 214.56 365.61 221.82 365.01 229.07 365.49 236.33 365.79 243.59 365.62 250.84 365.29 258.1 365.01 265.36 365.27 272.61 365.87 279.87 365.68 287.13 365.61 294.39 365.28 301.64 365.09 308.9 365.84 316.16 364.96 323.42 365.37 330.68 365.36 337.94 365.54 345.19 365.8 352.45 365.25 359.72 365.01 366.98 365.02 374.24 365.09 381.26"/><polygon class="cls-1" points="345.04 368.58 338.18 370.13 331.08 371.3 323.9 372.01 316.79 373.14 309.71 374.41 302.66 375.91 295.6 377.38 288.46 378.3 281.29 379.06 274.3 380.9 267.21 382.15 260.02 382.81 252.96 384.26 245.91 385.69 238.72 386.39 231.54 387.15 224.31 388.98 224.17 381.56 224.49 374.36 224.58 367.15 224.76 359.96 224.03 352.76 224.53 345.56 224.7 338.36 224.61 331.16 224.82 323.96 224.7 316.76 224.78 309.56 224.74 302.36 224.04 295.16 224.23 287.95 224.02 280.75 224.99 273.55 224.92 266.35 224.63 259.14 224.76 251.94 224.59 244.74 224.92 237.53 224.41 230.33 224.29 223.12 224.9 215.92 224.84 208.71 224.13 201.51 224.85 194.31 224.52 187.1 224.54 179.9 224.09 172.69 224.21 165.47 224.17 157.91 231.64 158.39 238.72 159.21 245.8 160.1 252.9 160.68 259.97 161.64 267.08 162.09 274.22 162.27 281.31 162.99 288.38 163.9 295.5 164.29 302.62 164.71 309.72 165.25 316.79 166.27 323.9 166.76 331.04 166.99 338.15 167.56 345.08 168.41 345.3 175.41 345.43 182.57 345.55 189.73 345.03 196.88 344.77 204.04 345.59 211.2 345.26 218.36 344.85 225.52 345.25 232.68 345.11 239.84 344.84 246.99 344.92 254.16 345.65 261.31 345.1 268.48 345.03 275.64 345.46 282.8 345.68 289.96 345.03 297.12 345.71 304.29 345.63 311.44 345.45 318.61 345.66 325.77 344.95 332.93 344.87 340.09 345.04 347.25 344.82 354.42 344.92 361.58 345.04 368.58"/><polygon class="cls-2" points="345.04 368.58 338.18 370.13 331.08 371.3 323.9 372.01 316.79 373.14 309.71 374.41 302.66 375.91 295.6 377.38 288.46 378.3 281.29 379.06 274.3 380.9 267.21 382.15 260.02 382.81 252.96 384.26 245.91 385.69 238.72 386.39 231.54 387.15 224.31 388.98 224.17 381.56 224.49 374.36 224.58 367.15 224.76 359.96 224.03 352.76 224.53 345.56 224.7 338.36 224.61 331.16 224.82 323.96 224.7 316.76 224.78 309.56 224.74 302.36 224.04 295.16 224.23 287.95 224.02 280.75 224.99 273.55 224.92 266.35 224.63 259.14 224.76 251.94 224.59 244.74 224.92 237.53 224.41 230.33 224.29 223.12 224.9 215.92 224.84 208.71 224.13 201.51 224.85 194.31 224.52 187.1 224.54 179.9 224.09 172.69 224.21 165.47 224.17 157.91 231.64 158.39 238.72 159.21 245.8 160.1 252.9 160.68 259.97 161.64 267.08 162.09 274.22 162.27 281.31 162.99 288.38 163.9 295.5 164.29 302.62 164.71 309.72 165.25 316.79 166.27 323.9 166.76 331.04 166.99 338.15 167.56 345.08 168.41 345.3 175.41 345.43 182.57 345.55 189.73 345.03 196.88 344.77 204.04 345.59 211.2 345.26 218.36 344.85 225.52 345.25 232.68 345.11 239.84 344.84 246.99 344.92 254.16 345.65 261.31 345.1 268.48 345.03 275.64 345.46 282.8 345.68 289.96 345.03 297.12 345.71 304.29 345.63 311.44 345.45 318.61 345.66 325.77 344.95 332.93 344.87 340.09 345.04 347.25 344.82 354.42 344.92 361.58 345.04 368.58"/><polyline class="cls-1" points="221.74 616.2 220.63 609.09 220.16 601.92 219.12 594.82 218.23 587.69 218.43 580.49 218.3 573.32 217.53 566.16 217.65 558.99 217.52 551.81 217.91 544.64 217.63 537.46 218.07 530.29 217.57 523.12 217.43 515.94 217.87 508.77 217.68 501.59 218.83 494.44 218.77 487.26 219.11 480.09 218.7 472.89 218.93 465.71 219.36 458.54 220.02 451.39 219.98 444.2 221.1 437.08 221.05 429.89 221.84 422.75 221.56 415.55 221.92 408.38 223.05 401.26 223.21 394.08 223.41 386.91 224.44 379.8 224.85 372.75 231.81 371 239.03 370.07 246.12 368.39 253.37 367.71 260.61 367.01 267.81 365.95 275.07 365.53 282.34 365.39 289.61 364.69 296.77 366.13 303.72 367.94"/><polyline class="cls-2" points="221.74 616.2 220.63 609.09 220.16 601.92 219.12 594.82 218.23 587.69 218.43 580.49 218.3 573.32 217.53 566.16 217.65 558.99 217.52 551.81 217.91 544.64 217.63 537.46 218.07 530.29 217.57 523.12 217.43 515.94 217.87 508.77 217.68 501.59 218.83 494.44 218.77 487.26 219.11 480.09 218.7 472.89 218.93 465.71 219.36 458.54 220.02 451.39 219.98 444.2 221.1 437.08 221.05 429.89 221.84 422.75 221.56 415.55 221.92 408.38 223.05 401.26 223.21 394.08 223.41 386.91 224.44 379.8 224.85 372.75 231.81 371 239.03 370.07 246.12 368.39 253.37 367.71 260.61 367.01 267.81 365.95 275.07 365.53 282.34 365.39 289.61 364.69 296.77 366.13 303.72 367.94"/><polyline class="cls-2" points="217.51 549.94 216.9 557 215.9 564 214.51 570.95 213.57 577.96 212.32 584.93 211.7 591.98 210.18 598.91 209.97 606.03 209.08 613.05 207.84 620.03 206.62 627.01 206.06 634.07 204.96 641.07 204.51 648.14 204.12 655.2 203.12 662.23 207.09 668.41 214.35 670.27 221.82 669.64 229.4 669.39 236.62 667.16 243.88 665.04 250.78 661.92 257.21 657.88 261.55 651.83"/><polyline class="cls-1" points="294.67 501.21 294.99 494.21 295.69 487.21 295.1 480.19 295.33 473.17 294.81 466.17 294.99 459.13 294.57 452.12 294.06 445.11 294.29 438.06 293.93 431.04 292.79 424.07 292.77 417.03 291.84 410.05 292.05 402.99 290.81 396.03 290.7 389 290.06 382 289.18 375.02 288.43 368.11 296.03 369.1 303.31 369.02 310.57 369.48 317.84 369.28 325.11 369.83 332.38 369.83 339.66 369.54 345.76 367.84 346.89 375.26 347.04 382.56 347.83 389.82 347.83 397.13 348.02 404.42 348.95 411.67 349.05 418.96 349.81 426.23 349.35 433.55 350.27 440.82 350.35 448.11 350.58 455.4 351.03 462.69 351.26 469.99 350.59 477.3 351.44 484.58 351 491.88 350.93 499.18 350.79 506.48 351.38 513.78 351.27 521.08 351.02 528.38 350.41 535.66 350.51 542.98 349.64 550.24 349.53 557.54 349.24 564.84 348.36 572.08"/><polyline class="cls-2" points="294.67 501.21 294.99 494.21 295.69 487.21 295.1 480.19 295.33 473.17 294.81 466.17 294.99 459.13 294.57 452.12 294.06 445.11 294.29 438.06 293.93 431.04 292.79 424.07 292.77 417.03 291.84 410.05 292.05 402.99 290.81 396.03 290.7 389 290.06 382 289.18 375.02 288.43 368.11 296.03 369.1 303.31 369.02 310.57 369.48 317.84 369.28 325.11 369.83 332.38 369.83 339.66 369.54 345.76 367.84 346.89 375.26 347.04 382.56 347.83 389.82 347.83 397.13 348.02 404.42 348.95 411.67 349.05 418.96 349.81 426.23 349.35 433.55 350.27 440.82 350.35 448.11 350.58 455.4 351.03 462.69 351.26 469.99 350.59 477.3 351.44 484.58 351 491.88 350.93 499.18 350.79 506.48 351.38 513.78 351.27 521.08 351.02 528.38 350.41 535.66 350.51 542.98 349.64 550.24 349.53 557.54 349.24 564.84 348.36 572.08"/><polyline class="cls-2" points="261.66 463.15 261.79 470.4 262.2 477.66 261.84 484.91 261.56 492.16 261.65 499.42 261.62 506.67 260.93 513.91 261.46 521.17 260.62 528.41 261.48 535.67 260.74 542.91 261.14 550.17 261.03 557.42 260.47 564.67 260.28 571.92 260.27 579.17 260.46 586.43 260.7 593.69 260.28 600.95 260.88 608.21 260.1 615.47 260.95 622.72 260.1 629.98 260.22 637.24 260.23 644.5 260.9 651.75 260.55 659.01 260.69 666.26 260.53 673.52 261.41 680.76 260.61 688.03 261.62 695.25 261.89 702.59 268.4 700.01 274.63 696.91 281.17 694.59 287.82 692.56 294.72 692 300.73 689.74 306.62 687.51 312.29 684.61 317.13 680.52 315.99 673.5 314.67 666.49 313.75 659.41 313.12 652.3 311.93 645.26 311.31 638.15 310.41 631.08 309.57 624 308.65 616.92 307.71 609.85 307.18 602.73 306.68 595.61 306.69 588.47 306.46 581.34 306.07 574.21 306.4 567.09"/><polyline class="cls-2" points="294.69 691.77 301.57 691.04 308.45 691.93 315.33 691.75 322.21 691.34 329.1 691.59 335.99 691.95 342.95 691.77 345.2 685.1 347.29 678.6 348.67 671.91 350.28 665.29 351.94 658.67 352.7 651.88 353.82 645.14 354.47 638.33 354.24 631.49 354.41 624.46 353.48 617.48 353.63 610.41 352.89 603.42 351.29 596.53 350.93 589.49 349.57 582.58 348.73 575.59 347.99 568.58 346 561.79 345.13 554.88 343.54 548.12 342.57 541.19 340.04 534.67 338.16 527.98 336.35 521.24 333.3 514.96 331.18 508.04 328.76 501.23 326.81 494.27 324.4 487.42"/><polygon class="cls-1" points="204.42 117.54 207.33 124.52 210.61 131.38 214.05 138.16 217.93 144.72 221.39 151.5 224.11 158.89 231.5 159.05 238.59 159.8 245.76 159.83 252.86 160.65 259.94 161.62 267.05 162.32 274.15 163.09 281.32 163.06 288.45 163.46 295.57 164.01 302.69 164.51 309.77 165.55 316.91 165.89 324.04 166.3 331.11 167.46 338.27 167.7 345.25 168.3 349.02 161.83 352.34 154.99 355.43 148.05 358.28 140.98 362.19 134.42 364.96 127.74 358.05 127.31 350.72 127.07 343.4 126.61 336.11 125.72 328.82 124.93 321.51 124.4 314.14 124.77 306.87 123.59 299.54 123.32 292.24 122.58 284.88 122.71 277.61 121.61 270.27 121.46 262.97 120.75 255.59 121.17 248.33 119.8 240.98 119.97 233.67 119.32 226.35 118.88 219.03 118.3 211.69 118.1 204.42 117.54"/><polygon class="cls-2" points="204.42 117.54 207.33 124.52 210.61 131.38 214.05 138.16 217.93 144.72 221.39 151.5 224.11 158.89 231.5 159.05 238.59 159.8 245.76 159.83 252.86 160.65 259.94 161.62 267.05 162.32 274.15 163.09 281.32 163.06 288.45 163.46 295.57 164.01 302.69 164.51 309.77 165.55 316.91 165.89 324.04 166.3 331.11 167.46 338.27 167.7 345.25 168.3 349.02 161.83 352.34 154.99 355.43 148.05 358.28 140.98 362.19 134.42 364.96 127.74 358.05 127.31 350.72 127.07 343.4 126.61 336.11 125.72 328.82 124.93 321.51 124.4 314.14 124.77 306.87 123.59 299.54 123.32 292.24 122.58 284.88 122.71 277.61 121.61 270.27 121.46 262.97 120.75 255.59 121.17 248.33 119.8 240.98 119.97 233.67 119.32 226.35 118.88 219.03 118.3 211.69 118.1 204.42 117.54"/><polyline class="cls-1" points="624.69 527.33 618.85 532.09 614.11 537.96 608.7 543.16 603.13 548.2 597.82 553.51 592.74 559.05"/><polyline class="cls-2" points="624.69 527.33 618.85 532.09 614.11 537.96 608.7 543.16 603.13 548.2 597.82 553.51 592.74 559.05"/><polyline class="cls-1" points="627.88 474.01 622.84 478.98 617.74 483.89 612.73 488.89 607.79 493.95 602.91 499.09 597.8 503.99 592.26 508.46 587.37 513.6 582.75 518.98 577.67 523.93 572.55 528.83 567.24 533.54"/><polyline class="cls-2" points="627.88 474.01 622.84 478.98 617.74 483.89 612.73 488.89 607.79 493.95 602.91 499.09 597.8 503.99 592.26 508.46 587.37 513.6 582.75 518.98 577.67 523.93 572.55 528.83 567.24 533.54"/><polyline class="cls-1" points="611.74 439.38 606.5 444.57 601.15 449.65 596.53 455.46 591.12 460.47 585.95 465.73 580.57 470.77 575.34 475.97 569.83 480.9 565.22 486.72 559.53 491.47 554.83 497.19 549.53 502.33 543.8 507.04 538.85 512.53 533.83 517.96"/><polyline class="cls-2" points="611.74 439.38 606.5 444.57 601.15 449.65 596.53 455.46 591.12 460.47 585.95 465.73 580.57 470.77 575.34 475.97 569.83 480.9 565.22 486.72 559.53 491.47 554.83 497.19 549.53 502.33 543.8 507.04 538.85 512.53 533.83 517.96"/><polyline class="cls-1" points="587.03 414.67 581.78 419.5 576.54 424.36 571.86 429.77 567.03 435.03 561.76 439.84 556.28 444.45 551.36 449.62 546.87 455.22 541.67 460.11 536.53 465.07 531.49 470.12 525.99 474.72 521.01 479.83 516.02 484.94 511.4 490.43 505.78 494.92"/><polyline class="cls-2" points="587.03 414.67 581.78 419.5 576.54 424.36 571.86 429.77 567.03 435.03 561.76 439.84 556.28 444.45 551.36 449.62 546.87 455.22 541.67 460.11 536.53 465.07 531.49 470.12 525.99 474.72 521.01 479.83 516.02 484.94 511.4 490.43 505.78 494.92"/><polyline class="cls-1" points="570.43 380.56 565.22 385.62 560.68 391.36 554.96 395.91 550.11 401.34 544.7 406.21 539.76 411.55 534.67 416.72 529.4 421.73 524.32 426.91 519.24 432.11 513.97 437.12 509.05 442.48 503.55 447.26 499.02 453.02 493.9 458.17 488.07 462.62 482.96 467.8 478.26 473.4"/><polyline class="cls-2" points="570.43 380.56 565.22 385.62 560.68 391.36 554.96 395.91 550.11 401.34 544.7 406.21 539.76 411.55 534.67 416.72 529.4 421.73 524.32 426.91 519.24 432.11 513.97 437.12 509.05 442.48 503.55 447.26 499.02 453.02 493.9 458.17 488.07 462.62 482.96 467.8 478.26 473.4"/><polyline class="cls-1" points="551.21 350.34 546.2 355.53 540.79 360.32 535.5 365.22 530.72 370.64 525.9 376.01 520.66 380.97 515.5 386.01 510 390.72 505.58 396.49 500.36 401.46 494.94 406.23 490.25 411.74 484.63 416.32 479.71 421.61 474.93 427.02 469.38 431.68 464.24 436.74 459.28 441.99 453.97 446.89 449.19 452.32"/><polyline class="cls-2" points="551.21 350.34 546.2 355.53 540.79 360.32 535.5 365.22 530.72 370.64 525.9 376.01 520.66 380.97 515.5 386.01 510 390.72 505.58 396.49 500.36 401.46 494.94 406.23 490.25 411.74 484.63 416.32 479.71 421.61 474.93 427.02 469.38 431.68 464.24 436.74 459.28 441.99 453.97 446.89 449.19 452.32"/><polyline class="cls-1" points="531.36 319.49 526.47 324.69 521.33 329.63 516.74 335.14 511.78 340.26 506.6 345.17 501.15 349.81 496.05 354.79 491.34 360.17 486.1 365.02 481 370.01 476.2 375.3 471.02 380.21 465.92 385.19 461.04 390.4 455.68 395.13 451.19 400.74 446.07 405.71 440.56 410.3 435.95 415.77 430.86 420.78 425.68 425.71 420.44 430.58"/><polyline class="cls-2" points="531.36 319.49 526.47 324.69 521.33 329.63 516.74 335.14 511.78 340.26 506.6 345.17 501.15 349.81 496.05 354.79 491.34 360.17 486.1 365.02 481 370.01 476.2 375.3 471.02 380.21 465.92 385.19 461.04 390.4 455.68 395.13 451.19 400.74 446.07 405.71 440.56 410.3 435.95 415.77 430.86 420.78 425.68 425.71 420.44 430.58"/><polyline class="cls-1" points="512.14 289.28 506.94 294.42 502.08 299.9 496.66 304.83 491.53 310.04 486.48 315.33 481.27 320.47 475.75 325.29 470.51 330.4 465.69 335.93 460.42 341 454.89 345.82 450.31 351.57 445.13 356.74 439.56 361.52 434.21 366.51 429.24 371.89 424 377 419.35 382.7 413.79 387.5 408.61 392.66 403.32 397.73 398.46 403.23 392.97 408.11"/><polyline class="cls-2" points="512.14 289.28 506.94 294.42 502.08 299.9 496.66 304.83 491.53 310.04 486.48 315.33 481.27 320.47 475.75 325.29 470.51 330.4 465.69 335.93 460.42 341 454.89 345.82 450.31 351.57 445.13 356.74 439.56 361.52 434.21 366.51 429.24 371.89 424 377 419.35 382.7 413.79 387.5 408.61 392.66 403.32 397.73 398.46 403.23 392.97 408.11"/><polyline class="cls-1" points="492.94 259.07 487.28 263.42 482.68 268.83 477.53 273.68 472.82 278.97 467.76 283.92 462.6 288.76 457.35 293.52 452.93 299.11 447.73 303.91 442.65 308.84 437.9 314.09 432.73 318.92 427.92 324.12 422.42 328.63 417.57 333.79 412.38 338.61 407.67 343.91 402.91 349.17 397.72 354 392.52 358.83"/><polyline class="cls-2" points="492.94 259.07 487.28 263.42 482.68 268.83 477.53 273.68 472.82 278.97 467.76 283.92 462.6 288.76 457.35 293.52 452.93 299.11 447.73 303.91 442.65 308.84 437.9 314.09 432.73 318.92 427.92 324.12 422.42 328.63 417.57 333.79 412.38 338.61 407.67 343.91 402.91 349.17 397.72 354 392.52 358.83"/><polyline class="cls-1" points="476.96 224.09 472.25 229.38 467.41 234.53 462.12 239.25 457.1 244.22 452.43 249.55 446.9 254.01 441.79 258.9 437.43 264.53 432 269.1 427.5 274.6 421.8 278.9 416.83 283.93 412.26 289.37 407.34 294.45 402 299.12 397.32 304.46"/><polyline class="cls-2" points="476.96 224.09 472.25 229.38 467.41 234.53 462.12 239.25 457.1 244.22 452.43 249.55 446.9 254.01 441.79 258.9 437.43 264.53 432 269.1 427.5 274.6 421.8 278.9 416.83 283.93 412.26 289.37 407.34 294.45 402 299.12 397.32 304.46"/><polyline class="cls-1" points="457.02 194.16 452.19 199.31 447.34 204.46 442.37 209.48 437.2 214.3 432.24 219.35 427.06 224.17 422.3 229.41 417.28 234.39 412.02 239.13 406.86 243.97 401.89 249.01 396.78 253.92"/><polyline class="cls-2" points="457.02 194.16 452.19 199.31 447.34 204.46 442.37 209.48 437.2 214.3 432.24 219.35 427.06 224.17 422.3 229.41 417.28 234.39 412.02 239.13 406.86 243.97 401.89 249.01 396.78 253.92"/><polyline class="cls-1" points="439.67 161.81 434.44 167.32 428.68 172.31 423.19 177.56 418.25 183.37 412.45 188.31 407.63 194.25 401.78 199.16 396.52 204.65"/><polyline class="cls-2" points="439.67 161.81 434.44 167.32 428.68 172.31 423.19 177.56 418.25 183.37 412.45 188.31 407.63 194.25 401.78 199.16 396.52 204.65"/><polyline class="cls-1" points="418.83 131.96 413.91 137.54 408.77 142.89 403.17 147.78 398.38 153.5 393.04 158.67 387.69 163.83"/><polyline class="cls-2" points="418.83 131.96 413.91 137.54 408.77 142.89 403.17 147.78 398.38 153.5 393.04 158.67 387.69 163.83"/></svg>