<svg xmlns="http://www.w3.org/2000/svg" viewBox="0 0 800 800"><defs><style>.a,.c{fill:none;stroke:#000;stroke-linejoin:bevel;}.a{stroke-width:13px;}.b{fill:#fff;}.c{stroke-width:4px;}</style></defs><title>canvas (51)</title><polyline class="a" points="-8.29 718 -3.13 713.02 1.83 707.84 6.94 702.8 12.12 697.83 17.28 692.85 22.26 687.68 27.77 683.04 32.64 677.76 37.74 672.72 42.84 667.66 47.8 662.48 53.07 657.61 57.63 652.01 63.26 647.49 67.83 641.92 73 636.94 78.47 632.26 83.13 626.77 88.54 622.04 93.16 616.51 98.21 611.4 103.54 606.59 108.47 601.37 113.75 596.5 118.67 591.27 123.87 586.32 128.84 581.13 134.35 576.5 139.35 571.35 144.21 566.06 149.53 561.23 154.53 556.08 159.72 551.12 164.23 545.47 169.73 540.83 174.73 535.67 179.46 530.25 184.61 525.25 190.21 520.71 195.11 515.47 199.8 510.02 205.42 505.49 210.42 500.34 214.97 494.74 220.28 489.91 225.45 484.93 230.71 480.04 235.7 474.88 240.34 469.37 245.95 464.83 250.63 459.36 256.07 454.64 260.95 449.38 265.98 444.26 271.04 439.15 276.15 434.12 281.58 429.39 286.21 423.87 291.42 418.92 296.45 413.8 301.61 408.8 306.88 403.92 311.74 398.63 316.75 393.47 321.68 388.25 326.96 383.38 332.35 378.61 337.19 373.3 342.09 368.04 347.16 362.95 352.53 358.16 357.23 352.7 362.78 348.09 367.48 342.63 372.92 337.9 377.63 332.44 382.75 327.55 375.46 327.77 368.06 327.69 360.65 327.37 353.25 327.88 345.85 327.7 338.44 327.82 331.04 327.76 323.63 327.36 316.23 327.17 308.82 327.09 301.41 327.97 294.05 327.45 294.02 320.11 293.85 312.71 293.93 305.32 294.1 297.93 293.75 290.54 293.85 283.14 294.55 275.75 294.21 268.36 293.69 260.96 294.18 253.57 294.33 246.17 294.17 238.93 289.42 244.19 283.97 248.99 279.18 254.43 274.04 259.53 268.5 264.24 263.63 269.61 258.54 274.76 252.98 279.45 247.93 284.63 242.71 289.66 238.24 295.44 233.12 300.56 227.77 305.45 222.79 310.71 217.31 315.48 212.63 321.04 207 325.66 201.86 330.75 196.7 335.84 191.68 341.07 186.81 346.44 181.88 351.74 176.16 356.25 171.23 361.56 166.09 366.67 161.03 371.84 156.11 377.16 150.71 382 145.84 387.37 140.85 392.63 135.34 397.36 130.68 402.94 125.31 407.81 120.31 413.06 114.94 417.93 109.79 423.02 104.49 427.97 99.77 433.49 94.35 438.32 89.08 443.3 84.07 448.53 79.01 453.73 74.31 459.27 69.03 464.24 63.59 469.05 58.93 474.64 53.18 479.14 48.6 484.8 42.95 489.41 37.94 494.63 32.81 499.76 28.06 505.26 22.97 510.43 17.72 515.43 12.73 520.69 7.12 525.34 2.49 530.97 -3.19 535.54 -7.66 541.35"/><polygon class="b" points="544.19 477.37 536.49 476.81 529.11 477.28 521.72 476.68 514.34 477.12 506.96 477.09 499.57 477.04 492.19 476.74 484.81 477.05 477.42 476.84 470.03 477.01 462.64 477.54 454.98 477.32 455.64 469.67 455.63 462.29 455.26 454.9 454.9 447.52 455.14 440.14 455.68 432.75 455.62 425.37 455.05 417.99 454.92 410.6 455.5 403.21 454.82 395.82 455.11 388.29 462.63 388.36 470.02 388.75 477.4 388.25 484.78 388.37 492.17 388.18 499.55 388.69 506.93 388.65 514.32 388.7 521.71 388.66 529.09 388.79 536.48 388.92 543.69 388.61 543.83 395.81 544.32 403.2 543.53 410.58 543.6 417.96 544.01 425.35 543.83 432.73 543.96 440.11 544.08 447.5 544.14 454.89 543.89 462.27 544.17 469.66 544.19 477.37"/><polygon class="a" points="544.19 477.37 536.49 476.81 529.11 477.28 521.72 476.68 514.34 477.12 506.96 477.09 499.57 477.04 492.19 476.74 484.81 477.05 477.42 476.84 470.03 477.01 462.64 477.54 454.98 477.32 455.64 469.67 455.63 462.29 455.26 454.9 454.9 447.52 455.14 440.14 455.68 432.75 455.62 425.37 455.05 417.99 454.92 410.6 455.5 403.21 454.82 395.82 455.11 388.29 462.63 388.36 470.02 388.75 477.4 388.25 484.78 388.37 492.17 388.18 499.55 388.69 506.93 388.65 514.32 388.7 521.71 388.66 529.09 388.79 536.48 388.92 543.69 388.61 543.83 395.81 544.32 403.2 543.53 410.58 543.6 417.96 544.01 425.35 543.83 432.73 543.96 440.11 544.08 447.5 544.14 454.89 543.89 462.27 544.17 469.66 544.19 477.37"/><polygon class="b" points="380.83 329.39 373.48 329.75 366.1 329.38 358.71 328.97 351.33 329.87 343.95 329.48 336.56 329.04 329.18 329.05 321.79 329.4 314.41 329.88 307.02 329.78 299.63 329.63 292.54 329.12 292.05 322.04 292.14 314.65 291.91 307.27 291.96 299.89 291.93 292.5 291.76 285.12 292.04 277.74 292.18 270.35 291.84 262.96 292.08 255.58 291.88 248.19 291.93 240.48 299.62 240.43 307.01 240.66 314.39 240.64 321.77 240.93 329.15 241.01 336.54 240.5 343.92 240.53 351.31 241.17 358.7 240.31 366.08 240.51 373.47 241.1 381.12 240.54 381.11 248.18 380.87 255.56 380.6 262.95 380.78 270.33 381.15 277.71 380.54 285.1 380.4 292.48 380.44 299.86 381.33 307.25 380.69 314.64 380.58 322.03 380.83 329.39"/><polygon class="a" points="380.83 329.39 373.48 329.75 366.1 329.38 358.71 328.97 351.33 329.87 343.95 329.48 336.56 329.04 329.18 329.05 321.79 329.4 314.41 329.88 307.02 329.78 299.63 329.63 292.54 329.12 292.05 322.04 292.14 314.65 291.91 307.27 291.96 299.89 291.93 292.5 291.76 285.12 292.04 277.74 292.18 270.35 291.84 262.96 292.08 255.58 291.88 248.19 291.93 240.48 299.62 240.43 307.01 240.66 314.39 240.64 321.77 240.93 329.15 241.01 336.54 240.5 343.92 240.53 351.31 241.17 358.7 240.31 366.08 240.51 373.47 241.1 381.12 240.54 381.11 248.18 380.87 255.56 380.6 262.95 380.78 270.33 381.15 277.71 380.54 285.1 380.4 292.48 380.44 299.86 381.33 307.25 380.69 314.64 380.58 322.03 380.83 329.39"/><polygon class="b" points="632.54 565.72 625.12 566.1 617.73 565.83 610.35 565.51 602.97 566.07 595.58 565.6 588.2 565.71 580.82 565.39 573.43 565.19 566.04 565.21 558.66 565.55 551.27 565.84 543.56 565.99 543.86 558.3 544.35 550.91 544.04 543.53 544.19 536.15 543.76 528.76 544.01 521.38 543.98 514 543.54 506.61 543.87 499.22 544.28 491.84 543.43 484.45 543.91 477.09 551.26 477.04 558.64 476.9 566.03 476.95 573.41 477.55 580.79 477.55 588.17 476.99 595.56 477.06 602.94 477.3 610.33 477.43 617.72 477.35 625.11 476.99 632.16 477.39 632.28 484.44 632.27 491.82 632.37 499.21 632.82 506.59 632.04 513.97 632.98 521.36 632.11 528.74 632.04 536.13 632.38 543.51 632.35 550.9 632.36 558.29 632.54 565.72"/><polygon class="a" points="632.54 565.72 625.12 566.1 617.73 565.83 610.35 565.51 602.97 566.07 595.58 565.6 588.2 565.71 580.82 565.39 573.43 565.19 566.04 565.21 558.66 565.55 551.27 565.84 543.56 565.99 543.86 558.3 544.35 550.91 544.04 543.53 544.19 536.15 543.76 528.76 544.01 521.38 543.98 514 543.54 506.61 543.87 499.22 544.28 491.84 543.43 484.45 543.91 477.09 551.26 477.04 558.64 476.9 566.03 476.95 573.41 477.55 580.79 477.55 588.17 476.99 595.56 477.06 602.94 477.3 610.33 477.43 617.72 477.35 625.11 476.99 632.16 477.39 632.28 484.44 632.27 491.82 632.37 499.21 632.82 506.59 632.04 513.97 632.98 521.36 632.11 528.74 632.04 536.13 632.38 543.51 632.35 550.9 632.36 558.29 632.54 565.72"/><polyline class="b" points="430.21 565.07 424.05 569.01 417.81 572.92 410.82 575.29 403.51 576.17 396.21 575.74 388.91 575.41 381.74 573.86 374.88 571.25 368.51 567.92 361.99 569.43 355.34 570.68 348.77 572.27 342.24 574.01 335.64 575.63 329.22 573.18 322.81 570.81 316.41 568.38 309.79 566.56 303.35 564.46 296.15 565.62 288.85 566.51 281.56 567.55 274.29 568.66 266.96 569.41 259.81 571.32 252.45 571.94 245.15 573.44 248.73 566.96 253.28 561.43 259 557.11 264.08 552.06 270.2 548.38 276.32 544.75 282.66 541.49 288.9 538.02 295.43 535.14 302.15 532.75 308.73 529.99 315.48 527.67 322.29 525.57 329.07 523.33 335.98 521.56 342.87 519.74 349.64 517.47 356.5 515.54 363.36 513.62 370.35 512.11 377.15 509.96 384.01 508 390.7 505.52 397.13 502.37 403.85 499.91 409.72 495.74 415.49 491.73 422.35 489.83 429.42 489.17 436.49 488.87 443.59 488.77 450.6 489.91 457.61 490.94 464.47 492.7 471.49 494.05 478.08 496.74 484.28 500.24 490.48 503.67 496.49 507.49 501.49 512.55 506.7 517.43 510.06 523.73 513.5 529.91 515.95 536.58 517.38 543.55 517.36 550.66 516.9 557.7 516.11 564.73 515.24 571.82 513.01 578.6 510.03 585.07 507.03 591.49 504.39 598.11 500.53 604.1 497.04 610.3 492.84 616.19 488.99 622.34 484.11 627.71 479.07 632.9 473.96 638 469.07 643.38 462.91 647.28 457.14 651.6 451.53 656.19 445.26 659.82 439.05 663.51 432.75 667.1 425.97 669.68 419.19 672.19 412.72 675.52 405.68 677.28 398.79 679.43 392.02 682.1 384.86 683.25 377.76 684.61 370.72 686.24 363.63 687.65 356.51 688.93 349.36 690.07 342.12 690.5 334.9 690.95 327.7 691.55 320.47 691.76 313.24 691.82 306.02 692.54 298.79 691.89 291.57 691.68 284.32 691.98 277.13 691.15 269.87 691.25 262.69 690.39 255.51 689.42 248.25 689.33 241.1 688.17 234.07 686.37 226.84 685.59 232.33 681.23 237.75 676.81 243.2 672.42 248.7 668.1 254.24 663.82 259.68 659.41 265.05 654.91 270.42 650.61 277.61 649.04 284.99 647.94 292.39 647.06 299.79 646.08 307.01 644.43 313.01 640.75 318.58 636.29 324.8 632.81 330.69 628.82 336.33 624.47 342.21 620.39 349.49 620.17 356.58 619 363.64 617.71 370.75 616.51 377.52 614.05 384.19 611.35 390.22 607.43 396.24 603.51 401.12 598.21 405.34 592.32 407.75 585.47 408.15 578.25"/><polyline class="a" points="430.21 565.07 424.05 569.01 417.81 572.92 410.82 575.29 403.51 576.17 396.21 575.74 388.91 575.41 381.74 573.86 374.88 571.25 368.51 567.92 361.99 569.43 355.34 570.68 348.77 572.27 342.24 574.01 335.64 575.63 329.22 573.18 322.81 570.81 316.41 568.38 309.79 566.56 303.35 564.46 296.15 565.62 288.85 566.51 281.56 567.55 274.29 568.66 266.96 569.41 259.81 571.32 252.45 571.94 245.15 573.44 248.73 566.96 253.28 561.43 259 557.11 264.08 552.06 270.2 548.38 276.32 544.75 282.66 541.49 288.9 538.02 295.43 535.14 302.15 532.75 308.73 529.99 315.48 527.67 322.29 525.57 329.07 523.33 335.98 521.56 342.87 519.74 349.64 517.47 356.5 515.54 363.36 513.62 370.35 512.11 377.15 509.96 384.01 508 390.7 505.52 397.13 502.37 403.85 499.91 409.72 495.74 415.49 491.73 422.35 489.83 429.42 489.17 436.49 488.87 443.59 488.77 450.6 489.91 457.61 490.94 464.47 492.7 471.49 494.05 478.08 496.74 484.28 500.24 490.48 503.67 496.49 507.49 501.49 512.55 506.7 517.43 510.06 523.73 513.5 529.91 515.95 536.58 517.38 543.55 517.36 550.66 516.9 557.7 516.11 564.73 515.24 571.82 513.01 578.6 510.03 585.07 507.03 591.49 504.39 598.11 500.53 604.1 497.04 610.3 492.84 616.19 488.99 622.34 484.11 627.71 479.07 632.9 473.96 638 469.07 643.38 462.91 647.28 457.14 651.6 451.53 656.19 445.26 659.82 439.05 663.51 432.75 667.1 425.97 669.68 419.19 672.19 412.72 675.52 405.68 677.28 398.79 679.43 392.02 682.1 384.86 683.25 377.76 684.61 370.72 686.24 363.63 687.65 356.51 688.93 349.36 690.07 342.12 690.5 334.9 690.95 327.7 691.55 320.47 691.76 313.24 691.82 306.02 692.54 298.79 691.89 291.57 691.68 284.32 691.98 277.13 691.15 269.87 691.25 262.69 690.39 255.51 689.42 248.25 689.33 241.1 688.17 234.07 686.37 226.84 685.59 232.33 681.23 237.75 676.81 243.2 672.42 248.7 668.1 254.24 663.82 259.68 659.41 265.05 654.91 270.42 650.61 277.61 649.04 284.99 647.94 292.39 647.06 299.79 646.08 307.01 644.43 313.01 640.75 318.58 636.29 324.8 632.81 330.69 628.82 336.33 624.47 342.21 620.39 349.49 620.17 356.58 619 363.64 617.71 370.75 616.51 377.52 614.05 384.19 611.35 390.22 607.43 396.24 603.51 401.12 598.21 405.34 592.32 407.75 585.47 408.15 578.25"/><polyline class="b" points="438.17 558.02 432.29 562.34 425.87 565.88 418.93 568.29 411.65 569.19 404.37 568.95 397.02 568.87 389.98 566.8 383.15 564.18 376.67 560.46 370.18 562.77 363.61 564.3 356.96 565.58 350.48 567.57 343.8 568.92 337.4 566.34 330.79 564.52 324.57 561.58 318.05 559.47 311.55 557.14 304.26 558.46 297.05 559.99 289.69 560.55 282.38 561.38 275.22 563.26 267.93 564.29 260.67 565.52 253.35 566.42 256.97 560.22 261.59 554.77 266.79 549.88 272.4 545.49 278.16 541.26 284.69 538.31 290.83 534.72 297.17 531.47 303.54 528.21 310.16 525.56 317.13 523.84 323.67 520.96 330.44 518.73 337.37 517.01 344.02 514.36 350.86 512.35 357.73 510.44 364.67 508.79 371.45 506.56 378.33 504.72 385.32 503.22 392.02 500.74 398.66 498.15 405.33 495.68 412.04 493.15 417.73 488.78 423.82 485.34 430.51 483.01 437.54 481.88 444.65 481.87 451.74 482.18 458.82 482.63 465.74 484.27 472.62 485.94 479.56 487.51 486.32 489.76 492.56 493.21 498.58 496.97 504.78 500.53 509.77 505.63 514.46 510.94 518.74 516.63 521.96 522.99 523.54 529.93 525.51 536.76 525.64 543.86 525.67 550.96 524.1 557.9 522.76 564.85 521.25 571.82 518.61 578.44 515.62 584.89 512.23 591.14 508.4 597.14 505.09 603.43 500.8 609.25 497.12 615.52 492.02 620.7 487.51 626.37 482.13 631.21 476.99 636.3 471.22 640.66 465.6 645.21 459.69 649.39 453.43 653.03 447.09 656.49 440.93 660.34 434.06 662.73 427.6 666.02 420.66 668.11 413.92 670.72 407.14 673.29 400.01 674.65 393.17 677.1 386.05 678.42 378.91 679.6 371.79 680.84 364.69 682.26 357.47 682.9 350.31 683.98 343.06 684.14 335.83 684.28 328.63 685.07 321.4 685.07 314.17 685.01 306.95 685.21 299.71 685.39 292.49 685.11 285.26 684.71 278.03 684.45 270.86 683.49 263.61 683.24 256.43 682.33 249.25 681.44 242.12 680.24 235.17 678.89 240.38 674.29 245.82 669.89 251.18 665.4 256.63 661.01 262.06 656.6 267.33 652 272.97 647.83 278.43 643.47 285.83 642.64 293.11 640.91 300.54 640.17 307.87 638.74 315.13 637.51 321.2 633.98 326.81 629.6 333.14 626.27 338.7 621.81 344.77 618.08 350.28 613.4 357.48 613.06 364.49 612.46 371.44 611.47 378.42 610.42 385.26 608.69 391.79 606 398.16 603.07 404.5 600.02 409.9 595.53 415.27 590.96 418.98 584.97 421.21 578.33 422.79 571.49"/><polyline class="a" points="438.17 558.02 432.29 562.34 425.87 565.88 418.93 568.29 411.65 569.19 404.37 568.95 397.02 568.87 389.98 566.8 383.15 564.18 376.67 560.46 370.18 562.77 363.61 564.3 356.96 565.58 350.48 567.57 343.8 568.92 337.4 566.34 330.79 564.52 324.57 561.58 318.05 559.47 311.55 557.14 304.26 558.46 297.05 559.99 289.69 560.55 282.38 561.38 275.22 563.26 267.93 564.29 260.67 565.52 253.35 566.42 256.97 560.22 261.59 554.77 266.79 549.88 272.4 545.49 278.16 541.26 284.69 538.31 290.83 534.72 297.17 531.47 303.54 528.21 310.16 525.56 317.13 523.84 323.67 520.96 330.44 518.73 337.37 517.01 344.02 514.36 350.86 512.35 357.73 510.44 364.67 508.79 371.45 506.56 378.33 504.72 385.32 503.22 392.02 500.74 398.66 498.15 405.33 495.68 412.04 493.15 417.73 488.78 423.82 485.34 430.51 483.01 437.54 481.88 444.65 481.87 451.74 482.18 458.82 482.63 465.74 484.27 472.62 485.94 479.56 487.51 486.32 489.76 492.56 493.21 498.58 496.97 504.78 500.53 509.77 505.63 514.46 510.94 518.74 516.63 521.96 522.99 523.54 529.93 525.51 536.76 525.64 543.86 525.67 550.96 524.1 557.9 522.76 564.85 521.25 571.82 518.61 578.44 515.62 584.89 512.23 591.14 508.4 597.14 505.09 603.43 500.8 609.25 497.12 615.52 492.02 620.7 487.51 626.37 482.13 631.21 476.99 636.3 471.22 640.66 465.6 645.21 459.69 649.39 453.43 653.03 447.09 656.49 440.93 660.34 434.06 662.73 427.6 666.02 420.66 668.11 413.92 670.72 407.14 673.29 400.01 674.65 393.17 677.1 386.05 678.42 378.91 679.6 371.79 680.84 364.69 682.26 357.47 682.9 350.31 683.98 343.06 684.14 335.83 684.28 328.63 685.07 321.4 685.07 314.17 685.01 306.95 685.21 299.71 685.39 292.49 685.11 285.26 684.71 278.03 684.45 270.86 683.49 263.61 683.24 256.43 682.33 249.25 681.44 242.12 680.24 235.17 678.89 240.38 674.29 245.82 669.89 251.18 665.4 256.63 661.01 262.06 656.6 267.33 652 272.97 647.83 278.43 643.47 285.83 642.64 293.11 640.91 300.54 640.17 307.87 638.74 315.13 637.51 321.2 633.98 326.81 629.6 333.14 626.27 338.7 621.81 344.77 618.08 350.28 613.4 357.48 613.06 364.49 612.46 371.44 611.47 378.42 610.42 385.26 608.69 391.79 606 398.16 603.07 404.5 600.02 409.9 595.53 415.27 590.96 418.98 584.97 421.21 578.33 422.79 571.49"/><polyline class="b" points="455.7 555.11 450.22 560.03 443.44 562.89 436.63 565.63 429.3 566.15 422.03 566.58 414.8 565.63 407.58 564.33 400.91 561.3 394.35 558.07 387.74 559.55 381.23 561.37 374.73 563.21 368.11 564.62 361.47 566.39 355.15 563.43 348.5 561.72 342.15 559.13 335.75 556.7 329.18 554.97 321.94 555.78 314.69 557.04 307.43 558.17 300.1 558.96 292.84 560.14 285.64 561.74 278.27 562.25 271.07 563.44 274.98 557.75 279.49 552.26 284.59 547.3 290.16 542.88 296.09 538.93 302.12 535.14 308.41 531.79 314.75 528.52 321.49 526.13 327.98 523.19 334.82 521.14 341.5 518.68 348.11 515.97 355.06 514.3 361.85 512.15 368.58 509.77 375.59 508.36 382.48 506.51 389.3 504.45 396.17 502.52 402.92 500.23 409.61 497.75 416.45 495.74 423.03 493.01 429.49 490.01 435.42 486.07 441.5 482.64 448.31 480.89 455.24 479.39 462.33 479.52 469.4 479.76 476.49 480.04 483.53 481.03 490.38 482.94 497.22 484.84 503.89 487.3 510.04 490.89 516.58 493.74 522 498.38 527.26 503.1 532.29 508.1 536.59 513.81 539.46 520.35 541.27 527.2 543.02 534.06 543.95 541.13 543.28 548.23 542.42 555.3 540.84 562.24 538.96 569.11 535.56 575.42 533.5 582.27 529.91 588.42 526.84 594.86 523.2 600.98 518.94 606.86 514.17 612.32 509.98 618.22 505.32 623.77 499.74 628.42 494.89 633.83 489.31 638.46 483.36 642.6 477.14 646.32 471.17 650.4 464.9 654.02 458.53 657.47 451.96 660.5 445.29 663.32 438.48 665.77 431.52 667.75 424.74 670.29 417.67 671.84 410.83 674.29 403.65 675.33 396.59 676.9 389.44 677.95 382.37 679.58 375.15 680.17 367.91 680.45 360.75 681.53 353.55 682.24 346.31 682.41 339.1 683.01 331.86 682.51 324.63 682.4 317.4 682.47 310.15 682.66 302.96 681.74 295.71 681.71 288.54 680.75 281.32 680.26 274.12 679.52 267.04 677.96 259.91 676.84 252.37 675.89 258.21 671.75 263.3 666.92 268.72 662.51 274.58 658.62 279.74 653.89 285.02 649.28 290.39 644.79 296.23 641.01 303.53 640.06 310.79 638.18 318.23 637.53 325.54 635.97 332.95 635.16 338.67 630.96 344.69 627.17 350.34 622.85 356.49 619.24 362.26 615.08 368.31 611.42 375.32 610.56 382.44 609.59 389.58 608.65 396.64 607.16 403.34 604.48 410.12 602.01 416.44 598.51 421.73 593.59 427.2 588.88 430.96 582.69 433.53 575.93 434.34 568.76"/><polyline class="a" points="455.7 555.11 450.22 560.03 443.44 562.89 436.63 565.63 429.3 566.15 422.03 566.58 414.8 565.63 407.58 564.33 400.91 561.3 394.35 558.07 387.74 559.55 381.23 561.37 374.73 563.21 368.11 564.62 361.47 566.39 355.15 563.43 348.5 561.72 342.15 559.13 335.75 556.7 329.18 554.97 321.94 555.78 314.69 557.04 307.43 558.17 300.1 558.96 292.84 560.14 285.64 561.74 278.27 562.25 271.07 563.44 274.98 557.75 279.49 552.26 284.59 547.3 290.16 542.88 296.09 538.93 302.12 535.14 308.41 531.79 314.75 528.52 321.49 526.13 327.98 523.19 334.82 521.14 341.5 518.68 348.11 515.97 355.06 514.3 361.85 512.15 368.58 509.77 375.59 508.36 382.48 506.51 389.3 504.45 396.17 502.52 402.92 500.23 409.61 497.75 416.45 495.74 423.03 493.01 429.49 490.01 435.42 486.07 441.5 482.64 448.31 480.89 455.24 479.39 462.33 479.52 469.4 479.76 476.49 480.04 483.53 481.03 490.38 482.94 497.22 484.84 503.89 487.3 510.04 490.89 516.58 493.74 522 498.38 527.26 503.1 532.29 508.1 536.59 513.81 539.46 520.35 541.27 527.2 543.02 534.06 543.95 541.13 543.28 548.23 542.42 555.3 540.84 562.24 538.96 569.11 535.56 575.42 533.5 582.27 529.91 588.42 526.84 594.86 523.2 600.98 518.94 606.86 514.17 612.32 509.98 618.22 505.32 623.77 499.74 628.42 494.89 633.83 489.31 638.46 483.36 642.6 477.14 646.32 471.17 650.4 464.9 654.02 458.53 657.47 451.96 660.5 445.29 663.32 438.48 665.77 431.52 667.75 424.74 670.29 417.67 671.84 410.83 674.29 403.65 675.33 396.59 676.9 389.44 677.95 382.37 679.58 375.15 680.17 367.91 680.45 360.75 681.53 353.55 682.24 346.31 682.41 339.1 683.01 331.86 682.51 324.63 682.4 317.4 682.47 310.15 682.66 302.96 681.74 295.71 681.71 288.54 680.75 281.32 680.26 274.12 679.52 267.04 677.96 259.91 676.84 252.37 675.89 258.21 671.75 263.3 666.92 268.72 662.51 274.58 658.62 279.74 653.89 285.02 649.28 290.39 644.79 296.23 641.01 303.53 640.06 310.79 638.18 318.23 637.53 325.54 635.97 332.95 635.16 338.67 630.96 344.69 627.17 350.34 622.85 356.49 619.24 362.26 615.08 368.31 611.42 375.32 610.56 382.44 609.59 389.58 608.65 396.64 607.16 403.34 604.48 410.12 602.01 416.44 598.51 421.73 593.59 427.2 588.88 430.96 582.69 433.53 575.93 434.34 568.76"/><polygon class="b" points="588.67 81.68 592.41 87.81 595.49 94.29 598.68 100.73 600.67 107.65 603.85 114.13 605.72 121.07 607.5 128.01 609.24 134.97 611.09 141.91 611.35 149.13 612.31 156.21 613.09 163.33 613.3 170.49 613.19 177.66 612.93 184.83 612.25 191.98 611.06 199.06 609.76 206.14 607.77 213.05 605.42 219.85 602.54 226.43 599.6 232.98 596.03 239.21 592.88 245.68 588.65 251.49 588.3 251.42 584.47 245.39 580.65 239.31 577.56 232.84 574.34 226.43 572.09 219.62 569.3 212.99 567.88 205.94 565.56 199.11 564.81 191.95 564 184.82 563.31 177.67 563.53 170.49 564.13 163.34 563.77 156.12 564.74 149 566.24 141.97 567.82 134.98 569.05 127.9 570.81 120.93 573.11 114.11 575.68 107.41 578.27 100.7 581.5 94.29 584.53 87.78 588.11 81.55 588.67 81.68"/><polygon class="a" points="588.67 81.68 592.41 87.81 595.49 94.29 598.68 100.73 600.67 107.65 603.85 114.13 605.72 121.07 607.5 128.01 609.24 134.97 611.09 141.91 611.35 149.13 612.31 156.21 613.09 163.33 613.3 170.49 613.19 177.66 612.93 184.83 612.25 191.98 611.06 199.06 609.76 206.14 607.77 213.05 605.42 219.85 602.54 226.43 599.6 232.98 596.03 239.21 592.88 245.68 588.65 251.49 588.3 251.42 584.47 245.39 580.65 239.31 577.56 232.84 574.34 226.43 572.09 219.62 569.3 212.99 567.88 205.94 565.56 199.11 564.81 191.95 564 184.82 563.31 177.67 563.53 170.49 564.13 163.34 563.77 156.12 564.74 149 566.24 141.97 567.82 134.98 569.05 127.9 570.81 120.93 573.11 114.11 575.68 107.41 578.27 100.7 581.5 94.29 584.53 87.78 588.11 81.55 588.67 81.68"/><polygon class="b" points="610.86 185.56 609.78 192.47 606.98 198.99 601.48 203.42 595.37 206.71 588.5 208.06 581.41 207.37 575.05 204.06 570.02 198.98 567.34 192.43 565.84 185.56 566.98 178.56 570.57 172.53 575.04 167.03 581.42 163.75 588.5 162.95 595.42 164.26 601.97 167.02 606.88 172.2 610.3 178.47 610.86 185.56"/><polygon class="a" points="610.86 185.56 609.78 192.47 606.98 198.99 601.48 203.42 595.37 206.71 588.5 208.06 581.41 207.37 575.05 204.06 570.02 198.98 567.34 192.43 565.84 185.56 566.98 178.56 570.57 172.53 575.04 167.03 581.42 163.75 588.5 162.95 595.42 164.26 601.97 167.02 606.88 172.2 610.3 178.47 610.86 185.56"/><polyline points="566.05 210.4 570.75 205.59 574.64 200.05 579.47 195.36 584.03 190.41 588.51 185.75 592.99 190.07 597.33 194.88 601.72 199.65 606.15 204.4 609.87 209.79"/><polyline class="c" points="566.05 210.4 570.75 205.59 574.64 200.05 579.47 195.36 584.03 190.41 588.51 185.75 592.99 190.07 597.33 194.88 601.72 199.65 606.15 204.4 609.87 209.79"/><polygon points="726.48 371.81 724.13 378.95 718.74 383.92 711.75 385.94 704.76 383.91 699.28 379 697.91 371.81 698.71 364.39 700.87 357.18 703.52 350.14 706.37 343.18 708.89 336.1 711.75 329.15 714.25 336.24 717.47 343.05 719.59 350.27 722.69 357.16 724.12 364.58 726.48 371.81"/><polygon class="c" points="726.48 371.81 724.13 378.95 718.74 383.92 711.75 385.94 704.76 383.91 699.28 379 697.91 371.81 698.71 364.39 700.87 357.18 703.52 350.14 706.37 343.18 708.89 336.1 711.75 329.15 714.25 336.24 717.47 343.05 719.59 350.27 722.69 357.16 724.12 364.58 726.48 371.81"/></svg>