<svg id="Layer_1" data-name="Layer 1" xmlns="http://www.w3.org/2000/svg" viewBox="0 0 800 800"><defs><style>.cls-1,.cls-3{fill:none;stroke:#000;}.cls-1{stroke-linejoin:bevel;stroke-width:13px;}.cls-2{fill:#fff;}.cls-3{stroke-miterlimit:10;stroke-width:3px;}</style></defs><title>canvas (78)</title><polygon points="491.59 254.75 486.75 259.76 480.62 263.66 474.67 267.75 468.74 271.89 462.49 275.53 456.39 279.41 450.45 283.58 443.97 286.81 437.42 289.91 431.16 293.55 424.4 296.18 417.71 298.9 411.2 302.1 404.28 304.24 397.66 307.24 390.67 309.15 383.67 311.01 376.7 312.96 369.66 314.64 362.44 315.39 355.42 317.33 348.16 317.67 340.98 318.63 333.73 318.62 326.5 318.63 319.25 319.35 312.02 318.69 304.87 317.5 297.69 316.66 290.59 315.32 283.31 314.86 276.25 313.25 269.28 311.25 262.45 308.82 255.62 306.45 248.5 304.88 241.87 301.96 234.98 299.68 228.6 296.21 222.03 293.18 215.38 290.31 208.82 287.22 202.47 283.72 196.6 279.42 190.5 275.55 184.2 271.97 178.16 267.98 172.28 263.76 166.5 259.42 160.94 254.75 166.49 250.06 172.62 246.17 178.01 241.28 184.01 237.23 190.43 233.84 196.52 229.94 202.76 226.28 209.25 223.09 215.28 219 221.76 215.78 228.32 212.7 235.17 210.31 241.73 207.22 248.74 205.29 255.46 202.62 262.21 199.94 269.4 198.77 276.22 196.22 283.48 195.52 290.53 193.91 297.59 192.2 304.8 191.46 312.03 191 319.26 190.49 326.5 190.58 333.74 190.45 340.97 190.91 348.21 191.27 355.34 192.63 362.49 193.75 369.63 194.9 376.78 196.15 383.6 198.68 390.56 200.64 397.49 202.74 404.49 204.63 411.06 207.72 417.81 210.32 424.55 212.98 430.98 216.29 437.41 219.6 444.04 222.54 450.37 226.05 456.61 229.72 462.79 233.49 468.85 237.45 474.61 241.85 480.63 245.86 486.18 250.5 491.59 254.75"/><polygon class="cls-1" points="491.59 254.75 486.75 259.76 480.62 263.66 474.67 267.75 468.74 271.89 462.49 275.53 456.39 279.41 450.45 283.58 443.97 286.81 437.42 289.91 431.16 293.55 424.4 296.18 417.71 298.9 411.2 302.1 404.28 304.24 397.66 307.24 390.67 309.15 383.67 311.01 376.7 312.96 369.66 314.64 362.44 315.39 355.42 317.33 348.16 317.67 340.98 318.63 333.73 318.62 326.5 318.63 319.25 319.35 312.02 318.69 304.87 317.5 297.69 316.66 290.59 315.32 283.31 314.86 276.25 313.25 269.28 311.25 262.45 308.82 255.62 306.45 248.5 304.88 241.87 301.96 234.98 299.68 228.6 296.21 222.03 293.18 215.38 290.31 208.82 287.22 202.47 283.72 196.6 279.42 190.5 275.55 184.2 271.97 178.16 267.98 172.28 263.76 166.5 259.42 160.94 254.75 166.49 250.06 172.62 246.17 178.01 241.28 184.01 237.23 190.43 233.84 196.52 229.94 202.76 226.28 209.25 223.09 215.28 219 221.76 215.78 228.32 212.7 235.17 210.31 241.73 207.22 248.74 205.29 255.46 202.62 262.21 199.94 269.4 198.77 276.22 196.22 283.48 195.52 290.53 193.91 297.59 192.2 304.8 191.46 312.03 191 319.26 190.49 326.5 190.58 333.74 190.45 340.97 190.91 348.21 191.27 355.34 192.63 362.49 193.75 369.63 194.9 376.78 196.15 383.6 198.68 390.56 200.64 397.49 202.74 404.49 204.63 411.06 207.72 417.81 210.32 424.55 212.98 430.98 216.29 437.41 219.6 444.04 222.54 450.37 226.05 456.61 229.72 462.79 233.49 468.85 237.45 474.61 241.85 480.63 245.86 486.18 250.5 491.59 254.75"/><polygon class="cls-2" points="326.5 318.7 333.8 318.51 341.15 318.76 348.4 317.74 355.66 316.8 362.84 315.4 370.15 314.7 377.19 312.61 384.23 310.64 391.37 309 398.18 306.26 405.12 303.96 412.2 301.99 418.69 298.53 425.55 295.96 432.09 292.69 438.85 289.82 444.98 285.76 451.41 282.29 457.99 279.07 464.15 275.11 470.61 271.2 464.57 266.6 459.07 261.93 452.91 258.19 446.84 254.35 441.06 250.05 434.68 246.71 428.49 243.06 422.27 239.45 415.75 236.4 409.63 232.58 402.86 230.07 396.24 227.28 389.61 224.5 382.93 221.83 376.13 219.5 369.24 217.45 362.4 215.2 355.38 213.6 348.29 212.37 341.26 210.89 334.23 209.24 327.09 208.23 319.85 208.5 312.7 207.63 305.5 207.66 298.19 207.94 290.88 208.07 283.6 208.83 276.3 209.43 269.03 210.35 261.9 212.05 254.84 214 247.74 215.76 240.77 217.96 233.71 219.89 226.91 222.61 219.92 224.8 213.32 227.98 206.52 230.68 199.91 233.8 193.38 237.12 186.92 240.55 180.25 243.62 174.26 247.85 168.06 251.72 162.11 255.62 167.16 260.26 173.12 264.31 178.8 268.72 185.03 272.35 191.18 276.06 197.18 280.03 203.49 283.48 209.76 286.99 216.29 290 222.46 293.74 228.97 296.81 235.52 299.8 242.34 302.13 248.93 305.05 255.97 306.69 262.77 309.03 269.52 311.6 276.65 312.79 283.73 314.05 290.68 315.95 297.86 316.58 304.91 318.19 312.12 318.44 319.31 318.84 326.5 318.7"/><polygon class="cls-1" points="326.5 318.7 333.8 318.51 341.15 318.76 348.4 317.74 355.66 316.8 362.84 315.4 370.15 314.7 377.19 312.61 384.23 310.64 391.37 309 398.18 306.26 405.12 303.96 412.2 301.99 418.69 298.53 425.55 295.96 432.09 292.69 438.85 289.82 444.98 285.76 451.41 282.29 457.99 279.07 464.15 275.11 470.61 271.2 464.57 266.6 459.07 261.93 452.91 258.19 446.84 254.35 441.06 250.05 434.68 246.71 428.49 243.06 422.27 239.45 415.75 236.4 409.63 232.58 402.86 230.07 396.24 227.28 389.61 224.5 382.93 221.83 376.13 219.5 369.24 217.45 362.4 215.2 355.38 213.6 348.29 212.37 341.26 210.89 334.23 209.24 327.09 208.23 319.85 208.5 312.7 207.63 305.5 207.66 298.19 207.94 290.88 208.07 283.6 208.83 276.3 209.43 269.03 210.35 261.9 212.05 254.84 214 247.74 215.76 240.77 217.96 233.71 219.89 226.91 222.61 219.92 224.8 213.32 227.98 206.52 230.68 199.91 233.8 193.38 237.12 186.92 240.55 180.25 243.62 174.26 247.85 168.06 251.72 162.11 255.62 167.16 260.26 173.12 264.31 178.8 268.72 185.03 272.35 191.18 276.06 197.18 280.03 203.49 283.48 209.76 286.99 216.29 290 222.46 293.74 228.97 296.81 235.52 299.8 242.34 302.13 248.93 305.05 255.97 306.69 262.77 309.03 269.52 311.6 276.65 312.79 283.73 314.05 290.68 315.95 297.86 316.58 304.91 318.19 312.12 318.44 319.31 318.84 326.5 318.7"/><polygon points="294.47 247.58 287.75 249.33 281.42 252.13 275.5 255.67 269.91 259.79 265.34 265.06 262.36 271.35 259.24 277.5 257.88 284.27 256.66 291.12 257.24 298.06 259.51 305.16 266.26 307.55 273.29 309.29 280.45 310.43 287.51 312.08 294.71 312.87 301.86 314.04 309.05 314.91 316.31 314.91 323.53 315.29 330.76 315.18 337.85 315.13 341.89 308.39 343.97 300.68 345.41 292.8 344.16 284.9 342.99 278.12 340.15 271.85 337.2 265.56 332.55 260.4 326.93 256.37 321.35 252.33 314.87 250.02 308.25 248.2 301.4 247.61 294.47 247.58"/><polygon class="cls-1" points="294.47 247.58 287.75 249.33 281.42 252.13 275.5 255.67 269.91 259.79 265.34 265.06 262.36 271.35 259.24 277.5 257.88 284.27 256.66 291.12 257.24 298.06 259.51 305.16 266.26 307.55 273.29 309.29 280.45 310.43 287.51 312.08 294.71 312.87 301.86 314.04 309.05 314.91 316.31 314.91 323.53 315.29 330.76 315.18 337.85 315.13 341.89 308.39 343.97 300.68 345.41 292.8 344.16 284.9 342.99 278.12 340.15 271.85 337.2 265.56 332.55 260.4 326.93 256.37 321.35 252.33 314.87 250.02 308.25 248.2 301.4 247.61 294.47 247.58"/><polygon class="cls-2" points="294.52 247.96 287.93 249.9 281.47 252.22 275.3 255.39 270.38 260.27 265.91 265.48 262.22 271.27 258.92 277.39 257.47 284.2 257.54 291.12 257.65 298 259.07 305.62 266.43 306.9 273.32 309.17 280.5 310.22 287.6 311.56 294.7 312.93 301.93 313.45 309.11 314.25 316.28 315.34 323.51 315.94 330.76 315.25 338.1 315.55 341.75 308.34 344.38 300.77 344.8 292.78 344.18 284.89 342.58 278.25 340.55 271.65 336.85 265.82 332.26 260.68 327.28 255.9 321.31 252.42 314.86 250.03 308.27 248.09 301.4 247.38 294.52 247.96"/><polygon class="cls-1" points="294.52 247.96 287.93 249.9 281.47 252.22 275.3 255.39 270.38 260.27 265.91 265.48 262.22 271.27 258.92 277.39 257.47 284.2 257.54 291.12 257.65 298 259.07 305.62 266.43 306.9 273.32 309.17 280.5 310.22 287.6 311.56 294.7 312.93 301.93 313.45 309.11 314.25 316.28 315.34 323.51 315.94 330.76 315.25 338.1 315.55 341.75 308.34 344.38 300.77 344.8 292.78 344.18 284.89 342.58 278.25 340.55 271.65 336.85 265.82 332.26 260.68 327.28 255.9 321.31 252.42 314.86 250.03 308.27 248.09 301.4 247.38 294.52 247.96"/><polygon points="292.4 261.58 285.37 263.33 278.97 266.66 273.28 271.03 268.56 276.42 264.24 282.25 262.42 289.28 260.82 296.35 261.39 303.59 262.89 309.79 269.64 311.64 276.39 313.18 283.14 314.77 289.96 316.06 296.49 316.29 302.9 317.29 309.35 318.03 315.82 318.46 322.31 317.91 328.7 317.94 331.51 312.04 333.62 305.77 335 299.22 334.72 292.48 332.65 285.51 329.68 278.89 325 273.36 319.88 268.26 313.54 264.77 306.7 262.55 299.63 260.95 292.4 261.58"/><polygon class="cls-3" points="292.4 261.58 285.37 263.33 278.97 266.66 273.28 271.03 268.56 276.42 264.24 282.25 262.42 289.28 260.82 296.35 261.39 303.59 262.89 309.79 269.64 311.64 276.39 313.18 283.14 314.77 289.96 316.06 296.49 316.29 302.9 317.29 309.35 318.03 315.82 318.46 322.31 317.91 328.7 317.94 331.51 312.04 333.62 305.77 335 299.22 334.72 292.48 332.65 285.51 329.68 278.89 325 273.36 319.88 268.26 313.54 264.77 306.7 262.55 299.63 260.95 292.4 261.58"/><polygon points="656.71 317.75 651.3 322.18 645.51 326.5 639.95 331.16 633.99 335.27 627.91 339.19 621.5 342.6 615.49 346.65 608.86 349.61 602.64 353.34 596.11 356.45 589.31 358.98 582.77 362.06 575.99 364.56 569.43 367.68 562.62 370.13 555.72 372.33 548.71 374.14 541.73 376.09 534.56 377.19 527.46 378.51 520.41 380.27 513.17 380.8 505.94 381.1 498.73 381.7 491.5 382.2 484.26 381.88 477.05 381.39 469.83 380.82 462.7 379.61 455.49 378.88 448.47 377.1 441.27 376.13 434.25 374.37 427.49 371.7 420.54 369.68 413.72 367.28 406.87 364.96 400.3 361.92 393.51 359.39 387.1 356.03 380.39 353.29 373.99 349.91 367.85 346.06 361.4 342.76 355.4 338.7 349.06 335.18 343.17 330.96 337.4 326.6 331.31 322.66 326.21 317.75 331.75 313.38 337.33 308.78 343.05 304.34 349.43 300.87 355.45 296.87 361.35 292.66 367.75 289.26 374.09 285.79 380.29 282.04 386.94 279.15 393.44 275.97 399.97 272.84 406.97 270.85 413.61 267.95 420.44 265.56 427.32 263.3 434.26 261.23 441.23 259.27 448.31 257.69 455.57 257.16 462.69 255.91 469.86 255.03 477.03 253.95 484.27 253.79 491.5 253.44 498.74 253.45 505.97 253.82 513.17 254.63 520.34 255.6 527.53 256.5 534.55 258.3 541.59 259.94 548.77 261.06 555.52 263.8 562.67 265.19 569.24 268.33 576.08 270.67 582.8 273.33 589.53 276 596.1 279.06 602.55 282.32 609.09 285.45 615.51 288.8 621.5 292.91 627.78 296.5 633.79 300.55 639.83 304.53 645.77 308.67 651.36 313.26 656.71 317.75"/><polygon class="cls-1" points="656.71 317.75 651.3 322.18 645.51 326.5 639.95 331.16 633.99 335.27 627.91 339.19 621.5 342.6 615.49 346.65 608.86 349.61 602.64 353.34 596.11 356.45 589.31 358.98 582.77 362.06 575.99 364.56 569.43 367.68 562.62 370.13 555.72 372.33 548.71 374.14 541.73 376.09 534.56 377.19 527.46 378.51 520.41 380.27 513.17 380.8 505.94 381.1 498.73 381.7 491.5 382.2 484.26 381.88 477.05 381.39 469.83 380.82 462.7 379.61 455.49 378.88 448.47 377.1 441.27 376.13 434.25 374.37 427.49 371.7 420.54 369.68 413.72 367.28 406.87 364.96 400.3 361.92 393.51 359.39 387.1 356.03 380.39 353.29 373.99 349.91 367.85 346.06 361.4 342.76 355.4 338.7 349.06 335.18 343.17 330.96 337.4 326.6 331.31 322.66 326.21 317.75 331.75 313.38 337.33 308.78 343.05 304.34 349.43 300.87 355.45 296.87 361.35 292.66 367.75 289.26 374.09 285.79 380.29 282.04 386.94 279.15 393.44 275.97 399.97 272.84 406.97 270.85 413.61 267.95 420.44 265.56 427.32 263.3 434.26 261.23 441.23 259.27 448.31 257.69 455.57 257.16 462.69 255.91 469.86 255.03 477.03 253.95 484.27 253.79 491.5 253.44 498.74 253.45 505.97 253.82 513.17 254.63 520.34 255.6 527.53 256.5 534.55 258.3 541.59 259.94 548.77 261.06 555.52 263.8 562.67 265.19 569.24 268.33 576.08 270.67 582.8 273.33 589.53 276 596.1 279.06 602.55 282.32 609.09 285.45 615.51 288.8 621.5 292.91 627.78 296.5 633.79 300.55 639.83 304.53 645.77 308.67 651.36 313.26 656.71 317.75"/><polygon class="cls-2" points="491.5 382.44 498.81 381.72 506.14 381.7 513.36 380.31 520.73 380.31 527.82 378.32 535.16 377.72 542.23 375.77 549.41 374.3 556.37 371.98 563.4 369.94 570.24 367.29 577.13 364.81 583.73 361.63 590.71 359.32 597.21 355.94 603.6 352.35 610.18 349.13 616.66 345.73 622.98 342.05 629.27 338.3 635.25 334.05 629.82 329.27 624.03 324.99 618.15 320.85 611.8 317.41 605.85 313.38 600.08 309.04 593.72 305.64 587.35 302.3 580.75 299.41 574.33 296.19 567.99 292.78 561.51 289.63 554.54 287.67 547.86 285.03 541.27 282.06 534.41 279.87 527.37 278.32 520.33 276.8 513.39 274.88 506.31 273.59 499.19 272.57 492.07 271.44 484.89 270.93 477.71 270.14 470.5 270.63 463.18 270.65 455.85 270.68 448.64 272.16 441.3 272.4 434.02 273.3 426.99 275.49 419.73 276.56 412.59 278.2 405.72 280.8 398.82 283.24 391.71 285.05 385.12 288.31 378.16 290.61 371.59 293.84 364.92 296.82 358.22 299.81 351.61 302.97 345.44 306.95 339.38 311.05 332.68 314.13 327.17 318.64 332.59 322.7 338.35 326.99 343.97 331.47 350.18 335.11 355.86 339.58 362.02 343.29 368.41 346.61 374.73 350.05 380.98 353.62 387.55 356.55 393.93 359.89 400.75 362.25 407.23 365.4 414.01 367.82 420.87 370 427.7 372.26 434.67 374.05 441.64 375.8 448.53 377.99 455.71 378.79 462.75 380.42 469.96 380.77 477.11 381.62 484.3 381.91 491.5 382.44"/><polygon class="cls-1" points="491.5 382.44 498.81 381.72 506.14 381.7 513.36 380.31 520.73 380.31 527.82 378.32 535.16 377.72 542.23 375.77 549.41 374.3 556.37 371.98 563.4 369.94 570.24 367.29 577.13 364.81 583.73 361.63 590.71 359.32 597.21 355.94 603.6 352.35 610.18 349.13 616.66 345.73 622.98 342.05 629.27 338.3 635.25 334.05 629.82 329.27 624.03 324.99 618.15 320.85 611.8 317.41 605.85 313.38 600.08 309.04 593.72 305.64 587.35 302.3 580.75 299.41 574.33 296.19 567.99 292.78 561.51 289.63 554.54 287.67 547.86 285.03 541.27 282.06 534.41 279.87 527.37 278.32 520.33 276.8 513.39 274.88 506.31 273.59 499.19 272.57 492.07 271.44 484.89 270.93 477.71 270.14 470.5 270.63 463.18 270.65 455.85 270.68 448.64 272.16 441.3 272.4 434.02 273.3 426.99 275.49 419.73 276.56 412.59 278.2 405.72 280.8 398.82 283.24 391.71 285.05 385.12 288.31 378.16 290.61 371.59 293.84 364.92 296.82 358.22 299.81 351.61 302.97 345.44 306.95 339.38 311.05 332.68 314.13 327.17 318.64 332.59 322.7 338.35 326.99 343.97 331.47 350.18 335.11 355.86 339.58 362.02 343.29 368.41 346.61 374.73 350.05 380.98 353.62 387.55 356.55 393.93 359.89 400.75 362.25 407.23 365.4 414.01 367.82 420.87 370 427.7 372.26 434.67 374.05 441.64 375.8 448.53 377.99 455.71 378.79 462.75 380.42 469.96 380.77 477.11 381.62 484.3 381.91 491.5 382.44"/><polygon class="cls-2" points="459.58 311.31 452.93 312.92 446.18 314.65 440.4 318.53 435.19 323.08 430.66 328.3 426.9 334.11 424.72 340.66 423.04 347.3 422.57 354.12 423.09 360.93 424.06 368.62 431.27 370.51 438.33 372.15 445.53 373.07 452.52 375 459.66 376.23 466.87 376.95 474.09 377.47 481.27 378.56 488.52 378.7 495.76 378.94 502.79 378.04 507.05 371.46 508.98 363.68 509.87 355.79 509.28 347.88 507.87 341.16 505.33 334.76 501.84 328.82 497.29 323.65 492.12 319.12 486.37 315.31 479.88 312.98 473.28 311.03 466.4 310.9 459.58 311.31"/><polygon class="cls-1" points="459.58 311.31 452.93 312.92 446.18 314.65 440.4 318.53 435.19 323.08 430.66 328.3 426.9 334.11 424.72 340.66 423.04 347.3 422.57 354.12 423.09 360.93 424.06 368.62 431.27 370.51 438.33 372.15 445.53 373.07 452.52 375 459.66 376.23 466.87 376.95 474.09 377.47 481.27 378.56 488.52 378.7 495.76 378.94 502.79 378.04 507.05 371.46 508.98 363.68 509.87 355.79 509.28 347.88 507.87 341.16 505.33 334.76 501.84 328.82 497.29 323.65 492.12 319.12 486.37 315.31 479.88 312.98 473.28 311.03 466.4 310.9 459.58 311.31"/><polygon points="457.42 324.76 450.35 326.25 444.08 329.83 437.82 333.54 433.38 339.29 429.94 345.58 426.86 352.14 425.99 359.36 426.46 366.58 428.25 372.4 434.69 374.42 441.47 375.85 448.18 377.61 455.03 378.63 461.45 379.57 467.86 380.67 474.36 380.84 480.84 380.82 487.31 381.1 493.8 381.12 497.17 375.31 498.44 368.73 500.14 362.22 499.56 355.51 497.62 348.52 494.28 342.13 490.12 336.25 484.47 331.81 478.64 327.55 471.78 325.24 464.63 323.99 457.42 324.76"/><polygon class="cls-3" points="457.42 324.76 450.35 326.25 444.08 329.83 437.82 333.54 433.38 339.29 429.94 345.58 426.86 352.14 425.99 359.36 426.46 366.58 428.25 372.4 434.69 374.42 441.47 375.85 448.18 377.61 455.03 378.63 461.45 379.57 467.86 380.67 474.36 380.84 480.84 380.82 487.31 381.1 493.8 381.12 497.17 375.31 498.44 368.73 500.14 362.22 499.56 355.51 497.62 348.52 494.28 342.13 490.12 336.25 484.47 331.81 478.64 327.55 471.78 325.24 464.63 323.99 457.42 324.76"/><polyline class="cls-1" points="582 331.42 575.04 333.76 570.19 339.29 566.88 345.82 563.78 352.53 562.14 359.75 561.64 367.14 560.9 374.5 560.97 381.92 561.95 389.28 563.52 396.54 566.79 403.22 569.99 409.85 575.16 415.09 582 417.84 589.11 415.46 593.63 409.59 597.35 403.28 599.92 396.38 601.99 389.27 602.49 381.87 602.76 374.49 603.38 367.64 602.54 360.79 600.46 354.19"/><polygon class="cls-1" points="587.89 334 586.81 340.34 583.3 345.8 577.79 349.19 571.5 350.54 565.13 349.38 560.09 345.41 556.02 340.41 554.81 334 556.37 327.73 559.84 322.34 565.23 318.85 571.5 317.38 577.8 318.79 583.04 322.46 586.39 327.83 587.89 334"/><polygon points="592.6 429.5 589.74 437.24 582 440.06 574.04 437.46 570.81 429.5 574.5 422 582 418.33 589.93 421.57 592.6 429.5"/><polygon class="cls-1" points="592.6 429.5 589.74 437.24 582 440.06 574.04 437.46 570.81 429.5 574.5 422 582 418.33 589.93 421.57 592.6 429.5"/><polygon class="cls-1" points="179.37 305.06 177.68 311.99 173.74 317.86 167.65 321.26 160.94 323.19 154.15 321.44 148.03 317.97 144.23 311.98 142.7 305.06 144.02 297.42 146.9 290.26 149.22 282.93 151.9 275.72 154.97 268.66 157.63 261.44 160.94 254.42 164.03 261.53 166.84 268.69 170.26 275.6 172.31 283.05 174.71 290.35 177.68 297.47 179.37 305.06"/><polygon points="175 316.6 178.27 311.15 178.57 305.06 177.09 297.26 175.31 289.38 172.07 281.99 169.33 274.19 166.63 280.34 164.6 286.46 163.01 292.72 162.48 299.06 163.52 306.57 168.3 312.54 175 316.6"/><polygon class="cls-1" points="175 316.6 178.27 311.15 178.57 305.06 177.09 297.26 175.31 289.38 172.07 281.99 169.33 274.19 166.63 280.34 164.6 286.46 163.01 292.72 162.48 299.06 163.52 306.57 168.3 312.54 175 316.6"/><polygon class="cls-1" points="214.88 373.06 213.53 379.93 209.55 385.67 203.95 389.97 196.94 391.08 190 389.81 184.3 385.7 180.65 379.81 178.56 373.06 180.13 365.45 182.63 358.17 185.18 350.91 188.16 343.82 190.69 336.55 193.46 329.37 196.94 322.24 200.08 329.51 202.58 336.79 205.95 343.72 208.74 350.89 211.55 358.06 213.04 365.65 214.88 373.06"/><polygon points="210.93 384.28 213.69 378.94 215.04 373.06 213.19 365.23 210.87 357.54 208.18 349.95 205.17 342.86 203.17 348.54 201.15 354.64 198.93 360.7 198.43 367.06 199.38 374.64 204.52 380.28 210.93 384.28"/><polygon class="cls-1" points="210.93 384.28 213.69 378.94 215.04 373.06 213.19 365.23 210.87 357.54 208.18 349.95 205.17 342.86 203.17 348.54 201.15 354.64 198.93 360.7 198.43 367.06 199.38 374.64 204.52 380.28 210.93 384.28"/><polyline class="cls-1" points="491.51 227.19 486.11 222.72 480.1 218.73 474.19 214.65 468.46 210.27 461.9 207.19 456.15 202.81 449.74 199.52 443.47 195.98 437.13 192.57 430.71 189.33 423.9 186.92 417.29 184.1 410.7 181.22 404.04 178.5 397.16 176.37 390.36 174.03 383.31 172.53 376.48 170.17 369.35 169.06 362.24 168.03 355.26 166.04 348.02 165.92 340.86 165.41 333.7 164.49 326.5 164.97"/><polyline class="cls-1" points="582.45 440.5 581.91 447.74 581.53 454.97 582.25 462.2 582.21 469.44 581.85 476.68 582.1 483.91 582.38 491.15 581.62 498.39 581.92 505.63 581.96 512.86 581.97 520.1 581.98 527.34 581.65 534.58 581.62 541.81 582.3 549.05 582.26 556.29 582.02 563.53 582.36 570.77 581.52 578.01 582.02 585.25 582.24 592.5"/><polygon class="cls-2" points="600.76 502.29 601.53 496.1 602.63 489.78 604 483.49 596.88 486.45 589.74 489.34 582.61 492.25 575.36 494.87 568.27 497.91 561.29 500.76 560.55 506.52 559.51 512.48 559 518.5 566.06 515.99 573.13 513.52 579.83 510.08 587.05 508.01 594.16 505.57 600.76 502.29"/><polygon class="cls-1" points="600.76 502.29 601.53 496.1 602.63 489.78 604 483.49 596.88 486.45 589.74 489.34 582.61 492.25 575.36 494.87 568.27 497.91 561.29 500.76 560.55 506.52 559.51 512.48 559 518.5 566.06 515.99 573.13 513.52 579.83 510.08 587.05 508.01 594.16 505.57 600.76 502.29"/><polygon class="cls-2" points="599.03 520.53 599.7 514.12 601.05 507.84 602.13 501.28 594.88 504.44 587.67 507.17 580.68 510.43 573.52 513.29 566.26 515.9 559.26 518.73 558.25 524.49 557.19 530.45 557.2 536.13 563.85 533.45 571.13 531.51 577.84 528.1 584.87 525.53 592.09 523.43 599.03 520.53"/><polygon class="cls-1" points="599.03 520.53 599.7 514.12 601.05 507.84 602.13 501.28 594.88 504.44 587.67 507.17 580.68 510.43 573.52 513.29 566.26 515.9 559.26 518.73 558.25 524.49 557.19 530.45 557.2 536.13 563.85 533.45 571.13 531.51 577.84 528.1 584.87 525.53 592.09 523.43 599.03 520.53"/><polygon class="cls-2" points="615.7 531.5 616.62 525.4 618.52 519.21 619.26 512.44 612.28 515.68 605.13 517.51 598.21 519.93 591.53 523.03 584.71 525.76 577.68 527.89 570.93 530.82 564 533.24 556.67 535.21 556.1 541.47 555.4 547.47 554.94 553.61 561.68 550.83 568.55 548.66 575.27 546.09 582.06 543.71 588.98 541.7 595.64 538.94 602.38 536.39 609.23 534.18 615.7 531.5"/><polygon class="cls-1" points="615.7 531.5 616.62 525.4 618.52 519.21 619.26 512.44 612.28 515.68 605.13 517.51 598.21 519.93 591.53 523.03 584.71 525.76 577.68 527.89 570.93 530.82 564 533.24 556.67 535.21 556.1 541.47 555.4 547.47 554.94 553.61 561.68 550.83 568.55 548.66 575.27 546.09 582.06 543.71 588.98 541.7 595.64 538.94 602.38 536.39 609.23 534.18 615.7 531.5"/><polygon class="cls-2" points="603.66 483.21 604.61 477.11 606.17 470.86 607.05 464.41 600.2 467.64 593.28 470.52 586.37 473.4 579.27 475.82 572.22 478.37 565.57 481.88 558.65 484.76 551.65 487.45 544.78 490.19 544.36 496.08 543.68 502.08 542.61 508.04 549.29 504.97 556.33 502.82 563.05 499.85 570.05 497.57 576.61 494.17 583.7 492.13 590.39 489.08 597.16 486.21 603.66 483.21"/><polygon class="cls-1" points="603.66 483.21 604.61 477.11 606.17 470.86 607.05 464.41 600.2 467.64 593.28 470.52 586.37 473.4 579.27 475.82 572.22 478.37 565.57 481.88 558.65 484.76 551.65 487.45 544.78 490.19 544.36 496.08 543.68 502.08 542.61 508.04 549.29 504.97 556.33 502.82 563.05 499.85 570.05 497.57 576.61 494.17 583.7 492.13 590.39 489.08 597.16 486.21 603.66 483.21"/><polygon class="cls-2" points="583.03 573.97 584.72 581.31 587.05 588.4 589.7 595.39 591.65 602.6 593.73 609.78 596.58 616.84 591.96 623.06 587.74 629.43 582.83 635.18 579.94 635.87 575.48 629.53 571.81 622.78 567.41 616.74 569.67 609.8 571.18 602.45 574.14 595.56 576.18 588.38 578.4 581.24 580.65 574.18 583.03 573.97"/><polygon class="cls-1" points="583.03 573.97 584.72 581.31 587.05 588.4 589.7 595.39 591.65 602.6 593.73 609.78 596.58 616.84 591.96 623.06 587.74 629.43 582.83 635.18 579.94 635.87 575.48 629.53 571.81 622.78 567.41 616.74 569.67 609.8 571.18 602.45 574.14 595.56 576.18 588.38 578.4 581.24 580.65 574.18 583.03 573.97"/></svg>