<svg xmlns="http://www.w3.org/2000/svg" viewBox="0 0 801.23 801.23"><defs><style>.a{fill:#fff;}</style></defs><title>bookem </title><path class="a" d="M801,801l-7.63-.28H786.2l-7.21-.58-7.21,0-7.21,1-7.21-.63-7.21,0-7.21-.25-7.21.61-7.21.08-7.21-.78-7.21.71-7.21.32-7.21-1.06-7.21,0-7.21.23-7.21.28-7.21-.36-7.21.1-7.21-.22-7.21.37-7.21,0-7.21-.07-7.21.14-7.21,0-7.21.21-7.21-.63-7.21.58-7.21-.29-7.21.61-7.21-.61-7.21-.23-7.21.22-7.21.6-7.21-.91-7.21.3-7.21-.34-7.21.6-7.21-.66-7.21.94-7.21-1-7.21.54-7.21.48-7.21-.34-7.21.43-7.21-.95-7.21,0-7.21.26-7.21.73-7.21,0L433,800l-7.21.8-7.21.29-7.21-.72-7.21.33-7.21.34-7.21-.58-7.21.21-7.21.52-7.21-.46-7.21.44-7.21-.24-7.21-.11-7.21-.68h-7.21l-7.21.67-7.21.22-7.21-.57-7.21.39-7.21-.69-7.21.7-7.21-.39-7.21.69L267.28,800l-7.21.51-7.21.35-7.21-.89-7.21.44-7.21.19L224,800.5l-7.21,0-7.21-.49-7.21.48-7.21.05L188,801l-7.21-.42-7.21-.41-7.21,0-7.21.8-7.21-.31-7.21.13-7.21.17-7.21.31-7.21-.85-7.21.45-7.21-.66-7.21.82-7.21-.86-7.21.3-7.21.38H72.68l-7.21.27-7.21-.67-7.21.68-7.21-.72-7.21.27-7.21-.41-7.21.6L15,800.12,7.82,800l-7.19.6L0,793.41v-7.21L.14,779l.71-7.21-.12-7.21.12-7.21.29-7.21L.09,743l.23-7.21L0,728.55l.79-7.21-.27-7.21.1-7.21.3-7.21-.78-7.21.94-7.21L0,678.1l.57-7.21-.44-7.21L1,656.48l-.35-7.21,0-7.21v-7.21l-.37-7.21.46-7.21.33-7.21L.44,606l-.33-7.21.1-7.21L.09,584.4l.37-7.21L.76,570l.4-7.21L.09,555.58l.44-7.21.59-7.21L.77,534l-.22-7.21-.13-7.21L0,512.33l.22-7.21,1-7.21-1-7.21.9-7.21L.77,476.3.7,469.09l.38-7.21L0,454.67l.15-7.21.05-7.21.58-7.21-.29-7.21L1,418.64l-.7-7.21.83-7.21,0-7.21-.82-7.21.93-7.21L.07,375.4l1.06-7.21L.39,361l.84-7.21L.1,346.57l.37-7.21.62-7.21L0,324.94l.16-7.21.17-7.21.76-7.21-.29-7.21-.56-7.21.57-7.21-.46-7.21-.25-7.21L1,260.08l-.88-7.21.18-7.21-.26-7.21.13-7.21L1.08,224l-.41-7.21L.6,209.63l-.2-7.21L1,195.22,1.22,188,.44,180.8l-.26-7.21.57-7.21.42-7.21L.41,152l.25-7.21-.23-7.21.17-7.21-.16-7.21-.05-7.21.12-7.21L0,101.52l1.17-7.21-.07-7.21L.52,79.9l.42-7.21,0-7.21L1,58.28,0,51.07l1-7.21L0,36.66.9,29.45l.29-7.21L.25,15,.09,7.83.28.29,7.82.65,15,.28l7.21.15L29.44.6l7.21.33,7.21.25L51.06,1l7.21.09L65.48.44,72.68.31l7.21.88L87.1,0l7.21,1.16,7.21-.59L108.72.1,115.93,0l7.21.26,7.21-.05,7.21.65,7.21,0L152,.39l7.21.41,7.21-.5,7.21-.08,7.21,1L188,.64,195.21.1l7.21.2,7.21.46,7.21-.44L224,.79l7.21,0,7.21.42L245.66,1l7.21-.43,7.21.4,7.21-.29,7.21.23,7.21.26L288.9.88,296.11,0l7.21.25,7.21.36,7.21-.57,7.21.73,7.21-.66,7.21.25,7.21-.25,7.21.37L361,.9l7.21.08,7.21,0,7.21-.37L389.8.11,397,0l7.21.34,7.21.14,7.21.46,7.21-.54L433,.2l7.21.85,7.21-.59,7.21.77,7.21-.55,7.21-.29h7.21l7.21-.29h7.21l7.21.94,7.21-.65,7.21.85,7.21-.1,7.21-.48,7.21.09,7.21-.13,7.21.22,7.21.41L562.77.6l7.21,0,7.21-.22,7.21.19L591.6.7l7.21-.21L606,.94l7.21.06,7.21-.1,7.21-.73,7.21,1,7.21-.91,7.21.49h7.21l7.21,0,7.21.33,7.21-.36,7.21.06L692.5.51l7.21,0,7.21.25,7.21-.26,7.21.48,7.21.09,7.21.09L743,.92l7.21,0,7.21-.06,7.21-.08,7.21.49L779,.09l7.21,1L793.4.73,801,.23l.19,7.6L800.31,15l.58,7.21-.28,7.21-.25,7.21-.12,7.21.66,7.21-.69,7.21.11,7.21.66,7.21-.46,7.21.24,7.21-.71,7.21.83,7.21-.81,7.21.95,7.21-.66,7.21.45,7.21.32,7.21-.23,7.21-.41,7.21.33,7.21-.72,7.21,1.1,7.21L801,180.8l-.13,7.21.17,7.21-1,7.21,0,7.21.24,7.21.14,7.21-.37,7.21.17,7.21v7.21l1,7.21-1,7.21-.16,7.21.73,7.21-.28,7.21,0,7.21.53,7.21-.05,7.21-.82,7.21-.05,7.21,1,7.21-.31,7.21-.53,7.21.13,7.21-.15,7.21-.23,7.21.4,7.21.58,7.21-.39,7.21.16,7.21-.26,7.21-.53,7.21,1,7.21.05,7.21-.65,7.21-.19,7.21.8,7.21-.3,7.21-.53,7.21,1,7.21-.84,7.21-.28,7.21.55,7.21-.13,7.21.7,7.21-.86,7.21.36,7.21.47,7.21-.51,7.21L800.1,534l.92,7.21.15,7.21v7.21l-.57,7.21.34,7.21.22,7.21-.76,7.21.75,7.21-.81,7.21.54,7.21-.54,7.21.33,7.21.21,7.21-.68,7.21.49,7.21-.67,7.21,1,7.21-1,7.21,1.1,7.21L801,678.1l-.41,7.21-.18,7.21-.3,7.21.43,7.21.63,7.21,0,7.21-.06,7.21-.91,7.21L800,743l.93,7.21-.82,7.21,1,7.21-1,7.21.46,7.21.19,7.21-.71,7.21Zm-413-232.4-.47,4-.13,7-.38,7,.53,7,1.92,6.79.63,7,1.55,6.81,1.68,6.79,2.81,6.42,2.6,6.46,2.1,6.71,3.93,6.35,3.83,6.35,2.9,6.92,4,6.26,4.43,6,4.63,5.82,4.27,6.09,4.76,5.71,4.62,5.83,5.34,5.36,5.38,5.29,5.57,5.09,5.95,4.64,6.09,4.45,6.38,4,6.1,4.48,6.86,3.2,6.56,3.74,6.81,2.58,6.42,3.44,6.7,2.85,7,2.15,7.12,1.49,6.82,2.66,7.18,1.19,7.12,1.52,7.29.27,7.17,1.19,7.26-.75,7.25.8,7.19-1,7.12-1.3,7.18-.82,7-1.89,7.24-.86,6.61-1.93,6.44-2.44,6.16-3.11,6.31-2.66,6.7-1.92,5.7-3.93,5.76-3.73,6.15-3.14,5.4-4.27,5.17-4.52,6.1-4.44,5.44-5.2,5-5.59,5.55-5.08,4.68-5.89,5-5.64,4.6-5.93,4.8-5.83,3.95-6.43,3-6.92,3.1-6.84,3.39-6.33,2.27-6.8,3-6.53,1.42-7.06,2.15-6.84.77-7.14,2.24-6.9.21-7.19,0-7.48,1-7.47-.7-7.47-.78-7.44-.77-7.44L737,554.67l-1.13-7.42-2.41-7.11L731.14,533l-3-6.87-2.51-7-2.6-6.51-3.17-6.24-4.13-5.69-3.42-6.09-4-5.7L704,483.4l-4.65-5.19-4-5.76-5.22-4.66-4.68-5.23-5.87-3.88-5-4.94L668.63,450l-6.35-3.81L656.16,442l-6.27-3.94-5.74-4.72-6.5-3.6L631.93,425l-6-3.8-5.56-4.41-6.18-3.52-5.62-4.38-6.16-3.58L596.28,403l-6.23-2.08-6.1-2.3-6.21-2-6.26-2-6.9-.66-6.92-.35h-7l-6.77,1.77-6.85.86-6.7,1.7-6.9.86-6.61,2.07-7.19,2.07L502.49,405l-6.7,3.41-7.25,2.08-6.33,4.12-6.91,2.91-6.31,4-6.83,3.17-6.08,4.38L450,433.47,444,438l-5.51,4.94-5.83,4.56-5.54,4.94-4.58,5.85L418,464.11,413.57,470l-3.94,6.23-4,6.21-3.57,6.49-3.27,6.67-1.47,7.33-2.49,7-2.3,7.09-1.1,7.36-.95,7.36-.8,7.37-.32,7.42-.78,7.37-1.41,7.35Zm-214.5-257.7,4.61-9.42-1-6.53-4-6-4.36-5.72-5.12-5.17-3.7-6.22-4.08-5.93-3.8-6.12-4.42-5.72L143.8,248l-3-6.58-4.21-5.88-3.77-6.15-2.45-6.86-3.25-6.42-3.37-6.36-3.3-6.41-2.61-6.72L115,190.38,112.54,184l-3-6.21-2.64-6.35-2.53-6.4-2.72-6.31-2.63-6.38,5.76-2.84,6.09-2.07,5-4,7-5,7.48-4.4,6.89-2.11,6.74-2.49,6.56-2.94,6.4-3.3,7-1.92,6.14-2.9,6.37-2.34,6-3.22,6.5-2,5.89-3.49,7.33-2,6.77-3.37,6.8-3.3L222.89,96l6.82-3.24,7.34-2L244,88l6.28-2.84,6.1-3.27,6.39-2.58,6.81-1.53,6.08-3.34,6.63-2.88,3.44,6.65,4.05,5.88,4.07,5.87,3.29,6.36,4,5.95,4.21,5.78,3.38,6.3,4.15,5.82,3.57,6.18,3.68,6.11,3.2,6.41,3.78,6,4.34,5.7,4,5.93,3.29,6.35,4.11,5.84,3.19,6.42,4.37,5.68,3.44,6.25,4.35,5.69,2.79,6.66,4.2,5.78,4.07,5.86,3,6.52,4.15,5.81,3.94,5.95,3.65,6.14,3.78,6-6.93,2.31L374.21,247l-6.78,2.87-6.64,3.2-7,2.44L346.9,258l-6.81,2.78-6.49,3.56-6.91,2.54-6.74,2.94-6.73,3-6.67,3.11-7.12,2-6.62,3.24-7,2.22L279.3,287l-7.12,2-6.67,3.1-6.64,3.17-6.79,2.81-6.68,3.07-7,2.2-6.3,3.23,2,6,2.94,6,2.31,6.23,3.23,5.82,2.07,6.33,2.93,6.43,6.62-3.11,6.17-3.12,6.4-2.54,6.44-2.44,6.94-1.95,6.63-2.72,6.72-2.48,6.79-2.32,6.3-3.58,6.76-2.38,6.56-2.9,7-1.87,6.39-2.8,6.52-2.47,6.59-2.29,6.2-3.29,6.83-1.69,6.12-3.51,6.71-2,5.56-2.71,2.7-4.76,6.63,7.7-6.52,2.56L374,299.22l-6.43,2.92-6.73,2.15-6.68,2.27-6.33,3.15-6.44,2.88-6.6,2.48-6.51,2.69L321.62,320l-6.67,2.29-6.7,2.2-6.16,3.57-6.72,2.17-6.77,2-6.43,2.89-6.47,2.78-6.51,2.7-6.4,3-6.63,2.36-7.23,1.94,2.37,6.79.93,7.16,8.81-4,6.71-2.67,6.87-2.23,6.36-3.57,6.79-2.44,6.75-2.55,6.93-2.09,6.57-2.9,6.85-2.18,6.41-3.29,7-1.88,6.65-2.69,6.36-3.41,7-1.79,6.25-3.7,7.06-1.66,6.4-3.33,7.74-2.1,7-3.89,7.57-2.52,7.63-2.4,5.21-5.65-2-7-3.72-5.46-3.29-5.78L390,275.47l-4.4-5-3.5-5.63-4.35-5.24,6.68-3.15,7-1.94,6.33-3.57,5.57-4.52-2-6.88-3.66-6.07-3-6.47-4.13-5.78-3.84-6-3.94-5.89-3.27-6.31L375.93,197l-4.42-5.59-4-5.87-3.25-6.32-3.39-6.27-4.39-5.65L353,161.1,349,155.16,345.46,149l-3.87-6-3.78-6-3.62-6.13-4.11-5.82-2.74-6.67-3.79-6-4.27-5.73-3.38-6.28-3.77-6-3.67-6.1-5-6-3.36-7-5-6-3.38-7-5.08-5.33L279.74,59l-6.23,2.86-6.33,2.62-6.52,2.17-6.19,2.95-6.62,2.55-6.63,2.53-6.69,2.37-6.67,2.44-6.52,2.8-6.6,2.6-6.31,3.32-6.51,2.82L195,93l-6.16,3.82-7,1.65-6.38,3.27L169,104.88l-6.58,2.78-6.7,2.5-6.58,2.79-6.85,2.15-6.57,2.8-6.41,3.19-6.75,2.39-6.46,3.64-5.8,4.41-7,4.2-7.66,2.11L87.44,140l-5,6.85-3.14,6.89-1.72,7.37-1.85,7.34L75.28,176l.2,7.63,2,7.36,2.78,7.08,2.18,7.29,3.06,7,2.85,7,2.7,6.31,3.21,6.06,3.78,5.77,2.83,6.24,2.76,6.28,3.59,5.86,2.42,6.45,3.63,5.84,2.94,6.27,3.59,5.93,3.22,6.14,3.35,6.08,3.71,5.86,3.89,5.74,4.21,5.52,4.3,5.46,4,5.68,3.6,5.94,5.27,7.13,5.41,7.18.77-1.76,2.69-7.4-.18-8-4.56-6.68-3.62-6.39-4.56-5.73-4.24-6-3.9-6.18L139.09,287l-3.8-6.24-3-6.74-4.35-5.9-3.12-6.66-3.92-6.34-4.06-6.29-3.37-6.67-3.41-6.66-2.94-6.88-2.64-7L101,215l-2.86-6.91-3-6.86-2.57-7-2.18-7L88.78,180l.33-7.32,1.36-6.76,2.34,6.6,3.35,6.58L98,186.3l3.69,6.42,2.49,6.93,3,6.69,3.17,6.63,2.92,6.75,3.65,6.39,3.36,6.53L124,239l3.57,6.41,3.5,6.46,4,6.14,3.52,6.47,3.95,6.2,4,6.14,4.45,5.86,4.35,5.92,4.47,5.83,4.58,5.75,4.24,6Zm73,58.76-1.46-7.87-2-7.83-1.9-7.9-2.9-7.57-4.11-7-2.78-7.62L228,316.53l-2.72-6.16-3.54-5.75-3.11-6-2.38-6.34-3.74-5.63-3.41-5.8-5.4-4.7-6.35,4.24L193.28,289l-3.19,6.21-3.64,6-3.12,6.24-3.3,6.16L177.39,320l-2.82,6.38-2.8,6.39-2.48,6.52-2.46,6.52-2.15,6.63-2.7,7.14-.62,7.61-.44,7.58,1.57,7.42,1.48,7.44,2.87,7.07,4.11,6.43,5,5.22,5,5.39,6.51,3.37,6.82,2.71,7.31.46,7.33.35,6.88-2.57,7-2.07,5.43-4.18L233,407l4.44-5.09,2.9-6.11,3.34-6,1.81-6.59,1-6.76ZM644.8,191l4.87,7.07,4.7,6.55,4.22,6.89,4.68,6.56,4.94,2.76,5.25-.42,2.83-4.62-1.49-5.34-4.26-4.93-3.88-5.2-3.11-5.75-4.05-4.77-3.66-5.05-2.54-5.25,6.77,1.12,7.23.7,7.23.66,7.15,1.29,7.21.85,5.63-.55,2.65-4.92-1.25-5.27L691,171l-7.06-.77-7-.85-7.07-.65-7-1.51-7.08-.41-6.88-1.24,4.57-4.76,6-4.54,5.74-4.81,5.43-5.15,5.16-5.45,6.15-4.36,5.3-5.3,3-5.09-3-4.92-5.1-2.1-4.31,3.48-5.62,3.9-4.64,5-4.7,4.91-5.26,4.29-4.75,4.86-4.2,2.2.86-7.27.43-7.62,0-7.66.72-7.59,1.84-7.48-.1-7.66-.91-5.89-4.26-3.91-5.46,2.43-1.64,5.77-1.17,6.81-.36,6.88,0,6.9-1,6.82-.17,6.9-1.13,7.51L635,150.18l-1.18,0-3.71-5.68-4.31-5.37-3.93-5.62-3.27-6.05-4.07-5.53-3.7-4.39-5.48,1.12L602,123l2.08,5.14,2.57,6.2,4,5.25,3.95,5.31,2.91,6,4.46,5.87,4.27,6-6-.78-7.8-.91-7.74-1.42-7.86-.45-7.81-.88-7.44,5.15.61,5.23,4.74,2.92,3,.52,6.89,0,6.76,1.13,6.81.69,7,.83L612.6,180,607,184.1l-4.74,5-5.5,4.19-4.52,5.26L588,203.16l1.62,6,5.51,1.63,5.16-2.62,4.87-4.73,5.49-4.05,4.57-5.06,5.51-4,4.86-4.75,7-5.52-.28,8.37L630.94,195l-.78,6.63-.05,6.71,0,6.7-.46,6.65,3.55,6.14,7-.85,2-7,.88-7.07,1-7.06-.38-7.19ZM159.55,669.76l4.88-5.4,4.43-5.09,4.88-4.7,4.45-5.06,3.66-5.76,4.9-4.67L191.2,634l2.87-5-2.56-4.93-5-1.56-5.21,2.26L177.64,630l-3.84,5-4.93,4.1-4.23,4.71-4.07,4.86-4,4.88-4,4.42-.76-8.08-.37-8.32-.57-6.87-.19-6.88-.07-6.89-.29-6.88-.2-6.88-6.47-6.43-6.78,6.42.75,6.73-.09,6.74.64,7.18-.6,7.19-.24,7.18.27,7.09-4.55-4.4-3.54-5.43-4.48-4.61-4.08-5-5.1-2.1-5.31,1.49-1.15,5.27,1.59,5.23,6.23,5.82,5.32,5.59,4.67,6.14,5.25,5.65,4.15,6.13-6.59.1-7.12.28-7.12.74-7.12,0L101.46,669l-7,6.51,1.8,4.67,4.65,2.56,8-.18,8-.37,6.71.58,6.81-.15-4.65,6.28-5.38,5.55-4.7,6.14-5.2,5.69-5.1,5.78-3.1,4.84,2,5.52,5.74,1,4.67-3.2,4.13-4,3.37-4.67,4.87-4.49,3.84-5.39,4.67-4.66,4.62-5.49-.5,8,.9,7.42.73,7.79-.5,7.85.94,7.78,6.9,6.37,6.25-6.79-.29-6,.16-6-.8-7.09-.36-7.11-.72-7.09.11-7.12.87-.16,5,5.84,5.69,5.33,4.86,6.06,5.18,5.78,5.21,5.76,5.45,4.32,6.53-.12,1.34-6.41L190,709.73l-5.2-4.84L180.89,699l-4.81-5.17-4.88-5.12-4.62-5.5,5.22-.94,7.73.73,7.74-.6,7.73.83,7.74-.13,5.74-.83,2.39-5.11-1.39-5.54-5.6-2.09-9,.18-9,.45-6.44-.05L173,670l-6.45-.7Zm-10.15-499,4.51-.85,7-2.83,7.22-2.27,7-2.79,6.61-3.78L189,156l7-2.83,7.06-2.66,6.66-3.44,6.85-3,7.19-2.18,6.61-3.56,6.76-3.2,7.29-1.94,6.89-2.89,6.79-3.13,6.77-3.17,7-2.58,6.84-3,5.05-3.41.12-6-4.33-3.84-5.89.73-6.52,2.72-6.56,2.62-6.48,2.83-6.79,2.08-6.3,3.25-6.5,2.43-6.14,3.27-6.62,2.15-6.47,2.51L209,132.72,202.82,136l-6.73,1.89-6.26,3-6.51,2.41-6.14,3.27-6.64,2.11-7.3,4-8,2.24-7.46,3.68L145,165.86Zm36.9,10.85,4.83-1.22,6.64-2.84,6.88-2.28,6.6-2.69,6.2-3.66,6.83-2.13,6.6-2.68,6.68-2.48,6.36-3.28,6.56-2.79,6.89-2,6.32-3.37,6.46-3,7-1.74,6.59-2.7,6.49-2.94,3.74-7.87-7.63-5-5.51,1.64-5.47,1.81L269,133.43l-6.45,2.77-6.49,2.68-6.4,2.88-6.45,2.77-6.38,2.95-6.71,2.17-6.23,3.28-6.58,2.48-6.23,3.3-6.56,2.08-6.42,2.39L191.85,166l-6.11,3.14-5.11,7.4ZM344.7,230l-1.38-5.73-5.6-2-9.66,2.48-6.76,2.83L315,231.39l-7,2.33-6.75,2.84-7.72,2.81-7.35,3.7-3.44,8.2,8.49,4,2.5-1.82,6.52-3,7-1.71L314,246l6.55-2.92,6.53-3,6.76-2.41,6.57-2.87Z"/><path d="M388.06,568.64l-.07-7.42.33-7.41.47-7.41.86-7.37.62-7.4,1.56-7.26,1.23-7.32,2-7.15,1.2-7.37,3.52-6.6,2.81-6.81,3.18-6.65,3-6.8L413,469.6l5-5.48L422.2,458l5.49-5,4.85-5.62,5.36-5.13,6.39-3.87,5.43-5.23,6.36-4,6.21-4.18,6.54-3.66,6.57-3.57,6.45-3.83,6.7-3.38,6.92-2.9,7.06-2.53,7.19-2.13,7.25-1.87,6.66-1.85,6.78-1.35,6.73-1.52,6.72-1.73,6.94-.07,6.88-1.28,6.89,1.12,6.81,1,6.63.29,6.09,2.54,6.14,2.26,6.3,2,5.64,3.42,6.19,3.45,5.86,4,5.82,4,5.66,4.27,6.39,3.2,5.65,4.85,6.41,3.73L650,438l6.13,4.14,6,4.27,6.18,4.07,5.8,3.88,5.75,4,5,4.87,5.51,4.33,5,4.86,4.14,5.67,4.63,5.22,4.57,5.32,3.76,5.91,3.44,6.09,3.49,6,2.77,6.42L726,519l2.22,7.18,2.26,7.11,3,6.88,1.34,7.37,2.49,7.11,1,7.42.83,7.44.93,7.44-.17,7.5-.51,7.46-.19,7.46-.17,7.18-1.14,7.09-1.27,7.07-2.29,6.82-2,6.86-2.47,6.72-2.16,6.85-2.95,6.54-3.06,6.91-3.79,6.53-4,6.42-4.64,6-4.47,6.05L700,692.09l-5.08,5.55-5.35,5.28-5.36,5.26-5.44,5.2L673,718.21l-5.39,4.25-5.56,4-5.81,3.66-5.7,3.88-6.32,2.75L638.15,740l-6.27,2.83-6.51,2.24-6.45,2.41-6.68,1.67-7.11,1.32-7,2-7.16,1-7.23.34-7.18.83-7.22-.18-7.22.17-7.22-.41-7.16-1.22-7.23-.75-7-1.88-7-1.94-7.2-1.24-6.72-2.81-6.63-3-6.82-2.5-6.46-3.31L486.19,732l-6.6-3.6-6.44-3.89L466.39,721l-5.53-5.21-6-4.59-5.69-4.94L443.83,701l-5-5.64-5.3-5.25-4.74-5.73-3.66-6.56-5.32-5.31L416.27,666l-3.86-6.33-4.69-5.85-3.43-6.61-3.35-6.65L398.29,634l-2.44-6.55L393.34,621l-1.92-6.73-1.24-6.89-.71-7-1-6.89-.62-6.94-.36-7,.57-7ZM474.3,688.71l-4.56-5.52-4.22-5.43-4.22-5.44-4-5.57-4.37-5.31-3.78-5.75-4.24-5.41-3.8-5.73-4.57-5.29-2.36-6.6-2.91-6.24L428.72,620,426,613.6l-1.46-6.78-.66-6.92L422,593.36l-6.2-.59-6.36.69-7.88.78.33,6.74,2.43,6.77,1.49,7,2.31,6.75,2.3,6.76,2.77,6.58,3.55,6.2,3.59,6.15,3.61,6.13,3.73,6.07,3.82,6,4,5.91,4.46,5.58,4.35,5.67,4.8,5.3,5.27,4.85,4.64,5.79,4.75-3.87,5.38-2.24Zm-41-223.65L428.5,471l-4.26,5.81-3.88,6.06-3.66,6.2-2.85,6.61-3.09,6.51L408.61,509l-2.23,6.85-.71,7.21L403.3,530l-.94,7.15-.66,7.18.19,7.23-.63,7.16-1,7.16.61,7.21-.6,7.46,7.31-.53,7-.29,7.39.85-.37-8.53.43-7-.14-7,.24-7,.17-7-.18-7,.36-7,.79-6.74,1.15-6.7,1.76-6.56,2.45-6.3,3-6,4.35-7,3.74-7.3,3.25-7.43-4.4-5.56Zm24.88,113.83-.42-7.41-.44-7-.49-7-.24-7-.55-7,.39-7,.11-7,1-6.9.37-7,2.92-6.44,2.42-6.5,3.07-6.45L459.59,491l-5.87-5.85-4,5.07-2.77,6-3.7,5.51-2.1,6.3-1.72,6.33-2.16,6.31.13,6.77-1.22,6.6-.64,6.67-.75,6.67-.29,6.5.4,6.51.25,6.5,0,6.51-.25,6.29,7.5-.21,7.69-.16Zm-22.68,13.73,1.07,7.69,1.85,7.1,2.41,6.92,2.62,6.85,3.34,6.53,3,6.71,3.76,6.3,3.57,6.41,4.8,5.6,3.4,6.58L470,665l5,5.4,5.81,4.5,5.53,4.49,5.7-4.31,4.72-5.35-2.82-4.68L490,661l-4.73-5.61-3.5-6.51-4.86-5.55-3.5-6.45-3.6-6.38-2.89-6.73-2.6-6.83-2.64-6.84-1.9-7.1-1.1-7.27-3.5-3.59-6.41.05-6.41.08Zm17.12-125,5.79-4.9,5.7-4.38,5.83-4.2,6.08-3.83,6-4,6.46-3.17,6.29-3.47,6.63-2.78,6.28-3.62,7.12-1.48,6.79-2.29,6.88-2,6.83-2.37,7.12-1.09,7.22-.26,6.91-1.39.57-7.46-.57-7.45-6.76,1-7.09-.14-6.78,2.06-6.95,1-6.79,1.8-6.81,1.72L508.71,417l-6.41,2.91-6.38,2.92-6.37,2.92-6.33,3-6.3,3.11-6.2,3.33L464.82,439l-6,3.71L453.2,447,448,451.72l-6.07,4.22,6,5.17ZM578.43,742.42l7.69-1.09,7.27-1.2,7.21-1.49,7.19-1.59,7-2.34,7.1-2,6.77-2.89,6.83-2.77,6.13-4.16,6.92-2.72,6.16-4.06,5.94-4.38,5.3-5.15,5.7-4.63,6-4.88-5.9-6.54-4.93-7.22-5.15,5.27-5.26,4.72-6.22,3.46-5.26,4.78L638.73,705l-6.09,3.55-6.42,2.91-6.49,2.73-6.44,2.89-6.67,2.32-6.86,1.71-7,1.22-7,.71-7.24.45-.08,6.33-.28,6.08ZM559,492.8l-7.48,2.52-7,2.79-6.69,3.36-6.46,3.79L525.62,510l-5.74,4.83-4.77,5.79,4.91,4.86,5.71,4,4.35,5.46,5.14,4.59,5.17,4.56,5.22,4,4.89-5.48,6.24-4.41,6.22-4.44,7.71-1.75-2.49-6.56L566,519.09l-1-6.7-2.82-6.13-1.57-6.52ZM686.48,688.42l4.78-5.78,4.28-5.56,4.05-5.72,4-5.76,3.35-6.16,3.69-6,2.87-6.4,3-6.33,1.6-6.87,3.19-6.33,1.77-6.8,1.43-6.88.48-7,1.17-6.9,1.29-7.29-7.14.08-7-1-1.61,7.74-1.74,7.5-3,7.15-1.28,7.64-2.8,7.18-2.74,7.19-3.51,6.75-3.73,6.61-3.51,6.76-3.85,6.56-4.08,6.41-4.06,6.25,4.4,6.24ZM565.71,723.83l-3-.34-7.36-.49-7.34-.73-7.28-1.22L533.43,720l-7.08-2.13-7.12-1.93-6.82-2.8-7.13-2.15-6-4.4-6.3-3.79-6-4.2-3.35.31-6.59,3.9-7,3.93,6.17,4.75,5.7,4.68,6.67,3.15,6.65,3.09,6.25,4,7.14,2,6.73,2.95,7,2.26,7,2.38,7.08,2,7.27,1.16,7.25,1.05,7.26.88,7.12.46.76-5.59,0-5.88ZM570.05,406l-.2,7,.84,8.71,8.23,2.91,2.81,1,7,2.27,6.48,3.42,6.53,3.29,6.09,4.06,6.58,3.34,5.27,5.2,5.85,4.39,6,4.52,6.36,4,5.75,4.8,5.43,5.21,6.37,4,5.51,5.11,6.12,4.07,4.51-5.76,5.78-5.33L671,468.65l-5.31-4.36-5.6-4-5.41-4.23-5.54-4-5.9-3.53-5.83-3.72-5.69-3.92-5.63-4-5.57-4.1-5.61-4.05L609.07,425l-5.71-3.92-6-3.48-6.77-2.81-6.46-3.44-7.16-1.7Zm8.36,305.06,7.81-1.13,7.36-1.37,7.27-1.79,7.21-2L615,701.9l7-2.65,6.56-3.61,6.58-3.58,5.69-4.93,6.63-3.62,5.71-4.87,5.54-5.36-6-5.73-5-6.12L641,665l-5.85,4.94-6.68,3.7-6.17,4.5-6.68,3.74-7.5,1.9-7,3.2-7.5,1.65-7.39,2-7.49,1.81-.11,6.1.46,6ZM726.76,580.19l-.53-7.61-.84-7.13-1.22-7.07-1.36-7-2.13-6.86-1.77-7-2.65-6.68-2.49-6.74L709.92,518l-2.35-6.86-3.7-6.18-4-6L695,493.6l-4.32-5.71-4.64-6-4.72,4.93-4.2,5,2.55,5.91,4.05,5,1.63,3.79,5,5.29L694,518.1l3.65,6.28,2.91,6.65,2.62,6.75,2.68,6.76,2,7,1.34,6.76,1.07,6.8.86,6.83,1,7,7.19.6Zm-236.57-.12-.26-9.94-.19-7.77.37-7.76,1.17-7.68,1.33-7.67,2.62-7.33,1.59-7.6-4.76-6.1-7.26-5.35-3.63-4.47-4.75-3.62-2.71,6.7-.92,6.85L471.37,525l-1.64,6.73.14,6.92-1,6.83.47,6.9.38,6.86-.61,6.93,1.74,6.71L472,579.6l8.87-.11Zm65.73-144-7.48.31-7.24,1.06-7.12,1.66L527,441l-6.83,2.62-7,2.22-6.66,3-6.76,2.81-6.12,4.11-6.94,2.57-6.23,3.87-6,4.21-5.27,5.11-5.29,4.71,5.13,5.61,6.07,4.57,5.54-4.34,5.21-5,5.75-4.39,6.67-2.9,5.92-4.2,6.71-2.68,6.65-2.78,6.89-2.13,6.91-2,6.85-2.28,7-1.83,7.35-1.72,3.94-5.19-.17-7.58Zm.52,27.25L549,464.82l-7,1.6-6.89,1.85-6.87,1.93-6.62,2.68-6.74,2.37-6.33,3.31-6.36,3.27-5.46,4.67-6.35,3.42-5.49,5,5.06,4.56,5.36,3.76,4.69,4.5,4.75,5,4.43-5.9,5.45-4.42,5-5,5.55-4.32,6.51-2.76,5.83-4,6.63-2.33,6.61-2.32,6.89-1.55L557,472ZM530.25,591l2-7.37,2-6.95,2-6.95,2.13-6.9-1-3L532,554.2l-5.72-5.28-5.39-5.61-6.23-4.75-5.16-6.33-3.23,7-1.74,7-.47,7.24-1,7.14L502,567.81l.8,7.23-.11,7.46,7.13,1.59,6.84,1.8,6.47,3Zm153.19-4.29-1,7.41-1.34,6.91-1.7,6.83-2.29,6.66-2.27,6.68-3.33,6.22-3.2,6.27-4,5.77-3.47,6.21-5.53,5,6.1,6.75,6.19,6.55,4.22-6.4,4.5-5.88,4.67-5.82,3-6.81,3.9-6.34,2.36-7.06,2.23-7,3-6.84.69-7.44,1.5-7.25.58-7.27-7.18-1.44Zm-25.62-93.6-3-2.53-5.66-4.18-5.67-4.17L638,477.94l-5.8-4-5.35-4.58-5.68-4.15-5.33-4.59-6-3.74-5.67-5.68L597.36,447l-7.06-3.72-7.52-2.71L576.26,438l-7-2.56.59,7.95-.55,7.78,7,.93,6.68,1.44L589.1,457l6.67,2.23,5.83,3.88,5.84,3.83,5.42,4.41,5.35,4.47,5.6,4.19,5.39,4.43,6.07,5.77,5.72,6.1,5.62,6.21,5.56-4.51ZM565.95,691.72l-3.61-.42-7.45-.23-7.45-.24-7.43-.59-7.9-1-7.44-2.84-7.37-3-7-3.7-4,.28-5.64,4.22-4.71,5.55,6.37,4.23,6.77,2.91,6.52,3.31,6.57,3.35,7.23,1.47,7,2.38,7.32.76,7.28.76,7.19,1.74,7.07-.35.22-5.87-.11-6.22Zm-60.76-32.54,3.66-4.66,3.5-4.13.09-7.62L508,637l-4.38-5.89-3.29-6.56L497,618l-2.27-7-2.83-6.83-.28-7.41-1.3-3.92-6.22.05-6,.76-5.83-.31.07,7.34,2.61,7,2,7.22,3.62,6.56,3.66,6.48,2.87,7,4.81,5.77,4,6.3,4.66,5.82Zm193.49-82.55-1-7.81-1.26-7.33-1.68-7.24-1.93-7.18L690,540.2l-2.64-7-3.64-6.49-3.63-6.5-5-5.57-3.69-6.54-5.17-5.73-5.42,4.79L656.27,512l4.67,7,4.42,7.51,4.51,5.25,2.88,6.29,3.51,6,2.71,6.38.95,6.91,2.32,6.56.56,6.9,2.89,3.38,6.23,1.35Zm-85.47-32,3-8,3-7.63-4.81-5.59-4.94-5.42-5.57-4.76-5.45-4.91-6.16-4-6.21-3.92-7-2.34-6.9-3.58,2.17,7.23,2.33,6.72,3,6.51,2,6.81,1.6,7,4.12,2.3,6.76,2.73,7,2.07,6.54,3.3Zm23.25-34.14-5.75-5.39-5.38-5.23-5.44-5.17-5.41-5.2-5.88-4.66-5.66-4.93-6.3-4.09-6.32-4.06-7.13-2.46-6.59-3.73L569,463.62l.68,8,1.62,7.54,2.16,2.16,6.88,2.78,7.13,2.05,6.28,3.94,6.62,3.35,6.2,4.07,5.17,5.38,6.24,4.08,4.87,5.68,4.73,5.58,4.22-3.7Zm-58.83,152,.26,7.83.12,7.51,7.4-.87,7.29-1.26,7-2.29,7.06-2.2,6.61-3.33,6.58-3.4,5.64-4.85,6.53-3.61,5.7-5.19-5.8-4.41-5.69-3.49-5.58,4.8L614,651.29l-6.46,4.07-7.36,2.05-7.16,2.65-7.4,1.91Zm78-78.34-.86,8-1.57,7.45-2.19,7.3-3,7-3.14,7-4.24,6.34-4.15,6.39,4.79,4.13,5.08,3.05,4.8-4.31,3.92-5.59,3.46-5.88,2.43-6.39,2.87-6.14,2.94-6.19,1.06-6.77,2-6.53.47-6.62-7.13-.4ZM504.06,595.34l1.55,7.12,2,6.47,2.6,6.25,3,6.09,3.84,5.57,3.68,5.69,4.52,5.06,7.55-3.22,6.71-3.93L537.7,623l-2.92-7.41-3-7.37-2.94-2.67-6-2.62-5.88-3-6.43-1.59Zm88-7.68-2.8-6.82-2.52-6.54-2.51-6.54-2.28-6.62-2.67-6.48-2-6.73L571.19,545l-8.08,3.83-5.67,6.95-.76,5.84,5.18,5.15,5.17,5.16,5.6,4.75,4.37,5,4,5.37,4.91,4.26Zm-27.17,74.89-7.11.1-6.67-.32-6.63-.82L538,659.82l-6.38-2-5.87-3.51-5.2,6.56L515,667.21l6.82,3.27,6.24,4,7.09,2.06,7.27,1.2,7.36-.14,7.31.32,7.7.29-.62-7.81Zm70.89-134.22,4.31,5.67,3.62,5.73,3.23,6,2.6,6.26,2.56,6.29,1.41,6.64,1.51,6.61,7.38.9,7-.12-.15-7-1.8-7.2-2.5-7-3.71-6.42-3.37-6.54-3.45-6.58-5.11-5.4-4.59-6.12-4,4.51ZM550.29,572l-2.41.53-1.4,7-1.38,6.95-1.51,6.92,1.38,3.12,5.89,3L557,602l6,2.88,6.45,1.77,5.76,3.65,2.14-1.73L576,600.5l-5.64-5.24-5-5.82-4.65-6.13L555,578.24Zm60.2,18.07,1-9.76.12-7.51-.27-7.51L609,558.19l-5.62-4.9-5.68-4-6-3.51-1.61,1.46,3.24,5.89,1.35,6.56,2.45,6.13,2.5,6.11,3.13,5.86,2.24,6.21Zm17.89-50.58-2.14,6.68-1,6.4,1.21,6.31,3.44,7.17,4.28,6.71,3.88,7.17,3.63-7.21-1-7.07-2.89-6.55-1.72-7-3.44-6.27Zm-54,84.76.14-1.65-6.87-2.31-6.84-2.3-6.77-2.51-6.89-2.09-1,.93,4.69,5.43,4.38,5.65,2.74.12,8.25-.09Zm-35.94,22.08,7.78,2.31,7.49,1,7.55.12,7.45-1.52-7.36-3.46-7.45-3-8,.58Z"/><polygon points="174.05 311.67 168.89 306.05 165.06 299.7 159.69 294.57 155.94 288.2 151.37 282.44 147.55 276.16 143.15 270.27 138.69 264.42 134.84 258.16 130.85 251.98 127.77 245.27 123.96 238.99 120.71 232.4 116.9 226.11 113.62 219.54 110.34 212.97 107.54 206.17 104.52 199.48 101.08 192.97 98.19 186.21 95.16 179.51 93.21 172.38 90.48 165.68 89.28 172.72 89.52 179.93 90.67 187.11 92.39 194.27 95.91 200.92 98.15 208.08 100.58 215.16 104.47 221.63 107.46 228.47 110.64 235.23 113.6 242.09 116.41 249.06 120.29 255.47 124.23 261.82 127.65 268.3 131.91 274.26 135.81 280.44 139.85 286.53 142.85 293.27 146.91 299.36 151.19 305.29 155.3 311.34 159.69 317.18 163.52 324.22 164.17 331.97 162.18 339.76 160.86 341.02 155.22 334.07 149.4 327.31 145.91 321.3 142 315.57 138.04 309.88 133.96 304.28 130.15 298.48 126.6 292.52 122.99 286.59 119.2 280.78 116.09 274.57 113.28 268.23 110.38 262.02 106.24 256.43 103.79 250 100.99 243.73 97.06 238.04 94.12 231.85 92.09 225.22 88.14 219.51 85.32 212.43 82.6 205.34 79.75 198.28 77.49 191.02 75.78 183.61 76.1 176.02 75.71 168.46 77.71 161.15 79.34 153.76 81.8 146.58 87.38 139.94 95.54 138 103.4 136.08 109.66 130.95 115.71 126.52 122.5 123.46 129.28 121.13 135.67 117.89 142.29 115.2 149.14 113.07 155.54 109.85 162.18 107.2 168.6 104.02 175.3 101.52 181.98 98.99 188.4 95.81 195.21 93.57 201.86 90.96 208.25 87.86 215.1 85.84 221.27 82.2 227.83 79.48 234.79 77.76 241.03 74.28 247.95 72.46 254.32 69.28 260.66 66.69 266.79 63.59 273.24 61.26 279.48 58.45 286.55 57.29 291.81 62.16 295.31 69.09 299.81 75.39 304.39 81.64 308.53 88.19 311.81 94.53 315.26 100.76 319.27 106.64 323.5 112.4 326.46 118.93 330.42 124.85 334.64 130.61 338.09 136.84 342.07 142.75 345.63 148.91 349.64 154.79 352.97 161.1 356.35 167.38 360.26 173.33 364.43 179.12 368.23 185.1 371.37 191.49 375.03 197.56 379.19 203.32 382.44 209.65 386.66 215.36 390.8 221.13 394.76 227.01 397.95 233.38 401.53 239.5 403.17 246.4 397.87 251.1 391.47 254.52 384.46 256.43 377.58 259.57 381.49 265.37 386.35 269.99 389.99 275.51 393.59 281.06 397.66 286.27 401.68 291.51 403.9 299.08 397.75 303.98 390.59 307.54 383.16 310.45 375.72 313.31 368.28 316.15 361.41 318.29 354.87 321.26 348.08 323.59 341.35 326.09 334.72 328.81 327.85 330.95 321.23 333.72 314.92 337.27 308.25 339.9 301.52 342.41 294.69 344.75 287.79 346.91 281.23 349.96 274.23 351.87 267.79 355.22 261.16 358.1 252.2 361.91 250.6 354.81 249.44 348.13 255.94 345.38 262.76 343.47 269.18 340.57 275.54 337.5 282.03 334.76 288.87 332.91 295.54 330.65 302.03 327.9 308.42 324.91 315.04 322.52 321.34 319.29 328.22 317.54 334.89 315.26 341.43 312.64 347.79 309.56 354.48 307.32 360.68 303.86 367.55 302.05 374.09 299.45 380.7 296.99 387.1 294.09 380.56 285.49 378.28 291.86 372.44 294.44 365.74 296.46 359.43 299.45 352.85 301.78 346.24 304.03 339.72 306.52 333.4 309.5 326.68 311.48 319.96 313.98 313.46 317.04 306.53 318.98 300.27 322.68 293.48 324.98 286.79 327.57 280.05 330 273.24 332.28 267.07 335.39 260.4 337.22 254.31 340.52 247.88 342.47 244.78 336.81 241.96 330.81 239.49 324.66 237.35 318.36 234.2 312.5 231.57 306.33 238.34 303.3 245.18 300.57 252.11 298.08 258.64 294.63 265.73 292.52 272.34 289.27 279.42 287.16 285.78 283.3 292.69 280.76 299.78 278.66 306.37 275.37 313.13 272.49 320.11 270.11 326.95 267.42 333.57 264.19 340.3 261.22 346.98 258.14 353.75 255.28 360.78 253.03 367.36 249.69 374.45 247.58 381.19 244.63 387.27 241.28 383.79 235.59 380.07 229.5 376.02 223.62 372.28 217.54 369.17 211.07 365.48 204.97 361.36 199.13 358.11 192.75 353.38 187.29 350.42 180.73 346.55 174.74 342.4 168.92 338.79 162.77 335.25 156.57 331.08 150.77 327.21 144.78 323.79 138.52 320.03 132.46 315.9 126.63 312.17 120.56 308.28 114.58 305.24 108.08 301.04 102.3 297.55 96.07 293.76 90.03 289.98 83.98 286.1 77.99 282.06 72.39 275.97 75.05 269.43 77.27 263.15 80.12 256.56 82.22 250.09 84.58 244.03 87.97 236.95 90.58 229.91 93.3 223.03 96.39 216.18 99.57 209.22 102.46 202.03 104.8 194.81 107.08 188.66 109.96 182.3 112.33 176.3 115.53 170.07 118.22 163.75 120.67 157.01 123.17 150.77 126.86 143.81 128.83 137.36 132.03 130.81 135 122.87 138.28 115.98 143.48 110.58 146.77 104.75 149.31 99.35 152.41 102.06 158.52 104.49 164.96 107.11 171.32 109.86 177.62 112.3 184.06 115.27 190.27 117.71 196.7 119.88 203.62 123.01 210.12 126.89 216.24 129.43 223.04 133.17 229.21 136.3 235.72 140.63 241.54 144.51 247.6 148.29 253.72 152.1 259.83 155.76 266.04 160.41 271.57 164.21 277.71 168.73 283.32 172.7 289.35 177.15 295.01 178.1 301.48 174.05 311.67"/><polygon points="246.67 369.69 246.61 376.45 245.33 383.15 243.04 389.57 240.92 396.03 237.26 401.76 233.31 407.26 228.29 411.82 222.57 415.5 215.81 418.06 208.85 420.04 201.6 420.57 194.41 419.36 187.7 416.65 181.14 413.53 175.97 408.43 171.54 402.77 167.52 396.38 164.27 389.56 162.25 382.27 160.5 374.82 161.06 367.19 162.15 359.65 164.52 352.41 166.52 345.72 169.58 339.43 172.23 332.98 175.06 326.62 177.33 320 180.29 313.68 183.41 307.44 186.72 301.3 190.43 295.38 193.87 289.33 197.53 280.53 203.74 276.81 209.44 280.73 212.3 286.82 215.75 292.6 218.51 298.74 222.34 304.33 225.01 310.51 227.97 316.55 230.83 324.15 234.64 331.3 238.46 338.48 241.13 346.14 242.74 354.11 244.88 361.9 246.67 369.69"/><polygon points="644.85 191.46 644.54 198.74 643.93 205.84 643.03 212.91 642.38 220 639.91 226.69 632.99 228.34 629.44 221.71 629.89 215.06 629.78 208.35 630.74 201.73 630.86 195.03 631.49 188.38 632.75 179.69 625.57 185.61 620.58 190.21 615.37 194.58 610.87 199.72 605.04 203.39 600.54 208.54 595.05 210.56 590.06 208.77 587.93 203.15 591.75 198.06 596.84 193.43 601.8 188.65 607.34 184.5 611.98 179.35 616.96 175 610.4 174.51 603.71 172.83 596.81 172.89 590.05 171.81 587.16 170.93 581.96 168.95 581.07 163.36 589.13 158.32 596.86 159.8 604.69 160.51 612.5 161.36 620.37 161.65 625.93 162.51 622.47 156.41 618.06 150.52 614.72 144.81 610.33 139.79 607.35 133.84 603.49 128.47 602.55 123.01 605.47 118.82 610.57 118.14 614.98 121.62 618.45 127.54 622.56 133.04 625.64 139.22 630.27 144.39 633.82 150.18 634.82 150.13 636.23 142.68 637 135.13 636.72 128.2 638.15 121.41 637.9 114.49 639.04 107.67 639.79 100.83 641.32 94.77 647.07 93.32 651.54 96.52 653.03 102.52 651.71 110.04 651.03 117.64 651.02 125.29 649.3 132.78 648.55 140.38 648.09 148.37 652.49 145.15 657.21 140.27 662.65 136.17 667.67 131.62 672.82 127.2 677.59 122.38 682.17 119.47 687.24 121.18 690.15 126.13 687.2 131.2 681.37 135.91 675.91 141.03 670.33 146.01 664.84 151.1 659.75 156.62 653.55 160.92 648.62 165.61 655.84 166.39 662.87 167.08 669.81 168.83 676.97 168.83 683.9 170.57 690.93 171.57 695.81 173.51 696.59 178.59 694.04 182.74 688.97 183.61 681.73 183.01 674.57 181.75 667.34 181.11 660.22 179.6 653.21 179.44 656.79 184.15 660.23 189.34 663.71 194.49 667.38 199.82 670.49 205.58 674.62 210.6 676.71 215.85 673.59 220.61 667.93 221.68 663.28 218.09 659.37 210.97 654.16 204.79 649.52 198.2 644.85 191.46"/><polygon points="160.13 669.53 166.55 669.88 172.99 669.57 179.44 669.31 185.87 669.67 194.85 669.99 203.82 670.29 209.05 672.09 210.59 677.1 208.17 681.72 202.76 682.5 195.02 682.55 187.28 682.39 179.54 682.77 171.8 683.29 166.31 683.13 171.57 688.37 175.99 693.87 180.69 699.14 185.31 704.48 189.46 710.21 193.19 715.92 191.94 722.57 184.93 723.06 179.71 718.21 174.13 712.77 169.08 706.89 164.52 700.57 158.91 695.16 154.13 689.03 152.96 689.55 153.07 696.66 153.32 703.77 153.66 710.88 154.45 717.97 153.87 724 154.46 729.95 148.6 736.36 141.36 730.39 141.58 722.54 140.88 714.75 140.79 706.92 140.21 699.49 140.05 691.7 135 696.56 130.78 701.62 127.13 707.18 122.5 711.87 118.61 716.1 115.4 720.93 110.02 723.6 104.23 722.45 103.18 717.04 105.16 711.94 109.89 705.85 114.98 700.05 119.84 694.06 125.46 688.71 130.55 682.56 123.55 682.37 116.83 683.11 108.85 683.14 100.89 682.15 96.14 680.27 94.63 675.54 101.45 669.64 108.57 669.2 115.69 669.51 122.81 670.17 129.93 670.08 137.23 669.46 131.7 663.52 126.56 657.77 122.37 651.24 116.93 645.75 111.07 639.61 108.57 634.61 110.45 629.28 115.77 627.6 120.32 630.38 124.44 635.29 129.22 639.64 133.45 644.46 137.74 649.72 137.68 642.21 137.94 635.03 137.06 627.84 137.86 620.66 137.59 613.91 137.2 607.19 143.56 600.01 149.66 607.2 150.09 614.08 150.21 620.97 150.51 627.85 151.07 634.72 150.28 641.64 151.05 649.99 152.62 657.83 156.23 653.32 161.09 649.17 164.69 643.88 169.47 639.66 173.37 634.67 177.54 629.92 181.21 624.72 186.39 621.97 191.47 624.13 194.28 629.05 191.18 634.01 187.17 639.45 182.51 644.33 177.68 649.07 173.42 654.3 169.14 659.51 164.47 664.39 160.13 669.53"/><polygon points="149.25 171.43 144.9 165.89 147.51 158.1 155.62 156 163.21 152.65 170.85 149.39 177.34 146.95 183.43 143.56 189.9 141.05 196.21 138.18 202.47 135.2 209.07 133 215.29 129.91 221.62 127.09 228.33 125.16 234.31 121.5 240.79 119.03 247.36 116.42 254.12 114.27 260.73 111.78 267.12 108.71 273.69 106.1 279.48 105.31 283.3 109.25 282.97 114.49 278.35 117.67 271.59 120.86 264.76 123.88 257.97 127 250.88 129.4 244.15 132.66 237.46 136.02 230.41 138.54 223.69 141.81 216.74 144.55 209.72 147.14 202.89 150.15 196.1 153.49 188.79 155.54 182.05 158.99 175.17 162.1 167.9 164.26 160.84 166.93 154.15 170.5 149.25 171.43"/><polygon points="186.15 182.3 181.46 176.22 185.58 168.74 191.74 165.7 198.41 163.93 204.75 161.33 210.8 158.04 217.41 155.64 223.87 152.88 230.28 150.03 236.72 147.21 243.03 144.11 249.88 142.28 255.88 138.45 262.62 136.35 269.05 133.54 275.38 130.47 281 129.19 286.26 126.69 294.16 131.83 290.25 139.9 283.39 141.94 277.04 145.24 270.44 147.9 263.69 150.24 257.09 152.92 250.41 155.4 244.15 158.91 237.36 161.14 230.92 164.19 224.09 166.33 217.43 168.85 210.99 171.93 204.49 174.85 197.99 178.03 191.3 180.77 186.15 182.3"/><polygon points="345.83 230.36 340.24 234.57 333.49 236.99 326.91 239.84 320.6 243.34 313.99 246.13 307.26 248.6 300.54 251.09 293.64 253.17 290.94 254.41 282.64 251.31 285.91 242.45 293.52 239.32 301.5 237.14 307.88 233.43 314.54 230.39 321.26 227.48 328.29 225.29 337.6 221.7 343.83 223.82 345.83 230.36"/><polygon class="a" points="473.52 688.82 469.02 692.2 464.24 695.43 459.03 698.45 453.99 693.08 448.99 687.97 444.89 682.07 440.61 676.36 435.58 671.25 431.21 665.59 427.22 659.66 423.93 653.3 420.19 647.24 416.49 641.15 413.87 634.5 410.79 628.08 408.22 621.44 405.27 614.89 404.29 607.77 402.04 600.96 401.44 594.13 409.42 593.26 415.78 592.96 421.96 593.38 423.75 599.92 424.3 606.87 425.95 613.61 428.96 619.92 431.12 626.47 433.18 633.13 436.52 639.24 440.43 645.01 444.42 650.61 448.87 655.87 453.1 661.29 457.61 666.5 461.04 672.52 465.92 677.45 469.81 683.13 473.52 688.82"/><polygon class="a" points="433.34 466.15 437.81 471.31 443.53 476.1 439.71 483.56 435.04 490.35 431.09 497.5 428.09 503.63 426.16 510.15 425.32 516.88 423.93 523.51 422.99 530.22 422.39 537.17 422.3 544.15 421.92 551.12 422.64 558.09 421.6 565.07 422.1 572.04 421.36 580.04 414.59 579.97 407.55 580.67 400.43 580.35 400.79 573.07 401.11 565.89 401.05 558.69 401.89 551.53 401.88 544.32 402.91 537.19 403.23 529.97 405.06 522.97 406.25 515.86 408.21 508.91 410.69 502.13 413.23 495.38 416.81 489.11 420.15 482.72 423.86 476.52 429.06 471.43 433.34 466.15"/><polygon class="a" points="457.55 578.21 450.12 578.66 442.5 579.98 434.66 580.07 434.32 573.39 434.23 566.88 434.58 560.37 435.01 553.88 434.89 547.37 434.83 540.63 435.88 533.98 437.01 527.37 437.75 520.7 439.42 514.33 441.51 508.14 443.24 501.69 447.04 496.24 449.88 490.24 453.74 484.68 460.03 490.48 465.53 496.47 462.53 502.39 460.91 509.25 458.92 515.9 457.85 522.77 456.65 529.64 455.75 536.6 456.03 543.6 456.1 550.59 457.43 557.51 457.14 564.52 457.1 571.51 457.55 578.21"/><polygon class="a" points="435.6 592.68 442.34 592.4 448.78 592.73 455.17 592.47 459.02 595.69 460.05 602.94 461.42 610.17 464.45 616.89 466.73 623.85 469.47 630.66 473.01 637.1 477.17 643.15 480.99 649.41 485.46 655.22 489.83 661.1 493.61 665.26 496.94 669.77 491.36 674.39 486.32 679.49 480.31 675.45 474.79 670.58 470.55 664.53 465.99 658.82 461.71 652.89 457.67 646.79 453.19 640.94 450.02 634.31 447.21 627.53 443.66 621.11 440.64 614.42 439.03 607.24 436.54 600.32 435.6 592.68"/><polygon class="a" points="452.66 467.58 447.54 461.5 441.89 455.94 447.78 451.44 453.21 446.96 459.32 443.43 464.72 438.87 471.23 436.01 476.98 431.97 483.34 428.98 489.35 425.32 495.68 422.26 502.27 419.82 508.6 416.68 515.33 414.61 522.06 412.57 529.01 411.38 535.76 409.32 542.82 408.86 549.79 408.1 556.58 407.45 557.15 414.9 556.66 422.43 549.67 423.7 542.51 424.32 535.54 426.08 528.33 426.79 521.37 428.66 514.61 431.16 507.74 433.36 501.08 436.12 494.83 439.73 488.48 443.08 482.39 446.89 476.3 450.68 469.97 454.12 464.44 458.74 458.09 462.24 452.66 467.58"/><polygon class="a" points="578.56 742.25 578.38 735.88 579.28 729.8 579.19 724.17 585.72 722.48 592.79 722.19 599.7 720.79 606.65 719.45 613.03 716.27 619.79 714.28 626.27 711.52 632.39 708.03 638.8 705.08 644.64 701.13 650.31 696.96 655.88 692.67 661.31 688.2 666.73 683.74 672.13 690.24 677.08 697.09 671.97 702.37 666.17 706.92 660.18 711.18 654.5 715.89 648.08 719.48 642.16 723.97 635.35 726.83 628.81 730.28 621.66 732.21 614.73 734.63 607.64 736.54 600.68 739.06 593.38 740.11 586.05 740.84 578.56 742.25"/><polygon class="a" points="558.91 492.98 561.23 499.56 562.86 506.06 564.7 512.49 567 518.79 568.03 525.46 570.25 531.66 562.99 533.79 556.53 537.86 550.48 542.55 545.77 549.12 540.87 543.57 535.16 539.6 530.61 534.36 525 530.29 520.45 525.04 514.68 520.67 519.69 514.67 525.26 509.6 531.78 505.82 538.16 502.01 544.65 498.34 551.75 496 558.91 492.98"/><polygon class="a" points="686.48 688.37 682.33 681.25 676.95 675.42 681.12 668.94 684.99 662.39 689.42 656.2 692.63 649.26 696.9 642.94 699.72 635.87 703.24 629 705.66 621.69 707.15 614.11 709.02 606.66 711.05 599.24 713.42 591.79 720.3 592.68 727.09 592.95 726.46 599.97 725.05 606.84 724.27 613.82 722.56 620.61 720.92 627.42 719.23 634.25 716.38 640.69 712.98 646.84 710.16 653.24 707 659.48 703.83 665.76 700.03 671.67 695.45 677.01 691.39 682.75 686.48 688.37"/><polygon class="a" points="565.44 724 565.7 729.97 565.53 735.84 565.55 741.88 558 741.68 550.67 740.97 543.49 739.35 536.46 737.18 529.06 736.41 522.27 733.47 515.11 731.71 508.15 729.27 501.8 725.42 494.7 723.26 488.09 720 481.91 715.97 475.8 711.85 470.23 706.76 476.77 702.45 483.62 698.96 486.75 698.77 492.55 703.37 498.85 707.26 505.52 710.48 512.11 713.87 519.34 715.61 526.16 718.57 533.37 720.27 540.76 720.96 548.08 721.78 555.33 723.38 562.75 723.21 565.44 724"/><polygon class="a" points="570.37 406.37 577.26 409.03 583.95 411.94 590.66 414.74 597.14 418.05 603.06 421.62 609.19 424.85 615 428.61 620.59 432.7 626.09 436.91 632.22 440.17 637.86 444.18 643.4 448.32 649.16 452.04 654.39 456.52 660.14 460.27 665.85 464.07 671.24 468.33 677.04 472.3 671.81 477.88 667.01 483.46 661.18 478.96 654.98 474.73 649.43 469.66 643.1 465.6 637.51 460.59 631.46 456.18 626.01 451 619.69 447.21 614.13 442.43 607.87 438.62 601.64 434.8 595.47 430.81 588.84 427.64 581.74 425.67 578.88 424.89 571.05 421.47 570.46 413.08 570.37 406.37"/><polygon class="a" points="579.03 710.27 578.82 704.58 579.13 698.53 578.49 692.24 586.17 690.52 593.67 688.87 600.87 686.13 608.47 684.73 615.45 681.47 622.04 677.65 628.92 674.3 634.79 669.37 641.62 665.87 647.62 661.39 652.62 667.59 658.12 673.29 653.06 678.55 647.27 683.3 641.14 687.61 634.79 691.55 628.22 695.09 622.09 699.5 615.07 702.17 607.83 704.1 601.01 707.41 593.59 708.62 586.24 710.04 579.03 710.27"/><polygon class="a" points="726.49 579.89 719.37 579.51 712.44 578.65 711.47 571.87 710.53 565.05 708.68 558.4 707.04 551.73 706.18 544.46 703.4 537.72 700.18 531.21 697.67 524.39 693.7 518.31 689.59 512.37 685.8 506.17 683.33 503.04 679.22 498.01 677.95 491.94 680.8 486.26 686.06 482.74 690.89 487.74 695.09 493.55 699.4 499.27 703.58 505.1 707.58 511.09 710 517.92 713.29 524.29 716.84 530.59 718.67 537.58 721.12 544.34 722.7 551.35 724.31 558.35 725.73 565.41 726.65 572.55 726.49 579.89"/><polygon class="a" points="489.47 579.38 480.86 579.49 472.15 579.3 470.71 572.93 469.94 566.13 469.44 559.29 469.33 552.42 469.41 545.55 469.73 538.69 469.68 531.76 470.66 524.93 472.23 518.2 473.52 511.42 476.58 505.58 480.54 509.16 485.31 512.27 491.71 518.61 497 524.28 494.71 531.74 493.39 539.45 491.07 546.88 489.98 554.59 489.7 562.36 490.14 570.12 489.47 579.38"/><polygon class="a" points="555.63 437.03 556.08 437.4 556.31 444.96 552.57 450.29 545.17 451.81 538.34 454.24 531.14 455.23 524.43 457.94 517.41 459.71 510.77 462.56 504.44 466.05 497.79 468.89 491.78 472.91 486.13 477.39 480.41 481.76 475.11 486.1 469.1 481.74 463.12 476.31 469.22 471.51 474.87 466.94 480.45 462.14 487.09 458.98 493.4 455.3 499.91 451.98 506.61 449.05 513.28 446.07 520.02 443.2 527.05 441.12 533.94 438.55 541.24 437.64 548.46 436.5 555.63 437.03"/><polygon class="a" points="555.61 464.15 556.24 472.02 557.92 480.42 550.98 482.55 544.37 484.71 537.96 487.4 531.35 489.81 525.27 493.32 519.7 497.59 514.63 502.43 508.98 506.66 504.67 511.73 500.13 507.67 494.67 504.03 490.29 499.17 485.14 494.97 490.5 490.04 496.52 486.17 502.47 482.25 508.83 479.04 515.01 475.5 521.65 472.9 528.26 470.21 535.13 468.26 542.02 466.42 549.04 465.09 555.61 464.15"/><polygon class="a" points="530.15 590.86 523.25 588.35 516.57 586.01 509.76 584.11 503.1 582.12 502.75 575.04 502.62 567.83 502.56 560.59 503.69 553.43 504.81 546.3 506.36 539.23 509.49 532.57 515.05 538.15 520.75 543.43 526.4 548.78 531.57 554.62 537.4 559.78 538.49 562.94 536 569.74 533.77 576.6 532.09 583.64 530.15 590.86"/><polygon class="a" points="683.65 587.07 691.15 588.2 698.14 589.98 697.37 597.07 697.18 604.55 694.93 611.65 692.65 618.7 690.27 625.7 687.9 632.75 684.22 639.21 680.03 645.34 676.3 651.73 671.78 657.59 667.63 663.43 661.43 657.42 655.8 650.66 660.44 645.4 664.56 639.67 668 633.53 671.93 627.66 674.53 621.1 677.35 614.64 679.7 607.99 680.93 601.03 682.25 594.13 683.65 587.07"/><polygon class="a" points="657.75 493.14 652.03 497.89 646.59 502.76 640.63 496.67 635.07 490.44 629.17 484.5 623.92 479.9 618.08 476 612.79 471.46 607.38 467.06 601.56 463.21 595.63 459.53 589.06 457.13 582.88 453.79 576.11 452.84 569.69 450.89 569.92 443.43 569.9 436.27 576.48 437.29 582.92 440.25 590.28 443.3 597.35 446.99 603.74 451.78 610.16 456.46 615.42 461.14 621.26 465.1 626.67 469.6 632.65 473.35 637.55 478.53 643.73 482.02 649.14 486.52 654.85 490.64 657.75 493.14"/><polygon class="a" points="565.84 691.79 565.78 698.26 565.35 704.47 565.35 710.56 558.1 710.75 550.84 709.54 543.67 707.9 536.41 706.91 529.38 704.9 522.26 703.12 515.28 700.8 509.06 696.82 502.21 694.06 496.08 689.75 500.55 684.2 505.88 679.65 510.19 679.87 517.22 683.62 524.7 686.37 532.26 688.7 540.02 690.22 547.42 691.32 554.91 690.54 562.31 691.9 565.84 691.79"/><polygon class="a" points="505.25 658.7 500.13 653.18 495.84 647.05 491.45 641.02 487.93 634.43 484.29 627.95 480.35 621.61 477.81 614.59 474.37 607.91 472.28 600.69 472.33 593.36 478.14 592.75 484.14 593.45 490.08 593.3 491.38 596.8 492.07 604.13 494.48 611.1 497.53 617.76 500.43 624.45 504.12 630.75 508.08 636.88 512.34 642.85 512.1 650.15 508.83 654.52 505.25 658.7"/><polygon class="a" points="698.7 576.65 691.98 574.91 685.52 574.85 682.25 570.84 681.57 564 679.79 557.36 678.62 550.54 676.11 544.11 672.96 537.97 669.21 532.21 665.46 526.47 660.4 519.41 655.43 512.05 660.92 507.35 666.2 502.67 671.27 508.25 675.42 514.45 680.29 520.12 683.3 526.99 687.31 533.26 690.33 540.07 692.17 547.29 694.2 554.39 696.01 561.57 697.01 568.91 698.7 576.65"/><polygon class="a" points="612.91 543.67 607.33 539.58 601.28 535.45 594.17 533.6 587.35 531.11 583.37 528.62 581.37 521.79 578.88 515.12 577.39 508.13 574.9 501.47 572.56 494.83 579.31 497.48 585.79 500.89 592.01 504.69 598.1 508.71 604.25 512.75 609.75 517.64 614.65 523.13 619.41 528.91 616.33 536.6 612.91 543.67"/><polygon class="a" points="636.42 510.47 631.44 514.2 627.46 518.59 623.09 512.39 617.27 507.71 612.02 502.47 605.93 498.26 600.32 493.4 594.16 489.24 587.33 486.3 580.34 483.92 573.38 481.42 570.94 479.18 569.62 471.6 568.8 463.47 576.53 465.72 583.62 468.28 590.15 472.03 596.73 475.66 602.87 479.98 608.69 484.71 614.69 489.25 619.56 495.03 625.43 499.75 631 504.79 636.42 510.47"/><polygon class="a" points="578.14 662.89 585.46 660.95 592.98 659.7 600.41 657.99 607.61 655.42 614.06 651.32 620.95 647.91 626.32 642.58 631.53 647.07 636.87 650.8 631.73 655.47 625.79 659.84 620.11 664.66 613.21 667.47 606.55 670.6 599.84 673.74 592.7 675.7 585.42 676.98 577.77 678.05 578.32 670.28 578.14 662.89"/><polygon class="a" points="656.35 584.94 663.3 585.37 670.79 585.91 669.24 592.77 668.66 599.61 666.01 605.94 664.36 612.56 661.87 618.92 657.84 624.49 655.17 630.82 651.07 636.28 646.45 641.14 641.87 636.95 636.56 633.51 641.07 627.37 644.35 620.46 648.34 613.95 651.48 606.97 653.81 599.68 655.03 592.12 656.35 584.94"/><polygon class="a" points="504.74 596.13 510.58 598.13 516.73 600.46 522.91 602.69 528.82 605.6 532.07 608.11 533.95 615.92 537.05 623.26 540.55 630.77 532.81 634.39 525.29 637.18 521.35 632.03 516.52 627.19 513.19 621.26 510.32 615.13 507.9 608.83 505.81 602.41 504.74 596.13"/><polygon class="a" points="591.16 587.37 585.83 591.74 581.29 586.74 576.98 581.7 572.25 577.06 567.28 571.7 562.26 566.39 557.31 561.01 556.89 555.33 563.6 549.48 571.16 544.93 577.15 548 579.2 554.7 581.39 561.35 583.97 567.87 586.18 574.51 588.98 580.94 591.16 587.37"/><polygon class="a" points="564.05 663.28 564.44 670.39 564.38 677.78 557.13 678.42 549.79 677.89 542.43 677.84 535.35 675.8 528.34 673.79 521.85 670.48 515.91 667.14 520.21 660.54 525.75 654.24 531.49 658.11 537.85 660.37 544.57 660.98 551.12 662.08 557.75 663.11 564.05 663.28"/><polygon class="a" points="635.8 528.33 640.72 524.63 644.6 520.72 649.86 525.71 653.94 531.9 657.84 538.16 662.13 544.24 664.66 551.23 667.37 558.12 668.79 565.39 670.01 572.93 662.45 571.49 654.61 571.94 654.19 564.71 651.63 558.37 649.91 551.79 646.46 545.91 644.07 539.51 640.39 533.8 635.8 528.33"/><polygon class="a" points="550.01 572.38 554.76 578.45 560.12 583.92 565.23 589.63 570.52 595.15 575.59 600.89 576.9 608.56 575.34 609.46 569.21 607.18 563.05 604.76 556.95 602.16 550.79 599.73 545 596.45 543.17 593.32 545.67 586.6 547.07 579.66 547.66 572.44 550.01 572.38"/><polygon class="a" points="610.43 589.99 605.09 583.99 602.89 577.76 599.78 571.89 598.05 565.49 595.42 559.42 592.58 553.44 590.64 547.17 591.78 545.71 597.76 549.25 603.25 553.56 608.92 558.26 611.86 565.24 611.23 572.79 611.12 580.32 610.43 589.99"/><polygon class="a" points="628.39 539.67 631.98 546.24 635.67 552.32 638.68 558.8 640.33 565.75 642.07 572.68 637.95 579.23 633.78 573 629.73 566.14 626.56 558.84 625.23 552.58 626.64 546.3 628.39 539.67"/><polygon class="a" points="574.35 624.11 566.17 625.03 558.04 625.9 555.34 625.31 551.2 619.47 546.03 614.4 547.22 613.09 553.88 615.98 560.79 618.08 567.64 620.39 574.43 622.8 574.35 624.11"/><polygon class="a" points="539.31 646.41 546.05 642.73 553.97 641.51 561.36 644.82 568.83 648.22 561.28 650.16 553.72 649.72 546.17 648.95 539.31 646.41"/></svg>