<svg xmlns="http://www.w3.org/2000/svg" viewBox="0 0 800 800"><defs><style>.a{fill:#fff;}.b,.c{fill:none;stroke-linejoin:bevel;stroke-width:13px;}.b{stroke:#000;}.c{stroke:#fff;}</style></defs><title>canvas (45-b)</title><polygon class="a" points="258.3 663.3 255.85 670.02 249.78 674.3 242.67 676.45 235.55 678.67 228.19 679.87 220.71 679.73 213.3 680.21 205.88 680.8 198.44 681.44 191 680.63 183.55 680.77 176.14 680.08 168.75 679.32 161.36 678.43 154.16 676.59 147.34 673.75 140.95 670.08 138.03 663.3 140.17 656.65 145.44 652.12 151.05 648.04 157.38 645.12 164.01 642.97 170.84 641.63 177.66 640.28 184.61 640.08 191.49 639.1 198.44 639.39 205.35 639.64 212.29 639.72 219.15 640.77 226.1 641.3 232.78 643.26 239.41 645.34 245.87 647.97 251.87 651.56 256.83 656.57 258.3 663.3"/><polygon class="b" points="258.3 663.3 255.85 670.02 249.78 674.3 242.67 676.45 235.55 678.67 228.19 679.87 220.71 679.73 213.3 680.21 205.88 680.8 198.44 681.44 191 680.63 183.55 680.77 176.14 680.08 168.75 679.32 161.36 678.43 154.16 676.59 147.34 673.75 140.95 670.08 138.03 663.3 140.17 656.65 145.44 652.12 151.05 648.04 157.38 645.12 164.01 642.97 170.84 641.63 177.66 640.28 184.61 640.08 191.49 639.1 198.44 639.39 205.35 639.64 212.29 639.72 219.15 640.77 226.1 641.3 232.78 643.26 239.41 645.34 245.87 647.97 251.87 651.56 256.83 656.57 258.3 663.3"/><polyline class="a" points="231.26 380.59 231.22 387.73 231.7 394.88 231.22 402.03 231.53 409.17 231.62 416.32 231.62 423.47 231.82 430.61 231.28 437.76 231.5 444.9 231.1 452.05 231.2 459.19 231.78 466.34 231.46 473.48 231.73 480.63 231.62 487.77 231.54 494.92 231.53 502.06 231.44 509.21 231.96 516.36 231.51 523.5 231.37 530.65 231.2 537.8 231.4 544.95 231.64 552.1 231.93 559.25 231.06 566.4 231.65 573.55 231.1 580.7 231.54 587.85 231.53 595 231.07 602.14 231.37 609.29 231.67 616.45 231.37 623.59 231.02 630.75 231.7 637.91 231.45 645.07 231.55 645.38 224.35 647.3 217 648.54 209.55 648.84 202.14 649.17 194.72 649.67 187.35 648.56 179.94 648.09 172.69 646.5 165.29 645.51 165.79 645.07 164.99 637.86 165.6 630.66 165.77 623.46 165.69 616.26 165.05 609.06 165.57 601.86 165.77 594.66 165.8 587.46 165.36 580.25 165.9 573.05 165.77 565.85 165.01 558.65 164.95 551.45 165.54 544.24 165.64 537.05 165.12 529.85 165.46 522.65 164.95 515.45 165.83 508.25 165.53 501.05 165.56 493.85 165.49 486.65 165.19 479.44 165.3 472.24 165.1 465.04 165.9 457.84 165.23 450.64 165.02 443.43 165.85 436.23 165.21 429.02 165.81 421.82 165.53 414.62 165.79 407.41 165.72 400.2 165.49 393 165.9 385.8 165.67 378.59 165.35 371.39 165.44 364.18 165.66 356.98 165.7 349.77 165.02 342.56 165.29 335.34"/><polyline class="b" points="231.26 380.59 231.22 387.73 231.7 394.88 231.22 402.03 231.53 409.17 231.62 416.32 231.62 423.47 231.82 430.61 231.28 437.76 231.5 444.9 231.1 452.05 231.2 459.19 231.78 466.34 231.46 473.48 231.73 480.63 231.62 487.77 231.54 494.92 231.53 502.06 231.44 509.21 231.96 516.36 231.51 523.5 231.37 530.65 231.2 537.8 231.4 544.95 231.64 552.1 231.93 559.25 231.06 566.4 231.65 573.55 231.1 580.7 231.54 587.85 231.53 595 231.07 602.14 231.37 609.29 231.67 616.45 231.37 623.59 231.02 630.75 231.7 637.91 231.45 645.07 231.55 645.38 224.35 647.3 217 648.54 209.55 648.84 202.14 649.17 194.72 649.67 187.35 648.56 179.94 648.09 172.69 646.5 165.29 645.51 165.79 645.07 164.99 637.86 165.6 630.66 165.77 623.46 165.69 616.26 165.05 609.06 165.57 601.86 165.77 594.66 165.8 587.46 165.36 580.25 165.9 573.05 165.77 565.85 165.01 558.65 164.95 551.45 165.54 544.24 165.64 537.05 165.12 529.85 165.46 522.65 164.95 515.45 165.83 508.25 165.53 501.05 165.56 493.85 165.49 486.65 165.19 479.44 165.3 472.24 165.1 465.04 165.9 457.84 165.23 450.64 165.02 443.43 165.85 436.23 165.21 429.02 165.81 421.82 165.53 414.62 165.79 407.41 165.72 400.2 165.49 393 165.9 385.8 165.67 378.59 165.35 371.39 165.44 364.18 165.66 356.98 165.7 349.77 165.02 342.56 165.29 335.34"/><polygon class="a" points="231.84 381.64 226.91 386.99 219.82 388.65 212.59 389.59 205.39 388.4 198.58 385.92 192.35 383.17 187.14 378.66 182.92 373.24 178.74 367.79 175.25 361.87 172.66 355.5 169.46 349.44 166.76 343.13 165.35 336.4 170.88 339.1 175.66 344.6 181.3 349.21 186.59 354.16 192.32 358.6 198.59 362.19 205.47 365.86 212.78 368.62 219.75 372.14 226.29 376.37 231.84 381.64"/><polygon class="b" points="231.84 381.64 226.91 386.99 219.82 388.65 212.59 389.59 205.39 388.4 198.58 385.92 192.35 383.17 187.14 378.66 182.92 373.24 178.74 367.79 175.25 361.87 172.66 355.5 169.46 349.44 166.76 343.13 165.35 336.4 170.88 339.1 175.66 344.6 181.3 349.21 186.59 354.16 192.32 358.6 198.59 362.19 205.47 365.86 212.78 368.62 219.75 372.14 226.29 376.37 231.84 381.64"/><polygon points="208.59 388.31 208.6 395.59 208.07 402.84 208.72 410.09 208.27 417.34 208.69 424.59 208.5 431.83 208.92 439.08 208.69 446.33 208.38 453.57 208.88 460.82 208.68 468.07 208.99 475.31 208.39 482.56 208.75 489.81 208.82 497.05 208.63 504.3 208.76 511.55 208.47 518.8 208.27 526.05 208.06 533.3 208.63 540.55 208.44 547.8 208.22 555.05 208.29 562.3 208.7 569.55 208.89 576.81 208.84 584.06 208.71 591.31 208.46 598.56 208 605.81 208.42 613.06 208.36 620.32 208.44 627.57 208.54 634.83 208.84 642.09 208.14 649.21 201.28 649.58 194.03 649.78 186.85 648.77 179.64 648.18 172.56 646.65 165.31 645.12 165.3 637.89 165.62 630.71 165.92 623.53 165.96 616.35 165.36 609.18 165.14 602 165.15 594.82 165.86 587.64 165.58 580.46 165.48 573.28 165.86 566.11 165.3 558.93 165.59 551.75 165.46 544.57 165.35 537.39 165.08 530.22 165.26 523.04 165.37 515.87 165.38 508.69 165.88 501.51 165.23 494.34 165.53 487.16 165.53 479.98 165.82 472.8 165.08 465.62 165.8 458.44 165.4 451.26 165.44 444.08 165.76 436.9 165.81 429.72 165.07 422.54 165.75 415.36 165.81 408.18 165.52 401 165.06 393.82 165.65 386.64 165.04 379.45 166 372.27 165.31 365.09 165.31 357.91 165.21 350.72 165.94 343.53 165.3 336.32 166.94 343.48 169.74 350.21 171.98 357.14 175.14 363.71 179.26 369.73 183.6 375.53 188.59 380.79 194.32 385.34 201.38 387.22 208.59 388.31"/><polygon class="b" points="208.59 388.31 208.6 395.59 208.07 402.84 208.72 410.09 208.27 417.34 208.69 424.59 208.5 431.83 208.92 439.08 208.69 446.33 208.38 453.57 208.88 460.82 208.68 468.07 208.99 475.31 208.39 482.56 208.75 489.81 208.82 497.05 208.63 504.3 208.76 511.55 208.47 518.8 208.27 526.05 208.06 533.3 208.63 540.55 208.44 547.8 208.22 555.05 208.29 562.3 208.7 569.55 208.89 576.81 208.84 584.06 208.71 591.31 208.46 598.56 208 605.81 208.42 613.06 208.36 620.32 208.44 627.57 208.54 634.83 208.84 642.09 208.14 649.21 201.28 649.58 194.03 649.78 186.85 648.77 179.64 648.18 172.56 646.65 165.31 645.12 165.3 637.89 165.62 630.71 165.92 623.53 165.96 616.35 165.36 609.18 165.14 602 165.15 594.82 165.86 587.64 165.58 580.46 165.48 573.28 165.86 566.11 165.3 558.93 165.59 551.75 165.46 544.57 165.35 537.39 165.08 530.22 165.26 523.04 165.37 515.87 165.38 508.69 165.88 501.51 165.23 494.34 165.53 487.16 165.53 479.98 165.82 472.8 165.08 465.62 165.8 458.44 165.4 451.26 165.44 444.08 165.76 436.9 165.81 429.72 165.07 422.54 165.75 415.36 165.81 408.18 165.52 401 165.06 393.82 165.65 386.64 165.04 379.45 166 372.27 165.31 365.09 165.31 357.91 165.21 350.72 165.94 343.53 165.3 336.32 166.94 343.48 169.74 350.21 171.98 357.14 175.14 363.71 179.26 369.73 183.6 375.53 188.59 380.79 194.32 385.34 201.38 387.22 208.59 388.31"/><polyline class="b" points="142.81 663.37 149.97 664.99 157.11 666.64 164.31 668 171.57 668.96 178.82 669.95 186.11 670.59 193.44 670.5 200.75 671.55 208.08 671.4 215.38 670.74 222.73 670.63 229.92 668.99 237.14 667.83 244.42 666.97 251.47 664.96 258.51 662.97"/><polyline class="b" points="195.82 401.68 196.38 394.46 196.26 387.23 196.47 380 196.8 372.78 197.23 365.57 198.21 358.39 198.57 351.17 199.53 344 199.44 336.75 199.88 329.53 200.82 322.36 201.78 315.19 202.71 308.02 203.16 300.79 204.2 293.64 205.41 286.51 206.96 279.43 207.85 272.26 208.3 265.01 210.26 258.01 211.26 250.84 212.91 243.79 214.28 236.7 215.57 229.58 217.65 222.63 218.89 215.49 220.64 208.47 222.84 201.57 224.31 194.46 226.57 187.59 229.29 180.87 231.88 174.12 234.21 167.27 237.01 160.61 240.01 154.03 243.18 147.55 246.55 141.17"/><polyline class="b" points="208.09 254.54 209.48 247.53 209.35 240.39 208.91 233.26 207.62 226.22 204.86 219.61 202.39 212.98 200.04 206.24 196.64 199.97 192.29 194.46 190.05 201.26 189.78 208.55 189.01 215.73 188.8 222.97 189.31 230.21 190.49 237.39 193.04 244.21 195.41 251.04 198.41 257.63 201.9 264 205.88 270.1"/><polyline class="b" points="203.41 298.9 205.92 292.27 208.46 285.62 211.26 279.04 215.2 273.07 219.37 267.3 223.63 261.59 228.55 256.42 234.22 252.1 240.12 248.61 240.9 255.26 240.79 262.25 239.56 269.14 237.29 275.74 235.29 282.44 231.79 288.5 228.18 294.43 224.78 300.52 220.09 305.69 215.96 311.32 210.86 316.08 206.03 321.12 200.24 325.05"/><polygon class="a" points="267.7 135.34 265.88 142.78 261.52 148.94 255.57 153.8 247.93 155.39 240.46 153.37 234.19 149.09 229.99 142.78 228.55 135.34 229.85 127.86 234.37 121.78 240.27 116.85 247.93 116.02 255.36 117.41 262.07 121.2 265.9 127.9 267.7 135.34"/><polygon class="b" points="267.7 135.34 265.88 142.78 261.52 148.94 255.57 153.8 247.93 155.39 240.46 153.37 234.19 149.09 229.99 142.78 228.55 135.34 229.85 127.86 234.37 121.78 240.27 116.85 247.93 116.02 255.36 117.41 262.07 121.2 265.9 127.9 267.7 135.34"/><polyline class="b" points="189.47 407.41 191.92 400.71 194.33 394 197.16 387.44 199.72 380.77 202.87 374.36 206.36 368.13 209.26 361.58 212.84 355.38 216.71 349.35 221.12 343.71 225.39 337.97 230 332.49 235.55 327.92 240.51 322.78 246.18 318.43 252.2 314.6 258.65 311.54 265.11 308.38 272.12 306.75 279.31 306.62 286.43 306.8 293.53 307.64 300.35 309.78 306.84 312.72 313.42 315.48 319.46 319.29 325.68 322.85 331.16 327.46 336.2 332.55 342 336.81 346.87 342.05 351.9 347.14 356.18 352.9 360.91 358.25 365.46 363.77 369.68 369.54 373.83 375.37 378.08 381.13"/><polyline class="b" points="368.75 393.67 366.7 399.79 365.55 406.15 363.5 412.27"/><polyline class="b" points="384.34 396.86 388.19 404.12 390.67 411.96 394.44 419.27"/><polyline class="b" points="393.17 384.33 399.13 387.32 405.14 390.2 411.38 392.61"/><polygon points="629.27 684.88 623.08 681.18 616.59 677.85 610.17 674.38 603.59 671.23 597.13 667.82 590.83 664.15 584.38 660.75 577.94 657.31 571.77 653.39 565.71 649.69 565.13 642.76 565.4 635.61 565.6 628.46 565.73 621.31 565.55 614.16 564.91 607 565.24 599.85 564.85 592.7 565.34 585.55 565.43 578.4 565.32 571.25 565.11 564.09 565.85 556.94 565.26 549.79 565.22 542.64 565.76 535.49 565.79 528.33 565.79 521.18 565.57 514.03 565.25 506.87 565 499.72 565.45 492.57 565.06 485.42 565.25 478.26 565.03 471.11 565.74 463.96 565.3 456.8 565.78 449.65 565.15 442.5 565.25 435.34 564.93 428.19 565 421.04 564.86 413.88 565.76 406.73 565.77 399.57 565.53 392.42 565.52 385.26 565.23 378.11 565.54 370.96 565.73 363.8 565.13 356.65 564.91 349.5 565.8 342.35 565.11 335.19 564.93 328.04 565.11 320.89 565.58 313.74 565.1 306.58 564.88 299.43 565.18 292.27 565.46 285.12 565.29 277.97 565.6 270.81 565.01 263.66 565.52 256.5 565.6 249.34 564.91 242.19 565.66 235.03 565 227.87 565.28 220.72 565.45 213.56 565.56 206.4 565.85 199.25 565.27 192.09 565.69 184.93 565.61 177.77 565.31 170.62 564.88 163.46 565.65 156.29 565.13 148.75 571.62 152.85 578.18 156.04 584.38 159.9 590.91 163.15 597.16 166.92 603.63 170.3 609.99 173.87 616.36 177.42 622.91 180.67 629.36 184.14 628.82 191.33 629.48 198.48 628.84 205.63 629.5 212.78 629.33 219.93 629.24 227.08 629.14 234.23 629.62 241.38 629.65 248.53 629.77 255.69 629.07 262.84 629.63 269.99 629.46 277.14 628.98 284.29 629.6 291.45 629.33 298.6 629.7 305.75 629.18 312.9 629 320.06 629.32 327.21 629.66 334.36 629.54 341.51 629.11 348.67 629.48 355.82 629.26 362.97 629.14 370.12 629.75 377.28 628.89 384.43 629.21 391.58 629.6 398.74 629.02 405.89 628.83 413.05 629.58 420.2 629.23 427.35 629.63 434.51 629.77 441.66 629.62 448.82 628.97 455.97 629.81 463.13 629.09 470.28 629.3 477.44 628.9 484.59 629.14 491.74 629.24 498.89 629.38 506.04 629.48 513.19 628.83 520.34 629.25 527.5 629.57 534.65 629.51 541.81 629.58 548.96 629.26 556.12 629.41 563.27 628.95 570.42 629.8 577.58 628.93 584.74 629.72 591.89 629.36 599.05 629.26 606.21 629.45 613.37 628.98 620.52 629.37 627.68 629.8 634.84 628.96 641.99 629.6 649.15 628.85 656.31 629.39 663.46 629.19 670.63 629.45 677.79 629.27 684.88"/><polygon class="b" points="629.27 684.88 623.08 681.18 616.59 677.85 610.17 674.38 603.59 671.23 597.13 667.82 590.83 664.15 584.38 660.75 577.94 657.31 571.77 653.39 565.71 649.69 565.13 642.76 565.4 635.61 565.6 628.46 565.73 621.31 565.55 614.16 564.91 607 565.24 599.85 564.85 592.7 565.34 585.55 565.43 578.4 565.32 571.25 565.11 564.09 565.85 556.94 565.26 549.79 565.22 542.64 565.76 535.49 565.79 528.33 565.79 521.18 565.57 514.03 565.25 506.87 565 499.72 565.45 492.57 565.06 485.42 565.25 478.26 565.03 471.11 565.74 463.96 565.3 456.8 565.78 449.65 565.15 442.5 565.25 435.34 564.93 428.19 565 421.04 564.86 413.88 565.76 406.73 565.77 399.57 565.53 392.42 565.52 385.26 565.23 378.11 565.54 370.96 565.73 363.8 565.13 356.65 564.91 349.5 565.8 342.35 565.11 335.19 564.93 328.04 565.11 320.89 565.58 313.74 565.1 306.58 564.88 299.43 565.18 292.27 565.46 285.12 565.29 277.97 565.6 270.81 565.01 263.66 565.52 256.5 565.6 249.34 564.91 242.19 565.66 235.03 565 227.87 565.28 220.72 565.45 213.56 565.56 206.4 565.85 199.25 565.27 192.09 565.69 184.93 565.61 177.77 565.31 170.62 564.88 163.46 565.65 156.29 565.13 148.75 571.62 152.85 578.18 156.04 584.38 159.9 590.91 163.15 597.16 166.92 603.63 170.3 609.99 173.87 616.36 177.42 622.91 180.67 629.36 184.14 628.82 191.33 629.48 198.48 628.84 205.63 629.5 212.78 629.33 219.93 629.24 227.08 629.14 234.23 629.62 241.38 629.65 248.53 629.77 255.69 629.07 262.84 629.63 269.99 629.46 277.14 628.98 284.29 629.6 291.45 629.33 298.6 629.7 305.75 629.18 312.9 629 320.06 629.32 327.21 629.66 334.36 629.54 341.51 629.11 348.67 629.48 355.82 629.26 362.97 629.14 370.12 629.75 377.28 628.89 384.43 629.21 391.58 629.6 398.74 629.02 405.89 628.83 413.05 629.58 420.2 629.23 427.35 629.63 434.51 629.77 441.66 629.62 448.82 628.97 455.97 629.81 463.13 629.09 470.28 629.3 477.44 628.9 484.59 629.14 491.74 629.24 498.89 629.38 506.04 629.48 513.19 628.83 520.34 629.25 527.5 629.57 534.65 629.51 541.81 629.58 548.96 629.26 556.12 629.41 563.27 628.95 570.42 629.8 577.58 628.93 584.74 629.72 591.89 629.36 599.05 629.26 606.21 629.45 613.37 628.98 620.52 629.37 627.68 629.8 634.84 628.96 641.99 629.6 649.15 628.85 656.31 629.39 663.46 629.19 670.63 629.45 677.79 629.27 684.88"/><polygon class="a" points="629.42 684.72 634.08 680.08 638.43 674.82 643.09 669.83 647.71 664.83 652.67 660.12 657.32 655.13 661.74 649.91 661.41 642.76 661.7 635.61 661.89 628.46 662.05 621.31 661.94 614.16 661.34 607 661.51 599.85 661.3 592.7 661.25 585.55 661.54 578.4 661.4 571.25 661.96 564.09 661.67 556.94 662 549.79 662.13 542.64 661.5 535.49 661.88 528.33 661.45 521.18 661.49 514.03 662.1 506.87 661.41 499.72 661.65 492.57 662.2 485.42 661.42 478.26 661.47 471.11 662.02 463.96 661.68 456.8 662 449.65 661.69 442.5 662.07 435.34 661.29 428.19 661.96 421.04 661.62 413.88 662.11 406.73 661.61 399.57 661.47 392.42 661.51 385.26 661.48 378.11 662.13 370.96 661.65 363.8 661.39 356.65 661.77 349.5 661.9 342.35 661.56 335.19 661.79 328.04 662.19 320.89 661.48 313.74 661.73 306.58 662.23 299.43 661.65 292.27 661.9 285.12 661.9 277.97 661.75 270.81 661.67 263.66 661.76 256.5 661.66 249.34 661.71 242.19 661.69 235.03 661.31 227.87 661.35 220.72 662.05 213.56 661.92 206.4 661.63 199.25 662.07 192.09 662.21 184.93 661.24 177.77 661.69 170.62 662.15 163.46 661.98 156.29 661.56 149.5 657.32 154.33 652.32 158.99 648.07 164.34 643.37 169.28 638.54 174.11 634.28 179.47 629.71 184.32 629.31 191.33 629.55 198.48 629.72 205.63 629.24 212.78 629.5 219.93 629.2 227.08 629.67 234.23 629.79 241.38 628.9 248.53 629.76 255.69 629.78 262.84 629.29 269.99 629.79 277.14 629.36 284.29 629.2 291.45 628.97 298.6 629.59 305.75 629.52 312.9 629.78 320.06 629.16 327.21 628.86 334.36 629.36 341.51 629.54 348.67 629.29 355.82 629.17 362.97 628.99 370.12 629.06 377.28 629.1 384.43 629.6 391.58 629.35 398.74 629.55 405.89 629.66 413.05 629.48 420.2 629.31 427.35 629.61 434.51 629.24 441.66 629 448.82 629.27 455.97 629.43 463.13 629.46 470.28 629.41 477.44 629.02 484.59 629.59 491.74 628.86 498.89 629.4 506.04 629.27 513.19 629.02 520.34 629.38 527.5 629.41 534.65 629.43 541.81 629.44 548.96 629.74 556.12 629.38 563.27 629.16 570.42 629.74 577.58 629.32 584.74 629.77 591.89 629.21 599.05 629.64 606.21 629.58 613.37 629.3 620.52 629.08 627.68 629.13 634.84 629.41 641.99 629.37 649.15 629.08 656.31 629 663.46 629.67 670.63 629.42 677.79 629.42 684.72"/><polygon class="b" points="629.42 684.72 634.08 680.08 638.43 674.82 643.09 669.83 647.71 664.83 652.67 660.12 657.32 655.13 661.74 649.91 661.41 642.76 661.7 635.61 661.89 628.46 662.05 621.31 661.94 614.16 661.34 607 661.51 599.85 661.3 592.7 661.25 585.55 661.54 578.4 661.4 571.25 661.96 564.09 661.67 556.94 662 549.79 662.13 542.64 661.5 535.49 661.88 528.33 661.45 521.18 661.49 514.03 662.1 506.87 661.41 499.72 661.65 492.57 662.2 485.42 661.42 478.26 661.47 471.11 662.02 463.96 661.68 456.8 662 449.65 661.69 442.5 662.07 435.34 661.29 428.19 661.96 421.04 661.62 413.88 662.11 406.73 661.61 399.57 661.47 392.42 661.51 385.26 661.48 378.11 662.13 370.96 661.65 363.8 661.39 356.65 661.77 349.5 661.9 342.35 661.56 335.19 661.79 328.04 662.19 320.89 661.48 313.74 661.73 306.58 662.23 299.43 661.65 292.27 661.9 285.12 661.9 277.97 661.75 270.81 661.67 263.66 661.76 256.5 661.66 249.34 661.71 242.19 661.69 235.03 661.31 227.87 661.35 220.72 662.05 213.56 661.92 206.4 661.63 199.25 662.07 192.09 662.21 184.93 661.24 177.77 661.69 170.62 662.15 163.46 661.98 156.29 661.56 149.5 657.32 154.33 652.32 158.99 648.07 164.34 643.37 169.28 638.54 174.11 634.28 179.47 629.71 184.32 629.31 191.33 629.55 198.48 629.72 205.63 629.24 212.78 629.5 219.93 629.2 227.08 629.67 234.23 629.79 241.38 628.9 248.53 629.76 255.69 629.78 262.84 629.29 269.99 629.79 277.14 629.36 284.29 629.2 291.45 628.97 298.6 629.59 305.75 629.52 312.9 629.78 320.06 629.16 327.21 628.86 334.36 629.36 341.51 629.54 348.67 629.29 355.82 629.17 362.97 628.99 370.12 629.06 377.28 629.1 384.43 629.6 391.58 629.35 398.74 629.55 405.89 629.66 413.05 629.48 420.2 629.31 427.35 629.61 434.51 629.24 441.66 629 448.82 629.27 455.97 629.43 463.13 629.46 470.28 629.41 477.44 629.02 484.59 629.59 491.74 628.86 498.89 629.4 506.04 629.27 513.19 629.02 520.34 629.38 527.5 629.41 534.65 629.43 541.81 629.44 548.96 629.74 556.12 629.38 563.27 629.16 570.42 629.74 577.58 629.32 584.74 629.77 591.89 629.21 599.05 629.64 606.21 629.58 613.37 629.3 620.52 629.08 627.68 629.13 634.84 629.41 641.99 629.37 649.15 629.08 656.31 629 663.46 629.67 670.63 629.42 677.79 629.42 684.72"/><polygon class="a" points="629.25 182.76 622.74 180.14 616.7 176.07 610.1 173.06 603.56 169.92 597.11 166.61 590.96 162.75 584.68 159.11 578.13 156 571.88 152.29 565.47 149.1 569.81 144.09 574.58 139.36 579.31 134.59 583.58 129.38 588.68 124.97 593.46 120.22 597.8 115.25 604.31 118.17 610.51 121.93 617.1 124.98 623.48 128.41 629.96 131.66 636.32 135.14 642.35 139.23 649.1 141.97 655.41 145.56 661.83 149.1 656.96 153.85 652.84 159.2 647.61 163.49 643.31 168.68 638.68 173.55 633.65 178.03 629.25 182.76"/><polygon class="b" points="629.25 182.76 622.74 180.14 616.7 176.07 610.1 173.06 603.56 169.92 597.11 166.61 590.96 162.75 584.68 159.11 578.13 156 571.88 152.29 565.47 149.1 569.81 144.09 574.58 139.36 579.31 134.59 583.58 129.38 588.68 124.97 593.46 120.22 597.8 115.25 604.31 118.17 610.51 121.93 617.1 124.98 623.48 128.41 629.96 131.66 636.32 135.14 642.35 139.23 649.1 141.97 655.41 145.56 661.83 149.1 656.96 153.85 652.84 159.2 647.61 163.49 643.31 168.68 638.68 173.55 633.65 178.03 629.25 182.76"/><polyline class="c" points="565.23 187.64 572.07 190.01 578 194.19 583.29 199.13 588.42 204.24 591.87 210.62 596.06 216.56 597.84 223.61 600.32 230.39 601.26 237.55 601.62 244.74 601.51 251.93 601.64 259.16 600.61 266.48 600.62 273.86 600.49 281.23 599.49 288.59 600.02 295.96 600.78 303.3 601.38 310.63 602.12 317.96 603.5 325.19 604.56 332.49 606.41 339.65 609.37 346.42 612.62 353 615.69 359.71 620.03 365.7 625.16 371.06"/><polyline class="c" points="629.3 401.8 622.95 404.88 617.65 409.57 611.65 413.37 607.2 418.86 602.21 423.87 598.26 429.73 595.57 436.27 592.01 442.39 590.08 449.17 588.03 455.94 587.53 462.99 586.95 470 587.38 477.03 586.97 484.12 588.4 491.06 589.79 497.97 591.23 504.88 593.34 511.63 596.04 518.15 598.83 524.64 601.55 531.16 605.2 537.24 608.1 543.69 610.72 550.28 611.4 557.31 610.3 564.23 605.92 569.69 600.9 574.58 595.5 579.18 591.9 585.27 588.18 591.34 586.7 598.3 585.79 605.33 586.19 612.4 586.2 619.5 587.38 626.49 588.83 633.44 590.93 640.23 593.49 646.85 596.3 653.37 600.2 659.31 603.98 665.25 608.09 670.97"/><polygon class="b" points="629.39 685.1 622.85 681.59 616.7 677.64 610.33 674.1 603.84 670.77 597.41 667.32 591.08 663.7 584.47 660.58 578.3 656.66 571.57 653.76 565.57 649.78 565.78 642.76 565.03 635.61 564.86 628.46 565.02 621.31 565.43 614.16 565.01 607 565.6 599.85 565.13 592.7 565.31 585.55 564.94 578.4 565.43 571.25 565.12 564.09 565.72 556.94 565.07 549.79 565.76 542.64 565.84 535.49 565.4 528.33 565.74 521.18 565.7 514.03 564.85 506.87 565.8 499.72 564.93 492.57 565.2 485.42 565.32 478.26 565.26 471.11 564.87 463.96 565.31 456.8 565.3 449.65 565.69 442.5 565.55 435.34 565.01 428.19 565.24 421.04 565.5 413.88 565.08 406.73 565.13 399.57 564.89 392.42 565.44 385.26 565.64 378.11 565.66 370.96 565.72 363.8 565.27 356.65 564.93 349.5 565.26 342.35 564.93 335.19 565.66 328.04 564.96 320.89 564.95 313.74 565.1 306.58 565.35 299.43 564.88 292.27 564.94 285.12 565.64 277.97 565.04 270.81 565.01 263.66 565.76 256.5 565.08 249.34 564.98 242.19 565.53 235.03 565.23 227.87 565.39 220.72 565.66 213.56 565.04 206.4 565.81 199.25 565.23 192.09 565.69 184.93 565.45 177.77 565.69 170.62 565.47 163.46 565.21 156.29 565.42 149.25 571.82 152.47 578.37 155.69 584.73 159.25 590.98 163.02 597.09 167.06 603.83 169.93 610.24 173.41 616.3 177.54 622.73 181 629.36 184.15 629.1 191.33 629.72 198.48 629.14 205.63 629.72 212.78 629.34 219.93 629.18 227.08 629.21 234.23 629.13 241.38 629.3 248.53 629.57 255.69 629.45 262.84 629.79 269.99 629.15 277.14 628.83 284.29 629.05 291.45 629.46 298.6 629.48 305.75 628.93 312.9 629.6 320.06 629.45 327.21 629.25 334.36 628.97 341.51 628.84 348.67 629.64 355.82 629.47 362.97 629.51 370.12 629.72 377.28 629.37 384.43 629.02 391.58 628.85 398.74 629.67 405.89 629.18 413.05 629.81 420.2 628.86 427.35 629.36 434.51 629.27 441.66 629.62 448.82 629.14 455.97 629.57 463.13 629.62 470.28 628.84 477.44 628.97 484.59 629.75 491.74 629.58 498.89 629.53 506.04 628.91 513.19 629.75 520.34 629.03 527.5 628.88 534.65 629.56 541.81 629.19 548.96 629.75 556.12 629.47 563.27 629.21 570.42 629.14 577.58 629.16 584.74 629.64 591.89 628.99 599.05 629.52 606.21 629.16 613.37 629.19 620.52 629.26 627.68 628.86 634.84 629.12 641.99 629.65 649.15 629.74 656.31 629.77 663.46 629.72 670.63 629.57 677.79 629.39 685.1"/></svg>