<?xml version="1.0" encoding="utf-8"?>
<!-- Generator: Adobe Illustrator 20.0.0, SVG Export Plug-In . SVG Version: 6.00 Build 0)  -->
<svg version="1.1" id="Layer_1" xmlns="http://www.w3.org/2000/svg" xmlns:xlink="http://www.w3.org/1999/xlink" x="0px" y="0px"
	 viewBox="0 0 801 801" style="enable-background:new 0 0 801 801;" xml:space="preserve">
<style type="text/css">
	.st0{fill:#FFFFFF;}
	.st1{fill:none;stroke:#000000;stroke-width:13;stroke-linecap:round;stroke-linejoin:round;}
	.st2{fill:none;stroke:#000000;stroke-width:13;stroke-miterlimit:10;}
	.st3{fill:none;stroke:#FFFFFF;stroke-width:13;stroke-linecap:round;stroke-miterlimit:10;}
	.st4{fill:none;stroke:#FFFFFF;stroke-width:5;stroke-linecap:round;stroke-linejoin:round;}
	.st5{fill:none;stroke:#FFFFFF;stroke-width:8;stroke-linecap:round;stroke-linejoin:round;}
	.st6{fill:none;stroke:#000000;stroke-width:10;stroke-linecap:round;stroke-linejoin:round;}
	.st7{fill:none;stroke:#000000;stroke-width:11;stroke-linecap:round;stroke-linejoin:round;}
</style>
<title>stikk</title>
<rect x="0.5" y="0.5" class="st0" width="800" height="800"/>
<path class="st1" d="M60.7,487.6c0.4,2.4,2.3,0.6,4.7,1s2.4,0.1,4.8,0.5s2.4,0.2,4.8,0.6s2.3,0.7,4.7,1.1l4.8,0.8
	c2.4,0.4,2.4,0.1,4.8,0.5s2.3,0.8,4.7,1.1s2.4,0.4,4.8,0.8s2.4,0.4,4.8,0.8s2.4,0.5,4.7,0.9s2.4,0.2,4.8,0.6s2.3,0.6,4.7,1
	s2.4,0.2,4.8,0.6s2.4,0.5,4.7,0.9s2.4,0.5,4.7,0.9s2.4,0.5,4.7,0.9s2.4,0.3,4.8,0.7s2.4,0.5,4.7,0.9s2.4,0.4,4.7,0.8
	s2.4,0.3,4.8,0.7s2.4,0.3,4.8,0.7s2.4,0.2,4.8,0.6s2.4,0.5,4.7,0.9s2.3,0.7,4.7,1.1s2.4,0.1,4.8,0.5l4.8,0.8
	c2.4,0.4,2.4,0.5,4.7,0.9s2.4,0.3,4.8,0.7s2.4,0.3,4.8,0.7s2.3,0.8,4.7,1.2s2.4,0.2,4.8,0.6s2.4,0.5,4.7,0.9s2.4,0.3,4.8,0.7
	s2.4,0.2,4.8,0.6s2.4,0.4,4.8,0.8s2.3,0.6,4.7,1s2.4,0.5,4.7,0.9s2.4,0,4.8,0.4s2.4,0.5,4.7,0.9s2.3,0.6,4.7,1l4.8,0.8
	c2.4,0.4,2.3,0.6,4.7,1l4.8,0.8c2.4,0.4,2.4,0.2,4.8,0.6s2.3,0.6,4.7,1s2.4,0.1,4.8,0.5s2.4,0.4,4.8,0.8l4.8,0.8
	c2.4,0.4,2.4,0.4,4.8,0.8s2.3,0.7,4.7,1.1s2.4,0.1,4.8,0.5s2.4,0.5,4.7,0.9s2.3,0.6,4.7,1s2.4,0.5,4.7,0.9s2.4,0,4.8,0.4
	s2.3,0.8,4.7,1.2s2.4,0.3,4.8,0.7s2.4,0.2,4.8,0.6l4.8,0.8c2.4,0.4,2.4,0.5,4.7,0.9s2.4,0.3,4.8,0.7s2.4,0.5,4.7,0.9
	s2.4,0.1,4.8,0.5s2.4,0.4,4.8,0.8s2.3,0.8,4.7,1.2s2.4,0.4,4.8,0.8s2.4,0.2,4.8,0.6s2.4,1,4.7,0.6s2.1-1.3,4.3-2.5s2.3-1.1,4.5-2.4
	s2.2-1.3,4.4-2.6s2.3-1,4.5-2.3s2-1.5,4.2-2.8s2.2-1.2,4.4-2.5s2.4-1,4.5-2.3s2.1-1.4,4.3-2.7s4.7,0,4.5-2.5s-2.5-0.2-4.9-0.6
	l-4.7-0.8c-2.4-0.4-2.3-0.6-4.7-1s-2.4-0.2-4.7-0.6s-2.3-0.7-4.6-1.1s-2.4-0.3-4.7-0.7s-2.3-0.6-4.7-1s-2.4-0.1-4.8-0.5
	s-2.3-0.7-4.6-1.1s-2.4,0.1-4.8-0.3l-4.7-0.8c-2.4-0.4-2.3-0.7-4.6-1.1s-2.4-0.1-4.8-0.5s-2.3-0.8-4.6-1.2l-4.7-0.8
	c-2.4-0.4-2.4,0-4.8-0.5s-2.3-0.5-4.7-0.9s-2.3-0.6-4.7-1s-2.4-0.4-4.7-0.8s-2.3-0.5-4.7-0.9s-2.4,0-4.8-0.4s-2.4-0.4-4.7-0.8
	s-2.4-0.4-4.7-0.8s-2.3-0.6-4.7-1s-2.4-0.3-4.7-0.7s-2.3-0.6-4.7-1s-2.4-0.2-4.7-0.6s-2.3-0.7-4.6-1.1s-2.3-0.5-4.7-0.8
	s-2.4-0.1-4.8-0.5s-2.3-0.5-4.7-0.9l-4.7-0.8c-2.4-0.4-2.3-0.5-4.7-0.9s-2.4-0.3-4.7-0.7s-2.4-0.3-4.7-0.7s-2.3-0.8-4.6-1.2
	s-2.4-0.1-4.8-0.5s-2.4-0.3-4.7-0.7s-2.3-0.6-4.7-1s-2.4-0.3-4.7-0.7s-2.3-0.5-4.7-0.9s-2.3-0.6-4.7-1s-2.4-0.2-4.7-0.6
	s-2.3-0.6-4.7-1s-2.4-0.1-4.8-0.5s-2.3-0.8-4.6-1.2s-2.4-0.2-4.7-0.5s-2.4-0.3-4.7-0.7s-2.3-0.5-4.7-0.9s-2.4-0.2-4.7-0.6
	s-2.3-0.4-4.7-0.8s-2.4-0.4-4.7-0.8s-2.4-0.3-4.7-0.7l-4.7-0.8c-2.4-0.4-2.3-0.8-4.6-1.2s-2.4-0.1-4.8-0.5s-2.3-0.7-4.6-1.1
	s-2.4-0.3-4.7-0.7s-2.4-0.4-4.7-0.8s-2.4-0.3-4.7-0.7s-2.3-0.6-4.7-1s-2.4-0.2-4.7-0.6s-2.4-0.3-4.7-0.7s-2.3-0.6-4.7-1
	s-2.4-0.2-4.7-0.6s-2.3-0.7-4.7-1.1s-2.4-0.1-4.8-0.5s-2.3-1.2-4.7-0.9s-2.1,1-4.3,2.2s-2.2,1-4.3,2.1s-2.1,1.3-4.2,2.4
	s-2.2,1-4.3,2.2s-2,1.3-4.2,2.4s-2.2,0.9-4.3,2.1s-2.1,1.2-4.2,2.4s-2.2,1-4.3,2.1s-2,1.5-4.3,2C62.2,485.8,60.3,485.2,60.7,487.6z"
	/>
<path class="st1" d="M60.9,487.5c-1.8,1.6-0.2,2.2-0.1,4.6s0.3,2.4,0.4,4.8s0,2.4,0.1,4.8s0.2,2.4,0.3,4.8s0.2,2.4,0.3,4.8
	s0,2.4,0.1,4.8s0,2.4,0.1,4.8s0.4,2.4,0.5,4.8s0.3,2.4,0.4,4.8s0,2.4,0.2,4.8s0,2.4,0.1,4.8s0.1,2.4,0.2,4.8s0,2.4,0.2,4.8
	s0.2,2.4,0.3,4.8s0.2,2.4,0.3,4.8s0.2,2.4,0.3,4.8s0,2.4,0.1,4.8s-0.2,2.4-0.1,4.8s0.5,2.4,0.7,4.8s-0.3,2.4-0.2,4.8
	s0.4,2.4,0.5,4.8s0.3,2.4,0.4,4.8s-0.3,2.4-0.2,4.8s0.5,2.4,0.6,4.8s0.2,2.4,0.3,4.8s0.1,2.4,0.2,4.8s-0.2,2.4-0.1,4.8
	s0.1,2.4,0.3,4.8s0.3,2.4,0.4,4.8s0,2.4,0.1,4.8s-1.2,2.9,0.4,4.7s2.3,0.4,4.6,0.8s2.3,0.6,4.7,1s2.4,0.3,4.8,0.7s2.3,0.5,4.7,0.9
	s2.3,0.6,4.7,1s2.4,0.3,4.8,0.7s2.4,0.5,4.7,0.9s2.4,0.4,4.8,0.8s2.4,0.3,4.8,0.7s2.4,0.5,4.7,0.9s2.4,0.5,4.7,0.9s2.4,0.3,4.8,0.7
	s2.4,0.4,4.7,0.8c2.4,0.4,2.4,0.3,4.8,0.7s2.4,0.2,4.8,0.6s2.3,0.8,4.7,1.2s2.4,0.1,4.8,0.5s2.4,0.3,4.8,0.7l4.8,0.8
	c2.4,0.4,2.3,0.6,4.7,1s2.4,0.6,4.7,1s2.4,0.5,4.7,0.9s2.4,0.5,4.7,0.8s2.4,0,4.8,0.4s2.3,0.8,4.7,1.2s2.4,0.1,4.8,0.5
	s2.4,0.5,4.7,0.9s2.4,0.1,4.8,0.5s2.3,0.6,4.7,1s2.4,0.2,4.8,0.5s2.3,0.8,4.7,1.2s2.4,0.3,4.8,0.7s2.4,0.6,4.7,1s2.4,0.4,4.7,0.8
	s2.4,0.4,4.8,0.8s2.4,0,4.8,0.4s2.3,0.8,4.7,1.2s2.4,0.3,4.8,0.7s2.4,0.2,4.8,0.6l4.7,0.8c2.4,0.4,2.4,0.3,4.8,0.7s2.3,0.7,4.7,1.1
	s2.4,0.6,4.7,1l4.8,0.8c2.4,0.4,2.4,0.3,4.8,0.7s2.4,0.1,4.8,0.5s2.3,0.7,4.7,1s2.4,0.3,4.8,0.7s2.4,0.5,4.7,0.9s2.4,0.2,4.8,0.6
	s2.4,0.6,4.7,1s2.4,0.4,4.7,0.8s2.4,0.2,4.8,0.6s2.3,0.6,4.7,1l4.8,0.8c2.4,0.4,2.4,0.2,4.8,0.6s2.4,0.4,4.8,0.8s2.4,0.4,4.7,0.8
	s2.4,0.6,4.7,1s2.4,0.2,4.8,0.6s2.3,0.6,4.7,1s2.4,0.5,4.7,0.9l4.8,0.8c2.4,0.4,2.4,0.3,4.8,0.7s2.4,0.5,4.7,0.8s2.4,0.2,4.8,0.6
	s2.4,0.6,4.7,1s2.9,2.1,4.7,0.6s0.1-2.2,0-4.5s-0.4-2.3-0.5-4.6s0.1-2.3,0-4.6s-0.4-2.3-0.5-4.6s0.3-2.3,0.2-4.6s-0.4-2.3-0.5-4.6
	s0.2-2.3,0.1-4.6s-0.4-2.3-0.5-4.6s0.1-2.3,0-4.6s1.1-2.7-0.5-4.4c-1.7-1.8-2.3-0.5-4.8-1s-2.4-0.7-4.9-1.2l-4.9-1
	c-2.5-0.5-2.5-0.5-4.9-1s-2.5-0.3-5-0.7s-2.4-0.7-4.9-1.2s-3.2,1-4.9-0.9s-0.2-2.3-0.3-4.7s0-2.4-0.1-4.8s-0.3-2.4-0.5-4.7
	s0-2.4-0.1-4.8s-0.4-2.4-0.5-4.7s0-2.4-0.1-4.8s-0.1-2.4-0.2-4.8s0.1-2.4,0-4.8s-0.5-2.4-0.6-4.7s0.3-2.4,0.2-4.8s-2.2-3.2-0.4-4.7
	s2.4,0.7,4.9,1.1s2.5,0,5,0.5s2.4,0.8,4.9,1.2s2.5,0,5,0.4s2.4,0.9,4.9,1.3s2.5,0.1,5,0.5s3.1,2.6,5,1s0-2.5-0.1-5s-0.5-2.4-0.6-4.9
	s0-2.5-0.1-4.9s-0.2-2.4-0.4-4.9s0.2-2.5,0.1-4.9s-0.2-2.4-0.3-4.9s0-2.5-0.1-4.9s-0.4-2.4-0.5-4.9s0.2-2.5,0.1-4.9s1-2.9-0.6-4.7
	s-2.2-0.7-4.6-1.1s-2.4-0.5-4.7-0.9s-2.5,0.1-4.8-0.3s-2.3-0.7-4.7-1.1s-2.4-0.5-4.7-0.9s-2.4,0-4.8-0.4s-2.3-0.6-4.7-1
	s-2.4-0.3-4.8-0.7s-2.4-0.5-4.7-0.9s-2.3-0.6-4.7-1s-2.4-0.4-4.8-0.8s-2.4-0.3-4.8-0.7s-2.3-0.6-4.7-1s-2.4,0-4.8-0.4l-4.8-0.8
	c-2.4-0.4-2.4-0.5-4.7-0.8s-2.3-0.8-4.7-1.2s-2.4-0.2-4.8-0.6s-2.4-0.3-4.8-0.8s-2.4-0.2-4.8-0.6s-2.3-0.6-4.7-1s-2.3-0.7-4.7-1.1
	s-2.4-0.1-4.8-0.5s-2.4-0.2-4.8-0.6s-2.3-0.7-4.7-1.1l-4.8-0.8c-2.4-0.4-2.4-0.1-4.8-0.5s-2.3-0.8-4.7-1.2s-2.4-0.4-4.8-0.8
	s-2.4-0.4-4.8-0.8s-2.4-0.5-4.7-0.9s-2.4-0.2-4.8-0.6s-2.3-0.6-4.7-1s-2.4-0.2-4.8-0.6s-2.4-0.5-4.7-0.9s-2.4-0.5-4.7-0.9
	s-2.4-0.5-4.7-0.9s-2.4-0.3-4.8-0.7s-2.4-0.5-4.7-0.9s-2.4-0.4-4.7-0.8s-2.4-0.3-4.8-0.7s-2.4-0.3-4.8-0.7s-2.4-0.2-4.8-0.6
	s-2.4-0.5-4.7-0.9s-2.3-0.7-4.7-1.1s-2.4-0.1-4.8-0.5l-4.8-0.8c-2.4-0.4-2.4-0.5-4.7-1s-2.4-0.3-4.8-0.7s-2.4-0.3-4.8-0.7
	s-2.3-0.8-4.7-1.2s-2.4-0.2-4.8-0.6s-2.4-0.5-4.7-0.9s-2.4-0.3-4.8-0.7s-2.4-0.2-4.8-0.6s-2.4-0.4-4.8-0.8s-2.3-0.6-4.7-1
	s-2.4-0.5-4.7-0.9s-2.4,0-4.8-0.4s-2.4-0.5-4.7-0.9s-2.3-0.6-4.7-1l-4.8-0.8c-2.4-0.4-2.3-0.6-4.7-1l-4.8-0.8
	c-2.4-0.4-2.4-0.2-4.8-0.6s-2.3-0.6-4.7-1s-2.6,0.4-4.8-0.5S62.7,485.9,60.9,487.5z"/>
<path class="st1" d="M390.3,690.1l4.4-2.5c2.2-1.3,2.1-1.4,4.3-2.7s2.2-1.3,4.4-2.6s2.4-0.9,4.6-2.2s2-1.6,4.2-2.9s2.3-1.1,4.5-2.3
	s2.3-1.1,4.5-2.4s2.2-1.3,4.4-2.6s2.9-0.6,4.1-2.8s0.1-2.4,0-4.9s-0.3-2.5-0.4-5s-0.2-2.5-0.3-5s0.3-2.5,0.2-5s-0.3-2.5-0.4-5"/>
<path class="st1" d="M385.6,590.8c2.2-1.3,2.1-1.3,4.3-2.6s2.3-1.1,4.5-2.3l4.4-2.5c2.2-1.3,2.1-1.5,4.3-2.7s2.2-1.2,4.4-2.4
	s2.3-1.1,4.5-2.3s2.1-1.4,4.3-2.6s2.1-1.4,4.3-2.6s3.3-0.2,4.5-2.3s0-2.5-0.1-5s-0.4-2.4-0.5-4.9s-0.1-2.4-0.2-4.9s-0.2-2.4-0.4-4.9
	s0-2.5-0.1-4.9s-0.2-2.4-0.3-4.9s-0.2-2.4-0.3-4.9s0.2-2.5,0.1-4.9s-0.1-2.5-0.2-4.9s1.7-3.6-0.5-4.7s-2.2,0.9-4.4,2.2
	s-2.2,1.3-4.4,2.5s-2,1.5-4.2,2.8s-2.2,1.2-4.4,2.5l-4.4,2.6c-2.2,1.3-2.1,1.4-4.3,2.6s-2.2,1.3-4.4,2.5s-2.4,0.9-4.6,2.2
	s-2,1.6-4.2,2.8"/>
<path class="st1" d="M453.4,524.1"/>
<path class="st1" d="M60.7,487.3c-1.8,1.7,0,2.5,0.1,4.9s0.3,2.4,0.4,4.9s0.2,2.4,0.3,4.9s0.2,2.4,0.3,4.9s0,2.5,0.1,4.9
	c0.1,2.4-0.1,2.4,0,4.9s0.2,2.4,0.3,4.9s0.1,2.4,0.2,4.9s0.3,2.4,0.4,4.9s-1.4,3,0.2,4.9s2.3,0.4,4.6,0.8s2.3,0.6,4.6,1
	s2.3,0.2,4.7,0.5s2.3,0.5,4.6,0.9s2.3,0.4,4.6,0.8s2.4,0,4.7,0.4l4.6,0.8c2.3,0.4,2.2,0.8,4.5,1.2s2.4-0.1,4.7,0.3s2.3,0.5,4.6,0.9
	s2.3,0.6,4.6,1s2.3,0.2,4.7,0.6s2.3,0.7,4.6,1s3.1,2.3,4.8,0.7c1.7-1.6-0.4-2.6-0.5-5s0.1-2.4,0-4.9s-0.2-2.4-0.3-4.9s0-2.4-0.1-4.9
	s-0.1-2.4-0.2-4.9s-0.5-2.4-0.6-4.8s0.1-2.4,0-4.9s-0.3-2.4-0.4-4.9s0.1-2.5,0-4.9s1.4-3-0.2-4.9s-2.3-0.5-4.6-0.9s-2.3-0.4-4.6-0.8
	s-2.3-0.3-4.6-0.7s-2.3-0.4-4.6-0.8s-2.3-0.2-4.6-0.6s-2.3-0.3-4.6-0.7s-2.3-0.6-4.6-1l-4.6-0.8c-2.3-0.4-2.3-0.2-4.7-0.6
	s-2.3-0.5-4.6-0.9s-2.3-0.6-4.6-1s-2.3-0.3-4.6-0.7s-2.5,0.3-4.7-0.7C62.9,487.2,62.4,485.7,60.7,487.3z"/>
<path class="st1" d="M125.4,498.4c-1.8,1.7,0,2.3,0.1,4.8s0.2,2.4,0.3,4.9s-0.1,2.5,0,4.9s0.3,2.4,0.4,4.9s0.1,2.4,0.2,4.9
	s0.1,2.4,0.2,4.9s0,2.5,0.1,4.9s0.4,2.4,0.5,4.9s0,2.5,0.2,4.9s-1.5,3.1,0.1,5s2.5,0.1,4.8,0.5s2.3,0.4,4.6,0.8s2.3,0.3,4.6,0.7
	s2.3,0.5,4.6,0.9s2.3,0.3,4.6,0.7s2.3,0.3,4.6,0.7s2.3,0.7,4.6,1.1s2.3,0.4,4.6,0.8s2.4,0,4.7,0.4l4.6,0.8c2.3,0.4,2.2,0.8,4.6,1.2
	s2.4,0.1,4.7,0.5s2.3,0.5,4.6,0.8s2.8,2.2,4.5,0.6s0.1-2.3,0-4.7s-0.3-2.4-0.4-4.8s-0.2-2.4-0.4-4.9s0.4-2.5,0.2-4.9
	s-0.5-2.4-0.6-4.8s0-2.4-0.1-4.9s-0.1-2.4-0.2-4.9s0.1-2.4-0.1-4.9s-0.2-2.4-0.3-4.9s1.1-2.9-0.5-4.8s-2.2-0.5-4.5-0.9
	s-2.3-0.5-4.6-0.9s-2.4-0.1-4.7-0.5s-2.3-0.6-4.6-1s-2.3-0.5-4.6-0.9s-2.3-0.2-4.6-0.6s-2.3-0.4-4.6-0.8s-2.3-0.3-4.6-0.7
	s-2.3-0.5-4.6-0.9s-2.3-0.6-4.6-1s-2.3-0.4-4.6-0.7l-4.6-0.8c-2.3-0.4-2.5,0.3-4.7-0.6S127.1,496.8,125.4,498.4z"/>
<path class="st1" d="M189.8,509.2c-1.8,1.7,0.3,2.5,0.4,5c0.1,2.5-0.1,2.5,0,4.9s0.4,2.4,0.5,4.9s-0.3,2.5-0.1,4.9s0.2,2.4,0.3,4.9
	s0.2,2.4,0.3,4.9s0.1,2.4,0.2,4.9s0,2.5,0.2,4.9s0.2,2.4,0.3,4.9s-1.2,3,0.4,4.9s2.3,0.5,4.6,0.9s2.3,0.2,4.6,0.6s2.3,0.2,4.6,0.6
	s2.3,0.6,4.6,1s2.3,0.5,4.6,0.9s2.3,0.3,4.6,0.7s2.3,0.2,4.6,0.6s2.3,0.7,4.6,1s2.4,0.1,4.7,0.5s2.3,0.6,4.6,1s2.3,0.5,4.6,0.9
	s2.4,0,4.7,0.4s2.3,0.5,4.6,0.9s3,2.6,4.7,1s-0.4-2.6-0.5-5s0.1-2.4,0-4.9s-0.2-2.4-0.3-4.9s-0.4-2.4-0.5-4.8s0-2.4-0.1-4.9
	s-0.2-2.4-0.3-4.9s-0.2-2.4-0.3-4.9s0-2.4-0.2-4.9s0.1-2.5,0-4.9s1.3-3-0.3-4.9s-2.4-0.3-4.7-0.7s-2.3-0.2-4.6-0.6s-2.3-0.6-4.6-1
	s-2.3-0.2-4.6-0.6s-2.3-0.5-4.6-1s-2.3-0.4-4.6-0.8s-2.3-0.6-4.6-1s-2.3-0.2-4.6-0.6l-4.6-0.8c-2.3-0.4-2.3-0.4-4.6-0.8
	s-2.3-0.5-4.6-0.9s-2.4-0.1-4.7-0.5s-2.4,0.1-4.6-0.9C192.1,509,191.5,507.6,189.8,509.2z"/>
<path class="st1" d="M254.5,520.3c-1.8,1.7,0.3,2.4,0.5,4.8s-0.3,2.5-0.2,4.9s0.4,2.4,0.5,4.9s0,2.5,0.1,4.9s-0.1,2.5,0.1,4.9
	s0.2,2.4,0.3,4.9s0,2.5,0.1,4.9c0.1,2.4,0.1,2.4,0.3,4.9s0.5,2.4,0.6,4.9s-1.5,3,0.1,4.8s2.3,0.3,4.6,0.7l4.6,0.8
	c2.3,0.4,2.2,0.8,4.5,1.2s2.3,0.3,4.6,0.7s2.3,0.4,4.6,0.8l4.6,0.8c2.3,0.4,2.4,0.1,4.7,0.5s2.3,0.6,4.6,1s2.3,0.3,4.6,0.7
	s2.3,0.3,4.6,0.7s2.3,0.5,4.6,0.9s2.3,0.6,4.6,1s2.3,0.3,4.6,0.7s3,2.3,4.7,0.7s-0.2-2.5-0.3-5s0-2.4-0.2-4.9s-0.4-2.4-0.5-4.8
	s0.3-2.5,0.2-4.9s-0.4-2.4-0.5-4.8s-0.1-2.4-0.2-4.9l-0.2-4.9c-0.1-2.4,0.2-2.5,0-4.9s-0.4-2.4-0.6-4.9s1.7-3.2,0.1-5
	s-2.4-0.5-4.7-0.9s-2.3-0.3-4.6-0.7s-2.3-0.4-4.6-0.8s-2.3-0.4-4.6-0.8s-2.4-0.1-4.6-0.5s-2.3-0.6-4.6-1s-2.4-0.1-4.7-0.5
	s-2.2-0.8-4.5-1.2s-2.3-0.3-4.6-0.7s-2.3-0.3-4.6-0.7s-2.3-0.4-4.6-0.8s-2.3-0.5-4.6-0.9s-2.4,0.2-4.6-0.7
	C256.8,520,256.2,518.7,254.5,520.3z"/>
<path class="st1" d="M319.2,531.4c-1.8,1.7,0.1,2.3,0.2,4.7s-0.3,2.5-0.1,4.9s0.5,2.4,0.7,4.9s0,2.5,0.1,4.9s0.2,2.4,0.3,4.9
	s0.2,2.4,0.3,4.9s-0.3,2.5-0.2,4.9s0.5,2.4,0.6,4.9s0.1,2.5,0.2,4.9s-1.5,3,0.1,4.9s2.2,0.6,4.5,1l4.6,0.8c2.3,0.4,2.4,0,4.7,0.4
	s2.3,0.7,4.6,1s2.3,0.2,4.6,0.5s2.3,0.3,4.6,0.7s2.3,0.5,4.6,0.8s2.3,0.7,4.6,1s2.3,0.2,4.6,0.6s2.3,0.5,4.6,0.9s2.3,0.3,4.6,0.7
	s2.3,0.5,4.6,0.9s2.4,0.2,4.7,0.5s2.8,2.3,4.5,0.7s-0.2-2.3-0.3-4.7s0.3-2.5,0.1-4.9s-0.2-2.4-0.3-4.9s-0.4-2.4-0.6-4.8
	s0.3-2.5,0.2-4.9s-0.6-2.4-0.7-4.8s0-2.4-0.1-4.9s0.2-2.5,0.1-4.9s-0.3-2.4-0.4-4.9s1.4-3.1-0.2-4.9s-2.3-0.4-4.6-0.8
	s-2.3-0.3-4.6-0.7s-2.3-0.4-4.6-0.8s-2.3-0.4-4.6-0.8s-2.3-0.2-4.6-0.6s-2.2-0.8-4.5-1.2s-2.4-0.1-4.7-0.5s-2.3-0.5-4.6-0.9
	s-2.3-0.6-4.6-1s-2.3-0.3-4.6-0.7s-2.3-0.5-4.6-0.9l-4.6-0.8c-2.3-0.4-2.5,0.5-4.7-0.4S320.9,529.8,319.2,531.4z"/>
<path class="st1" d="M93.2,541.5c-1.7,1.5,0.3,2.3,0.4,4.6s-0.2,2.3-0.1,4.7s0.3,2.3,0.4,4.6s0.1,2.3,0.2,4.6s0.3,2.3,0.4,4.6
	s-0.2,2.3-0.1,4.7s0.5,2.3,0.6,4.6s0.1,2.3,0.2,4.6s0,2.3,0.1,4.6s-0.2,2.3-0.1,4.7s0.2,2.3,0.3,4.6s-1.1,2.8,0.5,4.5
	s2.3,0.2,4.6,0.5s2.3,0.4,4.6,0.7s2.3,0.7,4.6,1s2.3,0.3,4.6,0.7s2.3,0.5,4.6,0.8s2.3,0.2,4.6,0.5s2.3,0.3,4.6,0.7s2.3,0.1,4.6,0.5
	s2.3,0.4,4.6,0.8s2.3,0.3,4.6,0.7s2.3,0.3,4.6,0.6s2.3,0.5,4.6,0.9s2.3,0.6,4.6,0.9s3,2.2,4.7,0.6s-0.4-2.5-0.5-5s0.3-2.5,0.1-5
	s-0.2-2.5-0.3-5s0-2.5-0.2-5s-0.5-2.5-0.6-5s-0.2-2.5-0.3-5s0.2-2.5,0.1-5s-0.3-2.5-0.4-5s0.1-2.5,0-5s-0.1-2.5-0.3-5s1.2-3.1-0.4-5
	s-2.3-0.6-4.6-0.9s-2.4,0-4.7-0.4s-2.3-0.3-4.6-0.7s-2.3-0.5-4.6-0.8s-2.2-0.8-4.6-1.1s-2.4,0-4.7-0.3s-2.3-0.5-4.6-0.9
	s-2.3-0.3-4.6-0.7s-2.3-0.3-4.6-0.7s-2.2-0.8-4.5-1.2s-2.4,0-4.7-0.4s-2.3-0.4-4.6-0.8s-2.4,0-4.6-0.9
	C95.4,541.3,95,539.9,93.2,541.5z"/>
<path class="st1" d="M157.7,552c-1.8,1.7,0,2.6,0.1,5.1s0.2,2.5,0.3,5s0.1,2.5,0.2,5s0.2,2.5,0.3,5s0,2.5,0.1,5s0.6,2.5,0.7,5
	s-0.3,2.5-0.1,5s0.1,2.5,0.2,5s0.3,2.5,0.4,5s0.2,2.5,0.4,5s-1.6,3.2,0,5.1s2.4,0.3,4.7,0.7s2.3,0.2,4.6,0.6s2.2,0.8,4.6,1.1
	s2.3,0.3,4.6,0.7s2.4,0.1,4.7,0.4s2.3,0.7,4.6,1s2.3,0.3,4.6,0.6s2.3,0.2,4.6,0.5s2.3,0.6,4.6,1s2.3,0.5,4.6,0.8s2.3,0.4,4.6,0.8
	s2.3,0.2,4.6,0.6s2.3,0.2,4.6,0.6s3,2.5,4.6,0.9s0-2.5-0.1-5s-0.4-2.5-0.5-5s-0.2-2.5-0.3-5s0-2.5-0.1-5s0.1-2.5-0.1-5
	s-0.3-2.5-0.4-5s-0.1-2.5-0.2-5s-0.2-2.5-0.3-5s-0.2-2.5-0.3-5s0.1-2.5,0-5s1.3-3.1-0.3-5s-2.3-0.4-4.6-0.8s-2.3-0.3-4.6-0.7
	s-2.3-0.5-4.6-0.8s-2.3-0.3-4.6-0.7s-2.3-0.2-4.6-0.6s-2.3-0.7-4.6-1.1s-2.3-0.3-4.6-0.6l-4.6-0.8c-2.3-0.4-2.3-0.2-4.6-0.6
	s-2.3-0.7-4.6-1.1s-2.4,0-4.7-0.4l-4.6-0.8c-2.3-0.4-2.4,0-4.6-0.9C160,551.9,159.4,550.4,157.7,552z"/>
<path class="st1" d="M222.4,562.9c-1.8,1.7-0.3,2.4-0.1,4.9s0.5,2.5,0.6,5s0.1,2.5,0.3,5s-0.1,2.5,0,5s0.1,2.5,0.2,5s0.1,2.5,0.2,5
	s0.2,2.5,0.3,5s0.2,2.5,0.3,5s0,2.5,0.1,5s0.3,2.5,0.4,5s-1.3,3,0.4,4.8s2.2,0.3,4.5,0.6s2.3,0.5,4.6,0.9l4.6,0.7
	c2.3,0.3,2.3,0.6,4.6,0.9s2.3,0.1,4.6,0.4s2.3,0.6,4.6,0.9s2.3,0.2,4.6,0.5s2.3,0.6,4.6,1s2.4,0,4.7,0.3s2.3,0.3,4.6,0.6l4.6,0.7
	c2.3,0.3,2.3,0.6,4.6,1s2.3,0.2,4.6,0.5s2.8,2.4,4.5,0.8s0.1-2.3,0-4.8s-0.2-2.4-0.3-4.8s-0.3-2.4-0.4-4.8s0-2.4-0.1-4.8
	s-0.3-2.4-0.4-4.8s0.3-2.4,0.1-4.8s0-2.4-0.1-4.8s-0.6-2.4-0.7-4.8s0.4-2.4,0.2-4.9s-0.4-2.4-0.5-4.8s1.3-2.9-0.3-4.8
	s-2.2-0.3-4.5-0.7s-2.2-0.8-4.5-1.2s-2.3-0.3-4.6-0.7s-2.3-0.5-4.6-0.9s-2.3-0.3-4.6-0.8l-4.6-0.8c-2.3-0.4-2.3-0.3-4.6-0.7
	s-2.3-0.5-4.6-1s-2.4,0-4.7-0.4s-2.2-0.8-4.6-1.2l-4.6-0.8c-2.3-0.4-2.3-0.2-4.6-0.6s-2.5,0.2-4.7-0.7S224.1,561.3,222.4,562.9z"/>
<path class="st1" d="M287,574.3c-1.8,1.6-0.1,2.4,0,4.8s0.5,2.4,0.7,4.8s-0.2,2.4-0.1,4.9s0.2,2.4,0.3,4.8s0.1,2.4,0.2,4.9
	s0,2.4,0.1,4.9s0.1,2.4,0.2,4.8s0.3,2.4,0.4,4.8s0.2,2.4,0.3,4.8s0,2.4,0.1,4.9s-1.4,3.1,0.2,5s2.5,0.2,4.8,0.5s2.3,0.2,4.6,0.6
	s2.3,0.3,4.6,0.7s2.3,0.6,4.6,1s2.3,0.3,4.6,0.6s2.3,0.3,4.6,0.6s2.3,0.5,4.6,0.8s2.3,0.2,4.6,0.5s2.3,0.7,4.6,1l4.6,0.7
	c2.3,0.3,2.4,0,4.7,0.3s2.3,0.7,4.6,1.1s2.3,0.4,4.6,0.8s3,2.1,4.7,0.5s-0.1-2.4-0.2-4.8s-0.2-2.3-0.3-4.7s-0.4-2.3-0.5-4.7
	s0.3-2.4,0.2-4.7s0-2.3-0.2-4.7s-0.2-2.3-0.3-4.7s-0.5-2.3-0.6-4.7s-0.1-2.3-0.2-4.7s-0.1-2.3-0.2-4.7s-0.2-2.3-0.3-4.7
	s1.5-2.9,0-4.7s-2.3-0.4-4.6-0.8s-2.3-0.2-4.6-0.7s-2.2-0.8-4.5-1.3s-2.4,0-4.7-0.5l-4.6-0.8c-2.3-0.4-2.3-0.6-4.6-1
	s-2.3-0.5-4.6-0.9s-2.3-0.5-4.6-0.9s-2.3-0.4-4.6-0.8s-2.3-0.3-4.6-0.7s-2.3-0.5-4.6-0.9s-2.3-0.2-4.6-0.6s-2.5,0.3-4.7-0.7
	C289.1,574.3,288.7,572.7,287,574.3z"/>
<path class="st1" d="M351.5,585.6c-1.8,1.5,0.4,2.4,0.5,4.8s-0.2,2.4,0,4.7s0,2.4,0.1,4.7s0.1,2.4,0.2,4.7s0.6,2.3,0.7,4.7
	s-0.1,2.4,0,4.7s-0.1,2.4,0,4.7s0.2,2.4,0.3,4.7s0.3,2.3,0.5,4.7s0,2.4,0.1,4.7s-1.4,3,0.2,4.8s2.5,0.2,5,0.6s2.4,0.8,4.8,1.2
	s2.5,0,4.9,0.3s2.4,0.6,4.8,1s2.5,0.2,4.9,0.6s2.4,0.8,4.8,1.2l4.9,0.8c2.4,0.4,2.4,0.4,4.9,0.8s2.4,0.4,4.9,0.8s2.5,0,4.9,0.4
	s2.4,0.5,4.9,0.9s2.5,0.2,4.9,0.6s2.4,0.7,4.8,1.1s3,2.3,4.9,0.7s-0.1-2.3-0.3-4.7s-0.2-2.3-0.3-4.7s-0.1-2.3-0.3-4.7s0.1-2.4,0-4.7
	s0-2.4-0.1-4.7s-0.3-2.3-0.4-4.7s0-2.4-0.1-4.7s-0.4-2.3-0.5-4.7s0-2.4-0.1-4.7s0-2.4-0.1-4.7s1.3-3-0.3-4.8s-2.6-0.1-5-0.5
	s-2.4-0.5-4.9-0.9s-2.4-0.7-4.8-1.1s-2.5,0-4.9-0.4s-2.4-0.8-4.8-1.2s-2.5-0.3-4.9-0.7s-2.4-0.5-4.9-0.9s-2.4-0.5-4.9-0.9
	s-2.4-0.5-4.9-0.9s-2.5-0.2-4.9-0.6s-2.5-0.3-4.9-0.8s-2.4-0.5-4.9-1s-2.5,0.1-4.8-0.8C354,585.3,353.4,584,351.5,585.6z"/>
<path class="st1" d="M65.6,592.1c-1.7,1.5,0.1,2.5,0.2,4.8s0.3,2.3,0.4,4.6s0,2.3,0.2,4.6s0,2.3,0.1,4.6s0.2,2.3,0.3,4.6
	s0.3,2.3,0.4,4.6s0,2.3,0.1,4.6s0.3,2.3,0.4,4.6s-0.1,2.3,0,4.6s-1.3,2.8,0.2,4.6s2.3,0.4,4.6,0.8s2.3,0.5,4.6,0.9s2.3,0.4,4.6,0.8
	s2.3,0.2,4.6,0.6s2.3,0.3,4.6,0.6s2.3,0.5,4.6,0.9s2.3,0.2,4.6,0.5s2.3,0.5,4.6,0.8l4.6,0.7c2.3,0.4,2.3,0.2,4.6,0.6s2.3,0.7,4.6,1
	s2.3,0.3,4.6,0.7s2.4,0,4.7,0.3c2.3,0.3,2.8,2.5,4.6,0.9s0.1-2.3,0-4.6s-0.2-2.3-0.3-4.5s-0.2-2.3-0.3-4.5s-0.4-2.3-0.5-4.5
	s0.3-2.3,0.2-4.6s-0.1-2.3-0.2-4.6s-0.5-2.3-0.6-4.5s-0.1-2.3-0.2-4.6s0.3-2.3,0.2-4.6s1-2.8-0.5-4.4s-2.2-0.5-4.5-0.8
	s-2.3-0.4-4.6-0.8s-2.3-0.1-4.7-0.5s-2.3-0.6-4.6-1s-2.3-0.5-4.6-0.9s-2.3-0.4-4.6-0.8s-2.4,0.1-4.7-0.3s-2.3-0.6-4.6-1
	s-2.3-0.5-4.6-0.9s-2.3-0.3-4.6-0.7s-2.3-0.2-4.6-0.5s-2.3-0.5-4.6-0.8s-2.4,0.1-4.6-0.8C68,591.9,67.4,590.5,65.6,592.1z"/>
<path class="st1" d="M130.3,602.5c-1.7,1.5-0.1,2.3,0,4.6s0.3,2.3,0.4,4.6s0.1,2.3,0.3,4.6s0.3,2.3,0.4,4.6s0,2.3,0.2,4.6
	s0.2,2.3,0.4,4.6s0,2.3,0.1,4.6s0.2,2.3,0.3,4.6s0.1,2.3,0.2,4.6s-1.7,3-0.1,4.7s2.4,0.3,4.7,0.7s2.3,0.3,4.6,0.6s2.3,0.6,4.6,0.9
	s2.4,0,4.7,0.3l4.6,0.7c2.3,0.4,2.2,0.7,4.6,1.1s2.3,0.1,4.6,0.5s2.3,0.2,4.6,0.6s2.3,0.7,4.6,1.1s2.3,0.3,4.6,0.6s2.3,0.3,4.6,0.6
	s2.3,0.5,4.6,0.9s2.4,0,4.7,0.3s3,2.7,4.7,1.1s-0.2-2.5-0.3-4.7s-0.4-2.3-0.5-4.5s0-2.3-0.1-4.6s-0.1-2.3-0.2-4.6s0.2-2.3,0-4.6
	s-0.4-2.3-0.5-4.5s-0.1-2.3-0.3-4.5s0.2-2.3,0.1-4.6s-0.2-2.3-0.3-4.6s1.3-3-0.2-4.7s-2.4-0.2-4.7-0.5s-2.3-0.7-4.6-1.1
	s-2.3-0.3-4.6-0.6s-2.3-0.2-4.6-0.5s-2.3-0.4-4.6-0.8s-2.3-0.5-4.6-0.9s-2.3-0.3-4.6-0.7s-2.3-0.2-4.6-0.5s-2.3-0.5-4.6-0.8
	s-2.3-0.2-4.6-0.5s-2.3-0.6-4.6-1s-2.3-0.3-4.6-0.7s-2.4,0.1-4.6-0.8C132.6,602.3,132.1,601,130.3,602.5z"/>
<path class="st1" d="M194.8,612.8c-1.7,1.5,0.3,2.3,0.4,4.6s0.1,2.3,0.2,4.6s-0.1,2.3,0,4.6s0.3,2.3,0.4,4.6s-0.1,2.3,0,4.6
	s0.5,2.3,0.6,4.6s-0.1,2.3,0,4.6s-0.1,2.3,0,4.6s0.1,2.3,0.3,4.6s-1,2.8,0.5,4.5s2.2,0.6,4.5,1s2.3,0.2,4.6,0.6s2.3,0.3,4.6,0.7
	s2.3,0.3,4.6,0.6s2.3,0.7,4.6,1l4.6,0.7c2.3,0.4,2.3,0.1,4.6,0.5s2.3,0.3,4.6,0.6s2.2,0.8,4.5,1.2s2.3,0.1,4.6,0.5s2.3,0.2,4.6,0.6
	s2.3,0.7,4.6,1.1s2.3,0.3,4.6,0.6c2.3,0.4,2.9,2.2,4.6,0.7s0-2.3-0.1-4.6s0-2.3-0.2-4.6s-0.1-2.3-0.2-4.6s-0.2-2.3-0.3-4.5
	s-0.3-2.3-0.4-4.5s0-2.3-0.1-4.6s-0.3-2.3-0.4-4.5s-0.3-2.3-0.4-4.5s0.4-2.3,0.3-4.6s0.9-2.7-0.6-4.4s-2.1-0.7-4.4-1.1
	s-2.3-0.2-4.6-0.6s-2.3-0.5-4.6-0.9s-2.3-0.2-4.6-0.6s-2.3-0.3-4.6-0.7s-2.3-0.2-4.6-0.5s-2.3-0.4-4.6-0.8s-2.3-0.2-4.6-0.6
	s-2.3-0.5-4.6-0.9s-2.3-0.3-4.6-0.6l-4.6-0.7c-2.3-0.4-2.2-0.8-4.6-1.2s-2.4,0.2-4.6-0.7C197.2,612.5,196.6,611.3,194.8,612.8z"/>
<path class="st1" d="M259.4,623.1c-1.7,1.5,0.4,2.4,0.5,4.7s-0.3,2.3-0.1,4.6s0.4,2.3,0.5,4.6s-0.1,2.3,0,4.6s0.3,2.3,0.4,4.6
	s0.3,2.3,0.4,4.6s-0.3,2.3-0.2,4.6s0.3,2.3,0.4,4.6s0,2.3,0.1,4.6s-1.1,2.8,0.4,4.5s2.2,0.6,4.5,1s2.3,0.2,4.6,0.6s2.3,0.4,4.6,0.8
	s2.4,0,4.7,0.3s2.3,0.5,4.6,0.9s2.3,0.5,4.6,0.9s2.3,0.5,4.6,0.8s2.3,0.4,4.6,0.7s2.3,0.2,4.6,0.5s2.3,0.2,4.6,0.6s2.3,0.3,4.6,0.7
	s2.3,0.7,4.5,1.1s2.4,0,4.7,0.4s2.7,2.3,4.5,0.8s-0.1-2.2-0.2-4.4s0.1-2.3,0-4.6s-0.3-2.3-0.4-4.5s-0.2-2.3-0.4-4.5s0.2-2.3,0.1-4.6
	s0-2.3-0.1-4.6s-0.2-2.3-0.3-4.5s-0.5-2.3-0.6-4.5s-0.1-2.3-0.2-4.6s1.6-3,0.1-4.7s-2.4-0.3-4.7-0.7s-2.3-0.4-4.6-0.8
	s-2.3-0.1-4.6-0.5s-2.3-0.4-4.6-0.8s-2.3-0.5-4.6-0.9s-2.3-0.2-4.6-0.6s-2.3-0.6-4.6-1s-2.4,0-4.7-0.4s-2.3-0.6-4.6-1
	s-2.3-0.5-4.6-0.9s-2.3-0.3-4.6-0.7s-2.4,0-4.7-0.4s-2.4-0.1-4.5-1C261.7,622.8,261.1,621.5,259.4,623.1z"/>
<path class="st1" d="M324.1,633.5c-1.7,1.5,0.1,2.2,0.2,4.5s0,2.3,0.1,4.6s0.4,2.3,0.5,4.6s-0.3,2.3-0.2,4.6s0.3,2.3,0.4,4.6
	s0.1,2.3,0.2,4.6s0,2.3,0.1,4.6s0.2,2.3,0.3,4.6s0.3,2.3,0.4,4.6s-1.5,3,0.1,4.7s2.4,0.4,4.7,0.7s2.3,0.2,4.6,0.5s2.3,0.3,4.6,0.6
	s2.3,0.6,4.6,0.9s2.3,0.5,4.6,0.9s2.3,0.2,4.6,0.5s2.3,0.4,4.6,0.8s2.3,0.5,4.6,0.9s2.3,0.2,4.6,0.6l4.6,0.7
	c2.3,0.4,2.3,0.5,4.6,0.8s2.4,0.1,4.7,0.4s2.3,0.6,4.6,1s2.7,2,4.5,0.5s0-2.1-0.1-4.4s-0.3-2.3-0.4-4.5s0.1-2.3,0-4.6
	s-0.1-2.3-0.3-4.5s-0.2-2.3-0.3-4.5s0.1-2.3,0-4.6s-0.2-2.3-0.4-4.5s-0.2-2.3-0.3-4.5s-0.1-2.3-0.2-4.6s1.6-3,0.1-4.6
	s-2.4-0.5-4.7-0.8s-2.3-0.3-4.6-0.7s-2.4-0.1-4.6-0.4s-2.3-0.7-4.5-1.1s-2.4-0.1-4.6-0.5s-2.3-0.6-4.6-1s-2.3-0.2-4.6-0.6
	s-2.3-0.2-4.6-0.6s-2.3-0.7-4.5-1.1s-2.3-0.2-4.6-0.5s-2.3-0.5-4.6-0.8s-2.3-0.2-4.6-0.5s-2.4-0.2-4.5-1S325.8,632,324.1,633.5z"/>
<path class="st1" d="M419.8,598.6"/>
<path class="st1" d="M419.1,599.1c2-1.3,1.8-1.6,3.8-2.8s2-1.2,4-2.4s1.9-1.3,3.9-2.6s1.9-1.3,3.9-2.6s2.1-1,4.1-2.2s2-1.2,4-2.5
	s1.9-1.4,3.9-2.7s2.2-0.9,4.2-2.2s4.6-0.5,4-2.8c-0.6-2.5-2.6-0.8-5.1-1.4s-2.5-0.6-5-1.3s-2.4-0.9-4.9-1.6s-2.5-0.6-5-1.3
	s-2.6-0.4-5.1-1.1s-2.5-0.7-5-1.4"/>
<path class="st1" d="M421.1,648.7c2-1.3,1.9-1.5,3.9-2.7s2-1.3,3.9-2.6s2-1.3,4-2.5s2.1-1,4.1-2.3s2.1-1.1,4.1-2.3s1.9-1.4,3.9-2.7
	s2-1.2,4-2.4s1.9-1.4,3.9-2.7s3.1-0.3,4.2-2.4s-0.1-2.6-0.2-5s-0.5-2.5-0.6-4.9s0.2-2.5,0.1-5s-0.4-2.5-0.5-4.9s-0.1-2.5-0.3-4.9
	s-0.1-2.5-0.3-4.9s0.2-2.5,0.1-5s-0.5-2.5-0.6-4.9s0-2.5-0.1-4.9s-0.2-2.5-0.4-4.9"/>
<path d="M389.6,588.5c2.1,1,1.9-1,3.9-2.3s2-1.2,4-2.5s1.9-1.5,3.9-2.7s2.1-1.2,4-2.5s1.9-1.5,3.9-2.7s2-1.2,4-2.5s1.8-1.5,3.8-2.8
	s2.1-1.1,4.1-2.4s3.2-0.3,4.1-2.5s-0.3-2.6-0.6-5s-0.6-2.5-0.9-4.9s-0.1-2.5-0.4-5s-0.1-2.5-0.4-5s-0.5-2.5-0.8-4.9s-0.1-2.5-0.4-5
	s-0.6-2.4-1-4.9s-0.3-2.5-0.6-5s1.9-3.9-0.4-5s-2.1,1.2-4.1,2.6s-2,1.4-4,2.8s-2,1.3-4.1,2.7s-2,1.5-4,2.8s-2.1,1.3-4.1,2.7
	s-2,1.4-4,2.8s-1.9,1.5-4,2.9s-2.1,1.3-4.1,2.6s-3.2,0.4-4.2,2.6s0.3,2.5,0.7,4.8s0.6,2.4,0.9,4.8s0.4,2.4,0.8,4.8s0.4,2.4,0.7,4.8
	s0.1,2.4,0.4,4.8s0.1,2.4,0.5,4.8s0.5,2.4,0.9,4.8s0.8,2.4,0.6,4.8S387.4,587.4,389.6,588.5z"/>
<path d="M422,646.5c-2.1-1.1,0.3-2.4,0.3-4.8s-0.1-2.4-0.1-4.8s0-2.4,0-4.8s-0.1-2.4-0.1-4.8s0-2.4,0-4.8s-0.2-2.4-0.2-4.8
	s0.3-2.4,0.3-4.8s0-2.4,0-4.8s-0.4-2.4-0.4-4.8s-1.2-2.8,0-4.9s2.1-1.3,4.2-2.5s2.1-1,4.2-2.2s2.1-1,4.2-2.2s2-1.3,4-2.5l4.1-2.4
	c2-1.2,2-1.4,4-2.6s2.2-3.6,4.3-2.4s-0.1,2.6,0,5s0.1,2.4,0.2,4.8l0.2,4.8c0.1,2.4,0.1,2.4,0.3,4.8s0.4,2.4,0.5,4.7s0,2.4,0.1,4.8
	s-0.1,2.4,0.1,4.8s0.1,2.4,0.2,4.8s1.5,2.7,0.5,4.8s-2.1,1.2-4.1,2.5s-2,1.3-3.9,2.6s-1.8,1.5-3.7,2.8s-2,1.2-3.9,2.6
	s-1.8,1.5-3.7,2.8s-2,1.3-3.9,2.6s-2.1,1.1-3.6,2.9C424.3,646,424.1,647.7,422,646.5z"/>
<path d="M390.3,690.3c2.2,1.1,2.4-1.3,4.5-2.5l4.3-2.5c2.2-1.3,2-1.6,4.1-2.9s2.2-1.2,4.4-2.5s2.2-1.2,4.4-2.5s2.2-1.1,4.4-2.4
	s2-1.5,4.2-2.8s2.4-0.9,4.5-2.2s3.1-0.4,4.3-2.6s0-2.5-0.1-4.9s-0.4-2.4-0.5-4.8s0.9-2.7,0-4.9s-1.8-1.5-3.5-3s-1.1-2.4-3.2-3.4
	s-2.5-0.1-4.9-0.4s-2.4-0.5-4.8-0.7s-2.4-0.2-4.8-0.5s-2.4-0.3-4.8-0.6s-2.4-0.4-4.8-0.6l-4.8-0.5c-2.4-0.3-3.1-2.2-4.9-0.6
	s0,2.5,0.1,4.8s0.3,2.4,0.4,4.8s-0.2,2.4-0.1,4.8s0.1,2.4,0.3,4.8s0.1,2.4,0.2,4.8s0.2,2.4,0.3,4.8s0.1,2.4,0.2,4.8s0.3,2.4,0.4,4.8
	s0.4,2.4-0.1,4.7C389.4,688,388.2,689.3,390.3,690.3z"/>
<path class="st1" d="M125.8,498.3c2-1.3,1.8-1.5,3.8-2.8s1.9-1.3,3.9-2.6l4-2.5c2-1.3,2.1-1.1,4.1-2.3s2-1.2,4-2.4l4-2.5
	c2-1.3,2-1.2,4-2.4s2-1.2,4-2.4s2-1.3,4-2.5"/>
<path class="st1" d="M190.9,508.9c2-1.3,2-1.2,4-2.4s2-1.2,4-2.5s2-1.2,4-2.5s1.9-1.3,3.9-2.6s2-1.3,3.9-2.5s2.1-1.1,4.1-2.4l4-2.5
	c2-1.3,2.1-1,4.1-2.3s1.8-1.5,3.8-2.8"/>
<path class="st1" d="M256.3,520.1c2-1.3,2-1.2,4-2.5s2-1.2,4-2.4s1.9-1.5,3.9-2.7l4-2.5c2-1.3,2-1.2,4-2.4s2.1-1.1,4.1-2.3l4-2.5
	c2-1.3,1.7-1.6,3.7-2.9s2-1.2,4-2.4"/>
<path class="st1" d="M321.7,531.1c2-1.3,2-1.3,3.9-2.5s1.9-1.3,3.9-2.6s2-1.3,4-2.5s2.1-1,4.1-2.3s1.8-1.6,3.8-2.9s2.1-1.1,4-2.4
	s2.1-1.1,4.1-2.3s2-1.3,4-2.5s2-1.2,4-2.5"/>
<path class="st2" d="M647.3,250.9c-4.1-0.4-4.1-0.2-8.1-0.6s-4.4,0.9-8.2-0.8s-4-2-5.7-5.7c-1.6-3.4,0-3.7,0-7.4s-0.4-3.8-0.4-7.5
	s0.1-3.8,0.1-7.5s0.1-3.8,0.1-7.5s0.2-3.8,0.2-7.5s-1.2-3.9-0.1-7.5c1.1-3.4,2.5-0.6,6.9-1.4c2-0.3,4.4-0.6,7.1-0.9
	c2.2-0.3,4.6-0.4,7.1-0.6c2.3-0.2,4.6-0.3,7.1-0.4c2.3-0.1,4.7-0.1,7.2-0.1c2.3,0,4.7-0.4,7.2-0.3s4.7,0.4,7.1,0.6s4.7,0.2,7.2,0.5
	s4.7,0.6,7.1,1s4.8,1,7.2,1.5c1.1,3.6-0.1,3.8-0.1,7.5s0.1,3.7,0.1,7.4s-0.2,3.7-0.2,7.4s0.2,3.7,0.2,7.4s-0.3,3.7-0.3,7.4
	s1.4,3.9,0,7.4c-1.5,3.7-1.6,4.4-5.2,6.2c-4,1.9-4.5,0.3-8.9,0.8s-4.4,0.2-8.8,0.6c-2.2,0.2-4.3,0.6-6.5,0.7s-4.3,0.2-6.5,0.1
	s-4.3,0-6.5-0.1S649.4,251.2,647.3,250.9z"/>
<path d="M740.6,538.1c-0.1-3.6,0-2.6,0-7.3c0-2-0.2-4.5-0.2-7.3c0-2.2-0.2-4.6-0.2-7.3c0-2.3,0.2-4.7,0.2-7.3c0-2.3,0.2-4.7,0.2-7.3
	c0-2.3-0.6-4.8-0.6-7.3s0.2-4.8,0.2-7.3s-0.2-4.8-0.2-7.3s0.5-4.8,0.5-7.3s0-4.8,0-7.3s0.4-4.8,0.4-7.3s-0.1-4.8-0.1-7.3
	s-0.7-4.8-0.7-7.3s0.1-4.8,0.1-7.3s0.1-4.8,0.1-7.3s-0.1-4.8-0.1-7.3s0.5-4.9,0.5-7.3s-0.3-4.9-0.3-7.3s0.5-4.9,0.5-7.3
	s-0.5-4.9-0.5-7.3s0-4.9,0-7.3s0.5-4.9,0.5-7.3s-0.5-4.9-0.5-7.3s-0.2-4.9-0.2-7.3s0-4.9,0-7.3c0-2.5,0.4-4.9,0.4-7.3
	c0-2.5-0.4-5-0.4-7.3c0-2.6-0.1-5-0.1-7.3c0-2.5,0.4-4.8,0.3-7c-0.1-2.5,0.2-4.8,0.1-7c-0.2-2.5-0.3-4.8-0.5-7
	c-0.3-2.5-1.5-4.7-1.9-6.8c-0.5-2.5-0.4-4.9-1.1-6.9c-0.8-2.2-1.8-4.3-3-6.4c-1.1-2.1-2.4-4-4-5.7c-1.7-1.7-3.5-3.2-5.5-4.4
	c-1.8-1.2-4.1-2-6.3-3.1c-1.9-1-4-2.2-6.2-3.3c-2-1-4.1-1.9-6.3-3.1c-2.8-1.5-4.8-3.3-6.9-4.5c-3-1.7-5.3-3.1-7-4.3
	c-7.4-5-6.2-1.4-5.2-5.4c1-4.4,2.6-5.4-0.1-9c-2-2.7-3.3,0.4-6.7,0.4s-3.4-0.9-6.8-0.9s-3.4-0.1-6.8-0.1s-3.4,0.7-6.8,0.7
	s-3.4-0.4-6.8-0.4s-3.4-0.3-6.8-0.3s-3.4,0.1-6.8,0.1s-4.7-2.3-6.8,0.5c-2.7,3.6-1.2,4.6-0.1,9.1c0.9,4,2.3,0.5-5.1,5.5
	c-2.2,1.7-4.4,3.3-6.7,4.8c-2,1.2-4.6,2.2-7.3,3.7c-2.2,1.2-4.3,2.1-6.3,3.1c-2.2,1.1-4.1,2.5-6,3.6c-2.2,1.2-4.3,2-6.2,3.3
	c-2,1.3-3.8,2.7-5.5,4.4c-1.6,1.6-2.5,3.7-3.8,5.9c-1.2,2-2.1,4.1-2.8,6.3c-0.8,2.2-1.4,4.4-1.8,6.7c-0.4,2.1-1.3,4.3-1.6,6.8
	c-0.2,2.2-0.5,4.5-0.6,7c-0.1,2.2,0.6,4.5,0.5,7c-0.1,2.2-0.5,4.5-0.5,7c0,2.2,0.1,4.6,0.1,7.3c0,2.3-0.3,4.7-0.3,7.3
	c0,2.3-0.2,4.7-0.2,7.3c0,2.3-0.1,4.8-0.1,7.3s0.5,4.8,0.5,7.3s0.1,4.8,0.1,7.3s-0.3,4.8-0.3,7.3s-0.1,4.8-0.1,7.3s0,4.8,0,7.3
	s0.7,4.8,0.7,7.3v7.3c0,2.4-0.2,4.8-0.2,7.3s-0.4,4.8-0.4,7.3s0,4.8,0,7.3s0.5,4.9,0.5,7.3s-0.8,4.9-0.8,7.3s0.7,4.9,0.7,7.3
	s-0.8,4.9-0.8,7.3s0.7,4.9,0.7,7.3s-0.3,4.9-0.3,7.3s0.2,4.9,0.2,7.3s0.1,4.9,0.1,7.3s-0.5,4.9-0.5,7.3c0,2.5,0.2,4.9,0.2,7.3
	c0,2.5-0.3,5-0.3,7.3c0,2.6,0.5,5,0.5,7.3c0,2.8-0.4,5.2-0.4,7.3c0,4.6-0.1,3.6-0.1,7.2s0.4,2.7,0.5,7c0.1,2,0,4.4,0.3,7
	c0.2,2.2,0.7,4.5,1.1,7c0.3,2.2,0.6,4.6,1,7s0.5,4.7,1.1,7s1.4,4.5,2.2,6.7s1.8,4.3,2.7,6.5s2.2,4.1,3.3,6.2s1.9,4.3,3.3,6.3
	c1.4,1.8,3,3.6,4.7,5.2c3,1.8,2.1,0,6.8,0.6c1.8,0.2,4,1.2,6.7,1.4c2,0.2,4.3-0.2,6.9,0c2.1,0.1,4.3,1,6.8,1.1
	c2.1,0.1,4.4-0.3,6.9-0.2c2.2,0.1,4.5,0,6.8,0.1c2.2,0.1,4.5,0.5,6.8,0.6c2.2,0,4.5-0.6,6.9-0.6c2.2,0,4.5,0.8,6.9,0.8
	c0.5,0,0.5-0.2,0.9-0.2c2.3,0,4.6-0.5,6.8-0.6c2.4,0,4.6-0.2,6.8-0.2c2.4,0,4.7,0.8,6.8,0.7c2.4-0.1,4.7-0.4,6.8-0.5
	c2.4-0.1,4.7-0.6,6.8-0.7c2.5-0.1,4.7,0.2,6.8,0.1c2.5-0.2,4.8-0.2,6.8-0.3c2.7-0.2,4.9-0.7,6.8-0.9c4.7-0.6,3.8,0.6,6.8-1.1
	c1.6-1.8,3-3.6,4.3-5.6c1.2-2,2.4-4,3.3-6.2c1.1-2.1,2.8-3.8,3.7-6s1.7-4.4,2.4-6.6s1.6-4.5,2.1-6.7s0.8-4.7,1.2-7s0.8-4.7,1-7
	c0.3-2.5,0.1-4.9,0.3-7c0.2-2.6,0.4-5,0.5-7C740.3,540.7,740.7,541.6,740.6,538.1z"/>
<path class="st0" d="M578.1,347.8c3.5,0,3.5,0.2,7,0.2s3.5-0.2,7-0.2s3.5,0.7,7,0.7s3.5-0.1,7-0.1s3.5-0.6,7-0.6s3.5-0.2,7.1-0.2
	s3.5,0.8,7,0.8s3.5-0.5,7-0.5s3.5,0.4,7.1,0.4s3.5-0.6,7.1-0.6s3.5,0.7,7,0.7s3.5-0.1,7.1-0.1h7.1c3.5,0,3.5-0.1,7.1-0.1
	s3.5-0.7,7.1-0.7s3.5,0.6,7,0.6s3.5,0.3,7.1,0.3s3.5-0.4,7.1-0.4s3.5-0.5,7.1-0.5c3.2,0,5.7,2,7.8,4.1c2.1,2,3.2,4.9,3.2,7.8
	c0,3.6,0.2,3.6,0.2,7.3s0,3.6,0,7.3s0.4,3.6,0.4,7.3s-0.1,3.6-0.1,7.3s-0.3,3.6-0.3,7.3s0.7,3.6,0.7,7.3s-0.1,3.6-0.1,7.3
	s-0.7,3.6-0.7,7.3s0.2,3.6,0.2,7.3s0.2,3.6,0.2,7.3s-0.3,3.6-0.3,7.3s0.5,3.6,0.5,7.3s-0.4,3.6-0.4,7.3s-0.1,3.6-0.1,7.3
	s0.1,3.6,0.1,7.3s0.2,3.6,0.2,7.3s0.2,3.6,0.2,7.3s0,3.6,0,7.3s-0.1,3.6-0.1,7.3s-0.3,3.6-0.3,7.3s0.3,3.6,0.3,7.3
	c0,3.6,0,3.6,0,7.3s-0.1,3.6-0.1,7.3s0.4,3.6,0.4,7.3s-0.1,3.6-0.1,7.3c0,3.1-1.1,6.1-3.3,8.3c-2.2,2.2-5.2,3.4-8.3,3.5
	c-3.7,0-3.7-0.2-7.4-0.2s-3.7-0.2-7.4-0.2s-3.7-0.3-7.4-0.3s-3.7,0-7.4,0s-3.7,0.1-7.4,0.1s-3.7-0.2-7.4-0.2s-3.7,0.7-7.4,0.7
	s-3.7-0.8-7.4-0.8s-3.7,0.9-7.4,0.9s-3.7,0-7.4,0s-3.7-0.4-7.4-0.4s-3.7-0.2-7.4-0.2s-3.7,0.3-7.4,0.3s-3.7,0.3-7.4,0.3
	s-3.7-0.8-7.4-0.8s-3.7,0.6-7.4,0.6s-3.7-0.3-7.4-0.3s-3.7,0-7.4,0"/>
<path class="st2" d="M578.1,348.3c3.5,0,3.5-0.8,7-0.8s3.5,0.7,7,0.7s3.5-0.3,7-0.3s3.5-0.2,7-0.2s3.5,0.6,7,0.6s3.5-0.8,7.1-0.8
	s3.5,0,7,0h7c3.5,0,3.5,0.5,7.1,0.5s3.5-0.1,7.1-0.1h7c3.5,0,3.5-0.3,7.1-0.3s3.5,0,7.1,0s3.5,0.9,7.1,0.9s3.5-0.1,7.1-0.1
	s3.5-0.7,7-0.7s3.5,0.6,7.1,0.6s3.5-0.4,7.1-0.4s3.5,0.2,7.1,0.2c3.2,0,6.3,0.8,8.4,2.8s2.7,5.2,2.7,8.4c0,3.6,0.6,3.6,0.6,7.3
	s-0.6,3.6-0.6,7.3s0.1,3.6,0.1,7.3s0.6,3.6,0.6,7.3s-0.8,3.6-0.8,7.3s0.2,3.6,0.2,7.3s0,3.6,0,7.3s0.5,3.6,0.5,7.3s-0.7,3.6-0.7,7.3
	s0,3.6,0,7.3s0.1,3.6,0.1,7.3s0.1,3.6,0.1,7.3s0.5,3.6,0.5,7.3s-0.3,3.6-0.3,7.3s-0.2,3.6-0.2,7.3s0.5,3.6,0.5,7.3s-0.7,3.6-0.7,7.3
	s0.3,3.6,0.3,7.3s-0.3,3.6-0.3,7.3s0.2,3.6,0.2,7.3s0.4,3.6,0.4,7.3s0,3.6,0,7.3s-0.1,3.6-0.1,7.3s0.1,3.6,0.1,7.3s-0.1,3.6-0.1,7.3
	c-0.1,3-1.3,5.8-3.5,7.8c-2.1,2.1-4.7,4-7.8,4c-3.7,0-3.7-0.1-7.4-0.1s-3.7-0.3-7.4-0.3s-3.7-0.5-7.4-0.5s-3.7,0.5-7.4,0.5
	s-3.7-0.6-7.4-0.6s-3.7,0.3-7.4,0.3s-3.7,0.3-7.4,0.3s-3.7-0.4-7.4-0.4s-3.7-0.1-7.4-0.1s-3.7,0.3-7.4,0.3s-3.7,0.2-7.4,0.2
	s-3.7-0.2-7.4-0.2s-3.7-0.4-7.4-0.4s-3.7,0.6-7.4,0.6s-3.7-0.4-7.4-0.4s-3.7,0.2-7.4,0.2s-3.7-0.1-7.4-0.1s-3.7,0.4-7.4,0.4"/>
<path class="st2" d="M686.1,249.9c0,2.5,0.1,2.5,0.1,5c0,2.5,0.6,2.6-0.2,5c-1,2.9-1.9,0.7,3.5,4.6c1.3,0.9,3,2,5.2,3.3
	c1.5,0.9,3.4,1.8,5.4,3c1.6,0.9,3.4,1.9,5.4,2.9s3.7,2.4,5.5,3.3c2,1,4,1.9,5.8,2.8c2,1,3.9,2,5.6,3.1c1.9,1,3.7,2.2,5.3,3.6
	c1.5,1.5,2.9,3.2,4,5c1.2,1.7,2.2,3.6,3.1,5.6c0.8,2,1.5,4,2,6c0.6,2,1.1,4.1,1.5,6.2c0.3,2,0.4,4.1,0.6,6.4c0.2,2,0.7,4.1,0.8,6.4
	c0.1,2-0.1,4.2,0,6.4c0,2-0.1,4.2-0.1,6.4c0,2,0,4.2,0,6.5c0,2.1,0.1,4.3,0.1,6.5c0,2.1,0.3,4.3,0.3,6.5c0,2.1-0.3,4.3-0.3,6.5
	s0.2,4.3,0.2,6.5s0,4.3,0,6.5s-0.2,4.3-0.2,6.5s-0.1,4.3-0.1,6.5s0.4,4.3,0.4,6.5s-0.3,4.4-0.3,6.5s0.3,4.4,0.3,6.5
	s-0.3,4.4-0.3,6.5s0,4.4,0,6.5s-0.2,4.4-0.2,6.5s0.2,4.4,0.2,6.6s0.3,4.4,0.3,6.6s-0.3,4.4-0.3,6.6s-0.2,4.4-0.2,6.6
	s0.1,4.4,0.1,6.6s0.2,4.4,0.2,6.6s-0.3,4.4-0.3,6.6s-0.1,4.4-0.1,6.5s0.1,4.4,0.1,6.5s0.2,4.4,0.2,6.6s-0.2,4.4-0.2,6.6
	s0.3,4.4,0.3,6.5c0,2.3,0.1,4.5,0.1,6.5c0,2.3-0.2,4.5-0.2,6.5c0,2.4-0.1,4.6-0.1,6.5c0,2.5,0,4.7,0,6.5c0,4.2,0.3,3.3,0.4,6.5
	s-0.3,2.4-0.4,6.4c0,1.8,0,4-0.2,6.4c-0.2,2-0.2,4.1-0.4,6.3c-0.2,2-0.7,4.1-1,6.3s-0.7,4.2-1.1,6.3s-0.9,4.1-1.5,6.2s-1.3,4-2.1,6
	s-1.5,4-2.4,5.9s-1.8,3.8-2.9,5.7c-1.1,1.8-2.3,3.6-3.5,5.3c-1.3,1.7-2.6,3.3-4.1,4.8c-3,1.7-1.9,0.6-6.7,1.2
	c-1.8,0.2-4.1,0.3-6.8,0.6c-2,0.2-4.3,0.2-6.8,0.3c-2.1,0.1-4.3,0.5-6.8,0.6c-2.1,0.1-4.4,0.2-6.8,0.3c-2.2,0.1-4.4-0.1-6.8,0
	c-2.2,0-4.4,0.4-6.8,0.4c-2.2,0-4.5-0.2-6.8-0.2c-2.2,0-4.5,0.1-6.8,0.1c-0.5,0-0.5,0-0.9,0c-2.4,0-4.6-0.1-6.8-0.1
	c-2.4,0-4.7,0.3-6.8,0.3c-2.4,0-4.7-0.3-6.8-0.3c-2.4-0.1-4.7,0-6.8-0.1c-2.4-0.1-4.7-0.5-6.8-0.7c-2.5-0.1-4.8,0.2-6.8,0
	c-2.5-0.2-4.8-0.5-6.8-0.7c-2.7-0.2-5-0.3-6.8-0.5c-4.7-0.5-3.7,0.5-6.7-1.2c-1.5-1.5-2.9-3.1-4.2-4.8c-1.2-1.8-2.3-3.6-3.2-5.5
	c-1-1.8-2.1-3.7-3-5.6s-1.5-4-2.3-6s-1.7-3.9-2.3-5.9s-1.2-4.1-1.6-6.2s-0.5-4.3-0.8-6.3s-0.9-4.3-1.1-6.3c-0.3-2.3-0.6-4.4-0.7-6.3
	c-0.2-2.4-0.2-4.5-0.3-6.4c-0.1-4,0.1-3.2,0.1-6.4s0-2.3,0-6.5c0-1.8-0.2-4-0.2-6.5c0-2,0-4.2,0-6.5c0-2,0.2-4.2,0.2-6.5
	c0-2.1,0-4.3,0-6.5c0-2.1-0.2-4.3-0.2-6.5s0-4.3,0-6.5s-0.2-4.3-0.2-6.5s0-4.3,0-6.5s0.2-4.3,0.2-6.5s0-4.3,0-6.5s0.1-4.4,0.1-6.5
	s-0.2-4.4-0.2-6.5s-0.1-4.4-0.1-6.5s0.3-4.4,0.3-6.5s0.1-4.4,0.1-6.5s-0.3-4.4-0.3-6.6s0.1-4.4,0.1-6.6s0.2-4.4,0.2-6.6
	s-0.2-4.4-0.2-6.6s-0.1-4.4-0.1-6.6s0.2-4.4,0.2-6.6s0.2-4.4,0.2-6.5s-0.3-4.4-0.3-6.6s0.2-4.4,0.2-6.6s-0.1-4.4-0.1-6.6
	s-0.1-4.4-0.1-6.6s-0.2-4.4-0.2-6.6c0-2.3,0.3-4.5,0.3-6.5c0-2.3,0-4.5,0-6.5c0-2.4,0.2-4.5,0.2-6.5c0-2.2,0-4.4,0.1-6.4
	c0-2.3-0.3-4.4-0.2-6.4c0.1-2.3,0.6-4.4,0.8-6.4c0.2-2.3,0.3-4.4,0.6-6.4c0.4-2.1,0.9-4.2,1.6-6.2c0.4-2.1,1-4.2,1.7-6.2
	c0.9-2,2-3.8,3.3-5.5c1.2-1.8,2.6-3.4,4.2-4.9c1.6-1.4,3.4-2.6,5.3-3.7c1.7-1.1,3.7-2,5.7-3.1c1.8-0.9,3.7-1.9,5.7-2.9
	c1.8-0.9,3.7-1.9,5.7-3s3.8-2.1,5.4-3c2-1.2,3.7-2.3,5.2-3.3c2.2-1.4,4-2.3,5.3-3.2c5.3-3.9,4.5-1.6,3.5-4.5c-0.8-2.4-0.2-2.5-0.2-5
	s0.2-2.5,0.2-5"/>
<path class="st2" d="M640.8,196.5c0,3.8,0.4,3.8,0.4,7.6s0,3.8,0,7.6s-0.2,3.8-0.2,7.6s0.1,3.8,0.1,7.6s-0.2,3.8-0.2,7.6
	s0,3.8,0,7.6s0.1,3.8,0.1,7.6"/>
<path class="st2" d="M661.2,196.5c0,3.8-0.1,3.8-0.1,7.6s-0.3,3.8-0.3,7.6s0.1,3.8,0.1,7.6s0.2,3.8,0.2,7.6s-0.3,3.8-0.3,7.6
	s0.4,3.8,0.4,7.6s-0.3,3.8-0.3,7.6"/>
<path class="st2" d="M681.2,196.5c0,3.8-0.2,3.8-0.2,7.6s-0.2,3.8-0.2,7.6s0.5,3.8,0.5,7.6s0,3.8,0,7.6s-0.4,3.8-0.4,7.6
	s0.1,3.8,0.1,7.6s0.2,3.8,0.2,7.6"/>
<path class="st3" d="M596.6,303.8c0.7-2,1.1-1.1,2.9-3.3c0.8-0.9,1.1-2.6,2.4-3.8c1-0.9,2.5-1.4,3.8-2.3c1.2-0.8,2.4-1.6,3.7-2.3
	c1.2-0.6,2.3-1.6,3.8-2.3c1.3-0.5,2.9-0.4,4.3-0.9s2.7-0.8,4.2-1.2s2.7-1,4.1-1.4s2.8-0.5,4.3-0.8s2.8-0.8,4.2-1s2.8-0.6,4.3-0.8
	s2.9,0.1,4.4,0s2.9,0.2,4.4,0.1s2.8-1.1,4.3-1.1s2.9,0,4.4,0"/>
<path class="st3" d="M726.2,569.2c0.1,1.4,0,2.9-0.4,4.3c-0.3,1.4-0.6,2.8-1.1,4.1c-0.4,1.4-1,2.7-1.7,3.9c-0.7,1.3-1.5,2.4-2.4,3.5
	c-0.9,1.1-1.9,2.1-3,3c-1.1,1-2.2,1.8-3.5,2.5c-1.2,0.6-2.8,0.5-4.3,0.8c-1.4,0.4-2.8,0.6-4.2,0.8c-2.1,0.2-2.1,0.5-4.2,0.7
	s-2.2-0.5-4.2-0.4s-2,1.1-4.1,1.3s-2.1-0.3-4.2-0.2"/>
<path class="st3" d="M666.3,593.9c2.9,0,2.9-0.1,5.8-0.1"/>
<path class="st1" d="M702.2,377.2c-3.6,0-3.6,0.1-7.2,0.1s-3.6-0.5-7.2-0.5s-3.6-0.1-7.2-0.1s-3.6,0.7-7.2,0.7s-3.6-0.3-7.2-0.3
	s-3.6-0.4-7.2-0.4s-3.6,0.7-7.2,0.7s-3.6-0.4-7.2-0.4s-3.6,0-7.2,0s-3.6-0.3-7.2-0.3s-3.6,0.9-7.2,0.9"/>
<path class="st1" d="M702.2,393.8c-3.5,0-3.5,0-7.1,0s-3.5,0.1-7.1,0.1s-3.5-0.1-7.1-0.1s-3.5,0.2-7.1,0.2s-3.5,0-7.1,0
	s-3.5-0.4-7.1-0.4s-3.5-0.2-7.1-0.2h-7.1c-3.5,0-3.5,0.4-7.1,0.4"/>
<path class="st1" d="M702.2,410.4c-3.7,0-3.7-0.1-7.3-0.1s-3.7-0.5-7.3-0.5s-3.7,0.6-7.3,0.6s-3.7-0.1-7.3-0.1s-3.7-0.5-7.3-0.5
	s-3.7,0.4-7.3,0.4s-3.7-0.2-7.3-0.2s-3.7-0.3-7.3-0.3s-3.7,0.1-7.3,0.1s-3.7,0.7-7.3,0.7"/>
<path class="st1" d="M702.2,443.2c-3.3,0-3.3-0.6-6.7-0.6s-3.3-0.1-6.7-0.1s-3.3,0.5-6.7,0.5s-3.3,0.1-6.7,0.1s-3.3,0.2-6.7,0.2
	s-3.3-0.2-6.7-0.2"/>
<path class="st1" d="M702.2,458.8c-3.7,0-3.7,0.5-7.3,0.5s-3.7,0.2-7.3,0.2s-3.7,0.1-7.3,0.1s-3.7-0.1-7.3-0.1s-3.7-0.7-7.3-0.7
	s-3.7,0.1-7.3,0.1s-3.7,0.6-7.3,0.6"/>
<path class="st1" d="M702.2,529.9c-3.8,0-3.8,0.5-7.5,0.5s-3.8-0.1-7.5-0.1s-3.8-0.3-7.5-0.3s-3.8,0.4-7.5,0.4s-3.8,0.3-7.5,0.3
	s-3.8-0.4-7.5-0.4s-3.8,0.2-7.5,0.2s-3.8-0.2-7.5-0.2"/>
<polygon points="168.4,157.4 165.8,155.6 163.4,153.4 160.9,151.5 158.9,149.1 156.6,146.8 154.2,144.7 151.8,142.5 148.6,141.7 
	145.6,141 142.7,142.2 141.1,144.8 141,148.1 139.6,151.1 137.7,153.9 135.9,156.6 133.3,159 131.9,162.1 129.6,164.5 127.8,167.4 
	124.8,169 122.8,171.8 120.1,173.8 117.4,175.8 114.7,177.8 111.6,179 109,181.1 106.4,183.1 103.5,184.6 100.6,186.1 98.4,188.6 
	96.2,190.9 93.5,192.9 91.6,195.5 89.5,198 87.3,200.3 85.1,202.7 82.8,205 81.5,208 79.1,210.3 77.5,213.1 75.3,215.6 73.9,218.5 
	71.4,220.7 69.9,223.6 67.8,226.1 65.3,228.2 63.5,230.9 61.4,233.4 59.7,236.1 58,238.9 57.9,242 58,245.1 59.5,247.9 62,250.1 
	63.6,253.2 66.7,254.6 69.5,256.1 72.1,258.3 75.4,259 78.2,260.6 81.1,262 84.3,263 87.1,264.8 90.2,265.8 93.1,267.3 96.2,268.1 
	99.1,269.6 102.1,270.9 104.9,272.4 107.7,274.2 110.9,274.8 114.1,275.6 117.3,275.7 120.4,276.3 123.6,276.2 125.9,274 127.5,271 
	127.5,267.4 127,264 127.1,260.6 127.9,257.4 130.6,255.1 131.2,251.7 132,248.3 132.8,244.9 134.2,241.6 136.7,239.6 139.6,238.4 
	142.5,236.8 145,235 147.1,232.4 147.3,228.8 149.1,225.7 150.8,222.7 152.6,219.8 154.9,217.1 158.4,216.4 161.9,216.1 
	164.8,217.3 167.9,217.4 171.1,218 173.4,220.3 175.3,222.8 176.8,226 179.7,228.4 180.3,224.8 180.7,221.5 180.4,218.2 
	182.1,215.3 181.6,212 182,208.8 181.6,205.6 182.8,202.5 183.3,199.2 182.6,196 182.3,192.8 181.8,189.6 182.3,186.3 180.9,183.3 
	179.8,180.3 178.8,177.3 178,174.1 176.8,171.2 176,167.9 173.3,165.8 172.1,162.8 170.4,160 "/>
<polygon points="216.4,182.9 219.2,183.9 222.2,185.3 225.1,186.9 228.4,187.5 231.5,188.7 234.3,190.4 237.7,190.7 240.7,192.2 
	243.5,194.1 246.6,195.2 249.6,196.6 252.9,197.1 256.1,197.9 259.3,199.1 262,200.7 263.8,198.4 265.5,195.9 267.4,193.4 
	268.6,190.7 269.2,187.6 270.7,184.9 272,182.1 272.7,178.6 274.4,175.5 275.3,172.1 276.3,168.6 277.2,165.2 277,162 274.2,160.5 
	271.2,159.4 268.2,157.9 265.1,156.6 261.6,156.6 258.8,154.7 255.7,153.7 252.6,152.6 249.6,151.1 246.7,149.5 243.6,148.3 
	240.4,147.6 237.3,146.4 234,145.8 231.4,144.6 230.7,147.2 228.4,149.8 227.8,153 226.8,156.1 225.3,159 224.3,162 223,165 
	221.6,168 221.1,171.2 218.9,173.8 217.9,176.9 216.4,179.9 "/>
<polyline class="st1" points="297.4,184.1 300.5,185.3 303.5,186.6 306.7,187.4 309.5,189.2 312.8,189.9 315.7,191.6 318.6,193.1 
	322,193.7 324.9,195.1 328.1,196.1 331.3,197.1 334,199 337.4,199.5 340.6,200.4 343.4,202.1 346.5,203.5 349.5,204.9 352.9,205.1 
	355.7,207.1 358.7,208.3 361.6,210 365,210.3 368.1,211.5 370.8,213.6 374.1,214.2 377.3,215.1 380.2,216.7 383.5,217.5 
	386.5,218.6 389.5,220.1 392.4,221.9 395.6,222.7 398.9,223.3 401.8,225 405.1,225.7 408.1,227 411,228.7 414.3,229.2 417.4,230.4 
	420.4,231.9 423.4,233.1 426.5,234.3 429.5,235.8 432.5,237.1 435.9,237.4 438.6,239.5 442,240.1 445.1,241.1 448,242.8 451.1,244 
	454.3,244.9 457.4,246 460.3,247.7 463.4,248.6 466.5,249.8 469.4,251.5 472.9,252.5 473.7,248.9 474.7,245.7 475.6,242.4 
	478,239.8 478.8,236.5 480,233.4 481.3,230.2 478.1,229 475.2,227.5 472,226.8 469,225.1 465.7,224.8 462.6,223.4 459.8,221.5 
	456.6,220.6 453.7,219 450.6,217.9 447.2,217.6 444.2,216.1 441,215.2 438.2,213.4 434.9,212.7 431.8,211.7 428.8,210.2 
	425.5,209.5 422.6,207.9 419.8,206 416.4,205.7 413.5,203.9 410.4,202.9 407.2,202 404.1,200.8 401.1,199.3 397.9,198.5 
	395.2,196.4 392,195.5 388.9,194.4 385.7,193.4 382.8,191.7 379.5,191.2 376.4,190 373.5,188.4 370.1,187.9 367.3,186.1 
	364.4,184.6 361.1,183.9 358.1,182.3 355,181.3 352,180 348.9,178.7 345.4,178.6 342.9,175.9 339.5,175.7 336.4,174.3 333.5,172.8 
	330.4,171.6 327.2,170.6 323.8,170.2 320.9,168.5 317.7,167.7 314.8,166.3 312.4,164.2 310.6,161.6 309.1,158.9 308.6,155.8 
	305.5,154.8 302.7,153.2 299.5,152.7 296.6,151.3 293.5,150.5 290.7,148.9 288,147.3 285,146 281.8,145.4 278.7,144.3 275.9,142.9 
	273.3,140.9 270.1,140 267.5,138.2 264.8,136.4 262,134.9 259.5,132.9 257.5,130.4 255.1,128.4 252.3,126.9 249,126.3 246.4,124.6 
	243.4,123.6 240.5,122.3 237.5,121.4 234.4,120.6 231.7,118.9 228.6,118.1 226.1,117.7 228.1,120.5 225.3,122.5 221.7,122.3 
	218.5,120.6 214.9,119.1 213.2,122.3 211,124.8 208.4,126.9 206.2,129.5 203.3,131.2 200.6,133.1 198.1,135.2 195.3,137.1 
	192.6,139.1 189.2,139.7 186.2,141.1 183,142.1 179.8,142.8 176.4,142.4 173.1,143 169.8,142.8 166.4,143 163.3,141.9 160.1,141.4 
	157.1,140 154,140.9 152.4,143.2 153.4,145.6 155.7,147.6 158.4,149.1 160.7,151.4 163.8,152.3 165.8,154.9 168.2,156.9 
	170.5,158.9 172.5,161.3 173.9,164 175.7,166.7 175.9,170 177.4,172.9 178.3,175.9 179.4,178.9 180.6,181.9 180.9,185.1 182.3,188 
	182.5,191.3 183.4,194.4 183.1,197.6 183.2,200.8 183.2,204 182.5,207.1 182.6,210.3 182,213.5 181.7,216.6 181.3,219.9 
	181.2,223.2 180.5,226.5 181.2,229.8 183,232.6 184.1,235.8 186.6,238.1 189,240.4 192.1,241.7 195.3,242.7 198.6,243.2 202,243.4 
	205.5,243.4 208.8,244.6 212.3,244.4 215.6,243.9 219.1,243.8 222.5,244.6 225.7,243.1 229.1,242.8 232.4,242.1 234.6,239.4 
	237.2,237.1 238.1,233.6 240.6,231.1 242.2,228 245.1,226.1 248,224.9 251.1,224.3 254.3,223.8 257.4,224.5 260.5,225.2 
	263.5,226.1 266.6,227.1 269.3,228.8 272.5,229.8 275.1,227.7 276.9,225 278.7,222.2 279.4,218.9 281.1,216.1 282.5,213 
	282.7,209.6 284.8,207.1 286.5,204.3 289,206 291.8,205.4 293.7,203.5 296.7,204.6 299.4,206.6 302.6,207.4 305.8,208.2 
	308.9,209.2 311.7,210.8 314.7,212.2 317.9,212.9 321,214.1 323.9,215.4 326.9,216.5 329.7,218.4 333.1,218.6 335.9,220.4 
	339.1,221 342,222.6 344.9,224 348.1,224.7 350.9,226.5 354,227.4 357,228.8 360.3,229.4 363,231.3 366,232.4 369.2,233.4 
	372.3,234.3 374.9,236.4 378.3,236.7 381.1,238.5 384.3,239.3 387.1,240.9 390.3,241.8 393.4,242.8 396.4,244.1 399.5,245.1 
	402.2,247 405.3,248.1 408.4,249.1 411.2,250.8 414.3,251.9 417.6,252.2 420.4,254 423.6,254.7 426.6,256 429.7,257.1 432.7,258.1 
	435.6,259.9 438.7,260.9 441.6,262.4 444.6,262.8 446.6,260.6 448.6,258 451.3,256 453.5,253.4 456.6,252.1 459.8,251.4 
	462.9,250.2 466.4,250.1 469.6,250.9 472.7,252.4 "/>
<polyline class="st0" points="273.4,181.9 270.1,181.4 267.2,179.7 263.8,179.2 260.8,177.8 258,176.1 254.6,175.6 251.6,174 
	248.6,172.7 248.5,172.7 251.7,173.3 255,173.9 258,175.2 261.2,176.1 264.3,177.4 267.5,178.3 270.4,180 273.6,180.8 "/>
<polyline class="st4" points="273.4,181.9 270.1,181.4 267.2,179.7 263.8,179.2 260.8,177.8 258,176.1 254.6,175.6 251.6,174 
	248.6,172.7 248.5,172.7 251.7,173.3 255,173.9 258,175.2 261.2,176.1 264.3,177.4 267.5,178.3 270.4,180 273.6,180.8 "/>
<polyline class="st0" points="278,166.7 275.1,165.3 272.1,164.5 269,164 266.3,162.2 263.3,161.5 260.5,160.2 257.6,159 
	254.1,158.3 255.4,155.5 258.1,157.2 261.5,156.7 264.1,158.7 267.2,159.3 270.1,160.6 273.2,161.1 276.1,162.3 279.1,163.3 "/>
<polyline class="st5" points="278,166.7 275.1,165.3 272.1,164.5 269,164 266.3,162.2 263.3,161.5 260.5,160.2 257.6,159 
	254.1,158.3 255.4,155.5 258.1,157.2 261.5,156.7 264.1,158.7 267.2,159.3 270.1,160.6 273.2,161.1 276.1,162.3 279.1,163.3 "/>
<polyline class="st0" points="265.6,198.5 262.6,197.6 259.7,196.5 256.7,195.4 253.9,194.1 251.2,192.4 248.3,191.3 245.2,190.5 
	242.1,189.6 243.1,187.9 246,188 248.9,189.1 251.9,189.9 254.9,190.9 257.9,192 260.9,192.6 263.7,194.1 266.6,195.3 "/>
<polyline class="st5" points="265.6,198.5 262.6,197.6 259.7,196.5 256.7,195.4 253.9,194.1 251.2,192.4 248.3,191.3 245.2,190.5 
	242.1,189.6 243.1,187.9 246,188 248.9,189.1 251.9,189.9 254.9,190.9 257.9,192 260.9,192.6 263.7,194.1 266.6,195.3 "/>
<polygon class="st6" points="216.3,183 219.6,183.7 222.6,185.1 225.3,187.1 228.4,188.1 231.7,188.6 234.8,189.8 237.9,190.9 
	240.9,191.9 244,193.1 246.9,194.9 249.9,196.2 253.3,196.5 256,198.5 259.1,199.7 262.3,200.5 263.8,197.9 265.7,195.6 
	266.9,192.8 268.5,190.2 269.8,187.5 271.4,184.9 272.4,181.9 273.2,178.5 274.4,175.1 275.8,171.9 276.9,168.4 277.4,164.9 
	277.9,160.9 274.5,160 271.5,158.5 268.5,157.4 265.2,156.8 262.3,155.3 259.2,154.1 255.9,153.6 252.9,152.2 249.9,151 
	247.1,149.3 243.9,148.5 240.8,147.5 237.7,146.1 234.8,144.7 231.8,144.1 230.4,146.7 229.9,149.9 228.8,153 227.4,156 
	225.4,158.7 224.5,161.8 223.4,164.8 222.4,167.9 220.5,170.6 219.6,173.7 218.2,176.6 217.1,179.7 "/>
<polyline class="st1" points="426.6,209 430,209.4 433.4,209.5 436.8,209.5 440.2,209 443.5,210.1 446.9,209.6 450.3,210.1 
	453.7,209.8 457.1,209.1 460.4,210 463.8,210.6 467.2,210.7 470.6,211.3 470.8,215.1 471.1,218.7 470.8,222.3 469.1,225.6 "/>
<polyline class="st1" points="182.9,209.5 185.1,206.9 188.1,205.2 190.9,203.2 194.3,202.5 197.4,200.8 200.9,201 204.3,200.7 
	207.7,201.1 211,201.7 214.5,201.6 217.4,203.6 220.7,204.1 223.6,205.5 226.3,207.2 229.3,208.5 232.1,210.4 233.3,213.6 
	235.6,215.8 236.9,218.7 237.6,221.8 238.6,224.8 239.3,228 238.6,231.2 239.1,234.4 "/>
<polyline class="st7" points="197.6,205.4 200.8,204.5 204.3,205 205,208.2 205,211.4 203.4,214.1 204.2,217.1 203.9,220.2 
	205.5,222.8 207,225.6 209.9,227 212.5,228.5 "/>
<polyline points="194.5,137.4 194.4,134 194.5,130.6 194.3,127.3 193.7,123.9 193.3,120.6 192.2,117.3 190.3,114.5 189.1,111.3 
	186.4,108.6 186.4,112.1 185.7,115.2 185.5,118.4 185.2,121.5 184.4,124.6 184.2,127.8 183.1,130.8 182.4,133.9 181.2,136.9 
	180.1,139.8 178.6,142.6 "/>
<polyline class="st1" points="194.5,137.4 194.4,134 194.5,130.6 194.3,127.3 193.7,123.9 193.3,120.6 192.2,117.3 190.3,114.5 
	189.1,111.3 186.4,108.6 186.4,112.1 185.7,115.2 185.5,118.4 185.2,121.5 184.4,124.6 184.2,127.8 183.1,130.8 182.4,133.9 
	181.2,136.9 180.1,139.8 178.6,142.6 "/>
<polyline points="304.1,154.1 304.1,157.5 303.5,160.8 302.2,163.9 301.5,167.1 300.8,170.4 300.2,173.7 299.1,176.8 297.3,179.7 
	296.5,182.9 294.7,185.8 294.3,189.3 292.3,192 291.6,195.4 289.1,197.8 288.3,201.1 286.6,204 284.3,206.5 "/>
<polyline class="st1" points="304.1,154.1 304.1,157.5 303.5,160.8 302.2,163.9 301.5,167.1 300.8,170.4 300.2,173.7 299.1,176.8 
	297.3,179.7 296.5,182.9 294.7,185.8 294.3,189.3 292.3,192 291.6,195.4 289.1,197.8 288.3,201.1 286.6,204 284.3,206.5 "/>
<polyline class="st1" points="577.1,39.5 576.7,41.4 577.3,43.3 576.7,45.3 577,47.2 577.5,49.1 577.4,51 577.4,52.9 576.9,54.8 
	576.7,56.7 577.2,58.7 577.3,60.6 577.5,62.5 577,64.4 576.9,66.3 577.4,68.2 577.4,70.1 576.7,72 577,74 577,75.9 576.9,77.8 
	577,79.7 577,81.6 576.9,83.5 576.8,85.5 577.2,87.4 577.1,89.3 576.9,91.2 576.6,93.1 576.8,95.1 576.8,97 577.1,98.9 576.8,100.8 
	577.4,102.7 576.6,104.7 576.8,106.6 576.6,108.5 "/>
<polyline class="st1" points="271.8,339.5 272.4,341.4 272.2,343.3 272.3,345.1 272.3,347 271.6,348.9 272.4,350.8 271.6,352.6 
	271.7,354.5 272.4,356.4 271.6,358.3 271.9,360.1 272.1,362 272,363.9 272,365.8 271.7,367.6 271.7,369.5 272,371.4 272.3,373.3 
	272.4,375.1 272.1,377 272.2,378.9 271.6,380.8 271.5,382.6 271.6,384.5 272.4,386.4 272.2,388.3 272,390.2 271.9,392 272.4,393.9 
	271.8,395.8 272.2,397.7 272.1,399.6 271.9,401.4 272,403.3 272.1,405.2 271.5,407.1 272.4,409 271.6,410.8 271.5,412.7 
	272.3,414.6 271.7,416.5 "/>
<polyline class="st1" points="536.7,682.5 536.8,684.4 536.5,686.3 536.5,688.2 536.7,690.1 537.2,692 536.6,693.9 536.7,695.8 
	536.4,697.7 536.4,699.6 536.9,701.5 536.5,703.3 537.1,705.3 536.7,707.1 536.8,709 536.5,710.9 536.4,712.8 536.8,714.7 
	536.2,716.6 536.2,718.5 536,720.4 536,722.3 536.6,724.2 536.7,726.1 536.5,728 536.5,729.9 536.6,731.8 536,733.7 536.5,735.6 
	536.2,737.5 536.1,739.4 536.5,741.3 536.5,743.2 536.3,745.1 536.3,747 535.9,748.9 535.8,750.8 536.1,752.7 536.5,754.6 
	535.7,756.5 "/>
<polyline class="st1" points="551.5,90.9 553.1,90 554.9,89.3 556.7,88.6 558,87.1 559.6,86.1 561.1,85 563.2,84.9 564.7,83.6 
	566.5,83.1 568.2,82.2 569.4,80.5 571.2,80 572.9,79.1 574.5,78.2 576,77 577.7,76.1 579.7,75.8 581.3,74.8 582.9,73.9 584.6,73 
	586,71.7 587.9,71.1 589.2,69.6 591.1,69.2 592.7,68.1 594.1,66.8 595.8,65.9 597.4,65 599.3,64.5 601,63.8 602.4,62.3 604,61.4 
	605.6,60.3 607.5,59.8 "/>
<polyline class="st1" points="249.5,397.4 251.1,396.3 252.8,395.4 254,394 255.6,392.9 257.5,392.2 258.7,390.7 260.5,389.9 
	261.9,388.7 263.5,387.6 265.2,386.6 266.3,385 268.3,384.5 269.8,383.3 271.5,382.3 273,381.1 274.1,379.5 276.2,379.1 
	277.5,377.6 279.1,376.6 280.5,375.3 282.1,374.2 283.7,373.3 285,371.8 286.6,370.7 288.3,369.9 290.1,369 291.8,368.1 
	292.9,366.4 294.4,365.2 296.4,364.7 297.8,363.4 "/>
<polyline class="st1" points="512.6,740.5 513.7,739 515.2,737.8 517.1,737.3 518.3,735.7 519.9,734.8 521.5,733.8 522.8,732.4 
	524.3,731.3 525.8,730.2 527.3,729.1 528.9,728.1 530.4,727 532,726 533.1,724.3 534.5,723.2 536.3,722.5 537.8,721.2 539.2,720.1 
	540.9,719.1 542.5,718.2 544,717 545.4,715.8 546.5,714.2 548,713.1 549.5,712 551.5,711.5 552.7,710 554,708.7 555.7,707.8 
	557,706.3 558.8,705.6 560.4,704.6 561.6,703.1 "/>
<polyline class="st1" points="548.3,56 549.9,57.2 551.7,57.8 553.2,59.1 554.6,60.4 556.1,61.6 557.8,62.5 559.7,63.2 560.7,65.1 
	562.5,65.8 564.1,66.8 565.4,68.3 566.9,69.4 568.7,70.3 570.1,71.6 571.8,72.5 573.3,73.7 574.7,75.1 576.5,75.7 577.9,77.1 
	579.5,78.2 581.2,79.2 582.7,80.2 584.3,81.4 585.7,82.7 587.1,84 589.1,84.6 590.6,85.7 592.3,86.6 593.4,88.4 595.1,89.2 
	596.5,90.7 598,91.9 600.1,92.2 601.4,93.7 602.9,94.9 604.5,96 "/>
<polyline class="st1" points="248.2,358.6 250,359.5 251.7,360.4 252.7,362.2 254.5,363 256.1,364 257.4,365.5 258.7,366.9 
	260.6,367.6 262.1,368.7 263.7,369.8 265.1,371.1 266.2,372.7 268.1,373.4 269.2,375.1 271,375.8 272.5,377 273.9,378.3 
	275.1,379.9 276.8,380.9 278.5,381.8 279.6,383.5 281.4,384.2 282.7,385.6 284.1,386.9 285.7,388 287,389.5 288.7,390.4 
	290.2,391.6 291.7,392.7 293.2,394 294.4,395.4 296,396.5 297.5,397.7 "/>
<polyline class="st1" points="512.4,698.4 514.3,699.1 515.8,700.3 517.2,701.5 518.7,702.7 520.2,703.8 521.4,705.4 523,706.5 
	524.4,707.7 525.8,708.9 527.1,710.4 529,711.1 530.4,712.3 532,713.4 533.1,715.1 534.6,716.2 536.1,717.3 538,718.1 539.4,719.3 
	540.8,720.6 542.2,722 543.9,722.9 545.4,723.9 546.7,725.4 548.5,726.2 549.9,727.5 551.2,729 552.5,730.4 554.1,731.3 556,732 
	557.5,733.3 559,734.4 560.5,735.5 561.8,736.9 563.5,737.9 564.6,739.5 "/>
</svg>
