<svg xmlns="http://www.w3.org/2000/svg" viewBox="0 0 800 800"><defs><style>.a,.c{fill:none;stroke:#000;stroke-width:13px;}.a{stroke-miterlimit:10;}.b{fill:#fff;}.c{stroke-linejoin:bevel;}</style></defs><title>canvas (30)</title><polyline class="a" points="405.84 295.71 400.13 291.36 393.74 288.05 387.79 284.01 381.45 280.64 375.03 277.43 368.88 273.67 362.25 270.87 355.54 268.3 349.11 265.06 342.37 262.56 335.42 260.66 328.8 257.79 321.87 255.88 314.83 254.39 307.94 252.35 301.01 250.41 293.94 249.06 286.74 248.56 279.65 247.43 272.5 246.8 265.35 246.16 258.18 245.76 251 245.62 243.81 245.28 236.61 245.49 229.46 246.24 222.31 247.03 215.21 248.19 208.14 249.47 201.16 251.17 194.06 252.31 187.18 254.4 180.04 255.54 173.41 258.44 166.36 260.01 159.79 262.96 152.93 265.15 146.33 268 139.66 270.68 133.3 274.05 126.78 277.07 120.58 280.72 114.36 284.29 108.25 288.06 102.1 291.73 95.99 295.48"/><polyline class="a" points="405.98 282.21 400.06 286.26 393.95 290.05 387.63 293.45 381.45 297.11 375.1 300.44 368.53 303.36 362.17 306.68 355.74 309.92 348.83 311.99 342.36 315.15 335.45 317.15 328.83 320.04 321.86 321.82 314.98 323.89 307.87 325.08 300.94 327 293.91 328.48 286.82 329.66 279.7 330.65 272.54 331.33 265.38 332.1 258.18 332.06 251 332.66 243.81 332.19 236.63 332.03 229.52 330.75 222.29 330.89 215.18 329.75 208.08 328.64 200.98 327.44 194.04 325.5 187.08 323.72 180.03 322.21 173.15 320.11 166.35 317.75 159.57 315.35 152.88 312.72 146.56 309.2 139.93 306.47 133.45 303.38 126.96 300.32 120.52 297.14 114.17 293.77 108.22 289.73 101.68 286.64 95.88 282.41"/><polyline class="a" points="326.02 257.17 331.02 262.39 335.04 268.39 338.23 274.83 340.63 281.62 341.28 288.8 340.3 295.91 338.06 302.71 335.47 309.53 330.58 314.93 326.11 320.64"/><polyline class="a" points="276.17 245.94 270.71 250.43 266.54 256.14 262.87 262.14 259.9 268.48 257.37 274.98 255.25 281.72 254.77 288.77 255.82 295.75 257.56 302.52 259.43 309.32 263.19 315.29 266.65 321.43 271.41 326.64 276.14 331.84"/><polygon points="280.07 289.38 282.18 296.93 284.98 304.26 291.5 308.56 298.77 310.8 306.29 309.02 312.13 303.92 315.69 297.04 317.27 289.38 315.61 281.75 312.05 274.9 306.4 269.54 298.77 268.33 291.15 269.53 285.27 274.72 281.95 281.75 280.07 289.38"/><polyline class="b" points="536.27 358.13 529.92 354.69 524.11 350.43 517.67 347.22 511.3 343.92 504.93 340.63 498.61 337.23 492.24 333.9 485.74 330.82 479.05 328.21 472.27 325.81 465.38 323.78 458.57 321.52 451.8 319.14 444.89 317.16 437.97 315.25 431 313.45 423.87 312.47 416.83 310.97 409.62 310.74 402.5 309.82 395.39 308.52 388.18 308.86 381 308.5 373.83 309.04 366.63 308.82 359.47 309.42 352.28 309.79 345.15 310.76 338.22 312.89 330.99 313.33 324.07 315.36 317 316.73 310.22 319.16 303.21 320.79 296.49 323.38 289.86 326.15 283.15 328.7 276.54 331.47 269.9 334.22 263.32 337.09 256.77 340.04 250.38 343.34 244.14 346.9 238.18 350.94 231.87 354.38 225.88 358.34"/><polyline class="a" points="536.27 358.13 529.92 354.69 524.11 350.43 517.67 347.22 511.3 343.92 504.93 340.63 498.61 337.23 492.24 333.9 485.74 330.82 479.05 328.21 472.27 325.81 465.38 323.78 458.57 321.52 451.8 319.14 444.89 317.16 437.97 315.25 431 313.45 423.87 312.47 416.83 310.97 409.62 310.74 402.5 309.82 395.39 308.52 388.18 308.86 381 308.5 373.83 309.04 366.63 308.82 359.47 309.42 352.28 309.79 345.15 310.76 338.22 312.89 330.99 313.33 324.07 315.36 317 316.73 310.22 319.16 303.21 320.79 296.49 323.38 289.86 326.15 283.15 328.7 276.54 331.47 269.9 334.22 263.32 337.09 256.77 340.04 250.38 343.34 244.14 346.9 238.18 350.94 231.87 354.38 225.88 358.34"/><polyline class="a" points="536.05 345.31 530.21 349.5 524.15 353.36 517.81 356.77 511.65 360.48 505.26 363.76 498.85 367.01 492.2 369.76 485.54 372.45 478.89 375.13 472.2 377.71 465.58 380.55 458.63 382.42 451.88 384.89 445.01 387.02 438.05 388.85 430.88 389.71 423.9 391.41 416.76 392.32 409.7 393.7 402.51 394.08 395.36 394.68 388.18 394.82 381 395.34 373.83 394.73 366.66 394.46 359.48 394.24 352.35 393.36 345.17 392.81 338.07 391.65 331.12 389.78 324.15 388.04 317.06 386.81 310.22 384.58 303.3 382.65 296.38 380.68 289.7 378.01 283.11 375.15 276.38 372.63 269.7 369.97 263.4 366.48 256.85 363.53 250.33 360.49 244.39 356.39 238.12 352.9 231.97 349.2 225.79 345.52"/><polyline class="a" points="455.9 320.32 461.27 325.19 465.38 331.19 468.88 337.56 470.25 344.69 471.1 351.79 471.1 359.08 468.27 365.8 464.86 372.14 460.91 378.2 455.71 383.24"/><polyline class="a" points="405.98 308.71 401.2 313.88 397.01 319.49 392.87 325.14 389.76 331.42 386.88 337.84 385.82 344.8 384.93 351.77 386.11 358.7 386.93 365.71 389.35 372.36 392.85 378.49 397.1 384.11 401.4 389.65 406.26 394.72"/><polygon points="410.3 352.38 411.59 360.13 415.17 367.11 421.22 372.09 428.77 373.51 436.42 372.27 442.16 366.94 445.46 359.96 447.3 352.38 445.82 344.68 442.57 337.5 436.39 332.56 428.77 330.61 421.37 332.95 415.43 337.85 411.9 344.74 410.3 352.38"/><path d="M376.46,249.67l.44-7.64-.4-7.61-.36-7.61.17-7.61.5-7.28,6.71-1,.05,7.67-.91,7.5.18,7.53,0,7.53-.93,7.23Zm57.41-58-6.66-.43-6.67.44-6.67.42-6.67-.09-7-.43-5.17,9.18-7.37.43,4.29-5.8,3.23-6,3-6.13,3.23-6.09,1.34-6.76.2-6.76,4,.13,5.21,4.28,5.52,4,4.76,4.93,5.4,4.16,5.37,4.21,4.66,5,5.2,4.41,4.47,4.52-5.29,0-4-3.93Zm.76,43.71,3-6.55,2.13-6.92,1.95-7,2.17-7,5.09.31-1.57,6.61-2.27,6.77-3.27,6.37-2.31,6.76-2.51,6.79-2.85-.32-4.77-5.45-5.18-5.23-5.39-5L413.13,221l-5.7-4.1-1.54,6.82-.83,7.26-.86,7.26-1.75,7-5,1,1.42-7.19.7-7.3.94-7.27.4-7.34.88-7.32,4.21-.34,6,5,6.26,4.58,6.07,4.86,5.31,5.68ZM402.1,188.86l7.16.33,7.18-.46,7.19-.37,7,.33-5.37-5.58L419,178.33l-6-5.12-5.77-5.82v7.66l-1.77,7.21Zm36.39,108.88-4.59-.33-3.16-6.92-2.91-7.25-2.05-7.53L424.53,268l-2.17-7.51-1.41-7.9,4.79-.15,1.18,6.49,1.34,6.64.67,6.79,1.9,6.52,2,6.47,2.38,6.6,1.85-6.74,1.7-6.57,3.21-6,2.66-6.21,3.09-6,4.31-5.24,3.94-5.47,3.79-.2-4.14,6.05-4.1,6.46-3.24,6.93-3.27,6.89L442.51,283,440,290.23Zm36.95-97.68-5.45-.57-5.06-4.79-5.38-4.64-5.22-4.81-5.1-5-6-3.86-5.8-4.11-5.32-4.76-6-3.95,4.79-.32,5.75,5,6.22,4.24,6.09,4.42,5.89,4.67,5.88,4.69,5.93,4.67,5.16,5.89,1.22-7.33-1-7-1.87-6.92-3.81-6.1-3.56-5.79,4.26.08,3.6,5.41,3.76,5.45,2.5,6.13,1.36,6.48-.83,6.54ZM489,211.78l-8-.71-8.08.25,1.07-3.45,7.24.33,7.07.89,7.12-.31,7.1.2,6.88,1.09-1.29,2.8-7.4-.24-7.52-1.1-3.37,6-3.54,5.6-3.83,5.41-3.71,5.5-3.48,5.83-3.61-.33,3.33-5.45,3.43-5.66,4.19-5.15,3.26-5.76Zm5.26,85.83-7.64-.42-7.6.42-7.6.37-7.71-.19-.88-7.17-1.67-6.91-.69-7.08.89-7.07.62-7.06,1.75-6.9,3.35-6,8-.35,8.16-.11,8,.17-1.66,3.42-6.93.45-7-.62-7,.52-2.37,7.62-2,8,7.13-.45,6.9.24L485,268l0,4-6.86.6-7,.11-6.9.33-.34,6.29L465,285.6l1.54,5.86,8.13.14,8.38-.22,8.28.36Zm33.69-102-6.28-.9-6.36,0-6.35-.07-6.19-.61-3.42,6.75-4.68.14,2.53-6.44,1.4-6.72-1.83-6.64-3.1-6.08-3.07-6.19-4.15-5.27,3.95.12,5.83,3.62,6,3.45,6.1,3.27,5.31,4.47,5.68,3.93,5.38,4.36,4.18,5.53,4.18,5.47,2.6,6-3.26-.35Zm-24.89-4.58,7.4.89,7.47.09,7.14.32-5.24-5.29-5.53-5.54-6.65-4.13-6.56-4.2-6.63-4.61,5.25,6.67,3.52,7.52Zm13.44,50.46,6-6.35,5.79-6.53-6.77-.47-6.7-.87-6.93-1.08-5.45,7.07-5.33,7-3.32-.42L498,234l4.66-5.82,5.35-5.25,4.31-6.11,3.78-6.36,3.5.2-4.07,7-4.79,6.33,6.41.9,6.82.39,6.63.53,6.23-5.72,4.8-7.11,2.89.37-4.33,5.94-5.09,5.69-5,5.84-5.37,5.43-5,5.81Zm22.12,56.12-5.63-.4-6.33-4.41-6.32-4.64-5.78-5.3-5.27-6.08-9.81.25,2.15,7,2.3,7.14,4,6.43-4.55.24-2.27-7-2.72-6.63-2.05-6.87-1.06-7.08-.13-7.15.93-7.16,3.32-6.2,7.26.2,7.42.28,6.86,4.94,1.7,8.52-1,6-2.51,5.22L513.38,277l6.23,5.51,6.1,5.31,6.45,4.88ZM501,253.39l-2.39,5.92-.39,6.4.6,6.09,6.11.33,6.31.91,6.06-3.06,1.51-6.55-.55-6.35-5.6-2.75-5.86-.24Zm41.24-48.77.17-7.23-2.44-6.8-3.73-6.09L532,178.72,527.61,173l-5.63-4.5-5.54-5,4.48.28,5.42,4.55,5.26,4.88,4.22,5.83,4.37,5.62,3.36,6.28,1.83,6.86.32,7Zm-5.1-41.09,4.29,5.16,4.79,4.68,4.49,5,3.57,5.69,2.33,6.27,2.41,6.23.56,6.44,6,1.2,6.39.22,6.54.48L577.44,208l-7.23-.63-7.38-.74-7.21-.8.09-7-2-6.82-2.3-6.77-4.2-5.8-4.77-5.31-4.37-5.68-5.17-4.91Zm14.13,82.24-7.57-1.44-7.67-.58-7.93-.74,5.29-6,5.81-5.07,4.93-5.93,5.06-5.77,5.21-5.45,7.49.57,7.61.78,7.28,1.65-2.14,2.37-6.28-.77-6.34-.93-6.43-.71-4.09,5.47-5.3,4.71,9.16,1.06,9.07,1-2.82,2.55-8.85-1-9-1.71-5.1,5.31-4.88,5.47,6.73.57,6.43,1,6.55.83Zm1.19,16.35-3.9-4.36-5.73-1.22-6.5.93-3.62,4.74,3.83,6,7.3,1.74,6.38,1.62,5.65,3.38,5.38,3.71,4.46,4.86,2.92,6.54-.39,6.38-6.58,1.89-7.33-1.09-7-2.43-6.7-3.39-5.17-5.24,1.89-2.38,5.83,4.37,6.32,3.74,7.27,1.09,7.17-2.32-2.48-7.26-4.61-4.75-6-2.63-6.25-2-6.88-2-5.94-3.87-2.8-6.34,2.25-6.13,6-2.55,6.47-.35,6.65,2.73,5.33,5Zm55.24-60-6.56-.88-6.64-.09-6.39-.25-5.29,8.21-3.14-.51,3-5.79,2.36-6.26,2-6.46-.3-6.76-1-6.64-.75-6.75-2.1-6.26,3.94,0,4.6,5.19,4.71,5.16,4.76,5.16,3.42,6.14,3.7,5.92,2.9,6.39.84,7,.43,6.93-3.07-.41Zm-18.52-4.83,8.82,1.06,8.91.15-2.69-6.25-3.07-6.05-3.33-6-4.71-5-4-5,1.25,6.49,1.06,6.91-.2,7Zm-2.33,100.49-4.7-5.33L577,287.58l-4.85-5.2-3.84-6-2.39-6.66L563.75,263l.1-7.31,3.48.71.3,6.95,1.85,6.78,2.41,6.71,4.26,5.73,4.73,5.31,4.93,5.11,5.16,4.76ZM570.59,248.2l5.07-5.77,4.82-6,5-5.78,5.39-5.44,5.31-5.24,7.31.13,7.47.4,7.27,1-2.19,3.06-6.5-.15-6.36-1.31-6.56-.43-5,5.67-5.32,5.49,6.56.84,6.38.18,6.12,1.1-2.11,2.41-6.46-.16-6.33-1.34-6.43-.51-5.76,5.49-4.45,6.51Zm52.32,29,3.39,6.23,3.17,6.32-.07,7.06-6.84,1.9L615.45,297l-7.19-1.3-6.88-2.51-6.14-4L589,285.47l-5.6-4.73-4-6.15L577.24,268l3.47-6,6.47-3,7.13-.65,7,1.1,6.13,3.54,5.94,3.74,5.34,4.65ZM616.83,294l7.39-2.48-1.83-7.75-4.44-6.58-4.5-5.81-5.25-5.28-6.87-2.86-7.17-1.38-8,.11-5.24,5.64,2.22,7.3,3.66,5.66,5.21,4.29,5.67,3.62,6,3,6.46,1.87Zm14.53-130.45,6.25,1.57,5.78,2.84,4.42,4.85,1.81,6.34-1.53,6.19-3.84,4.78,4.76,4.25-.21,6.47-3.09,6.52-6.14,4.07-7.31.4L625,212l-7.07-.14,2.61-6.58,1.19-7.13-.44-7.17-.41-7.21-2.3-6.85-2.87-6.6-2.31-6.58,5.81-.13,6.06.47Zm-5.68,24.69,6.09.39,6.06-.68,6-2.54,1.62-6.1-3.54-7.76-8.25-2.22-6.69.29-7-.52,2.93,6.25,2.11,6.31Zm-2.88,20.43,5.52.53,5.54-.5,7.06-2.11,4.44-5.57-.87-6.73-6.68-1.72-5.95.47-6.22-.52-.25,8.38Zm31.83,12.8-4.06,6.48L647,234.65l-3.56,6.73-4.57,5.36L632.73,250l-6.44,2.65-7,.63-6.72-2-4.8-4.55,2.35-6.59,5.67-5.67,4.94-6.28,4.64-6.44,3.12-.07L624,228.08l-4.57,6.49L614,240.34l-.58,7.28,7.24,2.12,7.07-.13,6.32-3.25,5.19-4.91,3.82-6.63,4.09-6.47,3.46-6.92Zm21.67,68.86-4.46-6.19L667.28,278l-4.36-7.68-2.46-8.59,5.18.44,2.58,6.31,3,6.33,2.92,6.44,4.34,5.57,4.46,5.44,3.79,5.78-1.94-.36-6.67-3.58-6.64-3.71-6.73-3.54-6.88-3.28-6.25-4.39-6.71-3.6-6.64-3.74-6.3-4.74,3,6.24,3.21,5.83,4.38,5,4.55,4.82,5.1,4.24,4.82,4.62-4.42.13L647,292.52l-5.84-5.15-5.48-5.57-4.32-6.52-3.65-6.9L626,260.89l2.85-.14,5.48,4.44,6.13,3.4L646,273l5.92,3.73,6.15,3.33,6.27,3.12,6,3.54ZM660.49,163.54l.78,7.48,1.22,7.4.58,7.5-.74,7.49-2.08,7.21-1.77,7.13,7.07-.7,7.27.13,7.25-1.07-1.25,4.22-6.6-.14-6.38.7-6.39.46-6.19.34,2.42-6.4,1.36-6.9,1.76-6.84,0-7.06-.7-7-.26-7.06-1.59-6.86Zm9.25,57-3.16,5.75-2.42,6.07-2.42,6.06L659,244.35,656,250.63l7.78-.54,7.43-.34,7.45.46,7.47-.7-.56,3.58-7.25-.52-7.08.36-7.08.18-7.09,0-7,.17,2.19-6.75,3.62-6.23,2.89-6.56,2.95-6.54,3.66-6ZM718.41,205l-6.65.54-6.51,1.34-6.53,1.25-6.61.66-6.22.32,1.72-7.21,1.64-7.56,2-7.52.31-7.77-.14-7.73v-7.45l7.24,0,7.58-.07,7.58.08,7.52-.16.31,4.21L715,167.4l-6.43.5-6.42.48-6.69-.37.41,8.74-1.07,8.88,8.54-.79,8.14-.76,8.18-1.3-.39,4.09L711,187.93l-8.24.56-8.09,1.09-1.13,7.86L691.11,205l6.85-1,7.06-.43,6.92-1.44,6.94-.68Zm-10.76,11.47L706,222.86l-.84,6.54-.86,6.54-1.35,6.45-1.64,6.78,7.61-1,7.28-.69,7.34.14,7.25-1,7.44-.81-.39,3.44-6.93.67-7.15.59-7.16.41-7.15.59-7.14.89-6.95-.24,1-6.89,1.14-7.13,2.21-6.9,1.35-7.09,1.92-6.7Z"/><polygon points="251.21 551.2 250.12 559.03 246.44 566.05 240.88 571.67 233.69 574.85 226 575.75 218.37 574.68 211.33 571.39 205.81 565.86 202.17 558.94 201.18 551.2 202.11 544.27 204.86 537.79 206.71 530.96 209.83 524.64 213.04 518.37 216.27 512.12 219.3 505.77 223.04 499.8 226 493.11 229.56 499.47 232.63 505.81 235.9 512.03 238.77 518.45 242.51 524.47 245.08 531.04 247.25 537.75 249.37 544.41 251.21 551.2"/><polygon class="c" points="251.21 551.2 250.12 559.03 246.44 566.05 240.88 571.67 233.69 574.85 226 575.75 218.37 574.68 211.33 571.39 205.81 565.86 202.17 558.94 201.18 551.2 202.11 544.27 204.86 537.79 206.71 530.96 209.83 524.64 213.04 518.37 216.27 512.12 219.3 505.77 223.04 499.8 226 493.11 229.56 499.47 232.63 505.81 235.9 512.03 238.77 518.45 242.51 524.47 245.08 531.04 247.25 537.75 249.37 544.41 251.21 551.2"/></svg>