<svg xmlns="http://www.w3.org/2000/svg" xmlns:xlink="http://www.w3.org/1999/xlink" viewBox="0 0 800 800"><defs><style>.a,.c,.e,.f,.g{fill:none;}.b{fill:#fff;}.c{stroke:#000;stroke-width:13px;}.c,.e,.f,.g{stroke-linejoin:bevel;}.d{clip-path:url(#a);}.e,.f,.g{stroke:#fff;}.e,.f{stroke-linecap:round;stroke-width:9px;}.f{stroke-dasharray:0 24.36;}.g{stroke-width:7px;}</style><clipPath id="a"><polygon class="a" points="204.42 549.43 211.16 548.45 218.32 549.01 225.49 548.9 232.65 548.77 239.81 548.54 246.97 548.92 254.13 549.42 261.29 549.01 268.45 549.49 275.62 548.96 282.78 548.51 289.94 549.53 297.1 549.35 304.26 548.52 311.42 549.47 318.59 548.99 325.75 548.63 332.91 549.43 340.07 548.6 347.24 548.58 354.4 548.45 361.56 549.51 368.73 549.29 375.89 548.41 383.05 549.42 390.22 549.54 397.38 548.63 404.54 548.7 411.71 549.15 418.87 549.22 426.04 549.28 433.2 548.9 440.36 549.1 447.53 548.62 454.69 549.47 461.86 549.17 469.02 549.5 476.19 548.7 483.35 549.52 490.51 548.5 497.68 548.93 504.84 549.55 512.01 549.38 519.17 548.81 526.34 549.15 533.5 549.34 540.66 549 547.82 549.5 554.98 549.16 562.15 548.75 569.31 549.01 576.47 549.08 583.64 549.45 590.8 549.42 597.97 549.04 605.13 549.35 612.3 549.41 619.47 548.8 626.63 549.55 633.8 548.44 640.97 549.14 648.13 548.81 655.3 548.63 662.47 549.51 669.64 549.39 676.8 549.32 683.97 548.97 691.14 548.71 698.31 548.97 705.48 548.83 712.65 548.73 719.82 549.55 727.05 548.95 727.49 556.41 726.55 563.83 726.84 571.25 726.45 578.66 726.5 586.07 727.45 593.49 727.48 600.9 727.55 608.32 726.65 615.74 727.42 623.16 727.05 630.58 727.39 638.41 719.84 637.43 712.72 636.41 705.47 636.92 698.33 636.12 691.17 635.47 684.02 634.84 676.9 633.81 669.67 634.2 662.56 632.91 655.37 632.74 648.24 631.76 641.01 632.02 633.86 631.4 626.71 630.7 619.55 630.13 612.46 628.64 605.21 629.24 598.09 628.05 590.97 627.02 583.74 627.36 576.56 627.04 569.42 626.15 562.26 625.5 555.11 624.9 547.9 624.9 540.82 623.33 533.6 623.4 526.47 622.55 519.31 621.94 512.16 621.07 504.99 620.74 497.79 620.62 490.63 619.99 483.44 619.82 476.28 619.23 469.17 617.92 461.94 618.23 454.85 616.77 447.65 616.64 440.5 615.88 433.35 615.15 426.13 615.27 418.95 614.93 411.8 614.2 404.7 612.93 397.52 612.6 390.32 612.52 383.14 612.25 375.97 611.73 368.86 610.49 361.66 610.4 354.48 610.08 347.4 608.42 340.23 608.04 332.99 608.45 325.83 607.75 318.66 607.33 311.57 605.77 304.33 606.11 297.18 605.35 290 605.04 282.84 604.38 275.65 604.07 268.5 603.35 261.37 602.27 254.2 601.83 247.06 600.82 239.83 601.18 232.71 599.91 225.5 599.96 218.38 598.73 211.2 598.22 204.1 597.9 203.69 591 204.32 584.01 203.97 577.01 204.44 570.01 203.52 563.01 204.5 556.02 204.42 549.43"/></clipPath></defs><title>kiln-7</title><polygon class="b" points="614.96 702.07 607.78 702.5 600.57 702.63 593.36 702.07 586.15 702.25 578.93 701.85 571.72 702.32 564.5 702.71 557.29 701.72 550.08 702.5 542.87 702.45 535.65 702.09 528.43 702.27 521.22 701.9 514 702.64 506.79 702.21 499.58 702.68 492.36 702.2 485.15 702.4 477.93 701.77 470.72 702.12 463.5 702.19 456.29 702.34 449.07 702.41 441.86 702.65 434.64 701.76 427.43 702 420.21 702.29 412.99 701.78 405.78 702.44 398.56 702.28 391.35 701.84 384.13 702.6 376.91 702.42 369.7 701.92 362.48 702.25 355.26 702.36 348.05 702.24 340.83 701.96 333.62 702.32 326.4 702.48 319.18 702.59 311.96 702.76 304.75 702.13 297.53 702.27 290.31 702.06 283.1 701.67 275.88 702.02 268.67 702.51 261.45 702.65 254.24 702.16 247.02 701.8 239.81 702.52 232.59 702.12 225.38 701.79 218.16 702.05 210.94 701.66 203.72 702.61 196.51 702.28 189.29 702.76 182.07 701.87 174.85 702.49 167.63 701.68 160.41 702.21 153.19 701.64 145.97 702.29 138.75 702.49 131.53 702.35 124.31 702.44 117.09 702.22 109.87 701.66 102.65 701.86 95.43 702.02 88.21 701.81 80.98 702.29 73.57 702.26 79.8 698.55 85.28 694.09 91.04 690.03 96.91 686.14 102.58 681.94 108.44 678.02 113.8 673.39 119.75 669.61 125.86 666.05 131.43 661.73 136.92 657.28 142.56 653.05 148.4 649.11 154.11 644.97 160.14 641.29 165.8 637.09 171.93 633.54 177.43 628.95 184.72 629.77 191.93 628.98 199.14 628.68 206.35 628.76 213.57 628.9 220.78 629.55 228 629.53 235.21 629.53 242.42 628.75 249.63 629.37 256.85 629.49 264.07 629.15 271.28 628.7 278.5 629.54 285.71 629.19 292.92 629.74 300.14 628.92 307.35 628.87 314.57 628.69 321.78 629.59 329 629.13 336.21 629.03 343.43 629.57 350.64 629.07 357.86 628.72 365.07 628.76 372.29 629.7 379.51 629.04 386.72 629.43 393.94 629.73 401.15 629.52 408.37 628.91 415.59 628.88 422.8 629.45 430.02 629.42 437.24 628.95 444.45 628.75 451.67 628.82 458.88 629.78 466.1 628.64 473.32 629.3 480.54 629.67 487.75 629.08 494.97 629.29 502.19 629.2 509.4 629.45 516.62 628.98 523.83 628.8 531.04 628.66 538.26 629.17 545.48 628.74 552.69 629.24 559.91 629.72 567.12 629.54 574.34 628.62 581.56 629.22 588.78 629.3 595.99 628.79 603.21 629.45 610.43 628.91 617.65 628.77 624.87 629.62 632.09 628.83 639.31 629.51 646.53 629.36 653.75 629.24 660.97 628.65 668.19 629.67 675.41 628.7 682.63 629.71 689.85 629.38 697.07 629.38 704.29 628.59 711.52 629.68 718.74 629.2 712.73 632.88 706.89 636.82 701.21 641 695.93 645.73 690.21 649.85 683.84 653.05 678.74 658.04 672.34 661.18 666.61 665.27 660.98 669.53 655.36 673.78 649.92 678.3 644.04 682.18 637.73 685.47 632.19 689.84 626.23 693.63 621.11 698.62 614.96 702.07"/><polygon class="c" points="614.96 702.07 607.78 702.5 600.57 702.63 593.36 702.07 586.15 702.25 578.93 701.85 571.72 702.32 564.5 702.71 557.29 701.72 550.08 702.5 542.87 702.45 535.65 702.09 528.43 702.27 521.22 701.9 514 702.64 506.79 702.21 499.58 702.68 492.36 702.2 485.15 702.4 477.93 701.77 470.72 702.12 463.5 702.19 456.29 702.34 449.07 702.41 441.86 702.65 434.64 701.76 427.43 702 420.21 702.29 412.99 701.78 405.78 702.44 398.56 702.28 391.35 701.84 384.13 702.6 376.91 702.42 369.7 701.92 362.48 702.25 355.26 702.36 348.05 702.24 340.83 701.96 333.62 702.32 326.4 702.48 319.18 702.59 311.96 702.76 304.75 702.13 297.53 702.27 290.31 702.06 283.1 701.67 275.88 702.02 268.67 702.51 261.45 702.65 254.24 702.16 247.02 701.8 239.81 702.52 232.59 702.12 225.38 701.79 218.16 702.05 210.94 701.66 203.72 702.61 196.51 702.28 189.29 702.76 182.07 701.87 174.85 702.49 167.63 701.68 160.41 702.21 153.19 701.64 145.97 702.29 138.75 702.49 131.53 702.35 124.31 702.44 117.09 702.22 109.87 701.66 102.65 701.86 95.43 702.02 88.21 701.81 80.98 702.29 73.57 702.26 79.8 698.55 85.28 694.09 91.04 690.03 96.91 686.14 102.58 681.94 108.44 678.02 113.8 673.39 119.75 669.61 125.86 666.05 131.43 661.73 136.92 657.28 142.56 653.05 148.4 649.11 154.11 644.97 160.14 641.29 165.8 637.09 171.93 633.54 177.43 628.95 184.72 629.77 191.93 628.98 199.14 628.68 206.35 628.76 213.57 628.9 220.78 629.55 228 629.53 235.21 629.53 242.42 628.75 249.63 629.37 256.85 629.49 264.07 629.15 271.28 628.7 278.5 629.54 285.71 629.19 292.92 629.74 300.14 628.92 307.35 628.87 314.57 628.69 321.78 629.59 329 629.13 336.21 629.03 343.43 629.57 350.64 629.07 357.86 628.72 365.07 628.76 372.29 629.7 379.51 629.04 386.72 629.43 393.94 629.73 401.15 629.52 408.37 628.91 415.59 628.88 422.8 629.45 430.02 629.42 437.24 628.95 444.45 628.75 451.67 628.82 458.88 629.78 466.1 628.64 473.32 629.3 480.54 629.67 487.75 629.08 494.97 629.29 502.19 629.2 509.4 629.45 516.62 628.98 523.83 628.8 531.04 628.66 538.26 629.17 545.48 628.74 552.69 629.24 559.91 629.72 567.12 629.54 574.34 628.62 581.56 629.22 588.78 629.3 595.99 628.79 603.21 629.45 610.43 628.91 617.65 628.77 624.87 629.62 632.09 628.83 639.31 629.51 646.53 629.36 653.75 629.24 660.97 628.65 668.19 629.67 675.41 628.7 682.63 629.71 689.85 629.38 697.07 629.38 704.29 628.59 711.52 629.68 718.74 629.2 712.73 632.88 706.89 636.82 701.21 641 695.93 645.73 690.21 649.85 683.84 653.05 678.74 658.04 672.34 661.18 666.61 665.27 660.98 669.53 655.36 673.78 649.92 678.3 644.04 682.18 637.73 685.47 632.19 689.84 626.23 693.63 621.11 698.62 614.96 702.07"/><polygon class="b" points="615 622.19 607.78 622.17 600.57 622.5 593.36 621.63 586.15 621.79 578.93 621.66 571.72 622.12 564.5 622.24 557.29 622.37 550.08 622.25 542.87 622.24 535.65 622.54 528.43 622.7 521.22 622.28 514 622.74 506.79 622.02 499.58 621.69 492.36 622.28 485.15 622.23 477.93 622.65 470.72 621.95 463.5 622.33 456.29 622.66 449.07 622.62 441.86 621.78 434.64 622.54 427.43 622.09 420.21 622.15 412.99 622.19 405.78 621.79 398.56 622.43 391.35 622.37 384.13 622.05 376.91 622.54 369.7 622.23 362.48 621.89 355.26 622.13 348.05 622.71 340.83 622.31 333.62 622.17 326.4 621.83 319.18 622.57 311.96 621.61 304.75 622.19 297.53 622.09 290.31 621.86 283.1 622.77 275.88 621.98 268.67 622.09 261.45 621.79 254.24 622.15 247.02 621.65 239.81 621.84 232.59 622.7 225.38 622.1 218.16 622.07 210.94 621.9 203.72 622.51 196.51 621.94 189.29 622.25 182.07 621.66 174.85 622.28 167.63 622 160.41 622.19 153.19 621.64 145.97 622.51 138.75 622.39 131.53 622.45 124.31 621.74 117.09 622.31 109.87 621.89 102.65 622.01 95.43 622.16 88.21 622.06 80.98 621.72 73.38 622.32 79.44 618.03 85.16 613.92 90.92 609.86 97.08 606.37 102.5 601.83 108.12 597.57 113.96 593.62 120.01 589.98 125.65 585.76 131.62 582 137.04 577.46 142.57 573.07 148.8 569.68 154.66 565.75 159.93 561 166.16 557.59 171.59 553.04 177.43 548.96 184.72 548.8 191.93 549.79 199.14 549.15 206.35 548.85 213.57 548.61 220.78 549.22 228 549.05 235.21 549.73 242.42 549.33 249.63 548.68 256.85 549.69 264.07 549.3 271.28 549.51 278.5 549.31 285.71 549.68 292.92 548.87 300.14 549.5 307.35 549.58 314.57 549.77 321.78 549.04 329 549.21 336.21 548.63 343.43 549.76 350.64 549.46 357.86 549.53 365.07 549.77 372.29 548.92 379.51 549.31 386.72 549.1 393.94 548.61 401.15 549.61 408.37 548.66 415.59 549.1 422.8 548.84 430.02 549.09 437.24 548.88 444.45 549.5 451.67 549.35 458.88 549.16 466.1 549.42 473.32 549.34 480.54 549.41 487.75 549.44 494.97 549.14 502.19 548.88 509.4 549.05 516.62 549.04 523.83 549.28 531.04 549.41 538.26 549.37 545.48 548.9 552.69 549.42 559.91 549.72 567.12 549.33 574.34 549.64 581.56 549.38 588.78 549.48 595.99 549.46 603.21 549.03 610.43 549.28 617.65 548.98 624.87 549.63 632.09 549.55 639.31 548.96 646.53 549.3 653.75 548.83 660.97 549.07 668.19 549.61 675.41 549.67 682.63 548.6 689.85 549.09 697.07 549.31 704.29 549.75 711.52 548.74 718.22 549.38 713.33 553.73 707.52 557.72 701.58 561.51 695.45 565.04 689.98 569.53 684.45 573.91 678.53 577.74 672.64 581.62 666.6 585.27 661.14 589.76 655.37 593.8 649.3 597.42 643.78 601.82 637.91 605.73 632.47 610.25 626.73 614.35 620.9 618.32 615 622.19"/><polygon class="c" points="615 622.19 607.78 622.17 600.57 622.5 593.36 621.63 586.15 621.79 578.93 621.66 571.72 622.12 564.5 622.24 557.29 622.37 550.08 622.25 542.87 622.24 535.65 622.54 528.43 622.7 521.22 622.28 514 622.74 506.79 622.02 499.58 621.69 492.36 622.28 485.15 622.23 477.93 622.65 470.72 621.95 463.5 622.33 456.29 622.66 449.07 622.62 441.86 621.78 434.64 622.54 427.43 622.09 420.21 622.15 412.99 622.19 405.78 621.79 398.56 622.43 391.35 622.37 384.13 622.05 376.91 622.54 369.7 622.23 362.48 621.89 355.26 622.13 348.05 622.71 340.83 622.31 333.62 622.17 326.4 621.83 319.18 622.57 311.96 621.61 304.75 622.19 297.53 622.09 290.31 621.86 283.1 622.77 275.88 621.98 268.67 622.09 261.45 621.79 254.24 622.15 247.02 621.65 239.81 621.84 232.59 622.7 225.38 622.1 218.16 622.07 210.94 621.9 203.72 622.51 196.51 621.94 189.29 622.25 182.07 621.66 174.85 622.28 167.63 622 160.41 622.19 153.19 621.64 145.97 622.51 138.75 622.39 131.53 622.45 124.31 621.74 117.09 622.31 109.87 621.89 102.65 622.01 95.43 622.16 88.21 622.06 80.98 621.72 73.38 622.32 79.44 618.03 85.16 613.92 90.92 609.86 97.08 606.37 102.5 601.83 108.12 597.57 113.96 593.62 120.01 589.98 125.65 585.76 131.62 582 137.04 577.46 142.57 573.07 148.8 569.68 154.66 565.75 159.93 561 166.16 557.59 171.59 553.04 177.43 548.96 184.72 548.8 191.93 549.79 199.14 549.15 206.35 548.85 213.57 548.61 220.78 549.22 228 549.05 235.21 549.73 242.42 549.33 249.63 548.68 256.85 549.69 264.07 549.3 271.28 549.51 278.5 549.31 285.71 549.68 292.92 548.87 300.14 549.5 307.35 549.58 314.57 549.77 321.78 549.04 329 549.21 336.21 548.63 343.43 549.76 350.64 549.46 357.86 549.53 365.07 549.77 372.29 548.92 379.51 549.31 386.72 549.1 393.94 548.61 401.15 549.61 408.37 548.66 415.59 549.1 422.8 548.84 430.02 549.09 437.24 548.88 444.45 549.5 451.67 549.35 458.88 549.16 466.1 549.42 473.32 549.34 480.54 549.41 487.75 549.44 494.97 549.14 502.19 548.88 509.4 549.05 516.62 549.04 523.83 549.28 531.04 549.41 538.26 549.37 545.48 548.9 552.69 549.42 559.91 549.72 567.12 549.33 574.34 549.64 581.56 549.38 588.78 549.48 595.99 549.46 603.21 549.03 610.43 549.28 617.65 548.98 624.87 549.63 632.09 549.55 639.31 548.96 646.53 549.3 653.75 548.83 660.97 549.07 668.19 549.61 675.41 549.67 682.63 548.6 689.85 549.09 697.07 549.31 704.29 549.75 711.52 548.74 718.22 549.38 713.33 553.73 707.52 557.72 701.58 561.51 695.45 565.04 689.98 569.53 684.45 573.91 678.53 577.74 672.64 581.62 666.6 585.27 661.14 589.76 655.37 593.8 649.3 597.42 643.78 601.82 637.91 605.73 632.47 610.25 626.73 614.35 620.9 618.32 615 622.19"/><g class="d"><polygon points="1195.18 266.74 1189.63 262.49 1182.71 261.18 1175.86 259.96 1168.96 258.66 1161.94 258.6 1154.97 257.81 1147.95 258.04 1140.94 257.95 1133.93 257.79 1126.72 258.29 1119.49 257.8 1112.3 258.57 1105.09 258.89 1097.94 259.93 1090.74 260.38 1083.51 260.61 1076.3 261.15 1069.26 262.87 1062.14 264 1055.03 265.22 1047.88 266.33 1040.88 268.02 1034.1 270.6 1026.99 271.88 1020.14 274.16 1013 275.32 1006.22 277.86 999.42 280.28 992.25 281.4 985.51 284.01 978.61 286.09 971.62 287.83 964.73 289.93 957.88 292.18 950.95 294.13 943.99 296.02 937.18 298.39 930.22 300.28 923.32 302.36 916.52 304.76 909.48 306.41 902.87 309.36 896.1 311.84 889.26 314.09 882.1 315.39 875.56 318.56 868.48 320.13 861.75 322.73 854.88 324.91 848 327.1 841.37 329.96 834.56 332.33 827.68 334.49 820.91 336.98 814.3 339.91 807.27 341.65 800.77 344.89 793.85 346.93 786.97 349.1 780.3 351.85 773.46 354.14 767.07 357.6 760.19 359.8 753.55 362.63 746.75 365.02 739.88 367.24 733.39 370.46 726.46 372.52 719.87 375.48 713.03 377.78 706.23 380.2 699.71 383.31 692.86 385.62 686.23 388.45 679.75 391.65 672.81 393.75 666.5 397.35 659.86 400.16 653.21 402.96 646.3 405.14 639.53 407.63 633.16 411.08 626.49 413.81 620.02 417.01 613.32 419.46 606.71 422.12 600.23 425.11 593.61 427.74 587.11 430.66 580.91 434.26 574.03 436.35 567.85 439.96 561.49 443.2 554.93 446 548.27 448.57 542.14 452.29 535.58 455.09 529.13 458.13 522.4 460.58 516.41 464.56 509.6 466.86 503.48 470.54 496.93 473.39 490.5 476.45 484.49 480.35 478.1 483.49 471.74 486.71 465.37 489.92 459.44 493.92 452.72 496.47 446.82 500.51 440.64 504.06 434.67 507.95 428.07 510.77 422.39 515.14 415.72 518.08 409.74 522.16 403.67 526.09 397.89 530.45 392.09 534.75 385.6 538.11 380 542.71 374.25 547.11 368.77 551.84 363.43 556.75 358.75 562.3 355.02 568.5 352.24 575.07 351.24 582.28 354.58 588.5 360.44 592.09 366.47 595.52 373.36 596.39 380.2 597.47 387.12 597.39 394.33 596.92 401.57 597.01 408.73 595.84 416 595.77 423.02 593.75 430.29 593.52 437.32 591.75 444.53 591.01 451.56 589.32 458.74 588.34 465.86 587.11 472.93 585.56 479.9 583.61 486.81 581.45 493.89 579.96 500.98 578.53 508.11 577.27 514.92 574.7 521.99 573.18 528.88 570.98 535.8 568.92 542.84 567.26 549.82 565.42 556.87 563.79 563.88 562.03 570.88 560.22 577.77 558.04 584.51 555.33 591.58 553.77 598.38 551.27 605.28 549.12 612.24 547.17 619.27 545.43 625.95 542.58 632.93 540.68 639.65 537.96 646.71 536.31 653.41 533.55 660.37 531.56 667.42 529.87 673.94 526.58 681.01 524.9 687.67 522.05 694.53 519.77 701.47 517.7 708.26 515.2 715.14 512.98 722.06 510.85 728.83 508.31 735.57 505.68 742.5 503.58 749.26 501.01 755.94 498.23 762.71 495.7 769.3 492.69 776.14 490.34 782.96 487.93 789.91 485.86 796.46 482.75 803.21 480.15 809.9 477.4 817.02 475.75 823.38 472.15 830.12 469.54 837.1 467.52 843.54 464.14 850.23 461.39 857.14 459.19 863.85 456.49 870.79 454.33 877.03 450.49 883.88 448.12 890.67 445.62 897.17 442.41 903.91 439.77 910.86 437.63 917.1 433.81 923.84 431.18 930.5 428.37 937.26 425.95 943.66 422.68 950.22 419.81 956.75 416.85 963.47 414.34 970.1 411.6 976.41 408.17 983.18 405.74 989.64 402.63 995.94 399.17 1002.64 396.56 1008.79 392.8 1015.31 389.81 1022.01 387.2 1028.53 384.21 1034.56 380.22 1041.07 377.22 1047.81 374.68 1053.93 370.87 1060.29 367.58 1066.62 364.23 1072.93 360.83 1079.43 357.81 1085.95 354.8 1092.09 351.09 1098.19 347.32 1104.43 343.81 1110.68 340.31 1117.37 337.57 1123.2 333.35 1129.29 329.58 1135.74 326.4 1141.47 322.06 1147.92 318.83 1153.61 314.44 1159.38 310.19 1165.04 305.8 1170.93 301.73 1176.67 297.43 1181.86 292.49 1187.31 287.81 1192.11 282.46 1196.23 276.53 1195.18 266.74"/></g><polygon class="b" points="544.98 338.97 545.09 346.14 544.67 353.31 545.13 360.51 544.25 367.65 543.74 374.81 543.01 381.95 541.69 389.01 540.79 396.12 539.51 403.18 539.36 410.42 537.37 417.36 535.92 424.38 534.78 431.48 532.38 438.28 530.75 445.26 528.96 452.21 526.8 459.06 524.63 465.9 521.68 472.46 519.48 479.3 516.44 485.8 513.34 492.27 510.66 498.94 507.57 505.43 503.46 511.36 500.19 517.76 496.64 524.01 492.32 529.75 487.87 535.38 483.51 541.07 478.73 546.41 474.39 552.17 468.98 556.9 463.97 562.07 458.45 566.67 452.64 570.9 446.31 574.32 440.19 578.02 433.71 581.02 427.3 584.22 420.42 586.18 413.59 588.27 406.69 590.37 399.5 590.78 392.33 590.44 385.18 590.51 378.05 589.87 370.91 588.93 364.04 586.8 357.2 584.59 350.52 581.92 344.39 578.13 337.8 575.16 331.89 571.06 326.32 566.5 320.59 562.15 315.68 556.89 310.69 551.75 306.13 546.22 300.95 541.22 296.69 535.45 292.33 529.75 288.01 524 285.04 517.4 280.59 511.7 277.42 505.24 273.68 499.09 271.5 492.18 267.82 485.97 265.09 479.33 262.6 472.6 260.83 465.61 257.45 459.19 255.96 452.13 253.28 445.44 251.61 438.45 250.45 431.35 248.95 424.34 246.54 417.51 246.28 410.26 244.26 403.33 243.8 396.15 242.73 389.06 241.63 381.96 240.94 374.82 240.39 367.66 239.93 360.5 239.3 353.34 239.8 346.14 239.25 338.97 239.32 331.75 239.98 324.54 240.06 317.32 240.97 310.14 241.4 302.94 241.91 295.75 242.84 288.59 243.27 281.37 244.65 274.27 245.93 267.17 247.37 260.1 248.62 252.99 250.68 246.06 252.17 239 254.49 232.16 256.5 225.23 257.92 218.11 260.44 211.34 262.93 204.56 266.2 198.1 268.96 191.44 271.11 184.49 274.64 178.18 278.31 171.96 281.21 165.31 285.2 159.28 289.28 153.34 293.58 147.55 297.61 141.57 302.34 136.13 306.32 130.05 311.88 125.36 316.3 119.57 322.08 115.21 328.16 111.3 334.74 108.1 341.95 106.88 348.96 105 356.21 104.42 363.41 103.59 370.6 102.69 377.84 102.43 385.06 101.21 392.33 101.87 399.58 101.77 406.83 102.15 414.08 102.4 421.24 103.7 428.56 103.67 435.73 104.85 442.83 106.42 449.8 108.52 456.63 111.04 462.51 115.29 467.76 120.22 472.96 125.2 477.8 130.54 482.37 136.1 487.1 141.54 491.07 147.56 495.87 153.02 499.86 159.05 503.23 165.45 506.58 171.85 510.18 178.11 513.24 184.65 516.39 191.15 518.89 197.93 522.02 204.46 523.76 211.51 526.68 218.13 528.35 225.18 530.84 231.96 532.99 238.86 533.91 246.07 536.56 252.87 536.88 260.18 538.57 267.19 540.14 274.24 541.21 281.38 542.25 288.53 542.29 295.79 543.74 302.9 544.47 310.08 544.49 317.32 544.39 324.55 544.55 331.76 544.98 338.97"/><polygon class="c" points="544.98 338.97 545.09 346.14 544.67 353.31 545.13 360.51 544.25 367.65 543.74 374.81 543.01 381.95 541.69 389.01 540.79 396.12 539.51 403.18 539.36 410.42 537.37 417.36 535.92 424.38 534.78 431.48 532.38 438.28 530.75 445.26 528.96 452.21 526.8 459.06 524.63 465.9 521.68 472.46 519.48 479.3 516.44 485.8 513.34 492.27 510.66 498.94 507.57 505.43 503.46 511.36 500.19 517.76 496.64 524.01 492.32 529.75 487.87 535.38 483.51 541.07 478.73 546.41 474.39 552.17 468.98 556.9 463.97 562.07 458.45 566.67 452.64 570.9 446.31 574.32 440.19 578.02 433.71 581.02 427.3 584.22 420.42 586.18 413.59 588.27 406.69 590.37 399.5 590.78 392.33 590.44 385.18 590.51 378.05 589.87 370.91 588.93 364.04 586.8 357.2 584.59 350.52 581.92 344.39 578.13 337.8 575.16 331.89 571.06 326.32 566.5 320.59 562.15 315.68 556.89 310.69 551.75 306.13 546.22 300.95 541.22 296.69 535.45 292.33 529.75 288.01 524 285.04 517.4 280.59 511.7 277.42 505.24 273.68 499.09 271.5 492.18 267.82 485.97 265.09 479.33 262.6 472.6 260.83 465.61 257.45 459.19 255.96 452.13 253.28 445.44 251.61 438.45 250.45 431.35 248.95 424.34 246.54 417.51 246.28 410.26 244.26 403.33 243.8 396.15 242.73 389.06 241.63 381.96 240.94 374.82 240.39 367.66 239.93 360.5 239.3 353.34 239.8 346.14 239.25 338.97 239.32 331.75 239.98 324.54 240.06 317.32 240.97 310.14 241.4 302.94 241.91 295.75 242.84 288.59 243.27 281.37 244.65 274.27 245.93 267.17 247.37 260.1 248.62 252.99 250.68 246.06 252.17 239 254.49 232.16 256.5 225.23 257.92 218.11 260.44 211.34 262.93 204.56 266.2 198.1 268.96 191.44 271.11 184.49 274.64 178.18 278.31 171.96 281.21 165.31 285.2 159.28 289.28 153.34 293.58 147.55 297.61 141.57 302.34 136.13 306.32 130.05 311.88 125.36 316.3 119.57 322.08 115.21 328.16 111.3 334.74 108.1 341.95 106.88 348.96 105 356.21 104.42 363.41 103.59 370.6 102.69 377.84 102.43 385.06 101.21 392.33 101.87 399.58 101.77 406.83 102.15 414.08 102.4 421.24 103.7 428.56 103.67 435.73 104.85 442.83 106.42 449.8 108.52 456.63 111.04 462.51 115.29 467.76 120.22 472.96 125.2 477.8 130.54 482.37 136.1 487.1 141.54 491.07 147.56 495.87 153.02 499.86 159.05 503.23 165.45 506.58 171.85 510.18 178.11 513.24 184.65 516.39 191.15 518.89 197.93 522.02 204.46 523.76 211.51 526.68 218.13 528.35 225.18 530.84 231.96 532.99 238.86 533.91 246.07 536.56 252.87 536.88 260.18 538.57 267.19 540.14 274.24 541.21 281.38 542.25 288.53 542.29 295.79 543.74 302.9 544.47 310.08 544.49 317.32 544.39 324.55 544.55 331.76 544.98 338.97"/><polyline class="c" points="264.21 200.11 268.72 205.73 273.96 210.68 278.48 216.29 283.84 221.13 288.12 227 293.8 231.51 298.84 236.64 303.64 242.02 308.66 247.17 314.18 251.82 318.98 257.21 324.64 261.7 329.36 267.2 334.93 271.78 340.31 276.56 345.37 281.69 351.47 285.65 356.65 290.67 362.41 295 367.8 299.77 372.97 304.81 379 308.81 384.43 313.53 389.95 318.14 395.77 322.38 401.32 326.98 406.96 331.46 412.71 335.81 418.85 339.6 424.77 343.69 430.78 347.65 436.43 352.16 442.59 355.91 448.63 359.83 454.67 363.76 461.33 366.66 467.38 370.57 473.58 374.25 480 377.5 486.07 381.44 492.68 384.33 499 387.82 505.61 390.69 512.46 393.01 519.09 395.82 525.83 398.33 532.64 400.64 539.47 402.9"/><polyline class="c" points="248.54 426.38 249.92 419.52 252.27 412.95 254.68 406.4 255.99 399.53 258.53 393.01 260.07 386.2 261.86 379.47 263.6 372.71 266.37 366.27 268.1 359.51 270.57 352.97 271.49 345.97"/><polyline class="c" points="259.67 467.08 262.97 460.85 265.93 454.48 268.22 447.84 270.09 441.03 273.49 434.84 275.93 428.26 278.68 421.81 281.25 415.29 284.2 408.91 285.98 402.07 289 395.72 291.25 389.06 294.57 382.84 296.5 376.05 299.6 369.73 302.55 363.34"/><polyline class="c" points="277.64 506 280.18 499.26 282.55 492.45 286.03 486.13 288.64 479.42 292.43 473.24 294.79 466.41 297.8 459.88 300.62 453.26 303.49 446.67 307.11 440.41 310.05 433.85 312.79 427.2 315.5 420.54 318.25 413.88 320.8 407.14 324.05 400.72 327.42 394.35 329.98 387.61 333.35 381.22 336.3 374.65"/><polyline class="c" points="301.98 542.92 305.38 536.56 308.25 529.94 311.3 523.42 314.37 516.89 317.5 510.4 320.18 503.7 323.57 497.33 326.54 490.76 329.54 484.2 332.55 477.65 335.84 471.23 338.53 464.53 341.29 457.86 344.82 451.56 347.5 444.85 350.62 438.36 354.21 432.08 357.06 425.45 360.06 418.89 363.62 412.6 366.35 405.92 369.01 399.19 372.4 392.81 375.34 386.21"/><polyline class="c" points="277.38 171.57 282.49 176.6 286.81 182.36 291.56 187.73 297.31 192.13 301.92 197.64 307.05 202.63 311.91 207.9 317.44 212.48 322.33 217.72 327.79 222.37 332.49 227.82 338.15 232.26 343.48 237.04 348.25 242.43 353.5 247.31 359.56 251.27 364.22 256.82 370.09 260.99 375.64 265.52 380.78 270.52 386.18 275.22 392.02 279.4 397.28 284.28 402.8 288.84 408.58 293.07 414.38 297.28 419.67 302.16 425.43 306.42 431.58 310.15 437.26 314.52 443.32 318.36 449.21 322.43 454.52 327.35 460.68 331.03 466.67 334.96 472.52 339.13 479.22 341.92 485.07 346.09 491.54 349.21 497.67 352.9 503.87 356.5 510.24 359.76 516.55 363.16 523.06 366.15 529.43 369.47 536.29 371.65 543 374.11"/><polyline class="c" points="292.65 146.58 297.91 151.44 302.88 156.56 307.79 161.74 313.5 166.11 318.15 171.56 323.72 176.07 328.52 181.37 333.52 186.47 338.61 191.47 344.11 196.04 349.04 201.22 354.91 205.38 359.57 210.87 365.62 214.82 370.16 220.44 376.27 224.31 381.55 229.12 386.76 234 391.8 239.08 397.2 243.75 402.82 248.16 408.39 252.62 413.59 257.54 419.63 261.42 424.72 266.49 430.63 270.53 436.23 274.96 441.72 279.54 447.8 283.33 453.44 287.71 459.19 291.94 464.54 296.72 470.67 300.42 476.74 304.2 482.1 309.02 488.51 312.28 494.3 316.48 500.15 320.6 506.35 324.15 512.37 328.01 518.88 331.01 525.24 334.26 531.45 337.79 537.86 340.93 544.39 343.79"/><polyline class="c" points="363.8 469 363.14 477 362.99 485"/><polyline class="c" points="392.37 490 393 497.5 392.06 505"/><polyline class="c" points="421.19 510 420.92 517.5 421.69 525"/><polyline class="c" points="449.93 530 450.45 537.5 450.54 545"/><polyline class="c" points="450.67 558 450.01 565.5 450.6 573"/><polygon points="255.19 240.09 259.9 245.41 264.56 250.86 269.62 255.96 274.4 261.3 278.86 266.97 284.67 271.32 289.21 276.93 294.41 281.88 299.29 287.15 304.9 291.65 310.44 296.23 315.66 301.13 320.6 306.38 326.56 310.45 331.53 315.69 337.49 319.75 342.48 324.98 348.24 329.27 353.73 333.9 359.7 337.92 365.62 341.98 371.37 346.28 377.44 350.11 383.38 354.13 388.67 359.11 394.72 362.98 401.1 366.33 406.98 370.46 412.92 374.51 419.13 378.13 425.61 381.26 431.77 384.96 438.19 388.18 444.46 391.67 450.96 394.71 457.28 398.14 463.82 401.1 470.13 404.57 477.13 406.49 483.42 410.03 490.26 412.27 496.95 414.85 503.57 417.66 510.32 420.13 517.23 422.12 524.06 424.33 531.35 426.25 529.23 433.31 526.53 440.05 523.75 446.78 522.16 453.88 519.34 460.59 516.95 467.44 514.74 474.35 512.77 481.33 510.81 488.32 508.11 495.07 506.15 502.07 503.66 508.85 496.91 506.92 490 505.03 483.13 503 476.41 500.51 469.73 497.92 463.17 495.03 456.42 492.65 449.9 489.69 443.44 486.62 436.42 484.76 430.3 480.95 423.6 478.35 417.46 474.62 411.08 471.37 404.74 468.06 398.24 465.02 392.39 460.81 386.19 457.25 380.03 453.59 373.96 449.79 367.85 446.07 362.07 441.83 355.73 438.43 349.86 434.32 344.09 430.08 338.48 425.63 332.55 421.61 327.1 416.95 321.32 412.72 315.89 408.05 310.29 403.59 304.71 399.1 299.49 394.21 294.1 389.5 288.18 385.38 283.05 380.38 278.25 375.04 272.63 370.55 267.77 365.28 262.7 360.24 257.72 355.08 252.75 349.92 248.19 344.41 243.76 338.79 238.6 333.59 240.49 326.5 241.73 319.3 242.8 312.07 244.38 304.93 245.05 297.64 246.52 290.48 247.93 283.31 248.82 276.05 249.71 268.79 251.77 261.74 252.63 254.47 253.48 247.19 255.19 240.09"/><polygon class="c" points="255.19 240.09 259.9 245.41 264.56 250.86 269.62 255.96 274.4 261.3 278.86 266.97 284.67 271.32 289.21 276.93 294.41 281.88 299.29 287.15 304.9 291.65 310.44 296.23 315.66 301.13 320.6 306.38 326.56 310.45 331.53 315.69 337.49 319.75 342.48 324.98 348.24 329.27 353.73 333.9 359.7 337.92 365.62 341.98 371.37 346.28 377.44 350.11 383.38 354.13 388.67 359.11 394.72 362.98 401.1 366.33 406.98 370.46 412.92 374.51 419.13 378.13 425.61 381.26 431.77 384.96 438.19 388.18 444.46 391.67 450.96 394.71 457.28 398.14 463.82 401.1 470.13 404.57 477.13 406.49 483.42 410.03 490.26 412.27 496.95 414.85 503.57 417.66 510.32 420.13 517.23 422.12 524.06 424.33 531.35 426.25 529.23 433.31 526.53 440.05 523.75 446.78 522.16 453.88 519.34 460.59 516.95 467.44 514.74 474.35 512.77 481.33 510.81 488.32 508.11 495.07 506.15 502.07 503.66 508.85 496.91 506.92 490 505.03 483.13 503 476.41 500.51 469.73 497.92 463.17 495.03 456.42 492.65 449.9 489.69 443.44 486.62 436.42 484.76 430.3 480.95 423.6 478.35 417.46 474.62 411.08 471.37 404.74 468.06 398.24 465.02 392.39 460.81 386.19 457.25 380.03 453.59 373.96 449.79 367.85 446.07 362.07 441.83 355.73 438.43 349.86 434.32 344.09 430.08 338.48 425.63 332.55 421.61 327.1 416.95 321.32 412.72 315.89 408.05 310.29 403.59 304.71 399.1 299.49 394.21 294.1 389.5 288.18 385.38 283.05 380.38 278.25 375.04 272.63 370.55 267.77 365.28 262.7 360.24 257.72 355.08 252.75 349.92 248.19 344.41 243.76 338.79 238.6 333.59 240.49 326.5 241.73 319.3 242.8 312.07 244.38 304.93 245.05 297.64 246.52 290.48 247.93 283.31 248.82 276.05 249.71 268.79 251.77 261.74 252.63 254.47 253.48 247.19 255.19 240.09"/><line class="e" x1="241.91" y1="285.79" x2="241.91" y2="285.79"/><polyline class="f" points="259.32 302.78 262.35 306.29 267.59 311.28 273.26 315.81 278.16 321.16 283.85 325.65 288.99 330.75 294.05 335.93 299.44 340.76 304.9 345.49 310.67 349.88 315.71 355.11 321.35 359.66 326.82 364.4 332.88 368.41 338.52 372.94 344.08 377.57 350.07 381.64 355.64 386.27 361.5 390.52 367.55 394.5 372.92 399.41 379.35 402.85 384.97 407.43 391.21 411.11 396.73 415.88 402.86 419.74 408.93 423.68 415.08 427.49 421.3 431.21 427.85 434.36 433.49 439.04 440.31 441.69 446.64 445.19 452.81 448.97 458.89 452.95 465.78 455.4 471.93 459.26 478.5 462.31 484.78 465.98 491.4 468.91 498.42 470.95 505.07 473.79 507.22 474.73"/><line class="e" x1="518.15" y1="480.07" x2="518.15" y2="480.07"/><polyline class="c" points="363.05 503 364.02 511 363.43 519"/><polyline class="c" points="392.31 523 392.27 531 392.67 539"/><polyline class="c" points="421.23 543 421 551 421.74 559"/><polyline class="c" points="335.32 515 335.06 523 335.25 531"/><polyline class="c" points="335.69 483 335.84 491 335.41 499"/><polyline class="c" points="364.29 535 364.56 543 364.44 551"/><polyline class="c" points="393.04 555 393.47 563 393.47 571"/><polyline class="c" points="422.58 573 422.27 581 422.43 589"/><polyline class="c" points="335.07 546 335.62 554 335.86 562"/><polyline class="c" points="364.88 566 363.92 574 364.12 582"/><polyline class="c" points="392.4 455 392.07 463 392.97 471"/><polyline class="c" points="421.61 475 421.2 483 421.84 491"/><polyline class="c" points="450.3 495 450.99 503 450.88 511"/><polyline class="c" points="478.98 515 479.57 523 479.41 531"/><polygon class="c" points="544.19 338.97 544.38 346.14 544.17 353.31 544.1 360.49 542.93 367.61 543.09 374.81 542.23 381.94 541.18 389.04 540.2 396.14 539.91 403.36 538.71 410.44 537.31 417.49 535.23 424.38 533.65 431.38 531.68 438.28 529.97 445.25 528.17 452.19 525.42 458.84 523.45 465.74 521.37 472.62 518.13 479.04 515.24 485.59 513.32 492.6 509.83 498.88 506.52 505.26 503.01 511.51 499.77 517.94 495.19 523.53 491.1 529.4 486.89 535.19 482.47 540.81 478.26 546.64 473.13 551.65 468.45 557.11 463.15 561.95 457.31 566.14 451.72 570.62 445.69 574.48 439.61 578.26 433.03 581.11 426.45 583.88 419.94 586.98 412.99 588.8 405.9 589.95 398.78 590.85 391.61 590.85 384.47 590.36 377.3 590.03 370.35 588.22 363.41 586.5 356.76 583.86 350.14 581.18 343.68 578.11 337.63 574.28 331.19 571.03 325.54 566.57 319.84 562.18 315.07 556.77 309.76 551.94 305.31 546.3 300.18 541.27 295.74 535.62 291.9 529.54 287.73 523.72 283.82 517.7 280.69 511.23 276.78 505.2 273.09 499.02 270.64 492.24 266.97 486.03 264.85 479.13 261.77 472.64 259.34 465.89 257.72 458.86 254.55 452.34 253.37 445.21 251.09 438.4 249.29 431.45 247.79 424.43 246.68 417.34 245.51 410.27 244.17 403.23 242.44 396.24 242.14 389.04 241.16 381.93 240.58 374.79 240.07 367.63 239.64 360.48 239.45 353.31 238.92 346.14 239.31 338.97 239.14 331.75 239.03 324.53 238.99 317.3 239.31 310.08 240.7 302.95 241.44 295.77 241.69 288.54 242.9 281.42 244.38 274.35 245.38 267.2 246.89 260.15 247.52 252.91 249.86 246.04 250.83 238.84 253.43 232.06 255.13 225.03 257.86 218.33 259.79 211.36 262.53 204.68 265.41 198.07 268.18 191.42 271.09 184.82 273.66 178.05 277.63 171.98 281.21 165.73 284.53 159.32 288.26 153.14 292.35 147.19 296.78 141.48 300.85 135.5 306.22 130.6 311.02 125.23 316.24 120.28 321.05 114.84 327.43 111.28 334.04 108.17 341.25 106.98 348.31 105.36 355.4 103.8 362.63 103.07 369.82 101.95 377.13 102.53 384.35 101.88 391.61 102.23 398.87 101.43 406.08 102.58 413.32 102.87 420.56 103.33 427.72 104.48 434.98 105.02 442.02 106.77 448.85 109.22 455.69 111.5 461.53 115.58 467.12 120.14 472.48 124.97 477.27 130.37 482.01 135.81 486.74 141.26 490.54 147.43 494.6 153.38 499.17 159.03 502.47 165.47 505.91 171.82 509.46 178.11 512.64 184.59 515.61 191.18 518.18 197.92 520.35 204.82 523.58 211.31 525.83 218.18 527.9 225.09 530.33 231.9 531.33 239.11 533.96 245.89 535.6 252.92 536.53 260.1 538.11 267.14 539.26 274.27 540.09 281.44 541.09 288.58 542.68 295.67 543.08 302.89 543.32 310.12 544.13 317.3 543.91 324.54 544.28 331.75 544.19 338.97"/><polygon class="b" points="489.89 133.55 486.54 139.47 480.76 143.57 475.13 148.1 468.43 150.73 461.82 153.47 455.06 155.83 448.14 157.65 441.19 159.33 434.23 160.93 427.28 162.71 420.13 163.27 413 163.86 405.89 164.45 398.76 165.19 391.61 165.92 384.46 165.01 377.28 165.33 370.15 164.61 363.03 163.82 355.98 162.52 348.92 161.35 342.02 159.41 334.88 158.37 328.15 155.86 321.43 153.4 314.79 150.72 308.58 147.15 302.24 143.89 296.59 139.56 293.01 133.55 297.48 128.11 303.73 124.07 310.98 122.38 318 119.95 325.33 118.87 332.66 117.9 339.95 116.69 347.31 116.01 354.7 115.64 362.03 114.54 369.43 114.4 376.82 114.23 384.21 113.99 391.61 113.99 398.99 114.57 406.39 114.07 413.79 114.13 421.16 114.92 428.58 114.79 435.85 116.53 443.24 116.83 450.49 118.34 457.87 119.04 465.1 120.55 472.35 122.06 479.26 124.69 485.6 128.34 489.89 133.55"/><polygon class="c" points="489.89 133.55 486.54 139.47 480.76 143.57 475.13 148.1 468.43 150.73 461.82 153.47 455.06 155.83 448.14 157.65 441.19 159.33 434.23 160.93 427.28 162.71 420.13 163.27 413 163.86 405.89 164.45 398.76 165.19 391.61 165.92 384.46 165.01 377.28 165.33 370.15 164.61 363.03 163.82 355.98 162.52 348.92 161.35 342.02 159.41 334.88 158.37 328.15 155.86 321.43 153.4 314.79 150.72 308.58 147.15 302.24 143.89 296.59 139.56 293.01 133.55 297.48 128.11 303.73 124.07 310.98 122.38 318 119.95 325.33 118.87 332.66 117.9 339.95 116.69 347.31 116.01 354.7 115.64 362.03 114.54 369.43 114.4 376.82 114.23 384.21 113.99 391.61 113.99 398.99 114.57 406.39 114.07 413.79 114.13 421.16 114.92 428.58 114.79 435.85 116.53 443.24 116.83 450.49 118.34 457.87 119.04 465.1 120.55 472.35 122.06 479.26 124.69 485.6 128.34 489.89 133.55"/><polygon points="481.28 115.15 477.42 120.69 472.13 125.15 466.01 128.46 459.72 131.46 453.25 134.07 446.66 136.36 439.76 137.52 433.17 139.87 426.32 141.24 419.33 141.63 412.51 143.16 405.56 143.87 398.59 144.09 391.61 144.38 384.65 143.7 377.69 143.58 370.69 143.47 363.83 142.05 356.93 141.1 350.14 139.51 343.35 137.93 336.7 135.86 330.13 133.59 323.71 130.94 317.19 128.49 311.2 124.96 305.79 120.69 302.56 115.15 306.08 109.31 312.94 106.85 319.66 104.07 326.79 102.76 333.99 101.92 341.08 100.48 348.29 99.86 355.49 99.19 362.65 97.9 369.89 97.76 377.14 97.97 384.37 97.74 391.61 97.8 398.85 97.26 406.1 97.15 413.3 98.11 420.52 98.55 427.72 99.23 434.98 99.3 442.18 100.11 449.37 101.07 456.32 103.25 463.3 105.07 470.55 106.13 477.16 109.28 481.28 115.15"/><polygon class="c" points="481.28 115.15 477.42 120.69 472.13 125.15 466.01 128.46 459.72 131.46 453.25 134.07 446.66 136.36 439.76 137.52 433.17 139.87 426.32 141.24 419.33 141.63 412.51 143.16 405.56 143.87 398.59 144.09 391.61 144.38 384.65 143.7 377.69 143.58 370.69 143.47 363.83 142.05 356.93 141.1 350.14 139.51 343.35 137.93 336.7 135.86 330.13 133.59 323.71 130.94 317.19 128.49 311.2 124.96 305.79 120.69 302.56 115.15 306.08 109.31 312.94 106.85 319.66 104.07 326.79 102.76 333.99 101.92 341.08 100.48 348.29 99.86 355.49 99.19 362.65 97.9 369.89 97.76 377.14 97.97 384.37 97.74 391.61 97.8 398.85 97.26 406.1 97.15 413.3 98.11 420.52 98.55 427.72 99.23 434.98 99.3 442.18 100.11 449.37 101.07 456.32 103.25 463.3 105.07 470.55 106.13 477.16 109.28 481.28 115.15"/><polyline class="g" points="318.83 120.25 323.47 114.99 330.58 112.79 337.96 111.92 345.06 109.67 352.46 109.24 359.82 108.58 367.17 107.85 374.53 107.03 381.93 106.83 389.33 107.33 396.73 106.87 404.14 106.77 411.51 107.51 418.9 107.98 426.21 109.18 433.51 110.33 440.78 111.57 448.09 112.77 455.05 115.33 460 120.25"/><polyline class="c" points="516.75 329.99 519.13 323.46 521.26 316.85 524.29 310.54 525.72 303.69 528.6 297.33 530.95 290.79 532.52 283.99 534.69 277.38 536.66 270.71 539.33 264.26"/><polyline class="c" points="492.27 316.64 495.23 310.12 496.66 303.07 498.87 296.29 501.46 289.64 503.87 282.93 505.97 276.11 508.98 269.61 511.58 262.97 513.69 256.15 515.89 249.37 517.99 242.55 520.31 235.81 522.25 228.92 525.62 222.54"/><polyline class="c" points="469.12 301.96 471.14 294.83 473.91 287.96 476.12 280.9 478.95 274.04 481.2 267 483.67 260.02 485.97 252.99 487.58 245.71 490.97 239.06 493.05 231.95 495.82 225.07 497.85 217.95 500.55 211.05 502.78 204 505.49 197.1 507.64 190.01 509.5 182.81"/><polyline class="c" points="446.23 282.79 448.85 276.23 450.92 269.48 452.95 262.72 455.12 256 458.11 249.56 460.48 242.91 462.42 236.11 464.37 229.32 467.01 222.76 469 215.98 471.14 209.25 474.1 202.8 476.79 196.26 478.59 189.42 480.74 182.69 482.76 175.92 485.49 169.39 488.17 162.85 490.52 156.18 492.37 149.34"/><polyline class="c" points="423.79 265.09 425.27 258.11 427.76 251.48 430.96 245.1 432.2 238.04 435.14 231.56 437.56 224.91 440.09 218.29 441.65 211.34 443.84 204.61 446.62 198.08 449.4 191.55 451.56 184.81 453.96 178.14 456.27 171.45 458.39 164.69 460.63 157.96 463.12 151.32"/><polyline class="c" points="380.17 230.6 386.71 227.16 393.83 225.17 400.94 223.44 408.15 222.33 415.42 222.57 422.77 223.16 429.2 226.78 435.39 230.72"/><polyline class="c" points="353.19 204.13 360.17 201.79 367.25 199.82 374.02 196.82 381.32 195.71 388.45 193.96 395.7 192.62 403.07 192.67 410.39 192.05 417.76 192.1 425.11 192.81 432.09 195.24 439.07 197.43 446 200"/><polygon points="614.28 702.4 614.75 694.73 614.01 687.46 614.54 680.19 614.67 672.92 614.3 665.65 615.08 658.38 614.16 651.1 614.98 643.83 614.71 636.56 614.84 629.28 614.25 621.87 620.14 617.75 625.94 613.73 631.9 609.94 637.91 606.22 643.17 601.43 648.88 597.27 655.18 593.98 660.4 589.12 666.59 585.66 672.24 581.43 677.92 577.23 683.88 573.43 689.62 569.34 695.21 565.01 701.33 561.44 707.05 557.3 712.72 553.07 718.26 549.42 718.54 556.27 718.5 563.54 718.48 570.81 718.58 578.08 718.81 585.35 718.32 592.62 718.2 599.9 718.99 607.17 718.85 614.44 718.23 621.72 718.34 628.92 712.99 633.43 707.22 637.49 701.18 641.17 695.33 645.12 689.36 648.9 684.02 653.58 678.06 657.38 672.48 661.71 666.26 665.12 660.48 669.17 654.99 673.64 648.94 677.31 643.16 681.36 637.74 685.93 632.06 690.12 625.78 693.47 620.37 698.06 614.28 702.4"/><polygon class="c" points="614.28 702.4 614.75 694.73 614.01 687.46 614.54 680.19 614.67 672.92 614.3 665.65 615.08 658.38 614.16 651.1 614.98 643.83 614.71 636.56 614.84 629.28 614.25 621.87 620.14 617.75 625.94 613.73 631.9 609.94 637.91 606.22 643.17 601.43 648.88 597.27 655.18 593.98 660.4 589.12 666.59 585.66 672.24 581.43 677.92 577.23 683.88 573.43 689.62 569.34 695.21 565.01 701.33 561.44 707.05 557.3 712.72 553.07 718.26 549.42 718.54 556.27 718.5 563.54 718.48 570.81 718.58 578.08 718.81 585.35 718.32 592.62 718.2 599.9 718.99 607.17 718.85 614.44 718.23 621.72 718.34 628.92 712.99 633.43 707.22 637.49 701.18 641.17 695.33 645.12 689.36 648.9 684.02 653.58 678.06 657.38 672.48 661.71 666.26 665.12 660.48 669.17 654.99 673.64 648.94 677.31 643.16 681.36 637.74 685.93 632.06 690.12 625.78 693.47 620.37 698.06 614.28 702.4"/><polygon class="b" points="72.92 622.92 79.72 621.98 86.94 622.32 94.16 622.79 101.38 622.95 108.6 622.45 115.82 622.97 123.04 622.3 130.26 622.55 137.48 622.8 144.7 622.49 151.92 622.12 159.14 621.94 166.37 622.06 173.59 623.08 180.81 621.92 188.03 622.72 195.25 622.05 202.47 622.31 209.69 622.79 216.91 623.08 224.13 622.35 231.35 622.56 238.58 622.36 245.8 622.7 253.02 622.19 260.24 622.72 267.47 622.93 274.69 622.89 281.91 622.88 289.13 622.96 296.36 622.03 303.58 622.72 310.8 622.39 318.03 622.48 325.25 622.24 332.47 622.99 339.7 622.12 346.92 621.94 354.14 622.39 361.37 623.02 368.59 623.05 375.81 622.27 383.04 622.33 390.26 622.3 397.49 622.84 404.71 622.16 411.93 622.46 419.15 622.62 426.37 622.43 433.59 622.67 440.81 622.65 448.04 622.36 455.26 622.34 462.48 621.97 469.71 622.2 476.93 622.69 484.15 622.1 491.38 621.99 498.6 622.93 505.83 622.8 513.05 622.28 520.28 622.73 527.51 622.79 534.74 622.68 541.96 622.01 549.19 622.34 556.41 622.44 563.64 622.8 570.87 622.28 578.09 622.84 585.32 622.49 592.55 622.17 599.78 622.07 607.02 622.33 614.55 622.2 614.53 629.77 614.61 637.04 614.54 644.31 614.34 651.58 614.33 658.85 614.06 666.13 614.21 673.4 614.93 680.67 614.23 687.95 614.43 695.22 614.62 702.37 607.52 702.02 600.3 701.9 593.08 702.43 585.85 703.06 578.62 703.09 571.39 702.89 564.16 702.49 556.94 702.42 549.71 702 542.49 702.3 535.26 702.55 528.03 702.47 520.8 702.31 513.57 701.97 506.35 701.98 499.12 702.75 491.89 702.24 484.66 702.89 477.43 702.13 470.2 702.67 462.98 702.41 455.75 702.69 448.52 702.85 441.29 702.3 434.06 702.57 426.83 702.8 419.6 702.08 412.37 702.54 405.14 701.98 397.92 702.56 390.69 702.71 383.45 702.66 376.23 702.95 369 702.3 361.77 702.57 354.54 702.05 347.31 702.21 340.08 702.52 332.85 702.76 325.62 703.01 318.39 702.02 311.16 701.95 303.93 701.96 296.69 702.23 289.46 702.85 282.23 701.91 275.01 702.27 267.78 702.56 260.55 702.43 253.32 701.91 246.1 702.47 238.87 702.81 231.64 702.5 224.41 702.1 217.18 702.19 209.95 703.07 202.72 702.5 195.49 702.57 188.25 702.13 181.02 702.5 173.79 702 166.56 702.93 159.32 702.35 152.09 701.99 144.85 703 137.62 702.95 130.39 701.94 123.16 702.93 115.92 702.69 108.69 703.04 101.45 702.96 94.22 702.5 86.98 702.75 79.74 702.83 72.14 702.86 73.01 695.23 72.13 687.96 72.35 680.69 72.93 673.42 72.9 666.15 72.89 658.88 72.36 651.6 73.06 644.33 72.08 637.06 72.65 629.78 72.92 622.92"/><polygon class="c" points="72.92 622.92 79.72 621.98 86.94 622.32 94.16 622.79 101.38 622.95 108.6 622.45 115.82 622.97 123.04 622.3 130.26 622.55 137.48 622.8 144.7 622.49 151.92 622.12 159.14 621.94 166.37 622.06 173.59 623.08 180.81 621.92 188.03 622.72 195.25 622.05 202.47 622.31 209.69 622.79 216.91 623.08 224.13 622.35 231.35 622.56 238.58 622.36 245.8 622.7 253.02 622.19 260.24 622.72 267.47 622.93 274.69 622.89 281.91 622.88 289.13 622.96 296.36 622.03 303.58 622.72 310.8 622.39 318.03 622.48 325.25 622.24 332.47 622.99 339.7 622.12 346.92 621.94 354.14 622.39 361.37 623.02 368.59 623.05 375.81 622.27 383.04 622.33 390.26 622.3 397.49 622.84 404.71 622.16 411.93 622.46 419.15 622.62 426.37 622.43 433.59 622.67 440.81 622.65 448.04 622.36 455.26 622.34 462.48 621.97 469.71 622.2 476.93 622.69 484.15 622.1 491.38 621.99 498.6 622.93 505.83 622.8 513.05 622.28 520.28 622.73 527.51 622.79 534.74 622.68 541.96 622.01 549.19 622.34 556.41 622.44 563.64 622.8 570.87 622.28 578.09 622.84 585.32 622.49 592.55 622.17 599.78 622.07 607.02 622.33 614.55 622.2 614.53 629.77 614.61 637.04 614.54 644.31 614.34 651.58 614.33 658.85 614.06 666.13 614.21 673.4 614.93 680.67 614.23 687.95 614.43 695.22 614.62 702.37 607.52 702.02 600.3 701.9 593.08 702.43 585.85 703.06 578.62 703.09 571.39 702.89 564.16 702.49 556.94 702.42 549.71 702 542.49 702.3 535.26 702.55 528.03 702.47 520.8 702.31 513.57 701.97 506.35 701.98 499.12 702.75 491.89 702.24 484.66 702.89 477.43 702.13 470.2 702.67 462.98 702.41 455.75 702.69 448.52 702.85 441.29 702.3 434.06 702.57 426.83 702.8 419.6 702.08 412.37 702.54 405.14 701.98 397.92 702.56 390.69 702.71 383.45 702.66 376.23 702.95 369 702.3 361.77 702.57 354.54 702.05 347.31 702.21 340.08 702.52 332.85 702.76 325.62 703.01 318.39 702.02 311.16 701.95 303.93 701.96 296.69 702.23 289.46 702.85 282.23 701.91 275.01 702.27 267.78 702.56 260.55 702.43 253.32 701.91 246.1 702.47 238.87 702.81 231.64 702.5 224.41 702.1 217.18 702.19 209.95 703.07 202.72 702.5 195.49 702.57 188.25 702.13 181.02 702.5 173.79 702 166.56 702.93 159.32 702.35 152.09 701.99 144.85 703 137.62 702.95 130.39 701.94 123.16 702.93 115.92 702.69 108.69 703.04 101.45 702.96 94.22 702.5 86.98 702.75 79.74 702.83 72.14 702.86 73.01 695.23 72.13 687.96 72.35 680.69 72.93 673.42 72.9 666.15 72.89 658.88 72.36 651.6 73.06 644.33 72.08 637.06 72.65 629.78 72.92 622.92"/></svg>