<svg id="Layer_1" data-name="Layer 1" xmlns="http://www.w3.org/2000/svg" viewBox="0 0 800 800"><defs><style>.cls-1{fill:#fff;}.cls-2{fill:none;stroke:#000;stroke-linejoin:bevel;stroke-width:13px;}</style></defs><title>kiln-11</title><polyline class="cls-1" points="337.37 628.74 344.56 629.04 351.76 628.8 358.96 629.13 366.16 629.02 373.36 629.14 380.56 629.46 387.76 629.36 394.95 629.89 402.14 630.16 409.31 630.87 416.49 631.38 423.67 631.82 430.86 632.28 438.08 631.99 445.24 632.94 452.45 632.9 459.65 633.18 466.81 634.05 473.98 634.75 481.18 635.05 488.38 635.47 495.55 636.11 502.75 636.47 509.86 637.79 517.06 638.15 524.27 638.4 531.44 639.13 538.55 640.47 545.75 640.8 552.87 642 560.04 642.62 567.25 643.08 574.38 644.05 581.51 645.1 588.57 646.61 595.66 647.82 602.85 648.58 609.85 650.3 616.87 651.86 623.69 654.14 630.76 655.82 635.66 661 630.45 665.55 623.89 668.52 616.98 670.57 609.89 671.91 602.81 673.2 595.65 674.04 588.54 675.15 581.56 677.14 574.37 677.7 567.19 678.3 560.04 679.07 552.99 680.78 545.79 681.2 538.61 681.73 531.48 682.77 524.29 683.27 517.09 683.61 509.94 684.46 502.81 685.56 495.59 685.56 488.45 686.6 481.27 687.1 474.07 687.43 466.91 688.22 459.7 688.49 452.5 688.66 445.33 689.55 438.13 689.74 430.94 690.19 423.75 690.67 416.56 691.23 409.38 691.73 402.18 692.04 394.96 691.86 387.77 692.44 380.58 692.82 373.37 693.04 366.17 692.96 358.97 693.39 351.75 692.78 344.56 692.89 337.37 692.76 330.21 693.14 323.04 693.51 315.88 693.45 308.72 693.12 301.6 692.04 294.43 691.99 287.28 691.66 280.18 690.61 273.04 690.12 265.9 689.5 258.8 688.62 251.61 688.38 244.55 687.14 237.44 686.24 230.5 684.39 223.51 682.87 216.4 681.81 209.58 679.58 202.81 677.27 196.18 674.6 189.55 671.86 183.93 667.38 181.17 661"/><polyline class="cls-2" points="337.37 628.74 344.56 629.04 351.76 628.8 358.96 629.13 366.16 629.02 373.36 629.14 380.56 629.46 387.76 629.36 394.95 629.89 402.14 630.16 409.31 630.87 416.49 631.38 423.67 631.82 430.86 632.28 438.08 631.99 445.24 632.94 452.45 632.9 459.65 633.18 466.81 634.05 473.98 634.75 481.18 635.05 488.38 635.47 495.55 636.11 502.75 636.47 509.86 637.79 517.06 638.15 524.27 638.4 531.44 639.13 538.55 640.47 545.75 640.8 552.87 642 560.04 642.62 567.25 643.08 574.38 644.05 581.51 645.1 588.57 646.61 595.66 647.82 602.85 648.58 609.85 650.3 616.87 651.86 623.69 654.14 630.76 655.82 635.66 661 630.45 665.55 623.89 668.52 616.98 670.57 609.89 671.91 602.81 673.2 595.65 674.04 588.54 675.15 581.56 677.14 574.37 677.7 567.19 678.3 560.04 679.07 552.99 680.78 545.79 681.2 538.61 681.73 531.48 682.77 524.29 683.27 517.09 683.61 509.94 684.46 502.81 685.56 495.59 685.56 488.45 686.6 481.27 687.1 474.07 687.43 466.91 688.22 459.7 688.49 452.5 688.66 445.33 689.55 438.13 689.74 430.94 690.19 423.75 690.67 416.56 691.23 409.38 691.73 402.18 692.04 394.96 691.86 387.77 692.44 380.58 692.82 373.37 693.04 366.17 692.96 358.97 693.39 351.75 692.78 344.56 692.89 337.37 692.76 330.21 693.14 323.04 693.51 315.88 693.45 308.72 693.12 301.6 692.04 294.43 691.99 287.28 691.66 280.18 690.61 273.04 690.12 265.9 689.5 258.8 688.62 251.61 688.38 244.55 687.14 237.44 686.24 230.5 684.39 223.51 682.87 216.4 681.81 209.58 679.58 202.81 677.27 196.18 674.6 189.55 671.86 183.93 667.38 181.17 661"/><polygon class="cls-1" points="181.38 621 184.15 614.82 189.95 610.79 195.97 606.89 202.89 604.95 209.57 602.38 216.6 600.98 223.53 599.22 230.43 597.23 237.46 595.87 244.63 595.35 251.67 594.05 258.75 592.94 265.93 592.78 273.05 592.07 280.15 591.14 287.3 590.75 294.45 590.45 301.6 590.07 308.74 589.6 315.87 588.61 323.03 588.61 330.21 588.83 337.37 589.12 344.56 589.14 351.76 589.15 358.96 588.76 366.17 588.73 373.36 589.07 380.56 589.2 387.75 589.84 394.93 590.3 402.14 590.14 409.31 590.95 416.53 590.66 423.71 591.04 430.88 591.95 438.04 592.69 445.25 592.69 452.47 592.67 459.65 593.26 466.84 593.61 474.02 594.27 481.16 595.37 488.37 595.56 495.56 595.98 502.74 596.52 509.89 597.45 517.04 598.4 524.28 598.31 531.43 599.24 538.57 600.23 545.78 600.58 552.89 601.78 560.02 602.81 567.25 603.01 574.29 604.73 581.44 605.59 588.59 606.5 595.67 607.78 602.84 608.59 609.78 610.61 616.83 612.03 623.73 614 630.47 616.43 635.94 621 630.4 625.43 623.89 628.5 616.83 629.99 609.94 632.14 602.86 633.46 595.78 634.81 588.6 635.48 581.51 636.75 574.33 637.41 567.17 638.15 560.12 639.78 552.94 640.38 545.76 640.88 538.59 641.6 531.49 642.85 524.34 643.74 517.16 644.38 509.98 644.84 502.76 644.94 495.62 645.99 488.4 645.93 481.26 646.96 474.1 647.77 466.86 647.51 459.7 648.47 452.48 648.45 445.31 649.12 438.11 649.47 430.95 650.41 423.75 650.66 416.53 650.5 409.33 650.87 402.17 651.83 394.95 651.66 387.75 651.84 380.57 652.61 373.36 652.64 366.17 653.1 358.96 652.69 351.76 653.14 344.57 653.32 337.37 653 330.21 653.61 323.05 653.09 315.88 653.32 308.72 653.18 301.58 652.52 294.45 651.79 287.3 651.31 280.17 650.64 273.04 650.09 265.83 650.18 258.79 648.75 251.71 647.64 244.65 646.48 237.54 645.66 230.52 644.3 223.55 642.67 216.57 641.15 209.65 639.35 202.75 637.44 196.1 634.79 189.45 632.02 184.3 627.02 181.38 621"/><polygon class="cls-2" points="181.38 621 184.15 614.82 189.95 610.79 195.97 606.89 202.89 604.95 209.57 602.38 216.6 600.98 223.53 599.22 230.43 597.23 237.46 595.87 244.63 595.35 251.67 594.05 258.75 592.94 265.93 592.78 273.05 592.07 280.15 591.14 287.3 590.75 294.45 590.45 301.6 590.07 308.74 589.6 315.87 588.61 323.03 588.61 330.21 588.83 337.37 589.12 344.56 589.14 351.76 589.15 358.96 588.76 366.17 588.73 373.36 589.07 380.56 589.2 387.75 589.84 394.93 590.3 402.14 590.14 409.31 590.95 416.53 590.66 423.71 591.04 430.88 591.95 438.04 592.69 445.25 592.69 452.47 592.67 459.65 593.26 466.84 593.61 474.02 594.27 481.16 595.37 488.37 595.56 495.56 595.98 502.74 596.52 509.89 597.45 517.04 598.4 524.28 598.31 531.43 599.24 538.57 600.23 545.78 600.58 552.89 601.78 560.02 602.81 567.25 603.01 574.29 604.73 581.44 605.59 588.59 606.5 595.67 607.78 602.84 608.59 609.78 610.61 616.83 612.03 623.73 614 630.47 616.43 635.94 621 630.4 625.43 623.89 628.5 616.83 629.99 609.94 632.14 602.86 633.46 595.78 634.81 588.6 635.48 581.51 636.75 574.33 637.41 567.17 638.15 560.12 639.78 552.94 640.38 545.76 640.88 538.59 641.6 531.49 642.85 524.34 643.74 517.16 644.38 509.98 644.84 502.76 644.94 495.62 645.99 488.4 645.93 481.26 646.96 474.1 647.77 466.86 647.51 459.7 648.47 452.48 648.45 445.31 649.12 438.11 649.47 430.95 650.41 423.75 650.66 416.53 650.5 409.33 650.87 402.17 651.83 394.95 651.66 387.75 651.84 380.57 652.61 373.36 652.64 366.17 653.1 358.96 652.69 351.76 653.14 344.57 653.32 337.37 653 330.21 653.61 323.05 653.09 315.88 653.32 308.72 653.18 301.58 652.52 294.45 651.79 287.3 651.31 280.17 650.64 273.04 650.09 265.83 650.18 258.79 648.75 251.71 647.64 244.65 646.48 237.54 645.66 230.52 644.3 223.55 642.67 216.57 641.15 209.65 639.35 202.75 637.44 196.1 634.79 189.45 632.02 184.3 627.02 181.38 621"/><polygon points="344.99 625.56 351.82 624.99 359.07 623.91 366.2 622 373.47 621.04 380.7 619.84 388.05 619.4 395.27 618.09 402.48 616.75 409.78 615.97 417.09 615.28 424.23 613.42 431.54 612.73 438.84 611.96 446.03 610.43 453.34 609.76 460.53 608.25 467.85 607.62 475.06 606.26 482.37 605.5 489.57 604.11 496.85 603.13 504 601.37 511.28 600.43 518.54 599.33 526.18 598.63 518.77 598.64 511.72 598.04 504.66 597.7 497.6 597.27 490.51 597.33 483.45 597.02 476.41 596.1 469.35 595.66 462.25 595.86 455.2 595.27 448.13 595.02 441.07 594.55 434.02 593.94 426.93 594.15 419.87 593.62 412.82 593 405.74 593.03 398.68 592.37 391.58 592.46 384.64 592.09 378.73 596.5 372.84 601.15 367.08 605.95 361.8 611.31 355.82 615.86 350.06 620.67 344.99 625.56"/><polygon class="cls-2" points="344.99 625.56 351.82 624.99 359.07 623.91 366.2 622 373.47 621.04 380.7 619.84 388.05 619.4 395.27 618.09 402.48 616.75 409.78 615.97 417.09 615.28 424.23 613.42 431.54 612.73 438.84 611.96 446.03 610.43 453.34 609.76 460.53 608.25 467.85 607.62 475.06 606.26 482.37 605.5 489.57 604.11 496.85 603.13 504 601.37 511.28 600.43 518.54 599.33 526.18 598.63 518.77 598.64 511.72 598.04 504.66 597.7 497.6 597.27 490.51 597.33 483.45 597.02 476.41 596.1 469.35 595.66 462.25 595.86 455.2 595.27 448.13 595.02 441.07 594.55 434.02 593.94 426.93 594.15 419.87 593.62 412.82 593 405.74 593.03 398.68 592.37 391.58 592.46 384.64 592.09 378.73 596.5 372.84 601.15 367.08 605.95 361.8 611.31 355.82 615.86 350.06 620.67 344.99 625.56"/><polyline class="cls-2" points="402.82 199.65 410.13 198.88 417.25 196.97 424.58 196.39 431.86 195.41 439.19 195.08 446.52 194.89 453.86 195.16 461.19 194.9 468.54 194.86 475.8 196.08 483.18 196.16 490.41 197.51 497.46 199.62 504.46 201.74 511.62 203.49 518.26 206.64 524.69 210.18 530.63 214.48 536.06 219.4 541.29 224.57 545.36 230.73 548.15 237.54 550.52 244.46 552.35 251.56 553.16 258.63 553.63 265.72 554 272.83 552.92 279.9 553.15 287.04 552.05 294.07 550.38 301 549.21 307.99 548.4 315.07 546.69 321.97 544.75 328.81 543.49 335.83 541.26 342.58 538.95 349.31 536.86 356.1 534.86 362.93 531.74 369.36 529.66 376.17 526.57 382.58 524 389.2 521.5 395.85 518.79 402.41 515.71 408.82 513.41 415.57 509.87 421.76 506.99 428.25 503.95 434.68 501.26 441.27 498.02 447.59 494.79 453.92 491.36 460.14 488.02 466.4 484.46 472.32 477.39 472.54 470.21 472.93 463.11 474.09 455.91 474.96 449.27 477.87 442.64 480.62 435.88 483.3 430.39 488.08 424.8 492.58 419.44 497.4 414.75 502.88 410.38 508.63 406.63 514.8 403.67 521.39 400.25 527.78 397.95 534.64"/><polyline class="cls-2" points="411.52 224.76 418.51 223.34 425.61 222.64 432.74 222.39 439.8 221.57 446.91 221.51 454.02 220.79 461.14 221.08 468.24 221.74 475.19 223.41 482.15 224.74 489.14 226.19 495.54 229.34 501.95 232.37 507.69 236.52 513.11 241.1 517.69 246.58 521.15 252.84 523.71 259.53 524.72 266.61 525.25 273.89 526 281.17 525.78 288.49 524.79 295.74 524.28 303.05 523.19 310.29 521.85 317.49 520.04 324.58 517.62 331.51 516.02 338.66 513.9 345.66 511.75 352.65 509.53 359.63 507.21 366.58 503.8 373.12 501.82 380.21 499.02 386.97 495.5 393.42 493.27 400.44 490.19 407.08 486.94 413.64 483.79 420.24 480.85 426.95 476.79 433.09 473.61 439.67 470.4 446.31 463.22 445.3 456.1 446.38 448.95 447.28 442.43 450.34 435.99 453.48 430.19 457.7 424.73 462.4 420.54 468.27 416.24 474.04 413.12 480.52 410.44 487.18 408.19 493.98"/><polygon points="407.93 198.9 415.05 198.81 422.22 199.36 429.38 198.77 436.55 199.41 443.71 198.78 450.88 198.96 458.05 199.28 465.22 198.55 472.39 199.15 479.56 198.94 486.75 198.94 493.12 201.67 499.49 204.34 506.03 206.56 512.48 209.04 519.07 211.15 525.63 213.65 530.25 219.03 534.69 224.43 539.57 229.43 544.45 234.45 548.78 239.86 548.6 246.63 548.9 253.46 548.86 260.3 549.29 267.14 549.05 273.97 548.74 280.81 549.32 287.66 549.2 294.54 547.43 301.53 544.85 308.27 543.38 315.31 541.19 322.16 539.95 329.27 537.67 336.09 535.86 343.04 533.7 349.89 531.92 356.85 530.28 363.85 528.64 370.85 526.33 377.66 524.97 384.73 522.94 391.63 520.97 398.53 516.92 404.23 513.25 410.17 509.6 416.14 506.31 422.34 502.65 428.29 498.96 434.24 494.89 439.94 491.16 445.88 486.22 451.69 481.21 457.44 476.5 463.44 471.61 469.22 465.12 470.88 458.44 472.02 451.96 473.99 445.36 475.49 438.84 477.32 432.22 478.75 425.72 480.07 430.23 472.81 434.2 465.13 440.38 460.87 446.99 457.31 453.35 453.32 459.89 449.62 466.41 446.02 475.85 445.46 478.7 439.38 481.67 433.13 485.38 427.22 487.85 420.71 490.93 414.49 494.37 408.45 496.74 401.9 500.49 396.01 503.14 389.58 506.65 383.57 509.56 377.22 510.98 370.18 512.67 363.24 514.44 356.32 516.25 349.41 517.53 342.37 519.44 335.48 521.7 328.68 523.26 321.7 524.45 314.64 526.8 307.86 528.15 300.83 530.22 293.97 531.93 287 531.18 279.45 529.49 272.04 528.96 264.48 527.67 257.02 527.23 249.45 526.4 241.92 525.52 234.3 518.73 232.41 512.17 230.14 505.71 227.62 499.13 225.41 492.47 223.44 486.03 220.87 479.51 218.5 472.91 216.32 466.33 214.24 459.48 214.6 452.7 215.93 445.87 216.86 439.02 217.71 432.19 218.6 425.34 219.42 418.54 220.62 411.49 221.19 409.9 213.71 408.94 206.28 407.93 198.9"/><polygon class="cls-2" points="407.93 198.9 415.05 198.81 422.22 199.36 429.38 198.77 436.55 199.41 443.71 198.78 450.88 198.96 458.05 199.28 465.22 198.55 472.39 199.15 479.56 198.94 486.75 198.94 493.12 201.67 499.49 204.34 506.03 206.56 512.48 209.04 519.07 211.15 525.63 213.65 530.25 219.03 534.69 224.43 539.57 229.43 544.45 234.45 548.78 239.86 548.6 246.63 548.9 253.46 548.86 260.3 549.29 267.14 549.05 273.97 548.74 280.81 549.32 287.66 549.2 294.54 547.43 301.53 544.85 308.27 543.38 315.31 541.19 322.16 539.95 329.27 537.67 336.09 535.86 343.04 533.7 349.89 531.92 356.85 530.28 363.85 528.64 370.85 526.33 377.66 524.97 384.73 522.94 391.63 520.97 398.53 516.92 404.23 513.25 410.17 509.6 416.14 506.31 422.34 502.65 428.29 498.96 434.24 494.89 439.94 491.16 445.88 486.22 451.69 481.21 457.44 476.5 463.44 471.61 469.22 465.12 470.88 458.44 472.02 451.96 473.99 445.36 475.49 438.84 477.32 432.22 478.75 425.72 480.07 430.23 472.81 434.2 465.13 440.38 460.87 446.99 457.31 453.35 453.32 459.89 449.62 466.41 446.02 475.85 445.46 478.7 439.38 481.67 433.13 485.38 427.22 487.85 420.71 490.93 414.49 494.37 408.45 496.74 401.9 500.49 396.01 503.14 389.58 506.65 383.57 509.56 377.22 510.98 370.18 512.67 363.24 514.44 356.32 516.25 349.41 517.53 342.37 519.44 335.48 521.7 328.68 523.26 321.7 524.45 314.64 526.8 307.86 528.15 300.83 530.22 293.97 531.93 287 531.18 279.45 529.49 272.04 528.96 264.48 527.67 257.02 527.23 249.45 526.4 241.92 525.52 234.3 518.73 232.41 512.17 230.14 505.71 227.62 499.13 225.41 492.47 223.44 486.03 220.87 479.51 218.5 472.91 216.32 466.33 214.24 459.48 214.6 452.7 215.93 445.87 216.86 439.02 217.71 432.19 218.6 425.34 219.42 418.54 220.62 411.49 221.19 409.9 213.71 408.94 206.28 407.93 198.9"/><polygon class="cls-1" points="396.39 122.31 391.21 127.4 384.29 129.96 377.26 132.4 369.96 133.83 362.61 134.84 355.24 135.8 347.81 135.99 340.43 136.82 333.04 137.59 325.61 137.55 318.19 137.61 310.77 137.69 303.34 137.95 295.92 137.76 288.51 137.35 281.13 136.44 273.69 136.51 266.36 135.22 258.98 134.47 251.61 133.58 244.4 131.84 237.11 130.39 230.37 127.3 225.19 122.31 230.31 117.21 237.17 114.4 244.29 112.3 251.56 110.74 258.98 110.16 266.28 108.74 273.7 108.28 281.07 107.3 288.51 107.42 295.94 107.48 303.33 106.37 310.77 107 318.19 106.9 325.6 107.37 333.03 107.19 340.46 107.36 347.86 107.92 355.24 108.85 362.53 110.31 369.85 111.45 377.27 112.17 384.37 114.41 391.18 117.29 396.39 122.31"/><polygon class="cls-2" points="396.39 122.31 391.21 127.4 384.29 129.96 377.26 132.4 369.96 133.83 362.61 134.84 355.24 135.8 347.81 135.99 340.43 136.82 333.04 137.59 325.61 137.55 318.19 137.61 310.77 137.69 303.34 137.95 295.92 137.76 288.51 137.35 281.13 136.44 273.69 136.51 266.36 135.22 258.98 134.47 251.61 133.58 244.4 131.84 237.11 130.39 230.37 127.3 225.19 122.31 230.31 117.21 237.17 114.4 244.29 112.3 251.56 110.74 258.98 110.16 266.28 108.74 273.7 108.28 281.07 107.3 288.51 107.42 295.94 107.48 303.33 106.37 310.77 107 318.19 106.9 325.6 107.37 333.03 107.19 340.46 107.36 347.86 107.92 355.24 108.85 362.53 110.31 369.85 111.45 377.27 112.17 384.37 114.41 391.18 117.29 396.39 122.31"/><polygon points="249.12 133.04 255.86 133.79 262.64 134.99 269.5 135.67 276.36 136.18 283.22 136.85 290.07 137.8 296.98 137.67 303.87 137.62 310.77 138 317.66 137.94 324.56 137.93 331.43 137.29 338.34 137.31 345.2 136.56 352.11 136.32 358.93 135.33 365.68 133.83 372.93 133.04 365.7 132.08 358.93 130.76 352.08 130.01 345.2 129.54 338.35 128.63 331.45 128.47 324.55 128.61 317.67 128.07 310.77 128.19 303.88 128.73 296.98 128.37 290.09 128.64 283.21 129.02 276.37 129.93 269.49 130.32 262.65 131.17 255.8 131.88 249.12 133.04"/><polygon class="cls-2" points="249.12 133.04 255.86 133.79 262.64 134.99 269.5 135.67 276.36 136.18 283.22 136.85 290.07 137.8 296.98 137.67 303.87 137.62 310.77 138 317.66 137.94 324.56 137.93 331.43 137.29 338.34 137.31 345.2 136.56 352.11 136.32 358.93 135.33 365.68 133.83 372.93 133.04 365.7 132.08 358.93 130.76 352.08 130.01 345.2 129.54 338.35 128.63 331.45 128.47 324.55 128.61 317.67 128.07 310.77 128.19 303.88 128.73 296.98 128.37 290.09 128.64 283.21 129.02 276.37 129.93 269.49 130.32 262.65 131.17 255.8 131.88 249.12 133.04"/><polygon class="cls-1" points="419.24 233.26 414.87 227.74 411.97 221.33 408.41 215.27 405.54 208.85 403.56 202.11 401.38 195.45 400.07 188.56 397.9 181.86 397.28 174.85 396.3 167.93 395.29 161 394.87 154.02 393.98 147.04 394.51 140.03 394.1 133.02 394.7 126.33 387.99 127.43 381.12 129.16 374.06 129.89 367.21 131.75 360.19 132.68 353.22 133.95 346.21 134.94 339.12 135.29 332.08 135.99 324.99 136.14 317.92 136.26 310.85 136.63 303.78 136.72 296.72 136.24 289.62 136.3 282.56 135.59 275.56 134.44 268.5 133.87 261.59 132.21 254.46 132 247.56 130.32 240.53 129.4 233.65 127.74 227.09 126.42 226.89 133.06 226.94 140.05 226.96 147.03 226.83 154.03 226.68 161.03 225.6 167.96 224.57 174.88 223.89 181.87 221.77 188.58 220.28 195.43 218.27 202.14 215.94 208.76 213.11 215.17 210.3 221.62 206.18 227.34 202.26 233.12 198.49 239.41 194.42 245.48 190.72 251.78 186.78 257.93 182.78 264.05 179.46 270.56 176.63 277.3 173.26 283.82 171.26 290.87 169.23 297.87 167.28 304.92 166.28 312.16 165.36 319.4 164.21 326.65 164.05 333.98 164.13 341.31 164.46 348.63 166.02 355.83 166.71 363.1 167.97 370.29 168.96 377.53 169.91 384.8 171.95 391.84 173.84 398.9 175.12 406.14 177.29 413.13 179.43 420.14 181.49 427 183.68 433.82 186.87 440.31 189.05 447.13 190.95 454.06 193.4 460.8 196.03 467.46 198.83 474.06 201.31 480.78 203.62 487.57 206.31 494.21 209.13 500.81 212.46 507.17 215.21 513.78 217.24 520.71 220.15 527.25 223.03 533.81 226.58 540.08 229.27 546.72 231.9 553.39 234.53 560.05 237.41 566.62 239.63 573.43 241.46 580.37 243.91 587.1 245.42 594.1 246.87 601.09 248.24 608.13 248.59 615.13 254.73 618.31 261.14 621.45 267.88 623.84 274.86 625.39 281.95 626.27 288.97 627.43 296 628.7 303.13 629.13 310.27 629.38 310.29 628.85 310.85 629.03 311.42 628.88 311.44 629.6 318.55 628.62 325.69 628.55 332.82 628.15 339.83 626.76 346.75 625.03 353.83 623.85 360.35 620.84 367.27 618.95 373.36 615.27 373.79 608.16 374.44 601.02 375.61 593.93 377.56 587.02 380.05 580.29 382.19 573.46 384.64 566.73 387.65 560.22 390.41 553.62 392.45 546.71 395.31 540.15 398.34 533.66 401.55 527.24 404.07 520.53 407.23 514.1 409.24 507.18 412.74 500.88 415.32 494.19 418.02 487.55 420.02 480.64 422.95 474.1 425.96 467.58 427.77 460.61 430.66 454.04 433.19 447.33 435.43 440.52 437.68 433.72 440.06 426.96 441.54 419.9 444.47 413.15 445.81 405.93 447.9 398.93 449.36 391.76 450.98 384.64 453.26 377.64 453.94 370.33 455.15 363.12 456.26 355.88 456.35 348.56 456.73 341.27 456.73 333.98 457.05 326.67 456.88 319.34 455.56 312.13 454.55 304.87 452.86 297.75 450.43 290.84 447.86 284.01 445.77 276.97 442.44 270.44 438.83 264.08 435.24 257.72 431.62 251.36 427.12 245.58 423.3 239.34 419.24 233.26"/><polygon class="cls-2" points="419.24 233.26 414.87 227.74 411.97 221.33 408.41 215.27 405.54 208.85 403.56 202.11 401.38 195.45 400.07 188.56 397.9 181.86 397.28 174.85 396.3 167.93 395.29 161 394.87 154.02 393.98 147.04 394.51 140.03 394.1 133.02 394.7 126.33 387.99 127.43 381.12 129.16 374.06 129.89 367.21 131.75 360.19 132.68 353.22 133.95 346.21 134.94 339.12 135.29 332.08 135.99 324.99 136.14 317.92 136.26 310.85 136.63 303.78 136.72 296.72 136.24 289.62 136.3 282.56 135.59 275.56 134.44 268.5 133.87 261.59 132.21 254.46 132 247.56 130.32 240.53 129.4 233.65 127.74 227.09 126.42 226.89 133.06 226.94 140.05 226.96 147.03 226.83 154.03 226.68 161.03 225.6 167.96 224.57 174.88 223.89 181.87 221.77 188.58 220.28 195.43 218.27 202.14 215.94 208.76 213.11 215.17 210.3 221.62 206.18 227.34 202.26 233.12 198.49 239.41 194.42 245.48 190.72 251.78 186.78 257.93 182.78 264.05 179.46 270.56 176.63 277.3 173.26 283.82 171.26 290.87 169.23 297.87 167.28 304.92 166.28 312.16 165.36 319.4 164.21 326.65 164.05 333.98 164.13 341.31 164.46 348.63 166.02 355.83 166.71 363.1 167.97 370.29 168.96 377.53 169.91 384.8 171.95 391.84 173.84 398.9 175.12 406.14 177.29 413.13 179.43 420.14 181.49 427 183.68 433.82 186.87 440.31 189.05 447.13 190.95 454.06 193.4 460.8 196.03 467.46 198.83 474.06 201.31 480.78 203.62 487.57 206.31 494.21 209.13 500.81 212.46 507.17 215.21 513.78 217.24 520.71 220.15 527.25 223.03 533.81 226.58 540.08 229.27 546.72 231.9 553.39 234.53 560.05 237.41 566.62 239.63 573.43 241.46 580.37 243.91 587.1 245.42 594.1 246.87 601.09 248.24 608.13 248.59 615.13 254.73 618.31 261.14 621.45 267.88 623.84 274.86 625.39 281.95 626.27 288.97 627.43 296 628.7 303.13 629.13 310.27 629.38 310.29 628.85 310.85 629.03 311.42 628.88 311.44 629.6 318.55 628.62 325.69 628.55 332.82 628.15 339.83 626.76 346.75 625.03 353.83 623.85 360.35 620.84 367.27 618.95 373.36 615.27 373.79 608.16 374.44 601.02 375.61 593.93 377.56 587.02 380.05 580.29 382.19 573.46 384.64 566.73 387.65 560.22 390.41 553.62 392.45 546.71 395.31 540.15 398.34 533.66 401.55 527.24 404.07 520.53 407.23 514.1 409.24 507.18 412.74 500.88 415.32 494.19 418.02 487.55 420.02 480.64 422.95 474.1 425.96 467.58 427.77 460.61 430.66 454.04 433.19 447.33 435.43 440.52 437.68 433.72 440.06 426.96 441.54 419.9 444.47 413.15 445.81 405.93 447.9 398.93 449.36 391.76 450.98 384.64 453.26 377.64 453.94 370.33 455.15 363.12 456.26 355.88 456.35 348.56 456.73 341.27 456.73 333.98 457.05 326.67 456.88 319.34 455.56 312.13 454.55 304.87 452.86 297.75 450.43 290.84 447.86 284.01 445.77 276.97 442.44 270.44 438.83 264.08 435.24 257.72 431.62 251.36 427.12 245.58 423.3 239.34 419.24 233.26"/><polyline class="cls-2" points="226.39 128.25 227.52 135.18 227.34 142.19 227.37 149.19 227.49 156.21 226.38 163.15 225.74 170.12 225.03 177.09 223.96 184.03 222.02 190.78 220.2 197.55 218.49 204.36 215.61 210.77 212.67 217.12 210.14 223.68 206.5 229.68 202.25 235.25 198.76 241.74 194.52 247.69 189.97 253.45 186.81 260.09 183.13 266.39 179.46 272.71 176.14 279.23 173.26 285.96 170.93 292.9 168.8 299.91 167 307.01 165.71 314.22 165.4 321.55 164.29 328.81 164.55 336.13 164.44 343.44 165.3 350.71 166 357.98 166.97 365.21 167.72 372.48 168.75 379.71 170.14 386.9 171.7 394.05 173.69 401.09 175.81 408.09 177.94 415.08 179.46 422.27 181.78 429.05 184.09 435.83 186.01 442.75 188.89 449.33 191.56 455.99 193.71 462.83 196.4 469.47 198.42 476.36 201.58 482.82 203.97 489.58 206.19 496.41 209.16 502.94 212.04 509.5 214.58 516.2 217.92 522.56 220.26 529.35 223.72 535.66 225.93 542.5 229.29 548.86 232.05 555.47 234.05 562.39 237.37 568.78 239.66 575.57 242.25 582.26 244.09 589.2 245.79 596.16 247.22 603.18 248.05 610.29 247.87 617.45"/><polyline class="cls-2" points="263.69 617.45 263.79 610.21 263.07 603.01 261.48 595.95 260.42 588.79 258.72 581.77 256.96 574.76 254.8 567.87 253.08 560.84 250.99 553.92 248.53 547.13 246.54 540.18 243.87 533.45 242.29 526.37 240 519.52 237.4 512.76 235.68 505.73 233 498.99 231.67 491.84 229.34 484.99 226.74 478.22 224.83 471.25 223.2 464.2 220.97 457.31 219.11 450.32 217.56 443.25 215.49 436.32 214.38 429.14 212.7 422.11 211.15 415.14 209.61 408.17 208.25 401.16 206.67 394.19 205.22 387.19 203.82 380.17 202.97 373.07 202.62 365.91 201.93 358.8 201.2 351.68 201.2 344.53 200.92 337.4 201.25 330.26 201.36 323.12 201.71 315.97 203.07 308.94 203.97 301.85 205.16 294.8 207.68 288.07 208.91 280.99 211.63 274.37 213.83 267.56 216.44 260.9 220.3 254.81 222.68 248.03 226.28 241.86 229.76 235.62 232.49 228.79 235.55 222.13 238.3 215.31 240.5 208.3 241.63 201.02 243.11 193.84 245.12 186.75 245.69 179.41 246.27 172.1 247.77 164.87 247.72 157.51 248.21 150.19 248.39 142.85 248.35 135.51 247.37 128.23"/><polyline class="cls-2" points="278.95 620.67 279.13 613.47 278.23 606.32 278.13 599.11 276.87 592.01 275.79 584.9 274.98 577.73 273.96 570.6 272.04 563.63 270.52 556.59 269.54 549.45 267.77 542.47 266.63 535.35 265.37 528.26 263.23 521.36 262.19 514.22 260.07 507.3 259.39 500.09 257.72 493.08 256.23 486.04 254.59 479.02 253.98 471.8 252.28 464.8 250.51 457.8 249.44 450.67 248.69 443.49 247.55 436.38 246.24 429.29 245.17 422.16 243.78 415 243.08 407.74 241.76 400.56 240.66 393.34 239.97 386.08 239.56 378.8 238.56 371.56 238.37 364.26 237.68 357 237.16 349.72 237.88 342.41 237.58 335.13 237.42 327.84 237.36 320.54 238.01 313.27 239.39 306.07 239.7 298.77 241.11 291.62 242.29 284.43 243.89 277.32 245.64 270.25 247.88 263.32 249.31 256.15 251.75 249.28 253.64 242.23 256.06 235.36 258.23 228.48 260.65 221.65 262.17 214.58 263.51 207.47 264.82 200.36 266.19 193.24 266.5 185.98 267.81 178.83 268.3 171.61 268.76 164.38 269.08 157.14 268.52 149.89 268.53 142.66 268.3 135.44 268.44 128.21"/><polyline class="cls-2" points="294.95 622.81 294.49 615.63 294.63 608.43 294.4 601.24 293.89 594.06 292.73 586.94 292.3 579.76 291.76 572.58 291.62 565.37 290.79 558.23 289.74 551.11 288.75 543.98 288.09 536.82 287.37 529.67 286.9 522.49 286.48 515.3 285.39 508.18 284.83 501.01 283.71 493.89 283.25 486.71 282.78 479.52 281.84 472.38 281.1 465.23 280.24 458.08 279.74 450.9 279.17 443.73 278.76 436.54 278.46 429.34 277.44 422.2 277.02 415 276.17 407.83 275.78 400.63 276.07 393.39 275.61 386.2 274.46 379.04 274.47 371.82 273.88 364.62 274.56 357.39 274.05 350.19 273.73 342.99 274.12 335.78 274.26 328.57 274.34 321.37 274.17 314.15 274.77 306.96 275.13 299.76 275.35 292.56 276.64 285.44 277.42 278.28 278.24 271.13 278.9 263.95 279.71 256.79 280.87 249.68 282.14 242.59 283.41 235.5 284.28 228.38 285.9 221.36 286.03 214.16 287.34 207.08 287.83 199.91 288.42 192.76 288.14 185.56 288.82 178.4 289.48 171.25 289.08 164.05 289.73 156.89 289.89 149.72 289.11 142.54 289.35 135.38 289.65 128.2"/><polyline class="cls-2" points="309.87 622.81 310.26 615.65 310.06 608.49 310.23 601.32 310.55 594.16 310.65 587 309.96 579.83 310.67 572.66 310.69 565.5 310.63 558.34 310.7 551.17 310.12 544.01 310.02 536.85 310.4 529.69 309.95 522.53 310.75 515.36 310.24 508.19 310.39 501.03 310.71 493.86 310.73 486.7 310.67 479.53 310.26 472.36 310.21 465.2 310.34 458.03 310.41 450.86 310.44 443.69 310.49 436.52 310.52 429.35 310.19 422.18 310.07 415 310.6 407.82 310.27 400.64 310.64 393.45 310.8 386.27 309.86 379.09 310.06 371.91 310.22 364.73 310.13 357.54 310.25 350.36 309.88 343.18 310.46 336 310.69 328.81 310.21 321.64 309.9 314.46 310.81 307.27 310.46 300.09 310.08 292.91 310.51 285.73 310.81 278.55 309.94 271.37 310.41 264.2 310.68 257.02 310.7 249.84 310.48 242.67 310.23 235.5 310.31 228.35 310.33 221.2 309.84 214.05 310.72 206.89 310.7 199.74 310.5 192.59 309.97 185.43 310.28 178.27 310.54 171.12 310.46 163.96 310.32 156.81 310.43 149.66 309.84 142.5 310.8 135.35 310.48 128.21"/><polyline class="cls-2" points="325.81 622.81 326.32 615.63 326.09 608.43 326.79 601.27 327.35 594.1 326.97 586.86 328.15 579.74 328.23 572.52 329.82 565.45 330 558.24 331.07 551.12 331.77 543.97 332.49 536.82 333.29 529.67 333.9 522.5 334.01 515.29 334.92 508.15 335.87 501.01 336.93 493.89 336.91 486.66 337.6 479.5 338.67 472.37 338.99 465.18 340.28 458.07 340.3 450.85 341.56 443.74 342.02 436.55 342.16 429.34 343.25 422.2 343.14 414.97 343.75 407.79 344.05 400.58 345.29 393.44 345.19 386.21 345.31 379 346.26 371.82 346.35 364.61 346.83 357.41 346.31 350.18 346.74 342.98 346.64 335.77 347.2 328.56 346.68 321.36 346.71 314.14 346.18 306.95 345.95 299.74 345.41 292.55 344.91 285.35 343.49 278.25 343.3 271.01 341.64 263.96 340.44 256.87 339.61 249.7 338.11 242.66 336.85 235.57 336.48 228.36 335.12 221.31 334.56 214.16 334 207.01 333.33 199.88 332.76 192.73 331.67 185.6 331.31 178.42 331.94 171.22 331.65 164.05 331.22 156.89 330.73 149.72 331.51 142.54 330.73 135.37 331.52 128.22"/><polyline class="cls-2" points="341.4 620.67 341.14 613.46 341.73 606.27 342.68 599.13 343.62 591.99 344.12 584.78 345.77 577.75 347.34 570.72 348.55 563.62 349.65 556.5 351.09 549.45 352.59 542.41 354.12 535.38 355.58 528.33 357.29 521.33 358.97 514.33 360.42 507.27 361.49 500.14 362.55 493.01 363.89 485.94 365.94 479 367.4 471.94 368.48 464.82 369.24 457.64 370.65 450.57 371.75 443.45 373.17 436.39 374.05 429.23 375.89 422.23 376.71 414.98 377.24 407.69 378.52 400.51 379.87 393.33 380.71 386.09 380.93 378.78 382.15 371.57 382.64 364.29 382.88 356.99 382.63 349.69 383.06 342.42 383.47 335.13 382.96 327.85 382.53 320.57 382.44 313.28 381.88 306 380.76 298.8 379.43 291.63 378.4 284.42 376.84 277.3 375.57 270.1 373.05 263.24 370.88 256.29 368.86 249.29 366.31 242.46 364.5 235.38 361.8 228.66 360.33 221.56 358.17 214.64 356.62 207.56 355.31 200.43 354.83 193.19 353.99 186 353.2 178.8 353.02 171.56 352.08 164.37 351.69 157.13 352.21 149.89 351.62 142.66 351.58 135.42 351.95 128.2"/><polyline class="cls-2" points="356.4 617.45 356.62 610.2 357.53 603 359.06 595.93 360.47 588.85 362.1 581.82 363.33 574.67 365.77 567.85 367.61 560.85 370.1 554.07 371.79 547.03 373.75 540.07 375.98 533.2 378.18 526.32 380.81 519.57 382.73 512.6 385.28 505.83 387.12 498.83 389.24 491.92 391.96 485.19 393.97 478.24 395.43 471.14 397.68 464.26 399.74 457.33 401.03 450.19 402.72 443.16 405.12 436.31 406.18 429.12 407.76 422.07 409.65 415.18 410.92 408.14 412.37 401.16 413.94 394.18 415.75 387.24 416.59 380.14 417.8 373.08 418.41 365.95 418.97 358.82 418.87 351.65 419.35 344.53 419.31 337.4 419.14 330.27 419.43 323.11 418.8 315.99 418.15 308.86 417 301.79 415.05 294.89 413.01 288.05 411.41 281.09 408.68 274.49 406.62 267.63 403.62 261.15 401.01 254.5 397.36 248.34 394.2 241.94 391.01 235.55 387.7 228.99 385.36 222.03 382.96 215.11 380.93 208.08 378.94 201.03 377.27 193.9 375.78 186.71 374.81 179.43 373.53 172.19 373.5 164.82 373.11 157.5 372.35 150.19 372.54 142.85 372.28 135.51 372.58 128.18"/><polyline class="cls-2" points="372.04 617.45 373.08 610.33 373.79 603.23 374.85 596.15 376.6 589.2 378.72 582.36 381.25 575.65 383.23 568.75 386.31 562.25 388.64 555.47 391.66 548.97 394.81 542.54 397.61 535.95 400.23 529.28 403.33 522.83 405.36 515.91 408.22 509.34 411.28 502.86 414.52 496.45 417.16 489.78 419.16 482.87 421.81 476.22 424.93 469.74 427.44 463.03 429.21 456.05 431.65 449.31 434.02 442.56 436.84 435.94 438.59 428.97 441.11 422.25 442.58 415.06 445.23 408.21 446.93 401.1 448.36 393.92 450.3 386.87 452.17 379.79 453 372.5 454.51 365.32 454.69 357.98 456.09 350.76 456.13 343.43 455.73 336.12 456.05 328.81 455.03 321.56 454.91 314.21 453 307.12 451.18 300.05 449.45 292.96 447.44 285.91 444.53 279.19 441.44 272.55 437.38 266.43 434.14 259.88 430.51 253.53 426.06 247.71 422.22 241.49 417.95 235.56 413.83 229.86 410.99 223.42 407.22 217.47 404.8 210.87 402.61 204.21 400.15 197.64 398.3 190.87 396.82 184.01 395.45 177.12 395.21 170.08 394.32 163.14 393.21 156.2 392.92 149.19 393.42 142.18 393.82 135.2 394.15 128.24"/><polygon points="443.01 271.35 435.92 273.48 429.29 276.13 422.24 277.29 415.25 278.55 408.37 280.41 401.36 281.58 394.29 282.42 387.24 283.37 380.22 284.56 373.13 285.13 366.05 285.9 358.94 286.15 351.82 286.31 344.72 286.74 337.64 287.53 330.54 288.14 323.42 287.83 316.3 288.13 309.18 288.19 301.83 287.78 294.48 288.23 287.13 287.93 279.78 287.9 272.46 287.3 265.15 286.62 257.85 285.82 250.52 285.4 243.16 285.23 235.89 284.13 228.6 283.25 221.34 282.19 214.09 281.05 206.95 279.33 199.69 278.24 192.48 276.84 185.38 274.95 178.27 272.43 177.91 279.48 176.88 286.39 176.51 293.37 175.36 300.26 174.75 307.22 174.18 314.18 173.17 321.09 171.69 327.94 171.32 334.93 170.89 341.9 169.77 348.8 168.87 355.73 168.47 362.71 166.99 369.7 174.07 372.6 181.1 374.41 188.19 375.89 195.02 378.44 202.17 379.66 209.36 380.54 216.4 382.27 223.56 383.38 230.77 384.08 238.03 384.28 245.22 385.05 252.36 386.48 259.63 386.42 266.83 387.06 274.07 387.21 281.29 387.78 288.53 387.96 295.76 388.35 303.01 388.05 310.25 388.21 317.57 388.75 324.87 387.77 332.2 388.42 339.5 387.86 346.79 387.14 354.12 387.29 361.43 386.96 368.67 385.8 375.97 385.39 383.26 384.77 390.48 383.61 397.82 383.38 404.96 381.65 412.18 380.54 419.34 379.09 426.45 377.44 433.68 376.25 440.57 373.78 447.71 372.12 454.61 369.09 453.61 362.07 453 355.07 451.86 348.14 451.16 341.16 450.12 334.22 449.22 327.26 448.52 320.28 447.6 313.32 446.99 306.32 446.19 299.35 445.29 292.39 444.65 285.4 443.9 278.42 443.01 271.35"/><polygon class="cls-2" points="443.01 271.35 435.92 273.48 429.29 276.13 422.24 277.29 415.25 278.55 408.37 280.41 401.36 281.58 394.29 282.42 387.24 283.37 380.22 284.56 373.13 285.13 366.05 285.9 358.94 286.15 351.82 286.31 344.72 286.74 337.64 287.53 330.54 288.14 323.42 287.83 316.3 288.13 309.18 288.19 301.83 287.78 294.48 288.23 287.13 287.93 279.78 287.9 272.46 287.3 265.15 286.62 257.85 285.82 250.52 285.4 243.16 285.23 235.89 284.13 228.6 283.25 221.34 282.19 214.09 281.05 206.95 279.33 199.69 278.24 192.48 276.84 185.38 274.95 178.27 272.43 177.91 279.48 176.88 286.39 176.51 293.37 175.36 300.26 174.75 307.22 174.18 314.18 173.17 321.09 171.69 327.94 171.32 334.93 170.89 341.9 169.77 348.8 168.87 355.73 168.47 362.71 166.99 369.7 174.07 372.6 181.1 374.41 188.19 375.89 195.02 378.44 202.17 379.66 209.36 380.54 216.4 382.27 223.56 383.38 230.77 384.08 238.03 384.28 245.22 385.05 252.36 386.48 259.63 386.42 266.83 387.06 274.07 387.21 281.29 387.78 288.53 387.96 295.76 388.35 303.01 388.05 310.25 388.21 317.57 388.75 324.87 387.77 332.2 388.42 339.5 387.86 346.79 387.14 354.12 387.29 361.43 386.96 368.67 385.8 375.97 385.39 383.26 384.77 390.48 383.61 397.82 383.38 404.96 381.65 412.18 380.54 419.34 379.09 426.45 377.44 433.68 376.25 440.57 373.78 447.71 372.12 454.61 369.09 453.61 362.07 453 355.07 451.86 348.14 451.16 341.16 450.12 334.22 449.22 327.26 448.52 320.28 447.6 313.32 446.99 306.32 446.19 299.35 445.29 292.39 444.65 285.4 443.9 278.42 443.01 271.35"/><polyline class="cls-1" points="180.22 620.75 180.77 627.41 180.93 634.08 180.78 640.74 180.21 647.41 180.96 654.08 180.52 660.75"/><polyline class="cls-2" points="180.22 620.75 180.77 627.41 180.93 634.08 180.78 640.74 180.21 647.41 180.96 654.08 180.52 660.75"/><polygon points="635.48 620.92 635.73 627.41 635.88 634.08 636.01 640.74 635.21 647.41 635.6 654.08 635.38 660.61 628.22 661.5 620.98 662.78 613.78 664.31 606.5 665.27 599.23 666.35 591.85 666.61 584.64 668.11 577.38 669.21 570.04 669.76 562.81 671.1 555.48 671.78 548.34 673.77 540.98 674.21 533.71 675.25 526.5 676.75 519.2 677.56 511.92 678.53 504.68 679.82 497.34 680.44 490.05 681.38 482.87 683.12 475.69 683.58 475.99 675.75 475.07 667.75 475.05 659.75 475.57 651.78 482.5 650.67 489.47 649.64 496.46 648.71 503.49 648.14 510.53 647.65 517.51 646.64 524.48 645.53 531.54 645.23 538.47 643.78 545.55 643.57 552.46 641.97 559.46 641.18 566.52 640.82 573.57 640.34 580.55 639.34 587.54 638.4 594.49 637.19 601.52 636.56 608.51 635.55 615.43 634.52 622.01 629.83 629 625.63 635.48 620.92"/><polygon class="cls-2" points="635.48 620.92 635.73 627.41 635.88 634.08 636.01 640.74 635.21 647.41 635.6 654.08 635.38 660.61 628.22 661.5 620.98 662.78 613.78 664.31 606.5 665.27 599.23 666.35 591.85 666.61 584.64 668.11 577.38 669.21 570.04 669.76 562.81 671.1 555.48 671.78 548.34 673.77 540.98 674.21 533.71 675.25 526.5 676.75 519.2 677.56 511.92 678.53 504.68 679.82 497.34 680.44 490.05 681.38 482.87 683.12 475.69 683.58 475.99 675.75 475.07 667.75 475.05 659.75 475.57 651.78 482.5 650.67 489.47 649.64 496.46 648.71 503.49 648.14 510.53 647.65 517.51 646.64 524.48 645.53 531.54 645.23 538.47 643.78 545.55 643.57 552.46 641.97 559.46 641.18 566.52 640.82 573.57 640.34 580.55 639.34 587.54 638.4 594.49 637.19 601.52 636.56 608.51 635.55 615.43 634.52 622.01 629.83 629 625.63 635.48 620.92"/></svg>