<svg xmlns="http://www.w3.org/2000/svg" xmlns:xlink="http://www.w3.org/1999/xlink" viewBox="0 0 800 800"><defs><style>.a,.c{fill:none;}.b{fill:#fff;}.c{stroke:#000;stroke-linejoin:bevel;stroke-width:13px;}.d{clip-path:url(#a);}</style><clipPath id="a"><polygon class="a" points="542.79 496.11 537.71 501.04 532.53 505.81 527.16 510.36 521.86 515.01 516.27 519.3 510.64 523.53 504.76 527.42 499.11 531.63 493.02 535.18 487.18 539.14 481.09 542.71 474.83 545.96 468.42 548.93 461.96 551.75 455.38 554.29 448.66 556.46 442.08 559.05 435.08 560.18 428.19 561.6 421.31 563.11 414.29 563.72 407.31 564.8 400.25 565.07 393.21 564.48 386.17 564.18 379.23 562.88 372.22 562.09 365.26 560.88 358.52 558.75 351.66 557.02 345.27 553.94 338.44 552.02 332.12 548.88 325.95 545.45 319.31 542.92 313.58 538.72 307.28 535.53 301.37 531.68 295.6 527.63 289.99 523.36 284.1 519.47 278.65 514.99 273.01 510.74 268.14 505.61 262.87 500.94 258.17 496.17 264.02 492.78 270.17 489.22 276.69 486.39 283.25 483.67 289.59 480.4 296.31 478.08 302.86 475.3 309.52 472.81 316.49 471.29 323.23 469.04 330 466.85 336.85 464.93 343.89 463.84 350.79 462.13 357.79 460.9 364.78 459.57 371.9 459.26 378.91 457.81 386.06 458.16 393.15 457.81 400.25 457.61 407.37 457.14 414.48 457.34 421.56 458.09 428.6 459.13 435.67 459.88 442.62 461.39 449.66 462.37 456.69 463.48 463.52 465.45 470.49 466.89 477.39 468.61 484.13 470.89 490.8 473.34 497.44 475.87 504.14 478.2 510.84 480.58 517.22 483.74 523.79 486.43 530.33 489.24 536.58 492.61 542.79 496.11"/></clipPath></defs><title>kiln-10</title><polygon class="b" points="277.48 567.07 270.77 570.29 264.03 573.25 257.05 575.64 250.2 578.33 243.4 581.15 236.66 584.14 229.99 587.27 223.25 590.23 216.14 592.31 209.46 595.41 202.73 598.42 195.71 600.7 188.93 603.58 182.1 606.34 175.46 609.55 168.7 612.48 161.79 615.07 154.61 617.87 161.55 620.73 167.93 623.95 174.44 626.88 180.72 630.31 187.44 632.84 193.54 636.64 200.07 639.56 206.78 642.08 212.92 645.8 219.35 648.91 225.93 651.72 232.39 654.77 238.98 657.56 245.36 660.79 251.61 664.3 258.05 667.4 264.78 669.9 271.23 672.99 277.49 676.65 284.76 676.36 291.97 676.02 299.18 676.63 306.38 676.61 313.59 676.1 320.8 675.88 328 676.45 335.21 676.34 342.42 676.11 349.62 676.58 356.83 676.56 364.04 675.91 371.24 676.61 378.45 676.52 385.66 676.65 392.87 676.33 400.08 676.03 407.29 676.82 414.5 676.86 421.71 676.46 428.92 676.08 436.13 676.12 443.34 676.18 450.55 676.16 457.76 675.95 464.97 676.08 472.18 676.65 479.39 676.79 486.61 676.72 493.82 676.02 501.03 675.99 508.24 676.26 515.46 676.46 522.59 675.96 528.95 672.91 535.63 670.32 542.24 667.58 548.52 664.14 554.81 660.74 561.51 658.18 567.71 654.57 574.4 652 580.67 648.55 587.07 645.37 593.71 642.7 600.2 639.7 606.42 636.14 612.86 633.05 619.45 630.25 626.08 627.57 632.12 623.6 638.83 621.06 645.12 617.9 638.43 615.12 631.71 612.1 624.85 609.44 617.89 606.99 611.39 603.44 604.43 601.02 597.54 598.4 590.62 595.87 584.05 592.49 577.09 590.05 570.38 587.02 563.56 584.23 556.63 581.73 550.12 578.2 542.96 576.25 536.45 572.72 529.34 570.63 522.59 567.86 515.48 567.75 508.27 567.3 501.06 567.74 493.85 567.25 486.64 567.38 479.44 567.05 472.23 567.5 465.03 567.64 457.82 567.79 450.61 567.31 443.41 567.12 436.2 567.53 428.99 567.29 421.78 567.44 414.58 567.24 407.37 567.44 400.16 567.14 392.95 567.64 385.74 566.93 378.53 567.82 371.32 567.54 364.11 567.88 356.89 567.6 349.68 567.87 342.47 567.44 335.26 567.56 328.05 567.17 320.84 567.3 313.63 567.46 306.42 567.15 299.21 567.86 291.99 566.99 284.77 567.61 277.48 567.07"/><polygon class="c" points="277.48 567.07 270.77 570.29 264.03 573.25 257.05 575.64 250.2 578.33 243.4 581.15 236.66 584.14 229.99 587.27 223.25 590.23 216.14 592.31 209.46 595.41 202.73 598.42 195.71 600.7 188.93 603.58 182.1 606.34 175.46 609.55 168.7 612.48 161.79 615.07 154.61 617.87 161.55 620.73 167.93 623.95 174.44 626.88 180.72 630.31 187.44 632.84 193.54 636.64 200.07 639.56 206.78 642.08 212.92 645.8 219.35 648.91 225.93 651.72 232.39 654.77 238.98 657.56 245.36 660.79 251.61 664.3 258.05 667.4 264.78 669.9 271.23 672.99 277.49 676.65 284.76 676.36 291.97 676.02 299.18 676.63 306.38 676.61 313.59 676.1 320.8 675.88 328 676.45 335.21 676.34 342.42 676.11 349.62 676.58 356.83 676.56 364.04 675.91 371.24 676.61 378.45 676.52 385.66 676.65 392.87 676.33 400.08 676.03 407.29 676.82 414.5 676.86 421.71 676.46 428.92 676.08 436.13 676.12 443.34 676.18 450.55 676.16 457.76 675.95 464.97 676.08 472.18 676.65 479.39 676.79 486.61 676.72 493.82 676.02 501.03 675.99 508.24 676.26 515.46 676.46 522.59 675.96 528.95 672.91 535.63 670.32 542.24 667.58 548.52 664.14 554.81 660.74 561.51 658.18 567.71 654.57 574.4 652 580.67 648.55 587.07 645.37 593.71 642.7 600.2 639.7 606.42 636.14 612.86 633.05 619.45 630.25 626.08 627.57 632.12 623.6 638.83 621.06 645.12 617.9 638.43 615.12 631.71 612.1 624.85 609.44 617.89 606.99 611.39 603.44 604.43 601.02 597.54 598.4 590.62 595.87 584.05 592.49 577.09 590.05 570.38 587.02 563.56 584.23 556.63 581.73 550.12 578.2 542.96 576.25 536.45 572.72 529.34 570.63 522.59 567.86 515.48 567.75 508.27 567.3 501.06 567.74 493.85 567.25 486.64 567.38 479.44 567.05 472.23 567.5 465.03 567.64 457.82 567.79 450.61 567.31 443.41 567.12 436.2 567.53 428.99 567.29 421.78 567.44 414.58 567.24 407.37 567.44 400.16 567.14 392.95 567.64 385.74 566.93 378.53 567.82 371.32 567.54 364.11 567.88 356.89 567.6 349.68 567.87 342.47 567.44 335.26 567.56 328.05 567.17 320.84 567.3 313.63 567.46 306.42 567.15 299.21 567.86 291.99 566.99 284.77 567.61 277.48 567.07"/><polygon class="b" points="522.77 526.99 529.27 529.98 535.45 533.44 541.93 536.23 548.58 538.64 555.06 541.44 561.34 544.7 567.8 547.54 574.43 550.01 580.89 552.85 587.27 555.87 593.72 558.72 600.02 561.93 606.59 564.54 613.15 567.14 619.59 570.04 625.87 573.29 632.14 576.57 638.6 579.46 645.55 581.89 638.76 584.65 632.37 587.66 625.98 590.66 619.27 592.93 613.08 596.38 606.55 599.07 600.27 602.32 593.49 604.45 587.02 607.26 580.58 610.14 574.4 613.61 568.02 616.65 561.52 619.39 554.86 621.79 548.55 624.98 542 627.61 535.54 630.49 529.07 633.32 522.73 636.58 515.48 636.51 508.27 635.98 501.06 636.78 493.85 636.09 486.64 636.68 479.44 636.75 472.23 636.49 465.03 635.93 457.82 636.23 450.61 636.66 443.41 636.84 436.2 636.22 428.99 636.32 421.78 636.21 414.58 636.47 407.37 636.75 400.16 636.38 392.95 636.26 385.74 636.67 378.53 636.57 371.32 636.54 364.11 636.47 356.89 636.86 349.68 636.28 342.47 636.86 335.26 636.81 328.05 636.18 320.84 635.94 313.63 636.62 306.42 636.47 299.21 635.96 291.99 636.28 284.77 636.75 277.64 635.92 271.24 633.18 264.76 630.4 258.07 628.08 251.74 624.94 245.18 622.32 238.79 619.32 232.3 616.55 225.76 613.87 219.47 610.64 213.23 607.33 206.57 604.93 200.33 601.6 193.78 598.94 187.2 596.36 180.74 593.51 174.52 590.13 167.72 588.05 161.31 585.06 154.99 581.89 161.31 578.74 167.92 576.25 174.41 573.48 180.73 570.32 187.34 567.83 193.53 564.35 200.2 561.98 206.51 558.8 212.99 556 219.55 553.41 225.72 549.92 232.2 547.1 238.95 544.91 245.13 541.43 251.68 538.78 258.19 536.05 264.68 533.25 271.14 530.41 277.55 527.41 284.76 526.92 291.97 527.28 299.18 527.15 306.38 527.45 313.59 527.3 320.8 527.05 328 527.76 335.21 527.71 342.42 527.22 349.62 527.22 356.83 527.17 364.04 527.8 371.24 527.01 378.45 527.59 385.66 527.67 392.87 527.57 400.08 527.35 407.29 527.88 414.5 527.03 421.71 527.83 428.92 527.24 436.13 527.2 443.34 527.2 450.55 527.47 457.76 527.48 464.97 527.05 472.18 527.51 479.39 527.69 486.61 527.13 493.82 527.16 501.03 527.8 508.24 527.06 515.45 527.12 522.77 526.99"/><polygon class="c" points="522.77 526.99 529.27 529.98 535.45 533.44 541.93 536.23 548.58 538.64 555.06 541.44 561.34 544.7 567.8 547.54 574.43 550.01 580.89 552.85 587.27 555.87 593.72 558.72 600.02 561.93 606.59 564.54 613.15 567.14 619.59 570.04 625.87 573.29 632.14 576.57 638.6 579.46 645.55 581.89 638.76 584.65 632.37 587.66 625.98 590.66 619.27 592.93 613.08 596.38 606.55 599.07 600.27 602.32 593.49 604.45 587.02 607.26 580.58 610.14 574.4 613.61 568.02 616.65 561.52 619.39 554.86 621.79 548.55 624.98 542 627.61 535.54 630.49 529.07 633.32 522.73 636.58 515.48 636.51 508.27 635.98 501.06 636.78 493.85 636.09 486.64 636.68 479.44 636.75 472.23 636.49 465.03 635.93 457.82 636.23 450.61 636.66 443.41 636.84 436.2 636.22 428.99 636.32 421.78 636.21 414.58 636.47 407.37 636.75 400.16 636.38 392.95 636.26 385.74 636.67 378.53 636.57 371.32 636.54 364.11 636.47 356.89 636.86 349.68 636.28 342.47 636.86 335.26 636.81 328.05 636.18 320.84 635.94 313.63 636.62 306.42 636.47 299.21 635.96 291.99 636.28 284.77 636.75 277.64 635.92 271.24 633.18 264.76 630.4 258.07 628.08 251.74 624.94 245.18 622.32 238.79 619.32 232.3 616.55 225.76 613.87 219.47 610.64 213.23 607.33 206.57 604.93 200.33 601.6 193.78 598.94 187.2 596.36 180.74 593.51 174.52 590.13 167.72 588.05 161.31 585.06 154.99 581.89 161.31 578.74 167.92 576.25 174.41 573.48 180.73 570.32 187.34 567.83 193.53 564.35 200.2 561.98 206.51 558.8 212.99 556 219.55 553.41 225.72 549.92 232.2 547.1 238.95 544.91 245.13 541.43 251.68 538.78 258.19 536.05 264.68 533.25 271.14 530.41 277.55 527.41 284.76 526.92 291.97 527.28 299.18 527.15 306.38 527.45 313.59 527.3 320.8 527.05 328 527.76 335.21 527.71 342.42 527.22 349.62 527.22 356.83 527.17 364.04 527.8 371.24 527.01 378.45 527.59 385.66 527.67 392.87 527.57 400.08 527.35 407.29 527.88 414.5 527.03 421.71 527.83 428.92 527.24 436.13 527.2 443.34 527.2 450.55 527.47 457.76 527.48 464.97 527.05 472.18 527.51 479.39 527.69 486.61 527.13 493.82 527.16 501.03 527.8 508.24 527.06 515.45 527.12 522.77 526.99"/><polygon points="461.49 600.32 468.38 598.14 475.53 596.46 482.51 594.24 489.36 591.6 496.53 589.97 503.43 587.48 510.53 585.63 517.47 583.26 524.57 581.43 531.36 578.56 538.45 576.69 545.57 574.91 552.33 571.99 559.35 569.86 566.48 568.12 573.36 565.57 580.42 563.58 587.42 561.38 594.22 559.43 588 556.21 581.3 553.44 574.31 551.37 567.89 547.94 561.21 545.12 554.63 542.08 547.83 539.53 541.03 536.51 535.45 541.46 529.42 545.57 524.22 550.72 518.62 555.37 512.73 559.65 507.02 564.15 501.35 568.71 495.63 573.21 489.58 577.29 483.88 581.83 478.72 587.03 472.78 591.25 466.96 595.64 461.49 600.32"/><polygon class="b" points="509.14 247.66 508.61 247.66 509.53 240.8 510.39 233.98 511.97 227.29 513.74 220.6 516.54 214.27 520.25 208.43 524.48 202.99 528.16 197.51 531.63 191.88 533.74 185.61 534.97 179.15 535.99 172.63 534.92 165.59 533.15 158.7 529.01 152.94 524.33 147.66 518.48 143.7 512.38 140.09 505.72 137.64 499.02 135.29 492.07 133.83 485.17 132.13 478.15 131.03 471.07 130.51 464.01 129.84 456.94 129.36 449.86 129.13 442.77 128.97 435.7 128.59 428.63 127.67 421.54 127.61 414.44 127.97 407.35 127.62 400.25 127.86 393.16 128.12 386.07 128.19 378.99 128.34 371.88 127.66 364.79 128.04 357.72 128.72 350.61 128.47 343.56 129.41 336.47 129.64 329.45 130.72 322.42 131.59 315.31 132.06 308.53 134.32 301.5 135.39 294.69 137.4 287.99 139.83 281.68 143.16 276.2 147.72 271.09 152.64 268.02 159.01 265.32 165.54 264.58 172.63 265.75 179.12 267.33 185.43 268.98 191.83 272.6 197.35 276.68 202.47 280.57 208.22 284.1 214.2 286.69 220.63 288.66 227.25 290.44 233.92 291.45 240.75 291.34 247.66 291.81 247.66 291.73 254.7 290.29 261.6 289.08 268.55 286.85 275.25 283.12 281.27 280.2 287.69 275.95 293.31 270.84 298.16 265.83 303.02 260.56 307.93 255.69 313.24 250.25 317.98 245.47 323.36 241 329.01 237.03 335.02 232.43 340.58 228.41 346.56 225.31 353.09 221.53 359.24 218.68 365.86 216.26 372.64 214.13 379.51 211.45 386.2 209.7 393.19 208.35 400.25 207.65 407.42 206.03 414.47 205.44 421.65 206.2 428.86 206.29 436.08 206.48 443.3 206.99 450.53 208.16 457.68 209.91 464.71 212.13 471.59 214.22 478.5 215.94 485.56 219.2 492.05 222.38 498.54 225.11 505.27 229.08 511.34 232.89 517.49 237.26 523.25 241.38 529.2 246.16 534.64 251.19 539.83 255.95 545.28 261.42 550.02 266.93 554.69 272.06 559.84 278.15 563.78 283.82 568.3 290.3 571.6 296.49 575.31 302.68 579.07 309.37 581.84 315.85 585.04 322.52 587.8 329.18 590.66 336.03 593.01 343.06 594.77 350.02 596.75 357.06 598.47 364.26 599.32 371.46 600 378.55 601.66 385.78 602.11 393.03 601.9 400.25 602.43 407.5 602.67 414.7 601.84 421.92 601.32 429.14 600.79 436.3 599.7 443.43 598.4 450.46 596.66 457.42 594.7 464.52 593.16 471.13 590.1 477.9 587.6 484.76 585.28 491.18 581.94 497.93 579.26 504.35 575.91 510.6 572.24 516.29 567.71 522.33 563.74 528.46 559.86 534.06 555.26 539 549.93 544.54 545.26 549.67 540.16 554.48 534.75 559.11 529.19 563.23 523.24 567.36 517.31 570.99 511.07 575.07 505.09 577.95 498.44 581.11 491.96 583.92 485.31 586.44 478.54 588.69 471.68 590.77 464.75 591.96 457.61 593.29 450.5 594.55 443.35 594.31 436.08 594.85 428.86 594.41 421.68 594.02 414.51 592.92 407.4 591.94 400.29 590.97 393.14 588.77 386.28 586.69 379.4 584.44 372.56 581.87 365.84 578.46 359.48 575.1 353.13 571.29 347.04 568.06 340.58 563.53 334.98 559.74 328.82 554.55 323.78 549.68 318.51 545.13 312.91 540.05 307.81 534.39 303.34 529.44 298.36 524.66 293.23 520.36 287.65 516.93 281.5 514.31 274.98 511.74 268.45 510.46 261.55 509.02 254.68 509.14 247.66"/><polygon class="c" points="509.14 247.66 508.61 247.66 509.53 240.8 510.39 233.98 511.97 227.29 513.74 220.6 516.54 214.27 520.25 208.43 524.48 202.99 528.16 197.51 531.63 191.88 533.74 185.61 534.97 179.15 535.99 172.63 534.92 165.59 533.15 158.7 529.01 152.94 524.33 147.66 518.48 143.7 512.38 140.09 505.72 137.64 499.02 135.29 492.07 133.83 485.17 132.13 478.15 131.03 471.07 130.51 464.01 129.84 456.94 129.36 449.86 129.13 442.77 128.97 435.7 128.59 428.63 127.67 421.54 127.61 414.44 127.97 407.35 127.62 400.25 127.86 393.16 128.12 386.07 128.19 378.99 128.34 371.88 127.66 364.79 128.04 357.72 128.72 350.61 128.47 343.56 129.41 336.47 129.64 329.45 130.72 322.42 131.59 315.31 132.06 308.53 134.32 301.5 135.39 294.69 137.4 287.99 139.83 281.68 143.16 276.2 147.72 271.09 152.64 268.02 159.01 265.32 165.54 264.58 172.63 265.75 179.12 267.33 185.43 268.98 191.83 272.6 197.35 276.68 202.47 280.57 208.22 284.1 214.2 286.69 220.63 288.66 227.25 290.44 233.92 291.45 240.75 291.34 247.66 291.81 247.66 291.73 254.7 290.29 261.6 289.08 268.55 286.85 275.25 283.12 281.27 280.2 287.69 275.95 293.31 270.84 298.16 265.83 303.02 260.56 307.93 255.69 313.24 250.25 317.98 245.47 323.36 241 329.01 237.03 335.02 232.43 340.58 228.41 346.56 225.31 353.09 221.53 359.24 218.68 365.86 216.26 372.64 214.13 379.51 211.45 386.2 209.7 393.19 208.35 400.25 207.65 407.42 206.03 414.47 205.44 421.65 206.2 428.86 206.29 436.08 206.48 443.3 206.99 450.53 208.16 457.68 209.91 464.71 212.13 471.59 214.22 478.5 215.94 485.56 219.2 492.05 222.38 498.54 225.11 505.27 229.08 511.34 232.89 517.49 237.26 523.25 241.38 529.2 246.16 534.64 251.19 539.83 255.95 545.28 261.42 550.02 266.93 554.69 272.06 559.84 278.15 563.78 283.82 568.3 290.3 571.6 296.49 575.31 302.68 579.07 309.37 581.84 315.85 585.04 322.52 587.8 329.18 590.66 336.03 593.01 343.06 594.77 350.02 596.75 357.06 598.47 364.26 599.32 371.46 600 378.55 601.66 385.78 602.11 393.03 601.9 400.25 602.43 407.5 602.67 414.7 601.84 421.92 601.32 429.14 600.79 436.3 599.7 443.43 598.4 450.46 596.66 457.42 594.7 464.52 593.16 471.13 590.1 477.9 587.6 484.76 585.28 491.18 581.94 497.93 579.26 504.35 575.91 510.6 572.24 516.29 567.71 522.33 563.74 528.46 559.86 534.06 555.26 539 549.93 544.54 545.26 549.67 540.16 554.48 534.75 559.11 529.19 563.23 523.24 567.36 517.31 570.99 511.07 575.07 505.09 577.95 498.44 581.11 491.96 583.92 485.31 586.44 478.54 588.69 471.68 590.77 464.75 591.96 457.61 593.29 450.5 594.55 443.35 594.31 436.08 594.85 428.86 594.41 421.68 594.02 414.51 592.92 407.4 591.94 400.29 590.97 393.14 588.77 386.28 586.69 379.4 584.44 372.56 581.87 365.84 578.46 359.48 575.1 353.13 571.29 347.04 568.06 340.58 563.53 334.98 559.74 328.82 554.55 323.78 549.68 318.51 545.13 312.91 540.05 307.81 534.39 303.34 529.44 298.36 524.66 293.23 520.36 287.65 516.93 281.5 514.31 274.98 511.74 268.45 510.46 261.55 509.02 254.68 509.14 247.66"/><polygon class="b" points="526.94 154.13 523.15 148.2 517.45 143.91 511.26 140.29 504.61 137.61 497.69 135.72 490.95 133.32 484.13 131.12 477.1 129.76 470 128.81 463.02 127.19 455.95 126.05 448.79 125.66 441.71 124.49 434.59 123.74 427.42 123.7 420.25 123.8 413.12 122.97 405.95 123.32 398.79 122.58 391.65 122.82 384.52 123.02 377.38 123.05 370.29 124.03 363.14 124.09 356.05 124.92 348.99 125.98 341.92 126.88 334.83 127.7 327.83 129.04 320.89 130.69 313.95 132.32 307.14 134.41 300.12 135.8 293.38 138.16 287.02 141.42 280.55 144.4 274.35 148.02 270.65 154.13 275.68 159.27 282.81 160.97 289.84 162.83 297.01 164.12 304.06 166.22 311.41 166.36 318.6 167.59 325.88 168.2 333.16 168.61 340.4 169.74 347.72 169.65 355.01 169.97 362.28 170.7 369.58 170.85 376.87 171.46 384.19 170.83 391.49 171.17 398.79 170.93 406.09 171.74 413.4 171.68 420.7 171.44 427.98 170.68 435.3 170.97 442.58 170.41 449.87 170.04 457.15 169.39 464.46 169.23 471.72 168.45 478.97 167.56 486.25 166.96 493.45 165.71 500.57 164.11 507.8 163.1 514.99 161.73 521.95 159.36 526.94 154.13"/><polygon class="c" points="526.94 154.13 523.15 148.2 517.45 143.91 511.26 140.29 504.61 137.61 497.69 135.72 490.95 133.32 484.13 131.12 477.1 129.76 470 128.81 463.02 127.19 455.95 126.05 448.79 125.66 441.71 124.49 434.59 123.74 427.42 123.7 420.25 123.8 413.12 122.97 405.95 123.32 398.79 122.58 391.65 122.82 384.52 123.02 377.38 123.05 370.29 124.03 363.14 124.09 356.05 124.92 348.99 125.98 341.92 126.88 334.83 127.7 327.83 129.04 320.89 130.69 313.95 132.32 307.14 134.41 300.12 135.8 293.38 138.16 287.02 141.42 280.55 144.4 274.35 148.02 270.65 154.13 275.68 159.27 282.81 160.97 289.84 162.83 297.01 164.12 304.06 166.22 311.41 166.36 318.6 167.59 325.88 168.2 333.16 168.61 340.4 169.74 347.72 169.65 355.01 169.97 362.28 170.7 369.58 170.85 376.87 171.46 384.19 170.83 391.49 171.17 398.79 170.93 406.09 171.74 413.4 171.68 420.7 171.44 427.98 170.68 435.3 170.97 442.58 170.41 449.87 170.04 457.15 169.39 464.46 169.23 471.72 168.45 478.97 167.56 486.25 166.96 493.45 165.71 500.57 164.11 507.8 163.1 514.99 161.73 521.95 159.36 526.94 154.13"/><polygon points="284.78 162.13 291.71 159.23 298.55 156.82 305.42 154.49 312.36 152.37 319.36 150.4 326.52 149.16 333.65 147.73 340.8 146.37 348.02 145.53 355.23 144.66 362.51 144.51 369.72 143.39 377.02 143.84 384.25 142.83 391.53 143.34 398.79 142.4 406.03 143.36 413.29 142.92 420.52 143.38 427.79 143.34 435.02 143.85 442.2 144.95 449.43 145.53 456.65 146.25 463.78 147.61 470.97 148.62 477.97 150.57 485.04 152.14 492.17 153.53 499.1 155.68 505.83 158.4 512.72 161.38 505.23 162.58 497.93 163.48 490.59 164.13 483.38 165.75 476.07 166.64 468.72 167.12 461.39 167.75 454.06 168.38 446.77 169.5 439.45 170.26 432.09 170.58 424.74 171.02 417.37 170.93 410.03 171.89 402.67 172.19 395.3 172.11 387.93 171.77 380.6 171.1 373.23 170.57 365.87 169.95 358.48 169.74 351.09 169.39 343.7 169.09 336.37 168.04 329.05 167.06 321.69 166.34 314.27 166.23 306.95 165.12 299.59 164.46 292.33 163.05 284.78 162.13"/><polygon class="c" points="284.78 162.13 291.71 159.23 298.55 156.82 305.42 154.49 312.36 152.37 319.36 150.4 326.52 149.16 333.65 147.73 340.8 146.37 348.02 145.53 355.23 144.66 362.51 144.51 369.72 143.39 377.02 143.84 384.25 142.83 391.53 143.34 398.79 142.4 406.03 143.36 413.29 142.92 420.52 143.38 427.79 143.34 435.02 143.85 442.2 144.95 449.43 145.53 456.65 146.25 463.78 147.61 470.97 148.62 477.97 150.57 485.04 152.14 492.17 153.53 499.1 155.68 505.83 158.4 512.72 161.38 505.23 162.58 497.93 163.48 490.59 164.13 483.38 165.75 476.07 166.64 468.72 167.12 461.39 167.75 454.06 168.38 446.77 169.5 439.45 170.26 432.09 170.58 424.74 171.02 417.37 170.93 410.03 171.89 402.67 172.19 395.3 172.11 387.93 171.77 380.6 171.1 373.23 170.57 365.87 169.95 358.48 169.74 351.09 169.39 343.7 169.09 336.37 168.04 329.05 167.06 321.69 166.34 314.27 166.23 306.95 165.12 299.59 164.46 292.33 163.05 284.78 162.13"/><polygon class="b" points="543.09 496.07 537.45 500.76 532.53 505.81 527.06 510.25 522.06 515.25 516.24 519.25 511.01 524.04 505.13 527.95 498.93 531.35 493.33 535.68 487.32 539.39 481.16 542.83 474.9 546.1 468.5 549.1 461.99 551.83 455.34 554.2 448.82 556.93 442.05 558.94 435.1 560.23 428.33 562.3 421.38 563.55 414.32 563.97 407.3 564.67 400.25 564.53 393.2 564.67 386.17 564.19 379.11 563.73 372.16 562.41 365.43 560.16 358.43 559.07 351.81 556.59 345.23 554.05 338.46 551.97 332.13 548.85 325.74 545.87 319.43 542.7 313.11 539.54 307.34 535.43 301.5 531.49 295.64 527.57 289.56 523.94 284.26 519.25 278.83 514.76 272.94 510.82 268.13 505.62 262.91 500.89 257.95 496.14 263.8 492.36 270.15 489.18 276.47 485.91 283.13 483.37 289.85 481.05 296.32 478.1 303.01 475.73 309.69 473.32 316.4 470.98 323.26 469.12 329.93 466.59 336.88 465.05 343.8 463.45 350.74 461.87 357.78 460.83 364.81 459.79 371.87 458.92 378.94 458.16 386.06 458.24 393.13 457.21 400.25 457.67 407.37 457.05 414.46 457.69 421.57 458.02 428.61 459.01 435.64 460.07 442.76 460.56 449.72 462.07 456.55 464.1 463.6 465.15 470.36 467.38 477.32 468.84 484.21 470.62 490.81 473.31 497.51 475.67 504.22 477.99 510.98 480.24 517.34 483.46 523.92 486.16 530.16 489.57 536.56 492.65 543.09 496.07"/><polygon class="c" points="543.09 496.07 537.45 500.76 532.53 505.81 527.06 510.25 522.06 515.25 516.24 519.25 511.01 524.04 505.13 527.95 498.93 531.35 493.33 535.68 487.32 539.39 481.16 542.83 474.9 546.1 468.5 549.1 461.99 551.83 455.34 554.2 448.82 556.93 442.05 558.94 435.1 560.23 428.33 562.3 421.38 563.55 414.32 563.97 407.3 564.67 400.25 564.53 393.2 564.67 386.17 564.19 379.11 563.73 372.16 562.41 365.43 560.16 358.43 559.07 351.81 556.59 345.23 554.05 338.46 551.97 332.13 548.85 325.74 545.87 319.43 542.7 313.11 539.54 307.34 535.43 301.5 531.49 295.64 527.57 289.56 523.94 284.26 519.25 278.83 514.76 272.94 510.82 268.13 505.62 262.91 500.89 257.95 496.14 263.8 492.36 270.15 489.18 276.47 485.91 283.13 483.37 289.85 481.05 296.32 478.1 303.01 475.73 309.69 473.32 316.4 470.98 323.26 469.12 329.93 466.59 336.88 465.05 343.8 463.45 350.74 461.87 357.78 460.83 364.81 459.79 371.87 458.92 378.94 458.16 386.06 458.24 393.13 457.21 400.25 457.67 407.37 457.05 414.46 457.69 421.57 458.02 428.61 459.01 435.64 460.07 442.76 460.56 449.72 462.07 456.55 464.1 463.6 465.15 470.36 467.38 477.32 468.84 484.21 470.62 490.81 473.31 497.51 475.67 504.22 477.99 510.98 480.24 517.34 483.46 523.92 486.16 530.16 489.57 536.56 492.65 543.09 496.07"/><g class="d"><polygon class="c" points="511.72 530.11 510.88 522.6 508.88 515.33 506 508.32 501.33 502.36 496.05 496.98 489.9 492.61 483.07 489.39 475.82 487.15 468.25 486.87 460.73 487.44 453.55 489.72 446.87 493.08 440.34 496.86 435.3 502.47 431.11 508.67 427.75 515.37 425.71 522.61 425.15 530.11 425.6 537.63 427.29 545.02 430.39 551.97 434.89 558.11 440.55 563.13 446.49 567.81 453.53 570.55 460.8 572.37 468.25 573.32 475.73 572.5 483.16 571.08 490 567.79 496.04 563.23 501.46 557.98 505.3 551.5 509.1 544.98 510.92 537.64 511.72 530.11"/><polygon points="487.24 530.11 485.7 523.11 481.81 517.09 476.01 512.69 468.79 511.38 461.58 512.71 456 517.32 451.56 522.98 450.58 530.11 451.24 537.38 456.04 542.87 461.6 547.47 468.79 549.08 475.81 547.08 482.2 543.53 485.54 537.05 487.24 530.11"/><polygon class="c" points="487.24 530.11 485.7 523.11 481.81 517.09 476.01 512.69 468.79 511.38 461.58 512.71 456 517.32 451.56 522.98 450.58 530.11 451.24 537.38 456.04 542.87 461.6 547.47 468.79 549.08 475.81 547.08 482.2 543.53 485.54 537.05 487.24 530.11"/><polygon class="c" points="374.45 530.11 373.51 522.66 371.98 515.29 368.39 508.67 364.02 502.62 359.17 496.85 352.83 492.73 346.04 489.48 338.73 487.7 331.25 486.38 323.75 487.56 316.48 489.54 309.73 492.85 303.34 496.85 298.15 502.34 293.51 508.32 290.53 515.29 288.24 522.53 287.74 530.11 288.88 537.59 290.27 545.03 293.89 551.68 298.1 557.93 303.36 563.35 309.83 567.21 316.6 570.37 323.7 572.93 331.25 573.85 338.72 572.48 346.17 571.1 352.98 567.75 358.75 562.89 364.03 557.62 368.37 551.54 371.47 544.75 373.83 537.62 374.45 530.11"/><polygon points="350 530.11 348.66 523.13 344.77 517.14 338.69 513.46 331.79 511.12 324.54 512.62 318.4 516.72 314.7 523.03 312.91 530.11 314.7 537.19 319.03 542.87 324.65 547.34 331.79 548.38 338.7 546.79 345.13 543.46 348.9 537.2 350 530.11"/><polygon class="c" points="350 530.11 348.66 523.13 344.77 517.14 338.69 513.46 331.79 511.12 324.54 512.62 318.4 516.72 314.7 523.03 312.91 530.11 314.7 537.19 319.03 542.87 324.65 547.34 331.79 548.38 338.7 546.79 345.13 543.46 348.9 537.2 350 530.11"/></g><polyline class="b" points="400.25 428.62 407.36 428.67 414.44 429.36 421.54 429.64 428.63 430.17 435.74 430.7 442.63 432.66 449.76 433.13 456.57 435.31 463.61 436.39 470.44 438.36 477.36 440.02 484.25 441.8 490.76 444.78 497.5 446.99 504.21 449.35 510.77 452.07 517.48 454.46 524 457.31 530.13 460.95 536.56 463.96 542.95 467.09"/><polyline class="c" points="400.25 428.62 407.36 428.67 414.44 429.36 421.54 429.64 428.63 430.17 435.74 430.7 442.63 432.66 449.76 433.13 456.57 435.31 463.61 436.39 470.44 438.36 477.36 440.02 484.25 441.8 490.76 444.78 497.5 446.99 504.21 449.35 510.77 452.07 517.48 454.46 524 457.31 530.13 460.95 536.56 463.96 542.95 467.09"/><polyline class="b" points="257.6 467.18 264.05 464.14 270.1 460.38 276.79 457.91 283.29 455.06 289.81 452.27 296.42 449.69 302.97 446.92 309.54 444.2 316.39 442.27 323.06 439.76 329.93 437.9 337.01 436.93 343.86 435.04 350.84 433.73 357.86 432.67 364.78 430.92 371.85 430.07 378.93 429.4 386.04 429.16 393.14 428.7 400.25 429.1"/><polyline class="c" points="257.6 467.18 264.05 464.14 270.1 460.38 276.79 457.91 283.29 455.06 289.81 452.27 296.42 449.69 302.97 446.92 309.54 444.2 316.39 442.27 323.06 439.76 329.93 437.9 337.01 436.93 343.86 435.04 350.84 433.73 357.86 432.67 364.78 430.92 371.85 430.07 378.93 429.4 386.04 429.16 393.14 428.7 400.25 429.1"/><polyline class="b" points="276.17 202.42 282.93 204.83 289.91 206.47 296.98 207.69 303.98 209.22 311 210.65 318.04 211.93 325.13 212.94 332.13 214.63 339.32 214.88 346.41 215.93 353.5 217.02 360.67 217.33 367.82 217.69 374.97 218.18 382.11 218.71 389.26 219.48 396.43 219.26 403.6 218.91 410.76 218.78 417.92 218.68 425.11 219.16 432.26 218.57 439.42 218.13 446.57 217.55 453.63 216.16 460.74 215.32 467.94 215.07 474.93 213.38 482.05 212.49 489.07 211.04 496.08 209.58 503.15 208.34 510.13 206.66 516.96 204.44 524.03 203.09"/><polyline class="c" points="276.17 202.42 282.93 204.83 289.91 206.47 296.98 207.69 303.98 209.22 311 210.65 318.04 211.93 325.13 212.94 332.13 214.63 339.32 214.88 346.41 215.93 353.5 217.02 360.67 217.33 367.82 217.69 374.97 218.18 382.11 218.71 389.26 219.48 396.43 219.26 403.6 218.91 410.76 218.78 417.92 218.68 425.11 219.16 432.26 218.57 439.42 218.13 446.57 217.55 453.63 216.16 460.74 215.32 467.94 215.07 474.93 213.38 482.05 212.49 489.07 211.04 496.08 209.58 503.15 208.34 510.13 206.66 516.96 204.44 524.03 203.09"/><polyline class="b" points="265.8 303.3 272.75 304.85 279.7 306.38 286.61 308.18 293.75 308.7 300.66 310.59 307.76 311.25 314.82 312.18 321.81 313.69 328.87 314.72 335.98 315.25 343.07 315.98 350.16 316.71 357.3 316.9 364.42 317.2 371.54 317.35 378.65 317.7 385.76 317.94 392.88 318.01 400 318.63 407.12 318.44 414.24 318.26 421.37 318.26 428.49 318.04 435.59 317.38 442.71 317.07 449.81 316.57 456.95 316.37 464.02 315.53 471.06 314.29 478.19 313.91 485.26 312.98 492.3 311.86 499.28 310.39 506.31 309.2 513.33 307.96 520.36 306.73 527.32 305.18 534.18 303.22"/><polyline class="c" points="265.8 303.3 272.75 304.85 279.7 306.38 286.61 308.18 293.75 308.7 300.66 310.59 307.76 311.25 314.82 312.18 321.81 313.69 328.87 314.72 335.98 315.25 343.07 315.98 350.16 316.71 357.3 316.9 364.42 317.2 371.54 317.35 378.65 317.7 385.76 317.94 392.88 318.01 400 318.63 407.12 318.44 414.24 318.26 421.37 318.26 428.49 318.04 435.59 317.38 442.71 317.07 449.81 316.57 456.95 316.37 464.02 315.53 471.06 314.29 478.19 313.91 485.26 312.98 492.3 311.86 499.28 310.39 506.31 309.2 513.33 307.96 520.36 306.73 527.32 305.18 534.18 303.22"/><polyline class="b" points="306.59 210.32 310.38 216.19 313.16 222.65 316.01 229.13 317.73 236 318.47 243.04 318.75 250.07 319.39 257.09 319.36 264.15 318.65 271.19 317.08 278.09 315.06 284.85 312.9 291.56 310.21 298.06 307.65 304.63 304.08 310.72"/><polyline class="c" points="306.59 210.32 310.38 216.19 313.16 222.65 316.01 229.13 317.73 236 318.47 243.04 318.75 250.07 319.39 257.09 319.36 264.15 318.65 271.19 317.08 278.09 315.06 284.85 312.9 291.56 310.21 298.06 307.65 304.63 304.08 310.72"/><polyline class="b" points="340.88 215.56 343.77 222.26 346.17 229.2 347.74 236.37 348.92 243.61 350.28 250.84 350.34 258.2 350.31 265.54 349.53 272.83 349.34 280.19 347.63 287.34 346.62 294.64 343.71 301.44 342.06 308.63 339.11 315.36"/><polyline class="c" points="340.88 215.56 343.77 222.26 346.17 229.2 347.74 236.37 348.92 243.61 350.28 250.84 350.34 258.2 350.31 265.54 349.53 272.83 349.34 280.19 347.63 287.34 346.62 294.64 343.71 301.44 342.06 308.63 339.11 315.36"/><polyline class="b" points="374.9 218.71 377.15 225.58 379.52 232.5 380.26 239.78 381.98 246.9 381.89 254.22 382.56 261.48 382.84 268.78 381.81 276.02 381.76 283.35 380.57 290.55 378.93 297.66 377.42 304.81 374.98 311.7 372.52 318.58"/><polyline class="c" points="374.9 218.71 377.15 225.58 379.52 232.5 380.26 239.78 381.98 246.9 381.89 254.22 382.56 261.48 382.84 268.78 381.81 276.02 381.76 283.35 380.57 290.55 378.93 297.66 377.42 304.81 374.98 311.7 372.52 318.58"/><polygon class="b" points="154.67 582.62 154.86 589.56 154.27 596.75 154.85 603.95 154.64 611.16 154.73 618.22 161.16 621 167.5 624.3 173.99 627.31 180.37 630.55 186.79 633.68 193.42 636.4 199.6 640.06 206.27 642.67 212.47 646.29 219.32 648.52 225.52 652.12 231.87 655.42 238.42 658.31 245.04 661.03 251.53 664.04 258.05 666.96 264.43 670.22 270.91 673.27 277.39 676.1 284.5 676.49 291.69 676.92 298.89 676.36 306.08 676.36 313.28 676.6 320.47 676.4 327.66 676.06 334.86 676.72 342.05 676.04 349.24 676.31 356.44 676.48 363.63 676.13 370.83 676.47 378.02 676.9 385.22 676.05 392.41 676.9 399.61 676.27 406.81 676.09 414 676.23 421.2 676.16 428.4 676.48 435.6 676.24 442.8 676.53 450 676.42 457.19 676.48 464.39 676.19 471.59 676.89 478.79 676.46 485.99 676.25 493.19 676.56 500.38 676.24 507.58 676.27 514.79 676.45 522.05 676.74 528.25 673.01 534.79 670.12 541.27 667.12 547.83 664.27 554.32 661.29 560.65 657.95 567.24 655.16 573.52 651.73 580.11 648.94 586.57 645.91 593.08 642.95 599.38 639.56 605.62 636.05 612.25 633.34 618.71 630.29 625.15 627.17 631.66 624.23 638.11 621.12 644.37 617.81 644.61 610.79 644.12 603.69 644.18 596.58 644.48 589.47 644.41 582.5 638.14 585.35 631.66 588.06 625.12 590.66 618.81 593.75 612.31 596.43 605.93 599.38 599.62 602.49 592.98 604.85 586.53 607.63 580.42 611.18 573.82 613.63 567.63 616.99 560.92 619.21 554.55 622.18 548.12 625.02 541.67 627.81 535.16 630.49 528.74 633.37 522.45 636.58 515.22 636.88 508 636.71 500.78 636.15 493.56 636.01 486.35 636.25 479.13 636.15 471.92 636.78 464.71 636.37 457.49 636.74 450.28 636.61 443.06 636.04 435.84 636.19 428.63 636.95 421.41 636.8 414.19 636.49 406.98 637 399.76 636.76 392.54 636.22 385.32 636.88 378.1 636.1 370.88 636.14 363.66 636.67 356.44 636.99 349.22 636.11 342 636.73 334.78 636.61 327.56 636.99 320.34 636.95 313.12 636.77 305.9 636.11 298.68 636.05 291.46 636.29 284.23 636.38 276.9 636.95 270.51 633.76 264.17 630.68 257.53 628.26 251.11 625.37 244.58 622.69 238.49 619.05 231.82 616.7 225.46 613.66 219 610.82 212.63 607.82 206.19 604.97 199.48 602.71 193.34 599.16 186.59 597.01 180.43 593.49 173.76 591.15 167.51 587.85 160.95 585.23 154.67 582.62"/><polygon class="c" points="154.67 582.62 154.86 589.56 154.27 596.75 154.85 603.95 154.64 611.16 154.73 618.22 161.16 621 167.5 624.3 173.99 627.31 180.37 630.55 186.79 633.68 193.42 636.4 199.6 640.06 206.27 642.67 212.47 646.29 219.32 648.52 225.52 652.12 231.87 655.42 238.42 658.31 245.04 661.03 251.53 664.04 258.05 666.96 264.43 670.22 270.91 673.27 277.39 676.1 284.5 676.49 291.69 676.92 298.89 676.36 306.08 676.36 313.28 676.6 320.47 676.4 327.66 676.06 334.86 676.72 342.05 676.04 349.24 676.31 356.44 676.48 363.63 676.13 370.83 676.47 378.02 676.9 385.22 676.05 392.41 676.9 399.61 676.27 406.81 676.09 414 676.23 421.2 676.16 428.4 676.48 435.6 676.24 442.8 676.53 450 676.42 457.19 676.48 464.39 676.19 471.59 676.89 478.79 676.46 485.99 676.25 493.19 676.56 500.38 676.24 507.58 676.27 514.79 676.45 522.05 676.74 528.25 673.01 534.79 670.12 541.27 667.12 547.83 664.27 554.32 661.29 560.65 657.95 567.24 655.16 573.52 651.73 580.11 648.94 586.57 645.91 593.08 642.95 599.38 639.56 605.62 636.05 612.25 633.34 618.71 630.29 625.15 627.17 631.66 624.23 638.11 621.12 644.37 617.81 644.61 610.79 644.12 603.69 644.18 596.58 644.48 589.47 644.41 582.5 638.14 585.35 631.66 588.06 625.12 590.66 618.81 593.75 612.31 596.43 605.93 599.38 599.62 602.49 592.98 604.85 586.53 607.63 580.42 611.18 573.82 613.63 567.63 616.99 560.92 619.21 554.55 622.18 548.12 625.02 541.67 627.81 535.16 630.49 528.74 633.37 522.45 636.58 515.22 636.88 508 636.71 500.78 636.15 493.56 636.01 486.35 636.25 479.13 636.15 471.92 636.78 464.71 636.37 457.49 636.74 450.28 636.61 443.06 636.04 435.84 636.19 428.63 636.95 421.41 636.8 414.19 636.49 406.98 637 399.76 636.76 392.54 636.22 385.32 636.88 378.1 636.1 370.88 636.14 363.66 636.67 356.44 636.99 349.22 636.11 342 636.73 334.78 636.61 327.56 636.99 320.34 636.95 313.12 636.77 305.9 636.11 298.68 636.05 291.46 636.29 284.23 636.38 276.9 636.95 270.51 633.76 264.17 630.68 257.53 628.26 251.11 625.37 244.58 622.69 238.49 619.05 231.82 616.7 225.46 613.66 219 610.82 212.63 607.82 206.19 604.97 199.48 602.71 193.34 599.16 186.59 597.01 180.43 593.49 173.76 591.15 167.51 587.85 160.95 585.23 154.67 582.62"/><polyline class="b" points="492.74 210.07 489.52 216.3 486.45 222.63 484.39 229.35 482.83 236.19 480.74 242.97 480.26 250.03 480.45 257.09 480.54 264.14 481.12 271.18 483.11 277.98 484.53 284.88 486.62 291.61 489.2 298.18 491.94 304.67 494.93 311.08"/><polyline class="c" points="492.74 210.07 489.52 216.3 486.45 222.63 484.39 229.35 482.83 236.19 480.74 242.97 480.26 250.03 480.45 257.09 480.54 264.14 481.12 271.18 483.11 277.98 484.53 284.88 486.62 291.61 489.2 298.18 491.94 304.67 494.93 311.08"/><polyline class="b" points="458.76 215.55 455.85 222.25 453.33 229.15 452.31 236.44 451.08 243.65 449.53 250.85 449.32 258.2 449.43 265.54 449.63 272.88 450.77 280.13 452.22 287.31 453.15 294.62 456 301.43 457.92 308.51 460.58 315.36"/><polyline class="c" points="458.76 215.55 455.85 222.25 453.33 229.15 452.31 236.44 451.08 243.65 449.53 250.85 449.32 258.2 449.43 265.54 449.63 272.88 450.77 280.13 452.22 287.31 453.15 294.62 456 301.43 457.92 308.51 460.58 315.36"/><polyline class="b" points="424.5 218.6 422.48 225.57 420.92 232.66 419.55 239.8 418.02 246.93 417.5 254.2 417.47 261.49 417.26 268.76 417.28 276.07 418.59 283.26 419.65 290.46 421.22 297.56 422.56 304.73 425.27 311.51 427.46 318.45"/><polyline class="c" points="424.5 218.6 422.48 225.57 420.92 232.66 419.55 239.8 418.02 246.93 417.5 254.2 417.47 261.49 417.26 268.76 417.28 276.07 418.59 283.26 419.65 290.46 421.22 297.56 422.56 304.73 425.27 311.51 427.46 318.45"/><polyline class="c" points="207.93 457.06 214.44 453.9 220.47 449.92 227.22 447.28 233.29 443.3 240.07 440.77 246.53 437.57 253.23 434.89 259.79 431.87 266.52 429.28 273.31 426.84 280.16 424.6 287.04 422.42 294.04 420.68 300.83 418.23 307.7 416 314.83 414.79 321.85 413.17 328.85 411.47 335.85 409.69 342.97 408.58 349.99 406.85 357.25 406.64 364.3 404.91 371.52 404.65 378.65 403.42 385.86 402.98 393.09 403.38 400.29 403.1 407.49 403.08 414.71 402.62 421.89 403.4 429.12 403.25 436.29 403.99 443.48 404.53 450.69 405 457.8 406.26 464.9 407.54 471.93 409.14 479.07 410.22 486.07 411.92 493.04 413.76 499.96 415.76 506.96 417.52 513.97 419.3 520.72 421.85 527.43 424.53 534.14 427.16 540.91 429.68 547.25 433.19 554.04 435.7 560.14 439.62 566.68 442.67 572.93 446.27 579.07 450.06 585.55 453.27 591.76 456.96"/><polygon points="249.81 318.42 245.91 324.91 241.35 330.95 237.78 337.64 233.9 344.13 229.45 350.25 225.64 356.79 221.66 363.22 217.45 369.46 216.02 376.17 214.54 382.91 213.93 389.8 212.4 396.54 211.36 403.36 210.19 410.15 208.96 416.94 207.84 423.75 207.08 430.63 205.76 437.35 206.9 443.6 209.15 449.59 210.86 455.47 217.24 452.87 223.8 450.11 230.43 447.5 236.83 444.39 243.29 441.41 250.18 439.41 256.73 436.62 263.06 433.32 269.62 430.57 276.07 427.54 282.8 425.16 289.53 422.78 295.82 419.28 302.71 418.2 309.6 417.24 316.27 415.28 323.01 413.63 329.88 412.64 336.69 411.31 343.36 409.3 350.3 408.63 357.01 406.86 363.85 405.65 370.61 404.03 377.43 402.87 384.8 403.09 392.19 403.32 399.56 403.8 406.91 404.6 414.29 404.96 421.67 405.33 428.99 406.46 436.38 406.75 443.73 407.57 451.16 407.18 458.52 407.87 465.87 408.89 473.24 409.14 480.33 411.3 487.33 413.76 494.2 416.56 501.13 419.19 507.99 422.04 514.91 424.69 521.81 427.41 528.77 429.96 535.97 431.88 542.87 434.61 549.92 436.9 556.67 440.05 563.77 442.25 570.66 445 576.59 447.73 582.54 450.45 588.38 453.42 594.34 455.58 593.67 448.31 593.92 440.79 593.43 433.31 593.31 425.81 592.32 418.35 592.44 410.84 592.24 403.34 591.42 395.88 588.75 388.99 585.2 382.46 582.56 375.55 580.04 368.57 577.18 361.75 573.63 355.22 571.2 348.19 568.03 341.5 563.47 335.68 558.43 330.26 553.53 324.73 548.89 318.96 543.93 313.46 539.1 308.11 532.17 309.02 524.97 309.46 517.99 311.37 510.88 312.38 503.78 313.49 496.6 314.12 489.47 315.04 482.51 315.78 475.51 315.72 468.5 315.66 461.52 316.51 454.52 316.37 447.53 316.68 440.52 316.53 433.55 317.7 426.55 317.89 419.56 318.12 412.56 318.25 405.53 317.99 398.54 318.57 391.29 318.16 384.13 316.82 376.89 316.43 369.64 316.23 362.46 315.09 355.18 315.15 347.98 314.24 340.78 313.33 333.52 313.21 326.33 312.16 319.12 311.38 311.9 310.5 304.32 310.48 296.77 310.06 289.24 309.28 281.65 309.32 274.1 308.94 266.54 308.4 259.13 308.05 254.51 313.16 249.81 318.42"/><polygon class="b" points="228 399.38 223.24 398.12 222.81 396.83 221.76 395.95 221.72 394.61 221.79 393.36 221.19 392 222.06 390.9 222.34 389.58 223.11 388.48 224.65 388.35 225.35 386.96 226.75 387.09 229.23 387.16 230.5 387.34 231.42 388.25 232.41 388.96 233.44 389.73 233.92 390.91 234.43 392.08 234.38 393.36 234.69 394.7 234.25 395.95 233.1 396.77 232.44 397.8 231.41 398.47 230.66 399.77 229.34 400.08 228 399.38"/><path class="b" d="M263.54,383.51l5-8.06,0-.09,8.27,5.19-.7.16-4.55,8.13-.18-.72-1.38.74v-.78Zm264,4-5-8.05-.07,0,8.32-5.13-.16.7,5.29,7.68-.82-.17L529,387.87v-.78ZM306.37,375.05l5.52-7.69,0-.1,7.89,5.74-.72.11-5.11,7.8,0-.73-.87.66v-.78Zm178.88,4.26-5.58-7.57h0l7.84-5.86-.09.71,5.95,7.18-1-.11L486,379.53v-.78Zm-135.8-9.77,6.3-7.29.25-.1v-.08l-.18.72,7.33,5.63-.78.06-5.66,7.28-.15-.77-.56,0v.7Zm93.4,4.91.06.42-6.49-7.21h-.06l7.45-5.75.2-.72v.74l-.15-.59,5.44,7.17h-.2L443,374.84v-.47Zm-49.67-7.66,6.48-6.72,0-.1,7,6.61H406l-6,6.84v-.93Z"/><polygon class="b" points="571 400.25 569.8 399.38 568.65 399.03 567.2 399.06 566.38 397.98 565.65 396.94 564.7 395.98 564.59 394.64 564.04 393.37 564.44 392.05 564.65 390.73 565.22 389.51 566.57 388.94 567.33 387.87 568.39 387.07 569.69 386.81 572.21 387.27 573.61 387.07 574.57 388.03 575.91 388.46 576.63 389.61 576.62 391.04 577.17 392.13 577.46 393.37 577.51 394.66 577.25 395.95 576.66 397.14 575.52 397.88 574.36 398.4 573.38 399.1 572.36 400.2 571 400.25"/><polyline class="b" points="399.86 564 399.44 571.4 399.9 578.8 399.29 586.2 399.47 593.6 399.24 601"/><polyline class="c" points="399.86 564 399.44 571.4 399.9 578.8 399.29 586.2 399.47 593.6 399.24 601"/><polyline class="b" points="271.81 509.23 265.83 513.25 260.78 518.38 254.72 522.31 249.63 527.41 244 531.85"/><polyline class="c" points="271.81 509.23 265.83 513.25 260.78 518.38 254.72 522.31 249.63 527.41 244 531.85"/><polyline class="b" points="309.87 536.75 305.93 542.94 301.71 548.91 297.57 554.96 292.84 560.6 288.69 566.65"/><polyline class="c" points="309.87 536.75 305.93 542.94 301.71 548.91 297.57 554.96 292.84 560.6 288.69 566.65"/><polyline class="b" points="354.71 557.65 351.45 564.53 348.89 571.67 346.34 578.82 343.84 585.99 341.02 593.04"/><polyline class="c" points="354.71 557.65 351.45 564.53 348.89 571.67 346.34 578.82 343.84 585.99 341.02 593.04"/><polyline class="b" points="399.84 564 399.25 571.4 399.54 578.8 399.82 586.2 399.2 593.6 399.36 601"/><polyline class="c" points="399.84 564 399.25 571.4 399.54 578.8 399.82 586.2 399.2 593.6 399.36 601"/><polyline class="b" points="527.32 508.87 532.84 513.45 538.37 518 543.99 522.45 549.38 527.19 554.96 531.69"/><polyline class="c" points="527.32 508.87 532.84 513.45 538.37 518 543.99 522.45 549.38 527.19 554.96 531.69"/><polyline class="b" points="488.99 536.73 492.82 542.99 497.52 548.63 501.2 555 505.62 560.86 510.07 566.69"/><polyline class="c" points="488.99 536.73 492.82 542.99 497.52 548.63 501.2 555 505.62 560.86 510.07 566.69"/><polyline class="b" points="444.69 557.45 447.1 564.64 449.33 571.89 452.56 578.79 454.81 586.05 457.68 593.09"/><polyline class="c" points="444.69 557.45 447.1 564.64 449.33 571.89 452.56 578.79 454.81 586.05 457.68 593.09"/><polyline class="b" points="277.55 676.86 277.32 670.2 276.74 663.54 276.96 656.88 276.62 650.21 277.05 643.53 276.67 636.87"/><polyline class="c" points="277.55 676.86 277.32 670.2 276.74 663.54 276.96 656.88 276.62 650.21 277.05 643.53 276.67 636.87"/><polygon points="521.93 677.23 522.07 670.42 521.81 663.73 521.93 657.05 522.7 650.37 522.64 643.68 522.21 636.83 528.88 634.17 535.25 631.17 541.71 628.39 548.04 625.31 554.57 622.67 561.03 619.87 567.45 616.99 573.93 614.23 580.08 610.75 586.82 608.6 592.91 604.98 599.69 602.91 605.91 599.59 612.25 596.5 618.63 593.54 625.12 590.8 631.84 588.57 638.23 585.6 644.25 582.73 644.09 589.56 644.45 596.75 644.04 603.95 644.91 611.16 644.34 618.26 638.12 621.58 631.51 624.33 624.97 627.22 618.75 630.79 612.21 633.69 605.86 636.98 599.31 639.84 593.13 643.51 586.43 646.05 580 649.17 573.76 652.7 567.07 655.28 560.81 658.76 554.29 661.69 547.99 665.11 541.31 667.7 535.09 671.27 528.41 673.91 521.93 677.23"/><polygon class="c" points="521.93 677.23 522.07 670.42 521.81 663.73 521.93 657.05 522.7 650.37 522.64 643.68 522.21 636.83 528.88 634.17 535.25 631.17 541.71 628.39 548.04 625.31 554.57 622.67 561.03 619.87 567.45 616.99 573.93 614.23 580.08 610.75 586.82 608.6 592.91 604.98 599.69 602.91 605.91 599.59 612.25 596.5 618.63 593.54 625.12 590.8 631.84 588.57 638.23 585.6 644.25 582.73 644.09 589.56 644.45 596.75 644.04 603.95 644.91 611.16 644.34 618.26 638.12 621.58 631.51 624.33 624.97 627.22 618.75 630.79 612.21 633.69 605.86 636.98 599.31 639.84 593.13 643.51 586.43 646.05 580 649.17 573.76 652.7 567.07 655.28 560.81 658.76 554.29 661.69 547.99 665.11 541.31 667.7 535.09 671.27 528.41 673.91 521.93 677.23"/></svg>