<svg xmlns="http://www.w3.org/2000/svg" viewBox="0 0 800 800"><defs><style>.a{fill:none;stroke:#000;stroke-linejoin:bevel;stroke-width:13px;}.b{fill:#fff;}</style></defs><title>kiln-3</title><polygon class="a" points="145.74 636.67 152.37 638.02 159.49 639.2 166.47 641.08 173.57 642.29 180.74 643.22 187.73 645.03 194.85 646.19 201.85 647.97 208.86 649.66 215.99 650.78 223.13 651.84 230.06 653.93 237.13 655.36 244.25 656.5 251.35 657.76 258.39 659.35 265.41 661.03 272.61 661.76 279.74 662.92 286.73 664.72 293.7 666.66 300.92 667.29 307.93 669.02 315.02 670.34 322.05 671.98 329.18 673.09 336.17 674.89 343.31 675.99 350.46 676.97 357.38 679.16 364.49 680.35 371.61 681.49 378.69 682.88 385.7 684.59 392.75 686.11 399.93 686.97 406.86 689.1 413.99 690.17 421.09 691.46 428.24 692.48 435.26 694.17 442.37 695.38 449.38 697.09 456.42 698.68 463.48 700.15 470.7 700.85 477.64 702.95 484.69 704.46 491.9 705.2 498.89 707.02 505.98 708.38 513.04 709.86 520.19 710.88 527.24 712.4 534.2 714.41 541.35 715.44 548.51 716.44 555.62 717.74 562.65 719.72 566.42 713.53 571.16 708.13 575.16 702.18 578.95 696.09 583.25 690.37 587.75 684.78 591.78 678.86 595.94 673.04 599.91 667.07 604.56 661.6 608.4 655.54 613.19 650.16 617.01 644.1 621.01 638.16 625.65 632.67 629.9 626.91 633.44 620.63 638.21 615.24 642.22 609.3 646.69 603.69 650.37 597.5 654.56 591.87 647.49 591.94 640.34 592.81 633.19 593.73 625.98 593.92 618.88 595.39 611.72 596.07 604.46 595.73 597.33 596.81 590.18 597.78 582.95 597.67 575.83 598.91 568.64 599.4 561.46 599.85 554.28 600.43 547.15 601.58 539.94 601.82 532.8 602.85 525.61 603.22 518.47 604.27 511.3 604.91 504.07 604.92 496.91 605.66 489.75 606.41 482.56 606.89 475.4 607.7 468.22 608.22 461.01 608.45 453.91 609.97 446.67 609.86 439.52 610.76 432.36 611.5 425.14 611.68 418.02 612.93 410.83 613.32 403.67 614.21 396.47 614.49 389.3 615.25 382.15 616.17 374.96 616.61 367.8 617.36 360.63 618.07 353.38 617.87 346.23 618.73 339.11 619.95 331.88 619.97 324.69 620.43 317.59 621.85 310.38 622.05 303.19 622.54 296.03 623.32 288.86 624 281.72 625.03 274.51 625.24 267.38 626.37 260.17 626.67 252.95 626.79 245.81 627.81 238.62 628.3 231.48 629.36 224.3 629.99 217.14 630.8 209.92 631.01 202.77 631.91 195.56 632.19 188.37 632.69 181.19 633.27 174.03 634.16 166.83 634.57 159.66 635.26 152.48 636.02 145.74 636.67"/><polygon class="b" points="145.33 606.65 152.38 607.96 159.37 609.78 166.57 610.54 173.66 611.85 180.57 614.05 187.77 614.81 194.75 616.68 201.78 618.32 208.97 619.12 216.01 620.68 223.15 621.72 230.06 623.94 237.29 624.55 244.25 626.52 251.37 627.7 258.47 628.97 265.48 630.67 272.65 631.58 279.73 632.97 286.75 634.64 293.79 636.19 300.78 638.03 307.85 639.44 315.09 640 321.99 642.28 329.1 643.49 336.27 644.38 343.39 645.55 350.29 647.87 357.39 649.14 364.57 649.95 371.58 651.64 378.61 653.26 385.71 654.56 392.88 655.45 399.9 657.09 406.97 658.52 413.98 660.26 421.06 661.6 428.15 662.9 435.3 663.98 442.3 665.72 449.31 667.48 456.4 668.8 463.48 670.15 470.65 671.1 477.65 672.86 484.74 674.23 491.83 675.55 498.83 677.36 505.99 678.29 513.1 679.55 520.09 681.37 527.29 682.15 534.29 683.94 541.39 685.23 548.4 687 555.6 687.81 562.46 689.23 566.47 683.57 570.68 677.78 575.47 672.4 579.33 666.37 583.14 660.28 587.45 654.57 592.09 649.09 595.83 642.96 600.58 637.55 604.38 631.46 608.27 625.45 613.07 620.07 617.38 614.36 621.17 608.27 625.77 602.76 629.89 596.9 633.77 590.87 638.27 585.28 642.29 579.35 646.12 573.28 650.78 567.8 654.8 561.74 647.51 562.2 640.37 563.13 633.16 563.33 626.06 564.8 618.82 564.69 611.64 565.22 604.47 565.86 597.31 566.65 590.15 567.45 582.98 568.01 575.84 568.99 568.66 569.54 561.43 569.56 554.29 570.59 547.1 571.05 539.92 571.58 532.78 572.57 525.58 572.91 518.47 574.25 511.27 574.56 504.08 575.08 496.93 575.94 489.73 576.25 482.56 576.98 475.35 577.17 468.25 578.59 461 578.42 453.86 579.39 446.66 579.75 439.52 580.77 432.32 581.12 425.19 582.23 418.02 582.94 410.82 583.23 403.68 584.26 396.44 584.21 389.31 585.29 382.15 586.13 374.95 586.44 367.81 587.52 360.64 588.18 353.42 588.37 346.24 588.91 339.12 590 331.9 590.16 324.69 590.37 317.57 591.63 310.4 592.31 303.18 592.41 296.04 593.45 288.85 593.88 281.67 594.43 274.51 595.3 267.3 595.5 260.14 596.31 253.01 597.52 245.83 598.12 238.59 597.99 231.47 599.25 224.24 599.31 217.06 599.91 209.93 601.17 202.78 602.01 195.57 602.27 188.37 602.64 181.2 603.38 174.01 603.95 166.84 604.61 159.67 605.41 152.51 606.32 145.33 606.65"/><polygon class="a" points="145.33 606.65 152.38 607.96 159.37 609.78 166.57 610.54 173.66 611.85 180.57 614.05 187.77 614.81 194.75 616.68 201.78 618.32 208.97 619.12 216.01 620.68 223.15 621.72 230.06 623.94 237.29 624.55 244.25 626.52 251.37 627.7 258.47 628.97 265.48 630.67 272.65 631.58 279.73 632.97 286.75 634.64 293.79 636.19 300.78 638.03 307.85 639.44 315.09 640 321.99 642.28 329.1 643.49 336.27 644.38 343.39 645.55 350.29 647.87 357.39 649.14 364.57 649.95 371.58 651.64 378.61 653.26 385.71 654.56 392.88 655.45 399.9 657.09 406.97 658.52 413.98 660.26 421.06 661.6 428.15 662.9 435.3 663.98 442.3 665.72 449.31 667.48 456.4 668.8 463.48 670.15 470.65 671.1 477.65 672.86 484.74 674.23 491.83 675.55 498.83 677.36 505.99 678.29 513.1 679.55 520.09 681.37 527.29 682.15 534.29 683.94 541.39 685.23 548.4 687 555.6 687.81 562.46 689.23 566.47 683.57 570.68 677.78 575.47 672.4 579.33 666.37 583.14 660.28 587.45 654.57 592.09 649.09 595.83 642.96 600.58 637.55 604.38 631.46 608.27 625.45 613.07 620.07 617.38 614.36 621.17 608.27 625.77 602.76 629.89 596.9 633.77 590.87 638.27 585.28 642.29 579.35 646.12 573.28 650.78 567.8 654.8 561.74 647.51 562.2 640.37 563.13 633.16 563.33 626.06 564.8 618.82 564.69 611.64 565.22 604.47 565.86 597.31 566.65 590.15 567.45 582.98 568.01 575.84 568.99 568.66 569.54 561.43 569.56 554.29 570.59 547.1 571.05 539.92 571.58 532.78 572.57 525.58 572.91 518.47 574.25 511.27 574.56 504.08 575.08 496.93 575.94 489.73 576.25 482.56 576.98 475.35 577.17 468.25 578.59 461 578.42 453.86 579.39 446.66 579.75 439.52 580.77 432.32 581.12 425.19 582.23 418.02 582.94 410.82 583.23 403.68 584.26 396.44 584.21 389.31 585.29 382.15 586.13 374.95 586.44 367.81 587.52 360.64 588.18 353.42 588.37 346.24 588.91 339.12 590 331.9 590.16 324.69 590.37 317.57 591.63 310.4 592.31 303.18 592.41 296.04 593.45 288.85 593.88 281.67 594.43 274.51 595.3 267.3 595.5 260.14 596.31 253.01 597.52 245.83 598.12 238.59 597.99 231.47 599.25 224.24 599.31 217.06 599.91 209.93 601.17 202.78 602.01 195.57 602.27 188.37 602.64 181.2 603.38 174.01 603.95 166.84 604.61 159.67 605.41 152.51 606.32 145.33 606.65"/><polygon class="b" points="145.51 606.28 145.27 613.77 145.42 621.27 145.76 628.77 145.54 636.24 152.65 637.24 159.6 639.26 166.76 640.23 173.68 642.35 180.9 643 187.9 644.75 195.03 645.84 202.07 647.39 209.16 648.7 216.11 650.66 223.29 651.52 230.26 653.41 237.47 654.14 244.47 655.88 251.44 657.78 258.56 658.91 265.62 660.37 272.61 662.16 279.81 662.91 286.83 664.56 293.84 666.29 301 667.21 308.06 668.67 315.16 669.96 322.2 671.48 329.25 673.01 336.27 674.65 343.45 675.51 350.48 677.12 357.45 679.01 364.69 679.57 371.71 681.19 378.8 682.49 385.81 684.19 392.84 685.8 399.88 687.3 406.98 688.59 414.03 690.09 421.03 691.83 428.11 693.17 435.18 694.6 442.36 695.45 449.33 697.36 456.42 698.69 463.57 699.67 470.64 701.14 477.6 703.08 484.83 703.7 491.81 705.59 498.87 707.08 506.06 707.88 513.13 709.27 520.09 711.26 527.09 713.02 534.19 714.28 541.26 715.72 548.37 716.95 555.39 718.66 562.43 719.26 567.13 714.08 571.1 708.12 575.24 702.29 579.44 696.5 583.36 690.5 587.97 685 591.94 679.05 596.13 673.25 600.5 667.57 603.96 661.25 608.15 655.45 612.72 649.92 616.56 643.87 621 638.25 625.28 632.51 629.61 626.81 633.87 621.06 637.54 614.88 642.34 609.52 646.27 603.53 650.19 597.52 654.9 591.91 654.12 584.41 654.76 577.03 654.09 569.65 654.58 562.07 650.39 568.1 646.09 573.79 641.66 579.39 637.94 585.5 633.47 591.07 629.88 597.27 625 602.54 621.02 608.47 616.57 614.06 612.48 619.91 608.55 625.87 604.79 631.95 600.12 637.38 596.18 643.33 591.71 648.9 588.15 655.13 583.55 660.61 579.11 666.21 575.18 672.17 571.25 678.14 567.02 683.9 562.66 689.43 555.75 687.72 548.58 686.83 541.54 685.26 534.43 684.05 527.42 682.35 520.37 680.87 513.29 679.47 506.25 677.92 499.1 676.92 491.95 675.92 484.98 674.02 477.8 673.11 470.82 671.27 463.69 670.14 456.68 668.43 449.58 667.17 442.48 665.92 435.56 663.75 428.47 662.42 421.37 661.14 414.2 660.24 407.21 658.44 400.06 657.39 393.13 655.31 386.03 654.04 378.99 652.44 371.75 651.88 364.81 649.82 357.74 648.38 350.61 647.3 343.49 646.11 336.52 644.21 329.43 642.92 322.4 641.33 315.33 639.91 308.13 639.15 301.12 637.43 294.13 635.62 287 634.49 279.84 633.51 272.8 631.94 265.76 630.36 258.65 629.13 251.57 627.76 244.54 626.17 237.44 624.85 230.41 623.25 223.27 622.17 216.22 620.6 209.13 619.25 202.07 617.83 195.13 615.7 187.94 614.91 180.95 613.07 173.81 611.97 166.71 610.67 159.66 609.12 152.49 608.17 145.51 606.28"/><polygon class="a" points="145.51 606.28 145.27 613.77 145.42 621.27 145.76 628.77 145.54 636.24 152.65 637.24 159.6 639.26 166.76 640.23 173.68 642.35 180.9 643 187.9 644.75 195.03 645.84 202.07 647.39 209.16 648.7 216.11 650.66 223.29 651.52 230.26 653.41 237.47 654.14 244.47 655.88 251.44 657.78 258.56 658.91 265.62 660.37 272.61 662.16 279.81 662.91 286.83 664.56 293.84 666.29 301 667.21 308.06 668.67 315.16 669.96 322.2 671.48 329.25 673.01 336.27 674.65 343.45 675.51 350.48 677.12 357.45 679.01 364.69 679.57 371.71 681.19 378.8 682.49 385.81 684.19 392.84 685.8 399.88 687.3 406.98 688.59 414.03 690.09 421.03 691.83 428.11 693.17 435.18 694.6 442.36 695.45 449.33 697.36 456.42 698.69 463.57 699.67 470.64 701.14 477.6 703.08 484.83 703.7 491.81 705.59 498.87 707.08 506.06 707.88 513.13 709.27 520.09 711.26 527.09 713.02 534.19 714.28 541.26 715.72 548.37 716.95 555.39 718.66 562.43 719.26 567.13 714.08 571.1 708.12 575.24 702.29 579.44 696.5 583.36 690.5 587.97 685 591.94 679.05 596.13 673.25 600.5 667.57 603.96 661.25 608.15 655.45 612.72 649.92 616.56 643.87 621 638.25 625.28 632.51 629.61 626.81 633.87 621.06 637.54 614.88 642.34 609.52 646.27 603.53 650.19 597.52 654.9 591.91 654.12 584.41 654.76 577.03 654.09 569.65 654.58 562.07 650.39 568.1 646.09 573.79 641.66 579.39 637.94 585.5 633.47 591.07 629.88 597.27 625 602.54 621.02 608.47 616.57 614.06 612.48 619.91 608.55 625.87 604.79 631.95 600.12 637.38 596.18 643.33 591.71 648.9 588.15 655.13 583.55 660.61 579.11 666.21 575.18 672.17 571.25 678.14 567.02 683.9 562.66 689.43 555.75 687.72 548.58 686.83 541.54 685.26 534.43 684.05 527.42 682.35 520.37 680.87 513.29 679.47 506.25 677.92 499.1 676.92 491.95 675.92 484.98 674.02 477.8 673.11 470.82 671.27 463.69 670.14 456.68 668.43 449.58 667.17 442.48 665.92 435.56 663.75 428.47 662.42 421.37 661.14 414.2 660.24 407.21 658.44 400.06 657.39 393.13 655.31 386.03 654.04 378.99 652.44 371.75 651.88 364.81 649.82 357.74 648.38 350.61 647.3 343.49 646.11 336.52 644.21 329.43 642.92 322.4 641.33 315.33 639.91 308.13 639.15 301.12 637.43 294.13 635.62 287 634.49 279.84 633.51 272.8 631.94 265.76 630.36 258.65 629.13 251.57 627.76 244.54 626.17 237.44 624.85 230.41 623.25 223.27 622.17 216.22 620.6 209.13 619.25 202.07 617.83 195.13 615.7 187.94 614.91 180.95 613.07 173.81 611.97 166.71 610.67 159.66 609.12 152.49 608.17 145.51 606.28"/><polygon points="562.53 719.78 562.49 712.32 562.84 704.79 562.58 697.26 563.04 689.84 567.04 684.06 571.03 678.14 574.83 672.08 579.6 666.72 583.82 660.97 587.37 654.73 592.18 649.4 596.4 643.64 600.44 637.75 604.67 631.99 608.97 626.29 613.05 620.43 617.1 614.56 621.43 608.88 625.09 602.71 629.09 596.8 633.74 591.35 637.96 585.59 641.9 579.63 645.83 573.65 650.27 568.04 654.44 562.42 654.38 569.77 654.38 577.27 654.89 584.77 654.38 592.24 650.24 598.01 646.32 603.99 642.36 609.95 637.98 615.6 633.22 620.98 629.33 626.98 625.5 633.03 621.28 638.81 616.8 644.39 612.47 650.08 608.22 655.83 603.97 661.58 600.55 667.92 595.6 673.16 591.94 679.34 587.51 684.96 583.4 690.81 578.98 696.44 575.39 702.66 571.21 708.47 567.06 714.31 562.53 719.78"/><polygon class="a" points="562.53 719.78 562.49 712.32 562.84 704.79 562.58 697.26 563.04 689.84 567.04 684.06 571.03 678.14 574.83 672.08 579.6 666.72 583.82 660.97 587.37 654.73 592.18 649.4 596.4 643.64 600.44 637.75 604.67 631.99 608.97 626.29 613.05 620.43 617.1 614.56 621.43 608.88 625.09 602.71 629.09 596.8 633.74 591.35 637.96 585.59 641.9 579.63 645.83 573.65 650.27 568.04 654.44 562.42 654.38 569.77 654.38 577.27 654.89 584.77 654.38 592.24 650.24 598.01 646.32 603.99 642.36 609.95 637.98 615.6 633.22 620.98 629.33 626.98 625.5 633.03 621.28 638.81 616.8 644.39 612.47 650.08 608.22 655.83 603.97 661.58 600.55 667.92 595.6 673.16 591.94 679.34 587.51 684.96 583.4 690.81 578.98 696.44 575.39 702.66 571.21 708.47 567.06 714.31 562.53 719.78"/><polyline class="b" points="393.29 310.25 391.01 317.29 389.08 324.44 386.72 331.46 384.44 338.51 381.32 345.25 378.82 352.22 375.56 358.88 372.97 365.82 369.88 372.54 367.09 379.4 363.94 386.1 361.07 392.93 357.58 399.46 354.15 406.02 350.5 412.47 347.54 419.28 343.79 425.33 341.04 431.87 338.06 438.33 336.1 445.17 333.84 451.92 332.36 458.87 330.85 465.83 330 472.9 329.43 480 329.52 487.12 330.15 494.42 330.15 501.76 331.15 509.03 333.01 516.13 334.18 523.37 336.65 530.28 339.29 537.1 341.87 543.94 345.21 550.44 348.95 556.71 352.14 563.33 356.48 569.23 360.89 575.07 365.76 580.53 370.48 586.15 375.8 591.19 381.66 595.61 387.47 600.03 393.14 604.7 399.8 607.83 405.87 611.94 412.46 615.13 419.17 618.09 426.21 620.13 433.07 622.69 440.13 624.69 447.37 625.91 454.68 626.45 461.93 627.62 469.26 627.83 476.43 627.73 483.57 627.05 490.71 626.37 497.73 624.9 504.71 623.3 511.62 621.42 518.41 619.16 524.87 616.04 531.49 613.35 537.82 610.02 544.11 606.61 550.18 602.82 555.88 598.47 561.54 594.09 566.68 589.09 571.57 583.88 576.68 578.87 580.96 573.12 585.73 567.75 589.59 561.71 592.67 555.23 596.27 549.05 599.82 542.79 602.43 536.11 604.03 529.09 606.12 522.26 607.83 515.33 609.51 508.35 610.06 501.2 610.63 494.07 610.98 486.92 610.55 479.76 610.4 472.58 608.93 465.54 608.08 458.41 606.01 451.54 603.91 444.71 602.2 437.72 598.94 431.32 596.62 424.49 592.67 418.47 589.53 411.93 585.83 405.7 583.04 398.99 579.18 392.82 576.35 386.14 573.11 379.67 570.32 372.98 567.03 366.51 564.25 359.82 561.32 353.19 559.36 346.18 555.99 339.71 554.4 332.58 551.76 325.84 549.69 318.9 546.5 312.32 544.74 305.28 542.34 298.44 540.65 291.38 539.33 284.24 537.37 277.27 534.92 270.42 533.94 263.21 532.3 256.16 530.79 249.08 528.93 242.06 527.49 234.96 526.93 227.7 525.56 220.59 524.68 213.4 523.9 206.2 522.32 199.1 522.02 191.84 521.62 184.61 520.73 177.42 519.54 170.25 520.01 162.96 518.97 155.76 518.91 148.52 518.77 141.28 518.22 134.04 518.25 126.8 518.27 119.9 518.6 113.01 518.26 106.12 518.76 99.22 518.97 92.32 518.28 85.68 511.41 85.47 504.3 85.42 497.18 85.3 490.05 85.15 482.96 85.62 476.51 89.36 470.75 94.26 464.56 98.54 458.48 102.97 452.13 107.02 446.14 111.61 440.04 116.02 433.38 119.66 427.58 124.48 422.42 129.47 421.98 138.38"/><polyline class="a" points="393.29 310.25 391.01 317.29 389.08 324.44 386.72 331.46 384.44 338.51 381.32 345.25 378.82 352.22 375.56 358.88 372.97 365.82 369.88 372.54 367.09 379.4 363.94 386.1 361.07 392.93 357.58 399.46 354.15 406.02 350.5 412.47 347.54 419.28 343.79 425.33 341.04 431.87 338.06 438.33 336.1 445.17 333.84 451.92 332.36 458.87 330.85 465.83 330 472.9 329.43 480 329.52 487.12 330.15 494.42 330.15 501.76 331.15 509.03 333.01 516.13 334.18 523.37 336.65 530.28 339.29 537.1 341.87 543.94 345.21 550.44 348.95 556.71 352.14 563.33 356.48 569.23 360.89 575.07 365.76 580.53 370.48 586.15 375.8 591.19 381.66 595.61 387.47 600.03 393.14 604.7 399.8 607.83 405.87 611.94 412.46 615.13 419.17 618.09 426.21 620.13 433.07 622.69 440.13 624.69 447.37 625.91 454.68 626.45 461.93 627.62 469.26 627.83 476.43 627.73 483.57 627.05 490.71 626.37 497.73 624.9 504.71 623.3 511.62 621.42 518.41 619.16 524.87 616.04 531.49 613.35 537.82 610.02 544.11 606.61 550.18 602.82 555.88 598.47 561.54 594.09 566.68 589.09 571.57 583.88 576.68 578.87 580.96 573.12 585.73 567.75 589.59 561.71 592.67 555.23 596.27 549.05 599.82 542.79 602.43 536.11 604.03 529.09 606.12 522.26 607.83 515.33 609.51 508.35 610.06 501.2 610.63 494.07 610.98 486.92 610.55 479.76 610.4 472.58 608.93 465.54 608.08 458.41 606.01 451.54 603.91 444.71 602.2 437.72 598.94 431.32 596.62 424.49 592.67 418.47 589.53 411.93 585.83 405.7 583.04 398.99 579.18 392.82 576.35 386.14 573.11 379.67 570.32 372.98 567.03 366.51 564.25 359.82 561.32 353.19 559.36 346.18 555.99 339.71 554.4 332.58 551.76 325.84 549.69 318.9 546.5 312.32 544.74 305.28 542.34 298.44 540.65 291.38 539.33 284.24 537.37 277.27 534.92 270.42 533.94 263.21 532.3 256.16 530.79 249.08 528.93 242.06 527.49 234.96 526.93 227.7 525.56 220.59 524.68 213.4 523.9 206.2 522.32 199.1 522.02 191.84 521.62 184.61 520.73 177.42 519.54 170.25 520.01 162.96 518.97 155.76 518.91 148.52 518.77 141.28 518.22 134.04 518.25 126.8 518.27 119.9 518.6 113.01 518.26 106.12 518.76 99.22 518.97 92.32 518.28 85.68 511.41 85.47 504.3 85.42 497.18 85.3 490.05 85.15 482.96 85.62 476.51 89.36 470.75 94.26 464.56 98.54 458.48 102.97 452.13 107.02 446.14 111.61 440.04 116.02 433.38 119.66 427.58 124.48 422.42 129.47 421.98 138.38"/><polygon class="b" points="517.86 86.51 516.25 93.2 512.15 99.43 506.47 104.3 500.21 108.36 493.59 111.79 487.45 116.03 480.93 119.61 474 122.4 467.2 125.39 460.36 128.31 453.75 131.79 446.6 133.95 439.52 136.23 432.6 138.99 425.66 141.72 418.42 143.5 411.28 145.6 404.02 147.29 396.68 148.59 389.49 150.62 382.02 151.01 374.7 152.54 367.23 152.25 359.82 152.15 352.69 150.39 347.44 146.11 348.38 139.17 352.96 133.25 359.15 129.03 365.07 124.56 371.05 120.08 377.89 117.05 384.11 112.9 391.13 110.31 397.95 107.35 404.42 103.55 411.32 100.74 418.37 98.31 425.45 95.99 432.4 93.33 439.49 91.04 446.85 89.69 453.97 87.56 461.08 85.31 468.42 84.01 475.73 82.67 483.08 81.53 490.5 81.03 497.88 80.13 505.36 79.94 512.71 81.5 517.86 86.51"/><polygon class="a" points="517.86 86.51 516.25 93.2 512.15 99.43 506.47 104.3 500.21 108.36 493.59 111.79 487.45 116.03 480.93 119.61 474 122.4 467.2 125.39 460.36 128.31 453.75 131.79 446.6 133.95 439.52 136.23 432.6 138.99 425.66 141.72 418.42 143.5 411.28 145.6 404.02 147.29 396.68 148.59 389.49 150.62 382.02 151.01 374.7 152.54 367.23 152.25 359.82 152.15 352.69 150.39 347.44 146.11 348.38 139.17 352.96 133.25 359.15 129.03 365.07 124.56 371.05 120.08 377.89 117.05 384.11 112.9 391.13 110.31 397.95 107.35 404.42 103.55 411.32 100.74 418.37 98.31 425.45 95.99 432.4 93.33 439.49 91.04 446.85 89.69 453.97 87.56 461.08 85.31 468.42 84.01 475.73 82.67 483.08 81.53 490.5 81.03 497.88 80.13 505.36 79.94 512.71 81.5 517.86 86.51"/><polyline class="b" points="347.35 145.97 351.08 152.03 355.22 157.74 359.6 163.32 362.65 169.76 366.69 175.56 369.88 181.87 373.25 188.08 376.43 194.38 379.97 200.52 383.11 206.87 385.7 213.46 388.29 220.05 390.62 226.74 392.19 233.65 393.75 240.55 395.82 247.32 397.17 254.27 398.25 261.27 398.13 268.38 398.5 275.42 399.1 282.51 397.95 289.52 396.77 296.48 395.23 303.36 394.19 310.4 391.4 316.93"/><polyline class="a" points="347.35 145.97 351.08 152.03 355.22 157.74 359.6 163.32 362.65 169.76 366.69 175.56 369.88 181.87 373.25 188.08 376.43 194.38 379.97 200.52 383.11 206.87 385.7 213.46 388.29 220.05 390.62 226.74 392.19 233.65 393.75 240.55 395.82 247.32 397.17 254.27 398.25 261.27 398.13 268.38 398.5 275.42 399.1 282.51 397.95 289.52 396.77 296.48 395.23 303.36 394.19 310.4 391.4 316.93"/><polyline points="435.13 112.72 441.98 110.98 448.59 108.54 455.31 106.41 462.23 105.03 469 103.11 475.8 101.2 482.75 100.04 489.73 99.09 496.7 98.2 503.69 97.4 510.71 97.65"/><polyline class="a" points="435.13 112.72 441.98 110.98 448.59 108.54 455.31 106.41 462.23 105.03 469 103.11 475.8 101.2 482.75 100.04 489.73 99.09 496.7 98.2 503.69 97.4 510.71 97.65"/><polyline points="360.39 153.36 365.7 148.59 371.19 144.06 377.06 140 383.31 136.55 389.63 133.26 395.61 129.28 402.33 126.78 408.56 123.24 415.21 120.64 421.86 118.05 428.47 115.33 435.29 113.17"/><polyline class="a" points="360.39 153.36 365.7 148.59 371.19 144.06 377.06 140 383.31 136.55 389.63 133.26 395.61 129.28 402.33 126.78 408.56 123.24 415.21 120.64 421.86 118.05 428.47 115.33 435.29 113.17"/><polygon points="373.87 145.78 380.32 142.36 386.52 138.66 393.06 135.54 398.97 131.33 405.5 128.2 411.66 124.41 418.21 121.32 424.45 117.76 431.13 115.66 437.96 113.96 444.82 112.39 451.82 111.4 458.64 109.66 465.49 108.03 472.19 105.79 479.18 104.74 486.01 102.84 492.04 103.72 498.1 103.57 503.86 103.98 497.54 107.63 490.76 110.81 483.63 113.26 477.11 116.98 470.31 120.14 463.48 123.21 456.66 126.3 449.95 129.64 443.05 132.56 436.42 136.08 429.45 138.87 422.74 142.3 415.76 143.88 408.83 145.61 401.77 146.73 394.85 148.5 387.92 150.22 380.88 151.47 373.88 153.59 373.87 145.78"/><polyline class="a" points="364 386.04 371.11 386.91 378.29 386.54 385.42 387.2 392.57 387.59 399.73 386.91 406.89 387.4 414.04 387.09 421.19 386.99 428.35 386.74 435.45 385.68 442.59 385.18 449.65 383.95 456.73 382.97 463.89 382.51 470.84 380.73 478 379.97 484.97 378.27 491.64 375.55 498.49 373.52 505.4 371.54 511.62 367.9 518.26 365.14 524.21 361.11 529.68 356.49 535.18 351.84 539.01 345.74 542.77 339.66 544.69 332.77 546.34 325.84 546.36 318.71 545.82 311.6 544.62 304.56"/><polyline class="a" points="393.6 310.42 400.84 309.67 408.02 308.48 415.23 307.59 422.51 306.84 429.38 304.28 436.64 303.2 443.3 300.14 450.36 298.25 456.81 294.8 463.35 291.66 469.83 288.39 476.39 285.15 482.32 280.89 487.83 276.09 493.22 271.19 498.49 266.13 503.05 260.42 507.24 254.43 510.36 247.81 513.43 241.23 516.38 234.57 518.16 227.5 519.77 220.42 521.06 213.26 521.97 206.03 521.94 198.73 521.58 191.46"/><polyline class="a" points="398.82 148.29 402.7 154.24 406.34 160.33 409.16 166.86 412.73 172.99 415.2 179.66 418.37 186 420.96 192.59 423.95 199.02 426.46 205.65 428.53 212.43 430.4 219.26 432.87 225.93 434.69 232.79 436.18 239.74 436.7 246.84 437.53 253.87 439.11 260.84 438.55 267.97 439.43 275.06 439.15 282.17 438.17 289.21 436.47 296.12 435.13 303.06"/><polyline class="a" points="487.49 276.39 487.78 269.12 487.8 261.85 488.05 254.57 487.67 247.31 487.42 240.04 486.77 232.79 486.56 225.49 485.26 218.31 483.9 211.16 482.37 204.06 481.13 196.89 479.36 189.84 477.53 182.8 475.55 175.8 472.93 169.01 470.47 162.18 468.2 155.25 465.14 148.65 462.41 141.89 459.02 135.44 454.86 129.46"/><polyline class="a" points="387.66 403.78 385.35 410.71 382.8 417.55 379.83 424.24 377.6 431.2 374.33 437.77 372.18 444.76 369.64 451.61 367.19 458.5 363.96 465.09"/><polyline class="a" points="469.72 403 469.55 410 469.69 416.99 469.32 423.99 469.23 430.99 469.11 437.99 469.16 444.99 469.57 451.99 469.62 459"/><polyline class="a" points="541.89 374.88 544.66 380.98 546.79 387.34 549.46 393.48 551.66 399.81 554.58 405.85 556.65 412.24 559.34 418.38"/><polyline class="a" points="424.59 423.9 422.89 430.9 422.33 438.06 421.08 445.12 419.53 452.15 418.63 459.27 418.29 466.48"/><line class="a" x1="424.52" y1="416.53" x2="426.45" y2="407.51"/><polyline class="a" points="510.29 408.92 512.08 416.38 513.16 423.97 514.16 431.56 516 439.02 517.06 446.61 518.04 454.22 519.68 461.71"/><line class="a" x1="509.05" y1="399.6" x2="507.15" y2="391.51"/><polyline class="a" points="331.05 467.05 337.5 470.75 344.18 473.97 350.71 477.55 357.77 479.91 364.66 482.67 371.74 484.94 378.97 486.75 386.41 487.31 393.81 487.9 401.24 487.78 408.64 486.75 415.71 484.34 422.42 482 429.03 479.39 435.9 477.58 442.64 475.24 449.66 474 456.72 473.13 463.82 472.77 470.9 471.68 477.99 472.64 485.13 472.67 492.05 474.46 499.1 475.42 506.01 477.07 512.85 479.08 519.88 480.38 526.89 479.18 533.54 476.65 538.29 471.23 542.11 465.19 545.71 459.02 548.82 452.56 553.2 446.84 556.73 440.57 561.96 435.63 567.34 430.9 573.31 426.94 579.47 423.21 586.12 420.47 592.87 418"/><polyline class="a" points="327.38 488.49 333.65 492 340.33 494.7 346.72 498 353.4 500.66 360.17 503.1 366.95 505.54 374.12 506.53 381.05 508.6 388.28 508.73 395.43 509.22 402.56 508.56 409.71 507.87 416.55 505.66 423.46 503.07 430.45 500.66 437.64 498.98 444.75 497 451.99 495.52 459.3 494.47 466.65 493.74 474.05 494 481.41 494.21 488.75 494.78 496.16 494.93 503.44 496.25 510.74 497.4 517.97 498.92 525.18 500.44 532.47 501.4 539.77 500.94 546.6 498.13 551.35 492.73 555.41 486.86 558.7 480.51 562.59 474.47 566.22 468.33 569.82 462.09 574.7 456.78 580.66 452.73 586.63 448.82 592.95 445.51 599.34 442.29 606.2 440.2"/><polyline class="a" points="349.27 558.65 356.25 558.96 363.21 558.98 370.15 559.38 377.1 559.74 384.07 559.99 391 559.15 397.93 558.44 404.8 557.44 411.72 556.65 418.49 555.07 425.19 553.22 431.78 551.05 438.25 548.51 444.45 545.38 450.93 542 458.1 540.59 465.33 539.51 472.51 540.96 479.67 542 486.68 543.88 493.54 546.24 500.38 548.72 507.08 551.53 513.79 554.32 520.56 556.95 527.45 559.24 534.54 560.74 541.77 561.04 548.99 560.07 555.33 556.65 561 552.18 564.79 546.06 568.77 540.11 572 533.74 575.2 527.33 579.58 521.64 583.93 515.92 589.52 511.35 595.96 508.11 602.86 506.19 609.81 504.73"/><polygon points="332.9 487.98 335.05 480.21 336.65 472.16 343.35 474.57 349.49 477.44 356.05 479.12 362.49 481.16 368.8 483.41 376.03 484.29 383.32 484.93 390.63 485.5 397.87 486.79 405.23 486.77 412.47 487.54 419.31 486.24 425.98 484.14 432.61 481.89 439.49 480.52 446.05 478 452.93 476.59 459.64 474.44 466.82 474.86 473.94 475.56 480.98 477.13 488.12 477.67 495.31 477.71 502.4 478.72 509.57 479.02 516.69 480.62 522.81 477.94 529.12 476.19 535.31 474.01 541.84 472.69 545.08 466 548.41 459.44 551.98 453 555.67 446.61 558.33 439.55 564.52 435.87 571.07 433.07 576.84 428.93 582.85 425.22 589.13 421.93 595.25 418.2 596.54 424.73 597.81 431.17 599.33 437.59 594.06 441.99 588.77 446.32 583.43 450.59 578.38 455.22 572.87 459.28 568.41 465.55 563.31 471.31 558.04 476.93 553.52 483.16 548.53 489.01 543.71 495 538.93 500.78 531.82 500.41 524.54 499.65 517.32 498.46 510.11 497.22 502.82 496.56 495.61 495.25 488.36 494.3 481.04 493.87 473.73 493.31 466.56 492.41 459.02 493.99 451.37 495.59 443.96 498.03 436.57 500.56 429.04 502.59 421.51 504.81 414.73 505.04 407.97 504.81 401.26 505.42 394.56 506.29 387.79 505.87 381.09 506.78 374.35 506.93 367.44 503.85 360.47 500.91 353.79 497.36 346.97 494.07 340.04 491.01 332.9 487.98"/><polyline class="a" points="350.76 502.52 352.02 509.96 354.32 517.15 355.96 524.52 358.14 531.75 361.06 538.73 364.33 545.54 368.29 551.99 373.39 557.58"/><polyline class="a" points="384.84 511.58 384.8 518.82 386.79 525.8 388.22 532.83 390.31 539.74 393.51 546.23 397.51 552.27 402.3 557.7"/><polyline class="a" points="416.61 505.67 416.13 512.7 417.08 519.7 417.65 526.72 419.45 533.53 421.62 540.2 423.76 546.96 427.87 552.73"/><polyline class="a" points="442.97 496.62 443.4 503.33 444.39 510 444.31 516.75 445.12 523.44 446.45 530.04 447.14 536.74 449.46 543.03"/><polyline class="a" points="470.09 493.82 470.94 501.55 472.05 509.27 472.14 517.07 472.34 524.85 472.42 532.64 472.2 540.45"/><polyline class="a" points="497.51 493.75 497.37 501.43 498.7 509 498.79 516.64 498.11 524.26 498.13 531.89 497.31 539.49 495.36 546.88"/><polyline class="a" points="523.25 504.37 524.17 511.95 525.31 519.51 526.03 527.12 526.31 534.78 525.39 542.39 525.14 550.05 523.04 557.42"/><polyline class="a" points="549.79 493.82 550.64 500.87 551.22 507.95 552.24 515.01 551.89 522.14 552.26 529.24 552.51 536.36 551.99 543.46 550.87 550.48 550.14 557.58"/><polyline class="a" points="570.13 467.24 572.17 474.5 573.34 481.95 575.65 489.18 576.17 496.72 577.48 504.18 577.05 511.74 576.56 519.23 575.38 526.65"/><polyline class="a" points="595.78 445.1 597.35 451.85 598.81 458.62 599.68 465.49 601.34 472.27 601.19 479.25 602.04 486.13 602 493.07 601.81 500 601.75 506.93"/><polygon points="354.12 562.17 361.55 562.07 368.55 561.92 375.54 561.28 382.54 561.21 389.53 560.83 396.54 560.69 403.56 560.72 410.61 560.37 417.31 557.24 424.24 554.95 431.2 552.74 438 550.06 444.91 547.7 451.92 545.61 458.79 543 466 544.77 473.06 546.98 480.37 548.2 487.42 550.49 494.57 552.33 501.85 553.7 509.11 555.1 516.26 557.01 523.43 558.66 531.18 559.16 539 559.1 546.8 559.65 554.59 559.96 558.8 554.4 562.36 548.35 566.81 542.93 570.89 537.24 575 531.57 578.94 525.78 582.55 519.68 590.08 515.88 597.15 511.37 604.16 507.37 605.31 513.47 607.24 519.89 604.63 526.16 601.93 532.3 599.25 538.44 597.11 544.8 595.02 551.18 591.89 557.16 590.06 563.75 584.52 568.36 578.72 572.52 573.62 577.49 568.06 581.95 562.84 586.79 557.08 591 551.74 595.7 546.16 600.13 541.02 605.07 535.49 609.56 530.15 614.36 522.57 616.18 515.21 618.61 507.66 620.38 500.29 622.79 492.84 624.94 485.26 626.38 478.35 625.9 471.46 624.88 464.69 623.05 457.72 622.56 450.9 621.07 444.06 619.67 437.09 619.19 430.25 617.81 423.38 616.54 416.31 616.13 410.57 612.57 404.62 609.5 399.04 605.78 393.44 602.1 387.6 598.83 381.62 595.79 377.07 590.25 372.63 584.63 367.93 579.21 363.92 573.24 359.39 567.66 354.12 562.17"/><polygon points="535.09 271.41 531.19 276.99 526.92 282.81 521.78 287.88 516.64 292.91 511.71 298.2 506.21 302.87 500.41 307.16 494.29 310.97 488.26 314.91 482.23 318.89 475.78 322.13 469.31 325.32 462.44 327.58 455.88 330.63 448.96 332.67 441.87 334.06 434.98 336.17 427.99 337.96 420.85 339 413.75 340.24 406.56 340.88 399.35 340.84 392.18 341.78 385.32 341.53 381.56 348.43 378.08 355.6 374.72 362.73 381.64 362.9 388.76 364.22 395.97 363.97 403.15 364.17 410.34 364.04 417.52 364.25 424.69 363.88 431.91 364.11 439.01 362.82 446.11 361.72 453.33 361.37 460.3 359.51 467.22 357.58 474.31 356.23 481.12 353.9 487.54 350.61 494.37 348.27 500.75 344.94 506.71 340.89 512.59 336.75 517.69 331.68 522.74 326.63 527.31 321.14 532.17 315.77 535.18 309.21 537.17 302.49 537.62 294.65 537.06 286.85 535.81 279.1 535.09 271.41"/><polygon class="a" points="535.09 271.41 531.19 276.99 526.92 282.81 521.78 287.88 516.64 292.91 511.71 298.2 506.21 302.87 500.41 307.16 494.29 310.97 488.26 314.91 482.23 318.89 475.78 322.13 469.31 325.32 462.44 327.58 455.88 330.63 448.96 332.67 441.87 334.06 434.98 336.17 427.99 337.96 420.85 339 413.75 340.24 406.56 340.88 399.35 340.84 392.18 341.78 385.32 341.53 381.56 348.43 378.08 355.6 374.72 362.73 381.64 362.9 388.76 364.22 395.97 363.97 403.15 364.17 410.34 364.04 417.52 364.25 424.69 363.88 431.91 364.11 439.01 362.82 446.11 361.72 453.33 361.37 460.3 359.51 467.22 357.58 474.31 356.23 481.12 353.9 487.54 350.61 494.37 348.27 500.75 344.94 506.71 340.89 512.59 336.75 517.69 331.68 522.74 326.63 527.31 321.14 532.17 315.77 535.18 309.21 537.17 302.49 537.62 294.65 537.06 286.85 535.81 279.1 535.09 271.41"/><polyline class="a" points="402.41 310.04 407.4 316.22 413.31 321.47 419.13 326.81 424.46 332.66 430.11 337.99 436.86 336.29 443.68 334.26 450.74 332.27 445.43 326.68 439.85 321.67 434.42 316.49 429.32 310.98 423.59 305.61 431.22 304.14 438.33 302.12 445.43 299.66 450.54 304.79 455.34 310.1 460.85 314.71 465.73 319.95 470.69 325 476.62 321.87 482.39 318.31 488.21 314.68 483.39 310.06 478.46 305.64 473.95 300.79 469.43 295.96 464.63 291.27 470.74 288.09 476.06 283.76 482.17 280.26 487.4 286.14 493.06 291.29 498.16 297.01 503.71 302.58 509.02 297.81 513.85 292.88 518.8 288.1 513.49 283 508.36 277.68 503.17 272.42 498.4 267.15 502.29 262.45 506.43 257.51 510.11 252.61 515.28 257.51 520.79 262.47 526.15 267.59 530.99 273.25"/><polyline class="a" points="389.05 323.36 393.37 328.75 398.47 333.37 403.42 338.15 408.42 342.87"/><polyline class="a" points="382.48 207.72 382.52 200.85 382.16 193.98 383.86 187.28 387.35 181.37 391.15 175.68 396.31 171.17 402.15 167.66 408.21 164.67 415.71 164.41 423.2 163.83 430.58 162.34 437.87 160.45 444.76 157.42 451.69 154.47 457.93 150.24 463.65 145.38 470.49 146.31 477.44 146.08 484.24 144.68 490.87 142.72 497.38 140.32 503.08 136.36 508.62 132.3 514.25 128.21 518.29 122.55"/><polyline class="a" points="392.84 235.82 392.5 228.97 392.79 222.14 394.27 215.43 397.93 209.64 402.03 204.31 406.56 199.21 412.18 195.28 418.53 192.91 426.12 192.97 433.72 192.34 441.22 191 448.7 189.46 455.77 186.58 462.79 183.67 469.39 179.87 475.38 175.44 482.16 175.56 489.07 175.41 495.96 174.62 502.57 172.53 508.9 169.74 514.27 165.4 519.59 161"/><polyline class="a" points="399.1 266.63 398.32 259.57 399.1 252.53 401.07 245.73 404.39 239.44 409.15 234.17 414.7 229.79 420.65 225.97 426.95 223.14 434.36 223.99 441.89 224.38 449.44 224.25 456.85 222.77 464.28 221.32 471.25 218.33 477.93 214.77 483.85 210.13 490.21 212.21 496.95 212.21 503.66 212.42 510.12 210.6 516.2 207.88 521.76 204.24"/><polyline class="a" points="397.92 291.96 398.65 284.47 401.36 277.46 404.58 270.64 410 265.39 415.75 260.59 422.18 256.72 429 253.53 436.31 251.69 442.68 254.21 449.46 255.11 456.18 256.08 462.99 256.42 469.83 255.75 476.3 253.44 482.15 249.96 487.75 246.35 495.55 247.37 503.45 246.31 510.77 243.08"/><polyline class="a" points="402.24 304.08 405.72 297.87 411.28 293.4 417.02 289.32 422.88 285.3 429.69 283.24 436.32 280.33 443.21 281.7 450.06 283.05 457.03 283.56 463.99 282.84 470.82 281.55 477.67 280.27 484.14 277.67 490.22 274.21"/><polyline class="a" points="366.62 176.4 368.53 169.67 371.89 163.53 376.35 158.2 381.15 153.28 386.78 149.28 393.09 146.31 399.97 145"/><polygon points="512.36 627.65 519.77 625.85 526.81 624.18 533.91 622.74 540.82 620.49 547.97 619.23 555.06 617.74 562.11 616.08 569.03 613.87 576.13 612.41 583.15 610.61 590.12 608.62 597.21 607.12 604.29 605.6 611.24 603.5 618.33 601.99 625.49 600.77 632.4 598.48 639.42 596.92 641.01 590.13 642.44 583.26 643.57 576.31 644.87 569.4 646.24 562.63 639.46 562.7 632.65 564.02 625.74 564.16 618.85 564.58 611.96 565.06 605.16 566.47 598.26 566.74 591.37 567.25 584.41 567.77 578.99 572.57 573.5 577.18 568.2 582.02 562.55 586.43 556.93 590.88 551.33 595.36 546.1 600.29 540.52 604.8 534.77 609.1 528.98 613.35 523.88 618.44 518.51 623.22 512.36 627.65"/></svg>