<svg xmlns="http://www.w3.org/2000/svg" viewBox="0 0 800 800"><defs><style>.a{fill:#fff;}.b{fill:none;stroke:#000;stroke-linejoin:bevel;stroke-width:13px;}</style></defs><title>kiln-6</title><polygon class="a" points="580.25 675.87 572.89 675.42 565.75 675.47 558.62 675.91 551.48 675.81 544.34 675.72 537.2 675.71 530.06 675.2 522.92 675 515.79 675.96 508.65 675.82 501.51 675.18 494.37 675.22 487.23 675.92 480.09 675.81 472.95 675 465.81 675.77 458.67 675.27 451.53 675.77 444.39 675.24 437.25 675.05 430.11 675.9 422.97 675.53 415.83 675.41 408.69 675.74 401.55 675.64 394.41 675.07 387.27 675.07 380.13 675.75 372.99 675.1 365.85 675.75 358.71 675.87 351.57 675.47 344.44 675.25 337.3 675.47 330.16 675.95 323.02 675.36 315.88 675.38 308.74 675.62 301.6 675.25 294.46 675.27 287.32 675.15 280.17 675.05 273.03 675.88 265.89 675.81 258.75 675.3 251.6 675.93 244.46 675.18 237.32 675.96 230.17 675.82 223.03 675.64 215.89 675.76 208.75 675.23 201.6 675.01 194.46 675.64 187.31 675.95 180.17 675.76 173.01 675.39 165.92 675.45 170.12 669.49 173.78 663.12 177.39 656.72 181.56 650.67 185.84 644.71 189.5 638.34 193.34 632.08 197.21 625.84 201.3 619.74 205.17 613.5 209.36 607.47 212.75 600.93 216.99 594.91 221 588.96 227.96 588.49 235.1 589.08 242.24 588.16 249.38 588.79 256.52 588.59 263.65 589.07 270.8 588.14 277.93 588.9 285.07 588.69 292.21 588.4 299.35 588.18 306.49 589.06 313.63 589.08 320.77 588.54 327.91 588.55 335.05 588.91 342.19 588.96 349.33 588.93 356.47 589 363.61 588.78 370.75 589.1 377.89 588.18 385.03 588.62 392.17 588.65 399.31 588.95 406.45 588.98 413.59 589.13 420.73 588.32 427.87 588.16 435.01 588.51 442.14 588.65 449.28 588.22 456.42 588.27 463.56 588.53 470.7 588.91 477.84 588.89 484.98 588.42 492.12 588.91 499.26 588.28 506.4 588.44 513.54 588.98 520.68 588.78 527.83 588.38 534.97 588.22 542.11 588.81 549.25 589.06 556.4 588.62 563.54 588.9 570.69 588.28 577.83 588.55 584.97 588.6 592.11 589.1 599.26 588.47 606.4 588.32 613.54 588.63 620.69 588.98 627.84 588.79 635.02 588.63 631.42 595.06 627.05 600.99 623.23 607.25 619 613.26 615.09 619.46 611.46 625.85 607.23 631.86 603.38 638.11 599.75 644.5 595.35 650.4 591.65 656.75 588.08 663.17 584.31 669.48 580.25 675.87"/><polygon class="b" points="580.25 675.87 572.89 675.42 565.75 675.47 558.62 675.91 551.48 675.81 544.34 675.72 537.2 675.71 530.06 675.2 522.92 675 515.79 675.96 508.65 675.82 501.51 675.18 494.37 675.22 487.23 675.92 480.09 675.81 472.95 675 465.81 675.77 458.67 675.27 451.53 675.77 444.39 675.24 437.25 675.05 430.11 675.9 422.97 675.53 415.83 675.41 408.69 675.74 401.55 675.64 394.41 675.07 387.27 675.07 380.13 675.75 372.99 675.1 365.85 675.75 358.71 675.87 351.57 675.47 344.44 675.25 337.3 675.47 330.16 675.95 323.02 675.36 315.88 675.38 308.74 675.62 301.6 675.25 294.46 675.27 287.32 675.15 280.17 675.05 273.03 675.88 265.89 675.81 258.75 675.3 251.6 675.93 244.46 675.18 237.32 675.96 230.17 675.82 223.03 675.64 215.89 675.76 208.75 675.23 201.6 675.01 194.46 675.64 187.31 675.95 180.17 675.76 173.01 675.39 165.92 675.45 170.12 669.49 173.78 663.12 177.39 656.72 181.56 650.67 185.84 644.71 189.5 638.34 193.34 632.08 197.21 625.84 201.3 619.74 205.17 613.5 209.36 607.47 212.75 600.93 216.99 594.91 221 588.96 227.96 588.49 235.1 589.08 242.24 588.16 249.38 588.79 256.52 588.59 263.65 589.07 270.8 588.14 277.93 588.9 285.07 588.69 292.21 588.4 299.35 588.18 306.49 589.06 313.63 589.08 320.77 588.54 327.91 588.55 335.05 588.91 342.19 588.96 349.33 588.93 356.47 589 363.61 588.78 370.75 589.1 377.89 588.18 385.03 588.62 392.17 588.65 399.31 588.95 406.45 588.98 413.59 589.13 420.73 588.32 427.87 588.16 435.01 588.51 442.14 588.65 449.28 588.22 456.42 588.27 463.56 588.53 470.7 588.91 477.84 588.89 484.98 588.42 492.12 588.91 499.26 588.28 506.4 588.44 513.54 588.98 520.68 588.78 527.83 588.38 534.97 588.22 542.11 588.81 549.25 589.06 556.4 588.62 563.54 588.9 570.69 588.28 577.83 588.55 584.97 588.6 592.11 589.1 599.26 588.47 606.4 588.32 613.54 588.63 620.69 588.98 627.84 588.79 635.02 588.63 631.42 595.06 627.05 600.99 623.23 607.25 619 613.26 615.09 619.46 611.46 625.85 607.23 631.86 603.38 638.11 599.75 644.5 595.35 650.4 591.65 656.75 588.08 663.17 584.31 669.48 580.25 675.87"/><polygon class="a" points="580 603.73 572.89 604.08 565.75 603.62 558.62 603.71 551.48 604 544.34 603.3 537.2 604.24 530.06 603.43 522.92 603.54 515.79 603.97 508.65 603.29 501.51 603.77 494.37 603.79 487.23 603.98 480.09 603.82 472.95 604.09 465.81 604.25 458.67 603.37 451.53 603.96 444.39 603.96 437.25 603.77 430.11 604.05 422.97 603.66 415.83 603.63 408.69 603.52 401.55 603.5 394.41 603.94 387.27 603.42 380.13 603.55 372.99 603.84 365.85 604.06 358.71 603.56 351.57 603.56 344.44 604.1 337.3 604.21 330.16 603.63 323.02 603.76 315.88 604.15 308.74 604.15 301.6 603.33 294.46 603.56 287.32 604.18 280.17 603.51 273.03 603.66 265.89 603.97 258.75 604.21 251.6 604.01 244.46 604.29 237.32 604.22 230.17 603.35 223.03 603.5 215.89 604.04 208.75 603.83 201.6 603.41 194.46 603.93 187.31 603.45 180.17 603.39 173.01 603.73 165.55 603.95 169.39 597.34 174.12 591.64 177.89 585.34 181.57 578.99 185.53 572.82 189.32 566.53 193.49 560.48 197.06 554.05 201.15 547.96 204.95 541.67 209.29 535.74 213.19 529.51 216.79 523.09 221.01 517.29 227.96 517.15 235.1 516.66 242.24 516.62 249.38 517.18 256.52 516.52 263.65 516.9 270.8 516.58 277.93 517.26 285.07 517.3 292.21 516.59 299.35 517.14 306.49 517.29 313.63 517.26 320.77 516.84 327.91 516.51 335.05 516.99 342.19 517.16 349.33 516.9 356.47 516.83 363.61 517.24 370.75 517.01 377.89 516.53 385.03 516.49 392.17 516.56 399.31 516.64 406.45 517.23 413.59 517.26 420.73 516.89 427.87 517.15 435.01 517.1 442.14 516.59 449.28 517.23 456.42 517.22 463.56 516.47 470.7 517.03 477.84 516.87 484.98 516.99 492.12 517.19 499.26 517.02 506.4 517.01 513.54 516.62 520.68 516.54 527.83 516.88 534.97 517.44 542.11 517.02 549.25 516.72 556.4 516.47 563.54 516.94 570.69 516.89 577.83 517.04 584.97 517.18 592.11 517.29 599.26 516.71 606.4 516.47 613.54 516.79 620.69 517.33 627.84 516.76 635.06 516.92 631.16 523.21 626.95 529.23 623.51 535.74 619.58 541.93 615.26 547.88 611.53 554.2 607.91 560.6 603.85 566.72 599.99 572.96 596.13 579.2 591.96 585.25 587.8 591.31 583.82 597.49 580 603.73"/><polygon class="b" points="580 603.73 572.89 604.08 565.75 603.62 558.62 603.71 551.48 604 544.34 603.3 537.2 604.24 530.06 603.43 522.92 603.54 515.79 603.97 508.65 603.29 501.51 603.77 494.37 603.79 487.23 603.98 480.09 603.82 472.95 604.09 465.81 604.25 458.67 603.37 451.53 603.96 444.39 603.96 437.25 603.77 430.11 604.05 422.97 603.66 415.83 603.63 408.69 603.52 401.55 603.5 394.41 603.94 387.27 603.42 380.13 603.55 372.99 603.84 365.85 604.06 358.71 603.56 351.57 603.56 344.44 604.1 337.3 604.21 330.16 603.63 323.02 603.76 315.88 604.15 308.74 604.15 301.6 603.33 294.46 603.56 287.32 604.18 280.17 603.51 273.03 603.66 265.89 603.97 258.75 604.21 251.6 604.01 244.46 604.29 237.32 604.22 230.17 603.35 223.03 603.5 215.89 604.04 208.75 603.83 201.6 603.41 194.46 603.93 187.31 603.45 180.17 603.39 173.01 603.73 165.55 603.95 169.39 597.34 174.12 591.64 177.89 585.34 181.57 578.99 185.53 572.82 189.32 566.53 193.49 560.48 197.06 554.05 201.15 547.96 204.95 541.67 209.29 535.74 213.19 529.51 216.79 523.09 221.01 517.29 227.96 517.15 235.1 516.66 242.24 516.62 249.38 517.18 256.52 516.52 263.65 516.9 270.8 516.58 277.93 517.26 285.07 517.3 292.21 516.59 299.35 517.14 306.49 517.29 313.63 517.26 320.77 516.84 327.91 516.51 335.05 516.99 342.19 517.16 349.33 516.9 356.47 516.83 363.61 517.24 370.75 517.01 377.89 516.53 385.03 516.49 392.17 516.56 399.31 516.64 406.45 517.23 413.59 517.26 420.73 516.89 427.87 517.15 435.01 517.1 442.14 516.59 449.28 517.23 456.42 517.22 463.56 516.47 470.7 517.03 477.84 516.87 484.98 516.99 492.12 517.19 499.26 517.02 506.4 517.01 513.54 516.62 520.68 516.54 527.83 516.88 534.97 517.44 542.11 517.02 549.25 516.72 556.4 516.47 563.54 516.94 570.69 516.89 577.83 517.04 584.97 517.18 592.11 517.29 599.26 516.71 606.4 516.47 613.54 516.79 620.69 517.33 627.84 516.76 635.06 516.92 631.16 523.21 626.95 529.23 623.51 535.74 619.58 541.93 615.26 547.88 611.53 554.2 607.91 560.6 603.85 566.72 599.99 572.96 596.13 579.2 591.96 585.25 587.8 591.31 583.82 597.49 580 603.73"/><polygon class="a" points="164.26 604.25 164.46 611.61 164.43 618.71 164.89 625.81 164.86 632.92 164.81 640.02 164.28 647.13 164.53 654.23 164.51 661.34 164.14 668.45 164.77 675.29 171.65 675.3 178.81 675.2 185.96 675.78 193.11 675.64 200.26 675.94 207.42 675.49 214.57 675.88 221.72 675.13 228.88 675.66 236.03 675.25 243.19 675.38 250.34 675.33 257.49 675.3 264.64 675.98 271.8 675.1 278.95 675.74 286.11 675.36 293.26 675.09 300.42 676.03 307.57 675.99 314.72 675.21 321.88 675.54 329.03 676.02 336.19 675.62 343.34 675.59 350.5 675.81 357.65 675.95 364.81 676.01 371.96 675.58 379.11 675.72 386.26 675.86 393.42 675.73 400.57 675.95 407.72 675.09 414.87 675.23 422.03 675.99 429.18 675.23 436.34 675.65 443.49 675.89 450.65 675.36 457.8 675.3 464.96 675.19 472.12 675.8 479.27 675.64 486.43 675.88 493.59 675.5 500.74 675.1 507.9 675.91 515.06 675.82 522.22 675.87 529.37 675.78 536.53 675.56 543.69 675.4 550.85 675.85 558 675.25 565.17 675.59 572.33 675.59 579.25 675.23 579.25 668.38 579.8 661.29 579.6 654.19 579.93 647.1 579.29 640 579 632.9 579.44 625.81 579.96 618.71 579.26 611.61 579.4 604.6 572.35 604.84 565.19 604.43 558.04 604.88 550.89 604.52 543.74 604.83 536.58 604.3 529.43 604.57 522.28 604.4 515.12 604.73 507.97 604.64 500.81 604.2 493.66 604.48 486.51 604.73 479.36 604.39 472.2 604.27 465.05 604.52 457.89 604.71 450.74 604.64 443.58 604.91 436.43 604.12 429.28 604.12 422.12 604.93 414.97 604.27 407.81 604.33 400.66 604.95 393.5 604.16 386.35 604.65 379.19 604.31 372.04 604.78 364.89 604.28 357.74 604.8 350.58 604.47 343.43 604.62 336.28 604.1 329.13 604.19 321.97 604.66 314.82 604.72 307.66 604.46 300.51 604.88 293.35 604.99 286.2 604.95 279.04 604.08 271.88 604.68 264.73 604.68 257.57 604.98 250.41 604.31 243.25 604.03 236.1 604.63 228.94 604.85 221.78 604.13 214.63 604.7 207.47 604.1 200.31 604.13 193.15 604.66 186 604.46 178.83 604.17 171.67 604.28 164.26 604.25"/><polygon class="b" points="164.26 604.25 164.46 611.61 164.43 618.71 164.89 625.81 164.86 632.92 164.81 640.02 164.28 647.13 164.53 654.23 164.51 661.34 164.14 668.45 164.77 675.29 171.65 675.3 178.81 675.2 185.96 675.78 193.11 675.64 200.26 675.94 207.42 675.49 214.57 675.88 221.72 675.13 228.88 675.66 236.03 675.25 243.19 675.38 250.34 675.33 257.49 675.3 264.64 675.98 271.8 675.1 278.95 675.74 286.11 675.36 293.26 675.09 300.42 676.03 307.57 675.99 314.72 675.21 321.88 675.54 329.03 676.02 336.19 675.62 343.34 675.59 350.5 675.81 357.65 675.95 364.81 676.01 371.96 675.58 379.11 675.72 386.26 675.86 393.42 675.73 400.57 675.95 407.72 675.09 414.87 675.23 422.03 675.99 429.18 675.23 436.34 675.65 443.49 675.89 450.65 675.36 457.8 675.3 464.96 675.19 472.12 675.8 479.27 675.64 486.43 675.88 493.59 675.5 500.74 675.1 507.9 675.91 515.06 675.82 522.22 675.87 529.37 675.78 536.53 675.56 543.69 675.4 550.85 675.85 558 675.25 565.17 675.59 572.33 675.59 579.25 675.23 579.25 668.38 579.8 661.29 579.6 654.19 579.93 647.1 579.29 640 579 632.9 579.44 625.81 579.96 618.71 579.26 611.61 579.4 604.6 572.35 604.84 565.19 604.43 558.04 604.88 550.89 604.52 543.74 604.83 536.58 604.3 529.43 604.57 522.28 604.4 515.12 604.73 507.97 604.64 500.81 604.2 493.66 604.48 486.51 604.73 479.36 604.39 472.2 604.27 465.05 604.52 457.89 604.71 450.74 604.64 443.58 604.91 436.43 604.12 429.28 604.12 422.12 604.93 414.97 604.27 407.81 604.33 400.66 604.95 393.5 604.16 386.35 604.65 379.19 604.31 372.04 604.78 364.89 604.28 357.74 604.8 350.58 604.47 343.43 604.62 336.28 604.1 329.13 604.19 321.97 604.66 314.82 604.72 307.66 604.46 300.51 604.88 293.35 604.99 286.2 604.95 279.04 604.08 271.88 604.68 264.73 604.68 257.57 604.98 250.41 604.31 243.25 604.03 236.1 604.63 228.94 604.85 221.78 604.13 214.63 604.7 207.47 604.1 200.31 604.13 193.15 604.66 186 604.46 178.83 604.17 171.67 604.28 164.26 604.25"/><polygon points="634.41 517.35 634.33 524.12 634.34 531.28 634.18 538.45 634.64 545.62 634.61 552.78 634.55 559.95 634.45 567.12 634.62 574.29 634.3 581.47 634.66 588.69 630.32 594.68 626.86 601.18 622.96 607.4 618.75 613.42 615.27 619.9 610.58 625.61 607.17 632.15 603.08 638.25 599.16 644.45 595.34 650.73 591.68 657.1 587.6 663.21 583.65 669.41 579.41 675.88 579.33 668.41 579.74 661.35 579.72 654.28 579.14 647.21 579.01 640.14 579.08 633.07 579.83 626 579.77 618.93 579.78 611.85 579.97 604.91 583.76 598.71 587.68 592.43 591.5 586.09 595.09 579.61 598.82 573.22 603.24 567.26 607.05 560.92 610.74 554.49 614.6 548.18 618.92 542.15 622.95 535.94 626.8 529.61 630.64 523.28 634.41 517.35"/><polygon class="b" points="634.41 517.35 634.33 524.12 634.34 531.28 634.18 538.45 634.64 545.62 634.61 552.78 634.55 559.95 634.45 567.12 634.62 574.29 634.3 581.47 634.66 588.69 630.32 594.68 626.86 601.18 622.96 607.4 618.75 613.42 615.27 619.9 610.58 625.61 607.17 632.15 603.08 638.25 599.16 644.45 595.34 650.73 591.68 657.1 587.6 663.21 583.65 669.41 579.41 675.88 579.33 668.41 579.74 661.35 579.72 654.28 579.14 647.21 579.01 640.14 579.08 633.07 579.83 626 579.77 618.93 579.78 611.85 579.97 604.91 583.76 598.71 587.68 592.43 591.5 586.09 595.09 579.61 598.82 573.22 603.24 567.26 607.05 560.92 610.74 554.49 614.6 548.18 618.92 542.15 622.95 535.94 626.8 529.61 630.64 523.28 634.41 517.35"/><polygon class="a" points="477.07 133.66 476.77 134.07 469.67 133.54 462.55 133.25 455.44 133.33 448.33 133.36 441.22 133.35 434.1 133.17 426.99 133.21 419.88 134 412.76 133.84 405.65 133.96 398.53 134.02 391.42 133.61 384.3 133.23 377.19 133.78 370.08 133.2 362.96 133.88 355.85 133.53 348.73 133.49 341.62 133.66 334.5 133.52 327.38 133.91 320.25 133.6 319.78 133.66 320.29 140.79 319.91 147.91 319.19 154.99 318.27 162.05 317.9 169.19 316.77 176.24 315.26 183.21 313.28 190.06 311.69 197 310.21 203.98 307.62 210.64 306.05 217.63 303.41 224.25 300.82 230.89 297.96 237.42 295.03 243.91 291.71 250.22 288.38 256.5 285.73 263.17 281.42 268.91 277.76 275.01 273.72 280.88 269.59 286.67 265.14 292.22 261.08 298.1 256.22 303.32 251.57 308.74 246.23 313.47 240.66 317.92 235.53 322.9 230 327.42 222.41 332.88 217.65 337.7 214.16 343.59 213.44 350.41 214.26 357.19 216.84 364 218.26 371.17 220.79 377.98 223.4 384.78 225.79 391.64 227.96 398.58 229.71 405.65 232.52 412.38 234.27 419.45 236.83 426.26 239.22 433.12 240.67 440.3 243.41 447.05 245.27 454.09 248.06 460.82 249.65 467.95 252.13 474.79 254.05 481.81 256.31 488.72 259.23 495.42 261.13 502.45 263.75 509.24 265.6 516.29 267.85 523.2 270.41 530.01 272.1 537.11 275.11 543.78 276.9 550.84 278.92 557.84 281.12 564.79 281.57 564.32 288.46 566.31 295.56 567.22 302.61 568.35 309.68 569.31 316.68 570.84 323.79 571.54 330.86 572.56 337.97 573.3 345.06 574.2 352.19 574.57 359.27 575.79 366.46 575.33 373.58 575.85 380.7 576.62 387.85 576.47 395 576.43 402.14 576.72 409.28 576.26 416.42 575.89 423.55 575.66 430.73 576.23 437.86 575.66 444.95 574.69 452.05 573.79 459.17 573.23 466.25 572.36 473.42 572.08 480.5 571.1 487.54 569.86 494.59 568.67 501.68 567.72 508.67 566.25 515.74 565.13 515.91 564.79 517.79 557.75 519.75 550.75 522.25 543.93 524.78 537.11 526.68 530.08 528.65 523.09 531.31 516.31 533.62 509.42 535.4 502.36 538.4 495.69 540.09 488.6 542.43 481.71 544.78 474.83 546.68 467.81 548.88 460.88 551.27 454.01 553.3 447.02 556.3 440.36 558.17 433.32 560.13 426.31 563.03 419.6 565.24 412.68 567.28 405.7 569.87 398.89 571.83 391.89 573.7 384.85 576.63 378.15 578.77 371.2 580.2 364.01 583.34 357.37 584.37 350.41 583.34 343.44 579.37 337.7 574.92 332.45 567.27 327.06 561.85 322.44 556.35 317.94 550.99 313.27 545.47 308.73 541.08 303.07 536.46 297.67 531.94 292.18 527.28 286.79 523.24 280.93 518.9 275.26 515.13 269.2 512.08 262.74 508.73 256.46 504.71 250.52 501.73 244.04 499.27 237.34 496.34 230.85 493.97 224.13 491.38 217.5 488.72 210.87 486.96 203.95 484.8 197.15 483.73 190.08 481.78 183.21 480.47 176.21 479.61 169.13 478.12 162.13 478.19 154.97 476.81 147.93 476.48 140.8 477.07 133.66"/><polygon class="b" points="477.07 133.66 476.77 134.07 469.67 133.54 462.55 133.25 455.44 133.33 448.33 133.36 441.22 133.35 434.1 133.17 426.99 133.21 419.88 134 412.76 133.84 405.65 133.96 398.53 134.02 391.42 133.61 384.3 133.23 377.19 133.78 370.08 133.2 362.96 133.88 355.85 133.53 348.73 133.49 341.62 133.66 334.5 133.52 327.38 133.91 320.25 133.6 319.78 133.66 320.29 140.79 319.91 147.91 319.19 154.99 318.27 162.05 317.9 169.19 316.77 176.24 315.26 183.21 313.28 190.06 311.69 197 310.21 203.98 307.62 210.64 306.05 217.63 303.41 224.25 300.82 230.89 297.96 237.42 295.03 243.91 291.71 250.22 288.38 256.5 285.73 263.17 281.42 268.91 277.76 275.01 273.72 280.88 269.59 286.67 265.14 292.22 261.08 298.1 256.22 303.32 251.57 308.74 246.23 313.47 240.66 317.92 235.53 322.9 230 327.42 222.41 332.88 217.65 337.7 214.16 343.59 213.44 350.41 214.26 357.19 216.84 364 218.26 371.17 220.79 377.98 223.4 384.78 225.79 391.64 227.96 398.58 229.71 405.65 232.52 412.38 234.27 419.45 236.83 426.26 239.22 433.12 240.67 440.3 243.41 447.05 245.27 454.09 248.06 460.82 249.65 467.95 252.13 474.79 254.05 481.81 256.31 488.72 259.23 495.42 261.13 502.45 263.75 509.24 265.6 516.29 267.85 523.2 270.41 530.01 272.1 537.11 275.11 543.78 276.9 550.84 278.92 557.84 281.12 564.79 281.57 564.32 288.46 566.31 295.56 567.22 302.61 568.35 309.68 569.31 316.68 570.84 323.79 571.54 330.86 572.56 337.97 573.3 345.06 574.2 352.19 574.57 359.27 575.79 366.46 575.33 373.58 575.85 380.7 576.62 387.85 576.47 395 576.43 402.14 576.72 409.28 576.26 416.42 575.89 423.55 575.66 430.73 576.23 437.86 575.66 444.95 574.69 452.05 573.79 459.17 573.23 466.25 572.36 473.42 572.08 480.5 571.1 487.54 569.86 494.59 568.67 501.68 567.72 508.67 566.25 515.74 565.13 515.91 564.79 517.79 557.75 519.75 550.75 522.25 543.93 524.78 537.11 526.68 530.08 528.65 523.09 531.31 516.31 533.62 509.42 535.4 502.36 538.4 495.69 540.09 488.6 542.43 481.71 544.78 474.83 546.68 467.81 548.88 460.88 551.27 454.01 553.3 447.02 556.3 440.36 558.17 433.32 560.13 426.31 563.03 419.6 565.24 412.68 567.28 405.7 569.87 398.89 571.83 391.89 573.7 384.85 576.63 378.15 578.77 371.2 580.2 364.01 583.34 357.37 584.37 350.41 583.34 343.44 579.37 337.7 574.92 332.45 567.27 327.06 561.85 322.44 556.35 317.94 550.99 313.27 545.47 308.73 541.08 303.07 536.46 297.67 531.94 292.18 527.28 286.79 523.24 280.93 518.9 275.26 515.13 269.2 512.08 262.74 508.73 256.46 504.71 250.52 501.73 244.04 499.27 237.34 496.34 230.85 493.97 224.13 491.38 217.5 488.72 210.87 486.96 203.95 484.8 197.15 483.73 190.08 481.78 183.21 480.47 176.21 479.61 169.13 478.12 162.13 478.19 154.97 476.81 147.93 476.48 140.8 477.07 133.66"/><polyline class="b" points="319.54 183.37 312.37 183.56 305.21 183.3 298.05 183.59 290.94 184.49 283.88 185.65 276.75 186.4 269.92 188.65 262.9 190.12 256.21 192.69 249.79 195.85 243.57 199.32 237.61 203.2 232.03 207.6 226.85 212.47 222.44 218.06 218.44 223.98 215.85 230.63 212.99 237.21 212.07 244.32 210.61 251.36 210.56 258.54 210.78 265.72 211.94 272.81 213.06 279.89 214.69 286.87 216.51 293.8 219.19 300.46 221.62 307.19 223.83 314 227.15 320.37 229.86 327.01"/><polyline class="b" points="478.62 183.64 485.77 183.73 492.91 183.93 500.08 183.72 507.2 184.4 514.3 185.31 521.35 186.61 528.31 188.28 535.13 190.44 541.98 192.54 548.46 195.61 554.7 199.1 560.99 202.54 566.32 207.36 571.31 212.45 575.59 218.13 579.62 224.01 582.82 230.42 584.55 237.37 586.26 244.29 587.24 251.38 587.57 258.54 586.45 265.65 585.87 272.76 585.22 279.92 583.37 286.85 581.04 293.63 578.75 300.39 576.45 307.16 574.45 314.06 571.64 320.67 568.56 327.14"/><polyline class="b" points="582.56 343.71 575.61 344.54 568.72 345.68 561.81 346.74 554.98 348.23 548.06 349.22 541.24 350.81 534.38 352.16 527.39 352.74 520.61 354.56 513.66 355.33 506.8 356.72 499.92 357.98 492.99 358.99 486.23 360.76 479.23 361.01 472.38 362.32 465.48 363.29 458.54 363.9 451.58 364.25 444.64 365 437.68 365.15 430.71 365.12 423.74 364.78 417.44 365.25 411.13 365.37 404.82 364.82 398.51 364.93 390.17 365.26 381.83 365.3 373.48 365.22 366.52 365.55 359.56 365.18 352.62 364.68 345.64 364.68 338.74 363.65 331.85 362.66 324.94 361.91 317.99 361.45 311.04 360.84 304.28 359.06 297.39 357.84 290.44 356.94 283.61 355.39 276.66 354.47 269.87 352.73 262.97 351.52 256.07 350.38 249.1 349.58 242.2 348.41 235.26 347.44 228.36 346.26 221.47 344.98 214.56 343.81"/><polygon class="b" points="515.05 564.65 511.45 558.17 508.95 551.34 505.9 544.73 503.34 537.92 500.66 531.17 497.71 524.53 495.44 517.61 492.81 510.84 489.89 504.17 487.9 497.16 484.75 490.57 482.47 483.66 480.56 476.63 477.86 469.87 475.66 462.94 473.37 456.04 471.02 449.15 469.21 442.11 467.06 435.16 465.85 427.95 463.51 421.05 461.9 413.95 460.18 406.89 458.23 399.87 457.1 392.67 456.06 385.47 454.15 378.43 453.5 371.17 452.01 364.09 444.87 364.08 437.69 364.76 430.5 364.87 423.31 365.1 416.13 365.25 408.94 365.18 401.74 365.11 394.55 365.27 387.36 365.35 380.18 364.84 372.98 365.16 365.78 365.27 358.61 364.42 351.4 364.51 344 363.77 342.62 371.12 341.7 378.36 339.68 385.36 338.47 392.54 337.05 399.66 335.03 406.66 333.52 413.77 331.5 420.76 329.58 427.77 327.58 434.76 326.23 441.92 324.13 448.88 322.26 455.91 320.41 462.94 318.52 469.97 316.49 476.95 313.59 483.66 311.63 490.67 309.54 497.64 306.93 504.44 304.38 511.25 301.67 518 299.67 525.02 296.31 531.51 294.29 538.55 290.53 544.85 288.18 551.77 284.91 558.27 281.53 564.55 288.27 566.49 295.4 567.15 302.36 568.75 309.46 569.43 316.4 571.19 323.47 572.16 330.54 573.07 337.68 573.45 344.8 573.8 351.88 574.61 359 575.02 366.06 576.35 373.23 575.79 380.34 576.15 387.45 576.91 394.59 576.81 401.72 577.08 408.85 576.76 415.97 576.5 423.1 576.35 430.24 576.5 437.37 576.31 444.49 575.82 451.57 574.87 458.66 574.08 465.78 573.52 472.83 572.36 479.9 571.43 486.97 570.47 493.95 568.97 500.94 567.55 508.01 566.46 515.05 564.65"/><polygon class="a" points="476.54 134.96 471.23 131.17 464.17 129.35 456.98 128.07 449.76 126.91 442.46 126.41 435.2 125.45 427.87 125.45 420.57 125.02 413.27 124.58 405.96 124.08 398.64 124.58 391.32 124.4 384.01 124.73 376.68 124.53 369.39 125.36 362.08 125.69 354.81 126.43 347.46 126.51 340.29 128.06 332.99 128.8 326.14 131.46 320.06 134.96 325.9 139.18 333.1 140.57 340.32 141.68 347.5 143.11 354.78 143.91 362.08 144.37 369.39 144.61 376.69 145.23 384 145.38 391.32 145.36 398.64 145.26 405.96 145.64 413.28 145.73 420.59 145.29 427.88 144.49 435.21 144.52 442.49 143.71 449.73 142.7 456.95 141.6 464.3 141.15 471.25 138.8 476.54 134.96"/><polygon class="b" points="476.54 134.96 471.23 131.17 464.17 129.35 456.98 128.07 449.76 126.91 442.46 126.41 435.2 125.45 427.87 125.45 420.57 125.02 413.27 124.58 405.96 124.08 398.64 124.58 391.32 124.4 384.01 124.73 376.68 124.53 369.39 125.36 362.08 125.69 354.81 126.43 347.46 126.51 340.29 128.06 332.99 128.8 326.14 131.46 320.06 134.96 325.9 139.18 333.1 140.57 340.32 141.68 347.5 143.11 354.78 143.91 362.08 144.37 369.39 144.61 376.69 145.23 384 145.38 391.32 145.36 398.64 145.26 405.96 145.64 413.28 145.73 420.59 145.29 427.88 144.49 435.21 144.52 442.49 143.71 449.73 142.7 456.95 141.6 464.3 141.15 471.25 138.8 476.54 134.96"/><polygon points="433.87 382.52 426.89 382.86 419.68 382.88 412.49 383.38 405.28 383.24 398.08 383.35 390.89 382.86 383.69 382.89 376.49 382.97 369.3 382.85 362.22 382.27 356.98 387.03 355.93 393.92 354.34 400.96 353.01 408.03 352.32 415.23 350.47 422.2 349.21 429.3 347.5 436.29 346.04 443.36 343.91 450.24 342.45 457.31 340.5 464.25 338.3 471.11 335.43 477.76 333.67 484.76 331.58 491.65 329.45 498.54 326.28 505.06 324.49 512.07 321.59 518.67 318.96 525.38 316.31 532.06 314.2 538.98 310.78 545.56 314.33 552.65 321.68 554.18 328.93 555.81 336.24 557.16 343.53 558.6 350.88 559.69 358.22 560.95 365.64 561.47 373.05 562.02 380.46 562.85 387.9 563.13 395.34 563.05 402.15 562.45 408.96 562.22 415.77 561.83 422.6 561.95 429.36 561.02 436.91 560.27 444.52 559.97 451.94 558.18 459.44 557.02 467.01 556.25 474.42 554.6 481.3 552.39 485.43 545.5 481.83 538.98 479.74 532.05 476.83 525.46 474.25 518.73 471.68 511.99 469.72 505.05 467.15 498.31 465.24 491.35 463.41 484.38 460.99 477.57 458.78 470.7 456.97 463.72 455.8 456.57 454.06 449.58 451.52 442.79 450.46 435.62 448.42 428.7 446.91 421.65 445.42 414.6 444.17 407.5 442.02 400.6 440.67 393.53 439.28 386.7 433.87 382.52"/><polygon points="557.05 364.56 550.56 366.37 543.64 367.91 536.69 369.26 529.73 370.55 522.86 372.27 515.85 373.24 508.92 374.66 502.01 376.2 495.06 377.55 487.97 377.93 480.99 378.11 474.09 381.24 473.52 391.09 475.64 397.93 477.71 404.77 479.44 411.71 481.57 418.55 483.62 425.4 485.36 432.34 487.13 439.28 489.3 446.1 491.25 452.98 492.99 459.92 495.27 466.71 497.06 473.64 498.91 480.55 500.98 487.4 503.14 494.22 505.59 500.97 507.46 507.57 517.28 508.13 519.4 501.09 521.9 494.3 523.97 487.37 525.77 480.35 528.51 473.64 530.71 466.76 532.61 459.78 535.11 452.99 537.12 446.03 540.14 439.42 541.83 432.36 544.08 425.48 546.51 418.66 549.28 411.96 551.67 405.14 553.54 398.13 556.71 391.58 558.29 384.47 560.7 377.66 563.85 370.72 557.05 364.56"/><polygon points="322.26 380.97 315.13 378.5 308.11 377.74 301.06 377.12 294.11 375.78 287.08 374.9 280.2 373.16 273.15 372.35 266.23 370.84 259.3 369.41 252.38 367.88 245.6 365.82 238.8 364.35 232.66 371.2 234.79 377.84 237.06 384.71 239.5 391.51 241.88 398.34 244.7 405.01 246.99 411.86 248.8 418.89 251.52 425.59 253.75 432.47 256.76 439.08 258.49 446.13 260.97 452.93 263.38 459.75 265.63 466.62 268.02 473.46 270.55 480.24 272.69 487.15 274.72 494.1 277.03 500.95 278.75 507.95 289 508.37 291.07 501.17 292.4 494.11 295.09 487.44 296.92 480.53 298.64 473.58 300.75 466.74 302.32 459.75 304.24 452.86 306.78 446.15 308.35 439.16 310.53 432.34 312.3 425.4 314.94 418.72 316.12 411.62 318.91 404.97 320.37 397.94 322.39 391.06 322.26 380.97"/><polygon points="397.01 352.35 396.92 351.59 397.98 352.13 397.96 352.67 405.06 352.43 412.13 352.17 419.16 351.32 426.22 351.3 433.25 350.62 440.27 349.82 447.31 349.25 454.38 348.91 461.39 348.03 468.42 347.29 475.42 346.28 482.53 346.27 489.46 344.73 496.52 344.14 503.56 343.47 510.53 342.28 517.49 341.06 524.43 339.71 531.44 338.82 538.43 337.86 545.33 336.65 547 327.05 541.23 323.57 535.46 319.57 530.25 314.85 525.18 310.02 520.48 304.84 515.36 300.04 511.03 294.53 506.69 289.03 503.14 282.98 498.99 277.32 495.64 271.17 492.27 265.02 489.71 258.49 486.39 252.31 484.04 245.71 481.67 239.12 479.34 232.53 476.92 225.95 474.93 218.68 473.77 211.22 471.27 204.06 470.01 196.63 468.9 189.19 467.97 181.72 466.85 174.28 466.4 166.77 465.9 159.56 459.17 154.67 452.75 156.19 446.1 157.61 439.29 157.99 432.52 158.56 425.8 159.9 418.97 159.71 412.18 160.23 405.38 159.78 398.58 159.93 398.04 159.35 391.22 159.99 384.4 159.75 377.55 160.33 370.76 159.31 363.93 159.08 357.17 158.1 350.43 157.06 343.63 156.28 337.19 154.65 330.28 159.27 329.99 166.76 329.66 174.26 327.99 181.61 327.61 189.12 325.59 196.38 325.11 203.91 322.89 211.1 321.26 218.42 318.79 225.51 317.44 232.43 314.88 238.98 312.73 245.66 309.45 251.9 307.05 258.51 303.66 264.66 300.57 270.95 297.23 277.12 293.45 283.04 289.95 289.15 285.45 294.57 280.57 299.63 276.4 305.32 270.92 309.77 266.26 315.08 260.58 319.24 254.87 323.32 248.83 327.09 250.25 336.78 257.28 337.84 264.23 338.84 271.18 339.9 278.14 340.9 285.03 342.32 292.01 343.12 298.97 344.07 305.88 345.41 312.96 345.44 319.84 347.12 326.92 347.07 333.89 347.94 340.89 348.6 347.83 349.93 354.87 350.18 361.9 350.5 368.9 351.23 375.94 351.12 382.95 351.92 389.98 351.81 397.01 352.35"/><polygon points="514.86 565.36 521.43 561.97 527.86 558.93 534.57 556.5 540.76 552.94 547.32 550.19 553.8 547.25 560.42 544.65 566.6 541.05 573.16 538.3 579.77 535.64 586.21 532.63 592.43 529.13 598.91 526.21 605.41 523.3 612.12 520.85 618.35 517.51 611.33 517.84 604.24 517.6 597.14 517.53 590.05 517.14 582.96 517.33 575.87 517.45 568.77 517.94 561.68 517.79 554.59 517.04 547.49 517.32 540.39 517.85 533.21 517.4 530.48 524.23 528.14 531.13 525.93 538.09 522.93 544.73 520.04 551.43 517.25 558.17 514.86 565.36"/><polygon class="b" points="514.86 565.36 521.43 561.97 527.86 558.93 534.57 556.5 540.76 552.94 547.32 550.19 553.8 547.25 560.42 544.65 566.6 541.05 573.16 538.3 579.77 535.64 586.21 532.63 592.43 529.13 598.91 526.21 605.41 523.3 612.12 520.85 618.35 517.51 611.33 517.84 604.24 517.6 597.14 517.53 590.05 517.14 582.96 517.33 575.87 517.45 568.77 517.94 561.68 517.79 554.59 517.04 547.49 517.32 540.39 517.85 533.21 517.4 530.48 524.23 528.14 531.13 525.93 538.09 522.93 544.73 520.04 551.43 517.25 558.17 514.86 565.36"/></svg>