<svg xmlns="http://www.w3.org/2000/svg" xmlns:xlink="http://www.w3.org/1999/xlink" viewBox="0 0 800 800"><defs><style>.a,.c{fill:none;}.b{fill:#fff;}.c{stroke:#000;stroke-linejoin:bevel;stroke-width:13px;}.d{clip-path:url(#a);}</style><clipPath id="a"><polyline class="a" points="286.34 131.97 285.77 138.76 284.1 145.36 284.27 152.18 283.89 158.92 284.21 161.82 283.77 169.12 283.72 176.41 283.42 183.69 283.02 190.98 282.01 198.2 281.45 205.47 280.56 212.71 279.42 219.91 278.16 227.1 276.15 234.12 274.4 241.19 272.5 248.22 271.18 255.43 268.87 262.35 266.77 269.35 264.27 276.2 261.5 282.96 258.61 289.66 255.64 296.32 252.17 302.74 249.4 309.5 246.06 315.98 242.73 322.48 238.84 328.43 235.76 334.83 233.66 341.64 231.2 348.26 228.25 354.73 226.2 361.52 224.4 368.38 223.31 375.4 221.72 382.32 221.02 389.38 220.46 396.44 220.34 403.53 219.78 410.61 220.46 417.77 220.57 424.95 221.02 432.13 221.72 439.28 223.38 446.29 224.64 453.36 226.1 460.39 227.87 467.36 230.26 474.14 232.6 480.95 235.74 487.42 238.66 493.99 242.63 500 246.21 506.21 250.08 512.25 254.16 518.17 259.42 523.12 263.74 528.89 269.32 533.45 274.23 538.72 280.16 542.81 285.99 546.97 291.82 551.17 297.96 554.92 304.68 557.55 310.85 561.29 317.67 563.6 324.5 565.8 331.25 568.19 338.21 569.93 344.97 572.5 352.17 573.15 359.15 574.83 366.27 575.68 373.4 576.51 380.57 576.75 387.71 577.36 394.88 577.62 402.05 578.37 409.33 577.81 416.61 577.7 423.84 576.74 431.11 576.3 438.37 575.71 445.48 574.05 452.67 572.93 459.84 571.63 466.79 569.42 473.69 567.1 480.75 565.22 487.19 561.71 494.08 559.29 500.33 555.53 506.74 552.09 513.15 548.57 519 544.2 524.25 539.1 529.78 534.4 534.78 529.12 540 524.04 544.51 518.33 549.11 512.67 552.78 506.37 556.92 500.35 560.16 493.82 562.86 487.05 565.77 480.38 568.1 473.49 570.62 466.65 572.58 459.63 574.29 452.54 575.57 445.36 576.23 438.09 576.99 430.85 577.84 423.62 577.85 416.33 577.9 409.05 578.13 401.84 577.3 394.67 577.29 387.42 575.79 380.34 574.43 373.27 572.69 366.28 571.46 359.15 569 352.36 566.51 345.59 563.67 338.97 560.94 332.3 557.54 325.94 554.35 319.41 551.09 312.91 548.54 306.08 545.31 299.56 542.35 292.91 539.54 286.19 537.34 279.25 534.98 272.37 532.89 265.4 531.01 258.37 528.84 251.42 527.2 244.33 526.13 237.12 524.62 230 523.89 222.76 522.89 215.57 521.53 208.4 520.99 201.15 520.32 193.9 519.9 186.63 520.42 179.35 520.1 172.07 521.02 164.83 520.89 159.32 520.92 152.48 519.95 145.71 518.94 138.96 517.8 132.24"/></clipPath></defs><title>kiln-1</title><polygon class="b" points="400 588.89 392.82 590.19 385.5 590.33 378.39 592.08 371.16 592.94 363.91 593.65 356.62 594 349.4 594.98 342.2 596.05 335.04 597.45 327.78 598.07 320.54 598.79 313.29 599.52 306.14 601.01 298.9 601.7 291.67 602.55 284.4 603.07 277.2 604.17 270.04 605.55 262.78 606.18 255.57 607.14 248.34 608.06 241.18 609.39 233.88 609.69 226.66 610.64 219.47 611.88 212.22 612.59 204.96 613.15 197.83 614.82 190.61 615.82 183.36 616.5 176.15 617.55 168.92 618.43 161.71 619.46 154.46 620.15 147.18 620.61 139.98 621.75 132.77 622.82 125.58 624.05 118.28 624.37 111.09 625.67 103.93 626.36 110.96 627.32 117.88 629.36 124.89 630.94 132 632 139.15 632.82 146.14 634.52 153.26 635.52 160.16 637.66 167.35 638.33 174.28 640.28 181.39 641.34 188.52 642.3 195.41 644.52 202.48 645.77 209.58 646.84 216.6 648.35 223.6 649.97 230.64 651.38 237.71 652.66 244.87 653.48 251.87 655.08 259.01 655.97 265.96 657.84 272.98 659.4 280.05 660.65 287.17 661.66 294.08 663.75 301.16 665.01 308.3 665.95 315.43 666.91 322.36 668.89 329.44 670.16 336.41 671.93 343.54 672.87 350.55 674.47 357.62 675.75 364.74 676.8 371.84 677.94 378.74 680.05 385.81 681.36 392.97 682.25 400 683.66 407.08 682.58 414.08 680.96 421.14 679.65 428.29 678.79 435.29 677.16 442.35 675.82 449.44 674.67 456.33 672.47 463.5 671.76 470.45 669.84 477.49 668.43 484.62 667.45 491.6 665.75 498.76 664.95 505.7 663.04 512.8 661.92 519.77 660.15 526.8 658.71 533.87 657.46 541.03 656.65 548.05 655.15 555.13 653.89 562.14 652.34 569.18 650.89 576.19 649.34 583.33 648.4 590.37 647 597.43 645.68 604.53 644.52 611.55 643.02 618.65 641.89 625.56 639.76 632.66 638.62 639.63 636.84 646.75 635.83 653.86 634.74 660.88 633.22 667.97 632.03 674.99 630.48 682 628.88 689.04 627.41 695.69 626.38 688.98 625.16 681.67 624.96 674.53 623.39 667.34 622.26 660.02 622.09 652.79 621.23 645.65 619.69 638.38 619.14 631.14 618.34 623.96 617.11 616.73 616.23 609.54 615.08 602.31 614.27 595.08 613.48 587.88 612.39 580.62 611.76 573.4 610.81 566.19 609.89 558.96 609 551.78 607.79 544.57 606.76 537.33 605.99 530.06 605.46 522.88 604.21 515.61 603.62 508.39 602.71 501.23 601.32 493.96 600.74 486.77 599.52 479.44 599.44 472.29 597.96 465.02 597.38 457.88 595.79 450.66 594.83 443.35 594.57 436.18 593.24 428.86 593.03 421.69 591.65 414.44 590.96 407.18 590.23 400 588.89"/><polygon class="c" points="400 588.89 392.82 590.19 385.5 590.33 378.39 592.08 371.16 592.94 363.91 593.65 356.62 594 349.4 594.98 342.2 596.05 335.04 597.45 327.78 598.07 320.54 598.79 313.29 599.52 306.14 601.01 298.9 601.7 291.67 602.55 284.4 603.07 277.2 604.17 270.04 605.55 262.78 606.18 255.57 607.14 248.34 608.06 241.18 609.39 233.88 609.69 226.66 610.64 219.47 611.88 212.22 612.59 204.96 613.15 197.83 614.82 190.61 615.82 183.36 616.5 176.15 617.55 168.92 618.43 161.71 619.46 154.46 620.15 147.18 620.61 139.98 621.75 132.77 622.82 125.58 624.05 118.28 624.37 111.09 625.67 103.93 626.36 110.96 627.32 117.88 629.36 124.89 630.94 132 632 139.15 632.82 146.14 634.52 153.26 635.52 160.16 637.66 167.35 638.33 174.28 640.28 181.39 641.34 188.52 642.3 195.41 644.52 202.48 645.77 209.58 646.84 216.6 648.35 223.6 649.97 230.64 651.38 237.71 652.66 244.87 653.48 251.87 655.08 259.01 655.97 265.96 657.84 272.98 659.4 280.05 660.65 287.17 661.66 294.08 663.75 301.16 665.01 308.3 665.95 315.43 666.91 322.36 668.89 329.44 670.16 336.41 671.93 343.54 672.87 350.55 674.47 357.62 675.75 364.74 676.8 371.84 677.94 378.74 680.05 385.81 681.36 392.97 682.25 400 683.66 407.08 682.58 414.08 680.96 421.14 679.65 428.29 678.79 435.29 677.16 442.35 675.82 449.44 674.67 456.33 672.47 463.5 671.76 470.45 669.84 477.49 668.43 484.62 667.45 491.6 665.75 498.76 664.95 505.7 663.04 512.8 661.92 519.77 660.15 526.8 658.71 533.87 657.46 541.03 656.65 548.05 655.15 555.13 653.89 562.14 652.34 569.18 650.89 576.19 649.34 583.33 648.4 590.37 647 597.43 645.68 604.53 644.52 611.55 643.02 618.65 641.89 625.56 639.76 632.66 638.62 639.63 636.84 646.75 635.83 653.86 634.74 660.88 633.22 667.97 632.03 674.99 630.48 682 628.88 689.04 627.41 695.69 626.38 688.98 625.16 681.67 624.96 674.53 623.39 667.34 622.26 660.02 622.09 652.79 621.23 645.65 619.69 638.38 619.14 631.14 618.34 623.96 617.11 616.73 616.23 609.54 615.08 602.31 614.27 595.08 613.48 587.88 612.39 580.62 611.76 573.4 610.81 566.19 609.89 558.96 609 551.78 607.79 544.57 606.76 537.33 605.99 530.06 605.46 522.88 604.21 515.61 603.62 508.39 602.71 501.23 601.32 493.96 600.74 486.77 599.52 479.44 599.44 472.29 597.96 465.02 597.38 457.88 595.79 450.66 594.83 443.35 594.57 436.18 593.24 428.86 593.03 421.69 591.65 414.44 590.96 407.18 590.23 400 588.89"/><polygon class="b" points="400 519.01 392.95 520.07 385.95 521.51 378.93 522.78 371.82 523.54 364.8 524.86 357.72 525.84 350.62 526.64 343.6 527.93 336.58 529.26 329.51 530.28 322.52 531.8 315.37 532.32 308.28 533.2 301.38 535.2 294.21 535.55 287.18 536.81 280.21 538.44 273.04 538.84 266.09 540.54 259.04 541.67 251.99 542.83 244.91 543.74 237.94 545.37 230.77 545.81 223.76 547.15 216.76 548.64 209.69 549.61 202.56 550.31 195.56 551.75 188.47 552.64 181.51 554.39 174.42 555.23 167.38 556.5 160.24 557.05 153.25 558.58 146.11 559.18 139.14 560.81 132.08 561.9 124.95 562.58 117.93 563.91 110.83 564.79 103.94 566.35 110.92 567.26 117.94 568.58 125 569.61 132 571.03 139.14 571.64 146.13 573.13 153.17 574.31 160.18 575.7 167.33 576.25 174.27 578.02 181.44 578.45 188.38 580.27 195.42 581.43 202.55 582.03 209.64 582.88 216.6 584.57 223.63 585.86 230.66 587.06 237.71 588.2 244.82 588.98 251.82 590.36 258.92 591.23 265.92 592.68 273.06 593.23 280.01 595 287.12 595.77 294.19 596.74 301.18 598.31 308.25 599.34 315.41 599.76 322.41 601.26 329.49 602.18 336.5 603.63 343.54 604.84 350.59 605.98 357.63 607.14 364.68 608.3 371.81 608.96 378.87 610.05 385.83 611.81 392.99 612.33 400 613.3 407.08 612.88 414.16 611.93 421.08 609.94 428.21 609.34 435.2 607.85 442.29 606.92 449.38 606.04 456.36 604.5 463.43 603.52 470.51 602.54 477.52 601.17 484.55 599.88 491.69 599.36 498.76 598.34 505.71 596.63 512.8 595.77 519.86 594.66 526.9 593.52 533.9 592.06 541.07 591.67 548.05 590.13 555.05 588.72 562.08 587.4 569.25 587.06 576.23 585.48 583.3 584.46 590.27 582.83 597.36 581.92 604.4 580.73 611.47 579.67 618.49 578.33 625.54 577.21 632.59 576.04 639.74 575.5 646.77 574.22 653.85 573.27 660.83 571.67 667.95 571 674.91 569.27 682.01 568.44 689.17 567.89 696.48 566.35 689.16 564.95 682 564.54 674.94 563.42 667.93 562.04 660.94 560.58 653.85 559.71 646.84 558.29 639.78 557.22 632.71 556.21 625.71 554.79 618.57 554.21 611.59 552.66 604.44 552.15 597.47 550.5 590.36 549.83 583.3 548.76 576.25 547.6 569.2 546.51 562.28 544.59 555.14 543.99 548.12 542.71 541.1 541.35 534.03 540.36 526.91 539.66 519.92 538.15 512.91 536.74 505.78 536.1 498.71 535.12 491.76 533.33 484.58 532.96 477.68 530.89 470.56 530.17 463.53 528.9 456.37 528.43 449.45 526.47 442.4 525.33 435.36 524.13 428.29 523.11 421.25 521.9 414.06 521.57 407.13 519.63 400 519.01"/><polygon class="c" points="400 519.01 392.95 520.07 385.95 521.51 378.93 522.78 371.82 523.54 364.8 524.86 357.72 525.84 350.62 526.64 343.6 527.93 336.58 529.26 329.51 530.28 322.52 531.8 315.37 532.32 308.28 533.2 301.38 535.2 294.21 535.55 287.18 536.81 280.21 538.44 273.04 538.84 266.09 540.54 259.04 541.67 251.99 542.83 244.91 543.74 237.94 545.37 230.77 545.81 223.76 547.15 216.76 548.64 209.69 549.61 202.56 550.31 195.56 551.75 188.47 552.64 181.51 554.39 174.42 555.23 167.38 556.5 160.24 557.05 153.25 558.58 146.11 559.18 139.14 560.81 132.08 561.9 124.95 562.58 117.93 563.91 110.83 564.79 103.94 566.35 110.92 567.26 117.94 568.58 125 569.61 132 571.03 139.14 571.64 146.13 573.13 153.17 574.31 160.18 575.7 167.33 576.25 174.27 578.02 181.44 578.45 188.38 580.27 195.42 581.43 202.55 582.03 209.64 582.88 216.6 584.57 223.63 585.86 230.66 587.06 237.71 588.2 244.82 588.98 251.82 590.36 258.92 591.23 265.92 592.68 273.06 593.23 280.01 595 287.12 595.77 294.19 596.74 301.18 598.31 308.25 599.34 315.41 599.76 322.41 601.26 329.49 602.18 336.5 603.63 343.54 604.84 350.59 605.98 357.63 607.14 364.68 608.3 371.81 608.96 378.87 610.05 385.83 611.81 392.99 612.33 400 613.3 407.08 612.88 414.16 611.93 421.08 609.94 428.21 609.34 435.2 607.85 442.29 606.92 449.38 606.04 456.36 604.5 463.43 603.52 470.51 602.54 477.52 601.17 484.55 599.88 491.69 599.36 498.76 598.34 505.71 596.63 512.8 595.77 519.86 594.66 526.9 593.52 533.9 592.06 541.07 591.67 548.05 590.13 555.05 588.72 562.08 587.4 569.25 587.06 576.23 585.48 583.3 584.46 590.27 582.83 597.36 581.92 604.4 580.73 611.47 579.67 618.49 578.33 625.54 577.21 632.59 576.04 639.74 575.5 646.77 574.22 653.85 573.27 660.83 571.67 667.95 571 674.91 569.27 682.01 568.44 689.17 567.89 696.48 566.35 689.16 564.95 682 564.54 674.94 563.42 667.93 562.04 660.94 560.58 653.85 559.71 646.84 558.29 639.78 557.22 632.71 556.21 625.71 554.79 618.57 554.21 611.59 552.66 604.44 552.15 597.47 550.5 590.36 549.83 583.3 548.76 576.25 547.6 569.2 546.51 562.28 544.59 555.14 543.99 548.12 542.71 541.1 541.35 534.03 540.36 526.91 539.66 519.92 538.15 512.91 536.74 505.78 536.1 498.71 535.12 491.76 533.33 484.58 532.96 477.68 530.89 470.56 530.17 463.53 528.9 456.37 528.43 449.45 526.47 442.4 525.33 435.36 524.13 428.29 523.11 421.25 521.9 414.06 521.57 407.13 519.63 400 519.01"/><polygon class="b" points="104.53 566.82 104.37 574.28 104.87 581.78 104.39 589.27 104 596.77 104.49 604.27 104.77 611.77 104.39 619.28 104.8 626.54 111.63 627.71 118.5 629.92 125.56 631.21 132.71 632 139.63 633.97 146.71 635.17 153.82 636.14 160.86 637.56 167.8 639.45 175.01 639.9 181.9 642.06 189.1 642.61 196.11 644.17 203.14 645.56 210.14 647.1 217.14 648.69 224.17 650.09 231.33 650.84 238.21 653.04 245.41 653.6 252.34 655.51 259.44 656.6 266.51 657.81 273.43 659.82 280.56 660.69 287.55 662.35 294.64 663.45 301.62 665.17 308.66 666.55 315.84 667.24 322.75 669.28 329.97 669.74 336.99 671.25 343.92 673.21 350.96 674.59 357.98 676.06 365.13 676.88 372.13 678.52 379.3 679.22 386.21 681.26 393.23 682.84 400.36 683.94 407.35 682.09 414.38 680.62 421.48 679.5 428.52 678.11 435.66 677.22 442.7 675.82 449.79 674.66 456.79 673.01 463.86 671.77 470.78 669.7 477.81 668.25 485.01 667.65 492.09 666.44 499.13 665.06 506.1 663.28 513.09 661.61 520.21 660.62 527.17 658.83 534.22 657.47 541.43 656.9 548.34 654.82 555.44 653.73 562.51 652.47 569.53 650.94 576.61 649.71 583.63 648.18 590.62 646.5 597.7 645.28 604.72 643.72 611.79 642.48 618.96 641.72 625.98 640.15 633.06 638.92 640.01 637.08 647.01 635.44 654.17 634.59 661.3 633.63 668.24 631.68 675.33 630.52 682.33 628.85 689.35 627.25 696.54 626.38 696.58 618.91 696.1 611.47 696.72 604.02 696.63 596.58 696.72 589.13 696.2 581.68 696.75 574.23 696.51 566.77 689.5 568.23 682.42 569.1 675.3 569.82 668.38 571.73 661.21 572.07 654.16 573.17 647.11 574.32 640.18 576.18 633.09 577 625.94 577.49 618.99 579.25 611.96 580.48 604.92 581.66 597.8 582.35 590.77 583.55 583.78 585.01 576.67 585.77 569.62 586.86 562.52 587.65 555.55 589.26 548.42 589.81 541.5 591.81 534.38 592.44 527.42 594.11 520.3 594.82 513.18 595.48 506.19 596.98 499.17 598.31 492.15 599.6 485.07 600.57 477.94 601.17 470.98 602.9 463.89 603.77 456.79 604.57 449.82 606.21 442.67 606.74 435.74 608.6 428.64 609.43 421.54 610.23 414.53 611.66 407.41 612.41 400.39 613.94 393.39 612.42 386.36 611.19 379.25 610.49 372.27 608.97 365.1 608.66 358.14 607.03 351.1 605.87 343.98 605.26 337.04 603.44 329.97 602.54 322.91 601.48 315.94 599.94 308.76 599.61 301.75 598.36 294.67 597.49 287.74 595.62 280.64 594.87 273.69 593.18 266.6 592.35 259.53 591.44 252.44 590.62 245.46 589.05 238.46 587.67 231.31 587.25 224.27 586.08 217.2 585.13 210.26 583.31 203.13 582.78 196.1 581.54 189.06 580.34 182.04 579.07 175.06 577.54 167.94 576.86 160.83 576.14 153.78 575.04 146.76 573.79 139.77 572.28 132.72 571.21 125.64 570.31 118.66 568.72 111.63 567.45 104.53 566.82"/><polygon class="c" points="104.53 566.82 104.37 574.28 104.87 581.78 104.39 589.27 104 596.77 104.49 604.27 104.77 611.77 104.39 619.28 104.8 626.54 111.63 627.71 118.5 629.92 125.56 631.21 132.71 632 139.63 633.97 146.71 635.17 153.82 636.14 160.86 637.56 167.8 639.45 175.01 639.9 181.9 642.06 189.1 642.61 196.11 644.17 203.14 645.56 210.14 647.1 217.14 648.69 224.17 650.09 231.33 650.84 238.21 653.04 245.41 653.6 252.34 655.51 259.44 656.6 266.51 657.81 273.43 659.82 280.56 660.69 287.55 662.35 294.64 663.45 301.62 665.17 308.66 666.55 315.84 667.24 322.75 669.28 329.97 669.74 336.99 671.25 343.92 673.21 350.96 674.59 357.98 676.06 365.13 676.88 372.13 678.52 379.3 679.22 386.21 681.26 393.23 682.84 400.36 683.94 407.35 682.09 414.38 680.62 421.48 679.5 428.52 678.11 435.66 677.22 442.7 675.82 449.79 674.66 456.79 673.01 463.86 671.77 470.78 669.7 477.81 668.25 485.01 667.65 492.09 666.44 499.13 665.06 506.1 663.28 513.09 661.61 520.21 660.62 527.17 658.83 534.22 657.47 541.43 656.9 548.34 654.82 555.44 653.73 562.51 652.47 569.53 650.94 576.61 649.71 583.63 648.18 590.62 646.5 597.7 645.28 604.72 643.72 611.79 642.48 618.96 641.72 625.98 640.15 633.06 638.92 640.01 637.08 647.01 635.44 654.17 634.59 661.3 633.63 668.24 631.68 675.33 630.52 682.33 628.85 689.35 627.25 696.54 626.38 696.58 618.91 696.1 611.47 696.72 604.02 696.63 596.58 696.72 589.13 696.2 581.68 696.75 574.23 696.51 566.77 689.5 568.23 682.42 569.1 675.3 569.82 668.38 571.73 661.21 572.07 654.16 573.17 647.11 574.32 640.18 576.18 633.09 577 625.94 577.49 618.99 579.25 611.96 580.48 604.92 581.66 597.8 582.35 590.77 583.55 583.78 585.01 576.67 585.77 569.62 586.86 562.52 587.65 555.55 589.26 548.42 589.81 541.5 591.81 534.38 592.44 527.42 594.11 520.3 594.82 513.18 595.48 506.19 596.98 499.17 598.31 492.15 599.6 485.07 600.57 477.94 601.17 470.98 602.9 463.89 603.77 456.79 604.57 449.82 606.21 442.67 606.74 435.74 608.6 428.64 609.43 421.54 610.23 414.53 611.66 407.41 612.41 400.39 613.94 393.39 612.42 386.36 611.19 379.25 610.49 372.27 608.97 365.1 608.66 358.14 607.03 351.1 605.87 343.98 605.26 337.04 603.44 329.97 602.54 322.91 601.48 315.94 599.94 308.76 599.61 301.75 598.36 294.67 597.49 287.74 595.62 280.64 594.87 273.69 593.18 266.6 592.35 259.53 591.44 252.44 590.62 245.46 589.05 238.46 587.67 231.31 587.25 224.27 586.08 217.2 585.13 210.26 583.31 203.13 582.78 196.1 581.54 189.06 580.34 182.04 579.07 175.06 577.54 167.94 576.86 160.83 576.14 153.78 575.04 146.76 573.79 139.77 572.28 132.72 571.21 125.64 570.31 118.66 568.72 111.63 567.45 104.53 566.82"/><polygon points="400.2 683.95 400.06 676.99 400.19 669.98 400.6 662.98 399.72 655.96 400.48 648.96 400.22 641.95 400.13 634.94 400.59 627.93 399.98 620.91 400.25 613.85 407.29 612.46 414.4 611.68 421.43 610.44 428.44 609.03 435.52 608.1 442.55 606.86 449.59 605.66 456.77 605.36 463.79 604.02 470.75 602.31 477.89 601.79 484.97 600.84 491.9 598.94 499.02 598.25 506.09 597.27 513.11 596 520.15 594.83 527.14 593.31 534.26 592.61 541.23 591 548.33 590.2 555.47 589.59 562.45 588.08 569.53 587.1 576.51 585.56 583.57 584.44 590.59 583.14 597.71 582.44 604.72 581.05 611.83 580.28 618.91 579.29 625.97 578.21 632.99 576.84 640.07 575.94 647.12 574.76 654.15 573.51 661.14 572 668.19 570.81 675.36 570.43 682.33 568.73 689.38 567.55 696.38 566.91 696.57 574.28 696.3 581.78 696.35 589.27 696.83 596.77 696.79 604.27 696.61 611.77 696.61 619.28 696.87 627.08 689.41 627.93 682.47 629.9 675.26 630.47 668.3 632.29 661.24 633.63 654.27 635.43 647.1 636.19 640.08 637.75 633.08 639.36 625.9 640.08 618.83 641.38 611.77 642.7 604.79 644.48 597.65 645.39 590.72 647.34 583.55 648.09 576.66 650.3 569.6 651.61 562.42 652.32 555.41 653.95 548.3 654.99 541.31 656.68 534.19 657.69 527.28 659.8 520.14 660.72 513.02 661.75 506.07 663.66 498.95 664.72 491.9 666.1 484.95 668.06 477.91 669.47 470.67 669.9 463.74 671.96 456.7 673.38 449.58 674.41 442.62 676.26 435.5 677.31 428.37 678.31 421.4 680.11 414.25 680.99 407.29 682.93 400.2 683.95"/><polygon class="c" points="400.2 683.95 400.06 676.99 400.19 669.98 400.6 662.98 399.72 655.96 400.48 648.96 400.22 641.95 400.13 634.94 400.59 627.93 399.98 620.91 400.25 613.85 407.29 612.46 414.4 611.68 421.43 610.44 428.44 609.03 435.52 608.1 442.55 606.86 449.59 605.66 456.77 605.36 463.79 604.02 470.75 602.31 477.89 601.79 484.97 600.84 491.9 598.94 499.02 598.25 506.09 597.27 513.11 596 520.15 594.83 527.14 593.31 534.26 592.61 541.23 591 548.33 590.2 555.47 589.59 562.45 588.08 569.53 587.1 576.51 585.56 583.57 584.44 590.59 583.14 597.71 582.44 604.72 581.05 611.83 580.28 618.91 579.29 625.97 578.21 632.99 576.84 640.07 575.94 647.12 574.76 654.15 573.51 661.14 572 668.19 570.81 675.36 570.43 682.33 568.73 689.38 567.55 696.38 566.91 696.57 574.28 696.3 581.78 696.35 589.27 696.83 596.77 696.79 604.27 696.61 611.77 696.61 619.28 696.87 627.08 689.41 627.93 682.47 629.9 675.26 630.47 668.3 632.29 661.24 633.63 654.27 635.43 647.1 636.19 640.08 637.75 633.08 639.36 625.9 640.08 618.83 641.38 611.77 642.7 604.79 644.48 597.65 645.39 590.72 647.34 583.55 648.09 576.66 650.3 569.6 651.61 562.42 652.32 555.41 653.95 548.3 654.99 541.31 656.68 534.19 657.69 527.28 659.8 520.14 660.72 513.02 661.75 506.07 663.66 498.95 664.72 491.9 666.1 484.95 668.06 477.91 669.47 470.67 669.9 463.74 671.96 456.7 673.38 449.58 674.41 442.62 676.26 435.5 677.31 428.37 678.31 421.4 680.11 414.25 680.99 407.29 682.93 400.2 683.95"/><polyline class="c" points="286.81 132.07 285.18 138.66 284.93 145.46 284.03 152.16 283.73 158.92 284 161.82 283.75 169.12 283.75 176.41 283.02 183.67 283.34 191 281.89 198.19 281.4 205.47 280.12 212.64 279.33 219.9 277.69 227 276.65 234.24 275.03 241.35 272.84 248.32 271.22 255.44 268.39 262.2 266.49 269.25 264.2 276.18 261.27 282.87 258.91 289.79 256.01 296.49 252.53 302.92 249.25 309.43 246.32 316.12 242.44 322.31 238.74 328.39 236.25 335.05 233.49 341.57 230.45 347.99 228.55 354.83 226.34 361.56 224.54 368.42 223.3 375.4 221.69 382.31 220.95 389.37 220.91 396.48 220.52 403.54 219.67 410.61 220.47 417.77 220.3 424.97 220.9 432.14 222.4 439.19 223.72 446.23 224.74 453.33 226.13 460.38 228.18 467.27 230.34 474.12 232.89 480.83 235.86 487.37 239.23 493.7 242.76 499.93 246.12 506.26 250.34 512.07 254.28 518.08 259.04 523.46 264.27 528.38 269.12 533.66 274.67 538.2 280.05 542.95 285.73 547.36 291.92 551.01 298.3 554.3 304.35 558.23 310.85 561.29 317.59 563.8 324.38 566.14 331.15 568.55 337.99 570.78 345.12 571.83 352.18 573.07 359.17 574.71 366.2 576.28 373.42 576.33 380.53 577.29 387.7 577.64 394.87 578.13 402.05 577.91 409.34 578.23 416.61 577.63 423.84 576.72 431.16 576.82 438.37 575.7 445.52 574.28 452.66 572.88 459.82 571.55 466.89 569.76 473.68 567.06 480.78 565.3 487.41 562.24 493.98 559.09 500.26 555.41 506.7 552.02 512.71 547.92 518.79 543.92 524.59 539.51 530.08 534.72 534.75 529.09 540.16 524.18 544.87 518.6 548.63 512.34 552.99 506.5 556.63 500.19 560.08 493.78 562.8 487.02 565.66 480.34 568.7 473.69 570.5 466.61 571.97 459.48 573.46 452.37 575.35 445.32 575.84 438.04 577.33 430.88 577.66 423.61 577.51 416.32 577.77 409.05 578 401.84 577.39 394.66 576.64 387.5 575.38 380.41 574.65 373.23 572.66 366.29 571.51 359.13 568.95 352.37 566.31 345.67 564.13 338.77 561.25 332.15 557.31 326.07 554.63 319.27 551.25 312.83 548.53 306.08 545.05 299.67 542.32 292.92 540.32 285.9 537.64 279.15 535.07 272.34 533.35 265.26 530.55 258.5 528.68 251.46 527.96 244.16 526.02 237.14 524.35 230.05 523.93 222.75 522.33 215.64 521.66 208.39 521.2 201.13 520.79 193.88 519.99 186.63 520.28 179.35 519.96 172.07 520.49 164.81 520.21 159.32 520.02 152.53 520.08 145.69 519.02 138.95 517.55 132.29"/><polyline class="b" points="519.96 155.27 515.2 160.39 508.37 162.65 501.31 163.82 494.42 165.7 487.26 166.13 480.27 167.55 473.22 168.7 466.05 168.65 458.93 169.07 451.85 170.06 444.71 169.97 437.59 170.39 430.48 171.05 423.34 170.88 416.21 171.24 409.08 171.77 401.94 171.21 394.81 171.41 387.68 171.2 380.54 171.35 373.42 170.71 366.26 171.28 359.17 170.18 352.06 169.66 344.95 169.17 337.83 168.75 330.72 168.23 323.64 167.35 316.52 166.76 309.48 165.56 302.61 163.61 295.6 162.29 288.97 159.75 284.25 155.27"/><polyline class="c" points="519.96 155.27 515.2 160.39 508.37 162.65 501.31 163.82 494.42 165.7 487.26 166.13 480.27 167.55 473.22 168.7 466.05 168.65 458.93 169.07 451.85 170.06 444.71 169.97 437.59 170.39 430.48 171.05 423.34 170.88 416.21 171.24 409.08 171.77 401.94 171.21 394.81 171.41 387.68 171.2 380.54 171.35 373.42 170.71 366.26 171.28 359.17 170.18 352.06 169.66 344.95 169.17 337.83 168.75 330.72 168.23 323.64 167.35 316.52 166.76 309.48 165.56 302.61 163.61 295.6 162.29 288.97 159.75 284.25 155.27"/><polyline class="b" points="520.4 179.27 514.8 183.53 508.19 186.02 501.42 188.32 494.36 189.38 487.29 190.28 480.24 191.32 473.21 192.65 466.09 193.1 458.97 193.67 451.84 193.82 444.73 194.31 437.61 194.76 430.49 195.38 423.35 195.24 416.21 195.03 409.07 195.21 401.94 195.29 394.8 195.74 387.67 195.29 380.54 195.17 373.41 195.05 366.3 194.37 359.15 194.5 352.02 194.23 344.94 193.31 337.78 193.36 330.71 192.28 323.61 191.6 316.59 190.29 309.44 189.78 302.43 188.44 295.48 186.72 288.73 184.28 284.31 179.27"/><polyline class="c" points="520.4 179.27 514.8 183.53 508.19 186.02 501.42 188.32 494.36 189.38 487.29 190.28 480.24 191.32 473.21 192.65 466.09 193.1 458.97 193.67 451.84 193.82 444.73 194.31 437.61 194.76 430.49 195.38 423.35 195.24 416.21 195.03 409.07 195.21 401.94 195.29 394.8 195.74 387.67 195.29 380.54 195.17 373.41 195.05 366.3 194.37 359.15 194.5 352.02 194.23 344.94 193.31 337.78 193.36 330.71 192.28 323.61 191.6 316.59 190.29 309.44 189.78 302.43 188.44 295.48 186.72 288.73 184.28 284.31 179.27"/><polygon class="b" points="517.71 132.27 512.09 136.73 505.19 139.3 497.95 140.85 490.82 143.08 483.39 143.55 476.03 144.47 468.69 145.61 461.31 146.52 453.87 146.59 446.48 147.21 439.05 147.41 431.64 147.72 424.24 148.63 416.8 148.48 409.37 148.17 401.94 148.5 394.51 148.9 387.08 148.65 379.66 148.31 372.23 148.25 364.81 147.98 357.4 147.4 349.98 147.02 342.6 146.25 335.17 145.91 327.8 144.95 320.42 144.06 313.08 142.92 305.92 140.83 298.57 139.7 291.73 136.85 286.4 132.27 291.55 127.3 298.61 124.98 305.73 122.76 313.12 121.84 320.44 120.65 327.86 120.13 335.16 118.67 342.56 117.88 350.02 118.12 357.38 116.98 364.82 117.07 372.25 116.98 379.65 116.12 387.08 116.12 394.51 115.64 401.94 116.43 409.37 115.66 416.79 116.34 424.22 116.27 431.64 116.38 439.05 117 446.49 116.88 453.91 117.35 461.3 118.19 468.68 119.02 476 120.25 483.36 121.21 490.83 121.48 497.95 123.73 505.19 125.28 512.36 127.23 517.71 132.27"/><polygon class="c" points="517.71 132.27 512.09 136.73 505.19 139.3 497.95 140.85 490.82 143.08 483.39 143.55 476.03 144.47 468.69 145.61 461.31 146.52 453.87 146.59 446.48 147.21 439.05 147.41 431.64 147.72 424.24 148.63 416.8 148.48 409.37 148.17 401.94 148.5 394.51 148.9 387.08 148.65 379.66 148.31 372.23 148.25 364.81 147.98 357.4 147.4 349.98 147.02 342.6 146.25 335.17 145.91 327.8 144.95 320.42 144.06 313.08 142.92 305.92 140.83 298.57 139.7 291.73 136.85 286.4 132.27 291.55 127.3 298.61 124.98 305.73 122.76 313.12 121.84 320.44 120.65 327.86 120.13 335.16 118.67 342.56 117.88 350.02 118.12 357.38 116.98 364.82 117.07 372.25 116.98 379.65 116.12 387.08 116.12 394.51 115.64 401.94 116.43 409.37 115.66 416.79 116.34 424.22 116.27 431.64 116.38 439.05 117 446.49 116.88 453.91 117.35 461.3 118.19 468.68 119.02 476 120.25 483.36 121.21 490.83 121.48 497.95 123.73 505.19 125.28 512.36 127.23 517.71 132.27"/><polygon points="401.94 151.93 394.86 151.56 387.79 151.29 380.72 150.88 373.66 150.45 366.56 150.65 359.56 149.35 352.49 149.04 345.42 148.63 338.46 147.23 331.35 147.05 324.46 145.33 317.37 144.72 310.58 142.63 303.69 141.07 299.73 137.77 306.94 136.43 314.06 134.56 321.37 133.84 328.56 132.22 335.96 132.31 343.25 131.41 350.59 131.19 357.9 130.61 365.22 129.93 372.54 129.12 379.9 129.5 387.24 129.05 394.59 129.32 401.94 128.54 409.08 129.09 416.21 129.51 423.36 129.37 430.51 129.29 437.64 129.65 444.75 130.35 451.86 131.08 459.01 131.08 466.11 131.85 473.24 132.38 480.29 133.52 487.34 134.59 494.37 135.77 501.3 137.38 498.54 140.53 491.97 142.93 485.06 144.01 478.31 145.84 471.37 146.55 464.51 147.84 457.56 148.41 450.65 149.31 443.73 150.12 436.73 149.88 429.78 150.41 422.83 150.88 415.89 151.64 408.91 151.4 401.94 151.93"/><polyline class="b" points="518.79 203.27 513.86 207.8 507.08 209.86 500.2 211.63 493.21 212.96 486.26 214.64 479.13 215.07 472.07 215.96 465.01 217.09 457.9 217.62 450.75 217.59 443.68 218.8 436.53 218.66 429.4 218.87 422.28 219.7 415.15 219.87 408 219.38 400.87 219.05 393.74 219.18 386.6 219.06 379.47 219.1 372.35 218.59 365.19 219.16 358.11 217.96 350.98 217.8 343.86 217.35 336.76 216.73 329.63 216.36 322.6 215.03 315.5 214.34 308.47 213.22 301.52 211.63 294.39 210.78 287.61 208.36 282.89 203.27"/><polyline class="c" points="518.79 203.27 513.86 207.8 507.08 209.86 500.2 211.63 493.21 212.96 486.26 214.64 479.13 215.07 472.07 215.96 465.01 217.09 457.9 217.62 450.75 217.59 443.68 218.8 436.53 218.66 429.4 218.87 422.28 219.7 415.15 219.87 408 219.38 400.87 219.05 393.74 219.18 386.6 219.06 379.47 219.1 372.35 218.59 365.19 219.16 358.11 217.96 350.98 217.8 343.86 217.35 336.76 216.73 329.63 216.36 322.6 215.03 315.5 214.34 308.47 213.22 301.52 211.63 294.39 210.78 287.61 208.36 282.89 203.27"/><g class="d"><polyline class="c" points="204.74 356.1 206.57 358.54 210.94 363.54 214.91 368.87 219.3 373.86 223.06 379.35 227.23 384.52 231.4 389.68 235.32 384.27 240.14 379.61 244.41 374.49 248.02 368.82 252.51 364.24 256.41 369.78 260.72 375.35 264.8 381.08 268.77 386.89 273.21 392.72 277.71 386.95 282.15 381.5 285.89 375.52 289.94 369.77 294.48 364.54 298.5 370.46 302.91 376.26 307.3 382.06 311.16 388.25 315.21 394.44 319.62 388.48 323.89 382.58 327.72 376.37 332.37 370.74 336.47 364.82 340.84 370.74 345.24 376.72 349.21 383 352.78 389.55 357.32 395.56 361.32 389.17 365.6 383.1 370.13 377.19 374.51 371.18 378.48 365.26 382.3 371.34 387.27 377 390.69 383.72 395.42 389.55 399.49 395.95 403.72 389.67 408.17 383.65 411.77 377.05 415.96 370.86 420.49 364.44 424.7 371.02 428.72 377.27 433.07 383.3 437.6 389.2 441.65 395.38 445.43 389.04 450.1 383.23 453.9 376.83 458.67 371.1 462.49 364.38 466.7 370.67 471.19 376.41 475.33 382.4 479.69 388.24 483.76 394.56 487.63 388.12 492.14 382.39 495.72 376.02 500.16 370.24 504.5 364.72 508.64 370.06 512.82 375.71 516.76 381.54 521.58 386.7 525.75 392.4 530.12 386.82 533.81 380.81 537.99 375.14 542.06 369.39 546.44 363.78 550.6 369.1 554.62 374.44 559.27 379.25 563.37 384.53 567.6 390.1 571.53 383.74 576.1 378.23 580.45 372.55 585.16 367.16 589.85 361.76 594.5 356.33"/><polyline class="c" points="204.59 405.09 206.42 407.75 210.84 413.21 215.18 418.73 218.94 424.68 223.27 430.21 226.76 436.34 231.07 442.14 236.12 435.83 241.61 430.17 247.26 424.63 252.04 418.78 256.51 424.2 260.56 430.34 264.6 436.48 268.34 442.83 272.67 448.73 276.96 443.55 281.37 438.41 285.42 432.99 289.95 427.95 293.95 422.19 297.98 428.77 302.54 434.75 306.79 440.94 310.39 447.56 314.73 453.29 319.3 448.26 323.05 442.17 327.65 436.71 331.63 430.79 336.02 425.56 340.5 431.31 344.38 437.82 348.73 444.01 352.72 450.44 357.03 456.39 361.14 450.55 365.27 444.43 370.14 438.85 373.69 432.33 378.31 427.04 382.35 432.92 386.35 439.3 391.4 444.96 395.3 451.4 399.49 457.22 403.64 451.38 408.38 445.51 412.48 439.2 416.09 432.56 420.65 426.83 424.72 432.72 428.99 438.73 433.64 444.48 438.03 450.4 441.96 456.87 446.11 450.35 450.44 444.15 454.79 437.95 458.4 431.27 462.93 425.31 466.8 431.19 471.25 436.76 476.04 442.07 479.6 448.31 484.26 453.48 488.41 447.44 492.6 441.22 496.4 434.73 500.63 428.52 505.02 422.19 509.2 427.8 513.69 432.87 517.54 438.45 521.66 443.83 526.26 448.41 530.33 442.62 534.47 436.54 538.69 430.52 542.96 424.54 546.92 418.13 551.78 424.57 557.55 430.01 562.79 435.9 567.88 441.44 572.09 435.62 576.21 429.27 580.56 423.09 585.76 417.52 589.91 411.19 594 404.8"/><polyline class="c" points="204.99 453.67 206.27 456.95 210.54 463.01 215.12 468.88 218.52 475.51 223.18 481.33 226.52 488 230.69 494.55 235.75 488.58 240.99 483.3 246.33 478.11 251.57 472.81 255.96 479.1 260.13 485.55 263.57 492.44 267.81 498.83 272.15 504.99 276.52 500.4 280.84 495.52 285.07 490.58 289.53 485.81 293.36 480.49 297.93 486.78 302.02 493.35 305.59 500.25 309.74 506.78 314.19 513.03 318.38 507.56 322.49 501.93 327.2 496.78 331.31 491.15 335.57 486.11 339.71 492.19 343.79 498.73 348.23 505.03 352.42 511.49 356.74 517.59 361 511.96 365.37 506.08 369.84 500.28 373.57 493.96 378.16 488.34 382.49 494.45 386.42 500.92 390.96 506.98 394.96 513.4 399.49 519.64 404.14 513.5 408.4 507.25 412.7 501.03 416.74 494.63 420.8 488.02 424.75 494.42 429.05 500.34 433.77 505.96 437.62 512.21 442.25 517.85 446.29 511.32 450.72 505.01 454.77 498.46 458.74 491.86 463.38 485.93 467.57 491.21 471.79 496.76 476.21 502.15 480.19 507.88 484.83 513.44 488.81 506.51 492.91 499.95 497.57 493.74 501.02 486.76 505.64 480.69 509.68 485.61 513.8 490.65 518.4 495.28 522.34 500.49 526.95 505.65 531.19 498.85 534.88 492.11 539.46 485.93 543.56 479.44 547.45 473.19 552.33 478.39 557.37 483.9 562.81 489 568.23 494.2 571.98 488.4 575.66 482.62 578.9 476.56 582.87 470.98 586.59 465.22 590.56 459.64 594.52 454.05"/><polyline class="c" points="204.88 502.64 206.78 505.73 210.16 511.53 213.53 517.33 217.11 523 220.29 528.92 224.01 534.51 227.02 540.52 230.45 546.08 235.61 541.57 240.75 536.79 246.22 532.35 251.08 527.34 254.54 532.97 257.63 538.88 261.52 544.32 264.88 550.08 268.01 555.96 271.56 561.59 276.92 555.91 282.49 550.39 287.9 544.73 292.78 538.2 296.03 544.4 300.06 549.72 303.35 555.49 306.75 561.2 310.38 566.76 313.66 572.59 317.69 567.03 322.45 562.12 326.5 556.64 330.69 551.26 335.16 546.33 339.42 552.75 343.94 559.16 347.99 565.88 352.05 572.59 356.4 579.25 360.75 573.28 365.42 567.71 369.08 561.38 373.92 555.92 378 550.03 382.61 555.99 386.15 562.77 390.82 568.79 394.85 575.26 399.49 581.66 404.14 575.27 408.02 568.71 412.08 562.27 416.45 556.05 420.94 549.52 425.56 555.55 429.44 561.71 433.53 567.72 438.31 573.22 442.54 578.87 446.51 572.33 451.4 566.15 455.54 559.49 459.16 552.49 463.8 546.27 467.77 551.68 471.96 557.05 476.95 561.77 480.94 567.32 485.32 572.84 489.18 567.12 491.89 561 495.34 555.32 499.1 549.83 503.11 544.5 506.18 538.43 511.57 544.26 516.43 550.43 521.69 556.24 527.42 562.02 530.53 555.7 534.39 550.25 538.03 544.65 541.1 538.73 544.1 532.75 547.88 527.18 553.06 532.02 558.11 536.91 563.12 541.86 568.47 545.86 572.43 540.22 575.46 533.62 579.72 527.74 583.26 521.44 587.26 515.4 591 509.22 594.24 502.73"/><polyline class="c" points="204.28 551.85 206.68 554.91 210.21 561.04 213.62 567.23 216.39 573.77 219.65 580.04 223.82 585.83 226.37 592.48 230.17 598.1 235.1 594.14 240.44 590.23 245.87 586.39 250.59 581.88 253.95 587.81 257.53 593.76 261.2 599.65 264.37 605.83 267.17 612.21 271.04 617.61 276.78 613.16 281.51 607.24 287.23 602.3 292.25 596.21 296.1 602.31 299.41 608.3 302.31 614.53 305.87 620.38 309.63 626.1 313.14 632.03 317.85 627.23 322.18 622.15 326.54 617.11 330.37 611.63 334.78 606.38 338.18 612.32 342.01 617.77 345.55 623.4 348.97 629.11 352.34 634.85 356.11 640.27 360.3 634.46 364.82 628.84 369.5 623.35 373.25 617.15 377.85 611.63 381.86 618.11 386.74 624.04 390.6 630.67 395.05 636.89 399.49 643.38 404.2 637.09 408.11 630.49 412.56 624.27 416.49 617.69 421.09 611.12 425.25 617.5 429.97 622.97 433.73 629.17 438.11 634.89 442.86 639.95 446.3 634.64 450.41 629.37 453.32 623.34 457.45 618.08 460.83 612.35 464.2 606.53 468.09 612.05 472.92 616.7 476.98 621.99 481.72 626.7 485.82 631.94 489.08 625.94 492.65 620.11 496.31 614.33 499.66 608.36 503.32 602.58 506.74 596.55 511.63 602.4 517.43 607.26 522.44 612.9 527.95 617.86 531.7 612.15 535.07 606.08 538 599.77 541.31 593.67 544.73 587.63 548.41 582.08 553.19 586.28 558.28 590.54 563.87 594.16 568.9 598.61 572.29 591.71 576.4 585.27 579.61 578.35 583.6 571.84 586.59 564.79 590.25 558.1 594.62 551.81"/></g><polyline class="b" points="230.05 349.66 237.18 349.76 244.31 349.93 251.45 350.16 258.56 349.46 265.69 349.27 272.8 349 279.94 349 287.05 348.3 294.17 347.74 301.29 347.29 308.41 346.93 315.53 346.5 322.62 345.63 329.76 345.5 336.82 344.4 344.01 344.71 351.08 343.71 358.17 342.9 365.26 342.1 372.32 341.1 379.4 340.27 386.48 339.38 393.55 338.44 400.62 337.49 407.66 336.38 414.7 335.18 421.81 334.48 428.81 333.05 435.89 332.05 442.74 329.94 449.81 328.88 456.75 327.21 463.62 325.27 470.66 324.02 477.43 321.69 484.29 319.73 491.2 317.98 498.18 316.37 504.98 314.19 511.59 311.47 518.29 309.02 524.7 305.86 531.39 303.36 537.81 300.26 544.14 296.98"/><polyline class="c" points="230.05 349.66 237.18 349.76 244.31 349.93 251.45 350.16 258.56 349.46 265.69 349.02 272.8 348.5 279.94 348.5 287.05 348.05 294.17 347.61 301.29 347.23 308.41 346.9 315.53 346.48 322.62 345.63 329.76 345.5 336.82 344.4 344.01 344.71 351.08 343.71 358.17 342.9 365.26 342.1 372.32 341.1 379.4 340.27 386.48 339.38 393.55 338.44 400.62 337.49 407.66 336.38 414.7 335.18 421.81 334.48 428.81 333.05 435.89 332.05 442.74 329.94 449.81 328.88 456.75 327.21 463.62 325.27 470.66 324.02 477.43 321.69 484.29 319.73 491.2 317.98 498.18 316.37 504.98 314.19 511.59 311.47 518.29 309.02 524.7 305.86 531.39 303.36 537.81 300.26 544.14 296.98"/><polyline class="b" points="243.8 319.82 251.03 319.67 258.27 319.56 265.49 318.94 272.74 319.02 279.95 318.23 287.2 318.24 294.46 318.42 301.66 317.59 308.9 317.34 316.12 316.83 323.35 316.43 330.52 315.27 337.72 314.48 344.95 314.08 352.19 313.69 359.36 312.68 366.6 312.28 373.79 311.47 380.92 310.08 388.05 308.77 395.22 307.77 402.45 307.21 409.69 306.6 416.78 305.07 423.84 303.39 430.97 302.14 438.06 300.65 445.18 299.38 452.39 298.45 459.42 296.64 466.35 294.49 473.57 293.49 480.43 291.1 487.46 289.34 494.36 287.15 501.18 284.69 508.16 282.74 515 280.35 521.68 277.56 528.49 275.04 534.9 271.65"/><polygon points="242.12 335.92 242.84 327.92 243.64 319.91 244.83 311.95 245.53 303.95 252.68 303.28 259.88 303.44 267.08 303.26 274.27 302.92 281.45 302.31 288.68 302.79 295.86 302.25 303 301.21 310.23 301.33 317.39 300.67 324.54 299.65 331.75 299.55 338.89 298.53 346.07 298.05 353.27 297.74 360.38 296.48 367.57 296.02 374.68 294.82 381.81 293.82 389.05 293.62 396.11 292.13 403.26 291.23 410.43 290.42 417.38 288.34 424.54 287.45 431.71 286.59 438.79 285.26 445.85 283.79 452.86 282.09 459.79 280.08 466.85 278.6 473.69 276.27 480.75 274.78 487.72 272.96 494.55 270.65 501.38 268.36 508.16 265.92 514.82 263.16 521.29 259.99 527.93 257.25 531.85 264.23 535.11 271.54 538 279.03 542.04 286.03 535.42 289.49 528.71 292.35 521.86 294.84 515.04 297.4 508.19 299.88 501.08 301.54 494.32 304.32 487.3 306.23 480.12 307.55 473.12 309.56 466.13 311.64 458.92 312.73 451.94 314.91 444.71 315.88 437.61 317.52 430.5 319.12 423.32 320.37 416 320.7 408.83 321.99 401.73 323.71 394.47 324.42 387.31 325.8 379.97 325.82 372.83 327.47 365.57 328.13 358.36 329.19 351.05 329.27 343.82 330.19 336.57 330.9 329.3 331.32 322.02 331.56 314.82 333 307.56 333.52 300.23 333.07 293.01 334.13 285.75 334.67 278.46 334.68 271.2 335.14 263.92 335.28 256.64 335.45 249.38 335.82 242.12 335.92"/><polyline class="b" points="258.51 289.94 265.69 288.91 272.93 289.42 280.12 288.67 287.34 288.54 294.55 288.31 301.74 287.7 308.91 286.83 316.11 286.37 323.34 286.42 330.46 284.97 337.7 284.95 344.83 283.68 352.07 283.61 359.25 282.9 366.4 281.97 373.58 281.22 380.74 280.35 387.91 279.52 394.99 278.05 402.24 277.71 409.34 276.39 416.41 274.92 423.55 273.84 430.72 272.89 437.69 270.92 444.85 269.89 451.97 268.65 458.95 266.76 465.93 264.89 472.89 263 480.03 261.77 486.82 259.26 493.91 257.76 500.56 254.87 507.67 253.34 514.15 250.05 520.92 247.57 527.82 245.37"/><polyline class="c" points="258.51 289.94 265.69 288.91 272.93 289.42 280.12 288.67 287.34 288.54 294.55 288.31 301.74 287.7 308.91 286.83 316.11 286.37 323.34 286.42 330.46 284.97 337.7 284.95 344.83 283.68 352.07 283.61 359.25 282.9 366.4 281.97 373.58 281.22 380.74 280.35 387.91 279.52 394.99 278.05 402.24 277.71 409.34 276.39 416.41 274.92 423.55 273.84 430.72 272.89 437.69 270.92 444.85 269.89 451.97 268.65 458.95 266.76 465.93 264.89 472.89 263 480.03 261.77 486.82 259.26 493.91 257.76 500.56 254.87 507.67 253.34 514.15 250.05 520.92 247.57 527.82 245.37"/><polyline class="b" points="273.39 245.1 276.17 251.5 279.87 257.38 283.9 263 288.4 268.25 293.66 272.74 298.91 277.31 305.01 280.68 311.64 282.82 318.25 284.9 325.1 285.99"/><polyline class="c" points="273.39 245.1 276.17 251.5 279.87 257.38 283.9 263 288.4 268.25 293.66 272.74 298.91 277.31 305.01 280.68 311.64 282.82 318.25 284.9 325.1 285.99"/><polyline class="b" points="289.23 209.42 291.16 216.48 293.08 223.62 296.7 230.06 300.31 236.45 303.71 243.02 308.66 248.52 313.25 254.29 318.34 259.65 324.4 263.91 330.21 268.45 336.4 272.48 343.25 275.26 349.88 278.47 356.87 280.74 363.78 283.32"/><polyline class="c" points="289.23 209.42 291.16 216.48 293.08 223.62 296.7 230.06 300.31 236.45 303.71 243.02 308.66 248.52 313.25 254.29 318.34 259.65 324.4 263.91 330.21 268.45 336.4 272.48 343.25 275.26 349.88 278.47 356.87 280.74 363.78 283.32"/><polyline class="b" points="331.07 216.22 334.08 222.62 337.33 228.99 341.94 234.46 346.39 240.03 351.56 244.94 356.49 250.13 362.13 254.51 367.81 258.85 374.08 262.3 380.23 265.93 386.71 268.91 393.13 272.03 399.93 274.25 406.6 276.82"/><polyline class="c" points="331.07 216.22 334.08 222.62 337.33 228.99 341.94 234.46 346.39 240.03 351.56 244.94 356.49 250.13 362.13 254.51 367.81 258.85 374.08 262.3 380.23 265.93 386.71 268.91 393.13 272.03 399.93 274.25 406.6 276.82"/><polyline class="b" points="384.07 220.56 387.69 227.05 391.18 233.64 396.03 239.29 401.05 244.8 406.88 249.45 413.35 253.14 419.73 256.89 426.37 260.2 433.27 262.99 440.51 264.72 447.84 265.91 455.07 267.76"/><polyline class="c" points="384.07 220.56 387.69 227.05 391.18 233.64 396.03 239.29 401.05 244.8 406.88 249.45 413.35 253.14 419.73 256.89 426.37 260.2 433.27 262.99 440.51 264.72 447.84 265.91 455.07 267.76"/><polyline class="b" points="435.9 218.82 437.51 225.36 440.17 231.64 444.35 237.04 448.85 242.18 454.17 246.51 459.85 250.4 466.23 253.01 472.39 256.11 478.9 258.35 485.54 260.24"/><polyline class="c" points="435.9 218.82 437.51 225.36 440.17 231.64 444.35 237.04 448.85 242.18 454.17 246.51 459.85 250.4 466.23 253.01 472.39 256.11 478.9 258.35 485.54 260.24"/><polyline class="b" points="474.49 216.3 478.45 222.19 482.78 227.79 487.27 233.31 492.95 237.59 498.47 242.08 504.79 245.4 511.68 247.22 518.7 247.84"/><polyline class="c" points="474.49 216.3 478.45 222.19 482.78 227.79 487.27 233.31 492.95 237.59 498.47 242.08 504.79 245.4 511.68 247.22 518.7 247.84"/><polyline class="b" points="517.02 308.8 520.37 314.92 523.53 321.15 526.52 327.47 529.86 333.61 533.79 339.43 536.97 345.65 540.07 351.92 543.61 357.95 546.85 364.15"/><polyline class="c" points="517.02 308.8 520.37 314.92 523.53 321.15 526.52 327.47 529.86 333.61 533.79 339.43 536.97 345.65 540.07 351.92 543.61 357.95 546.85 364.15"/><polyline class="b" points="479.62 317.01 483.3 322.96 487.05 328.88 489.47 335.5 492.78 341.65 496.7 347.48 500.16 353.55 503.02 359.94 506.18 366.18 509.78 372.19"/><polyline class="c" points="479.62 317.01 483.3 322.96 487.05 328.88 489.47 335.5 492.78 341.65 496.7 347.48 500.16 353.55 503.02 359.94 506.18 366.18 509.78 372.19"/><polyline class="b" points="444.75 326.94 448.08 333.08 451.99 338.91 454.64 345.41 457.87 351.6 461.43 357.63 464.64 363.83 468.43 369.73 471.72 375.9 475.04 382.06"/><polyline class="c" points="444.75 326.94 448.08 333.08 451.99 338.91 454.64 345.41 457.87 351.6 461.43 357.63 464.64 363.83 468.43 369.73 471.72 375.9 475.04 382.06"/><polyline class="b" points="407.23 336.69 409.77 342.92 413.46 348.55 416.8 354.36 419.25 360.65 422.82 366.35 426.22 372.14"/><polyline class="c" points="407.23 336.69 409.77 342.92 413.46 348.55 416.8 354.36 419.25 360.65 422.82 366.35 426.22 372.14"/><polyline class="b" points="366.28 339.66 369.56 345.5 371.99 351.8 375.69 357.42 378.86 363.33 382.19 369.16 385.06 375.23"/><polyline class="c" points="366.28 339.66 369.56 345.5 371.99 351.8 375.69 357.42 378.86 363.33 382.19 369.16 385.06 375.23"/><polyline class="b" points="327.85 347.35 331.04 353.24 333.88 359.32 337.07 365.22"/><polyline class="c" points="327.85 347.35 331.04 353.24 333.88 359.32 337.07 365.22"/><polyline class="b" points="288.57 351.5 291.93 357.3 294.98 363.27 297.66 369.44"/><polyline class="c" points="288.57 351.5 291.93 357.3 294.98 363.27 297.66 369.44"/><polyline class="b" points="244.72 348.42 247.32 354.63 250.8 360.37 254.22 366.14"/><polyline class="c" points="244.72 348.42 247.32 354.63 250.8 360.37 254.22 366.14"/><polygon points="286.31 163.13 293.46 164.64 300.22 166.99 307.23 168.29 314.2 169.8 321.15 171.24 328.28 171.39 335.41 172.5 342.59 172.3 349.76 172.23 356.91 172.87 364.08 172.87 371.22 173.48 378.38 173.73 385.53 174.22 392.69 174.58 399.88 174.44 407.04 174.54 414.05 174.07 421.01 172.86 428.1 172.91 435.09 172.09 442.04 170.8 449.05 170.08 456.09 169.68 463.02 168.29 470.05 167.78 477.06 167.06 484.11 166.71 491.1 165.86 498.09 165.01 505.09 164.08 512.13 162.96 520.7 164.66 519.37 170.82 518.33 176.87 516.78 182.56 509.93 184.63 502.72 185.78 495.43 186.52 488.29 188.14 481.02 188.98 473.8 190.15 466.6 191.37 459.44 192.92 452.26 194.3 445.06 195.7 438.04 195.27 431.03 194.92 424.04 194.16 417.03 193.94 410.03 193.55 403.02 193.32 395.99 193.33 388.97 193.41 381.95 193.28 374.97 192.39 367.93 192.69 360.95 191.85 353.92 191.93 346.93 191.19 339.93 190.77 332.9 191 325.88 190.73 318.87 190.31 311.9 189.63 306.08 186.74 300.08 184.15 294.33 181.06 288.45 178.2 282.95 174.75 284.2 168.96 286.31 163.13"/><polygon points="241.15 488.84 247.83 484.17 253.97 478.61 258.46 484.28 262.43 490.16 266.82 495.76 270.64 501.6 276.48 498.1 282.07 494.01 287.6 489.83 293.29 485.45 298.45 491.44 302.93 497.72 308.5 503.1 313.07 509.52 318.09 505.12 322.4 500.23 327.69 496.39 331.88 491.36 337.04 486.83 341.67 493.58 346.26 499.98 351.38 505.98 356.18 511.9 361.06 507.95 365.96 503.56 370.93 499.24 375.68 494.65 380.63 490.08 384.74 496.01 389.51 501.24 393.32 507.22 397.74 512.73 402.11 518.26 406.28 512 410.88 506.01 415.56 500.08 419.71 493.47 425.53 499.06 431.02 504.68 436.55 510.26 442.6 515.43 446.68 510.09 451.39 505.45 455.4 500.2 459.85 495.32 464.1 490.38 469.96 496.26 476.05 502.01 482.11 508.02 487.46 502.01 492.59 496.03 498.03 490.32 503.16 484.76 508.99 489.36 515.1 494.13 521.48 498.58 527.66 503.32 532.59 497.32 537.05 490.98 542.22 485.18 546.67 479.03 551.6 482.52 556.93 485.74 561.83 489.13 558.4 494.84 553.85 500.02 550.02 505.74 546.04 511.35 541.99 516.91 537.9 522.43 533.49 527.73 529.47 533.32 525.5 538.98 519.17 542.5 513.17 546.28 507.41 550.52 501.26 554.12 494.69 556.92 488.22 559.87 481.71 562.71 475.18 565.53 468.44 567.79 461.85 570.53 454.97 572.37 448.06 574.06 441.06 575.3 434.13 576.95 427.05 577.76 419.94 578.12 412.84 578.58 405.72 578.39 398.56 578.49 391.37 577.16 384.05 577.08 376.89 575.54 369.56 575.41 362.34 574.43 355.22 572.76 347.97 571.92 340.86 570.33 333.82 568.4 326.75 566.7 319.74 564.71 312.95 562.07 306.2 559.36 299.71 556.07 293.17 552.85 287.3 548.51 281.34 544.36 275.67 539.81 270.5 534.68 265.4 529.5 260.33 524.54 255.58 519.28 251.34 513.61 246.62 508.27 242.9 502.22 240.93 495.43 241.15 488.84"/><polygon points="459.62 578.12 466.93 576.74 473.85 575.43 480.81 574.36 487.62 572.46 494.62 571.57 501.58 570.44 508.5 569.14 515.32 567.28 522.28 566.19 529.18 564.75 536.04 563.12 542.99 561.98 549.94 560.83 556.78 559.08 563.73 557.94 570.75 557.08 577.54 555.15 584.49 553.92 591.46 552.84 598.56 551.36 591.27 550.11 584.18 548.88 577.1 547.62 570.13 545.72 562.93 545.12 555.94 543.36 548.89 541.86 541.84 540.44 534.61 539.93 527.59 538.29 520.48 536.89 514.34 540.92 508.43 545.22 502.41 549.36 496.55 553.74 490.38 557.66 484.24 561.63 478.12 565.62 472.33 570.11 466.22 574.14 459.62 578.12"/></svg>