<svg xmlns="http://www.w3.org/2000/svg" viewBox="0 0 800 800"><defs><style>.a{fill:none;stroke:#000;stroke-linejoin:bevel;stroke-width:13px;}.b{fill:#fff;}</style></defs><title>kiln-4</title><polygon class="a" points="423.62 133.88 430.78 135.86 437.96 134.9 445.14 134.34 452.3 133.53 459.46 132.63 466.62 131.85 473.86 131.73 481.01 130.86 488.21 130.44 495.33 129.06 502.56 128.94 509.75 128.39 516.94 127.99 524.17 128.11 531.36 127.74 538.58 127.71 545.76 126.46 552.98 127.01 560.2 126.95 567.24 126.42 574.32 126.89 581.36 126.31 588.39 125.61 595.42 125.01 602.42 124.15 609.49 123.81 616.41 122.4 623.42 121.59 630.41 120.54 637.24 118.73 644.09 117.03 651.12 116.14 657.85 113.96 664.54 111.72 671.38 109.98 678.14 107.94 684.68 105.28 691.15 102.43 695.82 97.72 689.61 96.04 682.44 96.82 675.27 97.44 668.09 98.04 660.85 98.12 653.69 98.97 646.49 99.44 639.36 100.56 632.15 100.81 624.99 101.66 617.86 103 610.64 103.1 603.41 102.94 596.23 103.68 589.04 104.18 581.85 104.87 574.63 104.78 567.41 105.06 560.2 105.26 553.14 104.71 546.11 105.68 539.06 105.88 532.01 106.02 525.01 106.94 517.93 107.08 510.91 107.83 503.87 108.42 497 110.23 490.02 111.25 483.13 112.77 476.31 114.59 469.21 115.22 462.61 117.89 455.74 119.49 449.16 122.07 442.16 123.4 435.89 126.73 429.53 129.69 423.62 133.88"/><polyline class="a" points="423.23 135.16 427.77 140.83 431.36 147.23 434.11 154.03 436.55 160.92 439.68 167.59 441.51 174.7 444.01 181.62 444.78 188.97 447 196 447.65 203.33 448.64 210.59 449.54 217.86 450.74 225.1 451.36 232.4 451.73 239.72 453.08 246.99 452.79 254.35 453.66 261.66 453.3 269.01 453.12 276.45 455.2 283.39 457.82 290.13 459.62 297.13 462.69 303.71 464.04 310.86 467.33 317.38 468.44 324.6 471.76 331.12 473.86 338.03 475.85 345.04 473.69 352.1 472.03 359.22 470.66 366.41 469.19 373.58 467.1 380.61 466.28 387.92 463.92 394.89 462.81 402.14 461.17 409.27 459.3 416.35 458.33 423.63 456.59 430.73 454.98 437.87 452.64 444.84 451.54 452.1 450.27 459.31 447.71 466.23 446.89 473.56 444.9 480.61 439.65 485.76 434.81 491.31 429.64 496.54 425.1 502.36 420.25 507.9 415.04 513.16 419.7 519.01 424.44 524.75 429.27 530.42 434.19 536.01 438.21 542.33 442.65 548.31 448.14 553.45 452.35 559.62 457.1 565.35 461.52 571.36 466.66 576.79 471.03 582.75 465.65 587.03 459.56 590.45 454.25 594.98 448.63 599.09 442.44 602.58 443.93 609.63 445.91 616.34 444.95 623.27 444.99 630.2 443.71 637.02 441.01 643.42 437.92 649.57 434.63 655.67 429.88 660.73 424.83 665.4 419.32 669.83 413.22 673.47 406.38 675.34 399.52 676.87 392.83 677.8 398.76 680.88 405.35 683.33 411.94 685.75 418.31 688.96 425.19 690.58 432.02 692.37 438.81 694.33 445.95 694.64 452.77 696.47 459.81 697.09 466.75 698.33 473.71 699.47 480.72 700.23 487.71 701.18 494.74 701.72 501.74 702.68 508.82 702.47 515.87 702.66 522.9 703.3 529.94 703.91 537 703.87 544.06 703.96 551.13 704 551.58 704.08 558.63 703.65 565.69 703.92 572.74 703.67 579.79 703.38 586.84 703.04 593.9 702.93 600.91 702.09 607.92 701.23 614.99 701.14 621.96 700.01 628.97 699.28 636.04 698.95 642.99 697.7 649.94 696.5 656.99 695.76 663.83 693.98 670.6 691.98 677.52 690.57 684.26 688.48 691.11 686.73 697.57 683.86 703.77 680.48 710.21 677.66 703.09 677.52 696.39 675.13 689.58 673.25 683.42 669.76 677.65 665.66 672.59 660.94 668.8 655.15 665.13 649.38 661.97 643.3 659.52 636.88 657.85 630.17 656.75 623.31 657.21 616.37 658.58 609.6 659.85 602.81 662.67 596.17 665.5 589.56 667.89 582.69 672.05 576.75 676.1 570.78 679.7 564.53 683.02 558.08 687.72 552.56 691.53 546.43 695.53 540.43 699.22 534.22 703.08 528.11 705.58 521.28 708.99 514.92 711.34 508.1 714.45 501.55 715.79 494.43 718.01 487.55 719.73 480.52 720.47 473.32 720.57 466.09 721.38 458.92 721.97 451.7 721.16 444.55 721.41 437.36 720.35 430.26 719.28 423.19 717.88 416.18 717.24 409 715.23 402.11 713.66 395.1 710.3 388.68 707.87 381.96 705.43 375.23 701.99 368.94 699.38 362.25 695.72 356.08 693.44 349.22 689.5 343.18 686.49 336.69 683.98 329.96 681.4 323.29 678.42 316.76 676.68 309.8 674.04 303.11 673.03 295.98 671.1 289.09 669.73 282.07 669.12 274.93 667.22 267.95 666.98 260.77 666.11 253.65 666.03 246.47 666.54 239.3 665.89 231.95 666.33 224.62 666.79 217.29 666.94 209.95 667.72 202.65 668.53 195.36 669.36 188.07 669.72 180.74 670.68 173.46 671.7 166.19 673.61 159.08 674.89 151.86 676.64 144.75 678.72 137.72 679.95 130.44 682.68 123.61 685.55 116.86 688.43 110.11 692.52 104.01 696.33 97.82"/><polygon class="a" points="505.23 228.47 505.73 235.64 507.21 242.67 509.95 249.28 512.45 256.04 516.52 261.99 521.31 267.36 526.71 272.12 532.77 275.98 539.06 279.5 546.09 281.11 553.08 282.54 560.2 283.1 567.37 282.93 574.33 281.22 581.24 279.29 587.58 275.9 593.67 272.1 599.01 267.28 603.62 261.79 607.87 256 611.04 249.53 612.48 242.48 614.07 235.56 615.12 228.47 613.99 221.39 612.94 214.34 610.58 207.6 607.41 201.21 603.38 195.34 598.91 189.75 593.77 184.71 587.44 181.28 581.29 177.54 574.46 175.24 567.36 174.02 560.2 173.23 553.06 174.28 545.99 175.46 539.13 177.62 532.86 181.13 527.15 185.4 521.23 189.51 516.8 195.17 513.18 201.33 509.82 207.6 506.89 214.19 506.07 221.34 505.23 228.47"/><polygon class="a" points="603.84 218.53 603.55 225.4 601.79 232.04 599.38 238.49 595.53 244.2 591.17 249.51 585.63 253.54 580.33 258.04 573.64 259.92 567.08 261.97 560.2 262.5 553.37 261.61 546.75 259.9 540.33 257.52 534.53 253.85 529 249.72 524.37 244.56 521.13 238.43 519.01 231.91 516.73 225.41 516.78 218.53 517.43 211.75 518.96 205.13 521.28 198.7 524.61 192.67 529.41 187.75 534.42 183.05 540.4 179.67 546.68 176.94 553.32 175.12 560.2 174.39 567.07 175.1 573.73 176.87 579.9 179.84 585.87 183.19 590.91 187.82 595.12 193.16 599.71 198.39 601.55 205.09 603.71 211.64 603.84 218.53"/><polyline class="a" points="453.67 276.35 453.78 283.4 454.33 290.44 454.4 297.49 453.93 304.57 455.27 311.58 454.74 318.66 455.08 325.7 454.88 332.77 455.68 339.81 456.29 346.96 452.95 353.47 449.18 359.65 446.75 366.49 442.87 372.62 440.31 379.41 436.28 385.62 437.03 393.04 437.28 400.37 438.23 407.64 439.05 414.93 439.48 422.24 440.41 429.51 441.03 436.81 440.41 444.19 441.06 451.49 442.22 458.75 442.38 466.09 442.56 473.43 443.14 480.73"/><polyline class="a" points="430.87 531.36 432.39 538.63 434.7 545.67 436.27 552.93 438.53 559.98 441.63 566.77 443.8 573.85 445.81 580.98 447.22 588.3 449.83 595.25"/><polygon points="455.74 290.56 455.38 297.86 455.05 304.9 455.67 311.96 455.13 319.01 454.98 326.05 455.26 333.11 454.53 340.16 455.36 347.36 451.18 353.98 447.22 360.58 444.13 367.65 440.37 374.38 437.15 381.27 437.42 388.45 438.32 395.67 439.78 402.82 440.07 410.11 441.46 417.28 441.99 424.54 442.35 431.82 443.13 439.06 443.97 446.29 445.23 453.48 445.74 461.23 448.03 454.07 450.05 447.36 451.21 440.42 453.06 433.66 455.1 426.95 456.5 420.08 458.65 413.4 460.38 406.6 461.85 399.74 464.49 393.2 465.44 386.19 467.8 379.56 468.9 372.55 471.33 365.85 472.75 358.91 474.34 352.01 475.85 345.03 473.26 338.24 470.13 331.7 468.73 324.52 465.21 318.12 462.68 311.37 460.52 304.47 458.64 297.46 455.74 290.56"/><polygon points="450.02 594.82 447.64 588.3 445.26 581.41 443.39 574.36 441.55 567.3 439.26 560.38 437.49 553.29 434.91 546.48 440.06 551.66 445.1 556.97 450.46 561.97 455.56 567.23 460.91 572.24 466.19 577.33 471.04 582.74 463.96 586.75 456.76 590.69 450.02 594.82"/><polyline class="a" points="505.41 326.12 499.14 323.99 492.72 321.72 488.81 327.96 484.16 333.46 479.61 339.03 476.05 344.79 483.07 343.76 490.24 343.7 493.07 351.8"/><polyline class="a" points="417.41 510.92 424.6 508.65 431.98 507.01 439.06 504.35 446.32 502.41 451.4 505.33 456.91 507.57"/><polyline class="a" points="423.99 503.44 430.09 508.52 435.41 514.36 440.73 520.23 446.54 525.6"/><polyline class="a" points="464.11 587.58 468.9 592.2 474.76 595.32 480.11 599.16 485.12 603.48 490.6 607.16 488.05 612.57 485.33 617.88"/><polyline class="a" points="449.91 595.27 459.55 590.78 461.88 597.66 464.01 604.42 465.92 611.26 467.54 618 466 624.9 463.59 631.69 461.16 638.48"/><polyline class="a" points="482.19 631.05 477.58 626.62 472.4 622.79 468.09 618.04"/><polyline class="a" points="484.64 602.94 485.11 595.51 485.33 588.08 485.3 580.63"/><polyline class="a" points="459.55 410.47 465.89 409.64 472.09 407.92 478.45 407.07 484.54 406.45 488.49 411.04 492.09 416.3 496.26 421.11"/><polyline class="a" points="462.87 400.86 465.17 407.57 468.7 413.78 470.59 420.67 473.46 427.15"/><polyline class="a" points="474.86 405.82 478.24 398.66 481.06 391.24 485.24 384.43"/><polygon points="658.54 116.04 656.61 122.83 655.25 129.9 653.78 136.96 653.07 144.17 651.79 151.27 650.57 158.37 648.37 165.29 646.85 172.34 646.62 179.63 645.2 186.7 643.14 193.65 641.84 200.74 640.16 207.76 639.88 215.05 638.03 222.04 636.73 229.13 635.38 236.21 633.77 243.24 632.31 250.3 631.01 257.4 630.13 264.57 628.27 271.56 626.68 278.59 625.33 285.68 624.35 292.83 623.6 300.03 621.48 306.97 620.79 314.18 619.32 321.24 618.01 328.33 616.44 335.37 615.23 342.48 613.48 349.49 612.91 356.72 611.11 363.72 609.65 370.79 608.31 377.87 606.41 384.85 605.43 392.01 604.16 399.11 602.95 406.22 601.22 413.23 600.73 420.48 598.72 427.44 598.01 434.65 596.28 441.66 594.7 448.7 593.57 455.83 592.08 462.89 590.43 469.92 589.65 477.11 588.04 484.15 586.58 491.21 585.31 498.32 583.91 505.39 582.04 512.37 581.35 519.58 580.2 526.71 578.47 533.72 577.77 540.92 575.36 547.81 574.51 554.99 572.65 561.98 571.8 569.16 570.39 576.23 569.34 583.38 567.66 590.4 565.84 597.4 564.87 604.56 563.76 611.69 562.38 618.78 561.27 625.91 559.18 632.86 558.53 640.08 557.01 647.14 555.41 654.18 554.02 661.26 553.44 668.49 552.09 675.58 550.66 682.66 548.69 689.63 547.36 696.73 545.86 704.11 553.56 703.7 560.97 703.12 568.41 703.38 575.8 702.66 583.19 701.88 590.64 702.19 598.06 701.96 605.42 700.48 612.86 700.54 620.27 700.21 627.7 699.91 635.03 699.09 642.05 697.97 648.9 696.07 655.73 694.08 662.55 692.1 669.22 689.58 676.16 687.97 682.83 685.45 689.66 683.47 696.63 681.97 703.4 679.75 710.42 677.68 703.8 674.63 697.57 671.24 691.16 668.23 684.41 665.94 678 662.9 671.65 659.71 668.69 652.72 666.08 645.61 663.41 638.52 660.08 631.7 657.67 624.6 658.88 617.34 660.53 610.07 661.76 602.71 662.95 595.35 664.55 588.06 665.07 580.49 669.03 574.69 672.57 568.72 676.98 563.31 680.46 557.3 684.66 551.75 687.87 545.56 691.62 539.72 695.79 534.15 699.39 528.22 703.08 522.34 707.35 516.83 710.68 510.71 711.32 503.74 713.12 496.96 713.42 489.95 715.21 483.17 715.82 476.2 716.93 469.31 718.75 462.54 718.79 455.48 720.74 448.71 721.4 441.76 719.58 434.78 717.91 427.74 716.49 420.64 714.87 413.58 712.96 406.6 710.53 399.75 709.38 392.58 707.44 385.6 705.76 378.55 704.02 371.5 701.05 364.56 698.21 357.6 694.93 350.82 692.39 343.73 689.22 336.9 686 330.1 682.72 323.32 679.65 316.45 677.46 309.19 674.56 302.31 673.4 294.97 673.07 287.51 672.87 280.03 672.05 272.61 671.62 265.16 670.15 257.79 670.29 250.29 668.87 242.91 668.99 235.41 668.02 227.99 667.98 220.5 666.94 213.08 668.2 205.63 669.46 198.18 670.42 190.68 671.35 183.19 671.72 175.61 673.45 168.22 674.55 160.74 675.14 153.19 675.98 145.66 678.08 139.28 680.36 132.95 681.94 126.4 684.89 120.31 686.85 113.87 689.08 107.53 690.52 101.32 684.28 104 677.98 107.39 671.13 109.61 664.67 112.68 658.54 116.04"/><polygon points="573.65 257.75 572.54 264.28 571.07 270.67 569.87 277.12 568.62 283.86 575.61 279.94 582.35 276.1 588.77 271.7 595.51 267.85 602.35 263.92 605.1 257.81 606.77 251.39 609.95 245.61 611.91 239.3 614.8 233.41 614.46 226.22 613.25 219.11 612.4 211.65 608.54 218.06 605.71 224.69 601.98 230.83 598.06 236.87 594.67 243.14 588.51 249.12 582.81 255.66 573.65 257.75"/><polygon class="a" points="340.63 621 333.33 622.93 326.17 624.99 318.84 626.33 311.55 627.83 304.51 630.4 297.18 631.96 290.05 630.09 282.71 630.03 275.59 628.42 268.41 627.27 261.19 626.37 253.93 625.73 246.74 624.65 239.62 623.02 232.35 622.5 225.1 621.78 217.95 620.4 210.74 619.45 203.59 617.98 196.41 616.76 189.39 615.95 196.33 615.31 203.51 615.07 210.71 614.95 217.87 614.32 225.08 614.45 232.23 613.67 239.42 613.38 246.59 612.89 253.76 612.39 260.93 611.9 268.15 612.27 275.3 611.14 282.48 610.75 289.91 610.29 297.14 608.45 304.46 607.19 311.82 606.17 319.22 604.82 324.31 609.28 329.79 613.06 335.43 616.62 340.63 621"/><polygon class="b" points="340.09 601.98 333.17 603.44 326.06 605.71 318.77 607.18 311.65 609.38 304.33 610.8 297.16 612.8 290.04 611.32 282.82 610.43 275.63 609.32 268.42 608.38 261.09 608.17 254.04 606.09 246.8 605.39 239.65 603.96 232.4 603.3 225.24 601.95 218.01 601.09 210.86 599.72 203.62 598.94 196.33 598.48 189.06 597.11 196.37 597.27 203.5 595.92 210.67 595.4 217.86 595.27 225.04 594.97 232.21 594.33 239.42 594.65 246.62 594.54 253.78 593.91 260.95 593.38 268.12 592.74 275.31 592.34 282.44 591.52 289.91 591.42 297.11 589.41 304.47 588.39 311.79 587.11 319.04 586.77 324.65 589.97 329.57 594.5 334.83 598.58 340.09 601.98"/><polygon class="a" points="340.09 601.98 333.17 603.44 326.06 605.71 318.77 607.18 311.65 609.38 304.33 610.8 297.16 612.8 290.04 611.32 282.82 610.43 275.63 609.32 268.42 608.38 261.09 608.17 254.04 606.09 246.8 605.39 239.65 603.96 232.4 603.3 225.24 601.95 218.01 601.09 210.86 599.72 203.62 598.94 196.33 598.48 189.06 597.11 196.37 597.27 203.5 595.92 210.67 595.4 217.86 595.27 225.04 594.97 232.21 594.33 239.42 594.65 246.62 594.54 253.78 593.91 260.95 593.38 268.12 592.74 275.31 592.34 282.44 591.52 289.91 591.42 297.11 589.41 304.47 588.39 311.79 587.11 319.04 586.77 324.65 589.97 329.57 594.5 334.83 598.58 340.09 601.98"/><polygon class="a" points="172.78 581.68 166.23 585.76 159.88 589.34 153.88 593.46 147.75 597.37 141.66 601.35 135.68 605.51 129.73 609.54 122.66 606.76 115.25 604.69 108.14 601.76 100.84 599.38 93.52 597.04 86.23 594.56 79.42 591.56 87 591.83 94.83 591.45 102.67 591.07 110.5 591.44 117.31 590.04 124.15 588.8 131.12 588.4 138.06 587.74 144.84 586.14 151.69 584.91 158.51 583.54 165.46 582.9 172.78 581.68"/><polygon class="b" points="172.32 562.88 166.38 567.06 159.91 570.45 154.05 574.78 148.13 579 142.16 583.17 135.61 586.45 129.72 590.53 122.39 588.56 115.22 585.79 107.96 583.28 100.98 580.01 93.81 577.23 86.55 574.7 79.73 572.63 87 572.19 94.83 572.91 102.67 572.38 110.52 572.78 117.27 570.84 124.17 569.97 131.19 569.83 137.88 567.65 144.85 567.24 151.74 566.29 158.65 565.46 165.4 563.61 172.32 562.88"/><polygon class="a" points="172.32 562.88 166.38 567.06 159.91 570.45 154.05 574.78 148.13 579 142.16 583.17 135.61 586.45 129.72 590.53 122.39 588.56 115.22 585.79 107.96 583.28 100.98 580.01 93.81 577.23 86.55 574.7 79.73 572.63 87 572.19 94.83 572.91 102.67 572.38 110.52 572.78 117.27 570.84 124.17 569.97 131.19 569.83 137.88 567.65 144.85 567.24 151.74 566.29 158.65 565.46 165.4 563.61 172.32 562.88"/><polygon class="a" points="180.98 673.24 174.1 668.85 167.53 664.09 160.51 659.9 154.05 663.97 147.39 667.47 140.51 670.55 133.79 673.93 126.97 677.12 120.65 681.29 113.83 684.5 120.56 684.17 127.29 684.95 134.03 684.96 140.76 684.45 147.52 684.92 154.75 684.12 161.89 682.71 169.08 681.75 176.38 681.81 183.51 680.37 190.71 679.46 197.97 679.09 205.74 677.96 197.09 676.7 189.23 674.23 180.98 673.24"/><polygon class="b" points="181.06 654.2 174.16 649.88 167.29 645.58 160.51 641.03 153.59 644.16 147.34 648.43 140.73 652.02 133.64 654.67 127.43 659.02 120.42 661.86 113.86 665.5 120.56 665.29 127.29 665.61 134.03 665.55 140.76 665.22 147.52 665.82 154.73 664.93 161.91 663.94 169.17 663.62 176.32 662.32 183.53 661.57 190.74 660.8 197.94 659.92 204.87 659.3 197.21 657.28 189.23 655.4 181.06 654.2"/><polygon class="a" points="181.06 654.2 174.16 649.88 167.29 645.58 160.51 641.03 153.59 644.16 147.34 648.43 140.73 652.02 133.64 654.67 127.43 659.02 120.42 661.86 113.86 665.5 120.56 665.29 127.29 665.61 134.03 665.55 140.76 665.22 147.52 665.82 154.73 664.93 161.91 663.94 169.17 663.62 176.32 662.32 183.53 661.57 190.74 660.8 197.94 659.92 204.87 659.3 197.21 657.28 189.23 655.4 181.06 654.2"/><polygon class="b" points="340.46 602.6 339.91 608.82 340.47 615.11 340.73 621.6 333.18 623.11 325.77 624.44 318.48 626.25 311.36 628.83 303.91 630 296.59 631.79 289.43 630.31 282.17 629.63 275.04 628.08 267.7 627.95 260.58 626.32 253.43 624.92 246.08 624.86 238.89 623.76 231.83 621.71 224.48 621.64 217.31 620.35 210.06 619.64 202.86 618.51 195.71 617.01 188.32 616.13 188.18 609.6 188 603.25 188.8 597.3 195.76 597.59 202.94 598.87 210.07 600.51 217.28 601.55 224.49 602.6 231.78 603.15 238.88 604.9 246.24 605 253.36 606.63 260.66 607.09 267.77 608.86 275.09 609.19 282.22 610.78 289.42 611.98 296.66 612.68 304.1 611.72 311.19 609.1 318.69 608.17 325.93 606.19 333.27 604.59 340.46 602.6"/><polygon class="a" points="340.46 602.6 339.91 608.82 340.47 615.11 340.73 621.6 333.18 623.11 325.77 624.44 318.48 626.25 311.36 628.83 303.91 630 296.59 631.79 289.43 630.31 282.17 629.63 275.04 628.08 267.7 627.95 260.58 626.32 253.43 624.92 246.08 624.86 238.89 623.76 231.83 621.71 224.48 621.64 217.31 620.35 210.06 619.64 202.86 618.51 195.71 617.01 188.32 616.13 188.18 609.6 188 603.25 188.8 597.3 195.76 597.59 202.94 598.87 210.07 600.51 217.28 601.55 224.49 602.6 231.78 603.15 238.88 604.9 246.24 605 253.36 606.63 260.66 607.09 267.77 608.86 275.09 609.19 282.22 610.78 289.42 611.98 296.66 612.68 304.1 611.72 311.19 609.1 318.69 608.17 325.93 606.19 333.27 604.59 340.46 602.6"/><polygon class="b" points="171.31 563.45 171.75 569.24 171.24 575.53 171.84 582.01 165.26 585.41 159.5 589.77 153.31 593.47 147.42 597.61 141.46 601.66 135.11 605.11 129.17 609.26 121.83 606.85 114.84 603.53 107.45 601.34 100.4 598.17 92.96 596.09 85.67 593.59 78.38 590.87 78.05 584.64 78.7 578.51 78.47 572.33 85.6 575.37 92.9 577.79 100.25 580.07 107.58 582.4 114.91 584.73 121.84 588.23 129.31 590.9 135.57 586.89 141.46 582.75 147.16 578.32 153.7 575.2 159.54 570.99 165.43 566.83 171.31 563.45"/><polygon class="a" points="171.31 563.45 171.75 569.24 171.24 575.53 171.84 582.01 165.26 585.41 159.5 589.77 153.31 593.47 147.42 597.61 141.46 601.66 135.11 605.11 129.17 609.26 121.83 606.85 114.84 603.53 107.45 601.34 100.4 598.17 92.96 596.09 85.67 593.59 78.38 590.87 78.05 584.64 78.7 578.51 78.47 572.33 85.6 575.37 92.9 577.79 100.25 580.07 107.58 582.4 114.91 584.73 121.84 588.23 129.31 590.9 135.57 586.89 141.46 582.75 147.16 578.32 153.7 575.2 159.54 570.99 165.43 566.83 171.31 563.45"/><polygon class="b" points="204.63 658.91 204.16 665.36 204.51 671.65 204.73 678.16 197.43 679.17 190.28 679.74 183.18 680.81 176.04 681.45 168.92 682.3 161.78 683.01 154.62 683.59 147.49 684.36 140.7 684.03 133.91 684.14 127.11 684.82 120.3 684.07 113.69 684.3 113.8 678.17 114.2 671.84 114.24 665.94 120.56 665.57 127.29 664.94 134.03 664.91 140.76 665.11 147.5 665.51 154.63 664.77 161.8 664.39 168.89 663.29 175.99 662.24 183.12 661.52 190.26 660.88 197.43 660.41 204.63 658.91"/><polygon class="a" points="204.63 658.91 204.16 665.36 204.51 671.65 204.73 678.16 197.43 679.17 190.28 679.74 183.18 680.81 176.04 681.45 168.92 682.3 161.78 683.01 154.62 683.59 147.49 684.36 140.7 684.03 133.91 684.14 127.11 684.82 120.3 684.07 113.69 684.3 113.8 678.17 114.2 671.84 114.24 665.94 120.56 665.57 127.29 664.94 134.03 664.91 140.76 665.11 147.5 665.51 154.63 664.77 161.8 664.39 168.89 663.29 175.99 662.24 183.12 661.52 190.26 660.88 197.43 660.41 204.63 658.91"/><polyline class="b" points="296.59 631.72 296.95 625.45 297.07 619.16 297.46 612.88"/><polyline class="a" points="296.59 631.72 296.95 625.45 297.07 619.16 297.46 612.88"/><polyline class="b" points="147.28 685 147.73 678.67 147.79 672.34 147.68 666"/><polyline class="a" points="147.28 685 147.73 678.67 147.79 672.34 147.68 666"/><polyline class="b" points="129.26 609.19 129.19 602.91 130.15 596.63 130.05 590.35"/><polyline class="a" points="129.26 609.19 129.19 602.91 130.15 596.63 130.05 590.35"/><polyline points="204.76 678.04 197.28 678.29 189.88 679.15 182.57 680.81 175.16 681.63 167.75 682.54 160.28 682.89 152.95 684.46 145.47 685.03 146.12 677.01 146.45 668.95 154 668.18 161.47 667.17 168.91 665.89 176.39 664.88 183.82 663.53 191.33 662.77 198.88 662.27"/><polygon points="125.87 608.93 126.25 602.91 125.43 596.63 125.55 590.38 132.29 586.81 139.3 583.71 145.93 579.84 153.02 576.91 159.97 573.68 166.81 570.23 173.3 566.79 172.29 573.57 172.4 581.01 166.1 584.13 160.5 587.97 154.67 591.44 149.02 595.19 142.85 598.11 137.52 602.41 131.82 606.12 125.87 608.93"/><polygon points="292.79 629.7 299.88 627.61 306.73 626.82 313.6 626.17 320.42 625.2 327.13 623.58 334.02 622.97 340.6 621.26 340.72 614.97 340.89 608.53 340.49 602.12 333.59 604.22 326.64 606.14 319.61 607.76 312.37 608.52 305.65 611.38 298.45 612.35 291.87 614.56 292.52 621.76 292.79 629.7"/></svg>