<svg xmlns="http://www.w3.org/2000/svg" viewBox="0 0 800 800"><defs><style>.a{fill:#fff;}.b{fill:none;stroke:#000;stroke-linejoin:bevel;stroke-width:13px;}</style></defs><title>kiln-5</title><polygon class="a" points="170.33 639.56 175.64 648.18 179.5 653.89 183.31 659.64 186.88 665.53 190.49 671.41 194 677.34 197.55 683.24 201.43 688.95 205.01 694.84 207.93 701.13 211.83 706.82 216.61 712.13 222.48 716.24 228.88 719.51 235.61 722.1 242.42 724.59 249.62 725.54 256.77 726.58 263.99 726.94 271.21 727.14 278.36 727.77 285.51 727.49 292.67 727.34 299.82 727.35 306.98 727.24 314.13 727.21 321.28 727.16 328.43 727.51 335.58 727.49 342.73 727.02 349.89 727.91 357.04 727.23 364.19 727.01 371.35 727.11 378.5 727.05 385.65 727.92 392.8 727.57 399.96 727.16 407.11 727.17 414.27 727.28 421.42 727.38 428.58 727.4 435.74 727.05 442.89 727.96 450.05 727.92 457.21 727.48 464.37 727.94 471.52 727.65 478.68 727.03 485.83 727.57 492.99 727.92 500.15 727.92 507.3 727.27 514.46 727.27 521.63 727.77 528.79 727.94 536.02 727.18 543.25 726.85 550.35 725.37 557.45 724.05 564.48 722.38 571.4 720.16 577.62 716.4 583.36 712.08 588.48 707.01 591.83 700.98 595.56 695.18 598.63 688.99 602.85 683.48 605.75 677.18 609.53 671.42 613.29 665.64 617.1 659.89 620.96 654.19 624.55 648.31 629.89 639.52 622.81 639.26 615.63 639.84 608.44 639.23 601.26 639.52 594.08 639.31 586.89 639.79 579.71 639.35 572.52 639.91 565.33 639.56 558.15 639.42 550.97 639.91 543.78 639.37 536.59 639.82 529.41 639.82 522.22 639.06 515.04 639.73 507.85 639.65 500.66 639.62 493.48 639.3 486.29 639.14 479.1 639.69 471.92 639.2 464.73 639.96 457.54 639.07 450.36 639.91 443.17 639.4 435.98 639.02 428.8 639.62 421.61 639.48 414.42 639.53 407.24 639.46 400.05 639.18 392.86 639.71 385.67 639.01 378.48 639.96 371.3 639.04 364.12 639.01 356.93 639.31 349.75 639.85 342.56 639.92 335.38 639.26 328.19 639.55 321 639.21 313.81 639.96 306.63 639.49 299.44 639.53 292.25 639.09 285.06 639.24 277.88 639.2 270.69 639.51 263.49 639.61 256.3 639.3 249.11 639.42 241.92 639.36 234.73 639.12 227.54 639.76 220.35 639.68 213.16 639.6 205.97 639.91 198.78 639.5 191.59 639 184.4 639.94 177.2 639.88 170.33 639.56"/><polygon class="b" points="170.33 639.56 175.64 648.18 179.5 653.89 183.31 659.64 186.88 665.53 190.49 671.41 194 677.34 197.55 683.24 201.43 688.95 205.01 694.84 207.93 701.13 211.83 706.82 216.61 712.13 222.48 716.24 228.88 719.51 235.61 722.1 242.42 724.59 249.62 725.54 256.77 726.58 263.99 726.94 271.21 727.14 278.36 727.77 285.51 727.49 292.67 727.34 299.82 727.35 306.98 727.24 314.13 727.21 321.28 727.16 328.43 727.51 335.58 727.49 342.73 727.02 349.89 727.91 357.04 727.23 364.19 727.01 371.35 727.11 378.5 727.05 385.65 727.92 392.8 727.57 399.96 727.16 407.11 727.17 414.27 727.28 421.42 727.38 428.58 727.4 435.74 727.05 442.89 727.96 450.05 727.92 457.21 727.48 464.37 727.94 471.52 727.65 478.68 727.03 485.83 727.57 492.99 727.92 500.15 727.92 507.3 727.27 514.46 727.27 521.63 727.77 528.79 727.94 536.02 727.18 543.25 726.85 550.35 725.37 557.45 724.05 564.48 722.38 571.4 720.16 577.62 716.4 583.36 712.08 588.48 707.01 591.83 700.98 595.56 695.18 598.63 688.99 602.85 683.48 605.75 677.18 609.53 671.42 613.29 665.64 617.1 659.89 620.96 654.19 624.55 648.31 629.89 639.52 622.81 639.26 615.63 639.84 608.44 639.23 601.26 639.52 594.08 639.31 586.89 639.79 579.71 639.35 572.52 639.91 565.33 639.56 558.15 639.42 550.97 639.91 543.78 639.37 536.59 639.82 529.41 639.82 522.22 639.06 515.04 639.73 507.85 639.65 500.66 639.62 493.48 639.3 486.29 639.14 479.1 639.69 471.92 639.2 464.73 639.96 457.54 639.07 450.36 639.91 443.17 639.4 435.98 639.02 428.8 639.62 421.61 639.48 414.42 639.53 407.24 639.46 400.05 639.18 392.86 639.71 385.67 639.01 378.48 639.96 371.3 639.04 364.12 639.01 356.93 639.31 349.75 639.85 342.56 639.92 335.38 639.26 328.19 639.55 321 639.21 313.81 639.96 306.63 639.49 299.44 639.53 292.25 639.09 285.06 639.24 277.88 639.2 270.69 639.51 263.49 639.61 256.3 639.3 249.11 639.42 241.92 639.36 234.73 639.12 227.54 639.76 220.35 639.68 213.16 639.6 205.97 639.91 198.78 639.5 191.59 639 184.4 639.94 177.2 639.88 170.33 639.56"/><polygon class="a" points="629.99 639.5 628.29 632.61 623.31 627.45 617.19 623.88 610.99 620.47 604.14 618.63 597.4 616.59 590.63 614.58 583.69 613.22 576.59 613.07 569.59 612.28 562.57 611.29 555.5 611.71 548.27 611.75 541.04 611.83 533.81 611.92 526.58 611.62 519.35 611.28 512.12 611.57 504.88 611.89 497.65 611.91 490.42 611.88 483.19 611.08 475.96 611.65 468.73 611.74 461.5 611.18 454.26 611.7 447.04 611.03 439.81 611.45 432.58 611.61 425.35 611.81 418.12 611.55 410.89 611.32 403.66 611.57 396.43 611.21 389.2 611.16 381.97 611.12 374.73 611.45 367.5 611.49 360.27 611.29 353.04 611.86 345.8 611.63 338.57 611.2 331.33 611.93 324.1 611.94 316.87 611.67 309.63 611.92 302.4 611.8 295.16 611.11 287.93 611.72 280.69 611.19 273.46 611.53 266.22 611.32 258.98 611.54 251.74 611.58 244.5 611.55 237.46 612.06 230.43 612.45 223.37 612.65 216.43 613.97 209.41 614.78 202.47 616.14 195.68 618.09 189.15 620.81 182.63 623.57 176.84 627.65 172.39 633.31 169.81 640 170.27 640 172 646.45 176.84 651.48 182.86 655.11 189.21 658.09 195.88 660.34 202.66 662.16 209.51 663.78 216.37 665.39 223.32 666.78 230.37 667.28 237.43 667.81 244.5 667.58 251.73 667.54 258.96 667.38 266.19 667.42 273.42 667.45 280.65 667.12 287.88 667.61 295.12 667.96 302.35 667 309.58 667.31 316.81 667.69 324.04 667.43 331.27 667.95 338.5 667.98 345.74 667.98 352.96 667.86 360.19 667.25 367.42 667 374.65 667.53 381.88 667.21 389.11 667.35 396.34 667.51 403.57 667.17 410.8 667.53 418.03 667.53 425.27 667.77 432.5 667.36 439.73 667.38 446.96 667.57 454.2 667.33 461.43 667.57 468.67 667.75 475.9 667.97 483.13 667.44 490.37 667.25 497.6 667.57 504.84 667.83 512.07 667.39 519.3 667.35 526.54 667.82 533.78 667.85 541.02 667.92 548.26 667.39 555.5 667.34 562.55 667.18 569.57 666.59 576.68 666.77 583.65 665.56 590.62 664.36 597.34 662.13 604.25 660.69 610.82 658.11 617.28 655.27 623.22 651.42 627.73 646.02 629.73 639.5 629.99 639.5"/><polygon class="b" points="629.99 639.5 628.29 632.61 623.31 627.45 617.19 623.88 610.99 620.47 604.14 618.63 597.4 616.59 590.63 614.58 583.69 613.22 576.59 613.07 569.59 612.28 562.57 611.29 555.5 611.71 548.27 611.75 541.04 611.83 533.81 611.92 526.58 611.62 519.35 611.28 512.12 611.57 504.88 611.89 497.65 611.91 490.42 611.88 483.19 611.08 475.96 611.65 468.73 611.74 461.5 611.18 454.26 611.7 447.04 611.03 439.81 611.45 432.58 611.61 425.35 611.81 418.12 611.55 410.89 611.32 403.66 611.57 396.43 611.21 389.2 611.16 381.97 611.12 374.73 611.45 367.5 611.49 360.27 611.29 353.04 611.86 345.8 611.63 338.57 611.2 331.33 611.93 324.1 611.94 316.87 611.67 309.63 611.92 302.4 611.8 295.16 611.11 287.93 611.72 280.69 611.19 273.46 611.53 266.22 611.32 258.98 611.54 251.74 611.58 244.5 611.55 237.46 612.06 230.43 612.45 223.37 612.65 216.43 613.97 209.41 614.78 202.47 616.14 195.68 618.09 189.15 620.81 182.63 623.57 176.84 627.65 172.39 633.06 169.81 639.5 170.27 639.5 172 646.2 176.84 651.35 182.86 655.04 189.21 658.06 195.88 660.32 202.66 662.15 209.51 663.77 216.37 665.39 223.32 666.78 230.37 667.28 237.43 667.81 244.5 667.58 251.73 667.54 258.96 667.38 266.19 667.42 273.42 667.45 280.65 667.12 287.88 667.61 295.12 667.96 302.35 667 309.58 667.31 316.81 667.69 324.04 667.43 331.27 667.95 338.5 667.98 345.74 667.98 352.96 667.86 360.19 667.25 367.42 667 374.65 667.53 381.88 667.21 389.11 667.35 396.34 667.51 403.57 667.17 410.8 667.53 418.03 667.53 425.27 667.77 432.5 667.36 439.73 667.38 446.96 667.57 454.2 667.33 461.43 667.57 468.67 667.75 475.9 667.97 483.13 667.44 490.37 667.25 497.6 667.57 504.84 667.83 512.07 667.39 519.3 667.35 526.54 667.82 533.78 667.85 541.02 667.92 548.26 667.39 555.5 667.34 562.55 667.18 569.57 666.59 576.68 666.77 583.65 665.56 590.62 664.36 597.34 662.13 604.25 660.69 610.82 658.11 617.28 655.27 623.22 651.42 627.73 646.02 629.73 639.5 629.99 639.5"/><path class="a" d="M435.56,602.45l-2.77-4.8,2.39-4.61,6.62-2.91,6.3-3.57,5.92-4.17,5.31-4.94,5.43-4.71,5.85-4.31,4.33-5.84,5.49-4.77L485,552.2l4.22-5.87,4-6,3.57-6.28,3.91-6,4.27-5.87,3.12-6.52,3.47-6.34,2.18-6.94,3.33-6.41,2.9-6.61,1.91-7,2.32-6.82,2.54-6.76,1.6-7,2.16-6.89,1.28-7.1,1.44-7.06,1.39-7.08.73-7.18,1.41-7.1L537,412l.47-7.2-.29-7.21.06-7.06.07-7.08-.35-7.07-1.49-6.94-1.14-7L533,355.6l-1.37-6.95-2-6.78-3-6.42-2.29-6.7-3.36-6.22L518.09,316l-4.15-5.76-4.33-5.57-3.72-6-5-5-4.93-5-5-5-5.46-4.47-5.76-4.06-5.83-4-6.33-4.27-6.34-4.24-5.69-5.09-5.09-5.64-3.74-5.65-1.77-6.52-1.44-6.63.43-6.84,2-6.56,4.05-5.5,3.86-5.6,5.86-4.92,5.23-5.56,5.5-5.29,5.51-5.28,5.09-5.69,5.41-5.38,5.56-5.24,5.36-5.44,1-4.74-3.63-6.51-7.22-1.77-7.17-.13-7.17,0-7.15.47-7.16,0-7.13,1.08-7.17-.06-7.14.48-7.16.09-7.17-.09-7.14.8-7.17-.25-7.14.54-7.17-.06-7.17,0-7.15.63-4.85-5-.11-7.42-.43-7.42.58-7.42-.76-7.42,0-7.43v-7.43l.56-7.43.29-7.43-.56-7.43-1.53-6-4.55-4.09-5.82-1.92-.91-.14-.91.06-7.72-.23h-7.73l-7.72.62-7.73-.78-7.73.6,3.23-.55-7.36.91-7.38.51-7.08,2.16-7.08,2-6.73,3L283.48,84l-5.18,5.33-5.47,5-3.53,6.54-3.23,6.66L264,114.72l-.48,7.41L263,129.5l-.09,7.17-.14,7.17.59,7.17-.83,7.17.56,7.17,0,7.17.33,7.16-.75,7.16.71,7.17-.8,7.17.24,7.16,0,7.17.36,7.17.22,7.17-.87,7.17.26,7.17-.14,7.17v7.17l-.14,7.17.18,7.17.42,7.17v7.17l-.69,7.17.26,7.17.7,7.17-.81,7.17.45,7.17-.36,7.17.19,7.17.25,7.17-.44,7.17.44,7.17-.62,7.18.9,7.18-.71,7.18.89,2.94-.27,1.51v6.39l-.47,6.38-.08,7.21.38,7.2.9,7.15,1.26,7.1.85,7.14,1,7.13,1,7.14,2.25,6.87,1.53,7,2.25,6.84,2.28,6.82,2.11,6.87L281,489l2.4,6.79,2.67,6.69L289,509l3.31,6.4,3.88,6.09,3.17,6.47,4.05,6,4,6,4,6,4.06,6,5,5.21,4.57,5.56,5.3,4.87,4.87,5.32,5.74,4.35,5.54,4.58,5.66,4.49,6.63,2.93,6.15,3.75,3.27,4.71-3.64,4.7-7.16,2.25-7,2.8-6.95,2.82-6.87,3-6.5,3.77-6.08,4.4-5.61,5-2.76,7,.24,1,6.91,1.64,7,1.1,6.93,1.53,7,1.36,7,1.53,7.11.47,7.06.79,7.08.52,7,1.38,7.14-.5,7.09.25,7.1.65,7.1-.71,7.09-.28,7.11.08,7.09-.49,7.13-.14,6.95-1.78,7.08-.61,7.06-.84,6.93-1.61,7-1.23,7.08-.93,6.57-2.48,0-.68-2.73-6.77-5.14-5.52-6.43-4-6.58-3.69-6.81-3.24L450,607l-7-2.89Zm-87.82-347.8-5.44,3.88-4.69,4.67-5.4,3.82-5.51,3.58-5.9,4-5.31,4.78L310.05,284l-5.81,4.2L300,293.95l-5.66.55-2.93-4.22-.2-7.2-.2-7.2-.47-7.2.17-7.2.78-7.2-.32-7.2.28-7.2-1-7.2.51-7.2.23-7.2-.63-7.2v-7.21l.41-7.2-.39-7.2.38-7.2-.33-7.2,0-7.21.18-7.2-.28-7.21.62-7.21-.35-7.21.85-7.51,1.82-7.37,3.76-6.62,5.13-5.55,6-4.53,6.33-4.08,7.24-2.17,7.52-.64,8.24.4,8.24,0,5.24,4.56-.45,7.68.37,7.68-.62,7.68.55,7.69.43,7.68-.72,7.69.55,7.69.83,4.28.05,2.39v.58l.29,1.28,1.74,7.63,1.67,7.65,2.06,7.55,1.64,7.66,1.78,7.63,1.42,7.39-.38,7.51-.38,7.53-1.93,7.33-3.2,6.88-4.86,5.81Z"/><path class="b" d="M435.56,602.45l-2.77-4.8,2.39-4.61,6.62-2.91,6.3-3.57,5.92-4.17,5.31-4.94,5.43-4.71,5.85-4.31,4.33-5.84,5.49-4.77L485,552.2l4.22-5.87,4-6,3.57-6.28,3.91-6,4.27-5.87,3.12-6.52,3.47-6.34,2.18-6.94,3.33-6.41,2.9-6.61,1.91-7,2.32-6.82,2.54-6.76,1.6-7,2.16-6.89,1.28-7.1,1.44-7.06,1.39-7.08.73-7.18,1.41-7.1L537,412l.47-7.2-.29-7.21.06-7.06.07-7.08-.35-7.07-1.49-6.94-1.14-7L533,355.6l-1.37-6.95-2-6.78-3-6.42-2.29-6.7-3.36-6.22L518.09,316l-4.15-5.76-4.33-5.57-3.72-6-5-5-4.93-5-5-5-5.46-4.47-5.76-4.06-5.83-4-6.33-4.27-6.34-4.24-5.69-5.09-5.09-5.64-3.74-5.65-1.77-6.52-1.44-6.63.43-6.84,2-6.56,4.05-5.5,3.86-5.6,5.86-4.92,5.23-5.56,5.5-5.29,5.51-5.28,5.09-5.69,5.41-5.38,5.56-5.24,5.36-5.44,1-4.74-3.63-6.51-7.22-1.77-7.17-.13-7.17,0-7.15.47-7.16,0-7.13,1.08-7.17-.06-7.14.48-7.16.09-7.17-.09-7.14.8-7.17-.25-7.14.54-7.17-.06-7.17,0-7.15.63-4.85-5-.11-7.42-.43-7.42.58-7.42-.76-7.42,0-7.43v-7.43l.56-7.43.29-7.43-.56-7.43-1.53-6-4.55-4.09-5.82-1.92-.91-.14-.91.06-7.72-.23h-7.73l-7.72.62-7.73-.78-7.73.6,3.23-.55-7.36.91-7.38.51-7.08,2.16-7.08,2-6.73,3L283.48,84l-5.18,5.33-5.47,5-3.53,6.54-3.23,6.66L264,114.72l-.48,7.41L263,129.5l-.09,7.17-.14,7.17.59,7.17-.83,7.17.56,7.17,0,7.17.33,7.16-.75,7.16.71,7.17-.8,7.17.24,7.16,0,7.17.36,7.17.22,7.17-.87,7.17.26,7.17-.14,7.17v7.17l-.14,7.17.18,7.17.42,7.17v7.17l-.69,7.17.26,7.17.7,7.17-.81,7.17.45,7.17-.36,7.17.19,7.17.25,7.17-.44,7.17.44,7.17-.62,7.18.9,7.18-.71,7.18.89,2.94-.27,1.51v6.39l-.47,6.38-.08,7.21.38,7.2.9,7.15,1.26,7.1.85,7.14,1,7.13,1,7.14,2.25,6.87,1.53,7,2.25,6.84,2.28,6.82,2.11,6.87L281,489l2.4,6.79,2.67,6.69L289,509l3.31,6.4,3.88,6.09,3.17,6.47,4.05,6,4,6,4,6,4.06,6,5,5.21,4.57,5.56,5.3,4.87,4.87,5.32,5.74,4.35,5.54,4.58,5.66,4.49,6.63,2.93,6.15,3.75,3.27,4.71-3.64,4.7-7.16,2.25-7,2.8-6.95,2.82-6.87,3-6.5,3.77-6.08,4.4-5.61,5-2.76,7,.24,1,6.91,1.64,7,1.1,6.93,1.53,7,1.36,7,1.53,7.11.47,7.06.79,7.08.52,7,1.38,7.14-.5,7.09.25,7.1.65,7.1-.71,7.09-.28,7.11.08,7.09-.49,7.13-.14,6.95-1.78,7.08-.61,7.06-.84,6.93-1.61,7-1.23,7.08-.93,6.57-2.48,0-.68-2.73-6.77-5.14-5.52-6.43-4-6.58-3.69-6.81-3.24L450,607l-7-2.89Zm-87.82-347.8-5.44,3.88-4.69,4.67-5.4,3.82-5.51,3.58-5.9,4-5.31,4.78L310.05,284l-5.81,4.2L300,293.95l-5.66.55-2.93-4.22-.2-7.2-.2-7.2-.47-7.2.17-7.2.78-7.2-.32-7.2.28-7.2-1-7.2.51-7.2.23-7.2-.63-7.2v-7.21l.41-7.2-.39-7.2.38-7.2-.33-7.2,0-7.21.18-7.2-.28-7.21.62-7.21-.35-7.21.85-7.51,1.82-7.37,3.76-6.62,5.13-5.55,6-4.53,6.33-4.08,7.24-2.17,7.52-.64,8.24.4,8.24,0,5.24,4.56-.45,7.68.37,7.68-.62,7.68.55,7.69.43,7.68-.72,7.69.55,7.69.83,4.28.05,2.39v.58l.29,1.28,1.74,7.63,1.67,7.65,2.06,7.55,1.64,7.66,1.78,7.63,1.42,7.39-.38,7.51-.38,7.53-1.93,7.33-3.2,6.88-4.86,5.81Z"/><polygon class="a" points="499.13 157.23 493.71 154.09 487.15 151.69 480.14 151.41 473.35 149.89 466.5 148.75 459.54 148.53 452.63 147.74 445.7 147.31 438.78 146.69 431.82 146.79 424.89 146.83 417.48 147.1 410.04 147.14 402.69 148.26 395.29 148.93 387.91 150.04 380.81 152.4 375.97 157.23 380.92 161.8 388 164.07 395.35 165.16 402.62 166.78 410.06 167.09 417.47 167.44 424.89 168.31 431.82 167.53 438.78 167.81 445.7 167.28 452.62 166.66 459.49 165.57 466.49 165.71 473.28 164.07 480.28 163.92 487.08 162.43 493.84 160.8 499.13 157.23"/><polygon class="b" points="499.13 157.23 493.71 154.09 487.15 151.69 480.14 151.41 473.35 149.89 466.5 148.75 459.54 148.53 452.63 147.74 445.7 147.31 438.78 146.69 431.82 146.79 424.89 146.83 417.48 147.1 410.04 147.14 402.69 148.26 395.29 148.93 387.91 150.04 380.81 152.4 375.97 157.23 380.92 161.8 388 164.07 395.35 165.16 402.62 166.78 410.06 167.09 417.47 167.44 424.89 168.31 431.82 167.53 438.78 167.81 445.7 167.28 452.62 166.66 459.49 165.57 466.49 165.71 473.28 164.07 480.28 163.92 487.08 162.43 493.84 160.8 499.13 157.23"/><polyline class="a" points="336.75 263.9 332.29 269.85 328.96 276.51 325.36 282.99 322.06 289.67 320.06 296.85 318.89 304.19 318.27 311.55 318.22 318.92 319.29 326.22 320.86 333.45 323.86 340.23 327.11 346.93 331.93 352.62 336.42 358.59 341.98 363.41 347.02 368.75 351.53 374.56 355.6 380.68 358.75 387.31 361.66 394 363.6 401.01 365.01 408.23 363.94 415.51 362.01 422.54 359.39 429.36 356.02 435.9 351.2 441.46 346.79 447.31 341.54 452.43 336.92 458.16 331.97 463.24 327.2 468.49 321.91 473.28 317.73 479.04 313.67 484.85 309.63 490.71 306.99 497.32 305.11 504.13 303.92 511.06 303.09 518.15 304.64 525.11 306.3 532.02 308.81 538.7 312.32 544.9 316.58 550.6 320.79 556.29 324.92 562.08 329.69 567.36 334.91 572.19"/><polyline class="b" points="336.75 263.9 332.29 269.85 328.96 276.51 325.36 282.99 322.06 289.67 320.06 296.85 318.89 304.19 318.27 311.55 318.22 318.92 319.29 326.22 320.86 333.45 323.86 340.23 327.11 346.93 331.93 352.62 336.42 358.59 341.98 363.41 347.02 368.75 351.53 374.56 355.6 380.68 358.75 387.31 361.66 394 363.6 401.01 365.01 408.23 363.94 415.51 362.01 422.54 359.39 429.36 356.02 435.9 351.2 441.46 346.79 447.31 341.54 452.43 336.92 458.16 331.97 463.24 327.2 468.49 321.91 473.28 317.73 479.04 313.67 484.85 309.63 490.71 306.99 497.32 305.11 504.13 303.92 511.06 303.09 518.15 304.64 525.11 306.3 532.02 308.81 538.7 312.32 544.9 316.58 550.6 320.79 556.29 324.92 562.08 329.69 567.36 334.91 572.19"/><polygon points="301.01 524.53 297.87 518.24 294.81 511.95 292.4 505.38 289.4 499.06 287.04 492.45 283.87 486.22 280.49 480.07 278.39 473.34 275.22 467.1 272.5 460.65 269.47 454.34 266.9 447.92 266.24 440.74 266.78 433.47 266.85 426.2 267.03 418.94 266.44 411.68 266.58 404.41 266.11 397.14 267.07 389.88 266.83 382.62 266.9 375.35 267.1 368.08 266.41 360.82 266.74 353.55 266.58 346.29 266.18 339.02 267.03 331.75 266.25 324.49 266.62 317.23 266.42 309.97 266.63 302.7 266.47 295.44 267 288.18 266.89 280.91 266.74 273.65 266.97 266.38 266.91 259.12 266.99 251.85 267.02 244.58 266.78 237.32 266.58 230.05 266.73 222.78 266.73 215.51 266.94 208.24 267.06 200.98 267.04 193.71 266.65 186.44 267.1 179.17 267.36 171.9 267.05 164.63 267.32 157.37 267.11 150.09 267.21 142.82 267.2 135.55 266.85 128.28 267.08 121.02 269.67 114.43 273 108.15 275.77 101.63 278.16 94.93 281.25 88.54 283.82 81.76 291.17 80.72 298.43 79.97 305.62 78.83 312.66 76.77 319.91 75.98 327.13 74.98 334.38 74.15 341.5 72.13 349.04 73.97 356.76 74.01 364.35 75.09 372.01 76.4 372.25 83.94 373.4 91.3 374.46 98.66 374.95 106.08 375.49 113.5 368.41 115.22 362.89 120.03 358.55 125.83 355.05 132.24 353.28 139.34 351.8 146.47 351.52 153.75 350.72 161.02 350.5 153.45 350.48 145.88 349.81 138.33 349.39 130.78 349.54 123.19 349.07 115.64 349.09 108.06 348.43 100.58 341.86 101.62 335.09 101.5 328.48 102.84 321.79 103.49 315.06 103.88 308.42 104.72 303.94 110.6 300.19 117.03 295.64 122.91 291.77 129.11 291.37 136.28 291.51 143.58 290.98 150.88 291.25 158.18 291.28 165.47 291.39 172.77 291.43 180.07 291.61 187.38 290.86 194.67 291.03 201.97 291.26 209.28 290.81 216.57 291.34 223.88 291.19 231.18 290.81 238.47 291.42 245.78 291.25 253.08 290.81 260.38 291.06 267.69 291.14 274.99 291.87 281.83 292.48 288.69 293.54 295.4 300.31 291.42 307.2 287.46 314.07 283.46 321.23 280.04 320.63 287.6 319.76 295.18 318.74 302.75 318.34 310.37 318.05 317.94 321.04 324.91 323.55 332.13 326.17 339.32 329.62 346.17 332.21 353.38 336.45 359.77 341.08 365.88 345.28 372.31 350.37 378.08 354.61 384.47 359.4 390.48 363.21 397.06 362.31 404.21 360.24 411.25 359.26 418.49 357.38 425.57 356.5 432.85 355.22 440.12 350.27 445.03 345.51 450.03 340.56 454.83 335.41 459.45 330.7 464.51 325.97 469.55 320.99 474.4 317.29 481.64 313.31 488.7 308.76 495.43 305.08 502.66 303.73 509.94 302.2 517.19 301.01 524.53"/><polyline class="a" points="375.49 156.38 376.75 163.37 379.67 169.86 381.87 176.65 385.73 182.64 389.52 188.64 393.62 194.44 398.78 199.35 403.2 204.93 408.44 209.73 413.35 214.98 417.94 220.52 420.86 227.07 422.94 233.88 424.15 241.03 422.82 248.16 420.94 255.1 418.23 261.77 415.64 268.53 411.92 274.73 408.77 281.23 405.08 287.45 402.74 294.31 400.68 301.22 400.52 308.6 401.1 316 403.87 322.89 406.67 329.69 410.27 336.11 413.91 342.56 418.9 348.04 423.68 353.67 429.17 358.62 435.02 363.13 441.06 367.38 447.31 371.35 453.94 373.87 460.26 377 466.76 379.74 473.26 382.46 479.54 385.73 486.2 388.11 492.68 390.92 498.9 394.27 504.76 398.23 510.63 402.11 515.78 406.9 520.91 411.74 525.19 417.4 527.63 424.07 529.5 430.82 531.24 437.69 530.73 444.76 530.66 451.82 529.49 458.79 527.97 465.7 525.15 472.22"/><polyline class="b" points="375.49 156.38 376.75 163.37 379.67 169.86 381.87 176.65 385.73 182.64 389.52 188.64 393.62 194.44 398.78 199.35 403.2 204.93 408.44 209.73 413.35 214.98 417.94 220.52 420.86 227.07 422.94 233.88 424.15 241.03 422.82 248.16 420.94 255.1 418.23 261.77 415.64 268.53 411.92 274.73 408.77 281.23 405.08 287.45 402.74 294.31 400.68 301.22 400.52 308.6 401.1 316 403.87 322.89 406.67 329.69 410.27 336.11 413.91 342.56 418.9 348.04 423.68 353.67 429.17 358.62 435.02 363.13 441.06 367.38 447.31 371.35 453.94 373.87 460.26 377 466.76 379.74 473.26 382.46 479.54 385.73 486.2 388.11 492.68 390.92 498.9 394.27 504.76 398.23 510.63 402.11 515.78 406.9 520.91 411.74 525.19 417.4 527.63 424.07 529.5 430.82 531.24 437.69 530.73 444.76 530.66 451.82 529.49 458.79 527.97 465.7 525.15 472.22"/><polygon points="384.55 166.17 391.76 165.51 399.03 165.56 406.3 165.69 413.56 165.72 420.83 166.5 428.09 165.53 435.36 166.07 442.62 166.47 449.89 165.74 457.15 165.55 464.42 165.83 471.69 165.92 478.95 165.96 486.23 165.51 493.17 166.14 488.81 171.8 483.81 177.33 478.95 182.99 473.93 188.52 469.26 194.34 464.71 200.26 459.85 205.92 455.27 211.82 450.43 217.51 445.06 222.91 446.72 229.38 446.94 235.94 448.24 242.34 449.03 248.82 449.9 255.43 456.46 259.39 462.73 263.58 468.8 268.05 474.62 272.88 480.89 277.06 487.28 281.08 493.58 285.23 499.76 289.55 505.6 294.37 512.06 298.45 514.64 305.34 516.12 312.51 518.62 319.33 521.74 325.94 523.98 332.85 526.43 339.68 528 346.82 531.06 353.45 533.25 360.38 535.8 367.18 538.08 374.09 540.65 381 540.15 388.74 539.34 396.38 539.07 404.04 538.32 411.69 538.71 419.38 537.74 427.02 537.71 434.95 532.53 428.99 527.19 423.52 521.77 418.14 516.19 412.9 511.25 407.04 505.72 401.74 499.88 397.89 493.44 395.04 487.8 390.82 481.54 387.66 475.49 384.13 469.3 380.85 463.61 376.71 457.49 373.3 451.48 369.69 445.23 366.5 440.11 361.39 434.98 356.28 430 351.03 424.95 345.83 419.71 340.82 414.56 335.73 409.75 330.29 404.31 325.2 405.73 318.1 406.85 311.17 407.21 304.15 408.1 297.19 408.6 290.18 410.03 283.29 411.62 276.29 413.26 269.28 415.2 262.35 417.78 255.6 419.07 248.5 421.35 241.66 423.2 234.69 419.31 228.56 415.73 222.25 411.4 216.4 407.59 210.24 403.94 203.96 399.73 198.05 396.08 191.78 392.45 185.49 388.41 179.45 384.19 173.63 379.12 169.83 384.55 166.17"/><polyline class="a" points="367.77 594.91 374.85 596.69 382.18 596.81 389.39 597.7 396.65 598.16 403.92 598.27 411.21 598.37 418.39 596.93 425.68 596.49 432.75 594.72"/><polyline class="b" points="367.77 594.91 374.85 596.69 382.18 596.81 389.39 597.7 396.65 598.16 403.92 598.27 411.21 598.37 418.39 596.93 425.68 596.49 432.75 594.72"/><polyline class="b" points="390.15 597.71 388.25 604.45 384.1 610.18 379.07 615.12 373.58 619.75 367.08 622.87 360.92 625.47 354.49 627.46 348.74 630.95 342.81 634.01 338.44 638.79"/><polygon points="432.54 598.05 438.42 601.87 444.64 604.81 450.62 608.22 457.03 610.78 462.83 614.56 469.34 616.97 475.3 620.46 479.58 627.37 484.36 633.62 477.53 635.18 470.31 636.23 463.12 637.39 456 639 448.9 638.59 441.8 638.86 434.7 639.21 427.61 638.99 420.51 638.93 413.41 638.62 406.31 638.65 399.21 638.97 392.11 638.71 385.01 638.66 377.92 639.17 370.82 638.54 363.71 639.46 356.61 638.89 349.35 639.05 354.18 632.26 359.63 626.2 365.48 622.68 371.43 619.15 377.27 615.4 383.14 611.73 388.93 608.46 394.55 604.9 400.24 601.35 408.4 601.22 416.39 599.9 424.39 598.76 432.54 598.05"/><polygon points="422.06 594.5 416.28 590.38 410.93 585.43 405.11 580.99 399.95 575.81 395.41 570.08 391.12 564.18 386.93 558.2 383.58 551.71 380.71 544.99 379.11 537.85 377.87 530.63 378.92 523.39 380.05 516.18 383.24 509.62 386.2 503.1 389.46 496.73 393.64 490.88 396.5 484.26 400.99 478.61 404.37 472.29 407.65 465.93 411.06 459.65 414.12 453.19 417.49 446.84 419.07 439.82 420.3 432.81 420.95 425.72 420.34 418.56 418.15 411.69 414.78 405.91 420.48 409.4 425.7 414.27 431.09 418.92 436.31 423.77 441.38 428.78 445.82 434.37 449.85 440.24 454.13 445.93 457.3 452.3 460.63 458.58 463.19 465.27 463.6 472.42 463.86 479.46 463.39 486.6 461.14 493.55 460.85 500.84 461.36 508.07 461.93 515.34 464.88 522.01 468.18 528.41 472.47 534.19 476.91 539.99 482.78 544.09 480.36 551 475.71 556.89 471.12 562.7 466.64 568.68 461.11 573.7 455.03 578.01 448.84 582.13 442.39 585.82 435.87 589.44 428.96 592.24 422.06 594.5"/><polygon class="b" points="422.06 594.5 416.28 590.38 410.93 585.43 405.11 580.99 399.95 575.81 395.41 570.08 391.12 564.18 386.93 558.2 383.58 551.71 380.71 544.99 379.11 537.85 377.87 530.63 378.92 523.39 380.05 516.18 383.24 509.62 386.2 503.1 389.46 496.73 393.64 490.88 396.5 484.26 400.99 478.61 404.37 472.29 407.65 465.93 411.06 459.65 414.12 453.19 417.49 446.84 419.07 439.82 420.3 432.81 420.95 425.72 420.34 418.56 418.15 411.69 414.78 405.91 420.48 409.4 425.7 414.27 431.09 418.92 436.31 423.77 441.38 428.78 445.82 434.37 449.85 440.24 454.13 445.93 457.3 452.3 460.63 458.58 463.19 465.27 463.6 472.42 463.86 479.46 463.39 486.6 461.14 493.55 460.85 500.84 461.36 508.07 461.93 515.34 464.88 522.01 468.18 528.41 472.47 534.19 476.91 539.99 482.78 544.09 480.36 551 475.71 556.89 471.12 562.7 466.64 568.68 461.11 573.7 455.03 578.01 448.84 582.13 442.39 585.82 435.87 589.44 428.96 592.24 422.06 594.5"/><polygon points="483.66 641.49 490.63 639.21 497.61 636.96 504.44 634.25 511.43 632.03 518.07 628.82 525.22 627.03 531.84 623.76 538.92 621.77 545.79 619.22 552.54 616.3 559.68 614.44 566.38 611.81 559.57 611.44 552.61 611.37 545.64 611.54 538.67 611.35 531.71 612.13 524.75 611.48 517.78 611.61 510.81 611.5 503.85 611.65 496.88 611.1 489.92 611.86 482.95 611.82 475.97 611.76 469.08 611.61 466.24 618.6 462.85 625.53 467.99 629.72 473.2 633.65 478.32 637.72 483.66 641.49"/><polygon points="521.55 667.63 520.4 674.89 520.32 682.43 518.38 689.68 517.17 697.09 514.72 704.19 511.38 710.89 507.61 717.3 503.42 723.55 496.94 727.93 503.85 726.84 510.76 726.95 517.62 726.43 524.48 725.8 531.35 725.38 538.22 724.99 545.1 724.57 551.96 723.9 558.91 724.07 564.9 720.83 571.05 717.96 577.36 715.45 583.42 712.41 587.52 706.69 591.2 700.68 594.85 694.65 598.7 688.75 602.1 682.57 606.09 676.75 609.91 670.83 613.75 664.92 617.36 658.91 610.55 659.57 603.79 660.81 596.94 661.47 590.14 662.51 583.45 664.2 576.63 665.06 569.82 666.1 562.97 666.57 556.08 666.7 549.18 667.54 542.26 667.28 535.34 667.04 528.43 667.71 521.55 667.63"/></svg>