<svg xmlns="http://www.w3.org/2000/svg" xmlns:xlink="http://www.w3.org/1999/xlink" viewBox="0 0 800 800"><defs><style>.a,.d{fill:none;}.b{clip-path:url(#a);}.c{fill:#fff;}.d{stroke:#000;stroke-linejoin:bevel;stroke-width:13px;}</style><clipPath id="a"><polygon class="a" points="-695.58 528.43 -688.84 527.45 -681.68 528.01 -674.51 527.9 -667.35 527.77 -660.19 527.54 -653.03 527.92 -645.87 528.42 -638.71 528.01 -631.55 528.49 -624.38 527.96 -617.22 527.51 -610.06 528.53 -602.9 528.35 -595.74 527.52 -588.58 528.47 -581.41 527.99 -574.25 527.63 -567.09 528.43 -559.92 527.6 -552.76 527.58 -545.6 527.45 -538.43 528.51 -531.27 528.29 -524.11 527.41 -516.95 528.42 -509.78 528.54 -502.62 527.63 -495.46 527.7 -488.29 528.15 -481.13 528.22 -473.96 528.28 -466.8 527.9 -459.64 528.1 -452.47 527.62 -445.31 528.47 -438.14 528.17 -430.98 528.5 -423.81 527.7 -416.65 528.52 -409.49 527.5 -402.32 527.93 -395.16 528.55 -387.99 528.38 -380.82 527.81 -373.67 528.15 -366.5 528.34 -359.34 528 -352.18 528.5 -345.02 528.16 -337.85 527.75 -330.69 528.01 -323.53 528.08 -316.36 528.45 -309.2 528.42 -302.03 528.04 -294.87 528.35 -287.7 528.41 -280.53 527.8 -273.37 528.55 -266.2 527.44 -259.03 528.14 -251.87 527.81 -244.7 527.63 -237.53 528.51 -230.36 528.39 -223.2 528.32 -216.03 527.97 -208.86 527.71 -201.69 527.97 -194.53 527.83 -187.35 527.73 -180.18 528.55 -172.95 527.95 -172.51 535.41 -173.45 542.83 -173.16 550.25 -173.55 557.66 -173.5 565.07 -172.55 572.49 -172.52 579.9 -172.45 587.32 -173.35 594.74 -172.58 602.16 -172.95 609.58 -172.61 617.41 -180.16 616.43 -187.28 615.41 -194.53 615.92 -201.67 615.12 -208.82 614.47 -215.98 613.84 -223.1 612.81 -230.33 613.2 -237.44 611.91 -244.63 611.74 -251.76 610.76 -258.99 611.02 -266.14 610.4 -273.29 609.7 -280.45 609.13 -287.54 607.64 -294.79 608.24 -301.91 607.05 -309.03 606.02 -316.26 606.36 -323.44 606.04 -330.58 605.15 -337.74 604.5 -344.89 603.9 -352.1 603.9 -359.19 602.33 -366.4 602.4 -373.54 601.55 -380.69 600.94 -387.83 600.07 -395.01 599.74 -402.21 599.62 -409.37 598.99 -416.56 598.82 -423.72 598.23 -430.83 596.92 -438.06 597.23 -445.15 595.77 -452.35 595.64 -459.5 594.88 -466.65 594.15 -473.87 594.27 -481.05 593.93 -488.2 593.2 -495.3 591.93 -502.48 591.6 -509.68 591.52 -516.86 591.25 -524.03 590.73 -531.14 589.49 -538.34 589.4 -545.52 589.08 -552.6 587.42 -559.77 587.04 -567.01 587.45 -574.17 586.75 -581.34 586.33 -588.43 584.77 -595.67 585.11 -602.82 584.35 -610 584.04 -617.16 583.38 -624.35 583.07 -631.5 582.35 -638.63 581.27 -645.8 580.83 -652.94 579.82 -660.17 580.18 -667.29 578.91 -674.5 578.96 -681.62 577.73 -688.8 577.22 -695.9 576.9 -696.31 570 -695.68 563.01 -696.03 556.01 -695.56 549.01 -696.48 542.01 -695.5 535.02 -695.58 528.43"/></clipPath></defs><title>kiln-8</title><g class="b"><polygon points="295.18 245.74 289.63 241.49 282.71 240.18 275.86 238.96 268.96 237.66 261.94 237.6 254.97 236.81 247.95 237.03 240.94 236.95 233.93 236.79 226.72 237.28 219.49 236.8 212.3 237.57 205.09 237.89 197.94 238.93 190.74 239.38 183.51 239.61 176.3 240.15 169.26 241.87 162.14 243 155.03 244.22 147.88 245.33 140.88 247.02 134.1 249.6 126.99 250.88 120.14 253.16 113 254.32 106.22 256.86 99.42 259.28 92.25 260.4 85.51 263.01 78.61 265.09 71.62 266.83 64.73 268.93 57.88 271.18 50.95 273.13 43.99 275.02 37.18 277.39 30.22 279.28 23.32 281.36 16.52 283.76 9.48 285.41 2.87 288.36 -3.9 290.84 -10.74 293.09 -17.91 294.39 -24.44 297.56 -31.52 299.13 -38.25 301.73 -45.12 303.91 -51.99 306.1 -58.63 308.96 -65.44 311.33 -72.32 313.49 -79.09 315.98 -85.69 318.91 -92.73 320.65 -99.23 323.89 -106.15 325.93 -113.03 328.1 -119.7 330.85 -126.54 333.14 -132.94 336.6 -139.81 338.8 -146.45 341.63 -153.25 344.02 -160.12 346.24 -166.61 349.46 -173.54 351.52 -180.13 354.48 -186.97 356.78 -193.77 359.2 -200.29 362.31 -207.14 364.62 -213.77 367.45 -220.25 370.65 -227.19 372.75 -233.5 376.35 -240.14 379.16 -246.79 381.96 -253.7 384.14 -260.47 386.63 -266.84 390.08 -273.51 392.81 -279.98 396.01 -286.68 398.46 -293.3 401.12 -299.77 404.11 -306.39 406.74 -312.89 409.66 -319.09 413.26 -325.97 415.35 -332.15 418.96 -338.51 422.2 -345.06 425 -351.73 427.57 -357.86 431.29 -364.42 434.09 -370.87 437.13 -377.6 439.58 -383.59 443.56 -390.4 445.86 -396.52 449.54 -403.07 452.39 -409.5 455.45 -415.51 459.35 -421.9 462.49 -428.26 465.71 -434.63 468.92 -440.56 472.92 -447.28 475.47 -453.18 479.51 -459.36 483.06 -465.33 486.95 -471.93 489.77 -477.61 494.14 -484.28 497.08 -490.26 501.16 -496.33 505.09 -502.11 509.44 -507.91 513.75 -514.4 517.11 -520 521.71 -525.75 526.11 -531.23 530.84 -536.57 535.75 -541.25 541.3 -544.98 547.5 -547.76 554.07 -548.76 561.28 -545.42 567.5 -539.56 571.09 -533.53 574.52 -526.64 575.39 -519.8 576.47 -512.88 576.39 -505.67 575.92 -498.43 576.01 -491.27 574.84 -484 574.77 -476.98 572.75 -469.71 572.52 -462.68 570.75 -455.47 570.01 -448.44 568.32 -441.26 567.34 -434.14 566.11 -427.07 564.56 -420.1 562.61 -413.19 560.45 -406.11 558.96 -399.02 557.53 -391.89 556.27 -385.08 553.7 -378.01 552.18 -371.12 549.98 -364.2 547.92 -357.17 546.26 -350.18 544.42 -343.13 542.79 -336.12 541.03 -329.12 539.22 -322.23 537.04 -315.49 534.33 -308.42 532.77 -301.62 530.27 -294.72 528.12 -287.76 526.17 -280.73 524.43 -274.05 521.58 -267.07 519.68 -260.35 516.96 -253.29 515.31 -246.59 512.55 -239.63 510.56 -232.58 508.87 -226.06 505.57 -218.99 503.9 -212.33 501.05 -205.47 498.77 -198.53 496.7 -191.74 494.2 -184.86 491.98 -177.94 489.85 -171.17 487.31 -164.43 484.68 -157.5 482.58 -150.74 480.01 -144.06 477.23 -137.29 474.7 -130.7 471.69 -123.86 469.34 -117.04 466.93 -110.09 464.86 -103.54 461.75 -96.79 459.15 -90.1 456.4 -82.98 454.75 -76.62 451.15 -69.88 448.54 -62.9 446.52 -56.46 443.14 -49.77 440.39 -42.86 438.19 -36.15 435.49 -29.21 433.33 -22.97 429.49 -16.12 427.12 -9.33 424.62 -2.83 421.41 3.91 418.77 10.86 416.63 17.1 412.81 23.84 410.18 30.5 407.37 37.26 404.95 43.66 401.68 50.22 398.81 56.75 395.85 63.47 393.34 70.1 390.6 76.41 387.17 83.18 384.74 89.64 381.63 95.94 378.17 102.64 375.56 108.79 371.8 115.31 368.81 122.01 366.2 128.53 363.21 134.56 359.22 141.07 356.22 147.81 353.68 153.93 349.87 160.29 346.58 166.62 343.23 172.93 339.83 179.43 336.81 185.95 333.8 192.09 330.09 198.19 326.32 204.43 322.81 210.68 319.31 217.37 316.57 223.2 312.35 229.29 308.58 235.74 305.4 241.47 301.06 247.92 297.83 253.61 293.44 259.38 289.19 265.04 284.8 270.93 280.73 276.67 276.43 281.86 271.49 287.31 266.81 292.11 261.46 296.23 255.53 295.18 245.74"/></g><polygon class="c" points="617.21 613.81 612.21 618.71 605.8 621.59 599.28 624.57 592.22 625.64 585.31 627.3 578.3 628.44 571.26 629.33 564.27 630.56 557.23 631.5 550.23 632.8 543.18 633.67 536.07 633.97 528.94 633.95 521.91 635.05 514.85 635.96 507.79 636.76 500.67 636.66 493.58 637.15 486.48 637.35 479.38 637.52 472.28 637.71 465.21 638.68 458.12 639.21 451.01 639.05 443.89 638.58 436.8 639.43 429.7 639.41 422.59 639.55 415.48 639.21 408.38 639.94 401.27 639.95 394.16 639.38 387.05 639.6 379.94 639.98 372.84 639.68 365.73 639.65 358.62 639.59 351.52 639.06 344.43 638.51 337.33 638.19 330.2 638.65 323.13 637.74 316.04 637.45 308.92 637.59 301.83 637.05 294.75 636.47 287.66 635.97 280.63 634.8 273.57 633.97 266.4 634.47 259.34 633.59 252.37 632.05 245.31 631.26 238.16 631.16 231.15 630.01 224.3 627.92 217.15 627.55 210.33 625.5 203.29 624.35 196.72 621.62 190.4 618.56 185.25 613.81 190.12 608.55 196.65 605.79 203.32 603.29 210.25 601.68 217.33 600.89 224.3 599.61 231.18 597.68 238.31 597.42 245.25 595.72 252.29 594.74 259.4 594.44 266.5 593.99 273.54 593.09 280.57 591.92 287.71 592.07 294.79 591.54 301.86 590.79 308.97 590.82 316.06 590.4 323.16 590.21 330.26 590.02 337.31 588.74 344.42 588.58 351.54 588.97 358.62 588.03 365.74 588.77 372.83 587.72 379.94 587.79 387.04 587.93 394.15 587.74 401.27 588.37 408.37 588.65 415.48 587.93 422.59 587.62 429.69 587.96 436.79 588.52 443.9 588.65 450.99 589.22 458.1 589.06 465.22 588.87 472.31 589.49 479.38 590.32 486.49 590.29 493.58 590.54 500.68 590.89 507.75 591.58 514.84 592.01 521.89 592.94 529.03 592.78 536.07 593.86 543.1 594.86 550.23 595.02 557.19 596.57 564.38 596.4 571.29 598.17 578.34 599.07 585.22 600.91 592.39 601.29 599.06 603.89 605.9 605.78 612.53 608.37 617.21 613.81"/><polygon class="d" points="617.21 613.81 612.21 618.71 605.8 621.59 599.28 624.57 592.22 625.64 585.31 627.3 578.3 628.44 571.26 629.33 564.27 630.56 557.23 631.5 550.23 632.8 543.18 633.67 536.07 633.97 528.94 633.95 521.91 635.05 514.85 635.96 507.79 636.76 500.67 636.66 493.58 637.15 486.48 637.35 479.38 637.52 472.28 637.71 465.21 638.68 458.12 639.21 451.01 639.05 443.89 638.58 436.8 639.43 429.7 639.41 422.59 639.55 415.48 639.21 408.38 639.94 401.27 639.95 394.16 639.38 387.05 639.6 379.94 639.98 372.84 639.68 365.73 639.65 358.62 639.59 351.52 639.06 344.43 638.51 337.33 638.19 330.2 638.65 323.13 637.74 316.04 637.45 308.92 637.59 301.83 637.05 294.75 636.47 287.66 635.97 280.63 634.8 273.57 633.97 266.4 634.47 259.34 633.59 252.37 632.05 245.31 631.26 238.16 631.16 231.15 630.01 224.3 627.92 217.15 627.55 210.33 625.5 203.29 624.35 196.72 621.62 190.4 618.56 185.25 613.81 190.12 608.55 196.65 605.79 203.32 603.29 210.25 601.68 217.33 600.89 224.3 599.61 231.18 597.68 238.31 597.42 245.25 595.72 252.29 594.74 259.4 594.44 266.5 593.99 273.54 593.09 280.57 591.92 287.71 592.07 294.79 591.54 301.86 590.79 308.97 590.82 316.06 590.4 323.16 590.21 330.26 590.02 337.31 588.74 344.42 588.58 351.54 588.97 358.62 588.03 365.74 588.77 372.83 587.72 379.94 587.79 387.04 587.93 394.15 587.74 401.27 588.37 408.37 588.65 415.48 587.93 422.59 587.62 429.69 587.96 436.79 588.52 443.9 588.65 450.99 589.22 458.1 589.06 465.22 588.87 472.31 589.49 479.38 590.32 486.49 590.29 493.58 590.54 500.68 590.89 507.75 591.58 514.84 592.01 521.89 592.94 529.03 592.78 536.07 593.86 543.1 594.86 550.23 595.02 557.19 596.57 564.38 596.4 571.29 598.17 578.34 599.07 585.22 600.91 592.39 601.29 599.06 603.89 605.9 605.78 612.53 608.37 617.21 613.81"/><polygon class="c" points="617.04 679.78 612.36 684.93 606.06 688.3 599.29 690.56 592.36 692.24 585.2 692.69 578.35 694.67 571.34 695.81 564.36 697.18 557.21 697.31 550.13 697.83 543.15 699.31 536.1 700.28 528.95 700.07 521.93 701.35 514.8 701.19 507.72 701.72 500.68 702.82 493.57 703 486.46 703.03 479.38 703.52 472.29 704.01 465.21 704.72 458.1 704.41 451 704.74 443.9 705.27 436.79 704.59 429.7 705.84 422.58 704.96 415.48 705.16 408.38 705.72 401.27 704.92 394.16 705.48 387.05 705.47 379.94 705.62 372.84 705.33 365.73 705.54 358.62 705.57 351.54 704.33 344.42 704.82 337.32 704.58 330.23 704.07 323.12 704.09 316.05 703.27 308.96 702.85 301.88 702.3 294.79 701.82 287.67 701.84 280.64 700.67 273.55 700.23 266.44 699.93 259.35 699.48 252.36 698.12 245.31 697.27 238.18 696.99 231.13 696.09 224.23 694.27 217.22 693.14 210.18 692.13 203.27 690.41 196.8 687.35 190.28 684.74 185.28 679.78 190.32 674.87 196.68 671.83 203.34 669.36 210.18 667.34 217.18 666.11 224.12 664.51 231.15 663.45 238.32 663.47 245.33 662.35 252.31 660.87 259.4 660.35 266.51 660.15 273.53 658.88 280.65 658.85 287.73 658.37 294.79 657.47 301.84 656.52 308.92 655.95 316.08 656.71 323.16 656.14 330.24 655.49 337.33 655.26 344.43 654.81 351.54 654.95 358.63 654.25 365.73 654.33 372.83 654.03 379.95 654.53 387.05 654.42 394.15 653.9 401.27 654.51 408.37 654.3 415.48 653.74 422.59 653.77 429.69 654.54 436.81 653.87 443.9 654.48 451.01 654.28 458.09 655.32 465.19 655.61 472.32 655.04 479.39 656.02 486.47 656.54 493.56 656.89 500.68 656.8 507.8 656.87 514.85 657.95 521.91 658.7 529.01 658.99 536.09 659.55 543.11 660.75 550.2 661.24 557.32 661.52 564.37 662.4 571.39 663.5 578.39 664.74 585.25 666.71 592.18 668.21 599.16 669.5 605.83 671.92 612.3 674.74 617.04 679.78"/><polygon class="d" points="617.04 679.78 612.36 684.93 606.06 688.3 599.29 690.56 592.36 692.24 585.2 692.69 578.35 694.67 571.34 695.81 564.36 697.18 557.21 697.31 550.13 697.83 543.15 699.31 536.1 700.28 528.95 700.07 521.93 701.35 514.8 701.19 507.72 701.72 500.68 702.82 493.57 703 486.46 703.03 479.38 703.52 472.29 704.01 465.21 704.72 458.1 704.41 451 704.74 443.9 705.27 436.79 704.59 429.7 705.84 422.58 704.96 415.48 705.16 408.38 705.72 401.27 704.92 394.16 705.48 387.05 705.47 379.94 705.62 372.84 705.33 365.73 705.54 358.62 705.57 351.54 704.33 344.42 704.82 337.32 704.58 330.23 704.07 323.12 704.09 316.05 703.27 308.96 702.85 301.88 702.3 294.79 701.82 287.67 701.84 280.64 700.67 273.55 700.23 266.44 699.93 259.35 699.48 252.36 698.12 245.31 697.27 238.18 696.99 231.13 696.09 224.23 694.27 217.22 693.14 210.18 692.13 203.27 690.41 196.8 687.35 190.28 684.74 185.28 679.78 190.32 674.87 196.68 671.83 203.34 669.36 210.18 667.34 217.18 666.11 224.12 664.51 231.15 663.45 238.32 663.47 245.33 662.35 252.31 660.87 259.4 660.35 266.51 660.15 273.53 658.88 280.65 658.85 287.73 658.37 294.79 657.47 301.84 656.52 308.92 655.95 316.08 656.71 323.16 656.14 330.24 655.49 337.33 655.26 344.43 654.81 351.54 654.95 358.63 654.25 365.73 654.33 372.83 654.03 379.95 654.53 387.05 654.42 394.15 653.9 401.27 654.51 408.37 654.3 415.48 653.74 422.59 653.77 429.69 654.54 436.81 653.87 443.9 654.48 451.01 654.28 458.09 655.32 465.19 655.61 472.32 655.04 479.39 656.02 486.47 656.54 493.56 656.89 500.68 656.8 507.8 656.87 514.85 657.95 521.91 658.7 529.01 658.99 536.09 659.55 543.11 660.75 550.2 661.24 557.32 661.52 564.37 662.4 571.39 663.5 578.39 664.74 585.25 666.71 592.18 668.21 599.16 669.5 605.83 671.92 612.3 674.74 617.04 679.78"/><polyline class="d" points="331.2 596.57 337.94 594.48 344.81 592.93 351.65 591.19 358.75 590.87 365.7 589.8 372.56 587.92 379.65 587.98 386.66 587.36 393.66 586.24 400.73 586.99 407.77 586.4 414.81 587.01 421.87 586.86 428.84 588.09 435.91 588.32 442.82 589.8 449.78 590.94 456.5 593.12 463.32 594.85 470.21 596.41"/><polygon points="400.43 614.51 393.56 612.96 386.57 611.55 379.55 610.3 372.54 608.97 365.69 606.93 358.56 606.14 351.67 604.22 344.79 602.79 349.31 598.34 354.3 594.25 359.54 590.63 366.51 590 373.62 589.98 380.67 588.8 387.74 588.04 394.87 588.15 401.99 588.36 409.04 587.11 416.14 586.8 423.31 586.16 429.83 589 436.61 590.85 443.07 593.62 449.8 595.63 456.19 598.59 462.96 600.74 455.93 602.19 449.08 604.15 442.12 605.62 435.06 606.67 428.2 608.58 421.33 610.45 414.3 611.62 407.33 613.05 400.43 614.51"/><polygon points="403.98 621.06 410.91 620.93 418.04 620.52 425.17 620.39 432.3 620.65 439.4 619.55 446.52 619.44 453.64 619.03 460.79 619.42 467.91 618.9 475.05 618.88 482.13 617.93 489.28 617.93 496.33 616.53 503.49 616.62 510.56 615.54 517.68 615.05 524.77 614.29 531.86 613.5 539.04 613.47 545.99 611.52 553.16 611.31 560.14 609.78 567.11 608.27 574.34 608.08 581.32 606.57 588.04 604.01 595.03 602.52 587.97 600.82 580.76 600.19 573.61 599.15 566.5 597.84 559.37 596.65 552.23 595.59 545 595.14 537.85 594.04 530.7 593 523.5 592.31 516.33 591.27 509.04 591.59 501.85 590.81 494.7 589.43 487.45 590.06 480.19 589.69 473.12 592.23 466.4 595.63 459.49 598.5 452.58 601.42 445.36 603.55 438.48 606.53 431.42 609.08 424.65 612.31 417.87 615.56 410.54 617.47 403.98 621.06"/><line class="d" x1="172.56" y1="181.17" x2="165.2" y2="183.32"/><polyline class="d" points="164.83 182.73 171.14 179.16 177.71 176.1 184 172.56 190.19 168.8 196.96 166.18 203.12 162.31 209.81 159.54 216.42 156.6 223.11 153.87 229.78 151.09 236.59 148.65 243.34 146.11 249.71 142.53 256.83 140.94 263.57 138.34 270.43 136.08 277.27 133.77 284.2 131.72 290.89 128.88 297.88 127.02 304.7 124.58 311.77 123.03 318.88 121.65 325.71 119.18 332.66 117.13 339.7 115.49 346.74 113.81 353.91 112.77 360.89 110.85 368.04 109.72 375.06 107.94 382.36 107.66 389.42 106.06 396.49 104.45 403.61 103.16 410.78 102.2 418.03 101.84 425.12 100.2 432.37 99.97 439.51 98.78 446.69 97.86 453.98 98.2 461.14 96.97 468.38 96.91 475.56 95.73 482.82 96.14 490.03 95.48 497.27 95.58 504.5 95.33 511.71 94.3 518.96 94.61 526.3 94.09 533.37 97.11 540.55 99.63 538.88 106.62 536.25 113.42 535.3 120.67 532.94 127.55 530.93 134.53 529.23 141.58 528.46 148.84 526.27 155.78 525.37 162.99 524.19 170.14 523.2 177.31 521.54 184.39 520.88 191.61 519.82 198.78 519.13 206 518.25 213.19 518.04 220.44 516.82 227.64 517.66 234.92 517.35 242.16 516.79 249.41 517.39 256.64 517.91 263.87 518.11 271.12 519.26 278.28 520.4 285.43 521.47 292.59 521.68 299.92 523.36 306.99 525.61 313.9 527.93 320.76 529.99 327.7 532.56 334.46 534.64 341.43 537.71 348.01 541.27 354.34 545 360.56 548.74 366.77 553.32 372.41 557.91 377.8 558 384.78 558.25 392 558.25 399.22 557.42 406.4 556.42 413.55 556.06 420.76 555.46 427.96 553.85 435.02 552.54 442.11 551.74 449.31 549.25 456.15 548.24 463.32 546.28 470.27 544.14 477.16 542.38 484.17 540.09 491.02 537.41 497.72 535 504.53 531.27 510.78 528.68 517.52 525.79 524.14 521.68 530.13 518.14 536.39 514.6 542.67 510.28 548.44 506.41 554.52 502.41 560.54 497.16 565.55 492.48 571 488.2 576.9 482.2 581.05 476.82 585.81 471.1 590.16 465.85 595.22 459.36 598.46 453.11 602.05 446.41 604.69 439.76 607.39 432.97 609.75 426.15 612.2 418.9 612.62 411.76 613.25 404.59 613.51 397.36 613.83 390.16 613.15 382.9 612.8 375.76 611.54 368.87 609.21 361.94 607.2 354.75 605.92 348.03 603.18 341.65 599.72 335.08 596.69 328.91 592.92 322.66 589.28 316.41 585.57 310.9 580.84 305.14 576.42 300.38 570.9 294.94 566.11 290.13 560.68 285.81 554.87 280.95 549.46 277.67 542.93 272.97 537.33 269.35 531.04 266.86 524.18 263.48 517.79 260.59 511.16 258.12 504.36 255.18 497.73 253.01 490.82 251.11 483.83 249.47 476.78 247.72 469.75 246.75 462.57 245.16 455.49 244.76 448.24 243.34 441.11 242.71 433.89 242.69 426.64 241.81 419.42 242.83 412.16 242.08 404.85 242.34 397.54 242.47 390.24 242.57 382.93 242.56 375.61 243.3 368.32 244 361.04 244.63 353.75 245.88 346.54 247.5 339.39 248.76 332.2 249.51 324.89 250.97 317.71 252.82 310.62 255.63 303.81 257.68 297.07 260.05 290.44 262.73 283.91 265.13 277.27 267.6 270.66 269.89 263.98 271.79 257.17 273.76 250.39 276.51 243.86 278.24 237.01 279.54 230.06 280.75 223.13 282.19 216.2 282.69 209.14 282.19 202.07 280.74 195.14 278.47 188.41 274.22 182.72 269.04 177.92"/><polyline class="c" points="540.86 99.83 535.03 104.17 529.47 108.79 523.76 113.25 517.71 117.25 511.42 120.86 504.97 124.18 498.36 127.13 491.77 130.13 484.95 132.59 478.4 135.71 471.33 137.44 464.72 140.45 457.6 141.94 450.75 144.24 443.77 146.13 436.92 148.47 429.9 150.2 422.91 152.05 415.87 153.68 408.98 155.96 401.92 157.58 394.75 158.62 387.8 160.76 380.64 161.84 373.44 162.71 366.47 164.85 359.24 165.48 352.05 166.35 344.92 167.62 337.78 168.78 330.63 169.85 323.44 170.68 316.28 171.73 309.24 173.64 302.04 174.38 294.87 175.41 287.69 176.34 280.45 176.68 273.21 177.02 266.08 178.44 258.81 178.47 251.69 179.98 244.44 180.23 237.23 180.81 230.04 181.63 222.82 182.04 215.64 183.05 208.39 183.19 201.15 183.19 193.97 184.39 186.74 184.76 179.51 184.94 172.28 185.07 165.09 186.07"/><polyline class="d" points="540.86 99.83 535.03 104.17 529.47 108.79 523.76 113.25 517.71 117.25 511.42 120.86 504.97 124.18 498.36 127.13 491.77 130.13 484.95 132.59 478.4 135.71 471.33 137.44 464.72 140.45 457.6 141.94 450.75 144.24 443.77 146.13 436.92 148.47 429.9 150.2 422.91 152.05 415.87 153.68 408.98 155.96 401.92 157.58 394.75 158.62 387.8 160.76 380.64 161.84 373.44 162.71 366.47 164.85 359.24 165.48 352.05 166.35 344.92 167.62 337.78 168.78 330.63 169.85 323.44 170.68 316.28 171.73 309.24 173.64 302.04 174.38 294.87 175.41 287.69 176.34 280.45 176.68 273.21 177.02 266.08 178.44 258.81 178.47 251.69 179.98 244.44 180.23 237.23 180.81 230.04 181.63 222.82 182.04 215.64 183.05 208.39 183.19 201.15 183.19 193.97 184.39 186.74 184.76 179.51 184.94 172.28 185.07 165.09 186.07"/><polyline class="d" points="531.77 132.33 539.19 132.82 546.63 132.84 554.03 133.59 561.47 133.49 568.88 134.32 576.32 134.44 583.76 134.38 591.19 133.78 598.62 133.54 606.02 132.92 613.43 132.37 620.82 131.73 628.16 130.66 635.53 129.61 638.55 136.28 641.22 143.06 644.24 149.75 646.15 156.82 647.73 163.97 648.84 171.21 649.53 178.5 649.7 185.81 650.1 193.13 649.5 200.43 648.64 207.69 648.29 215.03 646.46 222.13 644.74 229.23 642.62 236.22 640.86 243.32 638.7 250.32 635.46 256.91 632.83 263.74 629.92 270.45 626.75 277.05 622.43 283.03 618.99 289.48 615.71 296.07 611.41 302 606.78 307.7 602.4 313.4 595.89 315.5 589.06 317.54 581.99 318.3 574.89 318.51 567.79 317.95 560.69 318.25 553.65 317.35 546.61 316.57 539.53 315.99 532.47 315.2 525.58 313.39"/><polyline class="d" points="531.74 157.87 538.74 158.16 545.63 159.41 552.57 160.15 559.53 160.87 566.53 160.91 573.5 161.4 580.49 161 587.47 160.7 594.49 161.11 601.39 159.74 608.38 159.3 615.15 157.7 618.86 163.86 620.27 171.03 621.6 178.3 620.51 185.62 620.36 192.97 619.55 200.28 618.17 207.5 616.37 214.62 614.98 221.85 612.85 228.89 610.5 235.86 607.82 242.7 606.01 249.84 603.69 256.81 600.53 263.48 598.02 270.38 595.68 277.36 592.95 284.18 590.01 290.92 583 293.41 575.53 293.82 568.09 293.62 560.63 293.77 553.26 292.55 545.93 291.32 538.57 290.35 531.14 289.72 523.71 288.95"/><polygon points="205.93 182.81 211.97 179.44 218.54 176.36 225.11 173.27 231.67 170.16 238.5 167.69 245.19 164.86 252.29 163.13 258.9 160.08 265.81 157.88 272.66 155.52 279.43 152.87 286.49 151.14 293.56 149.47 300.3 146.7 307.46 145.35 314.31 142.91 321.42 141.42 328.31 139.1 335.38 137.46 342.42 135.68 349.49 134.02 356.61 132.63 363.73 131.24 370.8 129.59 377.89 128.06 385.11 127.2 392.15 125.39 399.24 123.8 406.53 123.35 413.62 121.76 420.88 121.24 428.03 120 435.12 118.31 442.39 117.92 449.53 116.55 456.7 115.42 463.96 115.01 471.15 113.97 478.4 113.54 485.64 112.98 492.88 112.52 500.05 111.22 507.31 110.84 514.53 110.15 521.76 109.41 529.42 108.92 523.53 113.97 516.84 116.97 510.59 120.7 504.16 124.12 497.39 126.79 490.62 129.44 483.75 131.83 477.19 135.05 470.04 136.6 463.44 139.82 456.16 140.91 449.44 143.83 442.41 145.68 435.36 147.49 428.15 148.66 421.29 151.22 414.11 152.46 407.14 154.61 399.85 155.32 392.74 156.82 385.61 158.23 378.58 160.12 371.51 161.9 364.32 163 357.19 164.44 349.85 164.64 342.86 166.94 335.66 168.03 328.38 168.5 321.23 169.86 313.99 170.64 306.84 171.98 299.65 173.13 292.43 173.99 285.15 174.36 277.9 174.99 270.68 175.83 263.51 177.08 256.29 178 249.03 178.49 241.82 179.54 234.58 180.17 227.31 180.67 220.1 181.67 212.86 182.41 205.93 182.81"/><polygon class="d" points="205.93 182.81 211.97 179.44 218.54 176.36 225.11 173.27 231.67 170.16 238.5 167.69 245.19 164.86 252.29 163.13 258.9 160.08 265.81 157.88 272.66 155.52 279.43 152.87 286.49 151.14 293.56 149.47 300.3 146.7 307.46 145.35 314.31 142.91 321.42 141.42 328.31 139.1 335.38 137.46 342.42 135.68 349.49 134.02 356.61 132.63 363.73 131.24 370.8 129.59 377.89 128.06 385.11 127.2 392.15 125.39 399.24 123.8 406.53 123.35 413.62 121.76 420.88 121.24 428.03 120 435.12 118.31 442.39 117.92 449.53 116.55 456.7 115.42 463.96 115.01 471.15 113.97 478.4 113.54 485.64 112.98 492.88 112.52 500.05 111.22 507.31 110.84 514.53 110.15 521.76 109.41 529.42 108.92 523.53 113.97 516.84 116.97 510.59 120.7 504.16 124.12 497.39 126.79 490.62 129.44 483.75 131.83 477.19 135.05 470.04 136.6 463.44 139.82 456.16 140.91 449.44 143.83 442.41 145.68 435.36 147.49 428.15 148.66 421.29 151.22 414.11 152.46 407.14 154.61 399.85 155.32 392.74 156.82 385.61 158.23 378.58 160.12 371.51 161.9 364.32 163 357.19 164.44 349.85 164.64 342.86 166.94 335.66 168.03 328.38 168.5 321.23 169.86 313.99 170.64 306.84 171.98 299.65 173.13 292.43 173.99 285.15 174.36 277.9 174.99 270.68 175.83 263.51 177.08 256.29 178 249.03 178.49 241.82 179.54 234.58 180.17 227.31 180.67 220.1 181.67 212.86 182.41 205.93 182.81"/><polyline class="c" points="163.62 185.82 162.38 182.9 161.84 190.42 161.06 197.94 160.69 205.6 166.37 201.22 172.51 197.74 178.49 194.03 184.44 190.23 191.08 187.81 197.38 184.54 204.37 183.33"/><polyline class="d" points="163.62 185.82 162.38 182.9 161.84 190.42 161.06 197.94 160.69 205.6 166.37 201.22 172.51 197.74 178.49 194.03 184.44 190.23 191.08 187.81 197.38 184.54 204.37 183.33"/><polygon points="288.77 221.51 285.9 227.1 283.61 233.22 281.99 239.6 278.69 245.67 286.2 246.69 293.06 249.23 300.2 250.57 307.28 252.19 314.4 253.67 321.37 255.81 329.56 257.27 337.59 259.45 345.72 261.65 352.99 258.33 360.23 255.22 367.61 252.5 375.26 250.46 382.54 247.72 389.42 246.65 396.43 247.33 403.43 246.74 410.44 246.76 417.43 246.75 424.22 248.77 431.3 249.67 438.17 251.46 445.11 252.98 452 254.49 458.83 255.27 465.75 255.71 472.68 256.16 479.6 256.84 486.81 254.18 494.23 252.24 501.35 249.34 508.67 247.08 516.06 244.92 517.05 237.32 516.94 229.66 517.75 222.07 518.13 214.56 511.54 218.2 505.38 222.77 498.81 226.72 491.61 228.07 484.25 228.43 477.13 230.29 469.8 230.84 462.65 233.04 455.75 231.39 448.85 230.44 441.86 230.12 434.88 229.44 428.24 226.91 421.48 224.87 414.66 223.04 407.83 221.31 400.13 221.44 392.45 222.01 384.76 222.66 377.12 223.28 370.12 225.72 363.16 228.4 356.4 231.55 349.7 235.01 341.38 234.06 333.08 233.95 324.74 233.88 317.42 231.56 310.5 228.14 303.06 226.28 295.93 223.48 288.77 221.51"/><polygon points="265.88 269.58 263.05 276.36 260.53 282.97 258.33 289.71 255.7 296.27 252.36 302.71 259.56 300.88 266.73 299.52 273.69 297.61 281.69 297.85 289.63 299.25 297.62 299.94 305.49 301.58 313.19 303.94 321.06 305.69 328.71 308.68 335.3 306.81 341.87 305.63 348.48 304.67 355.16 304.12 361.77 303.09 368.25 300.89 375.09 300.31 381.47 297.73 388.1 296.17 394.85 295.65 401.85 296.13 408.74 297.63 415.58 299.35 422.56 300.42 429.41 302.15 436.33 303.49 443.13 305.46 450.07 306.75 456.99 307.89 464.14 306.3 471.42 305.11 478.59 303.32 485.87 302.13 493.23 301.3 500.5 300 507.58 297.8 514.92 296.84 522.01 295.11 520.9 287.02 519.38 278.91 518.58 270.69 511.62 273.34 504.54 275.49 497.38 277.45 490.02 278.68 483.07 281.32 476.02 283.65 468.87 286.03 461.76 283.39 454.36 282.55 447.25 280.41 440.05 278.69 432.84 277.02 425.45 276.13 418.41 273.68 411.14 272.22 403.89 271.04 396.7 272.76 389.45 274.56 382.13 276.04 374.85 277.72 367.47 278.98 360.24 280.9 352.96 282.58 345.56 283.75 338.36 285.36 331.23 283.8 323.89 282.68 316.69 280.97 309.49 279.3 302.46 276.9 295.17 275.57 287.99 273.8 280.97 271.33 273.61 270.44 265.88 269.58"/><polygon points="245.18 356.38 244.9 348.53 245.61 340.34 246.18 331.95 252.94 329.41 258.96 325.93 265.16 322.57 272.15 324.16 279.22 324.86 286.06 326.72 293.09 327.64 299.93 329.56 306.94 330.56 313.84 332.14 320.86 333.06 327.76 334.67 334.8 335.61 341.77 337.47 348.97 334.77 356.27 332.82 363.51 330.67 370.76 328.54 378.16 326.93 385.32 324.49 392.56 322.31 399.93 320.69 407.13 322.88 414.42 324.84 421.7 326.86 429.12 328.35 436.38 330.46 443.47 333.17 450.87 334.74 458.11 336.91 465.46 338.08 472.33 336.83 479.1 334.63 485.89 332.5 492.73 330.54 499.51 328.4 506.24 326.06 513.1 324.16 519.99 322.35 527.11 320.17 529.51 327.39 531.51 334.42 534.25 341.18 537.52 348.12 530.11 345.9 522.79 344.6 516.26 346.93 509.66 348.78 503.25 351.28 496.71 353.36 489.95 354.7 483.54 357.2 476.91 358.98 470.42 361.24 463.77 362.44 456.46 361.41 449.55 358.43 442.19 357.06 435.01 355.01 427.71 353.43 420.53 351.38 413.39 349.2 406.28 346.9 399.08 344.61 391.87 347.21 384.5 349.03 377.31 351.46 370.21 354.14 363.07 356.73 355.64 358.36 348.28 360.24 341.19 363.2 334.64 361.04 328.03 359.32 321.44 357.55 314.97 355.37 308.36 353.67 301.78 351.87 295.3 349.69 288.81 347.56 282.14 345.88 274.64 348 267.1 349.86 259.75 352.37 252.23 354.27 245.18 356.38"/><polyline class="d" points="282.36 220.22 288.92 222.56 295.51 224.79 302.08 227.09 308.55 229.66 315.29 231.41 321.93 233.47 328.63 235.47 335.58 236.37 342.52 235.36 349.88 234.44 356.88 231.99 363.87 229.57 370.66 226.6 377.75 224.4 384.65 221.62 391.91 219.91 399.36 219.34 406.9 220.76 414.45 221.71 421.85 223.61 429.17 225.82 436.03 229.31 443.53 230.94 450.74 233.47 458.2 234.6 465.75 234.61 473.13 233.03 480.66 232.45 487.92 230.43 494.99 227.83 502.09 225.39 509.1 222.7 516.19 220.22"/><polyline class="d" points="273.93 244.51 280.92 246.09 287.74 248.34 294.68 250.2 301.4 252.77 308.15 255.23 315.05 257.31 322.05 258.99 329.19 259.88 336.29 260.58 343.08 261.07 349.78 259.8 356.48 258.38 362.88 256 369.06 253.06 375.64 251.2 382.01 248.83 388.4 246.45 395.14 245.42 402.02 244.81 408.74 246.44 415.63 247.07 422.3 248.83 428.83 251.04 435.2 253.72 441.74 255.86 448.53 257.08 455.25 259.26 462.28 258.57 469.22 258.23 476.29 258.35 482.96 256.02 489.73 254.35 496.5 252.6 503.01 250 509.68 247.9 516.19 245.32"/><polyline class="d" points="265.41 271.29 272.74 271.49 279.98 271.64 287.2 272.54 294.21 274.55 301.31 276.32 308.21 278.68 314.87 281.72 321.99 283.36 329.03 285.24 336.27 285.92 343.58 286.52 350.56 284.22 357.84 283.19 364.52 280.19 371.35 277.68 378.04 274.72 384.98 272.43 392.11 270.8 399.33 270.41 406.5 271.09 413.67 271.89 420.57 274 427.54 275.84 434.54 277.66 441.46 279.71 448.05 282.71 455.12 284.8 462.49 284.58 469.8 284.44 477.01 283.18 484.12 281.48 491.25 279.82 498.17 277.41 505.05 274.92 512.02 272.68 518.97 270.39"/><polyline class="d" points="256.8 299.65 264.06 298.09 271.29 296.58 278.67 297.07 286.01 297.53 293.16 299.26 300.36 300.82 307.29 303.33 314.4 305.26 321.27 308.01 328.55 309.31 335.5 310.46 342.55 310.2 349.5 309 356.45 307.65 363.05 305.06 369.66 302.53 376.47 300.56 383.26 298.59 390.09 296.86 397.06 296.08 404.12 295.74 411.1 296.84 417.81 299.09 424.7 300.59 431.36 302.91 438.31 304.36 444.77 307.28 451.58 309.09 458.87 310.15 466.24 310.19 473.55 309.18 480.69 307.36 487.84 305.58 494.95 303.6 501.89 301.06 509.02 299.04 516.21 297.25 523.2 294.92"/><polyline class="d" points="251.27 327.81 258.23 324.05 265.93 322.45 273.57 320.9 281.3 321.64 289.09 322.48 295.81 324.88 302.79 326.4 309.46 329.05 316.47 330.43 323.11 333.02 329.93 334.54 336.86 335 343.8 334.78 350.52 333.05 357.33 331.84 364.16 330.49 370.47 327.49 377.32 326.14 383.64 323.14 390.46 321.81 397.48 320.92 404.54 321.27 411.52 322.3 418.45 323.76 425.28 325.68 432.01 327.88 438.74 330.08 445.35 332.65 452.27 334.16 459.43 335.09 466.69 335.47 473.72 333.51 480.99 332.96 487.69 330.07 494.64 328.1 501.52 325.87 508.69 324.58 515.57 322.37 522.63 320.75 529.87 320.36"/><polyline class="d" points="246.78 352.94 254.12 350.96 261.41 348.82 268.97 347.98 276.47 346.8 284.01 347.69 291.44 349.16 298.42 350.83 305.44 352.4 312.31 354.51 318.97 357.3 326.19 358.05 333.03 359.34 340.01 359.57 346.99 358.83 353.74 356.93 360.52 355.06 367.04 352.42 373.69 350.11 380.5 348.29 387.29 346.39 394.33 345.97 401.47 345.96 408.76 345.8 415.68 348.01 422.72 349.72 429.35 352.65 436.25 354.82 442.84 357.89 449.92 359.49 456.93 361.35 464.21 361.1 471.49 361.46 478.57 359.78 485.66 358.11 492.56 355.84 499.18 352.8 506.02 350.32 513.13 348.77 520.25 347.39 527.52 346.64 534.64 348.35 541.85 349.41"/><polyline class="d" points="245.27 378.85 252.45 376.68 259.58 374.29 267.05 373.25 274.49 372.5 281.96 372.5 289.46 373.42 296.61 375.87 303.42 378.32 310.23 380.69 317.25 382.42 324.38 383.65 331.25 385.87 338.38 386.93 345.54 386.15 352.54 384.57 359.17 381.84 366.02 379.83 372.6 377.06 379.2 374.31 386.05 372.22 393.12 371.07 400.21 370.29 407.34 370.91 414.38 372.21 420.89 375.3 427.86 376.99 434.39 379.89 441 382.65 447.91 384.52 454.95 385.78 462.05 386.02 469.12 385.59 476.18 384.15 483.1 382.15 489.92 379.79 496.8 377.67 503.68 375.48 511.07 374.11 518.5 373.12 525.94 373.19 533.42 373.17 540.75 374.75 548.07 376.32 555.18 378.73"/><polyline points="621.4 171.59 623.29 175.34 625.09 182.47 627.27 189.47 627.91 196.78 628.88 204.01 628.68 211.31 628.51 218.62 627 225.76 625.5 232.91 622.47 239.57 619.97 246.45 616.19 252.72 612.07 258.77 607.46 264.47 602.06 269.43 596.93 274.65"/><polyline class="d" points="621.4 171.59 623.29 175.34 625.09 182.47 627.27 189.47 627.91 196.78 628.88 204.01 628.68 211.31 628.51 218.62 627 225.76 625.5 232.91 622.47 239.57 619.97 246.45 616.19 252.72 612.07 258.77 607.46 264.47 602.06 269.43 596.93 274.65"/><polyline points="543.48 133.13 541.86 140.06 539.37 146.78 538.09 153.81 536.65 160.79"/><polyline class="d" points="543.48 133.13 541.86 140.06 539.37 146.78 538.09 153.81 536.65 160.79"/><polyline points="530.18 288.39 531.44 295.43 534.18 302.1 534.96 309.27 537.71 315.95"/><polyline class="d" points="530.18 288.39 531.44 295.43 534.18 302.1 534.96 309.27 537.71 315.95"/><polyline class="d" points="268.81 431.55 263.09 436.56 257.88 442.09"/><polyline class="d" points="268.66 383.95 263.39 389.4 258.04 394.79"/><polyline class="d" points="336.38 431.33 330.91 436.59 325.57 441.98"/><polyline class="d" points="334.31 386 330.46 390.83 325.66 394.62"/><polyline class="d" points="404.24 431.4 398.41 436.29 393.66 442.28"/><polyline class="d" points="404.13 383.83 398.7 389.14 393.81 394.98"/><polyline class="d" points="471.94 431.31 466.25 436.34 461.04 441.87"/><polyline class="d" points="470.2 386.33 465.92 390.7 460.83 394.16"/><polyline class="d" points="539.76 431.33 533.97 436.28 529.23 442.27"/><polyline class="d" points="539.34 383.46 534.79 389.64 528.89 394.47"/><polyline class="d" points="495.49 407.23 500.17 413.28 506.12 418.07"/><polyline class="d" points="427.59 407.34 432.7 412.96 438.15 418.24"/><polyline class="d" points="359.26 407.88 364.57 413.3 370.39 418.21"/><polyline class="d" points="292.1 407.24 296.85 413.23 302.43 418.38"/><polyline class="d" points="494.77 455.4 500.5 460.41 505.62 466.02"/><polyline class="d" points="427.59 454.79 432.58 460.54 438.21 465.64"/><polyline class="d" points="359.14 455.45 365.25 460.07 370.21 465.85"/><polyline class="d" points="291.78 455.02 297.27 460.26 302.17 466.1"/><polyline class="d" points="268.67 478.86 263.53 484.45 258.13 489.78"/><polyline class="d" points="336.53 478.93 331.06 484.2 325.91 489.78"/><polyline class="d" points="403.81 478.42 399.22 484.56 393.7 489.78"/><polyline class="d" points="471.86 478.68 466.82 484.37 461.44 489.72"/><polyline class="d" points="539.88 478.9 534.26 484.01 528.83 489.32"/><polyline class="d" points="495.12 502.5 500.6 507.76 505.52 513.58"/><polyline class="d" points="427.44 502.4 432.39 508.18 438.2 513.11"/><polyline class="d" points="359.15 502.9 365 507.78 370.23 513.28"/><polyline class="d" points="292.15 502.1 297.17 507.81 302.38 513.34"/><polyline class="d" points="268.72 529.12 275.56 527.24 282.39 525.19 289.48 524.42 296.49 523.3 303.44 521.82 310.39 520.25 317.51 519.78 324.6 519.22 331.68 518.64 338.7 517.53 345.71 516.16 352.85 516.22 359.96 516.11 367.04 515.48 374.12 515.05 381.19 514.12 388.3 514.37 395.4 514.01 402.51 513.66 409.62 513.76 416.72 514.28 423.83 514.31 430.93 514.65 438.04 514.82 445.05 516.33 452.2 516.16 459.23 517.26 466.24 518.41 473.32 519.09 480.39 519.87 487.46 520.66 494.42 522.16 501.36 523.72 508.33 525.12 515.33 526.43 522.22 528.19"/><polyline class="d" points="282.7 525.66 287.25 531.41 291.37 537.44 295.62 543.36 299.55 549.56 304.63 554.84 309.67 560.14 314.42 565.68 319.51 570.92 324.54 576.25 330.26 580.83 336.14 585.18 342.49 588.81 348.68 592.63"/><polyline class="d" points="361.31 591.25 355.14 587.68 349.24 583.51 344.72 577.87 340.47 572.1 336.06 566.45 332 560.54 327.68 554.76 324.5 548.3 320.91 542.07 317.41 535.78 314.4 529.24 311.9 522.5"/><polyline class="d" points="373.62 590.47 367.65 586.29 363.39 580.37 360.52 573.68 357.05 567.36 353.59 560.97 351.5 554.02 349.19 547.17 346.62 540.41 344.02 533.63 342.56 526.52 341.1 519.44"/><polyline class="d" points="386.27 589.03 381.73 583.23 379.44 576.01 377.7 568.67 376.83 561.15 374.9 553.85 373.35 546.46 372.5 538.96 371.54 531.48 371.04 523.95 369.94 516.49"/><polyline class="d" points="398.85 588 398.23 580.6 398.16 573.21 398.87 565.81 398.11 558.41 398.41 551.01 398.46 543.61 398.95 536.21 398.13 528.81 398.43 521.4 398.85 514"/><polyline class="d" points="509.05 525.62 505.63 531.91 501.05 537.46 497.65 543.77 493.27 549.41 488.96 555.11 484.37 560.58 479.38 565.68 475.1 571.47 469.28 575.71 464.23 580.77 458.83 585.45 452.88 589.42 446.72 593.06"/><polyline class="d" points="434.75 591.73 440.58 587.74 446.39 583.62 450.73 577.96 455.53 572.74 459.73 567.01 463.01 560.7 466.41 554.5 469.55 548.17 473.54 542.25 476.19 535.66 478.91 529.13 481.36 522.5"/><polyline class="d" points="422.75 590.32 428.25 585.88 432.47 580.11 435.67 573.71 439.1 567.42 441.6 560.7 443.76 553.86 447.06 547.39 449.04 540.48 450.13 533.33 452.3 526.49 454.52 519.63"/><polyline class="d" points="410.83 589.08 414.51 582.91 417.65 576.03 418.7 568.54 420.43 561.23 421.67 553.81 422.91 546.38 424.33 538.98 424.41 531.41 426.28 524.05 426.61 516.53"/><polyline class="d" points="399.61 588 398.9 580.6 399.28 573.21 399.02 565.81 399.32 558.41 399.7 551.01 399.16 543.61 399.21 536.21 399.48 528.81 399.99 521.4 399.18 514"/><polyline class="d" points="298.93 162 299.61 169.4 299.38 176.79 299.96 184.19 299.03 191.59 299.28 198.99 299.3 206.39 299.85 213.79 299.83 221.19 299.48 228.59 299.38 236"/><polyline class="d" points="333.23 162 333.88 169.4 333.9 176.79 333.29 184.19 333.82 191.59 333.43 198.99 333.08 206.39 333.21 213.79 333.06 221.19 333.01 228.59 333.06 236"/><polyline class="d" points="368.03 162 367.81 169.4 367.47 176.79 367.65 184.19 367.23 191.59 367.16 198.99 366.98 206.39 367.56 213.79 367.92 221.19 367.81 228.59 367.74 236"/><polyline class="d" points="401.88 146 401.2 152.92 401.33 159.84 402.03 166.76 401.8 173.69 401.88 180.61 401.34 187.53 401.21 194.45 401.78 201.37 401.71 208.29 401.75 215.21 401.73 222.14 402.1 229.07 401.54 236"/><polyline class="d" points="435.4 137 435.33 144.07 435.04 151.14 435.81 158.21 435.72 165.28 435.62 172.35 435.99 179.42 435.5 186.49 434.9 193.56 436.02 200.63 435.96 207.7 435.5 214.77 435.1 221.84 435.62 228.92 435.61 236"/><polyline class="d" points="467.91 128 468.27 135.2 468.92 142.4 469.01 149.6 468.22 156.79 468.56 163.99 468.15 171.19 469.06 178.39 468.49 185.59 468.54 192.79 468 199.98 468.19 207.19 468.14 214.38 468.51 221.58 468.63 228.79 468.26 236"/><polyline class="d" points="502.07 119 502.73 126.31 502.14 133.62 503.06 140.93 501.99 148.24 503 155.55 502.38 162.87 501.92 170.18 502.64 177.49 502.48 184.8 502.54 192.11 502.45 199.42 502.12 206.73 502.75 214.05 501.92 221.36 503.05 228.68 501.95 236"/><polygon class="c" points="150.12 270.22 151.82 277.5 157.44 282.33 164.43 284.74 171.35 282.21 176.78 277.36 178.86 270.22 176.61 263.4 174.47 256.49 170.87 250.19 167.57 243.78 164.85 236.95 160.69 243.39 157.33 249.81 154.33 256.42 151.4 263.08 150.12 270.22"/><polygon class="d" points="150.12 270.22 151.82 277.5 157.44 282.33 164.43 284.74 171.35 282.21 176.78 277.36 178.86 270.22 176.61 263.4 174.47 256.49 170.87 250.19 167.57 243.78 164.85 236.95 160.69 243.39 157.33 249.81 154.33 256.42 151.4 263.08 150.12 270.22"/><polygon class="c" points="150.5 302.42 151.8 309.72 157.28 314.8 164.43 316.95 171.37 314.44 177.28 309.84 178.35 302.42 176.97 295.47 174.44 288.7 171.52 282.07 168.41 275.53 164.71 269.26 160.55 275.52 156.9 281.81 154.57 288.72 151.33 295.26 150.5 302.42"/><polygon class="d" points="150.5 302.42 151.8 309.72 157.28 314.8 164.43 316.95 171.37 314.44 177.28 309.84 178.35 302.42 176.97 295.47 174.44 288.7 171.52 282.07 168.41 275.53 164.71 269.26 160.55 275.52 156.9 281.81 154.57 288.72 151.33 295.26 150.5 302.42"/><polyline class="c" points="403.73 639.33 396.54 640.13 389.37 639.43 382.19 639.57 375.01 639.2 367.83 639.02 360.64 639.38 353.46 639.35 346.27 639.25 339.11 638.57 331.93 638.49 324.74 638.38 317.57 637.98 310.39 637.64 303.22 637.18 296.05 636.76 288.86 636.77 281.69 636.3 274.6 634.84 267.41 634.67 260.25 634.12 253.1 633.39 245.98 632.47 238.87 631.42 231.88 629.66 224.71 629.03 217.68 627.57 210.61 626.19 203.68 624.24 197.16 621.16 190.72 618.38 186 613.52 186 620.84 185.97 628.16 185.93 635.49 185.95 642.82 185.5 650.15 185.53 657.48 186.08 664.81 185.01 672.15 185.82 679.49 190.56 684.1 196.88 687.31 203.64 689.6 210.28 692.53 217.39 693.74 224.53 694.66 231.6 695.88 238.68 697.09 245.78 698.17 252.92 699.04 260.1 699.39 267.15 701.16 274.32 701.75 281.54 701.77 288.67 702.83 295.86 702.94 303.08 702.61 310.22 703.62 317.39 704.37 324.58 704.66 331.79 704.14 338.98 704.36 346.15 705.16 353.34 705.53 360.54 705 367.73 705.42 374.93 704.94 382.12 705.17 389.31 705.56 396.5 706.01 403.7 705.35"/><polyline class="d" points="403.73 639.33 396.54 640.13 389.37 639.43 382.19 639.57 375.01 639.2 367.83 639.02 360.64 639.38 353.46 639.35 346.27 639.25 339.11 638.57 331.93 638.49 324.74 638.38 317.57 637.98 310.39 637.64 303.22 637.18 296.05 636.76 288.86 636.77 281.69 636.3 274.6 634.84 267.41 634.67 260.25 634.12 253.1 633.39 245.98 632.47 238.87 631.42 231.88 629.66 224.71 629.03 217.68 627.57 210.61 626.19 203.68 624.24 197.16 621.16 190.47 618.38 185.5 613.52 185.5 620.84 185.72 628.16 185.8 635.49 185.89 642.82 185.47 650.15 185.51 657.48 186.07 664.81 185 672.15 185.82 679.49 190.56 684.1 196.88 687.31 203.64 689.6 210.28 692.53 217.39 693.74 224.53 694.66 231.6 695.88 238.68 697.09 245.78 698.17 252.92 699.04 260.1 699.39 267.15 701.16 274.32 701.75 281.54 701.77 288.67 702.83 295.86 702.94 303.08 702.61 310.22 703.62 317.39 704.37 324.58 704.66 331.79 704.14 338.98 704.36 346.15 705.16 353.34 705.53 360.54 705 367.73 705.42 374.93 704.94 382.12 705.17 389.31 705.56 396.5 706.01 403.7 705.35"/><polygon points="402.14 639.49 409.58 640 416.67 639.24 423.76 639.83 430.84 639.35 437.93 639.51 445.01 639.13 452.1 638.94 459.19 638.8 466.26 638.14 473.34 637.91 480.44 638.19 487.5 637.42 494.61 637.61 501.7 637.51 508.79 637.12 515.84 636.32 522.93 636.21 529.98 635.41 536.99 634.24 544.1 634.15 551.09 632.83 558.18 632.47 565.2 631.5 572.15 630.13 579.12 628.86 586.01 627.25 592.85 625.47 599.66 623.61 606.47 621.67 613.09 619 617.16 613.51 616.98 620.84 617.41 628.16 617.46 635.49 617.64 642.82 617.6 650.15 617.56 657.48 617.95 664.81 617.37 672.15 616.95 679.5 613.34 685.2 606.74 688.11 599.88 690.05 593.12 692.28 586.05 693.28 579.07 694.63 572.06 695.83 565.05 697.04 558.09 698.7 551.05 699.85 543.9 699.97 536.84 701.04 529.73 701.49 522.61 701.85 515.54 702.75 508.4 702.77 501.29 703.17 494.16 703.25 487.06 704.05 479.94 704.33 472.81 704.35 465.7 704.86 458.57 704.76 451.44 704.71 444.31 704.59 437.2 705.35 430.07 705.66 422.94 705.35 415.81 705.08 408.68 705.63 401.48 705.68 396.89 699.78 393.51 693.29 392.53 686.13 393.85 678.9 398.11 672.76 402.56 666.98 405.44 660.33 407.57 653.25 406.04 645.97 402.14 639.49"/><polygon class="d" points="402.14 639.49 409.58 640 416.67 639.24 423.76 639.83 430.84 639.35 437.93 639.51 445.01 639.13 452.1 638.94 459.19 638.8 466.26 638.14 473.34 637.91 480.44 638.19 487.5 637.42 494.61 637.61 501.7 637.51 508.79 637.12 515.84 636.32 522.93 636.21 529.98 635.41 536.99 634.24 544.1 634.15 551.09 632.83 558.18 632.47 565.2 631.5 572.15 630.13 579.12 628.86 586.01 627.25 592.85 625.47 599.66 623.61 606.47 621.67 613.09 619 617.16 613.51 616.98 620.84 617.41 628.16 617.46 635.49 617.64 642.82 617.6 650.15 617.56 657.48 617.95 664.81 617.37 672.15 616.95 679.5 613.34 685.2 606.74 688.11 599.88 690.05 593.12 692.28 586.05 693.28 579.07 694.63 572.06 695.83 565.05 697.04 558.09 698.7 551.05 699.85 543.9 699.97 536.84 701.04 529.73 701.49 522.61 701.85 515.54 702.75 508.4 702.77 501.29 703.17 494.16 703.25 487.06 704.05 479.94 704.33 472.81 704.35 465.7 704.86 458.57 704.76 451.44 704.71 444.31 704.59 437.2 705.35 430.07 705.66 422.94 705.35 415.81 705.08 408.68 705.63 401.48 705.68 396.89 699.78 393.51 693.29 392.53 686.13 393.85 678.9 398.11 672.76 402.56 666.98 405.44 660.33 407.57 653.25 406.04 645.97 402.14 639.49"/><polyline class="c" points="616.44 613 616.49 620.33 616.25 627.66 616.93 634.99 616.66 642.32 616.14 649.65 617.01 656.99 617.03 664.32 616.71 671.66 617 679"/><polyline class="d" points="616.44 613 616.49 620.33 616.25 627.66 616.93 634.99 616.66 642.32 616.14 649.65 617.01 656.99 617.03 664.32 616.71 671.66 617 679"/></svg>