<svg xmlns="http://www.w3.org/2000/svg" xmlns:xlink="http://www.w3.org/1999/xlink" viewBox="0 0 800 800"><defs><style>.a,.c,.e{fill:none;}.b{fill:#fff;}.c,.e{stroke:#000;stroke-linejoin:bevel;}.c{stroke-width:13px;}.d{clip-path:url(#a);}.e{stroke-width:7px;}</style><clipPath id="a"><polygon class="a" points="251.83 290.68 252.58 297.35 252.38 304.19 253.06 310.96 253.58 317.74 253.84 324.54 253.97 331.36 255.33 338.09 255.77 344.74 259.54 350.3 264.5 354.92 271.37 356.08 278.21 357.74 285.13 358.92 292 360.38 298.88 361.78 305.82 362.93 312.73 364.21 319.63 365.54 327.11 366.07 334.62 366.14 342.09 366.95 349.61 366.92 357.08 367.73 364.54 368.74 372.06 368.79 379.54 369.45 387.03 369.89 394.55 370.47 401.81 369.38 409.07 368.71 416.36 368.47 423.65 368.29 430.9 367.52 438.2 367.4 445.48 366.92 452.72 365.91 459.97 365.04 467.24 364.52 474.55 364.5 481.91 364.48 488.93 362.24 495.88 359.92 502.96 358.1 509.99 356.1 517.11 354.39 524.34 353.1 531.38 351.01 532.37 344.16 534.61 337.61 535.55 330.77 537.24 324.1 538.61 317.35 539.82 310.57 541.7 303.91 539.36 297.03 536.77 290.24 534.49 283.08 527.13 284.71 520.04 286.43 512.86 287.59 505.64 288.6 498.41 289.52 491.33 291.3 484.2 292.74 477.06 294.22 469.83 295.21 462.67 296.67 455.63 296.96 448.61 297.15 441.58 297.23 434.56 297.37 427.54 297.9 420.51 297.67 413.5 298.37 406.45 297.62 399.44 298.14 392.41 298.43 385.39 298.66 378.37 299.06 371.34 299.24 364.3 299.43 356.95 298.31 349.61 297.16 342.26 296.12 334.9 295.1 327.63 293.53 320.25 292.62 312.95 291.22 305.5 290.88 298.21 289.39 290.84 288.44 283.44 287.68 276.16 286.14 268.73 285.59 261.52 284.57 256.68 287.54 251.83 290.68"/></clipPath></defs><title>kiln-2</title><polygon class="b" points="629.85 587.1 629.1 585.61 628.99 578.73 629.13 571.85 628.65 564.96 629.11 558.08 629.06 551.2 629.48 544.31 628.95 537.68 622.11 539.42 614.81 540.21 607.83 542.44 600.6 543.55 593.42 544.91 586.43 547.1 579.27 548.52 572.23 550.48 564.92 551.25 557.97 553.62 550.72 554.64 543.64 556.45 536.54 558.17 529.34 559.46 522.3 561.54 515.08 561.9 507.88 562.07 500.7 562.43 493.5 562.6 486.33 563.26 479.27 564.87 472.03 564.81 464.92 565.89 457.87 567.37 450.78 568.62 443.53 568.78 436.45 570.06 429.46 571.86 422.33 572.82 415.22 573.93 408.17 575.4 401.22 577.34 394.13 578.59 387.1 580.1 380 581.35 373.01 583.06 366.04 584.86 359.15 586.94 352.1 588.4 345.06 589.92 338.15 591.93 331.24 593.95 324.47 596.44 317.48 598.19 310.63 600.38 303.81 602.68 296.86 604.58 290.22 607.38 283.5 609.94 276.61 612.04 270.13 615.21 263.31 617.49 256.69 620.35 249.39 621.58 242.32 623.78 235.11 625.4 227.91 626.99 220.69 628.56 213.33 629.44 206.21 631.42 199.1 633.48 191.86 634.93 184.53 635.99 177.43 638.12 169.85 639.18 170.25 646.87 170.61 654.32 169.86 661.77 169.7 669.22 170.19 676.67 169.67 684.12 169.75 687.48 170.13 689.42 170.09 689.49 173.44 695.9 178.95 700.53 184.85 704.71 191.61 707.3 198.46 709.57 205.54 710.98 212.55 712.73 219.8 712.93 226.88 714.47 234.07 715.16 241.28 715.56 248.49 715.65 255.71 715.59 262.92 715.65 270.13 715.17 277.33 715.02 284.57 715.3 291.75 714.48 298.96 714.14 306.15 713.64 313.3 712.61 320.51 712.15 327.59 710.63 334.78 710.06 341.94 709.22 349.05 707.97 356.23 707.21 363.34 705.97 370.53 705.21 377.49 703.17 384.73 702.63 391.76 700.93 398.89 699.76 405.87 697.89 412.99 696.64 419.93 694.57 426.94 692.85 434.04 691.49 440.94 689.34 448.1 688.19 454.96 685.89 461.86 683.76 468.89 682.08 475.69 679.61 482.58 677.48 489.61 675.74 496.5 673.6 503.19 670.87 510.17 668.95 517.11 666.91 523.65 663.82 530.37 661.18 537.28 659.01 543.8 655.89 550.51 653.23 557.14 650.36 563.58 647.1 570.26 644.33 576.61 640.88 582.68 636.94 588.96 633.4 595.51 630.29 601.2 625.79 607.39 622.04 613.06 617.54 617.95 612.19 622.59 606.72 626.91 600.99 629.75 594.36 629.85 587.1"/><polygon class="c" points="629.85 587.1 629.1 585.61 628.99 578.73 629.13 571.85 628.65 564.96 629.11 558.08 629.06 551.2 629.48 544.31 628.95 537.68 622.11 539.42 614.81 540.21 607.83 542.44 600.6 543.55 593.42 544.91 586.43 547.1 579.27 548.52 572.23 550.48 564.92 551.25 557.97 553.62 550.72 554.64 543.64 556.45 536.54 558.17 529.34 559.46 522.3 561.54 515.08 561.9 507.88 562.07 500.7 562.43 493.5 562.6 486.33 563.26 479.27 564.87 472.03 564.81 464.92 565.89 457.87 567.37 450.78 568.62 443.53 568.78 436.45 570.06 429.46 571.86 422.33 572.82 415.22 573.93 408.17 575.4 401.22 577.34 394.13 578.59 387.1 580.1 380 581.35 373.01 583.06 366.04 584.86 359.15 586.94 352.1 588.4 345.06 589.92 338.15 591.93 331.24 593.95 324.47 596.44 317.48 598.19 310.63 600.38 303.81 602.68 296.86 604.58 290.22 607.38 283.5 609.94 276.61 612.04 270.13 615.21 263.31 617.49 256.69 620.35 249.39 621.58 242.32 623.78 235.11 625.4 227.91 626.99 220.69 628.56 213.33 629.44 206.21 631.42 199.1 633.48 191.86 634.93 184.53 635.99 177.43 638.12 169.85 639.18 170.25 646.87 170.61 654.32 169.86 661.77 169.7 669.22 170.19 676.67 169.67 684.12 169.75 687.48 170.13 689.42 170.09 689.49 173.44 695.9 178.95 700.53 184.85 704.71 191.61 707.3 198.46 709.57 205.54 710.98 212.55 712.73 219.8 712.93 226.88 714.47 234.07 715.16 241.28 715.56 248.49 715.65 255.71 715.59 262.92 715.65 270.13 715.17 277.33 715.02 284.57 715.3 291.75 714.48 298.96 714.14 306.15 713.64 313.3 712.61 320.51 712.15 327.59 710.63 334.78 710.06 341.94 709.22 349.05 707.97 356.23 707.21 363.34 705.97 370.53 705.21 377.49 703.17 384.73 702.63 391.76 700.93 398.89 699.76 405.87 697.89 412.99 696.64 419.93 694.57 426.94 692.85 434.04 691.49 440.94 689.34 448.1 688.19 454.96 685.89 461.86 683.76 468.89 682.08 475.69 679.61 482.58 677.48 489.61 675.74 496.5 673.6 503.19 670.87 510.17 668.95 517.11 666.91 523.65 663.82 530.37 661.18 537.28 659.01 543.8 655.89 550.51 653.23 557.14 650.36 563.58 647.1 570.26 644.33 576.61 640.88 582.68 636.94 588.96 633.4 595.51 630.29 601.2 625.79 607.39 622.04 613.06 617.54 617.95 612.19 622.59 606.72 626.91 600.99 629.75 594.36 629.85 587.1"/><polygon class="b" points="629.94 537.08 626.4 530.77 621.28 525.77 615.05 522.2 608.46 519.3 601.62 517.01 594.66 515.09 587.47 514.3 580.37 513.06 573.25 511.78 565.99 512.05 558.81 511.43 551.6 511.28 544.39 510.87 537.18 510.69 529.96 510.72 522.75 511.08 515.53 511.33 508.3 511.43 501.1 512 493.91 512.59 486.77 513.83 479.54 514.07 472.38 514.97 465.27 516.3 458.12 517.2 450.89 517.69 443.88 519.56 436.67 520.23 429.54 521.36 422.54 523.23 415.45 524.57 408.25 525.37 401.1 526.45 394.05 528.09 386.99 529.61 379.98 531.38 372.88 532.74 366.06 535.27 358.85 536.19 351.92 538.25 344.96 540.17 337.99 542.07 331.13 544.36 324.06 545.9 317.22 548.24 310.33 550.4 303.38 552.4 296.82 555.54 290 557.88 283.05 559.86 276.43 562.75 269.58 565.04 262.82 567.59 256.08 570.17 249.4 572.93 243.06 576.44 236.2 578.78 229.84 582.23 223.56 585.8 216.94 588.73 211.07 593 204.59 596.22 198.93 600.74 192.71 604.45 187.26 609.18 181.84 613.95 176.75 619.11 173.18 625.41 170.24 632 170.9 639.09 173.18 645.9 178.59 650.77 184.64 654.79 191.37 657.52 198.36 659.41 205.48 660.62 212.44 662.56 219.63 663.32 226.76 664.49 234.01 664.33 241.18 665.26 248.38 665.85 255.6 665.66 262.82 665.35 270.03 665.29 277.26 665.39 284.48 665.35 291.66 664.4 298.87 664.04 306.05 663.24 313.26 662.86 320.45 662.18 327.62 661.35 334.8 660.6 341.89 659.23 348.98 657.79 356.19 657.21 363.24 655.55 370.43 654.79 377.48 653.24 384.63 652.22 391.7 650.69 398.74 649.1 405.97 648.37 413.01 646.75 420.03 645.02 426.94 642.87 434.05 641.55 440.96 639.43 448.13 638.28 455.06 636.27 462.08 634.53 468.78 631.71 475.9 630.3 482.81 628.22 489.6 625.74 496.39 623.28 503.4 621.47 510.18 618.98 517.04 616.73 523.81 614.22 530.31 611.01 537.13 608.65 543.96 606.27 550.48 603.16 556.89 599.82 563.49 596.92 570.05 593.91 576.39 590.46 582.71 587 589.06 583.58 595.16 579.74 601.29 575.94 606.94 571.45 612.66 567.07 617.91 562.16 622.73 556.83 627.38 551.25 629.39 544.28 629.94 537.08"/><polygon class="c" points="629.94 537.08 626.4 530.77 621.28 525.77 615.05 522.2 608.46 519.3 601.62 517.01 594.66 515.09 587.47 514.3 580.37 513.06 573.25 511.78 565.99 512.05 558.81 511.43 551.6 511.28 544.39 510.87 537.18 510.69 529.96 510.72 522.75 511.08 515.53 511.33 508.3 511.43 501.1 512 493.91 512.59 486.77 513.83 479.54 514.07 472.38 514.97 465.27 516.3 458.12 517.2 450.89 517.69 443.88 519.56 436.67 520.23 429.54 521.36 422.54 523.23 415.45 524.57 408.25 525.37 401.1 526.45 394.05 528.09 386.99 529.61 379.98 531.38 372.88 532.74 366.06 535.27 358.85 536.19 351.92 538.25 344.96 540.17 337.99 542.07 331.13 544.36 324.06 545.9 317.22 548.24 310.33 550.4 303.38 552.4 296.82 555.54 290 557.88 283.05 559.86 276.43 562.75 269.58 565.04 262.82 567.59 256.08 570.17 249.4 572.93 243.06 576.44 236.2 578.78 229.84 582.23 223.56 585.8 216.94 588.73 211.07 593 204.59 596.22 198.93 600.74 192.71 604.45 187.26 609.18 181.84 613.95 176.75 619.11 173.18 625.41 170.24 632 170.9 639.09 173.18 645.9 178.59 650.77 184.64 654.79 191.37 657.52 198.36 659.41 205.48 660.62 212.44 662.56 219.63 663.32 226.76 664.49 234.01 664.33 241.18 665.26 248.38 665.85 255.6 665.66 262.82 665.35 270.03 665.29 277.26 665.39 284.48 665.35 291.66 664.4 298.87 664.04 306.05 663.24 313.26 662.86 320.45 662.18 327.62 661.35 334.8 660.6 341.89 659.23 348.98 657.79 356.19 657.21 363.24 655.55 370.43 654.79 377.48 653.24 384.63 652.22 391.7 650.69 398.74 649.1 405.97 648.37 413.01 646.75 420.03 645.02 426.94 642.87 434.05 641.55 440.96 639.43 448.13 638.28 455.06 636.27 462.08 634.53 468.78 631.71 475.9 630.3 482.81 628.22 489.6 625.74 496.39 623.28 503.4 621.47 510.18 618.98 517.04 616.73 523.81 614.22 530.31 611.01 537.13 608.65 543.96 606.27 550.48 603.16 556.89 599.82 563.49 596.92 570.05 593.91 576.39 590.46 582.71 587 589.06 583.58 595.16 579.74 601.29 575.94 606.94 571.45 612.66 567.07 617.91 562.16 622.73 556.83 627.38 551.25 629.39 544.28 629.94 537.08"/><polygon class="b" points="445.82 577.11 440.35 573.88 435.88 569.34 433.24 563.49 432.61 557.11 432.65 556.01 432.11 548.8 432.4 541.58 432.32 540.83 433.25 534.8 436.42 529.68 441.07 524.24 445.78 518.84 449.97 513.04 454.05 507.16 458.53 501.57 462.29 495.47 466.76 489.86 470.5 483.75 473.69 477.31 477.62 471.32 481.72 465.43 485.17 459.15 487.92 452.5 491.39 446.25 494.76 439.94 498.36 433.73 501.18 427.15 504.28 420.69 507.44 414.26 510.13 407.62 513.33 401.21 515.57 394.39 518.63 387.91 520.79 381.07 523.17 374.32 526.17 367.79 527.85 360.81 530.74 354.22 532.1 347.16 534.35 340.35 535.7 333.32 537.74 326.43 538.23 319.26 539.4 312.2 539.53 305.06 539.24 297.68 537.34 290.54 535.06 283.55 531.86 276.92 528.92 270.11 524.16 264.4 520.53 257.9 515.64 252.34 510.9 246.64 505.07 242 500.1 236.53 494.48 231.73 489.64 225.92 486 219.34 482.46 212.75 478.99 206.04 477.42 198.65 475.68 191.35 474.56 183.93 473.68 176.44 473.55 169.64 474.22 162.84 473.99 156.07 467.45 157.21 460.86 158.31 454.45 160.3 447.41 160.98 440.38 161.57 433.4 162.52 426.41 163.69 419.32 163.17 412.3 164.13 405.25 164.09 398.19 164.11 391.13 164.54 384.07 164.38 377.01 164.17 369.97 163.55 362.9 163.49 355.9 162.46 348.91 161.57 341.81 161.48 334.9 160 328.29 158.65 321.69 157.23 314.88 155.84 315.25 162.85 314.65 169.66 315.4 176.47 314.98 184 314.05 191.48 312.06 198.75 310.12 206.04 307.36 213.06 303.1 219.31 299.3 225.76 294.65 231.7 289.09 236.55 283.68 241.58 278.67 247.01 273.53 252.32 269.08 258.22 264.35 263.91 260.43 270.19 257.04 276.75 254.43 283.65 251.4 290.4 249.84 297.65 250.08 305.06 249.61 312.24 250.36 319.39 251.69 326.44 253.07 333.48 254.59 340.49 256.58 347.38 258.74 354.21 260.73 361.11 263.62 367.69 266.22 374.37 268.18 381.28 270.73 387.98 273.69 394.51 276.74 401 279.3 407.7 282.04 414.32 285.08 420.81 288.17 427.28 291.79 433.49 294.55 440.13 297.88 446.48 301.53 452.65 305.22 458.81 308.53 465.16 311.51 471.72 315.5 477.7 319.64 483.56 323.46 489.63 327.11 495.81 331.01 501.83 335.12 507.71 339.35 513.51 344.53 518.56 348.4 524.66 353.66 529.57 356.51 534.8 357.33 540.65 357 541.58 357.73 548.77 357.74 555.97 357.83 557.49 356.71 563.8 353.97 569.48 349.9 574.26 344.55 577.69 338.08 580.55 334.42 585.99 338.31 591.38 345.21 593.45 352.11 595.69 359.36 595.97 366.48 597.04 373.69 597.23 380.89 597.7 388.1 597.78 395.31 598.4 402.52 597.78 409.75 598.07 416.92 597.06 424.13 596.88 431.36 596.64 438.46 595.3 445.52 593.81 452.47 591.65 456.46 585.99 452.42 580.35 445.82 577.11"/><polygon class="c" points="445.82 577.11 440.35 573.88 435.88 569.34 433.24 563.49 432.61 557.11 432.65 556.01 432.11 548.8 432.4 541.58 432.32 540.83 433.25 534.8 436.42 529.68 441.07 524.24 445.78 518.84 449.97 513.04 454.05 507.16 458.53 501.57 462.29 495.47 466.76 489.86 470.5 483.75 473.69 477.31 477.62 471.32 481.72 465.43 485.17 459.15 487.92 452.5 491.39 446.25 494.76 439.94 498.36 433.73 501.18 427.15 504.28 420.69 507.44 414.26 510.13 407.62 513.33 401.21 515.57 394.39 518.63 387.91 520.79 381.07 523.17 374.32 526.17 367.79 527.85 360.81 530.74 354.22 532.1 347.16 534.35 340.35 535.7 333.32 537.74 326.43 538.23 319.26 539.4 312.2 539.53 305.06 539.24 297.68 537.34 290.54 535.06 283.55 531.86 276.92 528.92 270.11 524.16 264.4 520.53 257.9 515.64 252.34 510.9 246.64 505.07 242 500.1 236.53 494.48 231.73 489.64 225.92 486 219.34 482.46 212.75 478.99 206.04 477.42 198.65 475.68 191.35 474.56 183.93 473.68 176.44 473.55 169.64 474.22 162.84 473.99 156.07 467.45 157.21 460.86 158.31 454.45 160.3 447.41 160.98 440.38 161.57 433.4 162.52 426.41 163.69 419.32 163.17 412.3 164.13 405.25 164.09 398.19 164.11 391.13 164.54 384.07 164.38 377.01 164.17 369.97 163.55 362.9 163.49 355.9 162.46 348.91 161.57 341.81 161.48 334.9 160 328.29 158.65 321.69 157.23 314.88 155.84 315.25 162.85 314.65 169.66 315.4 176.47 314.98 184 314.05 191.48 312.06 198.75 310.12 206.04 307.36 213.06 303.1 219.31 299.3 225.76 294.65 231.7 289.09 236.55 283.68 241.58 278.67 247.01 273.53 252.32 269.08 258.22 264.35 263.91 260.43 270.19 257.04 276.75 254.43 283.65 251.4 290.4 249.84 297.65 250.08 305.06 249.61 312.24 250.36 319.39 251.69 326.44 253.07 333.48 254.59 340.49 256.58 347.38 258.74 354.21 260.73 361.11 263.62 367.69 266.22 374.37 268.18 381.28 270.73 387.98 273.69 394.51 276.74 401 279.3 407.7 282.04 414.32 285.08 420.81 288.17 427.28 291.79 433.49 294.55 440.13 297.88 446.48 301.53 452.65 305.22 458.81 308.53 465.16 311.51 471.72 315.5 477.7 319.64 483.56 323.46 489.63 327.11 495.81 331.01 501.83 335.12 507.71 339.35 513.51 344.53 518.56 348.4 524.66 353.66 529.57 356.51 534.8 357.33 540.65 357 541.58 357.73 548.77 357.74 555.97 357.83 557.49 356.71 563.8 353.97 569.48 349.9 574.26 344.55 577.69 338.08 580.55 334.42 585.99 338.31 591.38 345.21 593.45 352.11 595.69 359.36 595.97 366.48 597.04 373.69 597.23 380.89 597.7 388.1 597.78 395.31 598.4 402.52 597.78 409.75 598.07 416.92 597.06 424.13 596.88 431.36 596.64 438.46 595.3 445.52 593.81 452.47 591.65 456.46 585.99 452.42 580.35 445.82 577.11"/><polygon class="b" points="481.91 148.86 477.5 153.88 471.34 157.16 464.59 159.15 457.81 161.06 450.88 162.35 443.96 163.81 436.92 164.46 429.89 165.11 422.85 165.45 415.84 166.52 408.76 166.28 401.71 166.67 394.65 166.34 387.59 166.62 380.54 166.11 373.49 165.93 366.47 165.22 359.44 164.69 352.44 163.93 345.41 163.3 338.37 162.65 331.55 160.75 324.7 159.13 317.83 157.49 311.75 153.95 307.43 148.86 311.43 143.27 317.91 140.44 324.57 138.11 331.38 136.16 338.45 135.56 345.38 134.25 352.39 133.43 359.39 132.55 366.45 132.41 373.49 131.96 380.52 131.18 387.58 130.94 394.65 131.48 401.71 130.68 408.75 131.51 415.8 131.8 422.83 132.33 429.91 132.41 436.88 133.57 443.84 134.69 450.83 135.6 457.85 136.47 464.57 138.67 471.26 140.77 477.53 143.81 481.91 148.86"/><polygon class="c" points="481.91 148.86 477.5 153.88 471.34 157.16 464.59 159.15 457.81 161.06 450.88 162.35 443.96 163.81 436.92 164.46 429.89 165.11 422.85 165.45 415.84 166.52 408.76 166.28 401.71 166.67 394.65 166.34 387.59 166.62 380.54 166.11 373.49 165.93 366.47 165.22 359.44 164.69 352.44 163.93 345.41 163.3 338.37 162.65 331.55 160.75 324.7 159.13 317.83 157.49 311.75 153.95 307.43 148.86 311.43 143.27 317.91 140.44 324.57 138.11 331.38 136.16 338.45 135.56 345.38 134.25 352.39 133.43 359.39 132.55 366.45 132.41 373.49 131.96 380.52 131.18 387.58 130.94 394.65 131.48 401.71 130.68 408.75 131.51 415.8 131.8 422.83 132.33 429.91 132.41 436.88 133.57 443.84 134.69 450.83 135.6 457.85 136.47 464.57 138.67 471.26 140.77 477.53 143.81 481.91 148.86"/><polyline class="b" points="482.31 148.21 481.07 141.23 478.62 134.71 475.48 128.4 470.11 123.76 463.78 120.69 457.56 117.33 450.6 116.12 443.86 113.94 436.9 112.75 429.8 112.93 422.79 112.42 415.77 111.83 408.74 111.41 401.69 111.6 394.65 111.61 387.6 110.85 380.55 111.14 373.52 111.82 366.47 111.85 359.44 112.32 352.43 113.06 345.4 113.77 338.59 115.7 331.97 118.07 325.46 120.62 319.06 123.62 313.82 128.41 310.35 134.56 308.27 141.24 307.89 148.21"/><polyline class="c" points="482.31 148.21 481.07 141.23 478.62 134.71 475.48 128.4 470.11 123.76 463.78 120.69 457.56 117.33 450.6 116.12 443.86 113.94 436.9 112.75 429.8 112.93 422.79 112.42 415.77 111.83 408.74 111.41 401.69 111.6 394.65 111.61 387.6 110.85 380.55 111.14 373.52 111.82 366.47 111.85 359.44 112.32 352.43 113.06 345.4 113.77 338.59 115.7 331.97 118.07 325.46 120.62 319.06 123.62 313.82 128.41 310.35 134.56 308.27 141.24 307.89 148.21"/><polyline class="b" points="534.45 281.41 527.96 284.4 521.19 286.57 514.2 287.86 507.23 289.16 500.39 291.07 493.43 292.41 486.45 293.68 479.32 293.97 472.32 295.02 465.36 296.59 458.25 296.74 451.17 297.2 444.11 297.68 437.1 299.08 429.99 299.06 422.9 299.13 415.81 299.25 408.75 300.34 401.65 300.49 394.55 300.2 387.49 299.53 380.43 300.05 373.36 299.99 366.33 299.16 359.29 298.69 352.25 298.24 345.16 298.47 338.16 297.36 331.17 296.43 324.11 296.08 317.04 295.74 310.07 294.47 303.06 293.6 296.11 292.38 289.22 290.83 282.17 290.09 275.45 287.8 268.44 286.72 261.9 283.96 255.4 281.35"/><polyline class="c" points="534.45 281.41 527.96 284.4 521.19 286.57 514.2 287.86 507.23 289.16 500.39 291.07 493.43 292.41 486.45 293.68 479.32 293.97 472.32 295.02 465.36 296.59 458.25 296.74 451.17 297.2 444.11 297.68 437.1 299.08 429.99 299.06 422.9 299.13 415.81 299.25 408.75 300.34 401.65 300.49 394.55 300.2 387.49 299.53 380.43 300.05 373.36 299.99 366.33 299.16 359.29 298.69 352.25 298.24 345.16 298.47 338.16 297.36 331.17 296.43 324.11 296.08 317.04 295.74 310.07 294.47 303.06 293.6 296.11 292.38 289.22 290.83 282.17 290.09 275.45 287.8 268.44 286.72 261.9 283.96 255.4 281.35"/><polyline class="b" points="526.87 354.38 520.05 356.08 513.37 358.35 506.49 359.83 499.53 360.89 492.64 362.32 485.71 363.52 478.71 364.23 471.71 364.96 464.82 366.57 457.75 366.65 450.81 367.95 443.78 368.31 436.75 368.72 429.74 369.32 422.7 369.39 415.68 370.14 408.63 369.78 401.59 370.21 394.55 370.37 387.31 369.83 380.06 369.89 372.81 370.04 365.59 369.52 358.37 368.92 351.14 368.45 343.9 368.11 336.72 367.1 329.44 367.2 322.31 365.74 315.11 364.95 307.86 364.5 300.83 362.56 293.63 361.81 286.58 360.13 279.5 358.66 272.48 356.96 265.37 355.53 258.43 353.39"/><polyline class="c" points="526.87 354.38 520.05 356.08 513.37 358.35 506.49 359.83 499.53 360.89 492.64 362.32 485.71 363.52 478.71 364.23 471.71 364.96 464.82 366.57 457.75 366.65 450.81 367.95 443.78 368.31 436.75 368.72 429.74 369.32 422.7 369.39 415.68 370.14 408.63 369.78 401.59 370.21 394.55 370.37 387.31 369.83 380.06 369.89 372.81 370.04 365.59 369.52 358.37 368.92 351.14 368.45 343.9 368.11 336.72 367.1 329.44 367.2 322.31 365.74 315.11 364.95 307.86 364.5 300.83 362.56 293.63 361.81 286.58 360.13 279.5 358.66 272.48 356.96 265.37 355.53 258.43 353.39"/><polyline class="b" points="490.76 227.34 483.4 228.54 475.95 229.15 468.63 230.49 461.28 231.67 454 233.39 446.54 233.82 439.18 235.02 431.71 235.25 424.34 236.38 416.88 236.5 409.47 237.64 402.01 237.89 394.55 237.18 387.09 237.71 379.64 237.45 372.19 236.95 364.77 236.33 357.33 235.85 349.94 234.79 342.49 234.28 335.16 232.87 327.75 232.07 320.39 230.88 313.02 229.79 305.76 228.06 298.39 226.99"/><polyline class="c" points="490.76 227.34 483.4 228.54 475.95 229.15 468.63 230.49 461.28 231.67 454 233.39 446.54 233.82 439.18 235.02 431.71 235.25 424.34 236.38 416.88 236.5 409.47 237.64 402.01 237.89 394.55 237.18 387.09 237.71 379.64 237.45 372.19 236.95 364.77 236.33 357.33 235.85 349.94 234.79 342.49 234.28 335.16 232.87 327.75 232.07 320.39 230.88 313.02 229.79 305.76 228.06 298.39 226.99"/><polyline class="b" points="278.85 288.81 283.06 282.96 287.13 277.02 291.63 271.4 295.98 265.65 300.99 260.46 305.23 254.59 310.58 249.74 315.62 244.59 321.46 240.35 327.25 236.13 333.24 232.11"/><polyline class="c" points="278.85 288.81 283.06 282.96 287.13 277.02 291.63 271.4 295.98 265.65 300.99 260.46 305.23 254.59 310.58 249.74 315.62 244.59 321.46 240.35 327.25 236.13 333.24 232.11"/><polyline class="b" points="394.46 237.42 393.78 244.41 393.96 251.41 394.22 258.41 393.65 265.41 394.35 272.4 394 279.4 394.52 286.4 394.17 293.41 394.43 300.42"/><polyline class="c" points="394.46 237.42 393.78 244.41 393.96 251.41 394.22 258.41 393.65 265.41 394.35 272.4 394 279.4 394.52 286.4 394.17 293.41 394.43 300.42"/><polyline class="b" points="333.19 297.08 335.62 290.65 337.65 284.07 340.21 277.69 343.56 271.65 346 265.21 349.75 259.41 353.04 253.4 355.9 247.1 359.93 241.51 364.65 236.5"/><polyline class="c" points="333.19 297.08 335.62 290.65 337.65 284.07 340.21 277.69 343.56 271.65 346 265.21 349.75 259.41 353.04 253.4 355.9 247.1 359.93 241.51 364.65 236.5"/><polyline class="b" points="509.12 288.95 504.9 283.12 500.85 277.18 496.84 271.18 491.82 265.97 487.53 260.18 482.93 254.63 477.43 249.93 472.6 244.56 467.01 240 461.27 235.62 455.06 231.91"/><polyline class="c" points="509.12 288.95 504.9 283.12 500.85 277.18 496.84 271.18 491.82 265.97 487.53 260.18 482.93 254.63 477.43 249.93 472.6 244.56 467.01 240 461.27 235.62 455.06 231.91"/><polyline class="b" points="454.94 297.1 453 290.5 450.51 284.08 447.96 277.7 444.66 271.64 441.69 265.46 438.93 259.15 435.33 253.29 431.8 247.41 428.1 241.63 424.05 236.06"/><polyline class="c" points="454.94 297.1 453 290.5 450.51 284.08 447.96 277.7 444.66 271.64 441.69 265.46 438.93 259.15 435.33 253.29 431.8 247.41 428.1 241.63 424.05 236.06"/><polyline class="c" points="275.07 250.81 281.63 253.77 288.57 255.65 295.41 257.8 302.45 259.23 309.43 260.87 316.38 262.63 323.36 264.29 330.52 265.01 337.61 266.05 344.69 267.08 351.71 268.69 358.83 269.61 366.05 269.37 373.13 270.81 380.33 270.37 387.49 270.59 394.65 270.99 401.82 271.58 408.99 271.24 416.15 270.89 423.3 270.26 430.42 269.39 437.57 268.94 444.78 268.75 451.75 266.83 458.97 266.55 465.86 264.36 473 263.51 479.82 261.19 486.75 259.38 493.7 257.61 500.75 256.12 507.53 253.75 514.17 251"/><g class="d"><polyline class="c" points="228.34 369.89 232.13 363.61 235.62 357.17 239.22 350.79 242.87 344.44 246.11 337.86 249.68 331.47 253.61 325.27 257 318.78 260.93 312.58 264.47 306.17 267.55 299.49 271.18 293.13 274.56 286.62 277.99 280.14 282.08 274.02"/><polyline class="c" points="258.44 369.94 262.6 363.88 265.72 357.23 269.21 350.78 272.6 344.29 276.73 338.2 279.99 331.64 283.47 325.2 286.88 318.71 290.65 312.43 294.03 305.92 297.69 299.57 301.17 293.13 305.19 286.97 308.43 280.38 311.78 273.85"/><polyline class="c" points="288.51 369.98 292.51 363.82 295.92 357.33 299.1 350.73 302.8 344.4 306.22 337.92 310.1 331.7 313.73 325.34 317.38 318.99 320.88 312.56 324.07 305.95 327.58 299.51 331.38 293.25 334.66 286.68 338.15 280.23 342.04 274"/><polyline class="c" points="318.85 370.17 322.12 363.61 325.52 357.12 329.6 351 332.43 344.2 336.57 338.12 339.71 331.48 343.45 325.19 347.46 319.03 350.89 312.56 353.83 305.81 357.52 299.48 360.86 292.96 364.8 286.76 368.24 280.28 372.11 274.04"/><polyline class="c" points="349.08 370.3 351.88 363.48 355.82 357.28 359.2 350.78 362.75 344.37 365.96 337.77 369.65 331.45 373.21 325.05 377.34 318.96 380.48 312.33 384.17 306 387.31 299.36 391.08 293.07 394.91 286.82 398.01 280.15 401.8 273.86"/><polyline class="c" points="378.7 370.08 382.51 363.82 385.32 357 389.53 350.96 392.55 344.26 396.73 338.2 399.86 331.57 403.4 325.16 407.28 318.93 410.97 312.6 413.85 305.82 418.08 299.79 421.2 293.14 424.49 286.59 428.21 280.26 431.56 273.73"/><polyline class="c" points="408.52 369.98 412.49 363.81 415.59 357.15 419.39 350.89 423.1 344.57 426.8 338.24 429.87 331.57 433.53 325.23 437.25 318.92 440.96 312.6 444.35 306.1 448.08 299.79 451.32 293.21 455.08 286.91 458.08 280.19 461.78 273.86"/><polyline class="c" points="438.57 370.01 442.51 363.82 445.64 357.18 449.19 350.77 452.59 344.28 456.71 338.19 460.27 331.8 463.14 325.02 466.63 318.57 470.8 312.51 474.38 306.11 477.98 299.73 481.2 293.15 485.11 286.93 488.48 280.41 491.98 273.96"/><polyline class="c" points="468.66 370.06 472.14 363.62 476.01 357.38 479.32 350.85 482.77 344.38 486.28 337.95 489.74 331.5 493.73 325.34 497.34 318.96 500.93 312.58 503.84 305.82 507.52 299.48 510.86 292.95 514.43 286.55 518.11 280.2 521.77 273.85"/><polyline class="c" points="498.91 370.2 502.53 363.83 505.77 357.25 509.4 350.89 512.51 344.24 516.43 338.04 519.98 331.63 523.56 325.25 527.42 319.01 530.28 312.22 534.46 306.16 537.36 299.39 541.07 293.07 544.38 286.52 548.39 280.36 551.89 273.92"/></g><polygon points="258.65 279.89 262.15 274.49 266.39 269.56 269.67 263.92 273.89 258.96 277.59 253.49 283.42 255.72 289 258.2 294 261.21 290.96 267.48 288.34 274.26 284.84 280.61 281.72 287.53 274.02 284.29 266.14 282.65 258.65 279.89"/><polygon points="310.12 257.85 314.89 252.07 319.52 245.91 324.69 240.19 329.45 233.81 337.54 235.5 345.3 237.61 353.29 238.5 361.51 239.97 357.62 246.98 353.57 253.49 349.73 260.15 345.8 266.96 338.58 264.64 331.27 263.56 324.14 261.72 317.12 259.39 310.12 257.85"/><polygon points="337.26 294 340.43 287.52 342.95 280.9 345.71 274.37 349.03 268.43 355.94 269.28 363.05 270.71 370.13 272.3 377.43 272.68 384.51 274.32 391.37 275.93 392.03 282.87 392.88 290.02 393.94 296.93 387.05 296.83 379.97 296.18 372.85 296.3 365.79 295.44 358.71 294.81 351.61 294.54 344.51 294.12 337.26 294"/><polygon points="396.54 270.54 396.83 262.92 396.69 255.42 396.16 247.92 396.55 240.33 403.64 240.37 410.64 240.3 417.64 240.01 424.43 240.81 428.08 246.5 432.27 252.12 435.45 258.38 439.27 264.11 432.31 265.55 425.12 266.1 418.06 267.53 410.91 268.39 403.72 269.02 396.54 270.54"/><polygon points="444.24 271.05 447.82 277.81 451.48 284.12 454.74 290.66 457.98 297.44 464.73 295.41 471.45 294.37 478.15 293.18 484.72 291.43 491.31 289.78 497.93 288.2 504.97 287.15 499.95 280.72 495.93 273.9 490.83 267.82 486.82 260.69 479.75 263.19 472.71 264.72 465.56 265.76 458.65 267.84 451.68 269.65 444.24 271.05"/><polygon points="469.62 236.26 474.85 240.86 479.77 246.11 485.69 250.27 490.7 255.55 496.62 251.34 503.1 248.22 509.37 244.42 503.05 239.55 496.95 234.65 490.74 229.78 483.54 231.78 476.57 234.34 469.62 236.26"/><polyline class="c" points="356.12 534.24 362.93 536.27 369.94 537.37 376.86 538.84 383.89 539.7 390.93 540.52 398.03 539.92 405.12 540.54 412.14 539.55 419.19 538.84 426.19 537.65 433.01 535.72"/><polyline class="c" points="380.54 541.42 380.3 548.41 380.6 555.4 379.8 562.02 378.09 568.4 375.68 574.5 372.74 580.43 368.22 586.65 362.45 591.74 355.71 595.46"/><polygon points="382 543.66 380.55 549.97 378.88 556.45 377.23 562.92 376.14 569.52 375.11 576.13 372.99 582.52 372.36 590.46 370.89 598.02 377.86 598.29 385.06 597.6 392.27 597.61 399.47 597.11 406.69 597.43 413.9 597.11 421.13 597.15 428.31 596.52 435.78 594.4 443.17 591.93 450.71 589.94 457.87 587.54 452.14 583.13 445.91 578.97 439.76 574.51 437.9 566.49 434.88 558.96 432.38 551.26 430.54 543.14 423.39 543.67 416.46 543.27 409.53 542.96 402.61 543.58 395.68 543.28 388.74 543.1 382 543.66"/><polygon points="286.24 367.76 280.22 367.26 273.94 365.65 266.91 363.45 261.03 359.48 267.18 361.34 273.66 363.65 280.26 365.47 286.24 367.76"/><polygon class="e" points="286.24 367.76 280.22 367.26 273.94 365.65 266.91 363.45 261.03 359.48 267.18 361.34 273.66 363.65 280.26 365.47 286.24 367.76"/><polygon points="375.84 381.94 368.69 384.36 361.21 384.81 355.49 383.35 351.47 379.87 358.7 378.61 366.18 378.12 371.7 379.18 375.84 381.94"/><polygon class="e" points="375.84 381.94 368.69 384.36 361.21 384.81 355.49 383.35 351.47 379.87 358.7 378.61 366.18 378.12 371.7 379.18 375.84 381.94"/><polygon points="326.79 414.44 323.64 418.89 317.92 419.37 311.75 414.72 308.07 408.23 310.73 403.81 316.78 403.93 323.36 407.79 326.79 414.44"/><polygon class="e" points="326.79 414.44 323.64 418.89 317.92 419.37 311.75 414.72 308.07 408.23 310.73 403.81 316.78 403.93 323.36 407.79 326.79 414.44"/><polygon points="355.32 481.35 349.99 487.65 345.23 483.53 343.13 477.49 348.67 471.21 353.45 475.23 355.32 481.35"/><polygon class="e" points="355.32 481.35 349.99 487.65 345.23 483.53 343.13 477.49 348.67 471.21 353.45 475.23 355.32 481.35"/><polygon points="451.74 379.08 445.69 383.81 438.23 385.69 432.64 381.12 438.88 377.18 446.14 374.6 451.74 379.08"/><polygon class="e" points="451.74 379.08 445.69 383.81 438.23 385.69 432.64 381.12 438.88 377.18 446.14 374.6 451.74 379.08"/><polygon points="392.59 428.6 387.41 433.29 380.98 434.61 375.34 431.88 374 425.45 379.09 420.47 385.99 419.54 391.61 422.24 392.59 428.6"/><polygon class="e" points="392.59 428.6 387.41 433.29 380.98 434.61 375.34 431.88 374 425.45 379.09 420.47 385.99 419.54 391.61 422.24 392.59 428.6"/><polygon points="396.59 491.93 393.65 496.47 388.67 498.79 384.83 489.35 387.88 484.2 393.4 483.29 397 486.58 396.59 491.93"/><polygon class="e" points="396.59 491.93 393.65 496.47 388.67 498.79 384.83 489.35 387.88 484.2 393.4 483.29 397 486.58 396.59 491.93"/><polygon points="373.9 532.89 372.52 536.64 368.33 531.38 369.81 527.71 373.9 532.89"/><polygon class="e" points="373.9 532.89 372.52 536.64 368.33 531.38 369.81 527.71 373.9 532.89"/><polygon points="505.63 370.67 501.53 376.63 495.18 379.58 493.3 372.96 497.65 367.29 504 364.2 505.63 370.67"/><polygon class="e" points="505.63 370.67 501.53 376.63 495.18 379.58 493.3 372.96 497.65 367.29 504 364.2 505.63 370.67"/><polygon points="448.14 434.6 442.76 439.75 436.19 442.87 432.22 438.84 433.3 432.99 438.57 427.45 445.65 424.84 448.87 428.84 448.14 434.6"/><polygon class="e" points="448.14 434.6 442.76 439.75 436.19 442.87 432.22 438.84 433.3 432.99 438.57 427.45 445.65 424.84 448.87 428.84 448.14 434.6"/><polygon points="432.46 498.29 429.48 503.12 424.13 505.46 423.51 496.91 427.23 492.2 432.7 489.73 432.46 498.29"/><polygon class="e" points="432.46 498.29 429.48 503.12 424.13 505.46 423.51 496.91 427.23 492.2 432.7 489.73 432.46 498.29"/><polygon points="399.23 536.19 395.07 538.84 391.43 535.51 396.15 531.95 399.23 536.19"/><polygon class="e" points="399.23 536.19 395.07 538.84 391.43 535.51 396.15 531.95 399.23 536.19"/><polygon points="527.45 366.81 525.18 372.02 522.63 377.43 524.57 366.63 527.19 361.51 529.36 356.28 527.45 366.81"/><polygon class="e" points="527.45 366.81 525.18 372.02 522.63 377.43 524.57 366.63 527.19 361.51 529.36 356.28 527.45 366.81"/><polygon points="485.08 438.27 481.57 444.07 475.74 447.67 474.6 442.26 477.24 437.21 481.3 431.58 487.08 427.58 488 433.2 485.08 438.27"/><polygon class="e" points="485.08 438.27 481.57 444.07 475.74 447.67 474.6 442.26 477.24 437.21 481.3 431.58 487.08 427.58 488 433.2 485.08 438.27"/><polyline class="b" points="334.04 165.96 334.44 173.19 334.62 180.48 334.48 187.79 333.77 195.07 331.95 202.16 330.9 209.42 328.36 216.29 326.29 223.31 323.05 229.87"/><polyline class="c" points="334.04 165.96 334.44 173.19 334.62 180.48 334.48 187.79 333.77 195.07 331.95 202.16 330.9 209.42 328.36 216.29 326.29 223.31 323.05 229.87"/><polyline class="b" points="347.35 231.51 350.02 224.62 351.88 217.47 352.89 210.16 353.69 202.84 354.19 195.5 354.71 188.15 354.94 180.79 355.41 173.43 355.12 166.06"/><polyline class="c" points="347.35 231.51 350.02 224.62 351.88 217.47 352.89 210.16 353.69 202.84 354.19 195.5 354.71 188.15 354.94 180.79 355.41 173.43 355.12 166.06"/><polyline class="b" points="371.06 232.88 372.48 225.65 373.57 218.31 374.32 210.91 374.54 203.46 375.29 196.03 374.5 188.57 374.67 181.13 375.18 173.69 374.73 166.25"/><polyline class="c" points="371.06 232.88 372.48 225.65 373.57 218.31 374.32 210.91 374.54 203.46 375.29 196.03 374.5 188.57 374.67 181.13 375.18 173.69 374.73 166.25"/><polyline class="b" points="395.48 234.42 394.95 226.87 394.99 219.31 395.35 211.76 394.72 204.21 394.97 196.65 395.01 189.09 395.41 181.54 395.32 173.98 395.23 166.42"/><polyline class="c" points="395.48 234.42 394.95 226.87 394.99 219.31 395.35 211.76 394.72 204.21 394.97 196.65 395.01 189.09 395.41 181.54 395.32 173.98 395.23 166.42"/><polyline class="b" points="456.06 165.94 455.4 173.19 455.55 180.48 455.84 187.78 456.64 195.05 458.29 202.17 460.09 209.24 461.83 216.32 464.68 223.05 466.78 230.09"/><polyline class="c" points="456.06 165.94 455.4 173.19 455.55 180.48 455.84 187.78 456.64 195.05 458.29 202.17 460.09 209.24 461.83 216.32 464.68 223.05 466.78 230.09"/><polyline class="b" points="442.78 231.59 440.91 224.43 438.78 217.39 437.38 210.16 436.26 202.87 435.52 195.53 435.96 188.14 435.31 180.79 434.97 173.43 435.54 166.08"/><polyline class="c" points="442.78 231.59 440.91 224.43 438.78 217.39 437.38 210.16 436.26 202.87 435.52 195.53 435.96 188.14 435.31 180.79 434.97 173.43 435.54 166.08"/><polyline class="b" points="419.19 232.9 417.74 225.66 416.97 218.28 416.17 210.89 415.76 203.46 415.86 196.01 415.08 188.58 415 181.13 415.76 173.69 415.05 166.24"/><polyline class="c" points="419.19 232.9 417.74 225.66 416.97 218.28 416.17 210.89 415.76 203.46 415.86 196.01 415.08 188.58 415 181.13 415.76 173.69 415.05 166.24"/><polygon class="c" points="425.86 126.72 425.49 119.29 424.17 111.92 422.14 104.69 418.39 98.19 413.85 92.29 407.98 87.63 400.9 85.19 393.49 84.31 386.71 85.77 380.16 88.02 375.41 93.08 370.84 98.35 368.61 104.98 366.52 111.58 364.51 118.26 363.97 125.22 363.28 132.15 362.99 139.28 370.29 138.83 377.4 138.09 384.53 137.52 391.6 136.43 398.67 135.33 405.58 133.45 412.62 132.07 419.37 129.66 425.86 126.72"/><polygon points="479.03 629.35 479.35 636.26 480.46 643.34 480 650.5 478.26 657.45 476.1 664.21 473.77 670.94 470.57 677.35 466.01 682.97 473.09 680.95 480.08 678.9 486.95 676.46 493.82 674.03 500.85 672.08 507.52 669.1 514.59 667.22 521.37 664.53 528.13 661.82 534.8 658.89 541.63 656.35 548.46 653.81 554.88 650.3 561.57 647.42 568.29 644.56 574.92 641.51 581.2 637.78 587.31 633.78 593.83 630.47 599.71 626.15 605.73 622.05 611.44 617.5 616.85 612.61 621.62 607.08 625.85 601.13 628.66 594.38 629.57 587.16 629.75 580.05 629.94 572.94 629.81 565.83 629.78 558.72 629.34 551.62 629.24 544.52 628.9 537.34 626.17 544.06 621.94 549.98 617.83 555.96 613.1 561.47 608.31 566.94 602.89 571.79 597.89 577.13 591.84 581.23 586.15 585.79 580.18 589.98 574.03 593.89 567.71 597.54 561.11 600.65 554.63 603.99 548.1 607.23 541.11 609.39 534.33 612.04 527.75 615.24 520.93 617.8 513.84 619.55 506.84 621.54 499.83 623.5 492.83 625.52 485.71 627.07 479.03 629.35"/><polygon points="461.6 590.81 467.29 585.94 472.49 580.95 477.11 575.36 477.94 568.41 481.24 562.94 487.06 559.62 493.14 556.68 499.07 553.39 505.3 550.74 511.24 547.46 516.48 543.25 523.13 539.79 530.27 537.62 537.37 535.24 544.66 533.6 552.03 532.27 559.12 529.82 566.35 527.95 573.58 526.02 580.66 523.59 587.44 520.43 593.88 516.68 599.35 511.92 592.4 511.5 585.33 512.33 578.24 512 571.15 511.95 564.07 511.99 557.01 512.96 549.92 512.81 542.83 512.91 535.75 513.02 528.67 513.49 521.59 513.79 514.52 514.41 507.44 514.49 500.35 514.67 493.26 514.92 486.22 515.81 479.15 516.23 472.06 516.48 464.97 516.89 458.2 519.08 451.79 521.57 445.26 523.57 440.58 530.36 435.41 536.86 429.94 543.33 431.77 549.9 433.7 556.26 435.81 562.57 437.52 568.99 438.63 575.57 440.99 581.59 447.55 584.97 454.52 587.87 461.6 590.81"/></svg>