<svg xmlns="http://www.w3.org/2000/svg" xmlns:xlink="http://www.w3.org/1999/xlink" viewBox="0 0 800 800"><defs><style>.a,.c,.e,.f,.g{fill:none;}.b{fill:#fff;}.c,.e,.f,.g{stroke:#000;stroke-linejoin:bevel;stroke-width:13px;}.d{clip-path:url(#a);}.e,.f,.g{stroke-linecap:square;}.f{stroke-dasharray:16.44 34.93;}.g{stroke-dasharray:0.02 34.93 16.44 34.93;}</style><clipPath id="a"><polygon class="a" points="265.18 534.03 271.71 536.64 278 539.78 284.34 542.81 290.84 545.48 297.28 548.31 303.89 550.72 310.36 553.5 317.23 555.13 323.98 557.09 330.62 559.42 337.3 561.65 344.17 563.17 351.03 564.72 357.93 566.12 364.85 567.39 371.87 567.98 378.83 569.12 385.85 569.55 392.88 569.75 399.92 569.67 407.12 569.59 414.25 568.57 421.34 567.37 428.53 566.81 435.53 565.11 442.58 563.72 449.73 562.68 456.65 560.69 463.59 558.75 470.66 557.27 477.44 554.8 484.14 552.15 491.07 550.17 497.81 547.62 504.72 545.54 511.28 542.54 517.72 539.28 524.59 537.08 531.06 533.91 538 531.82 544.21 528.26 539.02 523.24 533.67 518.37 528.36 513.45 523.61 507.94 518.35 502.97 512.95 498.15 507.51 493.36 502.11 488.55 496.55 483.88 491.53 478.67 486.6 473.35 481.05 468.69 476.11 463.38 470.85 458.4 464.96 454.09 460.2 448.59 455.19 443.35 449.68 438.64 443.86 434.25 439.17 428.66 433.76 423.82 427.6 419.4 421.31 415.16 415.14 410.5 408.31 411.38 401.65 410.94 394.98 411.34 388.31 410.58 381.77 411.3 376.43 415.99 371.11 420.86 366.25 426.19 361.63 431.75 356.28 436.59 350.89 441.4 346.31 447.01 340.82 451.71 336.08 457.16 331.14 462.42 326.25 467.71 320.59 472.25 315.7 477.55 310.27 482.31 305.98 488.2 300.8 493.22 295.45 498.07 290.74 503.56 285.29 508.31 280.61 513.82 274.83 518.25 270.39 524.01 265.36 529.04 264.98 532.5 265.18 534.03"/></clipPath></defs><title>kiln-9</title><polygon class="b" points="400 680.81 392.83 680.73 385.81 679.2 378.71 678.23 371.63 677.12 364.45 676.79 357.43 675.29 350.29 674.66 343.26 673.13 336.08 672.81 329.01 671.59 321.89 670.84 314.86 669.35 307.64 669.28 300.56 668.22 293.46 667.35 286.45 665.71 279.28 665.33 272.23 663.98 265.11 663.15 258 662.36 250.91 661.32 243.85 660.04 236.63 659.97 229.57 658.76 222.46 657.9 215.35 656.97 208.34 655.34 201.16 655 194.02 654.3 186.93 653.23 179.9 651.79 172.76 651.05 165.71 649.76 158.53 649.41 151.37 648.87 144.37 647.13 137.29 646.03 130.07 645.94 123.07 644.22 115.88 643.86 108.56 642.72 114.76 638.45 121.47 635.39 127.31 630.96 133.33 626.81 139.38 622.72 145.88 619.34 151.96 615.31 158.5 611.99 164.47 607.76 170.3 603.31 177.02 600.28 182.99 596.06 189.28 592.34 195.35 588.27 201.74 584.69 207.58 580.07 214.92 580.68 222.18 580.76 229.43 580.96 236.69 580.23 243.94 580.39 251.2 579.81 258.46 580.95 265.71 580.65 272.97 580.72 280.23 580.95 287.48 580.11 294.74 580.5 302 580.29 309.25 579.8 316.51 580.8 323.76 579.85 331.02 580.29 338.28 580.02 345.54 580.27 352.79 580.06 360.05 580.68 367.31 580.54 374.56 580.35 381.82 580.61 389.08 580.53 396.33 580.6 403.58 580.63 410.84 580.33 418.1 580.07 425.35 580.24 432.61 580.23 439.86 580.47 447.12 580.6 454.38 580.56 461.64 580.08 468.89 580.61 476.15 580.9 483.41 580.52 490.67 580.83 497.93 580.57 505.19 580.67 512.45 580.65 519.71 580.22 526.97 580.47 534.23 580.17 541.49 580.81 548.75 580.73 556.01 580.15 563.27 580.49 570.54 580.02 577.8 580.26 585.07 580.8 592.2 580.84 598.83 583.77 604.75 588.07 610.8 592.16 616.75 596.42 623.46 599.46 629.1 604.21 635.89 607.12 642.02 611.08 648.04 615.24 653.87 619.67 660.33 623.12 666.73 626.68 672.76 630.8 678.82 634.88 684.75 639.2 691.23 642.67 684.11 643.63 676.93 644.03 669.89 645.39 662.76 646.15 655.74 647.65 648.64 648.64 641.53 649.47 634.38 650.05 627.34 651.42 620.25 652.49 613.08 652.88 606 654 598.85 654.54 591.81 655.94 584.76 657.26 577.53 657.23 570.54 658.94 563.43 659.83 556.28 660.4 549.21 661.52 542.05 662.09 535.05 663.77 527.89 664.28 520.85 665.68 513.69 666.15 506.61 667.28 499.43 667.6 492.37 668.89 485.27 669.89 478.19 670.98 471.09 671.99 464.02 673.17 456.8 673.23 449.73 674.4 442.66 675.63 435.49 676.06 428.47 677.66 421.35 678.44 414.18 678.95 407.16 680.64 400 680.81"/><polygon class="c" points="400 680.81 392.83 680.73 385.81 679.2 378.71 678.23 371.63 677.12 364.45 676.79 357.43 675.29 350.29 674.66 343.26 673.13 336.08 672.81 329.01 671.59 321.89 670.84 314.86 669.35 307.64 669.28 300.56 668.22 293.46 667.35 286.45 665.71 279.28 665.33 272.23 663.98 265.11 663.15 258 662.36 250.91 661.32 243.85 660.04 236.63 659.97 229.57 658.76 222.46 657.9 215.35 656.97 208.34 655.34 201.16 655 194.02 654.3 186.93 653.23 179.9 651.79 172.76 651.05 165.71 649.76 158.53 649.41 151.37 648.87 144.37 647.13 137.29 646.03 130.07 645.94 123.07 644.22 115.88 643.86 108.56 642.72 114.76 638.45 121.47 635.39 127.31 630.96 133.33 626.81 139.38 622.72 145.88 619.34 151.96 615.31 158.5 611.99 164.47 607.76 170.3 603.31 177.02 600.28 182.99 596.06 189.28 592.34 195.35 588.27 201.74 584.69 207.58 580.07 214.92 580.68 222.18 580.76 229.43 580.96 236.69 580.23 243.94 580.39 251.2 579.81 258.46 580.95 265.71 580.65 272.97 580.72 280.23 580.95 287.48 580.11 294.74 580.5 302 580.29 309.25 579.8 316.51 580.8 323.76 579.85 331.02 580.29 338.28 580.02 345.54 580.27 352.79 580.06 360.05 580.68 367.31 580.54 374.56 580.35 381.82 580.61 389.08 580.53 396.33 580.6 403.58 580.63 410.84 580.33 418.1 580.07 425.35 580.24 432.61 580.23 439.86 580.47 447.12 580.6 454.38 580.56 461.64 580.08 468.89 580.61 476.15 580.9 483.41 580.52 490.67 580.83 497.93 580.57 505.19 580.67 512.45 580.65 519.71 580.22 526.97 580.47 534.23 580.17 541.49 580.81 548.75 580.73 556.01 580.15 563.27 580.49 570.54 580.02 577.8 580.26 585.07 580.8 592.2 580.84 598.83 583.77 604.75 588.07 610.8 592.16 616.75 596.42 623.46 599.46 629.1 604.21 635.89 607.12 642.02 611.08 648.04 615.24 653.87 619.67 660.33 623.12 666.73 626.68 672.76 630.8 678.82 634.88 684.75 639.2 691.23 642.67 684.11 643.63 676.93 644.03 669.89 645.39 662.76 646.15 655.74 647.65 648.64 648.64 641.53 649.47 634.38 650.05 627.34 651.42 620.25 652.49 613.08 652.88 606 654 598.85 654.54 591.81 655.94 584.76 657.26 577.53 657.23 570.54 658.94 563.43 659.83 556.28 660.4 549.21 661.52 542.05 662.09 535.05 663.77 527.89 664.28 520.85 665.68 513.69 666.15 506.61 667.28 499.43 667.6 492.37 668.89 485.27 669.89 478.19 670.98 471.09 671.99 464.02 673.17 456.8 673.23 449.73 674.4 442.66 675.63 435.49 676.06 428.47 677.66 421.35 678.44 414.18 678.95 407.16 680.64 400 680.81"/><polygon class="b" points="400 621.42 392.9 620.22 385.81 619.21 378.76 617.91 371.65 617 364.5 616.44 357.44 615.18 350.35 614.19 343.17 613.86 336.16 612.17 328.92 612.33 321.9 610.71 314.76 610.1 307.64 609.33 300.66 607.52 293.54 606.71 286.43 605.83 279.29 605.24 272.15 604.56 265.09 603.36 257.97 602.56 250.85 601.72 243.86 599.97 236.68 599.65 229.52 599.12 222.54 597.25 215.4 596.6 208.35 595.27 201.24 594.38 194.01 594.39 186.9 593.48 179.79 592.61 172.8 590.78 165.6 590.6 158.54 589.29 151.37 588.87 144.34 587.34 137.3 585.93 130.06 586.05 122.98 584.86 115.88 583.82 108.67 582.69 115.16 579.08 120.84 574.4 127.42 571.13 133.39 566.92 139.8 563.39 145.55 558.82 151.76 554.98 158.02 551.22 164.21 547.35 170.89 544.26 176.45 539.38 182.98 536.03 189.41 532.55 195.12 527.91 201.19 523.82 207.61 520.18 214.92 520.28 222.18 520.33 229.43 519.79 236.69 520.81 243.94 520.19 251.2 520.49 258.46 520.55 265.71 520.87 272.97 520.66 280.23 520.23 287.48 520.31 294.74 519.93 302 519.97 309.25 520.74 316.51 519.88 323.76 520.79 331.02 520.37 338.28 520.59 345.54 520.77 352.79 520.09 360.05 519.89 367.31 520.07 374.56 520.8 381.82 520.58 389.08 520.11 396.33 519.83 403.58 519.8 410.84 520.5 418.1 520.04 425.35 519.81 432.61 520.93 439.86 520.75 447.12 519.79 454.38 519.94 461.64 519.82 468.89 520.83 476.15 519.94 483.41 520.16 490.67 519.91 497.93 520.03 505.19 519.79 512.45 519.96 519.71 520.5 526.97 520.38 534.23 520.85 541.49 519.94 548.75 520.66 556.01 520.06 563.27 520.75 570.54 520.71 577.8 520.52 585.07 520.07 592.25 520.68 598.52 524.25 604.45 528.54 611.13 531.65 616.78 536.37 623.22 539.84 629.39 543.75 635.74 547.36 641.45 551.99 647.72 555.75 653.83 559.75 660.25 563.25 666.5 567.04 672.74 570.83 678.86 574.83 685.04 578.73 691.55 582.74 684.17 584.12 677.01 584.64 669.97 586.03 662.78 586.26 655.63 586.87 648.61 588.39 641.5 589.28 634.46 590.64 627.26 590.88 620.21 592.2 613.15 593.47 606.05 594.37 598.84 594.47 591.84 596.16 584.68 596.65 577.59 597.65 570.5 598.63 563.34 599.17 556.33 600.75 549.22 601.62 542.08 602.25 535.04 603.67 527.9 604.3 520.75 604.9 513.68 606.09 506.65 607.59 499.5 608.14 492.37 608.94 485.23 609.54 478.22 611.21 470.99 611.2 463.96 612.71 456.84 613.55 449.71 614.26 442.72 616.1 435.52 616.26 428.42 617.31 421.28 617.96 414.22 619.25 407.03 619.7 400 621.42"/><polygon class="c" points="400 621.42 392.9 620.22 385.81 619.21 378.76 617.91 371.65 617 364.5 616.44 357.44 615.18 350.35 614.19 343.17 613.86 336.16 612.17 328.92 612.33 321.9 610.71 314.76 610.1 307.64 609.33 300.66 607.52 293.54 606.71 286.43 605.83 279.29 605.24 272.15 604.56 265.09 603.36 257.97 602.56 250.85 601.72 243.86 599.97 236.68 599.65 229.52 599.12 222.54 597.25 215.4 596.6 208.35 595.27 201.24 594.38 194.01 594.39 186.9 593.48 179.79 592.61 172.8 590.78 165.6 590.6 158.54 589.29 151.37 588.87 144.34 587.34 137.3 585.93 130.06 586.05 122.98 584.86 115.88 583.82 108.67 582.69 115.16 579.08 120.84 574.4 127.42 571.13 133.39 566.92 139.8 563.39 145.55 558.82 151.76 554.98 158.02 551.22 164.21 547.35 170.89 544.26 176.45 539.38 182.98 536.03 189.41 532.55 195.12 527.91 201.19 523.82 207.61 520.18 214.92 520.28 222.18 520.33 229.43 519.79 236.69 520.81 243.94 520.19 251.2 520.49 258.46 520.55 265.71 520.87 272.97 520.66 280.23 520.23 287.48 520.31 294.74 519.93 302 519.97 309.25 520.74 316.51 519.88 323.76 520.79 331.02 520.37 338.28 520.59 345.54 520.77 352.79 520.09 360.05 519.89 367.31 520.07 374.56 520.8 381.82 520.58 389.08 520.11 396.33 519.83 403.58 519.8 410.84 520.5 418.1 520.04 425.35 519.81 432.61 520.93 439.86 520.75 447.12 519.79 454.38 519.94 461.64 519.82 468.89 520.83 476.15 519.94 483.41 520.16 490.67 519.91 497.93 520.03 505.19 519.79 512.45 519.96 519.71 520.5 526.97 520.38 534.23 520.85 541.49 519.94 548.75 520.66 556.01 520.06 563.27 520.75 570.54 520.71 577.8 520.52 585.07 520.07 592.25 520.68 598.52 524.25 604.45 528.54 611.13 531.65 616.78 536.37 623.22 539.84 629.39 543.75 635.74 547.36 641.45 551.99 647.72 555.75 653.83 559.75 660.25 563.25 666.5 567.04 672.74 570.83 678.86 574.83 685.04 578.73 691.55 582.74 684.17 584.12 677.01 584.64 669.97 586.03 662.78 586.26 655.63 586.87 648.61 588.39 641.5 589.28 634.46 590.64 627.26 590.88 620.21 592.2 613.15 593.47 606.05 594.37 598.84 594.47 591.84 596.16 584.68 596.65 577.59 597.65 570.5 598.63 563.34 599.17 556.33 600.75 549.22 601.62 542.08 602.25 535.04 603.67 527.9 604.3 520.75 604.9 513.68 606.09 506.65 607.59 499.5 608.14 492.37 608.94 485.23 609.54 478.22 611.21 470.99 611.2 463.96 612.71 456.84 613.55 449.71 614.26 442.72 616.1 435.52 616.26 428.42 617.31 421.28 617.96 414.22 619.25 407.03 619.7 400 621.42"/><polyline points="400 569.51 407.28 570.37 414.6 570.06 421.91 569.71 429.22 570.73 436.53 570.46 443.81 569.45 451.15 570.14 458.42 569.31 465.7 568.54 473.04 568.83 480.26 567.42 487.54 566.76 494.8 565.91 502.18 566.15 509.41 565.07 516.54 563.24 523.91 563.22 531.16 562.24 538.23 560.18 545.44 559 552.7 558.11 559.89 556.78 567.07 555.37 574.13 553.44 581.31 552.01 588.3 549.83 595.6 548.86 602.6 546.7 609.73 545.07 616.54 542.27 624.04 540.12 617.11 536.86 611.09 532.48 605.16 527.95 598.8 524.08 592.29 520.56 585.8 520.82 579.26 521.24 572.76 522.17 566.19 522.28 559.68 523.22"/><polyline class="c" points="400 569.51 407.28 570.37 414.6 570.06 421.91 569.71 429.22 570.73 436.53 570.46 443.81 569.45 451.15 570.14 458.42 569.31 465.7 568.54 473.04 568.83 480.26 567.42 487.54 566.76 494.8 565.91 502.18 566.15 509.41 565.07 516.54 563.24 523.91 563.22 531.16 562.24 538.23 560.18 545.44 559 552.7 558.11 559.89 556.78 567.07 555.37 574.13 553.44 581.31 552.01 588.3 549.83 595.6 548.86 602.6 546.7 609.73 545.07 616.54 542.27 624.04 540.12 617.11 536.86 611.09 532.48 605.16 527.95 598.8 524.08 592.29 520.56 585.8 520.82 579.26 521.24 572.76 522.17 566.19 522.28 559.68 523.22"/><polygon class="b" points="400 124.18 392.8 124.73 385.58 124.32 378.41 125.22 371.17 124.81 364.01 125.71 356.84 126.41 349.62 126.7 342.6 128.62 335.41 129.22 328.37 130.76 321.25 131.82 314.06 132.6 307.16 134.77 300.08 136.09 293.04 137.62 286.13 139.68 279.12 141.37 272.16 143.28 265.27 145.42 258.63 148.28 251.89 150.83 245.25 153.62 238.37 155.87 231.88 159.01 225.34 162.05 218.82 165.14 212.91 169.36 206.48 172.61 200.21 176.17 194.24 180.2 187.89 183.67 182.24 188.18 176.25 192.22 170.73 196.87 165.67 202.03 160.32 206.85 155.26 211.97 150.43 217.3 145.72 222.72 140.7 227.91 136.52 233.79 132.25 239.59 129.1 246.1 125.19 252.15 122.01 258.61 119.07 265.17 116.03 271.73 113.87 278.62 111.83 285.56 111.44 292.83 109.76 299.85 109.16 306.92 109.42 314 108.75 314 109.19 321.27 110 328.43 110.93 335.54 112.31 342.56 113.34 349.65 115.58 356.45 117.37 363.37 119.5 370.2 122.46 376.72 125.39 383.23 127.63 390.05 131.12 396.29 134.69 402.48 137.81 408.91 141.16 415.22 144.98 421.26 148.71 427.36 153.32 432.86 157.09 438.94 161.74 444.38 166.16 449.98 170.63 455.55 174.79 461.39 179.66 466.63 184.37 472.02 189.68 476.83 194.5 482.12 199.88 486.84 205.71 491.05 210.84 496.02 215.95 501.06 221.77 505.23 227.57 509.41 233.59 513.27 239.3 517.57 245.34 521.38 251.46 525.05 257.25 529.27 263.83 532.14 270.04 535.66 276.24 539.2 282.81 542.02 289.07 545.5 295.6 548.39 302.1 551.4 309.06 553.21 315.75 555.73 322.61 557.71 329.56 559.35 336.22 562.13 343.39 562.85 350.31 564.62 357.42 565.38 364.33 567.47 371.52 567.56 378.62 568.3 385.73 568.94 392.84 569.98 400 568.96 407.15 569.57 414.25 568.59 421.38 568.32 428.55 568.22 435.66 567.43 442.57 565.41 449.8 565.22 456.63 562.96 463.72 561.92 470.6 559.98 477.39 557.72 484.19 555.54 490.94 553.23 497.62 550.7 504.13 547.75 510.96 545.58 517.25 542.17 523.68 539.06 530.25 536.22 536.42 532.61 542.86 529.48 548.92 525.68 554.87 521.71 560.89 517.86 566.46 513.35 572.42 509.4 578.15 505.13 583.81 500.77 589.16 496.03 594.87 491.7 599.99 486.71 605.5 482.13 610.59 477.1 615.01 471.43 620.03 466.35 624.79 461.02 629.96 456.04 634.47 450.49 638.17 444.31 642.81 438.87 647.29 433.29 650.76 427 654.94 421.21 658.9 415.25 662.75 409.22 665.94 402.81 669.51 396.6 671.76 389.75 675.48 383.59 677.26 376.6 680.35 370.14 682.54 363.34 684.05 356.35 686.62 349.64 687.77 342.58 689.59 335.65 690.58 328.55 690.91 321.27 691.3 314 690.35 314 690.89 306.91 690.09 299.8 689.17 292.68 687.55 285.68 686.34 278.54 683.26 271.96 680.72 265.24 677.88 258.64 674.77 252.15 671.12 245.95 667.73 239.58 663.78 233.55 659.37 227.83 654.88 222.18 650.22 216.67 645.02 211.66 640.14 206.34 634.23 202.11 628.7 197.51 623.34 192.71 617.72 188.2 611.68 184.27 605.76 180.16 599.6 176.45 593.6 172.46 587.08 169.35 581.12 165.23 574.41 162.53 568.14 158.93 561.38 156.4 554.66 153.83 548.29 150.35 541.18 148.81 534.78 145.3 527.82 143.37 520.83 141.59 513.91 139.58 506.93 137.81 500.12 135.31 492.93 134.44 485.85 133.13 478.85 131.36 471.82 129.72 464.7 128.57 457.57 127.47 450.28 127.74 443.17 126.43 435.99 125.9 428.8 125.51 421.59 125.34 414.41 124.67 407.21 124 400 124.18"/><polygon class="c" points="400 124.18 392.8 124.73 385.58 124.32 378.41 125.22 371.17 124.81 364.01 125.71 356.84 126.41 349.62 126.7 342.6 128.62 335.41 129.22 328.37 130.76 321.25 131.82 314.06 132.6 307.16 134.77 300.08 136.09 293.04 137.62 286.13 139.68 279.12 141.37 272.16 143.28 265.27 145.42 258.63 148.28 251.89 150.83 245.25 153.62 238.37 155.87 231.88 159.01 225.34 162.05 218.82 165.14 212.91 169.36 206.48 172.61 200.21 176.17 194.24 180.2 187.89 183.67 182.24 188.18 176.25 192.22 170.73 196.87 165.67 202.03 160.32 206.85 155.26 211.97 150.43 217.3 145.72 222.72 140.7 227.91 136.52 233.79 132.25 239.59 129.1 246.1 125.19 252.15 122.01 258.61 119.07 265.17 116.03 271.73 113.87 278.62 111.83 285.56 111.44 292.83 109.76 299.85 109.16 307.17 109.42 314.5 108.75 314.5 109.19 321.52 110 328.56 110.93 335.6 112.31 342.59 113.34 349.67 115.58 356.46 117.37 363.38 119.5 370.2 122.46 376.72 125.39 383.23 127.63 390.05 131.12 396.29 134.69 402.48 137.81 408.91 141.16 415.22 144.98 421.26 148.71 427.36 153.32 432.86 157.09 438.94 161.74 444.38 166.16 449.98 170.63 455.55 174.79 461.39 179.66 466.63 184.37 472.02 189.68 476.83 194.5 482.12 199.88 486.84 205.71 491.05 210.84 496.02 215.95 501.06 221.77 505.23 227.57 509.41 233.59 513.27 239.3 517.57 245.34 521.38 251.46 525.05 257.25 529.27 263.83 532.14 270.04 535.66 276.24 539.2 282.81 542.02 289.07 545.5 295.6 548.39 302.1 551.4 309.06 553.21 315.75 555.73 322.61 557.71 329.56 559.35 336.22 562.13 343.39 562.85 350.31 564.62 357.42 565.38 364.33 567.47 371.52 567.56 378.62 568.3 385.73 568.94 392.84 569.98 400 568.96 407.15 569.57 414.25 568.59 421.38 568.32 428.55 568.22 435.66 567.43 442.57 565.41 449.8 565.22 456.63 562.96 463.72 561.92 470.6 559.98 477.39 557.72 484.19 555.54 490.94 553.23 497.62 550.7 504.13 547.75 510.96 545.58 517.25 542.17 523.68 539.06 530.25 536.22 536.42 532.61 542.86 529.48 548.92 525.68 554.87 521.71 560.89 517.86 566.46 513.35 572.42 509.4 578.15 505.13 583.81 500.77 589.16 496.03 594.87 491.7 599.99 486.71 605.5 482.13 610.59 477.1 615.01 471.43 620.03 466.35 624.79 461.02 629.96 456.04 634.47 450.49 638.17 444.31 642.81 438.87 647.29 433.29 650.76 427 654.94 421.21 658.9 415.25 662.75 409.22 665.94 402.81 669.51 396.6 671.76 389.75 675.48 383.59 677.26 376.6 680.35 370.14 682.54 363.34 684.05 356.35 686.62 349.64 687.77 342.58 689.59 335.65 690.58 328.55 690.91 321.52 691.3 314.5 690.35 314.5 690.89 307.16 690.09 299.93 689.17 292.75 687.55 285.71 686.34 278.55 683.26 271.97 680.72 265.24 677.88 258.64 674.77 252.15 671.12 245.95 667.73 239.58 663.78 233.55 659.37 227.83 654.88 222.18 650.22 216.67 645.02 211.66 640.14 206.34 634.23 202.11 628.7 197.51 623.34 192.71 617.72 188.2 611.68 184.27 605.76 180.16 599.6 176.45 593.6 172.46 587.08 169.35 581.12 165.23 574.41 162.53 568.14 158.93 561.38 156.4 554.66 153.83 548.29 150.35 541.18 148.81 534.78 145.3 527.82 143.37 520.83 141.59 513.91 139.58 506.93 137.81 500.12 135.31 492.93 134.44 485.85 133.13 478.85 131.36 471.82 129.72 464.7 128.57 457.57 127.47 450.28 127.74 443.17 126.43 435.99 125.9 428.8 125.51 421.59 125.34 414.41 124.67 407.21 124 400 124.18"/><g class="d"><polygon class="b" points="359.38 434.13 358.01 441.13 353.23 446.61 346.72 449.71 340.17 452.5 333.11 453.51 326.02 454.87 318.89 453.84 311.88 452.48 305.4 449.51 299.31 445.97 294.69 440.73 292.43 434.13 294.27 427.28 299.27 422.23 305.23 418.39 311.93 415.99 318.95 414.87 326.02 413.64 333.18 414.19 340.18 415.7 347.06 417.86 352.92 422.05 357.14 427.65 359.38 434.13"/><polygon class="c" points="359.38 434.13 358.01 441.13 353.23 446.61 346.72 449.71 340.17 452.5 333.11 453.51 326.02 454.87 318.89 453.84 311.88 452.48 305.4 449.51 299.31 445.97 294.69 440.73 292.43 434.13 294.27 427.28 299.27 422.23 305.23 418.39 311.93 415.99 318.95 414.87 326.02 413.64 333.18 414.19 340.18 415.7 347.06 417.86 352.92 422.05 357.14 427.65 359.38 434.13"/><polygon class="b" points="342.74 434.13 343.85 441.19 349.22 446 355.19 449.8 361.85 452.31 368.78 454.09 375.94 454.75 383.04 453.63 390.17 452.79 396.53 449.46 403.16 446.62 407.15 440.66 409.65 434.13 408.08 427.05 402.75 422.16 396.78 418.28 390.07 415.85 383.08 414.36 375.94 413.57 368.84 414.65 361.65 415.26 355.35 418.79 348.7 421.62 343.8 427.05 342.74 434.13"/><polygon class="c" points="342.74 434.13 343.85 441.19 349.22 446 355.19 449.8 361.85 452.31 368.78 454.09 375.94 454.75 383.04 453.63 390.17 452.79 396.53 449.46 403.16 446.62 407.15 440.66 409.65 434.13 408.08 427.05 402.75 422.16 396.78 418.28 390.07 415.85 383.08 414.36 375.94 413.57 368.84 414.65 361.65 415.26 355.35 418.79 348.7 421.62 343.8 427.05 342.74 434.13"/><polygon class="b" points="459.5 434.13 457.33 440.82 453.05 446.57 446.48 449.51 440.11 452.84 433.01 453.97 425.87 454.2 418.78 453.52 411.89 451.89 405.19 449.65 398.89 446.31 394.48 440.77 391.88 434.13 394.5 427.51 398.96 422.03 405.14 418.5 411.64 415.48 418.76 414.59 425.87 413.46 433.01 414.34 439.97 415.91 446.91 417.85 452.67 422.17 457.84 427.15 459.5 434.13"/><polygon class="c" points="459.5 434.13 457.33 440.82 453.05 446.57 446.48 449.51 440.11 452.84 433.01 453.97 425.87 454.2 418.78 453.52 411.89 451.89 405.19 449.65 398.89 446.31 394.48 440.77 391.88 434.13 394.5 427.51 398.96 422.03 405.14 418.5 411.64 415.48 418.76 414.59 425.87 413.46 433.01 414.34 439.97 415.91 446.91 417.85 452.67 422.17 457.84 427.15 459.5 434.13"/><polygon class="b" points="442.33 434.13 444.62 440.64 448.55 446.65 454.75 450.42 461.66 452.42 468.59 454.38 475.79 454.5 482.85 453.3 489.94 452.52 496.83 450.41 503 446.61 507.19 440.77 509.1 434.13 507.71 427.18 503.02 421.63 496.55 418.43 489.96 415.67 482.87 414.82 475.79 414.21 468.65 414.32 461.52 415.33 455.03 418.45 449.14 422.36 443.94 427.22 442.33 434.13"/><polygon class="c" points="442.33 434.13 444.62 440.64 448.55 446.65 454.75 450.42 461.66 452.42 468.59 454.38 475.79 454.5 482.85 453.3 489.94 452.52 496.83 450.41 503 446.61 507.19 440.77 509.1 434.13 507.71 427.18 503.02 421.63 496.55 418.43 489.96 415.67 482.87 414.82 475.79 414.21 468.65 414.32 461.52 415.33 455.03 418.45 449.14 422.36 443.94 427.22 442.33 434.13"/><polygon class="b" points="507.88 434.13 506.14 441.14 501.29 446.55 494.81 449.67 488.26 452.46 481.28 454.04 474.13 454.5 466.95 454.16 459.9 452.78 453.12 450.33 447.24 446.2 442.48 440.92 439.97 434.13 442.92 427.6 447.03 421.8 453.05 417.77 459.87 415.36 466.92 413.87 474.13 414.45 481.25 414.48 488.37 415.43 495.13 417.94 501.19 421.85 505.88 427.28 507.88 434.13"/><polygon class="c" points="507.88 434.13 506.14 441.14 501.29 446.55 494.81 449.67 488.26 452.46 481.28 454.04 474.13 454.5 466.95 454.16 459.9 452.78 453.12 450.33 447.24 446.2 442.48 440.92 439.97 434.13 442.92 427.6 447.03 421.8 453.05 417.77 459.87 415.36 466.92 413.87 474.13 414.45 481.25 414.48 488.37 415.43 495.13 417.94 501.19 421.85 505.88 427.28 507.88 434.13"/><polygon class="b" points="417.17 464.13 419.29 470.86 423.82 476.36 429.88 480.21 436.75 482.24 443.74 483.53 450.83 483.91 457.97 483.93 464.94 482.37 471.55 479.74 477.64 476.11 482.35 470.85 484.35 464.13 482.41 457.38 477.39 452.46 471.4 448.83 465.04 445.54 457.94 444.58 450.83 444.29 443.75 444.8 436.79 446.15 430.12 448.55 423.68 451.74 419.38 457.46 417.17 464.13"/><polygon class="c" points="417.17 464.13 419.29 470.86 423.82 476.36 429.88 480.21 436.75 482.24 443.74 483.53 450.83 483.91 457.97 483.93 464.94 482.37 471.55 479.74 477.64 476.11 482.35 470.85 484.35 464.13 482.41 457.38 477.39 452.46 471.4 448.83 465.04 445.54 457.94 444.58 450.83 444.29 443.75 444.8 436.79 446.15 430.12 448.55 423.68 451.74 419.38 457.46 417.17 464.13"/><polygon class="b" points="434.65 464.13 432.67 471 427.75 476.15 421.82 480.15 415.01 482.36 408 483.56 400.9 483.75 393.76 483.93 386.69 482.73 380.11 479.88 374.26 475.9 369.16 470.98 367.14 464.13 369.59 457.54 374.27 452.37 380.29 448.75 386.74 445.69 393.75 444.22 400.9 443.72 408.1 443.92 414.9 446.31 421.66 448.46 427.67 452.21 433.05 457.05 434.65 464.13"/><polygon class="c" points="434.65 464.13 432.67 471 427.75 476.15 421.82 480.15 415.01 482.36 408 483.56 400.9 483.75 393.76 483.93 386.69 482.73 380.11 479.88 374.26 475.9 369.16 470.98 367.14 464.13 369.59 457.54 374.27 452.37 380.29 448.75 386.74 445.69 393.75 444.22 400.9 443.72 408.1 443.92 414.9 446.31 421.66 448.46 427.67 452.21 433.05 457.05 434.65 464.13"/><polygon class="b" points="317.54 464.13 319.43 470.87 324.12 476.17 330.35 479.55 336.81 482.57 343.78 484.4 350.98 483.72 358.08 483.63 365.18 482.66 371.77 479.88 378.21 476.63 383.11 471.21 385.14 464.13 382.98 457.13 377.69 452.28 371.55 448.84 365.12 445.79 358.07 444.76 350.98 444.13 343.85 444.4 336.95 446.2 330.13 448.26 324.06 452.02 319.06 457.18 317.54 464.13"/><polygon class="c" points="317.54 464.13 319.43 470.87 324.12 476.17 330.35 479.55 336.81 482.57 343.78 484.4 350.98 483.72 358.08 483.63 365.18 482.66 371.77 479.88 378.21 476.63 383.11 471.21 385.14 464.13 382.98 457.13 377.69 452.28 371.55 448.84 365.12 445.79 358.07 444.76 350.98 444.13 343.85 444.4 336.95 446.2 330.13 448.26 324.06 452.02 319.06 457.18 317.54 464.13"/><polygon class="b" points="334.63 464.13 333.09 471.16 327.92 476.18 321.75 479.68 315.1 482.11 308.19 483.85 301.06 483.91 293.95 483.69 286.82 482.81 280.32 479.76 273.95 476.47 269.57 470.83 267.63 464.13 269.31 457.28 274.05 451.91 280.06 447.94 286.77 445.28 293.86 443.91 301.06 443.91 308.12 444.92 315.1 446.15 321.66 448.77 327.9 452.12 332.66 457.37 334.63 464.13"/><polygon class="c" points="334.63 464.13 333.09 471.16 327.92 476.18 321.75 479.68 315.1 482.11 308.19 483.85 301.06 483.91 293.95 483.69 286.82 482.81 280.32 479.76 273.95 476.47 269.57 470.83 267.63 464.13 269.31 457.28 274.05 451.91 280.06 447.94 286.77 445.28 293.86 443.91 301.06 443.91 308.12 444.92 315.1 446.15 321.66 448.77 327.9 452.12 332.66 457.37 334.63 464.13"/><polygon class="b" points="482.39 464.13 480.45 470.71 475.77 475.86 469.97 479.91 463.3 482.44 456.26 483.61 449.16 484.74 442.01 484.01 435.13 482.1 428.12 480.42 421.94 476.63 417.35 471.02 415.08 464.13 417.22 457.16 422.56 452.41 428.22 448.06 435.13 446.18 442.03 444.37 449.16 444.16 456.3 444.36 463.32 445.73 470.02 448.24 476.39 451.64 481.26 457.07 482.39 464.13"/><polygon class="c" points="482.39 464.13 480.45 470.71 475.77 475.86 469.97 479.91 463.3 482.44 456.26 483.61 449.16 484.74 442.01 484.01 435.13 482.1 428.12 480.42 421.94 476.63 417.35 471.02 415.08 464.13 417.22 457.16 422.56 452.41 428.22 448.06 435.13 446.18 442.03 444.37 449.16 444.16 456.3 444.36 463.32 445.73 470.02 448.24 476.39 451.64 481.26 457.07 482.39 464.13"/><polygon class="b" points="465.83 464.13 467.11 471.12 472.35 476.02 478.39 479.69 485.06 482.06 492.02 483.36 499.09 484.16 506.25 484.11 513.2 482.36 519.72 479.54 525.68 475.83 530.33 470.68 533.18 464.13 530.57 457.43 525.81 452.27 520.08 447.95 513.16 446.05 506.29 443.85 499.09 443.89 491.97 444.54 485.06 446.18 478.28 448.35 472.06 451.88 467.52 457.39 465.83 464.13"/><polygon class="c" points="465.83 464.13 467.11 471.12 472.35 476.02 478.39 479.69 485.06 482.06 492.02 483.36 499.09 484.16 506.25 484.11 513.2 482.36 519.72 479.54 525.68 475.83 530.33 470.68 533.18 464.13 530.57 457.43 525.81 452.27 520.08 447.95 513.16 446.05 506.29 443.85 499.09 443.89 491.97 444.54 485.06 446.18 478.28 448.35 472.06 451.88 467.52 457.39 465.83 464.13"/><polygon class="b" points="359.78 494.13 357.55 500.85 353.12 506.47 346.91 510.09 339.99 511.87 333.21 514.32 326.02 514.54 318.87 514.02 311.97 512.15 305.14 510.07 299.06 506.3 294.25 501 292.73 494.13 294.82 487.61 299.11 482.04 305.44 478.83 312.01 476.26 318.88 474.38 326.02 474.39 333.19 474.07 340.22 475.59 346.72 478.57 352.64 482.39 358.09 487.09 359.78 494.13"/><polygon class="c" points="359.78 494.13 357.55 500.85 353.12 506.47 346.91 510.09 339.99 511.87 333.21 514.32 326.02 514.54 318.87 514.02 311.97 512.15 305.14 510.07 299.06 506.3 294.25 501 292.73 494.13 294.82 487.61 299.11 482.04 305.44 478.83 312.01 476.26 318.88 474.38 326.02 474.39 333.19 474.07 340.22 475.59 346.72 478.57 352.64 482.39 358.09 487.09 359.78 494.13"/><polygon class="b" points="342.02 494.13 344.12 501.03 349.03 506.23 354.95 510.32 361.73 512.72 368.81 513.83 375.94 514.25 383 513.28 389.97 512.06 396.66 509.73 403.01 506.43 407.32 500.76 409.2 494.13 407.16 487.59 403.19 481.61 396.56 478.73 389.95 476.25 383.11 474.17 375.94 474.47 368.89 474.99 361.82 475.87 355.13 478.33 348.67 481.59 344.81 487.65 342.02 494.13"/><polygon class="c" points="342.02 494.13 344.12 501.03 349.03 506.23 354.95 510.32 361.73 512.72 368.81 513.83 375.94 514.25 383 513.28 389.97 512.06 396.66 509.73 403.01 506.43 407.32 500.76 409.2 494.13 407.16 487.59 403.19 481.61 396.56 478.73 389.95 476.25 383.11 474.17 375.94 474.47 368.89 474.99 361.82 475.87 355.13 478.33 348.67 481.59 344.81 487.65 342.02 494.13"/><polygon class="b" points="459.35 494.13 457.22 500.75 452.43 505.8 446.53 509.62 440.08 512.73 432.97 513.62 425.87 514.49 418.71 514.06 411.73 512.45 405.22 509.58 398.8 506.43 394.26 500.9 391.79 494.13 394.33 487.4 398.71 481.72 404.99 478.19 411.87 476.3 418.66 473.87 425.87 474.08 433.05 474 440.09 475.49 446.71 478.27 452.86 481.93 457.48 487.36 459.35 494.13"/><polygon class="c" points="459.35 494.13 457.22 500.75 452.43 505.8 446.53 509.62 440.08 512.73 432.97 513.62 425.87 514.49 418.71 514.06 411.73 512.45 405.22 509.58 398.8 506.43 394.26 500.9 391.79 494.13 394.33 487.4 398.71 481.72 404.99 478.19 411.87 476.3 418.66 473.87 425.87 474.08 433.05 474 440.09 475.49 446.71 478.27 452.86 481.93 457.48 487.36 459.35 494.13"/><polygon class="b" points="442.13 494.13 444.35 500.81 448.7 506.46 455.06 509.77 461.52 512.95 468.73 513.3 475.79 514.6 482.88 513.53 489.98 512.64 496.55 509.81 502.85 506.42 507.86 501.17 509.85 494.13 507.5 487.3 502.39 482.41 496.49 478.56 489.92 475.83 482.98 473.93 475.79 474.28 468.66 474.43 461.76 476.2 455.21 478.83 449.1 482.31 444.36 487.47 442.13 494.13"/><polygon class="c" points="442.13 494.13 444.35 500.81 448.7 506.46 455.06 509.77 461.52 512.95 468.73 513.3 475.79 514.6 482.88 513.53 489.98 512.64 496.55 509.81 502.85 506.42 507.86 501.17 509.85 494.13 507.5 487.3 502.39 482.41 496.49 478.56 489.92 475.83 482.98 473.93 475.79 474.28 468.66 474.43 461.76 476.2 455.21 478.83 449.1 482.31 444.36 487.47 442.13 494.13"/><polygon class="b" points="507.85 494.13 505.93 501.02 501.39 506.68 494.82 509.69 488.4 512.96 481.2 513.43 474.13 514.18 467.01 513.75 459.9 512.76 453.04 510.5 447.51 505.86 442.61 500.84 440.85 494.13 442.77 487.51 447.54 482.43 453.42 478.54 459.93 475.59 466.96 474.17 474.13 474.54 481.22 474.68 488.41 475.28 494.78 478.67 501.1 481.95 505.5 487.5 507.85 494.13"/><polygon class="c" points="507.85 494.13 505.93 501.02 501.39 506.68 494.82 509.69 488.4 512.96 481.2 513.43 474.13 514.18 467.01 513.75 459.9 512.76 453.04 510.5 447.51 505.86 442.61 500.84 440.85 494.13 442.77 487.51 447.54 482.43 453.42 478.54 459.93 475.59 466.96 474.17 474.13 474.54 481.22 474.68 488.41 475.28 494.78 478.67 501.1 481.95 505.5 487.5 507.85 494.13"/><polygon class="b" points="417.18 524.13 418.9 531.09 423.72 536.48 430.18 539.59 436.55 542.95 443.72 543.67 450.83 543.84 457.93 543.6 465.02 542.67 471.44 539.5 477.58 536.04 482.31 530.82 484.94 524.13 482.11 517.56 478.06 511.63 471.64 508.34 465.06 505.48 458.03 503.87 450.83 504.14 443.7 504.43 436.68 505.75 429.9 508.08 424.22 512.41 418.74 517.08 417.18 524.13"/><polygon class="c" points="417.18 524.13 418.9 531.09 423.72 536.48 430.18 539.59 436.55 542.95 443.72 543.67 450.83 543.84 457.93 543.6 465.02 542.67 471.44 539.5 477.58 536.04 482.31 530.82 484.94 524.13 482.11 517.56 478.06 511.63 471.64 508.34 465.06 505.48 458.03 503.87 450.83 504.14 443.7 504.43 436.68 505.75 429.9 508.08 424.22 512.41 418.74 517.08 417.18 524.13"/><polygon class="b" points="434.65 524.13 432.92 531.14 427.95 536.41 421.66 539.81 415.17 542.91 408.02 543.74 400.9 544.53 393.79 543.7 386.88 542.04 380.06 540 374.24 535.92 369.48 530.79 367.05 524.13 369.63 517.56 373.7 511.66 379.85 507.81 386.62 505.29 393.79 504.53 400.9 504.42 408.06 504.21 415.06 505.74 421.93 507.89 427.82 512.02 432.38 517.44 434.65 524.13"/><polygon class="c" points="434.65 524.13 432.92 531.14 427.95 536.41 421.66 539.81 415.17 542.91 408.02 543.74 400.9 544.53 393.79 543.7 386.88 542.04 380.06 540 374.24 535.92 369.48 530.79 367.05 524.13 369.63 517.56 373.7 511.66 379.85 507.81 386.62 505.29 393.79 504.53 400.9 504.42 408.06 504.21 415.06 505.74 421.93 507.89 427.82 512.02 432.38 517.44 434.65 524.13"/><polygon class="b" points="317.27 524.13 319.42 530.87 323.77 536.61 330.26 539.73 336.98 541.96 343.91 543.38 350.98 544.87 358.06 543.49 365.23 542.86 371.87 540.09 378.07 536.46 383.05 531.17 384.55 524.13 382.63 517.34 378.06 511.82 371.9 508.11 365.03 506.12 358.17 503.96 350.98 504.32 343.84 504.31 336.73 505.39 330.07 508.13 323.8 511.7 319.81 517.63 317.27 524.13"/><polygon class="c" points="317.27 524.13 319.42 530.87 323.77 536.61 330.26 539.73 336.98 541.96 343.91 543.38 350.98 544.87 358.06 543.49 365.23 542.86 371.87 540.09 378.07 536.46 383.05 531.17 384.55 524.13 382.63 517.34 378.06 511.82 371.9 508.11 365.03 506.12 358.17 503.96 350.98 504.32 343.84 504.31 336.73 505.39 330.07 508.13 323.8 511.7 319.81 517.63 317.27 524.13"/><polygon class="b" points="334.94 524.13 332.49 530.8 327.59 535.77 321.94 540.09 315.22 542.54 308.19 543.83 301.06 543.8 294 543.29 286.86 542.69 280.35 539.7 274.06 536.34 269.92 530.62 267.39 524.13 268.91 517.04 274.33 512.26 280.06 507.95 286.8 505.38 293.9 504.25 301.06 503.75 308.24 504.02 315.25 505.59 321.89 508.3 328.11 511.85 332.67 517.36 334.94 524.13"/><polygon class="c" points="334.94 524.13 332.49 530.8 327.59 535.77 321.94 540.09 315.22 542.54 308.19 543.83 301.06 543.8 294 543.29 286.86 542.69 280.35 539.7 274.06 536.34 269.92 530.62 267.39 524.13 268.91 517.04 274.33 512.26 280.06 507.95 286.8 505.38 293.9 504.25 301.06 503.75 308.24 504.02 315.25 505.59 321.89 508.3 328.11 511.85 332.67 517.36 334.94 524.13"/><polygon class="b" points="482.25 524.13 480.58 530.79 476.06 536.21 470.23 540.46 463.39 542.78 456.22 543.27 449.16 544.1 442.1 543.32 434.87 543.02 428.34 539.95 422.45 535.99 417.13 531.15 415.11 524.13 417.54 517.35 421.99 511.69 428.34 508.31 434.93 505.46 441.99 504.07 449.16 503.83 456.36 503.95 463.22 506.08 470.05 508.17 476.07 512.04 481.24 517.09 482.25 524.13"/><polygon class="c" points="482.25 524.13 480.58 530.79 476.06 536.21 470.23 540.46 463.39 542.78 456.22 543.27 449.16 544.1 442.1 543.32 434.87 543.02 428.34 539.95 422.45 535.99 417.13 531.15 415.11 524.13 417.54 517.35 421.99 511.69 428.34 508.31 434.93 505.46 441.99 504.07 449.16 503.83 456.36 503.95 463.22 506.08 470.05 508.17 476.07 512.04 481.24 517.09 482.25 524.13"/><polygon class="b" points="465.79 524.13 467.81 530.71 471.92 536.56 478.42 539.63 484.87 542.75 491.93 544.03 499.09 544.36 506.15 543.32 513.35 542.91 519.71 539.52 526.31 536.62 530.89 531.01 532.86 524.13 530.21 517.65 526.29 511.67 519.92 508.29 513.34 505.39 506.3 503.82 499.09 503.52 492.01 504.8 485.08 506.27 478.01 507.78 472.55 512.49 466.98 517.07 465.79 524.13"/><polygon class="c" points="465.79 524.13 467.81 530.71 471.92 536.56 478.42 539.63 484.87 542.75 491.93 544.03 499.09 544.36 506.15 543.32 513.35 542.91 519.71 539.52 526.31 536.62 530.89 531.01 532.86 524.13 530.21 517.65 526.29 511.67 519.92 508.29 513.34 505.39 506.3 503.82 499.09 503.52 492.01 504.8 485.08 506.27 478.01 507.78 472.55 512.49 466.98 517.07 465.79 524.13"/><polygon class="b" points="359.84 554.13 358.04 561.15 353.15 566.51 346.59 569.43 340.3 572.97 333.14 573.75 326.02 573.83 318.87 573.97 311.91 572.35 305.19 569.95 299.28 566.02 294.2 561.02 292.04 554.13 293.93 547.07 299.11 542.03 305 537.89 311.9 535.87 318.95 534.93 326.02 534.3 333.22 533.84 340.14 535.84 346.8 538.4 353.17 541.74 357.43 547.48 359.84 554.13"/><polygon class="c" points="359.84 554.13 358.04 561.15 353.15 566.51 346.59 569.43 340.3 572.97 333.14 573.75 326.02 573.83 318.87 573.97 311.91 572.35 305.19 569.95 299.28 566.02 294.2 561.02 292.04 554.13 293.93 547.07 299.11 542.03 305 537.89 311.9 535.87 318.95 534.93 326.02 534.3 333.22 533.84 340.14 535.84 346.8 538.4 353.17 541.74 357.43 547.48 359.84 554.13"/><polygon class="b" points="342.4 554.13 344.73 560.67 348.82 566.49 355.12 569.96 361.66 572.97 368.85 573.59 375.94 573.99 383.01 573.36 390.18 572.83 396.75 569.91 402.74 566.09 407.9 561.11 409.4 554.13 407.17 547.59 402.57 542.38 396.99 537.84 390.04 535.96 383.11 534.17 375.94 533.41 368.77 534.08 361.89 536.09 355.25 538.59 348.88 541.84 344.11 547.23 342.4 554.13"/><polygon class="c" points="342.4 554.13 344.73 560.67 348.82 566.49 355.12 569.96 361.66 572.97 368.85 573.59 375.94 573.99 383.01 573.36 390.18 572.83 396.75 569.91 402.74 566.09 407.9 561.11 409.4 554.13 407.17 547.59 402.57 542.38 396.99 537.84 390.04 535.96 383.11 534.17 375.94 533.41 368.77 534.08 361.89 536.09 355.25 538.59 348.88 541.84 344.11 547.23 342.4 554.13"/><polygon class="b" points="459.25 554.13 457.94 561.18 452.87 566.36 446.51 569.57 439.97 572.34 433.05 574.23 425.87 574.91 418.68 574.31 411.58 572.98 405 570.05 398.8 566.43 394.53 560.74 392.03 554.13 394.73 547.64 398.84 541.88 404.82 537.84 411.62 535.41 418.7 534.12 425.87 534.32 432.95 534.74 439.91 536.15 446.89 537.9 452.65 542.18 457.25 547.5 459.25 554.13"/><polygon class="c" points="459.25 554.13 457.94 561.18 452.87 566.36 446.51 569.57 439.97 572.34 433.05 574.23 425.87 574.91 418.68 574.31 411.58 572.98 405 570.05 398.8 566.43 394.53 560.74 392.03 554.13 394.73 547.64 398.84 541.88 404.82 537.84 411.62 535.41 418.7 534.12 425.87 534.32 432.95 534.74 439.91 536.15 446.89 537.9 452.65 542.18 457.25 547.5 459.25 554.13"/><polygon class="b" points="442.62 554.13 444.24 560.87 449.25 565.77 454.82 570.26 461.74 572.15 468.59 574.36 475.79 574.29 482.99 574.4 489.89 572.34 496.49 569.69 502.59 566.09 507.21 560.79 509.35 554.13 507.88 547.07 502.89 541.79 496.69 538.15 490.03 535.45 482.91 534.51 475.79 534.14 468.59 533.9 461.65 535.81 454.96 538.3 448.77 541.89 444.13 547.33 442.62 554.13"/><polygon class="c" points="442.62 554.13 444.24 560.87 449.25 565.77 454.82 570.26 461.74 572.15 468.59 574.36 475.79 574.29 482.99 574.4 489.89 572.34 496.49 569.69 502.59 566.09 507.21 560.79 509.35 554.13 507.88 547.07 502.89 541.79 496.69 538.15 490.03 535.45 482.91 534.51 475.79 534.14 468.59 533.9 461.65 535.81 454.96 538.3 448.77 541.89 444.13 547.33 442.62 554.13"/><polygon class="b" points="507.94 554.13 505.53 560.78 501.06 566.26 495.02 570.11 488.27 572.49 481.23 573.63 474.13 574.44 466.96 574.14 459.88 572.83 453.05 570.48 447.26 566.17 442.42 560.96 440.67 554.13 442.94 547.61 447.33 542.17 453.16 538.01 459.87 535.37 467 534.44 474.13 534.34 481.3 534.08 488.24 535.89 494.79 538.66 500.94 542.16 505.31 547.62 507.94 554.13"/><polygon class="c" points="507.94 554.13 505.53 560.78 501.06 566.26 495.02 570.11 488.27 572.49 481.23 573.63 474.13 574.44 466.96 574.14 459.88 572.83 453.05 570.48 447.26 566.17 442.42 560.96 440.67 554.13 442.94 547.61 447.33 542.17 453.16 538.01 459.87 535.37 467 534.44 474.13 534.34 481.3 534.08 488.24 535.89 494.79 538.66 500.94 542.16 505.31 547.62 507.94 554.13"/></g><polygon class="c" points="400 123.95 392.81 125 385.59 124.49 378.4 124.91 371.17 124.69 363.98 125.3 356.88 126.89 349.73 127.64 342.56 128.34 335.31 128.54 328.26 130.11 321.2 131.57 314.11 132.81 307.12 134.6 300.07 136.05 292.9 137.11 286.23 140.04 279.1 141.3 272.24 143.53 265.26 145.38 258.64 148.31 252.04 151.2 245.3 153.74 238.41 155.94 232.18 159.65 225.34 162.05 219.22 165.91 212.44 168.51 206.28 172.28 199.96 175.75 194.1 179.98 188.29 184.25 182.38 188.36 176.89 193.04 171.36 197.63 165.15 201.45 159.92 206.43 155.23 211.94 150.01 216.91 144.98 222.09 140.47 227.73 136.57 233.82 132.33 239.65 128.73 245.89 125.06 252.08 122.06 258.63 118.9 265.1 116.47 271.88 113.77 278.59 112.97 285.82 110.75 292.71 110.19 299.9 109.57 307.19 109 314.5 108.88 314.5 109.34 321.51 109.81 328.58 111.18 335.56 112.58 342.54 113.66 349.59 114.94 356.64 117.67 363.28 119.41 370.23 121.81 376.98 124.59 383.57 127.8 389.97 131.2 396.26 134.07 402.81 137.79 408.92 141.18 415.21 145.03 421.23 149.12 427.09 153.32 432.86 157.34 438.76 161.5 444.56 165.63 450.41 170.39 455.75 174.87 461.32 179.46 466.81 185.21 471.21 189.58 476.92 195.09 481.51 199.89 486.83 205.23 491.58 210.69 496.19 216.5 500.38 221.63 505.42 227.37 509.68 233.19 513.84 239.05 517.93 245.1 521.74 250.94 525.88 257.45 528.93 263.62 532.51 269.85 536.01 276.07 539.54 282.65 542.36 288.98 545.68 295.65 548.28 302.2 551.15 308.93 553.55 315.74 555.74 322.46 558.19 329.34 560.15 336.48 561.09 343.38 562.92 350.25 564.94 357.4 565.55 364.4 566.95 371.5 567.76 378.61 568.44 385.73 568.85 392.85 569.48 400 569.97 407.14 569.19 414.3 569.53 421.44 569.03 428.54 568.15 435.68 567.59 442.66 565.94 449.74 564.89 456.77 563.6 463.64 561.61 470.46 559.44 477.55 558.24 484.24 555.7 490.86 552.99 497.63 550.72 504.51 548.67 510.85 545.32 517.63 542.96 523.84 539.38 530.15 536.03 536.6 532.93 542.94 529.61 548.67 525.27 554.88 521.72 560.48 517.25 566.88 513.95 572.23 509.15 578.32 505.35 584.02 501.03 589.59 496.53 594.76 491.58 600.13 486.86 605.49 482.12 609.97 476.48 615.43 471.83 619.86 466.19 625.01 461.22 629.87 455.96 634.53 450.54 638.63 444.67 643.29 439.22 646.72 432.89 651.52 427.51 654.47 420.91 659.2 415.44 661.8 408.68 665.35 402.5 668.85 396.27 672.45 390.07 675.41 383.56 677.9 376.85 680.27 370.11 683.03 363.5 684.3 356.42 686.84 349.69 687.86 342.6 689.12 335.57 690.29 328.52 690.19 321.48 690.51 314.5 690.5 314.5 691.03 307.15 689.89 299.95 688.52 292.86 688.05 285.59 685.43 278.82 683.61 271.84 681.42 264.96 678.35 258.42 675.37 251.84 671.32 245.84 667.38 239.82 663.55 233.71 659.25 227.93 654.62 222.41 649.71 217.14 644.53 212.15 639.97 206.51 634.85 201.42 628.7 197.52 623.47 192.54 617.66 188.27 611.99 183.82 605.68 180.29 599.8 176.12 593.4 172.78 587.49 168.6 580.84 165.76 574.37 162.62 568.18 158.84 561.64 155.8 554.59 153.99 548.3 150.33 541.3 148.47 534.45 146.26 527.76 143.54 520.91 141.29 513.85 139.78 507.01 137.48 500.04 135.65 492.96 134.31 485.86 133.06 478.91 131.06 471.79 129.87 464.57 129.42 457.47 128.23 450.28 127.74 443.12 127.02 436.03 125.31 428.82 125.14 421.62 124.71 414.43 124.04 407.2 125.01 400 123.95"/><polygon class="b" points="630.35 182.46 626.91 188.16 621.35 192.71 614.63 195.26 608 198.05 600.88 199.26 593.97 201.11 587.07 203.03 580.01 204.26 573.03 205.98 565.8 206.12 558.78 207.56 551.62 208.11 544.63 209.9 537.41 209.86 530.32 210.81 523.21 211.73 516.05 212.14 508.97 213.39 501.81 213.72 494.63 213.73 487.51 214.6 480.33 214.66 473.2 215.4 466.07 216.09 458.9 216.23 451.74 216.57 444.59 217.13 437.41 216.75 430.24 216.92 423.09 217.87 415.91 217.53 408.75 217.53 401.57 217.82 394.4 217.87 387.23 217.83 380.06 217.52 372.9 216.9 365.72 217.58 358.56 217.32 351.39 217.01 344.21 217.19 337.08 216.01 329.88 216.63 322.72 216.32 315.59 215.41 308.42 215.25 301.27 214.75 294.14 214.02 286.99 213.55 279.79 213.77 272.67 212.85 265.56 211.87 258.39 211.52 251.33 210.22 244.19 209.56 237.15 208.18 229.98 207.79 222.92 206.56 215.87 205.29 208.69 204.7 201.68 203.19 194.74 201.38 187.89 199.24 180.83 197.87 174.2 195.12 167.8 191.96 161.3 188.84 157.78 182.46 161.99 176.88 167.8 172.91 174.34 170.11 180.92 167.25 187.74 165.03 194.76 163.56 201.82 162.32 208.81 160.77 215.92 159.89 222.92 158.3 230 157.23 237.12 156.43 244.19 155.26 251.32 154.53 258.42 153.51 265.53 152.64 272.71 152.41 279.86 151.88 287.01 151.57 294.14 150.86 301.29 150.4 308.46 150.19 315.57 149.06 322.74 149.13 329.9 148.84 337.05 148.17 344.23 148.53 351.37 147.36 358.55 147.77 365.72 148.02 372.88 147.32 380.05 147.39 387.22 146.94 394.4 147.49 401.56 147.42 408.74 146.83 415.9 147.44 423.08 146.98 430.24 147.43 437.4 148.07 444.56 148.32 451.73 148.54 458.91 148.39 466.04 149.44 473.2 149.68 480.34 150.26 487.54 150.01 494.69 150.51 501.82 151.24 508.99 151.37 516.11 152.3 523.25 152.86 530.42 153.2 537.45 154.82 544.68 154.75 551.72 156.2 558.88 156.7 565.83 158.65 572.92 159.66 579.96 160.95 587 162.29 594.01 163.74 601.13 164.81 607.69 167.92 614.82 169.21 621.45 172.06 627.35 176.26 630.35 182.46"/><polygon class="c" points="630.35 182.46 626.91 188.16 621.35 192.71 614.63 195.26 608 198.05 600.88 199.26 593.97 201.11 587.07 203.03 580.01 204.26 573.03 205.98 565.8 206.12 558.78 207.56 551.62 208.11 544.63 209.9 537.41 209.86 530.32 210.81 523.21 211.73 516.05 212.14 508.97 213.39 501.81 213.72 494.63 213.73 487.51 214.6 480.33 214.66 473.2 215.4 466.07 216.09 458.9 216.23 451.74 216.57 444.59 217.13 437.41 216.75 430.24 216.92 423.09 217.87 415.91 217.53 408.75 217.53 401.57 217.82 394.4 217.87 387.23 217.83 380.06 217.52 372.9 216.9 365.72 217.58 358.56 217.32 351.39 217.01 344.21 217.19 337.08 216.01 329.88 216.63 322.72 216.32 315.59 215.41 308.42 215.25 301.27 214.75 294.14 214.02 286.99 213.55 279.79 213.77 272.67 212.85 265.56 211.87 258.39 211.52 251.33 210.22 244.19 209.56 237.15 208.18 229.98 207.79 222.92 206.56 215.87 205.29 208.69 204.7 201.68 203.19 194.74 201.38 187.89 199.24 180.83 197.87 174.2 195.12 167.8 191.96 161.3 188.84 157.78 182.46 161.99 176.88 167.8 172.91 174.34 170.11 180.92 167.25 187.74 165.03 194.76 163.56 201.82 162.32 208.81 160.77 215.92 159.89 222.92 158.3 230 157.23 237.12 156.43 244.19 155.26 251.32 154.53 258.42 153.51 265.53 152.64 272.71 152.41 279.86 151.88 287.01 151.57 294.14 150.86 301.29 150.4 308.46 150.19 315.57 149.06 322.74 149.13 329.9 148.84 337.05 148.17 344.23 148.53 351.37 147.36 358.55 147.77 365.72 148.02 372.88 147.32 380.05 147.39 387.22 146.94 394.4 147.49 401.56 147.42 408.74 146.83 415.9 147.44 423.08 146.98 430.24 147.43 437.4 148.07 444.56 148.32 451.73 148.54 458.91 148.39 466.04 149.44 473.2 149.68 480.34 150.26 487.54 150.01 494.69 150.51 501.82 151.24 508.99 151.37 516.11 152.3 523.25 152.86 530.42 153.2 537.45 154.82 544.68 154.75 551.72 156.2 558.88 156.7 565.83 158.65 572.92 159.66 579.96 160.95 587 162.29 594.01 163.74 601.13 164.81 607.69 167.92 614.82 169.21 621.45 172.06 627.35 176.26 630.35 182.46"/><polygon class="b" points="653.61 156.32 649.6 162.36 643.96 166.91 637.21 169.55 630.34 171.75 623.51 174.04 616.5 175.72 609.43 177.04 602.49 179.07 595.37 180.15 588.25 181.26 581.15 182.47 574.02 183.47 566.82 183.91 559.76 185.47 552.63 186.53 545.43 186.92 538.33 188.3 531.06 187.91 523.93 189.05 516.71 189.12 509.57 190.18 502.38 190.62 495.21 191.38 488 191.47 480.79 191.39 473.62 192.13 466.44 192.7 459.24 192.96 452.05 193.46 444.82 192.94 437.64 193.84 430.44 193.83 423.23 193.71 416.02 193.77 408.82 194.63 401.61 194.67 394.4 194.61 387.19 193.96 379.99 193.94 372.79 193.63 365.58 193.7 358.38 193.8 351.19 193.02 343.98 193.19 336.76 193.39 329.58 192.47 322.39 192.05 315.14 192.86 307.96 192.09 300.76 191.68 293.57 191.19 286.35 191.2 279.23 189.8 272.06 189.16 264.88 188.57 257.71 187.93 250.5 187.8 243.37 186.67 236.15 186.43 229 185.57 221.92 184.17 214.75 183.43 207.65 182.25 200.51 181.31 193.49 179.66 186.43 178.3 179.22 177.61 172.21 175.94 165.29 173.93 158.37 171.94 151.69 169.26 145.25 166.1 139.03 162.53 136.1 156.32 139.26 150.35 145.33 146.66 151.79 143.58 158.49 141.01 165.45 139.18 172.19 136.52 179.26 135.08 186.26 133.35 193.48 132.76 200.51 131.2 207.71 130.59 214.73 128.88 221.87 127.89 229.07 127.46 236.2 126.42 243.35 125.55 250.57 125.41 257.69 124.21 264.82 123.13 272.06 123.27 279.19 121.94 286.42 122.15 293.58 121.2 300.77 120.81 308 121.16 315.14 119.76 322.37 120.31 329.55 119.6 336.75 119.29 343.96 119.17 351.17 119.34 358.37 119.34 365.57 119.06 372.77 118.28 379.98 118.85 387.19 118.63 394.4 118.72 401.6 118.77 408.8 118.81 416.01 119 423.21 118.75 430.41 119.34 437.62 119.27 444.83 119.17 452.04 119.04 459.25 119.18 466.42 120.31 473.61 120.68 480.84 120.47 488.02 121.12 495.19 121.95 502.39 122.2 509.56 122.87 516.81 122.55 523.93 123.88 531.17 123.69 538.28 125.09 545.48 125.45 552.58 126.79 559.78 127.2 566.89 128.35 573.99 129.56 581.12 130.55 588.24 131.6 595.44 132.19 602.38 134.24 609.4 135.79 616.51 136.99 623.52 138.63 630.42 140.71 637.14 143.31 643.93 145.81 649.39 150.53 653.61 156.32"/><polygon class="c" points="653.61 156.32 649.6 162.36 643.96 166.91 637.21 169.55 630.34 171.75 623.51 174.04 616.5 175.72 609.43 177.04 602.49 179.07 595.37 180.15 588.25 181.26 581.15 182.47 574.02 183.47 566.82 183.91 559.76 185.47 552.63 186.53 545.43 186.92 538.33 188.3 531.06 187.91 523.93 189.05 516.71 189.12 509.57 190.18 502.38 190.62 495.21 191.38 488 191.47 480.79 191.39 473.62 192.13 466.44 192.7 459.24 192.96 452.05 193.46 444.82 192.94 437.64 193.84 430.44 193.83 423.23 193.71 416.02 193.77 408.82 194.63 401.61 194.67 394.4 194.61 387.19 193.96 379.99 193.94 372.79 193.63 365.58 193.7 358.38 193.8 351.19 193.02 343.98 193.19 336.76 193.39 329.58 192.47 322.39 192.05 315.14 192.86 307.96 192.09 300.76 191.68 293.57 191.19 286.35 191.2 279.23 189.8 272.06 189.16 264.88 188.57 257.71 187.93 250.5 187.8 243.37 186.67 236.15 186.43 229 185.57 221.92 184.17 214.75 183.43 207.65 182.25 200.51 181.31 193.49 179.66 186.43 178.3 179.22 177.61 172.21 175.94 165.29 173.93 158.37 171.94 151.69 169.26 145.25 166.1 139.03 162.53 136.1 156.32 139.26 150.35 145.33 146.66 151.79 143.58 158.49 141.01 165.45 139.18 172.19 136.52 179.26 135.08 186.26 133.35 193.48 132.76 200.51 131.2 207.71 130.59 214.73 128.88 221.87 127.89 229.07 127.46 236.2 126.42 243.35 125.55 250.57 125.41 257.69 124.21 264.82 123.13 272.06 123.27 279.19 121.94 286.42 122.15 293.58 121.2 300.77 120.81 308 121.16 315.14 119.76 322.37 120.31 329.55 119.6 336.75 119.29 343.96 119.17 351.17 119.34 358.37 119.34 365.57 119.06 372.77 118.28 379.98 118.85 387.19 118.63 394.4 118.72 401.6 118.77 408.8 118.81 416.01 119 423.21 118.75 430.41 119.34 437.62 119.27 444.83 119.17 452.04 119.04 459.25 119.18 466.42 120.31 473.61 120.68 480.84 120.47 488.02 121.12 495.19 121.95 502.39 122.2 509.56 122.87 516.81 122.55 523.93 123.88 531.17 123.69 538.28 125.09 545.48 125.45 552.58 126.79 559.78 127.2 566.89 128.35 573.99 129.56 581.12 130.55 588.24 131.6 595.44 132.19 602.38 134.24 609.4 135.79 616.51 136.99 623.52 138.63 630.42 140.71 637.14 143.31 643.93 145.81 649.39 150.53 653.61 156.32"/><polyline class="b" points="148.52 166.46 155.53 164.31 162.42 161.92 169.51 160.21 176.59 158.45 183.75 157.09 190.92 155.79 198.12 154.67 205.24 153.02 212.47 152.09 219.72 151.24 226.97 150.43 234.09 148.6 241.42 148.45 248.6 147.05 255.9 146.71 263.21 146.56 270.45 145.59 277.75 145.29 285.03 144.82 292.26 143.61 299.56 143.46 306.87 143.56 314.15 143.14 321.44 142.92 328.7 142.03 335.99 141.49 343.31 141.92 350.6 141.74 357.9 141.69 365.18 140.91 372.49 140.73 379.79 140.53 387.1 141.34 394.4 141.51 401.65 140.37 408.9 140.49 416.15 141.29 423.4 141.34 430.64 141.81 437.92 140.88 445.15 141.59 452.4 141.76 459.65 142.02 466.88 142.58 474.12 143.02 481.36 143.33 488.62 143.25 495.83 144.19 503.04 144.91 510.27 145.42 517.53 145.6 524.8 145.58 531.95 147.01 539.23 147.03 546.43 147.89 553.65 148.63 560.82 149.72 568.03 150.5 575.16 151.89 582.45 152.16 589.53 153.77 596.65 155.13 603.77 156.49 610.74 158.53 617.87 159.82 624.89 161.62 631.85 163.63 638.48 166.52"/><polyline class="c" points="148.52 166.46 155.53 164.31 162.42 161.92 169.51 160.21 176.59 158.45 183.75 157.09 190.92 155.79 198.12 154.67 205.24 153.02 212.47 152.09 219.72 151.24 226.97 150.43 234.09 148.6 241.42 148.45 248.6 147.05 255.9 146.71 263.21 146.56 270.45 145.59 277.75 145.29 285.03 144.82 292.26 143.61 299.56 143.46 306.87 143.56 314.15 143.14 321.44 142.92 328.7 142.03 335.99 141.49 343.31 141.92 350.6 141.74 357.9 141.69 365.18 140.91 372.49 140.73 379.79 140.53 387.1 141.34 394.4 141.51 401.65 140.37 408.9 140.49 416.15 141.29 423.4 141.34 430.64 141.81 437.92 140.88 445.15 141.59 452.4 141.76 459.65 142.02 466.88 142.58 474.12 143.02 481.36 143.33 488.62 143.25 495.83 144.19 503.04 144.91 510.27 145.42 517.53 145.6 524.8 145.58 531.95 147.01 539.23 147.03 546.43 147.89 553.65 148.63 560.82 149.72 568.03 150.5 575.16 151.89 582.45 152.16 589.53 153.77 596.65 155.13 603.77 156.49 610.74 158.53 617.87 159.82 624.89 161.62 631.85 163.63 638.48 166.52"/><polygon points="161.52 165.05 166.96 168.93 172.35 172.79 177.19 177.56 184.39 178.14 191.52 178.2 198.57 179.08 205.64 179.69 212.64 181.11 219.69 182 226.77 182.63 233.82 183.49 240.98 183.32 247.97 184.75 255.1 184.94 262.13 186.05 269.28 185.9 276.33 186.81 283.31 188.47 290.49 188.06 297.49 189.45 304.55 190.28 311.59 191.24 318.74 191.17 325.83 191.76 332.85 192.98 339.92 194.2 347.06 193.84 354.18 193.74 361.29 193.54 368.4 193.14 375.52 192.86 382.64 192.85 389.74 192.09 396.86 192.23 403.97 191.78 411.08 191.3 418.2 190.95 425.34 191.49 432.46 191.35 439.56 190.77 446.67 190.19 453.8 190.36 460.9 189.83 468.02 189.46 475.16 189.95 482.29 190.16 489.39 189.43 496.51 189.07 503.61 188.57 510.61 187.91 517.63 187.21 524.59 186.15 531.47 184.57 538.48 183.78 545.37 182.27 552.39 181.54 559.31 180.22 566.34 179.55 573.28 178.29 580.24 177.24 587.18 176.02 594.01 174.07 601.13 174 608.03 172.54 615.05 171.81 621.95 170.32 628.96 169.51 635.89 168.21 643.37 166.88 635.93 164.63 628.8 163.22 621.88 161.04 615.03 158.42 607.6 158.71 600.3 158.17 593.04 157.25 585.76 156.5 578.44 156.08 571.22 154.72 563.96 153.77 556.64 153.34 549.34 152.82 542.03 152.41 534.74 151.76 527.41 151.52 520.21 149.77 512.84 149.95 505.57 149.12 498.26 148.54 491.05 147.03 483.68 147.19 476.45 145.83 469.17 145.04 461.82 145.06 454.52 144.44 447.2 144.04 439.95 142.91 432.68 141.94 425.31 142.06 418.05 141.15 410.74 140.68 403.5 142.04 396.19 141.84 388.9 142.09 381.62 142.61 374.35 143.39 367.06 143.71 359.75 143.49 352.49 144.39 345.21 145.09 337.91 145.12 330.63 145.57 323.31 145.51 316.01 145.7 308.73 146.09 301.46 146.94 294.16 147.15 286.86 147.25 279.58 147.85 272.27 147.7 264.99 148.45 257.7 148.72 250.41 149.19 243.12 149.66 235.84 150.13 228.5 149.73 221.26 150.83 214.66 152.44 207.86 153.33 201.39 155.58 194.78 157.27 188.12 158.71 181.54 160.48 174.78 161.55 168.2 163.39 161.52 165.05"/><polygon class="c" points="161.52 165.05 166.96 168.93 172.35 172.79 177.19 177.56 184.39 178.14 191.52 178.2 198.57 179.08 205.64 179.69 212.64 181.11 219.69 182 226.77 182.63 233.82 183.49 240.98 183.32 247.97 184.75 255.1 184.94 262.13 186.05 269.28 185.9 276.33 186.81 283.31 188.47 290.49 188.06 297.49 189.45 304.55 190.28 311.59 191.24 318.74 191.17 325.83 191.76 332.85 192.98 339.92 194.2 347.06 193.84 354.18 193.74 361.29 193.54 368.4 193.14 375.52 192.86 382.64 192.85 389.74 192.09 396.86 192.23 403.97 191.78 411.08 191.3 418.2 190.95 425.34 191.49 432.46 191.35 439.56 190.77 446.67 190.19 453.8 190.36 460.9 189.83 468.02 189.46 475.16 189.95 482.29 190.16 489.39 189.43 496.51 189.07 503.61 188.57 510.61 187.91 517.63 187.21 524.59 186.15 531.47 184.57 538.48 183.78 545.37 182.27 552.39 181.54 559.31 180.22 566.34 179.55 573.28 178.29 580.24 177.24 587.18 176.02 594.01 174.07 601.13 174 608.03 172.54 615.05 171.81 621.95 170.32 628.96 169.51 635.89 168.21 643.37 166.88 635.93 164.63 628.8 163.22 621.88 161.04 615.03 158.42 607.6 158.71 600.3 158.17 593.04 157.25 585.76 156.5 578.44 156.08 571.22 154.72 563.96 153.77 556.64 153.34 549.34 152.82 542.03 152.41 534.74 151.76 527.41 151.52 520.21 149.77 512.84 149.95 505.57 149.12 498.26 148.54 491.05 147.03 483.68 147.19 476.45 145.83 469.17 145.04 461.82 145.06 454.52 144.44 447.2 144.04 439.95 142.91 432.68 141.94 425.31 142.06 418.05 141.15 410.74 140.68 403.5 142.04 396.19 141.84 388.9 142.09 381.62 142.61 374.35 143.39 367.06 143.71 359.75 143.49 352.49 144.39 345.21 145.09 337.91 145.12 330.63 145.57 323.31 145.51 316.01 145.7 308.73 146.09 301.46 146.94 294.16 147.15 286.86 147.25 279.58 147.85 272.27 147.7 264.99 148.45 257.7 148.72 250.41 149.19 243.12 149.66 235.84 150.13 228.5 149.73 221.26 150.83 214.66 152.44 207.86 153.33 201.39 155.58 194.78 157.27 188.12 158.71 181.54 160.48 174.78 161.55 168.2 163.39 161.52 165.05"/><polyline class="c" points="681.06 264.63 674.11 266.6 667.1 268.31 660.1 270.06 652.83 270.59 645.94 272.93 638.82 274.14 631.63 274.96 624.55 276.33 617.46 277.65 610.45 279.43 603.22 279.96 596.26 282.11 589.04 282.69 582 284.4 574.75 284.77 567.72 286.53 560.49 287 553.33 287.82 546.22 289.1 538.96 289.2 531.9 290.94 524.63 290.92 517.48 291.94 510.29 292.53 503.16 293.82 495.96 294.39 488.77 294.94 481.55 295.17 474.32 295.26 467.18 296.61 459.97 297.14 452.71 296.59 445.54 297.88 438.3 297.44 431.09 297.87 423.87 298.23 416.65 298.04 409.42 298.17 402.2 298.52 395.06 297.9 387.91 297.93 380.76 298.01 373.63 297.36 366.47 297.67 359.33 297.36 352.19 297.04 345.05 296.78 337.89 296.61 330.79 295.68 323.66 295.07 316.48 295.33 309.36 294.63 302.29 293.41 295.16 292.85 287.98 292.8 280.86 292.09 273.8 290.87 266.71 289.94 259.66 288.77 252.47 288.66 245.43 287.43 238.3 286.81 231.33 285.06 224.26 284.03 217.12 283.47 210.13 281.92 203.07 280.79 195.93 280.25 188.85 279.2 181.97 277.12 174.82 276.49 167.78 275.29 160.84 273.52 153.93 271.71 146.73 271.21 139.89 269.06 132.84 267.85 125.83 266.51 119.06 264.16"/><line class="e" x1="654.5" y1="231.57" x2="654.49" y2="231.57"/><polyline class="f" points="620.42 239.09 619.02 239.36 611.83 240.44 604.6 241.28 597.43 242.42 590.19 243.16 586.87 243.82"/><polyline class="g" points="569.65 246.74 568.71 246.86 561.5 247.71 554.26 248.34 547.06 249.27 539.94 250.91 532.67 251.25 525.52 252.71 518.21 252.71 511.04 253.96 503.78 254.38 496.57 255.52 489.34 256.5 482.06 256.5 474.83 257.05 467.59 257.63 460.3 257.27 453.06 258.08 445.78 257.82 438.54 258.67 431.28 259.05 424.01 259.18 416.75 259.59 409.47 259.02 402.2 259.31 394.91 258.77 387.62 258.85 380.32 259.03 373.02 259.09 365.72 259.12 358.47 257.85 351.19 257.45 343.91 257.1 336.61 256.95 329.29 257.12 322.08 255.68 314.79 255.48 307.5 255.19 300.24 254.43 293.03 253.24 285.72 253.09 278.43 252.67 271.21 251.57 264.01 250.34 256.76 249.56 249.41 249.53 242.25 248.01 235.01 247.1 227.86 245.64 220.59 244.95 213.46 243.36 206.11 243.15 199 241.4 191.88 239.84 184.52 239.59 177.35 238.25 170.36 235.94 163.02 235.55 158.73 234.56"/><line class="e" x1="141.6" y1="231.23" x2="141.59" y2="231.23"/><polyline class="c" points="687.38 319.2 680.54 321.46 673.42 322.65 666.55 324.93 659.47 326.26 652.38 327.54 645.4 329.33 638.42 331.13 631.38 332.7 624.29 333.94 617.02 334.25 610.14 336.67 602.91 337.12 595.91 338.97 588.76 339.87 581.57 340.51 574.4 341.31 567.38 343.07 560.23 343.86 553.12 345.02 545.93 345.61 538.85 346.99 531.63 347.3 524.45 347.9 517.29 348.7 510.12 349.43 502.95 350.03 495.85 351.59 488.62 351.49 481.46 352.37 474.27 352.78 467.09 353.48 459.86 353.15 452.7 354.39 445.51 354.89 438.29 354.72 431.07 354.31 423.87 354.47 416.67 355.37 409.46 355.39 402.25 355.44 395.12 354.88 387.97 355.49 380.84 355.06 373.71 354.73 366.57 354.69 359.45 354.19 352.32 353.89 345.17 353.83 338.05 353.44 330.89 353.36 323.79 352.64 316.7 351.62 309.54 351.64 302.41 351.13 295.39 349.54 288.27 348.98 281.12 348.76 274.07 347.54 266.98 346.67 259.88 345.93 252.72 345.72 245.68 344.46 238.62 343.41 231.61 342.06 224.48 341.54 217.5 339.92 210.4 339.15 203.3 338.33 196.25 337.25 189.26 335.78 182.19 334.78 175.2 333.31 168.19 332.02 161.2 330.55 154.26 328.91 147.28 327.42 140.37 325.62 133.38 324.2 126.28 323.28 119.52 320.92 112.57 319.37"/><polyline class="c" points="681.04 373.8 673.95 375.15 667.09 377.53 659.96 378.69 652.84 379.92 645.91 382 638.69 382.73 631.82 385.2 624.59 385.8 617.54 387.34 610.33 388.04 603.41 390.35 596.14 390.64 589.05 392.03 581.97 393.48 574.87 394.82 567.58 394.8 560.43 395.77 553.36 397.35 546.2 398.25 538.99 398.7 531.82 399.47 524.65 400.3 517.46 400.97 510.3 401.94 503.08 402.24 495.99 403.96 488.76 404.02 481.56 404.52 474.33 404.67 467.13 405.09 459.91 405.32 452.75 406.66 445.55 407.17 438.31 407.02 431.09 407.08 423.88 407.76 416.65 407.83 409.43 407.76 402.2 407.5 395.06 407.5 387.9 407.82 380.77 407.02 373.61 407.57 366.46 407.14 359.35 406.22 352.2 406.14 345.03 406.26 337.88 406.05 330.79 404.9 323.68 404.12 316.51 404.12 309.41 403.22 302.22 403.35 295.13 402.39 288.02 401.63 280.97 400.32 273.78 400.31 266.66 399.69 259.6 398.48 252.56 397.19 245.45 396.51 238.34 395.76 231.2 395.24 224.21 393.6 217.12 392.7 210.13 391.17 203.07 390.06 195.96 389.31 188.99 387.69 181.93 386.56 174.83 385.69 167.93 383.72 160.86 382.69 153.76 381.79 146.71 380.58 139.94 378.05 132.73 377.62 125.84 375.71 119.01 373.59"/><polyline class="c" points="158.46 383.99 155.76 377.29 153.19 370.6 150.09 364.08 147.76 357.24 146.42 350.14 145.68 342.96 144.85 335.82 144.77 328.63 144.26 321.45 143.99 314.25 144.79 307.08 146.04 299.99 146.67 292.82 147.83 285.73 149.31 278.69 151.43 271.83"/><polyline class="c" points="193.1 276.27 192.22 283.36 190.31 290.26 189.32 297.33 188.76 304.45 187.66 311.52 187.23 318.65 186.83 325.79 186.69 332.94 187.93 340.04 188.36 347.14 188.59 354.3 190.53 361.2 191.24 368.36 194.17 374.92 196.57 381.6 199.51 388.07"/><polyline class="c" points="234.72 280.72 234.25 287.81 232.7 294.75 231.7 301.77 232.04 308.92 231.06 315.94 230.51 323.01 230.63 330.1 230.42 337.18 229.8 344.28 230.1 351.38 231.44 358.39 231.49 365.52 233.45 372.38 235.2 379.22 236.96 386.08 239.71 392.63"/><polyline class="c" points="277.34 285.31 276.01 292.24 275.43 299.26 275.39 306.31 274.78 313.32 274.26 320.33 273.92 327.36 273.07 334.38 272.7 341.42 273.84 348.46 273.8 355.5 273.32 362.57 273.87 369.61 275.49 376.51 276.52 383.44 277.31 390.51 280.85 396.66"/><polyline class="c" points="318.84 289.75 317.74 296.69 318.03 303.72 317.52 310.7 317.25 317.69 316.57 324.67 317.03 331.69 316.85 338.68 316.17 345.67 316.39 352.68 316.86 359.68 316.8 366.68 317.14 373.66 317.67 380.63 318.01 387.62 318.82 394.57 320.96 401.26"/><polyline class="c" points="360.4 294.22 360.19 301.65 360.46 309.08 360.39 316.51 359.81 323.94 359.01 331.35 359.39 338.79 359.66 346.22 359.9 353.66 359.31 361.09 359.4 368.52 359.29 375.96 359.28 383.4 359.44 390.84 360.63 398.2 362.24 405.22"/><polyline class="c" points="403.05 299 402.97 306.4 402.87 313.8 402.16 321.19 402.13 328.59 402.56 335.99 402.25 343.39 402.32 350.79 402.93 358.19 402.16 365.58 402.18 372.98 403.07 380.38 402.4 387.79 402.59 395.19 402.45 402.59 402.21 410"/><polyline class="c" points="652.99 271.76 655.26 278.61 656.02 285.81 657.26 292.88 659.1 299.88 659.18 307.1 659.46 314.28 659.67 321.45 660.04 328.65 659.97 335.87 658.59 342.96 657.21 350.02 655.97 357.11 654.08 364.06 651.23 370.67 648.67 377.39 645.91 384.07"/><polyline class="c" points="610.74 276.35 612.52 283.26 613.68 290.3 614.91 297.33 615.4 304.46 616.57 311.52 616.79 318.66 617.21 325.79 616.63 332.92 616.43 340.05 616.39 347.19 614.94 354.2 613.98 361.26 612.97 368.36 610.95 375.23 607.76 381.65 605.32 388.41"/><polyline class="c" points="569.46 280.72 570.81 287.69 571.49 294.75 572.6 301.76 573.19 308.83 572.68 315.98 573.28 323.03 574.19 330.09 574.04 337.18 573.46 344.26 573.79 351.36 572.69 358.38 571.8 365.39 571.01 372.43 569.86 379.45 567.76 386.27 563.76 392.22"/><polyline class="c" points="526.97 285.3 527.86 292.28 528.84 299.25 529.67 306.25 529.56 313.31 529.97 320.33 530.95 327.33 531.31 334.37 530.75 341.43 530.92 348.47 531.26 355.52 530.97 362.57 529.47 369.53 528.98 376.54 528.55 383.62 526.04 390.24 523.54 396.76"/><polyline class="c" points="484.97 289.78 485.99 296.72 486.42 303.7 487 310.68 487.13 317.69 487.73 324.67 488.14 331.66 487.27 338.69 488.09 345.67 488.14 352.68 487.88 359.69 488.09 366.69 487.36 373.68 486.9 380.66 486.08 387.6 484.93 394.47 483.23 401.25"/><polyline class="c" points="443.25 294.24 443.5 301.67 444.33 309.07 444.27 316.5 444.08 323.94 444.36 331.36 444.65 338.79 445.17 346.21 444.68 353.65 444.82 361.09 445.14 368.52 444.23 375.95 445.2 383.41 443.94 390.8 443.56 398.2 442.66 405.6"/><polyline class="c" points="165.31 383.67 159.6 388.91 154.63 394.89 149.35 400.56 143.25 405.43 138.25 411.39"/><polyline class="c" points="199.72 389.86 194.71 394.97 189.42 399.82 184.72 405.24 179.74 410.4 174.63 415.43 168.84 419.76 164.27 425.34 159.2 430.41 154.38 435.74"/><polyline class="c" points="235.29 394.75 229.63 399.28 224.59 404.42 220.02 410.05 214.26 414.48 209.58 419.99 204.19 424.8 199.49 430.3 193.96 434.97 189.3 440.51 183.92 445.33 178.95 450.56 173.4 455.23 168.37 460.41"/><polyline class="c" points="272.15 397.72 266.69 402.28 261.91 407.51 256.76 412.38 252.03 417.67 246.94 422.6 241.56 427.23 236.79 432.48 232 437.71 226.69 442.43 221.58 447.33 216.78 452.56 211.93 457.73 206.87 462.69 202.07 467.93 196.38 472.27 191.36 477.29"/><polyline class="c" points="307.97 402.49 302.58 407.05 298.08 412.53 292.78 417.19 287.77 422.15 283.14 427.5 278.04 432.37 272.57 436.86 267.73 441.99 262.44 446.67 257.97 452.16 253.2 457.37 247.82 461.96 242.37 466.47 237.94 472.03 232.85 476.91 228 482.03 222.64 486.65 218 492 212.68 496.66"/><polyline class="c" points="342.46 406.5 337.27 411.46 332.3 416.64 327.04 421.53 322.69 427.33 317.5 432.29 311.78 436.73 307.34 442.44 301.91 447.16 296.63 452.04 292 457.56 286.98 462.69 281.99 467.85 276.4 472.4 271.45 477.61 266.17 482.49 261.42 487.89 256.68 493.31 250.91 497.7 245.9 502.85 240.78 507.89 235.77 513.05 230.87 518.32"/><polyline class="c" points="379.57 409.1 374.77 414.65 369.27 419.49 364.74 425.3 359.11 430.03 354.28 435.54 348.99 440.6 343.86 445.82 338.71 451.02 332.96 455.62 328.53 461.54 322.81 466.17 317.95 471.66 313.01 477.06 307.03 481.44 301.89 486.64 297.38 492.48 291.92 497.37 286.34 502.15 281.5 507.66 276.35 512.87 270.98 517.85 265.68 522.91 260.45 528.04 255.63 533.59"/><polyline class="c" points="634.19 384.13 640.3 388.98 645.67 394.55 651.24 399.94 656.22 405.93 661.82 411.29"/><polyline class="c" points="600.31 389.8 605.16 395.08 610.48 399.89 615.53 404.97 620.98 409.66 626.02 414.75 631.05 419.85 635.67 425.37 640.95 430.23 646.01 435.32"/><polyline class="c" points="564.81 394.62 569.73 399.89 574.9 404.91 580.01 409.99 585.21 414.98 590.65 419.74 595.95 424.64 600.55 430.24 605.76 435.22 611.11 440.08 616.27 445.11 620.98 450.61 625.99 455.81 631.18 460.84"/><polyline class="c" points="527.74 397.8 533.27 402.29 538.12 407.45 543.13 412.46 548.26 417.36 553.54 422.09 558.4 427.25 563.38 432.28 568.52 437.16 573.33 442.38 577.99 447.74 583.02 452.73 588.53 457.25 593.65 462.15 598.61 467.22 602.99 472.88 608.06 477.84"/><polyline class="c" points="492.42 402.06 496.73 407.73 502.44 411.98 507.45 416.93 511.77 422.59 516.99 427.34 522 432.3 526.88 437.39 532.28 441.95 537.27 446.93 542.22 451.94 547.15 456.99 552.3 461.81 557.05 467.03 562.37 471.68 566.99 477.04 572.47 481.53 577.51 486.47 582.25 491.72 587.72 496.23"/><polyline class="c" points="457.66 406.36 462.12 412.04 467.11 417.2 472.19 422.28 477.61 427 482.57 432.19 488.02 436.9 493.07 442 497.6 447.63 502.6 452.78 508.4 457.13 513.37 462.31 518.03 467.8 523.27 472.71 528.17 477.96 533.43 482.86 538.89 487.56 543.71 492.9 549.04 497.72 553.57 503.36 559.03 508.06 564.09 513.16 568.93 518.49"/><polyline class="c" points="420.38 409.12 425.6 414.25 430.64 419.56 436 424.54 440.5 430.39 446.01 435.23 451.43 440.16 456.02 445.91 461.22 451.06 466.57 456.06 471.44 461.54 476.87 466.47 482.37 471.31 486.93 477.1 492.2 482.18 498.1 486.62 502.48 492.59 507.71 497.71 512.82 502.96 518.79 507.34 523.48 513.01 528.76 518.08 533.6 523.6 538.82 528.75 544.11 533.83"/><polygon points="195.85 284.22 189.57 282.16 182.74 281.14 175.84 280.49 168.98 279.66 162.21 278.32 155.38 277.24 148.42 275.41 147.12 282.45 146.17 289.29 145.06 296.1 143.55 302.85 142.57 309.69 141.06 316.44 140.13 323.53 147.23 324.38 154.09 325.21 160.84 326.71 167.58 328.25 174.46 329 181.32 329.85 188.03 331.55 189.27 324.77 189.87 317.87 192 311.23 192.49 304.31 193.78 297.53 195.09 290.74 195.85 284.22"/><polygon points="106.27 327.9 107.46 334.49 110.25 340.8 111.55 347.54 113.13 354.19 114.92 360.79 117.57 367.16 118.78 374.05 125.63 375.07 132.28 376.4 138.96 377.64 145.47 379.64 152.18 380.77 158.65 382.44 156.47 375.4 154.63 368.14 152.26 361.04 150.99 353.63 147.86 346.74 145.98 339.49 144.41 332 137.81 329.76 131.43 327.39 125.22 324.55 118.72 322.44 112.73 320.13 106.27 327.9"/><polygon points="187.21 336.64 189.07 343.16 190.19 349.86 192.02 356.41 192.43 363.26 194.21 369.81 196.07 376.36 197.67 382.96 198.86 389.36 205.81 391.27 213.26 391.98 220.45 394.01 227.84 395.03 234.69 396.42 234.54 389.35 232.95 382.01 232.45 374.53 230.79 367.2 230.63 359.67 229.36 352.28 228.79 344.8 227.65 337.09 220.62 337.66 213.94 337.09 207.25 337.43 200.57 336.81 193.88 336.68 187.21 336.64"/><polygon points="235.24 289.9 234.16 297.03 233.69 304.37 233.59 311.74 232.32 319.01 232.55 326.41 231.65 333.72 231.01 340.98 237.74 342.17 244.56 343.27 251.33 344.66 258.14 345.85 265.13 345.87 272.11 347.83 272.7 340.5 273.43 333.47 274.03 326.43 274.83 319.41 274.75 312.31 275.61 305.29 275.8 298.2 276.85 291.23 269.95 290.5 262.95 290.93 255.98 290.99 249.01 290.71 242.04 290.53 235.24 289.9"/><polygon points="280.8 396.56 279.89 389.69 278.6 382.65 276.42 375.78 275.38 368.71 274 361.69 272.69 354.65 271.91 347.57 279.45 349.11 287.19 349.54 294.74 351.32 302.51 351.59 310.1 353.08 317.63 354.15 317.91 361.18 317.88 368.36 318.48 375.53 318.23 382.71 317.88 389.9 318.75 397.07 318.79 404.37 311.09 402.7 303.5 401.01 295.73 400.22 288.08 398.75 280.8 396.56"/><polygon points="315.84 345.81 315.94 338.72 316.24 332.02 316.72 325.32 316.94 318.62 317.57 311.93 317.32 305.19 318.3 298.75 325.15 299.01 332.07 300.68 339.1 301.39 346.1 302.43 353.18 302.9 360.01 303.83 360.6 311.02 361.13 318.4 362.4 325.72 363.06 333.09 363.19 340.51 364.49 347.83 364.74 355.36 357.8 353.5 350.73 352.93 343.95 350.9 337.12 349.16 330.19 347.86 323.25 346.5 315.84 345.81"/><polygon points="361.6 405.62 361.8 398.3 361.15 391.14 360.57 383.97 360.03 376.81 360.57 369.59 359.92 362.42 358.99 354.92 366.46 355.81 373.54 357.04 380.66 357.91 387.81 358.49 395.03 358.42 402.41 359.24 402.38 366.35 401.79 373.21 402.33 380.06 401.92 386.91 401.83 393.77 402.13 400.63 402.34 407.64 395.48 406.73 388.7 407.2 381.99 406.24 375.24 406.13 368.47 406.21 361.6 405.62"/><polygon points="196.47 283.79 189.44 282.87 182.75 281.06 175.95 279.89 169.13 278.8 162.24 278.13 155.42 277.01 148.87 276.05 147.92 282.58 146.66 289.37 145.54 296.19 143.97 302.92 142.4 309.66 141.08 316.44 140.57 323.22 147.23 324.35 154.04 325.49 160.84 326.7 167.63 327.95 174.39 329.35 181.27 330.17 188.07 331.62 189.47 324.81 190.03 317.9 191.73 311.19 193.02 304.41 194.43 297.64 195.19 290.76 196.47 283.79"/><polygon points="106.21 327.88 108.02 334.33 109.65 340.97 111.88 347.44 113.56 354.07 115.17 360.72 116.56 367.44 118.96 373.86 125.61 375.17 132.1 377.24 138.75 378.56 145.47 379.61 152.13 381.01 158.77 382.54 156.23 375.47 154.38 368.22 152.52 360.96 149.95 353.93 148.44 346.57 146.74 339.27 144.53 331.9 137.81 329.75 131.3 327.71 125.25 324.47 118.92 321.95 112.57 319.78 106.21 327.88"/><polygon points="186.8 336.31 188.53 343.28 190.06 349.89 191.19 356.58 192.9 363.16 194.22 369.81 195.43 376.49 197.16 383.07 198.62 389.62 205.77 391.47 213.2 392.25 220.43 394.13 227.72 395.64 235.38 397.14 234.2 389.4 233.49 381.94 232.06 374.58 230.93 367.18 230.73 359.65 229.02 352.33 228.58 344.83 227.37 337.37 220.62 337.27 213.94 336.88 207.25 337.51 200.58 336.43 193.88 336.79 186.8 336.31"/><polygon points="235.49 290.17 233.98 297.02 234.3 304.42 233.59 311.74 232.92 319.06 231.66 326.34 231.91 333.74 230.88 341.08 237.82 341.64 244.51 343.58 251.33 344.67 258.15 345.79 265.05 346.37 271.56 347.13 272.21 340.46 272.67 333.41 274.32 326.46 273.82 319.32 274.51 312.29 275.78 305.3 276.12 298.23 276.98 291.11 269.92 291.17 262.95 291.1 255.99 290.78 249.04 289.99 242.06 289.48 235.49 290.17"/><polygon points="280.82 396.53 279.55 389.75 277.65 382.82 277.01 375.68 275.35 368.71 273.89 361.71 273.1 354.58 271.71 347.35 279.5 348.71 287.13 349.96 294.75 351.27 302.49 351.7 310.11 353.02 317.8 353.99 318.14 361.17 318.49 368.35 318.74 375.52 317.96 382.71 318.45 389.89 318.86 397.07 318.7 404.25 311.11 402.63 303.52 400.92 295.73 400.21 288.27 397.89 280.82 396.53"/><polygon points="315.89 345.77 316.34 338.74 316.4 332.03 317.55 325.36 317.21 318.63 317.67 311.93 317.89 305.21 317.86 298.21 325.1 299.45 332.06 300.76 339.17 300.87 346.11 302.37 353.2 302.68 360 303.83 361.1 310.98 361.62 318.36 362.36 325.73 363.01 333.1 363.46 340.49 363.96 347.87 364.73 355.34 357.68 354.1 350.88 352.19 343.87 351.29 336.9 350.21 330.15 348.04 323.16 347.05 315.89 345.77"/><polygon points="362.11 405.14 361.66 398.31 360.75 391.16 360.99 383.95 360.37 376.79 359.71 369.63 359.18 362.45 359.66 355.62 366.46 355.81 373.56 356.85 380.77 356.78 387.86 358.03 395.02 358.5 402.11 359.52 402.02 366.35 402.34 373.21 401.85 380.06 401.89 386.91 402.36 393.77 401.7 400.63 402.47 407.78 395.45 407.38 388.74 406.48 381.97 406.65 375.23 406.26 368.47 406.05 362.11 405.14"/><polygon points="617.24 334.27 624.4 332.51 631.97 331.53 639.46 330.06 647.07 329.32 654.67 327.54 653.87 334.54 653.34 341.38 651.81 348.12 651.8 355.03 650.46 361.79 650.79 368.73 649.26 375.48 648.55 382.09 641.44 382.58 634.12 382.81 626.79 382.27 619.46 382.26 612.21 382.49 612.67 375.61 613.68 368.69 614.26 361.74 614.75 354.78 615.27 347.81 616.46 340.91 617.24 334.27"/><polygon points="687.56 276.67 686.2 284.19 686.09 291.64 685.36 299.04 684.66 306.45 683.83 313.58 677.08 317.05 669.77 319.84 662.23 322.87 661.36 315.38 661.23 308.17 660.76 300.99 660.3 293.8 660.06 286.6 659.28 279.42 659.19 272.37 666.17 270.71 673.42 269.63 680.65 268.67 687.56 276.67"/><polygon points="610.89 284.71 611.91 292.11 612.5 299.63 612.37 307.2 613.87 314.65 614.41 322.17 614.36 329.5 607.29 330.9 600.14 333.15 592.64 333.59 585.49 335.87 578.32 336.51 577.09 329.49 575.98 322.16 574.73 314.85 574.14 307.44 572.69 300.16 571.96 292.78 571.16 285.66 577.55 285.18 584.22 284.73 590.91 284.7 597.61 285.41 604.3 285.34 610.89 284.71"/><polygon points="570.71 344.12 571.12 351.06 571.35 358.39 571.62 365.71 570.63 373.05 571.49 380.37 571.01 387.71 571.03 394.86 563.61 396.04 556.15 398.11 548.43 398.6 540.87 400.09 533.1 401.81 532.28 394.52 531.52 387.49 531.09 380.44 530.47 373.4 530.26 366.32 529.39 359.3 528.75 352.25 528.55 345.43 535.42 345.38 542.55 344.94 549.66 344.05 556.79 343.76 563.94 343.44 570.71 344.12"/><polygon points="527.97 344.18 528.38 336.7 529.69 329.68 531.2 322.68 532.06 315.58 533.59 308.58 534.73 301.52 536.43 294.38 528.65 295.57 521.04 296.95 513.41 298.19 505.72 299.01 498.12 300.44 490.58 301.18 489.9 308.17 489.61 315.34 490.26 322.54 489.63 329.7 489.85 336.89 489.63 344.07 489.69 350.96 497.1 349.79 504.62 347.76 512.25 346.24 519.93 344.92 527.97 344.18"/><polygon points="494.97 398.51 494.98 391.73 494.87 385.02 494.51 378.32 494.02 371.63 493.18 364.94 492.81 358.23 493.18 351.37 486.05 352.29 478.98 352.71 471.99 353.72 465.03 355.11 457.93 355.35 450.71 356.41 450.48 364.02 449.61 371.37 449.37 378.77 447.88 386.07 448.07 393.52 447.58 400.9 446.76 408 453.47 407.01 460.38 405.62 467.15 403.57 474.25 403.14 480.96 400.71 487.87 399.3 494.97 398.51"/><polygon points="443.35 351.42 443.7 344.32 443.61 337.12 444 329.94 444.52 322.78 445.17 315.62 445.8 308.44 445.82 301.3 438.69 301.56 431.57 302.45 424.48 303.6 417.38 304.65 410.17 304.7 402.68 305.16 403.26 312.35 402.97 319.21 403.13 326.06 403.24 332.91 402.92 339.77 403.1 346.63 403.11 353.35 409.72 353.26 416.47 353.19 423.2 352.63 429.94 352.33 436.71 352.29 443.35 351.42"/><polygon class="b" points="109.58 582.59 110.02 590 109.05 597.49 109.87 604.99 108.92 612.49 110.07 619.99 109.31 627.49 109.52 635 109.05 642.88 116.64 643.15 123.68 644.49 130.82 645.08 137.81 646.86 144.98 647.24 152.01 648.64 159.14 649.37 166.26 650.1 173.35 651.12 180.53 651.4 187.57 652.77 194.58 654.37 201.79 654.44 208.77 656.26 215.99 656.21 223.03 657.56 230.12 658.52 237.2 659.61 244.3 660.52 251.42 661.25 258.54 662.06 265.64 662.98 272.74 663.87 279.77 665.3 286.9 666.03 294 666.99 301.03 668.44 308.26 668.38 315.22 670.33 322.46 670.27 329.54 671.36 336.64 672.24 343.63 674 350.79 674.53 357.92 675.22 364.98 676.47 372.16 676.82 379.18 678.35 386.33 678.93 393.35 680.51 400.5 681.17 400.8 673.71 400.44 666.26 400.77 658.8 400.41 651.34 401 643.88 400.33 636.43 400.43 628.96 400.37 621.61 393.37 620.81 386.33 619.4 379.19 618.85 372.07 618.04 365.03 616.65 357.96 615.51 350.86 614.6 343.76 613.64 336.6 613.23 329.51 612.17 322.51 610.5 315.36 610 308.29 608.88 301.08 608.78 294.09 607.07 286.97 606.31 279.86 605.49 272.77 604.49 265.65 603.67 258.51 603.07 251.43 602 244.36 600.85 237.24 600.1 230.2 598.72 223.18 597.16 216.06 596.37 208.86 596.23 201.87 594.4 194.75 593.63 187.61 593 180.53 591.89 173.36 591.45 166.25 590.57 159.25 588.93 152.08 588.48 145.01 587.3 137.88 586.61 130.89 584.84 123.65 584.87 116.68 582.92 109.58 582.59"/><polygon class="c" points="109.58 582.59 110.02 590 109.05 597.49 109.87 604.99 108.92 612.49 110.07 619.99 109.31 627.49 109.52 635 109.05 642.88 116.64 643.15 123.68 644.49 130.82 645.08 137.81 646.86 144.98 647.24 152.01 648.64 159.14 649.37 166.26 650.1 173.35 651.12 180.53 651.4 187.57 652.77 194.58 654.37 201.79 654.44 208.77 656.26 215.99 656.21 223.03 657.56 230.12 658.52 237.2 659.61 244.3 660.52 251.42 661.25 258.54 662.06 265.64 662.98 272.74 663.87 279.77 665.3 286.9 666.03 294 666.99 301.03 668.44 308.26 668.38 315.22 670.33 322.46 670.27 329.54 671.36 336.64 672.24 343.63 674 350.79 674.53 357.92 675.22 364.98 676.47 372.16 676.82 379.18 678.35 386.33 678.93 393.35 680.51 400.5 681.17 400.8 673.71 400.44 666.26 400.77 658.8 400.41 651.34 401 643.88 400.33 636.43 400.43 628.96 400.37 621.61 393.37 620.81 386.33 619.4 379.19 618.85 372.07 618.04 365.03 616.65 357.96 615.51 350.86 614.6 343.76 613.64 336.6 613.23 329.51 612.17 322.51 610.5 315.36 610 308.29 608.88 301.08 608.78 294.09 607.07 286.97 606.31 279.86 605.49 272.77 604.49 265.65 603.67 258.51 603.07 251.43 602 244.36 600.85 237.24 600.1 230.2 598.72 223.18 597.16 216.06 596.37 208.86 596.23 201.87 594.4 194.75 593.63 187.61 593 180.53 591.89 173.36 591.45 166.25 590.57 159.25 588.93 152.08 588.48 145.01 587.3 137.88 586.61 130.89 584.84 123.65 584.87 116.68 582.92 109.58 582.59"/><polygon points="688.28 582.85 681.18 584.48 673.98 585.37 666.77 586.24 659.49 586.5 652.37 588.03 645.22 589.3 637.99 589.98 630.78 590.86 623.52 591.35 616.36 592.53 609.18 593.63 602.07 595.17 594.86 595.96 587.54 596.02 580.39 597.31 573.29 598.89 566.02 599.29 558.81 600.14 551.66 601.43 544.53 602.9 537.27 603.34 530.03 603.94 522.8 604.65 515.65 605.97 508.55 607.61 501.26 607.91 494.01 608.45 486.84 609.6 479.65 610.62 472.54 612.22 465.28 612.73 458.11 613.92 450.96 615.19 443.75 616.1 436.51 616.68 429.33 617.84 422.14 618.78 414.97 619.99 407.63 619.95 400.65 621.63 400.31 629 399.97 636.49 400.23 643.99 400.49 651.49 400.86 658.99 400.63 666.49 400.45 674 400.55 681.45 407.54 680.15 414.64 679.19 421.71 678.1 428.87 677.63 436 676.91 443.15 676.37 450.16 674.75 457.28 673.98 464.35 672.83 471.52 672.46 478.53 670.9 485.66 670.14 492.73 669.04 499.9 668.72 506.91 667.13 514.05 666.53 521.16 665.67 528.24 664.6 535.27 663.19 542.37 662.27 549.57 662.12 556.52 660.09 563.65 659.35 570.77 658.56 577.88 657.75 584.94 656.51 592.07 655.81 599.13 654.55 606.24 653.66 613.38 653.05 620.46 651.92 627.65 651.64 634.76 650.81 641.72 648.82 648.89 648.45 655.93 647.04 663.11 646.63 670.15 645.31 677.35 645.06 684.39 643.61 691.76 642.89 691 635.15 691.87 627.63 691.57 620.12 691.9 612.6 691.98 605.07 691.33 597.55 691.14 590.03 691.5 582.5 688.28 582.85"/><polygon class="c" points="688.28 582.85 681.18 584.48 673.98 585.37 666.77 586.24 659.49 586.5 652.37 588.03 645.22 589.3 637.99 589.98 630.78 590.86 623.52 591.35 616.36 592.53 609.18 593.63 602.07 595.17 594.86 595.96 587.54 596.02 580.39 597.31 573.29 598.89 566.02 599.29 558.81 600.14 551.66 601.43 544.53 602.9 537.27 603.34 530.03 603.94 522.8 604.65 515.65 605.97 508.55 607.61 501.26 607.91 494.01 608.45 486.84 609.6 479.65 610.62 472.54 612.22 465.28 612.73 458.11 613.92 450.96 615.19 443.75 616.1 436.51 616.68 429.33 617.84 422.14 618.78 414.97 619.99 407.63 619.95 400.65 621.63 400.31 629 399.97 636.49 400.23 643.99 400.49 651.49 400.86 658.99 400.63 666.49 400.45 674 400.55 681.45 407.54 680.15 414.64 679.19 421.71 678.1 428.87 677.63 436 676.91 443.15 676.37 450.16 674.75 457.28 673.98 464.35 672.83 471.52 672.46 478.53 670.9 485.66 670.14 492.73 669.04 499.9 668.72 506.91 667.13 514.05 666.53 521.16 665.67 528.24 664.6 535.27 663.19 542.37 662.27 549.57 662.12 556.52 660.09 563.65 659.35 570.77 658.56 577.88 657.75 584.94 656.51 592.07 655.81 599.13 654.55 606.24 653.66 613.38 653.05 620.46 651.92 627.65 651.64 634.76 650.81 641.72 648.82 648.89 648.45 655.93 647.04 663.11 646.63 670.15 645.31 677.35 645.06 684.39 643.61 691.76 642.89 691 635.15 691.87 627.63 691.57 620.12 691.9 612.6 691.98 605.07 691.33 597.55 691.14 590.03 691.5 582.5 688.28 582.85"/></svg>